<?xml version="1.0" encoding="UTF-8" standalone="no"?><svg xmlns="http://www.w3.org/2000/svg" xmlns:xlink="http://www.w3.org/1999/xlink" contentScriptType="application/ecmascript" contentStyleType="text/css" height="831.25px" preserveAspectRatio="none" style="width:1727px;height:831px;" version="1.1" viewBox="0 0 1727 831" width="1727.5px" zoomAndPan="magnify"><defs><filter height="300%" id="f1583lcq43r9y5" width="300%" x="-1" y="-1"><feGaussianBlur result="blurOut" stdDeviation="2.5"/><feColorMatrix in="blurOut" result="blurOut2" type="matrix" values="0 0 0 0 0 0 0 0 0 0 0 0 0 0 0 0 0 0 .4 0"/><feOffset dx="5.0" dy="5.0" in="blurOut2" result="blurOut3"/><feBlend in="SourceGraphic" in2="blurOut3" mode="normal"/></filter></defs><g><!--MD5=[e45a4727c47b726c25e081782e8bc183]
class ApplicationPOT--><rect codeLine="6" fill="#FEFECE" filter="url(#f1583lcq43r9y5)" height="84.5898" id="ApplicationPOT" style="stroke:#A80036;stroke-width:1.875;" width="145" x="951.25" y="378.625"/><ellipse cx="970" cy="398.625" fill="#ADD1B2" rx="13.75" ry="13.75" style="stroke:#A80036;stroke-width:1.25;"/><path d="M972.5,394.25 Q972.7539,393.625 973.0469,393.3125 Q973.3398,393 973.6719,393 Q974.2578,393 974.6289,393.3516 Q975,393.7031 975,394.5234 L975,396.4766 Q975,397.2969 974.6484,397.6484 Q974.2969,398 973.75,398 Q973.2617,398 972.9492,397.7852 Q972.6367,397.5703 972.5,397.0039 Q972.4414,396.6133 972.2266,396.3984 Q971.8359,395.9883 971.1328,395.7539 Q970.4297,395.5 969.7266,395.5 Q968.8477,395.5 968.1055,395.8516 Q967.3828,396.2031 966.8164,396.9844 Q966.25,397.7656 966.25,398.8398 L966.25,399.9922 Q966.25,401.2813 967.3047,402.1406 Q968.3594,403 970.2344,403 Q971.3477,403 972.1289,402.7461 Q972.5781,402.6094 973.0859,402.1602 Q973.418,401.9063 973.5938,401.8281 Q973.7695,401.75 973.9844,401.75 Q974.3945,401.75 974.6875,402.082 Q975,402.3945 975,402.8438 Q975,403.2734 974.5703,403.7813 Q973.9453,404.5234 972.9492,404.9336 Q971.6406,405.5 970.0391,405.5 Q968.1641,405.5 966.6602,404.7578 Q965.4492,404.1719 964.5898,402.9023 Q963.75,401.6328 963.75,400.1289 L963.75,398.7617 Q963.75,397.1992 964.4922,395.832 Q965.2539,394.4648 966.5625,393.7422 Q967.8906,393 969.375,393 Q970.2734,393 971.0547,393.3125 Q971.8359,393.625 972.5,394.25 Z " fill="#000000"/><text fill="#000000" font-family="sans-serif" font-size="15" lengthAdjust="spacing" textLength="105" x="987.5" y="404.7627">ApplicationPOT</text><line style="stroke:#A80036;stroke-width:1.875;" x1="952.5" x2="1095" y1="418.625" y2="418.625"/><text fill="#000000" font-family="sans-serif" font-size="13.75" lengthAdjust="spacing" textLength="123.75" x="958.75" y="437.8987">+static getInstance()</text><text fill="#000000" font-family="sans-serif" font-size="13.75" lengthAdjust="spacing" textLength="130" x="958.75" y="455.1936">+getCurrentSession()</text><!--MD5=[c5b08e60048ef1bcd788d24cf324082e]
class UserSession--><rect codeLine="12" fill="#FEFECE" filter="url(#f1583lcq43r9y5)" height="67.2949" id="UserSession" style="stroke:#A80036;stroke-width:1.875;" width="163.75" x="941.875" y="507.375"/><ellipse cx="975.25" cy="527.375" fill="#ADD1B2" rx="13.75" ry="13.75" style="stroke:#A80036;stroke-width:1.25;"/><path d="M977.75,523 Q978.0039,522.375 978.2969,522.0625 Q978.5898,521.75 978.9219,521.75 Q979.5078,521.75 979.8789,522.1016 Q980.25,522.4531 980.25,523.2734 L980.25,525.2266 Q980.25,526.0469 979.8984,526.3984 Q979.5469,526.75 979,526.75 Q978.5117,526.75 978.1992,526.5352 Q977.8867,526.3203 977.75,525.7539 Q977.6914,525.3633 977.4766,525.1484 Q977.0859,524.7383 976.3828,524.5039 Q975.6797,524.25 974.9766,524.25 Q974.0977,524.25 973.3555,524.6016 Q972.6328,524.9531 972.0664,525.7344 Q971.5,526.5156 971.5,527.5898 L971.5,528.7422 Q971.5,530.0313 972.5547,530.8906 Q973.6094,531.75 975.4844,531.75 Q976.5977,531.75 977.3789,531.4961 Q977.8281,531.3594 978.3359,530.9102 Q978.668,530.6563 978.8438,530.5781 Q979.0195,530.5 979.2344,530.5 Q979.6445,530.5 979.9375,530.832 Q980.25,531.1445 980.25,531.5938 Q980.25,532.0234 979.8203,532.5313 Q979.1953,533.2734 978.1992,533.6836 Q976.8906,534.25 975.2891,534.25 Q973.4141,534.25 971.9102,533.5078 Q970.6992,532.9219 969.8398,531.6523 Q969,530.3828 969,528.8789 L969,527.5117 Q969,525.9492 969.7422,524.582 Q970.5039,523.2148 971.8125,522.4922 Q973.1406,521.75 974.625,521.75 Q975.5234,521.75 976.3047,522.0625 Q977.0859,522.375 977.75,523 Z " fill="#000000"/><text fill="#000000" font-family="sans-serif" font-size="15" lengthAdjust="spacing" textLength="91.25" x="996" y="533.5127">UserSession</text><line style="stroke:#A80036;stroke-width:1.875;" x1="943.125" x2="1104.375" y1="547.375" y2="547.375"/><text fill="#000000" font-family="sans-serif" font-size="13.75" lengthAdjust="spacing" textLength="148.75" x="949.375" y="566.6487">+getUserPhoneNumber()</text><!--MD5=[1f6362a5c8f21d8d6a0fce68f3a92a4e]
class Parameter--><rect codeLine="17" fill="#FEFECE" filter="url(#f1583lcq43r9y5)" height="129.1797" id="Parameter" style="stroke:#A80036;stroke-width:1.875;" width="358.75" x="1351.25" y="161.75"/><ellipse cx="1489.0625" cy="181.75" fill="#ADD1B2" rx="13.75" ry="13.75" style="stroke:#A80036;stroke-width:1.25;"/><path d="M1491.5625,177.375 Q1491.8164,176.75 1492.1094,176.4375 Q1492.4023,176.125 1492.7344,176.125 Q1493.3203,176.125 1493.6914,176.4766 Q1494.0625,176.8281 1494.0625,177.6484 L1494.0625,179.6016 Q1494.0625,180.4219 1493.7109,180.7734 Q1493.3594,181.125 1492.8125,181.125 Q1492.3242,181.125 1492.0117,180.9102 Q1491.6992,180.6953 1491.5625,180.1289 Q1491.5039,179.7383 1491.2891,179.5234 Q1490.8984,179.1133 1490.1953,178.8789 Q1489.4922,178.625 1488.7891,178.625 Q1487.9102,178.625 1487.168,178.9766 Q1486.4453,179.3281 1485.8789,180.1094 Q1485.3125,180.8906 1485.3125,181.9648 L1485.3125,183.1172 Q1485.3125,184.4063 1486.3672,185.2656 Q1487.4219,186.125 1489.2969,186.125 Q1490.4102,186.125 1491.1914,185.8711 Q1491.6406,185.7344 1492.1484,185.2852 Q1492.4805,185.0313 1492.6563,184.9531 Q1492.832,184.875 1493.0469,184.875 Q1493.457,184.875 1493.75,185.207 Q1494.0625,185.5195 1494.0625,185.9688 Q1494.0625,186.3984 1493.6328,186.9063 Q1493.0078,187.6484 1492.0117,188.0586 Q1490.7031,188.625 1489.1016,188.625 Q1487.2266,188.625 1485.7227,187.8828 Q1484.5117,187.2969 1483.6523,186.0273 Q1482.8125,184.7578 1482.8125,183.2539 L1482.8125,181.8867 Q1482.8125,180.3242 1483.5547,178.957 Q1484.3164,177.5898 1485.625,176.8672 Q1486.9531,176.125 1488.4375,176.125 Q1489.3359,176.125 1490.1172,176.4375 Q1490.8984,176.75 1491.5625,177.375 Z " fill="#000000"/><text fill="#000000" font-family="sans-serif" font-size="15" lengthAdjust="spacing" textLength="72.5" x="1514.6875" y="187.8877">Parameter</text><line style="stroke:#A80036;stroke-width:1.875;" x1="1352.5" x2="1708.75" y1="201.75" y2="201.75"/><text fill="#000000" font-family="sans-serif" font-size="13.75" lengthAdjust="spacing" textLength="136.25" x="1358.75" y="221.0237">-String parameterCode</text><text fill="#000000" font-family="sans-serif" font-size="13.75" lengthAdjust="spacing" textLength="108.75" x="1358.75" y="238.3186">-String shortName</text><text fill="#000000" font-family="sans-serif" font-size="13.75" lengthAdjust="spacing" textLength="110" x="1358.75" y="255.6135">-String description</text><line style="stroke:#A80036;stroke-width:1.875;" x1="1352.5" x2="1708.75" y1="263.6348" y2="263.6348"/><text fill="#000000" font-family="sans-serif" font-size="13.75" lengthAdjust="spacing" textLength="343.75" x="1358.75" y="282.9084">+Parameter(parameterCode, shortName, description, cat)</text><!--MD5=[36afb6bbd95a8ac778c4537c55a683d5]
class ParameterCategory--><rect codeLine="24" fill="#FEFECE" filter="url(#f1583lcq43r9y5)" height="129.1797" id="ParameterCategory" style="stroke:#A80036;stroke-width:1.875;" width="258.75" x="1401.25" y="610.5"/><ellipse cx="1458.4375" cy="630.5" fill="#ADD1B2" rx="13.75" ry="13.75" style="stroke:#A80036;stroke-width:1.25;"/><path d="M1460.9375,626.125 Q1461.1914,625.5 1461.4844,625.1875 Q1461.7773,624.875 1462.1094,624.875 Q1462.6953,624.875 1463.0664,625.2266 Q1463.4375,625.5781 1463.4375,626.3984 L1463.4375,628.3516 Q1463.4375,629.1719 1463.0859,629.5234 Q1462.7344,629.875 1462.1875,629.875 Q1461.6992,629.875 1461.3867,629.6602 Q1461.0742,629.4453 1460.9375,628.8789 Q1460.8789,628.4883 1460.6641,628.2734 Q1460.2734,627.8633 1459.5703,627.6289 Q1458.8672,627.375 1458.1641,627.375 Q1457.2852,627.375 1456.543,627.7266 Q1455.8203,628.0781 1455.2539,628.8594 Q1454.6875,629.6406 1454.6875,630.7148 L1454.6875,631.8672 Q1454.6875,633.1563 1455.7422,634.0156 Q1456.7969,634.875 1458.6719,634.875 Q1459.7852,634.875 1460.5664,634.6211 Q1461.0156,634.4844 1461.5234,634.0352 Q1461.8555,633.7813 1462.0313,633.7031 Q1462.207,633.625 1462.4219,633.625 Q1462.832,633.625 1463.125,633.957 Q1463.4375,634.2695 1463.4375,634.7188 Q1463.4375,635.1484 1463.0078,635.6563 Q1462.3828,636.3984 1461.3867,636.8086 Q1460.0781,637.375 1458.4766,637.375 Q1456.6016,637.375 1455.0977,636.6328 Q1453.8867,636.0469 1453.0273,634.7773 Q1452.1875,633.5078 1452.1875,632.0039 L1452.1875,630.6367 Q1452.1875,629.0742 1452.9297,627.707 Q1453.6914,626.3398 1455,625.6172 Q1456.3281,624.875 1457.8125,624.875 Q1458.7109,624.875 1459.4922,625.1875 Q1460.2734,625.5 1460.9375,626.125 Z " fill="#000000"/><text fill="#000000" font-family="sans-serif" font-size="15" lengthAdjust="spacing" textLength="133.75" x="1484.0625" y="636.6377">ParameterCategory</text><line style="stroke:#A80036;stroke-width:1.875;" x1="1402.5" x2="1658.75" y1="650.5" y2="650.5"/><text fill="#000000" font-family="sans-serif" font-size="13.75" lengthAdjust="spacing" textLength="73.75" x="1408.75" y="669.7737">-String code</text><text fill="#000000" font-family="sans-serif" font-size="13.75" lengthAdjust="spacing" textLength="76.25" x="1408.75" y="687.0686">-String name</text><text fill="#000000" font-family="sans-serif" font-size="13.75" lengthAdjust="spacing" textLength="76.25" x="1408.75" y="704.3635">-String nhsId</text><line style="stroke:#A80036;stroke-width:1.875;" x1="1402.5" x2="1658.75" y1="712.3848" y2="712.3848"/><text fill="#000000" font-family="sans-serif" font-size="13.75" lengthAdjust="spacing" textLength="243.75" x="1408.75" y="731.6584">+ParameterCategory(code, name, nhsId)</text><!--MD5=[02e4b9b7573f1156f41e60aa5b4e25a4]
class Company--><rect codeLine="31" fill="#FEFECE" filter="url(#f1583lcq43r9y5)" height="215.6543" id="Company" style="stroke:#A80036;stroke-width:1.875;" width="397.5" x="825" y="118"/><ellipse cx="985.3125" cy="138" fill="#ADD1B2" rx="13.75" ry="13.75" style="stroke:#A80036;stroke-width:1.25;"/><path d="M987.8125,133.625 Q988.0664,133 988.3594,132.6875 Q988.6523,132.375 988.9844,132.375 Q989.5703,132.375 989.9414,132.7266 Q990.3125,133.0781 990.3125,133.8984 L990.3125,135.8516 Q990.3125,136.6719 989.9609,137.0234 Q989.6094,137.375 989.0625,137.375 Q988.5742,137.375 988.2617,137.1602 Q987.9492,136.9453 987.8125,136.3789 Q987.7539,135.9883 987.5391,135.7734 Q987.1484,135.3633 986.4453,135.1289 Q985.7422,134.875 985.0391,134.875 Q984.1602,134.875 983.418,135.2266 Q982.6953,135.5781 982.1289,136.3594 Q981.5625,137.1406 981.5625,138.2148 L981.5625,139.3672 Q981.5625,140.6563 982.6172,141.5156 Q983.6719,142.375 985.5469,142.375 Q986.6602,142.375 987.4414,142.1211 Q987.8906,141.9844 988.3984,141.5352 Q988.7305,141.2813 988.9063,141.2031 Q989.082,141.125 989.2969,141.125 Q989.707,141.125 990,141.457 Q990.3125,141.7695 990.3125,142.2188 Q990.3125,142.6484 989.8828,143.1563 Q989.2578,143.8984 988.2617,144.3086 Q986.9531,144.875 985.3516,144.875 Q983.4766,144.875 981.9727,144.1328 Q980.7617,143.5469 979.9023,142.2773 Q979.0625,141.0078 979.0625,139.5039 L979.0625,138.1367 Q979.0625,136.5742 979.8047,135.207 Q980.5664,133.8398 981.875,133.1172 Q983.2031,132.375 984.6875,132.375 Q985.5859,132.375 986.3672,132.6875 Q987.1484,133 987.8125,133.625 Z " fill="#000000"/><text fill="#000000" font-family="sans-serif" font-size="15" lengthAdjust="spacing" textLength="66.25" x="1010.9375" y="144.1377">Company</text><line style="stroke:#A80036;stroke-width:1.875;" x1="826.25" x2="1221.25" y1="158" y2="158"/><text fill="#000000" font-family="sans-serif" font-size="13.75" lengthAdjust="spacing" textLength="112.5" x="832.5" y="177.2737">-String designation</text><line style="stroke:#A80036;stroke-width:1.875;" x1="826.25" x2="1221.25" y1="185.2949" y2="185.2949"/><text fill="#000000" font-family="sans-serif" font-size="13.75" lengthAdjust="spacing" textLength="282.5" x="832.5" y="204.5686">+createParameterCategory(code, name, nhsId)</text><text fill="#000000" font-family="sans-serif" font-size="13.75" lengthAdjust="spacing" textLength="195" x="832.5" y="221.8635">+validateParameterCategory(pc)</text><text fill="#000000" font-family="sans-serif" font-size="13.75" lengthAdjust="spacing" textLength="178.75" x="832.5" y="239.1584">+saveParameterCategory(pc)</text><text fill="#000000" font-family="sans-serif" font-size="13.75" lengthAdjust="spacing" textLength="171.25" x="832.5" y="256.4534">+addParameterCategory(pc)</text><text fill="#000000" font-family="sans-serif" font-size="13.75" lengthAdjust="spacing" textLength="382.5" x="832.5" y="273.7483">+createParameter(parameterCode, shortName, description, cat)</text><text fill="#000000" font-family="sans-serif" font-size="13.75" lengthAdjust="spacing" textLength="170" x="832.5" y="291.0432">+saveParameter(parameter)</text><text fill="#000000" font-family="sans-serif" font-size="13.75" lengthAdjust="spacing" textLength="160" x="832.5" y="308.3381">-addParameter(parameter)</text><text fill="#000000" font-family="sans-serif" font-size="13.75" lengthAdjust="spacing" textLength="183.75" x="832.5" y="325.6331">-validateParameter(parameter)</text><!--MD5=[99b8db98afdc2c8404e39242ef4c1e65]
class Platform--><rect codeLine="43" fill="#FEFECE" filter="url(#f1583lcq43r9y5)" height="111.8848" id="Platform" style="stroke:#A80036;stroke-width:1.875;" width="265" x="891.25" y="618.625"/><ellipse cx="989.6875" cy="638.625" fill="#ADD1B2" rx="13.75" ry="13.75" style="stroke:#A80036;stroke-width:1.25;"/><path d="M992.1875,634.25 Q992.4414,633.625 992.7344,633.3125 Q993.0273,633 993.3594,633 Q993.9453,633 994.3164,633.3516 Q994.6875,633.7031 994.6875,634.5234 L994.6875,636.4766 Q994.6875,637.2969 994.3359,637.6484 Q993.9844,638 993.4375,638 Q992.9492,638 992.6367,637.7852 Q992.3242,637.5703 992.1875,637.0039 Q992.1289,636.6133 991.9141,636.3984 Q991.5234,635.9883 990.8203,635.7539 Q990.1172,635.5 989.4141,635.5 Q988.5352,635.5 987.793,635.8516 Q987.0703,636.2031 986.5039,636.9844 Q985.9375,637.7656 985.9375,638.8398 L985.9375,639.9922 Q985.9375,641.2813 986.9922,642.1406 Q988.0469,643 989.9219,643 Q991.0352,643 991.8164,642.7461 Q992.2656,642.6094 992.7734,642.1602 Q993.1055,641.9063 993.2813,641.8281 Q993.457,641.75 993.6719,641.75 Q994.082,641.75 994.375,642.082 Q994.6875,642.3945 994.6875,642.8438 Q994.6875,643.2734 994.2578,643.7813 Q993.6328,644.5234 992.6367,644.9336 Q991.3281,645.5 989.7266,645.5 Q987.8516,645.5 986.3477,644.7578 Q985.1367,644.1719 984.2773,642.9023 Q983.4375,641.6328 983.4375,640.1289 L983.4375,638.7617 Q983.4375,637.1992 984.1797,635.832 Q984.9414,634.4648 986.25,633.7422 Q987.5781,633 989.0625,633 Q989.9609,633 990.7422,633.3125 Q991.5234,633.625 992.1875,634.25 Z " fill="#000000"/><text fill="#000000" font-family="sans-serif" font-size="15" lengthAdjust="spacing" textLength="57.5" x="1015.3125" y="644.7627">Platform</text><line style="stroke:#A80036;stroke-width:1.875;" x1="892.5" x2="1155" y1="658.625" y2="658.625"/><text fill="#000000" font-family="sans-serif" font-size="13.75" lengthAdjust="spacing" textLength="112.5" x="898.75" y="677.8987">-String designation</text><line style="stroke:#A80036;stroke-width:1.875;" x1="892.5" x2="1155" y1="685.9199" y2="685.9199"/><text fill="#000000" font-family="sans-serif" font-size="13.75" lengthAdjust="spacing" textLength="162.5" x="898.75" y="705.1936">+getParameterCategories()</text><text fill="#000000" font-family="sans-serif" font-size="13.75" lengthAdjust="spacing" textLength="250" x="898.75" y="722.4885">+getParameterCategoryByCode(catCode)</text><!--MD5=[b9009a04d919d78a73c2eeec1e385786]
class CreateParameterController--><rect codeLine="49" fill="#FEFECE" filter="url(#f1583lcq43r9y5)" height="101.8848" id="CreateParameterController" style="stroke:#A80036;stroke-width:1.875;" width="490" x="258.75" y="429.875"/><ellipse cx="405.3125" cy="449.875" fill="#ADD1B2" rx="13.75" ry="13.75" style="stroke:#A80036;stroke-width:1.25;"/><path d="M407.8125,445.5 Q408.0664,444.875 408.3594,444.5625 Q408.6523,444.25 408.9844,444.25 Q409.5703,444.25 409.9414,444.6016 Q410.3125,444.9531 410.3125,445.7734 L410.3125,447.7266 Q410.3125,448.5469 409.9609,448.8984 Q409.6094,449.25 409.0625,449.25 Q408.5742,449.25 408.2617,449.0352 Q407.9492,448.8203 407.8125,448.2539 Q407.7539,447.8633 407.5391,447.6484 Q407.1484,447.2383 406.4453,447.0039 Q405.7422,446.75 405.0391,446.75 Q404.1602,446.75 403.418,447.1016 Q402.6953,447.4531 402.1289,448.2344 Q401.5625,449.0156 401.5625,450.0898 L401.5625,451.2422 Q401.5625,452.5313 402.6172,453.3906 Q403.6719,454.25 405.5469,454.25 Q406.6602,454.25 407.4414,453.9961 Q407.8906,453.8594 408.3984,453.4102 Q408.7305,453.1563 408.9063,453.0781 Q409.082,453 409.2969,453 Q409.707,453 410,453.332 Q410.3125,453.6445 410.3125,454.0938 Q410.3125,454.5234 409.8828,455.0313 Q409.2578,455.7734 408.2617,456.1836 Q406.9531,456.75 405.3516,456.75 Q403.4766,456.75 401.9727,456.0078 Q400.7617,455.4219 399.9023,454.1523 Q399.0625,452.8828 399.0625,451.3789 L399.0625,450.0117 Q399.0625,448.4492 399.8047,447.082 Q400.5664,445.7148 401.875,444.9922 Q403.2031,444.25 404.6875,444.25 Q405.5859,444.25 406.3672,444.5625 Q407.1484,444.875 407.8125,445.5 Z " fill="#000000"/><text fill="#000000" font-family="sans-serif" font-size="15" lengthAdjust="spacing" textLength="186.25" x="430.9375" y="456.0127">CreateParameterController</text><line style="stroke:#A80036;stroke-width:1.875;" x1="260" x2="747.5" y1="469.875" y2="469.875"/><text fill="#000000" font-family="sans-serif" font-size="13.75" lengthAdjust="spacing" textLength="162.5" x="266.25" y="489.1487">+getParameterCategories()</text><text fill="#000000" font-family="sans-serif" font-size="13.75" lengthAdjust="spacing" textLength="475" x="266.25" y="506.4436">+createParameter(parameterCode, shortName, description, cat, categoryCode)</text><text fill="#000000" font-family="sans-serif" font-size="13.75" lengthAdjust="spacing" textLength="108.75" x="266.25" y="523.7385">+saveParameter()</text><!--MD5=[5518e6815e09c51d4db6e17774f331d2]
class CreateParameterUI--><rect codeLine="55" fill="#FEFECE" filter="url(#f1583lcq43r9y5)" height="40" id="CreateParameterUI" style="stroke:#A80036;stroke-width:1.875;" width="173.75" x="8.75" y="461.125"/><ellipse cx="27.5" cy="481.125" fill="#ADD1B2" rx="13.75" ry="13.75" style="stroke:#A80036;stroke-width:1.25;"/><path d="M30,476.75 Q30.2539,476.125 30.5469,475.8125 Q30.8398,475.5 31.1719,475.5 Q31.7578,475.5 32.1289,475.8516 Q32.5,476.2031 32.5,477.0234 L32.5,478.9766 Q32.5,479.7969 32.1484,480.1484 Q31.7969,480.5 31.25,480.5 Q30.7617,480.5 30.4492,480.2852 Q30.1367,480.0703 30,479.5039 Q29.9414,479.1133 29.7266,478.8984 Q29.3359,478.4883 28.6328,478.2539 Q27.9297,478 27.2266,478 Q26.3477,478 25.6055,478.3516 Q24.8828,478.7031 24.3164,479.4844 Q23.75,480.2656 23.75,481.3398 L23.75,482.4922 Q23.75,483.7813 24.8047,484.6406 Q25.8594,485.5 27.7344,485.5 Q28.8477,485.5 29.6289,485.2461 Q30.0781,485.1094 30.5859,484.6602 Q30.918,484.4063 31.0938,484.3281 Q31.2695,484.25 31.4844,484.25 Q31.8945,484.25 32.1875,484.582 Q32.5,484.8945 32.5,485.3438 Q32.5,485.7734 32.0703,486.2813 Q31.4453,487.0234 30.4492,487.4336 Q29.1406,488 27.5391,488 Q25.6641,488 24.1602,487.2578 Q22.9492,486.6719 22.0898,485.4023 Q21.25,484.1328 21.25,482.6289 L21.25,481.2617 Q21.25,479.6992 21.9922,478.332 Q22.7539,476.9648 24.0625,476.2422 Q25.3906,475.5 26.875,475.5 Q27.7734,475.5 28.5547,475.8125 Q29.3359,476.125 30,476.75 Z " fill="#000000"/><text fill="#000000" font-family="sans-serif" font-size="15" lengthAdjust="spacing" textLength="133.75" x="45" y="487.2627">CreateParameterUI</text><!--MD5=[9d3dd688f78c4545f26622cd23f9dd25]
link CreateParameterUI to CreateParameterController--><path codeLine="59" d="M182.9,481.125 C204.0125,481.125 227.7,481.125 252.3625,481.125 " fill="none" id="CreateParameterUI-to-CreateParameterController" style="stroke:#A80036;stroke-width:1.25;stroke-dasharray:7.0,7.0;"/><polygon fill="#A80036" points="258.65,481.125,247.4,476.125,252.4,481.125,247.4,486.125,258.65,481.125" style="stroke:#A80036;stroke-width:1.25;"/><!--MD5=[ca0e047ef2b39d2dd394c7db5026d55c]
link CreateParameterController to Platform--><path codeLine="60" d="M641.9875,532.4125 C716.9875,560.5 809.6625,595.1875 884.775,623.3125 " fill="none" id="CreateParameterController-to-Platform" style="stroke:#A80036;stroke-width:1.25;stroke-dasharray:7.0,7.0;"/><polygon fill="#A80036" points="891.0625,625.675,882.2931,617.0344,885.2127,623.4746,878.7725,626.3942,891.0625,625.675" style="stroke:#A80036;stroke-width:1.25;"/><!--MD5=[094e4a14e6ba8aeac9d4213c7f104300]
link CreateParameterController to ParameterCategory--><path codeLine="61" d="M544.85,532.4625 C599.625,598.375 705.1625,709.525 825,753.625 C1014.35,823.325 1250.125,771.425 1395.1625,725.1125 " fill="none" id="CreateParameterController-to-ParameterCategory" style="stroke:#A80036;stroke-width:1.25;stroke-dasharray:7.0,7.0;"/><polygon fill="#A80036" points="1401.1375,723.1875,1388.8984,721.8581,1395.1855,725.0943,1391.9493,731.3813,1401.1375,723.1875" style="stroke:#A80036;stroke-width:1.25;"/><!--MD5=[c56d23af98be554523068ac4fbdb568e]
link CreateParameterController to Parameter--><path codeLine="62" d="M528.9,429.8125 C573.0125,342.025 676.4875,165.8125 825,96.125 C1013.9,7.5 1257.7875,90.9125 1403.425,158.9125 " fill="none" id="CreateParameterController-to-Parameter" style="stroke:#A80036;stroke-width:1.25;stroke-dasharray:7.0,7.0;"/><polygon fill="#A80036" points="1409.425,161.725,1401.3705,152.4144,1403.7687,159.0663,1397.1167,161.4645,1409.425,161.725" style="stroke:#A80036;stroke-width:1.25;"/><!--MD5=[6d585fb02c26694275539b4f1508918e]
link CreateParameterController to Company--><path codeLine="63" d="M609.1,429.8375 C669.3625,400.1375 747.3125,361.725 819.25,326.2875 " fill="none" id="CreateParameterController-to-Company" style="stroke:#A80036;stroke-width:1.25;stroke-dasharray:7.0,7.0;"/><polygon fill="#A80036" points="824.85,323.525,812.5477,323.9896,819.2385,326.2771,816.9511,332.968,824.85,323.525" style="stroke:#A80036;stroke-width:1.25;"/><!--MD5=[945e65d92ba862f4e61631e8fc93b1bf]
link CreateParameterController to ApplicationPOT--><path codeLine="64" d="M748.975,452.8375 C819.95,444.6125 892.425,436.2125 944.9125,430.125 " fill="none" id="CreateParameterController-to-ApplicationPOT" style="stroke:#A80036;stroke-width:1.25;stroke-dasharray:7.0,7.0;"/><polygon fill="#A80036" points="951.2125,429.4,939.4651,425.7174,945.0034,430.1137,940.607,435.6519,951.2125,429.4" style="stroke:#A80036;stroke-width:1.25;"/><!--MD5=[abd2b2ff02538f19d037cd7b3931e91f]
link CreateParameterController to UserSession--><path codeLine="65" d="M748.975,509.4125 C815.5375,517.1375 883.4125,525 934.9,530.975 " fill="none" id="CreateParameterController-to-UserSession" style="stroke:#A80036;stroke-width:1.25;stroke-dasharray:7.0,7.0;"/><polygon fill="#A80036" points="941.4125,531.725,930.8091,525.4696,935.2036,531.0093,929.6639,535.4038,941.4125,531.725" style="stroke:#A80036;stroke-width:1.25;"/><!--MD5=[6df8849671cb880f6936e94aa30db6f9]
link Parameter to ParameterCategory--><path codeLine="66" d="M1530.625,290.525 C1530.625,373.4875 1530.625,517.2625 1530.625,603.4875 " fill="none" id="Parameter-to-ParameterCategory" style="stroke:#A80036;stroke-width:1.25;"/><polygon fill="#A80036" points="1530.625,610.1125,1535.625,598.8625,1530.625,603.8625,1525.625,598.8625,1530.625,610.1125" style="stroke:#A80036;stroke-width:1.25;"/><text fill="#000000" font-family="sans-serif" font-size="16.25" lengthAdjust="spacing" textLength="85" x="1473.125" y="457.3689">classified in</text><text fill="#000000" font-family="sans-serif" font-size="16.25" lengthAdjust="spacing" textLength="6.25" x="1523.9355" y="317.8571">*</text><text fill="#000000" font-family="sans-serif" font-size="16.25" lengthAdjust="spacing" textLength="8.75" x="1521.2871" y="596.9358">1</text><!--MD5=[22b7b7c9c071c7d98b9f37ca5629dc8c]
link Platform to ParameterCategory--><path codeLine="67" d="M1156.525,674.875 C1229.775,674.875 1320.775,674.875 1394.5375,674.875 " fill="none" id="Platform-to-ParameterCategory" style="stroke:#A80036;stroke-width:1.25;"/><polygon fill="#A80036" points="1401.175,674.875,1389.925,669.875,1394.925,674.875,1389.925,679.875,1401.175,674.875" style="stroke:#A80036;stroke-width:1.25;"/><text fill="#000000" font-family="sans-serif" font-size="16.25" lengthAdjust="spacing" textLength="51.25" x="1261.25" y="670.4939">defines</text><text fill="#000000" font-family="sans-serif" font-size="16.25" lengthAdjust="spacing" textLength="8.75" x="1166.1684" y="692.4841">1</text><text fill="#000000" font-family="sans-serif" font-size="16.25" lengthAdjust="spacing" textLength="6.25" x="1385.189" y="692.4786">*</text><!--MD5=[12d76240d3c3c66074d4ec2ea8bf469c]
link Company to Parameter--><path codeLine="68" d="M1222.5375,226.125 C1262.7625,226.125 1304.95,226.125 1344.725,226.125 " fill="none" id="Company-to-Parameter" style="stroke:#A80036;stroke-width:1.25;"/><polygon fill="#A80036" points="1351.075,226.125,1339.825,221.125,1344.825,226.125,1339.825,231.125,1351.075,226.125" style="stroke:#A80036;stroke-width:1.25;"/><text fill="#000000" font-family="sans-serif" font-size="16.25" lengthAdjust="spacing" textLength="37.5" x="1268.125" y="221.7439">owns</text><text fill="#000000" font-family="sans-serif" font-size="16.25" lengthAdjust="spacing" textLength="8.75" x="1232.3782" y="243.5033">1</text><text fill="#000000" font-family="sans-serif" font-size="16.25" lengthAdjust="spacing" textLength="6.25" x="1334.835" y="243.541">*</text><!--MD5=[03c46554736e8dd50a41cc28673c5ab7]
@startuml
hide empty methods
hide empty attributes
left to right direction
skinparam classAttributeIconSize 0

class ApplicationPOT
{
  +static getInstance()
  +getCurrentSession()
}

class UserSession
{
  +getUserPhoneNumber()
}

class Parameter {
  -String parameterCode
  -String shortName
  -String description
  +Parameter(parameterCode, shortName, description, cat)
}

class ParameterCategory {
   -String code
   -String name
   -String nhsId
   +ParameterCategory(code, name, nhsId)
}

class Company {
  -String designation
  +createParameterCategory(code, name, nhsId)
  +validateParameterCategory(pc)
  +saveParameterCategory(pc)
  +addParameterCategory(pc)
  +createParameter(parameterCode, shortName, description, cat)
  +saveParameter(parameter)
  -addParameter(parameter)
  -validateParameter(parameter)
}

class Platform {
  -String designation
  +getParameterCategories()
  +getParameterCategoryByCode(catCode)
}

class CreateParameterController {
  +getParameterCategories()
  +createParameter(parameterCode, shortName, description, cat, categoryCode)
  +saveParameter()
}

class CreateParameterUI {

}

CreateParameterUI ..> CreateParameterController
CreateParameterController ..> Platform
CreateParameterController ..> ParameterCategory
CreateParameterController ..> Parameter
CreateParameterController ..> Company
CreateParameterController ..> ApplicationPOT
CreateParameterController ..> UserSession
Parameter "*" -> "1" ParameterCategory : classified in
Platform "1" - -> "*" ParameterCategory : defines
Company "1" - -> "*" Parameter : owns


@enduml

PlantUML version 1.2021.4(Sun Apr 04 09:49:39 BST 2021)
(GPL source distribution)
Java Runtime: OpenJDK Runtime Environment
JVM: Dynamic Code Evolution 64-Bit Server VM
Default Encoding: Cp1252
Language: pt
Country: PT
--></g></svg>