<?xml version="1.0" encoding="UTF-8" standalone="no"?><svg xmlns="http://www.w3.org/2000/svg" xmlns:xlink="http://www.w3.org/1999/xlink" contentScriptType="application/ecmascript" contentStyleType="text/css" height="567.5px" preserveAspectRatio="none" style="width:2802px;height:567px;" version="1.1" viewBox="0 0 2802 567" width="2802.5px" zoomAndPan="magnify"><defs><filter height="300%" id="fkfaij08nkmx3" width="300%" x="-1" y="-1"><feGaussianBlur result="blurOut" stdDeviation="2.5"/><feColorMatrix in="blurOut" result="blurOut2" type="matrix" values="0 0 0 0 0 0 0 0 0 0 0 0 0 0 0 0 0 0 .4 0"/><feOffset dx="5.0" dy="5.0" in="blurOut2" result="blurOut3"/><feBlend in="SourceGraphic" in2="blurOut3" mode="normal"/></filter></defs><g><!--MD5=[ae4ce8b9e36cc829775f8966335bc94b]
class ParameterCategoryDto--><rect codeLine="6" fill="#FEFECE" filter="url(#fkfaij08nkmx3)" height="129.1797" id="ParameterCategoryDto" style="stroke:#A80036;stroke-width:1.875;" width="218.75" x="1498.75" y="8.75"/><ellipse cx="1527.0625" cy="28.75" fill="#ADD1B2" rx="13.75" ry="13.75" style="stroke:#A80036;stroke-width:1.25;"/><path d="M1529.5625,24.375 Q1529.8164,23.75 1530.1094,23.4375 Q1530.4023,23.125 1530.7344,23.125 Q1531.3203,23.125 1531.6914,23.4766 Q1532.0625,23.8281 1532.0625,24.6484 L1532.0625,26.6016 Q1532.0625,27.4219 1531.7109,27.7734 Q1531.3594,28.125 1530.8125,28.125 Q1530.3242,28.125 1530.0117,27.9102 Q1529.6992,27.6953 1529.5625,27.1289 Q1529.5039,26.7383 1529.2891,26.5234 Q1528.8984,26.1133 1528.1953,25.8789 Q1527.4922,25.625 1526.7891,25.625 Q1525.9102,25.625 1525.168,25.9766 Q1524.4453,26.3281 1523.8789,27.1094 Q1523.3125,27.8906 1523.3125,28.9648 L1523.3125,30.1172 Q1523.3125,31.4063 1524.3672,32.2656 Q1525.4219,33.125 1527.2969,33.125 Q1528.4102,33.125 1529.1914,32.8711 Q1529.6406,32.7344 1530.1484,32.2852 Q1530.4805,32.0313 1530.6563,31.9531 Q1530.832,31.875 1531.0469,31.875 Q1531.457,31.875 1531.75,32.207 Q1532.0625,32.5195 1532.0625,32.9688 Q1532.0625,33.3984 1531.6328,33.9063 Q1531.0078,34.6484 1530.0117,35.0586 Q1528.7031,35.625 1527.1016,35.625 Q1525.2266,35.625 1523.7227,34.8828 Q1522.5117,34.2969 1521.6523,33.0273 Q1520.8125,31.7578 1520.8125,30.2539 L1520.8125,28.8867 Q1520.8125,27.3242 1521.5547,25.957 Q1522.3164,24.5898 1523.625,23.8672 Q1524.9531,23.125 1526.4375,23.125 Q1527.3359,23.125 1528.1172,23.4375 Q1528.8984,23.75 1529.5625,24.375 Z " fill="#000000"/><text fill="#000000" font-family="sans-serif" font-size="15" lengthAdjust="spacing" textLength="157.5" x="1546.6875" y="34.8877">ParameterCategoryDto</text><line style="stroke:#A80036;stroke-width:1.875;" x1="1500" x2="1716.25" y1="48.75" y2="48.75"/><text fill="#000000" font-family="sans-serif" font-size="13.75" lengthAdjust="spacing" textLength="35" x="1506.25" y="68.0237">-code</text><text fill="#000000" font-family="sans-serif" font-size="13.75" lengthAdjust="spacing" textLength="37.5" x="1506.25" y="85.3186">-name</text><line style="stroke:#A80036;stroke-width:1.875;" x1="1500" x2="1716.25" y1="93.3398" y2="93.3398"/><text fill="#000000" font-family="sans-serif" font-size="13.75" lengthAdjust="spacing" textLength="203.75" x="1506.25" y="112.6135">+ParameterCategory(code, name)</text><text fill="#000000" font-family="sans-serif" font-size="13.75" lengthAdjust="spacing" textLength="67.5" x="1506.25" y="129.9084">+getCode()</text><!--MD5=[fab6cba0d8a30102bb3e071a5ce00b91]
class ParameterCategoryMapper--><rect codeLine="13" fill="#FEFECE" filter="url(#fkfaij08nkmx3)" height="84.5898" id="ParameterCategoryMapper" style="stroke:#A80036;stroke-width:1.875;" width="522.5" x="760" y="139.375"/><ellipse cx="923.4375" cy="159.375" fill="#ADD1B2" rx="13.75" ry="13.75" style="stroke:#A80036;stroke-width:1.25;"/><path d="M925.9375,155 Q926.1914,154.375 926.4844,154.0625 Q926.7773,153.75 927.1094,153.75 Q927.6953,153.75 928.0664,154.1016 Q928.4375,154.4531 928.4375,155.2734 L928.4375,157.2266 Q928.4375,158.0469 928.0859,158.3984 Q927.7344,158.75 927.1875,158.75 Q926.6992,158.75 926.3867,158.5352 Q926.0742,158.3203 925.9375,157.7539 Q925.8789,157.3633 925.6641,157.1484 Q925.2734,156.7383 924.5703,156.5039 Q923.8672,156.25 923.1641,156.25 Q922.2852,156.25 921.543,156.6016 Q920.8203,156.9531 920.2539,157.7344 Q919.6875,158.5156 919.6875,159.5898 L919.6875,160.7422 Q919.6875,162.0313 920.7422,162.8906 Q921.7969,163.75 923.6719,163.75 Q924.7852,163.75 925.5664,163.4961 Q926.0156,163.3594 926.5234,162.9102 Q926.8555,162.6563 927.0313,162.5781 Q927.207,162.5 927.4219,162.5 Q927.832,162.5 928.125,162.832 Q928.4375,163.1445 928.4375,163.5938 Q928.4375,164.0234 928.0078,164.5313 Q927.3828,165.2734 926.3867,165.6836 Q925.0781,166.25 923.4766,166.25 Q921.6016,166.25 920.0977,165.5078 Q918.8867,164.9219 918.0273,163.6523 Q917.1875,162.3828 917.1875,160.8789 L917.1875,159.5117 Q917.1875,157.9492 917.9297,156.582 Q918.6914,155.2148 920,154.4922 Q921.3281,153.75 922.8125,153.75 Q923.7109,153.75 924.4922,154.0625 Q925.2734,154.375 925.9375,155 Z " fill="#000000"/><text fill="#000000" font-family="sans-serif" font-size="15" lengthAdjust="spacing" textLength="185" x="949.0625" y="165.5127">ParameterCategoryMapper</text><line style="stroke:#A80036;stroke-width:1.875;" x1="761.25" x2="1281.25" y1="179.375" y2="179.375"/><text fill="#000000" font-family="sans-serif" font-size="13.75" lengthAdjust="spacing" textLength="507.5" x="767.5" y="198.6487">+List&lt;ParameterCategoryDto&gt; toDto(List&lt;ParameterCategory&gt; parameterCategories)</text><text fill="#000000" font-family="sans-serif" font-size="13.75" lengthAdjust="spacing" textLength="330" x="767.5" y="215.9436">+ParameterCategoryDto toDTO(ParameterCategory pc)</text><!--MD5=[d802db621b5b215a6f0466f93cefcb42]
class ParameterCategoryStore--><rect codeLine="18" fill="#FEFECE" filter="url(#fkfaij08nkmx3)" height="67.2949" id="ParameterCategoryStore" style="stroke:#A80036;stroke-width:1.875;" width="210" x="1503.125" y="270.625"/><ellipse cx="1521.875" cy="290.625" fill="#ADD1B2" rx="13.75" ry="13.75" style="stroke:#A80036;stroke-width:1.25;"/><path d="M1524.375,286.25 Q1524.6289,285.625 1524.9219,285.3125 Q1525.2148,285 1525.5469,285 Q1526.1328,285 1526.5039,285.3516 Q1526.875,285.7031 1526.875,286.5234 L1526.875,288.4766 Q1526.875,289.2969 1526.5234,289.6484 Q1526.1719,290 1525.625,290 Q1525.1367,290 1524.8242,289.7852 Q1524.5117,289.5703 1524.375,289.0039 Q1524.3164,288.6133 1524.1016,288.3984 Q1523.7109,287.9883 1523.0078,287.7539 Q1522.3047,287.5 1521.6016,287.5 Q1520.7227,287.5 1519.9805,287.8516 Q1519.2578,288.2031 1518.6914,288.9844 Q1518.125,289.7656 1518.125,290.8398 L1518.125,291.9922 Q1518.125,293.2812 1519.1797,294.1406 Q1520.2344,295 1522.1094,295 Q1523.2227,295 1524.0039,294.7461 Q1524.4531,294.6094 1524.9609,294.1602 Q1525.293,293.9062 1525.4688,293.8281 Q1525.6445,293.75 1525.8594,293.75 Q1526.2695,293.75 1526.5625,294.082 Q1526.875,294.3945 1526.875,294.8437 Q1526.875,295.2734 1526.4453,295.7812 Q1525.8203,296.5234 1524.8242,296.9336 Q1523.5156,297.5 1521.9141,297.5 Q1520.0391,297.5 1518.5352,296.7578 Q1517.3242,296.1719 1516.4648,294.9023 Q1515.625,293.6328 1515.625,292.1289 L1515.625,290.7617 Q1515.625,289.1992 1516.3672,287.832 Q1517.1289,286.4648 1518.4375,285.7422 Q1519.7656,285 1521.25,285 Q1522.1484,285 1522.9297,285.3125 Q1523.7109,285.625 1524.375,286.25 Z " fill="#000000"/><text fill="#000000" font-family="sans-serif" font-size="15" lengthAdjust="spacing" textLength="170" x="1539.375" y="296.7627">ParameterCategoryStore</text><line style="stroke:#A80036;stroke-width:1.875;" x1="1504.375" x2="1711.875" y1="310.625" y2="310.625"/><text fill="#000000" font-family="sans-serif" font-size="13.75" lengthAdjust="spacing" textLength="168.75" x="1510.625" y="329.8987">+getCategoryByCode(code)</text><!--MD5=[be7802b157a16874d39c59ca0e2b25be]
class ParameterStore--><rect codeLine="22" fill="#FEFECE" filter="url(#fkfaij08nkmx3)" height="101.8848" id="ParameterStore" style="stroke:#A80036;stroke-width:1.875;" width="393.75" x="1411.25" y="409.375"/><ellipse cx="1548.4375" cy="429.375" fill="#ADD1B2" rx="13.75" ry="13.75" style="stroke:#A80036;stroke-width:1.25;"/><path d="M1550.9375,425 Q1551.1914,424.375 1551.4844,424.0625 Q1551.7773,423.75 1552.1094,423.75 Q1552.6953,423.75 1553.0664,424.1016 Q1553.4375,424.4531 1553.4375,425.2734 L1553.4375,427.2266 Q1553.4375,428.0469 1553.0859,428.3984 Q1552.7344,428.75 1552.1875,428.75 Q1551.6992,428.75 1551.3867,428.5352 Q1551.0742,428.3203 1550.9375,427.7539 Q1550.8789,427.3633 1550.6641,427.1484 Q1550.2734,426.7383 1549.5703,426.5039 Q1548.8672,426.25 1548.1641,426.25 Q1547.2852,426.25 1546.543,426.6016 Q1545.8203,426.9531 1545.2539,427.7344 Q1544.6875,428.5156 1544.6875,429.5898 L1544.6875,430.7422 Q1544.6875,432.0313 1545.7422,432.8906 Q1546.7969,433.75 1548.6719,433.75 Q1549.7852,433.75 1550.5664,433.4961 Q1551.0156,433.3594 1551.5234,432.9102 Q1551.8555,432.6563 1552.0313,432.5781 Q1552.207,432.5 1552.4219,432.5 Q1552.832,432.5 1553.125,432.832 Q1553.4375,433.1445 1553.4375,433.5938 Q1553.4375,434.0234 1553.0078,434.5313 Q1552.3828,435.2734 1551.3867,435.6836 Q1550.0781,436.25 1548.4766,436.25 Q1546.6016,436.25 1545.0977,435.5078 Q1543.8867,434.9219 1543.0273,433.6523 Q1542.1875,432.3828 1542.1875,430.8789 L1542.1875,429.5117 Q1542.1875,427.9492 1542.9297,426.582 Q1543.6914,425.2148 1545,424.4922 Q1546.3281,423.75 1547.8125,423.75 Q1548.7109,423.75 1549.4922,424.0625 Q1550.2734,424.375 1550.9375,425 Z " fill="#000000"/><text fill="#000000" font-family="sans-serif" font-size="15" lengthAdjust="spacing" textLength="108.75" x="1574.0625" y="435.5127">ParameterStore</text><line style="stroke:#A80036;stroke-width:1.875;" x1="1412.5" x2="1803.75" y1="449.375" y2="449.375"/><text fill="#000000" font-family="sans-serif" font-size="13.75" lengthAdjust="spacing" textLength="378.75" x="1418.75" y="468.6487">+createParameter(parameterCode, shortName, description, pc)</text><text fill="#000000" font-family="sans-serif" font-size="13.75" lengthAdjust="spacing" textLength="186.25" x="1418.75" y="485.9436">+validateParameter(parameter)</text><text fill="#000000" font-family="sans-serif" font-size="13.75" lengthAdjust="spacing" textLength="170" x="1418.75" y="503.2385">+saveParameter(parameter)</text><!--MD5=[1f6362a5c8f21d8d6a0fce68f3a92a4e]
class Parameter--><rect codeLine="28" fill="#FEFECE" filter="url(#fkfaij08nkmx3)" height="146.4746" id="Parameter" style="stroke:#A80036;stroke-width:1.875;" width="355" x="2046.25" y="387.5"/><ellipse cx="2182.1875" cy="407.5" fill="#ADD1B2" rx="13.75" ry="13.75" style="stroke:#A80036;stroke-width:1.25;"/><path d="M2184.6875,403.125 Q2184.9414,402.5 2185.2344,402.1875 Q2185.5273,401.875 2185.8594,401.875 Q2186.4453,401.875 2186.8164,402.2266 Q2187.1875,402.5781 2187.1875,403.3984 L2187.1875,405.3516 Q2187.1875,406.1719 2186.8359,406.5234 Q2186.4844,406.875 2185.9375,406.875 Q2185.4492,406.875 2185.1367,406.6602 Q2184.8242,406.4453 2184.6875,405.8789 Q2184.6289,405.4883 2184.4141,405.2734 Q2184.0234,404.8633 2183.3203,404.6289 Q2182.6172,404.375 2181.9141,404.375 Q2181.0352,404.375 2180.293,404.7266 Q2179.5703,405.0781 2179.0039,405.8594 Q2178.4375,406.6406 2178.4375,407.7148 L2178.4375,408.8672 Q2178.4375,410.1563 2179.4922,411.0156 Q2180.5469,411.875 2182.4219,411.875 Q2183.5352,411.875 2184.3164,411.6211 Q2184.7656,411.4844 2185.2734,411.0352 Q2185.6055,410.7813 2185.7813,410.7031 Q2185.957,410.625 2186.1719,410.625 Q2186.582,410.625 2186.875,410.957 Q2187.1875,411.2695 2187.1875,411.7188 Q2187.1875,412.1484 2186.7578,412.6563 Q2186.1328,413.3984 2185.1367,413.8086 Q2183.8281,414.375 2182.2266,414.375 Q2180.3516,414.375 2178.8477,413.6328 Q2177.6367,413.0469 2176.7773,411.7773 Q2175.9375,410.5078 2175.9375,409.0039 L2175.9375,407.6367 Q2175.9375,406.0742 2176.6797,404.707 Q2177.4414,403.3398 2178.75,402.6172 Q2180.0781,401.875 2181.5625,401.875 Q2182.4609,401.875 2183.2422,402.1875 Q2184.0234,402.5 2184.6875,403.125 Z " fill="#000000"/><text fill="#000000" font-family="sans-serif" font-size="15" lengthAdjust="spacing" textLength="72.5" x="2207.8125" y="413.6377">Parameter</text><line style="stroke:#A80036;stroke-width:1.875;" x1="2047.5" x2="2400" y1="427.5" y2="427.5"/><text fill="#000000" font-family="sans-serif" font-size="13.75" lengthAdjust="spacing" textLength="140" x="2053.75" y="446.7737">-parameterCode: String</text><text fill="#000000" font-family="sans-serif" font-size="13.75" lengthAdjust="spacing" textLength="112.5" x="2053.75" y="464.0686">-shortName: String</text><text fill="#000000" font-family="sans-serif" font-size="13.75" lengthAdjust="spacing" textLength="113.75" x="2053.75" y="481.3635">-description: String</text><text fill="#000000" font-family="sans-serif" font-size="13.75" lengthAdjust="spacing" textLength="143.75" x="2053.75" y="498.6584">-pc: ParameterCategory</text><line style="stroke:#A80036;stroke-width:1.875;" x1="2047.5" x2="2400" y1="506.6797" y2="506.6797"/><text fill="#000000" font-family="sans-serif" font-size="13.75" lengthAdjust="spacing" textLength="340" x="2053.75" y="525.9534">+Parameter(parameterCode, shortName, description, pc)</text><!--MD5=[36afb6bbd95a8ac778c4537c55a683d5]
class ParameterCategory--><rect codeLine="36" fill="#FEFECE" filter="url(#fkfaij08nkmx3)" height="84.5898" id="ParameterCategory" style="stroke:#A80036;stroke-width:1.875;" width="173.75" x="2611.25" y="256.875"/><ellipse cx="2630" cy="276.875" fill="#ADD1B2" rx="13.75" ry="13.75" style="stroke:#A80036;stroke-width:1.25;"/><path d="M2632.5,272.5 Q2632.7539,271.875 2633.0469,271.5625 Q2633.3398,271.25 2633.6719,271.25 Q2634.2578,271.25 2634.6289,271.6016 Q2635,271.9531 2635,272.7734 L2635,274.7266 Q2635,275.5469 2634.6484,275.8984 Q2634.2969,276.25 2633.75,276.25 Q2633.2617,276.25 2632.9492,276.0352 Q2632.6367,275.8203 2632.5,275.2539 Q2632.4414,274.8633 2632.2266,274.6484 Q2631.8359,274.2383 2631.1328,274.0039 Q2630.4297,273.75 2629.7266,273.75 Q2628.8477,273.75 2628.1055,274.1016 Q2627.3828,274.4531 2626.8164,275.2344 Q2626.25,276.0156 2626.25,277.0898 L2626.25,278.2422 Q2626.25,279.5312 2627.3047,280.3906 Q2628.3594,281.25 2630.2344,281.25 Q2631.3477,281.25 2632.1289,280.9961 Q2632.5781,280.8594 2633.0859,280.4102 Q2633.418,280.1562 2633.5938,280.0781 Q2633.7695,280 2633.9844,280 Q2634.3945,280 2634.6875,280.332 Q2635,280.6445 2635,281.0937 Q2635,281.5234 2634.5703,282.0312 Q2633.9453,282.7734 2632.9492,283.1836 Q2631.6406,283.75 2630.0391,283.75 Q2628.1641,283.75 2626.6602,283.0078 Q2625.4492,282.4219 2624.5898,281.1523 Q2623.75,279.8828 2623.75,278.3789 L2623.75,277.0117 Q2623.75,275.4492 2624.4922,274.082 Q2625.2539,272.7148 2626.5625,271.9922 Q2627.8906,271.25 2629.375,271.25 Q2630.2734,271.25 2631.0547,271.5625 Q2631.8359,271.875 2632.5,272.5 Z " fill="#000000"/><text fill="#000000" font-family="sans-serif" font-size="15" lengthAdjust="spacing" textLength="133.75" x="2647.5" y="283.0127">ParameterCategory</text><line style="stroke:#A80036;stroke-width:1.875;" x1="2612.5" x2="2783.75" y1="296.875" y2="296.875"/><text fill="#000000" font-family="sans-serif" font-size="13.75" lengthAdjust="spacing" textLength="77.5" x="2618.75" y="316.1487">-code: String</text><text fill="#000000" font-family="sans-serif" font-size="13.75" lengthAdjust="spacing" textLength="80" x="2618.75" y="333.4436">-name: String</text><!--MD5=[02e4b9b7573f1156f41e60aa5b4e25a4]
class Company--><rect codeLine="41" fill="#FEFECE" filter="url(#fkfaij08nkmx3)" height="111.8848" id="Company" style="stroke:#A80036;stroke-width:1.875;" width="200" x="921.25" y="356.875"/><ellipse cx="982.8125" cy="376.875" fill="#ADD1B2" rx="13.75" ry="13.75" style="stroke:#A80036;stroke-width:1.25;"/><path d="M985.3125,372.5 Q985.5664,371.875 985.8594,371.5625 Q986.1523,371.25 986.4844,371.25 Q987.0703,371.25 987.4414,371.6016 Q987.8125,371.9531 987.8125,372.7734 L987.8125,374.7266 Q987.8125,375.5469 987.4609,375.8984 Q987.1094,376.25 986.5625,376.25 Q986.0742,376.25 985.7617,376.0352 Q985.4492,375.8203 985.3125,375.2539 Q985.2539,374.8633 985.0391,374.6484 Q984.6484,374.2383 983.9453,374.0039 Q983.2422,373.75 982.5391,373.75 Q981.6602,373.75 980.918,374.1016 Q980.1953,374.4531 979.6289,375.2344 Q979.0625,376.0156 979.0625,377.0898 L979.0625,378.2422 Q979.0625,379.5312 980.1172,380.3906 Q981.1719,381.25 983.0469,381.25 Q984.1602,381.25 984.9414,380.9961 Q985.3906,380.8594 985.8984,380.4102 Q986.2305,380.1562 986.4063,380.0781 Q986.582,380 986.7969,380 Q987.207,380 987.5,380.332 Q987.8125,380.6445 987.8125,381.0937 Q987.8125,381.5234 987.3828,382.0312 Q986.7578,382.7734 985.7617,383.1836 Q984.4531,383.75 982.8516,383.75 Q980.9766,383.75 979.4727,383.0078 Q978.2617,382.4219 977.4023,381.1523 Q976.5625,379.8828 976.5625,378.3789 L976.5625,377.0117 Q976.5625,375.4492 977.3047,374.082 Q978.0664,372.7148 979.375,371.9922 Q980.7031,371.25 982.1875,371.25 Q983.0859,371.25 983.8672,371.5625 Q984.6484,371.875 985.3125,372.5 Z " fill="#000000"/><text fill="#000000" font-family="sans-serif" font-size="15" lengthAdjust="spacing" textLength="66.25" x="1008.4375" y="383.0127">Company</text><line style="stroke:#A80036;stroke-width:1.875;" x1="922.5" x2="1120" y1="396.875" y2="396.875"/><text fill="#000000" font-family="sans-serif" font-size="13.75" lengthAdjust="spacing" textLength="116.25" x="928.75" y="416.1487">-designation: String</text><line style="stroke:#A80036;stroke-width:1.875;" x1="922.5" x2="1120" y1="424.1699" y2="424.1699"/><text fill="#000000" font-family="sans-serif" font-size="13.75" lengthAdjust="spacing" textLength="130" x="928.75" y="443.4436">+getParameterStore()</text><text fill="#000000" font-family="sans-serif" font-size="13.75" lengthAdjust="spacing" textLength="185" x="928.75" y="460.7385">+getParameterCategoryStore()</text><!--MD5=[b9009a04d919d78a73c2eeec1e385786]
class CreateParameterController--><rect codeLine="47" fill="#FEFECE" filter="url(#fkfaij08nkmx3)" height="84.5898" id="CreateParameterController" style="stroke:#A80036;stroke-width:1.875;" width="425" x="258.75" y="248.125"/><ellipse cx="372.8125" cy="268.125" fill="#ADD1B2" rx="13.75" ry="13.75" style="stroke:#A80036;stroke-width:1.25;"/><path d="M375.3125,263.75 Q375.5664,263.125 375.8594,262.8125 Q376.1523,262.5 376.4844,262.5 Q377.0703,262.5 377.4414,262.8516 Q377.8125,263.2031 377.8125,264.0234 L377.8125,265.9766 Q377.8125,266.7969 377.4609,267.1484 Q377.1094,267.5 376.5625,267.5 Q376.0742,267.5 375.7617,267.2852 Q375.4492,267.0703 375.3125,266.5039 Q375.2539,266.1133 375.0391,265.8984 Q374.6484,265.4883 373.9453,265.2539 Q373.2422,265 372.5391,265 Q371.6602,265 370.918,265.3516 Q370.1953,265.7031 369.6289,266.4844 Q369.0625,267.2656 369.0625,268.3398 L369.0625,269.4922 Q369.0625,270.7812 370.1172,271.6406 Q371.1719,272.5 373.0469,272.5 Q374.1602,272.5 374.9414,272.2461 Q375.3906,272.1094 375.8984,271.6602 Q376.2305,271.4062 376.4063,271.3281 Q376.582,271.25 376.7969,271.25 Q377.207,271.25 377.5,271.582 Q377.8125,271.8945 377.8125,272.3437 Q377.8125,272.7734 377.3828,273.2812 Q376.7578,274.0234 375.7617,274.4336 Q374.4531,275 372.8516,275 Q370.9766,275 369.4727,274.2578 Q368.2617,273.6719 367.4023,272.4023 Q366.5625,271.1328 366.5625,269.6289 L366.5625,268.2617 Q366.5625,266.6992 367.3047,265.332 Q368.0664,263.9648 369.375,263.2422 Q370.7031,262.5 372.1875,262.5 Q373.0859,262.5 373.8672,262.8125 Q374.6484,263.125 375.3125,263.75 Z " fill="#000000"/><text fill="#000000" font-family="sans-serif" font-size="15" lengthAdjust="spacing" textLength="186.25" x="398.4375" y="274.2627">CreateParameterController</text><line style="stroke:#A80036;stroke-width:1.875;" x1="260" x2="682.5" y1="288.125" y2="288.125"/><text fill="#000000" font-family="sans-serif" font-size="13.75" lengthAdjust="spacing" textLength="410" x="266.25" y="307.3987">+createParameter(parameterCode, shortName, description, pcCode)</text><text fill="#000000" font-family="sans-serif" font-size="13.75" lengthAdjust="spacing" textLength="108.75" x="266.25" y="324.6936">+saveParameter()</text><!--MD5=[5518e6815e09c51d4db6e17774f331d2]
class CreateParameterUI--><rect codeLine="52" fill="#FEFECE" filter="url(#fkfaij08nkmx3)" height="40" id="CreateParameterUI" style="stroke:#A80036;stroke-width:1.875;" width="173.75" x="8.75" y="161.875"/><ellipse cx="27.5" cy="181.875" fill="#ADD1B2" rx="13.75" ry="13.75" style="stroke:#A80036;stroke-width:1.25;"/><path d="M30,177.5 Q30.2539,176.875 30.5469,176.5625 Q30.8398,176.25 31.1719,176.25 Q31.7578,176.25 32.1289,176.6016 Q32.5,176.9531 32.5,177.7734 L32.5,179.7266 Q32.5,180.5469 32.1484,180.8984 Q31.7969,181.25 31.25,181.25 Q30.7617,181.25 30.4492,181.0352 Q30.1367,180.8203 30,180.2539 Q29.9414,179.8633 29.7266,179.6484 Q29.3359,179.2383 28.6328,179.0039 Q27.9297,178.75 27.2266,178.75 Q26.3477,178.75 25.6055,179.1016 Q24.8828,179.4531 24.3164,180.2344 Q23.75,181.0156 23.75,182.0898 L23.75,183.2422 Q23.75,184.5313 24.8047,185.3906 Q25.8594,186.25 27.7344,186.25 Q28.8477,186.25 29.6289,185.9961 Q30.0781,185.8594 30.5859,185.4102 Q30.918,185.1563 31.0938,185.0781 Q31.2695,185 31.4844,185 Q31.8945,185 32.1875,185.332 Q32.5,185.6445 32.5,186.0938 Q32.5,186.5234 32.0703,187.0313 Q31.4453,187.7734 30.4492,188.1836 Q29.1406,188.75 27.5391,188.75 Q25.6641,188.75 24.1602,188.0078 Q22.9492,187.4219 22.0898,186.1523 Q21.25,184.8828 21.25,183.3789 L21.25,182.0117 Q21.25,180.4492 21.9922,179.082 Q22.7539,177.7148 24.0625,176.9922 Q25.3906,176.25 26.875,176.25 Q27.7734,176.25 28.5547,176.5625 Q29.3359,176.875 30,177.5 Z " fill="#000000"/><text fill="#000000" font-family="sans-serif" font-size="15" lengthAdjust="spacing" textLength="133.75" x="45" y="188.0127">CreateParameterUI</text><!--MD5=[9d3dd688f78c4545f26622cd23f9dd25]
link CreateParameterUI to CreateParameterController--><path codeLine="56" d="M165.75,201.9375 C208.425,214.3875 265,230.875 317.775,246.25 " fill="none" id="CreateParameterUI-to-CreateParameterController" style="stroke:#A80036;stroke-width:1.25;stroke-dasharray:7.0,7.0;"/><polygon fill="#A80036" points="323.85,248.025,314.45,240.075,317.85,246.275,311.65,249.675,323.85,248.025" style="stroke:#A80036;stroke-width:1.25;"/><!--MD5=[6d585fb02c26694275539b4f1508918e]
link CreateParameterController to Company--><path codeLine="57" d="M662.45,333.125 C747,352.0375 843.3375,373.5875 914.7,389.5625 " fill="none" id="CreateParameterController-to-Company" style="stroke:#A80036;stroke-width:1.25;stroke-dasharray:7.0,7.0;"/><polygon fill="#A80036" points="921.1,390.9875,911.223,383.6386,915.0026,389.6147,909.0265,393.3944,921.1,390.9875" style="stroke:#A80036;stroke-width:1.25;"/><!--MD5=[d4acd0f9b6f472dc8c1d58fc6da00ca5]
link CreateParameterController to ParameterCategoryStore--><path codeLine="58" d="M683.875,293.175 C924.6,296.1 1308.7625,300.75 1496.4375,303.025 " fill="none" id="CreateParameterController-to-ParameterCategoryStore" style="stroke:#A80036;stroke-width:1.25;stroke-dasharray:7.0,7.0;"/><polygon fill="#A80036" points="1503.025,303.1125,1491.8476,297.9523,1496.7756,303.0232,1491.7047,307.9513,1503.025,303.1125" style="stroke:#A80036;stroke-width:1.25;"/><!--MD5=[46706d5726812879537e05899d80bc9e]
link CreateParameterController to ParameterStore--><path codeLine="59" d="M515.05,333.3875 C567.4,382.6625 661.5125,460.825 760,491.875 C972.525,558.8625 1230,535.65 1404.85,505.5125 " fill="none" id="CreateParameterController-to-ParameterStore" style="stroke:#A80036;stroke-width:1.25;stroke-dasharray:7.0,7.0;"/><polygon fill="#A80036" points="1411.0375,504.4375,1399.0972,501.439,1404.8799,505.5084,1400.8106,511.2911,1411.0375,504.4375" style="stroke:#A80036;stroke-width:1.25;"/><!--MD5=[28500599d7d52b0914bd4c3c68a17d33]
link CreateParameterController to ParameterCategoryMapper--><path codeLine="60" d="M683.7875,248.65 C721.6375,241.1375 761.175,233.275 799.2875,225.7125 " fill="none" id="CreateParameterController-to-ParameterCategoryMapper" style="stroke:#A80036;stroke-width:1.25;stroke-dasharray:7.0,7.0;"/><polygon fill="#A80036" points="805.8875,224.4,793.8799,221.6832,799.7568,225.6154,795.8246,231.4923,805.8875,224.4" style="stroke:#A80036;stroke-width:1.25;"/><!--MD5=[19765d4468597c595e89fcbff5e25b10]
link ParameterCategoryMapper to ParameterCategory--><path codeLine="61" d="M1282.5375,180.05 C1592.0625,181.575 2123.6625,195.8875 2573.75,266.875 C2583.875,268.4625 2594.375,270.55 2604.775,272.9 " fill="none" id="ParameterCategoryMapper-to-ParameterCategory" style="stroke:#A80036;stroke-width:1.25;stroke-dasharray:7.0,7.0;"/><polygon fill="#A80036" points="2611.2375,274.3875,2601.3856,267.0049,2605.1449,272.9939,2599.1558,276.7531,2611.2375,274.3875" style="stroke:#A80036;stroke-width:1.25;"/><!--MD5=[58fac5310c1666a6e65c137533900c90]
link ParameterCategoryMapper to ParameterCategoryDto--><path codeLine="62" d="M1250.95,139.3625 C1333.7625,123.95 1423.75,107.2 1492.525,94.4 " fill="none" id="ParameterCategoryMapper-to-ParameterCategoryDto" style="stroke:#A80036;stroke-width:1.25;stroke-dasharray:7.0,7.0;"/><polygon fill="#A80036" points="1498.7,93.25,1486.7252,90.3921,1492.5554,94.3932,1488.5543,100.2234,1498.7,93.25" style="stroke:#A80036;stroke-width:1.25;"/><!--MD5=[4bad94e0b97379ae169a366a4d46c584]
link CreateParameterUI to ParameterCategoryDto--><path codeLine="63" d="M182.6125,172.45 C308.9,158.8375 552.4,133.6125 760,118.125 C1021.4,98.6125 1328.8,84.475 1491.8,77.675 " fill="none" id="CreateParameterUI-to-ParameterCategoryDto" style="stroke:#A80036;stroke-width:1.25;stroke-dasharray:7.0,7.0;"/><polygon fill="#A80036" points="1498.5,77.3875,1487.0591,72.8411,1492.255,77.6373,1487.4588,82.8331,1498.5,77.3875" style="stroke:#A80036;stroke-width:1.25;"/><!--MD5=[d6274e3b73b5bc8f467c6cfbf5bf003e]
link ParameterCategoryStore to ParameterCategory--><path codeLine="64" d="M1713.1625,303.8875 C1927.1125,302.9125 2413.7125,300.675 2611.2,299.7625 " fill="none" id="ParameterCategoryStore-ParameterCategory" style="stroke:#A80036;stroke-width:1.25;"/><polygon fill="#000000" points="2202.4999,289.566,2191.1768,285.9443,2191.2106,293.2916,2202.4999,289.566" style="stroke:#000000;stroke-width:1.25;"/><text fill="#000000" font-family="sans-serif" font-size="16.25" lengthAdjust="spacing" textLength="48.75" x="2207.5" y="296.2439">adopts</text><!--MD5=[d53d7490e5836ca5709858d7326f212b]
link Company to ParameterCategoryStore--><path codeLine="65" d="M1121.3,394.7375 C1227.2375,375.0125 1394.725,343.85 1502.7,323.7625 " fill="none" id="Company-ParameterCategoryStore" style="stroke:#A80036;stroke-width:1.25;"/><polygon fill="#000000" points="1332.3945,335.9513,1320.6069,334.4081,1321.9511,341.6314,1332.3945,335.9513" style="stroke:#000000;stroke-width:1.25;"/><text fill="#000000" font-family="sans-serif" font-size="16.25" lengthAdjust="spacing" textLength="35" x="1337.5" y="343.7439">uses</text><text fill="#000000" font-family="sans-serif" font-size="16.25" lengthAdjust="spacing" textLength="8.75" x="1131.253" y="410.8572">1</text><text fill="#000000" font-family="sans-serif" font-size="16.25" lengthAdjust="spacing" textLength="8.75" x="1484.5141" y="343.1846">1</text><!--MD5=[daf3d7412afa2c7651483be0b6e971d1]
link Company to ParameterStore--><path codeLine="66" d="M1121.3,421.15 C1200.3875,427.575 1313.775,436.8 1411.1,444.7 " fill="none" id="Company-ParameterStore" style="stroke:#A80036;stroke-width:1.25;"/><polygon fill="#000000" points="1332.4795,427.601,1321.5078,423.0236,1320.9127,430.3468,1332.4795,427.601" style="stroke:#000000;stroke-width:1.25;"/><text fill="#000000" font-family="sans-serif" font-size="16.25" lengthAdjust="spacing" textLength="35" x="1337.5" y="433.7439">uses</text><text fill="#000000" font-family="sans-serif" font-size="16.25" lengthAdjust="spacing" textLength="8.75" x="1131.253" y="439.7872">1</text><text fill="#000000" font-family="sans-serif" font-size="16.25" lengthAdjust="spacing" textLength="8.75" x="1392.5947" y="461.3074">1</text><!--MD5=[a0992dda039fed1bb57aff5aacace800]
link ParameterStore to Parameter--><path codeLine="67" d="M1805.0625,460.625 C1882.3375,460.625 1970.475,460.625 2045.7875,460.625 " fill="none" id="ParameterStore-Parameter" style="stroke:#A80036;stroke-width:1.25;"/><polygon fill="#000000" points="1855,449.5947,1843.6936,445.9211,1843.6936,453.2684,1855,449.5947" style="stroke:#000000;stroke-width:1.25;"/><text fill="#000000" font-family="sans-serif" font-size="16.25" lengthAdjust="spacing" textLength="147.5" x="1860" y="456.2439">capable of analysing</text><text fill="#000000" font-family="sans-serif" font-size="16.25" lengthAdjust="spacing" textLength="8.75" x="1814.8136" y="478.0038">1</text><text fill="#000000" font-family="sans-serif" font-size="16.25" lengthAdjust="spacing" textLength="6.25" x="2030.2002" y="478.0151">*</text><!--MD5=[6df8849671cb880f6936e94aa30db6f9]
link Parameter to ParameterCategory--><path codeLine="68" d="M2401.6125,411.4625 C2457.1875,394.7625 2518.4625,375.05 2573.75,354.375 C2585.925,349.8125 2598.6,344.65 2611,339.3625 " fill="none" id="Parameter-ParameterCategory" style="stroke:#A80036;stroke-width:1.25;"/><polygon fill="#000000" points="2450.9095,341.3099,2439.0231,341.5175,2441.4152,348.4645,2450.9095,341.3099" style="stroke:#000000;stroke-width:1.25;"/><text fill="#000000" font-family="sans-serif" font-size="16.25" lengthAdjust="spacing" textLength="116.25" x="2456.25" y="349.9939">presented under</text><text fill="#000000" font-family="sans-serif" font-size="16.25" lengthAdjust="spacing" textLength="6.25" x="2411.5103" y="426.1956">*</text><text fill="#000000" font-family="sans-serif" font-size="16.25" lengthAdjust="spacing" textLength="8.75" x="2592.2422" y="361.7452">1</text><!--MD5=[6bd068de397bcb23f95e35932e9a23d7]
@startuml
hide empty methods
hide empty attributes
left to right direction
skinparam classAttributeIconSize 0

class ParameterCategoryDto {
    -code
    -name
    +ParameterCategory(code, name)
    +getCode()
}

class ParameterCategoryMapper {
    +List<ParameterCategoryDto> toDto(List<ParameterCategory> parameterCategories)
    +ParameterCategoryDto toDTO(ParameterCategory pc)
}

class ParameterCategoryStore {
    +getCategoryByCode(code)
}

class ParameterStore {
    +createParameter(parameterCode, shortName, description, pc)
    +validateParameter(parameter)
    +saveParameter(parameter)
}

class Parameter {
  -parameterCode: String
  -shortName: String
  -description: String
  -pc: ParameterCategory
  +Parameter(parameterCode, shortName, description, pc)
}

class ParameterCategory {
   -code: String
   -name: String
}

class Company {
  -designation: String
  +getParameterStore()
  +getParameterCategoryStore()
}

class CreateParameterController {
  +createParameter(parameterCode, shortName, description, pcCode)
  +saveParameter()
}

class CreateParameterUI {

}

CreateParameterUI ..> CreateParameterController
CreateParameterController ..> Company
CreateParameterController ..> ParameterCategoryStore
CreateParameterController ..> ParameterStore
CreateParameterController ..> ParameterCategoryMapper
ParameterCategoryMapper ..> ParameterCategory
ParameterCategoryMapper ..> ParameterCategoryDto
CreateParameterUI ..> ParameterCategoryDto
ParameterCategoryStore - - ParameterCategory : adopts >
Company "1" - - "1" ParameterCategoryStore : uses >
Company "1" - - "1" ParameterStore : uses >
ParameterStore "1" - - "*" Parameter : capable of analysing >
Parameter "*" - - "1" ParameterCategory : presented under >


@enduml

PlantUML version 1.2021.4(Sun Apr 04 09:49:39 BST 2021)
(GPL source distribution)
Java Runtime: OpenJDK Runtime Environment
JVM: Dynamic Code Evolution 64-Bit Server VM
Default Encoding: Cp1252
Language: pt
Country: PT
--></g></svg>