<?xml version="1.0" encoding="UTF-8" standalone="no"?><svg xmlns="http://www.w3.org/2000/svg" xmlns:xlink="http://www.w3.org/1999/xlink" contentScriptType="application/ecmascript" contentStyleType="text/css" height="293.75px" preserveAspectRatio="none" style="width:2525px;height:293px;" version="1.1" viewBox="0 0 2525 293" width="2525px" zoomAndPan="magnify"><defs><filter height="300%" id="fwkl0u173wgee" width="300%" x="-1" y="-1"><feGaussianBlur result="blurOut" stdDeviation="2.5"/><feColorMatrix in="blurOut" result="blurOut2" type="matrix" values="0 0 0 0 0 0 0 0 0 0 0 0 0 0 0 0 0 0 .4 0"/><feOffset dx="5.0" dy="5.0" in="blurOut2" result="blurOut3"/><feBlend in="SourceGraphic" in2="blurOut3" mode="normal"/></filter></defs><g><!--MD5=[d802db621b5b215a6f0466f93cefcb42]
class ParameterCategoryStore--><rect codeLine="6" fill="#FEFECE" filter="url(#fwkl0u173wgee)" height="67.2949" id="ParameterCategoryStore" style="stroke:#A80036;stroke-width:1.875;" width="210" x="1180.625" y="8.75"/><ellipse cx="1199.375" cy="28.75" fill="#ADD1B2" rx="13.75" ry="13.75" style="stroke:#A80036;stroke-width:1.25;"/><path d="M1201.875,24.375 Q1202.1289,23.75 1202.4219,23.4375 Q1202.7148,23.125 1203.0469,23.125 Q1203.6328,23.125 1204.0039,23.4766 Q1204.375,23.8281 1204.375,24.6484 L1204.375,26.6016 Q1204.375,27.4219 1204.0234,27.7734 Q1203.6719,28.125 1203.125,28.125 Q1202.6367,28.125 1202.3242,27.9102 Q1202.0117,27.6953 1201.875,27.1289 Q1201.8164,26.7383 1201.6016,26.5234 Q1201.2109,26.1133 1200.5078,25.8789 Q1199.8047,25.625 1199.1016,25.625 Q1198.2227,25.625 1197.4805,25.9766 Q1196.7578,26.3281 1196.1914,27.1094 Q1195.625,27.8906 1195.625,28.9648 L1195.625,30.1172 Q1195.625,31.4063 1196.6797,32.2656 Q1197.7344,33.125 1199.6094,33.125 Q1200.7227,33.125 1201.5039,32.8711 Q1201.9531,32.7344 1202.4609,32.2852 Q1202.793,32.0313 1202.9688,31.9531 Q1203.1445,31.875 1203.3594,31.875 Q1203.7695,31.875 1204.0625,32.207 Q1204.375,32.5195 1204.375,32.9688 Q1204.375,33.3984 1203.9453,33.9063 Q1203.3203,34.6484 1202.3242,35.0586 Q1201.0156,35.625 1199.4141,35.625 Q1197.5391,35.625 1196.0352,34.8828 Q1194.8242,34.2969 1193.9648,33.0273 Q1193.125,31.7578 1193.125,30.2539 L1193.125,28.8867 Q1193.125,27.3242 1193.8672,25.957 Q1194.6289,24.5898 1195.9375,23.8672 Q1197.2656,23.125 1198.75,23.125 Q1199.6484,23.125 1200.4297,23.4375 Q1201.2109,23.75 1201.875,24.375 Z " fill="#000000"/><text fill="#000000" font-family="sans-serif" font-size="15" lengthAdjust="spacing" textLength="170" x="1216.875" y="34.8877">ParameterCategoryStore</text><line style="stroke:#A80036;stroke-width:1.875;" x1="1181.875" x2="1389.375" y1="48.75" y2="48.75"/><text fill="#000000" font-family="sans-serif" font-size="13.75" lengthAdjust="spacing" textLength="168.75" x="1188.125" y="68.0237">+getCategoryByCode(code)</text><!--MD5=[be7802b157a16874d39c59ca0e2b25be]
class ParameterStore--><rect codeLine="10" fill="#FEFECE" filter="url(#fwkl0u173wgee)" height="101.8848" id="ParameterStore" style="stroke:#A80036;stroke-width:1.875;" width="393.75" x="1088.75" y="152.5"/><ellipse cx="1225.9375" cy="172.5" fill="#ADD1B2" rx="13.75" ry="13.75" style="stroke:#A80036;stroke-width:1.25;"/><path d="M1228.4375,168.125 Q1228.6914,167.5 1228.9844,167.1875 Q1229.2773,166.875 1229.6094,166.875 Q1230.1953,166.875 1230.5664,167.2266 Q1230.9375,167.5781 1230.9375,168.3984 L1230.9375,170.3516 Q1230.9375,171.1719 1230.5859,171.5234 Q1230.2344,171.875 1229.6875,171.875 Q1229.1992,171.875 1228.8867,171.6602 Q1228.5742,171.4453 1228.4375,170.8789 Q1228.3789,170.4883 1228.1641,170.2734 Q1227.7734,169.8633 1227.0703,169.6289 Q1226.3672,169.375 1225.6641,169.375 Q1224.7852,169.375 1224.043,169.7266 Q1223.3203,170.0781 1222.7539,170.8594 Q1222.1875,171.6406 1222.1875,172.7148 L1222.1875,173.8672 Q1222.1875,175.1563 1223.2422,176.0156 Q1224.2969,176.875 1226.1719,176.875 Q1227.2852,176.875 1228.0664,176.6211 Q1228.5156,176.4844 1229.0234,176.0352 Q1229.3555,175.7813 1229.5313,175.7031 Q1229.707,175.625 1229.9219,175.625 Q1230.332,175.625 1230.625,175.957 Q1230.9375,176.2695 1230.9375,176.7188 Q1230.9375,177.1484 1230.5078,177.6563 Q1229.8828,178.3984 1228.8867,178.8086 Q1227.5781,179.375 1225.9766,179.375 Q1224.1016,179.375 1222.5977,178.6328 Q1221.3867,178.0469 1220.5273,176.7773 Q1219.6875,175.5078 1219.6875,174.0039 L1219.6875,172.6367 Q1219.6875,171.0742 1220.4297,169.707 Q1221.1914,168.3398 1222.5,167.6172 Q1223.8281,166.875 1225.3125,166.875 Q1226.2109,166.875 1226.9922,167.1875 Q1227.7734,167.5 1228.4375,168.125 Z " fill="#000000"/><text fill="#000000" font-family="sans-serif" font-size="15" lengthAdjust="spacing" textLength="108.75" x="1251.5625" y="178.6377">ParameterStore</text><line style="stroke:#A80036;stroke-width:1.875;" x1="1090" x2="1481.25" y1="192.5" y2="192.5"/><text fill="#000000" font-family="sans-serif" font-size="13.75" lengthAdjust="spacing" textLength="378.75" x="1096.25" y="211.7737">+createParameter(parameterCode, shortName, description, pc)</text><text fill="#000000" font-family="sans-serif" font-size="13.75" lengthAdjust="spacing" textLength="186.25" x="1096.25" y="229.0686">+validateParameter(parameter)</text><text fill="#000000" font-family="sans-serif" font-size="13.75" lengthAdjust="spacing" textLength="170" x="1096.25" y="246.3635">+saveParameter(parameter)</text><!--MD5=[1f6362a5c8f21d8d6a0fce68f3a92a4e]
class Parameter--><rect codeLine="16" fill="#FEFECE" filter="url(#fwkl0u173wgee)" height="146.4746" id="Parameter" style="stroke:#A80036;stroke-width:1.875;" width="355" x="1723.75" y="130.625"/><ellipse cx="1859.6875" cy="150.625" fill="#ADD1B2" rx="13.75" ry="13.75" style="stroke:#A80036;stroke-width:1.25;"/><path d="M1862.1875,146.25 Q1862.4414,145.625 1862.7344,145.3125 Q1863.0273,145 1863.3594,145 Q1863.9453,145 1864.3164,145.3516 Q1864.6875,145.7031 1864.6875,146.5234 L1864.6875,148.4766 Q1864.6875,149.2969 1864.3359,149.6484 Q1863.9844,150 1863.4375,150 Q1862.9492,150 1862.6367,149.7852 Q1862.3242,149.5703 1862.1875,149.0039 Q1862.1289,148.6133 1861.9141,148.3984 Q1861.5234,147.9883 1860.8203,147.7539 Q1860.1172,147.5 1859.4141,147.5 Q1858.5352,147.5 1857.793,147.8516 Q1857.0703,148.2031 1856.5039,148.9844 Q1855.9375,149.7656 1855.9375,150.8398 L1855.9375,151.9922 Q1855.9375,153.2813 1856.9922,154.1406 Q1858.0469,155 1859.9219,155 Q1861.0352,155 1861.8164,154.7461 Q1862.2656,154.6094 1862.7734,154.1602 Q1863.1055,153.9063 1863.2813,153.8281 Q1863.457,153.75 1863.6719,153.75 Q1864.082,153.75 1864.375,154.082 Q1864.6875,154.3945 1864.6875,154.8438 Q1864.6875,155.2734 1864.2578,155.7813 Q1863.6328,156.5234 1862.6367,156.9336 Q1861.3281,157.5 1859.7266,157.5 Q1857.8516,157.5 1856.3477,156.7578 Q1855.1367,156.1719 1854.2773,154.9023 Q1853.4375,153.6328 1853.4375,152.1289 L1853.4375,150.7617 Q1853.4375,149.1992 1854.1797,147.832 Q1854.9414,146.4648 1856.25,145.7422 Q1857.5781,145 1859.0625,145 Q1859.9609,145 1860.7422,145.3125 Q1861.5234,145.625 1862.1875,146.25 Z " fill="#000000"/><text fill="#000000" font-family="sans-serif" font-size="15" lengthAdjust="spacing" textLength="72.5" x="1885.3125" y="156.7627">Parameter</text><line style="stroke:#A80036;stroke-width:1.875;" x1="1725" x2="2077.5" y1="170.625" y2="170.625"/><text fill="#000000" font-family="sans-serif" font-size="13.75" lengthAdjust="spacing" textLength="136.25" x="1731.25" y="189.8987">-String parameterCode</text><text fill="#000000" font-family="sans-serif" font-size="13.75" lengthAdjust="spacing" textLength="108.75" x="1731.25" y="207.1936">-String shortName</text><text fill="#000000" font-family="sans-serif" font-size="13.75" lengthAdjust="spacing" textLength="110" x="1731.25" y="224.4885">-String description</text><text fill="#000000" font-family="sans-serif" font-size="13.75" lengthAdjust="spacing" textLength="140" x="1731.25" y="241.7834">-ParameterCategory pc</text><line style="stroke:#A80036;stroke-width:1.875;" x1="1725" x2="2077.5" y1="249.8047" y2="249.8047"/><text fill="#000000" font-family="sans-serif" font-size="13.75" lengthAdjust="spacing" textLength="340" x="1731.25" y="269.0784">+Parameter(parameterCode, shortName, description, pc)</text><!--MD5=[36afb6bbd95a8ac778c4537c55a683d5]
class ParameterCategory--><rect codeLine="24" fill="#FEFECE" filter="url(#fwkl0u173wgee)" height="129.1797" id="ParameterCategory" style="stroke:#A80036;stroke-width:1.875;" width="218.75" x="2288.75" y="59.375"/><ellipse cx="2327.75" cy="79.375" fill="#ADD1B2" rx="13.75" ry="13.75" style="stroke:#A80036;stroke-width:1.25;"/><path d="M2330.25,75 Q2330.5039,74.375 2330.7969,74.0625 Q2331.0898,73.75 2331.4219,73.75 Q2332.0078,73.75 2332.3789,74.1016 Q2332.75,74.4531 2332.75,75.2734 L2332.75,77.2266 Q2332.75,78.0469 2332.3984,78.3984 Q2332.0469,78.75 2331.5,78.75 Q2331.0117,78.75 2330.6992,78.5352 Q2330.3867,78.3203 2330.25,77.7539 Q2330.1914,77.3633 2329.9766,77.1484 Q2329.5859,76.7383 2328.8828,76.5039 Q2328.1797,76.25 2327.4766,76.25 Q2326.5977,76.25 2325.8555,76.6016 Q2325.1328,76.9531 2324.5664,77.7344 Q2324,78.5156 2324,79.5898 L2324,80.7422 Q2324,82.0313 2325.0547,82.8906 Q2326.1094,83.75 2327.9844,83.75 Q2329.0977,83.75 2329.8789,83.4961 Q2330.3281,83.3594 2330.8359,82.9102 Q2331.168,82.6563 2331.3438,82.5781 Q2331.5195,82.5 2331.7344,82.5 Q2332.1445,82.5 2332.4375,82.832 Q2332.75,83.1445 2332.75,83.5938 Q2332.75,84.0234 2332.3203,84.5313 Q2331.6953,85.2734 2330.6992,85.6836 Q2329.3906,86.25 2327.7891,86.25 Q2325.9141,86.25 2324.4102,85.5078 Q2323.1992,84.9219 2322.3398,83.6523 Q2321.5,82.3828 2321.5,80.8789 L2321.5,79.5117 Q2321.5,77.9492 2322.2422,76.582 Q2323.0039,75.2148 2324.3125,74.4922 Q2325.6406,73.75 2327.125,73.75 Q2328.0234,73.75 2328.8047,74.0625 Q2329.5859,74.375 2330.25,75 Z " fill="#000000"/><text fill="#000000" font-family="sans-serif" font-size="15" lengthAdjust="spacing" textLength="133.75" x="2349.75" y="85.5127">ParameterCategory</text><line style="stroke:#A80036;stroke-width:1.875;" x1="2290" x2="2506.25" y1="99.375" y2="99.375"/><text fill="#000000" font-family="sans-serif" font-size="13.75" lengthAdjust="spacing" textLength="73.75" x="2296.25" y="118.6487">-String code</text><text fill="#000000" font-family="sans-serif" font-size="13.75" lengthAdjust="spacing" textLength="76.25" x="2296.25" y="135.9436">-String name</text><line style="stroke:#A80036;stroke-width:1.875;" x1="2290" x2="2506.25" y1="143.9648" y2="143.9648"/><text fill="#000000" font-family="sans-serif" font-size="13.75" lengthAdjust="spacing" textLength="203.75" x="2296.25" y="163.2385">+ParameterCategory(code, name)</text><text fill="#000000" font-family="sans-serif" font-size="13.75" lengthAdjust="spacing" textLength="67.5" x="2296.25" y="180.5334">+getCode()</text><!--MD5=[02e4b9b7573f1156f41e60aa5b4e25a4]
class Company--><rect codeLine="31" fill="#FEFECE" filter="url(#fwkl0u173wgee)" height="111.8848" id="Company" style="stroke:#A80036;stroke-width:1.875;" width="200" x="760" y="76.25"/><ellipse cx="821.5625" cy="96.25" fill="#ADD1B2" rx="13.75" ry="13.75" style="stroke:#A80036;stroke-width:1.25;"/><path d="M824.0625,91.875 Q824.3164,91.25 824.6094,90.9375 Q824.9023,90.625 825.2344,90.625 Q825.8203,90.625 826.1914,90.9766 Q826.5625,91.3281 826.5625,92.1484 L826.5625,94.1016 Q826.5625,94.9219 826.2109,95.2734 Q825.8594,95.625 825.3125,95.625 Q824.8242,95.625 824.5117,95.4102 Q824.1992,95.1953 824.0625,94.6289 Q824.0039,94.2383 823.7891,94.0234 Q823.3984,93.6133 822.6953,93.3789 Q821.9922,93.125 821.2891,93.125 Q820.4102,93.125 819.668,93.4766 Q818.9453,93.8281 818.3789,94.6094 Q817.8125,95.3906 817.8125,96.4648 L817.8125,97.6172 Q817.8125,98.9063 818.8672,99.7656 Q819.9219,100.625 821.7969,100.625 Q822.9102,100.625 823.6914,100.3711 Q824.1406,100.2344 824.6484,99.7852 Q824.9805,99.5313 825.1563,99.4531 Q825.332,99.375 825.5469,99.375 Q825.957,99.375 826.25,99.707 Q826.5625,100.0195 826.5625,100.4688 Q826.5625,100.8984 826.1328,101.4063 Q825.5078,102.1484 824.5117,102.5586 Q823.2031,103.125 821.6016,103.125 Q819.7266,103.125 818.2227,102.3828 Q817.0117,101.7969 816.1523,100.5273 Q815.3125,99.2578 815.3125,97.7539 L815.3125,96.3867 Q815.3125,94.8242 816.0547,93.457 Q816.8164,92.0898 818.125,91.3672 Q819.4531,90.625 820.9375,90.625 Q821.8359,90.625 822.6172,90.9375 Q823.3984,91.25 824.0625,91.875 Z " fill="#000000"/><text fill="#000000" font-family="sans-serif" font-size="15" lengthAdjust="spacing" textLength="66.25" x="847.1875" y="102.3877">Company</text><line style="stroke:#A80036;stroke-width:1.875;" x1="761.25" x2="958.75" y1="116.25" y2="116.25"/><text fill="#000000" font-family="sans-serif" font-size="13.75" lengthAdjust="spacing" textLength="112.5" x="767.5" y="135.5237">-String designation</text><line style="stroke:#A80036;stroke-width:1.875;" x1="761.25" x2="958.75" y1="143.5449" y2="143.5449"/><text fill="#000000" font-family="sans-serif" font-size="13.75" lengthAdjust="spacing" textLength="130" x="767.5" y="162.8186">+getParameterStore()</text><text fill="#000000" font-family="sans-serif" font-size="13.75" lengthAdjust="spacing" textLength="185" x="767.5" y="180.1135">+getParameterCategoryStore()</text><!--MD5=[b9009a04d919d78a73c2eeec1e385786]
class CreateParameterController--><rect codeLine="37" fill="#FEFECE" filter="url(#fwkl0u173wgee)" height="84.5898" id="CreateParameterController" style="stroke:#A80036;stroke-width:1.875;" width="425" x="258.75" y="90"/><ellipse cx="372.8125" cy="110" fill="#ADD1B2" rx="13.75" ry="13.75" style="stroke:#A80036;stroke-width:1.25;"/><path d="M375.3125,105.625 Q375.5664,105 375.8594,104.6875 Q376.1523,104.375 376.4844,104.375 Q377.0703,104.375 377.4414,104.7266 Q377.8125,105.0781 377.8125,105.8984 L377.8125,107.8516 Q377.8125,108.6719 377.4609,109.0234 Q377.1094,109.375 376.5625,109.375 Q376.0742,109.375 375.7617,109.1602 Q375.4492,108.9453 375.3125,108.3789 Q375.2539,107.9883 375.0391,107.7734 Q374.6484,107.3633 373.9453,107.1289 Q373.2422,106.875 372.5391,106.875 Q371.6602,106.875 370.918,107.2266 Q370.1953,107.5781 369.6289,108.3594 Q369.0625,109.1406 369.0625,110.2148 L369.0625,111.3672 Q369.0625,112.6563 370.1172,113.5156 Q371.1719,114.375 373.0469,114.375 Q374.1602,114.375 374.9414,114.1211 Q375.3906,113.9844 375.8984,113.5352 Q376.2305,113.2813 376.4063,113.2031 Q376.582,113.125 376.7969,113.125 Q377.207,113.125 377.5,113.457 Q377.8125,113.7695 377.8125,114.2188 Q377.8125,114.6484 377.3828,115.1563 Q376.7578,115.8984 375.7617,116.3086 Q374.4531,116.875 372.8516,116.875 Q370.9766,116.875 369.4727,116.1328 Q368.2617,115.5469 367.4023,114.2773 Q366.5625,113.0078 366.5625,111.5039 L366.5625,110.1367 Q366.5625,108.5742 367.3047,107.207 Q368.0664,105.8398 369.375,105.1172 Q370.7031,104.375 372.1875,104.375 Q373.0859,104.375 373.8672,104.6875 Q374.6484,105 375.3125,105.625 Z " fill="#000000"/><text fill="#000000" font-family="sans-serif" font-size="15" lengthAdjust="spacing" textLength="186.25" x="398.4375" y="116.1377">CreateParameterController</text><line style="stroke:#A80036;stroke-width:1.875;" x1="260" x2="682.5" y1="130" y2="130"/><text fill="#000000" font-family="sans-serif" font-size="13.75" lengthAdjust="spacing" textLength="410" x="266.25" y="149.2737">+createParameter(parameterCode, shortName, description, pcCode)</text><text fill="#000000" font-family="sans-serif" font-size="13.75" lengthAdjust="spacing" textLength="108.75" x="266.25" y="166.5686">+saveParameter()</text><!--MD5=[5518e6815e09c51d4db6e17774f331d2]
class CreateParameterUI--><rect codeLine="42" fill="#FEFECE" filter="url(#fwkl0u173wgee)" height="40" id="CreateParameterUI" style="stroke:#A80036;stroke-width:1.875;" width="173.75" x="8.75" y="112.5"/><ellipse cx="27.5" cy="132.5" fill="#ADD1B2" rx="13.75" ry="13.75" style="stroke:#A80036;stroke-width:1.25;"/><path d="M30,128.125 Q30.2539,127.5 30.5469,127.1875 Q30.8398,126.875 31.1719,126.875 Q31.7578,126.875 32.1289,127.2266 Q32.5,127.5781 32.5,128.3984 L32.5,130.3516 Q32.5,131.1719 32.1484,131.5234 Q31.7969,131.875 31.25,131.875 Q30.7617,131.875 30.4492,131.6602 Q30.1367,131.4453 30,130.8789 Q29.9414,130.4883 29.7266,130.2734 Q29.3359,129.8633 28.6328,129.6289 Q27.9297,129.375 27.2266,129.375 Q26.3477,129.375 25.6055,129.7266 Q24.8828,130.0781 24.3164,130.8594 Q23.75,131.6406 23.75,132.7148 L23.75,133.8672 Q23.75,135.1563 24.8047,136.0156 Q25.8594,136.875 27.7344,136.875 Q28.8477,136.875 29.6289,136.6211 Q30.0781,136.4844 30.5859,136.0352 Q30.918,135.7813 31.0938,135.7031 Q31.2695,135.625 31.4844,135.625 Q31.8945,135.625 32.1875,135.957 Q32.5,136.2695 32.5,136.7188 Q32.5,137.1484 32.0703,137.6563 Q31.4453,138.3984 30.4492,138.8086 Q29.1406,139.375 27.5391,139.375 Q25.6641,139.375 24.1602,138.6328 Q22.9492,138.0469 22.0898,136.7773 Q21.25,135.5078 21.25,134.0039 L21.25,132.6367 Q21.25,131.0742 21.9922,129.707 Q22.7539,128.3398 24.0625,127.6172 Q25.3906,126.875 26.875,126.875 Q27.7734,126.875 28.5547,127.1875 Q29.3359,127.5 30,128.125 Z " fill="#000000"/><text fill="#000000" font-family="sans-serif" font-size="15" lengthAdjust="spacing" textLength="133.75" x="45" y="138.6377">CreateParameterUI</text><!--MD5=[9d3dd688f78c4545f26622cd23f9dd25]
link CreateParameterUI to CreateParameterController--><path codeLine="46" d="M182.95,132.5 C204,132.5 227.475,132.5 251.7,132.5 " fill="none" id="CreateParameterUI-to-CreateParameterController" style="stroke:#A80036;stroke-width:1.25;stroke-dasharray:7.0,7.0;"/><polygon fill="#A80036" points="258.55,132.5,247.3,127.5,252.3,132.5,247.3,137.5,258.55,132.5" style="stroke:#A80036;stroke-width:1.25;"/><!--MD5=[6d585fb02c26694275539b4f1508918e]
link CreateParameterController to Company--><path codeLine="47" d="M684.275,132.5 C708.15,132.5 731.6625,132.5 753.3,132.5 " fill="none" id="CreateParameterController-to-Company" style="stroke:#A80036;stroke-width:1.25;stroke-dasharray:7.0,7.0;"/><polygon fill="#A80036" points="759.95,132.5,748.7,127.5,753.7,132.5,748.7,137.5,759.95,132.5" style="stroke:#A80036;stroke-width:1.25;"/><!--MD5=[d4acd0f9b6f472dc8c1d58fc6da00ca5]
link CreateParameterController to ParameterCategoryStore--><path codeLine="48" d="M603.8625,89.9875 C652.4,76.175 708.2,62.4875 760,55 C901.825,34.5 1067.4375,34.475 1173.9875,37.5 " fill="none" id="CreateParameterController-to-ParameterCategoryStore" style="stroke:#A80036;stroke-width:1.25;stroke-dasharray:7.0,7.0;"/><polygon fill="#A80036" points="1180.2875,37.6875,1169.2006,32.3356,1174.0406,37.4906,1168.8856,42.3306,1180.2875,37.6875" style="stroke:#A80036;stroke-width:1.25;"/><!--MD5=[46706d5726812879537e05899d80bc9e]
link CreateParameterController to ParameterStore--><path codeLine="49" d="M599.075,175.025 C648.65,189.6 706.4,204.0375 760,211.25 C865.7375,225.475 984.5375,225.1 1082.2875,220.5125 " fill="none" id="CreateParameterController-to-ParameterStore" style="stroke:#A80036;stroke-width:1.25;stroke-dasharray:7.0,7.0;"/><polygon fill="#A80036" points="1088.7,220.2125,1077.2207,215.7642,1082.4574,220.5157,1077.7058,225.7524,1088.7,220.2125" style="stroke:#A80036;stroke-width:1.25;"/><!--MD5=[d6274e3b73b5bc8f467c6cfbf5bf003e]
link ParameterCategoryStore to ParameterCategory--><path codeLine="50" d="M1390.8,50.1125 C1600.9875,65.4875 2074.7125,100.1625 2288.5375,115.825 " fill="none" id="ParameterCategoryStore-ParameterCategory" style="stroke:#A80036;stroke-width:1.25;"/><polygon fill="#000000" points="1879.9833,64.426,1868.9753,59.9367,1868.4389,67.2645,1879.9833,64.426" style="stroke:#000000;stroke-width:1.25;"/><text fill="#000000" font-family="sans-serif" font-size="16.25" lengthAdjust="spacing" textLength="48.75" x="1885" y="70.6189">adopts</text><!--MD5=[d53d7490e5836ca5709858d7326f212b]
link Company to ParameterCategoryStore--><path codeLine="51" d="M960.45,111.4 C1026.525,97.35 1113.2,78.9125 1180.2625,64.65 " fill="none" id="Company-ParameterCategoryStore" style="stroke:#A80036;stroke-width:1.25;"/><polygon fill="#000000" points="1009.8633,80.1695,998.04,78.9283,999.5685,86.1149,1009.8633,80.1695" style="stroke:#000000;stroke-width:1.25;"/><text fill="#000000" font-family="sans-serif" font-size="16.25" lengthAdjust="spacing" textLength="35" x="1015" y="88.1189">uses</text><text fill="#000000" font-family="sans-serif" font-size="16.25" lengthAdjust="spacing" textLength="8.75" x="970.1136" y="127.2942">1</text><text fill="#000000" font-family="sans-serif" font-size="16.25" lengthAdjust="spacing" textLength="8.75" x="1161.739" y="84.411">1</text><!--MD5=[daf3d7412afa2c7651483be0b6e971d1]
link Company to ParameterStore--><path codeLine="52" d="M960.45,149.2 C998.8,155.6625 1044.0875,163.2875 1088.4625,170.7625 " fill="none" id="Company-ParameterStore" style="stroke:#A80036;stroke-width:1.25;"/><polygon fill="#000000" points="1009.9132,145.0079,999.3741,139.5072,998.1537,146.7525,1009.9132,145.0079" style="stroke:#000000;stroke-width:1.25;"/><text fill="#000000" font-family="sans-serif" font-size="16.25" lengthAdjust="spacing" textLength="35" x="1015" y="150.6189">uses</text><text fill="#000000" font-family="sans-serif" font-size="16.25" lengthAdjust="spacing" textLength="8.75" x="970.1136" y="168.5789">1</text><text fill="#000000" font-family="sans-serif" font-size="16.25" lengthAdjust="spacing" textLength="8.75" x="1069.9505" y="186.5435">1</text><!--MD5=[a0992dda039fed1bb57aff5aacace800]
link ParameterStore to Parameter--><path codeLine="53" d="M1482.5625,203.75 C1559.8375,203.75 1647.975,203.75 1723.2875,203.75 " fill="none" id="ParameterStore-Parameter" style="stroke:#A80036;stroke-width:1.25;"/><polygon fill="#000000" points="1532.5,192.7197,1521.1936,189.0461,1521.1936,196.3934,1532.5,192.7197" style="stroke:#000000;stroke-width:1.25;"/><text fill="#000000" font-family="sans-serif" font-size="16.25" lengthAdjust="spacing" textLength="147.5" x="1537.5" y="199.3689">capable of analysing</text><text fill="#000000" font-family="sans-serif" font-size="16.25" lengthAdjust="spacing" textLength="8.75" x="1492.3136" y="221.1288">1</text><text fill="#000000" font-family="sans-serif" font-size="16.25" lengthAdjust="spacing" textLength="6.25" x="1707.7002" y="221.1401">*</text><!--MD5=[6df8849671cb880f6936e94aa30db6f9]
link Parameter to ParameterCategory--><path codeLine="54" d="M2078.8875,175.2125 C2148.9,163.875 2227.2,151.2125 2288.575,141.275 " fill="none" id="Parameter-ParameterCategory" style="stroke:#A80036;stroke-width:1.25;"/><polygon fill="#000000" points="2128.6697,134.2212,2116.9217,132.4011,2118.0955,139.654,2128.6697,134.2212" style="stroke:#000000;stroke-width:1.25;"/><text fill="#000000" font-family="sans-serif" font-size="16.25" lengthAdjust="spacing" textLength="116.25" x="2133.75" y="141.8689">presented under</text><text fill="#000000" font-family="sans-serif" font-size="16.25" lengthAdjust="spacing" textLength="6.25" x="2088.7729" y="191.0735">*</text><text fill="#000000" font-family="sans-serif" font-size="16.25" lengthAdjust="spacing" textLength="8.75" x="2270.0346" y="160.5097">1</text><!--MD5=[1bde0b7af0b323e03c8f108903037092]
@startuml
hide empty methods
hide empty attributes
left to right direction
skinparam classAttributeIconSize 0

class ParameterCategoryStore {
    +getCategoryByCode(code)
}

class ParameterStore {
    +createParameter(parameterCode, shortName, description, pc)
    +validateParameter(parameter)
    +saveParameter(parameter)
}

class Parameter {
  -String parameterCode
  -String shortName
  -String description
  -ParameterCategory pc
  +Parameter(parameterCode, shortName, description, pc)
}

class ParameterCategory {
   -String code
   -String name
   +ParameterCategory(code, name)
   +getCode()
}

class Company {
  -String designation
  +getParameterStore()
  +getParameterCategoryStore()
}

class CreateParameterController {
  +createParameter(parameterCode, shortName, description, pcCode)
  +saveParameter()
}

class CreateParameterUI {

}

CreateParameterUI ..> CreateParameterController
CreateParameterController ..> Company
CreateParameterController ..> ParameterCategoryStore
CreateParameterController ..> ParameterStore
ParameterCategoryStore - - ParameterCategory : adopts >
Company "1" - - "1" ParameterCategoryStore : uses >
Company "1" - - "1" ParameterStore : uses >
ParameterStore "1" - - "*" Parameter : capable of analysing >
Parameter "*" - - "1" ParameterCategory : presented under >


@enduml

PlantUML version 1.2021.4(Sun Apr 04 09:49:39 BST 2021)
(GPL source distribution)
Java Runtime: OpenJDK Runtime Environment
JVM: Dynamic Code Evolution 64-Bit Server VM
Default Encoding: Cp1252
Language: pt
Country: PT
--></g></svg>