<?xml version="1.0" encoding="UTF-8" standalone="no"?><svg xmlns="http://www.w3.org/2000/svg" xmlns:xlink="http://www.w3.org/1999/xlink" contentScriptType="application/ecmascript" contentStyleType="text/css" height="410px" preserveAspectRatio="none" style="width:1687px;height:410px;" version="1.1" viewBox="0 0 1687 410" width="1687.5px" zoomAndPan="magnify"><defs><filter height="300%" id="fq0wnvpgwb3b1" width="300%" x="-1" y="-1"><feGaussianBlur result="blurOut" stdDeviation="2.5"/><feColorMatrix in="blurOut" result="blurOut2" type="matrix" values="0 0 0 0 0 0 0 0 0 0 0 0 0 0 0 0 0 0 .4 0"/><feOffset dx="5.0" dy="5.0" in="blurOut2" result="blurOut3"/><feBlend in="SourceGraphic" in2="blurOut3" mode="normal"/></filter></defs><g><!--MD5=[1f6362a5c8f21d8d6a0fce68f3a92a4e]
class Parameter--><rect codeLine="15" fill="#FEFECE" filter="url(#fq0wnvpgwb3b1)" height="129.1797" id="Parameter" style="stroke:#A80036;stroke-width:1.875;" width="358.75" x="1311.25" y="68.75"/><ellipse cx="1449.0625" cy="88.75" fill="#ADD1B2" rx="13.75" ry="13.75" style="stroke:#A80036;stroke-width:1.25;"/><path d="M1451.5625,84.375 Q1451.8164,83.75 1452.1094,83.4375 Q1452.4023,83.125 1452.7344,83.125 Q1453.3203,83.125 1453.6914,83.4766 Q1454.0625,83.8281 1454.0625,84.6484 L1454.0625,86.6016 Q1454.0625,87.4219 1453.7109,87.7734 Q1453.3594,88.125 1452.8125,88.125 Q1452.3242,88.125 1452.0117,87.9102 Q1451.6992,87.6953 1451.5625,87.1289 Q1451.5039,86.7383 1451.2891,86.5234 Q1450.8984,86.1133 1450.1953,85.8789 Q1449.4922,85.625 1448.7891,85.625 Q1447.9102,85.625 1447.168,85.9766 Q1446.4453,86.3281 1445.8789,87.1094 Q1445.3125,87.8906 1445.3125,88.9648 L1445.3125,90.1172 Q1445.3125,91.4063 1446.3672,92.2656 Q1447.4219,93.125 1449.2969,93.125 Q1450.4102,93.125 1451.1914,92.8711 Q1451.6406,92.7344 1452.1484,92.2852 Q1452.4805,92.0313 1452.6563,91.9531 Q1452.832,91.875 1453.0469,91.875 Q1453.457,91.875 1453.75,92.207 Q1454.0625,92.5195 1454.0625,92.9688 Q1454.0625,93.3984 1453.6328,93.9063 Q1453.0078,94.6484 1452.0117,95.0586 Q1450.7031,95.625 1449.1016,95.625 Q1447.2266,95.625 1445.7227,94.8828 Q1444.5117,94.2969 1443.6523,93.0273 Q1442.8125,91.7578 1442.8125,90.2539 L1442.8125,88.8867 Q1442.8125,87.3242 1443.5547,85.957 Q1444.3164,84.5898 1445.625,83.8672 Q1446.9531,83.125 1448.4375,83.125 Q1449.3359,83.125 1450.1172,83.4375 Q1450.8984,83.75 1451.5625,84.375 Z " fill="#000000"/><text fill="#000000" font-family="sans-serif" font-size="15" lengthAdjust="spacing" textLength="72.5" x="1474.6875" y="94.8877">Parameter</text><line style="stroke:#A80036;stroke-width:1.875;" x1="1312.5" x2="1668.75" y1="108.75" y2="108.75"/><text fill="#000000" font-family="sans-serif" font-size="13.75" lengthAdjust="spacing" textLength="136.25" x="1318.75" y="128.0237">-String parameterCode</text><text fill="#000000" font-family="sans-serif" font-size="13.75" lengthAdjust="spacing" textLength="108.75" x="1318.75" y="145.3186">-String shortName</text><text fill="#000000" font-family="sans-serif" font-size="13.75" lengthAdjust="spacing" textLength="110" x="1318.75" y="162.6135">-String description</text><line style="stroke:#A80036;stroke-width:1.875;" x1="1312.5" x2="1668.75" y1="170.6348" y2="170.6348"/><text fill="#000000" font-family="sans-serif" font-size="13.75" lengthAdjust="spacing" textLength="343.75" x="1318.75" y="189.9084">+Parameter(parameterCode, shortName, description, cat)</text><!--MD5=[36afb6bbd95a8ac778c4537c55a683d5]
class ParameterCategory--><rect codeLine="22" fill="#FEFECE" filter="url(#fq0wnvpgwb3b1)" height="129.1797" id="ParameterCategory" style="stroke:#A80036;stroke-width:1.875;" width="258.75" x="1361.25" y="263.75"/><ellipse cx="1418.4375" cy="283.75" fill="#ADD1B2" rx="13.75" ry="13.75" style="stroke:#A80036;stroke-width:1.25;"/><path d="M1420.9375,279.375 Q1421.1914,278.75 1421.4844,278.4375 Q1421.7773,278.125 1422.1094,278.125 Q1422.6953,278.125 1423.0664,278.4766 Q1423.4375,278.8281 1423.4375,279.6484 L1423.4375,281.6016 Q1423.4375,282.4219 1423.0859,282.7734 Q1422.7344,283.125 1422.1875,283.125 Q1421.6992,283.125 1421.3867,282.9102 Q1421.0742,282.6953 1420.9375,282.1289 Q1420.8789,281.7383 1420.6641,281.5234 Q1420.2734,281.1133 1419.5703,280.8789 Q1418.8672,280.625 1418.1641,280.625 Q1417.2852,280.625 1416.543,280.9766 Q1415.8203,281.3281 1415.2539,282.1094 Q1414.6875,282.8906 1414.6875,283.9648 L1414.6875,285.1172 Q1414.6875,286.4063 1415.7422,287.2656 Q1416.7969,288.125 1418.6719,288.125 Q1419.7852,288.125 1420.5664,287.8711 Q1421.0156,287.7344 1421.5234,287.2852 Q1421.8555,287.0313 1422.0313,286.9531 Q1422.207,286.875 1422.4219,286.875 Q1422.832,286.875 1423.125,287.207 Q1423.4375,287.5195 1423.4375,287.9688 Q1423.4375,288.3984 1423.0078,288.9063 Q1422.3828,289.6484 1421.3867,290.0586 Q1420.0781,290.625 1418.4766,290.625 Q1416.6016,290.625 1415.0977,289.8828 Q1413.8867,289.2969 1413.0273,288.0273 Q1412.1875,286.7578 1412.1875,285.2539 L1412.1875,283.8867 Q1412.1875,282.3242 1412.9297,280.957 Q1413.6914,279.5898 1415,278.8672 Q1416.3281,278.125 1417.8125,278.125 Q1418.7109,278.125 1419.4922,278.4375 Q1420.2734,278.75 1420.9375,279.375 Z " fill="#000000"/><text fill="#000000" font-family="sans-serif" font-size="15" lengthAdjust="spacing" textLength="133.75" x="1444.0625" y="289.8877">ParameterCategory</text><line style="stroke:#A80036;stroke-width:1.875;" x1="1362.5" x2="1618.75" y1="303.75" y2="303.75"/><text fill="#000000" font-family="sans-serif" font-size="13.75" lengthAdjust="spacing" textLength="73.75" x="1368.75" y="323.0237">-String code</text><text fill="#000000" font-family="sans-serif" font-size="13.75" lengthAdjust="spacing" textLength="76.25" x="1368.75" y="340.3186">-String name</text><text fill="#000000" font-family="sans-serif" font-size="13.75" lengthAdjust="spacing" textLength="76.25" x="1368.75" y="357.6135">-String nhsId</text><line style="stroke:#A80036;stroke-width:1.875;" x1="1362.5" x2="1618.75" y1="365.6348" y2="365.6348"/><text fill="#000000" font-family="sans-serif" font-size="13.75" lengthAdjust="spacing" textLength="243.75" x="1368.75" y="384.9084">+ParameterCategory(code, name, nhsId)</text><!--MD5=[02e4b9b7573f1156f41e60aa5b4e25a4]
class Company--><rect codeLine="29" fill="#FEFECE" filter="url(#fq0wnvpgwb3b1)" height="163.7695" id="Company" style="stroke:#A80036;stroke-width:1.875;" width="397.5" x="798.75" y="8.75"/><ellipse cx="959.0625" cy="28.75" fill="#ADD1B2" rx="13.75" ry="13.75" style="stroke:#A80036;stroke-width:1.25;"/><path d="M961.5625,24.375 Q961.8164,23.75 962.1094,23.4375 Q962.4023,23.125 962.7344,23.125 Q963.3203,23.125 963.6914,23.4766 Q964.0625,23.8281 964.0625,24.6484 L964.0625,26.6016 Q964.0625,27.4219 963.7109,27.7734 Q963.3594,28.125 962.8125,28.125 Q962.3242,28.125 962.0117,27.9102 Q961.6992,27.6953 961.5625,27.1289 Q961.5039,26.7383 961.2891,26.5234 Q960.8984,26.1133 960.1953,25.8789 Q959.4922,25.625 958.7891,25.625 Q957.9102,25.625 957.168,25.9766 Q956.4453,26.3281 955.8789,27.1094 Q955.3125,27.8906 955.3125,28.9648 L955.3125,30.1172 Q955.3125,31.4063 956.3672,32.2656 Q957.4219,33.125 959.2969,33.125 Q960.4102,33.125 961.1914,32.8711 Q961.6406,32.7344 962.1484,32.2852 Q962.4805,32.0313 962.6563,31.9531 Q962.832,31.875 963.0469,31.875 Q963.457,31.875 963.75,32.207 Q964.0625,32.5195 964.0625,32.9688 Q964.0625,33.3984 963.6328,33.9063 Q963.0078,34.6484 962.0117,35.0586 Q960.7031,35.625 959.1016,35.625 Q957.2266,35.625 955.7227,34.8828 Q954.5117,34.2969 953.6523,33.0273 Q952.8125,31.7578 952.8125,30.2539 L952.8125,28.8867 Q952.8125,27.3242 953.5547,25.957 Q954.3164,24.5898 955.625,23.8672 Q956.9531,23.125 958.4375,23.125 Q959.3359,23.125 960.1172,23.4375 Q960.8984,23.75 961.5625,24.375 Z " fill="#000000"/><text fill="#000000" font-family="sans-serif" font-size="15" lengthAdjust="spacing" textLength="66.25" x="984.6875" y="34.8877">Company</text><line style="stroke:#A80036;stroke-width:1.875;" x1="800" x2="1195" y1="48.75" y2="48.75"/><text fill="#000000" font-family="sans-serif" font-size="13.75" lengthAdjust="spacing" textLength="112.5" x="806.25" y="68.0237">-String designation</text><line style="stroke:#A80036;stroke-width:1.875;" x1="800" x2="1195" y1="76.0449" y2="76.0449"/><text fill="#000000" font-family="sans-serif" font-size="13.75" lengthAdjust="spacing" textLength="185" x="806.25" y="95.3186">+getParameterCategoryStore()</text><text fill="#000000" font-family="sans-serif" font-size="13.75" lengthAdjust="spacing" textLength="382.5" x="806.25" y="112.6135">+createParameter(parameterCode, shortName, description, cat)</text><text fill="#000000" font-family="sans-serif" font-size="13.75" lengthAdjust="spacing" textLength="170" x="806.25" y="129.9084">+saveParameter(parameter)</text><text fill="#000000" font-family="sans-serif" font-size="13.75" lengthAdjust="spacing" textLength="162.5" x="806.25" y="147.2034">+addParameter(parameter)</text><text fill="#000000" font-family="sans-serif" font-size="13.75" lengthAdjust="spacing" textLength="186.25" x="806.25" y="164.4983">+validateParameter(parameter)</text><!--MD5=[b9009a04d919d78a73c2eeec1e385786]
class CreateParameterController--><rect codeLine="45" fill="#FEFECE" filter="url(#fq0wnvpgwb3b1)" height="84.5898" id="CreateParameterController" style="stroke:#A80036;stroke-width:1.875;" width="463.75" x="258.75" y="196.875"/><ellipse cx="392.1875" cy="216.875" fill="#ADD1B2" rx="13.75" ry="13.75" style="stroke:#A80036;stroke-width:1.25;"/><path d="M394.6875,212.5 Q394.9414,211.875 395.2344,211.5625 Q395.5273,211.25 395.8594,211.25 Q396.4453,211.25 396.8164,211.6016 Q397.1875,211.9531 397.1875,212.7734 L397.1875,214.7266 Q397.1875,215.5469 396.8359,215.8984 Q396.4844,216.25 395.9375,216.25 Q395.4492,216.25 395.1367,216.0352 Q394.8242,215.8203 394.6875,215.2539 Q394.6289,214.8633 394.4141,214.6484 Q394.0234,214.2383 393.3203,214.0039 Q392.6172,213.75 391.9141,213.75 Q391.0352,213.75 390.293,214.1016 Q389.5703,214.4531 389.0039,215.2344 Q388.4375,216.0156 388.4375,217.0898 L388.4375,218.2422 Q388.4375,219.5313 389.4922,220.3906 Q390.5469,221.25 392.4219,221.25 Q393.5352,221.25 394.3164,220.9961 Q394.7656,220.8594 395.2734,220.4102 Q395.6055,220.1563 395.7813,220.0781 Q395.957,220 396.1719,220 Q396.582,220 396.875,220.332 Q397.1875,220.6445 397.1875,221.0938 Q397.1875,221.5234 396.7578,222.0313 Q396.1328,222.7734 395.1367,223.1836 Q393.8281,223.75 392.2266,223.75 Q390.3516,223.75 388.8477,223.0078 Q387.6367,222.4219 386.7773,221.1523 Q385.9375,219.8828 385.9375,218.3789 L385.9375,217.0117 Q385.9375,215.4492 386.6797,214.082 Q387.4414,212.7148 388.75,211.9922 Q390.0781,211.25 391.5625,211.25 Q392.4609,211.25 393.2422,211.5625 Q394.0234,211.875 394.6875,212.5 Z " fill="#000000"/><text fill="#000000" font-family="sans-serif" font-size="15" lengthAdjust="spacing" textLength="186.25" x="417.8125" y="223.0127">CreateParameterController</text><line style="stroke:#A80036;stroke-width:1.875;" x1="260" x2="721.25" y1="236.875" y2="236.875"/><text fill="#000000" font-family="sans-serif" font-size="13.75" lengthAdjust="spacing" textLength="448.75" x="266.25" y="256.1487">+createParameter(parameterCode, shortName, description, categoryCode)</text><text fill="#000000" font-family="sans-serif" font-size="13.75" lengthAdjust="spacing" textLength="108.75" x="266.25" y="273.4436">+saveParameter()</text><!--MD5=[5518e6815e09c51d4db6e17774f331d2]
class CreateParameterUI--><rect codeLine="50" fill="#FEFECE" filter="url(#fq0wnvpgwb3b1)" height="40" id="CreateParameterUI" style="stroke:#A80036;stroke-width:1.875;" width="173.75" x="8.75" y="219.375"/><ellipse cx="27.5" cy="239.375" fill="#ADD1B2" rx="13.75" ry="13.75" style="stroke:#A80036;stroke-width:1.25;"/><path d="M30,235 Q30.2539,234.375 30.5469,234.0625 Q30.8398,233.75 31.1719,233.75 Q31.7578,233.75 32.1289,234.1016 Q32.5,234.4531 32.5,235.2734 L32.5,237.2266 Q32.5,238.0469 32.1484,238.3984 Q31.7969,238.75 31.25,238.75 Q30.7617,238.75 30.4492,238.5352 Q30.1367,238.3203 30,237.7539 Q29.9414,237.3633 29.7266,237.1484 Q29.3359,236.7383 28.6328,236.5039 Q27.9297,236.25 27.2266,236.25 Q26.3477,236.25 25.6055,236.6016 Q24.8828,236.9531 24.3164,237.7344 Q23.75,238.5156 23.75,239.5898 L23.75,240.7422 Q23.75,242.0313 24.8047,242.8906 Q25.8594,243.75 27.7344,243.75 Q28.8477,243.75 29.6289,243.4961 Q30.0781,243.3594 30.5859,242.9102 Q30.918,242.6563 31.0938,242.5781 Q31.2695,242.5 31.4844,242.5 Q31.8945,242.5 32.1875,242.832 Q32.5,243.1445 32.5,243.5938 Q32.5,244.0234 32.0703,244.5313 Q31.4453,245.2734 30.4492,245.6836 Q29.1406,246.25 27.5391,246.25 Q25.6641,246.25 24.1602,245.5078 Q22.9492,244.9219 22.0898,243.6523 Q21.25,242.3828 21.25,240.8789 L21.25,239.5117 Q21.25,237.9492 21.9922,236.582 Q22.7539,235.2148 24.0625,234.4922 Q25.3906,233.75 26.875,233.75 Q27.7734,233.75 28.5547,234.0625 Q29.3359,234.375 30,235 Z " fill="#000000"/><text fill="#000000" font-family="sans-serif" font-size="15" lengthAdjust="spacing" textLength="133.75" x="45" y="245.5127">CreateParameterUI</text><!--MD5=[9d3dd688f78c4545f26622cd23f9dd25]
link CreateParameterUI to CreateParameterController--><path codeLine="54" d="M182.525,239.375 C203.7375,239.375 227.5,239.375 252.175,239.375 " fill="none" id="CreateParameterUI-to-CreateParameterController" style="stroke:#A80036;stroke-width:1.25;stroke-dasharray:7.0,7.0;"/><polygon fill="#A80036" points="258.475,239.375,247.225,234.375,252.225,239.375,247.225,244.375,258.475,239.375" style="stroke:#A80036;stroke-width:1.25;"/><!--MD5=[094e4a14e6ba8aeac9d4213c7f104300]
link CreateParameterController to ParameterCategory--><path codeLine="56" d="M722.525,267.9875 C735.2,269.35 747.75,270.6625 760,271.875 C967.1875,292.4125 1208.125,309.7125 1354.625,319.5 " fill="none" id="CreateParameterController-to-ParameterCategory" style="stroke:#A80036;stroke-width:1.25;stroke-dasharray:7.0,7.0;"/><polygon fill="#A80036" points="1361.1,319.9375,1350.2032,314.2085,1354.8635,319.5265,1349.5456,324.1869,1361.1,319.9375" style="stroke:#A80036;stroke-width:1.25;"/><!--MD5=[c56d23af98be554523068ac4fbdb568e]
link CreateParameterController to Parameter--><path codeLine="57" d="M722.6875,232.9 C860.6,226.975 1039.0125,215.7125 1196.25,194.375 C1231.5625,189.5875 1268.9625,182.9625 1304.825,175.85 " fill="none" id="CreateParameterController-to-Parameter" style="stroke:#A80036;stroke-width:1.25;stroke-dasharray:7.0,7.0;"/><polygon fill="#A80036" points="1311.0375,174.6125,1299.0224,171.9294,1304.9102,175.8451,1300.9945,181.733,1311.0375,174.6125" style="stroke:#A80036;stroke-width:1.25;"/><!--MD5=[6d585fb02c26694275539b4f1508918e]
link CreateParameterController to Company--><path codeLine="58" d="M636.075,196.85 C684.7125,182.5 739.95,166.2125 792.3125,150.775 " fill="none" id="CreateParameterController-to-Company" style="stroke:#A80036;stroke-width:1.25;stroke-dasharray:7.0,7.0;"/><polygon fill="#A80036" points="798.35,148.9875,786.1442,147.3808,792.3562,150.7588,788.9783,156.9708,798.35,148.9875" style="stroke:#A80036;stroke-width:1.25;"/><!--MD5=[6df8849671cb880f6936e94aa30db6f9]
link Parameter to ParameterCategory--><path codeLine="61" d="M1490.625,197.775 C1490.625,216.8375 1490.625,237.7875 1490.625,257.2125 " fill="none" id="Parameter-to-ParameterCategory" style="stroke:#A80036;stroke-width:1.25;"/><polygon fill="#A80036" points="1490.625,263.7375,1495.625,252.4875,1490.625,257.4875,1485.625,252.4875,1490.625,263.7375" style="stroke:#A80036;stroke-width:1.25;"/><text fill="#000000" font-family="sans-serif" font-size="16.25" lengthAdjust="spacing" textLength="85" x="1433.125" y="237.4939">classified in</text><text fill="#000000" font-family="sans-serif" font-size="16.25" lengthAdjust="spacing" textLength="6.25" x="1483.9551" y="224.6756">*</text><text fill="#000000" font-family="sans-serif" font-size="16.25" lengthAdjust="spacing" textLength="8.75" x="1481.2598" y="250.1463">1</text><!--MD5=[12d76240d3c3c66074d4ec2ea8bf469c]
link Company to Parameter--><path codeLine="63" d="M1196.5375,107.7625 C1232.2375,110.85 1269.3375,114.0625 1304.6375,117.125 " fill="none" id="Company-to-Parameter" style="stroke:#A80036;stroke-width:1.25;"/><polygon fill="#A80036" points="1311.2125,117.6875,1300.4321,111.7424,1304.9855,117.1522,1299.5756,121.7056,1311.2125,117.6875" style="stroke:#A80036;stroke-width:1.25;"/><text fill="#000000" font-family="sans-serif" font-size="16.25" lengthAdjust="spacing" textLength="37.5" x="1235" y="107.4939">owns</text><text fill="#000000" font-family="sans-serif" font-size="16.25" lengthAdjust="spacing" textLength="8.75" x="1206.3903" y="125.956">1</text><text fill="#000000" font-family="sans-serif" font-size="16.25" lengthAdjust="spacing" textLength="6.25" x="1294.98" y="134.2593">*</text><!--MD5=[cbf3061afdfc8c47fac3350000cdc5a5]
@startuml
hide empty methods
hide empty attributes
left to right direction
skinparam classAttributeIconSize 0

'class ApplicationPOT{
  '+static getInstance()
  '+getCurrentSession()
'}

'class UserSession{
  '+getUserPhoneNumber()
'}

class Parameter {
  -String parameterCode
  -String shortName
  -String description
  +Parameter(parameterCode, shortName, description, cat)
}

class ParameterCategory {
   -String code
   -String name
   -String nhsId
   +ParameterCategory(code, name, nhsId)
}

class Company {
  -String designation
  +getParameterCategoryStore()
  '+getCategoryByCode(code)
  +createParameter(parameterCode, shortName, description, cat)
  +saveParameter(parameter)
  +addParameter(parameter)
  +validateParameter(parameter)
}

'class Platform {
  '-String designation
  '+getParameterCategories()
  '+getParameterCategoryByCode(catCode)
'}

class CreateParameterController {
  +createParameter(parameterCode, shortName, description, categoryCode)
  +saveParameter()
}

class CreateParameterUI {

}

CreateParameterUI ..> CreateParameterController
'CreateParameterController ..> Platform
CreateParameterController ..> ParameterCategory
CreateParameterController ..> Parameter
CreateParameterController ..> Company
'CreateParameterController ..> ApplicationPOT
'CreateParameterController ..> UserSession
Parameter "*" -> "1" ParameterCategory : classified in
'Platform "1" - -> "*" ParameterCategory : defines
Company "1" - -> "*" Parameter : owns


@enduml

@startuml
hide empty methods
hide empty attributes
left to right direction
skinparam classAttributeIconSize 0



class Parameter {
  -String parameterCode
  -String shortName
  -String description
  +Parameter(parameterCode, shortName, description, cat)
}

class ParameterCategory {
   -String code
   -String name
   -String nhsId
   +ParameterCategory(code, name, nhsId)
}

class Company {
  -String designation
  +getParameterCategoryStore()
  +createParameter(parameterCode, shortName, description, cat)
  +saveParameter(parameter)
  +addParameter(parameter)
  +validateParameter(parameter)
}


class CreateParameterController {
  +createParameter(parameterCode, shortName, description, categoryCode)
  +saveParameter()
}

class CreateParameterUI {

}

CreateParameterUI ..> CreateParameterController
CreateParameterController ..> ParameterCategory
CreateParameterController ..> Parameter
CreateParameterController ..> Company
Parameter "*" -> "1" ParameterCategory : classified in
Company "1" - -> "*" Parameter : owns


@enduml

PlantUML version 1.2021.4(Sun Apr 04 09:49:39 BST 2021)
(GPL source distribution)
Java Runtime: OpenJDK Runtime Environment
JVM: Dynamic Code Evolution 64-Bit Server VM
Default Encoding: Cp1252
Language: pt
Country: PT
--></g></svg>