<?xml version="1.0" encoding="UTF-8" standalone="no"?><svg xmlns="http://www.w3.org/2000/svg" xmlns:xlink="http://www.w3.org/1999/xlink" contentScriptType="application/ecmascript" contentStyleType="text/css" height="390px" preserveAspectRatio="none" style="width:2557px;height:390px;" version="1.1" viewBox="0 0 2557 390" width="2557.5px" zoomAndPan="magnify"><defs><filter height="300%" id="f1wqagi608iyh6" width="300%" x="-1" y="-1"><feGaussianBlur result="blurOut" stdDeviation="2.5"/><feColorMatrix in="blurOut" result="blurOut2" type="matrix" values="0 0 0 0 0 0 0 0 0 0 0 0 0 0 0 0 0 0 .4 0"/><feOffset dx="5.0" dy="5.0" in="blurOut2" result="blurOut3"/><feBlend in="SourceGraphic" in2="blurOut3" mode="normal"/></filter></defs><g><!--MD5=[d802db621b5b215a6f0466f93cefcb42]
class ParameterCategoryStore--><rect codeLine="10" fill="#FEFECE" filter="url(#f1wqagi608iyh6)" height="84.5898" id="ParameterCategoryStore" style="stroke:#A80036;stroke-width:1.875;" width="210" x="1176.875" y="288.125"/><ellipse cx="1195.625" cy="308.125" fill="#ADD1B2" rx="13.75" ry="13.75" style="stroke:#A80036;stroke-width:1.25;"/><path d="M1198.125,303.75 Q1198.3789,303.125 1198.6719,302.8125 Q1198.9648,302.5 1199.2969,302.5 Q1199.8828,302.5 1200.2539,302.8516 Q1200.625,303.2031 1200.625,304.0234 L1200.625,305.9766 Q1200.625,306.7969 1200.2734,307.1484 Q1199.9219,307.5 1199.375,307.5 Q1198.8867,307.5 1198.5742,307.2852 Q1198.2617,307.0703 1198.125,306.5039 Q1198.0664,306.1133 1197.8516,305.8984 Q1197.4609,305.4883 1196.7578,305.2539 Q1196.0547,305 1195.3516,305 Q1194.4727,305 1193.7305,305.3516 Q1193.0078,305.7031 1192.4414,306.4844 Q1191.875,307.2656 1191.875,308.3398 L1191.875,309.4922 Q1191.875,310.7813 1192.9297,311.6406 Q1193.9844,312.5 1195.8594,312.5 Q1196.9727,312.5 1197.7539,312.2461 Q1198.2031,312.1094 1198.7109,311.6602 Q1199.043,311.4063 1199.2188,311.3281 Q1199.3945,311.25 1199.6094,311.25 Q1200.0195,311.25 1200.3125,311.582 Q1200.625,311.8945 1200.625,312.3438 Q1200.625,312.7734 1200.1953,313.2813 Q1199.5703,314.0234 1198.5742,314.4336 Q1197.2656,315 1195.6641,315 Q1193.7891,315 1192.2852,314.2578 Q1191.0742,313.6719 1190.2148,312.4023 Q1189.375,311.1328 1189.375,309.6289 L1189.375,308.2617 Q1189.375,306.6992 1190.1172,305.332 Q1190.8789,303.9648 1192.1875,303.2422 Q1193.5156,302.5 1195,302.5 Q1195.8984,302.5 1196.6797,302.8125 Q1197.4609,303.125 1198.125,303.75 Z " fill="#000000"/><text fill="#000000" font-family="sans-serif" font-size="15" lengthAdjust="spacing" textLength="170" x="1213.125" y="314.2627">ParameterCategoryStore</text><line style="stroke:#A80036;stroke-width:1.875;" x1="1178.125" x2="1385.625" y1="328.125" y2="328.125"/><text fill="#000000" font-family="sans-serif" font-size="13.75" lengthAdjust="spacing" textLength="122.5" x="1184.375" y="347.3987">+getCategoriesList()</text><text fill="#000000" font-family="sans-serif" font-size="13.75" lengthAdjust="spacing" textLength="178.75" x="1184.375" y="364.6936">+getCategoriesByCode(code)</text><!--MD5=[be7802b157a16874d39c59ca0e2b25be]
class ParameterStore--><rect codeLine="15" fill="#FEFECE" filter="url(#f1wqagi608iyh6)" height="67.2949" id="ParameterStore" style="stroke:#A80036;stroke-width:1.875;" width="386.25" x="1088.75" y="64.375"/><ellipse cx="1222.1875" cy="84.375" fill="#ADD1B2" rx="13.75" ry="13.75" style="stroke:#A80036;stroke-width:1.25;"/><path d="M1224.6875,80 Q1224.9414,79.375 1225.2344,79.0625 Q1225.5273,78.75 1225.8594,78.75 Q1226.4453,78.75 1226.8164,79.1016 Q1227.1875,79.4531 1227.1875,80.2734 L1227.1875,82.2266 Q1227.1875,83.0469 1226.8359,83.3984 Q1226.4844,83.75 1225.9375,83.75 Q1225.4492,83.75 1225.1367,83.5352 Q1224.8242,83.3203 1224.6875,82.7539 Q1224.6289,82.3633 1224.4141,82.1484 Q1224.0234,81.7383 1223.3203,81.5039 Q1222.6172,81.25 1221.9141,81.25 Q1221.0352,81.25 1220.293,81.6016 Q1219.5703,81.9531 1219.0039,82.7344 Q1218.4375,83.5156 1218.4375,84.5898 L1218.4375,85.7422 Q1218.4375,87.0313 1219.4922,87.8906 Q1220.5469,88.75 1222.4219,88.75 Q1223.5352,88.75 1224.3164,88.4961 Q1224.7656,88.3594 1225.2734,87.9102 Q1225.6055,87.6563 1225.7813,87.5781 Q1225.957,87.5 1226.1719,87.5 Q1226.582,87.5 1226.875,87.832 Q1227.1875,88.1445 1227.1875,88.5938 Q1227.1875,89.0234 1226.7578,89.5313 Q1226.1328,90.2734 1225.1367,90.6836 Q1223.8281,91.25 1222.2266,91.25 Q1220.3516,91.25 1218.8477,90.5078 Q1217.6367,89.9219 1216.7773,88.6523 Q1215.9375,87.3828 1215.9375,85.8789 L1215.9375,84.5117 Q1215.9375,82.9492 1216.6797,81.582 Q1217.4414,80.2148 1218.75,79.4922 Q1220.0781,78.75 1221.5625,78.75 Q1222.4609,78.75 1223.2422,79.0625 Q1224.0234,79.375 1224.6875,80 Z " fill="#000000"/><text fill="#000000" font-family="sans-serif" font-size="15" lengthAdjust="spacing" textLength="108.75" x="1247.8125" y="90.5127">ParameterStore</text><line style="stroke:#A80036;stroke-width:1.875;" x1="1090" x2="1473.75" y1="104.375" y2="104.375"/><text fill="#000000" font-family="sans-serif" font-size="13.75" lengthAdjust="spacing" textLength="371.25" x="1096.25" y="123.6487">createParameter(parameterCode, shortName, description, pc)</text><!--MD5=[1f6362a5c8f21d8d6a0fce68f3a92a4e]
class Parameter--><rect codeLine="19" fill="#FEFECE" filter="url(#f1wqagi608iyh6)" height="146.4746" id="Parameter" style="stroke:#A80036;stroke-width:1.875;" width="355" x="1716.25" y="8.75"/><ellipse cx="1852.1875" cy="28.75" fill="#ADD1B2" rx="13.75" ry="13.75" style="stroke:#A80036;stroke-width:1.25;"/><path d="M1854.6875,24.375 Q1854.9414,23.75 1855.2344,23.4375 Q1855.5273,23.125 1855.8594,23.125 Q1856.4453,23.125 1856.8164,23.4766 Q1857.1875,23.8281 1857.1875,24.6484 L1857.1875,26.6016 Q1857.1875,27.4219 1856.8359,27.7734 Q1856.4844,28.125 1855.9375,28.125 Q1855.4492,28.125 1855.1367,27.9102 Q1854.8242,27.6953 1854.6875,27.1289 Q1854.6289,26.7383 1854.4141,26.5234 Q1854.0234,26.1133 1853.3203,25.8789 Q1852.6172,25.625 1851.9141,25.625 Q1851.0352,25.625 1850.293,25.9766 Q1849.5703,26.3281 1849.0039,27.1094 Q1848.4375,27.8906 1848.4375,28.9648 L1848.4375,30.1172 Q1848.4375,31.4063 1849.4922,32.2656 Q1850.5469,33.125 1852.4219,33.125 Q1853.5352,33.125 1854.3164,32.8711 Q1854.7656,32.7344 1855.2734,32.2852 Q1855.6055,32.0313 1855.7813,31.9531 Q1855.957,31.875 1856.1719,31.875 Q1856.582,31.875 1856.875,32.207 Q1857.1875,32.5195 1857.1875,32.9688 Q1857.1875,33.3984 1856.7578,33.9063 Q1856.1328,34.6484 1855.1367,35.0586 Q1853.8281,35.625 1852.2266,35.625 Q1850.3516,35.625 1848.8477,34.8828 Q1847.6367,34.2969 1846.7773,33.0273 Q1845.9375,31.7578 1845.9375,30.2539 L1845.9375,28.8867 Q1845.9375,27.3242 1846.6797,25.957 Q1847.4414,24.5898 1848.75,23.8672 Q1850.0781,23.125 1851.5625,23.125 Q1852.4609,23.125 1853.2422,23.4375 Q1854.0234,23.75 1854.6875,24.375 Z " fill="#000000"/><text fill="#000000" font-family="sans-serif" font-size="15" lengthAdjust="spacing" textLength="72.5" x="1877.8125" y="34.8877">Parameter</text><line style="stroke:#A80036;stroke-width:1.875;" x1="1717.5" x2="2070" y1="48.75" y2="48.75"/><text fill="#000000" font-family="sans-serif" font-size="13.75" lengthAdjust="spacing" textLength="136.25" x="1723.75" y="68.0237">-String parameterCode</text><text fill="#000000" font-family="sans-serif" font-size="13.75" lengthAdjust="spacing" textLength="108.75" x="1723.75" y="85.3186">-String shortName</text><text fill="#000000" font-family="sans-serif" font-size="13.75" lengthAdjust="spacing" textLength="110" x="1723.75" y="102.6135">-String description</text><text fill="#000000" font-family="sans-serif" font-size="13.75" lengthAdjust="spacing" textLength="140" x="1723.75" y="119.9084">-ParameterCategory pc</text><line style="stroke:#A80036;stroke-width:1.875;" x1="1717.5" x2="2070" y1="127.9297" y2="127.9297"/><text fill="#000000" font-family="sans-serif" font-size="13.75" lengthAdjust="spacing" textLength="340" x="1723.75" y="147.2034">+Parameter(parameterCode, shortName, description, pc)</text><!--MD5=[36afb6bbd95a8ac778c4537c55a683d5]
class ParameterCategory--><rect codeLine="27" fill="#FEFECE" filter="url(#f1wqagi608iyh6)" height="146.4746" id="ParameterCategory" style="stroke:#A80036;stroke-width:1.875;" width="258.75" x="2281.25" y="148.75"/><ellipse cx="2338.4375" cy="168.75" fill="#ADD1B2" rx="13.75" ry="13.75" style="stroke:#A80036;stroke-width:1.25;"/><path d="M2340.9375,164.375 Q2341.1914,163.75 2341.4844,163.4375 Q2341.7773,163.125 2342.1094,163.125 Q2342.6953,163.125 2343.0664,163.4766 Q2343.4375,163.8281 2343.4375,164.6484 L2343.4375,166.6016 Q2343.4375,167.4219 2343.0859,167.7734 Q2342.7344,168.125 2342.1875,168.125 Q2341.6992,168.125 2341.3867,167.9102 Q2341.0742,167.6953 2340.9375,167.1289 Q2340.8789,166.7383 2340.6641,166.5234 Q2340.2734,166.1133 2339.5703,165.8789 Q2338.8672,165.625 2338.1641,165.625 Q2337.2852,165.625 2336.543,165.9766 Q2335.8203,166.3281 2335.2539,167.1094 Q2334.6875,167.8906 2334.6875,168.9648 L2334.6875,170.1172 Q2334.6875,171.4063 2335.7422,172.2656 Q2336.7969,173.125 2338.6719,173.125 Q2339.7852,173.125 2340.5664,172.8711 Q2341.0156,172.7344 2341.5234,172.2852 Q2341.8555,172.0313 2342.0313,171.9531 Q2342.207,171.875 2342.4219,171.875 Q2342.832,171.875 2343.125,172.207 Q2343.4375,172.5195 2343.4375,172.9688 Q2343.4375,173.3984 2343.0078,173.9063 Q2342.3828,174.6484 2341.3867,175.0586 Q2340.0781,175.625 2338.4766,175.625 Q2336.6016,175.625 2335.0977,174.8828 Q2333.8867,174.2969 2333.0273,173.0273 Q2332.1875,171.7578 2332.1875,170.2539 L2332.1875,168.8867 Q2332.1875,167.3242 2332.9297,165.957 Q2333.6914,164.5898 2335,163.8672 Q2336.3281,163.125 2337.8125,163.125 Q2338.7109,163.125 2339.4922,163.4375 Q2340.2734,163.75 2340.9375,164.375 Z " fill="#000000"/><text fill="#000000" font-family="sans-serif" font-size="15" lengthAdjust="spacing" textLength="133.75" x="2364.0625" y="174.8877">ParameterCategory</text><line style="stroke:#A80036;stroke-width:1.875;" x1="2282.5" x2="2538.75" y1="188.75" y2="188.75"/><text fill="#000000" font-family="sans-serif" font-size="13.75" lengthAdjust="spacing" textLength="73.75" x="2288.75" y="208.0237">-String code</text><text fill="#000000" font-family="sans-serif" font-size="13.75" lengthAdjust="spacing" textLength="76.25" x="2288.75" y="225.3186">-String name</text><text fill="#000000" font-family="sans-serif" font-size="13.75" lengthAdjust="spacing" textLength="76.25" x="2288.75" y="242.6135">-String nhsId</text><line style="stroke:#A80036;stroke-width:1.875;" x1="2282.5" x2="2538.75" y1="250.6348" y2="250.6348"/><text fill="#000000" font-family="sans-serif" font-size="13.75" lengthAdjust="spacing" textLength="243.75" x="2288.75" y="269.9084">+ParameterCategory(code, name, nhsId)</text><text fill="#000000" font-family="sans-serif" font-size="13.75" lengthAdjust="spacing" textLength="67.5" x="2288.75" y="287.2034">+getCode()</text><!--MD5=[02e4b9b7573f1156f41e60aa5b4e25a4]
class Company--><rect codeLine="35" fill="#FEFECE" filter="url(#f1wqagi608iyh6)" height="111.8848" id="Company" style="stroke:#A80036;stroke-width:1.875;" width="200" x="760" y="165.625"/><ellipse cx="821.5625" cy="185.625" fill="#ADD1B2" rx="13.75" ry="13.75" style="stroke:#A80036;stroke-width:1.25;"/><path d="M824.0625,181.25 Q824.3164,180.625 824.6094,180.3125 Q824.9023,180 825.2344,180 Q825.8203,180 826.1914,180.3516 Q826.5625,180.7031 826.5625,181.5234 L826.5625,183.4766 Q826.5625,184.2969 826.2109,184.6484 Q825.8594,185 825.3125,185 Q824.8242,185 824.5117,184.7852 Q824.1992,184.5703 824.0625,184.0039 Q824.0039,183.6133 823.7891,183.3984 Q823.3984,182.9883 822.6953,182.7539 Q821.9922,182.5 821.2891,182.5 Q820.4102,182.5 819.668,182.8516 Q818.9453,183.2031 818.3789,183.9844 Q817.8125,184.7656 817.8125,185.8398 L817.8125,186.9922 Q817.8125,188.2813 818.8672,189.1406 Q819.9219,190 821.7969,190 Q822.9102,190 823.6914,189.7461 Q824.1406,189.6094 824.6484,189.1602 Q824.9805,188.9063 825.1563,188.8281 Q825.332,188.75 825.5469,188.75 Q825.957,188.75 826.25,189.082 Q826.5625,189.3945 826.5625,189.8438 Q826.5625,190.2734 826.1328,190.7813 Q825.5078,191.5234 824.5117,191.9336 Q823.2031,192.5 821.6016,192.5 Q819.7266,192.5 818.2227,191.7578 Q817.0117,191.1719 816.1523,189.9023 Q815.3125,188.6328 815.3125,187.1289 L815.3125,185.7617 Q815.3125,184.1992 816.0547,182.832 Q816.8164,181.4648 818.125,180.7422 Q819.4531,180 820.9375,180 Q821.8359,180 822.6172,180.3125 Q823.3984,180.625 824.0625,181.25 Z " fill="#000000"/><text fill="#000000" font-family="sans-serif" font-size="15" lengthAdjust="spacing" textLength="66.25" x="847.1875" y="191.7627">Company</text><line style="stroke:#A80036;stroke-width:1.875;" x1="761.25" x2="958.75" y1="205.625" y2="205.625"/><text fill="#000000" font-family="sans-serif" font-size="13.75" lengthAdjust="spacing" textLength="112.5" x="767.5" y="224.8987">-String designation</text><line style="stroke:#A80036;stroke-width:1.875;" x1="761.25" x2="958.75" y1="232.9199" y2="232.9199"/><text fill="#000000" font-family="sans-serif" font-size="13.75" lengthAdjust="spacing" textLength="130" x="767.5" y="252.1936">+getParameterStore()</text><text fill="#000000" font-family="sans-serif" font-size="13.75" lengthAdjust="spacing" textLength="185" x="767.5" y="269.4885">+getParameterCategoryStore()</text><!--MD5=[b9009a04d919d78a73c2eeec1e385786]
class CreateParameterController--><rect codeLine="41" fill="#FEFECE" filter="url(#f1wqagi608iyh6)" height="84.5898" id="CreateParameterController" style="stroke:#A80036;stroke-width:1.875;" width="425" x="258.75" y="179.375"/><ellipse cx="372.8125" cy="199.375" fill="#ADD1B2" rx="13.75" ry="13.75" style="stroke:#A80036;stroke-width:1.25;"/><path d="M375.3125,195 Q375.5664,194.375 375.8594,194.0625 Q376.1523,193.75 376.4844,193.75 Q377.0703,193.75 377.4414,194.1016 Q377.8125,194.4531 377.8125,195.2734 L377.8125,197.2266 Q377.8125,198.0469 377.4609,198.3984 Q377.1094,198.75 376.5625,198.75 Q376.0742,198.75 375.7617,198.5352 Q375.4492,198.3203 375.3125,197.7539 Q375.2539,197.3633 375.0391,197.1484 Q374.6484,196.7383 373.9453,196.5039 Q373.2422,196.25 372.5391,196.25 Q371.6602,196.25 370.918,196.6016 Q370.1953,196.9531 369.6289,197.7344 Q369.0625,198.5156 369.0625,199.5898 L369.0625,200.7422 Q369.0625,202.0313 370.1172,202.8906 Q371.1719,203.75 373.0469,203.75 Q374.1602,203.75 374.9414,203.4961 Q375.3906,203.3594 375.8984,202.9102 Q376.2305,202.6563 376.4063,202.5781 Q376.582,202.5 376.7969,202.5 Q377.207,202.5 377.5,202.832 Q377.8125,203.1445 377.8125,203.5938 Q377.8125,204.0234 377.3828,204.5313 Q376.7578,205.2734 375.7617,205.6836 Q374.4531,206.25 372.8516,206.25 Q370.9766,206.25 369.4727,205.5078 Q368.2617,204.9219 367.4023,203.6523 Q366.5625,202.3828 366.5625,200.8789 L366.5625,199.5117 Q366.5625,197.9492 367.3047,196.582 Q368.0664,195.2148 369.375,194.4922 Q370.7031,193.75 372.1875,193.75 Q373.0859,193.75 373.8672,194.0625 Q374.6484,194.375 375.3125,195 Z " fill="#000000"/><text fill="#000000" font-family="sans-serif" font-size="15" lengthAdjust="spacing" textLength="186.25" x="398.4375" y="205.5127">CreateParameterController</text><line style="stroke:#A80036;stroke-width:1.875;" x1="260" x2="682.5" y1="219.375" y2="219.375"/><text fill="#000000" font-family="sans-serif" font-size="13.75" lengthAdjust="spacing" textLength="410" x="266.25" y="238.6487">+createParameter(parameterCode, shortName, description, pcCode)</text><text fill="#000000" font-family="sans-serif" font-size="13.75" lengthAdjust="spacing" textLength="108.75" x="266.25" y="255.9436">+saveParameter()</text><!--MD5=[5518e6815e09c51d4db6e17774f331d2]
class CreateParameterUI--><rect codeLine="46" fill="#FEFECE" filter="url(#f1wqagi608iyh6)" height="40" id="CreateParameterUI" style="stroke:#A80036;stroke-width:1.875;" width="173.75" x="8.75" y="201.875"/><ellipse cx="27.5" cy="221.875" fill="#ADD1B2" rx="13.75" ry="13.75" style="stroke:#A80036;stroke-width:1.25;"/><path d="M30,217.5 Q30.2539,216.875 30.5469,216.5625 Q30.8398,216.25 31.1719,216.25 Q31.7578,216.25 32.1289,216.6016 Q32.5,216.9531 32.5,217.7734 L32.5,219.7266 Q32.5,220.5469 32.1484,220.8984 Q31.7969,221.25 31.25,221.25 Q30.7617,221.25 30.4492,221.0352 Q30.1367,220.8203 30,220.2539 Q29.9414,219.8633 29.7266,219.6484 Q29.3359,219.2383 28.6328,219.0039 Q27.9297,218.75 27.2266,218.75 Q26.3477,218.75 25.6055,219.1016 Q24.8828,219.4531 24.3164,220.2344 Q23.75,221.0156 23.75,222.0898 L23.75,223.2422 Q23.75,224.5313 24.8047,225.3906 Q25.8594,226.25 27.7344,226.25 Q28.8477,226.25 29.6289,225.9961 Q30.0781,225.8594 30.5859,225.4102 Q30.918,225.1563 31.0938,225.0781 Q31.2695,225 31.4844,225 Q31.8945,225 32.1875,225.332 Q32.5,225.6445 32.5,226.0938 Q32.5,226.5234 32.0703,227.0313 Q31.4453,227.7734 30.4492,228.1836 Q29.1406,228.75 27.5391,228.75 Q25.6641,228.75 24.1602,228.0078 Q22.9492,227.4219 22.0898,226.1523 Q21.25,224.8828 21.25,223.3789 L21.25,222.0117 Q21.25,220.4492 21.9922,219.082 Q22.7539,217.7148 24.0625,216.9922 Q25.3906,216.25 26.875,216.25 Q27.7734,216.25 28.5547,216.5625 Q29.3359,216.875 30,217.5 Z " fill="#000000"/><text fill="#000000" font-family="sans-serif" font-size="15" lengthAdjust="spacing" textLength="133.75" x="45" y="228.0127">CreateParameterUI</text><!--MD5=[9d3dd688f78c4545f26622cd23f9dd25]
link CreateParameterUI to CreateParameterController--><path codeLine="50" d="M182.95,221.875 C204,221.875 227.475,221.875 251.7,221.875 " fill="none" id="CreateParameterUI-to-CreateParameterController" style="stroke:#A80036;stroke-width:1.25;stroke-dasharray:7.0,7.0;"/><polygon fill="#A80036" points="258.55,221.875,247.3,216.875,252.3,221.875,247.3,226.875,258.55,221.875" style="stroke:#A80036;stroke-width:1.25;"/><!--MD5=[46706d5726812879537e05899d80bc9e]
link CreateParameterController to ParameterStore--><path codeLine="51" d="M611.05,179.275 C657.95,166.2625 710.8875,153.1125 760,144.375 C865.5625,125.6125 984.5875,114.3125 1082.1625,107.5875 " fill="none" id="CreateParameterController-to-ParameterStore" style="stroke:#A80036;stroke-width:1.25;stroke-dasharray:7.0,7.0;"/><polygon fill="#A80036" points="1088.55,107.15,1076.9956,102.9006,1082.3135,107.561,1077.6532,112.879,1088.55,107.15" style="stroke:#A80036;stroke-width:1.25;"/><!--MD5=[6d585fb02c26694275539b4f1508918e]
link CreateParameterController to Company--><path codeLine="52" d="M684.275,221.875 C708.15,221.875 731.6625,221.875 753.3,221.875 " fill="none" id="CreateParameterController-to-Company" style="stroke:#A80036;stroke-width:1.25;stroke-dasharray:7.0,7.0;"/><polygon fill="#A80036" points="759.95,221.875,748.7,216.875,753.7,221.875,748.7,226.875,759.95,221.875" style="stroke:#A80036;stroke-width:1.25;"/><!--MD5=[d4acd0f9b6f472dc8c1d58fc6da00ca5]
link CreateParameterController to ParameterCategoryStore--><path codeLine="53" d="M605.05,264.4375 C653.3375,278.2625 708.675,292.2125 760,300.625 C900.375,323.6375 1064.55,329.7 1170.4375,330.95 " fill="none" id="CreateParameterController-to-ParameterCategoryStore" style="stroke:#A80036;stroke-width:1.25;stroke-dasharray:7.0,7.0;"/><polygon fill="#A80036" points="1176.7,331.025,1165.5079,325.8968,1170.4504,330.9536,1165.3936,335.8961,1176.7,331.025" style="stroke:#A80036;stroke-width:1.25;"/><!--MD5=[a0992dda039fed1bb57aff5aacace800]
link ParameterStore to Parameter--><path codeLine="54" d="M1475.1,93 C1549.9375,91.0125 1635.3375,88.7375 1709.3125,86.7625 " fill="none" id="ParameterStore-to-Parameter" style="stroke:#A80036;stroke-width:1.25;stroke-dasharray:7.0,7.0;"/><polygon fill="#A80036" points="1715.9875,86.5875,1704.6127,81.8783,1709.7396,86.7482,1704.8697,91.875,1715.9875,86.5875" style="stroke:#A80036;stroke-width:1.25;"/><!--MD5=[d6274e3b73b5bc8f467c6cfbf5bf003e]
link ParameterCategoryStore to ParameterCategory--><path codeLine="55" d="M1386.9625,326.2875 C1563.6,318.0375 1933.6,296.975 2243.75,254.375 C2253.85,252.9875 2264.2625,251.375 2274.7125,249.6375 " fill="none" id="ParameterCategoryStore-to-ParameterCategory" style="stroke:#A80036;stroke-width:1.25;stroke-dasharray:7.0,7.0;"/><polygon fill="#A80036" points="2281.225,248.525,2269.3017,245.4593,2275.0615,249.5612,2270.9596,255.3209,2281.225,248.525" style="stroke:#A80036;stroke-width:1.25;"/><!--MD5=[daf3d7412afa2c7651483be0b6e971d1]
link Company to ParameterStore--><path codeLine="56" d="M960.1,192.7 C1021.85,174.4875 1101.6,150.95 1166.1,131.925 " fill="none" id="Company-ParameterStore" style="stroke:#A80036;stroke-width:1.25;"/><polygon fill="#000000" points="1009.7446,154.0762,997.8608,153.752,999.9398,160.799,1009.7446,154.0762" style="stroke:#000000;stroke-width:1.25;"/><text fill="#000000" font-family="sans-serif" font-size="16.25" lengthAdjust="spacing" textLength="35" x="1015" y="162.4939">uses</text><text fill="#000000" font-family="sans-serif" font-size="16.25" lengthAdjust="spacing" textLength="8.75" x="970.0578" y="207.7915">1</text><text fill="#000000" font-family="sans-serif" font-size="16.25" lengthAdjust="spacing" textLength="8.75" x="1131.0672" y="158.4456">1</text><!--MD5=[d53d7490e5836ca5709858d7326f212b]
link Company to ParameterCategoryStore--><path codeLine="57" d="M960.1625,264.425 C972.6125,268.9875 985.2625,273.275 997.5,276.875 C1055.825,294 1122.5625,306.975 1176.5875,315.8875 " fill="none" id="Company-ParameterCategoryStore" style="stroke:#A80036;stroke-width:1.25;"/><polygon fill="#000000" points="1009.8305,267.2906,999.6806,261.101,997.981,268.249,1009.8305,267.2906" style="stroke:#000000;stroke-width:1.25;"/><text fill="#000000" font-family="sans-serif" font-size="16.25" lengthAdjust="spacing" textLength="35" x="1015" y="272.4939">uses</text><text fill="#000000" font-family="sans-serif" font-size="16.25" lengthAdjust="spacing" textLength="8.75" x="970.1262" y="286.3528">1</text><text fill="#000000" font-family="sans-serif" font-size="16.25" lengthAdjust="spacing" textLength="8.75" x="1158.0707" y="332.3723">1</text><!--MD5=[93b4f25fb503a8e0e9a46b1d30ff3f44]
link Company to ParameterCategory--><path codeLine="58" d="M960.45,221.875 C1230.5625,221.875 1979.0875,221.875 2280.8375,221.875 " fill="none" id="Company-ParameterCategory" style="stroke:#A80036;stroke-width:1.25;"/><polygon fill="#000000" points="1525,210.8447,1513.6936,207.1711,1513.6936,214.5184,1525,210.8447" style="stroke:#000000;stroke-width:1.25;"/><text fill="#000000" font-family="sans-serif" font-size="16.25" lengthAdjust="spacing" textLength="147.5" x="1530" y="217.4939">capable of analysing</text><text fill="#000000" font-family="sans-serif" font-size="16.25" lengthAdjust="spacing" textLength="8.75" x="970.1136" y="239.7144">1</text><text fill="#000000" font-family="sans-serif" font-size="16.25" lengthAdjust="spacing" textLength="6.25" x="2264.8267" y="239.4862">*</text><!--MD5=[6df8849671cb880f6936e94aa30db6f9]
link Parameter to ParameterCategory--><path codeLine="59" d="M2071.3,129.8625 C2140.225,148.625 2217.775,169.725 2281.2,186.9875 " fill="none" id="Parameter-ParameterCategory" style="stroke:#A80036;stroke-width:1.25;"/><polygon fill="#000000" points="2121.0307,133.736,2111.0858,127.2222,2109.1564,134.3116,2121.0307,133.736" style="stroke:#000000;stroke-width:1.25;"/><text fill="#000000" font-family="sans-serif" font-size="16.25" lengthAdjust="spacing" textLength="116.25" x="2126.25" y="138.7439">presented under</text><text fill="#000000" font-family="sans-serif" font-size="16.25" lengthAdjust="spacing" textLength="25" x="2081.0995" y="149.7269">1..*</text><text fill="#000000" font-family="sans-serif" font-size="16.25" lengthAdjust="spacing" textLength="8.75" x="2262.6241" y="202.0366">1</text><!--MD5=[a9edfa4a9cf95c75b5bf070a9be2fbc9]
@startuml
hide empty methods
hide empty attributes
left to right direction
skinparam classAttributeIconSize 0

'class UserSession{
  '+getUserPhoneNumber()
'}

class ParameterCategoryStore {
    +getCategoriesList()
    +getCategoriesByCode(code)
}

class ParameterStore {
    createParameter(parameterCode, shortName, description, pc)
}

class Parameter {
  -String parameterCode
  -String shortName
  -String description
  -ParameterCategory pc
  +Parameter(parameterCode, shortName, description, pc)
}

class ParameterCategory {
   -String code
   -String name
   -String nhsId
   +ParameterCategory(code, name, nhsId)
   +getCode()
}

class Company {
  -String designation
  +getParameterStore()
  +getParameterCategoryStore()
}

class CreateParameterController {
  +createParameter(parameterCode, shortName, description, pcCode)
  +saveParameter()
}

class CreateParameterUI {

}

CreateParameterUI ..> CreateParameterController
CreateParameterController ..> ParameterStore
CreateParameterController ..> Company
CreateParameterController ..> ParameterCategoryStore
ParameterStore ..> Parameter
ParameterCategoryStore ..> ParameterCategory
Company "1" - - "1" ParameterStore : uses >
Company "1" - - "1" ParameterCategoryStore : uses >
Company "1" - - "*" ParameterCategory : capable of analysing >
Parameter "1..*" - - "1" ParameterCategory : presented under >
'CreateParameterController ..> UserSession


@enduml

@startuml
hide empty methods
hide empty attributes
left to right direction
skinparam classAttributeIconSize 0


class ParameterCategoryStore {
    +getCategoriesList()
    +getCategoriesByCode(code)
}

class ParameterStore {
    createParameter(parameterCode, shortName, description, pc)
}

class Parameter {
  -String parameterCode
  -String shortName
  -String description
  -ParameterCategory pc
  +Parameter(parameterCode, shortName, description, pc)
}

class ParameterCategory {
   -String code
   -String name
   -String nhsId
   +ParameterCategory(code, name, nhsId)
   +getCode()
}

class Company {
  -String designation
  +getParameterStore()
  +getParameterCategoryStore()
}

class CreateParameterController {
  +createParameter(parameterCode, shortName, description, pcCode)
  +saveParameter()
}

class CreateParameterUI {

}

CreateParameterUI ..> CreateParameterController
CreateParameterController ..> ParameterStore
CreateParameterController ..> Company
CreateParameterController ..> ParameterCategoryStore
ParameterStore ..> Parameter
ParameterCategoryStore ..> ParameterCategory
Company "1" - - "1" ParameterStore : uses >
Company "1" - - "1" ParameterCategoryStore : uses >
Company "1" - - "*" ParameterCategory : capable of analysing >
Parameter "1..*" - - "1" ParameterCategory : presented under >


@enduml

PlantUML version 1.2021.4(Sun Apr 04 09:49:39 BST 2021)
(GPL source distribution)
Java Runtime: OpenJDK Runtime Environment
JVM: Dynamic Code Evolution 64-Bit Server VM
Default Encoding: Cp1252
Language: pt
Country: PT
--></g></svg>