<?xml version="1.0" encoding="UTF-8" standalone="no"?><svg xmlns="http://www.w3.org/2000/svg" xmlns:xlink="http://www.w3.org/1999/xlink" contentScriptType="application/ecmascript" contentStyleType="text/css" height="432.5px" preserveAspectRatio="none" style="width:1951px;height:432px;" version="1.1" viewBox="0 0 1951 432" width="1951.25px" zoomAndPan="magnify"><defs><filter height="300%" id="fsnbdgfa0v8bv" width="300%" x="-1" y="-1"><feGaussianBlur result="blurOut" stdDeviation="2.5"/><feColorMatrix in="blurOut" result="blurOut2" type="matrix" values="0 0 0 0 0 0 0 0 0 0 0 0 0 0 0 0 0 0 .4 0"/><feOffset dx="5.0" dy="5.0" in="blurOut2" result="blurOut3"/><feBlend in="SourceGraphic" in2="blurOut3" mode="normal"/></filter></defs><g><!--MD5=[d802db621b5b215a6f0466f93cefcb42]
class ParameterCategoryStore--><rect codeLine="6" fill="#FEFECE" filter="url(#fsnbdgfa0v8bv)" height="67.2949" id="ParameterCategoryStore" style="stroke:#A80036;stroke-width:1.875;" width="210" x="1428.75" y="215.625"/><ellipse cx="1447.5" cy="235.625" fill="#ADD1B2" rx="13.75" ry="13.75" style="stroke:#A80036;stroke-width:1.25;"/><path d="M1450,231.25 Q1450.2539,230.625 1450.5469,230.3125 Q1450.8398,230 1451.1719,230 Q1451.7578,230 1452.1289,230.3516 Q1452.5,230.7031 1452.5,231.5234 L1452.5,233.4766 Q1452.5,234.2969 1452.1484,234.6484 Q1451.7969,235 1451.25,235 Q1450.7617,235 1450.4492,234.7852 Q1450.1367,234.5703 1450,234.0039 Q1449.9414,233.6133 1449.7266,233.3984 Q1449.3359,232.9883 1448.6328,232.7539 Q1447.9297,232.5 1447.2266,232.5 Q1446.3477,232.5 1445.6055,232.8516 Q1444.8828,233.2031 1444.3164,233.9844 Q1443.75,234.7656 1443.75,235.8398 L1443.75,236.9922 Q1443.75,238.2813 1444.8047,239.1406 Q1445.8594,240 1447.7344,240 Q1448.8477,240 1449.6289,239.7461 Q1450.0781,239.6094 1450.5859,239.1602 Q1450.918,238.9063 1451.0938,238.8281 Q1451.2695,238.75 1451.4844,238.75 Q1451.8945,238.75 1452.1875,239.082 Q1452.5,239.3945 1452.5,239.8438 Q1452.5,240.2734 1452.0703,240.7813 Q1451.4453,241.5234 1450.4492,241.9336 Q1449.1406,242.5 1447.5391,242.5 Q1445.6641,242.5 1444.1602,241.7578 Q1442.9492,241.1719 1442.0898,239.9023 Q1441.25,238.6328 1441.25,237.1289 L1441.25,235.7617 Q1441.25,234.1992 1441.9922,232.832 Q1442.7539,231.4648 1444.0625,230.7422 Q1445.3906,230 1446.875,230 Q1447.7734,230 1448.5547,230.3125 Q1449.3359,230.625 1450,231.25 Z " fill="#000000"/><text fill="#000000" font-family="sans-serif" font-size="15" lengthAdjust="spacing" textLength="170" x="1465" y="241.7627">ParameterCategoryStore</text><line style="stroke:#A80036;stroke-width:1.875;" x1="1430" x2="1637.5" y1="255.625" y2="255.625"/><text fill="#000000" font-family="sans-serif" font-size="13.75" lengthAdjust="spacing" textLength="168.75" x="1436.25" y="274.8987">+getCategoryByCode(code)</text><!--MD5=[1f6362a5c8f21d8d6a0fce68f3a92a4e]
class Parameter--><rect codeLine="10" fill="#FEFECE" filter="url(#fsnbdgfa0v8bv)" height="198.3594" id="Parameter" style="stroke:#A80036;stroke-width:1.875;" width="393.75" x="997.5" y="8.75"/><ellipse cx="1152.8125" cy="28.75" fill="#ADD1B2" rx="13.75" ry="13.75" style="stroke:#A80036;stroke-width:1.25;"/><path d="M1155.3125,24.375 Q1155.5664,23.75 1155.8594,23.4375 Q1156.1523,23.125 1156.4844,23.125 Q1157.0703,23.125 1157.4414,23.4766 Q1157.8125,23.8281 1157.8125,24.6484 L1157.8125,26.6016 Q1157.8125,27.4219 1157.4609,27.7734 Q1157.1094,28.125 1156.5625,28.125 Q1156.0742,28.125 1155.7617,27.9102 Q1155.4492,27.6953 1155.3125,27.1289 Q1155.2539,26.7383 1155.0391,26.5234 Q1154.6484,26.1133 1153.9453,25.8789 Q1153.2422,25.625 1152.5391,25.625 Q1151.6602,25.625 1150.918,25.9766 Q1150.1953,26.3281 1149.6289,27.1094 Q1149.0625,27.8906 1149.0625,28.9648 L1149.0625,30.1172 Q1149.0625,31.4063 1150.1172,32.2656 Q1151.1719,33.125 1153.0469,33.125 Q1154.1602,33.125 1154.9414,32.8711 Q1155.3906,32.7344 1155.8984,32.2852 Q1156.2305,32.0313 1156.4063,31.9531 Q1156.582,31.875 1156.7969,31.875 Q1157.207,31.875 1157.5,32.207 Q1157.8125,32.5195 1157.8125,32.9688 Q1157.8125,33.3984 1157.3828,33.9063 Q1156.7578,34.6484 1155.7617,35.0586 Q1154.4531,35.625 1152.8516,35.625 Q1150.9766,35.625 1149.4727,34.8828 Q1148.2617,34.2969 1147.4023,33.0273 Q1146.5625,31.7578 1146.5625,30.2539 L1146.5625,28.8867 Q1146.5625,27.3242 1147.3047,25.957 Q1148.0664,24.5898 1149.375,23.8672 Q1150.7031,23.125 1152.1875,23.125 Q1153.0859,23.125 1153.8672,23.4375 Q1154.6484,23.75 1155.3125,24.375 Z " fill="#000000"/><text fill="#000000" font-family="sans-serif" font-size="15" lengthAdjust="spacing" textLength="72.5" x="1178.4375" y="34.8877">Parameter</text><line style="stroke:#A80036;stroke-width:1.875;" x1="998.75" x2="1390" y1="48.75" y2="48.75"/><text fill="#000000" font-family="sans-serif" font-size="13.75" lengthAdjust="spacing" textLength="136.25" x="1005" y="68.0237">-String parameterCode</text><text fill="#000000" font-family="sans-serif" font-size="13.75" lengthAdjust="spacing" textLength="108.75" x="1005" y="85.3186">-String shortName</text><text fill="#000000" font-family="sans-serif" font-size="13.75" lengthAdjust="spacing" textLength="110" x="1005" y="102.6135">-String description</text><text fill="#000000" font-family="sans-serif" font-size="13.75" lengthAdjust="spacing" textLength="140" x="1005" y="119.9084">-ParameterCategory pc</text><line style="stroke:#A80036;stroke-width:1.875;" x1="998.75" x2="1390" y1="127.9297" y2="127.9297"/><text fill="#000000" font-family="sans-serif" font-size="13.75" lengthAdjust="spacing" textLength="340" x="1005" y="147.2034">+Parameter(parameterCode, shortName, description, pc)</text><text fill="#000000" font-family="sans-serif" font-size="13.75" lengthAdjust="spacing" textLength="378.75" x="1005" y="164.4983">+createParameter(parameterCode, shortName, description, pc)</text><text fill="#000000" font-family="sans-serif" font-size="13.75" lengthAdjust="spacing" textLength="186.25" x="1005" y="181.7932">+validateParameter(parameter)</text><text fill="#000000" font-family="sans-serif" font-size="13.75" lengthAdjust="spacing" textLength="170" x="1005" y="199.0881">+saveParameter(parameter)</text><!--MD5=[36afb6bbd95a8ac778c4537c55a683d5]
class ParameterCategory--><rect codeLine="21" fill="#FEFECE" filter="url(#fsnbdgfa0v8bv)" height="129.1797" id="ParameterCategory" style="stroke:#A80036;stroke-width:1.875;" width="218.75" x="1715" y="185"/><ellipse cx="1754" cy="205" fill="#ADD1B2" rx="13.75" ry="13.75" style="stroke:#A80036;stroke-width:1.25;"/><path d="M1756.5,200.625 Q1756.7539,200 1757.0469,199.6875 Q1757.3398,199.375 1757.6719,199.375 Q1758.2578,199.375 1758.6289,199.7266 Q1759,200.0781 1759,200.8984 L1759,202.8516 Q1759,203.6719 1758.6484,204.0234 Q1758.2969,204.375 1757.75,204.375 Q1757.2617,204.375 1756.9492,204.1602 Q1756.6367,203.9453 1756.5,203.3789 Q1756.4414,202.9883 1756.2266,202.7734 Q1755.8359,202.3633 1755.1328,202.1289 Q1754.4297,201.875 1753.7266,201.875 Q1752.8477,201.875 1752.1055,202.2266 Q1751.3828,202.5781 1750.8164,203.3594 Q1750.25,204.1406 1750.25,205.2148 L1750.25,206.3672 Q1750.25,207.6563 1751.3047,208.5156 Q1752.3594,209.375 1754.2344,209.375 Q1755.3477,209.375 1756.1289,209.1211 Q1756.5781,208.9844 1757.0859,208.5352 Q1757.418,208.2813 1757.5938,208.2031 Q1757.7695,208.125 1757.9844,208.125 Q1758.3945,208.125 1758.6875,208.457 Q1759,208.7695 1759,209.2188 Q1759,209.6484 1758.5703,210.1563 Q1757.9453,210.8984 1756.9492,211.3086 Q1755.6406,211.875 1754.0391,211.875 Q1752.1641,211.875 1750.6602,211.1328 Q1749.4492,210.5469 1748.5898,209.2773 Q1747.75,208.0078 1747.75,206.5039 L1747.75,205.1367 Q1747.75,203.5742 1748.4922,202.207 Q1749.2539,200.8398 1750.5625,200.1172 Q1751.8906,199.375 1753.375,199.375 Q1754.2734,199.375 1755.0547,199.6875 Q1755.8359,200 1756.5,200.625 Z " fill="#000000"/><text fill="#000000" font-family="sans-serif" font-size="15" lengthAdjust="spacing" textLength="133.75" x="1776" y="211.1377">ParameterCategory</text><line style="stroke:#A80036;stroke-width:1.875;" x1="1716.25" x2="1932.5" y1="225" y2="225"/><text fill="#000000" font-family="sans-serif" font-size="13.75" lengthAdjust="spacing" textLength="73.75" x="1722.5" y="244.2737">-String code</text><text fill="#000000" font-family="sans-serif" font-size="13.75" lengthAdjust="spacing" textLength="76.25" x="1722.5" y="261.5686">-String name</text><line style="stroke:#A80036;stroke-width:1.875;" x1="1716.25" x2="1932.5" y1="269.5898" y2="269.5898"/><text fill="#000000" font-family="sans-serif" font-size="13.75" lengthAdjust="spacing" textLength="203.75" x="1722.5" y="288.8635">+ParameterCategory(code, name)</text><text fill="#000000" font-family="sans-serif" font-size="13.75" lengthAdjust="spacing" textLength="67.5" x="1722.5" y="306.1584">+getCode()</text><!--MD5=[02e4b9b7573f1156f41e60aa5b4e25a4]
class Company--><rect codeLine="28" fill="#FEFECE" filter="url(#fsnbdgfa0v8bv)" height="111.8848" id="Company" style="stroke:#A80036;stroke-width:1.875;" width="200" x="760" y="303.125"/><ellipse cx="821.5625" cy="323.125" fill="#ADD1B2" rx="13.75" ry="13.75" style="stroke:#A80036;stroke-width:1.25;"/><path d="M824.0625,318.75 Q824.3164,318.125 824.6094,317.8125 Q824.9023,317.5 825.2344,317.5 Q825.8203,317.5 826.1914,317.8516 Q826.5625,318.2031 826.5625,319.0234 L826.5625,320.9766 Q826.5625,321.7969 826.2109,322.1484 Q825.8594,322.5 825.3125,322.5 Q824.8242,322.5 824.5117,322.2852 Q824.1992,322.0703 824.0625,321.5039 Q824.0039,321.1133 823.7891,320.8984 Q823.3984,320.4883 822.6953,320.2539 Q821.9922,320 821.2891,320 Q820.4102,320 819.668,320.3516 Q818.9453,320.7031 818.3789,321.4844 Q817.8125,322.2656 817.8125,323.3398 L817.8125,324.4922 Q817.8125,325.7813 818.8672,326.6406 Q819.9219,327.5 821.7969,327.5 Q822.9102,327.5 823.6914,327.2461 Q824.1406,327.1094 824.6484,326.6602 Q824.9805,326.4063 825.1563,326.3281 Q825.332,326.25 825.5469,326.25 Q825.957,326.25 826.25,326.582 Q826.5625,326.8945 826.5625,327.3438 Q826.5625,327.7734 826.1328,328.2813 Q825.5078,329.0234 824.5117,329.4336 Q823.2031,330 821.6016,330 Q819.7266,330 818.2227,329.2578 Q817.0117,328.6719 816.1523,327.4023 Q815.3125,326.1328 815.3125,324.6289 L815.3125,323.2617 Q815.3125,321.6992 816.0547,320.332 Q816.8164,318.9648 818.125,318.2422 Q819.4531,317.5 820.9375,317.5 Q821.8359,317.5 822.6172,317.8125 Q823.3984,318.125 824.0625,318.75 Z " fill="#000000"/><text fill="#000000" font-family="sans-serif" font-size="15" lengthAdjust="spacing" textLength="66.25" x="847.1875" y="329.2627">Company</text><line style="stroke:#A80036;stroke-width:1.875;" x1="761.25" x2="958.75" y1="343.125" y2="343.125"/><text fill="#000000" font-family="sans-serif" font-size="13.75" lengthAdjust="spacing" textLength="112.5" x="767.5" y="362.3987">-String designation</text><line style="stroke:#A80036;stroke-width:1.875;" x1="761.25" x2="958.75" y1="370.4199" y2="370.4199"/><text fill="#000000" font-family="sans-serif" font-size="13.75" lengthAdjust="spacing" textLength="130" x="767.5" y="389.6936">+getParameterStore()</text><text fill="#000000" font-family="sans-serif" font-size="13.75" lengthAdjust="spacing" textLength="185" x="767.5" y="406.9885">+getParameterCategoryStore()</text><!--MD5=[b9009a04d919d78a73c2eeec1e385786]
class CreateParameterController--><rect codeLine="34" fill="#FEFECE" filter="url(#fsnbdgfa0v8bv)" height="84.5898" id="CreateParameterController" style="stroke:#A80036;stroke-width:1.875;" width="425" x="258.75" y="194.375"/><ellipse cx="372.8125" cy="214.375" fill="#ADD1B2" rx="13.75" ry="13.75" style="stroke:#A80036;stroke-width:1.25;"/><path d="M375.3125,210 Q375.5664,209.375 375.8594,209.0625 Q376.1523,208.75 376.4844,208.75 Q377.0703,208.75 377.4414,209.1016 Q377.8125,209.4531 377.8125,210.2734 L377.8125,212.2266 Q377.8125,213.0469 377.4609,213.3984 Q377.1094,213.75 376.5625,213.75 Q376.0742,213.75 375.7617,213.5352 Q375.4492,213.3203 375.3125,212.7539 Q375.2539,212.3633 375.0391,212.1484 Q374.6484,211.7383 373.9453,211.5039 Q373.2422,211.25 372.5391,211.25 Q371.6602,211.25 370.918,211.6016 Q370.1953,211.9531 369.6289,212.7344 Q369.0625,213.5156 369.0625,214.5898 L369.0625,215.7422 Q369.0625,217.0313 370.1172,217.8906 Q371.1719,218.75 373.0469,218.75 Q374.1602,218.75 374.9414,218.4961 Q375.3906,218.3594 375.8984,217.9102 Q376.2305,217.6563 376.4063,217.5781 Q376.582,217.5 376.7969,217.5 Q377.207,217.5 377.5,217.832 Q377.8125,218.1445 377.8125,218.5938 Q377.8125,219.0234 377.3828,219.5313 Q376.7578,220.2734 375.7617,220.6836 Q374.4531,221.25 372.8516,221.25 Q370.9766,221.25 369.4727,220.5078 Q368.2617,219.9219 367.4023,218.6523 Q366.5625,217.3828 366.5625,215.8789 L366.5625,214.5117 Q366.5625,212.9492 367.3047,211.582 Q368.0664,210.2148 369.375,209.4922 Q370.7031,208.75 372.1875,208.75 Q373.0859,208.75 373.8672,209.0625 Q374.6484,209.375 375.3125,210 Z " fill="#000000"/><text fill="#000000" font-family="sans-serif" font-size="15" lengthAdjust="spacing" textLength="186.25" x="398.4375" y="220.5127">CreateParameterController</text><line style="stroke:#A80036;stroke-width:1.875;" x1="260" x2="682.5" y1="234.375" y2="234.375"/><text fill="#000000" font-family="sans-serif" font-size="13.75" lengthAdjust="spacing" textLength="410" x="266.25" y="253.6487">+createParameter(parameterCode, shortName, description, pcCode)</text><text fill="#000000" font-family="sans-serif" font-size="13.75" lengthAdjust="spacing" textLength="108.75" x="266.25" y="270.9436">+saveParameter()</text><!--MD5=[5518e6815e09c51d4db6e17774f331d2]
class CreateParameterUI--><rect codeLine="39" fill="#FEFECE" filter="url(#fsnbdgfa0v8bv)" height="40" id="CreateParameterUI" style="stroke:#A80036;stroke-width:1.875;" width="173.75" x="8.75" y="216.875"/><ellipse cx="27.5" cy="236.875" fill="#ADD1B2" rx="13.75" ry="13.75" style="stroke:#A80036;stroke-width:1.25;"/><path d="M30,232.5 Q30.2539,231.875 30.5469,231.5625 Q30.8398,231.25 31.1719,231.25 Q31.7578,231.25 32.1289,231.6016 Q32.5,231.9531 32.5,232.7734 L32.5,234.7266 Q32.5,235.5469 32.1484,235.8984 Q31.7969,236.25 31.25,236.25 Q30.7617,236.25 30.4492,236.0352 Q30.1367,235.8203 30,235.2539 Q29.9414,234.8633 29.7266,234.6484 Q29.3359,234.2383 28.6328,234.0039 Q27.9297,233.75 27.2266,233.75 Q26.3477,233.75 25.6055,234.1016 Q24.8828,234.4531 24.3164,235.2344 Q23.75,236.0156 23.75,237.0898 L23.75,238.2422 Q23.75,239.5313 24.8047,240.3906 Q25.8594,241.25 27.7344,241.25 Q28.8477,241.25 29.6289,240.9961 Q30.0781,240.8594 30.5859,240.4102 Q30.918,240.1563 31.0938,240.0781 Q31.2695,240 31.4844,240 Q31.8945,240 32.1875,240.332 Q32.5,240.6445 32.5,241.0938 Q32.5,241.5234 32.0703,242.0313 Q31.4453,242.7734 30.4492,243.1836 Q29.1406,243.75 27.5391,243.75 Q25.6641,243.75 24.1602,243.0078 Q22.9492,242.4219 22.0898,241.1523 Q21.25,239.8828 21.25,238.3789 L21.25,237.0117 Q21.25,235.4492 21.9922,234.082 Q22.7539,232.7148 24.0625,231.9922 Q25.3906,231.25 26.875,231.25 Q27.7734,231.25 28.5547,231.5625 Q29.3359,231.875 30,232.5 Z " fill="#000000"/><text fill="#000000" font-family="sans-serif" font-size="15" lengthAdjust="spacing" textLength="133.75" x="45" y="243.0127">CreateParameterUI</text><!--MD5=[9d3dd688f78c4545f26622cd23f9dd25]
link CreateParameterUI to CreateParameterController--><path codeLine="43" d="M182.95,236.875 C204,236.875 227.475,236.875 251.7,236.875 " fill="none" id="CreateParameterUI-to-CreateParameterController" style="stroke:#A80036;stroke-width:1.25;stroke-dasharray:7.0,7.0;"/><polygon fill="#A80036" points="258.55,236.875,247.3,231.875,252.3,236.875,247.3,241.875,258.55,236.875" style="stroke:#A80036;stroke-width:1.25;"/><!--MD5=[6d585fb02c26694275539b4f1508918e]
link CreateParameterController to Company--><path codeLine="44" d="M606.5125,279.375 C654.675,294.65 708.275,311.65 753.6375,326.0375 " fill="none" id="CreateParameterController-to-Company" style="stroke:#A80036;stroke-width:1.25;stroke-dasharray:7.0,7.0;"/><polygon fill="#A80036" points="759.7,327.9625,750.4966,319.7857,753.7444,326.0667,747.4634,329.3146,759.7,327.9625" style="stroke:#A80036;stroke-width:1.25;"/><!--MD5=[d4acd0f9b6f472dc8c1d58fc6da00ca5]
link CreateParameterController to ParameterCategoryStore--><path codeLine="45" d="M683.825,239.3625 C906.25,241.9875 1247.7625,246.0125 1421.9875,248.075 " fill="none" id="CreateParameterController-to-ParameterCategoryStore" style="stroke:#A80036;stroke-width:1.25;stroke-dasharray:7.0,7.0;"/><polygon fill="#A80036" points="1428.625,248.15,1417.4329,243.0218,1422.3754,248.0786,1417.3186,253.0211,1428.625,248.15" style="stroke:#A80036;stroke-width:1.25;"/><!--MD5=[c56d23af98be554523068ac4fbdb568e]
link CreateParameterController to Parameter--><path codeLine="46" d="M683.8375,199.1125 C780.7625,181.8 895.1375,161.3625 990.925,144.25 " fill="none" id="CreateParameterController-to-Parameter" style="stroke:#A80036;stroke-width:1.25;stroke-dasharray:7.0,7.0;"/><polygon fill="#A80036" points="997.2,143.125,985.243,140.1937,991.0485,144.2305,987.0118,150.036,997.2,143.125" style="stroke:#A80036;stroke-width:1.25;"/><!--MD5=[d6274e3b73b5bc8f467c6cfbf5bf003e]
link ParameterCategoryStore to ParameterCategory--><path codeLine="47" d="M1639.025,249.375 C1661.5625,249.375 1685.525,249.375 1708.45,249.375 " fill="none" id="ParameterCategoryStore-to-ParameterCategory" style="stroke:#A80036;stroke-width:1.25;stroke-dasharray:7.0,7.0;"/><polygon fill="#A80036" points="1714.8875,249.375,1703.6375,244.375,1708.6375,249.375,1703.6375,254.375,1714.8875,249.375" style="stroke:#A80036;stroke-width:1.25;"/><!--MD5=[d53d7490e5836ca5709858d7326f212b]
link Company to ParameterCategoryStore--><path codeLine="48" d="M960.1375,342.45 C972.7,340.475 985.3875,338.5625 997.5,336.875 C1171.95,312.5125 1218.725,327.3875 1391.25,291.875 C1403.4125,289.375 1416.0375,286.2875 1428.5125,282.9375 " fill="none" id="Company-ParameterCategoryStore" style="stroke:#A80036;stroke-width:1.25;"/><polygon fill="#000000" points="1179.9502,280.0569,1168.2709,277.8377,1169.197,285.1264,1179.9502,280.0569" style="stroke:#000000;stroke-width:1.25;"/><text fill="#000000" font-family="sans-serif" font-size="16.25" lengthAdjust="spacing" textLength="35" x="1185" y="287.4939">uses</text><text fill="#000000" font-family="sans-serif" font-size="16.25" lengthAdjust="spacing" textLength="8.75" x="970.0988" y="358.7091">1</text><text fill="#000000" font-family="sans-serif" font-size="16.25" lengthAdjust="spacing" textLength="8.75" x="1410.0001" y="303.7149">1</text><!--MD5=[93b4f25fb503a8e0e9a46b1d30ff3f44]
link Company to ParameterCategory--><path codeLine="49" d="M960.3125,366.725 C1109.525,375.2625 1399.9,382.0125 1638.75,328.125 C1664.05,322.4125 1690.2375,313.3625 1714.65,303.3875 " fill="none" id="Company-ParameterCategory" style="stroke:#A80036;stroke-width:1.25;"/><polygon fill="#000000" points="1512.4781,316.5718,1500.904,313.857,1501.5187,321.1786,1512.4781,316.5718" style="stroke:#000000;stroke-width:1.25;"/><text fill="#000000" font-family="sans-serif" font-size="16.25" lengthAdjust="spacing" textLength="48.75" x="1517.5" y="323.7439">adopts</text><text fill="#000000" font-family="sans-serif" font-size="16.25" lengthAdjust="spacing" textLength="8.75" x="969.9634" y="385.242">1</text><text fill="#000000" font-family="sans-serif" font-size="16.25" lengthAdjust="spacing" textLength="6.25" x="1698.702" y="325.7579">*</text><!--MD5=[6df8849671cb880f6936e94aa30db6f9]
link Parameter to ParameterCategory--><path codeLine="50" d="M1391.75,142.0375 C1469.0875,156.5125 1558.45,174.6375 1638.75,194.375 C1663.5625,200.475 1690.0125,207.8375 1714.9,215.175 " fill="none" id="Parameter-ParameterCategory" style="stroke:#A80036;stroke-width:1.25;"/><polygon fill="#000000" points="1478.5958,140.9744,1468.3793,134.8955,1466.7574,142.0616,1478.5958,140.9744" style="stroke:#000000;stroke-width:1.25;"/><text fill="#000000" font-family="sans-serif" font-size="16.25" lengthAdjust="spacing" textLength="116.25" x="1483.75" y="146.2439">presented under</text><text fill="#000000" font-family="sans-serif" font-size="16.25" lengthAdjust="spacing" textLength="25" x="1401.26" y="160.915">1..*</text><text fill="#000000" font-family="sans-serif" font-size="16.25" lengthAdjust="spacing" textLength="8.75" x="1696.366" y="229.9646">1</text><!--MD5=[8c9ce4682ed4cabe6f1b970156b713ba]
@startuml
hide empty methods
hide empty attributes
left to right direction
skinparam classAttributeIconSize 0

class ParameterCategoryStore {
    +getCategoryByCode(code)
}

class Parameter {
  -String parameterCode
  -String shortName
  -String description
  -ParameterCategory pc
  +Parameter(parameterCode, shortName, description, pc)
  +createParameter(parameterCode, shortName, description, pc)
  +validateParameter(parameter)
  +saveParameter(parameter)
}

class ParameterCategory {
   -String code
   -String name
   +ParameterCategory(code, name)
   +getCode()
}

class Company {
  -String designation
  +getParameterStore()
  +getParameterCategoryStore()
}

class CreateParameterController {
  +createParameter(parameterCode, shortName, description, pcCode)
  +saveParameter()
}

class CreateParameterUI {

}

CreateParameterUI ..> CreateParameterController
CreateParameterController ..> Company
CreateParameterController ..> ParameterCategoryStore
CreateParameterController ..> Parameter
ParameterCategoryStore ..> ParameterCategory
Company "1" - - "1" ParameterCategoryStore : uses >
Company "1" - - "*" ParameterCategory : adopts >
Parameter "1..*" - - "1" ParameterCategory : presented under >


@enduml

PlantUML version 1.2021.4(Sun Apr 04 09:49:39 BST 2021)
(GPL source distribution)
Java Runtime: OpenJDK Runtime Environment
JVM: Dynamic Code Evolution 64-Bit Server VM
Default Encoding: Cp1252
Language: pt
Country: PT
--></g></svg>