<?xml version="1.0" encoding="UTF-8" standalone="no"?><svg xmlns="http://www.w3.org/2000/svg" xmlns:xlink="http://www.w3.org/1999/xlink" contentScriptType="application/ecmascript" contentStyleType="text/css" height="561.25px" preserveAspectRatio="none" style="width:2751px;height:561px;" version="1.1" viewBox="0 0 2751 561" width="2751.25px" zoomAndPan="magnify"><defs><filter height="300%" id="f1fpgtgln9xapi" width="300%" x="-1" y="-1"><feGaussianBlur result="blurOut" stdDeviation="2.5"/><feColorMatrix in="blurOut" result="blurOut2" type="matrix" values="0 0 0 0 0 0 0 0 0 0 0 0 0 0 0 0 0 0 .4 0"/><feOffset dx="5.0" dy="5.0" in="blurOut2" result="blurOut3"/><feBlend in="SourceGraphic" in2="blurOut3" mode="normal"/></filter></defs><g><!--MD5=[e7b7f76692bc7b6a189caa2305323cac]
class CategoriesDto--><rect codeLine="6" fill="#FEFECE" filter="url(#f1fpgtgln9xapi)" height="129.1797" id="CategoriesDto" style="stroke:#A80036;stroke-width:1.875;" width="218.75" x="1447.5" y="8.75"/><ellipse cx="1501.6875" cy="28.75" fill="#ADD1B2" rx="13.75" ry="13.75" style="stroke:#A80036;stroke-width:1.25;"/><path d="M1504.1875,24.375 Q1504.4414,23.75 1504.7344,23.4375 Q1505.0273,23.125 1505.3594,23.125 Q1505.9453,23.125 1506.3164,23.4766 Q1506.6875,23.8281 1506.6875,24.6484 L1506.6875,26.6016 Q1506.6875,27.4219 1506.3359,27.7734 Q1505.9844,28.125 1505.4375,28.125 Q1504.9492,28.125 1504.6367,27.9102 Q1504.3242,27.6953 1504.1875,27.1289 Q1504.1289,26.7383 1503.9141,26.5234 Q1503.5234,26.1133 1502.8203,25.8789 Q1502.1172,25.625 1501.4141,25.625 Q1500.5352,25.625 1499.793,25.9766 Q1499.0703,26.3281 1498.5039,27.1094 Q1497.9375,27.8906 1497.9375,28.9648 L1497.9375,30.1172 Q1497.9375,31.4063 1498.9922,32.2656 Q1500.0469,33.125 1501.9219,33.125 Q1503.0352,33.125 1503.8164,32.8711 Q1504.2656,32.7344 1504.7734,32.2852 Q1505.1055,32.0313 1505.2813,31.9531 Q1505.457,31.875 1505.6719,31.875 Q1506.082,31.875 1506.375,32.207 Q1506.6875,32.5195 1506.6875,32.9688 Q1506.6875,33.3984 1506.2578,33.9063 Q1505.6328,34.6484 1504.6367,35.0586 Q1503.3281,35.625 1501.7266,35.625 Q1499.8516,35.625 1498.3477,34.8828 Q1497.1367,34.2969 1496.2773,33.0273 Q1495.4375,31.7578 1495.4375,30.2539 L1495.4375,28.8867 Q1495.4375,27.3242 1496.1797,25.957 Q1496.9414,24.5898 1498.25,23.8672 Q1499.5781,23.125 1501.0625,23.125 Q1501.9609,23.125 1502.7422,23.4375 Q1503.5234,23.75 1504.1875,24.375 Z " fill="#000000"/><text fill="#000000" font-family="sans-serif" font-size="15" lengthAdjust="spacing" textLength="100" x="1527.0625" y="34.8877">CategoriesDto</text><line style="stroke:#A80036;stroke-width:1.875;" x1="1448.75" x2="1665" y1="48.75" y2="48.75"/><text fill="#000000" font-family="sans-serif" font-size="13.75" lengthAdjust="spacing" textLength="35" x="1455" y="68.0237">-code</text><text fill="#000000" font-family="sans-serif" font-size="13.75" lengthAdjust="spacing" textLength="37.5" x="1455" y="85.3186">-name</text><line style="stroke:#A80036;stroke-width:1.875;" x1="1448.75" x2="1665" y1="93.3398" y2="93.3398"/><text fill="#000000" font-family="sans-serif" font-size="13.75" lengthAdjust="spacing" textLength="203.75" x="1455" y="112.6135">+ParameterCategory(code, name)</text><text fill="#000000" font-family="sans-serif" font-size="13.75" lengthAdjust="spacing" textLength="67.5" x="1455" y="129.9084">+getCode()</text><!--MD5=[d63babda4aaccf35fa117b37a096c517]
class CategoriesMapper--><rect codeLine="13" fill="#FEFECE" filter="url(#f1fpgtgln9xapi)" height="84.5898" id="CategoriesMapper" style="stroke:#A80036;stroke-width:1.875;" width="471.25" x="760" y="139.375"/><ellipse cx="926.5625" cy="159.375" fill="#ADD1B2" rx="13.75" ry="13.75" style="stroke:#A80036;stroke-width:1.25;"/><path d="M929.0625,155 Q929.3164,154.375 929.6094,154.0625 Q929.9023,153.75 930.2344,153.75 Q930.8203,153.75 931.1914,154.1016 Q931.5625,154.4531 931.5625,155.2734 L931.5625,157.2266 Q931.5625,158.0469 931.2109,158.3984 Q930.8594,158.75 930.3125,158.75 Q929.8242,158.75 929.5117,158.5352 Q929.1992,158.3203 929.0625,157.7539 Q929.0039,157.3633 928.7891,157.1484 Q928.3984,156.7383 927.6953,156.5039 Q926.9922,156.25 926.2891,156.25 Q925.4102,156.25 924.668,156.6016 Q923.9453,156.9531 923.3789,157.7344 Q922.8125,158.5156 922.8125,159.5898 L922.8125,160.7422 Q922.8125,162.0313 923.8672,162.8906 Q924.9219,163.75 926.7969,163.75 Q927.9102,163.75 928.6914,163.4961 Q929.1406,163.3594 929.6484,162.9102 Q929.9805,162.6563 930.1563,162.5781 Q930.332,162.5 930.5469,162.5 Q930.957,162.5 931.25,162.832 Q931.5625,163.1445 931.5625,163.5938 Q931.5625,164.0234 931.1328,164.5313 Q930.5078,165.2734 929.5117,165.6836 Q928.2031,166.25 926.6016,166.25 Q924.7266,166.25 923.2227,165.5078 Q922.0117,164.9219 921.1523,163.6523 Q920.3125,162.3828 920.3125,160.8789 L920.3125,159.5117 Q920.3125,157.9492 921.0547,156.582 Q921.8164,155.2148 923.125,154.4922 Q924.4531,153.75 925.9375,153.75 Q926.8359,153.75 927.6172,154.0625 Q928.3984,154.375 929.0625,155 Z " fill="#000000"/><text fill="#000000" font-family="sans-serif" font-size="15" lengthAdjust="spacing" textLength="127.5" x="952.1875" y="165.5127">CategoriesMapper</text><line style="stroke:#A80036;stroke-width:1.875;" x1="761.25" x2="1230" y1="179.375" y2="179.375"/><text fill="#000000" font-family="sans-serif" font-size="13.75" lengthAdjust="spacing" textLength="456.25" x="767.5" y="198.6487">+List&lt;CategoriesDto&gt; toDto(List&lt;ParameterCategory&gt; parameterCategories)</text><text fill="#000000" font-family="sans-serif" font-size="13.75" lengthAdjust="spacing" textLength="283.75" x="767.5" y="215.9436">+rCategoriesDto toDTO(ParameterCategory pc)</text><!--MD5=[d802db621b5b215a6f0466f93cefcb42]
class ParameterCategoryStore--><rect codeLine="18" fill="#FEFECE" filter="url(#f1fpgtgln9xapi)" height="67.2949" id="ParameterCategoryStore" style="stroke:#A80036;stroke-width:1.875;" width="210" x="1451.875" y="270.625"/><ellipse cx="1470.625" cy="290.625" fill="#ADD1B2" rx="13.75" ry="13.75" style="stroke:#A80036;stroke-width:1.25;"/><path d="M1473.125,286.25 Q1473.3789,285.625 1473.6719,285.3125 Q1473.9648,285 1474.2969,285 Q1474.8828,285 1475.2539,285.3516 Q1475.625,285.7031 1475.625,286.5234 L1475.625,288.4766 Q1475.625,289.2969 1475.2734,289.6484 Q1474.9219,290 1474.375,290 Q1473.8867,290 1473.5742,289.7852 Q1473.2617,289.5703 1473.125,289.0039 Q1473.0664,288.6133 1472.8516,288.3984 Q1472.4609,287.9883 1471.7578,287.7539 Q1471.0547,287.5 1470.3516,287.5 Q1469.4727,287.5 1468.7305,287.8516 Q1468.0078,288.2031 1467.4414,288.9844 Q1466.875,289.7656 1466.875,290.8398 L1466.875,291.9922 Q1466.875,293.2813 1467.9297,294.1406 Q1468.9844,295 1470.8594,295 Q1471.9727,295 1472.7539,294.7461 Q1473.2031,294.6094 1473.7109,294.1602 Q1474.043,293.9063 1474.2188,293.8281 Q1474.3945,293.75 1474.6094,293.75 Q1475.0195,293.75 1475.3125,294.082 Q1475.625,294.3945 1475.625,294.8438 Q1475.625,295.2734 1475.1953,295.7813 Q1474.5703,296.5234 1473.5742,296.9336 Q1472.2656,297.5 1470.6641,297.5 Q1468.7891,297.5 1467.2852,296.7578 Q1466.0742,296.1719 1465.2148,294.9023 Q1464.375,293.6328 1464.375,292.1289 L1464.375,290.7617 Q1464.375,289.1992 1465.1172,287.832 Q1465.8789,286.4648 1467.1875,285.7422 Q1468.5156,285 1470,285 Q1470.8984,285 1471.6797,285.3125 Q1472.4609,285.625 1473.125,286.25 Z " fill="#000000"/><text fill="#000000" font-family="sans-serif" font-size="15" lengthAdjust="spacing" textLength="170" x="1488.125" y="296.7627">ParameterCategoryStore</text><line style="stroke:#A80036;stroke-width:1.875;" x1="1453.125" x2="1660.625" y1="310.625" y2="310.625"/><text fill="#000000" font-family="sans-serif" font-size="13.75" lengthAdjust="spacing" textLength="168.75" x="1459.375" y="329.8987">+getCategoryByCode(code)</text><!--MD5=[be7802b157a16874d39c59ca0e2b25be]
class ParameterStore--><rect codeLine="22" fill="#FEFECE" filter="url(#f1fpgtgln9xapi)" height="101.8848" id="ParameterStore" style="stroke:#A80036;stroke-width:1.875;" width="393.75" x="1360" y="409.375"/><ellipse cx="1497.1875" cy="429.375" fill="#ADD1B2" rx="13.75" ry="13.75" style="stroke:#A80036;stroke-width:1.25;"/><path d="M1499.6875,425 Q1499.9414,424.375 1500.2344,424.0625 Q1500.5273,423.75 1500.8594,423.75 Q1501.4453,423.75 1501.8164,424.1016 Q1502.1875,424.4531 1502.1875,425.2734 L1502.1875,427.2266 Q1502.1875,428.0469 1501.8359,428.3984 Q1501.4844,428.75 1500.9375,428.75 Q1500.4492,428.75 1500.1367,428.5352 Q1499.8242,428.3203 1499.6875,427.7539 Q1499.6289,427.3633 1499.4141,427.1484 Q1499.0234,426.7383 1498.3203,426.5039 Q1497.6172,426.25 1496.9141,426.25 Q1496.0352,426.25 1495.293,426.6016 Q1494.5703,426.9531 1494.0039,427.7344 Q1493.4375,428.5156 1493.4375,429.5898 L1493.4375,430.7422 Q1493.4375,432.0313 1494.4922,432.8906 Q1495.5469,433.75 1497.4219,433.75 Q1498.5352,433.75 1499.3164,433.4961 Q1499.7656,433.3594 1500.2734,432.9102 Q1500.6055,432.6563 1500.7813,432.5781 Q1500.957,432.5 1501.1719,432.5 Q1501.582,432.5 1501.875,432.832 Q1502.1875,433.1445 1502.1875,433.5938 Q1502.1875,434.0234 1501.7578,434.5313 Q1501.1328,435.2734 1500.1367,435.6836 Q1498.8281,436.25 1497.2266,436.25 Q1495.3516,436.25 1493.8477,435.5078 Q1492.6367,434.9219 1491.7773,433.6523 Q1490.9375,432.3828 1490.9375,430.8789 L1490.9375,429.5117 Q1490.9375,427.9492 1491.6797,426.582 Q1492.4414,425.2148 1493.75,424.4922 Q1495.0781,423.75 1496.5625,423.75 Q1497.4609,423.75 1498.2422,424.0625 Q1499.0234,424.375 1499.6875,425 Z " fill="#000000"/><text fill="#000000" font-family="sans-serif" font-size="15" lengthAdjust="spacing" textLength="108.75" x="1522.8125" y="435.5127">ParameterStore</text><line style="stroke:#A80036;stroke-width:1.875;" x1="1361.25" x2="1752.5" y1="449.375" y2="449.375"/><text fill="#000000" font-family="sans-serif" font-size="13.75" lengthAdjust="spacing" textLength="378.75" x="1367.5" y="468.6487">+createParameter(parameterCode, shortName, description, pc)</text><text fill="#000000" font-family="sans-serif" font-size="13.75" lengthAdjust="spacing" textLength="186.25" x="1367.5" y="485.9436">+validateParameter(parameter)</text><text fill="#000000" font-family="sans-serif" font-size="13.75" lengthAdjust="spacing" textLength="170" x="1367.5" y="503.2385">+saveParameter(parameter)</text><!--MD5=[1f6362a5c8f21d8d6a0fce68f3a92a4e]
class Parameter--><rect codeLine="28" fill="#FEFECE" filter="url(#f1fpgtgln9xapi)" height="146.4746" id="Parameter" style="stroke:#A80036;stroke-width:1.875;" width="355" x="1995" y="387.5"/><ellipse cx="2130.9375" cy="407.5" fill="#ADD1B2" rx="13.75" ry="13.75" style="stroke:#A80036;stroke-width:1.25;"/><path d="M2133.4375,403.125 Q2133.6914,402.5 2133.9844,402.1875 Q2134.2773,401.875 2134.6094,401.875 Q2135.1953,401.875 2135.5664,402.2266 Q2135.9375,402.5781 2135.9375,403.3984 L2135.9375,405.3516 Q2135.9375,406.1719 2135.5859,406.5234 Q2135.2344,406.875 2134.6875,406.875 Q2134.1992,406.875 2133.8867,406.6602 Q2133.5742,406.4453 2133.4375,405.8789 Q2133.3789,405.4883 2133.1641,405.2734 Q2132.7734,404.8633 2132.0703,404.6289 Q2131.3672,404.375 2130.6641,404.375 Q2129.7852,404.375 2129.043,404.7266 Q2128.3203,405.0781 2127.7539,405.8594 Q2127.1875,406.6406 2127.1875,407.7148 L2127.1875,408.8672 Q2127.1875,410.1563 2128.2422,411.0156 Q2129.2969,411.875 2131.1719,411.875 Q2132.2852,411.875 2133.0664,411.6211 Q2133.5156,411.4844 2134.0234,411.0352 Q2134.3555,410.7813 2134.5313,410.7031 Q2134.707,410.625 2134.9219,410.625 Q2135.332,410.625 2135.625,410.957 Q2135.9375,411.2695 2135.9375,411.7188 Q2135.9375,412.1484 2135.5078,412.6563 Q2134.8828,413.3984 2133.8867,413.8086 Q2132.5781,414.375 2130.9766,414.375 Q2129.1016,414.375 2127.5977,413.6328 Q2126.3867,413.0469 2125.5273,411.7773 Q2124.6875,410.5078 2124.6875,409.0039 L2124.6875,407.6367 Q2124.6875,406.0742 2125.4297,404.707 Q2126.1914,403.3398 2127.5,402.6172 Q2128.8281,401.875 2130.3125,401.875 Q2131.2109,401.875 2131.9922,402.1875 Q2132.7734,402.5 2133.4375,403.125 Z " fill="#000000"/><text fill="#000000" font-family="sans-serif" font-size="15" lengthAdjust="spacing" textLength="72.5" x="2156.5625" y="413.6377">Parameter</text><line style="stroke:#A80036;stroke-width:1.875;" x1="1996.25" x2="2348.75" y1="427.5" y2="427.5"/><text fill="#000000" font-family="sans-serif" font-size="13.75" lengthAdjust="spacing" textLength="140" x="2002.5" y="446.7737">-parameterCode: String</text><text fill="#000000" font-family="sans-serif" font-size="13.75" lengthAdjust="spacing" textLength="112.5" x="2002.5" y="464.0686">-shortName: String</text><text fill="#000000" font-family="sans-serif" font-size="13.75" lengthAdjust="spacing" textLength="113.75" x="2002.5" y="481.3635">-description: String</text><text fill="#000000" font-family="sans-serif" font-size="13.75" lengthAdjust="spacing" textLength="143.75" x="2002.5" y="498.6584">-pc: ParameterCategory</text><line style="stroke:#A80036;stroke-width:1.875;" x1="1996.25" x2="2348.75" y1="506.6797" y2="506.6797"/><text fill="#000000" font-family="sans-serif" font-size="13.75" lengthAdjust="spacing" textLength="340" x="2002.5" y="525.9534">+Parameter(parameterCode, shortName, description, pc)</text><!--MD5=[36afb6bbd95a8ac778c4537c55a683d5]
class ParameterCategory--><rect codeLine="36" fill="#FEFECE" filter="url(#f1fpgtgln9xapi)" height="84.5898" id="ParameterCategory" style="stroke:#A80036;stroke-width:1.875;" width="173.75" x="2560" y="256.875"/><ellipse cx="2578.75" cy="276.875" fill="#ADD1B2" rx="13.75" ry="13.75" style="stroke:#A80036;stroke-width:1.25;"/><path d="M2581.25,272.5 Q2581.5039,271.875 2581.7969,271.5625 Q2582.0898,271.25 2582.4219,271.25 Q2583.0078,271.25 2583.3789,271.6016 Q2583.75,271.9531 2583.75,272.7734 L2583.75,274.7266 Q2583.75,275.5469 2583.3984,275.8984 Q2583.0469,276.25 2582.5,276.25 Q2582.0117,276.25 2581.6992,276.0352 Q2581.3867,275.8203 2581.25,275.2539 Q2581.1914,274.8633 2580.9766,274.6484 Q2580.5859,274.2383 2579.8828,274.0039 Q2579.1797,273.75 2578.4766,273.75 Q2577.5977,273.75 2576.8555,274.1016 Q2576.1328,274.4531 2575.5664,275.2344 Q2575,276.0156 2575,277.0898 L2575,278.2422 Q2575,279.5313 2576.0547,280.3906 Q2577.1094,281.25 2578.9844,281.25 Q2580.0977,281.25 2580.8789,280.9961 Q2581.3281,280.8594 2581.8359,280.4102 Q2582.168,280.1563 2582.3438,280.0781 Q2582.5195,280 2582.7344,280 Q2583.1445,280 2583.4375,280.332 Q2583.75,280.6445 2583.75,281.0938 Q2583.75,281.5234 2583.3203,282.0313 Q2582.6953,282.7734 2581.6992,283.1836 Q2580.3906,283.75 2578.7891,283.75 Q2576.9141,283.75 2575.4102,283.0078 Q2574.1992,282.4219 2573.3398,281.1523 Q2572.5,279.8828 2572.5,278.3789 L2572.5,277.0117 Q2572.5,275.4492 2573.2422,274.082 Q2574.0039,272.7148 2575.3125,271.9922 Q2576.6406,271.25 2578.125,271.25 Q2579.0234,271.25 2579.8047,271.5625 Q2580.5859,271.875 2581.25,272.5 Z " fill="#000000"/><text fill="#000000" font-family="sans-serif" font-size="15" lengthAdjust="spacing" textLength="133.75" x="2596.25" y="283.0127">ParameterCategory</text><line style="stroke:#A80036;stroke-width:1.875;" x1="2561.25" x2="2732.5" y1="296.875" y2="296.875"/><text fill="#000000" font-family="sans-serif" font-size="13.75" lengthAdjust="spacing" textLength="77.5" x="2567.5" y="316.1487">-code: String</text><text fill="#000000" font-family="sans-serif" font-size="13.75" lengthAdjust="spacing" textLength="80" x="2567.5" y="333.4436">-name: String</text><!--MD5=[02e4b9b7573f1156f41e60aa5b4e25a4]
class Company--><rect codeLine="41" fill="#FEFECE" filter="url(#f1fpgtgln9xapi)" height="111.8848" id="Company" style="stroke:#A80036;stroke-width:1.875;" width="200" x="895.625" y="356.875"/><ellipse cx="957.1875" cy="376.875" fill="#ADD1B2" rx="13.75" ry="13.75" style="stroke:#A80036;stroke-width:1.25;"/><path d="M959.6875,372.5 Q959.9414,371.875 960.2344,371.5625 Q960.5273,371.25 960.8594,371.25 Q961.4453,371.25 961.8164,371.6016 Q962.1875,371.9531 962.1875,372.7734 L962.1875,374.7266 Q962.1875,375.5469 961.8359,375.8984 Q961.4844,376.25 960.9375,376.25 Q960.4492,376.25 960.1367,376.0352 Q959.8242,375.8203 959.6875,375.2539 Q959.6289,374.8633 959.4141,374.6484 Q959.0234,374.2383 958.3203,374.0039 Q957.6172,373.75 956.9141,373.75 Q956.0352,373.75 955.293,374.1016 Q954.5703,374.4531 954.0039,375.2344 Q953.4375,376.0156 953.4375,377.0898 L953.4375,378.2422 Q953.4375,379.5313 954.4922,380.3906 Q955.5469,381.25 957.4219,381.25 Q958.5352,381.25 959.3164,380.9961 Q959.7656,380.8594 960.2734,380.4102 Q960.6055,380.1563 960.7813,380.0781 Q960.957,380 961.1719,380 Q961.582,380 961.875,380.332 Q962.1875,380.6445 962.1875,381.0938 Q962.1875,381.5234 961.7578,382.0313 Q961.1328,382.7734 960.1367,383.1836 Q958.8281,383.75 957.2266,383.75 Q955.3516,383.75 953.8477,383.0078 Q952.6367,382.4219 951.7773,381.1523 Q950.9375,379.8828 950.9375,378.3789 L950.9375,377.0117 Q950.9375,375.4492 951.6797,374.082 Q952.4414,372.7148 953.75,371.9922 Q955.0781,371.25 956.5625,371.25 Q957.4609,371.25 958.2422,371.5625 Q959.0234,371.875 959.6875,372.5 Z " fill="#000000"/><text fill="#000000" font-family="sans-serif" font-size="15" lengthAdjust="spacing" textLength="66.25" x="982.8125" y="383.0127">Company</text><line style="stroke:#A80036;stroke-width:1.875;" x1="896.875" x2="1094.375" y1="396.875" y2="396.875"/><text fill="#000000" font-family="sans-serif" font-size="13.75" lengthAdjust="spacing" textLength="116.25" x="903.125" y="416.1487">-designation: String</text><line style="stroke:#A80036;stroke-width:1.875;" x1="896.875" x2="1094.375" y1="424.1699" y2="424.1699"/><text fill="#000000" font-family="sans-serif" font-size="13.75" lengthAdjust="spacing" textLength="130" x="903.125" y="443.4436">+getParameterStore()</text><text fill="#000000" font-family="sans-serif" font-size="13.75" lengthAdjust="spacing" textLength="185" x="903.125" y="460.7385">+getParameterCategoryStore()</text><!--MD5=[b9009a04d919d78a73c2eeec1e385786]
class CreateParameterController--><rect codeLine="47" fill="#FEFECE" filter="url(#f1fpgtgln9xapi)" height="84.5898" id="CreateParameterController" style="stroke:#A80036;stroke-width:1.875;" width="425" x="258.75" y="248.125"/><ellipse cx="372.8125" cy="268.125" fill="#ADD1B2" rx="13.75" ry="13.75" style="stroke:#A80036;stroke-width:1.25;"/><path d="M375.3125,263.75 Q375.5664,263.125 375.8594,262.8125 Q376.1523,262.5 376.4844,262.5 Q377.0703,262.5 377.4414,262.8516 Q377.8125,263.2031 377.8125,264.0234 L377.8125,265.9766 Q377.8125,266.7969 377.4609,267.1484 Q377.1094,267.5 376.5625,267.5 Q376.0742,267.5 375.7617,267.2852 Q375.4492,267.0703 375.3125,266.5039 Q375.2539,266.1133 375.0391,265.8984 Q374.6484,265.4883 373.9453,265.2539 Q373.2422,265 372.5391,265 Q371.6602,265 370.918,265.3516 Q370.1953,265.7031 369.6289,266.4844 Q369.0625,267.2656 369.0625,268.3398 L369.0625,269.4922 Q369.0625,270.7813 370.1172,271.6406 Q371.1719,272.5 373.0469,272.5 Q374.1602,272.5 374.9414,272.2461 Q375.3906,272.1094 375.8984,271.6602 Q376.2305,271.4063 376.4063,271.3281 Q376.582,271.25 376.7969,271.25 Q377.207,271.25 377.5,271.582 Q377.8125,271.8945 377.8125,272.3438 Q377.8125,272.7734 377.3828,273.2813 Q376.7578,274.0234 375.7617,274.4336 Q374.4531,275 372.8516,275 Q370.9766,275 369.4727,274.2578 Q368.2617,273.6719 367.4023,272.4023 Q366.5625,271.1328 366.5625,269.6289 L366.5625,268.2617 Q366.5625,266.6992 367.3047,265.332 Q368.0664,263.9648 369.375,263.2422 Q370.7031,262.5 372.1875,262.5 Q373.0859,262.5 373.8672,262.8125 Q374.6484,263.125 375.3125,263.75 Z " fill="#000000"/><text fill="#000000" font-family="sans-serif" font-size="15" lengthAdjust="spacing" textLength="186.25" x="398.4375" y="274.2627">CreateParameterController</text><line style="stroke:#A80036;stroke-width:1.875;" x1="260" x2="682.5" y1="288.125" y2="288.125"/><text fill="#000000" font-family="sans-serif" font-size="13.75" lengthAdjust="spacing" textLength="410" x="266.25" y="307.3987">+createParameter(parameterCode, shortName, description, pcCode)</text><text fill="#000000" font-family="sans-serif" font-size="13.75" lengthAdjust="spacing" textLength="108.75" x="266.25" y="324.6936">+saveParameter()</text><!--MD5=[5518e6815e09c51d4db6e17774f331d2]
class CreateParameterUI--><rect codeLine="52" fill="#FEFECE" filter="url(#f1fpgtgln9xapi)" height="40" id="CreateParameterUI" style="stroke:#A80036;stroke-width:1.875;" width="173.75" x="8.75" y="161.875"/><ellipse cx="27.5" cy="181.875" fill="#ADD1B2" rx="13.75" ry="13.75" style="stroke:#A80036;stroke-width:1.25;"/><path d="M30,177.5 Q30.2539,176.875 30.5469,176.5625 Q30.8398,176.25 31.1719,176.25 Q31.7578,176.25 32.1289,176.6016 Q32.5,176.9531 32.5,177.7734 L32.5,179.7266 Q32.5,180.5469 32.1484,180.8984 Q31.7969,181.25 31.25,181.25 Q30.7617,181.25 30.4492,181.0352 Q30.1367,180.8203 30,180.2539 Q29.9414,179.8633 29.7266,179.6484 Q29.3359,179.2383 28.6328,179.0039 Q27.9297,178.75 27.2266,178.75 Q26.3477,178.75 25.6055,179.1016 Q24.8828,179.4531 24.3164,180.2344 Q23.75,181.0156 23.75,182.0898 L23.75,183.2422 Q23.75,184.5313 24.8047,185.3906 Q25.8594,186.25 27.7344,186.25 Q28.8477,186.25 29.6289,185.9961 Q30.0781,185.8594 30.5859,185.4102 Q30.918,185.1563 31.0938,185.0781 Q31.2695,185 31.4844,185 Q31.8945,185 32.1875,185.332 Q32.5,185.6445 32.5,186.0938 Q32.5,186.5234 32.0703,187.0313 Q31.4453,187.7734 30.4492,188.1836 Q29.1406,188.75 27.5391,188.75 Q25.6641,188.75 24.1602,188.0078 Q22.9492,187.4219 22.0898,186.1523 Q21.25,184.8828 21.25,183.3789 L21.25,182.0117 Q21.25,180.4492 21.9922,179.082 Q22.7539,177.7148 24.0625,176.9922 Q25.3906,176.25 26.875,176.25 Q27.7734,176.25 28.5547,176.5625 Q29.3359,176.875 30,177.5 Z " fill="#000000"/><text fill="#000000" font-family="sans-serif" font-size="15" lengthAdjust="spacing" textLength="133.75" x="45" y="188.0127">CreateParameterUI</text><!--MD5=[9d3dd688f78c4545f26622cd23f9dd25]
link CreateParameterUI to CreateParameterController--><path codeLine="56" d="M165.75,201.95 C208.425,214.3875 265,230.875 317.775,246.2625 " fill="none" id="CreateParameterUI-to-CreateParameterController" style="stroke:#A80036;stroke-width:1.25;stroke-dasharray:7.0,7.0;"/><polygon fill="#A80036" points="323.85,248.025,314.45,240.075,317.85,246.275,311.65,249.675,323.85,248.025" style="stroke:#A80036;stroke-width:1.25;"/><!--MD5=[6d585fb02c26694275539b4f1508918e]
link CreateParameterController to Company--><path codeLine="57" d="M653.5625,333.125 C732.1375,351.575 821.4,372.525 888.8625,388.3625 " fill="none" id="CreateParameterController-to-Company" style="stroke:#A80036;stroke-width:1.25;stroke-dasharray:7.0,7.0;"/><polygon fill="#A80036" points="895.3125,389.875,885.5019,382.4376,889.2277,388.4475,883.2179,392.1733,895.3125,389.875" style="stroke:#A80036;stroke-width:1.25;"/><!--MD5=[d4acd0f9b6f472dc8c1d58fc6da00ca5]
link CreateParameterController to ParameterCategoryStore--><path codeLine="58" d="M683.9125,293.3125 C912.225,296.2125 1267.125,300.7125 1445.4625,302.975 " fill="none" id="CreateParameterController-to-ParameterCategoryStore" style="stroke:#A80036;stroke-width:1.25;stroke-dasharray:7.0,7.0;"/><polygon fill="#A80036" points="1451.725,303.05,1440.5329,297.9218,1445.4754,302.9786,1440.4186,307.9211,1451.725,303.05" style="stroke:#A80036;stroke-width:1.25;"/><!--MD5=[46706d5726812879537e05899d80bc9e]
link CreateParameterController to ParameterStore--><path codeLine="59" d="M515.05,333.4 C567.4,382.6625 661.5125,460.825 760,491.875 C954.7625,553.2625 1189.6875,533.4 1353.5625,505.6125 " fill="none" id="CreateParameterController-to-ParameterStore" style="stroke:#A80036;stroke-width:1.25;stroke-dasharray:7.0,7.0;"/><polygon fill="#A80036" points="1359.85,504.5375,1347.9097,501.539,1353.6924,505.6084,1349.6231,511.3911,1359.85,504.5375" style="stroke:#A80036;stroke-width:1.25;"/><!--MD5=[1890845a8958533c6f74c90e74f302d7]
link CreateParameterController to CategoriesMapper--><path codeLine="60" d="M676.5125,248.1125 C711.775,240.7625 748.5,233.1125 783.9375,225.725 " fill="none" id="CreateParameterController-to-CategoriesMapper" style="stroke:#A80036;stroke-width:1.25;stroke-dasharray:7.0,7.0;"/><polygon fill="#A80036" points="790.075,224.45,778.0435,221.8412,783.9555,225.7204,780.0762,231.6324,790.075,224.45" style="stroke:#A80036;stroke-width:1.25;"/><!--MD5=[faddff114592b8b1e2cc0b3da6aa4488]
link CategoriesMapper to ParameterCategory--><path codeLine="61" d="M1231.375,180.275 C1532.2375,181.575 2069.375,195.2 2522.5,266.875 C2532.625,268.475 2543.125,270.5625 2553.525,272.9125 " fill="none" id="CategoriesMapper-to-ParameterCategory" style="stroke:#A80036;stroke-width:1.25;stroke-dasharray:7.0,7.0;"/><polygon fill="#A80036" points="2559.9875,274.4,2550.1356,267.0174,2553.8949,273.0064,2547.9058,276.7656,2559.9875,274.4" style="stroke:#A80036;stroke-width:1.25;"/><!--MD5=[27fe8888fcd579b8f600d3dac6e95bb7]
link CategoriesMapper to CategoriesDto--><path codeLine="62" d="M1215.3,139.3625 C1292.4,124.3625 1376,108.0875 1441.05,95.425 " fill="none" id="CategoriesMapper-to-CategoriesDto" style="stroke:#A80036;stroke-width:1.25;stroke-dasharray:7.0,7.0;"/><polygon fill="#A80036" points="1447.2875,94.2125,1435.2876,91.462,1441.1534,95.4107,1437.2047,101.2765,1447.2875,94.2125" style="stroke:#A80036;stroke-width:1.25;"/><!--MD5=[1a1bd99bc525d8c25287190584ac1637]
link CreateParameterUI to CategoriesDto--><path codeLine="63" d="M182.625,172.55 C308.9125,159.05 552.425,133.9625 760,118.125 C1002.1875,99.6375 1286.4,85.35 1441.075,78.1875 " fill="none" id="CreateParameterUI-to-CategoriesDto" style="stroke:#A80036;stroke-width:1.25;stroke-dasharray:7.0,7.0;"/><polygon fill="#A80036" points="1447.4375,77.8875,1435.9576,73.4408,1441.1949,78.1916,1436.4441,83.4289,1447.4375,77.8875" style="stroke:#A80036;stroke-width:1.25;"/><!--MD5=[d6274e3b73b5bc8f467c6cfbf5bf003e]
link ParameterCategoryStore to ParameterCategory--><path codeLine="64" d="M1661.9125,303.9 C1875.8625,302.9125 2362.4625,300.675 2559.95,299.775 " fill="none" id="ParameterCategoryStore-ParameterCategory" style="stroke:#A80036;stroke-width:1.25;"/><polygon fill="#000000" points="2151.2499,289.566,2139.9268,285.9443,2139.9606,293.2916,2151.2499,289.566" style="stroke:#000000;stroke-width:1.25;"/><text fill="#000000" font-family="sans-serif" font-size="16.25" lengthAdjust="spacing" textLength="48.75" x="2156.25" y="296.2439">adopts</text><!--MD5=[d53d7490e5836ca5709858d7326f212b]
link Company to ParameterCategoryStore--><path codeLine="65" d="M1095.8,393.875 C1195.7875,374.4125 1349.6875,344.4625 1451.5,324.6375 " fill="none" id="Company-ParameterCategoryStore" style="stroke:#A80036;stroke-width:1.25;"/><polygon fill="#000000" points="1281.1349,339.6506,1269.3349,338.2048,1270.7387,345.4168,1281.1349,339.6506" style="stroke:#000000;stroke-width:1.25;"/><text fill="#000000" font-family="sans-serif" font-size="16.25" lengthAdjust="spacing" textLength="35" x="1286.25" y="347.4939">uses</text><text fill="#000000" font-family="sans-serif" font-size="16.25" lengthAdjust="spacing" textLength="8.75" x="1105.7649" y="409.9125">1</text><text fill="#000000" font-family="sans-serif" font-size="16.25" lengthAdjust="spacing" textLength="8.75" x="1432.9754" y="344.2304">1</text><!--MD5=[daf3d7412afa2c7651483be0b6e971d1]
link Company to ParameterStore--><path codeLine="66" d="M1095.8,421.5375 C1168.8375,427.7375 1270.625,436.4 1359.875,443.9875 " fill="none" id="Company-ParameterStore" style="stroke:#A80036;stroke-width:1.25;"/><polygon fill="#000000" points="1281.2275,426.3742,1270.273,421.756,1269.6506,429.0769,1281.2275,426.3742" style="stroke:#000000;stroke-width:1.25;"/><text fill="#000000" font-family="sans-serif" font-size="16.25" lengthAdjust="spacing" textLength="35" x="1286.25" y="432.4939">uses</text><text fill="#000000" font-family="sans-serif" font-size="16.25" lengthAdjust="spacing" textLength="8.75" x="1105.7649" y="440.2116">1</text><text fill="#000000" font-family="sans-serif" font-size="16.25" lengthAdjust="spacing" textLength="8.75" x="1341.3709" y="460.5604">1</text><!--MD5=[a0992dda039fed1bb57aff5aacace800]
link ParameterStore to Parameter--><path codeLine="67" d="M1753.8125,460.625 C1831.0875,460.625 1919.225,460.625 1994.5375,460.625 " fill="none" id="ParameterStore-Parameter" style="stroke:#A80036;stroke-width:1.25;"/><polygon fill="#000000" points="1803.75,449.5947,1792.4436,445.9211,1792.4436,453.2684,1803.75,449.5947" style="stroke:#000000;stroke-width:1.25;"/><text fill="#000000" font-family="sans-serif" font-size="16.25" lengthAdjust="spacing" textLength="147.5" x="1808.75" y="456.2439">capable of analysing</text><text fill="#000000" font-family="sans-serif" font-size="16.25" lengthAdjust="spacing" textLength="8.75" x="1763.5636" y="478.0038">1</text><text fill="#000000" font-family="sans-serif" font-size="16.25" lengthAdjust="spacing" textLength="6.25" x="1978.9502" y="478.0151">*</text><!--MD5=[6df8849671cb880f6936e94aa30db6f9]
link Parameter to ParameterCategory--><path codeLine="68" d="M2350.3625,411.4625 C2405.9375,394.7625 2467.2125,375.05 2522.5,354.375 C2534.675,349.825 2547.35,344.6625 2559.75,339.3625 " fill="none" id="Parameter-ParameterCategory" style="stroke:#A80036;stroke-width:1.25;"/><polygon fill="#000000" points="2399.6595,341.3099,2387.7731,341.5175,2390.1652,348.4645,2399.6595,341.3099" style="stroke:#000000;stroke-width:1.25;"/><text fill="#000000" font-family="sans-serif" font-size="16.25" lengthAdjust="spacing" textLength="116.25" x="2405" y="349.9939">presented under</text><text fill="#000000" font-family="sans-serif" font-size="16.25" lengthAdjust="spacing" textLength="6.25" x="2360.2603" y="426.1956">*</text><text fill="#000000" font-family="sans-serif" font-size="16.25" lengthAdjust="spacing" textLength="8.75" x="2540.9922" y="361.7452">1</text><!--MD5=[2899f509878fd8a385a2a7cf74784191]
@startuml
hide empty methods
hide empty attributes
left to right direction
skinparam classAttributeIconSize 0

class CategoriesDto {
    -code
    -name
    +ParameterCategory(code, name)
    +getCode()
}

class CategoriesMapper {
    +List<CategoriesDto> toDto(List<ParameterCategory> parameterCategories)
    +rCategoriesDto toDTO(ParameterCategory pc)
}

class ParameterCategoryStore {
    +getCategoryByCode(code)
}

class ParameterStore {
    +createParameter(parameterCode, shortName, description, pc)
    +validateParameter(parameter)
    +saveParameter(parameter)
}

class Parameter {
  -parameterCode: String
  -shortName: String
  -description: String
  -pc: ParameterCategory
  +Parameter(parameterCode, shortName, description, pc)
}

class ParameterCategory {
   -code: String
   -name: String
}

class Company {
  -designation: String
  +getParameterStore()
  +getParameterCategoryStore()
}

class CreateParameterController {
  +createParameter(parameterCode, shortName, description, pcCode)
  +saveParameter()
}

class CreateParameterUI {

}

CreateParameterUI ..> CreateParameterController
CreateParameterController ..> Company
CreateParameterController ..> ParameterCategoryStore
CreateParameterController ..> ParameterStore
CreateParameterController ..> CategoriesMapper
CategoriesMapper ..> ParameterCategory
CategoriesMapper ..> CategoriesDto
CreateParameterUI ..> CategoriesDto
ParameterCategoryStore - - ParameterCategory : adopts >
Company "1" - - "1" ParameterCategoryStore : uses >
Company "1" - - "1" ParameterStore : uses >
ParameterStore "1" - - "*" Parameter : capable of analysing >
Parameter "*" - - "1" ParameterCategory : presented under >


@enduml

PlantUML version 1.2021.4(Sun Apr 04 09:49:39 BST 2021)
(GPL source distribution)
Java Runtime: OpenJDK Runtime Environment
JVM: Dynamic Code Evolution 64-Bit Server VM
Default Encoding: Cp1252
Language: pt
Country: PT
--></g></svg>