<?xml version="1.0" encoding="UTF-8" standalone="no"?><svg xmlns="http://www.w3.org/2000/svg" xmlns:xlink="http://www.w3.org/1999/xlink" contentScriptType="application/ecmascript" contentStyleType="text/css" height="717.5px" preserveAspectRatio="none" style="width:2578px;height:717px;" version="1.1" viewBox="0 0 2578 717" width="2578.75px" zoomAndPan="magnify"><defs><filter height="300%" id="fctpkgyvjdz3d" width="300%" x="-1" y="-1"><feGaussianBlur result="blurOut" stdDeviation="2.5"/><feColorMatrix in="blurOut" result="blurOut2" type="matrix" values="0 0 0 0 0 0 0 0 0 0 0 0 0 0 0 0 0 0 .4 0"/><feOffset dx="5.0" dy="5.0" in="blurOut2" result="blurOut3"/><feBlend in="SourceGraphic" in2="blurOut3" mode="normal"/></filter></defs><g><!--MD5=[e7b7f76692bc7b6a189caa2305323cac]
class CategoriesDto--><rect codeLine="6" fill="#FEFECE" filter="url(#fctpkgyvjdz3d)" height="129.1797" id="CategoriesDto" style="stroke:#A80036;stroke-width:1.875;" width="183.75" x="1298.125" y="8.75"/><ellipse cx="1336.5625" cy="28.75" fill="#ADD1B2" rx="13.75" ry="13.75" style="stroke:#A80036;stroke-width:1.25;"/><path d="M1339.0625,24.375 Q1339.3164,23.75 1339.6094,23.4375 Q1339.9023,23.125 1340.2344,23.125 Q1340.8203,23.125 1341.1914,23.4766 Q1341.5625,23.8281 1341.5625,24.6484 L1341.5625,26.6016 Q1341.5625,27.4219 1341.2109,27.7734 Q1340.8594,28.125 1340.3125,28.125 Q1339.8242,28.125 1339.5117,27.9102 Q1339.1992,27.6953 1339.0625,27.1289 Q1339.0039,26.7383 1338.7891,26.5234 Q1338.3984,26.1133 1337.6953,25.8789 Q1336.9922,25.625 1336.2891,25.625 Q1335.4102,25.625 1334.668,25.9766 Q1333.9453,26.3281 1333.3789,27.1094 Q1332.8125,27.8906 1332.8125,28.9648 L1332.8125,30.1172 Q1332.8125,31.4063 1333.8672,32.2656 Q1334.9219,33.125 1336.7969,33.125 Q1337.9102,33.125 1338.6914,32.8711 Q1339.1406,32.7344 1339.6484,32.2852 Q1339.9805,32.0313 1340.1563,31.9531 Q1340.332,31.875 1340.5469,31.875 Q1340.957,31.875 1341.25,32.207 Q1341.5625,32.5195 1341.5625,32.9688 Q1341.5625,33.3984 1341.1328,33.9063 Q1340.5078,34.6484 1339.5117,35.0586 Q1338.2031,35.625 1336.6016,35.625 Q1334.7266,35.625 1333.2227,34.8828 Q1332.0117,34.2969 1331.1523,33.0273 Q1330.3125,31.7578 1330.3125,30.2539 L1330.3125,28.8867 Q1330.3125,27.3242 1331.0547,25.957 Q1331.8164,24.5898 1333.125,23.8672 Q1334.4531,23.125 1335.9375,23.125 Q1336.8359,23.125 1337.6172,23.4375 Q1338.3984,23.75 1339.0625,24.375 Z " fill="#000000"/><text fill="#000000" font-family="sans-serif" font-size="15" lengthAdjust="spacing" textLength="100" x="1358.4375" y="34.8877">CategoriesDto</text><line style="stroke:#A80036;stroke-width:1.875;" x1="1299.375" x2="1480.625" y1="48.75" y2="48.75"/><text fill="#000000" font-family="sans-serif" font-size="13.75" lengthAdjust="spacing" textLength="73.75" x="1305.625" y="68.0237">-String code</text><text fill="#000000" font-family="sans-serif" font-size="13.75" lengthAdjust="spacing" textLength="76.25" x="1305.625" y="85.3186">-String name</text><line style="stroke:#A80036;stroke-width:1.875;" x1="1299.375" x2="1480.625" y1="93.3398" y2="93.3398"/><text fill="#000000" font-family="sans-serif" font-size="13.75" lengthAdjust="spacing" textLength="168.75" x="1305.625" y="112.6135">+CategoriesDto(name,code)</text><text fill="#000000" font-family="sans-serif" font-size="13.75" lengthAdjust="spacing" textLength="67.5" x="1305.625" y="129.9084">+getCode()</text><!--MD5=[d63babda4aaccf35fa117b37a096c517]
class CategoriesMapper--><rect codeLine="13" fill="#FEFECE" filter="url(#fctpkgyvjdz3d)" height="84.5898" id="CategoriesMapper" style="stroke:#A80036;stroke-width:1.875;" width="167.5" x="825.625" y="139.375"/><ellipse cx="844.375" cy="159.375" fill="#ADD1B2" rx="13.75" ry="13.75" style="stroke:#A80036;stroke-width:1.25;"/><path d="M846.875,155 Q847.1289,154.375 847.4219,154.0625 Q847.7148,153.75 848.0469,153.75 Q848.6328,153.75 849.0039,154.1016 Q849.375,154.4531 849.375,155.2734 L849.375,157.2266 Q849.375,158.0469 849.0234,158.3984 Q848.6719,158.75 848.125,158.75 Q847.6367,158.75 847.3242,158.5352 Q847.0117,158.3203 846.875,157.7539 Q846.8164,157.3633 846.6016,157.1484 Q846.2109,156.7383 845.5078,156.5039 Q844.8047,156.25 844.1016,156.25 Q843.2227,156.25 842.4805,156.6016 Q841.7578,156.9531 841.1914,157.7344 Q840.625,158.5156 840.625,159.5898 L840.625,160.7422 Q840.625,162.0313 841.6797,162.8906 Q842.7344,163.75 844.6094,163.75 Q845.7227,163.75 846.5039,163.4961 Q846.9531,163.3594 847.4609,162.9102 Q847.793,162.6563 847.9688,162.5781 Q848.1445,162.5 848.3594,162.5 Q848.7695,162.5 849.0625,162.832 Q849.375,163.1445 849.375,163.5938 Q849.375,164.0234 848.9453,164.5313 Q848.3203,165.2734 847.3242,165.6836 Q846.0156,166.25 844.4141,166.25 Q842.5391,166.25 841.0352,165.5078 Q839.8242,164.9219 838.9648,163.6523 Q838.125,162.3828 838.125,160.8789 L838.125,159.5117 Q838.125,157.9492 838.8672,156.582 Q839.6289,155.2148 840.9375,154.4922 Q842.2656,153.75 843.75,153.75 Q844.6484,153.75 845.4297,154.0625 Q846.2109,154.375 846.875,155 Z " fill="#000000"/><text fill="#000000" font-family="sans-serif" font-size="15" lengthAdjust="spacing" textLength="127.5" x="861.875" y="165.5127">CategoriesMapper</text><line style="stroke:#A80036;stroke-width:1.875;" x1="826.875" x2="991.875" y1="179.375" y2="179.375"/><text fill="#000000" font-family="sans-serif" font-size="13.75" lengthAdjust="spacing" textLength="108.75" x="833.125" y="198.6487">+toDTO(category)</text><text fill="#000000" font-family="sans-serif" font-size="13.75" lengthAdjust="spacing" textLength="118.75" x="833.125" y="215.9436">+toDTO(categories)</text><!--MD5=[d802db621b5b215a6f0466f93cefcb42]
class ParameterCategoryStore--><rect codeLine="18" fill="#FEFECE" filter="url(#fctpkgyvjdz3d)" height="111.8848" id="ParameterCategoryStore" style="stroke:#A80036;stroke-width:1.875;" width="323.75" x="1228.125" y="270.625"/><ellipse cx="1299.6875" cy="290.625" fill="#ADD1B2" rx="13.75" ry="13.75" style="stroke:#A80036;stroke-width:1.25;"/><path d="M1302.1875,286.25 Q1302.4414,285.625 1302.7344,285.3125 Q1303.0273,285 1303.3594,285 Q1303.9453,285 1304.3164,285.3516 Q1304.6875,285.7031 1304.6875,286.5234 L1304.6875,288.4766 Q1304.6875,289.2969 1304.3359,289.6484 Q1303.9844,290 1303.4375,290 Q1302.9492,290 1302.6367,289.7852 Q1302.3242,289.5703 1302.1875,289.0039 Q1302.1289,288.6133 1301.9141,288.3984 Q1301.5234,287.9883 1300.8203,287.7539 Q1300.1172,287.5 1299.4141,287.5 Q1298.5352,287.5 1297.793,287.8516 Q1297.0703,288.2031 1296.5039,288.9844 Q1295.9375,289.7656 1295.9375,290.8398 L1295.9375,291.9922 Q1295.9375,293.2813 1296.9922,294.1406 Q1298.0469,295 1299.9219,295 Q1301.0352,295 1301.8164,294.7461 Q1302.2656,294.6094 1302.7734,294.1602 Q1303.1055,293.9063 1303.2813,293.8281 Q1303.457,293.75 1303.6719,293.75 Q1304.082,293.75 1304.375,294.082 Q1304.6875,294.3945 1304.6875,294.8438 Q1304.6875,295.2734 1304.2578,295.7813 Q1303.6328,296.5234 1302.6367,296.9336 Q1301.3281,297.5 1299.7266,297.5 Q1297.8516,297.5 1296.3477,296.7578 Q1295.1367,296.1719 1294.2773,294.9023 Q1293.4375,293.6328 1293.4375,292.1289 L1293.4375,290.7617 Q1293.4375,289.1992 1294.1797,287.832 Q1294.9414,286.4648 1296.25,285.7422 Q1297.5781,285 1299.0625,285 Q1299.9609,285 1300.7422,285.3125 Q1301.5234,285.625 1302.1875,286.25 Z " fill="#000000"/><text fill="#000000" font-family="sans-serif" font-size="15" lengthAdjust="spacing" textLength="170" x="1325.3125" y="296.7627">ParameterCategoryStore</text><line style="stroke:#A80036;stroke-width:1.875;" x1="1229.375" x2="1550.625" y1="310.625" y2="310.625"/><text fill="#000000" font-family="sans-serif" font-size="13.75" lengthAdjust="spacing" textLength="308.75" x="1235.625" y="329.8987">-List&lt;ParameterCategory&gt; parameterCategoriesList</text><line style="stroke:#A80036;stroke-width:1.875;" x1="1229.375" x2="1550.625" y1="337.9199" y2="337.9199"/><text fill="#000000" font-family="sans-serif" font-size="13.75" lengthAdjust="spacing" textLength="195" x="1235.625" y="357.1936">+getParameterCategoriesStore()</text><text fill="#000000" font-family="sans-serif" font-size="13.75" lengthAdjust="spacing" textLength="168.75" x="1235.625" y="374.4885">+getCategoryByCode(code)</text><!--MD5=[be7802b157a16874d39c59ca0e2b25be]
class ParameterStore--><rect codeLine="24" fill="#FEFECE" filter="url(#fctpkgyvjdz3d)" height="129.1797" id="ParameterStore" style="stroke:#A80036;stroke-width:1.875;" width="382.5" x="1198.75" y="485"/><ellipse cx="1330.3125" cy="505" fill="#ADD1B2" rx="13.75" ry="13.75" style="stroke:#A80036;stroke-width:1.25;"/><path d="M1332.8125,500.625 Q1333.0664,500 1333.3594,499.6875 Q1333.6523,499.375 1333.9844,499.375 Q1334.5703,499.375 1334.9414,499.7266 Q1335.3125,500.0781 1335.3125,500.8984 L1335.3125,502.8516 Q1335.3125,503.6719 1334.9609,504.0234 Q1334.6094,504.375 1334.0625,504.375 Q1333.5742,504.375 1333.2617,504.1602 Q1332.9492,503.9453 1332.8125,503.3789 Q1332.7539,502.9883 1332.5391,502.7734 Q1332.1484,502.3633 1331.4453,502.1289 Q1330.7422,501.875 1330.0391,501.875 Q1329.1602,501.875 1328.418,502.2266 Q1327.6953,502.5781 1327.1289,503.3594 Q1326.5625,504.1406 1326.5625,505.2148 L1326.5625,506.3672 Q1326.5625,507.6563 1327.6172,508.5156 Q1328.6719,509.375 1330.5469,509.375 Q1331.6602,509.375 1332.4414,509.1211 Q1332.8906,508.9844 1333.3984,508.5352 Q1333.7305,508.2813 1333.9063,508.2031 Q1334.082,508.125 1334.2969,508.125 Q1334.707,508.125 1335,508.457 Q1335.3125,508.7695 1335.3125,509.2188 Q1335.3125,509.6484 1334.8828,510.1563 Q1334.2578,510.8984 1333.2617,511.3086 Q1331.9531,511.875 1330.3516,511.875 Q1328.4766,511.875 1326.9727,511.1328 Q1325.7617,510.5469 1324.9023,509.2773 Q1324.0625,508.0078 1324.0625,506.5039 L1324.0625,505.1367 Q1324.0625,503.5742 1324.8047,502.207 Q1325.5664,500.8398 1326.875,500.1172 Q1328.2031,499.375 1329.6875,499.375 Q1330.5859,499.375 1331.3672,499.6875 Q1332.1484,500 1332.8125,500.625 Z " fill="#000000"/><text fill="#000000" font-family="sans-serif" font-size="15" lengthAdjust="spacing" textLength="108.75" x="1355.9375" y="511.1377">ParameterStore</text><line style="stroke:#A80036;stroke-width:1.875;" x1="1200" x2="1580" y1="525" y2="525"/><text fill="#000000" font-family="sans-serif" font-size="13.75" lengthAdjust="spacing" textLength="145" x="1206.25" y="544.2737">-list&lt;Parameter&gt; prmList</text><line style="stroke:#A80036;stroke-width:1.875;" x1="1200" x2="1580" y1="552.2949" y2="552.2949"/><text fill="#000000" font-family="sans-serif" font-size="13.75" lengthAdjust="spacing" textLength="367.5" x="1206.25" y="571.5686">+createParameter(parameterCode,shortName,description,pc)</text><text fill="#000000" font-family="sans-serif" font-size="13.75" lengthAdjust="spacing" textLength="147.5" x="1206.25" y="588.8635">+validateParameter(prm)</text><text fill="#000000" font-family="sans-serif" font-size="13.75" lengthAdjust="spacing" textLength="131.25" x="1206.25" y="606.1584">+saveParameter(prm)</text><!--MD5=[1f6362a5c8f21d8d6a0fce68f3a92a4e]
class Parameter--><rect codeLine="31" fill="#FEFECE" filter="url(#fctpkgyvjdz3d)" height="302.1289" id="Parameter" style="stroke:#A80036;stroke-width:1.875;" width="355" x="1822.5" y="398.125"/><ellipse cx="1958.4375" cy="418.125" fill="#ADD1B2" rx="13.75" ry="13.75" style="stroke:#A80036;stroke-width:1.25;"/><path d="M1960.9375,413.75 Q1961.1914,413.125 1961.4844,412.8125 Q1961.7773,412.5 1962.1094,412.5 Q1962.6953,412.5 1963.0664,412.8516 Q1963.4375,413.2031 1963.4375,414.0234 L1963.4375,415.9766 Q1963.4375,416.7969 1963.0859,417.1484 Q1962.7344,417.5 1962.1875,417.5 Q1961.6992,417.5 1961.3867,417.2852 Q1961.0742,417.0703 1960.9375,416.5039 Q1960.8789,416.1133 1960.6641,415.8984 Q1960.2734,415.4883 1959.5703,415.2539 Q1958.8672,415 1958.1641,415 Q1957.2852,415 1956.543,415.3516 Q1955.8203,415.7031 1955.2539,416.4844 Q1954.6875,417.2656 1954.6875,418.3398 L1954.6875,419.4922 Q1954.6875,420.7813 1955.7422,421.6406 Q1956.7969,422.5 1958.6719,422.5 Q1959.7852,422.5 1960.5664,422.2461 Q1961.0156,422.1094 1961.5234,421.6602 Q1961.8555,421.4063 1962.0313,421.3281 Q1962.207,421.25 1962.4219,421.25 Q1962.832,421.25 1963.125,421.582 Q1963.4375,421.8945 1963.4375,422.3438 Q1963.4375,422.7734 1963.0078,423.2813 Q1962.3828,424.0234 1961.3867,424.4336 Q1960.0781,425 1958.4766,425 Q1956.6016,425 1955.0977,424.2578 Q1953.8867,423.6719 1953.0273,422.4023 Q1952.1875,421.1328 1952.1875,419.6289 L1952.1875,418.2617 Q1952.1875,416.6992 1952.9297,415.332 Q1953.6914,413.9648 1955,413.2422 Q1956.3281,412.5 1957.8125,412.5 Q1958.7109,412.5 1959.4922,412.8125 Q1960.2734,413.125 1960.9375,413.75 Z " fill="#000000"/><text fill="#000000" font-family="sans-serif" font-size="15" lengthAdjust="spacing" textLength="72.5" x="1984.0625" y="424.2627">Parameter</text><line style="stroke:#A80036;stroke-width:1.875;" x1="1823.75" x2="2176.25" y1="438.125" y2="438.125"/><text fill="#000000" font-family="sans-serif" font-size="13.75" lengthAdjust="spacing" textLength="115" x="1830" y="457.3987">-int CODE_LENGTH</text><text fill="#000000" font-family="sans-serif" font-size="13.75" lengthAdjust="spacing" textLength="152.5" x="1830" y="474.6936">-int NAME_MAX_LENGTH</text><text fill="#000000" font-family="sans-serif" font-size="13.75" lengthAdjust="spacing" textLength="197.5" x="1830" y="491.9885">-int DESCRIPTION_MAX_LENGTH</text><text fill="#000000" font-family="sans-serif" font-size="13.75" lengthAdjust="spacing" textLength="136.25" x="1830" y="509.2834">-String parameterCode</text><text fill="#000000" font-family="sans-serif" font-size="13.75" lengthAdjust="spacing" textLength="108.75" x="1830" y="526.5784">-String shortName</text><text fill="#000000" font-family="sans-serif" font-size="13.75" lengthAdjust="spacing" textLength="110" x="1830" y="543.8733">-String description</text><text fill="#000000" font-family="sans-serif" font-size="13.75" lengthAdjust="spacing" textLength="140" x="1830" y="561.1682">-ParameterCategory pc</text><line style="stroke:#A80036;stroke-width:1.875;" x1="1823.75" x2="2176.25" y1="569.1895" y2="569.1895"/><text fill="#000000" font-family="sans-serif" font-size="13.75" lengthAdjust="spacing" textLength="340" x="1830" y="588.4631">+Parameter(parameterCode, shortName, description, pc)</text><text fill="#000000" font-family="sans-serif" font-size="13.75" lengthAdjust="spacing" textLength="90" x="1830" y="605.7581">+getPrmCode()</text><text fill="#000000" font-family="sans-serif" font-size="13.75" lengthAdjust="spacing" textLength="185" x="1830" y="623.053">+checkParameterCategory(pc)</text><text fill="#000000" font-family="sans-serif" font-size="13.75" lengthAdjust="spacing" textLength="272.5" x="1830" y="640.3479">+checkParameterCodeRules(parameterCode)</text><text fill="#000000" font-family="sans-serif" font-size="13.75" lengthAdjust="spacing" textLength="218.75" x="1830" y="657.6428">+checkShortNameRules(shortName)</text><text fill="#000000" font-family="sans-serif" font-size="13.75" lengthAdjust="spacing" textLength="221.25" x="1830" y="674.9377">+checkDescriptionRules(description)</text><text fill="#000000" font-family="sans-serif" font-size="13.75" lengthAdjust="spacing" textLength="157.5" x="1830" y="692.2327">+equals(parameterObject)</text><!--MD5=[36afb6bbd95a8ac778c4537c55a683d5]
class ParameterCategory--><rect codeLine="48" fill="#FEFECE" filter="url(#fctpkgyvjdz3d)" height="111.8848" id="ParameterCategory" style="stroke:#A80036;stroke-width:1.875;" width="173.75" x="2387.5" y="254.375"/><ellipse cx="2406.25" cy="274.375" fill="#ADD1B2" rx="13.75" ry="13.75" style="stroke:#A80036;stroke-width:1.25;"/><path d="M2408.75,270 Q2409.0039,269.375 2409.2969,269.0625 Q2409.5898,268.75 2409.9219,268.75 Q2410.5078,268.75 2410.8789,269.1016 Q2411.25,269.4531 2411.25,270.2734 L2411.25,272.2266 Q2411.25,273.0469 2410.8984,273.3984 Q2410.5469,273.75 2410,273.75 Q2409.5117,273.75 2409.1992,273.5352 Q2408.8867,273.3203 2408.75,272.7539 Q2408.6914,272.3633 2408.4766,272.1484 Q2408.0859,271.7383 2407.3828,271.5039 Q2406.6797,271.25 2405.9766,271.25 Q2405.0977,271.25 2404.3555,271.6016 Q2403.6328,271.9531 2403.0664,272.7344 Q2402.5,273.5156 2402.5,274.5898 L2402.5,275.7422 Q2402.5,277.0313 2403.5547,277.8906 Q2404.6094,278.75 2406.4844,278.75 Q2407.5977,278.75 2408.3789,278.4961 Q2408.8281,278.3594 2409.3359,277.9102 Q2409.668,277.6563 2409.8438,277.5781 Q2410.0195,277.5 2410.2344,277.5 Q2410.6445,277.5 2410.9375,277.832 Q2411.25,278.1445 2411.25,278.5938 Q2411.25,279.0234 2410.8203,279.5313 Q2410.1953,280.2734 2409.1992,280.6836 Q2407.8906,281.25 2406.2891,281.25 Q2404.4141,281.25 2402.9102,280.5078 Q2401.6992,279.9219 2400.8398,278.6523 Q2400,277.3828 2400,275.8789 L2400,274.5117 Q2400,272.9492 2400.7422,271.582 Q2401.5039,270.2148 2402.8125,269.4922 Q2404.1406,268.75 2405.625,268.75 Q2406.5234,268.75 2407.3047,269.0625 Q2408.0859,269.375 2408.75,270 Z " fill="#000000"/><text fill="#000000" font-family="sans-serif" font-size="15" lengthAdjust="spacing" textLength="133.75" x="2423.75" y="280.5127">ParameterCategory</text><line style="stroke:#A80036;stroke-width:1.875;" x1="2388.75" x2="2560" y1="294.375" y2="294.375"/><text fill="#000000" font-family="sans-serif" font-size="13.75" lengthAdjust="spacing" textLength="73.75" x="2395" y="313.6487">-String code</text><text fill="#000000" font-family="sans-serif" font-size="13.75" lengthAdjust="spacing" textLength="76.25" x="2395" y="330.9436">-String name</text><line style="stroke:#A80036;stroke-width:1.875;" x1="2388.75" x2="2560" y1="338.9648" y2="338.9648"/><text fill="#000000" font-family="sans-serif" font-size="13.75" lengthAdjust="spacing" textLength="67.5" x="2395" y="358.2385">+getCode()</text><!--MD5=[02e4b9b7573f1156f41e60aa5b4e25a4]
class Company--><rect codeLine="54" fill="#FEFECE" filter="url(#fctpkgyvjdz3d)" height="146.4746" id="Company" style="stroke:#A80036;stroke-width:1.875;" width="321.25" x="748.75" y="357.5"/><ellipse cx="870.9375" cy="377.5" fill="#ADD1B2" rx="13.75" ry="13.75" style="stroke:#A80036;stroke-width:1.25;"/><path d="M873.4375,373.125 Q873.6914,372.5 873.9844,372.1875 Q874.2773,371.875 874.6094,371.875 Q875.1953,371.875 875.5664,372.2266 Q875.9375,372.5781 875.9375,373.3984 L875.9375,375.3516 Q875.9375,376.1719 875.5859,376.5234 Q875.2344,376.875 874.6875,376.875 Q874.1992,376.875 873.8867,376.6602 Q873.5742,376.4453 873.4375,375.8789 Q873.3789,375.4883 873.1641,375.2734 Q872.7734,374.8633 872.0703,374.6289 Q871.3672,374.375 870.6641,374.375 Q869.7852,374.375 869.043,374.7266 Q868.3203,375.0781 867.7539,375.8594 Q867.1875,376.6406 867.1875,377.7148 L867.1875,378.8672 Q867.1875,380.1563 868.2422,381.0156 Q869.2969,381.875 871.1719,381.875 Q872.2852,381.875 873.0664,381.6211 Q873.5156,381.4844 874.0234,381.0352 Q874.3555,380.7813 874.5313,380.7031 Q874.707,380.625 874.9219,380.625 Q875.332,380.625 875.625,380.957 Q875.9375,381.2695 875.9375,381.7188 Q875.9375,382.1484 875.5078,382.6563 Q874.8828,383.3984 873.8867,383.8086 Q872.5781,384.375 870.9766,384.375 Q869.1016,384.375 867.5977,383.6328 Q866.3867,383.0469 865.5273,381.7773 Q864.6875,380.5078 864.6875,379.0039 L864.6875,377.6367 Q864.6875,376.0742 865.4297,374.707 Q866.1914,373.3398 867.5,372.6172 Q868.8281,371.875 870.3125,371.875 Q871.2109,371.875 871.9922,372.1875 Q872.7734,372.5 873.4375,373.125 Z " fill="#000000"/><text fill="#000000" font-family="sans-serif" font-size="15" lengthAdjust="spacing" textLength="66.25" x="896.5625" y="383.6377">Company</text><line style="stroke:#A80036;stroke-width:1.875;" x1="750" x2="1068.75" y1="397.5" y2="397.5"/><text fill="#000000" font-family="sans-serif" font-size="13.75" lengthAdjust="spacing" textLength="112.5" x="756.25" y="416.7737">-String designation</text><text fill="#000000" font-family="sans-serif" font-size="13.75" lengthAdjust="spacing" textLength="306.25" x="756.25" y="434.0686">-ParameterCategoryStore parameterCategoryStore</text><text fill="#000000" font-family="sans-serif" font-size="13.75" lengthAdjust="spacing" textLength="196.25" x="756.25" y="451.3635">-ParameterStore parameterStore</text><line style="stroke:#A80036;stroke-width:1.875;" x1="750" x2="1068.75" y1="459.3848" y2="459.3848"/><text fill="#000000" font-family="sans-serif" font-size="13.75" lengthAdjust="spacing" textLength="130" x="756.25" y="478.6584">+getParameterStore()</text><text fill="#000000" font-family="sans-serif" font-size="13.75" lengthAdjust="spacing" textLength="185" x="756.25" y="495.9534">+getParameterCategoryStore()</text><!--MD5=[b9009a04d919d78a73c2eeec1e385786]
class CreateParameterController--><rect codeLine="62" fill="#FEFECE" filter="url(#fctpkgyvjdz3d)" height="163.7695" id="CreateParameterController" style="stroke:#A80036;stroke-width:1.875;" width="413.75" x="258.75" y="208.75"/><ellipse cx="367.1875" cy="228.75" fill="#ADD1B2" rx="13.75" ry="13.75" style="stroke:#A80036;stroke-width:1.25;"/><path d="M369.6875,224.375 Q369.9414,223.75 370.2344,223.4375 Q370.5273,223.125 370.8594,223.125 Q371.4453,223.125 371.8164,223.4766 Q372.1875,223.8281 372.1875,224.6484 L372.1875,226.6016 Q372.1875,227.4219 371.8359,227.7734 Q371.4844,228.125 370.9375,228.125 Q370.4492,228.125 370.1367,227.9102 Q369.8242,227.6953 369.6875,227.1289 Q369.6289,226.7383 369.4141,226.5234 Q369.0234,226.1133 368.3203,225.8789 Q367.6172,225.625 366.9141,225.625 Q366.0352,225.625 365.293,225.9766 Q364.5703,226.3281 364.0039,227.1094 Q363.4375,227.8906 363.4375,228.9648 L363.4375,230.1172 Q363.4375,231.4063 364.4922,232.2656 Q365.5469,233.125 367.4219,233.125 Q368.5352,233.125 369.3164,232.8711 Q369.7656,232.7344 370.2734,232.2852 Q370.6055,232.0313 370.7813,231.9531 Q370.957,231.875 371.1719,231.875 Q371.582,231.875 371.875,232.207 Q372.1875,232.5195 372.1875,232.9688 Q372.1875,233.3984 371.7578,233.9063 Q371.1328,234.6484 370.1367,235.0586 Q368.8281,235.625 367.2266,235.625 Q365.3516,235.625 363.8477,234.8828 Q362.6367,234.2969 361.7773,233.0273 Q360.9375,231.7578 360.9375,230.2539 L360.9375,228.8867 Q360.9375,227.3242 361.6797,225.957 Q362.4414,224.5898 363.75,223.8672 Q365.0781,223.125 366.5625,223.125 Q367.4609,223.125 368.2422,223.4375 Q369.0234,223.75 369.6875,224.375 Z " fill="#000000"/><text fill="#000000" font-family="sans-serif" font-size="15" lengthAdjust="spacing" textLength="186.25" x="392.8125" y="234.8877">CreateParameterController</text><line style="stroke:#A80036;stroke-width:1.875;" x1="260" x2="671.25" y1="248.75" y2="248.75"/><text fill="#000000" font-family="sans-serif" font-size="13.75" lengthAdjust="spacing" textLength="120" x="266.25" y="268.0237">-Company company</text><text fill="#000000" font-family="sans-serif" font-size="13.75" lengthAdjust="spacing" textLength="92.5" x="266.25" y="285.3186">-Parameter prm</text><line style="stroke:#A80036;stroke-width:1.875;" x1="260" x2="671.25" y1="293.3398" y2="293.3398"/><text fill="#000000" font-family="sans-serif" font-size="13.75" lengthAdjust="spacing" textLength="398.75" x="266.25" y="312.6135">+createParameter(parameterCode,shortName,description,pcCode)</text><text fill="#000000" font-family="sans-serif" font-size="13.75" lengthAdjust="spacing" textLength="162.5" x="266.25" y="329.9084">+getParameterCategories()</text><text fill="#000000" font-family="sans-serif" font-size="13.75" lengthAdjust="spacing" textLength="188.75" x="266.25" y="347.2034">+getParameterCategoriesDTO()</text><text fill="#000000" font-family="sans-serif" font-size="13.75" lengthAdjust="spacing" textLength="108.75" x="266.25" y="364.4983">+saveParameter()</text><!--MD5=[5518e6815e09c51d4db6e17774f331d2]
class CreateParameterUI--><rect codeLine="71" fill="#FEFECE" filter="url(#fctpkgyvjdz3d)" height="40" id="CreateParameterUI" style="stroke:#A80036;stroke-width:1.875;" width="173.75" x="8.75" y="161.875"/><ellipse cx="27.5" cy="181.875" fill="#ADD1B2" rx="13.75" ry="13.75" style="stroke:#A80036;stroke-width:1.25;"/><path d="M30,177.5 Q30.2539,176.875 30.5469,176.5625 Q30.8398,176.25 31.1719,176.25 Q31.7578,176.25 32.1289,176.6016 Q32.5,176.9531 32.5,177.7734 L32.5,179.7266 Q32.5,180.5469 32.1484,180.8984 Q31.7969,181.25 31.25,181.25 Q30.7617,181.25 30.4492,181.0352 Q30.1367,180.8203 30,180.2539 Q29.9414,179.8633 29.7266,179.6484 Q29.3359,179.2383 28.6328,179.0039 Q27.9297,178.75 27.2266,178.75 Q26.3477,178.75 25.6055,179.1016 Q24.8828,179.4531 24.3164,180.2344 Q23.75,181.0156 23.75,182.0898 L23.75,183.2422 Q23.75,184.5313 24.8047,185.3906 Q25.8594,186.25 27.7344,186.25 Q28.8477,186.25 29.6289,185.9961 Q30.0781,185.8594 30.5859,185.4102 Q30.918,185.1563 31.0938,185.0781 Q31.2695,185 31.4844,185 Q31.8945,185 32.1875,185.332 Q32.5,185.6445 32.5,186.0938 Q32.5,186.5234 32.0703,187.0313 Q31.4453,187.7734 30.4492,188.1836 Q29.1406,188.75 27.5391,188.75 Q25.6641,188.75 24.1602,188.0078 Q22.9492,187.4219 22.0898,186.1523 Q21.25,184.8828 21.25,183.3789 L21.25,182.0117 Q21.25,180.4492 21.9922,179.082 Q22.7539,177.7148 24.0625,176.9922 Q25.3906,176.25 26.875,176.25 Q27.7734,176.25 28.5547,176.5625 Q29.3359,176.875 30,177.5 Z " fill="#000000"/><text fill="#000000" font-family="sans-serif" font-size="15" lengthAdjust="spacing" textLength="133.75" x="45" y="188.0127">CreateParameterUI</text><!--MD5=[9d3dd688f78c4545f26622cd23f9dd25]
link CreateParameterUI to CreateParameterController--><path codeLine="74" d="M164.7125,201.95 C190.175,209.4875 220.675,218.5125 252.3125,227.875 " fill="none" id="CreateParameterUI-to-CreateParameterController" style="stroke:#A80036;stroke-width:1.25;stroke-dasharray:7.0,7.0;"/><polygon fill="#A80036" points="258.65,229.75,249.2937,221.7486,252.6597,227.9672,246.4411,231.3332,258.65,229.75" style="stroke:#A80036;stroke-width:1.25;"/><!--MD5=[6d585fb02c26694275539b4f1508918e]
link CreateParameterController to Company--><path codeLine="75" d="M672.6375,355.9125 C695.95,363.3125 719.4875,370.775 742.1875,377.975 " fill="none" id="CreateParameterController-to-Company" style="stroke:#A80036;stroke-width:1.25;stroke-dasharray:7.0,7.0;"/><polygon fill="#A80036" points="748.575,380,739.3645,371.8312,742.6178,378.1094,736.3396,381.3627,748.575,380" style="stroke:#A80036;stroke-width:1.25;"/><!--MD5=[d4acd0f9b6f472dc8c1d58fc6da00ca5]
link CreateParameterController to ParameterCategoryStore--><path codeLine="76" d="M672.6125,298.7125 C838.0125,305.225 1067.425,314.2375 1221.6125,320.3 " fill="none" id="CreateParameterController-to-ParameterCategoryStore" style="stroke:#A80036;stroke-width:1.25;stroke-dasharray:7.0,7.0;"/><polygon fill="#A80036" points="1227.9875,320.55,1216.947,315.1031,1221.7425,320.2995,1216.5461,325.0951,1227.9875,320.55" style="stroke:#A80036;stroke-width:1.25;"/><!--MD5=[46706d5726812879537e05899d80bc9e]
link CreateParameterController to ParameterStore--><path codeLine="77" d="M537.3125,372.575 C589.5125,426.8875 665.7625,493.8125 748.75,525.625 C890.025,579.775 1061.95,583.075 1192.0125,574.275 " fill="none" id="CreateParameterController-to-ParameterStore" style="stroke:#A80036;stroke-width:1.25;stroke-dasharray:7.0,7.0;"/><polygon fill="#A80036" points="1198.5625,573.8125,1186.9968,569.5938,1192.3271,574.2401,1187.6809,579.5704,1198.5625,573.8125" style="stroke:#A80036;stroke-width:1.25;"/><!--MD5=[1890845a8958533c6f74c90e74f302d7]
link CreateParameterController to CategoriesMapper--><path codeLine="78" d="M672.6375,239.9125 C724.25,227.1875 776.95,214.2 819.375,203.75 " fill="none" id="CreateParameterController-to-CategoriesMapper" style="stroke:#A80036;stroke-width:1.25;stroke-dasharray:7.0,7.0;"/><polygon fill="#A80036" points="825.5625,202.225,813.4416,200.0692,819.4949,203.724,815.8401,209.7773,825.5625,202.225" style="stroke:#A80036;stroke-width:1.25;"/><!--MD5=[faddff114592b8b1e2cc0b3da6aa4488]
link CategoriesMapper to ParameterCategory--><path codeLine="79" d="M993.525,182.6375 C1215.025,185.725 1838.55,201.3625 2350,280.625 C2360.0875,282.1875 2370.55,284.1625 2380.9375,286.3625 " fill="none" id="CategoriesMapper-to-ParameterCategory" style="stroke:#A80036;stroke-width:1.25;stroke-dasharray:7.0,7.0;"/><polygon fill="#A80036" points="2387.3875,287.7625,2377.4494,280.4964,2381.2789,286.4407,2375.3345,290.2703,2387.3875,287.7625" style="stroke:#A80036;stroke-width:1.25;"/><!--MD5=[27fe8888fcd579b8f600d3dac6e95bb7]
link CategoriesMapper to CategoriesDto--><path codeLine="80" d="M993.3625,163.0625 C1076.3625,144.175 1204.1375,115.1125 1291.8375,95.1625 " fill="none" id="CategoriesMapper-to-CategoriesDto" style="stroke:#A80036;stroke-width:1.25;stroke-dasharray:7.0,7.0;"/><polygon fill="#A80036" points="1298.075,93.75,1285.9933,91.3844,1291.9824,95.1436,1288.2231,101.1326,1298.075,93.75" style="stroke:#A80036;stroke-width:1.25;"/><!--MD5=[1a1bd99bc525d8c25287190584ac1637]
link CreateParameterUI to CategoriesDto--><path codeLine="81" d="M182.75,172.725 C307.3625,159.6125 545.6375,135.2 748.75,118.125 C941.125,101.9625 1166.375,87.05 1291.8,79.1125 " fill="none" id="CreateParameterUI-to-CategoriesDto" style="stroke:#A80036;stroke-width:1.25;stroke-dasharray:7.0,7.0;"/><polygon fill="#A80036" points="1298.075,78.725,1286.5335,74.4406,1291.8373,79.1171,1287.1608,84.4209,1298.075,78.725" style="stroke:#A80036;stroke-width:1.25;"/><!--MD5=[d6274e3b73b5bc8f467c6cfbf5bf003e]
link ParameterCategoryStore to ParameterCategory--><path codeLine="82" d="M1552.05,324.4625 C1784.5625,320.9625 2206.525,314.625 2387.2375,311.9125 " fill="none" id="ParameterCategoryStore-ParameterCategory" style="stroke:#A80036;stroke-width:1.25;"/><polygon fill="#000000" points="1978.7493,303.2508,1967.389,299.7475,1967.4994,307.0939,1978.7493,303.2508" style="stroke:#000000;stroke-width:1.25;"/><text fill="#000000" font-family="sans-serif" font-size="16.25" lengthAdjust="spacing" textLength="48.75" x="1983.75" y="309.9939">adopts</text><!--MD5=[d53d7490e5836ca5709858d7326f212b]
link Company to ParameterCategoryStore--><path codeLine="83" d="M1070.1625,396 C1120.95,384.9875 1177.1375,372.8 1228,361.7625 " fill="none" id="Company-ParameterCategoryStore" style="stroke:#A80036;stroke-width:1.25;"/><polygon fill="#000000" points="1119.858,365.7698,1108.0298,364.5764,1109.5873,371.7568,1119.858,365.7698" style="stroke:#000000;stroke-width:1.25;"/><text fill="#000000" font-family="sans-serif" font-size="16.25" lengthAdjust="spacing" textLength="35" x="1125" y="373.7439">uses</text><text fill="#000000" font-family="sans-serif" font-size="16.25" lengthAdjust="spacing" textLength="8.75" x="1080.2271" y="411.3749">1</text><text fill="#000000" font-family="sans-serif" font-size="16.25" lengthAdjust="spacing" textLength="8.75" x="1209.6314" y="381.2569">1</text><!--MD5=[daf3d7412afa2c7651483be0b6e971d1]
link Company to ParameterStore--><path codeLine="84" d="M1070.1625,470.25 C1111.3125,480.4625 1156,491.5625 1198.525,502.125 " fill="none" id="Company-ParameterStore" style="stroke:#A80036;stroke-width:1.25;"/><polygon fill="#000000" points="1119.8158,472.351,1109.728,466.0608,1107.9573,473.1915,1119.8158,472.351" style="stroke:#000000;stroke-width:1.25;"/><text fill="#000000" font-family="sans-serif" font-size="16.25" lengthAdjust="spacing" textLength="35" x="1125" y="477.4939">uses</text><text fill="#000000" font-family="sans-serif" font-size="16.25" lengthAdjust="spacing" textLength="8.75" x="1080.2271" y="490.1495">1</text><text fill="#000000" font-family="sans-serif" font-size="16.25" lengthAdjust="spacing" textLength="8.75" x="1180.2885" y="517.1898">1</text><!--MD5=[a0992dda039fed1bb57aff5aacace800]
link ParameterStore to Parameter--><path codeLine="85" d="M1581.3875,549.375 C1658.3,549.375 1746.5875,549.375 1822.075,549.375 " fill="none" id="ParameterStore-Parameter" style="stroke:#A80036;stroke-width:1.25;"/><polygon fill="#000000" points="1631.25,538.3447,1619.9436,534.6711,1619.9436,542.0184,1631.25,538.3447" style="stroke:#000000;stroke-width:1.25;"/><text fill="#000000" font-family="sans-serif" font-size="16.25" lengthAdjust="spacing" textLength="147.5" x="1636.25" y="544.9939">capable of analysing</text><text fill="#000000" font-family="sans-serif" font-size="16.25" lengthAdjust="spacing" textLength="8.75" x="1591.4815" y="566.7598">1</text><text fill="#000000" font-family="sans-serif" font-size="16.25" lengthAdjust="spacing" textLength="6.25" x="1806.4896" y="566.7804">*</text><!--MD5=[6df8849671cb880f6936e94aa30db6f9]
link Parameter to ParameterCategory--><path codeLine="86" d="M2177.625,460.1375 C2249.3625,423.8375 2328.9375,383.575 2387.425,353.9875 " fill="none" id="Parameter-ParameterCategory" style="stroke:#A80036;stroke-width:1.25;"/><polygon fill="#000000" points="2226.8268,360.5231,2215.0797,362.3495,2218.3968,368.9054,2226.8268,360.5231" style="stroke:#000000;stroke-width:1.25;"/><text fill="#000000" font-family="sans-serif" font-size="16.25" lengthAdjust="spacing" textLength="116.25" x="2232.5" y="369.9939">presented under</text><text fill="#000000" font-family="sans-serif" font-size="16.25" lengthAdjust="spacing" textLength="6.25" x="2187.5098" y="472.6953">*</text><text fill="#000000" font-family="sans-serif" font-size="16.25" lengthAdjust="spacing" textLength="8.75" x="2368.6863" y="376.7506">1</text><!--MD5=[e345c8f3ecb3a18add741e782d862b1c]
@startuml
hide empty methods
hide empty attributes
left to right direction
skinparam classAttributeIconSize 0

class CategoriesDto {
    -String code
    -String name
    +CategoriesDto(name,code)
    +getCode()
}

class CategoriesMapper {
    +toDTO(category)
    +toDTO(categories)
}

class ParameterCategoryStore {
    -List<ParameterCategory> parameterCategoriesList
    +getParameterCategoriesStore()
    +getCategoryByCode(code)
}

class ParameterStore {
    -list<Parameter> prmList
    +createParameter(parameterCode,shortName,description,pc)
    +validateParameter(prm)
    +saveParameter(prm)
}

class Parameter {
  -int CODE_LENGTH
  -int NAME_MAX_LENGTH
  -int DESCRIPTION_MAX_LENGTH
  -String parameterCode
  -String shortName
  -String description
  -ParameterCategory pc
  +Parameter(parameterCode, shortName, description, pc)
  +getPrmCode()
  +checkParameterCategory(pc)
  +checkParameterCodeRules(parameterCode)
  +checkShortNameRules(shortName)
  +checkDescriptionRules(description)
  +equals(parameterObject)
}

class ParameterCategory {
   -String code
   -String name
   +getCode()
}

class Company {
  -String designation
  -ParameterCategoryStore parameterCategoryStore
  -ParameterStore parameterStore
  +getParameterStore()
  +getParameterCategoryStore()
}

class CreateParameterController {
  -Company company
  -Parameter prm
  +createParameter(parameterCode,shortName,description,pcCode)
  +getParameterCategories()
  +getParameterCategoriesDTO()
  +saveParameter()
}

class CreateParameterUI {
}

CreateParameterUI ..> CreateParameterController
CreateParameterController ..> Company
CreateParameterController ..> ParameterCategoryStore
CreateParameterController ..> ParameterStore
CreateParameterController ..> CategoriesMapper
CategoriesMapper ..> ParameterCategory
CategoriesMapper ..> CategoriesDto
CreateParameterUI ..> CategoriesDto
ParameterCategoryStore - - ParameterCategory : adopts >
Company "1" - - "1" ParameterCategoryStore : uses >
Company "1" - - "1" ParameterStore : uses >
ParameterStore "1" - - "*" Parameter : capable of analysing >
Parameter "*" - - "1" ParameterCategory : presented under >


@enduml

PlantUML version 1.2021.5(Sun Apr 25 12:20:28 BST 2021)
(GPL source distribution)
Java Runtime: OpenJDK Runtime Environment
JVM: Dynamic Code Evolution 64-Bit Server VM
Default Encoding: Cp1252
Language: pt
Country: PT
--></g></svg>