<?xml version="1.0" encoding="UTF-8" standalone="no"?><svg xmlns="http://www.w3.org/2000/svg" xmlns:xlink="http://www.w3.org/1999/xlink" contentScriptType="application/ecmascript" contentStyleType="text/css" height="267.5px" preserveAspectRatio="none" style="width:1393px;height:267px;" version="1.1" viewBox="0 0 1393 267" width="1393.75px" zoomAndPan="magnify"><defs><filter height="300%" id="facin82gef4" width="300%" x="-1" y="-1"><feGaussianBlur result="blurOut" stdDeviation="2.5"/><feColorMatrix in="blurOut" result="blurOut2" type="matrix" values="0 0 0 0 0 0 0 0 0 0 0 0 0 0 0 0 0 0 .4 0"/><feOffset dx="5.0" dy="5.0" in="blurOut2" result="blurOut3"/><feBlend in="SourceGraphic" in2="blurOut3" mode="normal"/></filter></defs><g><!--MD5=[02e4b9b7573f1156f41e60aa5b4e25a4]
class Company--><rect codeLine="6" fill="#FEFECE" filter="url(#facin82gef4)" height="146.4746" id="Company" style="stroke:#A80036;stroke-width:1.875;" width="297.5" x="693.75" y="8.75"/><ellipse cx="804.0625" cy="28.75" fill="#ADD1B2" rx="13.75" ry="13.75" style="stroke:#A80036;stroke-width:1.25;"/><path d="M806.5625,24.375 Q806.8164,23.75 807.1094,23.4375 Q807.4023,23.125 807.7344,23.125 Q808.3203,23.125 808.6914,23.4766 Q809.0625,23.8281 809.0625,24.6484 L809.0625,26.6016 Q809.0625,27.4219 808.7109,27.7734 Q808.3594,28.125 807.8125,28.125 Q807.3242,28.125 807.0117,27.9102 Q806.6992,27.6953 806.5625,27.1289 Q806.5039,26.7383 806.2891,26.5234 Q805.8984,26.1133 805.1953,25.8789 Q804.4922,25.625 803.7891,25.625 Q802.9102,25.625 802.168,25.9766 Q801.4453,26.3281 800.8789,27.1094 Q800.3125,27.8906 800.3125,28.9648 L800.3125,30.1172 Q800.3125,31.4063 801.3672,32.2656 Q802.4219,33.125 804.2969,33.125 Q805.4102,33.125 806.1914,32.8711 Q806.6406,32.7344 807.1484,32.2852 Q807.4805,32.0313 807.6563,31.9531 Q807.832,31.875 808.0469,31.875 Q808.457,31.875 808.75,32.207 Q809.0625,32.5195 809.0625,32.9688 Q809.0625,33.3984 808.6328,33.9063 Q808.0078,34.6484 807.0117,35.0586 Q805.7031,35.625 804.1016,35.625 Q802.2266,35.625 800.7227,34.8828 Q799.5117,34.2969 798.6523,33.0273 Q797.8125,31.7578 797.8125,30.2539 L797.8125,28.8867 Q797.8125,27.3242 798.5547,25.957 Q799.3164,24.5898 800.625,23.8672 Q801.9531,23.125 803.4375,23.125 Q804.3359,23.125 805.1172,23.4375 Q805.8984,23.75 806.5625,24.375 Z " fill="#000000"/><text fill="#000000" font-family="sans-serif" font-size="15" lengthAdjust="spacing" textLength="66.25" x="829.6875" y="34.8877">Company</text><line style="stroke:#A80036;stroke-width:1.875;" x1="695" x2="990" y1="48.75" y2="48.75"/><text fill="#000000" font-family="sans-serif" font-size="13.75" lengthAdjust="spacing" textLength="112.5" x="701.25" y="68.0237">-String designation</text><line style="stroke:#A80036;stroke-width:1.875;" x1="695" x2="990" y1="76.0449" y2="76.0449"/><text fill="#000000" font-family="sans-serif" font-size="13.75" lengthAdjust="spacing" textLength="282.5" x="701.25" y="95.3186">+createParameterCategory(code, name, nhsId)</text><text fill="#000000" font-family="sans-serif" font-size="13.75" lengthAdjust="spacing" textLength="195" x="701.25" y="112.6135">+validateParameterCategory(pc)</text><text fill="#000000" font-family="sans-serif" font-size="13.75" lengthAdjust="spacing" textLength="178.75" x="701.25" y="129.9084">+saveParameterCategory(pc)</text><text fill="#000000" font-family="sans-serif" font-size="13.75" lengthAdjust="spacing" textLength="171.25" x="701.25" y="147.2034">+addParameterCategory(pc)</text><!--MD5=[36afb6bbd95a8ac778c4537c55a683d5]
class ParameterCategory--><rect codeLine="14" fill="#FEFECE" filter="url(#facin82gef4)" height="129.1797" id="ParameterCategory" style="stroke:#A80036;stroke-width:1.875;" width="258.75" x="1117.5" y="121.25"/><ellipse cx="1174.6875" cy="141.25" fill="#ADD1B2" rx="13.75" ry="13.75" style="stroke:#A80036;stroke-width:1.25;"/><path d="M1177.1875,136.875 Q1177.4414,136.25 1177.7344,135.9375 Q1178.0273,135.625 1178.3594,135.625 Q1178.9453,135.625 1179.3164,135.9766 Q1179.6875,136.3281 1179.6875,137.1484 L1179.6875,139.1016 Q1179.6875,139.9219 1179.3359,140.2734 Q1178.9844,140.625 1178.4375,140.625 Q1177.9492,140.625 1177.6367,140.4102 Q1177.3242,140.1953 1177.1875,139.6289 Q1177.1289,139.2383 1176.9141,139.0234 Q1176.5234,138.6133 1175.8203,138.3789 Q1175.1172,138.125 1174.4141,138.125 Q1173.5352,138.125 1172.793,138.4766 Q1172.0703,138.8281 1171.5039,139.6094 Q1170.9375,140.3906 1170.9375,141.4648 L1170.9375,142.6172 Q1170.9375,143.9063 1171.9922,144.7656 Q1173.0469,145.625 1174.9219,145.625 Q1176.0352,145.625 1176.8164,145.3711 Q1177.2656,145.2344 1177.7734,144.7852 Q1178.1055,144.5313 1178.2813,144.4531 Q1178.457,144.375 1178.6719,144.375 Q1179.082,144.375 1179.375,144.707 Q1179.6875,145.0195 1179.6875,145.4688 Q1179.6875,145.8984 1179.2578,146.4063 Q1178.6328,147.1484 1177.6367,147.5586 Q1176.3281,148.125 1174.7266,148.125 Q1172.8516,148.125 1171.3477,147.3828 Q1170.1367,146.7969 1169.2773,145.5273 Q1168.4375,144.2578 1168.4375,142.7539 L1168.4375,141.3867 Q1168.4375,139.8242 1169.1797,138.457 Q1169.9414,137.0898 1171.25,136.3672 Q1172.5781,135.625 1174.0625,135.625 Q1174.9609,135.625 1175.7422,135.9375 Q1176.5234,136.25 1177.1875,136.875 Z " fill="#000000"/><text fill="#000000" font-family="sans-serif" font-size="15" lengthAdjust="spacing" textLength="133.75" x="1200.3125" y="147.3877">ParameterCategory</text><line style="stroke:#A80036;stroke-width:1.875;" x1="1118.75" x2="1375" y1="161.25" y2="161.25"/><text fill="#000000" font-family="sans-serif" font-size="13.75" lengthAdjust="spacing" textLength="73.75" x="1125" y="180.5237">-String code</text><text fill="#000000" font-family="sans-serif" font-size="13.75" lengthAdjust="spacing" textLength="76.25" x="1125" y="197.8186">-String name</text><text fill="#000000" font-family="sans-serif" font-size="13.75" lengthAdjust="spacing" textLength="76.25" x="1125" y="215.1135">-String nhsId</text><line style="stroke:#A80036;stroke-width:1.875;" x1="1118.75" x2="1375" y1="223.1348" y2="223.1348"/><text fill="#000000" font-family="sans-serif" font-size="13.75" lengthAdjust="spacing" textLength="243.75" x="1125" y="242.4084">+ParameterCategory(code, name, nhsId)</text><!--MD5=[43bb81d93caae6cc68206df5797cd1c4]
class CreateParameterCategoryController--><rect codeLine="21" fill="#FEFECE" filter="url(#facin82gef4)" height="84.5898" id="CreateParameterCategoryController" style="stroke:#A80036;stroke-width:1.875;" width="297.5" x="320" y="154.375"/><ellipse cx="343.25" cy="174.375" fill="#ADD1B2" rx="13.75" ry="13.75" style="stroke:#A80036;stroke-width:1.25;"/><path d="M345.75,170 Q346.0039,169.375 346.2969,169.0625 Q346.5898,168.75 346.9219,168.75 Q347.5078,168.75 347.8789,169.1016 Q348.25,169.4531 348.25,170.2734 L348.25,172.2266 Q348.25,173.0469 347.8984,173.3984 Q347.5469,173.75 347,173.75 Q346.5117,173.75 346.1992,173.5352 Q345.8867,173.3203 345.75,172.7539 Q345.6914,172.3633 345.4766,172.1484 Q345.0859,171.7383 344.3828,171.5039 Q343.6797,171.25 342.9766,171.25 Q342.0977,171.25 341.3555,171.6016 Q340.6328,171.9531 340.0664,172.7344 Q339.5,173.5156 339.5,174.5898 L339.5,175.7422 Q339.5,177.0313 340.5547,177.8906 Q341.6094,178.75 343.4844,178.75 Q344.5977,178.75 345.3789,178.4961 Q345.8281,178.3594 346.3359,177.9102 Q346.668,177.6563 346.8438,177.5781 Q347.0195,177.5 347.2344,177.5 Q347.6445,177.5 347.9375,177.832 Q348.25,178.1445 348.25,178.5938 Q348.25,179.0234 347.8203,179.5313 Q347.1953,180.2734 346.1992,180.6836 Q344.8906,181.25 343.2891,181.25 Q341.4141,181.25 339.9102,180.5078 Q338.6992,179.9219 337.8398,178.6523 Q337,177.3828 337,175.8789 L337,174.5117 Q337,172.9492 337.7422,171.582 Q338.5039,170.2148 339.8125,169.4922 Q341.1406,168.75 342.625,168.75 Q343.5234,168.75 344.3047,169.0625 Q345.0859,169.375 345.75,170 Z " fill="#000000"/><text fill="#000000" font-family="sans-serif" font-size="15" lengthAdjust="spacing" textLength="247.5" x="361.75" y="180.5127">CreateParameterCategoryController</text><line style="stroke:#A80036;stroke-width:1.875;" x1="321.25" x2="616.25" y1="194.375" y2="194.375"/><text fill="#000000" font-family="sans-serif" font-size="13.75" lengthAdjust="spacing" textLength="282.5" x="327.5" y="213.6487">+createParameterCategory(code, name, nhsId)</text><text fill="#000000" font-family="sans-serif" font-size="13.75" lengthAdjust="spacing" textLength="163.75" x="327.5" y="230.9436">+saveParameterCategory()</text><!--MD5=[6017f56a87b244e108fd0d8749edd53c]
class CreateParameterCategoryUI--><rect codeLine="26" fill="#FEFECE" filter="url(#facin82gef4)" height="40" id="CreateParameterCategoryUI" style="stroke:#A80036;stroke-width:1.875;" width="235" x="8.75" y="176.875"/><ellipse cx="27.5" cy="196.875" fill="#ADD1B2" rx="13.75" ry="13.75" style="stroke:#A80036;stroke-width:1.25;"/><path d="M30,192.5 Q30.2539,191.875 30.5469,191.5625 Q30.8398,191.25 31.1719,191.25 Q31.7578,191.25 32.1289,191.6016 Q32.5,191.9531 32.5,192.7734 L32.5,194.7266 Q32.5,195.5469 32.1484,195.8984 Q31.7969,196.25 31.25,196.25 Q30.7617,196.25 30.4492,196.0352 Q30.1367,195.8203 30,195.2539 Q29.9414,194.8633 29.7266,194.6484 Q29.3359,194.2383 28.6328,194.0039 Q27.9297,193.75 27.2266,193.75 Q26.3477,193.75 25.6055,194.1016 Q24.8828,194.4531 24.3164,195.2344 Q23.75,196.0156 23.75,197.0898 L23.75,198.2422 Q23.75,199.5313 24.8047,200.3906 Q25.8594,201.25 27.7344,201.25 Q28.8477,201.25 29.6289,200.9961 Q30.0781,200.8594 30.5859,200.4102 Q30.918,200.1563 31.0938,200.0781 Q31.2695,200 31.4844,200 Q31.8945,200 32.1875,200.332 Q32.5,200.6445 32.5,201.0938 Q32.5,201.5234 32.0703,202.0313 Q31.4453,202.7734 30.4492,203.1836 Q29.1406,203.75 27.5391,203.75 Q25.6641,203.75 24.1602,203.0078 Q22.9492,202.4219 22.0898,201.1523 Q21.25,199.8828 21.25,198.3789 L21.25,197.0117 Q21.25,195.4492 21.9922,194.082 Q22.7539,192.7148 24.0625,191.9922 Q25.3906,191.25 26.875,191.25 Q27.7734,191.25 28.5547,191.5625 Q29.3359,191.875 30,192.5 Z " fill="#000000"/><text fill="#000000" font-family="sans-serif" font-size="15" lengthAdjust="spacing" textLength="195" x="45" y="203.0127">CreateParameterCategoryUI</text><!--MD5=[93b1b9218398b0464d36d46d0f539949]
link CreateParameterCategoryUI to CreateParameterCategoryController--><path codeLine="29" d="M244.0375,196.875 C266.35,196.875 290.0375,196.875 313.3125,196.875 " fill="none" id="CreateParameterCategoryUI-to-CreateParameterCategoryController" style="stroke:#A80036;stroke-width:1.25;stroke-dasharray:7.0,7.0;"/><polygon fill="#A80036" points="319.875,196.875,308.625,191.875,313.625,196.875,308.625,201.875,319.875,196.875" style="stroke:#A80036;stroke-width:1.25;"/><!--MD5=[a00c31f7a5d66db29f7adf0293377a3b]
link CreateParameterCategoryController to Company--><path codeLine="30" d="M607.7125,154.2125 C633.7125,146.1625 661.05,137.7 687.5,129.5 " fill="none" id="CreateParameterCategoryController-to-Company" style="stroke:#A80036;stroke-width:1.25;stroke-dasharray:7.0,7.0;"/><polygon fill="#A80036" points="693.4875,127.65,681.2597,126.2207,687.5201,129.5081,684.2327,135.7685,693.4875,127.65" style="stroke:#A80036;stroke-width:1.25;"/><!--MD5=[869a0022b647c5cba08cf9438b652be2]
link CreateParameterCategoryController to ParameterCategory--><path codeLine="31" d="M617.7125,194.7375 C759.95,192.675 973.2375,189.575 1110.925,187.575 " fill="none" id="CreateParameterCategoryController-to-ParameterCategory" style="stroke:#A80036;stroke-width:1.25;stroke-dasharray:7.0,7.0;"/><polygon fill="#A80036" points="1117.425,187.4875,1106.1047,182.6487,1111.1756,187.5768,1106.2476,192.6477,1117.425,187.4875" style="stroke:#A80036;stroke-width:1.25;"/><!--MD5=[93b4f25fb503a8e0e9a46b1d30ff3f44]
link Company to ParameterCategory--><path codeLine="32" d="M991.6875,120.0625 C1030.775,130.1625 1072.7375,140.9875 1111.075,150.8875 " fill="none" id="Company-to-ParameterCategory" style="stroke:#A80036;stroke-width:1.25;"/><polygon fill="#A80036" points="1117.2,152.475,1107.5672,144.8087,1111.1505,150.9046,1105.0546,154.4879,1117.2,152.475" style="stroke:#A80036;stroke-width:1.25;"/><text fill="#000000" font-family="sans-serif" font-size="16.25" lengthAdjust="spacing" textLength="48.75" x="1030" y="127.4939">adopts</text><text fill="#000000" font-family="sans-serif" font-size="16.25" lengthAdjust="spacing" textLength="8.75" x="1001.0452" y="139.8744">1</text><text fill="#000000" font-family="sans-serif" font-size="16.25" lengthAdjust="spacing" textLength="6.25" x="1101.1975" y="167.6442">*</text><!--MD5=[8cb6c63fb1795083948061d18f3c6ca1]
@startuml
hide empty methods
hide empty attributes
left to right direction
skinparam classAttributeIconSize 0

class Company {
  -String designation
  +createParameterCategory(code, name, nhsId)
  +validateParameterCategory(pc)
  +saveParameterCategory(pc)
  +addParameterCategory(pc)
}

class ParameterCategory {
   -String code
   -String name
   -String nhsId
   +ParameterCategory(code, name, nhsId)
}

class CreateParameterCategoryController {
  +createParameterCategory(code, name, nhsId)
  +saveParameterCategory()
}

class CreateParameterCategoryUI {
}

CreateParameterCategoryUI ..> CreateParameterCategoryController
CreateParameterCategoryController ..> Company
CreateParameterCategoryController ..> ParameterCategory
Company "1" - -> "*" ParameterCategory : adopts


@enduml

PlantUML version 1.2021.4(Sun Apr 04 09:49:39 BST 2021)
(GPL source distribution)
Java Runtime: OpenJDK Runtime Environment
JVM: Dynamic Code Evolution 64-Bit Server VM
Default Encoding: Cp1252
Language: pt
Country: PT
--></g></svg>