<?xml version="1.0" encoding="UTF-8" standalone="no"?><svg xmlns="http://www.w3.org/2000/svg" xmlns:xlink="http://www.w3.org/1999/xlink" contentScriptType="application/ecmascript" contentStyleType="text/css" height="267.5px" preserveAspectRatio="none" style="width:1495px;height:267px;" version="1.1" viewBox="0 0 1495 267" width="1495px" zoomAndPan="magnify"><defs><filter height="300%" id="f1mhgqc8hkmydk" width="300%" x="-1" y="-1"><feGaussianBlur result="blurOut" stdDeviation="2.5"/><feColorMatrix in="blurOut" result="blurOut2" type="matrix" values="0 0 0 0 0 0 0 0 0 0 0 0 0 0 0 0 0 0 .4 0"/><feOffset dx="5.0" dy="5.0" in="blurOut2" result="blurOut3"/><feBlend in="SourceGraphic" in2="blurOut3" mode="normal"/></filter></defs><g><!--MD5=[02e4b9b7573f1156f41e60aa5b4e25a4]
class Company--><rect codeLine="6" fill="#FEFECE" filter="url(#f1mhgqc8hkmydk)" height="146.4746" id="Company" style="stroke:#A80036;stroke-width:1.875;" width="331.25" x="727.5" y="8.75"/><ellipse cx="854.6875" cy="28.75" fill="#ADD1B2" rx="13.75" ry="13.75" style="stroke:#A80036;stroke-width:1.25;"/><path d="M857.1875,24.375 Q857.4414,23.75 857.7344,23.4375 Q858.0273,23.125 858.3594,23.125 Q858.9453,23.125 859.3164,23.4766 Q859.6875,23.8281 859.6875,24.6484 L859.6875,26.6016 Q859.6875,27.4219 859.3359,27.7734 Q858.9844,28.125 858.4375,28.125 Q857.9492,28.125 857.6367,27.9102 Q857.3242,27.6953 857.1875,27.1289 Q857.1289,26.7383 856.9141,26.5234 Q856.5234,26.1133 855.8203,25.8789 Q855.1172,25.625 854.4141,25.625 Q853.5352,25.625 852.793,25.9766 Q852.0703,26.3281 851.5039,27.1094 Q850.9375,27.8906 850.9375,28.9648 L850.9375,30.1172 Q850.9375,31.4063 851.9922,32.2656 Q853.0469,33.125 854.9219,33.125 Q856.0352,33.125 856.8164,32.8711 Q857.2656,32.7344 857.7734,32.2852 Q858.1055,32.0313 858.2813,31.9531 Q858.457,31.875 858.6719,31.875 Q859.082,31.875 859.375,32.207 Q859.6875,32.5195 859.6875,32.9688 Q859.6875,33.3984 859.2578,33.9063 Q858.6328,34.6484 857.6367,35.0586 Q856.3281,35.625 854.7266,35.625 Q852.8516,35.625 851.3477,34.8828 Q850.1367,34.2969 849.2773,33.0273 Q848.4375,31.7578 848.4375,30.2539 L848.4375,28.8867 Q848.4375,27.3242 849.1797,25.957 Q849.9414,24.5898 851.25,23.8672 Q852.5781,23.125 854.0625,23.125 Q854.9609,23.125 855.7422,23.4375 Q856.5234,23.75 857.1875,24.375 Z " fill="#000000"/><text fill="#000000" font-family="sans-serif" font-size="15" lengthAdjust="spacing" textLength="66.25" x="880.3125" y="34.8877">Company</text><line style="stroke:#A80036;stroke-width:1.875;" x1="728.75" x2="1057.5" y1="48.75" y2="48.75"/><text fill="#000000" font-family="sans-serif" font-size="13.75" lengthAdjust="spacing" textLength="73.75" x="735" y="68.0237">-designation</text><line style="stroke:#A80036;stroke-width:1.875;" x1="728.75" x2="1057.5" y1="76.0449" y2="76.0449"/><text fill="#000000" font-family="sans-serif" font-size="13.75" lengthAdjust="spacing" textLength="316.25" x="735" y="95.3186">+createParameterCategory(code, description, nhsId)</text><text fill="#000000" font-family="sans-serif" font-size="13.75" lengthAdjust="spacing" textLength="195" x="735" y="112.6135">+validateParameterCategory(pc)</text><text fill="#000000" font-family="sans-serif" font-size="13.75" lengthAdjust="spacing" textLength="178.75" x="735" y="129.9084">+saveParameterCategory(pc)</text><text fill="#000000" font-family="sans-serif" font-size="13.75" lengthAdjust="spacing" textLength="171.25" x="735" y="147.2034">+addParameterCategory(pc)</text><!--MD5=[36afb6bbd95a8ac778c4537c55a683d5]
class ParameterCategory--><rect codeLine="14" fill="#FEFECE" filter="url(#f1mhgqc8hkmydk)" height="129.1797" id="ParameterCategory" style="stroke:#A80036;stroke-width:1.875;" width="292.5" x="1185" y="121.25"/><ellipse cx="1259.0625" cy="141.25" fill="#ADD1B2" rx="13.75" ry="13.75" style="stroke:#A80036;stroke-width:1.25;"/><path d="M1261.5625,136.875 Q1261.8164,136.25 1262.1094,135.9375 Q1262.4023,135.625 1262.7344,135.625 Q1263.3203,135.625 1263.6914,135.9766 Q1264.0625,136.3281 1264.0625,137.1484 L1264.0625,139.1016 Q1264.0625,139.9219 1263.7109,140.2734 Q1263.3594,140.625 1262.8125,140.625 Q1262.3242,140.625 1262.0117,140.4102 Q1261.6992,140.1953 1261.5625,139.6289 Q1261.5039,139.2383 1261.2891,139.0234 Q1260.8984,138.6133 1260.1953,138.3789 Q1259.4922,138.125 1258.7891,138.125 Q1257.9102,138.125 1257.168,138.4766 Q1256.4453,138.8281 1255.8789,139.6094 Q1255.3125,140.3906 1255.3125,141.4648 L1255.3125,142.6172 Q1255.3125,143.9063 1256.3672,144.7656 Q1257.4219,145.625 1259.2969,145.625 Q1260.4102,145.625 1261.1914,145.3711 Q1261.6406,145.2344 1262.1484,144.7852 Q1262.4805,144.5313 1262.6563,144.4531 Q1262.832,144.375 1263.0469,144.375 Q1263.457,144.375 1263.75,144.707 Q1264.0625,145.0195 1264.0625,145.4688 Q1264.0625,145.8984 1263.6328,146.4063 Q1263.0078,147.1484 1262.0117,147.5586 Q1260.7031,148.125 1259.1016,148.125 Q1257.2266,148.125 1255.7227,147.3828 Q1254.5117,146.7969 1253.6523,145.5273 Q1252.8125,144.2578 1252.8125,142.7539 L1252.8125,141.3867 Q1252.8125,139.8242 1253.5547,138.457 Q1254.3164,137.0898 1255.625,136.3672 Q1256.9531,135.625 1258.4375,135.625 Q1259.3359,135.625 1260.1172,135.9375 Q1260.8984,136.25 1261.5625,136.875 Z " fill="#000000"/><text fill="#000000" font-family="sans-serif" font-size="15" lengthAdjust="spacing" textLength="133.75" x="1284.6875" y="147.3877">ParameterCategory</text><line style="stroke:#A80036;stroke-width:1.875;" x1="1186.25" x2="1476.25" y1="161.25" y2="161.25"/><text fill="#000000" font-family="sans-serif" font-size="13.75" lengthAdjust="spacing" textLength="35" x="1192.5" y="180.5237">-code</text><text fill="#000000" font-family="sans-serif" font-size="13.75" lengthAdjust="spacing" textLength="71.25" x="1192.5" y="197.8186">-description</text><text fill="#000000" font-family="sans-serif" font-size="13.75" lengthAdjust="spacing" textLength="37.5" x="1192.5" y="215.1135">-nhsId</text><line style="stroke:#A80036;stroke-width:1.875;" x1="1186.25" x2="1476.25" y1="223.1348" y2="223.1348"/><text fill="#000000" font-family="sans-serif" font-size="13.75" lengthAdjust="spacing" textLength="277.5" x="1192.5" y="242.4084">+ParameterCategory(code, description, nhsId)</text><!--MD5=[43bb81d93caae6cc68206df5797cd1c4]
class CreateParameterCategoryController--><rect codeLine="21" fill="#FEFECE" filter="url(#f1mhgqc8hkmydk)" height="84.5898" id="CreateParameterCategoryController" style="stroke:#A80036;stroke-width:1.875;" width="331.25" x="320" y="154.375"/><ellipse cx="358.4375" cy="174.375" fill="#ADD1B2" rx="13.75" ry="13.75" style="stroke:#A80036;stroke-width:1.25;"/><path d="M360.9375,170 Q361.1914,169.375 361.4844,169.0625 Q361.7773,168.75 362.1094,168.75 Q362.6953,168.75 363.0664,169.1016 Q363.4375,169.4531 363.4375,170.2734 L363.4375,172.2266 Q363.4375,173.0469 363.0859,173.3984 Q362.7344,173.75 362.1875,173.75 Q361.6992,173.75 361.3867,173.5352 Q361.0742,173.3203 360.9375,172.7539 Q360.8789,172.3633 360.6641,172.1484 Q360.2734,171.7383 359.5703,171.5039 Q358.8672,171.25 358.1641,171.25 Q357.2852,171.25 356.543,171.6016 Q355.8203,171.9531 355.2539,172.7344 Q354.6875,173.5156 354.6875,174.5898 L354.6875,175.7422 Q354.6875,177.0313 355.7422,177.8906 Q356.7969,178.75 358.6719,178.75 Q359.7852,178.75 360.5664,178.4961 Q361.0156,178.3594 361.5234,177.9102 Q361.8555,177.6563 362.0313,177.5781 Q362.207,177.5 362.4219,177.5 Q362.832,177.5 363.125,177.832 Q363.4375,178.1445 363.4375,178.5938 Q363.4375,179.0234 363.0078,179.5313 Q362.3828,180.2734 361.3867,180.6836 Q360.0781,181.25 358.4766,181.25 Q356.6016,181.25 355.0977,180.5078 Q353.8867,179.9219 353.0273,178.6523 Q352.1875,177.3828 352.1875,175.8789 L352.1875,174.5117 Q352.1875,172.9492 352.9297,171.582 Q353.6914,170.2148 355,169.4922 Q356.3281,168.75 357.8125,168.75 Q358.7109,168.75 359.4922,169.0625 Q360.2734,169.375 360.9375,170 Z " fill="#000000"/><text fill="#000000" font-family="sans-serif" font-size="15" lengthAdjust="spacing" textLength="247.5" x="380.3125" y="180.5127">CreateParameterCategoryController</text><line style="stroke:#A80036;stroke-width:1.875;" x1="321.25" x2="650" y1="194.375" y2="194.375"/><text fill="#000000" font-family="sans-serif" font-size="13.75" lengthAdjust="spacing" textLength="316.25" x="327.5" y="213.6487">+createParameterCategory(code, description, nhsId)</text><text fill="#000000" font-family="sans-serif" font-size="13.75" lengthAdjust="spacing" textLength="163.75" x="327.5" y="230.9436">+saveParameterCategory()</text><!--MD5=[6017f56a87b244e108fd0d8749edd53c]
class CreateParameterCategoryUI--><rect codeLine="26" fill="#FEFECE" filter="url(#f1mhgqc8hkmydk)" height="40" id="CreateParameterCategoryUI" style="stroke:#A80036;stroke-width:1.875;" width="235" x="8.75" y="176.875"/><ellipse cx="27.5" cy="196.875" fill="#ADD1B2" rx="13.75" ry="13.75" style="stroke:#A80036;stroke-width:1.25;"/><path d="M30,192.5 Q30.2539,191.875 30.5469,191.5625 Q30.8398,191.25 31.1719,191.25 Q31.7578,191.25 32.1289,191.6016 Q32.5,191.9531 32.5,192.7734 L32.5,194.7266 Q32.5,195.5469 32.1484,195.8984 Q31.7969,196.25 31.25,196.25 Q30.7617,196.25 30.4492,196.0352 Q30.1367,195.8203 30,195.2539 Q29.9414,194.8633 29.7266,194.6484 Q29.3359,194.2383 28.6328,194.0039 Q27.9297,193.75 27.2266,193.75 Q26.3477,193.75 25.6055,194.1016 Q24.8828,194.4531 24.3164,195.2344 Q23.75,196.0156 23.75,197.0898 L23.75,198.2422 Q23.75,199.5313 24.8047,200.3906 Q25.8594,201.25 27.7344,201.25 Q28.8477,201.25 29.6289,200.9961 Q30.0781,200.8594 30.5859,200.4102 Q30.918,200.1563 31.0938,200.0781 Q31.2695,200 31.4844,200 Q31.8945,200 32.1875,200.332 Q32.5,200.6445 32.5,201.0938 Q32.5,201.5234 32.0703,202.0313 Q31.4453,202.7734 30.4492,203.1836 Q29.1406,203.75 27.5391,203.75 Q25.6641,203.75 24.1602,203.0078 Q22.9492,202.4219 22.0898,201.1523 Q21.25,199.8828 21.25,198.3789 L21.25,197.0117 Q21.25,195.4492 21.9922,194.082 Q22.7539,192.7148 24.0625,191.9922 Q25.3906,191.25 26.875,191.25 Q27.7734,191.25 28.5547,191.5625 Q29.3359,191.875 30,192.5 Z " fill="#000000"/><text fill="#000000" font-family="sans-serif" font-size="15" lengthAdjust="spacing" textLength="195" x="45" y="203.0127">CreateParameterCategoryUI</text><!--MD5=[93b1b9218398b0464d36d46d0f539949]
link CreateParameterCategoryUI to CreateParameterCategoryController--><path codeLine="29" d="M243.8625,196.875 C266.075,196.875 289.7625,196.875 313.275,196.875 " fill="none" id="CreateParameterCategoryUI-to-CreateParameterCategoryController" style="stroke:#A80036;stroke-width:1.25;stroke-dasharray:7.0,7.0;"/><polygon fill="#A80036" points="319.9,196.875,308.65,191.875,313.65,196.875,308.65,201.875,319.9,196.875" style="stroke:#A80036;stroke-width:1.25;"/><!--MD5=[a00c31f7a5d66db29f7adf0293377a3b]
link CreateParameterCategoryController to Company--><path codeLine="30" d="M637.1125,154.2125 C664.4125,146.4625 693.0875,138.325 720.95,130.4125 " fill="none" id="CreateParameterCategoryController-to-Company" style="stroke:#A80036;stroke-width:1.25;stroke-dasharray:7.0,7.0;"/><polygon fill="#A80036" points="727.25,128.625,715.064,126.8744,721.2358,130.3255,717.7847,136.4972,727.25,128.625" style="stroke:#A80036;stroke-width:1.25;"/><!--MD5=[869a0022b647c5cba08cf9438b652be2]
link CreateParameterCategoryController to ParameterCategory--><path codeLine="31" d="M651.4375,194.675 C804.2,192.6375 1029.7625,189.625 1178.2625,187.65 " fill="none" id="CreateParameterCategoryController-to-ParameterCategory" style="stroke:#A80036;stroke-width:1.25;stroke-dasharray:7.0,7.0;"/><polygon fill="#A80036" points="1184.8375,187.5625,1173.5311,182.6914,1178.5879,187.6339,1173.6454,192.6907,1184.8375,187.5625" style="stroke:#A80036;stroke-width:1.25;"/><!--MD5=[93b4f25fb503a8e0e9a46b1d30ff3f44]
link Company to ParameterCategory--><path codeLine="32" d="M1059.0625,121.1 C1098.2875,130.4375 1139.9625,140.3625 1178.55,149.5625 " fill="none" id="Company-to-ParameterCategory" style="stroke:#A80036;stroke-width:1.25;"/><polygon fill="#A80036" points="1184.725,151.025,1174.94,143.5539,1178.6452,149.5766,1172.6225,153.2817,1184.725,151.025" style="stroke:#A80036;stroke-width:1.25;"/><text fill="#000000" font-family="sans-serif" font-size="16.25" lengthAdjust="spacing" textLength="48.75" x="1097.5" y="127.4939">adopts</text><text fill="#000000" font-family="sans-serif" font-size="16.25" lengthAdjust="spacing" textLength="8.75" x="1068.9087" y="140.8209">1</text><text fill="#000000" font-family="sans-serif" font-size="16.25" lengthAdjust="spacing" textLength="6.25" x="1168.888" y="166.3183">*</text><!--MD5=[daaa35b64ab23048652b4b813b14b954]
@startuml
hide empty methods
hide empty attributes
left to right direction
skinparam classAttributeIconSize 0

class Company {
  -designation
  +createParameterCategory(code, description, nhsId)
  +validateParameterCategory(pc)
  +saveParameterCategory(pc)
  +addParameterCategory(pc)
}

class ParameterCategory {
   -code
   -description
   -nhsId
   +ParameterCategory(code, description, nhsId)
}

class CreateParameterCategoryController {
  +createParameterCategory(code, description, nhsId)
  +saveParameterCategory()
}

class CreateParameterCategoryUI {
}

CreateParameterCategoryUI ..> CreateParameterCategoryController
CreateParameterCategoryController ..> Company
CreateParameterCategoryController ..> ParameterCategory
Company "1" - -> "*" ParameterCategory : adopts


@enduml

PlantUML version 1.2021.00(Sun Jan 10 10:25:05 GMT 2021)
(GPL source distribution)
Java Runtime: OpenJDK Runtime Environment
JVM: OpenJDK 64-Bit Server VM
Default Encoding: Cp1252
Language: pt
Country: PT
--></g></svg>