<?xml version="1.0" encoding="UTF-8" standalone="no"?><svg xmlns="http://www.w3.org/2000/svg" xmlns:xlink="http://www.w3.org/1999/xlink" contentScriptType="application/ecmascript" contentStyleType="text/css" height="596.25px" preserveAspectRatio="none" style="width:407px;height:596px;" version="1.1" viewBox="0 0 407 596" width="407.5px" zoomAndPan="magnify"><defs><filter height="300%" id="f1asqdxizfk9bh" width="300%" x="-1" y="-1"><feGaussianBlur result="blurOut" stdDeviation="2.5"/><feColorMatrix in="blurOut" result="blurOut2" type="matrix" values="0 0 0 0 0 0 0 0 0 0 0 0 0 0 0 0 0 0 .4 0"/><feOffset dx="5.0" dy="5.0" in="blurOut2" result="blurOut3"/><feBlend in="SourceGraphic" in2="blurOut3" mode="normal"/></filter></defs><g><!--MD5=[02e4b9b7573f1156f41e60aa5b4e25a4]
class Company--><rect codeLine="6" fill="#FEFECE" filter="url(#f1asqdxizfk9bh)" height="67.2949" id="Company" style="stroke:#A80036;stroke-width:1.875;" width="106.25" x="191.875" y="8.75"/><ellipse cx="210.625" cy="28.75" fill="#ADD1B2" rx="13.75" ry="13.75" style="stroke:#A80036;stroke-width:1.25;"/><path d="M213.125,24.375 Q213.3789,23.75 213.6719,23.4375 Q213.9648,23.125 214.2969,23.125 Q214.8828,23.125 215.2539,23.4766 Q215.625,23.8281 215.625,24.6484 L215.625,26.6016 Q215.625,27.4219 215.2734,27.7734 Q214.9219,28.125 214.375,28.125 Q213.8867,28.125 213.5742,27.9102 Q213.2617,27.6953 213.125,27.1289 Q213.0664,26.7383 212.8516,26.5234 Q212.4609,26.1133 211.7578,25.8789 Q211.0547,25.625 210.3516,25.625 Q209.4727,25.625 208.7305,25.9766 Q208.0078,26.3281 207.4414,27.1094 Q206.875,27.8906 206.875,28.9648 L206.875,30.1172 Q206.875,31.4063 207.9297,32.2656 Q208.9844,33.125 210.8594,33.125 Q211.9727,33.125 212.7539,32.8711 Q213.2031,32.7344 213.7109,32.2852 Q214.043,32.0313 214.2188,31.9531 Q214.3945,31.875 214.6094,31.875 Q215.0195,31.875 215.3125,32.207 Q215.625,32.5195 215.625,32.9688 Q215.625,33.3984 215.1953,33.9063 Q214.5703,34.6484 213.5742,35.0586 Q212.2656,35.625 210.6641,35.625 Q208.7891,35.625 207.2852,34.8828 Q206.0742,34.2969 205.2148,33.0273 Q204.375,31.7578 204.375,30.2539 L204.375,28.8867 Q204.375,27.3242 205.1172,25.957 Q205.8789,24.5898 207.1875,23.8672 Q208.5156,23.125 210,23.125 Q210.8984,23.125 211.6797,23.4375 Q212.4609,23.75 213.125,24.375 Z " fill="#000000"/><text fill="#000000" font-family="sans-serif" font-size="15" lengthAdjust="spacing" textLength="66.25" x="228.125" y="34.8877">Company</text><line style="stroke:#A80036;stroke-width:1.875;" x1="193.125" x2="296.875" y1="48.75" y2="48.75"/><text fill="#000000" font-family="sans-serif" font-size="13.75" lengthAdjust="spacing" textLength="73.75" x="199.375" y="68.0237">-designation</text><!--MD5=[1f6362a5c8f21d8d6a0fce68f3a92a4e]
class Parameter--><rect codeLine="10" fill="#FEFECE" filter="url(#f1asqdxizfk9bh)" height="67.2949" id="Parameter" style="stroke:#A80036;stroke-width:1.875;" width="112.5" x="8.75" y="173.75"/><ellipse cx="27.5" cy="193.75" fill="#ADD1B2" rx="13.75" ry="13.75" style="stroke:#A80036;stroke-width:1.25;"/><path d="M30,189.375 Q30.2539,188.75 30.5469,188.4375 Q30.8398,188.125 31.1719,188.125 Q31.7578,188.125 32.1289,188.4766 Q32.5,188.8281 32.5,189.6484 L32.5,191.6016 Q32.5,192.4219 32.1484,192.7734 Q31.7969,193.125 31.25,193.125 Q30.7617,193.125 30.4492,192.9102 Q30.1367,192.6953 30,192.1289 Q29.9414,191.7383 29.7266,191.5234 Q29.3359,191.1133 28.6328,190.8789 Q27.9297,190.625 27.2266,190.625 Q26.3477,190.625 25.6055,190.9766 Q24.8828,191.3281 24.3164,192.1094 Q23.75,192.8906 23.75,193.9648 L23.75,195.1172 Q23.75,196.4063 24.8047,197.2656 Q25.8594,198.125 27.7344,198.125 Q28.8477,198.125 29.6289,197.8711 Q30.0781,197.7344 30.5859,197.2852 Q30.918,197.0313 31.0938,196.9531 Q31.2695,196.875 31.4844,196.875 Q31.8945,196.875 32.1875,197.207 Q32.5,197.5195 32.5,197.9688 Q32.5,198.3984 32.0703,198.9063 Q31.4453,199.6484 30.4492,200.0586 Q29.1406,200.625 27.5391,200.625 Q25.6641,200.625 24.1602,199.8828 Q22.9492,199.2969 22.0898,198.0273 Q21.25,196.7578 21.25,195.2539 L21.25,193.8867 Q21.25,192.3242 21.9922,190.957 Q22.7539,189.5898 24.0625,188.8672 Q25.3906,188.125 26.875,188.125 Q27.7734,188.125 28.5547,188.4375 Q29.3359,188.75 30,189.375 Z " fill="#000000"/><text fill="#000000" font-family="sans-serif" font-size="15" lengthAdjust="spacing" textLength="72.5" x="45" y="199.8877">Parameter</text><line style="stroke:#A80036;stroke-width:1.875;" x1="10" x2="120" y1="213.75" y2="213.75"/><text fill="#000000" font-family="sans-serif" font-size="13.75" lengthAdjust="spacing" textLength="73.75" x="16.25" y="233.0237">-designation</text><!--MD5=[36afb6bbd95a8ac778c4537c55a683d5]
class ParameterCategory--><rect codeLine="14" fill="#FEFECE" filter="url(#f1asqdxizfk9bh)" height="101.8848" id="ParameterCategory" style="stroke:#A80036;stroke-width:1.875;" width="173.75" x="138.125" y="338.75"/><ellipse cx="156.875" cy="358.75" fill="#ADD1B2" rx="13.75" ry="13.75" style="stroke:#A80036;stroke-width:1.25;"/><path d="M159.375,354.375 Q159.6289,353.75 159.9219,353.4375 Q160.2148,353.125 160.5469,353.125 Q161.1328,353.125 161.5039,353.4766 Q161.875,353.8281 161.875,354.6484 L161.875,356.6016 Q161.875,357.4219 161.5234,357.7734 Q161.1719,358.125 160.625,358.125 Q160.1367,358.125 159.8242,357.9102 Q159.5117,357.6953 159.375,357.1289 Q159.3164,356.7383 159.1016,356.5234 Q158.7109,356.1133 158.0078,355.8789 Q157.3047,355.625 156.6016,355.625 Q155.7227,355.625 154.9805,355.9766 Q154.2578,356.3281 153.6914,357.1094 Q153.125,357.8906 153.125,358.9648 L153.125,360.1172 Q153.125,361.4063 154.1797,362.2656 Q155.2344,363.125 157.1094,363.125 Q158.2227,363.125 159.0039,362.8711 Q159.4531,362.7344 159.9609,362.2852 Q160.293,362.0313 160.4688,361.9531 Q160.6445,361.875 160.8594,361.875 Q161.2695,361.875 161.5625,362.207 Q161.875,362.5195 161.875,362.9688 Q161.875,363.3984 161.4453,363.9063 Q160.8203,364.6484 159.8242,365.0586 Q158.5156,365.625 156.9141,365.625 Q155.0391,365.625 153.5352,364.8828 Q152.3242,364.2969 151.4648,363.0273 Q150.625,361.7578 150.625,360.2539 L150.625,358.8867 Q150.625,357.3242 151.3672,355.957 Q152.1289,354.5898 153.4375,353.8672 Q154.7656,353.125 156.25,353.125 Q157.1484,353.125 157.9297,353.4375 Q158.7109,353.75 159.375,354.375 Z " fill="#000000"/><text fill="#000000" font-family="sans-serif" font-size="15" lengthAdjust="spacing" textLength="133.75" x="174.375" y="364.8877">ParameterCategory</text><line style="stroke:#A80036;stroke-width:1.875;" x1="139.375" x2="310.625" y1="378.75" y2="378.75"/><text fill="#000000" font-family="sans-serif" font-size="13.75" lengthAdjust="spacing" textLength="35" x="145.625" y="398.0237">-code</text><text fill="#000000" font-family="sans-serif" font-size="13.75" lengthAdjust="spacing" textLength="71.25" x="145.625" y="415.3186">-description</text><text fill="#000000" font-family="sans-serif" font-size="13.75" lengthAdjust="spacing" textLength="37.5" x="145.625" y="432.6135">-nhsId</text><!--MD5=[da547346deef918ea16944ba046651ef]
class Administrator--><rect codeLine="20" fill="#FEFECE" filter="url(#f1asqdxizfk9bh)" height="40" id="Administrator" style="stroke:#A80036;stroke-width:1.875;" width="131.25" x="235.625" y="538.75"/><ellipse cx="254.375" cy="558.75" fill="#ADD1B2" rx="13.75" ry="13.75" style="stroke:#A80036;stroke-width:1.25;"/><path d="M256.875,554.375 Q257.1289,553.75 257.4219,553.4375 Q257.7148,553.125 258.0469,553.125 Q258.6328,553.125 259.0039,553.4766 Q259.375,553.8281 259.375,554.6484 L259.375,556.6016 Q259.375,557.4219 259.0234,557.7734 Q258.6719,558.125 258.125,558.125 Q257.6367,558.125 257.3242,557.9102 Q257.0117,557.6953 256.875,557.1289 Q256.8164,556.7383 256.6016,556.5234 Q256.2109,556.1133 255.5078,555.8789 Q254.8047,555.625 254.1016,555.625 Q253.2227,555.625 252.4805,555.9766 Q251.7578,556.3281 251.1914,557.1094 Q250.625,557.8906 250.625,558.9648 L250.625,560.1172 Q250.625,561.4063 251.6797,562.2656 Q252.7344,563.125 254.6094,563.125 Q255.7227,563.125 256.5039,562.8711 Q256.9531,562.7344 257.4609,562.2852 Q257.793,562.0313 257.9688,561.9531 Q258.1445,561.875 258.3594,561.875 Q258.7695,561.875 259.0625,562.207 Q259.375,562.5195 259.375,562.9688 Q259.375,563.3984 258.9453,563.9063 Q258.3203,564.6484 257.3242,565.0586 Q256.0156,565.625 254.4141,565.625 Q252.5391,565.625 251.0352,564.8828 Q249.8242,564.2969 248.9648,563.0273 Q248.125,561.7578 248.125,560.2539 L248.125,558.8867 Q248.125,557.3242 248.8672,555.957 Q249.6289,554.5898 250.9375,553.8672 Q252.2656,553.125 253.75,553.125 Q254.6484,553.125 255.4297,553.4375 Q256.2109,553.75 256.875,554.375 Z " fill="#000000"/><text fill="#000000" font-family="sans-serif" font-size="15" lengthAdjust="spacing" textLength="91.25" x="271.875" y="564.8877">Administrator</text><!--MD5=[12d76240d3c3c66074d4ec2ea8bf469c]
link Company to Parameter--><path codeLine="24" d="M191.45,46.2875 C144.5375,51.675 78.9125,67.625 46.25,113.75 C33.9375,131.1375 38.9625,154.7125 46.9,173.7125 " fill="none" id="Company-Parameter" style="stroke:#A80036;stroke-width:1.25;"/><polygon fill="#000000" points="47.8116,129.3527,58.7223,124.6319,53.8637,119.1203,47.8116,129.3527" style="stroke:#000000;stroke-width:1.25;"/><text fill="#000000" font-family="sans-serif" font-size="16.25" lengthAdjust="spacing" textLength="147.5" x="63.75" y="131.8689">capable of analysing</text><text fill="#000000" font-family="sans-serif" font-size="16.25" lengthAdjust="spacing" textLength="8.75" x="173.1062" y="42.1808">1</text><text fill="#000000" font-family="sans-serif" font-size="16.25" lengthAdjust="spacing" textLength="6.25" x="35.4764" y="159.9867">*</text><!--MD5=[93b4f25fb503a8e0e9a46b1d30ff3f44]
link Company to ParameterCategory--><path codeLine="25" d="M243.0875,76.825 C239.5625,137.55 232.05,267.0875 227.9,338.65 " fill="none" id="Company-ParameterCategory" style="stroke:#A80036;stroke-width:1.25;"/><polygon fill="#000000" points="243.3881,213.9592,247.7103,202.8846,240.3753,202.4591,243.3881,213.9592" style="stroke:#000000;stroke-width:1.25;"/><text fill="#000000" font-family="sans-serif" font-size="16.25" lengthAdjust="spacing" textLength="48.75" x="255" y="214.3689">adopts</text><text fill="#000000" font-family="sans-serif" font-size="16.25" lengthAdjust="spacing" textLength="8.75" x="233.0407" y="102.9024">1</text><text fill="#000000" font-family="sans-serif" font-size="16.25" lengthAdjust="spacing" textLength="6.25" x="221.6113" y="325.065">*</text><!--MD5=[eaea43e34e45c5b9d20b595fc78f1f20]
link Company to Administrator--><path codeLine="26" d="M267.0875,76.4125 C283.1125,101.825 303.875,138.55 315,173.75 C356.1375,303.9125 343.175,342.475 351.25,478.75 C351.8375,488.7375 354.8,491.9 351.25,501.25 C345.775,515.6625 334.725,528.7375 324.4,538.65 " fill="none" id="Company-Administrator" style="stroke:#A80036;stroke-width:1.25;"/><polygon fill="#000000" points="349.519,296.4222,351.7736,284.7498,344.4821,285.6538,349.519,296.4222" style="stroke:#000000;stroke-width:1.25;"/><text fill="#000000" font-family="sans-serif" font-size="16.25" lengthAdjust="spacing" textLength="37.5" x="360" y="296.8689">know</text><text fill="#000000" font-family="sans-serif" font-size="16.25" lengthAdjust="spacing" textLength="8.75" x="262.2121" y="102.9578">1</text><text fill="#000000" font-family="sans-serif" font-size="16.25" lengthAdjust="spacing" textLength="6.25" x="325.0336" y="525.2476">*</text><!--MD5=[6df8849671cb880f6936e94aa30db6f9]
link Parameter to ParameterCategory--><path codeLine="27" d="M62.65,241.5875 C62.875,260.4625 65.9625,283.825 77.5,301.25 C92.3,323.5875 114.9125,341.0375 138.0375,354.275 " fill="none" id="Parameter-ParameterCategory" style="stroke:#A80036;stroke-width:1.25;"/><polygon fill="#000000" points="87.2252,295.4144,83.9918,283.9744,77.8851,288.0598,87.2252,295.4144" style="stroke:#000000;stroke-width:1.25;"/><text fill="#000000" font-family="sans-serif" font-size="16.25" lengthAdjust="spacing" textLength="116.25" x="95" y="296.8689">presented under</text><text fill="#000000" font-family="sans-serif" font-size="16.25" lengthAdjust="spacing" textLength="6.25" x="55.2023" y="268.171">*</text><text fill="#000000" font-family="sans-serif" font-size="16.25" lengthAdjust="spacing" textLength="8.75" x="119.2975" y="346.2004">1</text><!--MD5=[8fed49cf12a674e36a1de475622ee091]
link ParameterCategory to Administrator--><path codeLine="28" d="M231.5625,441.2875 C235.475,460.7625 241.6375,482.8 251.25,501.25 C258.5,515.15 269.9375,528.3875 280.05,538.5125 " fill="none" id="ParameterCategory-Administrator" style="stroke:#A80036;stroke-width:1.25;"/><polygon fill="#000000" points="260.2893,495.8128,258.5309,484.0553,251.9559,487.3344,260.2893,495.8128" style="stroke:#000000;stroke-width:1.25;"/><text fill="#000000" font-family="sans-serif" font-size="16.25" lengthAdjust="spacing" textLength="76.25" x="268.75" y="496.8689">created by</text><text fill="#000000" font-family="sans-serif" font-size="16.25" lengthAdjust="spacing" textLength="6.25" x="225.8389" y="467.6218">*</text><text fill="#000000" font-family="sans-serif" font-size="16.25" lengthAdjust="spacing" textLength="8.75" x="262.5086" y="525.0628">1</text><!--MD5=[0360665a630418756bc9f367b5f2a480]
@startuml
hide empty methods
hide empty attributes
skinparam classAttributeIconSize 0


class Company {
  -designation
}

class Parameter {
  -designation
}

class ParameterCategory {
  -code
  -description
  -nhsId
}

class Administrator {

}

Company "1" - - "*" Parameter : capable of analysing >
Company "1" - - "*" ParameterCategory : adopts >
Company "1" - - "*" Administrator : know >
Parameter "*" - - "1" ParameterCategory: presented under >
ParameterCategory "*" - - "1" Administrator: created by >



@enduml

PlantUML version 1.2021.4(Sun Apr 04 09:49:39 BST 2021)
(GPL source distribution)
Java Runtime: OpenJDK Runtime Environment
JVM: Dynamic Code Evolution 64-Bit Server VM
Default Encoding: Cp1252
Language: pt
Country: PT
--></g></svg>