<?xml version="1.0" encoding="UTF-8" standalone="no"?><svg xmlns="http://www.w3.org/2000/svg" xmlns:xlink="http://www.w3.org/1999/xlink" contentScriptType="application/ecmascript" contentStyleType="text/css" height="293.75px" preserveAspectRatio="none" style="width:1566px;height:293px;" version="1.1" viewBox="0 0 1566 293" width="1566.25px" zoomAndPan="magnify"><defs><filter height="300%" id="f1swf2uu7xhx9b" width="300%" x="-1" y="-1"><feGaussianBlur result="blurOut" stdDeviation="2.5"/><feColorMatrix in="blurOut" result="blurOut2" type="matrix" values="0 0 0 0 0 0 0 0 0 0 0 0 0 0 0 0 0 0 .4 0"/><feOffset dx="5.0" dy="5.0" in="blurOut2" result="blurOut3"/><feBlend in="SourceGraphic" in2="blurOut3" mode="normal"/></filter></defs><g><!--MD5=[02e4b9b7573f1156f41e60aa5b4e25a4]
class Company--><rect codeLine="6" fill="#FEFECE" filter="url(#f1swf2uu7xhx9b)" height="94.5898" id="Company" style="stroke:#A80036;stroke-width:1.875;" width="200" x="683.75" y="65.0625"/><ellipse cx="745.3125" cy="85.0625" fill="#ADD1B2" rx="13.75" ry="13.75" style="stroke:#A80036;stroke-width:1.25;"/><path d="M747.8125,80.6875 Q748.0664,80.0625 748.3594,79.75 Q748.6523,79.4375 748.9844,79.4375 Q749.5703,79.4375 749.9414,79.7891 Q750.3125,80.1406 750.3125,80.9609 L750.3125,82.9141 Q750.3125,83.7344 749.9609,84.0859 Q749.6094,84.4375 749.0625,84.4375 Q748.5742,84.4375 748.2617,84.2227 Q747.9492,84.0078 747.8125,83.4414 Q747.7539,83.0508 747.5391,82.8359 Q747.1484,82.4258 746.4453,82.1914 Q745.7422,81.9375 745.0391,81.9375 Q744.1602,81.9375 743.418,82.2891 Q742.6953,82.6406 742.1289,83.4219 Q741.5625,84.2031 741.5625,85.2773 L741.5625,86.4297 Q741.5625,87.7188 742.6172,88.5781 Q743.6719,89.4375 745.5469,89.4375 Q746.6602,89.4375 747.4414,89.1836 Q747.8906,89.0469 748.3984,88.5977 Q748.7305,88.3438 748.9063,88.2656 Q749.082,88.1875 749.2969,88.1875 Q749.707,88.1875 750,88.5195 Q750.3125,88.832 750.3125,89.2813 Q750.3125,89.7109 749.8828,90.2188 Q749.2578,90.9609 748.2617,91.3711 Q746.9531,91.9375 745.3516,91.9375 Q743.4766,91.9375 741.9727,91.1953 Q740.7617,90.6094 739.9023,89.3398 Q739.0625,88.0703 739.0625,86.5664 L739.0625,85.1992 Q739.0625,83.6367 739.8047,82.2695 Q740.5664,80.9023 741.875,80.1797 Q743.2031,79.4375 744.6875,79.4375 Q745.5859,79.4375 746.3672,79.75 Q747.1484,80.0625 747.8125,80.6875 Z " fill="#000000"/><text fill="#000000" font-family="sans-serif" font-size="15" lengthAdjust="spacing" textLength="66.25" x="770.9375" y="91.2002">Company</text><line style="stroke:#A80036;stroke-width:1.875;" x1="685" x2="882.5" y1="105.0625" y2="105.0625"/><text fill="#000000" font-family="sans-serif" font-size="13.75" lengthAdjust="spacing" textLength="112.5" x="691.25" y="124.3362">-String designation</text><line style="stroke:#A80036;stroke-width:1.875;" x1="685" x2="882.5" y1="132.3574" y2="132.3574"/><text fill="#000000" font-family="sans-serif" font-size="13.75" lengthAdjust="spacing" textLength="185" x="691.25" y="151.6311">+getParameterCategoryStore()</text><!--MD5=[36afb6bbd95a8ac778c4537c55a683d5]
class ParameterCategory--><rect codeLine="11" fill="#FEFECE" filter="url(#f1swf2uu7xhx9b)" height="129.1797" id="ParameterCategory" style="stroke:#A80036;stroke-width:1.875;" width="218.75" x="1330" y="23.1875"/><ellipse cx="1369" cy="43.1875" fill="#ADD1B2" rx="13.75" ry="13.75" style="stroke:#A80036;stroke-width:1.25;"/><path d="M1371.5,38.8125 Q1371.7539,38.1875 1372.0469,37.875 Q1372.3398,37.5625 1372.6719,37.5625 Q1373.2578,37.5625 1373.6289,37.9141 Q1374,38.2656 1374,39.0859 L1374,41.0391 Q1374,41.8594 1373.6484,42.2109 Q1373.2969,42.5625 1372.75,42.5625 Q1372.2617,42.5625 1371.9492,42.3477 Q1371.6367,42.1328 1371.5,41.5664 Q1371.4414,41.1758 1371.2266,40.9609 Q1370.8359,40.5508 1370.1328,40.3164 Q1369.4297,40.0625 1368.7266,40.0625 Q1367.8477,40.0625 1367.1055,40.4141 Q1366.3828,40.7656 1365.8164,41.5469 Q1365.25,42.3281 1365.25,43.4023 L1365.25,44.5547 Q1365.25,45.8438 1366.3047,46.7031 Q1367.3594,47.5625 1369.2344,47.5625 Q1370.3477,47.5625 1371.1289,47.3086 Q1371.5781,47.1719 1372.0859,46.7227 Q1372.418,46.4688 1372.5938,46.3906 Q1372.7695,46.3125 1372.9844,46.3125 Q1373.3945,46.3125 1373.6875,46.6445 Q1374,46.957 1374,47.4063 Q1374,47.8359 1373.5703,48.3438 Q1372.9453,49.0859 1371.9492,49.4961 Q1370.6406,50.0625 1369.0391,50.0625 Q1367.1641,50.0625 1365.6602,49.3203 Q1364.4492,48.7344 1363.5898,47.4648 Q1362.75,46.1953 1362.75,44.6914 L1362.75,43.3242 Q1362.75,41.7617 1363.4922,40.3945 Q1364.2539,39.0273 1365.5625,38.3047 Q1366.8906,37.5625 1368.375,37.5625 Q1369.2734,37.5625 1370.0547,37.875 Q1370.8359,38.1875 1371.5,38.8125 Z " fill="#000000"/><text fill="#000000" font-family="sans-serif" font-size="15" lengthAdjust="spacing" textLength="133.75" x="1391" y="49.3252">ParameterCategory</text><line style="stroke:#A80036;stroke-width:1.875;" x1="1331.25" x2="1547.5" y1="63.1875" y2="63.1875"/><text fill="#000000" font-family="sans-serif" font-size="13.75" lengthAdjust="spacing" textLength="73.75" x="1337.5" y="82.4612">-String code</text><text fill="#000000" font-family="sans-serif" font-size="13.75" lengthAdjust="spacing" textLength="76.25" x="1337.5" y="99.7561">-String name</text><line style="stroke:#A80036;stroke-width:1.875;" x1="1331.25" x2="1547.5" y1="107.7773" y2="107.7773"/><text fill="#000000" font-family="sans-serif" font-size="13.75" lengthAdjust="spacing" textLength="203.75" x="1337.5" y="127.051">+ParameterCategory(code, name)</text><text fill="#000000" font-family="sans-serif" font-size="13.75" lengthAdjust="spacing" textLength="67.5" x="1337.5" y="144.3459">+getCode()</text><!--MD5=[d802db621b5b215a6f0466f93cefcb42]
class ParameterCategoryStore--><rect codeLine="18" fill="#FEFECE" filter="url(#f1swf2uu7xhx9b)" height="101.8848" id="ParameterCategoryStore" style="stroke:#A80036;stroke-width:1.875;" width="257.5" x="996.25" y="175.0625"/><ellipse cx="1036.375" cy="195.0625" fill="#ADD1B2" rx="13.75" ry="13.75" style="stroke:#A80036;stroke-width:1.25;"/><path d="M1038.875,190.6875 Q1039.1289,190.0625 1039.4219,189.75 Q1039.7148,189.4375 1040.0469,189.4375 Q1040.6328,189.4375 1041.0039,189.7891 Q1041.375,190.1406 1041.375,190.9609 L1041.375,192.9141 Q1041.375,193.7344 1041.0234,194.0859 Q1040.6719,194.4375 1040.125,194.4375 Q1039.6367,194.4375 1039.3242,194.2227 Q1039.0117,194.0078 1038.875,193.4414 Q1038.8164,193.0508 1038.6016,192.8359 Q1038.2109,192.4258 1037.5078,192.1914 Q1036.8047,191.9375 1036.1016,191.9375 Q1035.2227,191.9375 1034.4805,192.2891 Q1033.7578,192.6406 1033.1914,193.4219 Q1032.625,194.2031 1032.625,195.2773 L1032.625,196.4297 Q1032.625,197.7188 1033.6797,198.5781 Q1034.7344,199.4375 1036.6094,199.4375 Q1037.7227,199.4375 1038.5039,199.1836 Q1038.9531,199.0469 1039.4609,198.5977 Q1039.793,198.3438 1039.9688,198.2656 Q1040.1445,198.1875 1040.3594,198.1875 Q1040.7695,198.1875 1041.0625,198.5195 Q1041.375,198.832 1041.375,199.2813 Q1041.375,199.7109 1040.9453,200.2188 Q1040.3203,200.9609 1039.3242,201.3711 Q1038.0156,201.9375 1036.4141,201.9375 Q1034.5391,201.9375 1033.0352,201.1953 Q1031.8242,200.6094 1030.9648,199.3398 Q1030.125,198.0703 1030.125,196.5664 L1030.125,195.1992 Q1030.125,193.6367 1030.8672,192.2695 Q1031.6289,190.9023 1032.9375,190.1797 Q1034.2656,189.4375 1035.75,189.4375 Q1036.6484,189.4375 1037.4297,189.75 Q1038.2109,190.0625 1038.875,190.6875 Z " fill="#000000"/><text fill="#000000" font-family="sans-serif" font-size="15" lengthAdjust="spacing" textLength="170" x="1058.625" y="201.2002">ParameterCategoryStore</text><line style="stroke:#A80036;stroke-width:1.875;" x1="997.5" x2="1252.5" y1="215.0625" y2="215.0625"/><text fill="#000000" font-family="sans-serif" font-size="13.75" lengthAdjust="spacing" textLength="242.5" x="1003.75" y="234.3362">+createParameterCategory(code, name)</text><text fill="#000000" font-family="sans-serif" font-size="13.75" lengthAdjust="spacing" textLength="195" x="1003.75" y="251.6311">+validateParameterCategory(pc)</text><text fill="#000000" font-family="sans-serif" font-size="13.75" lengthAdjust="spacing" textLength="178.75" x="1003.75" y="268.926">+saveParameterCategory(pc)</text><!--MD5=[43bb81d93caae6cc68206df5797cd1c4]
class CreateParameterCategoryController--><rect codeLine="24" fill="#FEFECE" filter="url(#f1swf2uu7xhx9b)" height="84.5898" id="CreateParameterCategoryController" style="stroke:#A80036;stroke-width:1.875;" width="287.5" x="320" y="70.0625"/><ellipse cx="338.75" cy="90.0625" fill="#ADD1B2" rx="13.75" ry="13.75" style="stroke:#A80036;stroke-width:1.25;"/><path d="M341.25,85.6875 Q341.5039,85.0625 341.7969,84.75 Q342.0898,84.4375 342.4219,84.4375 Q343.0078,84.4375 343.3789,84.7891 Q343.75,85.1406 343.75,85.9609 L343.75,87.9141 Q343.75,88.7344 343.3984,89.0859 Q343.0469,89.4375 342.5,89.4375 Q342.0117,89.4375 341.6992,89.2227 Q341.3867,89.0078 341.25,88.4414 Q341.1914,88.0508 340.9766,87.8359 Q340.5859,87.4258 339.8828,87.1914 Q339.1797,86.9375 338.4766,86.9375 Q337.5977,86.9375 336.8555,87.2891 Q336.1328,87.6406 335.5664,88.4219 Q335,89.2031 335,90.2773 L335,91.4297 Q335,92.7188 336.0547,93.5781 Q337.1094,94.4375 338.9844,94.4375 Q340.0977,94.4375 340.8789,94.1836 Q341.3281,94.0469 341.8359,93.5977 Q342.168,93.3438 342.3438,93.2656 Q342.5195,93.1875 342.7344,93.1875 Q343.1445,93.1875 343.4375,93.5195 Q343.75,93.832 343.75,94.2813 Q343.75,94.7109 343.3203,95.2188 Q342.6953,95.9609 341.6992,96.3711 Q340.3906,96.9375 338.7891,96.9375 Q336.9141,96.9375 335.4102,96.1953 Q334.1992,95.6094 333.3398,94.3398 Q332.5,93.0703 332.5,91.5664 L332.5,90.1992 Q332.5,88.6367 333.2422,87.2695 Q334.0039,85.9023 335.3125,85.1797 Q336.6406,84.4375 338.125,84.4375 Q339.0234,84.4375 339.8047,84.75 Q340.5859,85.0625 341.25,85.6875 Z " fill="#000000"/><text fill="#000000" font-family="sans-serif" font-size="15" lengthAdjust="spacing" textLength="247.5" x="356.25" y="96.2002">CreateParameterCategoryController</text><line style="stroke:#A80036;stroke-width:1.875;" x1="321.25" x2="606.25" y1="110.0625" y2="110.0625"/><text fill="#000000" font-family="sans-serif" font-size="13.75" lengthAdjust="spacing" textLength="242.5" x="327.5" y="129.3362">+createParameterCategory(code, name)</text><text fill="#000000" font-family="sans-serif" font-size="13.75" lengthAdjust="spacing" textLength="163.75" x="327.5" y="146.6311">+saveParameterCategory()</text><!--MD5=[6017f56a87b244e108fd0d8749edd53c]
class CreateParameterCategoryUI--><rect codeLine="29" fill="#FEFECE" filter="url(#f1swf2uu7xhx9b)" height="40" id="CreateParameterCategoryUI" style="stroke:#A80036;stroke-width:1.875;" width="235" x="8.75" y="92.5625"/><ellipse cx="27.5" cy="112.5625" fill="#ADD1B2" rx="13.75" ry="13.75" style="stroke:#A80036;stroke-width:1.25;"/><path d="M30,108.1875 Q30.2539,107.5625 30.5469,107.25 Q30.8398,106.9375 31.1719,106.9375 Q31.7578,106.9375 32.1289,107.2891 Q32.5,107.6406 32.5,108.4609 L32.5,110.4141 Q32.5,111.2344 32.1484,111.5859 Q31.7969,111.9375 31.25,111.9375 Q30.7617,111.9375 30.4492,111.7227 Q30.1367,111.5078 30,110.9414 Q29.9414,110.5508 29.7266,110.3359 Q29.3359,109.9258 28.6328,109.6914 Q27.9297,109.4375 27.2266,109.4375 Q26.3477,109.4375 25.6055,109.7891 Q24.8828,110.1406 24.3164,110.9219 Q23.75,111.7031 23.75,112.7773 L23.75,113.9297 Q23.75,115.2188 24.8047,116.0781 Q25.8594,116.9375 27.7344,116.9375 Q28.8477,116.9375 29.6289,116.6836 Q30.0781,116.5469 30.5859,116.0977 Q30.918,115.8438 31.0938,115.7656 Q31.2695,115.6875 31.4844,115.6875 Q31.8945,115.6875 32.1875,116.0195 Q32.5,116.332 32.5,116.7813 Q32.5,117.2109 32.0703,117.7188 Q31.4453,118.4609 30.4492,118.8711 Q29.1406,119.4375 27.5391,119.4375 Q25.6641,119.4375 24.1602,118.6953 Q22.9492,118.1094 22.0898,116.8398 Q21.25,115.5703 21.25,114.0664 L21.25,112.6992 Q21.25,111.1367 21.9922,109.7695 Q22.7539,108.4023 24.0625,107.6797 Q25.3906,106.9375 26.875,106.9375 Q27.7734,106.9375 28.5547,107.25 Q29.3359,107.5625 30,108.1875 Z " fill="#000000"/><text fill="#000000" font-family="sans-serif" font-size="15" lengthAdjust="spacing" textLength="195" x="45" y="118.7002">CreateParameterCategoryUI</text><!--MD5=[93b1b9218398b0464d36d46d0f539949]
link CreateParameterCategoryUI to CreateParameterCategoryController--><path codeLine="32" d="M244.2,112.5625 C266.4625,112.5625 290.05,112.5625 313.175,112.5625 " fill="none" id="CreateParameterCategoryUI-to-CreateParameterCategoryController" style="stroke:#A80036;stroke-width:1.25;stroke-dasharray:7.0,7.0;"/><polygon fill="#A80036" points="319.675,112.5625,308.425,107.5625,313.425,112.5625,308.425,117.5625,319.675,112.5625" style="stroke:#A80036;stroke-width:1.25;"/><!--MD5=[a00c31f7a5d66db29f7adf0293377a3b]
link CreateParameterCategoryController to Company--><path codeLine="33" d="M607.9625,112.5625 C631.075,112.5625 654.65,112.5625 676.6875,112.5625 " fill="none" id="CreateParameterCategoryController-to-Company" style="stroke:#A80036;stroke-width:1.25;stroke-dasharray:7.0,7.0;"/><polygon fill="#A80036" points="683.475,112.5625,672.225,107.5625,677.225,112.5625,672.225,117.5625,683.475,112.5625" style="stroke:#A80036;stroke-width:1.25;"/><!--MD5=[869a0022b647c5cba08cf9438b652be2]
link CreateParameterCategoryController to ParameterCategory--><path codeLine="34" d="M575.2375,69.9625 C609.475,58.7375 647.7,48.1875 683.75,42.5625 C908.4,7.5 1174.6,40.525 1323.1375,65.525 " fill="none" id="CreateParameterCategoryController-to-ParameterCategory" style="stroke:#A80036;stroke-width:1.25;stroke-dasharray:7.0,7.0;"/><polygon fill="#A80036" points="1329.6875,66.6375,1319.4221,59.8416,1323.524,65.6013,1317.7642,69.7032,1329.6875,66.6375" style="stroke:#A80036;stroke-width:1.25;"/><!--MD5=[be6e87e2c6f1800ec3da53612c46e11a]
link CreateParameterCategoryController to ParameterCategoryStore--><path codeLine="35" d="M582.425,155.15 C614.8875,165.5375 650.3625,175.6375 683.75,182.5625 C785.2375,203.6 902.05,214.6125 989.8125,220.325 " fill="none" id="CreateParameterCategoryController-to-ParameterCategoryStore" style="stroke:#A80036;stroke-width:1.25;stroke-dasharray:7.0,7.0;"/><polygon fill="#A80036" points="996.075,220.7375,985.1618,215.0396,989.8374,220.3443,984.5327,225.0198,996.075,220.7375" style="stroke:#A80036;stroke-width:1.25;"/><!--MD5=[d6274e3b73b5bc8f467c6cfbf5bf003e]
link ParameterCategoryStore to ParameterCategory--><path codeLine="36" d="M1241.5,175.0375 C1268.275,163.125 1296.775,150.45 1323.525,138.55 " fill="none" id="ParameterCategoryStore-to-ParameterCategory" style="stroke:#A80036;stroke-width:1.25;stroke-dasharray:7.0,7.0;"/><polygon fill="#A80036" points="1329.5625,135.8625,1317.2514,135.8554,1323.8497,138.3976,1321.3075,144.9958,1329.5625,135.8625" style="stroke:#A80036;stroke-width:1.25;"/><!--MD5=[d53d7490e5836ca5709858d7326f212b]
link Company to ParameterCategoryStore--><path codeLine="37" d="M883.8875,145.775 C916.9375,156.8625 954.3375,169.425 989.6,181.2625 " fill="none" id="Company-to-ParameterCategoryStore" style="stroke:#A80036;stroke-width:1.25;"/><polygon fill="#A80036" points="995.7,183.3125,986.616,175.0033,989.7725,181.3307,983.4451,184.4873,995.7,183.3125" style="stroke:#A80036;stroke-width:1.25;"/><text fill="#000000" font-family="sans-serif" font-size="16.25" lengthAdjust="spacing" textLength="35" x="922.5" y="154.4314">uses</text><text fill="#000000" font-family="sans-serif" font-size="16.25" lengthAdjust="spacing" textLength="8.75" x="893.8488" y="166.8031">1</text><text fill="#000000" font-family="sans-serif" font-size="16.25" lengthAdjust="spacing" textLength="8.75" x="977.551" y="197.8982">1</text><!--MD5=[93b4f25fb503a8e0e9a46b1d30ff3f44]
link Company to ParameterCategory--><path codeLine="38" d="M883.8375,108.775 C1001.85,104.2625 1198.85,96.725 1323.45,91.95 " fill="none" id="Company-to-ParameterCategory" style="stroke:#A80036;stroke-width:1.25;"/><polygon fill="#A80036" points="1329.7,91.7125,1318.2591,87.1661,1323.455,91.9623,1318.6588,97.1581,1329.7,91.7125" style="stroke:#A80036;stroke-width:1.25;"/><text fill="#000000" font-family="sans-serif" font-size="16.25" lengthAdjust="spacing" textLength="48.75" x="1100.625" y="90.6814">adopts</text><text fill="#000000" font-family="sans-serif" font-size="16.25" lengthAdjust="spacing" textLength="8.75" x="893.7941" y="126.2765">1</text><text fill="#000000" font-family="sans-serif" font-size="16.25" lengthAdjust="spacing" textLength="6.25" x="1313.7563" y="109.7978">*</text><!--MD5=[63847d4f55c22fcb37913a6fa22fa009]
@startuml
hide empty methods
hide empty attributes
left to right direction
skinparam classAttributeIconSize 0

class Company {
  -String designation
  +getParameterCategoryStore()
}

class ParameterCategory {
   -String code
   -String name
   +ParameterCategory(code, name)
   +getCode()
}

class ParameterCategoryStore {
    +createParameterCategory(code, name)
    +validateParameterCategory(pc)
    +saveParameterCategory(pc)
}

class CreateParameterCategoryController {
  +createParameterCategory(code, name)
  +saveParameterCategory()
}

class CreateParameterCategoryUI {
}

CreateParameterCategoryUI ..> CreateParameterCategoryController
CreateParameterCategoryController ..> Company
CreateParameterCategoryController ..> ParameterCategory
CreateParameterCategoryController ..> ParameterCategoryStore
ParameterCategoryStore ..> ParameterCategory
Company "1" - -> "1" ParameterCategoryStore : uses
Company "1" - -> "*" ParameterCategory : adopts


@enduml

PlantUML version 1.2021.4(Sun Apr 04 09:49:39 BST 2021)
(GPL source distribution)
Java Runtime: OpenJDK Runtime Environment
JVM: Dynamic Code Evolution 64-Bit Server VM
Default Encoding: Cp1252
Language: pt
Country: PT
--></g></svg>