<?xml version="1.0" encoding="UTF-8" standalone="no"?><svg xmlns="http://www.w3.org/2000/svg" xmlns:xlink="http://www.w3.org/1999/xlink" contentScriptType="application/ecmascript" contentStyleType="text/css" height="99.25px" preserveAspectRatio="none" style="width:210px;height:99px;" version="1.1" viewBox="0 0 210 99" width="210.75px" zoomAndPan="magnify"><defs><filter height="300%" id="f1ijshc97zh8s5" width="300%" x="-1" y="-1"><feGaussianBlur result="blurOut" stdDeviation="0.5"/><feColorMatrix in="blurOut" result="blurOut2" type="matrix" values="0 0 0 0 0 0 0 0 0 0 0 0 0 0 0 0 0 0 .4 0"/><feOffset dx="1.0" dy="1.0" in="blurOut2" result="blurOut3"/><feBlend in="SourceGraphic" in2="blurOut3" mode="normal"/></filter></defs><g><!--MD5=[2c2e2644034c00788261e03c85b06837]
cluster Core--><polygon fill="#FFFFFF" filter="url(#f1ijshc97zh8s5)" points="39,1.5,49,1.5,50.75,7.4023,206.5,7.4023,206.5,97.5,39,97.5,39,1.5" style="stroke:#000000;stroke-width:0.375;"/><line style="stroke:#000000;stroke-width:0.375;" x1="39" x2="50.75" y1="7.4023" y2="7.4023"/><text fill="#000000" font-family="sans-serif" font-size="3.5" font-weight="bold" lengthAdjust="spacing" textLength="8.5" x="40" y="5.6333">Core</text><!--MD5=[121a8bf1197281ab89ed693fab589f94]
cluster Domain--><polygon fill="#FFFFFF" filter="url(#f1ijshc97zh8s5)" points="81.5,14.5,96,14.5,97.75,20.4023,162.5,20.4023,162.5,72.75,81.5,72.75,81.5,14.5" style="stroke:#000000;stroke-width:0.375;"/><line style="stroke:#000000;stroke-width:0.375;" x1="81.5" x2="97.75" y1="20.4023" y2="20.4023"/><text fill="#000000" font-family="sans-serif" font-size="3.5" font-weight="bold" lengthAdjust="spacing" textLength="13" x="82.5" y="18.6333">Domain</text><!--MD5=[c29634d7cdbe8f1c1e88f2fe66ae73ec]
cluster ThirdParty--><polygon fill="#FFFFFF" filter="url(#f1ijshc97zh8s5)" points="178.75,39,198,39,199.75,44.9023,200.5,44.9023,200.5,66,178.75,66,178.75,39" style="stroke:#000000;stroke-width:0.375;"/><line style="stroke:#000000;stroke-width:0.375;" x1="178.75" x2="199.75" y1="44.9023" y2="44.9023"/><text fill="#000000" font-family="sans-serif" font-size="3.5" font-weight="bold" lengthAdjust="spacing" textLength="17.75" x="179.75" y="43.1333">ThirdParty</text><!--MD5=[9681dc6e01e10c6b4fe06895ae94f592]
cluster UI--><polygon fill="#FFFFFF" filter="url(#f1ijshc97zh8s5)" points="4,52.25,9,52.25,10.75,58.1523,28.75,58.1523,28.75,88,4,88,4,52.25" style="stroke:#000000;stroke-width:0.375;"/><line style="stroke:#000000;stroke-width:0.375;" x1="4" x2="10.75" y1="58.1523" y2="58.1523"/><text fill="#000000" font-family="sans-serif" font-size="3.5" font-weight="bold" lengthAdjust="spacing" textLength="3.5" x="5" y="56.3833">UI</text><polygon fill="#FFFFFF" filter="url(#f1ijshc97zh8s5)" points="90.875,25.625,103.375,25.625,105.125,31.5273,106.875,31.5273,106.875,39.4297,90.875,39.4297,90.875,25.625" style="stroke:#000000;stroke-width:0.375;"/><line style="stroke:#000000;stroke-width:0.375;" x1="90.875" x2="105.125" y1="31.5273" y2="31.5273"/><text fill="#000000" font-family="sans-serif" font-size="3.5" font-weight="bold" lengthAdjust="spacing" textLength="11" x="91.875" y="29.7583">Model</text><polygon fill="#FFFFFF" filter="url(#f1ijshc97zh8s5)" points="137.875,25.625,150.875,25.625,152.625,31.5273,154.375,31.5273,154.375,39.4297,137.875,39.4297,137.875,25.625" style="stroke:#000000;stroke-width:0.375;"/><line style="stroke:#000000;stroke-width:0.375;" x1="137.875" x2="152.625" y1="31.5273" y2="31.5273"/><text fill="#000000" font-family="sans-serif" font-size="3.5" font-weight="bold" lengthAdjust="spacing" textLength="11.5" x="138.875" y="29.7583">Stores</text><polygon fill="#FFFFFF" filter="url(#f1ijshc97zh8s5)" points="135.75,48.125,153,48.125,154.75,54.0273,156.5,54.0273,156.5,61.9297,135.75,61.9297,135.75,48.125" style="stroke:#000000;stroke-width:0.375;"/><line style="stroke:#000000;stroke-width:0.375;" x1="135.75" x2="154.75" y1="54.0273" y2="54.0273"/><text fill="#000000" font-family="sans-serif" font-size="3.5" font-weight="bold" lengthAdjust="spacing" textLength="15.75" x="136.75" y="52.2583">Adapters</text><polygon fill="#FFFFFF" filter="url(#f1ijshc97zh8s5)" points="87.5,48.125,106.75,48.125,108.5,54.0273,110.25,54.0273,110.25,61.9297,87.5,61.9297,87.5,48.125" style="stroke:#000000;stroke-width:0.375;"/><line style="stroke:#000000;stroke-width:0.375;" x1="87.5" x2="108.5" y1="54.0273" y2="54.0273"/><text fill="#000000" font-family="sans-serif" font-size="3.5" font-weight="bold" lengthAdjust="spacing" textLength="17.75" x="88.5" y="52.2583">Interfaces</text><polygon fill="#FFFFFF" filter="url(#f1ijshc97zh8s5)" points="92.75,79.625,101.5,79.625,103.25,85.5273,105,85.5273,105,93.4297,92.75,93.4297,92.75,79.625" style="stroke:#000000;stroke-width:0.375;"/><line style="stroke:#000000;stroke-width:0.375;" x1="92.75" x2="103.25" y1="85.5273" y2="85.5273"/><text fill="#000000" font-family="sans-serif" font-size="3.5" font-weight="bold" lengthAdjust="spacing" textLength="7.25" x="93.75" y="83.7583">DTO</text><polygon fill="#FFFFFF" filter="url(#f1ijshc97zh8s5)" points="43,63.875,64.25,63.875,66,69.7773,67.75,69.7773,67.75,77.6797,43,77.6797,43,63.875" style="stroke:#000000;stroke-width:0.375;"/><line style="stroke:#000000;stroke-width:0.375;" x1="43" x2="66" y1="69.7773" y2="69.7773"/><text fill="#000000" font-family="sans-serif" font-size="3.5" font-weight="bold" lengthAdjust="spacing" textLength="19.75" x="44" y="68.0083">Controllers</text><polygon fill="#FFFFFF" filter="url(#f1ijshc97zh8s5)" points="183.25,48.125,192.25,48.125,194,54.0273,195.75,54.0273,195.75,61.9297,183.25,61.9297,183.25,48.125" style="stroke:#000000;stroke-width:0.375;"/><line style="stroke:#000000;stroke-width:0.375;" x1="183.25" x2="194" y1="54.0273" y2="54.0273"/><text fill="#000000" font-family="sans-serif" font-size="3.5" font-weight="bold" lengthAdjust="spacing" textLength="7.5" x="184.25" y="52.2583">APIs</text><polygon fill="#FFFFFF" filter="url(#f1ijshc97zh8s5)" points="10,63.375,19.25,63.375,21,69.2773,22.75,69.2773,22.75,77.1797,10,77.1797,10,63.375" style="stroke:#000000;stroke-width:0.375;"/><line style="stroke:#000000;stroke-width:0.375;" x1="10" x2="21" y1="69.2773" y2="69.2773"/><text fill="#000000" font-family="sans-serif" font-size="3.5" font-weight="bold" lengthAdjust="spacing" textLength="7.75" x="11" y="67.5083">Utils</text><!--MD5=[050e352373bbcff083fb8deb9ac850c3]
link Controllers to Domain--><path d="M67.8325,70.75 C70.9606,70.75 74.4141,70.75 77.8432,70.75 C78.7005,70.75 79.5563,70.75 80.4051,70.75 C80.6173,70.75 80.8291,70.75 81.0403,70.75 C81.1459,70.75 81.2514,70.75 81.3568,70.75 " fill="none" id="Controllers-to-Domain" style="stroke:#A80036;stroke-width:0.25;stroke-dasharray:7.0,7.0;"/><polygon fill="#A80036" points="81.3568,70.75,79.1068,69.75,80.1068,70.75,79.1068,71.75,81.3568,70.75" style="stroke:#A80036;stroke-width:0.25;"/><!--MD5=[01b5c43ff5db2b3ab7f36f76b228af8f]
link Controllers to DTO--><path d="M67.8325,75.22 C75.4675,78.0175 85.0375,81.5225 91.465,83.8775 " fill="none" id="Controllers-to-DTO" style="stroke:#A80036;stroke-width:0.25;stroke-dasharray:7.0,7.0;"/><polygon fill="#A80036" points="92.7075,84.3325,90.9381,82.6203,91.5336,83.903,90.2509,84.4986,92.7075,84.3325" style="stroke:#A80036;stroke-width:0.25;"/><!--MD5=[b67c273f9ea26139499e1bd3b8231806]
link Controllers to Controllers--><path d="M51.9225,63.8425 C51.02,59.4 52.1725,55.125 55.375,55.125 C58.2775,55.125 59.495,58.635 59.0275,62.6 " fill="none" id="Controllers-to-Controllers" style="stroke:#A80036;stroke-width:0.25;stroke-dasharray:7.0,7.0;"/><polygon fill="#A80036" points="58.8275,63.8425,60.1751,61.7818,59.0278,62.6086,58.2009,61.4613,58.8275,63.8425" style="stroke:#A80036;stroke-width:0.25;"/><!--MD5=[bb4acd81d18e7ee3505d81d4ee75e8fc]
link UI to Controllers--><path d="M28.7979,82.6304 C29.2457,82.4851 29.693,82.3368 30.1375,82.1858 C31.0266,81.8838 31.9041,81.5709 32.75,81.25 C35.725,80.1225 38.855,78.765 41.7975,77.4075 " fill="none" id="UI-to-Controllers" style="stroke:#A80036;stroke-width:0.25;stroke-dasharray:7.0,7.0;"/><polygon fill="#A80036" points="42.96,76.87,40.4981,76.9094,41.826,77.3959,41.3395,78.7238,42.96,76.87" style="stroke:#A80036;stroke-width:0.25;"/><!--MD5=[9ea89be3b33715d555650644e5bd9dde]
link UI to DTO--><path d="M29.007,86.0758 C29.1032,86.0764 29.1997,86.077 29.2967,86.0776 C29.6846,86.0799 30.0791,86.0823 30.4799,86.0848 C32.0831,86.0945 33.7869,86.1049 35.5698,86.1158 C39.1358,86.1375 43.0187,86.1611 47.0478,86.1856 C63.1644,86.2838 81.6213,86.3963 91.4975,86.4575 " fill="none" id="UI-to-DTO" style="stroke:#A80036;stroke-width:0.25;stroke-dasharray:7.0,7.0;"/><polygon fill="#A80036" points="92.75,86.465,90.5087,85.4458,91.5,86.4543,90.4915,87.4457,92.75,86.465" style="stroke:#A80036;stroke-width:0.25;"/><!--MD5=[8db2d36dfcc6aadb263e2609429d2d71]
link Model to Stores--><path d="M106.95,32.5 C115.5275,32.5 129.2175,32.5 137.8675,32.5 " fill="none" id="Model-Stores" style="stroke:#A80036;stroke-width:0.25;"/><text fill="#000000" font-family="sans-serif" font-size="3.25" lengthAdjust="spacing" textLength="10" x="118" y="31.6238">uses &gt;</text><!--MD5=[e4260d37eac002eaed16f3dbd7488749]
reverse link Interfaces to Adapters--><path d="M115.3925,55 C122.15,55 129.7875,55 135.725,55 " fill="none" id="Interfaces-backto-Adapters" style="stroke:#A80036;stroke-width:0.25;stroke-dasharray:7.0,7.0;"/><polygon fill="none" points="115.3225,56.75,110.3225,55,115.3225,53.25,115.3225,56.75" style="stroke:#A80036;stroke-width:0.25;"/><!--MD5=[50a3f65e1c55b1f4fbf6f3ec54f8479b]
link Adapters to APIs--><path d="M156.535,55 C164.3225,55 174.8825,55 181.875,55 " fill="none" id="Adapters-to-APIs" style="stroke:#A80036;stroke-width:0.25;"/><polygon fill="#A80036" points="183.135,55,180.8879,53.9936,181.885,54.9964,180.8822,55.9936,183.135,55" style="stroke:#A80036;stroke-width:0.25;"/><!--MD5=[ec270c484a9c326e021aa92cc2e47268]
@startuml
hide empty methods
hide empty attributes
left to right direction
skinparam classAttributeIconSize 0

package Core {

package Domain {

package Model {}

package Stores {}

package Adapters {

}

package Interfaces {}

}

package DTO {

}

package Controllers {


}

package ThirdParty {
package APIs {}
}

}

package UI {
package Utils {

}


}

Controllers ..> Domain
Controllers ..> DTO
Controllers ..> Controllers
UI ..> Controllers
UI ..> DTO
Model - - Stores : uses >
Interfaces <|.. Adapters
Adapters - -> APIs

@enduml

PlantUML version 1.2021.00(Sun Jan 10 10:25:05 GMT 2021)
(GPL source distribution)
Java Runtime: OpenJDK Runtime Environment
JVM: OpenJDK 64-Bit Server VM
Default Encoding: Cp1252
Language: pt
Country: BR
--></g></svg>