<?xml version="1.0" encoding="UTF-8" standalone="no"?><svg xmlns="http://www.w3.org/2000/svg" xmlns:xlink="http://www.w3.org/1999/xlink" contentScriptType="application/ecmascript" contentStyleType="text/css" height="587.5px" preserveAspectRatio="none" style="width:1918px;height:587px;" version="1.1" viewBox="0 0 1918 587" width="1918.75px" zoomAndPan="magnify"><defs><filter height="300%" id="fqa9qub4lyner" width="300%" x="-1" y="-1"><feGaussianBlur result="blurOut" stdDeviation="2.5"/><feColorMatrix in="blurOut" result="blurOut2" type="matrix" values="0 0 0 0 0 0 0 0 0 0 0 0 0 0 0 0 0 0 .4 0"/><feOffset dx="5.0" dy="5.0" in="blurOut2" result="blurOut3"/><feBlend in="SourceGraphic" in2="blurOut3" mode="normal"/></filter></defs><g><!--MD5=[df38be88ccee13e832d6fafd6288a4ca]
class Test--><rect codeLine="8" fill="#FEFECE" filter="url(#fqa9qub4lyner)" height="153.7695" id="Test" style="stroke:#A80036;stroke-width:1.875;" width="170" x="623.75" y="253.125"/><ellipse cx="688.4375" cy="273.125" fill="#ADD1B2" rx="13.75" ry="13.75" style="stroke:#A80036;stroke-width:1.25;"/><path d="M690.9375,268.75 Q691.1914,268.125 691.4844,267.8125 Q691.7773,267.5 692.1094,267.5 Q692.6953,267.5 693.0664,267.8516 Q693.4375,268.2031 693.4375,269.0234 L693.4375,270.9766 Q693.4375,271.7969 693.0859,272.1484 Q692.7344,272.5 692.1875,272.5 Q691.6992,272.5 691.3867,272.2852 Q691.0742,272.0703 690.9375,271.5039 Q690.8789,271.1133 690.6641,270.8984 Q690.2734,270.4883 689.5703,270.2539 Q688.8672,270 688.1641,270 Q687.2852,270 686.543,270.3516 Q685.8203,270.7031 685.2539,271.4844 Q684.6875,272.2656 684.6875,273.3398 L684.6875,274.4922 Q684.6875,275.7813 685.7422,276.6406 Q686.7969,277.5 688.6719,277.5 Q689.7852,277.5 690.5664,277.2461 Q691.0156,277.1094 691.5234,276.6602 Q691.8555,276.4063 692.0313,276.3281 Q692.207,276.25 692.4219,276.25 Q692.832,276.25 693.125,276.582 Q693.4375,276.8945 693.4375,277.3438 Q693.4375,277.7734 693.0078,278.2813 Q692.3828,279.0234 691.3867,279.4336 Q690.0781,280 688.4766,280 Q686.6016,280 685.0977,279.2578 Q683.8867,278.6719 683.0273,277.4023 Q682.1875,276.1328 682.1875,274.6289 L682.1875,273.2617 Q682.1875,271.6992 682.9297,270.332 Q683.6914,268.9648 685,268.2422 Q686.3281,267.5 687.8125,267.5 Q688.7109,267.5 689.4922,267.8125 Q690.2734,268.125 690.9375,268.75 Z " fill="#000000"/><text fill="#000000" font-family="sans-serif" font-size="15" lengthAdjust="spacing" textLength="30" x="714.0625" y="279.2627">Test</text><line style="stroke:#A80036;stroke-width:1.875;" x1="625" x2="792.5" y1="293.125" y2="293.125"/><text fill="#000000" font-family="sans-serif" font-size="13.75" lengthAdjust="spacing" textLength="35" x="631.25" y="312.3987">-code</text><text fill="#000000" font-family="sans-serif" font-size="13.75" lengthAdjust="spacing" textLength="60" x="631.25" y="329.6936">-NhsCode</text><text fill="#000000" font-family="sans-serif" font-size="13.75" lengthAdjust="spacing" textLength="143.75" x="631.25" y="346.9885">-dateOfTestRegistration</text><text fill="#000000" font-family="sans-serif" font-size="13.75" lengthAdjust="spacing" textLength="155" x="631.25" y="364.2834">-dateOfSamplesCollection</text><text fill="#000000" font-family="sans-serif" font-size="13.75" lengthAdjust="spacing" textLength="152.5" x="631.25" y="381.5784">-dateOfChemicalAnalysis</text><text fill="#000000" font-family="sans-serif" font-size="13.75" lengthAdjust="spacing" textLength="105" x="631.25" y="398.8733">-dateOfDiagnosis</text><!--MD5=[02e4b9b7573f1156f41e60aa5b4e25a4]
class Company--><rect codeLine="17" fill="#FEFECE" filter="url(#fqa9qub4lyner)" height="67.2949" id="Company" style="stroke:#A80036;stroke-width:1.875;" width="106.25" x="8.75" y="371.25"/><ellipse cx="27.5" cy="391.25" fill="#ADD1B2" rx="13.75" ry="13.75" style="stroke:#A80036;stroke-width:1.25;"/><path d="M30,386.875 Q30.2539,386.25 30.5469,385.9375 Q30.8398,385.625 31.1719,385.625 Q31.7578,385.625 32.1289,385.9766 Q32.5,386.3281 32.5,387.1484 L32.5,389.1016 Q32.5,389.9219 32.1484,390.2734 Q31.7969,390.625 31.25,390.625 Q30.7617,390.625 30.4492,390.4102 Q30.1367,390.1953 30,389.6289 Q29.9414,389.2383 29.7266,389.0234 Q29.3359,388.6133 28.6328,388.3789 Q27.9297,388.125 27.2266,388.125 Q26.3477,388.125 25.6055,388.4766 Q24.8828,388.8281 24.3164,389.6094 Q23.75,390.3906 23.75,391.4648 L23.75,392.6172 Q23.75,393.9063 24.8047,394.7656 Q25.8594,395.625 27.7344,395.625 Q28.8477,395.625 29.6289,395.3711 Q30.0781,395.2344 30.5859,394.7852 Q30.918,394.5313 31.0938,394.4531 Q31.2695,394.375 31.4844,394.375 Q31.8945,394.375 32.1875,394.707 Q32.5,395.0195 32.5,395.4688 Q32.5,395.8984 32.0703,396.4063 Q31.4453,397.1484 30.4492,397.5586 Q29.1406,398.125 27.5391,398.125 Q25.6641,398.125 24.1602,397.3828 Q22.9492,396.7969 22.0898,395.5273 Q21.25,394.2578 21.25,392.7539 L21.25,391.3867 Q21.25,389.8242 21.9922,388.457 Q22.7539,387.0898 24.0625,386.3672 Q25.3906,385.625 26.875,385.625 Q27.7734,385.625 28.5547,385.9375 Q29.3359,386.25 30,386.875 Z " fill="#000000"/><text fill="#000000" font-family="sans-serif" font-size="15" lengthAdjust="spacing" textLength="66.25" x="45" y="397.3877">Company</text><line style="stroke:#A80036;stroke-width:1.875;" x1="10" x2="113.75" y1="411.25" y2="411.25"/><text fill="#000000" font-family="sans-serif" font-size="13.75" lengthAdjust="spacing" textLength="73.75" x="16.25" y="430.5237">-designation</text><!--MD5=[36afb6bbd95a8ac778c4537c55a683d5]
class ParameterCategory--><rect codeLine="21" fill="#FEFECE" filter="url(#fqa9qub4lyner)" height="84.5898" id="ParameterCategory" style="stroke:#A80036;stroke-width:1.875;" width="173.75" x="1727.5" y="342.5"/><ellipse cx="1746.25" cy="362.5" fill="#ADD1B2" rx="13.75" ry="13.75" style="stroke:#A80036;stroke-width:1.25;"/><path d="M1748.75,358.125 Q1749.0039,357.5 1749.2969,357.1875 Q1749.5898,356.875 1749.9219,356.875 Q1750.5078,356.875 1750.8789,357.2266 Q1751.25,357.5781 1751.25,358.3984 L1751.25,360.3516 Q1751.25,361.1719 1750.8984,361.5234 Q1750.5469,361.875 1750,361.875 Q1749.5117,361.875 1749.1992,361.6602 Q1748.8867,361.4453 1748.75,360.8789 Q1748.6914,360.4883 1748.4766,360.2734 Q1748.0859,359.8633 1747.3828,359.6289 Q1746.6797,359.375 1745.9766,359.375 Q1745.0977,359.375 1744.3555,359.7266 Q1743.6328,360.0781 1743.0664,360.8594 Q1742.5,361.6406 1742.5,362.7148 L1742.5,363.8672 Q1742.5,365.1563 1743.5547,366.0156 Q1744.6094,366.875 1746.4844,366.875 Q1747.5977,366.875 1748.3789,366.6211 Q1748.8281,366.4844 1749.3359,366.0352 Q1749.668,365.7813 1749.8438,365.7031 Q1750.0195,365.625 1750.2344,365.625 Q1750.6445,365.625 1750.9375,365.957 Q1751.25,366.2695 1751.25,366.7188 Q1751.25,367.1484 1750.8203,367.6563 Q1750.1953,368.3984 1749.1992,368.8086 Q1747.8906,369.375 1746.2891,369.375 Q1744.4141,369.375 1742.9102,368.6328 Q1741.6992,368.0469 1740.8398,366.7773 Q1740,365.5078 1740,364.0039 L1740,362.6367 Q1740,361.0742 1740.7422,359.707 Q1741.5039,358.3398 1742.8125,357.6172 Q1744.1406,356.875 1745.625,356.875 Q1746.5234,356.875 1747.3047,357.1875 Q1748.0859,357.5 1748.75,358.125 Z " fill="#000000"/><text fill="#000000" font-family="sans-serif" font-size="15" lengthAdjust="spacing" textLength="133.75" x="1763.75" y="368.6377">ParameterCategory</text><line style="stroke:#A80036;stroke-width:1.875;" x1="1728.75" x2="1900" y1="382.5" y2="382.5"/><text fill="#000000" font-family="sans-serif" font-size="13.75" lengthAdjust="spacing" textLength="35" x="1735" y="401.7737">-code</text><text fill="#000000" font-family="sans-serif" font-size="13.75" lengthAdjust="spacing" textLength="37.5" x="1735" y="419.0686">-name</text><!--MD5=[9681492165142af2a4a3a169d90ee8d4]
class Sample--><rect codeLine="27" fill="#FEFECE" filter="url(#fqa9qub4lyner)" height="67.2949" id="Sample" style="stroke:#A80036;stroke-width:1.875;" width="93.75" x="1056.875" y="123.75"/><ellipse cx="1075.625" cy="143.75" fill="#ADD1B2" rx="13.75" ry="13.75" style="stroke:#A80036;stroke-width:1.25;"/><path d="M1078.125,139.375 Q1078.3789,138.75 1078.6719,138.4375 Q1078.9648,138.125 1079.2969,138.125 Q1079.8828,138.125 1080.2539,138.4766 Q1080.625,138.8281 1080.625,139.6484 L1080.625,141.6016 Q1080.625,142.4219 1080.2734,142.7734 Q1079.9219,143.125 1079.375,143.125 Q1078.8867,143.125 1078.5742,142.9102 Q1078.2617,142.6953 1078.125,142.1289 Q1078.0664,141.7383 1077.8516,141.5234 Q1077.4609,141.1133 1076.7578,140.8789 Q1076.0547,140.625 1075.3516,140.625 Q1074.4727,140.625 1073.7305,140.9766 Q1073.0078,141.3281 1072.4414,142.1094 Q1071.875,142.8906 1071.875,143.9648 L1071.875,145.1172 Q1071.875,146.4063 1072.9297,147.2656 Q1073.9844,148.125 1075.8594,148.125 Q1076.9727,148.125 1077.7539,147.8711 Q1078.2031,147.7344 1078.7109,147.2852 Q1079.043,147.0313 1079.2188,146.9531 Q1079.3945,146.875 1079.6094,146.875 Q1080.0195,146.875 1080.3125,147.207 Q1080.625,147.5195 1080.625,147.9688 Q1080.625,148.3984 1080.1953,148.9063 Q1079.5703,149.6484 1078.5742,150.0586 Q1077.2656,150.625 1075.6641,150.625 Q1073.7891,150.625 1072.2852,149.8828 Q1071.0742,149.2969 1070.2148,148.0273 Q1069.375,146.7578 1069.375,145.2539 L1069.375,143.8867 Q1069.375,142.3242 1070.1172,140.957 Q1070.8789,139.5898 1072.1875,138.8672 Q1073.5156,138.125 1075,138.125 Q1075.8984,138.125 1076.6797,138.4375 Q1077.4609,138.75 1078.125,139.375 Z " fill="#000000"/><text fill="#000000" font-family="sans-serif" font-size="15" lengthAdjust="spacing" textLength="53.75" x="1093.125" y="149.8877">Sample</text><line style="stroke:#A80036;stroke-width:1.875;" x1="1058.125" x2="1149.375" y1="163.75" y2="163.75"/><text fill="#000000" font-family="sans-serif" font-size="13.75" lengthAdjust="spacing" textLength="56.25" x="1064.375" y="183.0237">-barCode</text><!--MD5=[ed6624c6556d5e7b1bd23032162d20b7]
class Client--><rect codeLine="31" fill="#FEFECE" filter="url(#fqa9qub4lyner)" height="188.3594" id="Client" style="stroke:#A80036;stroke-width:1.875;" width="113.75" x="1046.875" y="235.625"/><ellipse cx="1080.8125" cy="255.625" fill="#ADD1B2" rx="13.75" ry="13.75" style="stroke:#A80036;stroke-width:1.25;"/><path d="M1083.3125,251.25 Q1083.5664,250.625 1083.8594,250.3125 Q1084.1523,250 1084.4844,250 Q1085.0703,250 1085.4414,250.3516 Q1085.8125,250.7031 1085.8125,251.5234 L1085.8125,253.4766 Q1085.8125,254.2969 1085.4609,254.6484 Q1085.1094,255 1084.5625,255 Q1084.0742,255 1083.7617,254.7852 Q1083.4492,254.5703 1083.3125,254.0039 Q1083.2539,253.6133 1083.0391,253.3984 Q1082.6484,252.9883 1081.9453,252.7539 Q1081.2422,252.5 1080.5391,252.5 Q1079.6602,252.5 1078.918,252.8516 Q1078.1953,253.2031 1077.6289,253.9844 Q1077.0625,254.7656 1077.0625,255.8398 L1077.0625,256.9922 Q1077.0625,258.2813 1078.1172,259.1406 Q1079.1719,260 1081.0469,260 Q1082.1602,260 1082.9414,259.7461 Q1083.3906,259.6094 1083.8984,259.1602 Q1084.2305,258.9063 1084.4063,258.8281 Q1084.582,258.75 1084.7969,258.75 Q1085.207,258.75 1085.5,259.082 Q1085.8125,259.3945 1085.8125,259.8438 Q1085.8125,260.2734 1085.3828,260.7813 Q1084.7578,261.5234 1083.7617,261.9336 Q1082.4531,262.5 1080.8516,262.5 Q1078.9766,262.5 1077.4727,261.7578 Q1076.2617,261.1719 1075.4023,259.9023 Q1074.5625,258.6328 1074.5625,257.1289 L1074.5625,255.7617 Q1074.5625,254.1992 1075.3047,252.832 Q1076.0664,251.4648 1077.375,250.7422 Q1078.7031,250 1080.1875,250 Q1081.0859,250 1081.8672,250.3125 Q1082.6484,250.625 1083.3125,251.25 Z " fill="#000000"/><text fill="#000000" font-family="sans-serif" font-size="15" lengthAdjust="spacing" textLength="40" x="1101.6875" y="261.7627">Client</text><line style="stroke:#A80036;stroke-width:1.875;" x1="1048.125" x2="1159.375" y1="275.625" y2="275.625"/><text fill="#000000" font-family="sans-serif" font-size="13.75" lengthAdjust="spacing" textLength="37.5" x="1054.375" y="294.8987">-name</text><text fill="#000000" font-family="sans-serif" font-size="13.75" lengthAdjust="spacing" textLength="98.75" x="1054.375" y="312.1936">-citizenCardNum</text><text fill="#000000" font-family="sans-serif" font-size="13.75" lengthAdjust="spacing" textLength="53.75" x="1054.375" y="329.4885">-nhsNum</text><text fill="#000000" font-family="sans-serif" font-size="13.75" lengthAdjust="spacing" textLength="58.75" x="1054.375" y="346.7834">-birthDate</text><text fill="#000000" font-family="sans-serif" font-size="13.75" lengthAdjust="spacing" textLength="27.5" x="1054.375" y="364.0784">-sex</text><text fill="#000000" font-family="sans-serif" font-size="13.75" lengthAdjust="spacing" textLength="60" x="1054.375" y="381.3733">-taxIdNum</text><text fill="#000000" font-family="sans-serif" font-size="13.75" lengthAdjust="spacing" textLength="68.75" x="1054.375" y="398.6682">-phoneNum</text><text fill="#000000" font-family="sans-serif" font-size="13.75" lengthAdjust="spacing" textLength="35" x="1054.375" y="415.9631">-email</text><!--MD5=[0f07739f46effee96e095e9c408da841]
class TestParameter--><rect codeLine="41" fill="#FEFECE" filter="url(#fqa9qub4lyner)" height="40" id="TestParameter" style="stroke:#A80036;stroke-width:1.875;" width="142.5" x="1032.5" y="40"/><ellipse cx="1051.25" cy="60" fill="#ADD1B2" rx="13.75" ry="13.75" style="stroke:#A80036;stroke-width:1.25;"/><path d="M1053.75,55.625 Q1054.0039,55 1054.2969,54.6875 Q1054.5898,54.375 1054.9219,54.375 Q1055.5078,54.375 1055.8789,54.7266 Q1056.25,55.0781 1056.25,55.8984 L1056.25,57.8516 Q1056.25,58.6719 1055.8984,59.0234 Q1055.5469,59.375 1055,59.375 Q1054.5117,59.375 1054.1992,59.1602 Q1053.8867,58.9453 1053.75,58.3789 Q1053.6914,57.9883 1053.4766,57.7734 Q1053.0859,57.3633 1052.3828,57.1289 Q1051.6797,56.875 1050.9766,56.875 Q1050.0977,56.875 1049.3555,57.2266 Q1048.6328,57.5781 1048.0664,58.3594 Q1047.5,59.1406 1047.5,60.2148 L1047.5,61.3672 Q1047.5,62.6563 1048.5547,63.5156 Q1049.6094,64.375 1051.4844,64.375 Q1052.5977,64.375 1053.3789,64.1211 Q1053.8281,63.9844 1054.3359,63.5352 Q1054.668,63.2813 1054.8438,63.2031 Q1055.0195,63.125 1055.2344,63.125 Q1055.6445,63.125 1055.9375,63.457 Q1056.25,63.7695 1056.25,64.2188 Q1056.25,64.6484 1055.8203,65.1563 Q1055.1953,65.8984 1054.1992,66.3086 Q1052.8906,66.875 1051.2891,66.875 Q1049.4141,66.875 1047.9102,66.1328 Q1046.6992,65.5469 1045.8398,64.2773 Q1045,63.0078 1045,61.5039 L1045,60.1367 Q1045,58.5742 1045.7422,57.207 Q1046.5039,55.8398 1047.8125,55.1172 Q1049.1406,54.375 1050.625,54.375 Q1051.5234,54.375 1052.3047,54.6875 Q1053.0859,55 1053.75,55.625 Z " fill="#000000"/><text fill="#000000" font-family="sans-serif" font-size="15" lengthAdjust="spacing" textLength="102.5" x="1068.75" y="66.1377">TestParameter</text><!--MD5=[4e608140b854dae633589343bce77383]
class TestParameterResult--><rect codeLine="42" fill="#FEFECE" filter="url(#fqa9qub4lyner)" height="101.8848" id="TestParameterResult" style="stroke:#A80036;stroke-width:1.875;" width="187.5" x="1330" y="155"/><ellipse cx="1348.75" cy="175" fill="#ADD1B2" rx="13.75" ry="13.75" style="stroke:#A80036;stroke-width:1.25;"/><path d="M1351.25,170.625 Q1351.5039,170 1351.7969,169.6875 Q1352.0898,169.375 1352.4219,169.375 Q1353.0078,169.375 1353.3789,169.7266 Q1353.75,170.0781 1353.75,170.8984 L1353.75,172.8516 Q1353.75,173.6719 1353.3984,174.0234 Q1353.0469,174.375 1352.5,174.375 Q1352.0117,174.375 1351.6992,174.1602 Q1351.3867,173.9453 1351.25,173.3789 Q1351.1914,172.9883 1350.9766,172.7734 Q1350.5859,172.3633 1349.8828,172.1289 Q1349.1797,171.875 1348.4766,171.875 Q1347.5977,171.875 1346.8555,172.2266 Q1346.1328,172.5781 1345.5664,173.3594 Q1345,174.1406 1345,175.2148 L1345,176.3672 Q1345,177.6563 1346.0547,178.5156 Q1347.1094,179.375 1348.9844,179.375 Q1350.0977,179.375 1350.8789,179.1211 Q1351.3281,178.9844 1351.8359,178.5352 Q1352.168,178.2813 1352.3438,178.2031 Q1352.5195,178.125 1352.7344,178.125 Q1353.1445,178.125 1353.4375,178.457 Q1353.75,178.7695 1353.75,179.2188 Q1353.75,179.6484 1353.3203,180.1563 Q1352.6953,180.8984 1351.6992,181.3086 Q1350.3906,181.875 1348.7891,181.875 Q1346.9141,181.875 1345.4102,181.1328 Q1344.1992,180.5469 1343.3398,179.2773 Q1342.5,178.0078 1342.5,176.5039 L1342.5,175.1367 Q1342.5,173.5742 1343.2422,172.207 Q1344.0039,170.8398 1345.3125,170.1172 Q1346.6406,169.375 1348.125,169.375 Q1349.0234,169.375 1349.8047,169.6875 Q1350.5859,170 1351.25,170.625 Z " fill="#000000"/><text fill="#000000" font-family="sans-serif" font-size="15" lengthAdjust="spacing" textLength="147.5" x="1366.25" y="181.1377">TestParameterResult</text><line style="stroke:#A80036;stroke-width:1.875;" x1="1331.25" x2="1516.25" y1="195" y2="195"/><text fill="#000000" font-family="sans-serif" font-size="13.75" lengthAdjust="spacing" textLength="65" x="1337.5" y="214.2737">-createdAt</text><text fill="#000000" font-family="sans-serif" font-size="13.75" lengthAdjust="spacing" textLength="37.5" x="1337.5" y="231.5686">-value</text><text fill="#000000" font-family="sans-serif" font-size="13.75" lengthAdjust="spacing" textLength="41.25" x="1337.5" y="248.8635">-metric</text><!--MD5=[aeb3272166074d8737a70b61b1e71682]
class TestType--><rect codeLine="47" fill="#FEFECE" filter="url(#fqa9qub4lyner)" height="101.8848" id="TestType" style="stroke:#A80036;stroke-width:1.875;" width="132.5" x="1037.5" y="468.75"/><ellipse cx="1069.75" cy="488.75" fill="#ADD1B2" rx="13.75" ry="13.75" style="stroke:#A80036;stroke-width:1.25;"/><path d="M1072.25,484.375 Q1072.5039,483.75 1072.7969,483.4375 Q1073.0898,483.125 1073.4219,483.125 Q1074.0078,483.125 1074.3789,483.4766 Q1074.75,483.8281 1074.75,484.6484 L1074.75,486.6016 Q1074.75,487.4219 1074.3984,487.7734 Q1074.0469,488.125 1073.5,488.125 Q1073.0117,488.125 1072.6992,487.9102 Q1072.3867,487.6953 1072.25,487.1289 Q1072.1914,486.7383 1071.9766,486.5234 Q1071.5859,486.1133 1070.8828,485.8789 Q1070.1797,485.625 1069.4766,485.625 Q1068.5977,485.625 1067.8555,485.9766 Q1067.1328,486.3281 1066.5664,487.1094 Q1066,487.8906 1066,488.9648 L1066,490.1172 Q1066,491.4063 1067.0547,492.2656 Q1068.1094,493.125 1069.9844,493.125 Q1071.0977,493.125 1071.8789,492.8711 Q1072.3281,492.7344 1072.8359,492.2852 Q1073.168,492.0313 1073.3438,491.9531 Q1073.5195,491.875 1073.7344,491.875 Q1074.1445,491.875 1074.4375,492.207 Q1074.75,492.5195 1074.75,492.9688 Q1074.75,493.3984 1074.3203,493.9063 Q1073.6953,494.6484 1072.6992,495.0586 Q1071.3906,495.625 1069.7891,495.625 Q1067.9141,495.625 1066.4102,494.8828 Q1065.1992,494.2969 1064.3398,493.0273 Q1063.5,491.7578 1063.5,490.2539 L1063.5,488.8867 Q1063.5,487.3242 1064.2422,485.957 Q1065.0039,484.5898 1066.3125,483.8672 Q1067.6406,483.125 1069.125,483.125 Q1070.0234,483.125 1070.8047,483.4375 Q1071.5859,483.75 1072.25,484.375 Z " fill="#000000"/><text fill="#000000" font-family="sans-serif" font-size="15" lengthAdjust="spacing" textLength="62.5" x="1090.25" y="494.8877">TestType</text><line style="stroke:#A80036;stroke-width:1.875;" x1="1038.75" x2="1168.75" y1="508.75" y2="508.75"/><text fill="#000000" font-family="sans-serif" font-size="13.75" lengthAdjust="spacing" textLength="36.25" x="1045" y="528.0237">-Code</text><text fill="#000000" font-family="sans-serif" font-size="13.75" lengthAdjust="spacing" textLength="72.5" x="1045" y="545.3186">-Description</text><text fill="#000000" font-family="sans-serif" font-size="13.75" lengthAdjust="spacing" textLength="117.5" x="1045" y="562.6135">-Collecting methods</text><!--MD5=[1f6362a5c8f21d8d6a0fce68f3a92a4e]
class Parameter--><rect codeLine="53" fill="#FEFECE" filter="url(#fqa9qub4lyner)" height="101.8848" id="Parameter" style="stroke:#A80036;stroke-width:1.875;" width="112.5" x="1367.5" y="8.75"/><ellipse cx="1386.25" cy="28.75" fill="#ADD1B2" rx="13.75" ry="13.75" style="stroke:#A80036;stroke-width:1.25;"/><path d="M1388.75,24.375 Q1389.0039,23.75 1389.2969,23.4375 Q1389.5898,23.125 1389.9219,23.125 Q1390.5078,23.125 1390.8789,23.4766 Q1391.25,23.8281 1391.25,24.6484 L1391.25,26.6016 Q1391.25,27.4219 1390.8984,27.7734 Q1390.5469,28.125 1390,28.125 Q1389.5117,28.125 1389.1992,27.9102 Q1388.8867,27.6953 1388.75,27.1289 Q1388.6914,26.7383 1388.4766,26.5234 Q1388.0859,26.1133 1387.3828,25.8789 Q1386.6797,25.625 1385.9766,25.625 Q1385.0977,25.625 1384.3555,25.9766 Q1383.6328,26.3281 1383.0664,27.1094 Q1382.5,27.8906 1382.5,28.9648 L1382.5,30.1172 Q1382.5,31.4063 1383.5547,32.2656 Q1384.6094,33.125 1386.4844,33.125 Q1387.5977,33.125 1388.3789,32.8711 Q1388.8281,32.7344 1389.3359,32.2852 Q1389.668,32.0313 1389.8438,31.9531 Q1390.0195,31.875 1390.2344,31.875 Q1390.6445,31.875 1390.9375,32.207 Q1391.25,32.5195 1391.25,32.9688 Q1391.25,33.3984 1390.8203,33.9063 Q1390.1953,34.6484 1389.1992,35.0586 Q1387.8906,35.625 1386.2891,35.625 Q1384.4141,35.625 1382.9102,34.8828 Q1381.6992,34.2969 1380.8398,33.0273 Q1380,31.7578 1380,30.2539 L1380,28.8867 Q1380,27.3242 1380.7422,25.957 Q1381.5039,24.5898 1382.8125,23.8672 Q1384.1406,23.125 1385.625,23.125 Q1386.5234,23.125 1387.3047,23.4375 Q1388.0859,23.75 1388.75,24.375 Z " fill="#000000"/><text fill="#000000" font-family="sans-serif" font-size="15" lengthAdjust="spacing" textLength="72.5" x="1403.75" y="34.8877">Parameter</text><line style="stroke:#A80036;stroke-width:1.875;" x1="1368.75" x2="1478.75" y1="48.75" y2="48.75"/><text fill="#000000" font-family="sans-serif" font-size="13.75" lengthAdjust="spacing" textLength="35" x="1375" y="68.0237">-code</text><text fill="#000000" font-family="sans-serif" font-size="13.75" lengthAdjust="spacing" textLength="70" x="1375" y="85.3186">-shortName</text><text fill="#000000" font-family="sans-serif" font-size="13.75" lengthAdjust="spacing" textLength="71.25" x="1375" y="102.6135">-description</text><!--MD5=[1934a092c0e7d4da7dc7075b6f4b6b03]
class ClinicalAnalysisLaboratory--><rect codeLine="59" fill="#FEFECE" filter="url(#fqa9qub4lyner)" height="67.2949" id="ClinicalAnalysisLaboratory" style="stroke:#A80036;stroke-width:1.875;" width="221.25" x="246.25" y="431.25"/><ellipse cx="265" cy="451.25" fill="#ADD1B2" rx="13.75" ry="13.75" style="stroke:#A80036;stroke-width:1.25;"/><path d="M267.5,446.875 Q267.7539,446.25 268.0469,445.9375 Q268.3398,445.625 268.6719,445.625 Q269.2578,445.625 269.6289,445.9766 Q270,446.3281 270,447.1484 L270,449.1016 Q270,449.9219 269.6484,450.2734 Q269.2969,450.625 268.75,450.625 Q268.2617,450.625 267.9492,450.4102 Q267.6367,450.1953 267.5,449.6289 Q267.4414,449.2383 267.2266,449.0234 Q266.8359,448.6133 266.1328,448.3789 Q265.4297,448.125 264.7266,448.125 Q263.8477,448.125 263.1055,448.4766 Q262.3828,448.8281 261.8164,449.6094 Q261.25,450.3906 261.25,451.4648 L261.25,452.6172 Q261.25,453.9063 262.3047,454.7656 Q263.3594,455.625 265.2344,455.625 Q266.3477,455.625 267.1289,455.3711 Q267.5781,455.2344 268.0859,454.7852 Q268.418,454.5313 268.5938,454.4531 Q268.7695,454.375 268.9844,454.375 Q269.3945,454.375 269.6875,454.707 Q270,455.0195 270,455.4688 Q270,455.8984 269.5703,456.4063 Q268.9453,457.1484 267.9492,457.5586 Q266.6406,458.125 265.0391,458.125 Q263.1641,458.125 261.6602,457.3828 Q260.4492,456.7969 259.5898,455.5273 Q258.75,454.2578 258.75,452.7539 L258.75,451.3867 Q258.75,449.8242 259.4922,448.457 Q260.2539,447.0898 261.5625,446.3672 Q262.8906,445.625 264.375,445.625 Q265.2734,445.625 266.0547,445.9375 Q266.8359,446.25 267.5,446.875 Z " fill="#000000"/><text fill="#000000" font-family="sans-serif" font-size="15" lengthAdjust="spacing" textLength="181.25" x="282.5" y="457.3877">ClinicalAnalysisLaboratory</text><line style="stroke:#A80036;stroke-width:1.875;" x1="247.5" x2="466.25" y1="471.25" y2="471.25"/><text fill="#000000" font-family="sans-serif" font-size="13.75" lengthAdjust="spacing" textLength="77.5" x="253.75" y="490.5237">-laboratoryID</text><!--MD5=[f00dbe8c0302c6aec2cb26b3c659c8fc]
class Report--><rect fill="#FEFECE" filter="url(#fqa9qub4lyner)" height="40" id="Report" style="stroke:#A80036;stroke-width:1.875;" width="86.25" x="313.75" y="237.5"/><ellipse cx="332.5" cy="257.5" fill="#ADD1B2" rx="13.75" ry="13.75" style="stroke:#A80036;stroke-width:1.25;"/><path d="M335,253.125 Q335.2539,252.5 335.5469,252.1875 Q335.8398,251.875 336.1719,251.875 Q336.7578,251.875 337.1289,252.2266 Q337.5,252.5781 337.5,253.3984 L337.5,255.3516 Q337.5,256.1719 337.1484,256.5234 Q336.7969,256.875 336.25,256.875 Q335.7617,256.875 335.4492,256.6602 Q335.1367,256.4453 335,255.8789 Q334.9414,255.4883 334.7266,255.2734 Q334.3359,254.8633 333.6328,254.6289 Q332.9297,254.375 332.2266,254.375 Q331.3477,254.375 330.6055,254.7266 Q329.8828,255.0781 329.3164,255.8594 Q328.75,256.6406 328.75,257.7148 L328.75,258.8672 Q328.75,260.1563 329.8047,261.0156 Q330.8594,261.875 332.7344,261.875 Q333.8477,261.875 334.6289,261.6211 Q335.0781,261.4844 335.5859,261.0352 Q335.918,260.7813 336.0938,260.7031 Q336.2695,260.625 336.4844,260.625 Q336.8945,260.625 337.1875,260.957 Q337.5,261.2695 337.5,261.7188 Q337.5,262.1484 337.0703,262.6563 Q336.4453,263.3984 335.4492,263.8086 Q334.1406,264.375 332.5391,264.375 Q330.6641,264.375 329.1602,263.6328 Q327.9492,263.0469 327.0898,261.7773 Q326.25,260.5078 326.25,259.0039 L326.25,257.6367 Q326.25,256.0742 326.9922,254.707 Q327.7539,253.3398 329.0625,252.6172 Q330.3906,251.875 331.875,251.875 Q332.7734,251.875 333.5547,252.1875 Q334.3359,252.5 335,253.125 Z " fill="#000000"/><text fill="#000000" font-family="sans-serif" font-size="15" lengthAdjust="spacing" textLength="46.25" x="350" y="263.6377">Report</text><!--MD5=[e981d4f96c4342412d1e68160b30cf70]
link Test to TestType--><path codeLine="63" d="M794.2,370.7625 C866.9625,405.975 970.6125,456.1625 1037.225,488.4 " fill="none" id="Test-TestType" style="stroke:#A80036;stroke-width:1.25;"/><polygon fill="#000000" points="870.6256,382.9428,862.0494,374.7101,858.8482,381.3233,870.6256,382.9428" style="stroke:#000000;stroke-width:1.25;"/><text fill="#000000" font-family="sans-serif" font-size="16.25" lengthAdjust="spacing" textLength="90" x="876.25" y="386.8689">classified as</text><text fill="#000000" font-family="sans-serif" font-size="16.25" lengthAdjust="spacing" textLength="6.25" x="803.8879" y="393.2065">*</text><text fill="#000000" font-family="sans-serif" font-size="16.25" lengthAdjust="spacing" textLength="8.75" x="1018.9478" y="502.4373">1</text><!--MD5=[63d25d625ab355317a074a623d33bba8]
link Report to Test--><path codeLine="64" d="M400.2625,266.25 C455.35,277.675 553.0875,297.9625 623.55,312.575 " fill="none" id="Report-Test" style="stroke:#A80036;stroke-width:1.25;"/><polygon fill="#000000" points="533.6197,280.2394,523.2953,274.3455,521.8028,281.5396,533.6197,280.2394" style="stroke:#000000;stroke-width:1.25;"/><text fill="#000000" font-family="sans-serif" font-size="16.25" lengthAdjust="spacing" textLength="30" x="538.75" y="285.6189">is of</text><text fill="#000000" font-family="sans-serif" font-size="16.25" lengthAdjust="spacing" textLength="8.75" x="410.1135" y="287.0314">1</text><text fill="#000000" font-family="sans-serif" font-size="16.25" lengthAdjust="spacing" textLength="8.75" x="605.0027" y="328.6548">1</text><!--MD5=[3994f36c72829dbcddd1cf7021dddf61]
link Test to Client--><path codeLine="65" d="M794.2,330 C870.5625,330 980.9625,330 1046.85,330 " fill="none" id="Test-Client" style="stroke:#A80036;stroke-width:1.25;"/><polygon fill="#000000" points="869.375,318.9697,858.0686,315.2961,858.0686,322.6434,869.375,318.9697" style="stroke:#000000;stroke-width:1.25;"/><text fill="#000000" font-family="sans-serif" font-size="16.25" lengthAdjust="spacing" textLength="93.75" x="874.375" y="325.6189">requested by</text><text fill="#000000" font-family="sans-serif" font-size="16.25" lengthAdjust="spacing" textLength="6.25" x="803.8879" y="347.9856">*</text><text fill="#000000" font-family="sans-serif" font-size="16.25" lengthAdjust="spacing" textLength="8.75" x="1027.9513" y="348.5939">1</text><!--MD5=[6df8849671cb880f6936e94aa30db6f9]
link Parameter to ParameterCategory--><path codeLine="66" d="M1480.0875,102.5625 C1492.475,112.3 1505.5,122.675 1517.5,132.5 C1605.775,204.7375 1706.3375,291.6375 1764.4875,342.3625 " fill="none" id="Parameter-ParameterCategory" style="stroke:#A80036;stroke-width:1.25;"/><polygon fill="#000000" points="1566.0282,159.2486,1559.7525,149.1518,1555.0163,154.7689,1566.0282,159.2486" style="stroke:#000000;stroke-width:1.25;"/><text fill="#000000" font-family="sans-serif" font-size="16.25" lengthAdjust="spacing" textLength="116.25" x="1572.5" y="161.8689">presented under</text><text fill="#000000" font-family="sans-serif" font-size="16.25" lengthAdjust="spacing" textLength="6.25" x="1489.936" y="128.2244">*</text><text fill="#000000" font-family="sans-serif" font-size="16.25" lengthAdjust="spacing" textLength="8.75" x="1745.0546" y="328.952">1</text><!--MD5=[8aaf0efd5e2f3824be7ea3e488dcc283]
link TestType to ParameterCategory--><path codeLine="67" d="M1170.0375,507.6 C1298.25,483.1625 1583.625,428.75 1727.175,401.3875 " fill="none" id="TestType-ParameterCategory" style="stroke:#A80036;stroke-width:1.25;"/><polygon fill="#000000" points="1366.7644,430.2993,1354.9701,428.8079,1356.3461,436.0253,1366.7644,430.2993" style="stroke:#000000;stroke-width:1.25;"/><text fill="#000000" font-family="sans-serif" font-size="16.25" lengthAdjust="spacing" textLength="120" x="1371.875" y="438.1189">characterized by</text><text fill="#000000" font-family="sans-serif" font-size="16.25" lengthAdjust="spacing" textLength="8.75" x="1179.9744" y="524.2056">1</text><text fill="#000000" font-family="sans-serif" font-size="16.25" lengthAdjust="spacing" textLength="25" x="1692.3608" y="420.8957">1..*</text><!--MD5=[b72ac8ab7fb5921fceb5036a3902baea]
link Test to Sample--><path codeLine="68" d="M794.2,293 C874.3875,257.75 992.1125,206.0125 1056.4125,177.75 " fill="none" id="Test-Sample" style="stroke:#A80036;stroke-width:1.25;"/><polygon fill="#000000" points="887.5967,195.2049,875.7678,196.3912,878.7242,203.1174,887.5967,195.2049" style="stroke:#000000;stroke-width:1.25;"/><text fill="#000000" font-family="sans-serif" font-size="16.25" lengthAdjust="spacing" textLength="56.25" x="893.125" y="204.3689">collects</text><text fill="#000000" font-family="sans-serif" font-size="16.25" lengthAdjust="spacing" textLength="8.75" x="804.0246" y="306.9387">1</text><text fill="#000000" font-family="sans-serif" font-size="16.25" lengthAdjust="spacing" textLength="25" x="1021.8759" y="199.4914">1..*</text><!--MD5=[f24c888dadeb846430474fe80a58922b]
link Test to TestParameter--><path codeLine="69" d="M758.9625,252.925 C778.8875,226.0375 803.725,197.3375 831.25,176.25 C892.0375,129.65 974.3375,97.8375 1032.2875,79.425 " fill="none" id="Test-TestParameter" style="stroke:#A80036;stroke-width:1.25;"/><polygon fill="#000000" points="842.7767,79.3702,831.2623,82.328,835.1999,88.5311,842.7767,79.3702" style="stroke:#000000;stroke-width:1.25;"/><text fill="#000000" font-family="sans-serif" font-size="16.25" lengthAdjust="spacing" textLength="145" x="848.75" y="89.3689">requests analysis of</text><text fill="#000000" font-family="sans-serif" font-size="16.25" lengthAdjust="spacing" textLength="8.75" x="755.5125" y="239.7501">1</text><text fill="#000000" font-family="sans-serif" font-size="16.25" lengthAdjust="spacing" textLength="25" x="997.5793" y="99.7216">1..*</text><!--MD5=[92e8e476cc9e9004a7125f53a120ec97]
link TestParameter to Parameter--><path codeLine="70" d="M1175.075,60 C1232.9625,60 1314.0125,60 1367.3625,60 " fill="none" id="TestParameter-Parameter" style="stroke:#A80036;stroke-width:1.25;"/><polygon fill="#000000" points="1226.25,48.9697,1214.9436,45.2961,1214.9436,52.6434,1226.25,48.9697" style="stroke:#000000;stroke-width:1.25;"/><text fill="#000000" font-family="sans-serif" font-size="16.25" lengthAdjust="spacing" textLength="58.75" x="1231.25" y="55.6189">refers to</text><text fill="#000000" font-family="sans-serif" font-size="16.25" lengthAdjust="spacing" textLength="6.25" x="1185.0792" y="78.2422">*</text><text fill="#000000" font-family="sans-serif" font-size="16.25" lengthAdjust="spacing" textLength="8.75" x="1348.9285" y="78.5467">1</text><!--MD5=[0e00e25ac6b8c14659aaff2cf7e5df08]
link TestParameter to TestParameterResult--><path codeLine="71" d="M1148.4875,80.025 C1194.925,101.425 1269.95,135.975 1329.75,163.525 " fill="none" id="TestParameter-TestParameterResult" style="stroke:#A80036;stroke-width:1.25;"/><polygon fill="#000000" points="1224.4266,104.0847,1215.6946,96.0175,1212.6204,102.6908,1224.4266,104.0847" style="stroke:#000000;stroke-width:1.25;"/><text fill="#000000" font-family="sans-serif" font-size="16.25" lengthAdjust="spacing" textLength="61.25" x="1230" y="108.1189">contains</text><text fill="#000000" font-family="sans-serif" font-size="16.25" lengthAdjust="spacing" textLength="8.75" x="1153.1076" y="106.9125">1</text><text fill="#000000" font-family="sans-serif" font-size="16.25" lengthAdjust="spacing" textLength="27.5" x="1292.6535" y="177.5263">0..1</text><!--MD5=[2eb961b30663a01bbfd8b4b9b8950031]
link ClinicalAnalysisLaboratory to TestType--><path codeLine="72" d="M467.5625,473.0875 C624.7625,484.7 909.6,505.75 1037.3875,515.1875 " fill="none" id="ClinicalAnalysisLaboratory-TestType" style="stroke:#A80036;stroke-width:1.25;"/><polygon fill="#000000" points="680.608,474.4302,669.6031,469.9335,669.0617,477.2608,680.608,474.4302" style="stroke:#000000;stroke-width:1.25;"/><text fill="#000000" font-family="sans-serif" font-size="16.25" lengthAdjust="spacing" textLength="62.5" x="685.625" y="480.6189">operates</text><text fill="#000000" font-family="sans-serif" font-size="16.25" lengthAdjust="spacing" textLength="8.75" x="477.4507" y="491.5385">1</text><text fill="#000000" font-family="sans-serif" font-size="16.25" lengthAdjust="spacing" textLength="25" x="1002.2832" y="532.7886">1..*</text><!--MD5=[d480452e7d21fe720ba0207568bc7434]
link ClinicalAnalysisLaboratory to Test--><path codeLine="73" d="M467.8375,438.7125 C505.9875,428.125 548.6375,414.625 586.25,398.75 C598.625,393.525 611.3375,387.3375 623.65,380.85 " fill="none" id="ClinicalAnalysisLaboratory-Test" style="stroke:#A80036;stroke-width:1.25;"/><polygon fill="#000000" points="517.109,385.5439,505.231,386.0361,507.7888,392.9239,517.109,385.5439" style="stroke:#000000;stroke-width:1.25;"/><text fill="#000000" font-family="sans-serif" font-size="16.25" lengthAdjust="spacing" textLength="62.5" x="522.5" y="394.3689">performs</text><text fill="#000000" font-family="sans-serif" font-size="16.25" lengthAdjust="spacing" textLength="8.75" x="477.3889" y="454.2593">1</text><text fill="#000000" font-family="sans-serif" font-size="16.25" lengthAdjust="spacing" textLength="25" x="588.585" y="404.0157">1..*</text><!--MD5=[7e4bc624457760b649895ff2ead938fa]
link Company to Test--><path codeLine="74" d="M115.0625,396.625 C127.325,394.75 140.3625,392.85 152.5,391.25 C319.2375,369.2375 514.9,348.925 623.6875,338.125 " fill="none" id="Company-Test" style="stroke:#A80036;stroke-width:1.25;"/><polygon fill="#000000" points="326.8341,342.0056,315.182,339.6479,316.0215,346.9471,326.8341,342.0056" style="stroke:#000000;stroke-width:1.25;"/><text fill="#000000" font-family="sans-serif" font-size="16.25" lengthAdjust="spacing" textLength="66.25" x="331.875" y="349.3689">conducts</text><text fill="#000000" font-family="sans-serif" font-size="16.25" lengthAdjust="spacing" textLength="8.75" x="124.9561" y="390.3911">1</text><text fill="#000000" font-family="sans-serif" font-size="16.25" lengthAdjust="spacing" textLength="6.25" x="607.2408" y="357.1139">*</text><!--MD5=[aafc5d8a5829a6a8d6dc892cb1ff5d24]
link Company to ClinicalAnalysisLaboratory--><path codeLine="75" d="M115.075,415.6625 C151.3625,423.1 201.1375,433.3125 246,442.5125 " fill="none" id="Company-ClinicalAnalysisLaboratory" style="stroke:#A80036;stroke-width:1.25;"/><polygon fill="#000000" points="164.8726,413.9753,154.5348,408.1052,153.0587,415.3027,164.8726,413.9753" style="stroke:#000000;stroke-width:1.25;"/><text fill="#000000" font-family="sans-serif" font-size="16.25" lengthAdjust="spacing" textLength="37.5" x="170" y="419.3689">owns</text><text fill="#000000" font-family="sans-serif" font-size="16.25" lengthAdjust="spacing" textLength="8.75" x="124.9707" y="436.1382">1</text><text fill="#000000" font-family="sans-serif" font-size="16.25" lengthAdjust="spacing" textLength="25" x="211.1686" y="458.412">2..*</text><!--MD5=[62a3af9a6db1b4a3a748d3b11aa6dc17]
@startuml

left to right direction
skinparam classAttributeIconSize 0
hide empty methods
hide empty attributes
/'skinparam linetype ortho'/

class Test{
- code
- NhsCode
- dateOfTestRegistration
- dateOfSamplesCollection
- dateOfChemicalAnalysis
- dateOfDiagnosis
}

class Company {
-designation
}

class ParameterCategory{
  -code
  -name
}


class Sample{
- barCode
}

class Client{
- name
- citizenCardNum
- nhsNum
- birthDate
- sex
- taxIdNum
- phoneNum
- email
}
class TestParameter{}
class TestParameterResult{
- createdAt
- value
- metric
}
class TestType{
- Code
- Description
- Collecting methods
}

class Parameter{
- code
- shortName
- description
}

class ClinicalAnalysisLaboratory{
- laboratoryID
}

Test "*" - - "1" TestType : classified as >
Report "1" - - "1" Test : is of >
Test "*" - - "1" Client : requested by >
Parameter "*" - - "1" ParameterCategory: presented under >
TestType "1" - - "1..*" ParameterCategory : characterized by >
Test "1" - - "1..*" Sample : collects >
Test "1" - - "1..*" TestParameter : requests analysis of >
TestParameter "*" - - "1" Parameter : refers to >
TestParameter "1" - - "0..1" TestParameterResult : contains >
ClinicalAnalysisLaboratory "1" - - "1..*" TestType : operates >
ClinicalAnalysisLaboratory "1" - - "1..*" Test : performs >
Company "1" - - - "*" Test : conducts >
Company "1" - - "2..*" ClinicalAnalysisLaboratory : owns >

@enduml

@startuml

left to right direction
skinparam classAttributeIconSize 0
hide empty methods
hide empty attributes

class Test{
- code
- NhsCode
- dateOfTestRegistration
- dateOfSamplesCollection
- dateOfChemicalAnalysis
- dateOfDiagnosis
}

class Company {
-designation
}

class ParameterCategory{
  -code
  -name
}


class Sample{
- barCode
}

class Client{
- name
- citizenCardNum
- nhsNum
- birthDate
- sex
- taxIdNum
- phoneNum
- email
}
class TestParameter{}
class TestParameterResult{
- createdAt
- value
- metric
}
class TestType{
- Code
- Description
- Collecting methods
}

class Parameter{
- code
- shortName
- description
}

class ClinicalAnalysisLaboratory{
- laboratoryID
}

Test "*" - - "1" TestType : classified as >
Report "1" - - "1" Test : is of >
Test "*" - - "1" Client : requested by >
Parameter "*" - - "1" ParameterCategory: presented under >
TestType "1" - - "1..*" ParameterCategory : characterized by >
Test "1" - - "1..*" Sample : collects >
Test "1" - - "1..*" TestParameter : requests analysis of >
TestParameter "*" - - "1" Parameter : refers to >
TestParameter "1" - - "0..1" TestParameterResult : contains >
ClinicalAnalysisLaboratory "1" - - "1..*" TestType : operates >
ClinicalAnalysisLaboratory "1" - - "1..*" Test : performs >
Company "1" - - - "*" Test : conducts >
Company "1" - - "2..*" ClinicalAnalysisLaboratory : owns >

@enduml

PlantUML version 1.2021.00(Sun Jan 10 10:25:05 GMT 2021)
(GPL source distribution)
Java Runtime: OpenJDK Runtime Environment
JVM: OpenJDK 64-Bit Server VM
Default Encoding: Cp1252
Language: pt
Country: BR
--></g></svg>