<?xml version="1.0" encoding="UTF-8" standalone="no"?><svg xmlns="http://www.w3.org/2000/svg" xmlns:xlink="http://www.w3.org/1999/xlink" contentScriptType="application/ecmascript" contentStyleType="text/css" height="879.57px" preserveAspectRatio="none" style="width:2353px;height:879px;" version="1.1" viewBox="0 0 2353 879" width="2353.35px" zoomAndPan="magnify"><defs><filter height="300%" id="fngk1kx96kofl" width="300%" x="-1" y="-1"><feGaussianBlur result="blurOut" stdDeviation="1.74"/><feColorMatrix in="blurOut" result="blurOut2" type="matrix" values="0 0 0 0 0 0 0 0 0 0 0 0 0 0 0 0 0 0 .4 0"/><feOffset dx="3.48" dy="3.48" in="blurOut2" result="blurOut3"/><feBlend in="SourceGraphic" in2="blurOut3" mode="normal"/></filter></defs><g><!--MD5=[1934a092c0e7d4da7dc7075b6f4b6b03]
class ClinicalAnalysisLaboratory--><rect codeLine="10" fill="#FEFECE" filter="url(#fngk1kx96kofl)" height="53.7973" id="ClinicalAnalysisLaboratory" style="stroke:#A80036;stroke-width:1.305;" width="153.99" x="1423.32" y="539.4"/><ellipse cx="1436.37" cy="553.32" fill="#ADD1B2" rx="9.57" ry="9.57" style="stroke:#A80036;stroke-width:0.87;"/><path d="M1438.11,550.275 Q1438.2867,549.84 1438.4906,549.6225 Q1438.6945,549.405 1438.9256,549.405 Q1439.3334,549.405 1439.5917,549.6497 Q1439.85,549.8944 1439.85,550.4653 L1439.85,551.8247 Q1439.85,552.3956 1439.6053,552.6403 Q1439.3606,552.885 1438.98,552.885 Q1438.6402,552.885 1438.4227,552.7355 Q1438.2052,552.5859 1438.11,552.1917 Q1438.0692,551.9198 1437.9197,551.7703 Q1437.6478,551.4848 1437.1584,551.3217 Q1436.6691,551.145 1436.1797,551.145 Q1435.568,551.145 1435.0514,551.3897 Q1434.5484,551.6344 1434.1542,552.1781 Q1433.76,552.7219 1433.76,553.4695 L1433.76,554.2716 Q1433.76,555.1688 1434.4941,555.7669 Q1435.2281,556.365 1436.5331,556.365 Q1437.308,556.365 1437.8517,556.1883 Q1438.1644,556.0931 1438.5178,555.7805 Q1438.7489,555.6038 1438.8713,555.5494 Q1438.9936,555.495 1439.1431,555.495 Q1439.4286,555.495 1439.6325,555.7261 Q1439.85,555.9436 1439.85,556.2563 Q1439.85,556.5553 1439.5509,556.9087 Q1439.1159,557.4253 1438.4227,557.7108 Q1437.5119,558.105 1436.3972,558.105 Q1435.0922,558.105 1434.0455,557.5884 Q1433.2027,557.1806 1432.6045,556.297 Q1432.02,555.4134 1432.02,554.3667 L1432.02,553.4152 Q1432.02,552.3277 1432.5366,551.3761 Q1433.0667,550.4245 1433.9775,549.9216 Q1434.9019,549.405 1435.935,549.405 Q1436.5603,549.405 1437.1041,549.6225 Q1437.6478,549.84 1438.11,550.275 Z " fill="#000000"/><text fill="#000000" font-family="sans-serif" font-size="10.44" lengthAdjust="spacing" textLength="126.15" x="1448.55" y="557.5918">ClinicalAnalysisLaboratory</text><line style="stroke:#A80036;stroke-width:1.305;" x1="1424.19" x2="1576.44" y1="567.24" y2="567.24"/><text fill="#000000" font-family="sans-serif" font-size="9.57" lengthAdjust="spacing" textLength="53.94" x="1428.54" y="580.6545">-laboratoryID</text><line style="stroke:#A80036;stroke-width:1.305;" x1="1424.19" x2="1576.44" y1="586.2373" y2="586.2373"/><!--MD5=[df38be88ccee13e832d6fafd6288a4ca]
class Test--><rect codeLine="15" fill="#FEFECE" filter="url(#fngk1kx96kofl)" height="113.9836" id="Test" style="stroke:#A80036;stroke-width:1.305;" width="118.32" x="1603.41" y="411.075"/><ellipse cx="1648.4325" cy="424.995" fill="#ADD1B2" rx="9.57" ry="9.57" style="stroke:#A80036;stroke-width:0.87;"/><path d="M1650.1725,421.95 Q1650.3492,421.515 1650.5531,421.2975 Q1650.757,421.08 1650.9881,421.08 Q1651.3959,421.08 1651.6542,421.3247 Q1651.9125,421.5694 1651.9125,422.1403 L1651.9125,423.4997 Q1651.9125,424.0706 1651.6678,424.3153 Q1651.4231,424.56 1651.0425,424.56 Q1650.7027,424.56 1650.4852,424.4105 Q1650.2677,424.2609 1650.1725,423.8667 Q1650.1317,423.5948 1649.9822,423.4453 Q1649.7103,423.1598 1649.2209,422.9967 Q1648.7316,422.82 1648.2422,422.82 Q1647.6305,422.82 1647.1139,423.0647 Q1646.6109,423.3094 1646.2167,423.8531 Q1645.8225,424.3969 1645.8225,425.1445 L1645.8225,425.9466 Q1645.8225,426.8438 1646.5566,427.4419 Q1647.2906,428.04 1648.5956,428.04 Q1649.3705,428.04 1649.9142,427.8633 Q1650.2269,427.7681 1650.5803,427.4555 Q1650.8114,427.2788 1650.9338,427.2244 Q1651.0561,427.17 1651.2056,427.17 Q1651.4911,427.17 1651.695,427.4011 Q1651.9125,427.6186 1651.9125,427.9313 Q1651.9125,428.2303 1651.6134,428.5838 Q1651.1784,429.1003 1650.4852,429.3858 Q1649.5744,429.78 1648.4597,429.78 Q1647.1547,429.78 1646.108,429.2634 Q1645.2652,428.8556 1644.667,427.972 Q1644.0825,427.0884 1644.0825,426.0417 L1644.0825,425.0902 Q1644.0825,424.0027 1644.5991,423.0511 Q1645.1292,422.0995 1646.04,421.5966 Q1646.9644,421.08 1647.9975,421.08 Q1648.6228,421.08 1649.1666,421.2975 Q1649.7103,421.515 1650.1725,421.95 Z " fill="#000000"/><text fill="#000000" font-family="sans-serif" font-size="10.44" lengthAdjust="spacing" textLength="20.88" x="1666.2675" y="429.2668">Test</text><line style="stroke:#A80036;stroke-width:1.305;" x1="1604.28" x2="1720.86" y1="438.915" y2="438.915"/><text fill="#000000" font-family="sans-serif" font-size="9.57" lengthAdjust="spacing" textLength="24.36" x="1608.63" y="452.3295">-code</text><text fill="#000000" font-family="sans-serif" font-size="9.57" lengthAdjust="spacing" textLength="41.76" x="1608.63" y="464.3667">-NhsCode</text><text fill="#000000" font-family="sans-serif" font-size="9.57" lengthAdjust="spacing" textLength="100.05" x="1608.63" y="476.404">-dateOfTestRegistration</text><text fill="#000000" font-family="sans-serif" font-size="9.57" lengthAdjust="spacing" textLength="107.88" x="1608.63" y="488.4413">-dateOfSamplesCollection</text><text fill="#000000" font-family="sans-serif" font-size="9.57" lengthAdjust="spacing" textLength="106.14" x="1608.63" y="500.4785">-dateOfChemicalAnalysis</text><text fill="#000000" font-family="sans-serif" font-size="9.57" lengthAdjust="spacing" textLength="73.08" x="1608.63" y="512.5158">-dateOfDiagnosis</text><line style="stroke:#A80036;stroke-width:1.305;" x1="1604.28" x2="1720.86" y1="518.0986" y2="518.0986"/><!--MD5=[91a243d16834250cc0783f93b105dc5d]
class TestFileDTO--><rect codeLine="24" fill="#FEFECE" filter="url(#fngk1kx96kofl)" height="138.0581" id="TestFileDTO" style="stroke:#A80036;stroke-width:1.305;" width="118.32" x="373.23" y="601.605"/><ellipse cx="399.9825" cy="615.525" fill="#ADD1B2" rx="9.57" ry="9.57" style="stroke:#A80036;stroke-width:0.87;"/><path d="M401.7225,612.48 Q401.8992,612.045 402.1031,611.8275 Q402.307,611.61 402.5381,611.61 Q402.9459,611.61 403.2042,611.8547 Q403.4625,612.0994 403.4625,612.6703 L403.4625,614.0297 Q403.4625,614.6006 403.2178,614.8453 Q402.9731,615.09 402.5925,615.09 Q402.2527,615.09 402.0352,614.9405 Q401.8177,614.7909 401.7225,614.3967 Q401.6817,614.1248 401.5322,613.9753 Q401.2603,613.6898 400.7709,613.5267 Q400.2816,613.35 399.7922,613.35 Q399.1805,613.35 398.6639,613.5947 Q398.1609,613.8394 397.7667,614.3831 Q397.3725,614.9269 397.3725,615.6745 L397.3725,616.4766 Q397.3725,617.3738 398.1066,617.9719 Q398.8406,618.57 400.1456,618.57 Q400.9205,618.57 401.4642,618.3933 Q401.7769,618.2981 402.1303,617.9855 Q402.3614,617.8088 402.4838,617.7544 Q402.6061,617.7 402.7556,617.7 Q403.0411,617.7 403.245,617.9311 Q403.4625,618.1486 403.4625,618.4613 Q403.4625,618.7603 403.1634,619.1138 Q402.7284,619.6303 402.0352,619.9158 Q401.1244,620.31 400.0097,620.31 Q398.7047,620.31 397.658,619.7934 Q396.8152,619.3856 396.217,618.502 Q395.6325,617.6184 395.6325,616.5717 L395.6325,615.6202 Q395.6325,614.5327 396.1491,613.5811 Q396.6792,612.6295 397.59,612.1266 Q398.5144,611.61 399.5475,611.61 Q400.1728,611.61 400.7166,611.8275 Q401.2603,612.045 401.7225,612.48 Z " fill="#000000"/><text fill="#000000" font-family="sans-serif" font-size="10.44" lengthAdjust="spacing" textLength="60.03" x="415.2075" y="619.7968">TestFileDTO</text><line style="stroke:#A80036;stroke-width:1.305;" x1="374.1" x2="490.68" y1="629.445" y2="629.445"/><text fill="#000000" font-family="sans-serif" font-size="9.57" lengthAdjust="spacing" textLength="44.37" x="378.45" y="642.8595">-ClientDTO</text><text fill="#000000" font-family="sans-serif" font-size="9.57" lengthAdjust="spacing" textLength="41.76" x="378.45" y="654.8967">-NhsCode</text><text fill="#000000" font-family="sans-serif" font-size="9.57" lengthAdjust="spacing" textLength="91.35" x="378.45" y="666.934">-TestParameterCodes</text><text fill="#000000" font-family="sans-serif" font-size="9.57" lengthAdjust="spacing" textLength="90.48" x="378.45" y="678.9713">-TestParameterResult</text><text fill="#000000" font-family="sans-serif" font-size="9.57" lengthAdjust="spacing" textLength="100.05" x="378.45" y="691.0085">-dateOfTestRegistration</text><text fill="#000000" font-family="sans-serif" font-size="9.57" lengthAdjust="spacing" textLength="107.88" x="378.45" y="703.0458">-dateOfSamplesCollection</text><text fill="#000000" font-family="sans-serif" font-size="9.57" lengthAdjust="spacing" textLength="106.14" x="378.45" y="715.0831">-dateOfChemicalAnalysis</text><text fill="#000000" font-family="sans-serif" font-size="9.57" lengthAdjust="spacing" textLength="73.08" x="378.45" y="727.1203">-dateOfDiagnosis</text><line style="stroke:#A80036;stroke-width:1.305;" x1="374.1" x2="490.68" y1="732.7031" y2="732.7031"/><!--MD5=[02e4b9b7573f1156f41e60aa5b4e25a4]
class Company--><rect codeLine="36" fill="#FEFECE" filter="url(#fngk1kx96kofl)" height="101.9463" id="Company" style="stroke:#A80036;stroke-width:1.305;" width="100.92" x="588.12" y="366.705"/><ellipse cx="613.3065" cy="380.625" fill="#ADD1B2" rx="9.57" ry="9.57" style="stroke:#A80036;stroke-width:0.87;"/><path d="M615.0465,377.58 Q615.2232,377.145 615.4271,376.9275 Q615.631,376.71 615.8621,376.71 Q616.2699,376.71 616.5282,376.9547 Q616.7865,377.1994 616.7865,377.7703 L616.7865,379.1297 Q616.7865,379.7006 616.5418,379.9453 Q616.2971,380.19 615.9165,380.19 Q615.5767,380.19 615.3592,380.0405 Q615.1417,379.8909 615.0465,379.4967 Q615.0057,379.2248 614.8562,379.0753 Q614.5843,378.7898 614.0949,378.6267 Q613.6056,378.45 613.1162,378.45 Q612.5045,378.45 611.9879,378.6947 Q611.4849,378.9394 611.0907,379.4831 Q610.6965,380.0269 610.6965,380.7745 L610.6965,381.5766 Q610.6965,382.4738 611.4306,383.0719 Q612.1646,383.67 613.4696,383.67 Q614.2445,383.67 614.7882,383.4933 Q615.1009,383.3981 615.4543,383.0855 Q615.6854,382.9088 615.8078,382.8544 Q615.9301,382.8 616.0796,382.8 Q616.3651,382.8 616.569,383.0311 Q616.7865,383.2486 616.7865,383.5613 Q616.7865,383.8603 616.4874,384.2138 Q616.0524,384.7303 615.3592,385.0158 Q614.4484,385.41 613.3337,385.41 Q612.0287,385.41 610.982,384.8934 Q610.1392,384.4856 609.541,383.602 Q608.9565,382.7184 608.9565,381.6717 L608.9565,380.7202 Q608.9565,379.6327 609.4731,378.6811 Q610.0032,377.7295 610.914,377.2266 Q611.8384,376.71 612.8715,376.71 Q613.4968,376.71 614.0406,376.9275 Q614.5843,377.145 615.0465,377.58 Z " fill="#000000"/><text fill="#000000" font-family="sans-serif" font-size="10.44" lengthAdjust="spacing" textLength="46.11" x="628.1835" y="384.8968">Company</text><line style="stroke:#A80036;stroke-width:1.305;" x1="588.99" x2="688.17" y1="394.545" y2="394.545"/><text fill="#000000" font-family="sans-serif" font-size="9.57" lengthAdjust="spacing" textLength="83.52" x="593.34" y="407.9595">-designation : String</text><line style="stroke:#A80036;stroke-width:1.305;" x1="588.99" x2="688.17" y1="413.5423" y2="413.5423"/><text fill="#000000" font-family="sans-serif" font-size="9.57" lengthAdjust="spacing" textLength="87" x="593.34" y="426.9567">+getTestTypeStore()</text><text fill="#000000" font-family="sans-serif" font-size="9.57" lengthAdjust="spacing" textLength="90.48" x="593.34" y="438.994">+getParameterStore()</text><text fill="#000000" font-family="sans-serif" font-size="9.57" lengthAdjust="spacing" textLength="66.12" x="593.34" y="451.0313">+getTestStore()</text><text fill="#000000" font-family="sans-serif" font-size="9.57" lengthAdjust="spacing" textLength="60.9" x="593.34" y="463.0685">+getCalStore()</text><!--MD5=[aeb3272166074d8737a70b61b1e71682]
class TestType--><rect codeLine="43" fill="#FEFECE" filter="url(#fngk1kx96kofl)" height="77.8718" id="TestType" style="stroke:#A80036;stroke-width:1.305;" width="115.71" x="1917.045" y="719.49"/><ellipse cx="1950.0615" cy="733.41" fill="#ADD1B2" rx="9.57" ry="9.57" style="stroke:#A80036;stroke-width:0.87;"/><path d="M1951.8015,730.365 Q1951.9782,729.93 1952.1821,729.7125 Q1952.386,729.495 1952.6171,729.495 Q1953.0249,729.495 1953.2832,729.7397 Q1953.5415,729.9844 1953.5415,730.5553 L1953.5415,731.9147 Q1953.5415,732.4856 1953.2968,732.7303 Q1953.0521,732.975 1952.6715,732.975 Q1952.3317,732.975 1952.1142,732.8255 Q1951.8967,732.6759 1951.8015,732.2817 Q1951.7607,732.0098 1951.6112,731.8603 Q1951.3393,731.5748 1950.8499,731.4117 Q1950.3606,731.235 1949.8712,731.235 Q1949.2595,731.235 1948.7429,731.4797 Q1948.2399,731.7244 1947.8457,732.2681 Q1947.4515,732.8119 1947.4515,733.5595 L1947.4515,734.3616 Q1947.4515,735.2588 1948.1856,735.8569 Q1948.9196,736.455 1950.2246,736.455 Q1950.9995,736.455 1951.5432,736.2783 Q1951.8559,736.1831 1952.2093,735.8705 Q1952.4404,735.6938 1952.5627,735.6394 Q1952.6851,735.585 1952.8346,735.585 Q1953.1201,735.585 1953.324,735.8161 Q1953.5415,736.0336 1953.5415,736.3462 Q1953.5415,736.6453 1953.2424,736.9988 Q1952.8074,737.5153 1952.1142,737.8008 Q1951.2034,738.195 1950.0887,738.195 Q1948.7837,738.195 1947.737,737.6784 Q1946.8942,737.2706 1946.296,736.387 Q1945.7115,735.5034 1945.7115,734.4567 L1945.7115,733.5052 Q1945.7115,732.4177 1946.2281,731.4661 Q1946.7582,730.5145 1947.669,730.0116 Q1948.5934,729.495 1949.6265,729.495 Q1950.2518,729.495 1950.7956,729.7125 Q1951.3393,729.93 1951.8015,730.365 Z " fill="#000000"/><text fill="#000000" font-family="sans-serif" font-size="10.44" lengthAdjust="spacing" textLength="43.5" x="1966.6785" y="737.6818">TestType</text><line style="stroke:#A80036;stroke-width:1.305;" x1="1917.915" x2="2031.885" y1="747.33" y2="747.33"/><text fill="#000000" font-family="sans-serif" font-size="9.57" lengthAdjust="spacing" textLength="56.55" x="1922.265" y="760.7445">-code : String</text><text fill="#000000" font-family="sans-serif" font-size="9.57" lengthAdjust="spacing" textLength="81.78" x="1922.265" y="772.7817">-description : String</text><text fill="#000000" font-family="sans-serif" font-size="9.57" lengthAdjust="spacing" textLength="105.27" x="1922.265" y="784.819">-collectingMethod : String</text><line style="stroke:#A80036;stroke-width:1.305;" x1="1917.915" x2="2031.885" y1="790.4018" y2="790.4018"/><!--MD5=[9681492165142af2a4a3a169d90ee8d4]
class Sample--><rect codeLine="49" fill="#FEFECE" filter="url(#fngk1kx96kofl)" height="53.7973" id="Sample" style="stroke:#A80036;stroke-width:1.305;" width="65.25" x="1942.275" y="44.37"/><ellipse cx="1955.325" cy="58.29" fill="#ADD1B2" rx="9.57" ry="9.57" style="stroke:#A80036;stroke-width:0.87;"/><path d="M1957.065,55.245 Q1957.2417,54.81 1957.4456,54.5925 Q1957.6495,54.375 1957.8806,54.375 Q1958.2884,54.375 1958.5467,54.6197 Q1958.805,54.8644 1958.805,55.4353 L1958.805,56.7947 Q1958.805,57.3656 1958.5603,57.6103 Q1958.3156,57.855 1957.935,57.855 Q1957.5952,57.855 1957.3777,57.7055 Q1957.1602,57.5559 1957.065,57.1617 Q1957.0242,56.8898 1956.8747,56.7403 Q1956.6028,56.4548 1956.1134,56.2917 Q1955.6241,56.115 1955.1347,56.115 Q1954.523,56.115 1954.0064,56.3597 Q1953.5034,56.6044 1953.1092,57.1481 Q1952.715,57.6919 1952.715,58.4395 L1952.715,59.2416 Q1952.715,60.1388 1953.4491,60.7369 Q1954.1831,61.335 1955.4881,61.335 Q1956.263,61.335 1956.8067,61.1583 Q1957.1194,61.0631 1957.4728,60.7505 Q1957.7039,60.5738 1957.8263,60.5194 Q1957.9486,60.465 1958.0981,60.465 Q1958.3836,60.465 1958.5875,60.6961 Q1958.805,60.9136 1958.805,61.2263 Q1958.805,61.5253 1958.5059,61.8788 Q1958.0709,62.3953 1957.3777,62.6808 Q1956.4669,63.075 1955.3522,63.075 Q1954.0472,63.075 1953.0005,62.5584 Q1952.1577,62.1506 1951.5595,61.267 Q1950.975,60.3834 1950.975,59.3367 L1950.975,58.3852 Q1950.975,57.2977 1951.4916,56.3461 Q1952.0217,55.3945 1952.9325,54.8916 Q1953.8569,54.375 1954.89,54.375 Q1955.5153,54.375 1956.0591,54.5925 Q1956.6028,54.81 1957.065,55.245 Z " fill="#000000"/><text fill="#000000" font-family="sans-serif" font-size="10.44" lengthAdjust="spacing" textLength="37.41" x="1967.505" y="62.5618">Sample</text><line style="stroke:#A80036;stroke-width:1.305;" x1="1943.145" x2="2006.655" y1="72.21" y2="72.21"/><text fill="#000000" font-family="sans-serif" font-size="9.57" lengthAdjust="spacing" textLength="51.33" x="1947.495" y="85.6245">-myBarcode</text><line style="stroke:#A80036;stroke-width:1.305;" x1="1943.145" x2="2006.655" y1="91.2073" y2="91.2073"/><!--MD5=[1f6362a5c8f21d8d6a0fce68f3a92a4e]
class Parameter--><rect codeLine="53" fill="#FEFECE" filter="url(#fngk1kx96kofl)" height="77.8718" id="Parameter" style="stroke:#A80036;stroke-width:1.305;" width="78.3" x="2236.77" y="616.83"/><ellipse cx="2249.82" cy="630.75" fill="#ADD1B2" rx="9.57" ry="9.57" style="stroke:#A80036;stroke-width:0.87;"/><path d="M2251.56,627.705 Q2251.7367,627.27 2251.9406,627.0525 Q2252.1445,626.835 2252.3756,626.835 Q2252.7834,626.835 2253.0417,627.0797 Q2253.3,627.3244 2253.3,627.8953 L2253.3,629.2547 Q2253.3,629.8256 2253.0553,630.0703 Q2252.8106,630.315 2252.43,630.315 Q2252.0902,630.315 2251.8727,630.1655 Q2251.6552,630.0159 2251.56,629.6217 Q2251.5192,629.3498 2251.3697,629.2003 Q2251.0978,628.9148 2250.6084,628.7517 Q2250.1191,628.575 2249.6297,628.575 Q2249.018,628.575 2248.5014,628.8197 Q2247.9984,629.0644 2247.6042,629.6081 Q2247.21,630.1519 2247.21,630.8995 L2247.21,631.7016 Q2247.21,632.5988 2247.9441,633.1969 Q2248.6781,633.795 2249.9831,633.795 Q2250.758,633.795 2251.3017,633.6183 Q2251.6144,633.5231 2251.9678,633.2105 Q2252.1989,633.0337 2252.3213,632.9794 Q2252.4436,632.925 2252.5931,632.925 Q2252.8786,632.925 2253.0825,633.1561 Q2253.3,633.3736 2253.3,633.6863 Q2253.3,633.9853 2253.0009,634.3388 Q2252.5659,634.8553 2251.8727,635.1408 Q2250.9619,635.535 2249.8472,635.535 Q2248.5422,635.535 2247.4955,635.0184 Q2246.6527,634.6106 2246.0545,633.727 Q2245.47,632.8434 2245.47,631.7967 L2245.47,630.8452 Q2245.47,629.7577 2245.9866,628.8061 Q2246.5167,627.8545 2247.4275,627.3516 Q2248.3519,626.835 2249.385,626.835 Q2250.0103,626.835 2250.5541,627.0525 Q2251.0978,627.27 2251.56,627.705 Z " fill="#000000"/><text fill="#000000" font-family="sans-serif" font-size="10.44" lengthAdjust="spacing" textLength="50.46" x="2262" y="635.0218">Parameter</text><line style="stroke:#A80036;stroke-width:1.305;" x1="2237.64" x2="2314.2" y1="644.67" y2="644.67"/><text fill="#000000" font-family="sans-serif" font-size="9.57" lengthAdjust="spacing" textLength="24.36" x="2241.99" y="658.0845">-code</text><text fill="#000000" font-family="sans-serif" font-size="9.57" lengthAdjust="spacing" textLength="48.72" x="2241.99" y="670.1217">-shortName</text><text fill="#000000" font-family="sans-serif" font-size="9.57" lengthAdjust="spacing" textLength="49.59" x="2241.99" y="682.159">-description</text><line style="stroke:#A80036;stroke-width:1.305;" x1="2237.64" x2="2314.2" y1="687.7418" y2="687.7418"/><!--MD5=[0f07739f46effee96e095e9c408da841]
class TestParameter--><rect codeLine="58" fill="#FEFECE" filter="url(#fngk1kx96kofl)" height="53.7973" id="TestParameter" style="stroke:#A80036;stroke-width:1.305;" width="174" x="1887.9" y="475.02"/><ellipse cx="1935.5325" cy="488.94" fill="#ADD1B2" rx="9.57" ry="9.57" style="stroke:#A80036;stroke-width:0.87;"/><path d="M1937.2725,485.895 Q1937.4492,485.46 1937.6531,485.2425 Q1937.857,485.025 1938.0881,485.025 Q1938.4959,485.025 1938.7542,485.2697 Q1939.0125,485.5144 1939.0125,486.0853 L1939.0125,487.4447 Q1939.0125,488.0156 1938.7678,488.2603 Q1938.5231,488.505 1938.1425,488.505 Q1937.8027,488.505 1937.5852,488.3555 Q1937.3677,488.2059 1937.2725,487.8117 Q1937.2317,487.5398 1937.0822,487.3903 Q1936.8103,487.1048 1936.3209,486.9417 Q1935.8316,486.765 1935.3422,486.765 Q1934.7305,486.765 1934.2139,487.0097 Q1933.7109,487.2544 1933.3167,487.7981 Q1932.9225,488.3419 1932.9225,489.0895 L1932.9225,489.8916 Q1932.9225,490.7888 1933.6566,491.3869 Q1934.3906,491.985 1935.6956,491.985 Q1936.4705,491.985 1937.0142,491.8083 Q1937.3269,491.7131 1937.6803,491.4005 Q1937.9114,491.2238 1938.0338,491.1694 Q1938.1561,491.115 1938.3056,491.115 Q1938.5911,491.115 1938.795,491.3461 Q1939.0125,491.5636 1939.0125,491.8762 Q1939.0125,492.1753 1938.7134,492.5288 Q1938.2784,493.0453 1937.5852,493.3308 Q1936.6744,493.725 1935.5597,493.725 Q1934.2547,493.725 1933.208,493.2084 Q1932.3652,492.8006 1931.767,491.917 Q1931.1825,491.0334 1931.1825,489.9867 L1931.1825,489.0352 Q1931.1825,487.9477 1931.6991,486.9961 Q1932.2292,486.0445 1933.14,485.5416 Q1934.0644,485.025 1935.0975,485.025 Q1935.7228,485.025 1936.2666,485.2425 Q1936.8103,485.46 1937.2725,485.895 Z " fill="#000000"/><text fill="#000000" font-family="sans-serif" font-size="10.44" lengthAdjust="spacing" textLength="71.34" x="1953.3675" y="493.2118">TestParameter</text><line style="stroke:#A80036;stroke-width:1.305;" x1="1888.77" x2="2061.03" y1="502.86" y2="502.86"/><line style="stroke:#A80036;stroke-width:1.305;" x1="1888.77" x2="2061.03" y1="509.82" y2="509.82"/><text fill="#000000" font-family="sans-serif" font-size="9.57" lengthAdjust="spacing" textLength="163.56" x="1893.12" y="523.2345">+TestParameter(parameter: Parameter)</text><!--MD5=[4e608140b854dae633589343bce77383]
class TestParameterResult--><rect codeLine="61" fill="#FEFECE" filter="url(#fngk1kx96kofl)" height="77.8718" id="TestParameterResult" style="stroke:#A80036;stroke-width:1.305;" width="130.5" x="2210.67" y="462.84"/><ellipse cx="2223.72" cy="476.76" fill="#ADD1B2" rx="9.57" ry="9.57" style="stroke:#A80036;stroke-width:0.87;"/><path d="M2225.46,473.715 Q2225.6367,473.28 2225.8406,473.0625 Q2226.0445,472.845 2226.2756,472.845 Q2226.6834,472.845 2226.9417,473.0897 Q2227.2,473.3344 2227.2,473.9053 L2227.2,475.2647 Q2227.2,475.8356 2226.9553,476.0803 Q2226.7106,476.325 2226.33,476.325 Q2225.9902,476.325 2225.7727,476.1755 Q2225.5552,476.0259 2225.46,475.6317 Q2225.4192,475.3598 2225.2697,475.2103 Q2224.9978,474.9248 2224.5084,474.7617 Q2224.0191,474.585 2223.5297,474.585 Q2222.918,474.585 2222.4014,474.8297 Q2221.8984,475.0744 2221.5042,475.6181 Q2221.11,476.1619 2221.11,476.9095 L2221.11,477.7116 Q2221.11,478.6088 2221.8441,479.2069 Q2222.5781,479.805 2223.8831,479.805 Q2224.658,479.805 2225.2017,479.6283 Q2225.5144,479.5331 2225.8678,479.2205 Q2226.0989,479.0438 2226.2213,478.9894 Q2226.3436,478.935 2226.4931,478.935 Q2226.7786,478.935 2226.9825,479.1661 Q2227.2,479.3836 2227.2,479.6963 Q2227.2,479.9953 2226.9009,480.3488 Q2226.4659,480.8653 2225.7727,481.1508 Q2224.8619,481.545 2223.7472,481.545 Q2222.4422,481.545 2221.3955,481.0284 Q2220.5527,480.6206 2219.9545,479.737 Q2219.37,478.8534 2219.37,477.8067 L2219.37,476.8552 Q2219.37,475.7677 2219.8866,474.8161 Q2220.4167,473.8645 2221.3275,473.3616 Q2222.2519,472.845 2223.285,472.845 Q2223.9103,472.845 2224.4541,473.0625 Q2224.9978,473.28 2225.46,473.715 Z " fill="#000000"/><text fill="#000000" font-family="sans-serif" font-size="10.44" lengthAdjust="spacing" textLength="102.66" x="2235.9" y="481.0318">TestParameterResult</text><line style="stroke:#A80036;stroke-width:1.305;" x1="2211.54" x2="2340.3" y1="490.68" y2="490.68"/><text fill="#000000" font-family="sans-serif" font-size="9.57" lengthAdjust="spacing" textLength="45.24" x="2215.89" y="504.0945">-createdAt</text><text fill="#000000" font-family="sans-serif" font-size="9.57" lengthAdjust="spacing" textLength="26.1" x="2215.89" y="516.1317">-value</text><text fill="#000000" font-family="sans-serif" font-size="9.57" lengthAdjust="spacing" textLength="28.71" x="2215.89" y="528.169">-metric</text><line style="stroke:#A80036;stroke-width:1.305;" x1="2211.54" x2="2340.3" y1="533.7518" y2="533.7518"/><!--MD5=[ed6624c6556d5e7b1bd23032162d20b7]
class Client--><rect codeLine="67" fill="#FEFECE" filter="url(#fngk1kx96kofl)" height="138.0581" id="Client" style="stroke:#A80036;stroke-width:1.305;" width="79.17" x="1318.05" y="190.965"/><ellipse cx="1341.6705" cy="204.885" fill="#ADD1B2" rx="9.57" ry="9.57" style="stroke:#A80036;stroke-width:0.87;"/><path d="M1343.4105,201.84 Q1343.5872,201.405 1343.7911,201.1875 Q1343.995,200.97 1344.2261,200.97 Q1344.6339,200.97 1344.8922,201.2147 Q1345.1505,201.4594 1345.1505,202.0303 L1345.1505,203.3897 Q1345.1505,203.9606 1344.9058,204.2053 Q1344.6611,204.45 1344.2805,204.45 Q1343.9407,204.45 1343.7232,204.3005 Q1343.5057,204.1509 1343.4105,203.7567 Q1343.3697,203.4848 1343.2202,203.3353 Q1342.9483,203.0498 1342.4589,202.8867 Q1341.9696,202.71 1341.4802,202.71 Q1340.8685,202.71 1340.3519,202.9547 Q1339.8489,203.1994 1339.4547,203.7431 Q1339.0605,204.2869 1339.0605,205.0345 L1339.0605,205.8366 Q1339.0605,206.7338 1339.7946,207.3319 Q1340.5286,207.93 1341.8336,207.93 Q1342.6085,207.93 1343.1522,207.7533 Q1343.4649,207.6581 1343.8183,207.3455 Q1344.0494,207.1688 1344.1718,207.1144 Q1344.2941,207.06 1344.4436,207.06 Q1344.7291,207.06 1344.933,207.2911 Q1345.1505,207.5086 1345.1505,207.8213 Q1345.1505,208.1203 1344.8514,208.4738 Q1344.4164,208.9903 1343.7232,209.2758 Q1342.8124,209.67 1341.6977,209.67 Q1340.3927,209.67 1339.346,209.1534 Q1338.5032,208.7456 1337.905,207.862 Q1337.3205,206.9784 1337.3205,205.9317 L1337.3205,204.9802 Q1337.3205,203.8927 1337.8371,202.9411 Q1338.3672,201.9895 1339.278,201.4866 Q1340.2024,200.97 1341.2355,200.97 Q1341.8608,200.97 1342.4046,201.1875 Q1342.9483,201.405 1343.4105,201.84 Z " fill="#000000"/><text fill="#000000" font-family="sans-serif" font-size="10.44" lengthAdjust="spacing" textLength="27.84" x="1356.1995" y="209.1568">Client</text><line style="stroke:#A80036;stroke-width:1.305;" x1="1318.92" x2="1396.35" y1="218.805" y2="218.805"/><text fill="#000000" font-family="sans-serif" font-size="9.57" lengthAdjust="spacing" textLength="26.1" x="1323.27" y="232.2195">-name</text><text fill="#000000" font-family="sans-serif" font-size="9.57" lengthAdjust="spacing" textLength="68.73" x="1323.27" y="244.2567">-citizenCardNum</text><text fill="#000000" font-family="sans-serif" font-size="9.57" lengthAdjust="spacing" textLength="37.41" x="1323.27" y="256.294">-nhsNum</text><text fill="#000000" font-family="sans-serif" font-size="9.57" lengthAdjust="spacing" textLength="40.89" x="1323.27" y="268.3313">-birthDate</text><text fill="#000000" font-family="sans-serif" font-size="9.57" lengthAdjust="spacing" textLength="19.14" x="1323.27" y="280.3685">-sex</text><text fill="#000000" font-family="sans-serif" font-size="9.57" lengthAdjust="spacing" textLength="41.76" x="1323.27" y="292.4058">-taxIdNum</text><text fill="#000000" font-family="sans-serif" font-size="9.57" lengthAdjust="spacing" textLength="47.85" x="1323.27" y="304.4431">-phoneNum</text><text fill="#000000" font-family="sans-serif" font-size="9.57" lengthAdjust="spacing" textLength="24.36" x="1323.27" y="316.4803">-email</text><line style="stroke:#A80036;stroke-width:1.305;" x1="1318.92" x2="1396.35" y1="322.0631" y2="322.0631"/><!--MD5=[b42cc4842635d5e6eb486abf1ddf7193]
class MyBarcode--><rect codeLine="78" fill="#FEFECE" filter="url(#fngk1kx96kofl)" height="53.7973" id="MyBarcode" style="stroke:#A80036;stroke-width:1.305;" width="80.91" x="2235.465" y="44.37"/><ellipse cx="2248.9065" cy="58.29" fill="#ADD1B2" rx="9.57" ry="9.57" style="stroke:#A80036;stroke-width:0.87;"/><path d="M2250.6465,55.245 Q2250.8232,54.81 2251.0271,54.5925 Q2251.231,54.375 2251.4621,54.375 Q2251.8699,54.375 2252.1282,54.6197 Q2252.3865,54.8644 2252.3865,55.4353 L2252.3865,56.7947 Q2252.3865,57.3656 2252.1418,57.6103 Q2251.8971,57.855 2251.5165,57.855 Q2251.1767,57.855 2250.9592,57.7055 Q2250.7417,57.5559 2250.6465,57.1617 Q2250.6057,56.8898 2250.4562,56.7403 Q2250.1843,56.4548 2249.6949,56.2917 Q2249.2056,56.115 2248.7162,56.115 Q2248.1045,56.115 2247.5879,56.3597 Q2247.0849,56.6044 2246.6907,57.1481 Q2246.2965,57.6919 2246.2965,58.4395 L2246.2965,59.2416 Q2246.2965,60.1388 2247.0306,60.7369 Q2247.7646,61.335 2249.0696,61.335 Q2249.8445,61.335 2250.3882,61.1583 Q2250.7009,61.0631 2251.0543,60.7505 Q2251.2854,60.5738 2251.4078,60.5194 Q2251.5301,60.465 2251.6796,60.465 Q2251.9651,60.465 2252.169,60.6961 Q2252.3865,60.9136 2252.3865,61.2263 Q2252.3865,61.5253 2252.0874,61.8788 Q2251.6524,62.3953 2250.9592,62.6808 Q2250.0484,63.075 2248.9337,63.075 Q2247.6287,63.075 2246.582,62.5584 Q2245.7392,62.1506 2245.141,61.267 Q2244.5565,60.3834 2244.5565,59.3367 L2244.5565,58.3852 Q2244.5565,57.2977 2245.0731,56.3461 Q2245.6032,55.3945 2246.514,54.8916 Q2247.4384,54.375 2248.4715,54.375 Q2249.0968,54.375 2249.6406,54.5925 Q2250.1843,54.81 2250.6465,55.245 Z " fill="#000000"/><text fill="#000000" font-family="sans-serif" font-size="10.44" lengthAdjust="spacing" textLength="52.2" x="2261.1735" y="62.5618">MyBarcode</text><line style="stroke:#A80036;stroke-width:1.305;" x1="2236.335" x2="2315.505" y1="72.21" y2="72.21"/><text fill="#000000" font-family="sans-serif" font-size="9.57" lengthAdjust="spacing" textLength="70.47" x="2240.685" y="85.6245">-barcodeNumber</text><line style="stroke:#A80036;stroke-width:1.305;" x1="2236.335" x2="2315.505" y1="91.2073" y2="91.2073"/><!--MD5=[55cb992be19579b505cea3c5691093cb]
class ClientStore--><rect codeLine="83" fill="#FEFECE" filter="url(#fngk1kx96kofl)" height="53.7973" id="ClientStore" style="stroke:#A80036;stroke-width:1.305;" width="155.73" x="984.84" y="233.16"/><ellipse cx="1032.4725" cy="247.08" fill="#ADD1B2" rx="9.57" ry="9.57" style="stroke:#A80036;stroke-width:0.87;"/><path d="M1034.2125,244.035 Q1034.3892,243.6 1034.5931,243.3825 Q1034.797,243.165 1035.0281,243.165 Q1035.4359,243.165 1035.6942,243.4097 Q1035.9525,243.6544 1035.9525,244.2253 L1035.9525,245.5847 Q1035.9525,246.1556 1035.7078,246.4003 Q1035.4631,246.645 1035.0825,246.645 Q1034.7427,246.645 1034.5252,246.4955 Q1034.3077,246.3459 1034.2125,245.9517 Q1034.1717,245.6798 1034.0222,245.5303 Q1033.7503,245.2448 1033.2609,245.0817 Q1032.7716,244.905 1032.2822,244.905 Q1031.6705,244.905 1031.1539,245.1497 Q1030.6509,245.3944 1030.2567,245.9381 Q1029.8625,246.4819 1029.8625,247.2295 L1029.8625,248.0316 Q1029.8625,248.9288 1030.5966,249.5269 Q1031.3306,250.125 1032.6356,250.125 Q1033.4105,250.125 1033.9542,249.9483 Q1034.2669,249.8531 1034.6203,249.5405 Q1034.8514,249.3638 1034.9737,249.3094 Q1035.0961,249.255 1035.2456,249.255 Q1035.5311,249.255 1035.735,249.4861 Q1035.9525,249.7036 1035.9525,250.0162 Q1035.9525,250.3153 1035.6534,250.6688 Q1035.2184,251.1853 1034.5252,251.4708 Q1033.6144,251.865 1032.4997,251.865 Q1031.1947,251.865 1030.148,251.3484 Q1029.3052,250.9406 1028.707,250.057 Q1028.1225,249.1734 1028.1225,248.1267 L1028.1225,247.1752 Q1028.1225,246.0877 1028.6391,245.1361 Q1029.1692,244.1845 1030.08,243.6816 Q1031.0044,243.165 1032.0375,243.165 Q1032.6628,243.165 1033.2066,243.3825 Q1033.7503,243.6 1034.2125,244.035 Z " fill="#000000"/><text fill="#000000" font-family="sans-serif" font-size="10.44" lengthAdjust="spacing" textLength="53.07" x="1050.3075" y="251.3518">ClientStore</text><line style="stroke:#A80036;stroke-width:1.305;" x1="985.71" x2="1139.7" y1="261" y2="261"/><line style="stroke:#A80036;stroke-width:1.305;" x1="985.71" x2="1139.7" y1="267.96" y2="267.96"/><text fill="#000000" font-family="sans-serif" font-size="9.57" lengthAdjust="spacing" textLength="145.29" x="990.06" y="281.3745">+getClientByTinNumber(tinNumber)</text><!--MD5=[be7802b157a16874d39c59ca0e2b25be]
class ParameterStore--><rect codeLine="87" fill="#FEFECE" filter="url(#fngk1kx96kofl)" height="65.8345" id="ParameterStore" style="stroke:#A80036;stroke-width:1.305;" width="283.62" x="920.895" y="652.5"/><ellipse cx="1021.1625" cy="666.42" fill="#ADD1B2" rx="9.57" ry="9.57" style="stroke:#A80036;stroke-width:0.87;"/><path d="M1022.9025,663.375 Q1023.0792,662.94 1023.2831,662.7225 Q1023.487,662.505 1023.7181,662.505 Q1024.1259,662.505 1024.3842,662.7497 Q1024.6425,662.9944 1024.6425,663.5653 L1024.6425,664.9247 Q1024.6425,665.4956 1024.3978,665.7403 Q1024.1531,665.985 1023.7725,665.985 Q1023.4327,665.985 1023.2152,665.8355 Q1022.9977,665.6859 1022.9025,665.2917 Q1022.8617,665.0198 1022.7122,664.8703 Q1022.4403,664.5848 1021.9509,664.4217 Q1021.4616,664.245 1020.9722,664.245 Q1020.3605,664.245 1019.8439,664.4897 Q1019.3409,664.7344 1018.9467,665.2781 Q1018.5525,665.8219 1018.5525,666.5695 L1018.5525,667.3716 Q1018.5525,668.2688 1019.2866,668.8669 Q1020.0206,669.465 1021.3256,669.465 Q1022.1005,669.465 1022.6442,669.2883 Q1022.9569,669.1931 1023.3103,668.8805 Q1023.5414,668.7038 1023.6638,668.6494 Q1023.7861,668.595 1023.9356,668.595 Q1024.2211,668.595 1024.425,668.8261 Q1024.6425,669.0436 1024.6425,669.3563 Q1024.6425,669.6553 1024.3434,670.0088 Q1023.9084,670.5253 1023.2152,670.8108 Q1022.3044,671.205 1021.1897,671.205 Q1019.8847,671.205 1018.838,670.6884 Q1017.9952,670.2806 1017.397,669.397 Q1016.8125,668.5134 1016.8125,667.4667 L1016.8125,666.5152 Q1016.8125,665.4277 1017.3291,664.4761 Q1017.8592,663.5245 1018.77,663.0216 Q1019.6944,662.505 1020.7275,662.505 Q1021.3528,662.505 1021.8966,662.7225 Q1022.4403,662.94 1022.9025,663.375 Z " fill="#000000"/><text fill="#000000" font-family="sans-serif" font-size="10.44" lengthAdjust="spacing" textLength="75.69" x="1038.9975" y="670.6918">ParameterStore</text><line style="stroke:#A80036;stroke-width:1.305;" x1="921.765" x2="1203.645" y1="680.34" y2="680.34"/><line style="stroke:#A80036;stroke-width:1.305;" x1="921.765" x2="1203.645" y1="687.3" y2="687.3"/><text fill="#000000" font-family="sans-serif" font-size="9.57" lengthAdjust="spacing" textLength="273.18" x="926.115" y="700.7145">+getParamsByCategories(List&lt;String&gt; selectedCategoriesCodes)</text><text fill="#000000" font-family="sans-serif" font-size="9.57" lengthAdjust="spacing" textLength="170.52" x="926.115" y="712.7517">+getParamsByCategory(String category)</text><!--MD5=[fcd6df96e169c9fc6403c4dc9bdb4d83]
class SampleStore--><rect codeLine="92" fill="#FEFECE" filter="url(#fngk1kx96kofl)" height="65.8345" id="SampleStore" style="stroke:#A80036;stroke-width:1.305;" width="127.89" x="998.76" y="66.99"/><ellipse cx="1028.6445" cy="80.91" fill="#ADD1B2" rx="9.57" ry="9.57" style="stroke:#A80036;stroke-width:0.87;"/><path d="M1030.3845,77.865 Q1030.5612,77.43 1030.7651,77.2125 Q1030.969,76.995 1031.2001,76.995 Q1031.6079,76.995 1031.8662,77.2397 Q1032.1245,77.4844 1032.1245,78.0553 L1032.1245,79.4147 Q1032.1245,79.9856 1031.8798,80.2303 Q1031.6351,80.475 1031.2545,80.475 Q1030.9147,80.475 1030.6972,80.3255 Q1030.4797,80.1759 1030.3845,79.7817 Q1030.3437,79.5098 1030.1942,79.3603 Q1029.9223,79.0748 1029.4329,78.9117 Q1028.9436,78.735 1028.4542,78.735 Q1027.8425,78.735 1027.3259,78.9797 Q1026.8229,79.2244 1026.4287,79.7681 Q1026.0345,80.3119 1026.0345,81.0595 L1026.0345,81.8616 Q1026.0345,82.7588 1026.7686,83.3569 Q1027.5026,83.955 1028.8076,83.955 Q1029.5825,83.955 1030.1262,83.7783 Q1030.4389,83.6831 1030.7923,83.3705 Q1031.0234,83.1938 1031.1458,83.1394 Q1031.2681,83.085 1031.4176,83.085 Q1031.7031,83.085 1031.907,83.3161 Q1032.1245,83.5336 1032.1245,83.8463 Q1032.1245,84.1453 1031.8254,84.4988 Q1031.3904,85.0153 1030.6972,85.3008 Q1029.7864,85.695 1028.6717,85.695 Q1027.3667,85.695 1026.32,85.1784 Q1025.4772,84.7706 1024.879,83.887 Q1024.2945,83.0034 1024.2945,81.9567 L1024.2945,81.0052 Q1024.2945,79.9177 1024.8111,78.9661 Q1025.3412,78.0145 1026.252,77.5116 Q1027.1764,76.995 1028.2095,76.995 Q1028.8348,76.995 1029.3786,77.2125 Q1029.9223,77.43 1030.3845,77.865 Z " fill="#000000"/><text fill="#000000" font-family="sans-serif" font-size="10.44" lengthAdjust="spacing" textLength="62.64" x="1044.5655" y="85.1818">SampleStore</text><line style="stroke:#A80036;stroke-width:1.305;" x1="999.63" x2="1125.78" y1="94.83" y2="94.83"/><line style="stroke:#A80036;stroke-width:1.305;" x1="999.63" x2="1125.78" y1="101.79" y2="101.79"/><text fill="#000000" font-family="sans-serif" font-size="9.57" lengthAdjust="spacing" textLength="117.45" x="1003.98" y="115.2045">+createSample(myBarcode)</text><text fill="#000000" font-family="sans-serif" font-size="9.57" lengthAdjust="spacing" textLength="104.4" x="1003.98" y="127.2417">+validateSample(sample)</text><!--MD5=[0f6f7964b844a64b0496af0dda7914bd]
class TestStore--><rect codeLine="97" fill="#FEFECE" filter="url(#fngk1kx96kofl)" height="89.9091" id="TestStore" style="stroke:#A80036;stroke-width:1.305;" width="287.97" x="918.72" y="447.615"/><ellipse cx="1035.9525" cy="461.535" fill="#ADD1B2" rx="9.57" ry="9.57" style="stroke:#A80036;stroke-width:0.87;"/><path d="M1037.6925,458.49 Q1037.8692,458.055 1038.0731,457.8375 Q1038.277,457.62 1038.5081,457.62 Q1038.9159,457.62 1039.1742,457.8647 Q1039.4325,458.1094 1039.4325,458.6803 L1039.4325,460.0397 Q1039.4325,460.6106 1039.1878,460.8553 Q1038.9431,461.1 1038.5625,461.1 Q1038.2227,461.1 1038.0052,460.9505 Q1037.7877,460.8009 1037.6925,460.4067 Q1037.6517,460.1348 1037.5022,459.9853 Q1037.2303,459.6998 1036.7409,459.5367 Q1036.2516,459.36 1035.7622,459.36 Q1035.1505,459.36 1034.6339,459.6047 Q1034.1309,459.8494 1033.7367,460.3931 Q1033.3425,460.9369 1033.3425,461.6845 L1033.3425,462.4866 Q1033.3425,463.3838 1034.0766,463.9819 Q1034.8106,464.58 1036.1156,464.58 Q1036.8905,464.58 1037.4342,464.4033 Q1037.7469,464.3081 1038.1003,463.9955 Q1038.3314,463.8188 1038.4538,463.7644 Q1038.5761,463.71 1038.7256,463.71 Q1039.0111,463.71 1039.215,463.9411 Q1039.4325,464.1586 1039.4325,464.4713 Q1039.4325,464.7703 1039.1334,465.1238 Q1038.6984,465.6403 1038.0052,465.9258 Q1037.0944,466.32 1035.9797,466.32 Q1034.6747,466.32 1033.628,465.8034 Q1032.7852,465.3956 1032.187,464.512 Q1031.6025,463.6284 1031.6025,462.5817 L1031.6025,461.6302 Q1031.6025,460.5427 1032.1191,459.5911 Q1032.6492,458.6395 1033.56,458.1366 Q1034.4844,457.62 1035.5175,457.62 Q1036.1428,457.62 1036.6866,457.8375 Q1037.2303,458.055 1037.6925,458.49 Z " fill="#000000"/><text fill="#000000" font-family="sans-serif" font-size="10.44" lengthAdjust="spacing" textLength="46.11" x="1053.7875" y="465.8068">TestStore</text><line style="stroke:#A80036;stroke-width:1.305;" x1="919.59" x2="1205.82" y1="475.455" y2="475.455"/><line style="stroke:#A80036;stroke-width:1.305;" x1="919.59" x2="1205.82" y1="482.415" y2="482.415"/><text fill="#000000" font-family="sans-serif" font-size="9.57" lengthAdjust="spacing" textLength="220.11" x="923.94" y="495.8295">+createTest(String nhsCode, Client associatedClient,</text><text fill="#000000" font-family="sans-serif" font-size="9.57" lengthAdjust="spacing" textLength="274.92" x="926.55" y="507.8667">TestType selectedTestType, List&lt;Parameter&gt;selectedParamsList)</text><text fill="#000000" font-family="sans-serif" font-size="9.57" lengthAdjust="spacing" textLength="78.3" x="923.94" y="519.904">+validateTest(test)</text><text fill="#000000" font-family="sans-serif" font-size="9.57" lengthAdjust="spacing" textLength="66.99" x="923.94" y="531.9413">+saveTest(test)</text><!--MD5=[438281daef332c5ccec4fb6cf3747e9a]
class ClinicalAnalysisLaboratoryStore--><rect codeLine="103" fill="#FEFECE" filter="url(#fngk1kx96kofl)" height="53.7973" id="ClinicalAnalysisLaboratoryStore" style="stroke:#A80036;stroke-width:1.305;" width="179.22" x="973.095" y="568.11"/><ellipse cx="986.145" cy="582.03" fill="#ADD1B2" rx="9.57" ry="9.57" style="stroke:#A80036;stroke-width:0.87;"/><path d="M987.885,578.985 Q988.0617,578.55 988.2656,578.3325 Q988.4695,578.115 988.7006,578.115 Q989.1084,578.115 989.3667,578.3597 Q989.625,578.6044 989.625,579.1753 L989.625,580.5347 Q989.625,581.1056 989.3803,581.3503 Q989.1356,581.595 988.755,581.595 Q988.4152,581.595 988.1977,581.4455 Q987.9802,581.2959 987.885,580.9017 Q987.8442,580.6298 987.6947,580.4803 Q987.4228,580.1948 986.9334,580.0317 Q986.4441,579.855 985.9547,579.855 Q985.343,579.855 984.8264,580.0997 Q984.3234,580.3444 983.9292,580.8881 Q983.535,581.4319 983.535,582.1795 L983.535,582.9816 Q983.535,583.8788 984.2691,584.4769 Q985.0031,585.075 986.3081,585.075 Q987.083,585.075 987.6267,584.8983 Q987.9394,584.8031 988.2928,584.4905 Q988.5239,584.3138 988.6463,584.2594 Q988.7686,584.205 988.9181,584.205 Q989.2036,584.205 989.4075,584.4361 Q989.625,584.6536 989.625,584.9663 Q989.625,585.2653 989.3259,585.6188 Q988.8909,586.1353 988.1977,586.4208 Q987.2869,586.815 986.1722,586.815 Q984.8672,586.815 983.8205,586.2984 Q982.9777,585.8906 982.3795,585.007 Q981.795,584.1234 981.795,583.0767 L981.795,582.1252 Q981.795,581.0377 982.3116,580.0861 Q982.8417,579.1345 983.7525,578.6316 Q984.6769,578.115 985.71,578.115 Q986.3353,578.115 986.8791,578.3325 Q987.4228,578.55 987.885,578.985 Z " fill="#000000"/><text fill="#000000" font-family="sans-serif" font-size="10.44" lengthAdjust="spacing" textLength="151.38" x="998.325" y="586.3018">ClinicalAnalysisLaboratoryStore</text><line style="stroke:#A80036;stroke-width:1.305;" x1="973.965" x2="1151.445" y1="595.95" y2="595.95"/><line style="stroke:#A80036;stroke-width:1.305;" x1="973.965" x2="1151.445" y1="602.91" y2="602.91"/><text fill="#000000" font-family="sans-serif" font-size="9.57" lengthAdjust="spacing" textLength="90.48" x="978.315" y="616.3245">+getCalByCode(labId)</text><!--MD5=[6ba72ddf03822b91e8d41ca71de58ed3]
class TestTypeStore--><rect codeLine="107" fill="#FEFECE" filter="url(#fngk1kx96kofl)" height="53.7973" id="TestTypeStore" style="stroke:#A80036;stroke-width:1.305;" width="151.38" x="741.24" y="814.32"/><ellipse cx="778.9545" cy="828.24" fill="#ADD1B2" rx="9.57" ry="9.57" style="stroke:#A80036;stroke-width:0.87;"/><path d="M780.6945,825.195 Q780.8712,824.76 781.0751,824.5425 Q781.279,824.325 781.5101,824.325 Q781.9179,824.325 782.1762,824.5697 Q782.4345,824.8144 782.4345,825.3853 L782.4345,826.7447 Q782.4345,827.3156 782.1898,827.5603 Q781.9451,827.805 781.5645,827.805 Q781.2247,827.805 781.0072,827.6555 Q780.7897,827.5059 780.6945,827.1117 Q780.6537,826.8398 780.5042,826.6903 Q780.2323,826.4048 779.7429,826.2417 Q779.2536,826.065 778.7642,826.065 Q778.1525,826.065 777.6359,826.3097 Q777.1329,826.5544 776.7387,827.0981 Q776.3445,827.6419 776.3445,828.3895 L776.3445,829.1916 Q776.3445,830.0888 777.0786,830.6869 Q777.8126,831.285 779.1176,831.285 Q779.8925,831.285 780.4362,831.1083 Q780.7489,831.0131 781.1023,830.7005 Q781.3334,830.5238 781.4558,830.4694 Q781.5781,830.415 781.7276,830.415 Q782.0131,830.415 782.217,830.6461 Q782.4345,830.8636 782.4345,831.1763 Q782.4345,831.4753 782.1354,831.8288 Q781.7004,832.3453 781.0072,832.6308 Q780.0964,833.025 778.9817,833.025 Q777.6767,833.025 776.63,832.5084 Q775.7872,832.1006 775.189,831.217 Q774.6045,830.3334 774.6045,829.2867 L774.6045,828.3352 Q774.6045,827.2477 775.1211,826.2961 Q775.6512,825.3445 776.562,824.8416 Q777.4864,824.325 778.5195,824.325 Q779.1448,824.325 779.6886,824.5425 Q780.2323,824.76 780.6945,825.195 Z " fill="#000000"/><text fill="#000000" font-family="sans-serif" font-size="10.44" lengthAdjust="spacing" textLength="68.73" x="796.6155" y="832.5118">TestTypeStore</text><line style="stroke:#A80036;stroke-width:1.305;" x1="742.11" x2="891.75" y1="842.16" y2="842.16"/><line style="stroke:#A80036;stroke-width:1.305;" x1="742.11" x2="891.75" y1="849.12" y2="849.12"/><text fill="#000000" font-family="sans-serif" font-size="9.57" lengthAdjust="spacing" textLength="140.94" x="746.46" y="862.5345">+getTestTypeByTinNumber(code)</text><!--MD5=[b6a3913a705cfb7a2ec9efa528c25c50]
class CreateTestOfFileControler--><rect codeLine="115" fill="#FEFECE" filter="url(#fngk1kx96kofl)" height="65.8345" id="CreateTestOfFileControler" style="stroke:#A80036;stroke-width:1.305;" width="153.12" x="355.83" y="504.6"/><ellipse cx="368.88" cy="518.52" fill="#ADD1B2" rx="9.57" ry="9.57" style="stroke:#A80036;stroke-width:0.87;"/><path d="M370.62,515.475 Q370.7967,515.04 371.0006,514.8225 Q371.2045,514.605 371.4356,514.605 Q371.8434,514.605 372.1017,514.8497 Q372.36,515.0944 372.36,515.6653 L372.36,517.0247 Q372.36,517.5956 372.1153,517.8403 Q371.8706,518.085 371.49,518.085 Q371.1502,518.085 370.9327,517.9355 Q370.7152,517.7859 370.62,517.3917 Q370.5792,517.1198 370.4297,516.9703 Q370.1578,516.6848 369.6684,516.5217 Q369.1791,516.345 368.6897,516.345 Q368.078,516.345 367.5614,516.5897 Q367.0584,516.8344 366.6642,517.3781 Q366.27,517.9219 366.27,518.6695 L366.27,519.4716 Q366.27,520.3688 367.0041,520.9669 Q367.7381,521.565 369.0431,521.565 Q369.818,521.565 370.3617,521.3883 Q370.6744,521.2931 371.0278,520.9805 Q371.2589,520.8038 371.3813,520.7494 Q371.5036,520.695 371.6531,520.695 Q371.9386,520.695 372.1425,520.9261 Q372.36,521.1436 372.36,521.4563 Q372.36,521.7553 372.0609,522.1088 Q371.6259,522.6253 370.9327,522.9108 Q370.0219,523.305 368.9072,523.305 Q367.6022,523.305 366.5555,522.7884 Q365.7127,522.3806 365.1145,521.497 Q364.53,520.6134 364.53,519.5667 L364.53,518.6152 Q364.53,517.5277 365.0466,516.5761 Q365.5767,515.6245 366.4875,515.1216 Q367.4119,514.605 368.445,514.605 Q369.0703,514.605 369.6141,514.8225 Q370.1578,515.04 370.62,515.475 Z " fill="#000000"/><text fill="#000000" font-family="sans-serif" font-size="10.44" lengthAdjust="spacing" textLength="125.28" x="381.06" y="522.7918">CreateTestOfFileControler</text><line style="stroke:#A80036;stroke-width:1.305;" x1="356.7" x2="508.08" y1="532.44" y2="532.44"/><line style="stroke:#A80036;stroke-width:1.305;" x1="356.7" x2="508.08" y1="539.4" y2="539.4"/><text fill="#000000" font-family="sans-serif" font-size="9.57" lengthAdjust="spacing" textLength="103.53" x="361.05" y="552.8145">+createTest(TestFileDto)</text><text fill="#000000" font-family="sans-serif" font-size="9.57" lengthAdjust="spacing" textLength="51.33" x="361.05" y="564.8517">+saveTest()</text><!--MD5=[51912c652aa2a3a1d0b745172ce59331]
class ImportTestController--><rect codeLine="120" fill="#FEFECE" filter="url(#fngk1kx96kofl)" height="77.8718" id="ImportTestController" style="stroke:#A80036;stroke-width:1.305;" width="153.99" x="148.77" y="498.51"/><ellipse cx="174.348" cy="512.43" fill="#ADD1B2" rx="9.57" ry="9.57" style="stroke:#A80036;stroke-width:0.87;"/><path d="M176.088,509.385 Q176.2647,508.95 176.4686,508.7325 Q176.6725,508.515 176.9036,508.515 Q177.3114,508.515 177.5697,508.7597 Q177.828,509.0044 177.828,509.5753 L177.828,510.9347 Q177.828,511.5056 177.5833,511.7503 Q177.3386,511.995 176.958,511.995 Q176.6182,511.995 176.4007,511.8455 Q176.1832,511.6959 176.088,511.3017 Q176.0472,511.0298 175.8977,510.8803 Q175.6258,510.5948 175.1364,510.4317 Q174.6471,510.255 174.1577,510.255 Q173.546,510.255 173.0294,510.4997 Q172.5264,510.7444 172.1322,511.2881 Q171.738,511.8319 171.738,512.5795 L171.738,513.3816 Q171.738,514.2788 172.4721,514.8769 Q173.2061,515.475 174.5111,515.475 Q175.286,515.475 175.8297,515.2983 Q176.1424,515.2031 176.4958,514.8905 Q176.7269,514.7138 176.8493,514.6594 Q176.9716,514.605 177.1211,514.605 Q177.4066,514.605 177.6105,514.8361 Q177.828,515.0536 177.828,515.3663 Q177.828,515.6653 177.5289,516.0188 Q177.0939,516.5353 176.4007,516.8208 Q175.4899,517.215 174.3752,517.215 Q173.0702,517.215 172.0235,516.6984 Q171.1807,516.2906 170.5825,515.407 Q169.998,514.5234 169.998,513.4767 L169.998,512.5252 Q169.998,511.4377 170.5146,510.4861 Q171.0447,509.5345 171.9555,509.0316 Q172.8799,508.515 173.913,508.515 Q174.5383,508.515 175.0821,508.7325 Q175.6258,508.95 176.088,509.385 Z " fill="#000000"/><text fill="#000000" font-family="sans-serif" font-size="10.44" lengthAdjust="spacing" textLength="98.31" x="189.312" y="516.7018">ImportTestController</text><line style="stroke:#A80036;stroke-width:1.305;" x1="149.64" x2="301.89" y1="526.35" y2="526.35"/><line style="stroke:#A80036;stroke-width:1.305;" x1="149.64" x2="301.89" y1="533.31" y2="533.31"/><text fill="#000000" font-family="sans-serif" font-size="9.57" lengthAdjust="spacing" textLength="143.55" x="153.99" y="546.7245">+createTestsFromFile(TestFileDto)</text><text fill="#000000" font-family="sans-serif" font-size="9.57" lengthAdjust="spacing" textLength="51.33" x="153.99" y="558.7617">+saveTest()</text><text fill="#000000" font-family="sans-serif" font-size="9.57" lengthAdjust="spacing" textLength="58.29" x="153.99" y="570.799">+addSample()</text><!--MD5=[1a7fda4a36185bcd740bdf14b2b3a45e]
class RegisterClientController--><rect codeLine="126" fill="#FEFECE" filter="url(#fngk1kx96kofl)" height="65.8345" id="RegisterClientController" style="stroke:#A80036;stroke-width:1.305;" width="143.55" x="360.615" y="384.54"/><ellipse cx="373.665" cy="398.46" fill="#ADD1B2" rx="9.57" ry="9.57" style="stroke:#A80036;stroke-width:0.87;"/><path d="M375.405,395.415 Q375.5817,394.98 375.7856,394.7625 Q375.9895,394.545 376.2206,394.545 Q376.6284,394.545 376.8867,394.7897 Q377.145,395.0344 377.145,395.6053 L377.145,396.9647 Q377.145,397.5356 376.9003,397.7803 Q376.6556,398.025 376.275,398.025 Q375.9352,398.025 375.7177,397.8755 Q375.5002,397.7259 375.405,397.3317 Q375.3642,397.0598 375.2147,396.9103 Q374.9428,396.6248 374.4534,396.4617 Q373.9641,396.285 373.4747,396.285 Q372.863,396.285 372.3464,396.5297 Q371.8434,396.7744 371.4492,397.3181 Q371.055,397.8619 371.055,398.6095 L371.055,399.4116 Q371.055,400.3088 371.7891,400.9069 Q372.5231,401.505 373.8281,401.505 Q374.603,401.505 375.1467,401.3283 Q375.4594,401.2331 375.8128,400.9205 Q376.0439,400.7438 376.1663,400.6894 Q376.2886,400.635 376.4381,400.635 Q376.7236,400.635 376.9275,400.8661 Q377.145,401.0836 377.145,401.3963 Q377.145,401.6953 376.8459,402.0488 Q376.4109,402.5653 375.7177,402.8508 Q374.8069,403.245 373.6922,403.245 Q372.3872,403.245 371.3405,402.7284 Q370.4977,402.3206 369.8995,401.437 Q369.315,400.5534 369.315,399.5067 L369.315,398.5552 Q369.315,397.4677 369.8316,396.5161 Q370.3617,395.5645 371.2725,395.0616 Q372.1969,394.545 373.23,394.545 Q373.8553,394.545 374.3991,394.7625 Q374.9428,394.98 375.405,395.415 Z " fill="#000000"/><text fill="#000000" font-family="sans-serif" font-size="10.44" lengthAdjust="spacing" textLength="115.71" x="385.845" y="402.7318">RegisterClientController</text><line style="stroke:#A80036;stroke-width:1.305;" x1="361.485" x2="503.295" y1="412.38" y2="412.38"/><line style="stroke:#A80036;stroke-width:1.305;" x1="361.485" x2="503.295" y1="419.34" y2="419.34"/><text fill="#000000" font-family="sans-serif" font-size="9.57" lengthAdjust="spacing" textLength="103.53" x="365.835" y="432.7545">+registerClient(ClientDto)</text><text fill="#000000" font-family="sans-serif" font-size="9.57" lengthAdjust="spacing" textLength="55.68" x="365.835" y="444.7917">+saveClient()</text><!--MD5=[a1e7b5096c55c847fdbd76277a7fd41a]
class RecordSamplesController--><rect codeLine="131" fill="#FEFECE" filter="url(#fngk1kx96kofl)" height="65.8345" id="RecordSamplesController" style="stroke:#A80036;stroke-width:1.305;" width="153.12" x="562.02" y="6.09"/><ellipse cx="575.07" cy="20.01" fill="#ADD1B2" rx="9.57" ry="9.57" style="stroke:#A80036;stroke-width:0.87;"/><path d="M576.81,16.965 Q576.9867,16.53 577.1906,16.3125 Q577.3945,16.095 577.6256,16.095 Q578.0334,16.095 578.2917,16.3397 Q578.55,16.5844 578.55,17.1553 L578.55,18.5147 Q578.55,19.0856 578.3053,19.3303 Q578.0606,19.575 577.68,19.575 Q577.3402,19.575 577.1227,19.4255 Q576.9052,19.2759 576.81,18.8817 Q576.7692,18.6098 576.6197,18.4603 Q576.3478,18.1748 575.8584,18.0117 Q575.3691,17.835 574.8797,17.835 Q574.268,17.835 573.7514,18.0797 Q573.2484,18.3244 572.8542,18.8681 Q572.46,19.4119 572.46,20.1595 L572.46,20.9616 Q572.46,21.8588 573.1941,22.4569 Q573.9281,23.055 575.2331,23.055 Q576.008,23.055 576.5517,22.8783 Q576.8644,22.7831 577.2178,22.4705 Q577.4489,22.2938 577.5713,22.2394 Q577.6936,22.185 577.8431,22.185 Q578.1286,22.185 578.3325,22.4161 Q578.55,22.6336 578.55,22.9463 Q578.55,23.2453 578.2509,23.5988 Q577.8159,24.1153 577.1227,24.4008 Q576.2119,24.795 575.0972,24.795 Q573.7922,24.795 572.7455,24.2784 Q571.9027,23.8706 571.3045,22.987 Q570.72,22.1034 570.72,21.0567 L570.72,20.1052 Q570.72,19.0177 571.2366,18.0661 Q571.7667,17.1145 572.6775,16.6116 Q573.6019,16.095 574.635,16.095 Q575.2603,16.095 575.8041,16.3125 Q576.3478,16.53 576.81,16.965 Z " fill="#000000"/><text fill="#000000" font-family="sans-serif" font-size="10.44" lengthAdjust="spacing" textLength="125.28" x="587.25" y="24.2818">RecordSamplesController</text><line style="stroke:#A80036;stroke-width:1.305;" x1="562.89" x2="714.27" y1="33.93" y2="33.93"/><line style="stroke:#A80036;stroke-width:1.305;" x1="562.89" x2="714.27" y1="40.89" y2="40.89"/><text fill="#000000" font-family="sans-serif" font-size="9.57" lengthAdjust="spacing" textLength="69.6" x="567.24" y="54.3045">+createSample()</text><text fill="#000000" font-family="sans-serif" font-size="9.57" lengthAdjust="spacing" textLength="79.17" x="567.24" y="66.3417">+addSample(code)</text><!--MD5=[9bb7cc3529c0d40aca5d5110b828cb84]
class TestFileUtils--><rect codeLine="138" fill="#FEFECE" filter="url(#fngk1kx96kofl)" height="53.7973" id="TestFileUtils" style="stroke:#A80036;stroke-width:1.305;" width="127.89" x="161.82" y="669.03"/><ellipse cx="192.879" cy="682.95" fill="#ADD1B2" rx="9.57" ry="9.57" style="stroke:#A80036;stroke-width:0.87;"/><path d="M194.619,679.905 Q194.7957,679.47 194.9996,679.2525 Q195.2035,679.035 195.4346,679.035 Q195.8424,679.035 196.1007,679.2797 Q196.359,679.5244 196.359,680.0953 L196.359,681.4547 Q196.359,682.0256 196.1143,682.2703 Q195.8696,682.515 195.489,682.515 Q195.1492,682.515 194.9317,682.3655 Q194.7142,682.2159 194.619,681.8217 Q194.5782,681.5498 194.4287,681.4003 Q194.1568,681.1148 193.6674,680.9517 Q193.1781,680.775 192.6887,680.775 Q192.077,680.775 191.5604,681.0197 Q191.0574,681.2644 190.6632,681.8081 Q190.269,682.3519 190.269,683.0995 L190.269,683.9016 Q190.269,684.7988 191.0031,685.3969 Q191.7371,685.995 193.0421,685.995 Q193.817,685.995 194.3607,685.8183 Q194.6734,685.7231 195.0268,685.4105 Q195.2579,685.2338 195.3803,685.1794 Q195.5026,685.125 195.6521,685.125 Q195.9376,685.125 196.1415,685.3561 Q196.359,685.5736 196.359,685.8863 Q196.359,686.1853 196.0599,686.5388 Q195.6249,687.0553 194.9317,687.3408 Q194.0209,687.735 192.9062,687.735 Q191.6012,687.735 190.5545,687.2184 Q189.7117,686.8106 189.1135,685.927 Q188.529,685.0434 188.529,683.9967 L188.529,683.0452 Q188.529,681.9577 189.0456,681.0061 Q189.5757,680.0545 190.4865,679.5516 Q191.4109,679.035 192.444,679.035 Q193.0693,679.035 193.6131,679.2525 Q194.1568,679.47 194.619,679.905 Z " fill="#000000"/><text fill="#000000" font-family="sans-serif" font-size="10.44" lengthAdjust="spacing" textLength="60.03" x="209.061" y="687.2218">TestFileUtils</text><line style="stroke:#A80036;stroke-width:1.305;" x1="162.69" x2="288.84" y1="696.87" y2="696.87"/><line style="stroke:#A80036;stroke-width:1.305;" x1="162.69" x2="288.84" y1="703.83" y2="703.83"/><text fill="#000000" font-family="sans-serif" font-size="9.57" lengthAdjust="spacing" textLength="117.45" x="167.04" y="717.2445">+getTestDataToDto(filepath)</text><!--MD5=[bcff1293548765b9bca2a02c7e5ada38]
class ImportTestUI--><rect fill="#FEFECE" filter="url(#fngk1kx96kofl)" height="41.76" id="ImportTestUI" style="stroke:#A80036;stroke-width:1.305;" width="89.61" x="6.09" y="602.04"/><ellipse cx="19.14" cy="615.96" fill="#ADD1B2" rx="9.57" ry="9.57" style="stroke:#A80036;stroke-width:0.87;"/><path d="M20.88,612.915 Q21.0567,612.48 21.2606,612.2625 Q21.4645,612.045 21.6956,612.045 Q22.1034,612.045 22.3617,612.2897 Q22.62,612.5344 22.62,613.1053 L22.62,614.4647 Q22.62,615.0356 22.3753,615.2803 Q22.1306,615.525 21.75,615.525 Q21.4102,615.525 21.1927,615.3755 Q20.9752,615.2259 20.88,614.8317 Q20.8392,614.5598 20.6897,614.4103 Q20.4178,614.1248 19.9284,613.9617 Q19.4391,613.785 18.9497,613.785 Q18.338,613.785 17.8214,614.0297 Q17.3184,614.2744 16.9242,614.8181 Q16.53,615.3619 16.53,616.1095 L16.53,616.9116 Q16.53,617.8088 17.2641,618.4069 Q17.9981,619.005 19.3031,619.005 Q20.078,619.005 20.6217,618.8283 Q20.9344,618.7331 21.2878,618.4205 Q21.5189,618.2438 21.6413,618.1894 Q21.7636,618.135 21.9131,618.135 Q22.1986,618.135 22.4025,618.3661 Q22.62,618.5836 22.62,618.8963 Q22.62,619.1953 22.3209,619.5488 Q21.8859,620.0653 21.1927,620.3508 Q20.2819,620.745 19.1672,620.745 Q17.8622,620.745 16.8155,620.2284 Q15.9727,619.8206 15.3745,618.937 Q14.79,618.0534 14.79,617.0067 L14.79,616.0552 Q14.79,614.9677 15.3066,614.0161 Q15.8367,613.0645 16.7475,612.5616 Q17.6719,612.045 18.705,612.045 Q19.3303,612.045 19.8741,612.2625 Q20.4178,612.48 20.88,612.915 Z " fill="#000000"/><text fill="#000000" font-family="sans-serif" font-size="10.44" lengthAdjust="spacing" textLength="61.77" x="31.32" y="620.2318">ImportTestUI</text><line style="stroke:#A80036;stroke-width:1.305;" x1="6.96" x2="94.83" y1="629.88" y2="629.88"/><line style="stroke:#A80036;stroke-width:1.305;" x1="6.96" x2="94.83" y1="636.84" y2="636.84"/><!--MD5=[57290b2a5c651bbad46b720eb74ca40f]
link ImportTestUI to ImportTestController--><path codeLine="145" d="M94.3428,601.953 C109.6026,594.4362 127.3593,585.6927 144.7593,577.1232 " fill="none" id="ImportTestUI-to-ImportTestController" style="stroke:#A80036;stroke-width:0.87;stroke-dasharray:7.0,7.0;"/><polygon fill="#A80036" points="148.7004,575.1831,140.1389,575.5284,144.7998,577.1086,143.2196,581.7695,148.7004,575.1831" style="stroke:#A80036;stroke-width:0.87;"/><!--MD5=[5fdc64a7607c2e0f896a4f6cf6f56cd1]
link ImportTestUI to TestFileUtils--><path codeLine="146" d="M95.9001,641.5467 C114.5877,649.4376 136.7901,658.8075 157.4526,667.5336 " fill="none" id="ImportTestUI-to-TestFileUtils" style="stroke:#A80036;stroke-width:0.87;stroke-dasharray:7.0,7.0;"/><polygon fill="#A80036" points="161.5677,669.2649,155.7087,663.0126,157.5605,667.5724,153.0007,669.4242,161.5677,669.2649" style="stroke:#A80036;stroke-width:0.87;"/><!--MD5=[3f2c18ee26c4e9f10db22a5b0258415d]
link ImportTestUI to TestFileDTO--><path codeLine="147" d="M95.7522,628.3575 C145.8642,634.5693 230.2194,645.0615 302.76,654.24 C324.2577,656.9631 347.7738,659.9733 368.7582,662.6703 " fill="none" id="ImportTestUI-to-TestFileDTO" style="stroke:#A80036;stroke-width:0.87;stroke-dasharray:7.0,7.0;"/><polygon fill="#A80036" points="373.1952,663.2358,365.8778,658.7777,368.8813,662.6764,364.9827,665.6799,373.1952,663.2358" style="stroke:#A80036;stroke-width:0.87;"/><!--MD5=[a5204b862a09cf36ae0a3362503e1d49]
link TestFileUtils to TestFileDTO--><path codeLine="148" d="M289.7796,688.2222 C314.7921,685.1424 343.4934,681.6102 368.4972,678.5304 " fill="none" id="TestFileUtils-to-TestFileDTO" style="stroke:#A80036;stroke-width:0.87;stroke-dasharray:7.0,7.0;"/><polygon fill="#A80036" points="373.1256,677.9649,364.9271,675.4742,368.8086,678.4999,365.783,682.3814,373.1256,677.9649" style="stroke:#A80036;stroke-width:0.87;"/><!--MD5=[b3a06f9b119307594ef151c946e29e03]
link ImportTestController to TestFileDTO--><path codeLine="149" d="M292.4418,576.8448 C304.9089,584.4921 317.7849,592.5483 329.73,600.3 C342.6669,608.6955 356.3433,617.9262 369.3411,626.8524 " fill="none" id="ImportTestController-to-TestFileDTO" style="stroke:#A80036;stroke-width:0.87;stroke-dasharray:7.0,7.0;"/><polygon fill="#A80036" points="372.9864,629.3667,368.5057,622.0631,369.4018,626.9023,364.5626,627.7984,372.9864,629.3667" style="stroke:#A80036;stroke-width:0.87;"/><!--MD5=[ebc6b64f71ff29ab8c8b944560b4a5d2]
link ImportTestController to CreateTestOfFileControler--><path codeLine="150" d="M302.9253,537.66 C318.6288,537.66 335.211,537.66 351.0537,537.66 " fill="none" id="ImportTestController-to-CreateTestOfFileControler" style="stroke:#A80036;stroke-width:0.87;stroke-dasharray:7.0,7.0;"/><polygon fill="#A80036" points="355.5081,537.66,347.6781,534.18,351.1581,537.66,347.6781,541.14,355.5081,537.66" style="stroke:#A80036;stroke-width:0.87;"/><!--MD5=[11f505775541bdd9869a5b875923a1bb]
link ImportTestController to RegisterClientController--><path codeLine="151" d="M293.7207,498.3447 C318.6462,483.7461 346.7559,467.2683 371.055,453.0351 " fill="none" id="ImportTestController-to-RegisterClientController" style="stroke:#A80036;stroke-width:0.87;stroke-dasharray:7.0,7.0;"/><polygon fill="#A80036" points="374.9178,450.7644,366.4029,451.7213,371.1649,452.964,369.9222,457.7259,374.9178,450.7644" style="stroke:#A80036;stroke-width:0.87;"/><!--MD5=[a4935fafe3b175e15a445a939ba0e315]
link CreateTestOfFileControler to Company--><path codeLine="152" d="M489.6708,504.5391 C519.1899,487.2 555.147,466.0851 584.2224,449.007 " fill="none" id="CreateTestOfFileControler-to-Company" style="stroke:#A80036;stroke-width:0.87;stroke-dasharray:7.0,7.0;"/><polygon fill="#A80036" points="588.1026,446.7363,579.5877,447.6932,584.3497,448.9359,583.107,453.6978,588.1026,446.7363" style="stroke:#A80036;stroke-width:0.87;"/><!--MD5=[9303bd2045f8355c707894ecee2ca7fb]
link CreateTestOfFileControler to ClinicalAnalysisLaboratoryStore--><path codeLine="153" d="M509.0892,558.9141 C570.9723,575.0961 660.9912,596.0196 741.24,604.65 C808.1343,611.8449 825.369,606.5466 892.62,604.65 C917.1975,603.954 943.7499,602.6925 968.3796,601.3092 " fill="none" id="CreateTestOfFileControler-to-ClinicalAnalysisLaboratoryStore" style="stroke:#A80036;stroke-width:0.87;stroke-dasharray:7.0,7.0;"/><polygon fill="#A80036" points="972.9558,601.0482,964.94,598.0206,968.6129,601.2964,965.3371,604.9692,972.9558,601.0482" style="stroke:#A80036;stroke-width:0.87;"/><!--MD5=[61011cc01e4869cc1daa04f005920ca2]
link CreateTestOfFileControler to ParameterStore--><path codeLine="154" d="M483.9984,570.7635 C506.9664,584.3181 534.9891,598.9602 562.02,608.13 C677.5386,647.3409 814.8855,666.8028 916.3449,676.3902 " fill="none" id="CreateTestOfFileControler-to-ParameterStore" style="stroke:#A80036;stroke-width:0.87;stroke-dasharray:7.0,7.0;"/><polygon fill="#A80036" points="920.8428,676.8165,913.3763,672.6129,916.5122,676.4058,912.7192,679.5418,920.8428,676.8165" style="stroke:#A80036;stroke-width:0.87;"/><!--MD5=[3f5a6b4764940efbfa2a4021cdf92c8b]
link CreateTestOfFileControler to TestTypeStore--><path codeLine="155" d="M495.8478,570.894 C500.8764,575.5311 505.383,580.6815 508.95,586.38 C560.2278,668.2383 467.364,733.2273 535.05,802.14 C586.4496,854.4792 673.1451,859.1685 736.6812,853.9398 " fill="none" id="CreateTestOfFileControler-to-TestTypeStore" style="stroke:#A80036;stroke-width:0.87;stroke-dasharray:7.0,7.0;"/><polygon fill="#A80036" points="741.2139,853.5483,733.1139,850.7537,736.88,853.9219,733.7117,857.6879,741.2139,853.5483" style="stroke:#A80036;stroke-width:0.87;"/><!--MD5=[2720374cf400c7124fbfcbd5872b4ac2]
link CreateTestOfFileControler to TestStore--><path codeLine="156" d="M509.037,537.0858 C600.2478,535.7982 757.9701,531.6657 892.62,518.52 C899.667,517.8327 906.8619,517.0497 914.1177,516.1884 " fill="none" id="CreateTestOfFileControler-to-TestStore" style="stroke:#A80036;stroke-width:0.87;stroke-dasharray:7.0,7.0;"/><polygon fill="#A80036" points="918.6504,515.6403,910.467,513.1004,914.3303,516.1493,911.2814,520.0126,918.6504,515.6403" style="stroke:#A80036;stroke-width:0.87;"/><!--MD5=[da8867a6992f0c6e169ba319eeae146b]
link CreateTestOfFileControler to RecordSamplesController--><path codeLine="157" d="M476.2815,504.3738 C488.244,493.3509 500.3109,480.2922 508.95,466.32 C550.5099,399.1212 607.5993,167.736 629.0796,76.5339 " fill="none" id="CreateTestOfFileControler-to-RecordSamplesController" style="stroke:#A80036;stroke-width:0.87;stroke-dasharray:7.0,7.0;"/><polygon fill="#A80036" points="630.0714,72.297,624.895,79.1252,629.0778,76.532,631.671,80.7149,630.0714,72.297" style="stroke:#A80036;stroke-width:0.87;"/><!--MD5=[daf3d7412afa2c7651483be0b6e971d1]
link Company to ParameterStore--><path codeLine="158" d="M663.2967,468.8256 C680.8185,501.5985 707.4318,542.88 741.24,569.85 C793.0485,611.175 860.8911,638.493 920.8167,656.1453 " fill="none" id="Company-ParameterStore" style="stroke:#A80036;stroke-width:0.87;"/><polygon fill="#000000" points="806.0928,564.7318,801.2331,558.0351,798.225,562.1705,806.0928,564.7318" style="stroke:#000000;stroke-width:0.87;"/><text fill="#000000" font-family="sans-serif" font-size="11.31" lengthAdjust="spacing" textLength="24.36" x="810.405" y="566.8008">uses</text><text fill="#000000" font-family="sans-serif" font-size="11.31" lengthAdjust="spacing" textLength="6.09" x="659.7125" y="487.3027">1</text><text fill="#000000" font-family="sans-serif" font-size="11.31" lengthAdjust="spacing" textLength="6.09" x="907.7065" y="666.8127">1</text><!--MD5=[a0992dda039fed1bb57aff5aacace800]
link ParameterStore to Parameter--><path codeLine="159" d="M1204.776,673.7889 C1252.9566,670.6743 1307.175,668.16 1356.765,668.16 C1356.765,668.16 1356.765,668.16 1975.77,668.16 C2069.5038,668.16 2179.611,662.1222 2236.5699,658.5465 " fill="none" id="ParameterStore-Parameter" style="stroke:#A80036;stroke-width:0.87;"/><polygon fill="#000000" points="1649.0845,660.4187,1641.1784,657.9783,1641.2539,663.0915,1649.0845,660.4187" style="stroke:#000000;stroke-width:0.87;"/><text fill="#000000" font-family="sans-serif" font-size="11.31" lengthAdjust="spacing" textLength="31.32" x="1652.565" y="665.1108">stores</text><text fill="#000000" font-family="sans-serif" font-size="11.31" lengthAdjust="spacing" textLength="6.09" x="1211.3516" y="685.325">1</text><text fill="#000000" font-family="sans-serif" font-size="11.31" lengthAdjust="spacing" textLength="4.35" x="2225.3423" y="671.9259">*</text><!--MD5=[198be3749d42ca56b2a20022cdc44bdd]
link RegisterClientController to Company--><path codeLine="160" d="M504.1911,417.6 C530.1432,417.6 559.0707,417.6 583.3437,417.6 " fill="none" id="RegisterClientController-to-Company" style="stroke:#A80036;stroke-width:0.87;stroke-dasharray:7.0,7.0;"/><polygon fill="#A80036" points="587.8242,417.6,579.9942,414.12,583.4742,417.6,579.9942,421.08,587.8242,417.6" style="stroke:#A80036;stroke-width:0.87;"/><!--MD5=[d17ba2de69bcbdc84560ba08c091bb6c]
link RegisterClientController to ClientStore--><path codeLine="161" d="M456.2193,384.4356 C501.8769,321.7956 610.9662,187.8504 741.24,137.46 C803.9931,113.187 828.6228,116.7018 892.62,137.46 C921.6867,146.8908 985.7448,197.0028 1026.1737,230.1933 " fill="none" id="RegisterClientController-to-ClientStore" style="stroke:#A80036;stroke-width:0.87;stroke-dasharray:7.0,7.0;"/><polygon fill="#A80036" points="1029.7668,233.1513,1025.9289,225.4904,1026.4067,230.3886,1021.5085,230.8665,1029.7668,233.1513" style="stroke:#A80036;stroke-width:0.87;"/><!--MD5=[1d934105a045dbf126514c6917bd5072]
link ClientStore to Client--><path codeLine="162" d="M1140.6048,260.13 C1197.6159,260.13 1272.8883,260.13 1317.9108,260.13 " fill="none" id="ClientStore-Client" style="stroke:#A80036;stroke-width:0.87;"/><polygon fill="#000000" points="1248.885,252.4529,1241.0158,249.8961,1241.0158,255.0098,1248.885,252.4529" style="stroke:#000000;stroke-width:0.87;"/><text fill="#000000" font-family="sans-serif" font-size="11.31" lengthAdjust="spacing" textLength="31.32" x="1252.365" y="257.0808">stores</text><text fill="#000000" font-family="sans-serif" font-size="11.31" lengthAdjust="spacing" textLength="6.09" x="1147.561" y="272.4882">1</text><text fill="#000000" font-family="sans-serif" font-size="11.31" lengthAdjust="spacing" textLength="4.35" x="1306.6212" y="273.0713">*</text><!--MD5=[b0f4f6db8206580012ef9cd998ed01c5]
link TestStore to Test--><path codeLine="163" d="M1206.8379,486.5823 C1333.5012,481.4232 1511.9034,474.1587 1603.062,470.4438 " fill="none" id="TestStore-Test" style="stroke:#A80036;stroke-width:0.87;"/><polygon fill="#000000" points="1344.1464,470.6459,1336.1796,468.4114,1336.3877,473.5209,1344.1464,470.6459" style="stroke:#000000;stroke-width:0.87;"/><text fill="#000000" font-family="sans-serif" font-size="11.31" lengthAdjust="spacing" textLength="31.32" x="1347.63" y="475.4508">stores</text><text fill="#000000" font-family="sans-serif" font-size="11.31" lengthAdjust="spacing" textLength="6.09" x="1213.5069" y="498.3741">1</text><text fill="#000000" font-family="sans-serif" font-size="11.31" lengthAdjust="spacing" textLength="4.35" x="1591.9654" y="483.2225">*</text><!--MD5=[2dad08ae384f93453eb1ba4eb26732f1]
link ClinicalAnalysisLaboratoryStore to ClinicalAnalysisLaboratory--><path codeLine="164" d="M1152.5673,589.2162 C1232.2419,583.9701 1347.8214,576.3576 1423.3026,571.3812 " fill="none" id="ClinicalAnalysisLaboratoryStore-ClinicalAnalysisLaboratory" style="stroke:#A80036;stroke-width:0.87;"/><polygon fill="#000000" points="1248.8756,571.457,1240.8553,569.4229,1241.1915,574.5256,1248.8756,571.457" style="stroke:#000000;stroke-width:0.87;"/><text fill="#000000" font-family="sans-serif" font-size="11.31" lengthAdjust="spacing" textLength="31.32" x="1252.365" y="576.3708">stores</text><text fill="#000000" font-family="sans-serif" font-size="11.31" lengthAdjust="spacing" textLength="6.09" x="1159.3902" y="601.0539">1</text><text fill="#000000" font-family="sans-serif" font-size="11.31" lengthAdjust="spacing" textLength="4.35" x="1411.9" y="584.2081">*</text><!--MD5=[7f6cf7f175eae0af66201860de5de971]
link Company to TestStore--><path codeLine="165" d="M689.0574,428.6838 C705.6222,432.2508 724.1967,436.1223 741.24,439.35 C799.0254,450.3033 862.9095,461.1348 918.3459,470.1306 " fill="none" id="Company-TestStore" style="stroke:#A80036;stroke-width:0.87;"/><polygon fill="#000000" points="806.8556,432.4467,799.5667,428.5308,798.6571,433.563,806.8556,432.4467" style="stroke:#000000;stroke-width:0.87;"/><text fill="#000000" font-family="sans-serif" font-size="11.31" lengthAdjust="spacing" textLength="24.36" x="810.405" y="436.3008">uses</text><text fill="#000000" font-family="sans-serif" font-size="11.31" lengthAdjust="spacing" textLength="6.09" x="695.915" y="442.746">1</text><text fill="#000000" font-family="sans-serif" font-size="11.31" lengthAdjust="spacing" textLength="6.09" x="905.5767" y="481.1769">1</text><!--MD5=[a11230341c8e65219708844feaa40162]
link Company to ClientStore--><path codeLine="166" d="M679.4526,366.4875 C696.5394,348.0174 717.924,328.7556 741.24,316.68 C817.7739,277.0428 916.893,264.567 984.5268,260.9478 " fill="none" id="Company-ClientStore" style="stroke:#A80036;stroke-width:0.87;"/><polygon fill="#000000" points="806.686,263.2108,798.4132,263.3671,800.0851,268.1998,806.686,263.2108" style="stroke:#000000;stroke-width:0.87;"/><text fill="#000000" font-family="sans-serif" font-size="11.31" lengthAdjust="spacing" textLength="24.36" x="810.405" y="269.2608">uses</text><text fill="#000000" font-family="sans-serif" font-size="11.31" lengthAdjust="spacing" textLength="6.09" x="677.9728" y="357.2398">1</text><text fill="#000000" font-family="sans-serif" font-size="11.31" lengthAdjust="spacing" textLength="6.09" x="971.7105" y="273.3512">1</text><!--MD5=[f379172a0573607dd0ae1a4ea50b9294]
link Company to ClinicalAnalysisLaboratoryStore--><path codeLine="167" d="M689.1009,455.7669 C705.1872,467.0856 723.4833,478.9002 741.24,488.07 C815.6598,526.5066 906.7662,555.3558 972.8166,573.3474 " fill="none" id="Company-ClinicalAnalysisLaboratoryStore" style="stroke:#A80036;stroke-width:0.87;"/><polygon fill="#000000" points="806.5936,482.0583,800.3028,476.6835,798.345,481.4076,806.5936,482.0583" style="stroke:#000000;stroke-width:0.87;"/><text fill="#000000" font-family="sans-serif" font-size="11.31" lengthAdjust="spacing" textLength="24.36" x="810.405" y="485.0208">uses</text><text fill="#000000" font-family="sans-serif" font-size="11.31" lengthAdjust="spacing" textLength="6.09" x="695.964" y="473.2991">1</text><text fill="#000000" font-family="sans-serif" font-size="11.31" lengthAdjust="spacing" textLength="6.09" x="959.9018" y="584.0198">1</text><!--MD5=[7e4bc624457760b649895ff2ead938fa]
link Company to Test--><path codeLine="168" d="M689.1792,417.6957 C740.2308,417.8871 821.9847,418.4787 892.62,420.21 C1197.2679,427.6833 1274.0715,426.5001 1577.31,456.75 C1585.6968,457.5852 1594.5273,458.6118 1603.1925,459.6993 " fill="none" id="Company-Test" style="stroke:#A80036;stroke-width:0.87;"/><polygon fill="#000000" points="1241.4854,422.3026,1233.7419,419.3872,1233.5071,424.4955,1241.4854,422.3026" style="stroke:#000000;stroke-width:0.87;"/><text fill="#000000" font-family="sans-serif" font-size="11.31" lengthAdjust="spacing" textLength="46.11" x="1244.97" y="426.7308">conducts</text><text fill="#000000" font-family="sans-serif" font-size="11.31" lengthAdjust="spacing" textLength="6.09" x="696.0524" y="430.35">1</text><text fill="#000000" font-family="sans-serif" font-size="11.31" lengthAdjust="spacing" textLength="4.35" x="1592.1102" y="455.8603">*</text><!--MD5=[7e4bc624457760b649895ff2ead938fa]
link Company to Test--><path codeLine="173" d="M689.0748,404.811 C705.5526,401.1483 724.0749,397.6596 741.24,395.85 C808.1517,388.7856 825.3429,395.1975 892.62,395.85 C1032.2289,397.2072 1067.1942,396.3198 1206.69,401.94 C1244.622,403.4712 1254.0615,404.7501 1291.95,407.16 C1338.7473,410.1354 1350.4314,410.988 1397.22,414.12 C1477.26,419.4705 1499.8539,405.4026 1577.31,426.3 C1585.9926,428.6403 1594.8318,431.9028 1603.3752,435.5829 " fill="none" id="Company-Test-1" style="stroke:#A80036;stroke-width:0.87;"/><polygon fill="#000000" points="1241.4875,395.2793,1233.7088,392.4591,1233.5368,397.57,1241.4875,395.2793" style="stroke:#000000;stroke-width:0.87;"/><text fill="#000000" font-family="sans-serif" font-size="11.31" lengthAdjust="spacing" textLength="46.11" x="1244.97" y="399.7608">conducts</text><text fill="#000000" font-family="sans-serif" font-size="11.31" lengthAdjust="spacing" textLength="6.09" x="695.9346" y="400.111">1</text><text fill="#000000" font-family="sans-serif" font-size="11.31" lengthAdjust="spacing" textLength="4.35" x="1591.9293" y="428.8606">*</text><!--MD5=[502b51bc079239060389dab43b7d3470]
link Client to Test--><path codeLine="169" d="M1397.3679,269.8392 C1443.852,282.8979 1522.2912,309.6591 1577.31,353.22 C1597.2939,369.0366 1614.8505,390.717 1628.7096,410.9793 " fill="none" id="Client-Test" style="stroke:#A80036;stroke-width:0.87;"/><polygon fill="#000000" points="1461.8015,269.3274,1467.1876,275.6085,1469.8509,271.2431,1461.8015,269.3274" style="stroke:#000000;stroke-width:0.87;"/><text fill="#000000" font-family="sans-serif" font-size="11.31" lengthAdjust="spacing" textLength="65.25" x="1473.345" y="276.2208">requested by</text><text fill="#000000" font-family="sans-serif" font-size="11.31" lengthAdjust="spacing" textLength="6.09" x="1404.1856" y="284.2826">1</text><text fill="#000000" font-family="sans-serif" font-size="11.31" lengthAdjust="spacing" textLength="6.09" x="1618.5831" y="401.8116">1</text><!--MD5=[d480452e7d21fe720ba0207568bc7434]
link ClinicalAnalysisLaboratory to Test--><path codeLine="170" d="M1548.4695,539.2173 C1558.0569,533.5971 1568.0445,527.6637 1577.31,522 C1585.7664,516.8322 1594.6404,511.299 1603.3317,505.8006 " fill="none" id="ClinicalAnalysisLaboratory-Test" style="stroke:#A80036;stroke-width:0.87;"/><polygon fill="#000000" points="1528.9208,527.6592,1520.87,529.5691,1523.5302,533.9364,1528.9208,527.6592" style="stroke:#000000;stroke-width:0.87;"/><text fill="#000000" font-family="sans-serif" font-size="11.31" lengthAdjust="spacing" textLength="43.5" x="1533.0357" y="534.5499">performs</text><text fill="#000000" font-family="sans-serif" font-size="11.31" lengthAdjust="spacing" textLength="6.09" x="1574.7092" y="530.1972">1</text><text fill="#000000" font-family="sans-serif" font-size="11.31" lengthAdjust="spacing" textLength="17.4" x="1578.9256" y="522.1662">1..*</text><!--MD5=[5b7a9ded131023be416e27d15bcd6d77]
link TestType to Parameter--><path codeLine="171" d="M2032.8594,748.6002 C2075.559,740.0829 2134.8843,726.102 2184.57,706.44 C2202.3789,699.393 2221.0317,689.475 2236.7439,680.2965 " fill="none" id="TestType-Parameter" style="stroke:#A80036;stroke-width:0.87;"/><polygon fill="#000000" points="2096.4747,697.3811,2088.2008,697.4564,2089.8253,702.3053,2096.4747,697.3811" style="stroke:#000000;stroke-width:0.87;"/><text fill="#000000" font-family="sans-serif" font-size="11.31" lengthAdjust="spacing" textLength="83.52" x="2100.18" y="703.3908">characterized by</text><text fill="#000000" font-family="sans-serif" font-size="11.31" lengthAdjust="spacing" textLength="6.09" x="2039.5318" y="760.0442">1</text><text fill="#000000" font-family="sans-serif" font-size="11.31" lengthAdjust="spacing" textLength="17.4" x="2212.3121" y="696.6849">1..*</text><!--MD5=[742a261f27a3dcd734c626287d811acd]
link Company to TestType--><path codeLine="172" d="M650.1858,468.5298 C663.5229,520.6167 690.9105,601.0047 741.24,652.5 C906.5748,821.6628 1024.9557,764.73 1261.5,764.73 C1261.5,764.73 1261.5,764.73 1663.44,764.73 C1751.8929,764.73 1854.4746,762.2331 1916.7927,760.4322 " fill="none" id="Company-TestType" style="stroke:#A80036;stroke-width:0.87;"/><polygon fill="#000000" points="1336.6439,758.0298,1329.5499,753.771,1328.4015,758.7542,1336.6439,758.0298" style="stroke:#000000;stroke-width:0.87;"/><text fill="#000000" font-family="sans-serif" font-size="11.31" lengthAdjust="spacing" textLength="46.11" x="1340.235" y="761.6808">conducts</text><text fill="#000000" font-family="sans-serif" font-size="11.31" lengthAdjust="spacing" textLength="6.09" x="645.1391" y="487.335">1</text><text fill="#000000" font-family="sans-serif" font-size="11.31" lengthAdjust="spacing" textLength="4.35" x="1905.8493" y="773.1704">*</text><!--MD5=[3eebf0e5f359806b77b30e9524c37676]
link TestTypeStore to TestType--><path codeLine="174" d="M892.7766,841.29 C980.9946,841.29 1131.8961,841.29 1261.5,841.29 C1261.5,841.29 1261.5,841.29 1663.44,841.29 C1754.3898,841.29 1855.4403,807.7863 1916.8536,783.435 " fill="none" id="TestTypeStore-TestType" style="stroke:#A80036;stroke-width:0.87;"/><polygon fill="#000000" points="1344.1431,833.3676,1336.1422,831.2586,1336.4306,836.3642,1344.1431,833.3676" style="stroke:#000000;stroke-width:0.87;"/><text fill="#000000" font-family="sans-serif" font-size="11.31" lengthAdjust="spacing" textLength="31.32" x="1347.63" y="838.2408">stores</text><text fill="#000000" font-family="sans-serif" font-size="11.31" lengthAdjust="spacing" textLength="6.09" x="899.5563" y="853.6482">1</text><text fill="#000000" font-family="sans-serif" font-size="11.31" lengthAdjust="spacing" textLength="4.35" x="1905.9169" y="798.6891">*</text><!--MD5=[12d76240d3c3c66074d4ec2ea8bf469c]
link Company to Parameter--><path codeLine="175" d="M657.1284,366.4701 C673.0842,328.1988 700.3761,277.7997 741.24,249.69 C822.9765,193.4619 1020.0489,144.42 1499.445,144.42 C1499.445,144.42 1499.445,144.42 1975.77,144.42 C2151.1968,144.42 2109.6456,320.7516 2184.57,479.37 C2200.0821,512.2038 2194.8621,524.1054 2210.67,556.8 C2220.6837,577.4973 2234.2557,599.0733 2246.3574,616.7865 " fill="none" id="Company-Parameter" style="stroke:#A80036;stroke-width:0.87;"/><polygon fill="#000000" points="1451.107,137.4197,1443.7315,133.6696,1442.9358,138.7211,1451.107,137.4197" style="stroke:#000000;stroke-width:0.87;"/><text fill="#000000" font-family="sans-serif" font-size="11.31" lengthAdjust="spacing" textLength="102.66" x="1454.64" y="141.3708">capable of analysing</text><text fill="#000000" font-family="sans-serif" font-size="11.31" lengthAdjust="spacing" textLength="6.09" x="652.9279" y="357.2203">1</text><text fill="#000000" font-family="sans-serif" font-size="11.31" lengthAdjust="spacing" textLength="4.35" x="2236.9492" y="607.31">*</text><!--MD5=[e981d4f96c4342412d1e68160b30cf70]
link Test to TestType--><path codeLine="176" d="M1721.8605,522.7134 C1783.0998,580.0116 1877.7993,668.6124 1932.0438,719.3595 " fill="none" id="Test-TestType" style="stroke:#A80036;stroke-width:0.87;"/><polygon fill="#000000" points="1774.4965,548.6148,1770.497,541.3715,1767.0033,545.1057,1774.4965,548.6148" style="stroke:#000000;stroke-width:0.87;"/><text fill="#000000" font-family="sans-serif" font-size="11.31" lengthAdjust="spacing" textLength="62.64" x="1779.15" y="550.2708">classified as</text><text fill="#000000" font-family="sans-serif" font-size="11.31" lengthAdjust="spacing" textLength="4.35" x="1728.5833" y="541.2091">*</text><text fill="#000000" font-family="sans-serif" font-size="11.31" lengthAdjust="spacing" textLength="6.09" x="1918.9252" y="710.1559">1</text><!--MD5=[f24c888dadeb846430474fe80a58922b]
link Test to TestParameter--><path codeLine="177" d="M1721.8605,474.4458 C1768.6056,479.544 1834.8387,486.7824 1887.6999,492.5592 " fill="none" id="Test-TestParameter" style="stroke:#A80036;stroke-width:0.87;"/><polygon fill="#000000" points="1756.5043,470.4252,1748.9592,467.0291,1748.404,472.1126,1756.5043,470.4252" style="stroke:#000000;stroke-width:0.87;"/><text fill="#000000" font-family="sans-serif" font-size="11.31" lengthAdjust="spacing" textLength="100.92" x="1760.01" y="474.5808">requests analysis of</text><text fill="#000000" font-family="sans-serif" font-size="11.31" lengthAdjust="spacing" textLength="6.09" x="1728.6784" y="487.6622">1</text><text fill="#000000" font-family="sans-serif" font-size="11.31" lengthAdjust="spacing" textLength="17.4" x="1863.5569" y="504.142">1..*</text><!--MD5=[92e8e476cc9e9004a7125f53a120ec97]
link TestParameter to Parameter--><path codeLine="178" d="M2028.2397,528.9861 C2087.8434,559.6536 2183.6652,608.9565 2236.6743,636.231 " fill="none" id="TestParameter-Parameter" style="stroke:#A80036;stroke-width:0.87;"/><polygon fill="#000000" points="2117.533,554.5931,2111.7055,548.7193,2109.3659,553.2664,2117.533,554.5931" style="stroke:#000000;stroke-width:0.87;"/><text fill="#000000" font-family="sans-serif" font-size="11.31" lengthAdjust="spacing" textLength="40.89" x="2121.495" y="557.2308">refers to</text><text fill="#000000" font-family="sans-serif" font-size="11.31" lengthAdjust="spacing" textLength="4.35" x="2033.9628" y="547.4561">*</text><text fill="#000000" font-family="sans-serif" font-size="11.31" lengthAdjust="spacing" textLength="6.09" x="2223.8442" y="645.992">1</text><!--MD5=[0e00e25ac6b8c14659aaff2cf7e5df08]
link TestParameter to TestParameterResult--><path codeLine="179" d="M2061.9348,501.99 C2109.3324,501.99 2167.17,501.99 2210.6178,501.99 " fill="none" id="TestParameter-TestParameterResult" style="stroke:#A80036;stroke-width:0.87;"/><polygon fill="#000000" points="2117.145,494.3129,2109.2758,491.7561,2109.2758,496.8698,2117.145,494.3129" style="stroke:#000000;stroke-width:0.87;"/><text fill="#000000" font-family="sans-serif" font-size="11.31" lengthAdjust="spacing" textLength="42.63" x="2120.625" y="498.9408">contains</text><text fill="#000000" font-family="sans-serif" font-size="11.31" lengthAdjust="spacing" textLength="6.09" x="2068.8315" y="514.2808">1</text><text fill="#000000" font-family="sans-serif" font-size="11.31" lengthAdjust="spacing" textLength="19.14" x="2184.5755" y="514.4062">0..1</text><!--MD5=[b72ac8ab7fb5921fceb5036a3902baea]
link Test to Sample--><path codeLine="180" d="M1708.2711,410.7966 C1776.2268,323.9967 1902.6813,162.4725 1952.7933,98.4666 " fill="none" id="Test-Sample" style="stroke:#A80036;stroke-width:0.87;"/><polygon fill="#000000" points="1785.7466,211.6178,1778.8823,216.2378,1782.9088,219.3901,1785.7466,211.6178" style="stroke:#000000;stroke-width:0.87;"/><text fill="#000000" font-family="sans-serif" font-size="11.31" lengthAdjust="spacing" textLength="39.15" x="1790.895" y="219.6708">collects</text><text fill="#000000" font-family="sans-serif" font-size="11.31" lengthAdjust="spacing" textLength="6.09" x="1706.8466" y="401.6089">1</text><text fill="#000000" font-family="sans-serif" font-size="11.31" lengthAdjust="spacing" textLength="17.4" x="1929.3282" y="116.9623">1..*</text><!--MD5=[c6357bab279bd9c7aeab8a622969676c]
link RecordSamplesController to Sample--><path codeLine="181" d="M715.3314,33.8865 C799.8432,28.4925 940.5396,20.88 1061.835,20.88 C1061.835,20.88 1061.835,20.88 1663.44,20.88 C1763.8032,20.88 1880.07,46.8669 1937.7336,61.5438 " fill="none" id="RecordSamplesController-to-Sample" style="stroke:#A80036;stroke-width:0.87;stroke-dasharray:7.0,7.0;"/><polygon fill="#A80036" points="1942.1184,62.6661,1935.3992,57.3489,1937.9049,61.5848,1933.6691,64.0905,1942.1184,62.6661" style="stroke:#A80036;stroke-width:0.87;"/><!--MD5=[83d5a7f3798dcc767cdcbf583ff662d5]
link RecordSamplesController to SampleStore--><path codeLine="182" d="M715.2096,50.0685 C794.5797,61.5177 918.1023,79.3266 994.2621,90.306 " fill="none" id="RecordSamplesController-to-SampleStore" style="stroke:#A80036;stroke-width:0.87;stroke-dasharray:7.0,7.0;"/><polygon fill="#A80036" points="998.76,90.9585,991.5082,86.3944,994.4547,90.3363,990.5128,93.2829,998.76,90.9585" style="stroke:#A80036;stroke-width:0.87;"/><!--MD5=[6fff8c743b4aac4516b5292cd3b50f72]
link Company to SampleStore--><path codeLine="183" d="M648.7677,366.5658 C660.9825,314.2353 687.5175,234.1518 741.24,187.92 C812.6148,126.498 923.244,107.6799 994.0968,102.1032 " fill="none" id="Company-to-SampleStore" style="stroke:#A80036;stroke-width:0.87;"/><polygon fill="#A80036" points="998.6991,101.7552,990.6322,98.8665,994.3611,102.0784,991.1493,105.8073,998.6991,101.7552" style="stroke:#A80036;stroke-width:0.87;"/><polygon fill="#000000" points="806.0286,109.7381,798.2264,112.4927,801.3356,116.5526,806.0286,109.7381" style="stroke:#000000;stroke-width:0.87;"/><text fill="#000000" font-family="sans-serif" font-size="11.31" lengthAdjust="spacing" textLength="24.36" x="810.405" y="117.0108">uses</text><text fill="#000000" font-family="sans-serif" font-size="11.31" lengthAdjust="spacing" textLength="6.09" x="643.5482" y="357.3276">1</text><text fill="#000000" font-family="sans-serif" font-size="11.31" lengthAdjust="spacing" textLength="6.09" x="985.6945" y="114.42">1</text><!--MD5=[24da80e03bf7ae3160485df7795f9e59]
link SampleStore to Sample--><path codeLine="184" d="M1126.8762,98.0577 C1305.7221,92.4114 1810.3656,76.4991 1942.1967,72.3405 " fill="none" id="SampleStore-Sample" style="stroke:#A80036;stroke-width:0.87;"/><polygon fill="#000000" points="1479.4328,76.5758,1471.4869,74.2683,1471.6481,79.3795,1479.4328,76.5758" style="stroke:#000000;stroke-width:0.87;"/><text fill="#000000" font-family="sans-serif" font-size="11.31" lengthAdjust="spacing" textLength="46.11" x="1482.915" y="81.3408">manages</text><text fill="#000000" font-family="sans-serif" font-size="11.31" lengthAdjust="spacing" textLength="6.09" x="1133.8079" y="110.3412">1</text><text fill="#000000" font-family="sans-serif" font-size="11.31" lengthAdjust="spacing" textLength="4.35" x="1930.98" y="85.6926">*</text><!--MD5=[a457e9ab0335e1a600338213fc53e5bd]
link Sample to MyBarcode--><path codeLine="185" d="M2007.7947,71.34 C2062.8396,71.34 2175.2262,71.34 2235.2214,71.34 " fill="none" id="Sample-MyBarcode" style="stroke:#A80036;stroke-width:0.87;"/><polygon fill="#000000" points="2104.53,63.6629,2096.6608,61.1061,2096.6608,66.2198,2104.53,63.6629" style="stroke:#000000;stroke-width:0.87;"/><text fill="#000000" font-family="sans-serif" font-size="11.31" lengthAdjust="spacing" textLength="67.86" x="2108.01" y="68.2908">identified with</text><text fill="#000000" font-family="sans-serif" font-size="11.31" lengthAdjust="spacing" textLength="6.09" x="2014.4211" y="84.4054">1</text><text fill="#000000" font-family="sans-serif" font-size="11.31" lengthAdjust="spacing" textLength="6.09" x="2222.4332" y="84.1808">1</text><!--MD5=[c2b1c82d014962deb7f2c4abf9dcc42f]
@startuml
skinparam classAttributeIconSize 0
left to right direction

/'skinparam linetype ortho'/


/'package Domain <<Folder>> {
    package Model <<Folder>> {'/

        class ClinicalAnalysisLaboratory{
        - laboratoryID
        }


        class Test{
            - code
            - NhsCode
            - dateOfTestRegistration
            - dateOfSamplesCollection
            - dateOfChemicalAnalysis
            - dateOfDiagnosis
        }

        class TestFileDTO{
           -ClientDTO
           -NhsCode
           -TestParameterCodes
           -TestParameterResult
           - dateOfTestRegistration
           - dateOfSamplesCollection
           - dateOfChemicalAnalysis
           - dateOfDiagnosis
        }


        class Company {
            -designation : String
            +getTestTypeStore()
            +getParameterStore()
            +getTestStore()
            +getCalStore()
        }
        class TestType {
            - code : String
            - description : String
            - collectingMethod : String
            }

        class Sample {
        -myBarcode
        }

        class Parameter {
          -code
          -shortName
          -description
        }
        class TestParameter{
            +TestParameter(parameter: Parameter)
        }
        class TestParameterResult{
        - createdAt
        - value
        - metric
        }

        class Client{
        - name
        - citizenCardNum
        - nhsNum
        - birthDate
        - sex
        - taxIdNum
        - phoneNum
        - email
        }

        class MyBarcode {
        - barcodeNumber
        }


        class ClientStore {
           +getClientByTinNumber(tinNumber)
        }

        class ParameterStore {
                +getParamsByCategories(List<String> selectedCategoriesCodes)
                +getParamsByCategory(String category)
            }

        class SampleStore {
            +createSample(myBarcode)
            +validateSample(sample)
        }

        class TestStore {
            +createTest(String nhsCode, Client associatedClient,\n TestType selectedTestType, List<Parameter>selectedParamsList)
            +validateTest(test)
            +saveTest(test)
        }

        class ClinicalAnalysisLaboratoryStore {
            +getCalByCode(labId)
        }

        class TestTypeStore {
            +getTestTypeByTinNumber(code)
            }

/'    }
}'/

/'package Controller <<Folder>>{'/
    class CreateTestOfFileControler{
    +createTest(TestFileDto)
    +saveTest()
    }

    class ImportTestController{
            +createTestsFromFile(TestFileDto)
            +saveTest()
            +addSample()
        }

    class RegisterClientController {
      +registerClient(ClientDto)
      +saveClient()
    }

    class RecordSamplesController {
    +createSample()
    +addSample(code)
    }

/'}'/

    class TestFileUtils {
        +getTestDataToDto(filepath)

    }



ImportTestUI ..> ImportTestController
ImportTestUI ..> TestFileUtils
ImportTestUI ..> TestFileDTO
TestFileUtils ..> TestFileDTO
ImportTestController ..> TestFileDTO
ImportTestController ..> CreateTestOfFileControler
ImportTestController ..> RegisterClientController
CreateTestOfFileControler ..> Company
CreateTestOfFileControler ..> ClinicalAnalysisLaboratoryStore
CreateTestOfFileControler ..> ParameterStore
CreateTestOfFileControler ..> TestTypeStore
CreateTestOfFileControler ..> TestStore
CreateTestOfFileControler ..> RecordSamplesController
Company "1" - - "1" ParameterStore : uses >
ParameterStore "1" - - "*" Parameter : stores >
RegisterClientController ..> Company
RegisterClientController ..> ClientStore
ClientStore "1" - - "*" Client : stores >
TestStore "1" - - "*" Test : stores >
ClinicalAnalysisLaboratoryStore "1" - - "*" ClinicalAnalysisLaboratory : stores >
Company "1" - - "1" TestStore : uses >
Company "1" - - "1" ClientStore : uses >
Company "1" - - "1" ClinicalAnalysisLaboratoryStore : uses >
Company "1" - - - "*" Test : conducts >
Client "1" - - "1" Test : requested by <
ClinicalAnalysisLaboratory "1" - "1..*" Test : performs >
TestType "1" - - "1..*" Parameter : characterized by >
Company "1" - - "*" TestType : conducts >
Company "1" - - "*" Test : conducts >
TestTypeStore "1" - - "*" TestType : stores >
Company "1" - - "*" Parameter : capable of analysing >
Test "*" - - "1" TestType : classified as >
Test "1" - - "1..*" TestParameter : requests analysis of >
TestParameter "*" - - "1" Parameter : refers to >
TestParameter "1" - - "0..1" TestParameterResult : contains >
Test"1" - - "1..*" Sample : collects >
RecordSamplesController ..> Sample
RecordSamplesController ..> SampleStore
Company "1" - -> "1" SampleStore : uses >
SampleStore "1" - "*" Sample : manages >
Sample "1" - - "1" MyBarcode : identified with >
@enduml

@startuml
skinparam classAttributeIconSize 0
left to right direction




        class ClinicalAnalysisLaboratory{
        - laboratoryID
        }


        class Test{
            - code
            - NhsCode
            - dateOfTestRegistration
            - dateOfSamplesCollection
            - dateOfChemicalAnalysis
            - dateOfDiagnosis
        }

        class TestFileDTO{
           -ClientDTO
           -NhsCode
           -TestParameterCodes
           -TestParameterResult
           - dateOfTestRegistration
           - dateOfSamplesCollection
           - dateOfChemicalAnalysis
           - dateOfDiagnosis
        }


        class Company {
            -designation : String
            +getTestTypeStore()
            +getParameterStore()
            +getTestStore()
            +getCalStore()
        }
        class TestType {
            - code : String
            - description : String
            - collectingMethod : String
            }

        class Sample {
        -myBarcode
        }

        class Parameter {
          -code
          -shortName
          -description
        }
        class TestParameter{
            +TestParameter(parameter: Parameter)
        }
        class TestParameterResult{
        - createdAt
        - value
        - metric
        }

        class Client{
        - name
        - citizenCardNum
        - nhsNum
        - birthDate
        - sex
        - taxIdNum
        - phoneNum
        - email
        }

        class MyBarcode {
        - barcodeNumber
        }


        class ClientStore {
           +getClientByTinNumber(tinNumber)
        }

        class ParameterStore {
                +getParamsByCategories(List<String> selectedCategoriesCodes)
                +getParamsByCategory(String category)
            }

        class SampleStore {
            +createSample(myBarcode)
            +validateSample(sample)
        }

        class TestStore {
            +createTest(String nhsCode, Client associatedClient,\n TestType selectedTestType, List<Parameter>selectedParamsList)
            +validateTest(test)
            +saveTest(test)
        }

        class ClinicalAnalysisLaboratoryStore {
            +getCalByCode(labId)
        }

        class TestTypeStore {
            +getTestTypeByTinNumber(code)
            }


    class CreateTestOfFileControler{
    +createTest(TestFileDto)
    +saveTest()
    }

    class ImportTestController{
            +createTestsFromFile(TestFileDto)
            +saveTest()
            +addSample()
        }

    class RegisterClientController {
      +registerClient(ClientDto)
      +saveClient()
    }

    class RecordSamplesController {
    +createSample()
    +addSample(code)
    }


    class TestFileUtils {
        +getTestDataToDto(filepath)

    }



ImportTestUI ..> ImportTestController
ImportTestUI ..> TestFileUtils
ImportTestUI ..> TestFileDTO
TestFileUtils ..> TestFileDTO
ImportTestController ..> TestFileDTO
ImportTestController ..> CreateTestOfFileControler
ImportTestController ..> RegisterClientController
CreateTestOfFileControler ..> Company
CreateTestOfFileControler ..> ClinicalAnalysisLaboratoryStore
CreateTestOfFileControler ..> ParameterStore
CreateTestOfFileControler ..> TestTypeStore
CreateTestOfFileControler ..> TestStore
CreateTestOfFileControler ..> RecordSamplesController
Company "1" - - "1" ParameterStore : uses >
ParameterStore "1" - - "*" Parameter : stores >
RegisterClientController ..> Company
RegisterClientController ..> ClientStore
ClientStore "1" - - "*" Client : stores >
TestStore "1" - - "*" Test : stores >
ClinicalAnalysisLaboratoryStore "1" - - "*" ClinicalAnalysisLaboratory : stores >
Company "1" - - "1" TestStore : uses >
Company "1" - - "1" ClientStore : uses >
Company "1" - - "1" ClinicalAnalysisLaboratoryStore : uses >
Company "1" - - - "*" Test : conducts >
Client "1" - - "1" Test : requested by <
ClinicalAnalysisLaboratory "1" - "1..*" Test : performs >
TestType "1" - - "1..*" Parameter : characterized by >
Company "1" - - "*" TestType : conducts >
Company "1" - - "*" Test : conducts >
TestTypeStore "1" - - "*" TestType : stores >
Company "1" - - "*" Parameter : capable of analysing >
Test "*" - - "1" TestType : classified as >
Test "1" - - "1..*" TestParameter : requests analysis of >
TestParameter "*" - - "1" Parameter : refers to >
TestParameter "1" - - "0..1" TestParameterResult : contains >
Test"1" - - "1..*" Sample : collects >
RecordSamplesController ..> Sample
RecordSamplesController ..> SampleStore
Company "1" - -> "1" SampleStore : uses >
SampleStore "1" - "*" Sample : manages >
Sample "1" - - "1" MyBarcode : identified with >
@enduml

PlantUML version 1.2021.00(Sun Jan 10 10:25:05 GMT 2021)
(GPL source distribution)
Java Runtime: OpenJDK Runtime Environment
JVM: OpenJDK 64-Bit Server VM
Default Encoding: Cp1252
Language: pt
Country: BR
--></g></svg>