<?xml version="1.0" encoding="UTF-8" standalone="no"?><svg xmlns="http://www.w3.org/2000/svg" xmlns:xlink="http://www.w3.org/1999/xlink" contentScriptType="application/ecmascript" contentStyleType="text/css" height="267.09px" preserveAspectRatio="none" style="width:569px;height:267px;" version="1.1" viewBox="0 0 569 267" width="569.85px" zoomAndPan="magnify"><defs><filter height="300%" id="ftakrwcdvtx0i" width="300%" x="-1" y="-1"><feGaussianBlur result="blurOut" stdDeviation="1.74"/><feColorMatrix in="blurOut" result="blurOut2" type="matrix" values="0 0 0 0 0 0 0 0 0 0 0 0 0 0 0 0 0 0 .4 0"/><feOffset dx="3.48" dy="3.48" in="blurOut2" result="blurOut3"/><feBlend in="SourceGraphic" in2="blurOut3" mode="normal"/></filter></defs><g><!--MD5=[2c2e2644034c00788261e03c85b06837]
cluster Core--><polygon fill="#FFFFFF" filter="url(#ftakrwcdvtx0i)" points="135.72,5.22,170.52,5.22,176.61,25.7602,555.06,25.7602,555.06,261,135.72,261,135.72,5.22" style="stroke:#000000;stroke-width:1.305;"/><line style="stroke:#000000;stroke-width:1.305;" x1="135.72" x2="176.61" y1="25.7602" y2="25.7602"/><text fill="#000000" font-family="sans-serif" font-size="12.18" font-weight="bold" lengthAdjust="spacing" textLength="29.58" x="139.2" y="19.6039">Core</text><!--MD5=[121a8bf1197281ab89ed693fab589f94]
cluster Domain--><polygon fill="#FFFFFF" filter="url(#ftakrwcdvtx0i)" points="283.62,50.46,334.08,50.46,340.17,71.0002,527.22,71.0002,527.22,174.87,283.62,174.87,283.62,50.46" style="stroke:#000000;stroke-width:1.305;"/><line style="stroke:#000000;stroke-width:1.305;" x1="283.62" x2="340.17" y1="71.0002" y2="71.0002"/><text fill="#000000" font-family="sans-serif" font-size="12.18" font-weight="bold" lengthAdjust="spacing" textLength="45.24" x="287.1" y="64.8439">Domain</text><!--MD5=[9681dc6e01e10c6b4fe06895ae94f592]
cluster UI--><polygon fill="#FFFFFF" filter="url(#ftakrwcdvtx0i)" points="13.92,103.53,31.32,103.53,37.41,124.0702,100.05,124.0702,100.05,227.94,13.92,227.94,13.92,103.53" style="stroke:#000000;stroke-width:1.305;"/><line style="stroke:#000000;stroke-width:1.305;" x1="13.92" x2="37.41" y1="124.0702" y2="124.0702"/><text fill="#000000" font-family="sans-serif" font-size="12.18" font-weight="bold" lengthAdjust="spacing" textLength="12.18" x="17.4" y="117.9139">UI</text><polygon fill="#FFFFFF" filter="url(#ftakrwcdvtx0i)" points="304.5,89.175,348,89.175,354.09,109.7152,360.18,109.7152,360.18,137.2153,304.5,137.2153,304.5,89.175" style="stroke:#000000;stroke-width:1.305;"/><line style="stroke:#000000;stroke-width:1.305;" x1="304.5" x2="354.09" y1="109.7152" y2="109.7152"/><text fill="#000000" font-family="sans-serif" font-size="12.18" font-weight="bold" lengthAdjust="spacing" textLength="38.28" x="307.98" y="103.5589">Model</text><polygon fill="#FFFFFF" filter="url(#ftakrwcdvtx0i)" points="448.92,89.175,494.16,89.175,500.25,109.7152,506.34,109.7152,506.34,137.2153,448.92,137.2153,448.92,89.175" style="stroke:#000000;stroke-width:1.305;"/><line style="stroke:#000000;stroke-width:1.305;" x1="448.92" x2="500.25" y1="109.7152" y2="109.7152"/><text fill="#000000" font-family="sans-serif" font-size="12.18" font-weight="bold" lengthAdjust="spacing" textLength="40.02" x="452.4" y="103.5589">Stores</text><polygon fill="#FFFFFF" filter="url(#ftakrwcdvtx0i)" points="311.025,198.795,341.475,198.795,347.565,219.3352,353.655,219.3352,353.655,246.8353,311.025,246.8353,311.025,198.795" style="stroke:#000000;stroke-width:1.305;"/><line style="stroke:#000000;stroke-width:1.305;" x1="311.025" x2="347.565" y1="219.3352" y2="219.3352"/><text fill="#000000" font-family="sans-serif" font-size="12.18" font-weight="bold" lengthAdjust="spacing" textLength="25.23" x="314.505" y="213.1789">DTO</text><polygon fill="#FFFFFF" filter="url(#ftakrwcdvtx0i)" points="149.64,143.985,223.59,143.985,229.68,164.5252,235.77,164.5252,235.77,192.0253,149.64,192.0253,149.64,143.985" style="stroke:#000000;stroke-width:1.305;"/><line style="stroke:#000000;stroke-width:1.305;" x1="149.64" x2="229.68" y1="164.5252" y2="164.5252"/><text fill="#000000" font-family="sans-serif" font-size="12.18" font-weight="bold" lengthAdjust="spacing" textLength="68.73" x="153.12" y="158.3689">Controllers</text><polygon fill="#FFFFFF" filter="url(#ftakrwcdvtx0i)" points="34.8,142.245,66.99,142.245,73.08,162.7852,79.17,162.7852,79.17,190.2853,34.8,190.2853,34.8,142.245" style="stroke:#000000;stroke-width:1.305;"/><line style="stroke:#000000;stroke-width:1.305;" x1="34.8" x2="73.08" y1="162.7852" y2="162.7852"/><text fill="#000000" font-family="sans-serif" font-size="12.18" font-weight="bold" lengthAdjust="spacing" textLength="26.97" x="38.28" y="156.6289">Utils</text><!--MD5=[050e352373bbcff083fb8deb9ac850c3]
link Controllers to Domain--><path d="M236.0745,167.91 C246.0447,167.91 256.8849,167.91 267.5631,167.91 C272.9021,167.91 278.2007,167.91 283.3298,167.91 " fill="none" id="Controllers-to-Domain" style="stroke:#A80036;stroke-width:0.87;stroke-dasharray:7.0,7.0;"/><polygon fill="#A80036" points="283.3298,167.91,275.4998,164.43,278.9798,167.91,275.4998,171.39,283.3298,167.91" style="stroke:#A80036;stroke-width:0.87;"/><!--MD5=[01b5c43ff5db2b3ab7f36f76b228af8f]
link Controllers to DTO--><path d="M236.0745,184.8054 C259.2687,194.0187 287.1783,205.1112 306.7968,212.9151 " fill="none" id="Controllers-to-DTO" style="stroke:#A80036;stroke-width:0.87;stroke-dasharray:7.0,7.0;"/><polygon fill="#A80036" points="310.851,214.5246,304.8572,208.4014,306.8079,212.9198,302.2895,214.8704,310.851,214.5246" style="stroke:#A80036;stroke-width:0.87;"/><!--MD5=[b67c273f9ea26139499e1bd3b8231806]
link Controllers to Controllers--><path d="M180.6903,143.8719 C177.5496,128.412 181.5603,113.535 192.705,113.535 C202.8057,113.535 207.0426,125.7498 205.4157,139.548 " fill="none" id="Controllers-to-Controllers" style="stroke:#A80036;stroke-width:0.87;stroke-dasharray:7.0,7.0;"/><polygon fill="#A80036" points="204.7197,143.8719,209.4093,136.7006,205.4167,139.5781,202.5392,135.5855,204.7197,143.8719" style="stroke:#A80036;stroke-width:0.87;"/><!--MD5=[bb4acd81d18e7ee3505d81d4ee75e8fc]
link UI to Controllers--><path d="M100.2167,209.2537 C101.7749,208.7482 103.3318,208.2321 104.8787,207.7066 C107.9724,206.6556 111.0261,205.5669 113.97,204.45 C124.323,200.5263 135.2154,195.8022 145.4553,191.0781 " fill="none" id="UI-to-Controllers" style="stroke:#A80036;stroke-width:0.87;stroke-dasharray:7.0,7.0;"/><polygon fill="#A80036" points="149.5008,189.2076,140.9334,189.3445,145.5545,191.0376,143.8614,195.6587,149.5008,189.2076" style="stroke:#A80036;stroke-width:0.87;"/><!--MD5=[9ea89be3b33715d555650644e5bd9dde]
link UI to DTO--><path d="M100.6112,221.2542 C100.9339,221.2562 101.258,221.2583 101.5835,221.2604 C102.2343,221.2645 102.8906,221.2687 103.552,221.2729 C108.8435,221.3067 114.4684,221.3425 120.357,221.3801 C132.1341,221.4551 144.9659,221.5368 158.2943,221.6216 C211.6079,221.9609 272.8668,222.3503 306.3531,222.5634 " fill="none" id="UI-to-DTO" style="stroke:#A80036;stroke-width:0.87;stroke-dasharray:7.0,7.0;"/><polygon fill="#A80036" points="310.9815,222.5895,303.1715,219.0648,306.6316,222.5646,303.1317,226.0247,310.9815,222.5895" style="stroke:#A80036;stroke-width:0.87;"/><!--MD5=[8db2d36dfcc6aadb263e2609429d2d71]
link Model to Stores--><path d="M360.2148,113.1 C385.5492,113.1 423.2898,113.1 448.9026,113.1 " fill="none" id="Model-Stores" style="stroke:#A80036;stroke-width:0.87;"/><text fill="#000000" font-family="sans-serif" font-size="11.31" lengthAdjust="spacing" textLength="34.8" x="387.15" y="110.0508">uses &gt;</text><!--MD5=[3602bcf0ca1d8cfba5cac998e9458664]
@startuml
hide empty methods
hide empty attributes
left to right direction
skinparam classAttributeIconSize 0

package Core {

package Domain {

package Model {

}

package Stores {


}

}

package DTO {

}

package Controllers {


}

}

package UI {
package Utils {

}


}

Controllers ..> Domain
Controllers ..> DTO
Controllers ..> Controllers
UI ..> Controllers
UI ..> DTO
Model - - Stores : uses >


@enduml

PlantUML version 1.2021.00(Sun Jan 10 10:25:05 GMT 2021)
(GPL source distribution)
Java Runtime: OpenJDK Runtime Environment
JVM: OpenJDK 64-Bit Server VM
Default Encoding: Cp1252
Language: pt
Country: BR
--></g></svg>