<?xml version="1.0" encoding="UTF-8" standalone="no"?><svg xmlns="http://www.w3.org/2000/svg" xmlns:xlink="http://www.w3.org/1999/xlink" contentScriptType="application/ecmascript" contentStyleType="text/css" height="408.25px" preserveAspectRatio="none" style="width:839px;height:408px;" version="1.1" viewBox="0 0 839 408" width="839.5px" zoomAndPan="magnify"><defs><filter height="300%" id="fyvynb4b5giyd" width="300%" x="-1" y="-1"><feGaussianBlur result="blurOut" stdDeviation="0.5"/><feColorMatrix in="blurOut" result="blurOut2" type="matrix" values="0 0 0 0 0 0 0 0 0 0 0 0 0 0 0 0 0 0 .4 0"/><feOffset dx="1.0" dy="1.0" in="blurOut2" result="blurOut3"/><feBlend in="SourceGraphic" in2="blurOut3" mode="normal"/></filter></defs><g><!--MD5=[2c2e2644034c00788261e03c85b06837]
cluster Core--><polygon fill="#FFFFFF" filter="url(#fyvynb4b5giyd)" points="4,59.25,14,59.25,15.75,65.1523,835.25,65.1523,835.25,406.5,4,406.5,4,59.25" style="stroke:#000000;stroke-width:0.375;"/><line style="stroke:#000000;stroke-width:0.375;" x1="4" x2="15.75" y1="65.1523" y2="65.1523"/><text fill="#000000" font-family="sans-serif" font-size="3.5" font-weight="bold" lengthAdjust="spacing" textLength="8.5" x="5" y="63.3833">Core</text><!--MD5=[121a8bf1197281ab89ed693fab589f94]
cluster Domain--><polygon fill="#FFFFFF" filter="url(#fyvynb4b5giyd)" points="132.75,115.5,147.25,115.5,149,121.4023,715.75,121.4023,715.75,400.5,132.75,400.5,132.75,115.5" style="stroke:#000000;stroke-width:0.375;"/><line style="stroke:#000000;stroke-width:0.375;" x1="132.75" x2="149" y1="121.4023" y2="121.4023"/><text fill="#000000" font-family="sans-serif" font-size="3.5" font-weight="bold" lengthAdjust="spacing" textLength="13" x="133.75" y="119.6333">Domain</text><!--MD5=[aedc30b8666742a3000193d7e0a0b93e]
cluster Adapters--><polygon fill="#FFFFFF" filter="url(#fyvynb4b5giyd)" points="636.5,200.625,653.75,200.625,655.5,206.5273,707.75,206.5273,707.75,234.625,636.5,234.625,636.5,200.625" style="stroke:#000000;stroke-width:0.375;"/><line style="stroke:#000000;stroke-width:0.375;" x1="636.5" x2="655.5" y1="206.5273" y2="206.5273"/><text fill="#000000" font-family="sans-serif" font-size="3.5" font-weight="bold" lengthAdjust="spacing" textLength="15.75" x="637.5" y="204.7583">Adapters</text><!--MD5=[0b89f7d34c26fffbb81ea7301eb9df33]
cluster Interfaces--><polygon fill="#FFFFFF" filter="url(#fyvynb4b5giyd)" points="636.5,137.875,655.75,137.875,657.5,143.7773,707.75,143.7773,707.75,173.875,636.5,173.875,636.5,137.875" style="stroke:#000000;stroke-width:0.375;"/><line style="stroke:#000000;stroke-width:0.375;" x1="636.5" x2="657.5" y1="143.7773" y2="143.7773"/><text fill="#000000" font-family="sans-serif" font-size="3.5" font-weight="bold" lengthAdjust="spacing" textLength="17.75" x="637.5" y="142.0083">Interfaces</text><!--MD5=[15636c1ca4a123c16a2a1a8e90aca7a9]
cluster Model--><polygon fill="#FFFFFF" filter="url(#fyvynb4b5giyd)" points="360.25,132.75,372.75,132.75,374.5,138.6523,565.75,138.6523,565.75,392.5,360.25,392.5,360.25,132.75" style="stroke:#000000;stroke-width:0.375;"/><line style="stroke:#000000;stroke-width:0.375;" x1="360.25" x2="374.5" y1="138.6523" y2="138.6523"/><text fill="#000000" font-family="sans-serif" font-size="3.5" font-weight="bold" lengthAdjust="spacing" textLength="11" x="361.25" y="136.8833">Model</text><!--MD5=[8dd535d56cd4cf7faf64fdd082ba836e]
cluster Stores--><polygon fill="#FFFFFF" filter="url(#fyvynb4b5giyd)" points="140.75,200.625,153.75,200.625,155.5,206.5273,350.25,206.5273,350.25,305.375,140.75,305.375,140.75,200.625" style="stroke:#000000;stroke-width:0.375;"/><line style="stroke:#000000;stroke-width:0.375;" x1="140.75" x2="155.5" y1="206.5273" y2="206.5273"/><text fill="#000000" font-family="sans-serif" font-size="3.5" font-weight="bold" lengthAdjust="spacing" textLength="11.5" x="141.75" y="204.7583">Stores</text><!--MD5=[7b8bc9ee8bb84b99fb3a3f9477c19238]
cluster DTO--><polygon fill="#FFFFFF" filter="url(#fyvynb4b5giyd)" points="575.75,128.5,584.5,128.5,586.25,134.4023,626.5,134.4023,626.5,183.25,575.75,183.25,575.75,128.5" style="stroke:#000000;stroke-width:0.375;"/><line style="stroke:#000000;stroke-width:0.375;" x1="575.75" x2="586.25" y1="134.4023" y2="134.4023"/><text fill="#000000" font-family="sans-serif" font-size="3.5" font-weight="bold" lengthAdjust="spacing" textLength="7.25" x="576.75" y="132.6333">DTO</text><!--MD5=[ed1d20ea533a2a0e7df5ba3c35e56ced]
cluster Controllers--><polygon fill="#FFFFFF" filter="url(#fyvynb4b5giyd)" points="12,72.25,33.25,72.25,35,78.1523,124.75,78.1523,124.75,172.875,12,172.875,12,72.25" style="stroke:#000000;stroke-width:0.375;"/><line style="stroke:#000000;stroke-width:0.375;" x1="12" x2="35" y1="78.1523" y2="78.1523"/><text fill="#000000" font-family="sans-serif" font-size="3.5" font-weight="bold" lengthAdjust="spacing" textLength="19.75" x="13" y="76.3833">Controllers</text><!--MD5=[c29634d7cdbe8f1c1e88f2fe66ae73ec]
cluster ThirdParty--><polygon fill="#FFFFFF" filter="url(#fyvynb4b5giyd)" points="721.75,255,741,255,742.75,260.9023,829.25,260.9023,829.25,310,721.75,310,721.75,255" style="stroke:#000000;stroke-width:0.375;"/><line style="stroke:#000000;stroke-width:0.375;" x1="721.75" x2="742.75" y1="260.9023" y2="260.9023"/><text fill="#000000" font-family="sans-serif" font-size="3.5" font-weight="bold" lengthAdjust="spacing" textLength="17.75" x="722.75" y="259.1333">ThirdParty</text><!--MD5=[0d079ae59d318396171bf167e6cb96b6]
cluster APIs--><polygon fill="#FFFFFF" filter="url(#fyvynb4b5giyd)" points="752,268,761,268,762.75,273.9023,821.25,273.9023,821.25,302,752,302,752,268" style="stroke:#000000;stroke-width:0.375;"/><line style="stroke:#000000;stroke-width:0.375;" x1="752" x2="762.75" y1="273.9023" y2="273.9023"/><text fill="#000000" font-family="sans-serif" font-size="3.5" font-weight="bold" lengthAdjust="spacing" textLength="7.5" x="753" y="272.1333">APIs</text><!--MD5=[9681dc6e01e10c6b4fe06895ae94f592]
cluster UI--><polygon fill="#FFFFFF" filter="url(#fyvynb4b5giyd)" points="292.75,1.5,297.75,1.5,299.5,7.4023,395.75,7.4023,395.75,49,292.75,49,292.75,1.5" style="stroke:#000000;stroke-width:0.375;"/><line style="stroke:#000000;stroke-width:0.375;" x1="292.75" x2="299.5" y1="7.4023" y2="7.4023"/><text fill="#000000" font-family="sans-serif" font-size="3.5" font-weight="bold" lengthAdjust="spacing" textLength="3.5" x="293.75" y="5.6333">UI</text><!--MD5=[7e40339c58605559321960399585b560]
cluster Utils--><polygon fill="#FFFFFF" filter="url(#fyvynb4b5giyd)" points="342.75,14.5,352,14.5,353.75,20.4023,387.75,20.4023,387.75,41,342.75,41,342.75,14.5" style="stroke:#000000;stroke-width:0.375;"/><line style="stroke:#000000;stroke-width:0.375;" x1="342.75" x2="353.75" y1="20.4023" y2="20.4023"/><text fill="#000000" font-family="sans-serif" font-size="3.5" font-weight="bold" lengthAdjust="spacing" textLength="7.75" x="343.75" y="18.6333">Utils</text><!--MD5=[b27c5c9af3cea12247b1c4c8d3c78770]
cluster GUI--><polygon fill="#FFFFFF" filter="url(#fyvynb4b5giyd)" points="302.75,17.25,310.5,17.25,312.25,23.1523,336.75,23.1523,336.75,38.25,302.75,38.25,302.75,17.25" style="stroke:#000000;stroke-width:0.375;"/><line style="stroke:#000000;stroke-width:0.375;" x1="302.75" x2="312.25" y1="23.1523" y2="23.1523"/><text fill="#000000" font-family="sans-serif" font-size="3.5" font-weight="bold" lengthAdjust="spacing" textLength="6.25" x="303.75" y="21.3833">GUI</text><!--MD5=[c70c4704571ee56cdf67e6a294ab2c60]
class BarbecueAdapter--><rect codeLine="11" fill="#FEFECE" filter="url(#fyvynb4b5giyd)" height="16.918" id="BarbecueAdapter" style="stroke:#A80036;stroke-width:0.375;" width="54.25" x="647.375" y="211.625"/><ellipse cx="661.5625" cy="215.625" fill="#ADD1B2" rx="2.75" ry="2.75" style="stroke:#A80036;stroke-width:0.25;"/><path d="M662.0625,214.75 Q662.1133,214.625 662.1719,214.5625 Q662.2305,214.5 662.2969,214.5 Q662.4141,214.5 662.4883,214.5703 Q662.5625,214.6406 662.5625,214.8047 L662.5625,215.1953 Q662.5625,215.3594 662.4922,215.4297 Q662.4219,215.5 662.3125,215.5 Q662.2148,215.5 662.1523,215.457 Q662.0898,215.4141 662.0625,215.3008 Q662.0508,215.2227 662.0078,215.1797 Q661.9297,215.0977 661.7891,215.0508 Q661.6484,215 661.5078,215 Q661.332,215 661.1836,215.0703 Q661.0391,215.1406 660.9258,215.2969 Q660.8125,215.4531 660.8125,215.668 L660.8125,215.8984 Q660.8125,216.1563 661.0234,216.3281 Q661.2344,216.5 661.6094,216.5 Q661.832,216.5 661.9883,216.4492 Q662.0781,216.4219 662.1797,216.332 Q662.2461,216.2813 662.2813,216.2656 Q662.3164,216.25 662.3594,216.25 Q662.4414,216.25 662.5,216.3164 Q662.5625,216.3789 662.5625,216.4688 Q662.5625,216.5547 662.4766,216.6563 Q662.3516,216.8047 662.1523,216.8867 Q661.8906,217 661.5703,217 Q661.1953,217 660.8945,216.8516 Q660.6523,216.7344 660.4805,216.4805 Q660.3125,216.2266 660.3125,215.9258 L660.3125,215.6523 Q660.3125,215.3398 660.4609,215.0664 Q660.6133,214.793 660.875,214.6484 Q661.1406,214.5 661.4375,214.5 Q661.6172,214.5 661.7734,214.5625 Q661.9297,214.625 662.0625,214.75 Z " fill="#000000"/><text fill="#000000" font-family="sans-serif" font-size="3" lengthAdjust="spacing" textLength="23.75" x="666.6875" y="216.8525">BarbecueAdapter</text><line style="stroke:#A80036;stroke-width:0.375;" x1="647.625" x2="701.375" y1="219.625" y2="219.625"/><text fill="#000000" font-family="sans-serif" font-size="2.75" lengthAdjust="spacing" textLength="51.25" x="648.875" y="223.4797">+MyBarcode getBarcode(barcodeNumber)</text><text fill="#000000" font-family="sans-serif" font-size="2.75" lengthAdjust="spacing" textLength="48" x="648.875" y="226.9387">+saveImageBarcode(myBarcode, code)</text><!--MD5=[2c3d06ea16abba5fb0e6626b718769d1]
class ExternalAPI--><rect codeLine="18" fill="#FEFECE" filter="url(#fyvynb4b5giyd)" height="18.9648" id="ExternalAPI" style="stroke:#A80036;stroke-width:0.375;" width="54.25" x="647.375" y="148.875"/><ellipse cx="665.3125" cy="153.8984" fill="#B4A7E5" rx="2.75" ry="2.75" style="stroke:#A80036;stroke-width:0.25;"/><path d="M665.5625,153.1484 L665.5625,154.6484 L666.0625,154.6484 L666.1836,154.6484 L666.3125,154.8047 L666.3125,154.8984 L666.3125,154.9922 L666.1836,155.1484 L666.0625,155.1484 L664.5625,155.1484 L664.4414,155.1484 L664.3125,154.9922 L664.3125,154.8984 L664.3125,154.8047 L664.4414,154.6484 L664.5625,154.6484 L665.0625,154.6484 L665.0625,153.1484 L664.5625,153.1484 L664.4414,153.1484 L664.3125,152.9922 L664.3125,152.8984 L664.3125,152.8047 L664.4414,152.6484 L664.5625,152.6484 L666.0625,152.6484 L666.1836,152.6484 L666.3125,152.8047 L666.3125,152.8984 L666.3125,152.9922 L666.1836,153.1484 L666.0625,153.1484 L665.5625,153.1484 Z " fill="#000000"/><text fill="#000000" font-family="sans-serif" font-size="3" font-style="italic" lengthAdjust="spacing" textLength="15.25" x="670.9375" y="153.2393">«interface»</text><text fill="#000000" font-family="sans-serif" font-size="3" font-style="italic" lengthAdjust="spacing" textLength="16.25" x="670.4375" y="157.0127">ExternalAPI</text><line style="stroke:#A80036;stroke-width:0.375;" x1="647.625" x2="701.375" y1="158.9219" y2="158.9219"/><text fill="#000000" font-family="sans-serif" font-size="2.75" lengthAdjust="spacing" textLength="51.25" x="648.875" y="162.7766">+MyBarcode getBarcode(barcodeNumber)</text><text fill="#000000" font-family="sans-serif" font-size="2.75" lengthAdjust="spacing" textLength="48" x="648.875" y="166.2356">+saveImageBarcode(myBarcode, code)</text><!--MD5=[1934a092c0e7d4da7dc7075b6f4b6b03]
class ClinicalAnalysisLaboratory--><rect codeLine="25" fill="#FEFECE" filter="url(#fyvynb4b5giyd)" height="13.459" id="ClinicalAnalysisLaboratory" style="stroke:#A80036;stroke-width:0.375;" width="44.25" x="390.125" y="280.75"/><ellipse cx="393.875" cy="284.75" fill="#ADD1B2" rx="2.75" ry="2.75" style="stroke:#A80036;stroke-width:0.25;"/><path d="M394.375,283.875 Q394.4258,283.75 394.4844,283.6875 Q394.543,283.625 394.6094,283.625 Q394.7266,283.625 394.8008,283.6953 Q394.875,283.7656 394.875,283.9297 L394.875,284.3203 Q394.875,284.4844 394.8047,284.5547 Q394.7344,284.625 394.625,284.625 Q394.5273,284.625 394.4648,284.582 Q394.4023,284.5391 394.375,284.4258 Q394.3633,284.3477 394.3203,284.3047 Q394.2422,284.2227 394.1016,284.1758 Q393.9609,284.125 393.8203,284.125 Q393.6445,284.125 393.4961,284.1953 Q393.3516,284.2656 393.2383,284.4219 Q393.125,284.5781 393.125,284.793 L393.125,285.0234 Q393.125,285.2813 393.3359,285.4531 Q393.5469,285.625 393.9219,285.625 Q394.1445,285.625 394.3008,285.5742 Q394.3906,285.5469 394.4922,285.457 Q394.5586,285.4063 394.5938,285.3906 Q394.6289,285.375 394.6719,285.375 Q394.7539,285.375 394.8125,285.4414 Q394.875,285.5039 394.875,285.5938 Q394.875,285.6797 394.7891,285.7813 Q394.6641,285.9297 394.4648,286.0117 Q394.2031,286.125 393.8828,286.125 Q393.5078,286.125 393.207,285.9766 Q392.9648,285.8594 392.793,285.6055 Q392.625,285.3516 392.625,285.0508 L392.625,284.7773 Q392.625,284.4648 392.7734,284.1914 Q392.9258,283.918 393.1875,283.7734 Q393.4531,283.625 393.75,283.625 Q393.9297,283.625 394.0859,283.6875 Q394.2422,283.75 394.375,283.875 Z " fill="#000000"/><text fill="#000000" font-family="sans-serif" font-size="3" lengthAdjust="spacing" textLength="36.25" x="397.375" y="285.9775">ClinicalAnalysisLaboratory</text><line style="stroke:#A80036;stroke-width:0.375;" x1="390.375" x2="434.125" y1="288.75" y2="288.75"/><text fill="#000000" font-family="sans-serif" font-size="2.75" lengthAdjust="spacing" textLength="15.5" x="391.625" y="292.6047">-laboratoryID</text><!--MD5=[df38be88ccee13e832d6fafd6288a4ca]
class Test--><rect codeLine="29" fill="#FEFECE" filter="url(#fyvynb4b5giyd)" height="30.7539" id="Test" style="stroke:#A80036;stroke-width:0.375;" width="34" x="459.25" y="272.125"/><ellipse cx="472.1875" cy="276.125" fill="#ADD1B2" rx="2.75" ry="2.75" style="stroke:#A80036;stroke-width:0.25;"/><path d="M472.6875,275.25 Q472.7383,275.125 472.7969,275.0625 Q472.8555,275 472.9219,275 Q473.0391,275 473.1133,275.0703 Q473.1875,275.1406 473.1875,275.3047 L473.1875,275.6953 Q473.1875,275.8594 473.1172,275.9297 Q473.0469,276 472.9375,276 Q472.8398,276 472.7773,275.957 Q472.7148,275.9141 472.6875,275.8008 Q472.6758,275.7227 472.6328,275.6797 Q472.5547,275.5977 472.4141,275.5508 Q472.2734,275.5 472.1328,275.5 Q471.957,275.5 471.8086,275.5703 Q471.6641,275.6406 471.5508,275.7969 Q471.4375,275.9531 471.4375,276.168 L471.4375,276.3984 Q471.4375,276.6563 471.6484,276.8281 Q471.8594,277 472.2344,277 Q472.457,277 472.6133,276.9492 Q472.7031,276.9219 472.8047,276.832 Q472.8711,276.7813 472.9063,276.7656 Q472.9414,276.75 472.9844,276.75 Q473.0664,276.75 473.125,276.8164 Q473.1875,276.8789 473.1875,276.9688 Q473.1875,277.0547 473.1016,277.1563 Q472.9766,277.3047 472.7773,277.3867 Q472.5156,277.5 472.1953,277.5 Q471.8203,277.5 471.5195,277.3516 Q471.2773,277.2344 471.1055,276.9805 Q470.9375,276.7266 470.9375,276.4258 L470.9375,276.1523 Q470.9375,275.8398 471.0859,275.5664 Q471.2383,275.293 471.5,275.1484 Q471.7656,275 472.0625,275 Q472.2422,275 472.3984,275.0625 Q472.5547,275.125 472.6875,275.25 Z " fill="#000000"/><text fill="#000000" font-family="sans-serif" font-size="3" lengthAdjust="spacing" textLength="6" x="477.3125" y="277.3525">Test</text><line style="stroke:#A80036;stroke-width:0.375;" x1="459.5" x2="493" y1="280.125" y2="280.125"/><text fill="#000000" font-family="sans-serif" font-size="2.75" lengthAdjust="spacing" textLength="7" x="460.75" y="283.9797">-code</text><text fill="#000000" font-family="sans-serif" font-size="2.75" lengthAdjust="spacing" textLength="12" x="460.75" y="287.4387">-NhsCode</text><text fill="#000000" font-family="sans-serif" font-size="2.75" lengthAdjust="spacing" textLength="28.75" x="460.75" y="290.8977">-dateOfTestRegistration</text><text fill="#000000" font-family="sans-serif" font-size="2.75" lengthAdjust="spacing" textLength="31" x="460.75" y="294.3567">-dateOfSamplesCollection</text><text fill="#000000" font-family="sans-serif" font-size="2.75" lengthAdjust="spacing" textLength="30.5" x="460.75" y="297.8157">-dateOfChemicalAnalysis</text><text fill="#000000" font-family="sans-serif" font-size="2.75" lengthAdjust="spacing" textLength="21" x="460.75" y="301.2747">-dateOfDiagnosis</text><!--MD5=[02e4b9b7573f1156f41e60aa5b4e25a4]
class Company--><rect codeLine="38" fill="#FEFECE" filter="url(#fyvynb4b5giyd)" height="29.2949" id="Company" style="stroke:#A80036;stroke-width:0.375;" width="29" x="453" y="143.75"/><ellipse cx="460.2375" cy="147.75" fill="#ADD1B2" rx="2.75" ry="2.75" style="stroke:#A80036;stroke-width:0.25;"/><path d="M460.7375,146.875 Q460.7883,146.75 460.8469,146.6875 Q460.9055,146.625 460.9719,146.625 Q461.0891,146.625 461.1633,146.6953 Q461.2375,146.7656 461.2375,146.9297 L461.2375,147.3203 Q461.2375,147.4844 461.1672,147.5547 Q461.0969,147.625 460.9875,147.625 Q460.8898,147.625 460.8273,147.582 Q460.7648,147.5391 460.7375,147.4258 Q460.7258,147.3477 460.6828,147.3047 Q460.6047,147.2227 460.4641,147.1758 Q460.3234,147.125 460.1828,147.125 Q460.007,147.125 459.8586,147.1953 Q459.7141,147.2656 459.6008,147.4219 Q459.4875,147.5781 459.4875,147.793 L459.4875,148.0234 Q459.4875,148.2813 459.6984,148.4531 Q459.9094,148.625 460.2844,148.625 Q460.507,148.625 460.6633,148.5742 Q460.7531,148.5469 460.8547,148.457 Q460.9211,148.4063 460.9563,148.3906 Q460.9914,148.375 461.0344,148.375 Q461.1164,148.375 461.175,148.4414 Q461.2375,148.5039 461.2375,148.5938 Q461.2375,148.6797 461.1516,148.7813 Q461.0266,148.9297 460.8273,149.0117 Q460.5656,149.125 460.2453,149.125 Q459.8703,149.125 459.5695,148.9766 Q459.3273,148.8594 459.1555,148.6055 Q458.9875,148.3516 458.9875,148.0508 L458.9875,147.7773 Q458.9875,147.4648 459.1359,147.1914 Q459.2883,146.918 459.55,146.7734 Q459.8156,146.625 460.1125,146.625 Q460.2922,146.625 460.4484,146.6875 Q460.6047,146.75 460.7375,146.875 Z " fill="#000000"/><text fill="#000000" font-family="sans-serif" font-size="3" lengthAdjust="spacing" textLength="13.25" x="464.5125" y="148.9775">Company</text><line style="stroke:#A80036;stroke-width:0.375;" x1="453.25" x2="481.75" y1="151.75" y2="151.75"/><text fill="#000000" font-family="sans-serif" font-size="2.75" lengthAdjust="spacing" textLength="24" x="454.5" y="155.6047">-designation : String</text><line style="stroke:#A80036;stroke-width:0.375;" x1="453.25" x2="481.75" y1="157.209" y2="157.209"/><text fill="#000000" font-family="sans-serif" font-size="2.75" lengthAdjust="spacing" textLength="25" x="454.5" y="161.0637">+getTestTypeStore()</text><text fill="#000000" font-family="sans-serif" font-size="2.75" lengthAdjust="spacing" textLength="26" x="454.5" y="164.5227">+getParameterStore()</text><text fill="#000000" font-family="sans-serif" font-size="2.75" lengthAdjust="spacing" textLength="19" x="454.5" y="167.9817">+getTestStore()</text><text fill="#000000" font-family="sans-serif" font-size="2.75" lengthAdjust="spacing" textLength="17.5" x="454.5" y="171.4407">+getCalStore()</text><!--MD5=[aeb3272166074d8737a70b61b1e71682]
class TestType--><rect codeLine="45" fill="#FEFECE" filter="url(#fyvynb4b5giyd)" height="20.377" id="TestType" style="stroke:#A80036;stroke-width:0.375;" width="33.25" x="368.375" y="326"/><ellipse cx="377.8625" cy="330" fill="#ADD1B2" rx="2.75" ry="2.75" style="stroke:#A80036;stroke-width:0.25;"/><path d="M378.3625,329.125 Q378.4133,329 378.4719,328.9375 Q378.5305,328.875 378.5969,328.875 Q378.7141,328.875 378.7883,328.9453 Q378.8625,329.0156 378.8625,329.1797 L378.8625,329.5703 Q378.8625,329.7344 378.7922,329.8047 Q378.7219,329.875 378.6125,329.875 Q378.5148,329.875 378.4523,329.832 Q378.3898,329.7891 378.3625,329.6758 Q378.3508,329.5977 378.3078,329.5547 Q378.2297,329.4727 378.0891,329.4258 Q377.9484,329.375 377.8078,329.375 Q377.632,329.375 377.4836,329.4453 Q377.3391,329.5156 377.2258,329.6719 Q377.1125,329.8281 377.1125,330.043 L377.1125,330.2734 Q377.1125,330.5313 377.3234,330.7031 Q377.5344,330.875 377.9094,330.875 Q378.132,330.875 378.2883,330.8242 Q378.3781,330.7969 378.4797,330.707 Q378.5461,330.6563 378.5813,330.6406 Q378.6164,330.625 378.6594,330.625 Q378.7414,330.625 378.8,330.6914 Q378.8625,330.7539 378.8625,330.8438 Q378.8625,330.9297 378.7766,331.0313 Q378.6516,331.1797 378.4523,331.2617 Q378.1906,331.375 377.8703,331.375 Q377.4953,331.375 377.1945,331.2266 Q376.9523,331.1094 376.7805,330.8555 Q376.6125,330.6016 376.6125,330.3008 L376.6125,330.0273 Q376.6125,329.7148 376.7609,329.4414 Q376.9133,329.168 377.175,329.0234 Q377.4406,328.875 377.7375,328.875 Q377.9172,328.875 378.0734,328.9375 Q378.2297,329 378.3625,329.125 Z " fill="#000000"/><text fill="#000000" font-family="sans-serif" font-size="3" lengthAdjust="spacing" textLength="12.5" x="382.6375" y="331.2275">TestType</text><line style="stroke:#A80036;stroke-width:0.375;" x1="368.625" x2="401.375" y1="334" y2="334"/><text fill="#000000" font-family="sans-serif" font-size="2.75" lengthAdjust="spacing" textLength="16.25" x="369.875" y="337.8547">-code : String</text><text fill="#000000" font-family="sans-serif" font-size="2.75" lengthAdjust="spacing" textLength="23.5" x="369.875" y="341.3137">-description : String</text><text fill="#000000" font-family="sans-serif" font-size="2.75" lengthAdjust="spacing" textLength="30.25" x="369.875" y="344.7727">-collectingMethod : String</text><!--MD5=[9681492165142af2a4a3a169d90ee8d4]
class Sample--><rect codeLine="51" fill="#FEFECE" filter="url(#fyvynb4b5giyd)" height="13.459" id="Sample" style="stroke:#A80036;stroke-width:0.375;" width="18.75" x="531.625" y="329.5"/><ellipse cx="535.375" cy="333.5" fill="#ADD1B2" rx="2.75" ry="2.75" style="stroke:#A80036;stroke-width:0.25;"/><path d="M535.875,332.625 Q535.9258,332.5 535.9844,332.4375 Q536.043,332.375 536.1094,332.375 Q536.2266,332.375 536.3008,332.4453 Q536.375,332.5156 536.375,332.6797 L536.375,333.0703 Q536.375,333.2344 536.3047,333.3047 Q536.2344,333.375 536.125,333.375 Q536.0273,333.375 535.9648,333.332 Q535.9023,333.2891 535.875,333.1758 Q535.8633,333.0977 535.8203,333.0547 Q535.7422,332.9727 535.6016,332.9258 Q535.4609,332.875 535.3203,332.875 Q535.1445,332.875 534.9961,332.9453 Q534.8516,333.0156 534.7383,333.1719 Q534.625,333.3281 534.625,333.543 L534.625,333.7734 Q534.625,334.0313 534.8359,334.2031 Q535.0469,334.375 535.4219,334.375 Q535.6445,334.375 535.8008,334.3242 Q535.8906,334.2969 535.9922,334.207 Q536.0586,334.1563 536.0938,334.1406 Q536.1289,334.125 536.1719,334.125 Q536.2539,334.125 536.3125,334.1914 Q536.375,334.2539 536.375,334.3438 Q536.375,334.4297 536.2891,334.5313 Q536.1641,334.6797 535.9648,334.7617 Q535.7031,334.875 535.3828,334.875 Q535.0078,334.875 534.707,334.7266 Q534.4648,334.6094 534.293,334.3555 Q534.125,334.1016 534.125,333.8008 L534.125,333.5273 Q534.125,333.2148 534.2734,332.9414 Q534.4258,332.668 534.6875,332.5234 Q534.9531,332.375 535.25,332.375 Q535.4297,332.375 535.5859,332.4375 Q535.7422,332.5 535.875,332.625 Z " fill="#000000"/><text fill="#000000" font-family="sans-serif" font-size="3" lengthAdjust="spacing" textLength="10.75" x="538.875" y="334.7275">Sample</text><line style="stroke:#A80036;stroke-width:0.375;" x1="531.875" x2="550.125" y1="337.5" y2="337.5"/><text fill="#000000" font-family="sans-serif" font-size="2.75" lengthAdjust="spacing" textLength="14.75" x="533.125" y="341.3547">-myBarcode</text><!--MD5=[1f6362a5c8f21d8d6a0fce68f3a92a4e]
class Parameter--><rect codeLine="55" fill="#FEFECE" filter="url(#fyvynb4b5giyd)" height="20.377" id="Parameter" style="stroke:#A80036;stroke-width:0.375;" width="22.5" x="424.25" y="366"/><ellipse cx="428" cy="370" fill="#ADD1B2" rx="2.75" ry="2.75" style="stroke:#A80036;stroke-width:0.25;"/><path d="M428.5,369.125 Q428.5508,369 428.6094,368.9375 Q428.668,368.875 428.7344,368.875 Q428.8516,368.875 428.9258,368.9453 Q429,369.0156 429,369.1797 L429,369.5703 Q429,369.7344 428.9297,369.8047 Q428.8594,369.875 428.75,369.875 Q428.6523,369.875 428.5898,369.832 Q428.5273,369.7891 428.5,369.6758 Q428.4883,369.5977 428.4453,369.5547 Q428.3672,369.4727 428.2266,369.4258 Q428.0859,369.375 427.9453,369.375 Q427.7695,369.375 427.6211,369.4453 Q427.4766,369.5156 427.3633,369.6719 Q427.25,369.8281 427.25,370.043 L427.25,370.2734 Q427.25,370.5313 427.4609,370.7031 Q427.6719,370.875 428.0469,370.875 Q428.2695,370.875 428.4258,370.8242 Q428.5156,370.7969 428.6172,370.707 Q428.6836,370.6563 428.7188,370.6406 Q428.7539,370.625 428.7969,370.625 Q428.8789,370.625 428.9375,370.6914 Q429,370.7539 429,370.8438 Q429,370.9297 428.9141,371.0313 Q428.7891,371.1797 428.5898,371.2617 Q428.3281,371.375 428.0078,371.375 Q427.6328,371.375 427.332,371.2266 Q427.0898,371.1094 426.918,370.8555 Q426.75,370.6016 426.75,370.3008 L426.75,370.0273 Q426.75,369.7148 426.8984,369.4414 Q427.0508,369.168 427.3125,369.0234 Q427.5781,368.875 427.875,368.875 Q428.0547,368.875 428.2109,368.9375 Q428.3672,369 428.5,369.125 Z " fill="#000000"/><text fill="#000000" font-family="sans-serif" font-size="3" lengthAdjust="spacing" textLength="14.5" x="431.5" y="371.2275">Parameter</text><line style="stroke:#A80036;stroke-width:0.375;" x1="424.5" x2="446.5" y1="374" y2="374"/><text fill="#000000" font-family="sans-serif" font-size="2.75" lengthAdjust="spacing" textLength="7" x="425.75" y="377.8547">-code</text><text fill="#000000" font-family="sans-serif" font-size="2.75" lengthAdjust="spacing" textLength="14" x="425.75" y="381.3137">-shortName</text><text fill="#000000" font-family="sans-serif" font-size="2.75" lengthAdjust="spacing" textLength="14.25" x="425.75" y="384.7727">-description</text><!--MD5=[0f07739f46effee96e095e9c408da841]
class TestParameter--><rect codeLine="60" fill="#FEFECE" filter="url(#fyvynb4b5giyd)" height="13.459" id="TestParameter" style="stroke:#A80036;stroke-width:0.375;" width="50" x="410.5" y="329.5"/><ellipse cx="424.1875" cy="333.5" fill="#ADD1B2" rx="2.75" ry="2.75" style="stroke:#A80036;stroke-width:0.25;"/><path d="M424.6875,332.625 Q424.7383,332.5 424.7969,332.4375 Q424.8555,332.375 424.9219,332.375 Q425.0391,332.375 425.1133,332.4453 Q425.1875,332.5156 425.1875,332.6797 L425.1875,333.0703 Q425.1875,333.2344 425.1172,333.3047 Q425.0469,333.375 424.9375,333.375 Q424.8398,333.375 424.7773,333.332 Q424.7148,333.2891 424.6875,333.1758 Q424.6758,333.0977 424.6328,333.0547 Q424.5547,332.9727 424.4141,332.9258 Q424.2734,332.875 424.1328,332.875 Q423.957,332.875 423.8086,332.9453 Q423.6641,333.0156 423.5508,333.1719 Q423.4375,333.3281 423.4375,333.543 L423.4375,333.7734 Q423.4375,334.0313 423.6484,334.2031 Q423.8594,334.375 424.2344,334.375 Q424.457,334.375 424.6133,334.3242 Q424.7031,334.2969 424.8047,334.207 Q424.8711,334.1563 424.9063,334.1406 Q424.9414,334.125 424.9844,334.125 Q425.0664,334.125 425.125,334.1914 Q425.1875,334.2539 425.1875,334.3438 Q425.1875,334.4297 425.1016,334.5313 Q424.9766,334.6797 424.7773,334.7617 Q424.5156,334.875 424.1953,334.875 Q423.8203,334.875 423.5195,334.7266 Q423.2773,334.6094 423.1055,334.3555 Q422.9375,334.1016 422.9375,333.8008 L422.9375,333.5273 Q422.9375,333.2148 423.0859,332.9414 Q423.2383,332.668 423.5,332.5234 Q423.7656,332.375 424.0625,332.375 Q424.2422,332.375 424.3984,332.4375 Q424.5547,332.5 424.6875,332.625 Z " fill="#000000"/><text fill="#000000" font-family="sans-serif" font-size="3" lengthAdjust="spacing" textLength="20.5" x="429.3125" y="334.7275">TestParameter</text><line style="stroke:#A80036;stroke-width:0.375;" x1="410.75" x2="460.25" y1="337.5" y2="337.5"/><text fill="#000000" font-family="sans-serif" font-size="2.75" lengthAdjust="spacing" textLength="47" x="412" y="341.3547">+TestParameter(parameter: Parameter)</text><!--MD5=[4e608140b854dae633589343bce77383]
class TestParameterResult--><rect codeLine="63" fill="#FEFECE" filter="url(#fyvynb4b5giyd)" height="20.377" id="TestParameterResult" style="stroke:#A80036;stroke-width:0.375;" width="37.5" x="485.25" y="326"/><ellipse cx="489" cy="330" fill="#ADD1B2" rx="2.75" ry="2.75" style="stroke:#A80036;stroke-width:0.25;"/><path d="M489.5,329.125 Q489.5508,329 489.6094,328.9375 Q489.668,328.875 489.7344,328.875 Q489.8516,328.875 489.9258,328.9453 Q490,329.0156 490,329.1797 L490,329.5703 Q490,329.7344 489.9297,329.8047 Q489.8594,329.875 489.75,329.875 Q489.6523,329.875 489.5898,329.832 Q489.5273,329.7891 489.5,329.6758 Q489.4883,329.5977 489.4453,329.5547 Q489.3672,329.4727 489.2266,329.4258 Q489.0859,329.375 488.9453,329.375 Q488.7695,329.375 488.6211,329.4453 Q488.4766,329.5156 488.3633,329.6719 Q488.25,329.8281 488.25,330.043 L488.25,330.2734 Q488.25,330.5313 488.4609,330.7031 Q488.6719,330.875 489.0469,330.875 Q489.2695,330.875 489.4258,330.8242 Q489.5156,330.7969 489.6172,330.707 Q489.6836,330.6563 489.7188,330.6406 Q489.7539,330.625 489.7969,330.625 Q489.8789,330.625 489.9375,330.6914 Q490,330.7539 490,330.8438 Q490,330.9297 489.9141,331.0313 Q489.7891,331.1797 489.5898,331.2617 Q489.3281,331.375 489.0078,331.375 Q488.6328,331.375 488.332,331.2266 Q488.0898,331.1094 487.918,330.8555 Q487.75,330.6016 487.75,330.3008 L487.75,330.0273 Q487.75,329.7148 487.8984,329.4414 Q488.0508,329.168 488.3125,329.0234 Q488.5781,328.875 488.875,328.875 Q489.0547,328.875 489.2109,328.9375 Q489.3672,329 489.5,329.125 Z " fill="#000000"/><text fill="#000000" font-family="sans-serif" font-size="3" lengthAdjust="spacing" textLength="29.5" x="492.5" y="331.2275">TestParameterResult</text><line style="stroke:#A80036;stroke-width:0.375;" x1="485.5" x2="522.5" y1="334" y2="334"/><text fill="#000000" font-family="sans-serif" font-size="2.75" lengthAdjust="spacing" textLength="13" x="486.75" y="337.8547">-createdAt</text><text fill="#000000" font-family="sans-serif" font-size="2.75" lengthAdjust="spacing" textLength="7.5" x="486.75" y="341.3137">-value</text><text fill="#000000" font-family="sans-serif" font-size="2.75" lengthAdjust="spacing" textLength="8.25" x="486.75" y="344.7727">-metric</text><!--MD5=[ed6624c6556d5e7b1bd23032162d20b7]
class Client--><rect codeLine="69" fill="#FEFECE" filter="url(#fyvynb4b5giyd)" height="37.6719" id="Client" style="stroke:#A80036;stroke-width:0.375;" width="22.75" x="460.125" y="201.25"/><ellipse cx="466.9125" cy="205.25" fill="#ADD1B2" rx="2.75" ry="2.75" style="stroke:#A80036;stroke-width:0.25;"/><path d="M467.4125,204.375 Q467.4633,204.25 467.5219,204.1875 Q467.5805,204.125 467.6469,204.125 Q467.7641,204.125 467.8383,204.1953 Q467.9125,204.2656 467.9125,204.4297 L467.9125,204.8203 Q467.9125,204.9844 467.8422,205.0547 Q467.7719,205.125 467.6625,205.125 Q467.5648,205.125 467.5023,205.082 Q467.4398,205.0391 467.4125,204.9258 Q467.4008,204.8477 467.3578,204.8047 Q467.2797,204.7227 467.1391,204.6758 Q466.9984,204.625 466.8578,204.625 Q466.682,204.625 466.5336,204.6953 Q466.3891,204.7656 466.2758,204.9219 Q466.1625,205.0781 466.1625,205.293 L466.1625,205.5234 Q466.1625,205.7813 466.3734,205.9531 Q466.5844,206.125 466.9594,206.125 Q467.182,206.125 467.3383,206.0742 Q467.4281,206.0469 467.5297,205.957 Q467.5961,205.9063 467.6313,205.8906 Q467.6664,205.875 467.7094,205.875 Q467.7914,205.875 467.85,205.9414 Q467.9125,206.0039 467.9125,206.0938 Q467.9125,206.1797 467.8266,206.2813 Q467.7016,206.4297 467.5023,206.5117 Q467.2406,206.625 466.9203,206.625 Q466.5453,206.625 466.2445,206.4766 Q466.0023,206.3594 465.8305,206.1055 Q465.6625,205.8516 465.6625,205.5508 L465.6625,205.2773 Q465.6625,204.9648 465.8109,204.6914 Q465.9633,204.418 466.225,204.2734 Q466.4906,204.125 466.7875,204.125 Q466.9672,204.125 467.1234,204.1875 Q467.2797,204.25 467.4125,204.375 Z " fill="#000000"/><text fill="#000000" font-family="sans-serif" font-size="3" lengthAdjust="spacing" textLength="8" x="471.0875" y="206.4775">Client</text><line style="stroke:#A80036;stroke-width:0.375;" x1="460.375" x2="482.625" y1="209.25" y2="209.25"/><text fill="#000000" font-family="sans-serif" font-size="2.75" lengthAdjust="spacing" textLength="7.5" x="461.625" y="213.1047">-name</text><text fill="#000000" font-family="sans-serif" font-size="2.75" lengthAdjust="spacing" textLength="19.75" x="461.625" y="216.5637">-citizenCardNum</text><text fill="#000000" font-family="sans-serif" font-size="2.75" lengthAdjust="spacing" textLength="10.75" x="461.625" y="220.0227">-nhsNum</text><text fill="#000000" font-family="sans-serif" font-size="2.75" lengthAdjust="spacing" textLength="11.75" x="461.625" y="223.4817">-birthDate</text><text fill="#000000" font-family="sans-serif" font-size="2.75" lengthAdjust="spacing" textLength="5.5" x="461.625" y="226.9407">-sex</text><text fill="#000000" font-family="sans-serif" font-size="2.75" lengthAdjust="spacing" textLength="12" x="461.625" y="230.3997">-taxIdNum</text><text fill="#000000" font-family="sans-serif" font-size="2.75" lengthAdjust="spacing" textLength="13.75" x="461.625" y="233.8586">-phoneNum</text><text fill="#000000" font-family="sans-serif" font-size="2.75" lengthAdjust="spacing" textLength="7" x="461.625" y="237.3176">-email</text><!--MD5=[b42cc4842635d5e6eb486abf1ddf7193]
class MyBarcode--><rect codeLine="80" fill="#FEFECE" filter="url(#fyvynb4b5giyd)" height="13.459" id="MyBarcode" style="stroke:#A80036;stroke-width:0.375;" width="23.25" x="523.125" y="369.5"/><ellipse cx="526.9875" cy="373.5" fill="#ADD1B2" rx="2.75" ry="2.75" style="stroke:#A80036;stroke-width:0.25;"/><path d="M527.4875,372.625 Q527.5383,372.5 527.5969,372.4375 Q527.6555,372.375 527.7219,372.375 Q527.8391,372.375 527.9133,372.4453 Q527.9875,372.5156 527.9875,372.6797 L527.9875,373.0703 Q527.9875,373.2344 527.9172,373.3047 Q527.8469,373.375 527.7375,373.375 Q527.6398,373.375 527.5773,373.332 Q527.5148,373.2891 527.4875,373.1758 Q527.4758,373.0977 527.4328,373.0547 Q527.3547,372.9727 527.2141,372.9258 Q527.0734,372.875 526.9328,372.875 Q526.757,372.875 526.6086,372.9453 Q526.4641,373.0156 526.3508,373.1719 Q526.2375,373.3281 526.2375,373.543 L526.2375,373.7734 Q526.2375,374.0313 526.4484,374.2031 Q526.6594,374.375 527.0344,374.375 Q527.257,374.375 527.4133,374.3242 Q527.5031,374.2969 527.6047,374.207 Q527.6711,374.1563 527.7063,374.1406 Q527.7414,374.125 527.7844,374.125 Q527.8664,374.125 527.925,374.1914 Q527.9875,374.2539 527.9875,374.3438 Q527.9875,374.4297 527.9016,374.5313 Q527.7766,374.6797 527.5773,374.7617 Q527.3156,374.875 526.9953,374.875 Q526.6203,374.875 526.3195,374.7266 Q526.0773,374.6094 525.9055,374.3555 Q525.7375,374.1016 525.7375,373.8008 L525.7375,373.5273 Q525.7375,373.2148 525.8859,372.9414 Q526.0383,372.668 526.3,372.5234 Q526.5656,372.375 526.8625,372.375 Q527.0422,372.375 527.1984,372.4375 Q527.3547,372.5 527.4875,372.625 Z " fill="#000000"/><text fill="#000000" font-family="sans-serif" font-size="3" lengthAdjust="spacing" textLength="15" x="530.5125" y="374.7275">MyBarcode</text><line style="stroke:#A80036;stroke-width:0.375;" x1="523.375" x2="546.125" y1="377.5" y2="377.5"/><text fill="#000000" font-family="sans-serif" font-size="2.75" lengthAdjust="spacing" textLength="20.25" x="524.625" y="381.3547">-barcodeNumber</text><!--MD5=[55cb992be19579b505cea3c5691093cb]
class ClientStore--><rect codeLine="88" fill="#FEFECE" filter="url(#fyvynb4b5giyd)" height="13.459" id="ClientStore" style="stroke:#A80036;stroke-width:0.375;" width="44.75" x="163.375" y="213.375"/><ellipse cx="177.0625" cy="217.375" fill="#ADD1B2" rx="2.75" ry="2.75" style="stroke:#A80036;stroke-width:0.25;"/><path d="M177.5625,216.5 Q177.6133,216.375 177.6719,216.3125 Q177.7305,216.25 177.7969,216.25 Q177.9141,216.25 177.9883,216.3203 Q178.0625,216.3906 178.0625,216.5547 L178.0625,216.9453 Q178.0625,217.1094 177.9922,217.1797 Q177.9219,217.25 177.8125,217.25 Q177.7148,217.25 177.6523,217.207 Q177.5898,217.1641 177.5625,217.0508 Q177.5508,216.9727 177.5078,216.9297 Q177.4297,216.8477 177.2891,216.8008 Q177.1484,216.75 177.0078,216.75 Q176.832,216.75 176.6836,216.8203 Q176.5391,216.8906 176.4258,217.0469 Q176.3125,217.2031 176.3125,217.418 L176.3125,217.6484 Q176.3125,217.9063 176.5234,218.0781 Q176.7344,218.25 177.1094,218.25 Q177.332,218.25 177.4883,218.1992 Q177.5781,218.1719 177.6797,218.082 Q177.7461,218.0313 177.7813,218.0156 Q177.8164,218 177.8594,218 Q177.9414,218 178,218.0664 Q178.0625,218.1289 178.0625,218.2188 Q178.0625,218.3047 177.9766,218.4063 Q177.8516,218.5547 177.6523,218.6367 Q177.3906,218.75 177.0703,218.75 Q176.6953,218.75 176.3945,218.6016 Q176.1523,218.4844 175.9805,218.2305 Q175.8125,217.9766 175.8125,217.6758 L175.8125,217.4023 Q175.8125,217.0898 175.9609,216.8164 Q176.1133,216.543 176.375,216.3984 Q176.6406,216.25 176.9375,216.25 Q177.1172,216.25 177.2734,216.3125 Q177.4297,216.375 177.5625,216.5 Z " fill="#000000"/><text fill="#000000" font-family="sans-serif" font-size="3" lengthAdjust="spacing" textLength="15.25" x="182.1875" y="218.6025">ClientStore</text><line style="stroke:#A80036;stroke-width:0.375;" x1="163.625" x2="207.875" y1="221.375" y2="221.375"/><text fill="#000000" font-family="sans-serif" font-size="2.75" lengthAdjust="spacing" textLength="41.75" x="164.875" y="225.2297">+getClientByTinNumber(tinNumber)</text><!--MD5=[be7802b157a16874d39c59ca0e2b25be]
class ParameterStore--><rect codeLine="92" fill="#FEFECE" filter="url(#fyvynb4b5giyd)" height="16.918" id="ParameterStore" style="stroke:#A80036;stroke-width:0.375;" width="81.5" x="217" y="211.625"/><ellipse cx="245.8125" cy="215.625" fill="#ADD1B2" rx="2.75" ry="2.75" style="stroke:#A80036;stroke-width:0.25;"/><path d="M246.3125,214.75 Q246.3633,214.625 246.4219,214.5625 Q246.4805,214.5 246.5469,214.5 Q246.6641,214.5 246.7383,214.5703 Q246.8125,214.6406 246.8125,214.8047 L246.8125,215.1953 Q246.8125,215.3594 246.7422,215.4297 Q246.6719,215.5 246.5625,215.5 Q246.4648,215.5 246.4023,215.457 Q246.3398,215.4141 246.3125,215.3008 Q246.3008,215.2227 246.2578,215.1797 Q246.1797,215.0977 246.0391,215.0508 Q245.8984,215 245.7578,215 Q245.582,215 245.4336,215.0703 Q245.2891,215.1406 245.1758,215.2969 Q245.0625,215.4531 245.0625,215.668 L245.0625,215.8984 Q245.0625,216.1563 245.2734,216.3281 Q245.4844,216.5 245.8594,216.5 Q246.082,216.5 246.2383,216.4492 Q246.3281,216.4219 246.4297,216.332 Q246.4961,216.2813 246.5313,216.2656 Q246.5664,216.25 246.6094,216.25 Q246.6914,216.25 246.75,216.3164 Q246.8125,216.3789 246.8125,216.4688 Q246.8125,216.5547 246.7266,216.6563 Q246.6016,216.8047 246.4023,216.8867 Q246.1406,217 245.8203,217 Q245.4453,217 245.1445,216.8516 Q244.9023,216.7344 244.7305,216.4805 Q244.5625,216.2266 244.5625,215.9258 L244.5625,215.6523 Q244.5625,215.3398 244.7109,215.0664 Q244.8633,214.793 245.125,214.6484 Q245.3906,214.5 245.6875,214.5 Q245.8672,214.5 246.0234,214.5625 Q246.1797,214.625 246.3125,214.75 Z " fill="#000000"/><text fill="#000000" font-family="sans-serif" font-size="3" lengthAdjust="spacing" textLength="21.75" x="250.9375" y="216.8525">ParameterStore</text><line style="stroke:#A80036;stroke-width:0.375;" x1="217.25" x2="298.25" y1="219.625" y2="219.625"/><text fill="#000000" font-family="sans-serif" font-size="2.75" lengthAdjust="spacing" textLength="78.5" x="218.5" y="223.4797">+getParamsByCategories(List&lt;String&gt; selectedCategoriesCodes)</text><text fill="#000000" font-family="sans-serif" font-size="2.75" lengthAdjust="spacing" textLength="49" x="218.5" y="226.9387">+getParamsByCategory(String category)</text><!--MD5=[fcd6df96e169c9fc6403c4dc9bdb4d83]
class SampleStore--><rect codeLine="97" fill="#FEFECE" filter="url(#fyvynb4b5giyd)" height="16.918" id="SampleStore" style="stroke:#A80036;stroke-width:0.375;" width="36.75" x="307.375" y="211.625"/><ellipse cx="315.9625" cy="215.625" fill="#ADD1B2" rx="2.75" ry="2.75" style="stroke:#A80036;stroke-width:0.25;"/><path d="M316.4625,214.75 Q316.5133,214.625 316.5719,214.5625 Q316.6305,214.5 316.6969,214.5 Q316.8141,214.5 316.8883,214.5703 Q316.9625,214.6406 316.9625,214.8047 L316.9625,215.1953 Q316.9625,215.3594 316.8922,215.4297 Q316.8219,215.5 316.7125,215.5 Q316.6148,215.5 316.5523,215.457 Q316.4898,215.4141 316.4625,215.3008 Q316.4508,215.2227 316.4078,215.1797 Q316.3297,215.0977 316.1891,215.0508 Q316.0484,215 315.9078,215 Q315.732,215 315.5836,215.0703 Q315.4391,215.1406 315.3258,215.2969 Q315.2125,215.4531 315.2125,215.668 L315.2125,215.8984 Q315.2125,216.1563 315.4234,216.3281 Q315.6344,216.5 316.0094,216.5 Q316.232,216.5 316.3883,216.4492 Q316.4781,216.4219 316.5797,216.332 Q316.6461,216.2813 316.6813,216.2656 Q316.7164,216.25 316.7594,216.25 Q316.8414,216.25 316.9,216.3164 Q316.9625,216.3789 316.9625,216.4688 Q316.9625,216.5547 316.8766,216.6563 Q316.7516,216.8047 316.5523,216.8867 Q316.2906,217 315.9703,217 Q315.5953,217 315.2945,216.8516 Q315.0523,216.7344 314.8805,216.4805 Q314.7125,216.2266 314.7125,215.9258 L314.7125,215.6523 Q314.7125,215.3398 314.8609,215.0664 Q315.0133,214.793 315.275,214.6484 Q315.5406,214.5 315.8375,214.5 Q316.0172,214.5 316.1734,214.5625 Q316.3297,214.625 316.4625,214.75 Z " fill="#000000"/><text fill="#000000" font-family="sans-serif" font-size="3" lengthAdjust="spacing" textLength="18" x="320.5375" y="216.8525">SampleStore</text><line style="stroke:#A80036;stroke-width:0.375;" x1="307.625" x2="343.875" y1="219.625" y2="219.625"/><text fill="#000000" font-family="sans-serif" font-size="2.75" lengthAdjust="spacing" textLength="33.75" x="308.875" y="223.4797">+createSample(myBarcode)</text><text fill="#000000" font-family="sans-serif" font-size="2.75" lengthAdjust="spacing" textLength="30" x="308.875" y="226.9387">+validateSample(sample)</text><!--MD5=[0f6f7964b844a64b0496af0dda7914bd]
class TestStore--><rect codeLine="102" fill="#FEFECE" filter="url(#fyvynb4b5giyd)" height="23.8359" id="TestStore" style="stroke:#A80036;stroke-width:0.375;" width="82.75" x="148.875" y="275.625"/><ellipse cx="182.5625" cy="279.625" fill="#ADD1B2" rx="2.75" ry="2.75" style="stroke:#A80036;stroke-width:0.25;"/><path d="M183.0625,278.75 Q183.1133,278.625 183.1719,278.5625 Q183.2305,278.5 183.2969,278.5 Q183.4141,278.5 183.4883,278.5703 Q183.5625,278.6406 183.5625,278.8047 L183.5625,279.1953 Q183.5625,279.3594 183.4922,279.4297 Q183.4219,279.5 183.3125,279.5 Q183.2148,279.5 183.1523,279.457 Q183.0898,279.4141 183.0625,279.3008 Q183.0508,279.2227 183.0078,279.1797 Q182.9297,279.0977 182.7891,279.0508 Q182.6484,279 182.5078,279 Q182.332,279 182.1836,279.0703 Q182.0391,279.1406 181.9258,279.2969 Q181.8125,279.4531 181.8125,279.668 L181.8125,279.8984 Q181.8125,280.1563 182.0234,280.3281 Q182.2344,280.5 182.6094,280.5 Q182.832,280.5 182.9883,280.4492 Q183.0781,280.4219 183.1797,280.332 Q183.2461,280.2813 183.2813,280.2656 Q183.3164,280.25 183.3594,280.25 Q183.4414,280.25 183.5,280.3164 Q183.5625,280.3789 183.5625,280.4688 Q183.5625,280.5547 183.4766,280.6563 Q183.3516,280.8047 183.1523,280.8867 Q182.8906,281 182.5703,281 Q182.1953,281 181.8945,280.8516 Q181.6523,280.7344 181.4805,280.4805 Q181.3125,280.2266 181.3125,279.9258 L181.3125,279.6523 Q181.3125,279.3398 181.4609,279.0664 Q181.6133,278.793 181.875,278.6484 Q182.1406,278.5 182.4375,278.5 Q182.6172,278.5 182.7734,278.5625 Q182.9297,278.625 183.0625,278.75 Z " fill="#000000"/><text fill="#000000" font-family="sans-serif" font-size="3" lengthAdjust="spacing" textLength="13.25" x="187.6875" y="280.8525">TestStore</text><line style="stroke:#A80036;stroke-width:0.375;" x1="149.125" x2="231.375" y1="283.625" y2="283.625"/><text fill="#000000" font-family="sans-serif" font-size="2.75" lengthAdjust="spacing" textLength="63.25" x="150.375" y="287.4797">+createTest(String nhsCode, Client associatedClient,</text><text fill="#000000" font-family="sans-serif" font-size="2.75" lengthAdjust="spacing" textLength="79" x="151.125" y="290.9387">TestType selectedTestType, List&lt;Parameter&gt;selectedParamsList)</text><text fill="#000000" font-family="sans-serif" font-size="2.75" lengthAdjust="spacing" textLength="22.5" x="150.375" y="294.3977">+validateTest(test)</text><text fill="#000000" font-family="sans-serif" font-size="2.75" lengthAdjust="spacing" textLength="19.25" x="150.375" y="297.8567">+saveTest(test)</text><!--MD5=[438281daef332c5ccec4fb6cf3747e9a]
class ClinicalAnalysisLaboratoryStore--><rect codeLine="108" fill="#FEFECE" filter="url(#fyvynb4b5giyd)" height="13.459" id="ClinicalAnalysisLaboratoryStore" style="stroke:#A80036;stroke-width:0.375;" width="51.5" x="240.5" y="280.75"/><ellipse cx="244.25" cy="284.75" fill="#ADD1B2" rx="2.75" ry="2.75" style="stroke:#A80036;stroke-width:0.25;"/><path d="M244.75,283.875 Q244.8008,283.75 244.8594,283.6875 Q244.918,283.625 244.9844,283.625 Q245.1016,283.625 245.1758,283.6953 Q245.25,283.7656 245.25,283.9297 L245.25,284.3203 Q245.25,284.4844 245.1797,284.5547 Q245.1094,284.625 245,284.625 Q244.9023,284.625 244.8398,284.582 Q244.7773,284.5391 244.75,284.4258 Q244.7383,284.3477 244.6953,284.3047 Q244.6172,284.2227 244.4766,284.1758 Q244.3359,284.125 244.1953,284.125 Q244.0195,284.125 243.8711,284.1953 Q243.7266,284.2656 243.6133,284.4219 Q243.5,284.5781 243.5,284.793 L243.5,285.0234 Q243.5,285.2813 243.7109,285.4531 Q243.9219,285.625 244.2969,285.625 Q244.5195,285.625 244.6758,285.5742 Q244.7656,285.5469 244.8672,285.457 Q244.9336,285.4063 244.9688,285.3906 Q245.0039,285.375 245.0469,285.375 Q245.1289,285.375 245.1875,285.4414 Q245.25,285.5039 245.25,285.5938 Q245.25,285.6797 245.1641,285.7813 Q245.0391,285.9297 244.8398,286.0117 Q244.5781,286.125 244.2578,286.125 Q243.8828,286.125 243.582,285.9766 Q243.3398,285.8594 243.168,285.6055 Q243,285.3516 243,285.0508 L243,284.7773 Q243,284.4648 243.1484,284.1914 Q243.3008,283.918 243.5625,283.7734 Q243.8281,283.625 244.125,283.625 Q244.3047,283.625 244.4609,283.6875 Q244.6172,283.75 244.75,283.875 Z " fill="#000000"/><text fill="#000000" font-family="sans-serif" font-size="3" lengthAdjust="spacing" textLength="43.5" x="247.75" y="285.9775">ClinicalAnalysisLaboratoryStore</text><line style="stroke:#A80036;stroke-width:0.375;" x1="240.75" x2="291.75" y1="288.75" y2="288.75"/><text fill="#000000" font-family="sans-serif" font-size="2.75" lengthAdjust="spacing" textLength="26" x="242" y="292.6047">+getCalByCode(labId)</text><!--MD5=[6ba72ddf03822b91e8d41ca71de58ed3]
class TestTypeStore--><rect codeLine="112" fill="#FEFECE" filter="url(#fyvynb4b5giyd)" height="13.459" id="TestTypeStore" style="stroke:#A80036;stroke-width:0.375;" width="43.5" x="300.75" y="280.75"/><ellipse cx="311.5875" cy="284.75" fill="#ADD1B2" rx="2.75" ry="2.75" style="stroke:#A80036;stroke-width:0.25;"/><path d="M312.0875,283.875 Q312.1383,283.75 312.1969,283.6875 Q312.2555,283.625 312.3219,283.625 Q312.4391,283.625 312.5133,283.6953 Q312.5875,283.7656 312.5875,283.9297 L312.5875,284.3203 Q312.5875,284.4844 312.5172,284.5547 Q312.4469,284.625 312.3375,284.625 Q312.2398,284.625 312.1773,284.582 Q312.1148,284.5391 312.0875,284.4258 Q312.0758,284.3477 312.0328,284.3047 Q311.9547,284.2227 311.8141,284.1758 Q311.6734,284.125 311.5328,284.125 Q311.357,284.125 311.2086,284.1953 Q311.0641,284.2656 310.9508,284.4219 Q310.8375,284.5781 310.8375,284.793 L310.8375,285.0234 Q310.8375,285.2813 311.0484,285.4531 Q311.2594,285.625 311.6344,285.625 Q311.857,285.625 312.0133,285.5742 Q312.1031,285.5469 312.2047,285.457 Q312.2711,285.4063 312.3063,285.3906 Q312.3414,285.375 312.3844,285.375 Q312.4664,285.375 312.525,285.4414 Q312.5875,285.5039 312.5875,285.5938 Q312.5875,285.6797 312.5016,285.7813 Q312.3766,285.9297 312.1773,286.0117 Q311.9156,286.125 311.5953,286.125 Q311.2203,286.125 310.9195,285.9766 Q310.6773,285.8594 310.5055,285.6055 Q310.3375,285.3516 310.3375,285.0508 L310.3375,284.7773 Q310.3375,284.4648 310.4859,284.1914 Q310.6383,283.918 310.9,283.7734 Q311.1656,283.625 311.4625,283.625 Q311.6422,283.625 311.7984,283.6875 Q311.9547,283.75 312.0875,283.875 Z " fill="#000000"/><text fill="#000000" font-family="sans-serif" font-size="3" lengthAdjust="spacing" textLength="19.75" x="316.6625" y="285.9775">TestTypeStore</text><line style="stroke:#A80036;stroke-width:0.375;" x1="301" x2="344" y1="288.75" y2="288.75"/><text fill="#000000" font-family="sans-serif" font-size="2.75" lengthAdjust="spacing" textLength="40.5" x="302.25" y="292.6047">+getTestTypeByTinNumber(code)</text><!--MD5=[91a243d16834250cc0783f93b105dc5d]
class TestFileDTO--><rect codeLine="121" fill="#FEFECE" filter="url(#fyvynb4b5giyd)" height="37.6719" id="TestFileDTO" style="stroke:#A80036;stroke-width:0.375;" width="34" x="586.5" y="139.5"/><ellipse cx="594.1875" cy="143.5" fill="#ADD1B2" rx="2.75" ry="2.75" style="stroke:#A80036;stroke-width:0.25;"/><path d="M594.6875,142.625 Q594.7383,142.5 594.7969,142.4375 Q594.8555,142.375 594.9219,142.375 Q595.0391,142.375 595.1133,142.4453 Q595.1875,142.5156 595.1875,142.6797 L595.1875,143.0703 Q595.1875,143.2344 595.1172,143.3047 Q595.0469,143.375 594.9375,143.375 Q594.8398,143.375 594.7773,143.332 Q594.7148,143.2891 594.6875,143.1758 Q594.6758,143.0977 594.6328,143.0547 Q594.5547,142.9727 594.4141,142.9258 Q594.2734,142.875 594.1328,142.875 Q593.957,142.875 593.8086,142.9453 Q593.6641,143.0156 593.5508,143.1719 Q593.4375,143.3281 593.4375,143.543 L593.4375,143.7734 Q593.4375,144.0313 593.6484,144.2031 Q593.8594,144.375 594.2344,144.375 Q594.457,144.375 594.6133,144.3242 Q594.7031,144.2969 594.8047,144.207 Q594.8711,144.1563 594.9063,144.1406 Q594.9414,144.125 594.9844,144.125 Q595.0664,144.125 595.125,144.1914 Q595.1875,144.2539 595.1875,144.3438 Q595.1875,144.4297 595.1016,144.5313 Q594.9766,144.6797 594.7773,144.7617 Q594.5156,144.875 594.1953,144.875 Q593.8203,144.875 593.5195,144.7266 Q593.2773,144.6094 593.1055,144.3555 Q592.9375,144.1016 592.9375,143.8008 L592.9375,143.5273 Q592.9375,143.2148 593.0859,142.9414 Q593.2383,142.668 593.5,142.5234 Q593.7656,142.375 594.0625,142.375 Q594.2422,142.375 594.3984,142.4375 Q594.5547,142.5 594.6875,142.625 Z " fill="#000000"/><text fill="#000000" font-family="sans-serif" font-size="3" lengthAdjust="spacing" textLength="17.25" x="598.5625" y="144.7275">TestFileDTO</text><line style="stroke:#A80036;stroke-width:0.375;" x1="586.75" x2="620.25" y1="147.5" y2="147.5"/><text fill="#000000" font-family="sans-serif" font-size="2.75" lengthAdjust="spacing" textLength="12.75" x="588" y="151.3547">-ClientDTO</text><text fill="#000000" font-family="sans-serif" font-size="2.75" lengthAdjust="spacing" textLength="12" x="588" y="154.8137">-NhsCode</text><text fill="#000000" font-family="sans-serif" font-size="2.75" lengthAdjust="spacing" textLength="26.25" x="588" y="158.2727">-TestParameterCodes</text><text fill="#000000" font-family="sans-serif" font-size="2.75" lengthAdjust="spacing" textLength="26" x="588" y="161.7317">-TestParameterResult</text><text fill="#000000" font-family="sans-serif" font-size="2.75" lengthAdjust="spacing" textLength="28.75" x="588" y="165.1907">-dateOfTestRegistration</text><text fill="#000000" font-family="sans-serif" font-size="2.75" lengthAdjust="spacing" textLength="31" x="588" y="168.6497">-dateOfSamplesCollection</text><text fill="#000000" font-family="sans-serif" font-size="2.75" lengthAdjust="spacing" textLength="30.5" x="588" y="172.1086">-dateOfChemicalAnalysis</text><text fill="#000000" font-family="sans-serif" font-size="2.75" lengthAdjust="spacing" textLength="21" x="588" y="175.5676">-dateOfDiagnosis</text><!--MD5=[b6a3913a705cfb7a2ec9efa528c25c50]
class CreateTestOfFileControler--><rect codeLine="136" fill="#FEFECE" filter="url(#fyvynb4b5giyd)" height="16.918" id="CreateTestOfFileControler" style="stroke:#A80036;stroke-width:0.375;" width="44" x="18" y="149.875"/><ellipse cx="21.75" cy="153.875" fill="#ADD1B2" rx="2.75" ry="2.75" style="stroke:#A80036;stroke-width:0.25;"/><path d="M22.25,153 Q22.3008,152.875 22.3594,152.8125 Q22.418,152.75 22.4844,152.75 Q22.6016,152.75 22.6758,152.8203 Q22.75,152.8906 22.75,153.0547 L22.75,153.4453 Q22.75,153.6094 22.6797,153.6797 Q22.6094,153.75 22.5,153.75 Q22.4023,153.75 22.3398,153.707 Q22.2773,153.6641 22.25,153.5508 Q22.2383,153.4727 22.1953,153.4297 Q22.1172,153.3477 21.9766,153.3008 Q21.8359,153.25 21.6953,153.25 Q21.5195,153.25 21.3711,153.3203 Q21.2266,153.3906 21.1133,153.5469 Q21,153.7031 21,153.918 L21,154.1484 Q21,154.4063 21.2109,154.5781 Q21.4219,154.75 21.7969,154.75 Q22.0195,154.75 22.1758,154.6992 Q22.2656,154.6719 22.3672,154.582 Q22.4336,154.5313 22.4688,154.5156 Q22.5039,154.5 22.5469,154.5 Q22.6289,154.5 22.6875,154.5664 Q22.75,154.6289 22.75,154.7188 Q22.75,154.8047 22.6641,154.9063 Q22.5391,155.0547 22.3398,155.1367 Q22.0781,155.25 21.7578,155.25 Q21.3828,155.25 21.082,155.1016 Q20.8398,154.9844 20.668,154.7305 Q20.5,154.4766 20.5,154.1758 L20.5,153.9023 Q20.5,153.5898 20.6484,153.3164 Q20.8008,153.043 21.0625,152.8984 Q21.3281,152.75 21.625,152.75 Q21.8047,152.75 21.9609,152.8125 Q22.1172,152.875 22.25,153 Z " fill="#000000"/><text fill="#000000" font-family="sans-serif" font-size="3" lengthAdjust="spacing" textLength="36" x="25.25" y="155.1025">CreateTestOfFileControler</text><line style="stroke:#A80036;stroke-width:0.375;" x1="18.25" x2="61.75" y1="157.875" y2="157.875"/><text fill="#000000" font-family="sans-serif" font-size="2.75" lengthAdjust="spacing" textLength="29.75" x="19.5" y="161.7297">+createTest(TestFileDto)</text><text fill="#000000" font-family="sans-serif" font-size="2.75" lengthAdjust="spacing" textLength="14.75" x="19.5" y="165.1887">+saveTest()</text><!--MD5=[51912c652aa2a3a1d0b745172ce59331]
class ImportTestController--><rect codeLine="141" fill="#FEFECE" filter="url(#fyvynb4b5giyd)" height="20.377" id="ImportTestController" style="stroke:#A80036;stroke-width:0.375;" width="44.25" x="41.375" y="83.25"/><ellipse cx="48.725" cy="87.25" fill="#ADD1B2" rx="2.75" ry="2.75" style="stroke:#A80036;stroke-width:0.25;"/><path d="M49.225,86.375 Q49.2758,86.25 49.3344,86.1875 Q49.393,86.125 49.4594,86.125 Q49.5766,86.125 49.6508,86.1953 Q49.725,86.2656 49.725,86.4297 L49.725,86.8203 Q49.725,86.9844 49.6547,87.0547 Q49.5844,87.125 49.475,87.125 Q49.3773,87.125 49.3148,87.082 Q49.2523,87.0391 49.225,86.9258 Q49.2133,86.8477 49.1703,86.8047 Q49.0922,86.7227 48.9516,86.6758 Q48.8109,86.625 48.6703,86.625 Q48.4945,86.625 48.3461,86.6953 Q48.2016,86.7656 48.0883,86.9219 Q47.975,87.0781 47.975,87.293 L47.975,87.5234 Q47.975,87.7813 48.1859,87.9531 Q48.3969,88.125 48.7719,88.125 Q48.9945,88.125 49.1508,88.0742 Q49.2406,88.0469 49.3422,87.957 Q49.4086,87.9063 49.4438,87.8906 Q49.4789,87.875 49.5219,87.875 Q49.6039,87.875 49.6625,87.9414 Q49.725,88.0039 49.725,88.0938 Q49.725,88.1797 49.6391,88.2813 Q49.5141,88.4297 49.3148,88.5117 Q49.0531,88.625 48.7328,88.625 Q48.3578,88.625 48.057,88.4766 Q47.8148,88.3594 47.643,88.1055 Q47.475,87.8516 47.475,87.5508 L47.475,87.2773 Q47.475,86.9648 47.6234,86.6914 Q47.7758,86.418 48.0375,86.2734 Q48.3031,86.125 48.6,86.125 Q48.7797,86.125 48.9359,86.1875 Q49.0922,86.25 49.225,86.375 Z " fill="#000000"/><text fill="#000000" font-family="sans-serif" font-size="3" lengthAdjust="spacing" textLength="28.25" x="53.025" y="88.4775">ImportTestController</text><line style="stroke:#A80036;stroke-width:0.375;" x1="41.625" x2="85.375" y1="91.25" y2="91.25"/><text fill="#000000" font-family="sans-serif" font-size="2.75" lengthAdjust="spacing" textLength="41.25" x="42.875" y="95.1047">+createTestsFromFile(TestFileDto)</text><text fill="#000000" font-family="sans-serif" font-size="2.75" lengthAdjust="spacing" textLength="14.75" x="42.875" y="98.5637">+saveTest()</text><text fill="#000000" font-family="sans-serif" font-size="2.75" lengthAdjust="spacing" textLength="16.75" x="42.875" y="102.0227">+addSample()</text><!--MD5=[1a7fda4a36185bcd740bdf14b2b3a45e]
class RegisterClientController--><rect codeLine="147" fill="#FEFECE" filter="url(#fyvynb4b5giyd)" height="16.918" id="RegisterClientController" style="stroke:#A80036;stroke-width:0.375;" width="41.25" x="70.875" y="149.875"/><ellipse cx="74.625" cy="153.875" fill="#ADD1B2" rx="2.75" ry="2.75" style="stroke:#A80036;stroke-width:0.25;"/><path d="M75.125,153 Q75.1758,152.875 75.2344,152.8125 Q75.293,152.75 75.3594,152.75 Q75.4766,152.75 75.5508,152.8203 Q75.625,152.8906 75.625,153.0547 L75.625,153.4453 Q75.625,153.6094 75.5547,153.6797 Q75.4844,153.75 75.375,153.75 Q75.2773,153.75 75.2148,153.707 Q75.1523,153.6641 75.125,153.5508 Q75.1133,153.4727 75.0703,153.4297 Q74.9922,153.3477 74.8516,153.3008 Q74.7109,153.25 74.5703,153.25 Q74.3945,153.25 74.2461,153.3203 Q74.1016,153.3906 73.9883,153.5469 Q73.875,153.7031 73.875,153.918 L73.875,154.1484 Q73.875,154.4063 74.0859,154.5781 Q74.2969,154.75 74.6719,154.75 Q74.8945,154.75 75.0508,154.6992 Q75.1406,154.6719 75.2422,154.582 Q75.3086,154.5313 75.3438,154.5156 Q75.3789,154.5 75.4219,154.5 Q75.5039,154.5 75.5625,154.5664 Q75.625,154.6289 75.625,154.7188 Q75.625,154.8047 75.5391,154.9063 Q75.4141,155.0547 75.2148,155.1367 Q74.9531,155.25 74.6328,155.25 Q74.2578,155.25 73.957,155.1016 Q73.7148,154.9844 73.543,154.7305 Q73.375,154.4766 73.375,154.1758 L73.375,153.9023 Q73.375,153.5898 73.5234,153.3164 Q73.6758,153.043 73.9375,152.8984 Q74.2031,152.75 74.5,152.75 Q74.6797,152.75 74.8359,152.8125 Q74.9922,152.875 75.125,153 Z " fill="#000000"/><text fill="#000000" font-family="sans-serif" font-size="3" lengthAdjust="spacing" textLength="33.25" x="78.125" y="155.1025">RegisterClientController</text><line style="stroke:#A80036;stroke-width:0.375;" x1="71.125" x2="111.875" y1="157.875" y2="157.875"/><text fill="#000000" font-family="sans-serif" font-size="2.75" lengthAdjust="spacing" textLength="29.75" x="72.375" y="161.7297">+registerClient(ClientDto)</text><text fill="#000000" font-family="sans-serif" font-size="2.75" lengthAdjust="spacing" textLength="16" x="72.375" y="165.1887">+saveClient()</text><!--MD5=[820f1ba3f31a0fab433ee6d1f4524101]
class barcode--><rect codeLine="155" fill="#FEFECE" filter="url(#fyvynb4b5giyd)" height="8" id="barcode" style="stroke:#A80036;stroke-width:0.375;" width="19.25" x="725.875" y="283.5"/><ellipse cx="729.625" cy="287.5" fill="#ADD1B2" rx="2.75" ry="2.75" style="stroke:#A80036;stroke-width:0.25;"/><path d="M730.125,286.625 Q730.1758,286.5 730.2344,286.4375 Q730.293,286.375 730.3594,286.375 Q730.4766,286.375 730.5508,286.4453 Q730.625,286.5156 730.625,286.6797 L730.625,287.0703 Q730.625,287.2344 730.5547,287.3047 Q730.4844,287.375 730.375,287.375 Q730.2773,287.375 730.2148,287.332 Q730.1523,287.2891 730.125,287.1758 Q730.1133,287.0977 730.0703,287.0547 Q729.9922,286.9727 729.8516,286.9258 Q729.7109,286.875 729.5703,286.875 Q729.3945,286.875 729.2461,286.9453 Q729.1016,287.0156 728.9883,287.1719 Q728.875,287.3281 728.875,287.543 L728.875,287.7734 Q728.875,288.0313 729.0859,288.2031 Q729.2969,288.375 729.6719,288.375 Q729.8945,288.375 730.0508,288.3242 Q730.1406,288.2969 730.2422,288.207 Q730.3086,288.1563 730.3438,288.1406 Q730.3789,288.125 730.4219,288.125 Q730.5039,288.125 730.5625,288.1914 Q730.625,288.2539 730.625,288.3438 Q730.625,288.4297 730.5391,288.5313 Q730.4141,288.6797 730.2148,288.7617 Q729.9531,288.875 729.6328,288.875 Q729.2578,288.875 728.957,288.7266 Q728.7148,288.6094 728.543,288.3555 Q728.375,288.1016 728.375,287.8008 L728.375,287.5273 Q728.375,287.2148 728.5234,286.9414 Q728.6758,286.668 728.9375,286.5234 Q729.2031,286.375 729.5,286.375 Q729.6797,286.375 729.8359,286.4375 Q729.9922,286.5 730.125,286.625 Z " fill="#000000"/><text fill="#000000" font-family="sans-serif" font-size="3" lengthAdjust="spacing" textLength="11.25" x="733.125" y="288.7275">barcode</text><!--MD5=[ceec499941a4b1e23bf576f2990db842]
class BarbecueAPI--><rect codeLine="157" fill="#FEFECE" filter="url(#fyvynb4b5giyd)" height="16.918" id="BarbecueAPI" style="stroke:#A80036;stroke-width:0.375;" width="52.25" x="762.875" y="279"/><ellipse cx="779.0625" cy="283" fill="#ADD1B2" rx="2.75" ry="2.75" style="stroke:#A80036;stroke-width:0.25;"/><path d="M779.5625,282.125 Q779.6133,282 779.6719,281.9375 Q779.7305,281.875 779.7969,281.875 Q779.9141,281.875 779.9883,281.9453 Q780.0625,282.0156 780.0625,282.1797 L780.0625,282.5703 Q780.0625,282.7344 779.9922,282.8047 Q779.9219,282.875 779.8125,282.875 Q779.7148,282.875 779.6523,282.832 Q779.5898,282.7891 779.5625,282.6758 Q779.5508,282.5977 779.5078,282.5547 Q779.4297,282.4727 779.2891,282.4258 Q779.1484,282.375 779.0078,282.375 Q778.832,282.375 778.6836,282.4453 Q778.5391,282.5156 778.4258,282.6719 Q778.3125,282.8281 778.3125,283.043 L778.3125,283.2734 Q778.3125,283.5313 778.5234,283.7031 Q778.7344,283.875 779.1094,283.875 Q779.332,283.875 779.4883,283.8242 Q779.5781,283.7969 779.6797,283.707 Q779.7461,283.6563 779.7813,283.6406 Q779.8164,283.625 779.8594,283.625 Q779.9414,283.625 780,283.6914 Q780.0625,283.7539 780.0625,283.8438 Q780.0625,283.9297 779.9766,284.0313 Q779.8516,284.1797 779.6523,284.2617 Q779.3906,284.375 779.0703,284.375 Q778.6953,284.375 778.3945,284.2266 Q778.1523,284.1094 777.9805,283.8555 Q777.8125,283.6016 777.8125,283.3008 L777.8125,283.0273 Q777.8125,282.7148 777.9609,282.4414 Q778.1133,282.168 778.375,282.0234 Q778.6406,281.875 778.9375,281.875 Q779.1172,281.875 779.2734,281.9375 Q779.4297,282 779.5625,282.125 Z " fill="#000000"/><text fill="#000000" font-family="sans-serif" font-size="3" lengthAdjust="spacing" textLength="17.75" x="784.1875" y="284.2275">BarbecueAPI</text><line style="stroke:#A80036;stroke-width:0.375;" x1="763.125" x2="814.875" y1="287" y2="287"/><text fill="#000000" font-family="sans-serif" font-size="2.75" lengthAdjust="spacing" textLength="34.5" x="764.375" y="290.8547">+Barcode createUPCA(data)</text><text fill="#000000" font-family="sans-serif" font-size="2.75" lengthAdjust="spacing" textLength="49.25" x="764.375" y="294.3137">+BufferedImage saveJPEG(barcode, file)</text><!--MD5=[9bb7cc3529c0d40aca5d5110b828cb84]
class TestFileUtils--><rect codeLine="167" fill="#FEFECE" filter="url(#fyvynb4b5giyd)" height="13.459" id="TestFileUtils" style="stroke:#A80036;stroke-width:0.375;" width="36.75" x="346.875" y="23.5"/><ellipse cx="355.8" cy="27.5" fill="#ADD1B2" rx="2.75" ry="2.75" style="stroke:#A80036;stroke-width:0.25;"/><path d="M356.3,26.625 Q356.3508,26.5 356.4094,26.4375 Q356.468,26.375 356.5344,26.375 Q356.6516,26.375 356.7258,26.4453 Q356.8,26.5156 356.8,26.6797 L356.8,27.0703 Q356.8,27.2344 356.7297,27.3047 Q356.6594,27.375 356.55,27.375 Q356.4523,27.375 356.3898,27.332 Q356.3273,27.2891 356.3,27.1758 Q356.2883,27.0977 356.2453,27.0547 Q356.1672,26.9727 356.0266,26.9258 Q355.8859,26.875 355.7453,26.875 Q355.5695,26.875 355.4211,26.9453 Q355.2766,27.0156 355.1633,27.1719 Q355.05,27.3281 355.05,27.543 L355.05,27.7734 Q355.05,28.0313 355.2609,28.2031 Q355.4719,28.375 355.8469,28.375 Q356.0695,28.375 356.2258,28.3242 Q356.3156,28.2969 356.4172,28.207 Q356.4836,28.1563 356.5188,28.1406 Q356.5539,28.125 356.5969,28.125 Q356.6789,28.125 356.7375,28.1914 Q356.8,28.2539 356.8,28.3438 Q356.8,28.4297 356.7141,28.5313 Q356.5891,28.6797 356.3898,28.7617 Q356.1281,28.875 355.8078,28.875 Q355.4328,28.875 355.132,28.7266 Q354.8898,28.6094 354.718,28.3555 Q354.55,28.1016 354.55,27.8008 L354.55,27.5273 Q354.55,27.2148 354.6984,26.9414 Q354.8508,26.668 355.1125,26.5234 Q355.3781,26.375 355.675,26.375 Q355.8547,26.375 356.0109,26.4375 Q356.1672,26.5 356.3,26.625 Z " fill="#000000"/><text fill="#000000" font-family="sans-serif" font-size="3" lengthAdjust="spacing" textLength="17.25" x="360.45" y="28.7275">TestFileUtils</text><line style="stroke:#A80036;stroke-width:0.375;" x1="347.125" x2="383.375" y1="31.5" y2="31.5"/><text fill="#000000" font-family="sans-serif" font-size="2.75" lengthAdjust="spacing" textLength="33.75" x="348.375" y="35.3547">+getTestDataToDto(filepath)</text><!--MD5=[bcff1293548765b9bca2a02c7e5ada38]
class ImportTestUI--><rect codeLine="173" fill="#FEFECE" filter="url(#fyvynb4b5giyd)" height="8" id="ImportTestUI" style="stroke:#A80036;stroke-width:0.375;" width="25.75" x="306.875" y="26.25"/><ellipse cx="310.625" cy="30.25" fill="#ADD1B2" rx="2.75" ry="2.75" style="stroke:#A80036;stroke-width:0.25;"/><path d="M311.125,29.375 Q311.1758,29.25 311.2344,29.1875 Q311.293,29.125 311.3594,29.125 Q311.4766,29.125 311.5508,29.1953 Q311.625,29.2656 311.625,29.4297 L311.625,29.8203 Q311.625,29.9844 311.5547,30.0547 Q311.4844,30.125 311.375,30.125 Q311.2773,30.125 311.2148,30.082 Q311.1523,30.0391 311.125,29.9258 Q311.1133,29.8477 311.0703,29.8047 Q310.9922,29.7227 310.8516,29.6758 Q310.7109,29.625 310.5703,29.625 Q310.3945,29.625 310.2461,29.6953 Q310.1016,29.7656 309.9883,29.9219 Q309.875,30.0781 309.875,30.293 L309.875,30.5234 Q309.875,30.7813 310.0859,30.9531 Q310.2969,31.125 310.6719,31.125 Q310.8945,31.125 311.0508,31.0742 Q311.1406,31.0469 311.2422,30.957 Q311.3086,30.9063 311.3438,30.8906 Q311.3789,30.875 311.4219,30.875 Q311.5039,30.875 311.5625,30.9414 Q311.625,31.0039 311.625,31.0938 Q311.625,31.1797 311.5391,31.2813 Q311.4141,31.4297 311.2148,31.5117 Q310.9531,31.625 310.6328,31.625 Q310.2578,31.625 309.957,31.4766 Q309.7148,31.3594 309.543,31.1055 Q309.375,30.8516 309.375,30.5508 L309.375,30.2773 Q309.375,29.9648 309.5234,29.6914 Q309.6758,29.418 309.9375,29.2734 Q310.2031,29.125 310.5,29.125 Q310.6797,29.125 310.8359,29.1875 Q310.9922,29.25 311.125,29.375 Z " fill="#000000"/><text fill="#000000" font-family="sans-serif" font-size="3" lengthAdjust="spacing" textLength="17.75" x="314.125" y="31.4775">ImportTestUI</text><!--MD5=[29e5572c3d09c6b445394b9c6bb55e57]
link Controllers to Model--><path d="M124.8154,111.1197 C124.8627,111.1631 124.9103,111.2061 124.9582,111.2488 C125.0541,111.334 125.1514,111.4178 125.25,111.5 C145.7075,128.5463 204.195,140.1544 257.945,147.5247 C284.82,151.2098 310.5106,153.8355 329.6709,155.5518 C339.2511,156.41 347.1987,157.0408 352.8454,157.463 C355.6688,157.6741 357.917,157.833 359.5064,157.9421 C359.7051,157.9558 359.8935,157.9687 360.0714,157.9807 " fill="none" id="Controllers-to-Model" style="stroke:#A80036;stroke-width:0.25;stroke-dasharray:7.0,7.0;"/><polygon fill="#A80036" points="360.0714,157.9807,357.8944,156.8305,358.8243,157.896,357.7588,158.8259,360.0714,157.9807" style="stroke:#A80036;stroke-width:0.25;"/><!--MD5=[01b5c43ff5db2b3ab7f36f76b228af8f]
link Controllers to DTO--><path d="M124.9747,94.4304 C125.099,94.4428 125.225,94.4554 125.3527,94.4681 C125.6079,94.4936 125.8695,94.5197 126.1375,94.5464 C126.6736,94.5997 127.2351,94.6555 127.8215,94.7136 C128.9943,94.8298 130.2668,94.9554 131.6342,95.0896 C134.369,95.3581 137.4839,95.6612 140.942,95.9936 C154.7745,97.3235 174.0992,99.1233 196.5653,101.0541 C241.4975,104.9156 298.995,109.3013 350.25,111.5 C353.2125,111.6275 561.3675,111.7325 563.75,113.5 C567.8588,116.5469 570.7931,120.7967 572.8823,125.4729 C573.9269,127.811 574.7602,130.2557 575.4233,132.7099 C575.5062,133.0167 575.5865,133.3236 575.6641,133.6305 C575.6835,133.7073 575.7028,133.784 575.7219,133.8607 " fill="none" id="Controllers-to-DTO" style="stroke:#A80036;stroke-width:0.25;stroke-dasharray:7.0,7.0;"/><polygon fill="#A80036" points="575.7219,133.8607,576.1488,131.4358,575.42,132.6477,574.2081,131.9188,575.7219,133.8607" style="stroke:#A80036;stroke-width:0.25;"/><!--MD5=[b67c273f9ea26139499e1bd3b8231806]
link Controllers to Controllers--><path d="M124.75,90.3326 C124.7629,90.3358 124.7758,90.339 124.7886,90.3423 C124.8914,90.3686 124.992,90.3991 125.09,90.4338 C125.4822,90.5727 125.8343,90.7788 126.1294,91.0522 C126.7198,91.5991 127.0824,92.415 127.0824,93.5 C127.0824,94.585 126.7198,95.4009 126.1294,95.9478 C125.8343,96.2212 125.4822,96.4273 125.09,96.5662 C124.992,96.6009 124.8914,96.6314 124.7886,96.6577 C124.7758,96.661 124.7629,96.6642 124.75,96.6674 " fill="none" id="Controllers-to-Controllers" style="stroke:#A80036;stroke-width:0.25;stroke-dasharray:7.0,7.0;"/><polygon fill="#A80036" points="124.75,96.6674,127.1731,97.1047,125.9643,96.3706,126.6983,95.1618,124.75,96.6674" style="stroke:#A80036;stroke-width:0.25;"/><!--MD5=[bb4acd81d18e7ee3505d81d4ee75e8fc]
link UI to Controllers--><path d="M292.5777,31.2733 C292.4946,31.3028 292.4093,31.3331 292.3217,31.3643 C290.9202,31.8626 288.9432,32.5654 286.4729,33.4437 C281.5323,35.2001 274.6186,37.6581 266.3895,40.5836 C249.9312,46.4348 228.2116,54.1564 206.4925,61.8778 C184.7734,69.5992 163.055,77.3204 146.5993,83.1706 C138.3714,86.0957 131.4593,88.553 126.5206,90.3088 C125.9032,90.5283 125.3167,90.7368 124.7623,90.9339 " fill="none" id="UI-to-Controllers" style="stroke:#A80036;stroke-width:0.25;stroke-dasharray:7.0,7.0;"/><polygon fill="#A80036" points="124.7623,90.9339,127.2173,91.1224,125.9401,90.5152,126.5474,89.238,124.7623,90.9339" style="stroke:#A80036;stroke-width:0.25;"/><!--MD5=[9ea89be3b33715d555650644e5bd9dde]
link UI to DTO--><path d="M299.494,49.0222 C299.537,49.0926 299.5804,49.1627 299.6241,49.2325 C299.7992,49.5117 299.9806,49.7864 300.1684,50.0561 C300.9199,51.1345 301.7756,52.1306 302.75,53 C391.6025,132.2725 476.405,32.57 563.75,113.5 C567.5025,116.9769 570.2559,121.445 572.2748,126.2059 C573.2842,128.5864 574.1099,131.0401 574.7851,133.4796 C575.1227,134.6994 575.4226,135.9157 575.689,137.1175 C575.7057,137.1926 575.7222,137.2677 575.7386,137.3427 " fill="none" id="UI-to-DTO" style="stroke:#A80036;stroke-width:0.25;stroke-dasharray:7.0,7.0;"/><polygon fill="#A80036" points="575.7386,137.3427,576.2352,134.9311,575.4717,136.1215,574.2813,135.3581,575.7386,137.3427" style="stroke:#A80036;stroke-width:0.25;"/><!--MD5=[8db2d36dfcc6aadb263e2609429d2d71]
link Model to Stores--><path d="M360.2004,158.6535 C360.0331,158.6562 359.8558,158.6592 359.669,158.6624 C358.174,158.688 356.0601,158.7295 353.4075,158.7944 C348.1023,158.9242 340.6418,159.1481 331.6663,159.5281 C313.7152,160.2881 289.7039,161.6725 264.7534,164.1775 C214.8525,169.1875 161.195,178.68 144.75,196.625 C143.8878,197.5659 143.2075,198.6273 142.6775,199.7653 C142.6112,199.9076 142.5473,200.051 142.4857,200.1956 C142.4549,200.2678 142.4246,200.3404 142.3949,200.4132 C142.3801,200.4496 142.3654,200.4861 142.3508,200.5227 " fill="none" id="Model-Stores" style="stroke:#A80036;stroke-width:0.25;"/><text fill="#000000" font-family="sans-serif" font-size="3.25" lengthAdjust="spacing" textLength="10" x="152.5" y="192.8738">uses &gt;</text><!--MD5=[5fdc64a7607c2e0f896a4f6cf6f56cd1]
link ImportTestUI to TestFileUtils--><path codeLine="185" d="M332.635,30.25 C336.9275,30.25 341.2175,30.25 345.51,30.25 " fill="none" id="ImportTestUI-to-TestFileUtils" style="stroke:#A80036;stroke-width:0.25;stroke-dasharray:7.0,7.0;"/><polygon fill="#A80036" points="346.84,30.25,344.59,29.25,345.59,30.25,344.59,31.25,346.84,30.25" style="stroke:#A80036;stroke-width:0.25;"/><!--MD5=[ebc6b64f71ff29ab8c8b944560b4a5d2]
link ImportTestController to CreateTestOfFileControler--><path codeLine="186" d="M59.8275,103.8075 C55.3475,116.0825 47.83,136.675 43.4525,148.67 " fill="none" id="ImportTestController-to-CreateTestOfFileControler" style="stroke:#A80036;stroke-width:0.25;stroke-dasharray:7.0,7.0;"/><polygon fill="#A80036" points="43.0125,149.8725,44.7229,148.1014,43.4408,148.6982,42.844,147.4161,43.0125,149.8725" style="stroke:#A80036;stroke-width:0.25;"/><!--MD5=[11f505775541bdd9869a5b875923a1bb]
link ImportTestController to RegisterClientController--><path codeLine="187" d="M67.875,103.8075 C73.2125,116.0825 82.17,136.675 87.3875,148.67 " fill="none" id="ImportTestController-to-RegisterClientController" style="stroke:#A80036;stroke-width:0.25;stroke-dasharray:7.0,7.0;"/><polygon fill="#A80036" points="87.91,149.8725,87.9243,147.4103,87.409,148.7273,86.092,148.212,87.91,149.8725" style="stroke:#A80036;stroke-width:0.25;"/><!--MD5=[7e4bc624457760b649895ff2ead938fa]
link Company to Test--><path codeLine="188" d="M476.1375,173.01 C479.9975,179.9475 484.3275,188.51 487.25,196.625 C494.935,217.9575 495.5975,223.9525 498,246.5 C498.9725,255.63 494.725,264.745 489.73,272.0325 " fill="none" id="Company-Test" style="stroke:#A80036;stroke-width:0.25;"/><polygon fill="#000000" points="498.42,221.4073,498.8404,219.0672,497.3846,219.267,498.42,221.4073" style="stroke:#000000;stroke-width:0.25;"/><text fill="#000000" font-family="sans-serif" font-size="3.25" lengthAdjust="spacing" textLength="13.25" x="500.5" y="221.4988">conducts</text><text fill="#000000" font-family="sans-serif" font-size="3.25" lengthAdjust="spacing" textLength="1.75" x="475.3336" y="178.4138">1</text><text fill="#000000" font-family="sans-serif" font-size="3.25" lengthAdjust="spacing" textLength="1.25" x="489.9664" y="269.3915">*</text><!--MD5=[7e4bc624457760b649895ff2ead938fa]
link Company to Test--><path codeLine="193" d="M461.3125,173.07 C458.84,177.8875 455.695,183.085 452,187.25 C447.2125,192.6475 442.065,190.2175 438.75,196.625 C430.095,213.3525 432.64,221.185 438.75,239 C443.035,251.495 452.02,263.2475 460.1225,272.025 " fill="none" id="Company-Test-1" style="stroke:#A80036;stroke-width:0.25;"/><polygon fill="#000000" points="439.985,221.4189,440.7468,219.1666,439.2775,219.1489,439.985,221.4189" style="stroke:#000000;stroke-width:0.25;"/><text fill="#000000" font-family="sans-serif" font-size="3.25" lengthAdjust="spacing" textLength="13.25" x="442.25" y="221.4988">conducts</text><text fill="#000000" font-family="sans-serif" font-size="3.25" lengthAdjust="spacing" textLength="1.75" x="458.7459" y="178.3766">1</text><text fill="#000000" font-family="sans-serif" font-size="3.25" lengthAdjust="spacing" textLength="1.25" x="456.9355" y="269.3831">*</text><!--MD5=[502b51bc079239060389dab43b7d3470]
link Client to Test--><path codeLine="189" d="M472.8225,239.0025 C473.565,249.4375 474.4775,262.285 475.1725,272.0975 " fill="none" id="Client-Test" style="stroke:#A80036;stroke-width:0.25;"/><polygon fill="#000000" points="474.6615,247.5471,474.0887,249.8547,475.5545,249.7506,474.6615,247.5471" style="stroke:#000000;stroke-width:0.25;"/><text fill="#000000" font-family="sans-serif" font-size="3.25" lengthAdjust="spacing" textLength="18.75" x="477" y="250.1238">requested by</text><text fill="#000000" font-family="sans-serif" font-size="3.25" lengthAdjust="spacing" textLength="1.75" x="471.1138" y="244.3086">1</text><text fill="#000000" font-family="sans-serif" font-size="3.25" lengthAdjust="spacing" textLength="1.75" x="473.1967" y="269.464">1</text><!--MD5=[d480452e7d21fe720ba0207568bc7434]
link ClinicalAnalysisLaboratory to Test--><path codeLine="190" d="M434.455,287.5 C442.5775,287.5 451.6325,287.5 459.2325,287.5 " fill="none" id="ClinicalAnalysisLaboratory-Test" style="stroke:#A80036;stroke-width:0.25;"/><polygon fill="#000000" points="441.1875,284.5439,438.9262,283.8092,438.9262,285.2787,441.1875,284.5439" style="stroke:#000000;stroke-width:0.25;"/><text fill="#000000" font-family="sans-serif" font-size="3.25" lengthAdjust="spacing" textLength="12.5" x="442.1875" y="285.8738">performs</text><text fill="#000000" font-family="sans-serif" font-size="3.25" lengthAdjust="spacing" textLength="1.75" x="436.3663" y="286.7135">1</text><text fill="#000000" font-family="sans-serif" font-size="3.25" lengthAdjust="spacing" textLength="5" x="452.2198" y="291.0844">1..*</text><!--MD5=[5b7a9ded131023be416e27d15bcd6d77]
link TestType to Parameter--><path codeLine="191" d="M393.3425,346.5125 C396.93,350.4975 401.3175,354.965 405.75,358.5 C411.4425,363.04 418.4325,367.2125 424.2075,370.3425 " fill="none" id="TestType-Parameter" style="stroke:#A80036;stroke-width:0.25;"/><polygon fill="#000000" points="407.9894,357.0578,406.6486,355.0944,405.7505,356.2575,407.9894,357.0578" style="stroke:#000000;stroke-width:0.25;"/><text fill="#000000" font-family="sans-serif" font-size="3.25" lengthAdjust="spacing" textLength="24" x="409.25" y="357.6238">characterized by</text><text fill="#000000" font-family="sans-serif" font-size="3.25" lengthAdjust="spacing" textLength="1.75" x="392.736" y="351.7801">1</text><text fill="#000000" font-family="sans-serif" font-size="3.25" lengthAdjust="spacing" textLength="5" x="417.2679" y="368.6191">1..*</text><!--MD5=[742a261f27a3dcd734c626287d811acd]
link Company to TestType--><path codeLine="192" d="M462.82,173.045 C460.4025,178.3075 456.9025,183.8075 452,187.25 C447.125,190.6725 444.1,186.6325 438.75,189.25 C418.1625,199.3275 410.4125,183.87 385.75,253 C376.8275,278.0075 380.36,310.0125 383.04,325.9875 " fill="none" id="Company-TestType" style="stroke:#A80036;stroke-width:0.25;"/><polygon fill="#000000" points="388.4219,249.9022,390.1191,248.2371,388.8163,247.5575,388.4219,249.9022" style="stroke:#000000;stroke-width:0.25;"/><text fill="#000000" font-family="sans-serif" font-size="3.25" lengthAdjust="spacing" textLength="13.25" x="391.25" y="250.1238">conducts</text><text fill="#000000" font-family="sans-serif" font-size="3.25" lengthAdjust="spacing" textLength="1.75" x="462.3563" y="178.4531">1</text><text fill="#000000" font-family="sans-serif" font-size="3.25" lengthAdjust="spacing" textLength="1.25" x="381.3457" y="323.2718">*</text><!--MD5=[12d76240d3c3c66074d4ec2ea8bf469c]
link Company to Parameter--><path codeLine="194" d="M482.0175,166.635 C492.86,173.3225 507.26,183.8125 516,196.625 C557.8975,258.05 606.975,302.335 558.25,358.5 C556.42,360.6075 476.9125,370.7975 446.85,374.58 " fill="none" id="Company-Parameter" style="stroke:#A80036;stroke-width:0.25;"/><polygon fill="#000000" points="579.5416,288.7764,580.6431,286.6694,579.1942,286.4243,579.5416,288.7764" style="stroke:#000000;stroke-width:0.25;"/><text fill="#000000" font-family="sans-serif" font-size="3.25" lengthAdjust="spacing" textLength="29.5" x="582" y="288.8738">capable of analysing</text><text fill="#000000" font-family="sans-serif" font-size="3.25" lengthAdjust="spacing" textLength="1.75" x="483.9897" y="166.8136">1</text><text fill="#000000" font-family="sans-serif" font-size="3.25" lengthAdjust="spacing" textLength="1.25" x="448.7585" y="373.3857">*</text><!--MD5=[e981d4f96c4342412d1e68160b30cf70]
link Test to TestType--><path codeLine="195" d="M459.2075,300.8325 C453.0525,304.985 445.8625,309.2175 438.75,312 C433.92,313.89 432.165,312.3375 427.25,314 C418.32,317.02 408.965,321.7125 401.3325,325.99 " fill="none" id="Test-TestType" style="stroke:#A80036;stroke-width:0.25;"/><polygon fill="#000000" points="427.3536,316.7923,429.7203,316.5646,429.1345,315.217,427.3536,316.7923" style="stroke:#000000;stroke-width:0.25;"/><text fill="#000000" font-family="sans-serif" font-size="3.25" lengthAdjust="spacing" textLength="18" x="430.75" y="317.6238">classified as</text><text fill="#000000" font-family="sans-serif" font-size="3.25" lengthAdjust="spacing" textLength="1.25" x="456.0251" y="301.4504">*</text><text fill="#000000" font-family="sans-serif" font-size="3.25" lengthAdjust="spacing" textLength="1.75" x="402.2393" y="323.2747">1</text><!--MD5=[f24c888dadeb846430474fe80a58922b]
link Test to TestParameter--><path codeLine="196" d="M463.4675,302.885 C455.93,311.81 446.7725,322.655 441.0375,329.4425 " fill="none" id="Test-TestParameter" style="stroke:#A80036;stroke-width:0.25;"/><polygon fill="#000000" points="453.6934,317.2489,455.7138,315.9954,454.5912,315.0473,453.6934,317.2489" style="stroke:#000000;stroke-width:0.25;"/><text fill="#000000" font-family="sans-serif" font-size="3.25" lengthAdjust="spacing" textLength="29" x="456.75" y="317.6238">requests analysis of</text><text fill="#000000" font-family="sans-serif" font-size="3.25" lengthAdjust="spacing" textLength="1.75" x="460.1384" y="308.2738">1</text><text fill="#000000" font-family="sans-serif" font-size="3.25" lengthAdjust="spacing" textLength="5" x="436.7399" y="326.7944">1..*</text><!--MD5=[92e8e476cc9e9004a7125f53a120ec97]
link TestParameter to Parameter--><path codeLine="197" d="M435.5,343.0225 C435.5,349.2675 435.5,358.7775 435.5,365.985 " fill="none" id="TestParameter-Parameter" style="stroke:#A80036;stroke-width:0.25;"/><polygon fill="#000000" points="436.75,357.5439,437.4847,355.2827,436.0153,355.2827,436.75,357.5439" style="stroke:#000000;stroke-width:0.25;"/><text fill="#000000" font-family="sans-serif" font-size="3.25" lengthAdjust="spacing" textLength="11.75" x="439" y="357.6238">refers to</text><text fill="#000000" font-family="sans-serif" font-size="3.25" lengthAdjust="spacing" textLength="1.25" x="434.1133" y="348.3294">*</text><text fill="#000000" font-family="sans-serif" font-size="3.25" lengthAdjust="spacing" textLength="1.75" x="433.5996" y="363.2689">1</text><!--MD5=[0e00e25ac6b8c14659aaff2cf7e5df08]
link TestParameter to TestParameterResult--><path codeLine="198" d="M460.52,336.25 C468.6625,336.25 477.5525,336.25 485.1625,336.25 " fill="none" id="TestParameter-TestParameterResult" style="stroke:#A80036;stroke-width:0.25;"/><polygon fill="#000000" points="467.375,333.2939,465.1137,332.5592,465.1137,334.0287,467.375,333.2939" style="stroke:#000000;stroke-width:0.25;"/><text fill="#000000" font-family="sans-serif" font-size="3.25" lengthAdjust="spacing" textLength="12.25" x="468.375" y="334.6238">contains</text><text fill="#000000" font-family="sans-serif" font-size="3.25" lengthAdjust="spacing" textLength="1.75" x="462.5026" y="335.4756">1</text><text fill="#000000" font-family="sans-serif" font-size="3.25" lengthAdjust="spacing" textLength="5.5" x="477.7399" y="339.8113">0..1</text><!--MD5=[b72ac8ab7fb5921fceb5036a3902baea]
link Test to Sample--><path codeLine="199" d="M493.2625,300.4275 C505.7775,309.7525 522.28,322.05 532.24,329.4725 " fill="none" id="Test-Sample" style="stroke:#A80036;stroke-width:0.25;"/><polygon fill="#000000" points="518.5023,317.0408,517.1281,315.1005,516.2501,316.2788,518.5023,317.0408" style="stroke:#000000;stroke-width:0.25;"/><text fill="#000000" font-family="sans-serif" font-size="3.25" lengthAdjust="spacing" textLength="11.25" x="519.75" y="317.6238">collects</text><text fill="#000000" font-family="sans-serif" font-size="3.25" lengthAdjust="spacing" textLength="1.75" x="495.2189" y="301.0011">1</text><text fill="#000000" font-family="sans-serif" font-size="3.25" lengthAdjust="spacing" textLength="5" x="524.7446" y="326.7813">1..*</text><!--MD5=[a457e9ab0335e1a600338213fc53e5bd]
link Sample to MyBarcode--><path codeLine="200" d="M539.9675,343.0225 C538.81,350.3425 536.9425,362.145 535.7825,369.4675 " fill="none" id="Sample-MyBarcode" style="stroke:#A80036;stroke-width:0.25;"/><polygon fill="#000000" points="539.0546,357.5286,540.1338,355.4099,538.6824,355.1803,539.0546,357.5286" style="stroke:#000000;stroke-width:0.25;"/><text fill="#000000" font-family="sans-serif" font-size="3.25" lengthAdjust="spacing" textLength="19.5" x="541.5" y="357.6238">identified with</text><text fill="#000000" font-family="sans-serif" font-size="3.25" lengthAdjust="spacing" textLength="1.75" x="537.8002" y="348.3294">1</text><text fill="#000000" font-family="sans-serif" font-size="3.25" lengthAdjust="spacing" textLength="1.75" x="534.0689" y="366.8252">1</text><!--MD5=[e4260d37eac002eaed16f3dbd7488749]
reverse link Interfaces to Adapters--><path d="M638.5,173.9882 C638.5,174.0918 638.5,174.1958 638.5,174.3001 C638.5,174.7173 638.5,175.1393 638.5,175.5659 C638.5,176.4189 638.5,177.2898 638.5,178.1749 C638.5,181.7154 638.5,185.4841 638.5,189.2528 C638.5,193.0215 638.5,196.7901 638.5,200.3304 C638.5,200.3857 638.5,200.441 638.5,200.4962 " fill="none" id="Interfaces-backto-Adapters" style="stroke:#A80036;stroke-width:0.25;stroke-dasharray:7.0,7.0;"/><polygon fill="#FFFFFF" points="638.5,173.9882,636.75,178.7382,640.25,178.7382,638.5,173.9882" style="stroke:#A80036;stroke-width:0.25;"/><!--MD5=[50a3f65e1c55b1f4fbf6f3ec54f8479b]
link Adapters to APIs--><path d="M640.2126,234.6996 C640.2257,234.7292 640.239,234.7587 640.2523,234.7882 C640.2789,234.8473 640.3058,234.9061 640.3331,234.9648 C640.3877,235.0821 640.4437,235.1986 640.5012,235.3143 C640.731,235.7772 640.9838,236.2268 641.2619,236.6586 C641.818,237.5222 642.475,238.3147 643.25,239 C680.09,271.57 719.9675,216.5725 753,253 C755.5175,255.7763 756.8564,259.2603 757.4444,262.9357 C757.5914,263.8545 757.6914,264.7853 757.7512,265.72 C757.7811,266.1873 757.801,266.6556 757.8116,267.1239 C757.8169,267.358 757.8199,267.5922 757.8207,267.8262 " fill="none" id="Adapters-to-APIs" style="stroke:#A80036;stroke-width:0.25;"/><polygon fill="#A80036" points="757.8207,267.8262,758.813,265.5728,757.8164,266.5762,756.813,265.5796,757.8207,267.8262" style="stroke:#A80036;stroke-width:0.25;"/><!--MD5=[d1d8997231ecd729aee5994c14758c82]
link ClientStore to ParameterStore--><!--MD5=[7340b417511c250d567e92d4709250ea]
link ParameterStore to SampleStore--><!--MD5=[88843d74b8637ddbd4f94fc1f534b2f4]
link ClientStore to TestStore--><!--MD5=[b0a70a502b300066f8ea063b3afafece]
link TestStore to ClinicalAnalysisLaboratoryStore--><!--MD5=[e0c74da7971ad49ccb99dd30d5717ca3]
link ClinicalAnalysisLaboratoryStore to TestTypeStore--><!--MD5=[aa13b6f17ebdc2e607fe72cf4ff1663b]
@startuml
hide empty methods
hide empty attributes
/'left to right direction'/
skinparam classAttributeIconSize 0

package Core {

package Domain {

package Adapters {
    class BarbecueAdapter {
    +MyBarcode getBarcode(barcodeNumber)
    +saveImageBarcode(myBarcode, code)
    }
    }

package Interfaces {
    interface ExternalAPI <<interface>> {
    +MyBarcode getBarcode(barcodeNumber)
    +saveImageBarcode(myBarcode, code)
    }
}
package Model {

       class ClinicalAnalysisLaboratory{
               - laboratoryID
               }

               class Test{
                   - code
                   - NhsCode
                   - dateOfTestRegistration
                   - dateOfSamplesCollection
                   - dateOfChemicalAnalysis
                   - dateOfDiagnosis
               }

        class Company {
                    -designation : String
                    +getTestTypeStore()
                    +getParameterStore()
                    +getTestStore()
                    +getCalStore()
                }
                class TestType {
                    - code : String
                    - description : String
                    - collectingMethod : String
                    }

                class Sample {
                -myBarcode
                }

                class Parameter {
                  -code
                  -shortName
                  -description
                }
                class TestParameter{
                    +TestParameter(parameter: Parameter)
                }
                class TestParameterResult{
                - createdAt
                - value
                - metric
                }

                class Client{
                - name
                - citizenCardNum
                - nhsNum
                - birthDate
                - sex
                - taxIdNum
                - phoneNum
                - email
                }

                class MyBarcode {
                - barcodeNumber
                }

}

package Stores {

    class ClientStore {
               +getClientByTinNumber(tinNumber)
            }

            class ParameterStore {
                    +getParamsByCategories(List<String> selectedCategoriesCodes)
                    +getParamsByCategory(String category)
                }

            class SampleStore {
                +createSample(myBarcode)
                +validateSample(sample)
            }

            class TestStore {
                +createTest(String nhsCode, Client associatedClient,\n TestType selectedTestType, List<Parameter>selectedParamsList)
                +validateTest(test)
                +saveTest(test)
            }

            class ClinicalAnalysisLaboratoryStore {
                +getCalByCode(labId)
            }

            class TestTypeStore {
                +getTestTypeByTinNumber(code)
                }

}


package DTO {

    class TestFileDTO{
               -ClientDTO
               -NhsCode
               -TestParameterCodes
               -TestParameterResult
               - dateOfTestRegistration
               - dateOfSamplesCollection
               - dateOfChemicalAnalysis
               - dateOfDiagnosis
            }
}

}
package Controllers {

    class CreateTestOfFileControler{
        +createTest(TestFileDto)
        +saveTest()
        }

    class ImportTestController{
            +createTestsFromFile(TestFileDto)
            +saveTest()
            +addSample()
        }

    class RegisterClientController {
      +registerClient(ClientDto)
      +saveClient()
    }

}

package ThirdParty {
class barcode
package APIs {
    class BarbecueAPI{
    +Barcode createUPCA(data)
    +BufferedImage saveJPEG(barcode, file)
    }
    }
}

}
package UI {
    package Utils{
        class TestFileUtils {
        +getTestDataToDto(filepath)

        }
    }
    package GUI {
     class ImportTestUI{
      }
    }

}

Controllers ..> Model
Controllers ..> DTO
Controllers ..> Controllers
UI ..> Controllers
UI ..> DTO
Model - - Stores : uses >
ImportTestUI .> TestFileUtils
ImportTestController ..> CreateTestOfFileControler
ImportTestController ..> RegisterClientController
Company "1" - - - "*" Test : conducts >
Client "1" - - "1" Test : requested by <
ClinicalAnalysisLaboratory "1" - "1..*" Test : performs >
TestType "1" - - "1..*" Parameter : characterized by >
Company "1" - - "*" TestType : conducts >
Company "1" - - "*" Test : conducts >
Company "1" - "*" Parameter : capable of analysing >
Test "*" - - "1" TestType : classified as >
Test "1" - - "1..*" TestParameter : requests analysis of >
TestParameter "*" - - "1" Parameter : refers to >
TestParameter "1" - "0..1" TestParameterResult : contains >
Test"1" - - "1..*" Sample : collects >
Sample "1" - - "1" MyBarcode : identified with >
Interfaces <|.. Adapters
Adapters - -> APIs

@enduml

@startuml
hide empty methods
hide empty attributes
skinparam classAttributeIconSize 0

package Core {

package Domain {

package Adapters {
    class BarbecueAdapter {
    +MyBarcode getBarcode(barcodeNumber)
    +saveImageBarcode(myBarcode, code)
    }
    }

package Interfaces {
    interface ExternalAPI <<interface>> {
    +MyBarcode getBarcode(barcodeNumber)
    +saveImageBarcode(myBarcode, code)
    }
}
package Model {

       class ClinicalAnalysisLaboratory{
               - laboratoryID
               }

               class Test{
                   - code
                   - NhsCode
                   - dateOfTestRegistration
                   - dateOfSamplesCollection
                   - dateOfChemicalAnalysis
                   - dateOfDiagnosis
               }

        class Company {
                    -designation : String
                    +getTestTypeStore()
                    +getParameterStore()
                    +getTestStore()
                    +getCalStore()
                }
                class TestType {
                    - code : String
                    - description : String
                    - collectingMethod : String
                    }

                class Sample {
                -myBarcode
                }

                class Parameter {
                  -code
                  -shortName
                  -description
                }
                class TestParameter{
                    +TestParameter(parameter: Parameter)
                }
                class TestParameterResult{
                - createdAt
                - value
                - metric
                }

                class Client{
                - name
                - citizenCardNum
                - nhsNum
                - birthDate
                - sex
                - taxIdNum
                - phoneNum
                - email
                }

                class MyBarcode {
                - barcodeNumber
                }

}

package Stores {

    class ClientStore {
               +getClientByTinNumber(tinNumber)
            }

            class ParameterStore {
                    +getParamsByCategories(List<String> selectedCategoriesCodes)
                    +getParamsByCategory(String category)
                }

            class SampleStore {
                +createSample(myBarcode)
                +validateSample(sample)
            }

            class TestStore {
                +createTest(String nhsCode, Client associatedClient,\n TestType selectedTestType, List<Parameter>selectedParamsList)
                +validateTest(test)
                +saveTest(test)
            }

            class ClinicalAnalysisLaboratoryStore {
                +getCalByCode(labId)
            }

            class TestTypeStore {
                +getTestTypeByTinNumber(code)
                }

}


package DTO {

    class TestFileDTO{
               -ClientDTO
               -NhsCode
               -TestParameterCodes
               -TestParameterResult
               - dateOfTestRegistration
               - dateOfSamplesCollection
               - dateOfChemicalAnalysis
               - dateOfDiagnosis
            }
}

}
package Controllers {

    class CreateTestOfFileControler{
        +createTest(TestFileDto)
        +saveTest()
        }

    class ImportTestController{
            +createTestsFromFile(TestFileDto)
            +saveTest()
            +addSample()
        }

    class RegisterClientController {
      +registerClient(ClientDto)
      +saveClient()
    }

}

package ThirdParty {
class barcode
package APIs {
    class BarbecueAPI{
    +Barcode createUPCA(data)
    +BufferedImage saveJPEG(barcode, file)
    }
    }
}

}
package UI {
    package Utils{
        class TestFileUtils {
        +getTestDataToDto(filepath)

        }
    }
    package GUI {
     class ImportTestUI{
      }
    }

}

Controllers ..> Model
Controllers ..> DTO
Controllers ..> Controllers
UI ..> Controllers
UI ..> DTO
Model - - Stores : uses >
ImportTestUI .> TestFileUtils
ImportTestController ..> CreateTestOfFileControler
ImportTestController ..> RegisterClientController
Company "1" - - - "*" Test : conducts >
Client "1" - - "1" Test : requested by <
ClinicalAnalysisLaboratory "1" - "1..*" Test : performs >
TestType "1" - - "1..*" Parameter : characterized by >
Company "1" - - "*" TestType : conducts >
Company "1" - - "*" Test : conducts >
Company "1" - "*" Parameter : capable of analysing >
Test "*" - - "1" TestType : classified as >
Test "1" - - "1..*" TestParameter : requests analysis of >
TestParameter "*" - - "1" Parameter : refers to >
TestParameter "1" - "0..1" TestParameterResult : contains >
Test"1" - - "1..*" Sample : collects >
Sample "1" - - "1" MyBarcode : identified with >
Interfaces <|.. Adapters
Adapters - -> APIs

@enduml

PlantUML version 1.2021.00(Sun Jan 10 10:25:05 GMT 2021)
(GPL source distribution)
Java Runtime: OpenJDK Runtime Environment
JVM: OpenJDK 64-Bit Server VM
Default Encoding: Cp1252
Language: pt
Country: BR
--></g></svg>