<?xml version="1.0" encoding="UTF-8" standalone="no"?><svg xmlns="http://www.w3.org/2000/svg" xmlns:xlink="http://www.w3.org/1999/xlink" contentScriptType="application/ecmascript" contentStyleType="text/css" height="336px" preserveAspectRatio="none" style="width:1224px;height:336px;" version="1.1" viewBox="0 0 1224 336" width="1224.75px" zoomAndPan="magnify"><defs><filter height="300%" id="fz0oqkymcoo0t" width="300%" x="-1" y="-1"><feGaussianBlur result="blurOut" stdDeviation="1.5"/><feColorMatrix in="blurOut" result="blurOut2" type="matrix" values="0 0 0 0 0 0 0 0 0 0 0 0 0 0 0 0 0 0 .4 0"/><feOffset dx="3.0" dy="3.0" in="blurOut2" result="blurOut3"/><feBlend in="SourceGraphic" in2="blurOut3" mode="normal"/></filter></defs><g><!--MD5=[df38be88ccee13e832d6fafd6288a4ca]
class Test--><rect codeLine="8" fill="#FEFECE" filter="url(#fz0oqkymcoo0t)" height="92.2617" id="Test" style="stroke:#A80036;stroke-width:1.125;" width="102" x="447.75" y="147"/><ellipse cx="486.5625" cy="159" fill="#ADD1B2" rx="8.25" ry="8.25" style="stroke:#A80036;stroke-width:0.75;"/><path d="M488.0625,156.375 Q488.2148,156 488.3906,155.8125 Q488.5664,155.625 488.7656,155.625 Q489.1172,155.625 489.3398,155.8359 Q489.5625,156.0469 489.5625,156.5391 L489.5625,157.7109 Q489.5625,158.2031 489.3516,158.4141 Q489.1406,158.625 488.8125,158.625 Q488.5195,158.625 488.332,158.4961 Q488.1445,158.3672 488.0625,158.0273 Q488.0273,157.793 487.8984,157.6641 Q487.6641,157.418 487.2422,157.2773 Q486.8203,157.125 486.3984,157.125 Q485.8711,157.125 485.4258,157.3359 Q484.9922,157.5469 484.6523,158.0156 Q484.3125,158.4844 484.3125,159.1289 L484.3125,159.8203 Q484.3125,160.5938 484.9453,161.1094 Q485.5781,161.625 486.7031,161.625 Q487.3711,161.625 487.8398,161.4727 Q488.1094,161.3906 488.4141,161.1211 Q488.6133,160.9688 488.7188,160.9219 Q488.8242,160.875 488.9531,160.875 Q489.1992,160.875 489.375,161.0742 Q489.5625,161.2617 489.5625,161.5313 Q489.5625,161.7891 489.3047,162.0938 Q488.9297,162.5391 488.332,162.7852 Q487.5469,163.125 486.5859,163.125 Q485.4609,163.125 484.5586,162.6797 Q483.832,162.3281 483.3164,161.5664 Q482.8125,160.8047 482.8125,159.9023 L482.8125,159.082 Q482.8125,158.1445 483.2578,157.3242 Q483.7148,156.5039 484.5,156.0703 Q485.2969,155.625 486.1875,155.625 Q486.7266,155.625 487.1953,155.8125 Q487.6641,156 488.0625,156.375 Z " fill="#000000"/><text fill="#000000" font-family="sans-serif" font-size="9" lengthAdjust="spacing" textLength="18" x="501.9375" y="162.6826">Test</text><line style="stroke:#A80036;stroke-width:1.125;" x1="448.5" x2="549" y1="171" y2="171"/><text fill="#000000" font-family="sans-serif" font-size="8.25" lengthAdjust="spacing" textLength="21" x="452.25" y="182.5642">-code</text><text fill="#000000" font-family="sans-serif" font-size="8.25" lengthAdjust="spacing" textLength="36" x="452.25" y="192.9412">-NhsCode</text><text fill="#000000" font-family="sans-serif" font-size="8.25" lengthAdjust="spacing" textLength="86.25" x="452.25" y="203.3181">-dateOfTestRegistration</text><text fill="#000000" font-family="sans-serif" font-size="8.25" lengthAdjust="spacing" textLength="93" x="452.25" y="213.6951">-dateOfSamplesCollection</text><text fill="#000000" font-family="sans-serif" font-size="8.25" lengthAdjust="spacing" textLength="91.5" x="452.25" y="224.072">-dateOfChemicalAnalysis</text><text fill="#000000" font-family="sans-serif" font-size="8.25" lengthAdjust="spacing" textLength="63" x="452.25" y="234.449">-dateOfDiagnosis</text><!--MD5=[02e4b9b7573f1156f41e60aa5b4e25a4]
class Company--><rect codeLine="17" fill="#FEFECE" filter="url(#fz0oqkymcoo0t)" height="40.377" id="Company" style="stroke:#A80036;stroke-width:1.125;" width="63.75" x="31.5" y="212.625"/><ellipse cx="42.75" cy="224.625" fill="#ADD1B2" rx="8.25" ry="8.25" style="stroke:#A80036;stroke-width:0.75;"/><path d="M44.25,222 Q44.4023,221.625 44.5781,221.4375 Q44.7539,221.25 44.9531,221.25 Q45.3047,221.25 45.5273,221.4609 Q45.75,221.6719 45.75,222.1641 L45.75,223.3359 Q45.75,223.8281 45.5391,224.0391 Q45.3281,224.25 45,224.25 Q44.707,224.25 44.5195,224.1211 Q44.332,223.9922 44.25,223.6523 Q44.2148,223.418 44.0859,223.2891 Q43.8516,223.043 43.4297,222.9023 Q43.0078,222.75 42.5859,222.75 Q42.0586,222.75 41.6133,222.9609 Q41.1797,223.1719 40.8398,223.6406 Q40.5,224.1094 40.5,224.7539 L40.5,225.4453 Q40.5,226.2188 41.1328,226.7344 Q41.7656,227.25 42.8906,227.25 Q43.5586,227.25 44.0273,227.0977 Q44.2969,227.0156 44.6016,226.7461 Q44.8008,226.5938 44.9063,226.5469 Q45.0117,226.5 45.1406,226.5 Q45.3867,226.5 45.5625,226.6992 Q45.75,226.8867 45.75,227.1563 Q45.75,227.4141 45.4922,227.7188 Q45.1172,228.1641 44.5195,228.4102 Q43.7344,228.75 42.7734,228.75 Q41.6484,228.75 40.7461,228.3047 Q40.0195,227.9531 39.5039,227.1914 Q39,226.4297 39,225.5273 L39,224.707 Q39,223.7695 39.4453,222.9492 Q39.9023,222.1289 40.6875,221.6953 Q41.4844,221.25 42.375,221.25 Q42.9141,221.25 43.3828,221.4375 Q43.8516,221.625 44.25,222 Z " fill="#000000"/><text fill="#000000" font-family="sans-serif" font-size="9" lengthAdjust="spacing" textLength="39.75" x="53.25" y="228.3076">Company</text><line style="stroke:#A80036;stroke-width:1.125;" x1="32.25" x2="94.5" y1="236.625" y2="236.625"/><text fill="#000000" font-family="sans-serif" font-size="8.25" lengthAdjust="spacing" textLength="44.25" x="36" y="248.1892">-designation</text><!--MD5=[36afb6bbd95a8ac778c4537c55a683d5]
class ParameterCategory--><rect codeLine="21" fill="#FEFECE" filter="url(#fz0oqkymcoo0t)" height="50.7539" id="ParameterCategory" style="stroke:#A80036;stroke-width:1.125;" width="104.25" x="1110" y="247.875"/><ellipse cx="1121.25" cy="259.875" fill="#ADD1B2" rx="8.25" ry="8.25" style="stroke:#A80036;stroke-width:0.75;"/><path d="M1122.75,257.25 Q1122.9023,256.875 1123.0781,256.6875 Q1123.2539,256.5 1123.4531,256.5 Q1123.8047,256.5 1124.0273,256.7109 Q1124.25,256.9219 1124.25,257.4141 L1124.25,258.5859 Q1124.25,259.0781 1124.0391,259.2891 Q1123.8281,259.5 1123.5,259.5 Q1123.207,259.5 1123.0195,259.3711 Q1122.832,259.2422 1122.75,258.9023 Q1122.7148,258.668 1122.5859,258.5391 Q1122.3516,258.293 1121.9297,258.1523 Q1121.5078,258 1121.0859,258 Q1120.5586,258 1120.1133,258.2109 Q1119.6797,258.4219 1119.3398,258.8906 Q1119,259.3594 1119,260.0039 L1119,260.6953 Q1119,261.4688 1119.6328,261.9844 Q1120.2656,262.5 1121.3906,262.5 Q1122.0586,262.5 1122.5273,262.3477 Q1122.7969,262.2656 1123.1016,261.9961 Q1123.3008,261.8438 1123.4063,261.7969 Q1123.5117,261.75 1123.6406,261.75 Q1123.8867,261.75 1124.0625,261.9492 Q1124.25,262.1367 1124.25,262.4063 Q1124.25,262.6641 1123.9922,262.9688 Q1123.6172,263.4141 1123.0195,263.6602 Q1122.2344,264 1121.2734,264 Q1120.1484,264 1119.2461,263.5547 Q1118.5195,263.2031 1118.0039,262.4414 Q1117.5,261.6797 1117.5,260.7773 L1117.5,259.957 Q1117.5,259.0195 1117.9453,258.1992 Q1118.4023,257.3789 1119.1875,256.9453 Q1119.9844,256.5 1120.875,256.5 Q1121.4141,256.5 1121.8828,256.6875 Q1122.3516,256.875 1122.75,257.25 Z " fill="#000000"/><text fill="#000000" font-family="sans-serif" font-size="9" lengthAdjust="spacing" textLength="80.25" x="1131.75" y="263.5576">ParameterCategory</text><line style="stroke:#A80036;stroke-width:1.125;" x1="1110.75" x2="1213.5" y1="271.875" y2="271.875"/><text fill="#000000" font-family="sans-serif" font-size="8.25" lengthAdjust="spacing" textLength="21" x="1114.5" y="283.4392">-code</text><text fill="#000000" font-family="sans-serif" font-size="8.25" lengthAdjust="spacing" textLength="22.5" x="1114.5" y="293.8162">-name</text><!--MD5=[052425de1c0eb6cc1c1b48342b0bb88f]
class LaboratoryCoordinator--><rect codeLine="25" fill="#FEFECE" filter="url(#fz0oqkymcoo0t)" height="24" id="LaboratoryCoordinator" style="stroke:#A80036;stroke-width:1.125;" width="116.25" x="5.25" y="154.875"/><ellipse cx="16.5" cy="166.875" fill="#ADD1B2" rx="8.25" ry="8.25" style="stroke:#A80036;stroke-width:0.75;"/><path d="M18,164.25 Q18.1523,163.875 18.3281,163.6875 Q18.5039,163.5 18.7031,163.5 Q19.0547,163.5 19.2773,163.7109 Q19.5,163.9219 19.5,164.4141 L19.5,165.5859 Q19.5,166.0781 19.2891,166.2891 Q19.0781,166.5 18.75,166.5 Q18.457,166.5 18.2695,166.3711 Q18.082,166.2422 18,165.9023 Q17.9648,165.668 17.8359,165.5391 Q17.6016,165.293 17.1797,165.1523 Q16.7578,165 16.3359,165 Q15.8086,165 15.3633,165.2109 Q14.9297,165.4219 14.5898,165.8906 Q14.25,166.3594 14.25,167.0039 L14.25,167.6953 Q14.25,168.4688 14.8828,168.9844 Q15.5156,169.5 16.6406,169.5 Q17.3086,169.5 17.7773,169.3477 Q18.0469,169.2656 18.3516,168.9961 Q18.5508,168.8438 18.6563,168.7969 Q18.7617,168.75 18.8906,168.75 Q19.1367,168.75 19.3125,168.9492 Q19.5,169.1367 19.5,169.4063 Q19.5,169.6641 19.2422,169.9688 Q18.8672,170.4141 18.2695,170.6602 Q17.4844,171 16.5234,171 Q15.3984,171 14.4961,170.5547 Q13.7695,170.2031 13.2539,169.4414 Q12.75,168.6797 12.75,167.7773 L12.75,166.957 Q12.75,166.0195 13.1953,165.1992 Q13.6523,164.3789 14.4375,163.9453 Q15.2344,163.5 16.125,163.5 Q16.6641,163.5 17.1328,163.6875 Q17.6016,163.875 18,164.25 Z " fill="#000000"/><text fill="#000000" font-family="sans-serif" font-size="9" lengthAdjust="spacing" textLength="92.25" x="27" y="170.5576">LaboratoryCoordinator</text><!--MD5=[63dd87716ef75a5caca5dce59428e94a]
class File--><rect codeLine="26" fill="#FEFECE" filter="url(#fz0oqkymcoo0t)" height="24" id="File" style="stroke:#A80036;stroke-width:1.125;" width="39" x="263.625" y="111.375"/><ellipse cx="274.875" cy="123.375" fill="#ADD1B2" rx="8.25" ry="8.25" style="stroke:#A80036;stroke-width:0.75;"/><path d="M276.375,120.75 Q276.5273,120.375 276.7031,120.1875 Q276.8789,120 277.0781,120 Q277.4297,120 277.6523,120.2109 Q277.875,120.4219 277.875,120.9141 L277.875,122.0859 Q277.875,122.5781 277.6641,122.7891 Q277.4531,123 277.125,123 Q276.832,123 276.6445,122.8711 Q276.457,122.7422 276.375,122.4023 Q276.3398,122.168 276.2109,122.0391 Q275.9766,121.793 275.5547,121.6523 Q275.1328,121.5 274.7109,121.5 Q274.1836,121.5 273.7383,121.7109 Q273.3047,121.9219 272.9648,122.3906 Q272.625,122.8594 272.625,123.5039 L272.625,124.1953 Q272.625,124.9688 273.2578,125.4844 Q273.8906,126 275.0156,126 Q275.6836,126 276.1523,125.8477 Q276.4219,125.7656 276.7266,125.4961 Q276.9258,125.3438 277.0313,125.2969 Q277.1367,125.25 277.2656,125.25 Q277.5117,125.25 277.6875,125.4492 Q277.875,125.6367 277.875,125.9063 Q277.875,126.1641 277.6172,126.4688 Q277.2422,126.9141 276.6445,127.1602 Q275.8594,127.5 274.8984,127.5 Q273.7734,127.5 272.8711,127.0547 Q272.1445,126.7031 271.6289,125.9414 Q271.125,125.1797 271.125,124.2773 L271.125,123.457 Q271.125,122.5195 271.5703,121.6992 Q272.0273,120.8789 272.8125,120.4453 Q273.6094,120 274.5,120 Q275.0391,120 275.5078,120.1875 Q275.9766,120.375 276.375,120.75 Z " fill="#000000"/><text fill="#000000" font-family="sans-serif" font-size="9" lengthAdjust="spacing" textLength="15" x="285.375" y="127.0576">File</text><!--MD5=[9681492165142af2a4a3a169d90ee8d4]
class Sample--><rect codeLine="27" fill="#FEFECE" filter="url(#fz0oqkymcoo0t)" height="40.377" id="Sample" style="stroke:#A80036;stroke-width:1.125;" width="56.25" x="707.625" y="195.375"/><ellipse cx="718.875" cy="207.375" fill="#ADD1B2" rx="8.25" ry="8.25" style="stroke:#A80036;stroke-width:0.75;"/><path d="M720.375,204.75 Q720.5273,204.375 720.7031,204.1875 Q720.8789,204 721.0781,204 Q721.4297,204 721.6523,204.2109 Q721.875,204.4219 721.875,204.9141 L721.875,206.0859 Q721.875,206.5781 721.6641,206.7891 Q721.4531,207 721.125,207 Q720.832,207 720.6445,206.8711 Q720.457,206.7422 720.375,206.4023 Q720.3398,206.168 720.2109,206.0391 Q719.9766,205.793 719.5547,205.6523 Q719.1328,205.5 718.7109,205.5 Q718.1836,205.5 717.7383,205.7109 Q717.3047,205.9219 716.9648,206.3906 Q716.625,206.8594 716.625,207.5039 L716.625,208.1953 Q716.625,208.9688 717.2578,209.4844 Q717.8906,210 719.0156,210 Q719.6836,210 720.1523,209.8477 Q720.4219,209.7656 720.7266,209.4961 Q720.9258,209.3438 721.0313,209.2969 Q721.1367,209.25 721.2656,209.25 Q721.5117,209.25 721.6875,209.4492 Q721.875,209.6367 721.875,209.9063 Q721.875,210.1641 721.6172,210.4688 Q721.2422,210.9141 720.6445,211.1602 Q719.8594,211.5 718.8984,211.5 Q717.7734,211.5 716.8711,211.0547 Q716.1445,210.7031 715.6289,209.9414 Q715.125,209.1797 715.125,208.2773 L715.125,207.457 Q715.125,206.5195 715.5703,205.6992 Q716.0273,204.8789 716.8125,204.4453 Q717.6094,204 718.5,204 Q719.0391,204 719.5078,204.1875 Q719.9766,204.375 720.375,204.75 Z " fill="#000000"/><text fill="#000000" font-family="sans-serif" font-size="9" lengthAdjust="spacing" textLength="32.25" x="729.375" y="211.0576">Sample</text><line style="stroke:#A80036;stroke-width:1.125;" x1="708.375" x2="763.125" y1="219.375" y2="219.375"/><text fill="#000000" font-family="sans-serif" font-size="8.25" lengthAdjust="spacing" textLength="33.75" x="712.125" y="230.9392">-barCode</text><!--MD5=[ed6624c6556d5e7b1bd23032162d20b7]
class Client--><rect codeLine="31" fill="#FEFECE" filter="url(#fz0oqkymcoo0t)" height="113.0156" id="Client" style="stroke:#A80036;stroke-width:1.125;" width="68.25" x="701.625" y="5.25"/><ellipse cx="721.9875" cy="17.25" fill="#ADD1B2" rx="8.25" ry="8.25" style="stroke:#A80036;stroke-width:0.75;"/><path d="M723.4875,14.625 Q723.6398,14.25 723.8156,14.0625 Q723.9914,13.875 724.1906,13.875 Q724.5422,13.875 724.7648,14.0859 Q724.9875,14.2969 724.9875,14.7891 L724.9875,15.9609 Q724.9875,16.4531 724.7766,16.6641 Q724.5656,16.875 724.2375,16.875 Q723.9445,16.875 723.757,16.7461 Q723.5695,16.6172 723.4875,16.2773 Q723.4523,16.043 723.3234,15.9141 Q723.0891,15.668 722.6672,15.5273 Q722.2453,15.375 721.8234,15.375 Q721.2961,15.375 720.8508,15.5859 Q720.4172,15.7969 720.0773,16.2656 Q719.7375,16.7344 719.7375,17.3789 L719.7375,18.0703 Q719.7375,18.8438 720.3703,19.3594 Q721.0031,19.875 722.1281,19.875 Q722.7961,19.875 723.2648,19.7227 Q723.5344,19.6406 723.8391,19.3711 Q724.0383,19.2188 724.1438,19.1719 Q724.2492,19.125 724.3781,19.125 Q724.6242,19.125 724.8,19.3242 Q724.9875,19.5117 724.9875,19.7813 Q724.9875,20.0391 724.7297,20.3438 Q724.3547,20.7891 723.757,21.0352 Q722.9719,21.375 722.0109,21.375 Q720.8859,21.375 719.9836,20.9297 Q719.257,20.5781 718.7414,19.8164 Q718.2375,19.0547 718.2375,18.1523 L718.2375,17.332 Q718.2375,16.3945 718.6828,15.5742 Q719.1398,14.7539 719.925,14.3203 Q720.7219,13.875 721.6125,13.875 Q722.1516,13.875 722.6203,14.0625 Q723.0891,14.25 723.4875,14.625 Z " fill="#000000"/><text fill="#000000" font-family="sans-serif" font-size="9" lengthAdjust="spacing" textLength="24" x="734.5125" y="20.9326">Client</text><line style="stroke:#A80036;stroke-width:1.125;" x1="702.375" x2="769.125" y1="29.25" y2="29.25"/><text fill="#000000" font-family="sans-serif" font-size="8.25" lengthAdjust="spacing" textLength="22.5" x="706.125" y="40.8142">-name</text><text fill="#000000" font-family="sans-serif" font-size="8.25" lengthAdjust="spacing" textLength="59.25" x="706.125" y="51.1912">-citizenCardNum</text><text fill="#000000" font-family="sans-serif" font-size="8.25" lengthAdjust="spacing" textLength="32.25" x="706.125" y="61.5681">-nhsNum</text><text fill="#000000" font-family="sans-serif" font-size="8.25" lengthAdjust="spacing" textLength="35.25" x="706.125" y="71.9451">-birthDate</text><text fill="#000000" font-family="sans-serif" font-size="8.25" lengthAdjust="spacing" textLength="16.5" x="706.125" y="82.322">-sex</text><text fill="#000000" font-family="sans-serif" font-size="8.25" lengthAdjust="spacing" textLength="36" x="706.125" y="92.699">-taxIdNum</text><text fill="#000000" font-family="sans-serif" font-size="8.25" lengthAdjust="spacing" textLength="41.25" x="706.125" y="103.0759">-phoneNum</text><text fill="#000000" font-family="sans-serif" font-size="8.25" lengthAdjust="spacing" textLength="21" x="706.125" y="113.4529">-email</text><!--MD5=[0f07739f46effee96e095e9c408da841]
class TestParameter--><rect codeLine="41" fill="#FEFECE" filter="url(#fz0oqkymcoo0t)" height="24" id="TestParameter" style="stroke:#A80036;stroke-width:1.125;" width="85.5" x="693" y="145.125"/><ellipse cx="704.25" cy="157.125" fill="#ADD1B2" rx="8.25" ry="8.25" style="stroke:#A80036;stroke-width:0.75;"/><path d="M705.75,154.5 Q705.9023,154.125 706.0781,153.9375 Q706.2539,153.75 706.4531,153.75 Q706.8047,153.75 707.0273,153.9609 Q707.25,154.1719 707.25,154.6641 L707.25,155.8359 Q707.25,156.3281 707.0391,156.5391 Q706.8281,156.75 706.5,156.75 Q706.207,156.75 706.0195,156.6211 Q705.832,156.4922 705.75,156.1523 Q705.7148,155.918 705.5859,155.7891 Q705.3516,155.543 704.9297,155.4023 Q704.5078,155.25 704.0859,155.25 Q703.5586,155.25 703.1133,155.4609 Q702.6797,155.6719 702.3398,156.1406 Q702,156.6094 702,157.2539 L702,157.9453 Q702,158.7188 702.6328,159.2344 Q703.2656,159.75 704.3906,159.75 Q705.0586,159.75 705.5273,159.5977 Q705.7969,159.5156 706.1016,159.2461 Q706.3008,159.0938 706.4063,159.0469 Q706.5117,159 706.6406,159 Q706.8867,159 707.0625,159.1992 Q707.25,159.3867 707.25,159.6563 Q707.25,159.9141 706.9922,160.2188 Q706.6172,160.6641 706.0195,160.9102 Q705.2344,161.25 704.2734,161.25 Q703.1484,161.25 702.2461,160.8047 Q701.5195,160.4531 701.0039,159.6914 Q700.5,158.9297 700.5,158.0273 L700.5,157.207 Q700.5,156.2695 700.9453,155.4492 Q701.4023,154.6289 702.1875,154.1953 Q702.9844,153.75 703.875,153.75 Q704.4141,153.75 704.8828,153.9375 Q705.3516,154.125 705.75,154.5 Z " fill="#000000"/><text fill="#000000" font-family="sans-serif" font-size="9" lengthAdjust="spacing" textLength="61.5" x="714.75" y="160.8076">TestParameter</text><!--MD5=[4e608140b854dae633589343bce77383]
class TestParameterResult--><rect codeLine="42" fill="#FEFECE" filter="url(#fz0oqkymcoo0t)" height="61.1309" id="TestParameterResult" style="stroke:#A80036;stroke-width:1.125;" width="112.5" x="871.5" y="193.875"/><ellipse cx="882.75" cy="205.875" fill="#ADD1B2" rx="8.25" ry="8.25" style="stroke:#A80036;stroke-width:0.75;"/><path d="M884.25,203.25 Q884.4023,202.875 884.5781,202.6875 Q884.7539,202.5 884.9531,202.5 Q885.3047,202.5 885.5273,202.7109 Q885.75,202.9219 885.75,203.4141 L885.75,204.5859 Q885.75,205.0781 885.5391,205.2891 Q885.3281,205.5 885,205.5 Q884.707,205.5 884.5195,205.3711 Q884.332,205.2422 884.25,204.9023 Q884.2148,204.668 884.0859,204.5391 Q883.8516,204.293 883.4297,204.1523 Q883.0078,204 882.5859,204 Q882.0586,204 881.6133,204.2109 Q881.1797,204.4219 880.8398,204.8906 Q880.5,205.3594 880.5,206.0039 L880.5,206.6953 Q880.5,207.4688 881.1328,207.9844 Q881.7656,208.5 882.8906,208.5 Q883.5586,208.5 884.0273,208.3477 Q884.2969,208.2656 884.6016,207.9961 Q884.8008,207.8438 884.9063,207.7969 Q885.0117,207.75 885.1406,207.75 Q885.3867,207.75 885.5625,207.9492 Q885.75,208.1367 885.75,208.4063 Q885.75,208.6641 885.4922,208.9688 Q885.1172,209.4141 884.5195,209.6602 Q883.7344,210 882.7734,210 Q881.6484,210 880.7461,209.5547 Q880.0195,209.2031 879.5039,208.4414 Q879,207.6797 879,206.7773 L879,205.957 Q879,205.0195 879.4453,204.1992 Q879.9023,203.3789 880.6875,202.9453 Q881.4844,202.5 882.375,202.5 Q882.9141,202.5 883.3828,202.6875 Q883.8516,202.875 884.25,203.25 Z " fill="#000000"/><text fill="#000000" font-family="sans-serif" font-size="9" lengthAdjust="spacing" textLength="88.5" x="893.25" y="209.5576">TestParameterResult</text><line style="stroke:#A80036;stroke-width:1.125;" x1="872.25" x2="983.25" y1="217.875" y2="217.875"/><text fill="#000000" font-family="sans-serif" font-size="8.25" lengthAdjust="spacing" textLength="39" x="876" y="229.4392">-createdAt</text><text fill="#000000" font-family="sans-serif" font-size="8.25" lengthAdjust="spacing" textLength="22.5" x="876" y="239.8162">-value</text><text fill="#000000" font-family="sans-serif" font-size="8.25" lengthAdjust="spacing" textLength="24.75" x="876" y="250.1931">-metric</text><!--MD5=[aeb3272166074d8737a70b61b1e71682]
class TestType--><rect codeLine="47" fill="#FEFECE" filter="url(#fz0oqkymcoo0t)" height="61.1309" id="TestType" style="stroke:#A80036;stroke-width:1.125;" width="79.5" x="696" y="264.375"/><ellipse cx="715.35" cy="276.375" fill="#ADD1B2" rx="8.25" ry="8.25" style="stroke:#A80036;stroke-width:0.75;"/><path d="M716.85,273.75 Q717.0023,273.375 717.1781,273.1875 Q717.3539,273 717.5531,273 Q717.9047,273 718.1273,273.2109 Q718.35,273.4219 718.35,273.9141 L718.35,275.0859 Q718.35,275.5781 718.1391,275.7891 Q717.9281,276 717.6,276 Q717.307,276 717.1195,275.8711 Q716.932,275.7422 716.85,275.4023 Q716.8148,275.168 716.6859,275.0391 Q716.4516,274.793 716.0297,274.6523 Q715.6078,274.5 715.1859,274.5 Q714.6586,274.5 714.2133,274.7109 Q713.7797,274.9219 713.4398,275.3906 Q713.1,275.8594 713.1,276.5039 L713.1,277.1953 Q713.1,277.9688 713.7328,278.4844 Q714.3656,279 715.4906,279 Q716.1586,279 716.6273,278.8477 Q716.8969,278.7656 717.2016,278.4961 Q717.4008,278.3438 717.5062,278.2969 Q717.6117,278.25 717.7406,278.25 Q717.9867,278.25 718.1625,278.4492 Q718.35,278.6367 718.35,278.9063 Q718.35,279.1641 718.0922,279.4688 Q717.7172,279.9141 717.1195,280.1602 Q716.3344,280.5 715.3734,280.5 Q714.2484,280.5 713.3461,280.0547 Q712.6195,279.7031 712.1039,278.9414 Q711.6,278.1797 711.6,277.2773 L711.6,276.457 Q711.6,275.5195 712.0453,274.6992 Q712.5023,273.8789 713.2875,273.4453 Q714.0844,273 714.975,273 Q715.5141,273 715.9828,273.1875 Q716.4516,273.375 716.85,273.75 Z " fill="#000000"/><text fill="#000000" font-family="sans-serif" font-size="9" lengthAdjust="spacing" textLength="37.5" x="727.65" y="280.0576">TestType</text><line style="stroke:#A80036;stroke-width:1.125;" x1="696.75" x2="774.75" y1="288.375" y2="288.375"/><text fill="#000000" font-family="sans-serif" font-size="8.25" lengthAdjust="spacing" textLength="21.75" x="700.5" y="299.9392">-Code</text><text fill="#000000" font-family="sans-serif" font-size="8.25" lengthAdjust="spacing" textLength="43.5" x="700.5" y="310.3162">-Description</text><text fill="#000000" font-family="sans-serif" font-size="8.25" lengthAdjust="spacing" textLength="70.5" x="700.5" y="320.6931">-Collecting methods</text><!--MD5=[1f6362a5c8f21d8d6a0fce68f3a92a4e]
class Parameter--><rect codeLine="53" fill="#FEFECE" filter="url(#fz0oqkymcoo0t)" height="61.1309" id="Parameter" style="stroke:#A80036;stroke-width:1.125;" width="67.5" x="894" y="106.125"/><ellipse cx="905.25" cy="118.125" fill="#ADD1B2" rx="8.25" ry="8.25" style="stroke:#A80036;stroke-width:0.75;"/><path d="M906.75,115.5 Q906.9023,115.125 907.0781,114.9375 Q907.2539,114.75 907.4531,114.75 Q907.8047,114.75 908.0273,114.9609 Q908.25,115.1719 908.25,115.6641 L908.25,116.8359 Q908.25,117.3281 908.0391,117.5391 Q907.8281,117.75 907.5,117.75 Q907.207,117.75 907.0195,117.6211 Q906.832,117.4922 906.75,117.1523 Q906.7148,116.918 906.5859,116.7891 Q906.3516,116.543 905.9297,116.4023 Q905.5078,116.25 905.0859,116.25 Q904.5586,116.25 904.1133,116.4609 Q903.6797,116.6719 903.3398,117.1406 Q903,117.6094 903,118.2539 L903,118.9453 Q903,119.7188 903.6328,120.2344 Q904.2656,120.75 905.3906,120.75 Q906.0586,120.75 906.5273,120.5977 Q906.7969,120.5156 907.1016,120.2461 Q907.3008,120.0938 907.4063,120.0469 Q907.5117,120 907.6406,120 Q907.8867,120 908.0625,120.1992 Q908.25,120.3867 908.25,120.6563 Q908.25,120.9141 907.9922,121.2188 Q907.6172,121.6641 907.0195,121.9102 Q906.2344,122.25 905.2734,122.25 Q904.1484,122.25 903.2461,121.8047 Q902.5195,121.4531 902.0039,120.6914 Q901.5,119.9297 901.5,119.0273 L901.5,118.207 Q901.5,117.2695 901.9453,116.4492 Q902.4023,115.6289 903.1875,115.1953 Q903.9844,114.75 904.875,114.75 Q905.4141,114.75 905.8828,114.9375 Q906.3516,115.125 906.75,115.5 Z " fill="#000000"/><text fill="#000000" font-family="sans-serif" font-size="9" lengthAdjust="spacing" textLength="43.5" x="915.75" y="121.8076">Parameter</text><line style="stroke:#A80036;stroke-width:1.125;" x1="894.75" x2="960.75" y1="130.125" y2="130.125"/><text fill="#000000" font-family="sans-serif" font-size="8.25" lengthAdjust="spacing" textLength="21" x="898.5" y="141.6892">-code</text><text fill="#000000" font-family="sans-serif" font-size="8.25" lengthAdjust="spacing" textLength="42" x="898.5" y="152.0662">-shortName</text><text fill="#000000" font-family="sans-serif" font-size="8.25" lengthAdjust="spacing" textLength="42.75" x="898.5" y="162.4431">-description</text><!--MD5=[1934a092c0e7d4da7dc7075b6f4b6b03]
class ClinicalAnalysisLaboratory--><rect codeLine="59" fill="#FEFECE" filter="url(#fz0oqkymcoo0t)" height="40.377" id="ClinicalAnalysisLaboratory" style="stroke:#A80036;stroke-width:1.125;" width="132.75" x="216.75" y="277.875"/><ellipse cx="228" cy="289.875" fill="#ADD1B2" rx="8.25" ry="8.25" style="stroke:#A80036;stroke-width:0.75;"/><path d="M229.5,287.25 Q229.6523,286.875 229.8281,286.6875 Q230.0039,286.5 230.2031,286.5 Q230.5547,286.5 230.7773,286.7109 Q231,286.9219 231,287.4141 L231,288.5859 Q231,289.0781 230.7891,289.2891 Q230.5781,289.5 230.25,289.5 Q229.957,289.5 229.7695,289.3711 Q229.582,289.2422 229.5,288.9023 Q229.4648,288.668 229.3359,288.5391 Q229.1016,288.293 228.6797,288.1523 Q228.2578,288 227.8359,288 Q227.3086,288 226.8633,288.2109 Q226.4297,288.4219 226.0898,288.8906 Q225.75,289.3594 225.75,290.0039 L225.75,290.6953 Q225.75,291.4688 226.3828,291.9844 Q227.0156,292.5 228.1406,292.5 Q228.8086,292.5 229.2773,292.3477 Q229.5469,292.2656 229.8516,291.9961 Q230.0508,291.8438 230.1563,291.7969 Q230.2617,291.75 230.3906,291.75 Q230.6367,291.75 230.8125,291.9492 Q231,292.1367 231,292.4063 Q231,292.6641 230.7422,292.9688 Q230.3672,293.4141 229.7695,293.6602 Q228.9844,294 228.0234,294 Q226.8984,294 225.9961,293.5547 Q225.2695,293.2031 224.7539,292.4414 Q224.25,291.6797 224.25,290.7773 L224.25,289.957 Q224.25,289.0195 224.6953,288.1992 Q225.1523,287.3789 225.9375,286.9453 Q226.7344,286.5 227.625,286.5 Q228.1641,286.5 228.6328,286.6875 Q229.1016,286.875 229.5,287.25 Z " fill="#000000"/><text fill="#000000" font-family="sans-serif" font-size="9" lengthAdjust="spacing" textLength="108.75" x="238.5" y="293.5576">ClinicalAnalysisLaboratory</text><line style="stroke:#A80036;stroke-width:1.125;" x1="217.5" x2="348.75" y1="301.875" y2="301.875"/><text fill="#000000" font-family="sans-serif" font-size="8.25" lengthAdjust="spacing" textLength="46.5" x="221.25" y="313.4392">-laboratoryID</text><!--MD5=[f00dbe8c0302c6aec2cb26b3c659c8fc]
class Report--><rect fill="#FEFECE" filter="url(#fz0oqkymcoo0t)" height="24" id="Report" style="stroke:#A80036;stroke-width:1.125;" width="51.75" x="257.25" y="161.625"/><ellipse cx="268.5" cy="173.625" fill="#ADD1B2" rx="8.25" ry="8.25" style="stroke:#A80036;stroke-width:0.75;"/><path d="M270,171 Q270.1523,170.625 270.3281,170.4375 Q270.5039,170.25 270.7031,170.25 Q271.0547,170.25 271.2773,170.4609 Q271.5,170.6719 271.5,171.1641 L271.5,172.3359 Q271.5,172.8281 271.2891,173.0391 Q271.0781,173.25 270.75,173.25 Q270.457,173.25 270.2695,173.1211 Q270.082,172.9922 270,172.6523 Q269.9648,172.418 269.8359,172.2891 Q269.6016,172.043 269.1797,171.9023 Q268.7578,171.75 268.3359,171.75 Q267.8086,171.75 267.3633,171.9609 Q266.9297,172.1719 266.5898,172.6406 Q266.25,173.1094 266.25,173.7539 L266.25,174.4453 Q266.25,175.2188 266.8828,175.7344 Q267.5156,176.25 268.6406,176.25 Q269.3086,176.25 269.7773,176.0977 Q270.0469,176.0156 270.3516,175.7461 Q270.5508,175.5938 270.6563,175.5469 Q270.7617,175.5 270.8906,175.5 Q271.1367,175.5 271.3125,175.6992 Q271.5,175.8867 271.5,176.1563 Q271.5,176.4141 271.2422,176.7188 Q270.8672,177.1641 270.2695,177.4102 Q269.4844,177.75 268.5234,177.75 Q267.3984,177.75 266.4961,177.3047 Q265.7695,176.9531 265.2539,176.1914 Q264.75,175.4297 264.75,174.5273 L264.75,173.707 Q264.75,172.7695 265.1953,171.9492 Q265.6523,171.1289 266.4375,170.6953 Q267.2344,170.25 268.125,170.25 Q268.6641,170.25 269.1328,170.4375 Q269.6016,170.625 270,171 Z " fill="#000000"/><text fill="#000000" font-family="sans-serif" font-size="9" lengthAdjust="spacing" textLength="27.75" x="279" y="177.3076">Report</text><!--MD5=[e981d4f96c4342412d1e68160b30cf70]
link Test to TestType--><path codeLine="63" d="M549.84,223.02 C557.2575,227.0325 564.885,230.94 572.25,234.375 C613.38,253.5675 662.4,271.185 695.82,282.4575 " fill="none" id="Test-TestType" style="stroke:#A80036;stroke-width:0.75;"/><polygon fill="#000000" points="595.9731,229.171,590.5214,224.5713,588.859,228.6542,595.9731,229.171" style="stroke:#000000;stroke-width:0.75;"/><text fill="#000000" font-family="sans-serif" font-size="9.75" lengthAdjust="spacing" textLength="54" x="599.25" y="231.7463">classified as</text><text fill="#000000" font-family="sans-serif" font-size="9.75" lengthAdjust="spacing" textLength="3.75" x="555.633" y="237.0811">*</text><text fill="#000000" font-family="sans-serif" font-size="9.75" lengthAdjust="spacing" textLength="5.25" x="684.8517" y="291.7254">1</text><!--MD5=[63d25d625ab355317a074a623d33bba8]
link Report to Test--><path codeLine="64" d="M309.0675,175.92 C343.005,179.01 404.175,184.5825 447.7125,188.5425 " fill="none" id="Report-Test" style="stroke:#A80036;stroke-width:0.75;"/><polygon fill="#000000" points="391.4846,176.3468,384.9285,173.5367,384.5288,177.9269,391.4846,176.3468" style="stroke:#000000;stroke-width:0.75;"/><text fill="#000000" font-family="sans-serif" font-size="9.75" lengthAdjust="spacing" textLength="18" x="394.5" y="179.9963">is of</text><text fill="#000000" font-family="sans-serif" font-size="9.75" lengthAdjust="spacing" textLength="5.25" x="314.9595" y="187.7794">1</text><text fill="#000000" font-family="sans-serif" font-size="9.75" lengthAdjust="spacing" textLength="5.25" x="436.5932" y="198.8327">1</text><!--MD5=[3994f36c72829dbcddd1cf7021dddf61]
link Test to Client--><path codeLine="65" d="M549.7725,162.0525 C557.265,157.56 564.93,153.0525 572.25,148.875 C616.35,123.6975 668.235,96.3525 701.355,79.17 " fill="none" id="Test-Client" style="stroke:#A80036;stroke-width:0.75;"/><polygon fill="#000000" points="594.6653,87.9578,587.6557,89.2783,589.7706,93.1463,594.6653,87.9578" style="stroke:#000000;stroke-width:0.75;"/><text fill="#000000" font-family="sans-serif" font-size="9.75" lengthAdjust="spacing" textLength="56.25" x="598.125" y="93.7463">requested by</text><text fill="#000000" font-family="sans-serif" font-size="9.75" lengthAdjust="spacing" textLength="3.75" x="555.8888" y="169.2894">*</text><text fill="#000000" font-family="sans-serif" font-size="9.75" lengthAdjust="spacing" textLength="5.25" x="690.4363" y="92.8965">1</text><!--MD5=[6df8849671cb880f6936e94aa30db6f9]
link Parameter to ParameterCategory--><path codeLine="66" d="M961.62,156.285 C1002.615,180.3225 1072.56,221.3175 1117.86,247.8675 " fill="none" id="Parameter-ParameterCategory" style="stroke:#A80036;stroke-width:0.75;"/><polygon fill="#000000" points="1013.4852,180.9032,1008.7473,175.5711,1006.518,179.3742,1013.4852,180.9032" style="stroke:#000000;stroke-width:0.75;"/><text fill="#000000" font-family="sans-serif" font-size="9.75" lengthAdjust="spacing" textLength="69.75" x="1017" y="182.9963">presented under</text><text fill="#000000" font-family="sans-serif" font-size="9.75" lengthAdjust="spacing" textLength="3.75" x="967.5403" y="170.6673">*</text><text fill="#000000" font-family="sans-serif" font-size="9.75" lengthAdjust="spacing" textLength="5.25" x="1102.9389" y="239.543">1</text><!--MD5=[8aaf0efd5e2f3824be7ea3e488dcc283]
link TestType to ParameterCategory--><path codeLine="67" d="M775.5225,293.13 C852.45,289.1925 1023.675,280.425 1109.805,276.015 " fill="none" id="TestType-ParameterCategory" style="stroke:#A80036;stroke-width:0.75;"/><polygon fill="#000000" points="893.6201,275.5651,886.7324,273.7107,886.9579,278.1133,893.6201,275.5651" style="stroke:#000000;stroke-width:0.75;"/><text fill="#000000" font-family="sans-serif" font-size="9.75" lengthAdjust="spacing" textLength="72" x="896.625" y="279.7463">characterized by</text><text fill="#000000" font-family="sans-serif" font-size="9.75" lengthAdjust="spacing" textLength="5.25" x="781.4846" y="303.859">1</text><text fill="#000000" font-family="sans-serif" font-size="9.75" lengthAdjust="spacing" textLength="15" x="1088.9165" y="287.0119">1..*</text><!--MD5=[b72ac8ab7fb5921fceb5036a3902baea]
link Test to Sample--><path codeLine="68" d="M549.7875,205.185 C557.2875,206.64 564.945,207.9375 572.25,208.875 C619.515,214.9275 675.0675,215.9325 707.52,215.9175 " fill="none" id="Test-Sample" style="stroke:#A80036;stroke-width:0.75;"/><polygon fill="#000000" points="606.3663,202.5114,599.7478,199.8518,599.4486,204.25,606.3663,202.5114" style="stroke:#000000;stroke-width:0.75;"/><text fill="#000000" font-family="sans-serif" font-size="9.75" lengthAdjust="spacing" textLength="33.75" x="609.375" y="206.2463">collects</text><text fill="#000000" font-family="sans-serif" font-size="9.75" lengthAdjust="spacing" textLength="5.25" x="555.6568" y="217.2954">1</text><text fill="#000000" font-family="sans-serif" font-size="9.75" lengthAdjust="spacing" textLength="15" x="686.6022" y="227.1131">1..*</text><!--MD5=[f24c888dadeb846430474fe80a58922b]
link Test to TestParameter--><path codeLine="69" d="M550.02,185.4 C592.59,178.8975 652.8,169.6875 692.8275,163.575 " fill="none" id="Test-TestParameter" style="stroke:#A80036;stroke-width:0.75;"/><polygon fill="#000000" points="579.707,161.1903,572.668,160.0363,573.334,164.3941,579.707,161.1903" style="stroke:#000000;stroke-width:0.75;"/><text fill="#000000" font-family="sans-serif" font-size="9.75" lengthAdjust="spacing" textLength="87" x="582.75" y="165.7463">requests analysis of</text><text fill="#000000" font-family="sans-serif" font-size="9.75" lengthAdjust="spacing" textLength="5.25" x="555.9148" y="195.3464">1</text><text fill="#000000" font-family="sans-serif" font-size="9.75" lengthAdjust="spacing" textLength="15" x="671.9974" y="175.1511">1..*</text><!--MD5=[92e8e476cc9e9004a7125f53a120ec97]
link TestParameter to Parameter--><path codeLine="70" d="M778.545,152.655 C813.2775,148.965 861.9075,143.7975 893.9175,140.3925 " fill="none" id="TestParameter-Parameter" style="stroke:#A80036;stroke-width:0.75;"/><polygon fill="#000000" points="809.229,138.8605,802.2502,137.3856,802.7161,141.7693,809.229,138.8605" style="stroke:#000000;stroke-width:0.75;"/><text fill="#000000" font-family="sans-serif" font-size="9.75" lengthAdjust="spacing" textLength="35.25" x="812.25" y="143.2463">refers to</text><text fill="#000000" font-family="sans-serif" font-size="9.75" lengthAdjust="spacing" textLength="3.75" x="784.5475" y="162.9996">*</text><text fill="#000000" font-family="sans-serif" font-size="9.75" lengthAdjust="spacing" textLength="5.25" x="882.8571" y="152.0811">1</text><!--MD5=[0e00e25ac6b8c14659aaff2cf7e5df08]
link TestParameter to TestParameterResult--><path codeLine="71" d="M770.5575,169.1925 C798.4875,179.0925 838.5975,193.305 871.2075,204.855 " fill="none" id="TestParameter-TestParameterResult" style="stroke:#A80036;stroke-width:0.75;"/><polygon fill="#000000" points="808.2847,175.7593,802.6265,171.416,801.1542,175.5712,808.2847,175.7593" style="stroke:#000000;stroke-width:0.75;"/><text fill="#000000" font-family="sans-serif" font-size="9.75" lengthAdjust="spacing" textLength="36.75" x="811.5" y="178.4963">contains</text><text fill="#000000" font-family="sans-serif" font-size="9.75" lengthAdjust="spacing" textLength="5.25" x="775.968" y="185.3424">1</text><text fill="#000000" font-family="sans-serif" font-size="9.75" lengthAdjust="spacing" textLength="16.5" x="848.9369" y="213.7781">0..1</text><!--MD5=[2eb961b30663a01bbfd8b4b9b8950031]
link ClinicalAnalysisLaboratory to TestType--><path codeLine="72" d="M349.7175,297.69 C444.9675,297.0525 618.27,295.905 695.745,295.3875 " fill="none" id="ClinicalAnalysisLaboratory-TestType" style="stroke:#A80036;stroke-width:0.75;"/><polygon fill="#000000" points="481.8749,289.2319,475.0766,287.0729,475.1059,291.4812,481.8749,289.2319" style="stroke:#000000;stroke-width:0.75;"/><text fill="#000000" font-family="sans-serif" font-size="9.75" lengthAdjust="spacing" textLength="37.5" x="484.875" y="293.2463">operates</text><text fill="#000000" font-family="sans-serif" font-size="9.75" lengthAdjust="spacing" textLength="5.25" x="355.4496" y="308.2882">1</text><text fill="#000000" font-family="sans-serif" font-size="9.75" lengthAdjust="spacing" textLength="15" x="674.9553" y="306.3106">1..*</text><!--MD5=[d480452e7d21fe720ba0207568bc7434]
link ClinicalAnalysisLaboratory to Test--><path codeLine="73" d="M349.635,286.2375 C374.325,280.1025 402.015,271.1475 425.25,258.375 C434.7675,253.1475 444.0675,246.45 452.6775,239.355 " fill="none" id="ClinicalAnalysisLaboratory-Test" style="stroke:#A80036;stroke-width:0.75;"/><polygon fill="#000000" points="381.4133,250.2038,374.3257,251.0069,376.1514,255.0195,381.4133,250.2038" style="stroke:#000000;stroke-width:0.75;"/><text fill="#000000" font-family="sans-serif" font-size="9.75" lengthAdjust="spacing" textLength="37.5" x="384.75" y="255.7463">performs</text><text fill="#000000" font-family="sans-serif" font-size="9.75" lengthAdjust="spacing" textLength="5.25" x="355.5763" y="282.8382">1</text><text fill="#000000" font-family="sans-serif" font-size="9.75" lengthAdjust="spacing" textLength="15" x="431.4832" y="255.53">1..*</text><!--MD5=[7e4bc624457760b649895ff2ead938fa]
link Company to Test--><path codeLine="74" d="M95.4225,231.105 C147.9825,228.0225 257.31,221.0775 349.5,211.875 C382.2075,208.605 418.8525,203.9925 447.555,200.16 " fill="none" id="Company-Test" style="stroke:#A80036;stroke-width:0.75;"/><polygon fill="#000000" points="265.1106,204.9286,258.1599,203.3267,258.5458,207.7182,265.1106,204.9286" style="stroke:#000000;stroke-width:0.75;"/><text fill="#000000" font-family="sans-serif" font-size="9.75" lengthAdjust="spacing" textLength="39.75" x="268.125" y="209.2463">conducts</text><text fill="#000000" font-family="sans-serif" font-size="9.75" lengthAdjust="spacing" textLength="5.25" x="101.1651" y="241.959">1</text><text fill="#000000" font-family="sans-serif" font-size="9.75" lengthAdjust="spacing" textLength="3.75" x="438.0005" y="211.7208">*</text><!--MD5=[aafc5d8a5829a6a8d6dc892cb1ff5d24]
link Company to ClinicalAnalysisLaboratory--><path codeLine="75" d="M95.355,243.075 C110.0775,247.83 127.9125,253.5 144,258.375 C167.5575,265.515 193.4775,273.0525 216.45,279.615 " fill="none" id="Company-ClinicalAnalysisLaboratory" style="stroke:#A80036;stroke-width:0.75;"/><polygon fill="#000000" points="159.5901,252.8401,153.7323,248.7702,152.4588,252.9906,159.5901,252.8401" style="stroke:#000000;stroke-width:0.75;"/><text fill="#000000" font-family="sans-serif" font-size="9.75" lengthAdjust="spacing" textLength="22.5" x="162.75" y="255.7463">owns</text><text fill="#000000" font-family="sans-serif" font-size="9.75" lengthAdjust="spacing" textLength="5.25" x="101.3027" y="256.0139">1</text><text fill="#000000" font-family="sans-serif" font-size="9.75" lengthAdjust="spacing" textLength="15" x="195.771" y="288.7933">2..*</text><!--MD5=[ac27132d5ed93df815aaf68177e3fdc5]
link File to Test--><path codeLine="76" d="M302.8425,127.9575 C330.18,134.73 382.11,148.2225 425.25,163.125 C432.5475,165.645 440.1675,168.5175 447.6075,171.4575 " fill="none" id="File-Test" style="stroke:#A80036;stroke-width:0.75;"/><polygon fill="#000000" points="379.3414,141.836,373.4788,137.7728,372.2102,141.9947,379.3414,141.836" style="stroke:#000000;stroke-width:0.75;"/><text fill="#000000" font-family="sans-serif" font-size="9.75" lengthAdjust="spacing" textLength="42" x="382.5" y="144.7463">constains</text><text fill="#000000" font-family="sans-serif" font-size="9.75" lengthAdjust="spacing" textLength="5.25" x="308.5678" y="140.8244">1</text><text fill="#000000" font-family="sans-serif" font-size="9.75" lengthAdjust="spacing" textLength="5.25" x="436.4767" y="179.879">1</text><!--MD5=[b2449c70e59ed399d51d8d4b2a94af4d]
link LaboratoryCoordinator to File--><path codeLine="77" d="M121.755,155.3925 C168.735,146.025 232.2375,133.365 263.4525,127.1475 " fill="none" id="LaboratoryCoordinator-File" style="stroke:#A80036;stroke-width:0.75;"/><polygon fill="#000000" points="154.8026,134.0238,147.7188,133.1882,148.5806,137.5116,154.8026,134.0238" style="stroke:#000000;stroke-width:0.75;"/><text fill="#000000" font-family="sans-serif" font-size="9.75" lengthAdjust="spacing" textLength="32.25" x="157.875" y="138.7463">imports</text><text fill="#000000" font-family="sans-serif" font-size="9.75" lengthAdjust="spacing" textLength="5.25" x="127.5695" y="165.0039">1</text><text fill="#000000" font-family="sans-serif" font-size="9.75" lengthAdjust="spacing" textLength="3.75" x="253.9116" y="139.9306">*</text><!--MD5=[10696a5fcddba1a85876c1320f7cbe94]
link LaboratoryCoordinator to ClinicalAnalysisLaboratory--><path codeLine="78" d="M89.1675,178.9425 C115.995,192.2775 159.4125,215.04 194.25,238.875 C204.99,246.225 206.1825,250.02 216.75,257.625 C226.4175,264.585 237.3,271.5975 247.38,277.7925 " fill="none" id="LaboratoryCoordinator-ClinicalAnalysisLaboratory" style="stroke:#A80036;stroke-width:0.75;"/><polygon fill="#000000" points="150.9303,203.4939,146.345,198.03,144.0091,201.7686,150.9303,203.4939" style="stroke:#000000;stroke-width:0.75;"/><text fill="#000000" font-family="sans-serif" font-size="9.75" lengthAdjust="spacing" textLength="39" x="154.5" y="205.4963">works for</text><text fill="#000000" font-family="sans-serif" font-size="9.75" lengthAdjust="spacing" textLength="15" x="80.2269" y="195.0924">1..*</text><text fill="#000000" font-family="sans-serif" font-size="9.75" lengthAdjust="spacing" textLength="5.25" x="233.2569" y="269.8692">1</text><!--MD5=[bdde6786cafe2d162fe3eff01e1faad5]
@startuml

left to right direction
skinparam classAttributeIconSize 0
hide empty methods
hide empty attributes
/'skinparam linetype ortho'/

class Test{
- code
- NhsCode
- dateOfTestRegistration
- dateOfSamplesCollection
- dateOfChemicalAnalysis
- dateOfDiagnosis
}

class Company {
-designation
}

class ParameterCategory{
  -code
  -name
}
class LaboratoryCoordinator{}
class File
class Sample{
- barCode
}

class Client{
- name
- citizenCardNum
- nhsNum
- birthDate
- sex
- taxIdNum
- phoneNum
- email
}
class TestParameter{}
class TestParameterResult{
- createdAt
- value
- metric
}
class TestType{
- Code
- Description
- Collecting methods
}

class Parameter{
- code
- shortName
- description
}

class ClinicalAnalysisLaboratory{
- laboratoryID
}

Test "*" - - "1" TestType : classified as >
Report "1" - - "1" Test : is of >
Test "*" - - "1" Client : requested by >
Parameter "*" - - "1" ParameterCategory: presented under >
TestType "1" - - "1..*" ParameterCategory : characterized by >
Test "1" - - "1..*" Sample : collects >
Test "1" - - "1..*" TestParameter : requests analysis of >
TestParameter "*" - - "1" Parameter : refers to >
TestParameter "1" - - "0..1" TestParameterResult : contains >
ClinicalAnalysisLaboratory "1" - - "1..*" TestType : operates >
ClinicalAnalysisLaboratory "1" - - "1..*" Test : performs >
Company "1" - - - "*" Test : conducts >
Company "1" - - "2..*" ClinicalAnalysisLaboratory : owns >
File "1" - - "1" Test : constains >
LaboratoryCoordinator "1" - - "*" File : imports >
LaboratoryCoordinator "1..*" - - "1" ClinicalAnalysisLaboratory : works for >

@enduml

@startuml

left to right direction
skinparam classAttributeIconSize 0
hide empty methods
hide empty attributes

class Test{
- code
- NhsCode
- dateOfTestRegistration
- dateOfSamplesCollection
- dateOfChemicalAnalysis
- dateOfDiagnosis
}

class Company {
-designation
}

class ParameterCategory{
  -code
  -name
}
class LaboratoryCoordinator{}
class File
class Sample{
- barCode
}

class Client{
- name
- citizenCardNum
- nhsNum
- birthDate
- sex
- taxIdNum
- phoneNum
- email
}
class TestParameter{}
class TestParameterResult{
- createdAt
- value
- metric
}
class TestType{
- Code
- Description
- Collecting methods
}

class Parameter{
- code
- shortName
- description
}

class ClinicalAnalysisLaboratory{
- laboratoryID
}

Test "*" - - "1" TestType : classified as >
Report "1" - - "1" Test : is of >
Test "*" - - "1" Client : requested by >
Parameter "*" - - "1" ParameterCategory: presented under >
TestType "1" - - "1..*" ParameterCategory : characterized by >
Test "1" - - "1..*" Sample : collects >
Test "1" - - "1..*" TestParameter : requests analysis of >
TestParameter "*" - - "1" Parameter : refers to >
TestParameter "1" - - "0..1" TestParameterResult : contains >
ClinicalAnalysisLaboratory "1" - - "1..*" TestType : operates >
ClinicalAnalysisLaboratory "1" - - "1..*" Test : performs >
Company "1" - - - "*" Test : conducts >
Company "1" - - "2..*" ClinicalAnalysisLaboratory : owns >
File "1" - - "1" Test : constains >
LaboratoryCoordinator "1" - - "*" File : imports >
LaboratoryCoordinator "1..*" - - "1" ClinicalAnalysisLaboratory : works for >

@enduml

PlantUML version 1.2021.00(Sun Jan 10 10:25:05 GMT 2021)
(GPL source distribution)
Java Runtime: OpenJDK Runtime Environment
JVM: OpenJDK 64-Bit Server VM
Default Encoding: Cp1252
Language: pt
Country: BR
--></g></svg>