<?xml version="1.0" encoding="UTF-8" standalone="no"?><svg xmlns="http://www.w3.org/2000/svg" xmlns:xlink="http://www.w3.org/1999/xlink" contentScriptType="application/ecmascript" contentStyleType="text/css" height="587.5px" preserveAspectRatio="none" style="width:1950px;height:587px;" version="1.1" viewBox="0 0 1950 587" width="1950px" zoomAndPan="magnify"><defs><filter height="300%" id="fuo3zapiduvmp" width="300%" x="-1" y="-1"><feGaussianBlur result="blurOut" stdDeviation="2.5"/><feColorMatrix in="blurOut" result="blurOut2" type="matrix" values="0 0 0 0 0 0 0 0 0 0 0 0 0 0 0 0 0 0 .4 0"/><feOffset dx="5.0" dy="5.0" in="blurOut2" result="blurOut3"/><feBlend in="SourceGraphic" in2="blurOut3" mode="normal"/></filter></defs><g><!--MD5=[df38be88ccee13e832d6fafd6288a4ca]
class Test--><rect codeLine="8" fill="#FEFECE" filter="url(#fuo3zapiduvmp)" height="153.7695" id="Test" style="stroke:#A80036;stroke-width:1.875;" width="170" x="655" y="253.125"/><ellipse cx="719.6875" cy="273.125" fill="#ADD1B2" rx="13.75" ry="13.75" style="stroke:#A80036;stroke-width:1.25;"/><path d="M722.1875,268.75 Q722.4414,268.125 722.7344,267.8125 Q723.0273,267.5 723.3594,267.5 Q723.9453,267.5 724.3164,267.8516 Q724.6875,268.2031 724.6875,269.0234 L724.6875,270.9766 Q724.6875,271.7969 724.3359,272.1484 Q723.9844,272.5 723.4375,272.5 Q722.9492,272.5 722.6367,272.2852 Q722.3242,272.0703 722.1875,271.5039 Q722.1289,271.1133 721.9141,270.8984 Q721.5234,270.4883 720.8203,270.2539 Q720.1172,270 719.4141,270 Q718.5352,270 717.793,270.3516 Q717.0703,270.7031 716.5039,271.4844 Q715.9375,272.2656 715.9375,273.3398 L715.9375,274.4922 Q715.9375,275.7813 716.9922,276.6406 Q718.0469,277.5 719.9219,277.5 Q721.0352,277.5 721.8164,277.2461 Q722.2656,277.1094 722.7734,276.6602 Q723.1055,276.4063 723.2813,276.3281 Q723.457,276.25 723.6719,276.25 Q724.082,276.25 724.375,276.582 Q724.6875,276.8945 724.6875,277.3438 Q724.6875,277.7734 724.2578,278.2813 Q723.6328,279.0234 722.6367,279.4336 Q721.3281,280 719.7266,280 Q717.8516,280 716.3477,279.2578 Q715.1367,278.6719 714.2773,277.4023 Q713.4375,276.1328 713.4375,274.6289 L713.4375,273.2617 Q713.4375,271.6992 714.1797,270.332 Q714.9414,268.9648 716.25,268.2422 Q717.5781,267.5 719.0625,267.5 Q719.9609,267.5 720.7422,267.8125 Q721.5234,268.125 722.1875,268.75 Z " fill="#000000"/><text fill="#000000" font-family="sans-serif" font-size="15" lengthAdjust="spacing" textLength="30" x="745.3125" y="279.2627">Test</text><line style="stroke:#A80036;stroke-width:1.875;" x1="656.25" x2="823.75" y1="293.125" y2="293.125"/><text fill="#000000" font-family="sans-serif" font-size="13.75" lengthAdjust="spacing" textLength="35" x="662.5" y="312.3987">-code</text><text fill="#000000" font-family="sans-serif" font-size="13.75" lengthAdjust="spacing" textLength="60" x="662.5" y="329.6936">-NhsCode</text><text fill="#000000" font-family="sans-serif" font-size="13.75" lengthAdjust="spacing" textLength="143.75" x="662.5" y="346.9885">-dateOfTestRegistration</text><text fill="#000000" font-family="sans-serif" font-size="13.75" lengthAdjust="spacing" textLength="155" x="662.5" y="364.2834">-dateOfSamplesCollection</text><text fill="#000000" font-family="sans-serif" font-size="13.75" lengthAdjust="spacing" textLength="152.5" x="662.5" y="381.5784">-dateOfChemicalAnalysis</text><text fill="#000000" font-family="sans-serif" font-size="13.75" lengthAdjust="spacing" textLength="105" x="662.5" y="398.8733">-dateOfDiagnosis</text><!--MD5=[02e4b9b7573f1156f41e60aa5b4e25a4]
class Company--><rect codeLine="17" fill="#FEFECE" filter="url(#fuo3zapiduvmp)" height="67.2949" id="Company" style="stroke:#A80036;stroke-width:1.875;" width="106.25" x="8.75" y="371.25"/><ellipse cx="27.5" cy="391.25" fill="#ADD1B2" rx="13.75" ry="13.75" style="stroke:#A80036;stroke-width:1.25;"/><path d="M30,386.875 Q30.2539,386.25 30.5469,385.9375 Q30.8398,385.625 31.1719,385.625 Q31.7578,385.625 32.1289,385.9766 Q32.5,386.3281 32.5,387.1484 L32.5,389.1016 Q32.5,389.9219 32.1484,390.2734 Q31.7969,390.625 31.25,390.625 Q30.7617,390.625 30.4492,390.4102 Q30.1367,390.1953 30,389.6289 Q29.9414,389.2383 29.7266,389.0234 Q29.3359,388.6133 28.6328,388.3789 Q27.9297,388.125 27.2266,388.125 Q26.3477,388.125 25.6055,388.4766 Q24.8828,388.8281 24.3164,389.6094 Q23.75,390.3906 23.75,391.4648 L23.75,392.6172 Q23.75,393.9063 24.8047,394.7656 Q25.8594,395.625 27.7344,395.625 Q28.8477,395.625 29.6289,395.3711 Q30.0781,395.2344 30.5859,394.7852 Q30.918,394.5313 31.0938,394.4531 Q31.2695,394.375 31.4844,394.375 Q31.8945,394.375 32.1875,394.707 Q32.5,395.0195 32.5,395.4688 Q32.5,395.8984 32.0703,396.4063 Q31.4453,397.1484 30.4492,397.5586 Q29.1406,398.125 27.5391,398.125 Q25.6641,398.125 24.1602,397.3828 Q22.9492,396.7969 22.0898,395.5273 Q21.25,394.2578 21.25,392.7539 L21.25,391.3867 Q21.25,389.8242 21.9922,388.457 Q22.7539,387.0898 24.0625,386.3672 Q25.3906,385.625 26.875,385.625 Q27.7734,385.625 28.5547,385.9375 Q29.3359,386.25 30,386.875 Z " fill="#000000"/><text fill="#000000" font-family="sans-serif" font-size="15" lengthAdjust="spacing" textLength="66.25" x="45" y="397.3877">Company</text><line style="stroke:#A80036;stroke-width:1.875;" x1="10" x2="113.75" y1="411.25" y2="411.25"/><text fill="#000000" font-family="sans-serif" font-size="13.75" lengthAdjust="spacing" textLength="73.75" x="16.25" y="430.5237">-designation</text><!--MD5=[36afb6bbd95a8ac778c4537c55a683d5]
class ParameterCategory--><rect codeLine="21" fill="#FEFECE" filter="url(#fuo3zapiduvmp)" height="84.5898" id="ParameterCategory" style="stroke:#A80036;stroke-width:1.875;" width="173.75" x="1758.75" y="342.5"/><ellipse cx="1777.5" cy="362.5" fill="#ADD1B2" rx="13.75" ry="13.75" style="stroke:#A80036;stroke-width:1.25;"/><path d="M1780,358.125 Q1780.2539,357.5 1780.5469,357.1875 Q1780.8398,356.875 1781.1719,356.875 Q1781.7578,356.875 1782.1289,357.2266 Q1782.5,357.5781 1782.5,358.3984 L1782.5,360.3516 Q1782.5,361.1719 1782.1484,361.5234 Q1781.7969,361.875 1781.25,361.875 Q1780.7617,361.875 1780.4492,361.6602 Q1780.1367,361.4453 1780,360.8789 Q1779.9414,360.4883 1779.7266,360.2734 Q1779.3359,359.8633 1778.6328,359.6289 Q1777.9297,359.375 1777.2266,359.375 Q1776.3477,359.375 1775.6055,359.7266 Q1774.8828,360.0781 1774.3164,360.8594 Q1773.75,361.6406 1773.75,362.7148 L1773.75,363.8672 Q1773.75,365.1563 1774.8047,366.0156 Q1775.8594,366.875 1777.7344,366.875 Q1778.8477,366.875 1779.6289,366.6211 Q1780.0781,366.4844 1780.5859,366.0352 Q1780.918,365.7813 1781.0938,365.7031 Q1781.2695,365.625 1781.4844,365.625 Q1781.8945,365.625 1782.1875,365.957 Q1782.5,366.2695 1782.5,366.7188 Q1782.5,367.1484 1782.0703,367.6563 Q1781.4453,368.3984 1780.4492,368.8086 Q1779.1406,369.375 1777.5391,369.375 Q1775.6641,369.375 1774.1602,368.6328 Q1772.9492,368.0469 1772.0898,366.7773 Q1771.25,365.5078 1771.25,364.0039 L1771.25,362.6367 Q1771.25,361.0742 1771.9922,359.707 Q1772.7539,358.3398 1774.0625,357.6172 Q1775.3906,356.875 1776.875,356.875 Q1777.7734,356.875 1778.5547,357.1875 Q1779.3359,357.5 1780,358.125 Z " fill="#000000"/><text fill="#000000" font-family="sans-serif" font-size="15" lengthAdjust="spacing" textLength="133.75" x="1795" y="368.6377">ParameterCategory</text><line style="stroke:#A80036;stroke-width:1.875;" x1="1760" x2="1931.25" y1="382.5" y2="382.5"/><text fill="#000000" font-family="sans-serif" font-size="13.75" lengthAdjust="spacing" textLength="35" x="1766.25" y="401.7737">-code</text><text fill="#000000" font-family="sans-serif" font-size="13.75" lengthAdjust="spacing" textLength="37.5" x="1766.25" y="419.0686">-name</text><!--MD5=[9681492165142af2a4a3a169d90ee8d4]
class Sample--><rect codeLine="27" fill="#FEFECE" filter="url(#fuo3zapiduvmp)" height="67.2949" id="Sample" style="stroke:#A80036;stroke-width:1.875;" width="93.75" x="1088.125" y="123.75"/><ellipse cx="1106.875" cy="143.75" fill="#ADD1B2" rx="13.75" ry="13.75" style="stroke:#A80036;stroke-width:1.25;"/><path d="M1109.375,139.375 Q1109.6289,138.75 1109.9219,138.4375 Q1110.2148,138.125 1110.5469,138.125 Q1111.1328,138.125 1111.5039,138.4766 Q1111.875,138.8281 1111.875,139.6484 L1111.875,141.6016 Q1111.875,142.4219 1111.5234,142.7734 Q1111.1719,143.125 1110.625,143.125 Q1110.1367,143.125 1109.8242,142.9102 Q1109.5117,142.6953 1109.375,142.1289 Q1109.3164,141.7383 1109.1016,141.5234 Q1108.7109,141.1133 1108.0078,140.8789 Q1107.3047,140.625 1106.6016,140.625 Q1105.7227,140.625 1104.9805,140.9766 Q1104.2578,141.3281 1103.6914,142.1094 Q1103.125,142.8906 1103.125,143.9648 L1103.125,145.1172 Q1103.125,146.4063 1104.1797,147.2656 Q1105.2344,148.125 1107.1094,148.125 Q1108.2227,148.125 1109.0039,147.8711 Q1109.4531,147.7344 1109.9609,147.2852 Q1110.293,147.0313 1110.4688,146.9531 Q1110.6445,146.875 1110.8594,146.875 Q1111.2695,146.875 1111.5625,147.207 Q1111.875,147.5195 1111.875,147.9688 Q1111.875,148.3984 1111.4453,148.9063 Q1110.8203,149.6484 1109.8242,150.0586 Q1108.5156,150.625 1106.9141,150.625 Q1105.0391,150.625 1103.5352,149.8828 Q1102.3242,149.2969 1101.4648,148.0273 Q1100.625,146.7578 1100.625,145.2539 L1100.625,143.8867 Q1100.625,142.3242 1101.3672,140.957 Q1102.1289,139.5898 1103.4375,138.8672 Q1104.7656,138.125 1106.25,138.125 Q1107.1484,138.125 1107.9297,138.4375 Q1108.7109,138.75 1109.375,139.375 Z " fill="#000000"/><text fill="#000000" font-family="sans-serif" font-size="15" lengthAdjust="spacing" textLength="53.75" x="1124.375" y="149.8877">Sample</text><line style="stroke:#A80036;stroke-width:1.875;" x1="1089.375" x2="1180.625" y1="163.75" y2="163.75"/><text fill="#000000" font-family="sans-serif" font-size="13.75" lengthAdjust="spacing" textLength="56.25" x="1095.625" y="183.0237">-barCode</text><!--MD5=[ed6624c6556d5e7b1bd23032162d20b7]
class Client--><rect codeLine="31" fill="#FEFECE" filter="url(#fuo3zapiduvmp)" height="188.3594" id="Client" style="stroke:#A80036;stroke-width:1.875;" width="113.75" x="1078.125" y="235.625"/><ellipse cx="1112.0625" cy="255.625" fill="#ADD1B2" rx="13.75" ry="13.75" style="stroke:#A80036;stroke-width:1.25;"/><path d="M1114.5625,251.25 Q1114.8164,250.625 1115.1094,250.3125 Q1115.4023,250 1115.7344,250 Q1116.3203,250 1116.6914,250.3516 Q1117.0625,250.7031 1117.0625,251.5234 L1117.0625,253.4766 Q1117.0625,254.2969 1116.7109,254.6484 Q1116.3594,255 1115.8125,255 Q1115.3242,255 1115.0117,254.7852 Q1114.6992,254.5703 1114.5625,254.0039 Q1114.5039,253.6133 1114.2891,253.3984 Q1113.8984,252.9883 1113.1953,252.7539 Q1112.4922,252.5 1111.7891,252.5 Q1110.9102,252.5 1110.168,252.8516 Q1109.4453,253.2031 1108.8789,253.9844 Q1108.3125,254.7656 1108.3125,255.8398 L1108.3125,256.9922 Q1108.3125,258.2813 1109.3672,259.1406 Q1110.4219,260 1112.2969,260 Q1113.4102,260 1114.1914,259.7461 Q1114.6406,259.6094 1115.1484,259.1602 Q1115.4805,258.9063 1115.6563,258.8281 Q1115.832,258.75 1116.0469,258.75 Q1116.457,258.75 1116.75,259.082 Q1117.0625,259.3945 1117.0625,259.8438 Q1117.0625,260.2734 1116.6328,260.7813 Q1116.0078,261.5234 1115.0117,261.9336 Q1113.7031,262.5 1112.1016,262.5 Q1110.2266,262.5 1108.7227,261.7578 Q1107.5117,261.1719 1106.6523,259.9023 Q1105.8125,258.6328 1105.8125,257.1289 L1105.8125,255.7617 Q1105.8125,254.1992 1106.5547,252.832 Q1107.3164,251.4648 1108.625,250.7422 Q1109.9531,250 1111.4375,250 Q1112.3359,250 1113.1172,250.3125 Q1113.8984,250.625 1114.5625,251.25 Z " fill="#000000"/><text fill="#000000" font-family="sans-serif" font-size="15" lengthAdjust="spacing" textLength="40" x="1132.9375" y="261.7627">Client</text><line style="stroke:#A80036;stroke-width:1.875;" x1="1079.375" x2="1190.625" y1="275.625" y2="275.625"/><text fill="#000000" font-family="sans-serif" font-size="13.75" lengthAdjust="spacing" textLength="37.5" x="1085.625" y="294.8987">-name</text><text fill="#000000" font-family="sans-serif" font-size="13.75" lengthAdjust="spacing" textLength="98.75" x="1085.625" y="312.1936">-citizenCardNum</text><text fill="#000000" font-family="sans-serif" font-size="13.75" lengthAdjust="spacing" textLength="53.75" x="1085.625" y="329.4885">-nhsNum</text><text fill="#000000" font-family="sans-serif" font-size="13.75" lengthAdjust="spacing" textLength="58.75" x="1085.625" y="346.7834">-birthDate</text><text fill="#000000" font-family="sans-serif" font-size="13.75" lengthAdjust="spacing" textLength="27.5" x="1085.625" y="364.0784">-sex</text><text fill="#000000" font-family="sans-serif" font-size="13.75" lengthAdjust="spacing" textLength="60" x="1085.625" y="381.3733">-taxIdNum</text><text fill="#000000" font-family="sans-serif" font-size="13.75" lengthAdjust="spacing" textLength="68.75" x="1085.625" y="398.6682">-phoneNum</text><text fill="#000000" font-family="sans-serif" font-size="13.75" lengthAdjust="spacing" textLength="35" x="1085.625" y="415.9631">-email</text><!--MD5=[0f07739f46effee96e095e9c408da841]
class TestParameter--><rect codeLine="41" fill="#FEFECE" filter="url(#fuo3zapiduvmp)" height="40" id="TestParameter" style="stroke:#A80036;stroke-width:1.875;" width="142.5" x="1063.75" y="40"/><ellipse cx="1082.5" cy="60" fill="#ADD1B2" rx="13.75" ry="13.75" style="stroke:#A80036;stroke-width:1.25;"/><path d="M1085,55.625 Q1085.2539,55 1085.5469,54.6875 Q1085.8398,54.375 1086.1719,54.375 Q1086.7578,54.375 1087.1289,54.7266 Q1087.5,55.0781 1087.5,55.8984 L1087.5,57.8516 Q1087.5,58.6719 1087.1484,59.0234 Q1086.7969,59.375 1086.25,59.375 Q1085.7617,59.375 1085.4492,59.1602 Q1085.1367,58.9453 1085,58.3789 Q1084.9414,57.9883 1084.7266,57.7734 Q1084.3359,57.3633 1083.6328,57.1289 Q1082.9297,56.875 1082.2266,56.875 Q1081.3477,56.875 1080.6055,57.2266 Q1079.8828,57.5781 1079.3164,58.3594 Q1078.75,59.1406 1078.75,60.2148 L1078.75,61.3672 Q1078.75,62.6563 1079.8047,63.5156 Q1080.8594,64.375 1082.7344,64.375 Q1083.8477,64.375 1084.6289,64.1211 Q1085.0781,63.9844 1085.5859,63.5352 Q1085.918,63.2813 1086.0938,63.2031 Q1086.2695,63.125 1086.4844,63.125 Q1086.8945,63.125 1087.1875,63.457 Q1087.5,63.7695 1087.5,64.2188 Q1087.5,64.6484 1087.0703,65.1563 Q1086.4453,65.8984 1085.4492,66.3086 Q1084.1406,66.875 1082.5391,66.875 Q1080.6641,66.875 1079.1602,66.1328 Q1077.9492,65.5469 1077.0898,64.2773 Q1076.25,63.0078 1076.25,61.5039 L1076.25,60.1367 Q1076.25,58.5742 1076.9922,57.207 Q1077.7539,55.8398 1079.0625,55.1172 Q1080.3906,54.375 1081.875,54.375 Q1082.7734,54.375 1083.5547,54.6875 Q1084.3359,55 1085,55.625 Z " fill="#000000"/><text fill="#000000" font-family="sans-serif" font-size="15" lengthAdjust="spacing" textLength="102.5" x="1100" y="66.1377">TestParameter</text><!--MD5=[4e608140b854dae633589343bce77383]
class TestParameterResult--><rect codeLine="42" fill="#FEFECE" filter="url(#fuo3zapiduvmp)" height="101.8848" id="TestParameterResult" style="stroke:#A80036;stroke-width:1.875;" width="187.5" x="1361.25" y="155"/><ellipse cx="1380" cy="175" fill="#ADD1B2" rx="13.75" ry="13.75" style="stroke:#A80036;stroke-width:1.25;"/><path d="M1382.5,170.625 Q1382.7539,170 1383.0469,169.6875 Q1383.3398,169.375 1383.6719,169.375 Q1384.2578,169.375 1384.6289,169.7266 Q1385,170.0781 1385,170.8984 L1385,172.8516 Q1385,173.6719 1384.6484,174.0234 Q1384.2969,174.375 1383.75,174.375 Q1383.2617,174.375 1382.9492,174.1602 Q1382.6367,173.9453 1382.5,173.3789 Q1382.4414,172.9883 1382.2266,172.7734 Q1381.8359,172.3633 1381.1328,172.1289 Q1380.4297,171.875 1379.7266,171.875 Q1378.8477,171.875 1378.1055,172.2266 Q1377.3828,172.5781 1376.8164,173.3594 Q1376.25,174.1406 1376.25,175.2148 L1376.25,176.3672 Q1376.25,177.6563 1377.3047,178.5156 Q1378.3594,179.375 1380.2344,179.375 Q1381.3477,179.375 1382.1289,179.1211 Q1382.5781,178.9844 1383.0859,178.5352 Q1383.418,178.2813 1383.5938,178.2031 Q1383.7695,178.125 1383.9844,178.125 Q1384.3945,178.125 1384.6875,178.457 Q1385,178.7695 1385,179.2188 Q1385,179.6484 1384.5703,180.1563 Q1383.9453,180.8984 1382.9492,181.3086 Q1381.6406,181.875 1380.0391,181.875 Q1378.1641,181.875 1376.6602,181.1328 Q1375.4492,180.5469 1374.5898,179.2773 Q1373.75,178.0078 1373.75,176.5039 L1373.75,175.1367 Q1373.75,173.5742 1374.4922,172.207 Q1375.2539,170.8398 1376.5625,170.1172 Q1377.8906,169.375 1379.375,169.375 Q1380.2734,169.375 1381.0547,169.6875 Q1381.8359,170 1382.5,170.625 Z " fill="#000000"/><text fill="#000000" font-family="sans-serif" font-size="15" lengthAdjust="spacing" textLength="147.5" x="1397.5" y="181.1377">TestParameterResult</text><line style="stroke:#A80036;stroke-width:1.875;" x1="1362.5" x2="1547.5" y1="195" y2="195"/><text fill="#000000" font-family="sans-serif" font-size="13.75" lengthAdjust="spacing" textLength="65" x="1368.75" y="214.2737">-createdAt</text><text fill="#000000" font-family="sans-serif" font-size="13.75" lengthAdjust="spacing" textLength="37.5" x="1368.75" y="231.5686">-value</text><text fill="#000000" font-family="sans-serif" font-size="13.75" lengthAdjust="spacing" textLength="41.25" x="1368.75" y="248.8635">-metric</text><!--MD5=[aeb3272166074d8737a70b61b1e71682]
class TestType--><rect codeLine="47" fill="#FEFECE" filter="url(#fuo3zapiduvmp)" height="101.8848" id="TestType" style="stroke:#A80036;stroke-width:1.875;" width="132.5" x="1068.75" y="468.75"/><ellipse cx="1101" cy="488.75" fill="#ADD1B2" rx="13.75" ry="13.75" style="stroke:#A80036;stroke-width:1.25;"/><path d="M1103.5,484.375 Q1103.7539,483.75 1104.0469,483.4375 Q1104.3398,483.125 1104.6719,483.125 Q1105.2578,483.125 1105.6289,483.4766 Q1106,483.8281 1106,484.6484 L1106,486.6016 Q1106,487.4219 1105.6484,487.7734 Q1105.2969,488.125 1104.75,488.125 Q1104.2617,488.125 1103.9492,487.9102 Q1103.6367,487.6953 1103.5,487.1289 Q1103.4414,486.7383 1103.2266,486.5234 Q1102.8359,486.1133 1102.1328,485.8789 Q1101.4297,485.625 1100.7266,485.625 Q1099.8477,485.625 1099.1055,485.9766 Q1098.3828,486.3281 1097.8164,487.1094 Q1097.25,487.8906 1097.25,488.9648 L1097.25,490.1172 Q1097.25,491.4063 1098.3047,492.2656 Q1099.3594,493.125 1101.2344,493.125 Q1102.3477,493.125 1103.1289,492.8711 Q1103.5781,492.7344 1104.0859,492.2852 Q1104.418,492.0313 1104.5938,491.9531 Q1104.7695,491.875 1104.9844,491.875 Q1105.3945,491.875 1105.6875,492.207 Q1106,492.5195 1106,492.9688 Q1106,493.3984 1105.5703,493.9063 Q1104.9453,494.6484 1103.9492,495.0586 Q1102.6406,495.625 1101.0391,495.625 Q1099.1641,495.625 1097.6602,494.8828 Q1096.4492,494.2969 1095.5898,493.0273 Q1094.75,491.7578 1094.75,490.2539 L1094.75,488.8867 Q1094.75,487.3242 1095.4922,485.957 Q1096.2539,484.5898 1097.5625,483.8672 Q1098.8906,483.125 1100.375,483.125 Q1101.2734,483.125 1102.0547,483.4375 Q1102.8359,483.75 1103.5,484.375 Z " fill="#000000"/><text fill="#000000" font-family="sans-serif" font-size="15" lengthAdjust="spacing" textLength="62.5" x="1121.5" y="494.8877">TestType</text><line style="stroke:#A80036;stroke-width:1.875;" x1="1070" x2="1200" y1="508.75" y2="508.75"/><text fill="#000000" font-family="sans-serif" font-size="13.75" lengthAdjust="spacing" textLength="36.25" x="1076.25" y="528.0237">-Code</text><text fill="#000000" font-family="sans-serif" font-size="13.75" lengthAdjust="spacing" textLength="72.5" x="1076.25" y="545.3186">-Description</text><text fill="#000000" font-family="sans-serif" font-size="13.75" lengthAdjust="spacing" textLength="117.5" x="1076.25" y="562.6135">-Collecting methods</text><!--MD5=[1f6362a5c8f21d8d6a0fce68f3a92a4e]
class Parameter--><rect codeLine="53" fill="#FEFECE" filter="url(#fuo3zapiduvmp)" height="101.8848" id="Parameter" style="stroke:#A80036;stroke-width:1.875;" width="112.5" x="1398.75" y="8.75"/><ellipse cx="1417.5" cy="28.75" fill="#ADD1B2" rx="13.75" ry="13.75" style="stroke:#A80036;stroke-width:1.25;"/><path d="M1420,24.375 Q1420.2539,23.75 1420.5469,23.4375 Q1420.8398,23.125 1421.1719,23.125 Q1421.7578,23.125 1422.1289,23.4766 Q1422.5,23.8281 1422.5,24.6484 L1422.5,26.6016 Q1422.5,27.4219 1422.1484,27.7734 Q1421.7969,28.125 1421.25,28.125 Q1420.7617,28.125 1420.4492,27.9102 Q1420.1367,27.6953 1420,27.1289 Q1419.9414,26.7383 1419.7266,26.5234 Q1419.3359,26.1133 1418.6328,25.8789 Q1417.9297,25.625 1417.2266,25.625 Q1416.3477,25.625 1415.6055,25.9766 Q1414.8828,26.3281 1414.3164,27.1094 Q1413.75,27.8906 1413.75,28.9648 L1413.75,30.1172 Q1413.75,31.4063 1414.8047,32.2656 Q1415.8594,33.125 1417.7344,33.125 Q1418.8477,33.125 1419.6289,32.8711 Q1420.0781,32.7344 1420.5859,32.2852 Q1420.918,32.0313 1421.0938,31.9531 Q1421.2695,31.875 1421.4844,31.875 Q1421.8945,31.875 1422.1875,32.207 Q1422.5,32.5195 1422.5,32.9688 Q1422.5,33.3984 1422.0703,33.9063 Q1421.4453,34.6484 1420.4492,35.0586 Q1419.1406,35.625 1417.5391,35.625 Q1415.6641,35.625 1414.1602,34.8828 Q1412.9492,34.2969 1412.0898,33.0273 Q1411.25,31.7578 1411.25,30.2539 L1411.25,28.8867 Q1411.25,27.3242 1411.9922,25.957 Q1412.7539,24.5898 1414.0625,23.8672 Q1415.3906,23.125 1416.875,23.125 Q1417.7734,23.125 1418.5547,23.4375 Q1419.3359,23.75 1420,24.375 Z " fill="#000000"/><text fill="#000000" font-family="sans-serif" font-size="15" lengthAdjust="spacing" textLength="72.5" x="1435" y="34.8877">Parameter</text><line style="stroke:#A80036;stroke-width:1.875;" x1="1400" x2="1510" y1="48.75" y2="48.75"/><text fill="#000000" font-family="sans-serif" font-size="13.75" lengthAdjust="spacing" textLength="35" x="1406.25" y="68.0237">-code</text><text fill="#000000" font-family="sans-serif" font-size="13.75" lengthAdjust="spacing" textLength="70" x="1406.25" y="85.3186">-shortName</text><text fill="#000000" font-family="sans-serif" font-size="13.75" lengthAdjust="spacing" textLength="71.25" x="1406.25" y="102.6135">-description</text><!--MD5=[1934a092c0e7d4da7dc7075b6f4b6b03]
class ClinicalAnalysisLaboratory--><rect codeLine="59" fill="#FEFECE" filter="url(#fuo3zapiduvmp)" height="67.2949" id="ClinicalAnalysisLaboratory" style="stroke:#A80036;stroke-width:1.875;" width="221.25" x="246.25" y="431.25"/><ellipse cx="265" cy="451.25" fill="#ADD1B2" rx="13.75" ry="13.75" style="stroke:#A80036;stroke-width:1.25;"/><path d="M267.5,446.875 Q267.7539,446.25 268.0469,445.9375 Q268.3398,445.625 268.6719,445.625 Q269.2578,445.625 269.6289,445.9766 Q270,446.3281 270,447.1484 L270,449.1016 Q270,449.9219 269.6484,450.2734 Q269.2969,450.625 268.75,450.625 Q268.2617,450.625 267.9492,450.4102 Q267.6367,450.1953 267.5,449.6289 Q267.4414,449.2383 267.2266,449.0234 Q266.8359,448.6133 266.1328,448.3789 Q265.4297,448.125 264.7266,448.125 Q263.8477,448.125 263.1055,448.4766 Q262.3828,448.8281 261.8164,449.6094 Q261.25,450.3906 261.25,451.4648 L261.25,452.6172 Q261.25,453.9063 262.3047,454.7656 Q263.3594,455.625 265.2344,455.625 Q266.3477,455.625 267.1289,455.3711 Q267.5781,455.2344 268.0859,454.7852 Q268.418,454.5313 268.5938,454.4531 Q268.7695,454.375 268.9844,454.375 Q269.3945,454.375 269.6875,454.707 Q270,455.0195 270,455.4688 Q270,455.8984 269.5703,456.4063 Q268.9453,457.1484 267.9492,457.5586 Q266.6406,458.125 265.0391,458.125 Q263.1641,458.125 261.6602,457.3828 Q260.4492,456.7969 259.5898,455.5273 Q258.75,454.2578 258.75,452.7539 L258.75,451.3867 Q258.75,449.8242 259.4922,448.457 Q260.2539,447.0898 261.5625,446.3672 Q262.8906,445.625 264.375,445.625 Q265.2734,445.625 266.0547,445.9375 Q266.8359,446.25 267.5,446.875 Z " fill="#000000"/><text fill="#000000" font-family="sans-serif" font-size="15" lengthAdjust="spacing" textLength="181.25" x="282.5" y="457.3877">ClinicalAnalysisLaboratory</text><line style="stroke:#A80036;stroke-width:1.875;" x1="247.5" x2="466.25" y1="471.25" y2="471.25"/><text fill="#000000" font-family="sans-serif" font-size="13.75" lengthAdjust="spacing" textLength="77.5" x="253.75" y="490.5237">-laboratoryID</text><!--MD5=[f00dbe8c0302c6aec2cb26b3c659c8fc]
class Report--><rect fill="#FEFECE" filter="url(#fuo3zapiduvmp)" height="40" id="Report" style="stroke:#A80036;stroke-width:1.875;" width="86.25" x="313.75" y="237.5"/><ellipse cx="332.5" cy="257.5" fill="#ADD1B2" rx="13.75" ry="13.75" style="stroke:#A80036;stroke-width:1.25;"/><path d="M335,253.125 Q335.2539,252.5 335.5469,252.1875 Q335.8398,251.875 336.1719,251.875 Q336.7578,251.875 337.1289,252.2266 Q337.5,252.5781 337.5,253.3984 L337.5,255.3516 Q337.5,256.1719 337.1484,256.5234 Q336.7969,256.875 336.25,256.875 Q335.7617,256.875 335.4492,256.6602 Q335.1367,256.4453 335,255.8789 Q334.9414,255.4883 334.7266,255.2734 Q334.3359,254.8633 333.6328,254.6289 Q332.9297,254.375 332.2266,254.375 Q331.3477,254.375 330.6055,254.7266 Q329.8828,255.0781 329.3164,255.8594 Q328.75,256.6406 328.75,257.7148 L328.75,258.8672 Q328.75,260.1563 329.8047,261.0156 Q330.8594,261.875 332.7344,261.875 Q333.8477,261.875 334.6289,261.6211 Q335.0781,261.4844 335.5859,261.0352 Q335.918,260.7813 336.0938,260.7031 Q336.2695,260.625 336.4844,260.625 Q336.8945,260.625 337.1875,260.957 Q337.5,261.2695 337.5,261.7188 Q337.5,262.1484 337.0703,262.6563 Q336.4453,263.3984 335.4492,263.8086 Q334.1406,264.375 332.5391,264.375 Q330.6641,264.375 329.1602,263.6328 Q327.9492,263.0469 327.0898,261.7773 Q326.25,260.5078 326.25,259.0039 L326.25,257.6367 Q326.25,256.0742 326.9922,254.707 Q327.7539,253.3398 329.0625,252.6172 Q330.3906,251.875 331.875,251.875 Q332.7734,251.875 333.5547,252.1875 Q334.3359,252.5 335,253.125 Z " fill="#000000"/><text fill="#000000" font-family="sans-serif" font-size="15" lengthAdjust="spacing" textLength="46.25" x="350" y="263.6377">Report</text><!--MD5=[e981d4f96c4342412d1e68160b30cf70]
link Test to TestType--><path codeLine="63" d="M825.45,370.7625 C898.2125,405.975 1001.8625,456.1625 1068.475,488.4 " fill="none" id="Test-TestType" style="stroke:#A80036;stroke-width:1.25;"/><polygon fill="#000000" points="901.8756,382.9428,893.2994,374.7101,890.0982,381.3233,901.8756,382.9428" style="stroke:#000000;stroke-width:1.25;"/><text fill="#000000" font-family="sans-serif" font-size="16.25" lengthAdjust="spacing" textLength="90" x="907.5" y="386.8689">classified as</text><text fill="#000000" font-family="sans-serif" font-size="16.25" lengthAdjust="spacing" textLength="6.25" x="835.1379" y="393.2065">*</text><text fill="#000000" font-family="sans-serif" font-size="16.25" lengthAdjust="spacing" textLength="8.75" x="1050.1978" y="502.4373">1</text><!--MD5=[63d25d625ab355317a074a623d33bba8]
link Report to Test--><path codeLine="64" d="M400.3125,265.5375 C461.475,277.1875 576.0625,299.0125 654.825,314.0125 " fill="none" id="Report-Test" style="stroke:#A80036;stroke-width:1.25;"/><polygon fill="#000000" points="549.2646,277.6391,538.8453,271.9149,537.4706,279.1325,549.2646,277.6391" style="stroke:#000000;stroke-width:1.25;"/><text fill="#000000" font-family="sans-serif" font-size="16.25" lengthAdjust="spacing" textLength="30" x="554.375" y="283.1189">is of</text><text fill="#000000" font-family="sans-serif" font-size="16.25" lengthAdjust="spacing" textLength="8.75" x="410.1738" y="286.1719">1</text><text fill="#000000" font-family="sans-serif" font-size="16.25" lengthAdjust="spacing" textLength="8.75" x="636.2805" y="330.2495">1</text><!--MD5=[3994f36c72829dbcddd1cf7021dddf61]
link Test to Client--><path codeLine="65" d="M825.45,330 C901.8125,330 1012.2125,330 1078.1,330 " fill="none" id="Test-Client" style="stroke:#A80036;stroke-width:1.25;"/><polygon fill="#000000" points="900.625,318.9697,889.3186,315.2961,889.3186,322.6434,900.625,318.9697" style="stroke:#000000;stroke-width:1.25;"/><text fill="#000000" font-family="sans-serif" font-size="16.25" lengthAdjust="spacing" textLength="93.75" x="905.625" y="325.6189">requested by</text><text fill="#000000" font-family="sans-serif" font-size="16.25" lengthAdjust="spacing" textLength="6.25" x="835.1379" y="347.9856">*</text><text fill="#000000" font-family="sans-serif" font-size="16.25" lengthAdjust="spacing" textLength="8.75" x="1059.2013" y="348.5939">1</text><!--MD5=[6df8849671cb880f6936e94aa30db6f9]
link Parameter to ParameterCategory--><path codeLine="66" d="M1511.3375,102.5625 C1523.725,112.3 1536.75,122.675 1548.75,132.5 C1637.025,204.7375 1737.5875,291.6375 1795.7375,342.3625 " fill="none" id="Parameter-ParameterCategory" style="stroke:#A80036;stroke-width:1.25;"/><polygon fill="#000000" points="1597.2782,159.2486,1591.0025,149.1518,1586.2663,154.7689,1597.2782,159.2486" style="stroke:#000000;stroke-width:1.25;"/><text fill="#000000" font-family="sans-serif" font-size="16.25" lengthAdjust="spacing" textLength="116.25" x="1603.75" y="161.8689">presented under</text><text fill="#000000" font-family="sans-serif" font-size="16.25" lengthAdjust="spacing" textLength="6.25" x="1521.186" y="128.2244">*</text><text fill="#000000" font-family="sans-serif" font-size="16.25" lengthAdjust="spacing" textLength="8.75" x="1776.3046" y="328.952">1</text><!--MD5=[8aaf0efd5e2f3824be7ea3e488dcc283]
link TestType to ParameterCategory--><path codeLine="67" d="M1201.2875,507.6 C1329.5,483.1625 1614.875,428.75 1758.425,401.3875 " fill="none" id="TestType-ParameterCategory" style="stroke:#A80036;stroke-width:1.25;"/><polygon fill="#000000" points="1398.0144,430.2993,1386.2201,428.8079,1387.5961,436.0253,1398.0144,430.2993" style="stroke:#000000;stroke-width:1.25;"/><text fill="#000000" font-family="sans-serif" font-size="16.25" lengthAdjust="spacing" textLength="120" x="1403.125" y="438.1189">characterized by</text><text fill="#000000" font-family="sans-serif" font-size="16.25" lengthAdjust="spacing" textLength="8.75" x="1211.2244" y="524.2056">1</text><text fill="#000000" font-family="sans-serif" font-size="16.25" lengthAdjust="spacing" textLength="25" x="1723.6108" y="420.8957">1..*</text><!--MD5=[b72ac8ab7fb5921fceb5036a3902baea]
link Test to Sample--><path codeLine="68" d="M825.45,293 C905.6375,257.75 1023.3625,206.0125 1087.6625,177.75 " fill="none" id="Test-Sample" style="stroke:#A80036;stroke-width:1.25;"/><polygon fill="#000000" points="918.8467,195.2049,907.0178,196.3912,909.9742,203.1174,918.8467,195.2049" style="stroke:#000000;stroke-width:1.25;"/><text fill="#000000" font-family="sans-serif" font-size="16.25" lengthAdjust="spacing" textLength="56.25" x="924.375" y="204.3689">collects</text><text fill="#000000" font-family="sans-serif" font-size="16.25" lengthAdjust="spacing" textLength="8.75" x="835.2746" y="306.9387">1</text><text fill="#000000" font-family="sans-serif" font-size="16.25" lengthAdjust="spacing" textLength="25" x="1053.1259" y="199.4914">1..*</text><!--MD5=[f24c888dadeb846430474fe80a58922b]
link Test to TestParameter--><path codeLine="69" d="M790.2125,252.925 C810.1375,226.0375 834.975,197.3375 862.5,176.25 C923.2875,129.65 1005.5875,97.8375 1063.5375,79.425 " fill="none" id="Test-TestParameter" style="stroke:#A80036;stroke-width:1.25;"/><polygon fill="#000000" points="874.0267,79.3702,862.5123,82.328,866.4499,88.5311,874.0267,79.3702" style="stroke:#000000;stroke-width:1.25;"/><text fill="#000000" font-family="sans-serif" font-size="16.25" lengthAdjust="spacing" textLength="145" x="880" y="89.3689">requests analysis of</text><text fill="#000000" font-family="sans-serif" font-size="16.25" lengthAdjust="spacing" textLength="8.75" x="786.7625" y="239.7501">1</text><text fill="#000000" font-family="sans-serif" font-size="16.25" lengthAdjust="spacing" textLength="25" x="1028.8293" y="99.7216">1..*</text><!--MD5=[92e8e476cc9e9004a7125f53a120ec97]
link TestParameter to Parameter--><path codeLine="70" d="M1206.325,60 C1264.2125,60 1345.2625,60 1398.6125,60 " fill="none" id="TestParameter-Parameter" style="stroke:#A80036;stroke-width:1.25;"/><polygon fill="#000000" points="1257.5,48.9697,1246.1936,45.2961,1246.1936,52.6434,1257.5,48.9697" style="stroke:#000000;stroke-width:1.25;"/><text fill="#000000" font-family="sans-serif" font-size="16.25" lengthAdjust="spacing" textLength="58.75" x="1262.5" y="55.6189">refers to</text><text fill="#000000" font-family="sans-serif" font-size="16.25" lengthAdjust="spacing" textLength="6.25" x="1216.3292" y="78.2422">*</text><text fill="#000000" font-family="sans-serif" font-size="16.25" lengthAdjust="spacing" textLength="8.75" x="1380.1785" y="78.5467">1</text><!--MD5=[0e00e25ac6b8c14659aaff2cf7e5df08]
link TestParameter to TestParameterResult--><path codeLine="71" d="M1179.7375,80.025 C1226.175,101.425 1301.2,135.975 1361,163.525 " fill="none" id="TestParameter-TestParameterResult" style="stroke:#A80036;stroke-width:1.25;"/><polygon fill="#000000" points="1255.6766,104.0847,1246.9446,96.0175,1243.8704,102.6908,1255.6766,104.0847" style="stroke:#000000;stroke-width:1.25;"/><text fill="#000000" font-family="sans-serif" font-size="16.25" lengthAdjust="spacing" textLength="61.25" x="1261.25" y="108.1189">contains</text><text fill="#000000" font-family="sans-serif" font-size="16.25" lengthAdjust="spacing" textLength="8.75" x="1184.3576" y="106.9125">1</text><text fill="#000000" font-family="sans-serif" font-size="16.25" lengthAdjust="spacing" textLength="27.5" x="1323.9035" y="177.5263">0..1</text><!--MD5=[2eb961b30663a01bbfd8b4b9b8950031]
link ClinicalAnalysisLaboratory to TestType--><path codeLine="72" d="M467.6125,472.7625 C631.5125,484.3875 935.5875,505.95 1068.6125,515.375 " fill="none" id="ClinicalAnalysisLaboratory-TestType" style="stroke:#A80036;stroke-width:1.25;"/><polygon fill="#000000" points="711.8593,474.4118,700.8411,469.9477,700.3215,477.2766,711.8593,474.4118" style="stroke:#000000;stroke-width:1.25;"/><text fill="#000000" font-family="sans-serif" font-size="16.25" lengthAdjust="spacing" textLength="62.5" x="716.875" y="480.6189">operates</text><text fill="#000000" font-family="sans-serif" font-size="16.25" lengthAdjust="spacing" textLength="8.75" x="477.505" y="491.1856">1</text><text fill="#000000" font-family="sans-serif" font-size="16.25" lengthAdjust="spacing" textLength="25" x="1033.505" y="533.0001">1..*</text><!--MD5=[d480452e7d21fe720ba0207568bc7434]
link ClinicalAnalysisLaboratory to Test--><path codeLine="73" d="M467.7625,443.7875 C514.775,432.975 569.75,417.9875 617.5,398.75 C629.85,393.775 642.4875,387.7625 654.7125,381.4 " fill="none" id="ClinicalAnalysisLaboratory-Test" style="stroke:#A80036;stroke-width:1.25;"/><polygon fill="#000000" points="505.3214,389.6982,517.2092,389.6039,514.8834,382.6344,505.3214,389.6982" style="stroke:#000000;stroke-width:1.25;"/><text fill="#000000" font-family="sans-serif" font-size="16.25" lengthAdjust="spacing" textLength="93.75" x="522.5" y="394.3689">conducted at</text><text fill="#000000" font-family="sans-serif" font-size="16.25" lengthAdjust="spacing" textLength="8.75" x="477.6679" y="459.7205">1</text><text fill="#000000" font-family="sans-serif" font-size="16.25" lengthAdjust="spacing" textLength="25" x="620.0865" y="404.3336">1..*</text><!--MD5=[7e4bc624457760b649895ff2ead938fa]
link Company to Test--><path codeLine="74" d="M115.05,396.575 C127.3125,394.7125 140.35,392.8125 152.5,391.25 C330.875,368.225 540.6375,347.95 654.625,337.5 " fill="none" id="Company-Test" style="stroke:#A80036;stroke-width:1.25;"/><polygon fill="#000000" points="326.8379,343.2895,315.1989,340.8682,315.9985,348.1719,326.8379,343.2895" style="stroke:#000000;stroke-width:1.25;"/><text fill="#000000" font-family="sans-serif" font-size="16.25" lengthAdjust="spacing" textLength="66.25" x="331.875" y="350.6189">conducts</text><text fill="#000000" font-family="sans-serif" font-size="16.25" lengthAdjust="spacing" textLength="8.75" x="124.9414" y="390.3325">1</text><text fill="#000000" font-family="sans-serif" font-size="16.25" lengthAdjust="spacing" textLength="6.25" x="638.6953" y="356.3059">*</text><!--MD5=[aafc5d8a5829a6a8d6dc892cb1ff5d24]
link Company to ClinicalAnalysisLaboratory--><path codeLine="75" d="M115.075,415.6625 C151.3625,423.1 201.1375,433.3125 246,442.5125 " fill="none" id="Company-ClinicalAnalysisLaboratory" style="stroke:#A80036;stroke-width:1.25;"/><polygon fill="#000000" points="164.8726,413.9753,154.5348,408.1052,153.0587,415.3027,164.8726,413.9753" style="stroke:#000000;stroke-width:1.25;"/><text fill="#000000" font-family="sans-serif" font-size="16.25" lengthAdjust="spacing" textLength="37.5" x="170" y="419.3689">owns</text><text fill="#000000" font-family="sans-serif" font-size="16.25" lengthAdjust="spacing" textLength="8.75" x="124.9707" y="436.1382">1</text><text fill="#000000" font-family="sans-serif" font-size="16.25" lengthAdjust="spacing" textLength="25" x="211.1686" y="458.412">2..*</text><!--MD5=[effb8da3a832b95be988129f64f97008]
@startuml

left to right direction
skinparam classAttributeIconSize 0
hide empty methods
hide empty attributes
/'skinparam linetype ortho'/

class Test{
- code
- NhsCode
- dateOfTestRegistration
- dateOfSamplesCollection
- dateOfChemicalAnalysis
- dateOfDiagnosis
}

class Company {
-designation
}

class ParameterCategory{
  -code
  -name
}


class Sample{
- barCode
}

class Client{
- name
- citizenCardNum
- nhsNum
- birthDate
- sex
- taxIdNum
- phoneNum
- email
}
class TestParameter{}
class TestParameterResult{
- createdAt
- value
- metric
}
class TestType{
- Code
- Description
- Collecting methods
}

class Parameter{
- code
- shortName
- description
}

class ClinicalAnalysisLaboratory{
- laboratoryID
}

Test "*" - - "1" TestType : classified as >
Report "1" - - "1" Test : is of >
Test "*" - - "1" Client : requested by >
Parameter "*" - - "1" ParameterCategory: presented under >
TestType "1" - - "1..*" ParameterCategory : characterized by >
Test "1" - - "1..*" Sample : collects >
Test "1" - - "1..*" TestParameter : requests analysis of >
TestParameter "*" - - "1" Parameter : refers to >
TestParameter "1" - - "0..1" TestParameterResult : contains >
ClinicalAnalysisLaboratory "1" - - "1..*" TestType : operates >
ClinicalAnalysisLaboratory "1" - - "1..*" Test : conducted at <
Company "1" - - - "*" Test : conducts >
Company "1" - - "2..*" ClinicalAnalysisLaboratory : owns >

@enduml

@startuml

left to right direction
skinparam classAttributeIconSize 0
hide empty methods
hide empty attributes

class Test{
- code
- NhsCode
- dateOfTestRegistration
- dateOfSamplesCollection
- dateOfChemicalAnalysis
- dateOfDiagnosis
}

class Company {
-designation
}

class ParameterCategory{
  -code
  -name
}


class Sample{
- barCode
}

class Client{
- name
- citizenCardNum
- nhsNum
- birthDate
- sex
- taxIdNum
- phoneNum
- email
}
class TestParameter{}
class TestParameterResult{
- createdAt
- value
- metric
}
class TestType{
- Code
- Description
- Collecting methods
}

class Parameter{
- code
- shortName
- description
}

class ClinicalAnalysisLaboratory{
- laboratoryID
}

Test "*" - - "1" TestType : classified as >
Report "1" - - "1" Test : is of >
Test "*" - - "1" Client : requested by >
Parameter "*" - - "1" ParameterCategory: presented under >
TestType "1" - - "1..*" ParameterCategory : characterized by >
Test "1" - - "1..*" Sample : collects >
Test "1" - - "1..*" TestParameter : requests analysis of >
TestParameter "*" - - "1" Parameter : refers to >
TestParameter "1" - - "0..1" TestParameterResult : contains >
ClinicalAnalysisLaboratory "1" - - "1..*" TestType : operates >
ClinicalAnalysisLaboratory "1" - - "1..*" Test : conducted at <
Company "1" - - - "*" Test : conducts >
Company "1" - - "2..*" ClinicalAnalysisLaboratory : owns >

@enduml

PlantUML version 1.2021.00(Sun Jan 10 10:25:05 GMT 2021)
(GPL source distribution)
Java Runtime: OpenJDK Runtime Environment
JVM: OpenJDK 64-Bit Server VM
Default Encoding: Cp1252
Language: pt
Country: BR
--></g></svg>