<?xml version="1.0" encoding="UTF-8" standalone="no"?><svg xmlns="http://www.w3.org/2000/svg" xmlns:xlink="http://www.w3.org/1999/xlink" contentScriptType="application/ecmascript" contentStyleType="text/css" height="647.52px" preserveAspectRatio="none" style="width:2364px;height:647px;" version="1.1" viewBox="0 0 2364 647" width="2364.36px" zoomAndPan="magnify"><defs><filter height="300%" id="f1gzcxscj6pzar" width="300%" x="-1" y="-1"><feGaussianBlur result="blurOut" stdDeviation="1.52"/><feColorMatrix in="blurOut" result="blurOut2" type="matrix" values="0 0 0 0 0 0 0 0 0 0 0 0 0 0 0 0 0 0 .4 0"/><feOffset dx="3.04" dy="3.04" in="blurOut2" result="blurOut3"/><feBlend in="SourceGraphic" in2="blurOut3" mode="normal"/></filter></defs><g><!--MD5=[1934a092c0e7d4da7dc7075b6f4b6b03]
class ClinicalAnalysisLaboratory--><rect codeLine="10" fill="#FEFECE" filter="url(#f1gzcxscj6pzar)" height="46.9953" id="ClinicalAnalysisLaboratory" style="stroke:#A80036;stroke-width:1.1400000000000001;" width="134.52" x="1194.72" y="296.02"/><ellipse cx="1206.12" cy="308.18" fill="#ADD1B2" rx="8.36" ry="8.36" style="stroke:#A80036;stroke-width:0.76;"/><path d="M1207.64,305.52 Q1207.7944,305.14 1207.9725,304.95 Q1208.1506,304.76 1208.3525,304.76 Q1208.7088,304.76 1208.9344,304.9738 Q1209.16,305.1875 1209.16,305.6863 L1209.16,306.8738 Q1209.16,307.3725 1208.9463,307.5863 Q1208.7325,307.8 1208.4,307.8 Q1208.1031,307.8 1207.9131,307.6694 Q1207.7231,307.5388 1207.64,307.1944 Q1207.6044,306.9569 1207.4738,306.8263 Q1207.2363,306.5769 1206.8088,306.4344 Q1206.3813,306.28 1205.9538,306.28 Q1205.4194,306.28 1204.9681,306.4938 Q1204.5288,306.7075 1204.1844,307.1825 Q1203.84,307.6575 1203.84,308.3106 L1203.84,309.0113 Q1203.84,309.795 1204.4813,310.3175 Q1205.1225,310.84 1206.2625,310.84 Q1206.9394,310.84 1207.4144,310.6856 Q1207.6875,310.6025 1207.9963,310.3294 Q1208.1981,310.175 1208.305,310.1275 Q1208.4119,310.08 1208.5425,310.08 Q1208.7919,310.08 1208.97,310.2819 Q1209.16,310.4719 1209.16,310.745 Q1209.16,311.0063 1208.8988,311.315 Q1208.5188,311.7663 1207.9131,312.0156 Q1207.1175,312.36 1206.1438,312.36 Q1205.0038,312.36 1204.0894,311.9088 Q1203.3531,311.5525 1202.8306,310.7806 Q1202.32,310.0088 1202.32,309.0944 L1202.32,308.2631 Q1202.32,307.3131 1202.7713,306.4819 Q1203.2344,305.6506 1204.03,305.2113 Q1204.8375,304.76 1205.74,304.76 Q1206.2863,304.76 1206.7613,304.95 Q1207.2363,305.14 1207.64,305.52 Z " fill="#000000"/><text fill="#000000" font-family="sans-serif" font-size="9.12" lengthAdjust="spacing" textLength="110.2" x="1216.76" y="311.9117">ClinicalAnalysisLaboratory</text><line style="stroke:#A80036;stroke-width:1.1400000000000001;" x1="1195.48" x2="1328.48" y1="320.34" y2="320.34"/><text fill="#000000" font-family="sans-serif" font-size="8.36" lengthAdjust="spacing" textLength="47.12" x="1199.28" y="332.0584">-laboratoryID</text><line style="stroke:#A80036;stroke-width:1.1400000000000001;" x1="1195.48" x2="1328.48" y1="336.9353" y2="336.9353"/><!--MD5=[0f07739f46effee96e095e9c408da841]
class TestParameter--><rect codeLine="14" fill="#FEFECE" filter="url(#f1gzcxscj6pzar)" height="46.9953" id="TestParameter" style="stroke:#A80036;stroke-width:1.1400000000000001;" width="152" x="1724.44" y="318.82"/><ellipse cx="1766.05" cy="330.98" fill="#ADD1B2" rx="8.36" ry="8.36" style="stroke:#A80036;stroke-width:0.76;"/><path d="M1767.57,328.32 Q1767.7244,327.94 1767.9025,327.75 Q1768.0806,327.56 1768.2825,327.56 Q1768.6388,327.56 1768.8644,327.7738 Q1769.09,327.9875 1769.09,328.4863 L1769.09,329.6738 Q1769.09,330.1725 1768.8763,330.3863 Q1768.6625,330.6 1768.33,330.6 Q1768.0331,330.6 1767.8431,330.4694 Q1767.6531,330.3388 1767.57,329.9944 Q1767.5344,329.7569 1767.4038,329.6263 Q1767.1663,329.3769 1766.7388,329.2344 Q1766.3113,329.08 1765.8838,329.08 Q1765.3494,329.08 1764.8981,329.2938 Q1764.4588,329.5075 1764.1144,329.9825 Q1763.77,330.4575 1763.77,331.1106 L1763.77,331.8113 Q1763.77,332.595 1764.4113,333.1175 Q1765.0525,333.64 1766.1925,333.64 Q1766.8694,333.64 1767.3444,333.4856 Q1767.6175,333.4025 1767.9263,333.1294 Q1768.1281,332.975 1768.235,332.9275 Q1768.3419,332.88 1768.4725,332.88 Q1768.7219,332.88 1768.9,333.0819 Q1769.09,333.2719 1769.09,333.545 Q1769.09,333.8063 1768.8288,334.115 Q1768.4488,334.5663 1767.8431,334.8156 Q1767.0475,335.16 1766.0738,335.16 Q1764.9338,335.16 1764.0194,334.7088 Q1763.2831,334.3525 1762.7606,333.5806 Q1762.25,332.8088 1762.25,331.8944 L1762.25,331.0631 Q1762.25,330.1131 1762.7013,329.2819 Q1763.1644,328.4506 1763.96,328.0113 Q1764.7675,327.56 1765.67,327.56 Q1766.2163,327.56 1766.6913,327.75 Q1767.1663,327.94 1767.57,328.32 Z " fill="#000000"/><text fill="#000000" font-family="sans-serif" font-size="9.12" lengthAdjust="spacing" textLength="62.32" x="1781.63" y="334.7117">TestParameter</text><line style="stroke:#A80036;stroke-width:1.1400000000000001;" x1="1725.2" x2="1875.68" y1="343.14" y2="343.14"/><line style="stroke:#A80036;stroke-width:1.1400000000000001;" x1="1725.2" x2="1875.68" y1="349.22" y2="349.22"/><text fill="#000000" font-family="sans-serif" font-size="8.36" lengthAdjust="spacing" textLength="142.88" x="1729" y="360.9384">+TestParameter(parameter: Parameter)</text><!--MD5=[4e608140b854dae633589343bce77383]
class TestParameterResult--><rect codeLine="17" fill="#FEFECE" filter="url(#f1gzcxscj6pzar)" height="68.0259" id="TestParameterResult" style="stroke:#A80036;stroke-width:1.1400000000000001;" width="114" x="2006.4" y="308.18"/><ellipse cx="2017.8" cy="320.34" fill="#ADD1B2" rx="8.36" ry="8.36" style="stroke:#A80036;stroke-width:0.76;"/><path d="M2019.32,317.68 Q2019.4744,317.3 2019.6525,317.11 Q2019.8306,316.92 2020.0325,316.92 Q2020.3888,316.92 2020.6144,317.1338 Q2020.84,317.3475 2020.84,317.8463 L2020.84,319.0338 Q2020.84,319.5325 2020.6263,319.7463 Q2020.4125,319.96 2020.08,319.96 Q2019.7831,319.96 2019.5931,319.8294 Q2019.4031,319.6988 2019.32,319.3544 Q2019.2844,319.1169 2019.1538,318.9863 Q2018.9163,318.7369 2018.4888,318.5944 Q2018.0613,318.44 2017.6338,318.44 Q2017.0994,318.44 2016.6481,318.6538 Q2016.2088,318.8675 2015.8644,319.3425 Q2015.52,319.8175 2015.52,320.4706 L2015.52,321.1713 Q2015.52,321.955 2016.1613,322.4775 Q2016.8025,323 2017.9425,323 Q2018.6194,323 2019.0944,322.8456 Q2019.3675,322.7625 2019.6763,322.4894 Q2019.8781,322.335 2019.985,322.2875 Q2020.0919,322.24 2020.2225,322.24 Q2020.4719,322.24 2020.65,322.4419 Q2020.84,322.6319 2020.84,322.905 Q2020.84,323.1663 2020.5788,323.475 Q2020.1988,323.9263 2019.5931,324.1756 Q2018.7975,324.52 2017.8238,324.52 Q2016.6838,324.52 2015.7694,324.0688 Q2015.0331,323.7125 2014.5106,322.9406 Q2014,322.1688 2014,321.2544 L2014,320.4231 Q2014,319.4731 2014.4513,318.6419 Q2014.9144,317.8106 2015.71,317.3713 Q2016.5175,316.92 2017.42,316.92 Q2017.9663,316.92 2018.4413,317.11 Q2018.9163,317.3 2019.32,317.68 Z " fill="#000000"/><text fill="#000000" font-family="sans-serif" font-size="9.12" lengthAdjust="spacing" textLength="89.68" x="2028.44" y="324.0717">TestParameterResult</text><line style="stroke:#A80036;stroke-width:1.1400000000000001;" x1="2007.16" x2="2119.64" y1="332.5" y2="332.5"/><text fill="#000000" font-family="sans-serif" font-size="8.36" lengthAdjust="spacing" textLength="39.52" x="2010.96" y="344.2184">-createdAt</text><text fill="#000000" font-family="sans-serif" font-size="8.36" lengthAdjust="spacing" textLength="22.8" x="2010.96" y="354.7337">-value</text><text fill="#000000" font-family="sans-serif" font-size="8.36" lengthAdjust="spacing" textLength="25.08" x="2010.96" y="365.249">-metric</text><line style="stroke:#A80036;stroke-width:1.1400000000000001;" x1="2007.16" x2="2119.64" y1="370.1259" y2="370.1259"/><!--MD5=[aeb3272166074d8737a70b61b1e71682]
class TestType--><rect codeLine="22" fill="#FEFECE" filter="url(#f1gzcxscj6pzar)" height="68.0259" id="TestType" style="stroke:#A80036;stroke-width:1.1400000000000001;" width="101.08" x="1749.9" y="220.78"/><ellipse cx="1778.742" cy="232.94" fill="#ADD1B2" rx="8.36" ry="8.36" style="stroke:#A80036;stroke-width:0.76;"/><path d="M1780.262,230.28 Q1780.4164,229.9 1780.5945,229.71 Q1780.7726,229.52 1780.9745,229.52 Q1781.3307,229.52 1781.5564,229.7338 Q1781.782,229.9475 1781.782,230.4463 L1781.782,231.6338 Q1781.782,232.1325 1781.5682,232.3463 Q1781.3545,232.56 1781.022,232.56 Q1780.7251,232.56 1780.5351,232.4294 Q1780.3451,232.2988 1780.262,231.9544 Q1780.2264,231.7169 1780.0958,231.5863 Q1779.8582,231.3369 1779.4308,231.1944 Q1779.0033,231.04 1778.5758,231.04 Q1778.0414,231.04 1777.5901,231.2538 Q1777.1507,231.4675 1776.8064,231.9425 Q1776.462,232.4175 1776.462,233.0706 L1776.462,233.7713 Q1776.462,234.555 1777.1033,235.0775 Q1777.7445,235.6 1778.8845,235.6 Q1779.5614,235.6 1780.0364,235.4456 Q1780.3095,235.3625 1780.6183,235.0894 Q1780.8201,234.935 1780.927,234.8875 Q1781.0339,234.84 1781.1645,234.84 Q1781.4139,234.84 1781.592,235.0419 Q1781.782,235.2319 1781.782,235.505 Q1781.782,235.7663 1781.5208,236.075 Q1781.1407,236.5263 1780.5351,236.7756 Q1779.7395,237.12 1778.7657,237.12 Q1777.6258,237.12 1776.7114,236.6688 Q1775.9751,236.3125 1775.4526,235.5406 Q1774.942,234.7688 1774.942,233.8544 L1774.942,233.0231 Q1774.942,232.0731 1775.3932,231.2419 Q1775.8564,230.4106 1776.652,229.9713 Q1777.4595,229.52 1778.362,229.52 Q1778.9083,229.52 1779.3832,229.71 Q1779.8582,229.9 1780.262,230.28 Z " fill="#000000"/><text fill="#000000" font-family="sans-serif" font-size="9.12" lengthAdjust="spacing" textLength="38" x="1793.258" y="236.6717">TestType</text><line style="stroke:#A80036;stroke-width:1.1400000000000001;" x1="1750.66" x2="1850.22" y1="245.1" y2="245.1"/><text fill="#000000" font-family="sans-serif" font-size="8.36" lengthAdjust="spacing" textLength="49.4" x="1754.46" y="256.8184">-code : String</text><text fill="#000000" font-family="sans-serif" font-size="8.36" lengthAdjust="spacing" textLength="71.44" x="1754.46" y="267.3337">-description : String</text><text fill="#000000" font-family="sans-serif" font-size="8.36" lengthAdjust="spacing" textLength="91.96" x="1754.46" y="277.849">-collectingMethod : String</text><line style="stroke:#A80036;stroke-width:1.1400000000000001;" x1="1750.66" x2="1850.22" y1="282.7259" y2="282.7259"/><!--MD5=[df38be88ccee13e832d6fafd6288a4ca]
class Test--><rect codeLine="28" fill="#FEFECE" filter="url(#f1gzcxscj6pzar)" height="99.5719" id="Test" style="stroke:#A80036;stroke-width:1.1400000000000001;" width="103.36" x="1475.92" y="285.76"/><ellipse cx="1515.25" cy="297.92" fill="#ADD1B2" rx="8.36" ry="8.36" style="stroke:#A80036;stroke-width:0.76;"/><path d="M1516.77,295.26 Q1516.9244,294.88 1517.1025,294.69 Q1517.2806,294.5 1517.4825,294.5 Q1517.8388,294.5 1518.0644,294.7138 Q1518.29,294.9275 1518.29,295.4263 L1518.29,296.6138 Q1518.29,297.1125 1518.0763,297.3263 Q1517.8625,297.54 1517.53,297.54 Q1517.2331,297.54 1517.0431,297.4094 Q1516.8531,297.2788 1516.77,296.9344 Q1516.7344,296.6969 1516.6038,296.5663 Q1516.3663,296.3169 1515.9388,296.1744 Q1515.5113,296.02 1515.0838,296.02 Q1514.5494,296.02 1514.0981,296.2338 Q1513.6588,296.4475 1513.3144,296.9225 Q1512.97,297.3975 1512.97,298.0506 L1512.97,298.7513 Q1512.97,299.535 1513.6113,300.0575 Q1514.2525,300.58 1515.3925,300.58 Q1516.0694,300.58 1516.5444,300.4256 Q1516.8175,300.3425 1517.1263,300.0694 Q1517.3281,299.915 1517.435,299.8675 Q1517.5419,299.82 1517.6725,299.82 Q1517.9219,299.82 1518.1,300.0219 Q1518.29,300.2119 1518.29,300.485 Q1518.29,300.7463 1518.0288,301.055 Q1517.6488,301.5063 1517.0431,301.7556 Q1516.2475,302.1 1515.2738,302.1 Q1514.1338,302.1 1513.2194,301.6488 Q1512.4831,301.2925 1511.9606,300.5206 Q1511.45,299.7488 1511.45,298.8344 L1511.45,298.0031 Q1511.45,297.0531 1511.9013,296.2219 Q1512.3644,295.3906 1513.16,294.9513 Q1513.9675,294.5 1514.87,294.5 Q1515.4163,294.5 1515.8913,294.69 Q1516.3663,294.88 1516.77,295.26 Z " fill="#000000"/><text fill="#000000" font-family="sans-serif" font-size="9.12" lengthAdjust="spacing" textLength="18.24" x="1530.83" y="301.6517">Test</text><line style="stroke:#A80036;stroke-width:1.1400000000000001;" x1="1476.68" x2="1578.52" y1="310.08" y2="310.08"/><text fill="#000000" font-family="sans-serif" font-size="8.36" lengthAdjust="spacing" textLength="21.28" x="1480.48" y="321.7984">-code</text><text fill="#000000" font-family="sans-serif" font-size="8.36" lengthAdjust="spacing" textLength="36.48" x="1480.48" y="332.3137">-NhsCode</text><text fill="#000000" font-family="sans-serif" font-size="8.36" lengthAdjust="spacing" textLength="87.4" x="1480.48" y="342.829">-dateOfTestRegistration</text><text fill="#000000" font-family="sans-serif" font-size="8.36" lengthAdjust="spacing" textLength="94.24" x="1480.48" y="353.3443">-dateOfSamplesCollection</text><text fill="#000000" font-family="sans-serif" font-size="8.36" lengthAdjust="spacing" textLength="92.72" x="1480.48" y="363.8596">-dateOfChemicalAnalysis</text><text fill="#000000" font-family="sans-serif" font-size="8.36" lengthAdjust="spacing" textLength="63.84" x="1480.48" y="374.375">-dateOfDiagnosis</text><line style="stroke:#A80036;stroke-width:1.1400000000000001;" x1="1476.68" x2="1578.52" y1="379.2519" y2="379.2519"/><!--MD5=[1f6362a5c8f21d8d6a0fce68f3a92a4e]
class Parameter--><rect codeLine="37" fill="#FEFECE" filter="url(#f1gzcxscj6pzar)" height="68.0259" id="Parameter" style="stroke:#A80036;stroke-width:1.1400000000000001;" width="68.4" x="2029.2" y="403.18"/><ellipse cx="2040.6" cy="415.34" fill="#ADD1B2" rx="8.36" ry="8.36" style="stroke:#A80036;stroke-width:0.76;"/><path d="M2042.12,412.68 Q2042.2744,412.3 2042.4525,412.11 Q2042.6306,411.92 2042.8325,411.92 Q2043.1888,411.92 2043.4144,412.1338 Q2043.64,412.3475 2043.64,412.8463 L2043.64,414.0338 Q2043.64,414.5325 2043.4263,414.7463 Q2043.2125,414.96 2042.88,414.96 Q2042.5831,414.96 2042.3931,414.8294 Q2042.2031,414.6988 2042.12,414.3544 Q2042.0844,414.1169 2041.9538,413.9863 Q2041.7163,413.7369 2041.2888,413.5944 Q2040.8613,413.44 2040.4338,413.44 Q2039.8994,413.44 2039.4481,413.6538 Q2039.0088,413.8675 2038.6644,414.3425 Q2038.32,414.8175 2038.32,415.4706 L2038.32,416.1713 Q2038.32,416.955 2038.9613,417.4775 Q2039.6025,418 2040.7425,418 Q2041.4194,418 2041.8944,417.8456 Q2042.1675,417.7625 2042.4763,417.4894 Q2042.6781,417.335 2042.785,417.2875 Q2042.8919,417.24 2043.0225,417.24 Q2043.2719,417.24 2043.45,417.4419 Q2043.64,417.6319 2043.64,417.905 Q2043.64,418.1663 2043.3788,418.475 Q2042.9988,418.9263 2042.3931,419.1756 Q2041.5975,419.52 2040.6238,419.52 Q2039.4838,419.52 2038.5694,419.0688 Q2037.8331,418.7125 2037.3106,417.9406 Q2036.8,417.1688 2036.8,416.2544 L2036.8,415.4231 Q2036.8,414.4731 2037.2513,413.6419 Q2037.7144,412.8106 2038.51,412.3713 Q2039.3175,411.92 2040.22,411.92 Q2040.7663,411.92 2041.2413,412.11 Q2041.7163,412.3 2042.12,412.68 Z " fill="#000000"/><text fill="#000000" font-family="sans-serif" font-size="9.12" lengthAdjust="spacing" textLength="44.08" x="2051.24" y="419.0717">Parameter</text><line style="stroke:#A80036;stroke-width:1.1400000000000001;" x1="2029.96" x2="2096.84" y1="427.5" y2="427.5"/><text fill="#000000" font-family="sans-serif" font-size="8.36" lengthAdjust="spacing" textLength="21.28" x="2033.76" y="439.2184">-code</text><text fill="#000000" font-family="sans-serif" font-size="8.36" lengthAdjust="spacing" textLength="42.56" x="2033.76" y="449.7337">-shortName</text><text fill="#000000" font-family="sans-serif" font-size="8.36" lengthAdjust="spacing" textLength="43.32" x="2033.76" y="460.249">-description</text><line style="stroke:#A80036;stroke-width:1.1400000000000001;" x1="2029.96" x2="2096.84" y1="465.1259" y2="465.1259"/><!--MD5=[02e4b9b7573f1156f41e60aa5b4e25a4]
class Company--><rect codeLine="43" fill="#FEFECE" filter="url(#f1gzcxscj6pzar)" height="89.0566" id="Company" style="stroke:#A80036;stroke-width:1.1400000000000001;" width="88.16" x="679.44" y="332.12"/><ellipse cx="701.442" cy="344.28" fill="#ADD1B2" rx="8.36" ry="8.36" style="stroke:#A80036;stroke-width:0.76;"/><path d="M702.962,341.62 Q703.1164,341.24 703.2945,341.05 Q703.4726,340.86 703.6745,340.86 Q704.0308,340.86 704.2564,341.0738 Q704.482,341.2875 704.482,341.7863 L704.482,342.9738 Q704.482,343.4725 704.2683,343.6863 Q704.0545,343.9 703.722,343.9 Q703.4251,343.9 703.2351,343.7694 Q703.0451,343.6388 702.962,343.2944 Q702.9264,343.0569 702.7958,342.9263 Q702.5583,342.6769 702.1308,342.5344 Q701.7033,342.38 701.2758,342.38 Q700.7414,342.38 700.2901,342.5938 Q699.8508,342.8075 699.5064,343.2825 Q699.162,343.7575 699.162,344.4106 L699.162,345.1113 Q699.162,345.895 699.8033,346.4175 Q700.4445,346.94 701.5845,346.94 Q702.2614,346.94 702.7364,346.7856 Q703.0095,346.7025 703.3183,346.4294 Q703.5201,346.275 703.627,346.2275 Q703.7339,346.18 703.8645,346.18 Q704.1139,346.18 704.292,346.3819 Q704.482,346.5719 704.482,346.845 Q704.482,347.1063 704.2208,347.415 Q703.8408,347.8663 703.2351,348.1156 Q702.4395,348.46 701.4658,348.46 Q700.3258,348.46 699.4114,348.0088 Q698.6751,347.6525 698.1526,346.8806 Q697.642,346.1088 697.642,345.1944 L697.642,344.3631 Q697.642,343.4131 698.0933,342.5819 Q698.5564,341.7506 699.352,341.3113 Q700.1595,340.86 701.062,340.86 Q701.6083,340.86 702.0833,341.05 Q702.5583,341.24 702.962,341.62 Z " fill="#000000"/><text fill="#000000" font-family="sans-serif" font-size="9.12" lengthAdjust="spacing" textLength="40.28" x="714.438" y="348.0117">Company</text><line style="stroke:#A80036;stroke-width:1.1400000000000001;" x1="680.2" x2="766.84" y1="356.44" y2="356.44"/><text fill="#000000" font-family="sans-serif" font-size="8.36" lengthAdjust="spacing" textLength="72.96" x="684" y="368.1584">-designation : String</text><line style="stroke:#A80036;stroke-width:1.1400000000000001;" x1="680.2" x2="766.84" y1="373.0353" y2="373.0353"/><text fill="#000000" font-family="sans-serif" font-size="8.36" lengthAdjust="spacing" textLength="76" x="684" y="384.7537">+getTestTypeStore()</text><text fill="#000000" font-family="sans-serif" font-size="8.36" lengthAdjust="spacing" textLength="79.04" x="684" y="395.269">+getParameterStore()</text><text fill="#000000" font-family="sans-serif" font-size="8.36" lengthAdjust="spacing" textLength="57.76" x="684" y="405.7843">+getTestStore()</text><text fill="#000000" font-family="sans-serif" font-size="8.36" lengthAdjust="spacing" textLength="53.2" x="684" y="416.2996">+getCalStore()</text><!--MD5=[36afb6bbd95a8ac778c4537c55a683d5]
class ParameterCategory--><rect codeLine="51" fill="#FEFECE" filter="url(#f1gzcxscj6pzar)" height="57.5106" id="ParameterCategory" style="stroke:#A80036;stroke-width:1.1400000000000001;" width="105.64" x="2248.08" y="317.3"/><ellipse cx="2259.48" cy="329.46" fill="#ADD1B2" rx="8.36" ry="8.36" style="stroke:#A80036;stroke-width:0.76;"/><path d="M2261,326.8 Q2261.1544,326.42 2261.3325,326.23 Q2261.5106,326.04 2261.7125,326.04 Q2262.0688,326.04 2262.2944,326.2538 Q2262.52,326.4675 2262.52,326.9663 L2262.52,328.1538 Q2262.52,328.6525 2262.3063,328.8663 Q2262.0925,329.08 2261.76,329.08 Q2261.4631,329.08 2261.2731,328.9494 Q2261.0831,328.8188 2261,328.4744 Q2260.9644,328.2369 2260.8338,328.1063 Q2260.5963,327.8569 2260.1688,327.7144 Q2259.7413,327.56 2259.3138,327.56 Q2258.7794,327.56 2258.3281,327.7738 Q2257.8888,327.9875 2257.5444,328.4625 Q2257.2,328.9375 2257.2,329.5906 L2257.2,330.2913 Q2257.2,331.075 2257.8413,331.5975 Q2258.4825,332.12 2259.6225,332.12 Q2260.2994,332.12 2260.7744,331.9656 Q2261.0475,331.8825 2261.3563,331.6094 Q2261.5581,331.455 2261.665,331.4075 Q2261.7719,331.36 2261.9025,331.36 Q2262.1519,331.36 2262.33,331.5619 Q2262.52,331.7519 2262.52,332.025 Q2262.52,332.2863 2262.2588,332.595 Q2261.8788,333.0463 2261.2731,333.2956 Q2260.4775,333.64 2259.5038,333.64 Q2258.3638,333.64 2257.4494,333.1888 Q2256.7131,332.8325 2256.1906,332.0606 Q2255.68,331.2888 2255.68,330.3744 L2255.68,329.5431 Q2255.68,328.5931 2256.1313,327.7619 Q2256.5944,326.9306 2257.39,326.4913 Q2258.1975,326.04 2259.1,326.04 Q2259.6463,326.04 2260.1213,326.23 Q2260.5963,326.42 2261,326.8 Z " fill="#000000"/><text fill="#000000" font-family="sans-serif" font-size="9.12" lengthAdjust="spacing" textLength="81.32" x="2270.12" y="333.1917">ParameterCategory</text><line style="stroke:#A80036;stroke-width:1.1400000000000001;" x1="2248.84" x2="2352.96" y1="341.62" y2="341.62"/><text fill="#000000" font-family="sans-serif" font-size="8.36" lengthAdjust="spacing" textLength="21.28" x="2252.64" y="353.3384">-code</text><text fill="#000000" font-family="sans-serif" font-size="8.36" lengthAdjust="spacing" textLength="22.8" x="2252.64" y="363.8537">-name</text><line style="stroke:#A80036;stroke-width:1.1400000000000001;" x1="2248.84" x2="2352.96" y1="368.7306" y2="368.7306"/><!--MD5=[ed6624c6556d5e7b1bd23032162d20b7]
class Client--><rect codeLine="55" fill="#FEFECE" filter="url(#f1gzcxscj6pzar)" height="120.6025" id="Client" style="stroke:#A80036;stroke-width:1.1400000000000001;" width="69.16" x="1227.4" y="478.04"/><ellipse cx="1248.034" cy="490.2" fill="#ADD1B2" rx="8.36" ry="8.36" style="stroke:#A80036;stroke-width:0.76;"/><path d="M1249.554,487.54 Q1249.7084,487.16 1249.8865,486.97 Q1250.0646,486.78 1250.2665,486.78 Q1250.6228,486.78 1250.8484,486.9938 Q1251.074,487.2075 1251.074,487.7063 L1251.074,488.8938 Q1251.074,489.3925 1250.8603,489.6063 Q1250.6465,489.82 1250.314,489.82 Q1250.0171,489.82 1249.8271,489.6894 Q1249.6371,489.5588 1249.554,489.2144 Q1249.5184,488.9769 1249.3878,488.8463 Q1249.1503,488.5969 1248.7228,488.4544 Q1248.2953,488.3 1247.8678,488.3 Q1247.3334,488.3 1246.8821,488.5138 Q1246.4428,488.7275 1246.0984,489.2025 Q1245.754,489.6775 1245.754,490.3306 L1245.754,491.0313 Q1245.754,491.815 1246.3953,492.3375 Q1247.0365,492.86 1248.1765,492.86 Q1248.8534,492.86 1249.3284,492.7056 Q1249.6015,492.6225 1249.9103,492.3494 Q1250.1121,492.195 1250.219,492.1475 Q1250.3259,492.1 1250.4565,492.1 Q1250.7059,492.1 1250.884,492.3019 Q1251.074,492.4919 1251.074,492.765 Q1251.074,493.0263 1250.8128,493.335 Q1250.4328,493.7863 1249.8271,494.0356 Q1249.0315,494.38 1248.0578,494.38 Q1246.9178,494.38 1246.0034,493.9288 Q1245.2671,493.5725 1244.7446,492.8006 Q1244.234,492.0288 1244.234,491.1144 L1244.234,490.2831 Q1244.234,489.3331 1244.6853,488.5019 Q1245.1484,487.6706 1245.944,487.2313 Q1246.7515,486.78 1247.654,486.78 Q1248.2003,486.78 1248.6753,486.97 Q1249.1503,487.16 1249.554,487.54 Z " fill="#000000"/><text fill="#000000" font-family="sans-serif" font-size="9.12" lengthAdjust="spacing" textLength="24.32" x="1260.726" y="493.9317">Client</text><line style="stroke:#A80036;stroke-width:1.1400000000000001;" x1="1228.16" x2="1295.8" y1="502.36" y2="502.36"/><text fill="#000000" font-family="sans-serif" font-size="8.36" lengthAdjust="spacing" textLength="22.8" x="1231.96" y="514.0784">-name</text><text fill="#000000" font-family="sans-serif" font-size="8.36" lengthAdjust="spacing" textLength="60.04" x="1231.96" y="524.5937">-citizenCardNum</text><text fill="#000000" font-family="sans-serif" font-size="8.36" lengthAdjust="spacing" textLength="32.68" x="1231.96" y="535.109">-nhsNum</text><text fill="#000000" font-family="sans-serif" font-size="8.36" lengthAdjust="spacing" textLength="35.72" x="1231.96" y="545.6243">-birthDate</text><text fill="#000000" font-family="sans-serif" font-size="8.36" lengthAdjust="spacing" textLength="16.72" x="1231.96" y="556.1396">-sex</text><text fill="#000000" font-family="sans-serif" font-size="8.36" lengthAdjust="spacing" textLength="36.48" x="1231.96" y="566.655">-taxIdNum</text><text fill="#000000" font-family="sans-serif" font-size="8.36" lengthAdjust="spacing" textLength="41.8" x="1231.96" y="577.1703">-phoneNum</text><text fill="#000000" font-family="sans-serif" font-size="8.36" lengthAdjust="spacing" textLength="21.28" x="1231.96" y="587.6856">-email</text><line style="stroke:#A80036;stroke-width:1.1400000000000001;" x1="1228.16" x2="1295.8" y1="592.5625" y2="592.5625"/><!--MD5=[be7802b157a16874d39c59ca0e2b25be]
class ParameterStore--><rect codeLine="68" fill="#FEFECE" filter="url(#f1gzcxscj6pzar)" height="57.5106" id="ParameterStore" style="stroke:#A80036;stroke-width:1.1400000000000001;" width="247.76" x="847.78" y="579.5"/><ellipse cx="935.37" cy="591.66" fill="#ADD1B2" rx="8.36" ry="8.36" style="stroke:#A80036;stroke-width:0.76;"/><path d="M936.89,589 Q937.0444,588.62 937.2225,588.43 Q937.4006,588.24 937.6025,588.24 Q937.9588,588.24 938.1844,588.4538 Q938.41,588.6675 938.41,589.1663 L938.41,590.3538 Q938.41,590.8525 938.1963,591.0663 Q937.9825,591.28 937.65,591.28 Q937.3531,591.28 937.1631,591.1494 Q936.9731,591.0188 936.89,590.6744 Q936.8544,590.4369 936.7238,590.3063 Q936.4863,590.0569 936.0588,589.9144 Q935.6313,589.76 935.2038,589.76 Q934.6694,589.76 934.2181,589.9738 Q933.7788,590.1875 933.4344,590.6625 Q933.09,591.1375 933.09,591.7906 L933.09,592.4913 Q933.09,593.275 933.7313,593.7975 Q934.3725,594.32 935.5125,594.32 Q936.1894,594.32 936.6644,594.1656 Q936.9375,594.0825 937.2463,593.8094 Q937.4481,593.655 937.555,593.6075 Q937.6619,593.56 937.7925,593.56 Q938.0419,593.56 938.22,593.7619 Q938.41,593.9519 938.41,594.225 Q938.41,594.4863 938.1488,594.795 Q937.7688,595.2463 937.1631,595.4956 Q936.3675,595.84 935.3938,595.84 Q934.2538,595.84 933.3394,595.3888 Q932.6031,595.0325 932.0806,594.2606 Q931.57,593.4888 931.57,592.5744 L931.57,591.7431 Q931.57,590.7931 932.0213,589.9619 Q932.4844,589.1306 933.28,588.6913 Q934.0875,588.24 934.99,588.24 Q935.5363,588.24 936.0113,588.43 Q936.4863,588.62 936.89,589 Z " fill="#000000"/><text fill="#000000" font-family="sans-serif" font-size="9.12" lengthAdjust="spacing" textLength="66.12" x="950.95" y="595.3917">ParameterStore</text><line style="stroke:#A80036;stroke-width:1.1400000000000001;" x1="848.54" x2="1094.78" y1="603.82" y2="603.82"/><line style="stroke:#A80036;stroke-width:1.1400000000000001;" x1="848.54" x2="1094.78" y1="609.9" y2="609.9"/><text fill="#000000" font-family="sans-serif" font-size="8.36" lengthAdjust="spacing" textLength="238.64" x="852.34" y="621.6184">+getParamsByCategories(List&lt;String&gt; selectedCategoriesCodes)</text><text fill="#000000" font-family="sans-serif" font-size="8.36" lengthAdjust="spacing" textLength="148.96" x="852.34" y="632.1337">+getParamsByCategory(String category)</text><!--MD5=[6ba72ddf03822b91e8d41ca71de58ed3]
class TestTypeStore--><rect codeLine="73" fill="#FEFECE" filter="url(#f1gzcxscj6pzar)" height="68.0259" id="TestTypeStore" style="stroke:#A80036;stroke-width:1.1400000000000001;" width="241.68" x="850.82" y="121.22"/><ellipse cx="938.41" cy="133.38" fill="#ADD1B2" rx="8.36" ry="8.36" style="stroke:#A80036;stroke-width:0.76;"/><path d="M939.93,130.72 Q940.0844,130.34 940.2625,130.15 Q940.4406,129.96 940.6425,129.96 Q940.9988,129.96 941.2244,130.1738 Q941.45,130.3875 941.45,130.8863 L941.45,132.0738 Q941.45,132.5725 941.2363,132.7863 Q941.0225,133 940.69,133 Q940.3931,133 940.2031,132.8694 Q940.0131,132.7388 939.93,132.3944 Q939.8944,132.1569 939.7638,132.0263 Q939.5263,131.7769 939.0988,131.6344 Q938.6713,131.48 938.2438,131.48 Q937.7094,131.48 937.2581,131.6938 Q936.8188,131.9075 936.4744,132.3825 Q936.13,132.8575 936.13,133.5106 L936.13,134.2113 Q936.13,134.995 936.7713,135.5175 Q937.4125,136.04 938.5525,136.04 Q939.2294,136.04 939.7044,135.8856 Q939.9775,135.8025 940.2863,135.5294 Q940.4881,135.375 940.595,135.3275 Q940.7019,135.28 940.8325,135.28 Q941.0819,135.28 941.26,135.4819 Q941.45,135.6719 941.45,135.945 Q941.45,136.2063 941.1888,136.515 Q940.8088,136.9663 940.2031,137.2156 Q939.4075,137.56 938.4338,137.56 Q937.2938,137.56 936.3794,137.1088 Q935.6431,136.7525 935.1206,135.9806 Q934.61,135.2088 934.61,134.2944 L934.61,133.4631 Q934.61,132.5131 935.0613,131.6819 Q935.5244,130.8506 936.32,130.4113 Q937.1275,129.96 938.03,129.96 Q938.5763,129.96 939.0513,130.15 Q939.5263,130.34 939.93,130.72 Z " fill="#000000"/><text fill="#000000" font-family="sans-serif" font-size="9.12" lengthAdjust="spacing" textLength="60.04" x="953.99" y="137.1117">TestTypeStore</text><line style="stroke:#A80036;stroke-width:1.1400000000000001;" x1="851.58" x2="1091.74" y1="145.54" y2="145.54"/><line style="stroke:#A80036;stroke-width:1.1400000000000001;" x1="851.58" x2="1091.74" y1="151.62" y2="151.62"/><text fill="#000000" font-family="sans-serif" font-size="8.36" lengthAdjust="spacing" textLength="60.8" x="855.38" y="163.3384">+getTestTypes()</text><text fill="#000000" font-family="sans-serif" font-size="8.36" lengthAdjust="spacing" textLength="126.92" x="855.38" y="173.8537">+getTestTypeByCode(String code)</text><text fill="#000000" font-family="sans-serif" font-size="8.36" lengthAdjust="spacing" textLength="232.56" x="855.38" y="184.369">+getCategoriesByTestTypeCode(String selectedTestTypeCode)</text><!--MD5=[55cb992be19579b505cea3c5691093cb]
class ClientStore--><rect codeLine="79" fill="#FEFECE" filter="url(#f1gzcxscj6pzar)" height="46.9953" id="ClientStore" style="stroke:#A80036;stroke-width:1.1400000000000001;" width="136.04" x="903.64" y="505.78"/><ellipse cx="945.25" cy="517.94" fill="#ADD1B2" rx="8.36" ry="8.36" style="stroke:#A80036;stroke-width:0.76;"/><path d="M946.77,515.28 Q946.9244,514.9 947.1025,514.71 Q947.2806,514.52 947.4825,514.52 Q947.8388,514.52 948.0644,514.7338 Q948.29,514.9475 948.29,515.4463 L948.29,516.6338 Q948.29,517.1325 948.0763,517.3463 Q947.8625,517.56 947.53,517.56 Q947.2331,517.56 947.0431,517.4294 Q946.8531,517.2988 946.77,516.9544 Q946.7344,516.7169 946.6038,516.5863 Q946.3663,516.3369 945.9388,516.1944 Q945.5113,516.04 945.0838,516.04 Q944.5494,516.04 944.0981,516.2538 Q943.6588,516.4675 943.3144,516.9425 Q942.97,517.4175 942.97,518.0706 L942.97,518.7713 Q942.97,519.555 943.6113,520.0775 Q944.2525,520.6 945.3925,520.6 Q946.0694,520.6 946.5444,520.4456 Q946.8175,520.3625 947.1263,520.0894 Q947.3281,519.935 947.435,519.8875 Q947.5419,519.84 947.6725,519.84 Q947.9219,519.84 948.1,520.0419 Q948.29,520.2319 948.29,520.505 Q948.29,520.7663 948.0288,521.075 Q947.6488,521.5263 947.0431,521.7756 Q946.2475,522.12 945.2738,522.12 Q944.1338,522.12 943.2194,521.6688 Q942.4831,521.3125 941.9606,520.5406 Q941.45,519.7688 941.45,518.8544 L941.45,518.0231 Q941.45,517.0731 941.9013,516.2419 Q942.3644,515.4106 943.16,514.9713 Q943.9675,514.52 944.87,514.52 Q945.4163,514.52 945.8913,514.71 Q946.3663,514.9 946.77,515.28 Z " fill="#000000"/><text fill="#000000" font-family="sans-serif" font-size="9.12" lengthAdjust="spacing" textLength="46.36" x="960.83" y="521.6717">ClientStore</text><line style="stroke:#A80036;stroke-width:1.1400000000000001;" x1="904.4" x2="1038.92" y1="530.1" y2="530.1"/><line style="stroke:#A80036;stroke-width:1.1400000000000001;" x1="904.4" x2="1038.92" y1="536.18" y2="536.18"/><text fill="#000000" font-family="sans-serif" font-size="8.36" lengthAdjust="spacing" textLength="126.92" x="908.2" y="547.8984">+getClientByTinNumber(tinNumber)</text><!--MD5=[0f6f7964b844a64b0496af0dda7914bd]
class TestStore--><rect codeLine="84" fill="#FEFECE" filter="url(#f1gzcxscj6pzar)" height="89.0566" id="TestStore" style="stroke:#A80036;stroke-width:1.1400000000000001;" width="251.56" x="845.88" y="5.32"/><ellipse cx="948.29" cy="17.48" fill="#ADD1B2" rx="8.36" ry="8.36" style="stroke:#A80036;stroke-width:0.76;"/><path d="M949.81,14.82 Q949.9644,14.44 950.1425,14.25 Q950.3206,14.06 950.5225,14.06 Q950.8788,14.06 951.1044,14.2738 Q951.33,14.4875 951.33,14.9863 L951.33,16.1738 Q951.33,16.6725 951.1163,16.8863 Q950.9025,17.1 950.57,17.1 Q950.2731,17.1 950.0831,16.9694 Q949.8931,16.8388 949.81,16.4944 Q949.7744,16.2569 949.6438,16.1263 Q949.4063,15.8769 948.9788,15.7344 Q948.5513,15.58 948.1238,15.58 Q947.5894,15.58 947.1381,15.7938 Q946.6988,16.0075 946.3544,16.4825 Q946.01,16.9575 946.01,17.6106 L946.01,18.3113 Q946.01,19.095 946.6513,19.6175 Q947.2925,20.14 948.4325,20.14 Q949.1094,20.14 949.5844,19.9856 Q949.8575,19.9025 950.1663,19.6294 Q950.3681,19.475 950.475,19.4275 Q950.5819,19.38 950.7125,19.38 Q950.9619,19.38 951.14,19.5819 Q951.33,19.7719 951.33,20.045 Q951.33,20.3063 951.0688,20.615 Q950.6888,21.0663 950.0831,21.3156 Q949.2875,21.66 948.3138,21.66 Q947.1738,21.66 946.2594,21.2088 Q945.5231,20.8525 945.0006,20.0806 Q944.49,19.3088 944.49,18.3944 L944.49,17.5631 Q944.49,16.6131 944.9413,15.7819 Q945.4044,14.9506 946.2,14.5113 Q947.0075,14.06 947.91,14.06 Q948.4563,14.06 948.9313,14.25 Q949.4063,14.44 949.81,14.82 Z " fill="#000000"/><text fill="#000000" font-family="sans-serif" font-size="9.12" lengthAdjust="spacing" textLength="40.28" x="963.87" y="21.2117">TestStore</text><line style="stroke:#A80036;stroke-width:1.1400000000000001;" x1="846.64" x2="1096.68" y1="29.64" y2="29.64"/><line style="stroke:#A80036;stroke-width:1.1400000000000001;" x1="846.64" x2="1096.68" y1="35.72" y2="35.72"/><text fill="#000000" font-family="sans-serif" font-size="8.36" lengthAdjust="spacing" textLength="114" x="850.44" y="47.4384">+getTestByNhsCode(nhsCode)</text><text fill="#000000" font-family="sans-serif" font-size="8.36" lengthAdjust="spacing" textLength="192.28" x="850.44" y="57.9537">+createTest(String nhsCode, Client associatedClient,</text><text fill="#000000" font-family="sans-serif" font-size="8.36" lengthAdjust="spacing" textLength="240.16" x="852.72" y="68.469">TestType selectedTestType, List&lt;Parameter&gt;selectedParamsList)</text><text fill="#000000" font-family="sans-serif" font-size="8.36" lengthAdjust="spacing" textLength="68.4" x="850.44" y="78.9843">+validateTest(test)</text><text fill="#000000" font-family="sans-serif" font-size="8.36" lengthAdjust="spacing" textLength="58.52" x="850.44" y="89.4996">+saveTest(test)</text><!--MD5=[438281daef332c5ccec4fb6cf3747e9a]
class ClinicalAnalysisLaboratoryStore--><rect codeLine="91" fill="#FEFECE" filter="url(#f1gzcxscj6pzar)" height="46.9953" id="ClinicalAnalysisLaboratoryStore" style="stroke:#A80036;stroke-width:1.1400000000000001;" width="160.36" x="891.48" y="324.14"/><ellipse cx="904.59" cy="336.3" fill="#ADD1B2" rx="8.36" ry="8.36" style="stroke:#A80036;stroke-width:0.76;"/><path d="M906.11,333.64 Q906.2644,333.26 906.4425,333.07 Q906.6206,332.88 906.8225,332.88 Q907.1788,332.88 907.4044,333.0938 Q907.63,333.3075 907.63,333.8063 L907.63,334.9938 Q907.63,335.4925 907.4163,335.7063 Q907.2025,335.92 906.87,335.92 Q906.5731,335.92 906.3831,335.7894 Q906.1931,335.6588 906.11,335.3144 Q906.0744,335.0769 905.9438,334.9463 Q905.7063,334.6969 905.2788,334.5544 Q904.8513,334.4 904.4238,334.4 Q903.8894,334.4 903.4381,334.6138 Q902.9988,334.8275 902.6544,335.3025 Q902.31,335.7775 902.31,336.4306 L902.31,337.1313 Q902.31,337.915 902.9513,338.4375 Q903.5925,338.96 904.7325,338.96 Q905.4094,338.96 905.8844,338.8056 Q906.1575,338.7225 906.4663,338.4494 Q906.6681,338.295 906.775,338.2475 Q906.8819,338.2 907.0125,338.2 Q907.2619,338.2 907.44,338.4019 Q907.63,338.5919 907.63,338.865 Q907.63,339.1263 907.3688,339.435 Q906.9888,339.8863 906.3831,340.1356 Q905.5875,340.48 904.6138,340.48 Q903.4738,340.48 902.5594,340.0288 Q901.8231,339.6725 901.3006,338.9006 Q900.79,338.1288 900.79,337.2144 L900.79,336.3831 Q900.79,335.4331 901.2413,334.6019 Q901.7044,333.7706 902.5,333.3313 Q903.3075,332.88 904.21,332.88 Q904.7563,332.88 905.2313,333.07 Q905.7063,333.26 906.11,333.64 Z " fill="#000000"/><text fill="#000000" font-family="sans-serif" font-size="9.12" lengthAdjust="spacing" textLength="132.24" x="915.61" y="340.0317">ClinicalAnalysisLaboratoryStore</text><line style="stroke:#A80036;stroke-width:1.1400000000000001;" x1="892.24" x2="1051.08" y1="348.46" y2="348.46"/><line style="stroke:#A80036;stroke-width:1.1400000000000001;" x1="892.24" x2="1051.08" y1="354.54" y2="354.54"/><text fill="#000000" font-family="sans-serif" font-size="8.36" lengthAdjust="spacing" textLength="151.24" x="896.04" y="366.2584">+getCalByCode(clinicalAnalysisLabCode)</text><!--MD5=[9d781343e96e75b44552b4e167cedac1]
class CreateTestControler--><rect codeLine="99" fill="#FEFECE" filter="url(#f1gzcxscj6pzar)" height="57.5106" id="CreateTestControler" style="stroke:#A80036;stroke-width:1.1400000000000001;" width="335.92" x="297.16" y="235.98"/><ellipse cx="419.33" cy="248.14" fill="#ADD1B2" rx="8.36" ry="8.36" style="stroke:#A80036;stroke-width:0.76;"/><path d="M420.85,245.48 Q421.0044,245.1 421.1825,244.91 Q421.3606,244.72 421.5625,244.72 Q421.9188,244.72 422.1444,244.9338 Q422.37,245.1475 422.37,245.6463 L422.37,246.8338 Q422.37,247.3325 422.1563,247.5463 Q421.9425,247.76 421.61,247.76 Q421.3131,247.76 421.1231,247.6294 Q420.9331,247.4988 420.85,247.1544 Q420.8144,246.9169 420.6838,246.7863 Q420.4463,246.5369 420.0188,246.3944 Q419.5913,246.24 419.1638,246.24 Q418.6294,246.24 418.1781,246.4538 Q417.7388,246.6675 417.3944,247.1425 Q417.05,247.6175 417.05,248.2706 L417.05,248.9713 Q417.05,249.755 417.6913,250.2775 Q418.3325,250.8 419.4725,250.8 Q420.1494,250.8 420.6244,250.6456 Q420.8975,250.5625 421.2063,250.2894 Q421.4081,250.135 421.515,250.0875 Q421.6219,250.04 421.7525,250.04 Q422.0019,250.04 422.18,250.2419 Q422.37,250.4319 422.37,250.705 Q422.37,250.9663 422.1088,251.275 Q421.7288,251.7263 421.1231,251.9756 Q420.3275,252.32 419.3538,252.32 Q418.2138,252.32 417.2994,251.8688 Q416.5631,251.5125 416.0406,250.7406 Q415.53,249.9688 415.53,249.0544 L415.53,248.2231 Q415.53,247.2731 415.9813,246.4419 Q416.4444,245.6106 417.24,245.1713 Q418.0475,244.72 418.95,244.72 Q419.4963,244.72 419.9713,244.91 Q420.4463,245.1 420.85,245.48 Z " fill="#000000"/><text fill="#000000" font-family="sans-serif" font-size="9.12" lengthAdjust="spacing" textLength="85.12" x="434.91" y="251.8717">CreateTestControler</text><line style="stroke:#A80036;stroke-width:1.1400000000000001;" x1="297.92" x2="632.32" y1="260.3" y2="260.3"/><line style="stroke:#A80036;stroke-width:1.1400000000000001;" x1="297.92" x2="632.32" y1="266.38" y2="266.38"/><text fill="#000000" font-family="sans-serif" font-size="8.36" lengthAdjust="spacing" textLength="326.8" x="301.72" y="278.0984">+createTest(NHScode, citizenCardNumber,selectedTestTypeCode, selectedParamCodes)</text><text fill="#000000" font-family="sans-serif" font-size="8.36" lengthAdjust="spacing" textLength="58.52" x="301.72" y="288.6137">+saveTest(test)</text><!--MD5=[51912c652aa2a3a1d0b745172ce59331]
class ImportTestController--><rect codeLine="104" fill="#FEFECE" filter="url(#f1gzcxscj6pzar)" height="46.9953" id="ImportTestController" style="stroke:#A80036;stroke-width:1.1400000000000001;" width="120.84" x="129.96" y="346.94"/><ellipse cx="146.148" cy="359.1" fill="#ADD1B2" rx="8.36" ry="8.36" style="stroke:#A80036;stroke-width:0.76;"/><path d="M147.668,356.44 Q147.8224,356.06 148.0005,355.87 Q148.1786,355.68 148.3805,355.68 Q148.7368,355.68 148.9624,355.8938 Q149.188,356.1075 149.188,356.6063 L149.188,357.7938 Q149.188,358.2925 148.9743,358.5063 Q148.7605,358.72 148.428,358.72 Q148.1311,358.72 147.9411,358.5894 Q147.7511,358.4588 147.668,358.1144 Q147.6324,357.8769 147.5018,357.7463 Q147.2643,357.4969 146.8368,357.3544 Q146.4093,357.2 145.9818,357.2 Q145.4474,357.2 144.9961,357.4138 Q144.5568,357.6275 144.2124,358.1025 Q143.868,358.5775 143.868,359.2306 L143.868,359.9313 Q143.868,360.715 144.5093,361.2375 Q145.1505,361.76 146.2905,361.76 Q146.9674,361.76 147.4424,361.6056 Q147.7155,361.5225 148.0243,361.2494 Q148.2261,361.095 148.333,361.0475 Q148.4399,361 148.5705,361 Q148.8199,361 148.998,361.2019 Q149.188,361.3919 149.188,361.665 Q149.188,361.9263 148.9268,362.235 Q148.5468,362.6863 147.9411,362.9356 Q147.1455,363.28 146.1718,363.28 Q145.0318,363.28 144.1174,362.8288 Q143.3811,362.4725 142.8586,361.7006 Q142.348,360.9288 142.348,360.0144 L142.348,359.1831 Q142.348,358.2331 142.7993,357.4019 Q143.2624,356.5706 144.058,356.1313 Q144.8655,355.68 145.768,355.68 Q146.3143,355.68 146.7893,355.87 Q147.2643,356.06 147.668,356.44 Z " fill="#000000"/><text fill="#000000" font-family="sans-serif" font-size="9.12" lengthAdjust="spacing" textLength="85.88" x="157.852" y="362.8317">ImportTestController</text><line style="stroke:#A80036;stroke-width:1.1400000000000001;" x1="130.72" x2="250.04" y1="371.26" y2="371.26"/><line style="stroke:#A80036;stroke-width:1.1400000000000001;" x1="130.72" x2="250.04" y1="377.34" y2="377.34"/><text fill="#000000" font-family="sans-serif" font-size="8.36" lengthAdjust="spacing" textLength="111.72" x="134.52" y="389.0584">+createTestsFromFile(filePath)</text><!--MD5=[1a7fda4a36185bcd740bdf14b2b3a45e]
class RegisterClientController--><rect codeLine="108" fill="#FEFECE" filter="url(#f1gzcxscj6pzar)" height="68.0259" id="RegisterClientController" style="stroke:#A80036;stroke-width:1.1400000000000001;" width="243.96" x="343.14" y="416.1"/><ellipse cx="411.35" cy="428.26" fill="#ADD1B2" rx="8.36" ry="8.36" style="stroke:#A80036;stroke-width:0.76;"/><path d="M412.87,425.6 Q413.0244,425.22 413.2025,425.03 Q413.3806,424.84 413.5825,424.84 Q413.9388,424.84 414.1644,425.0538 Q414.39,425.2675 414.39,425.7663 L414.39,426.9538 Q414.39,427.4525 414.1763,427.6663 Q413.9625,427.88 413.63,427.88 Q413.3331,427.88 413.1431,427.7494 Q412.9531,427.6188 412.87,427.2744 Q412.8344,427.0369 412.7038,426.9063 Q412.4663,426.6569 412.0388,426.5144 Q411.6113,426.36 411.1838,426.36 Q410.6494,426.36 410.1981,426.5738 Q409.7588,426.7875 409.4144,427.2625 Q409.07,427.7375 409.07,428.3906 L409.07,429.0913 Q409.07,429.875 409.7113,430.3975 Q410.3525,430.92 411.4925,430.92 Q412.1694,430.92 412.6444,430.7656 Q412.9175,430.6825 413.2263,430.4094 Q413.4281,430.255 413.535,430.2075 Q413.6419,430.16 413.7725,430.16 Q414.0219,430.16 414.2,430.3619 Q414.39,430.5519 414.39,430.825 Q414.39,431.0863 414.1288,431.395 Q413.7488,431.8463 413.1431,432.0956 Q412.3475,432.44 411.3738,432.44 Q410.2338,432.44 409.3194,431.9888 Q408.5831,431.6325 408.0606,430.8606 Q407.55,430.0888 407.55,429.1744 L407.55,428.3431 Q407.55,427.3931 408.0013,426.5619 Q408.4644,425.7306 409.26,425.2913 Q410.0675,424.84 410.97,424.84 Q411.5163,424.84 411.9913,425.03 Q412.4663,425.22 412.87,425.6 Z " fill="#000000"/><text fill="#000000" font-family="sans-serif" font-size="9.12" lengthAdjust="spacing" textLength="101.08" x="426.93" y="431.9917">RegisterClientController</text><line style="stroke:#A80036;stroke-width:1.1400000000000001;" x1="343.9" x2="586.34" y1="440.42" y2="440.42"/><line style="stroke:#A80036;stroke-width:1.1400000000000001;" x1="343.9" x2="586.34" y1="446.5" y2="446.5"/><text fill="#000000" font-family="sans-serif" font-size="8.36" lengthAdjust="spacing" textLength="232.56" x="347.7" y="458.2184">+registerClient(clientsCitizenCardNumber, nhsNumber, birthDate</text><text fill="#000000" font-family="sans-serif" font-size="8.36" lengthAdjust="spacing" textLength="164.92" x="347.7" y="468.7337">, sex, tinNumber, email, name, phoneNumber)</text><text fill="#000000" font-family="sans-serif" font-size="8.36" lengthAdjust="spacing" textLength="48.64" x="347.7" y="479.249">+saveClient()</text><!--MD5=[9bb7cc3529c0d40aca5d5110b828cb84]
class TestFileUtils--><rect codeLine="115" fill="#FEFECE" filter="url(#f1gzcxscj6pzar)" height="68.0259" id="TestFileUtils" style="stroke:#A80036;stroke-width:1.1400000000000001;" width="121.6" x="404.32" y="511.1"/><ellipse cx="435.898" cy="523.26" fill="#ADD1B2" rx="8.36" ry="8.36" style="stroke:#A80036;stroke-width:0.76;"/><path d="M437.418,520.6 Q437.5724,520.22 437.7505,520.03 Q437.9286,519.84 438.1305,519.84 Q438.4868,519.84 438.7124,520.0538 Q438.938,520.2675 438.938,520.7663 L438.938,521.9538 Q438.938,522.4525 438.7243,522.6663 Q438.5105,522.88 438.178,522.88 Q437.8811,522.88 437.6911,522.7494 Q437.5011,522.6188 437.418,522.2744 Q437.3824,522.0369 437.2517,521.9063 Q437.0142,521.6569 436.5868,521.5144 Q436.1593,521.36 435.7318,521.36 Q435.1974,521.36 434.7461,521.5738 Q434.3067,521.7875 433.9624,522.2625 Q433.618,522.7375 433.618,523.3906 L433.618,524.0913 Q433.618,524.875 434.2592,525.3975 Q434.9005,525.92 436.0405,525.92 Q436.7174,525.92 437.1924,525.7656 Q437.4655,525.6825 437.7743,525.4094 Q437.9761,525.255 438.083,525.2075 Q438.1899,525.16 438.3205,525.16 Q438.5699,525.16 438.748,525.3619 Q438.938,525.5519 438.938,525.825 Q438.938,526.0863 438.6767,526.395 Q438.2968,526.8463 437.6911,527.0956 Q436.8955,527.44 435.9218,527.44 Q434.7818,527.44 433.8674,526.9888 Q433.1311,526.6325 432.6086,525.8606 Q432.098,525.0888 432.098,524.1744 L432.098,523.3431 Q432.098,522.3931 432.5493,521.5619 Q433.0124,520.7306 433.808,520.2913 Q434.6155,519.84 435.518,519.84 Q436.0642,519.84 436.5393,520.03 Q437.0142,520.22 437.418,520.6 Z " fill="#000000"/><text fill="#000000" font-family="sans-serif" font-size="9.12" lengthAdjust="spacing" textLength="52.44" x="451.022" y="526.9917">TestFileUtils</text><line style="stroke:#A80036;stroke-width:1.1400000000000001;" x1="405.08" x2="525.16" y1="535.42" y2="535.42"/><line style="stroke:#A80036;stroke-width:1.1400000000000001;" x1="405.08" x2="525.16" y1="541.5" y2="541.5"/><text fill="#000000" font-family="sans-serif" font-size="8.36" lengthAdjust="spacing" textLength="103.36" x="408.88" y="553.2184">+getTestDataByFile(filepath)</text><text fill="#000000" font-family="sans-serif" font-size="8.36" lengthAdjust="spacing" textLength="110.96" x="408.88" y="563.7337">+getParameterCodes(String [])</text><text fill="#000000" font-family="sans-serif" font-size="8.36" lengthAdjust="spacing" textLength="112.48" x="408.88" y="574.249">+getParameterResults(String[])</text><!--MD5=[bcff1293548765b9bca2a02c7e5ada38]
class ImportTestUI--><rect fill="#FEFECE" filter="url(#f1gzcxscj6pzar)" height="36.48" id="ImportTestUI" style="stroke:#A80036;stroke-width:1.1400000000000001;" width="78.28" x="5.32" y="352.26"/><ellipse cx="16.72" cy="364.42" fill="#ADD1B2" rx="8.36" ry="8.36" style="stroke:#A80036;stroke-width:0.76;"/><path d="M18.24,361.76 Q18.3944,361.38 18.5725,361.19 Q18.7506,361 18.9525,361 Q19.3088,361 19.5344,361.2138 Q19.76,361.4275 19.76,361.9263 L19.76,363.1138 Q19.76,363.6125 19.5463,363.8263 Q19.3325,364.04 19,364.04 Q18.7031,364.04 18.5131,363.9094 Q18.3231,363.7788 18.24,363.4344 Q18.2044,363.1969 18.0738,363.0663 Q17.8363,362.8169 17.4088,362.6744 Q16.9813,362.52 16.5538,362.52 Q16.0194,362.52 15.5681,362.7338 Q15.1288,362.9475 14.7844,363.4225 Q14.44,363.8975 14.44,364.5506 L14.44,365.2513 Q14.44,366.035 15.0813,366.5575 Q15.7225,367.08 16.8625,367.08 Q17.5394,367.08 18.0144,366.9256 Q18.2875,366.8425 18.5963,366.5694 Q18.7981,366.415 18.905,366.3675 Q19.0119,366.32 19.1425,366.32 Q19.3919,366.32 19.57,366.5219 Q19.76,366.7119 19.76,366.985 Q19.76,367.2463 19.4988,367.555 Q19.1188,368.0063 18.5131,368.2556 Q17.7175,368.6 16.7438,368.6 Q15.6038,368.6 14.6894,368.1488 Q13.9531,367.7925 13.4306,367.0206 Q12.92,366.2488 12.92,365.3344 L12.92,364.5031 Q12.92,363.5531 13.3713,362.7219 Q13.8344,361.8906 14.63,361.4513 Q15.4375,361 16.34,361 Q16.8863,361 17.3613,361.19 Q17.8363,361.38 18.24,361.76 Z " fill="#000000"/><text fill="#000000" font-family="sans-serif" font-size="9.12" lengthAdjust="spacing" textLength="53.96" x="27.36" y="368.1517">ImportTestUI</text><line style="stroke:#A80036;stroke-width:1.1400000000000001;" x1="6.08" x2="82.84" y1="376.58" y2="376.58"/><line style="stroke:#A80036;stroke-width:1.1400000000000001;" x1="6.08" x2="82.84" y1="382.66" y2="382.66"/><!--MD5=[57290b2a5c651bbad46b720eb74ca40f]
link ImportTestUI to ImportTestController--><path codeLine="123" d="M83.9192,370.5 C96.824,370.5 111.5604,370.5 125.856,370.5 " fill="none" id="ImportTestUI-to-ImportTestController" style="stroke:#A80036;stroke-width:0.76;stroke-dasharray:7.0,7.0;"/><polygon fill="#A80036" points="129.8688,370.5,123.0288,367.46,126.0688,370.5,123.0288,373.54,129.8688,370.5" style="stroke:#A80036;stroke-width:0.76;"/><!--MD5=[a60d9cb0fb5600a4d2d40b57e94377ad]
link ImportTestController to CreateTestControler--><path codeLine="124" d="M251.0964,347.32 C290.7456,331.9908 343.1324,311.7368 386.0572,295.1384 " fill="none" id="ImportTestController-to-CreateTestControler" style="stroke:#A80036;stroke-width:0.76;stroke-dasharray:7.0,7.0;"/><polygon fill="#A80036" points="389.6596,293.7476,382.1826,293.3979,386.1188,295.127,384.3897,299.0631,389.6596,293.7476" style="stroke:#A80036;stroke-width:0.76;"/><!--MD5=[11f505775541bdd9869a5b875923a1bb]
link ImportTestController to RegisterClientController--><path codeLine="125" d="M251.0964,388.018 C278.2512,395.9448 311.372,405.6196 343.3376,414.96 " fill="none" id="ImportTestController-to-RegisterClientController" style="stroke:#A80036;stroke-width:0.76;stroke-dasharray:7.0,7.0;"/><polygon fill="#A80036" points="347.0312,416.0316,341.316,411.198,343.3832,414.9676,339.6136,417.0348,347.0312,416.0316" style="stroke:#A80036;stroke-width:0.76;"/><!--MD5=[db288e53b846739a919956dea1790a29]
link ImportTestController to TestStore--><path codeLine="126" d="M201.6204,346.788 C217.4588,313.7432 250.648,254.3264 297.16,222.3 C462.6424,108.3608 697.6496,69.654 841.89,56.5136 " fill="none" id="ImportTestController-to-TestStore" style="stroke:#A80036;stroke-width:0.76;stroke-dasharray:7.0,7.0;"/><polygon fill="#A80036" points="845.7052,56.1716,838.6224,53.7505,841.9202,56.5088,839.1619,59.8065,845.7052,56.1716" style="stroke:#A80036;stroke-width:0.76;"/><!--MD5=[b5b47df76c802e49a35127143fd90bee]
link ImportTestController to TestFileUtils--><path codeLine="127" d="M204.6224,394.25 C222.224,423.1072 255.7248,471.2608 297.16,498.18 C328.0844,518.282 367.6196,529.9252 400.4744,536.6132 " fill="none" id="ImportTestController-to-TestFileUtils" style="stroke:#A80036;stroke-width:0.76;stroke-dasharray:7.0,7.0;"/><polygon fill="#A80036" points="404.244,537.3656,398.1258,533.0535,400.5165,536.6266,396.9434,539.0174,404.244,537.3656" style="stroke:#A80036;stroke-width:0.76;"/><!--MD5=[8f55894bbc012aa6e8bd0f9e9c1fa823]
link CreateTestControler to Company--><path codeLine="128" d="M532.3648,293.778 C577.3188,313.3252 635.5804,338.6712 675.754,356.136 " fill="none" id="CreateTestControler-to-Company" style="stroke:#A80036;stroke-width:0.76;stroke-dasharray:7.0,7.0;"/><polygon fill="#A80036" points="679.3412,357.7016,674.2869,352.1807,675.8581,356.1825,671.8562,357.7537,679.3412,357.7016" style="stroke:#A80036;stroke-width:0.76;"/><!--MD5=[b89d522ccf9caf95dbbde9769ba39561]
link CreateTestControler to ParameterStore--><path codeLine="129" d="M502.8996,293.8768 C537.3352,321.2368 589.7068,363.812 633.08,403.18 C706.1236,469.4824 704.9456,510.4616 790.4,559.74 C806.9376,569.278 825.4056,577.0072 844.0484,583.2392 " fill="none" id="CreateTestControler-to-ParameterStore" style="stroke:#A80036;stroke-width:0.76;stroke-dasharray:7.0,7.0;"/><polygon fill="#A80036" points="847.78,584.4704,842.2387,579.4384,844.1718,583.2785,840.3317,585.2116,847.78,584.4704" style="stroke:#A80036;stroke-width:0.76;"/><!--MD5=[3bbb6c5b03dfc4e682128937e80c1ca1]
link CreateTestControler to TestTypeStore--><path codeLine="130" d="M535.8608,235.9724 C571.292,222.376 615.296,207.024 655.88,197.22 C717.934,182.2404 788.2492,172.2616 846.678,165.8244 " fill="none" id="CreateTestControler-to-TestTypeStore" style="stroke:#A80036;stroke-width:0.76;stroke-dasharray:7.0,7.0;"/><polygon fill="#A80036" points="850.5084,165.4064,843.3788,163.1268,846.7309,165.8189,844.0388,169.1709,850.5084,165.4064" style="stroke:#A80036;stroke-width:0.76;"/><!--MD5=[4ed15327e2f42c62e5f55e17b8b08b9b]
link CreateTestControler to ClinicalAnalysisLaboratory--><path codeLine="131" d="M633.2548,245.708 C683.6884,240.768 739.2368,236.1548 790.4,233.7 C934.3668,226.8068 1099.4084,268.6904 1190.8592,296.4152 " fill="none" id="CreateTestControler-to-ClinicalAnalysisLaboratory" style="stroke:#A80036;stroke-width:0.76;stroke-dasharray:7.0,7.0;"/><polygon fill="#A80036" points="1194.6212,297.5552,1188.9633,292.6547,1190.986,296.4484,1187.1923,298.4711,1194.6212,297.5552" style="stroke:#A80036;stroke-width:0.76;"/><!--MD5=[0a261a9b138dfe2e0bcc9eaa6466be5e]
link CreateTestControler to TestStore--><path codeLine="132" d="M524.7952,235.942 C567.4236,215.3232 626.5896,187.3324 679.44,164.54 C734.6692,140.7292 796.5712,116.0748 849.0796,95.7448 " fill="none" id="CreateTestControler-to-TestStore" style="stroke:#A80036;stroke-width:0.76;stroke-dasharray:7.0,7.0;"/><polygon fill="#A80036" points="852.8492,94.2856,845.3732,93.9159,849.3047,95.6555,847.5651,99.5871,852.8492,94.2856" style="stroke:#A80036;stroke-width:0.76;"/><!--MD5=[198be3749d42ca56b2a20022cdc44bdd]
link RegisterClientController to Company--><path codeLine="133" d="M585.2988,416.0316 C617.2644,406.8584 649.9824,397.4724 675.4728,390.1536 " fill="none" id="RegisterClientController-to-Company" style="stroke:#A80036;stroke-width:0.76;stroke-dasharray:7.0,7.0;"/><polygon fill="#A80036" points="679.1816,389.0896,671.7668,388.066,675.5307,390.1436,673.4532,393.9075,679.1816,389.0896" style="stroke:#A80036;stroke-width:0.76;"/><!--MD5=[d17ba2de69bcbdc84560ba08c091bb6c]
link RegisterClientController to ClientStore--><path codeLine="134" d="M587.252,475.0836 C648.052,486.9016 722.9196,500.5664 790.4,510.34 C826.2796,515.546 866.3772,519.9084 899.6424,523.1384 " fill="none" id="RegisterClientController-to-ClientStore" style="stroke:#A80036;stroke-width:0.76;stroke-dasharray:7.0,7.0;"/><polygon fill="#A80036" points="903.4576,523.5032,896.9456,519.8125,899.6756,523.1337,896.3544,525.8637,903.4576,523.5032" style="stroke:#A80036;stroke-width:0.76;"/><!--MD5=[3eebf0e5f359806b77b30e9524c37676]
link TestTypeStore to TestType--><path codeLine="135" d="M1092.6672,158.4068 C1238.2148,163.894 1490.1168,179.3828 1701.64,223.06 C1717.5924,226.3584 1734.5936,231.344 1749.8772,236.398 " fill="none" id="TestTypeStore-TestType" style="stroke:#A80036;stroke-width:0.76;"/><polygon fill="#000000" points="1390.7735,168.9214,1384.2104,165.8933,1383.6839,170.3293,1390.7735,168.9214" style="stroke:#000000;stroke-width:0.76;"/><text fill="#000000" font-family="sans-serif" font-size="9.88" lengthAdjust="spacing" textLength="27.36" x="1393.84" y="172.5163">stores</text><text fill="#000000" font-family="sans-serif" font-size="9.88" lengthAdjust="spacing" textLength="5.32" x="1098.6573" y="169.1178">1</text><text fill="#000000" font-family="sans-serif" font-size="9.88" lengthAdjust="spacing" textLength="3.8" x="1740.0112" y="245.2458">*</text><!--MD5=[1d934105a045dbf126514c6917bd5072]
link ClientStore to Client--><path codeLine="136" d="M1039.7636,531.468 C1098.5192,533.3224 1181.344,535.9444 1227.2404,537.3884 " fill="none" id="ClientStore-Client" style="stroke:#A80036;stroke-width:0.76;"/><polygon fill="#000000" points="1134.2981,527.3135,1127.4978,524.8641,1127.3568,529.329,1134.2981,527.3135" style="stroke:#000000;stroke-width:0.76;"/><text fill="#000000" font-family="sans-serif" font-size="9.88" lengthAdjust="spacing" textLength="27.36" x="1137.34" y="531.2363">stores</text><text fill="#000000" font-family="sans-serif" font-size="9.88" lengthAdjust="spacing" textLength="5.32" x="1045.8448" y="542.4465">1</text><text fill="#000000" font-family="sans-serif" font-size="9.88" lengthAdjust="spacing" textLength="3.8" x="1217.601" y="548.4831">*</text><!--MD5=[b0f4f6db8206580012ef9cd998ed01c5]
link TestStore to Test--><path codeLine="137" d="M1097.5692,46.0332 C1203.688,49.4228 1354.0312,70.566 1453.12,153.9 C1492.45,186.9828 1511.032,244.2336 1519.658,285.6308 " fill="none" id="TestStore-Test" style="stroke:#A80036;stroke-width:0.76;"/><polygon fill="#000000" points="1249.7047,50.2695,1244.8291,44.9335,1242.6238,48.8184,1249.7047,50.2695" style="stroke:#000000;stroke-width:0.76;"/><text fill="#000000" font-family="sans-serif" font-size="9.88" lengthAdjust="spacing" textLength="27.36" x="1253.24" y="52.4363">stores</text><text fill="#000000" font-family="sans-serif" font-size="9.88" lengthAdjust="spacing" textLength="5.32" x="1103.395" y="56.3982">1</text><text fill="#000000" font-family="sans-serif" font-size="9.88" lengthAdjust="spacing" textLength="3.8" x="1514.7815" y="277.6172">*</text><!--MD5=[a0992dda039fed1bb57aff5aacace800]
link ParameterStore to Parameter--><path codeLine="138" d="M1095.7756,627.5852 C1146.8476,633.9996 1206.7584,639.54 1261.22,639.54 C1261.22,639.54 1261.22,639.54 1801.2,639.54 C1909.6368,639.54 2000.4644,529.3552 2040.5772,471.6788 " fill="none" id="ParameterStore-Parameter" style="stroke:#A80036;stroke-width:0.76;"/><polygon fill="#000000" points="1515.7693,632.2149,1508.6231,631.1303,1509.3504,635.5379,1515.7693,632.2149" style="stroke:#000000;stroke-width:0.76;"/><text fill="#000000" font-family="sans-serif" font-size="9.88" lengthAdjust="spacing" textLength="27.36" x="1518.86" y="636.8763">stores</text><text fill="#000000" font-family="sans-serif" font-size="9.88" lengthAdjust="spacing" textLength="5.32" x="1101.5201" y="638.9989">1</text><text fill="#000000" font-family="sans-serif" font-size="9.88" lengthAdjust="spacing" textLength="3.8" x="2033.3006" y="487.6584">*</text><!--MD5=[2dad08ae384f93453eb1ba4eb26732f1]
link ClinicalAnalysisLaboratoryStore to ClinicalAnalysisLaboratory--><path codeLine="139" d="M1051.9084,339.9632 C1096.7408,335.6008 1152.1144,330.2048 1194.644,326.0628 " fill="none" id="ClinicalAnalysisLaboratoryStore-ClinicalAnalysisLaboratory" style="stroke:#A80036;stroke-width:0.76;"/><polygon fill="#000000" points="1134.2821,320.8653,1127.2237,319.3085,1127.6567,323.7546,1134.2821,320.8653" style="stroke:#000000;stroke-width:0.76;"/><text fill="#000000" font-family="sans-serif" font-size="9.88" lengthAdjust="spacing" textLength="27.36" x="1137.34" y="325.2763">stores</text><text fill="#000000" font-family="sans-serif" font-size="9.88" lengthAdjust="spacing" textLength="5.32" x="1057.997" y="350.1122">1</text><text fill="#000000" font-family="sans-serif" font-size="9.88" lengthAdjust="spacing" textLength="3.8" x="1184.894" y="337.4155">*</text><!--MD5=[daf3d7412afa2c7651483be0b6e971d1]
link Company to ParameterStore--><path codeLine="140" d="M752.4076,421.23 C757.8568,430.8592 763.23,441.1344 767.6,451.06 C781.2952,482.1516 770.944,496.1736 790.4,524.02 C807.88,549.0468 834.7536,566.846 862.4784,579.424 " fill="none" id="Company-ParameterStore" style="stroke:#A80036;stroke-width:0.76;"/><polygon fill="#000000" points="796.3703,520.4328,794.2776,513.5144,790.6107,516.0658,796.3703,520.4328" style="stroke:#000000;stroke-width:0.76;"/><text fill="#000000" font-family="sans-serif" font-size="9.88" lengthAdjust="spacing" textLength="21.28" x="801.04" y="521.3563">uses</text><text fill="#000000" font-family="sans-serif" font-size="9.88" lengthAdjust="spacing" textLength="5.32" x="756.0553" y="437.3595">1</text><text fill="#000000" font-family="sans-serif" font-size="9.88" lengthAdjust="spacing" textLength="5.32" x="837.2366" y="571.3255">1</text><!--MD5=[141c3afa12b2b3c0a39ffce56dbd5f19]
link Company to TestTypeStore--><path codeLine="141" d="M767.7672,340.5484 C793.9644,318.8276 822.4188,295.1992 823.08,294.5 C834.7232,282.2716 834.3736,276.4652 845.88,264.1 C870.8536,237.2568 901.968,210.1932 926.9036,189.7872 " fill="none" id="Company-TestTypeStore" style="stroke:#A80036;stroke-width:0.76;"/><polygon fill="#000000" points="796.9586,285.1802,790.4321,288.2864,793.5044,291.5294,796.9586,285.1802" style="stroke:#000000;stroke-width:0.76;"/><text fill="#000000" font-family="sans-serif" font-size="9.88" lengthAdjust="spacing" textLength="21.28" x="801.04" y="291.8363">uses</text><text fill="#000000" font-family="sans-serif" font-size="9.88" lengthAdjust="spacing" textLength="5.32" x="773.7772" y="333.2575">1</text><text fill="#000000" font-family="sans-serif" font-size="9.88" lengthAdjust="spacing" textLength="5.32" x="915.212" y="205.5217">1</text><!--MD5=[7f6cf7f175eae0af66201860de5de971]
link Company to TestStore--><path codeLine="142" d="M740.05,332.1048 C764.6436,264.6928 812.7668,140.9344 845.88,107.54 C850.592,102.79 855.7752,98.382 861.2548,94.3084 " fill="none" id="Company-TestStore" style="stroke:#A80036;stroke-width:0.76;"/><polygon fill="#000000" points="795.9256,132.408,790.8139,137.5183,794.7939,139.5469,795.9256,132.408" style="stroke:#000000;stroke-width:0.76;"/><text fill="#000000" font-family="sans-serif" font-size="9.88" lengthAdjust="spacing" textLength="21.28" x="801.04" y="139.8363">uses</text><text fill="#000000" font-family="sans-serif" font-size="9.88" lengthAdjust="spacing" textLength="5.32" x="736.5071" y="323.7321">1</text><text fill="#000000" font-family="sans-serif" font-size="9.88" lengthAdjust="spacing" textLength="5.32" x="842.155" y="110.7405">1</text><!--MD5=[a11230341c8e65219708844feaa40162]
link Company to ClientStore--><path codeLine="143" d="M750.424,421.3516 C768.1928,451.6376 788.7736,486.3544 790.4,487.54 C823.004,511.3432 867.0232,521.854 903.4272,526.3836 " fill="none" id="Company-ClientStore" style="stroke:#A80036;stroke-width:0.76;"/><polygon fill="#000000" points="797.3329,482.9842,792.9296,477.2523,790.4014,480.9352,797.3329,482.9842" style="stroke:#000000;stroke-width:0.76;"/><text fill="#000000" font-family="sans-serif" font-size="9.88" lengthAdjust="spacing" textLength="21.28" x="801.04" y="484.8763">uses</text><text fill="#000000" font-family="sans-serif" font-size="9.88" lengthAdjust="spacing" textLength="5.32" x="747.9072" y="437.4952">1</text><text fill="#000000" font-family="sans-serif" font-size="9.88" lengthAdjust="spacing" textLength="5.32" x="892.2364" y="536.9148">1</text><!--MD5=[f379172a0573607dd0ae1a4ea50b9294]
link Company to ClinicalAnalysisLaboratoryStore--><path codeLine="144" d="M767.6304,374.3228 C784.9052,373.2284 804.9616,371.716 823.08,369.74 C845.3252,367.3156 869.364,364.0248 891.4572,360.7264 " fill="none" id="Company-ClinicalAnalysisLaboratoryStore" style="stroke:#A80036;stroke-width:0.76;"/><polygon fill="#000000" points="797.9773,362.6188,790.9003,361.1489,791.3879,365.5894,797.9773,362.6188" style="stroke:#000000;stroke-width:0.76;"/><text fill="#000000" font-family="sans-serif" font-size="9.88" lengthAdjust="spacing" textLength="21.28" x="801.04" y="367.0763">uses</text><text fill="#000000" font-family="sans-serif" font-size="9.88" lengthAdjust="spacing" textLength="5.32" x="773.6229" y="371.3593">1</text><text fill="#000000" font-family="sans-serif" font-size="9.88" lengthAdjust="spacing" textLength="5.32" x="880.052" y="372.4002">1</text><!--MD5=[5b7a9ded131023be416e27d15bcd6d77]
link TestType to Parameter--><path codeLine="145" d="M1851.17,272.3232 C1903.4732,290.6468 1978.7208,317.5964 1983.6,322.62 C2005.6932,345.3896 1988.5096,364.0704 2006.4,390.26 C2012.5104,399.2052 2020.7564,407.4056 2029.0556,414.3672 " fill="none" id="TestType-Parameter" style="stroke:#A80036;stroke-width:0.76;"/><polygon fill="#000000" points="1906.0095,284.8447,1902.0314,278.8099,1899.2439,282.3007,1906.0095,284.8447" style="stroke:#000000;stroke-width:0.76;"/><text fill="#000000" font-family="sans-serif" font-size="9.88" lengthAdjust="spacing" textLength="72.96" x="1909.88" y="286.5163">characterized by</text><text fill="#000000" font-family="sans-serif" font-size="9.88" lengthAdjust="spacing" textLength="5.32" x="1857.0095" y="285.1765">1</text><text fill="#000000" font-family="sans-serif" font-size="9.88" lengthAdjust="spacing" textLength="15.2" x="2007.9572" y="408.4174">1..*</text><!--MD5=[742a261f27a3dcd734c626287d811acd]
link Company to TestType--><path codeLine="146" d="M767.8584,350.7096 C795.9252,334.5292 830.0188,315.9016 845.88,311.22 C1179.2008,212.914 1605.7432,237.842 1749.6948,250.1464 " fill="none" id="Company-TestType" style="stroke:#A80036;stroke-width:0.76;"/><polygon fill="#000000" points="1243.7202,234.2064,1236.6542,232.6849,1237.1093,237.1288,1243.7202,234.2064" style="stroke:#000000;stroke-width:0.76;"/><text fill="#000000" font-family="sans-serif" font-size="9.88" lengthAdjust="spacing" textLength="40.28" x="1246.78" y="238.6363">conducts</text><text fill="#000000" font-family="sans-serif" font-size="9.88" lengthAdjust="spacing" textLength="5.32" x="773.5863" y="358.5619">1</text><text fill="#000000" font-family="sans-serif" font-size="9.88" lengthAdjust="spacing" textLength="3.8" x="1740.1367" y="260.5741">*</text><!--MD5=[7e4bc624457760b649895ff2ead938fa]
link Company to Test--><path codeLine="147" d="M767.9192,419.4136 C774.972,424.27 782.5492,428.4728 790.4,431.3 C804.0648,436.2248 808.5868,432.288 823.08,431.3 C1069.13,414.6408 1360.2708,365.5676 1475.8668,344.8956 " fill="none" id="Company-Test" style="stroke:#A80036;stroke-width:0.76;"/><polygon fill="#000000" points="1127.8191,386.1958,1120.7488,384.6941,1121.2164,389.1367,1127.8191,386.1958" style="stroke:#000000;stroke-width:0.76;"/><text fill="#000000" font-family="sans-serif" font-size="9.88" lengthAdjust="spacing" textLength="40.28" x="1130.88" y="390.6363">conducts</text><text fill="#000000" font-family="sans-serif" font-size="9.88" lengthAdjust="spacing" textLength="5.32" x="773.6545" y="435.6392">1</text><text fill="#000000" font-family="sans-serif" font-size="9.88" lengthAdjust="spacing" textLength="3.8" x="1466.2007" y="356.8541">*</text><!--MD5=[12d76240d3c3c66074d4ec2ea8bf469c]
link Company to Parameter--><path codeLine="148" d="M767.9116,382.85 C869.8656,397.1304 1131.7768,431.7636 1352.04,443.46 C1396.9028,445.8464 1408.1964,443.688 1453.12,443.46 C1672.7068,442.3656 1936.7688,439.052 2028.9416,437.836 " fill="none" id="Company-Parameter" style="stroke:#A80036;stroke-width:0.76;"/><polygon fill="#000000" points="1359.6364,436.9191,1352.866,434.3882,1352.6714,438.8511,1359.6364,436.9191" style="stroke:#000000;stroke-width:0.76;"/><text fill="#000000" font-family="sans-serif" font-size="9.88" lengthAdjust="spacing" textLength="89.68" x="1362.68" y="440.7963">capable of analysing</text><text fill="#000000" font-family="sans-serif" font-size="9.88" lengthAdjust="spacing" textLength="5.32" x="773.646" y="394.6194">1</text><text fill="#000000" font-family="sans-serif" font-size="9.88" lengthAdjust="spacing" textLength="3.8" x="2019.347" y="449.1851">*</text><!--MD5=[e981d4f96c4342412d1e68160b30cf70]
link Test to TestType--><path codeLine="149" d="M1579.394,320.3932 C1628.2088,305.9 1701.3664,284.1792 1749.7936,269.7924 " fill="none" id="Test-TestType" style="stroke:#A80036;stroke-width:0.76;"/><polygon fill="#000000" points="1626.2428,277.5919,1619.0171,277.4076,1620.2888,281.6899,1626.2428,277.5919" style="stroke:#000000;stroke-width:0.76;"/><text fill="#000000" font-family="sans-serif" font-size="9.88" lengthAdjust="spacing" textLength="54.72" x="1629.44" y="282.7163">classified as</text><text fill="#000000" font-family="sans-serif" font-size="9.88" lengthAdjust="spacing" textLength="3.8" x="1585.2668" y="329.6718">*</text><text fill="#000000" font-family="sans-serif" font-size="9.88" lengthAdjust="spacing" textLength="5.32" x="1738.6432" y="282.3689">1</text><!--MD5=[f24c888dadeb846430474fe80a58922b]
link Test to TestParameter--><path codeLine="150" d="M1579.394,336.832 C1620.2288,337.858 1678.0876,339.3172 1724.2652,340.48 " fill="none" id="Test-TestParameter" style="stroke:#A80036;stroke-width:0.76;"/><polygon fill="#000000" points="1609.6788,330.4493,1602.8629,328.0433,1602.7505,332.5091,1609.6788,330.4493" style="stroke:#000000;stroke-width:0.76;"/><text fill="#000000" font-family="sans-serif" font-size="9.88" lengthAdjust="spacing" textLength="88.16" x="1612.72" y="334.3963">requests analysis of</text><text fill="#000000" font-family="sans-serif" font-size="9.88" lengthAdjust="spacing" textLength="5.32" x="1585.3499" y="347.9086">1</text><text fill="#000000" font-family="sans-serif" font-size="9.88" lengthAdjust="spacing" textLength="15.2" x="1703.1748" y="351.044">1..*</text><!--MD5=[92e8e476cc9e9004a7125f53a120ec97]
link TestParameter to Parameter--><path codeLine="151" d="M1866.1648,365.9856 C1917.8828,384.7804 1988.1752,410.324 2029.1468,425.2124 " fill="none" id="TestParameter-Parameter" style="stroke:#A80036;stroke-width:0.76;"/><polygon fill="#000000" points="1925.2315,372.6915,1919.5335,368.2443,1918.0077,372.4429,1925.2315,372.6915" style="stroke:#000000;stroke-width:0.76;"/><text fill="#000000" font-family="sans-serif" font-size="9.88" lengthAdjust="spacing" textLength="35.72" x="1928.5" y="375.4363">refers to</text><text fill="#000000" font-family="sans-serif" font-size="9.88" lengthAdjust="spacing" textLength="3.8" x="1874.9303" y="382.1248">*</text><text fill="#000000" font-family="sans-serif" font-size="9.88" lengthAdjust="spacing" textLength="5.32" x="2017.7131" y="434.5135">1</text><!--MD5=[0e00e25ac6b8c14659aaff2cf7e5df08]
link TestParameter to TestParameterResult--><path codeLine="152" d="M1876.4704,342.38 C1917.8752,342.38 1968.4,342.38 2006.3544,342.38 " fill="none" id="TestParameter-TestParameterResult" style="stroke:#A80036;stroke-width:0.76;"/><polygon fill="#000000" points="1924.7,335.6736,1917.8257,333.44,1917.8257,337.9072,1924.7,335.6736" style="stroke:#000000;stroke-width:0.76;"/><text fill="#000000" font-family="sans-serif" font-size="9.88" lengthAdjust="spacing" textLength="37.24" x="1927.74" y="339.7163">contains</text><text fill="#000000" font-family="sans-serif" font-size="9.88" lengthAdjust="spacing" textLength="5.32" x="1882.4951" y="353.1168">1</text><text fill="#000000" font-family="sans-serif" font-size="9.88" lengthAdjust="spacing" textLength="16.72" x="1983.6048" y="353.2263">0..1</text><!--MD5=[502b51bc079239060389dab43b7d3470]
link Client to Test--><path codeLine="153" d="M1296.6816,480.51 C1311.342,459.9064 1330.1824,438.2464 1352.04,423.7 C1390.7924,397.9284 1411.776,417.7112 1453.12,396.34 C1460.8568,392.3424 1468.5252,387.4252 1475.8212,382.1432 " fill="none" id="Client-Test" style="stroke:#A80036;stroke-width:0.76;"/><polygon fill="#000000" points="1368.8491,391.4626,1375.9498,390.1117,1373.7997,386.1961,1368.8491,391.4626" style="stroke:#000000;stroke-width:0.76;"/><text fill="#000000" font-family="sans-serif" font-size="9.88" lengthAdjust="spacing" textLength="57" x="1379.02" y="393.6763">requested by</text><text fill="#000000" font-family="sans-serif" font-size="9.88" lengthAdjust="spacing" textLength="5.32" x="1302.6361" y="482.5397">1</text><text fill="#000000" font-family="sans-serif" font-size="9.88" lengthAdjust="spacing" textLength="5.32" x="1464.547" y="398.1757">1</text><!--MD5=[6df8849671cb880f6936e94aa30db6f9]
link Parameter to ParameterCategory--><path codeLine="154" d="M2097.7216,424.4144 C2136.9148,409.2676 2202.1988,384.0356 2248.0116,366.3276 " fill="none" id="Parameter-ParameterCategory" style="stroke:#A80036;stroke-width:0.76;"/><polygon fill="#000000" points="2150.5445,366.9837,2143.3272,367.3785,2144.9377,371.5453,2150.5445,366.9837" style="stroke:#000000;stroke-width:0.76;"/><text fill="#000000" font-family="sans-serif" font-size="9.88" lengthAdjust="spacing" textLength="70.68" x="2153.84" y="372.3963">presented under</text><text fill="#000000" font-family="sans-serif" font-size="9.88" lengthAdjust="spacing" textLength="3.8" x="2103.7208" y="433.5834">*</text><text fill="#000000" font-family="sans-serif" font-size="9.88" lengthAdjust="spacing" textLength="5.32" x="2236.616" y="379.4808">1</text><!--MD5=[8aaf0efd5e2f3824be7ea3e488dcc283]
link TestType to ParameterCategory--><path codeLine="155" d="M1851.056,258.4836 C1887.7868,261.326 1938.912,265.8176 1983.6,271.7 C2044.7648,279.7636 2060.2384,281.6028 2120.4,295.26 C2163.8112,305.1248 2212.3372,319.048 2248.0192,329.84 " fill="none" id="TestType-ParameterCategory" style="stroke:#A80036;stroke-width:0.76;"/><polygon fill="#000000" points="2028.7601,268.7059,2022.3894,265.2913,2021.5991,269.688,2028.7601,268.7059" style="stroke:#000000;stroke-width:0.76;"/><text fill="#000000" font-family="sans-serif" font-size="9.88" lengthAdjust="spacing" textLength="72.96" x="2031.86" y="272.0763">characterized by</text><text fill="#000000" font-family="sans-serif" font-size="9.88" lengthAdjust="spacing" textLength="5.32" x="1857.216" y="269.8851">1</text><text fill="#000000" font-family="sans-serif" font-size="9.88" lengthAdjust="spacing" textLength="15.2" x="2226.8656" y="339.1117">1..*</text><!--MD5=[d480452e7d21fe720ba0207568bc7434]
link ClinicalAnalysisLaboratory to Test--><path codeLine="156" d="M1329.3844,323.608 C1374.8476,326.3592 1434.1428,329.9388 1475.844,332.462 " fill="none" id="ClinicalAnalysisLaboratory-Test" style="stroke:#A80036;stroke-width:0.76;"/><polygon fill="#000000" points="1385.4731,318.4229,1378.7461,315.7786,1378.4766,320.2376,1385.4731,318.4229" style="stroke:#000000;stroke-width:0.76;"/><text fill="#000000" font-family="sans-serif" font-size="9.88" lengthAdjust="spacing" textLength="38" x="1388.52" y="322.2363">performs</text><text fill="#000000" font-family="sans-serif" font-size="9.88" lengthAdjust="spacing" textLength="5.32" x="1335.4056" y="334.7498">1</text><text fill="#000000" font-family="sans-serif" font-size="9.88" lengthAdjust="spacing" textLength="15.2" x="1454.5229" y="343.041">1..*</text><!--MD5=[20791eee6878b3911ae94c60162f6f37]
@startuml
skinparam classAttributeIconSize 0
left to right direction

/'skinparam linetype ortho'/


/'package Domain <<Folder>> {
    package Model <<Folder>> {'/

        class ClinicalAnalysisLaboratory{
        - laboratoryID
        }

        class TestParameter{
            +TestParameter(parameter: Parameter)
        }
        class TestParameterResult{
        - createdAt
        - value
        - metric
        }
        class TestType {
        - code : String
        - description : String
        - collectingMethod : String
        }

        class Test{
            - code
            - NhsCode
            - dateOfTestRegistration
            - dateOfSamplesCollection
            - dateOfChemicalAnalysis
            - dateOfDiagnosis
        }

        class Parameter {
          -code
          -shortName
          -description
        }

        class Company {
            -designation : String
            +getTestTypeStore()
            +getParameterStore()
            +getTestStore()
            +getCalStore()
        }

        class ParameterCategory{
            -code
            -name
        }
        class Client{
        - name
        - citizenCardNum
        - nhsNum
        - birthDate
        - sex
        - taxIdNum
        - phoneNum
        - email
        }

/'    }'/
/'    package Stores <<Folder>> {'/
        class ParameterStore {
            +getParamsByCategories(List<String> selectedCategoriesCodes)
            +getParamsByCategory(String category)
        }

        class TestTypeStore {
               +getTestTypes()
               +getTestTypeByCode(String code)
               +getCategoriesByTestTypeCode(String selectedTestTypeCode)
            }

        class ClientStore {
           +getClientByTinNumber(tinNumber)
        }


        class TestStore {
            +getTestByNhsCode(nhsCode)
            +createTest(String nhsCode, Client associatedClient,\n TestType selectedTestType, List<Parameter>selectedParamsList)
            +validateTest(test)
            +saveTest(test)
        }

        class ClinicalAnalysisLaboratoryStore {
            +getCalByCode(clinicalAnalysisLabCode)
        }

/'    }
}'/

/'package Controller <<Folder>>{'/
    class CreateTestControler{
    +createTest(NHScode, citizenCardNumber,selectedTestTypeCode, selectedParamCodes)
    +saveTest(test)
    }

    class ImportTestController{
            +createTestsFromFile(filePath)
        }

    class RegisterClientController {
      +registerClient(clientsCitizenCardNumber, nhsNumber, birthDate \n, sex, tinNumber, email, name, phoneNumber)
      +saveClient()
    }

/'}'/

    class TestFileUtils {
        +getTestDataByFile(filepath)
        +getParameterCodes(String [])
        +getParameterResults(String[])
    }



ImportTestUI ..> ImportTestController
ImportTestController ..> CreateTestControler
ImportTestController ..> RegisterClientController
ImportTestController ..> TestStore
ImportTestController ..> TestFileUtils
CreateTestControler ..> Company
CreateTestControler ..> ParameterStore
CreateTestControler ..> TestTypeStore
CreateTestControler ..> ClinicalAnalysisLaboratory
CreateTestControler ..> TestStore
RegisterClientController ..> Company
RegisterClientController ..> ClientStore
TestTypeStore "1" - - "*" TestType : stores >
ClientStore "1" - - "*" Client : stores >
TestStore "1" - - "*" Test : stores >
ParameterStore "1" - - "*" Parameter : stores >
ClinicalAnalysisLaboratoryStore "1" - - "*" ClinicalAnalysisLaboratory : stores >
Company "1" - - "1" ParameterStore : uses >
Company "1" - - "1" TestTypeStore : uses >
Company "1" - - "1" TestStore : uses >
Company "1" - - "1" ClientStore : uses >
Company "1" - - "1" ClinicalAnalysisLaboratoryStore : uses >
TestType "1" - - "1..*" Parameter : characterized by >
Company "1" - - "*" TestType : conducts >
Company "1" - - - "*" Test : conducts >
Company "1" - "*" Parameter : capable of analysing >
Test "*" - - "1" TestType : classified as >
Test "1" - - "1..*" TestParameter : requests analysis of >
TestParameter "*" - - "1" Parameter : refers to >
TestParameter "1" - - "0..1" TestParameterResult : contains >
Client "1" - - "1" Test : requested by <
Parameter "*" - - "1" ParameterCategory: presented under >
TestType "1" - - "1..*" ParameterCategory : characterized by >
ClinicalAnalysisLaboratory "1" - "1..*" Test : performs >

@enduml

@startuml
skinparam classAttributeIconSize 0
left to right direction




        class ClinicalAnalysisLaboratory{
        - laboratoryID
        }

        class TestParameter{
            +TestParameter(parameter: Parameter)
        }
        class TestParameterResult{
        - createdAt
        - value
        - metric
        }
        class TestType {
        - code : String
        - description : String
        - collectingMethod : String
        }

        class Test{
            - code
            - NhsCode
            - dateOfTestRegistration
            - dateOfSamplesCollection
            - dateOfChemicalAnalysis
            - dateOfDiagnosis
        }

        class Parameter {
          -code
          -shortName
          -description
        }

        class Company {
            -designation : String
            +getTestTypeStore()
            +getParameterStore()
            +getTestStore()
            +getCalStore()
        }

        class ParameterCategory{
            -code
            -name
        }
        class Client{
        - name
        - citizenCardNum
        - nhsNum
        - birthDate
        - sex
        - taxIdNum
        - phoneNum
        - email
        }

        class ParameterStore {
            +getParamsByCategories(List<String> selectedCategoriesCodes)
            +getParamsByCategory(String category)
        }

        class TestTypeStore {
               +getTestTypes()
               +getTestTypeByCode(String code)
               +getCategoriesByTestTypeCode(String selectedTestTypeCode)
            }

        class ClientStore {
           +getClientByTinNumber(tinNumber)
        }


        class TestStore {
            +getTestByNhsCode(nhsCode)
            +createTest(String nhsCode, Client associatedClient,\n TestType selectedTestType, List<Parameter>selectedParamsList)
            +validateTest(test)
            +saveTest(test)
        }

        class ClinicalAnalysisLaboratoryStore {
            +getCalByCode(clinicalAnalysisLabCode)
        }


    class CreateTestControler{
    +createTest(NHScode, citizenCardNumber,selectedTestTypeCode, selectedParamCodes)
    +saveTest(test)
    }

    class ImportTestController{
            +createTestsFromFile(filePath)
        }

    class RegisterClientController {
      +registerClient(clientsCitizenCardNumber, nhsNumber, birthDate \n, sex, tinNumber, email, name, phoneNumber)
      +saveClient()
    }


    class TestFileUtils {
        +getTestDataByFile(filepath)
        +getParameterCodes(String [])
        +getParameterResults(String[])
    }



ImportTestUI ..> ImportTestController
ImportTestController ..> CreateTestControler
ImportTestController ..> RegisterClientController
ImportTestController ..> TestStore
ImportTestController ..> TestFileUtils
CreateTestControler ..> Company
CreateTestControler ..> ParameterStore
CreateTestControler ..> TestTypeStore
CreateTestControler ..> ClinicalAnalysisLaboratory
CreateTestControler ..> TestStore
RegisterClientController ..> Company
RegisterClientController ..> ClientStore
TestTypeStore "1" - - "*" TestType : stores >
ClientStore "1" - - "*" Client : stores >
TestStore "1" - - "*" Test : stores >
ParameterStore "1" - - "*" Parameter : stores >
ClinicalAnalysisLaboratoryStore "1" - - "*" ClinicalAnalysisLaboratory : stores >
Company "1" - - "1" ParameterStore : uses >
Company "1" - - "1" TestTypeStore : uses >
Company "1" - - "1" TestStore : uses >
Company "1" - - "1" ClientStore : uses >
Company "1" - - "1" ClinicalAnalysisLaboratoryStore : uses >
TestType "1" - - "1..*" Parameter : characterized by >
Company "1" - - "*" TestType : conducts >
Company "1" - - - "*" Test : conducts >
Company "1" - "*" Parameter : capable of analysing >
Test "*" - - "1" TestType : classified as >
Test "1" - - "1..*" TestParameter : requests analysis of >
TestParameter "*" - - "1" Parameter : refers to >
TestParameter "1" - - "0..1" TestParameterResult : contains >
Client "1" - - "1" Test : requested by <
Parameter "*" - - "1" ParameterCategory: presented under >
TestType "1" - - "1..*" ParameterCategory : characterized by >
ClinicalAnalysisLaboratory "1" - "1..*" Test : performs >

@enduml

PlantUML version 1.2021.00(Sun Jan 10 10:25:05 GMT 2021)
(GPL source distribution)
Java Runtime: OpenJDK Runtime Environment
JVM: OpenJDK 64-Bit Server VM
Default Encoding: Cp1252
Language: pt
Country: BR
--></g></svg>