<?xml version="1.0" encoding="UTF-8" standalone="no"?><svg xmlns="http://www.w3.org/2000/svg" xmlns:xlink="http://www.w3.org/1999/xlink" contentScriptType="application/ecmascript" contentStyleType="text/css" height="1364.16px" preserveAspectRatio="none" style="width:2032px;height:1364px;" version="1.1" viewBox="0 0 2032 1364" width="2032.32px" zoomAndPan="magnify"><defs><filter height="300%" id="f7hqt8yxetuov" width="300%" x="-1" y="-1"><feGaussianBlur result="blurOut" stdDeviation="1.74"/><feColorMatrix in="blurOut" result="blurOut2" type="matrix" values="0 0 0 0 0 0 0 0 0 0 0 0 0 0 0 0 0 0 .4 0"/><feOffset dx="3.48" dy="3.48" in="blurOut2" result="blurOut3"/><feBlend in="SourceGraphic" in2="blurOut3" mode="normal"/></filter></defs><g><!--MD5=[2c2e2644034c00788261e03c85b06837]
cluster Core--><polygon fill="#FFFFFF" filter="url(#f7hqt8yxetuov)" points="13.92,206.19,48.72,206.19,54.81,226.7302,2017.53,226.7302,2017.53,1358.07,13.92,1358.07,13.92,206.19" style="stroke:#000000;stroke-width:1.305;"/><line style="stroke:#000000;stroke-width:1.305;" x1="13.92" x2="54.81" y1="226.7302" y2="226.7302"/><text fill="#000000" font-family="sans-serif" font-size="12.18" font-weight="bold" lengthAdjust="spacing" textLength="29.58" x="17.4" y="220.5739">Core</text><!--MD5=[121a8bf1197281ab89ed693fab589f94]
cluster Domain--><polygon fill="#FFFFFF" filter="url(#f7hqt8yxetuov)" points="461.97,401.94,512.43,401.94,518.52,422.4802,1996.65,422.4802,1996.65,1337.19,461.97,1337.19,461.97,401.94" style="stroke:#000000;stroke-width:1.305;"/><line style="stroke:#000000;stroke-width:1.305;" x1="461.97" x2="518.52" y1="422.4802" y2="422.4802"/><text fill="#000000" font-family="sans-serif" font-size="12.18" font-weight="bold" lengthAdjust="spacing" textLength="45.24" x="465.45" y="416.3239">Domain</text><!--MD5=[15636c1ca4a123c16a2a1a8e90aca7a9]
cluster Model--><polygon fill="#FFFFFF" filter="url(#f7hqt8yxetuov)" points="489.81,461.97,533.31,461.97,539.4,482.5102,1204.95,482.5102,1204.95,1309.35,489.81,1309.35,489.81,461.97" style="stroke:#000000;stroke-width:1.305;"/><line style="stroke:#000000;stroke-width:1.305;" x1="489.81" x2="539.4" y1="482.5102" y2="482.5102"/><text fill="#000000" font-family="sans-serif" font-size="12.18" font-weight="bold" lengthAdjust="spacing" textLength="38.28" x="493.29" y="476.3539">Model</text><!--MD5=[8dd535d56cd4cf7faf64fdd082ba836e]
cluster Stores--><polygon fill="#FFFFFF" filter="url(#f7hqt8yxetuov)" points="1239.75,698.175,1284.99,698.175,1291.08,718.7152,1968.81,718.7152,1968.81,1015.29,1239.75,1015.29,1239.75,698.175" style="stroke:#000000;stroke-width:1.305;"/><line style="stroke:#000000;stroke-width:1.305;" x1="1239.75" x2="1291.08" y1="718.7152" y2="718.7152"/><text fill="#000000" font-family="sans-serif" font-size="12.18" font-weight="bold" lengthAdjust="spacing" textLength="40.02" x="1243.23" y="712.5589">Stores</text><!--MD5=[7b8bc9ee8bb84b99fb3a3f9477c19238]
cluster DTO--><polygon fill="#FFFFFF" filter="url(#f7hqt8yxetuov)" points="1239.75,447.18,1270.2,447.18,1276.29,467.7202,1416.36,467.7202,1416.36,637.71,1239.75,637.71,1239.75,447.18" style="stroke:#000000;stroke-width:1.305;"/><line style="stroke:#000000;stroke-width:1.305;" x1="1239.75" x2="1276.29" y1="467.7202" y2="467.7202"/><text fill="#000000" font-family="sans-serif" font-size="12.18" font-weight="bold" lengthAdjust="spacing" textLength="25.23" x="1243.23" y="461.5639">DTO</text><!--MD5=[ed1d20ea533a2a0e7df5ba3c35e56ced]
cluster Controllers--><polygon fill="#FFFFFF" filter="url(#f7hqt8yxetuov)" points="41.76,251.43,115.71,251.43,121.8,271.9702,434.13,271.9702,434.13,816.495,41.76,816.495,41.76,251.43" style="stroke:#000000;stroke-width:1.305;"/><line style="stroke:#000000;stroke-width:1.305;" x1="41.76" x2="121.8" y1="271.9702" y2="271.9702"/><text fill="#000000" font-family="sans-serif" font-size="12.18" font-weight="bold" lengthAdjust="spacing" textLength="68.73" x="45.24" y="265.8139">Controllers</text><!--MD5=[9681dc6e01e10c6b4fe06895ae94f592]
cluster UI--><polygon fill="#FFFFFF" filter="url(#f7hqt8yxetuov)" points="731.67,5.22,749.07,5.22,755.16,25.7602,1090.11,25.7602,1090.11,170.52,731.67,170.52,731.67,5.22" style="stroke:#000000;stroke-width:1.305;"/><line style="stroke:#000000;stroke-width:1.305;" x1="731.67" x2="755.16" y1="25.7602" y2="25.7602"/><text fill="#000000" font-family="sans-serif" font-size="12.18" font-weight="bold" lengthAdjust="spacing" textLength="12.18" x="735.15" y="19.6039">UI</text><!--MD5=[7e40339c58605559321960399585b560]
cluster Utils--><polygon fill="#FFFFFF" filter="url(#f7hqt8yxetuov)" points="905.67,50.46,937.86,50.46,943.95,71.0002,1062.27,71.0002,1062.27,142.68,905.67,142.68,905.67,50.46" style="stroke:#000000;stroke-width:1.305;"/><line style="stroke:#000000;stroke-width:1.305;" x1="905.67" x2="943.95" y1="71.0002" y2="71.0002"/><text fill="#000000" font-family="sans-serif" font-size="12.18" font-weight="bold" lengthAdjust="spacing" textLength="26.97" x="909.15" y="64.8439">Utils</text><!--MD5=[b27c5c9af3cea12247b1c4c8d3c78770]
cluster GUI--><polygon fill="#FFFFFF" filter="url(#f7hqt8yxetuov)" points="766.47,60.03,793.44,60.03,799.53,80.5702,884.79,80.5702,884.79,133.11,766.47,133.11,766.47,60.03" style="stroke:#000000;stroke-width:1.305;"/><line style="stroke:#000000;stroke-width:1.305;" x1="766.47" x2="799.53" y1="80.5702" y2="80.5702"/><text fill="#000000" font-family="sans-serif" font-size="12.18" font-weight="bold" lengthAdjust="spacing" textLength="21.75" x="769.95" y="74.4139">GUI</text><!--MD5=[1934a092c0e7d4da7dc7075b6f4b6b03]
class ClinicalAnalysisLaboratory--><rect codeLine="12" fill="#FEFECE" filter="url(#f7hqt8yxetuov)" height="46.8373" id="ClinicalAnalysisLaboratory" style="stroke:#A80036;stroke-width:1.305;" width="153.99" x="586.815" y="929.595"/><ellipse cx="599.865" cy="943.515" fill="#ADD1B2" rx="9.57" ry="9.57" style="stroke:#A80036;stroke-width:0.87;"/><path d="M601.605,940.47 Q601.7817,940.035 601.9856,939.8175 Q602.1895,939.6 602.4206,939.6 Q602.8284,939.6 603.0867,939.8447 Q603.345,940.0894 603.345,940.6603 L603.345,942.0197 Q603.345,942.5906 603.1003,942.8353 Q602.8556,943.08 602.475,943.08 Q602.1352,943.08 601.9177,942.9305 Q601.7002,942.7809 601.605,942.3867 Q601.5642,942.1148 601.4147,941.9653 Q601.1428,941.6798 600.6534,941.5167 Q600.1641,941.34 599.6747,941.34 Q599.063,941.34 598.5464,941.5847 Q598.0434,941.8294 597.6492,942.3731 Q597.255,942.9169 597.255,943.6645 L597.255,944.4666 Q597.255,945.3638 597.9891,945.9619 Q598.7231,946.56 600.0281,946.56 Q600.803,946.56 601.3467,946.3833 Q601.6594,946.2881 602.0128,945.9755 Q602.2439,945.7988 602.3663,945.7444 Q602.4886,945.69 602.6381,945.69 Q602.9236,945.69 603.1275,945.9211 Q603.345,946.1386 603.345,946.4513 Q603.345,946.7503 603.0459,947.1038 Q602.6109,947.6203 601.9177,947.9058 Q601.0069,948.3 599.8922,948.3 Q598.5872,948.3 597.5405,947.7834 Q596.6977,947.3756 596.0995,946.492 Q595.515,945.6084 595.515,944.5617 L595.515,943.6102 Q595.515,942.5227 596.0316,941.5711 Q596.5617,940.6195 597.4725,940.1166 Q598.3969,939.6 599.43,939.6 Q600.0553,939.6 600.5991,939.8175 Q601.1428,940.035 601.605,940.47 Z " fill="#000000"/><text fill="#000000" font-family="sans-serif" font-size="10.44" lengthAdjust="spacing" textLength="126.15" x="612.045" y="947.7868">ClinicalAnalysisLaboratory</text><line style="stroke:#A80036;stroke-width:1.305;" x1="587.685" x2="739.935" y1="957.435" y2="957.435"/><text fill="#000000" font-family="sans-serif" font-size="9.57" lengthAdjust="spacing" textLength="53.94" x="592.035" y="970.8495">-laboratoryID</text><!--MD5=[df38be88ccee13e832d6fafd6288a4ca]
class Test--><rect codeLine="16" fill="#FEFECE" filter="url(#f7hqt8yxetuov)" height="107.0236" id="Test" style="stroke:#A80036;stroke-width:1.305;" width="118.32" x="827.37" y="899.58"/><ellipse cx="872.3925" cy="913.5" fill="#ADD1B2" rx="9.57" ry="9.57" style="stroke:#A80036;stroke-width:0.87;"/><path d="M874.1325,910.455 Q874.3092,910.02 874.5131,909.8025 Q874.717,909.585 874.9481,909.585 Q875.3559,909.585 875.6142,909.8297 Q875.8725,910.0744 875.8725,910.6453 L875.8725,912.0047 Q875.8725,912.5756 875.6278,912.8203 Q875.3831,913.065 875.0025,913.065 Q874.6627,913.065 874.4452,912.9155 Q874.2277,912.7659 874.1325,912.3717 Q874.0917,912.0998 873.9422,911.9503 Q873.6703,911.6648 873.1809,911.5017 Q872.6916,911.325 872.2022,911.325 Q871.5905,911.325 871.0739,911.5697 Q870.5709,911.8144 870.1767,912.3581 Q869.7825,912.9019 869.7825,913.6495 L869.7825,914.4516 Q869.7825,915.3488 870.5166,915.9469 Q871.2506,916.545 872.5556,916.545 Q873.3305,916.545 873.8742,916.3683 Q874.1869,916.2731 874.5403,915.9605 Q874.7714,915.7837 874.8938,915.7294 Q875.0161,915.675 875.1656,915.675 Q875.4511,915.675 875.655,915.9061 Q875.8725,916.1236 875.8725,916.4363 Q875.8725,916.7353 875.5734,917.0888 Q875.1384,917.6053 874.4452,917.8908 Q873.5344,918.285 872.4197,918.285 Q871.1147,918.285 870.068,917.7684 Q869.2252,917.3606 868.627,916.477 Q868.0425,915.5934 868.0425,914.5467 L868.0425,913.5952 Q868.0425,912.5077 868.5591,911.5561 Q869.0892,910.6045 870,910.1016 Q870.9244,909.585 871.9575,909.585 Q872.5828,909.585 873.1266,909.8025 Q873.6703,910.02 874.1325,910.455 Z " fill="#000000"/><text fill="#000000" font-family="sans-serif" font-size="10.44" lengthAdjust="spacing" textLength="20.88" x="890.2275" y="917.7718">Test</text><line style="stroke:#A80036;stroke-width:1.305;" x1="828.24" x2="944.82" y1="927.42" y2="927.42"/><text fill="#000000" font-family="sans-serif" font-size="9.57" lengthAdjust="spacing" textLength="24.36" x="832.59" y="940.8345">-code</text><text fill="#000000" font-family="sans-serif" font-size="9.57" lengthAdjust="spacing" textLength="41.76" x="832.59" y="952.8717">-NhsCode</text><text fill="#000000" font-family="sans-serif" font-size="9.57" lengthAdjust="spacing" textLength="100.05" x="832.59" y="964.909">-dateOfTestRegistration</text><text fill="#000000" font-family="sans-serif" font-size="9.57" lengthAdjust="spacing" textLength="107.88" x="832.59" y="976.9463">-dateOfSamplesCollection</text><text fill="#000000" font-family="sans-serif" font-size="9.57" lengthAdjust="spacing" textLength="106.14" x="832.59" y="988.9835">-dateOfChemicalAnalysis</text><text fill="#000000" font-family="sans-serif" font-size="9.57" lengthAdjust="spacing" textLength="73.08" x="832.59" y="1001.0208">-dateOfDiagnosis</text><!--MD5=[02e4b9b7573f1156f41e60aa5b4e25a4]
class Company--><rect codeLine="25" fill="#FEFECE" filter="url(#f7hqt8yxetuov)" height="101.9463" id="Company" style="stroke:#A80036;stroke-width:1.305;" width="100.92" x="860.43" y="500.25"/><ellipse cx="885.6165" cy="514.17" fill="#ADD1B2" rx="9.57" ry="9.57" style="stroke:#A80036;stroke-width:0.87;"/><path d="M887.3565,511.125 Q887.5332,510.69 887.7371,510.4725 Q887.941,510.255 888.1721,510.255 Q888.5799,510.255 888.8382,510.4997 Q889.0965,510.7444 889.0965,511.3153 L889.0965,512.6747 Q889.0965,513.2456 888.8518,513.4903 Q888.6071,513.735 888.2265,513.735 Q887.8867,513.735 887.6692,513.5855 Q887.4517,513.4359 887.3565,513.0417 Q887.3157,512.7698 887.1662,512.6203 Q886.8943,512.3348 886.4049,512.1717 Q885.9156,511.995 885.4262,511.995 Q884.8145,511.995 884.2979,512.2397 Q883.7949,512.4844 883.4007,513.0281 Q883.0065,513.5719 883.0065,514.3195 L883.0065,515.1216 Q883.0065,516.0188 883.7406,516.6169 Q884.4746,517.215 885.7796,517.215 Q886.5545,517.215 887.0982,517.0383 Q887.4109,516.9431 887.7643,516.6305 Q887.9954,516.4538 888.1178,516.3994 Q888.2401,516.345 888.3896,516.345 Q888.6751,516.345 888.879,516.5761 Q889.0965,516.7936 889.0965,517.1063 Q889.0965,517.4053 888.7974,517.7588 Q888.3624,518.2753 887.6692,518.5608 Q886.7584,518.955 885.6437,518.955 Q884.3387,518.955 883.292,518.4384 Q882.4492,518.0306 881.851,517.147 Q881.2665,516.2634 881.2665,515.2167 L881.2665,514.2652 Q881.2665,513.1777 881.7831,512.2261 Q882.3132,511.2745 883.224,510.7716 Q884.1484,510.255 885.1815,510.255 Q885.8068,510.255 886.3506,510.4725 Q886.8943,510.69 887.3565,511.125 Z " fill="#000000"/><text fill="#000000" font-family="sans-serif" font-size="10.44" lengthAdjust="spacing" textLength="46.11" x="900.4935" y="518.4418">Company</text><line style="stroke:#A80036;stroke-width:1.305;" x1="861.3" x2="960.48" y1="528.09" y2="528.09"/><text fill="#000000" font-family="sans-serif" font-size="9.57" lengthAdjust="spacing" textLength="83.52" x="865.65" y="541.5045">-designation : String</text><line style="stroke:#A80036;stroke-width:1.305;" x1="861.3" x2="960.48" y1="547.0873" y2="547.0873"/><text fill="#000000" font-family="sans-serif" font-size="9.57" lengthAdjust="spacing" textLength="87" x="865.65" y="560.5017">+getTestTypeStore()</text><text fill="#000000" font-family="sans-serif" font-size="9.57" lengthAdjust="spacing" textLength="90.48" x="865.65" y="572.539">+getParameterStore()</text><text fill="#000000" font-family="sans-serif" font-size="9.57" lengthAdjust="spacing" textLength="66.12" x="865.65" y="584.5763">+getTestStore()</text><text fill="#000000" font-family="sans-serif" font-size="9.57" lengthAdjust="spacing" textLength="60.9" x="865.65" y="596.6135">+getCalStore()</text><!--MD5=[aeb3272166074d8737a70b61b1e71682]
class TestType--><rect codeLine="32" fill="#FEFECE" filter="url(#f7hqt8yxetuov)" height="70.9118" id="TestType" style="stroke:#A80036;stroke-width:1.305;" width="115.71" x="511.125" y="1077.93"/><ellipse cx="544.1415" cy="1091.85" fill="#ADD1B2" rx="9.57" ry="9.57" style="stroke:#A80036;stroke-width:0.87;"/><path d="M545.8815,1088.805 Q546.0582,1088.37 546.2621,1088.1525 Q546.466,1087.935 546.6971,1087.935 Q547.1049,1087.935 547.3632,1088.1797 Q547.6215,1088.4244 547.6215,1088.9953 L547.6215,1090.3547 Q547.6215,1090.9256 547.3768,1091.1703 Q547.1321,1091.415 546.7515,1091.415 Q546.4117,1091.415 546.1942,1091.2655 Q545.9767,1091.1159 545.8815,1090.7217 Q545.8407,1090.4498 545.6912,1090.3003 Q545.4193,1090.0148 544.9299,1089.8517 Q544.4406,1089.675 543.9512,1089.675 Q543.3395,1089.675 542.8229,1089.9197 Q542.3199,1090.1644 541.9257,1090.7081 Q541.5315,1091.2519 541.5315,1091.9995 L541.5315,1092.8016 Q541.5315,1093.6988 542.2656,1094.2969 Q542.9996,1094.895 544.3046,1094.895 Q545.0795,1094.895 545.6232,1094.7183 Q545.9359,1094.6231 546.2893,1094.3105 Q546.5204,1094.1338 546.6428,1094.0794 Q546.7651,1094.025 546.9146,1094.025 Q547.2001,1094.025 547.404,1094.2561 Q547.6215,1094.4736 547.6215,1094.7862 Q547.6215,1095.0853 547.3224,1095.4388 Q546.8874,1095.9553 546.1942,1096.2408 Q545.2834,1096.635 544.1687,1096.635 Q542.8637,1096.635 541.817,1096.1184 Q540.9742,1095.7106 540.376,1094.827 Q539.7915,1093.9434 539.7915,1092.8967 L539.7915,1091.9452 Q539.7915,1090.8577 540.3081,1089.9061 Q540.8382,1088.9545 541.749,1088.4516 Q542.6734,1087.935 543.7065,1087.935 Q544.3318,1087.935 544.8756,1088.1525 Q545.4193,1088.37 545.8815,1088.805 Z " fill="#000000"/><text fill="#000000" font-family="sans-serif" font-size="10.44" lengthAdjust="spacing" textLength="43.5" x="560.7585" y="1096.1218">TestType</text><line style="stroke:#A80036;stroke-width:1.305;" x1="511.995" x2="625.965" y1="1105.77" y2="1105.77"/><text fill="#000000" font-family="sans-serif" font-size="9.57" lengthAdjust="spacing" textLength="56.55" x="516.345" y="1119.1845">-code : String</text><text fill="#000000" font-family="sans-serif" font-size="9.57" lengthAdjust="spacing" textLength="81.78" x="516.345" y="1131.2217">-description : String</text><text fill="#000000" font-family="sans-serif" font-size="9.57" lengthAdjust="spacing" textLength="105.27" x="516.345" y="1143.259">-collectingMethod : String</text><!--MD5=[9681492165142af2a4a3a169d90ee8d4]
class Sample--><rect codeLine="38" fill="#FEFECE" filter="url(#f7hqt8yxetuov)" height="46.8373" id="Sample" style="stroke:#A80036;stroke-width:1.305;" width="65.25" x="1079.235" y="1090.11"/><ellipse cx="1092.285" cy="1104.03" fill="#ADD1B2" rx="9.57" ry="9.57" style="stroke:#A80036;stroke-width:0.87;"/><path d="M1094.025,1100.985 Q1094.2017,1100.55 1094.4056,1100.3325 Q1094.6095,1100.115 1094.8406,1100.115 Q1095.2484,1100.115 1095.5067,1100.3597 Q1095.765,1100.6044 1095.765,1101.1753 L1095.765,1102.5347 Q1095.765,1103.1056 1095.5203,1103.3503 Q1095.2756,1103.595 1094.895,1103.595 Q1094.5552,1103.595 1094.3377,1103.4455 Q1094.1202,1103.2959 1094.025,1102.9017 Q1093.9842,1102.6298 1093.8347,1102.4803 Q1093.5628,1102.1948 1093.0734,1102.0317 Q1092.5841,1101.855 1092.0947,1101.855 Q1091.483,1101.855 1090.9664,1102.0997 Q1090.4634,1102.3444 1090.0692,1102.8881 Q1089.675,1103.4319 1089.675,1104.1795 L1089.675,1104.9816 Q1089.675,1105.8788 1090.4091,1106.4769 Q1091.1431,1107.075 1092.4481,1107.075 Q1093.223,1107.075 1093.7667,1106.8983 Q1094.0794,1106.8031 1094.4328,1106.4905 Q1094.6639,1106.3138 1094.7862,1106.2594 Q1094.9086,1106.205 1095.0581,1106.205 Q1095.3436,1106.205 1095.5475,1106.4361 Q1095.765,1106.6536 1095.765,1106.9663 Q1095.765,1107.2653 1095.4659,1107.6188 Q1095.0309,1108.1353 1094.3377,1108.4208 Q1093.4269,1108.815 1092.3122,1108.815 Q1091.0072,1108.815 1089.9605,1108.2984 Q1089.1177,1107.8906 1088.5195,1107.007 Q1087.935,1106.1234 1087.935,1105.0767 L1087.935,1104.1252 Q1087.935,1103.0377 1088.4516,1102.0861 Q1088.9817,1101.1345 1089.8925,1100.6316 Q1090.8169,1100.115 1091.85,1100.115 Q1092.4753,1100.115 1093.0191,1100.3325 Q1093.5628,1100.55 1094.025,1100.985 Z " fill="#000000"/><text fill="#000000" font-family="sans-serif" font-size="10.44" lengthAdjust="spacing" textLength="37.41" x="1104.465" y="1108.3018">Sample</text><line style="stroke:#A80036;stroke-width:1.305;" x1="1080.105" x2="1143.615" y1="1117.95" y2="1117.95"/><text fill="#000000" font-family="sans-serif" font-size="9.57" lengthAdjust="spacing" textLength="51.33" x="1084.455" y="1131.3645">-myBarcode</text><!--MD5=[1f6362a5c8f21d8d6a0fce68f3a92a4e]
class Parameter--><rect codeLine="42" fill="#FEFECE" filter="url(#f7hqt8yxetuov)" height="70.9118" id="Parameter" style="stroke:#A80036;stroke-width:1.305;" width="78.3" x="705.57" y="1217.13"/><ellipse cx="718.62" cy="1231.05" fill="#ADD1B2" rx="9.57" ry="9.57" style="stroke:#A80036;stroke-width:0.87;"/><path d="M720.36,1228.005 Q720.5367,1227.57 720.7406,1227.3525 Q720.9445,1227.135 721.1756,1227.135 Q721.5834,1227.135 721.8417,1227.3797 Q722.1,1227.6244 722.1,1228.1953 L722.1,1229.5547 Q722.1,1230.1256 721.8553,1230.3703 Q721.6106,1230.615 721.23,1230.615 Q720.8902,1230.615 720.6727,1230.4655 Q720.4552,1230.3159 720.36,1229.9217 Q720.3192,1229.6498 720.1697,1229.5003 Q719.8978,1229.2148 719.4084,1229.0517 Q718.9191,1228.875 718.4297,1228.875 Q717.818,1228.875 717.3014,1229.1197 Q716.7984,1229.3644 716.4042,1229.9081 Q716.01,1230.4519 716.01,1231.1995 L716.01,1232.0016 Q716.01,1232.8988 716.7441,1233.4969 Q717.4781,1234.095 718.7831,1234.095 Q719.558,1234.095 720.1017,1233.9183 Q720.4144,1233.8231 720.7678,1233.5105 Q720.9989,1233.3338 721.1213,1233.2794 Q721.2436,1233.225 721.3931,1233.225 Q721.6786,1233.225 721.8825,1233.4561 Q722.1,1233.6736 722.1,1233.9863 Q722.1,1234.2853 721.8009,1234.6388 Q721.3659,1235.1553 720.6727,1235.4408 Q719.7619,1235.835 718.6472,1235.835 Q717.3422,1235.835 716.2955,1235.3184 Q715.4527,1234.9106 714.8545,1234.027 Q714.27,1233.1434 714.27,1232.0967 L714.27,1231.1452 Q714.27,1230.0577 714.7866,1229.1061 Q715.3167,1228.1545 716.2275,1227.6516 Q717.1519,1227.135 718.185,1227.135 Q718.8103,1227.135 719.3541,1227.3525 Q719.8978,1227.57 720.36,1228.005 Z " fill="#000000"/><text fill="#000000" font-family="sans-serif" font-size="10.44" lengthAdjust="spacing" textLength="50.46" x="730.8" y="1235.3218">Parameter</text><line style="stroke:#A80036;stroke-width:1.305;" x1="706.44" x2="783" y1="1244.97" y2="1244.97"/><text fill="#000000" font-family="sans-serif" font-size="9.57" lengthAdjust="spacing" textLength="24.36" x="710.79" y="1258.3845">-code</text><text fill="#000000" font-family="sans-serif" font-size="9.57" lengthAdjust="spacing" textLength="48.72" x="710.79" y="1270.4217">-shortName</text><text fill="#000000" font-family="sans-serif" font-size="9.57" lengthAdjust="spacing" textLength="49.59" x="710.79" y="1282.459">-description</text><!--MD5=[0f07739f46effee96e095e9c408da841]
class TestParameter--><rect codeLine="47" fill="#FEFECE" filter="url(#f7hqt8yxetuov)" height="46.8373" id="TestParameter" style="stroke:#A80036;stroke-width:1.305;" width="174" x="657.72" y="1090.11"/><ellipse cx="705.3525" cy="1104.03" fill="#ADD1B2" rx="9.57" ry="9.57" style="stroke:#A80036;stroke-width:0.87;"/><path d="M707.0925,1100.985 Q707.2692,1100.55 707.4731,1100.3325 Q707.677,1100.115 707.9081,1100.115 Q708.3159,1100.115 708.5742,1100.3597 Q708.8325,1100.6044 708.8325,1101.1753 L708.8325,1102.5347 Q708.8325,1103.1056 708.5878,1103.3503 Q708.3431,1103.595 707.9625,1103.595 Q707.6227,1103.595 707.4052,1103.4455 Q707.1877,1103.2959 707.0925,1102.9017 Q707.0517,1102.6298 706.9022,1102.4803 Q706.6303,1102.1948 706.1409,1102.0317 Q705.6516,1101.855 705.1622,1101.855 Q704.5505,1101.855 704.0339,1102.0997 Q703.5309,1102.3444 703.1367,1102.8881 Q702.7425,1103.4319 702.7425,1104.1795 L702.7425,1104.9816 Q702.7425,1105.8788 703.4766,1106.4769 Q704.2106,1107.075 705.5156,1107.075 Q706.2905,1107.075 706.8342,1106.8983 Q707.1469,1106.8031 707.5003,1106.4905 Q707.7314,1106.3138 707.8538,1106.2594 Q707.9761,1106.205 708.1256,1106.205 Q708.4111,1106.205 708.615,1106.4361 Q708.8325,1106.6536 708.8325,1106.9663 Q708.8325,1107.2653 708.5334,1107.6188 Q708.0984,1108.1353 707.4052,1108.4208 Q706.4944,1108.815 705.3797,1108.815 Q704.0747,1108.815 703.028,1108.2984 Q702.1852,1107.8906 701.587,1107.007 Q701.0025,1106.1234 701.0025,1105.0767 L701.0025,1104.1252 Q701.0025,1103.0377 701.5191,1102.0861 Q702.0492,1101.1345 702.96,1100.6316 Q703.8844,1100.115 704.9175,1100.115 Q705.5428,1100.115 706.0866,1100.3325 Q706.6303,1100.55 707.0925,1100.985 Z " fill="#000000"/><text fill="#000000" font-family="sans-serif" font-size="10.44" lengthAdjust="spacing" textLength="71.34" x="723.1875" y="1108.3018">TestParameter</text><line style="stroke:#A80036;stroke-width:1.305;" x1="658.59" x2="830.85" y1="1117.95" y2="1117.95"/><text fill="#000000" font-family="sans-serif" font-size="9.57" lengthAdjust="spacing" textLength="163.56" x="662.94" y="1131.3645">+TestParameter(parameter: Parameter)</text><!--MD5=[4e608140b854dae633589343bce77383]
class TestParameterResult--><rect codeLine="50" fill="#FEFECE" filter="url(#f7hqt8yxetuov)" height="70.9118" id="TestParameterResult" style="stroke:#A80036;stroke-width:1.305;" width="130.5" x="917.85" y="1077.93"/><ellipse cx="930.9" cy="1091.85" fill="#ADD1B2" rx="9.57" ry="9.57" style="stroke:#A80036;stroke-width:0.87;"/><path d="M932.64,1088.805 Q932.8167,1088.37 933.0206,1088.1525 Q933.2245,1087.935 933.4556,1087.935 Q933.8634,1087.935 934.1217,1088.1797 Q934.38,1088.4244 934.38,1088.9953 L934.38,1090.3547 Q934.38,1090.9256 934.1353,1091.1703 Q933.8906,1091.415 933.51,1091.415 Q933.1702,1091.415 932.9527,1091.2655 Q932.7352,1091.1159 932.64,1090.7217 Q932.5992,1090.4498 932.4497,1090.3003 Q932.1778,1090.0148 931.6884,1089.8517 Q931.1991,1089.675 930.7097,1089.675 Q930.098,1089.675 929.5814,1089.9197 Q929.0784,1090.1644 928.6842,1090.7081 Q928.29,1091.2519 928.29,1091.9995 L928.29,1092.8016 Q928.29,1093.6988 929.0241,1094.2969 Q929.7581,1094.895 931.0631,1094.895 Q931.838,1094.895 932.3817,1094.7183 Q932.6944,1094.6231 933.0478,1094.3105 Q933.2789,1094.1338 933.4013,1094.0794 Q933.5236,1094.025 933.6731,1094.025 Q933.9586,1094.025 934.1625,1094.2561 Q934.38,1094.4736 934.38,1094.7862 Q934.38,1095.0853 934.0809,1095.4388 Q933.6459,1095.9553 932.9527,1096.2408 Q932.0419,1096.635 930.9272,1096.635 Q929.6222,1096.635 928.5755,1096.1184 Q927.7327,1095.7106 927.1345,1094.827 Q926.55,1093.9434 926.55,1092.8967 L926.55,1091.9452 Q926.55,1090.8577 927.0666,1089.9061 Q927.5967,1088.9545 928.5075,1088.4516 Q929.4319,1087.935 930.465,1087.935 Q931.0903,1087.935 931.6341,1088.1525 Q932.1778,1088.37 932.64,1088.805 Z " fill="#000000"/><text fill="#000000" font-family="sans-serif" font-size="10.44" lengthAdjust="spacing" textLength="102.66" x="943.08" y="1096.1218">TestParameterResult</text><line style="stroke:#A80036;stroke-width:1.305;" x1="918.72" x2="1047.48" y1="1105.77" y2="1105.77"/><text fill="#000000" font-family="sans-serif" font-size="9.57" lengthAdjust="spacing" textLength="45.24" x="923.07" y="1119.1845">-createdAt</text><text fill="#000000" font-family="sans-serif" font-size="9.57" lengthAdjust="spacing" textLength="26.1" x="923.07" y="1131.2217">-value</text><text fill="#000000" font-family="sans-serif" font-size="9.57" lengthAdjust="spacing" textLength="28.71" x="923.07" y="1143.259">-metric</text><!--MD5=[ed6624c6556d5e7b1bd23032162d20b7]
class Client--><rect codeLine="56" fill="#FEFECE" filter="url(#f7hqt8yxetuov)" height="131.0981" id="Client" style="stroke:#A80036;stroke-width:1.305;" width="79.17" x="710.355" y="700.35"/><ellipse cx="733.9755" cy="714.27" fill="#ADD1B2" rx="9.57" ry="9.57" style="stroke:#A80036;stroke-width:0.87;"/><path d="M735.7155,711.225 Q735.8922,710.79 736.0961,710.5725 Q736.3,710.355 736.5311,710.355 Q736.9389,710.355 737.1972,710.5997 Q737.4555,710.8444 737.4555,711.4153 L737.4555,712.7747 Q737.4555,713.3456 737.2108,713.5903 Q736.9661,713.835 736.5855,713.835 Q736.2457,713.835 736.0282,713.6855 Q735.8107,713.5359 735.7155,713.1417 Q735.6747,712.8698 735.5252,712.7203 Q735.2533,712.4348 734.7639,712.2717 Q734.2746,712.095 733.7852,712.095 Q733.1735,712.095 732.6569,712.3397 Q732.1539,712.5844 731.7597,713.1281 Q731.3655,713.6719 731.3655,714.4195 L731.3655,715.2216 Q731.3655,716.1188 732.0996,716.7169 Q732.8336,717.315 734.1386,717.315 Q734.9135,717.315 735.4572,717.1383 Q735.7699,717.0431 736.1233,716.7305 Q736.3544,716.5538 736.4767,716.4994 Q736.5991,716.445 736.7486,716.445 Q737.0341,716.445 737.238,716.6761 Q737.4555,716.8936 737.4555,717.2063 Q737.4555,717.5053 737.1564,717.8588 Q736.7214,718.3753 736.0282,718.6608 Q735.1174,719.055 734.0027,719.055 Q732.6977,719.055 731.651,718.5384 Q730.8082,718.1306 730.21,717.247 Q729.6255,716.3634 729.6255,715.3167 L729.6255,714.3652 Q729.6255,713.2777 730.1421,712.3261 Q730.6722,711.3745 731.583,710.8716 Q732.5074,710.355 733.5405,710.355 Q734.1658,710.355 734.7096,710.5725 Q735.2533,710.79 735.7155,711.225 Z " fill="#000000"/><text fill="#000000" font-family="sans-serif" font-size="10.44" lengthAdjust="spacing" textLength="27.84" x="748.5045" y="718.5418">Client</text><line style="stroke:#A80036;stroke-width:1.305;" x1="711.225" x2="788.655" y1="728.19" y2="728.19"/><text fill="#000000" font-family="sans-serif" font-size="9.57" lengthAdjust="spacing" textLength="26.1" x="715.575" y="741.6045">-name</text><text fill="#000000" font-family="sans-serif" font-size="9.57" lengthAdjust="spacing" textLength="68.73" x="715.575" y="753.6417">-citizenCardNum</text><text fill="#000000" font-family="sans-serif" font-size="9.57" lengthAdjust="spacing" textLength="37.41" x="715.575" y="765.679">-nhsNum</text><text fill="#000000" font-family="sans-serif" font-size="9.57" lengthAdjust="spacing" textLength="40.89" x="715.575" y="777.7163">-birthDate</text><text fill="#000000" font-family="sans-serif" font-size="9.57" lengthAdjust="spacing" textLength="19.14" x="715.575" y="789.7535">-sex</text><text fill="#000000" font-family="sans-serif" font-size="9.57" lengthAdjust="spacing" textLength="41.76" x="715.575" y="801.7908">-taxIdNum</text><text fill="#000000" font-family="sans-serif" font-size="9.57" lengthAdjust="spacing" textLength="47.85" x="715.575" y="813.8281">-phoneNum</text><text fill="#000000" font-family="sans-serif" font-size="9.57" lengthAdjust="spacing" textLength="24.36" x="715.575" y="825.8653">-email</text><!--MD5=[b42cc4842635d5e6eb486abf1ddf7193]
class MyBarcode--><rect codeLine="67" fill="#FEFECE" filter="url(#f7hqt8yxetuov)" height="46.8373" id="MyBarcode" style="stroke:#A80036;stroke-width:1.305;" width="80.91" x="1049.655" y="1229.31"/><ellipse cx="1063.0965" cy="1243.23" fill="#ADD1B2" rx="9.57" ry="9.57" style="stroke:#A80036;stroke-width:0.87;"/><path d="M1064.8365,1240.185 Q1065.0132,1239.75 1065.2171,1239.5325 Q1065.421,1239.315 1065.6521,1239.315 Q1066.0599,1239.315 1066.3182,1239.5597 Q1066.5765,1239.8044 1066.5765,1240.3753 L1066.5765,1241.7347 Q1066.5765,1242.3056 1066.3318,1242.5503 Q1066.0871,1242.795 1065.7065,1242.795 Q1065.3667,1242.795 1065.1492,1242.6455 Q1064.9317,1242.4959 1064.8365,1242.1017 Q1064.7957,1241.8298 1064.6462,1241.6803 Q1064.3743,1241.3948 1063.8849,1241.2317 Q1063.3956,1241.055 1062.9062,1241.055 Q1062.2945,1241.055 1061.7779,1241.2997 Q1061.2749,1241.5444 1060.8807,1242.0881 Q1060.4865,1242.6319 1060.4865,1243.3795 L1060.4865,1244.1816 Q1060.4865,1245.0788 1061.2206,1245.6769 Q1061.9546,1246.275 1063.2596,1246.275 Q1064.0345,1246.275 1064.5782,1246.0983 Q1064.8909,1246.0031 1065.2443,1245.6905 Q1065.4754,1245.5138 1065.5978,1245.4594 Q1065.7201,1245.405 1065.8696,1245.405 Q1066.1551,1245.405 1066.359,1245.6361 Q1066.5765,1245.8536 1066.5765,1246.1663 Q1066.5765,1246.4653 1066.2774,1246.8188 Q1065.8424,1247.3353 1065.1492,1247.6208 Q1064.2384,1248.015 1063.1237,1248.015 Q1061.8187,1248.015 1060.772,1247.4984 Q1059.9292,1247.0906 1059.331,1246.207 Q1058.7465,1245.3234 1058.7465,1244.2767 L1058.7465,1243.3252 Q1058.7465,1242.2377 1059.2631,1241.2861 Q1059.7932,1240.3345 1060.704,1239.8316 Q1061.6284,1239.315 1062.6615,1239.315 Q1063.2868,1239.315 1063.8306,1239.5325 Q1064.3743,1239.75 1064.8365,1240.185 Z " fill="#000000"/><text fill="#000000" font-family="sans-serif" font-size="10.44" lengthAdjust="spacing" textLength="52.2" x="1075.3635" y="1247.5018">MyBarcode</text><line style="stroke:#A80036;stroke-width:1.305;" x1="1050.525" x2="1129.695" y1="1257.15" y2="1257.15"/><text fill="#000000" font-family="sans-serif" font-size="9.57" lengthAdjust="spacing" textLength="70.47" x="1054.875" y="1270.5645">-barcodeNumber</text><!--MD5=[55cb992be19579b505cea3c5691093cb]
class ClientStore--><rect codeLine="75" fill="#FEFECE" filter="url(#f7hqt8yxetuov)" height="46.8373" id="ClientStore" style="stroke:#A80036;stroke-width:1.305;" width="155.73" x="1318.485" y="742.545"/><ellipse cx="1366.1175" cy="756.465" fill="#ADD1B2" rx="9.57" ry="9.57" style="stroke:#A80036;stroke-width:0.87;"/><path d="M1367.8575,753.42 Q1368.0342,752.985 1368.2381,752.7675 Q1368.442,752.55 1368.6731,752.55 Q1369.0809,752.55 1369.3392,752.7947 Q1369.5975,753.0394 1369.5975,753.6103 L1369.5975,754.9697 Q1369.5975,755.5406 1369.3528,755.7853 Q1369.1081,756.03 1368.7275,756.03 Q1368.3877,756.03 1368.1702,755.8805 Q1367.9527,755.7309 1367.8575,755.3367 Q1367.8167,755.0648 1367.6672,754.9153 Q1367.3953,754.6298 1366.9059,754.4667 Q1366.4166,754.29 1365.9272,754.29 Q1365.3155,754.29 1364.7989,754.5347 Q1364.2959,754.7794 1363.9017,755.3231 Q1363.5075,755.8669 1363.5075,756.6145 L1363.5075,757.4166 Q1363.5075,758.3138 1364.2416,758.9119 Q1364.9756,759.51 1366.2806,759.51 Q1367.0555,759.51 1367.5992,759.3333 Q1367.9119,759.2381 1368.2653,758.9255 Q1368.4964,758.7488 1368.6188,758.6944 Q1368.7411,758.64 1368.8906,758.64 Q1369.1761,758.64 1369.38,758.8711 Q1369.5975,759.0886 1369.5975,759.4013 Q1369.5975,759.7003 1369.2984,760.0538 Q1368.8634,760.5703 1368.1702,760.8558 Q1367.2594,761.25 1366.1447,761.25 Q1364.8397,761.25 1363.793,760.7334 Q1362.9502,760.3256 1362.352,759.442 Q1361.7675,758.5584 1361.7675,757.5117 L1361.7675,756.5602 Q1361.7675,755.4727 1362.2841,754.5211 Q1362.8142,753.5695 1363.725,753.0666 Q1364.6494,752.55 1365.6825,752.55 Q1366.3078,752.55 1366.8516,752.7675 Q1367.3953,752.985 1367.8575,753.42 Z " fill="#000000"/><text fill="#000000" font-family="sans-serif" font-size="10.44" lengthAdjust="spacing" textLength="53.07" x="1383.9525" y="760.7368">ClientStore</text><line style="stroke:#A80036;stroke-width:1.305;" x1="1319.355" x2="1473.345" y1="770.385" y2="770.385"/><text fill="#000000" font-family="sans-serif" font-size="9.57" lengthAdjust="spacing" textLength="145.29" x="1323.705" y="783.7995">+getClientByTinNumber(tinNumber)</text><!--MD5=[be7802b157a16874d39c59ca0e2b25be]
class ParameterStore--><rect codeLine="79" fill="#FEFECE" filter="url(#f7hqt8yxetuov)" height="58.8745" id="ParameterStore" style="stroke:#A80036;stroke-width:1.305;" width="283.62" x="1505.1" y="736.455"/><ellipse cx="1605.3675" cy="750.375" fill="#ADD1B2" rx="9.57" ry="9.57" style="stroke:#A80036;stroke-width:0.87;"/><path d="M1607.1075,747.33 Q1607.2842,746.895 1607.4881,746.6775 Q1607.692,746.46 1607.9231,746.46 Q1608.3309,746.46 1608.5892,746.7047 Q1608.8475,746.9494 1608.8475,747.5203 L1608.8475,748.8797 Q1608.8475,749.4506 1608.6028,749.6953 Q1608.3581,749.94 1607.9775,749.94 Q1607.6377,749.94 1607.4202,749.7905 Q1607.2027,749.6409 1607.1075,749.2467 Q1607.0667,748.9748 1606.9172,748.8253 Q1606.6453,748.5398 1606.1559,748.3767 Q1605.6666,748.2 1605.1772,748.2 Q1604.5655,748.2 1604.0489,748.4447 Q1603.5459,748.6894 1603.1517,749.2331 Q1602.7575,749.7769 1602.7575,750.5245 L1602.7575,751.3266 Q1602.7575,752.2238 1603.4916,752.8219 Q1604.2256,753.42 1605.5306,753.42 Q1606.3055,753.42 1606.8492,753.2433 Q1607.1619,753.1481 1607.5153,752.8355 Q1607.7464,752.6587 1607.8688,752.6044 Q1607.9911,752.55 1608.1406,752.55 Q1608.4261,752.55 1608.63,752.7811 Q1608.8475,752.9986 1608.8475,753.3113 Q1608.8475,753.6103 1608.5484,753.9638 Q1608.1134,754.4803 1607.4202,754.7658 Q1606.5094,755.16 1605.3947,755.16 Q1604.0897,755.16 1603.043,754.6434 Q1602.2002,754.2356 1601.602,753.352 Q1601.0175,752.4684 1601.0175,751.4217 L1601.0175,750.4702 Q1601.0175,749.3827 1601.5341,748.4311 Q1602.0642,747.4795 1602.975,746.9766 Q1603.8994,746.46 1604.9325,746.46 Q1605.5578,746.46 1606.1016,746.6775 Q1606.6453,746.895 1607.1075,747.33 Z " fill="#000000"/><text fill="#000000" font-family="sans-serif" font-size="10.44" lengthAdjust="spacing" textLength="75.69" x="1623.2025" y="754.6468">ParameterStore</text><line style="stroke:#A80036;stroke-width:1.305;" x1="1505.97" x2="1787.85" y1="764.295" y2="764.295"/><text fill="#000000" font-family="sans-serif" font-size="9.57" lengthAdjust="spacing" textLength="273.18" x="1510.32" y="777.7095">+getParamsByCategories(List&lt;String&gt; selectedCategoriesCodes)</text><text fill="#000000" font-family="sans-serif" font-size="9.57" lengthAdjust="spacing" textLength="170.52" x="1510.32" y="789.7467">+getParamsByCategory(String category)</text><!--MD5=[fcd6df96e169c9fc6403c4dc9bdb4d83]
class SampleStore--><rect codeLine="84" fill="#FEFECE" filter="url(#f7hqt8yxetuov)" height="58.8745" id="SampleStore" style="stroke:#A80036;stroke-width:1.305;" width="127.89" x="1819.605" y="736.455"/><ellipse cx="1849.4895" cy="750.375" fill="#ADD1B2" rx="9.57" ry="9.57" style="stroke:#A80036;stroke-width:0.87;"/><path d="M1851.2295,747.33 Q1851.4062,746.895 1851.6101,746.6775 Q1851.814,746.46 1852.0451,746.46 Q1852.4529,746.46 1852.7112,746.7047 Q1852.9695,746.9494 1852.9695,747.5203 L1852.9695,748.8797 Q1852.9695,749.4506 1852.7248,749.6953 Q1852.4801,749.94 1852.0995,749.94 Q1851.7597,749.94 1851.5422,749.7905 Q1851.3247,749.6409 1851.2295,749.2467 Q1851.1887,748.9748 1851.0392,748.8253 Q1850.7673,748.5398 1850.2779,748.3767 Q1849.7886,748.2 1849.2992,748.2 Q1848.6875,748.2 1848.1709,748.4447 Q1847.6679,748.6894 1847.2737,749.2331 Q1846.8795,749.7769 1846.8795,750.5245 L1846.8795,751.3266 Q1846.8795,752.2238 1847.6136,752.8219 Q1848.3476,753.42 1849.6526,753.42 Q1850.4275,753.42 1850.9712,753.2433 Q1851.2839,753.1481 1851.6373,752.8355 Q1851.8684,752.6587 1851.9908,752.6044 Q1852.1131,752.55 1852.2626,752.55 Q1852.5481,752.55 1852.752,752.7811 Q1852.9695,752.9986 1852.9695,753.3113 Q1852.9695,753.6103 1852.6704,753.9638 Q1852.2354,754.4803 1851.5422,754.7658 Q1850.6314,755.16 1849.5167,755.16 Q1848.2117,755.16 1847.165,754.6434 Q1846.3222,754.2356 1845.724,753.352 Q1845.1395,752.4684 1845.1395,751.4217 L1845.1395,750.4702 Q1845.1395,749.3827 1845.6561,748.4311 Q1846.1862,747.4795 1847.097,746.9766 Q1848.0214,746.46 1849.0545,746.46 Q1849.6798,746.46 1850.2236,746.6775 Q1850.7673,746.895 1851.2295,747.33 Z " fill="#000000"/><text fill="#000000" font-family="sans-serif" font-size="10.44" lengthAdjust="spacing" textLength="62.64" x="1865.4105" y="754.6468">SampleStore</text><line style="stroke:#A80036;stroke-width:1.305;" x1="1820.475" x2="1946.625" y1="764.295" y2="764.295"/><text fill="#000000" font-family="sans-serif" font-size="9.57" lengthAdjust="spacing" textLength="117.45" x="1824.825" y="777.7095">+createSample(myBarcode)</text><text fill="#000000" font-family="sans-serif" font-size="9.57" lengthAdjust="spacing" textLength="104.4" x="1824.825" y="789.7467">+validateSample(sample)</text><!--MD5=[0f6f7964b844a64b0496af0dda7914bd]
class TestStore--><rect codeLine="89" fill="#FEFECE" filter="url(#f7hqt8yxetuov)" height="82.9491" id="TestStore" style="stroke:#A80036;stroke-width:1.305;" width="287.97" x="1268.025" y="911.76"/><ellipse cx="1385.2575" cy="925.68" fill="#ADD1B2" rx="9.57" ry="9.57" style="stroke:#A80036;stroke-width:0.87;"/><path d="M1386.9975,922.635 Q1387.1742,922.2 1387.3781,921.9825 Q1387.582,921.765 1387.8131,921.765 Q1388.2209,921.765 1388.4792,922.0097 Q1388.7375,922.2544 1388.7375,922.8253 L1388.7375,924.1847 Q1388.7375,924.7556 1388.4928,925.0003 Q1388.2481,925.245 1387.8675,925.245 Q1387.5277,925.245 1387.3102,925.0955 Q1387.0927,924.9459 1386.9975,924.5517 Q1386.9567,924.2798 1386.8072,924.1303 Q1386.5353,923.8448 1386.0459,923.6817 Q1385.5566,923.505 1385.0672,923.505 Q1384.4555,923.505 1383.9389,923.7497 Q1383.4359,923.9944 1383.0417,924.5381 Q1382.6475,925.0819 1382.6475,925.8295 L1382.6475,926.6316 Q1382.6475,927.5288 1383.3816,928.1269 Q1384.1156,928.725 1385.4206,928.725 Q1386.1955,928.725 1386.7392,928.5483 Q1387.0519,928.4531 1387.4053,928.1405 Q1387.6364,927.9638 1387.7588,927.9094 Q1387.8811,927.855 1388.0306,927.855 Q1388.3161,927.855 1388.52,928.0861 Q1388.7375,928.3036 1388.7375,928.6163 Q1388.7375,928.9153 1388.4384,929.2688 Q1388.0034,929.7853 1387.3102,930.0708 Q1386.3994,930.465 1385.2847,930.465 Q1383.9797,930.465 1382.933,929.9484 Q1382.0902,929.5406 1381.492,928.657 Q1380.9075,927.7734 1380.9075,926.7267 L1380.9075,925.7752 Q1380.9075,924.6877 1381.4241,923.7361 Q1381.9542,922.7845 1382.865,922.2816 Q1383.7894,921.765 1384.8225,921.765 Q1385.4478,921.765 1385.9916,921.9825 Q1386.5353,922.2 1386.9975,922.635 Z " fill="#000000"/><text fill="#000000" font-family="sans-serif" font-size="10.44" lengthAdjust="spacing" textLength="46.11" x="1403.0925" y="929.9518">TestStore</text><line style="stroke:#A80036;stroke-width:1.305;" x1="1268.895" x2="1555.125" y1="939.6" y2="939.6"/><text fill="#000000" font-family="sans-serif" font-size="9.57" lengthAdjust="spacing" textLength="220.11" x="1273.245" y="953.0145">+createTest(String nhsCode, Client associatedClient,</text><text fill="#000000" font-family="sans-serif" font-size="9.57" lengthAdjust="spacing" textLength="274.92" x="1275.855" y="965.0517">TestType selectedTestType, List&lt;Parameter&gt;selectedParamsList)</text><text fill="#000000" font-family="sans-serif" font-size="9.57" lengthAdjust="spacing" textLength="78.3" x="1273.245" y="977.089">+validateTest(test)</text><text fill="#000000" font-family="sans-serif" font-size="9.57" lengthAdjust="spacing" textLength="66.99" x="1273.245" y="989.1263">+saveTest(test)</text><!--MD5=[438281daef332c5ccec4fb6cf3747e9a]
class ClinicalAnalysisLaboratoryStore--><rect codeLine="95" fill="#FEFECE" filter="url(#f7hqt8yxetuov)" height="46.8373" id="ClinicalAnalysisLaboratoryStore" style="stroke:#A80036;stroke-width:1.305;" width="179.22" x="1586.88" y="929.595"/><ellipse cx="1599.93" cy="943.515" fill="#ADD1B2" rx="9.57" ry="9.57" style="stroke:#A80036;stroke-width:0.87;"/><path d="M1601.67,940.47 Q1601.8467,940.035 1602.0506,939.8175 Q1602.2545,939.6 1602.4856,939.6 Q1602.8934,939.6 1603.1517,939.8447 Q1603.41,940.0894 1603.41,940.6603 L1603.41,942.0197 Q1603.41,942.5906 1603.1653,942.8353 Q1602.9206,943.08 1602.54,943.08 Q1602.2002,943.08 1601.9827,942.9305 Q1601.7652,942.7809 1601.67,942.3867 Q1601.6292,942.1148 1601.4797,941.9653 Q1601.2078,941.6798 1600.7184,941.5167 Q1600.2291,941.34 1599.7397,941.34 Q1599.128,941.34 1598.6114,941.5847 Q1598.1084,941.8294 1597.7142,942.3731 Q1597.32,942.9169 1597.32,943.6645 L1597.32,944.4666 Q1597.32,945.3638 1598.0541,945.9619 Q1598.7881,946.56 1600.0931,946.56 Q1600.868,946.56 1601.4117,946.3833 Q1601.7244,946.2881 1602.0778,945.9755 Q1602.3089,945.7988 1602.4313,945.7444 Q1602.5536,945.69 1602.7031,945.69 Q1602.9886,945.69 1603.1925,945.9211 Q1603.41,946.1386 1603.41,946.4513 Q1603.41,946.7503 1603.1109,947.1038 Q1602.6759,947.6203 1601.9827,947.9058 Q1601.0719,948.3 1599.9572,948.3 Q1598.6522,948.3 1597.6055,947.7834 Q1596.7627,947.3756 1596.1645,946.492 Q1595.58,945.6084 1595.58,944.5617 L1595.58,943.6102 Q1595.58,942.5227 1596.0966,941.5711 Q1596.6267,940.6195 1597.5375,940.1166 Q1598.4619,939.6 1599.495,939.6 Q1600.1203,939.6 1600.6641,939.8175 Q1601.2078,940.035 1601.67,940.47 Z " fill="#000000"/><text fill="#000000" font-family="sans-serif" font-size="10.44" lengthAdjust="spacing" textLength="151.38" x="1612.11" y="947.7868">ClinicalAnalysisLaboratoryStore</text><line style="stroke:#A80036;stroke-width:1.305;" x1="1587.75" x2="1765.23" y1="957.435" y2="957.435"/><text fill="#000000" font-family="sans-serif" font-size="9.57" lengthAdjust="spacing" textLength="90.48" x="1592.1" y="970.8495">+getCalByCode(labId)</text><!--MD5=[6ba72ddf03822b91e8d41ca71de58ed3]
class TestTypeStore--><rect codeLine="99" fill="#FEFECE" filter="url(#f7hqt8yxetuov)" height="46.8373" id="TestTypeStore" style="stroke:#A80036;stroke-width:1.305;" width="151.38" x="1796.55" y="929.595"/><ellipse cx="1834.2645" cy="943.515" fill="#ADD1B2" rx="9.57" ry="9.57" style="stroke:#A80036;stroke-width:0.87;"/><path d="M1836.0045,940.47 Q1836.1812,940.035 1836.3851,939.8175 Q1836.589,939.6 1836.8201,939.6 Q1837.2279,939.6 1837.4862,939.8447 Q1837.7445,940.0894 1837.7445,940.6603 L1837.7445,942.0197 Q1837.7445,942.5906 1837.4998,942.8353 Q1837.2551,943.08 1836.8745,943.08 Q1836.5347,943.08 1836.3172,942.9305 Q1836.0997,942.7809 1836.0045,942.3867 Q1835.9637,942.1148 1835.8142,941.9653 Q1835.5423,941.6798 1835.0529,941.5167 Q1834.5636,941.34 1834.0742,941.34 Q1833.4625,941.34 1832.9459,941.5847 Q1832.4429,941.8294 1832.0487,942.3731 Q1831.6545,942.9169 1831.6545,943.6645 L1831.6545,944.4666 Q1831.6545,945.3638 1832.3886,945.9619 Q1833.1226,946.56 1834.4276,946.56 Q1835.2025,946.56 1835.7462,946.3833 Q1836.0589,946.2881 1836.4123,945.9755 Q1836.6434,945.7988 1836.7657,945.7444 Q1836.8881,945.69 1837.0376,945.69 Q1837.3231,945.69 1837.527,945.9211 Q1837.7445,946.1386 1837.7445,946.4513 Q1837.7445,946.7503 1837.4454,947.1038 Q1837.0104,947.6203 1836.3172,947.9058 Q1835.4064,948.3 1834.2917,948.3 Q1832.9867,948.3 1831.94,947.7834 Q1831.0972,947.3756 1830.499,946.492 Q1829.9145,945.6084 1829.9145,944.5617 L1829.9145,943.6102 Q1829.9145,942.5227 1830.4311,941.5711 Q1830.9612,940.6195 1831.872,940.1166 Q1832.7964,939.6 1833.8295,939.6 Q1834.4548,939.6 1834.9986,939.8175 Q1835.5423,940.035 1836.0045,940.47 Z " fill="#000000"/><text fill="#000000" font-family="sans-serif" font-size="10.44" lengthAdjust="spacing" textLength="68.73" x="1851.9255" y="947.7868">TestTypeStore</text><line style="stroke:#A80036;stroke-width:1.305;" x1="1797.42" x2="1947.06" y1="957.435" y2="957.435"/><text fill="#000000" font-family="sans-serif" font-size="9.57" lengthAdjust="spacing" textLength="140.94" x="1801.77" y="970.8495">+getTestTypeByTinNumber(code)</text><!--MD5=[91a243d16834250cc0783f93b105dc5d]
class TestFileDTO--><rect codeLine="108" fill="#FEFECE" filter="url(#f7hqt8yxetuov)" height="131.0981" id="TestFileDTO" style="stroke:#A80036;stroke-width:1.305;" width="118.32" x="1277.16" y="485.46"/><ellipse cx="1303.9125" cy="499.38" fill="#ADD1B2" rx="9.57" ry="9.57" style="stroke:#A80036;stroke-width:0.87;"/><path d="M1305.6525,496.335 Q1305.8292,495.9 1306.0331,495.6825 Q1306.237,495.465 1306.4681,495.465 Q1306.8759,495.465 1307.1342,495.7097 Q1307.3925,495.9544 1307.3925,496.5253 L1307.3925,497.8847 Q1307.3925,498.4556 1307.1478,498.7003 Q1306.9031,498.945 1306.5225,498.945 Q1306.1827,498.945 1305.9652,498.7955 Q1305.7477,498.6459 1305.6525,498.2517 Q1305.6117,497.9798 1305.4622,497.8303 Q1305.1903,497.5448 1304.7009,497.3817 Q1304.2116,497.205 1303.7222,497.205 Q1303.1105,497.205 1302.5939,497.4497 Q1302.0909,497.6944 1301.6967,498.2381 Q1301.3025,498.7819 1301.3025,499.5295 L1301.3025,500.3316 Q1301.3025,501.2288 1302.0366,501.8269 Q1302.7706,502.425 1304.0756,502.425 Q1304.8505,502.425 1305.3942,502.2483 Q1305.7069,502.1531 1306.0603,501.8405 Q1306.2914,501.6638 1306.4138,501.6094 Q1306.5361,501.555 1306.6856,501.555 Q1306.9711,501.555 1307.175,501.7861 Q1307.3925,502.0036 1307.3925,502.3163 Q1307.3925,502.6153 1307.0934,502.9688 Q1306.6584,503.4853 1305.9652,503.7708 Q1305.0544,504.165 1303.9397,504.165 Q1302.6347,504.165 1301.588,503.6484 Q1300.7452,503.2406 1300.147,502.357 Q1299.5625,501.4734 1299.5625,500.4267 L1299.5625,499.4752 Q1299.5625,498.3877 1300.0791,497.4361 Q1300.6092,496.4845 1301.52,495.9816 Q1302.4444,495.465 1303.4775,495.465 Q1304.1028,495.465 1304.6466,495.6825 Q1305.1903,495.9 1305.6525,496.335 Z " fill="#000000"/><text fill="#000000" font-family="sans-serif" font-size="10.44" lengthAdjust="spacing" textLength="60.03" x="1319.1375" y="503.6518">TestFileDTO</text><line style="stroke:#A80036;stroke-width:1.305;" x1="1278.03" x2="1394.61" y1="513.3" y2="513.3"/><text fill="#000000" font-family="sans-serif" font-size="9.57" lengthAdjust="spacing" textLength="44.37" x="1282.38" y="526.7145">-ClientDTO</text><text fill="#000000" font-family="sans-serif" font-size="9.57" lengthAdjust="spacing" textLength="41.76" x="1282.38" y="538.7517">-NhsCode</text><text fill="#000000" font-family="sans-serif" font-size="9.57" lengthAdjust="spacing" textLength="91.35" x="1282.38" y="550.789">-TestParameterCodes</text><text fill="#000000" font-family="sans-serif" font-size="9.57" lengthAdjust="spacing" textLength="90.48" x="1282.38" y="562.8263">-TestParameterResult</text><text fill="#000000" font-family="sans-serif" font-size="9.57" lengthAdjust="spacing" textLength="100.05" x="1282.38" y="574.8635">-dateOfTestRegistration</text><text fill="#000000" font-family="sans-serif" font-size="9.57" lengthAdjust="spacing" textLength="107.88" x="1282.38" y="586.9008">-dateOfSamplesCollection</text><text fill="#000000" font-family="sans-serif" font-size="9.57" lengthAdjust="spacing" textLength="106.14" x="1282.38" y="598.9381">-dateOfChemicalAnalysis</text><text fill="#000000" font-family="sans-serif" font-size="9.57" lengthAdjust="spacing" textLength="73.08" x="1282.38" y="610.9753">-dateOfDiagnosis</text><!--MD5=[b6a3913a705cfb7a2ec9efa528c25c50]
class CreateTestOfFileControler--><rect codeLine="123" fill="#FEFECE" filter="url(#f7hqt8yxetuov)" height="58.8745" id="CreateTestOfFileControler" style="stroke:#A80036;stroke-width:1.305;" width="153.12" x="62.64" y="521.565"/><ellipse cx="75.69" cy="535.485" fill="#ADD1B2" rx="9.57" ry="9.57" style="stroke:#A80036;stroke-width:0.87;"/><path d="M77.43,532.44 Q77.6067,532.005 77.8106,531.7875 Q78.0145,531.57 78.2456,531.57 Q78.6534,531.57 78.9117,531.8147 Q79.17,532.0594 79.17,532.6303 L79.17,533.9897 Q79.17,534.5606 78.9253,534.8053 Q78.6806,535.05 78.3,535.05 Q77.9602,535.05 77.7427,534.9005 Q77.5252,534.7509 77.43,534.3567 Q77.3892,534.0848 77.2397,533.9353 Q76.9678,533.6498 76.4784,533.4867 Q75.9891,533.31 75.4997,533.31 Q74.888,533.31 74.3714,533.5547 Q73.8684,533.7994 73.4742,534.3431 Q73.08,534.8869 73.08,535.6345 L73.08,536.4366 Q73.08,537.3338 73.8141,537.9319 Q74.5481,538.53 75.8531,538.53 Q76.628,538.53 77.1717,538.3533 Q77.4844,538.2581 77.8378,537.9455 Q78.0689,537.7688 78.1913,537.7144 Q78.3136,537.66 78.4631,537.66 Q78.7486,537.66 78.9525,537.8911 Q79.17,538.1086 79.17,538.4213 Q79.17,538.7203 78.8709,539.0738 Q78.4359,539.5903 77.7427,539.8758 Q76.8319,540.27 75.7172,540.27 Q74.4122,540.27 73.3655,539.7534 Q72.5227,539.3456 71.9245,538.462 Q71.34,537.5784 71.34,536.5317 L71.34,535.5802 Q71.34,534.4927 71.8566,533.5411 Q72.3867,532.5895 73.2975,532.0866 Q74.2219,531.57 75.255,531.57 Q75.8803,531.57 76.4241,531.7875 Q76.9678,532.005 77.43,532.44 Z " fill="#000000"/><text fill="#000000" font-family="sans-serif" font-size="10.44" lengthAdjust="spacing" textLength="125.28" x="87.87" y="539.7568">CreateTestOfFileControler</text><line style="stroke:#A80036;stroke-width:1.305;" x1="63.51" x2="214.89" y1="549.405" y2="549.405"/><text fill="#000000" font-family="sans-serif" font-size="9.57" lengthAdjust="spacing" textLength="103.53" x="67.86" y="562.8195">+createTest(TestFileDto)</text><text fill="#000000" font-family="sans-serif" font-size="9.57" lengthAdjust="spacing" textLength="51.33" x="67.86" y="574.8567">+saveTest()</text><!--MD5=[51912c652aa2a3a1d0b745172ce59331]
class ImportTestController--><rect codeLine="128" fill="#FEFECE" filter="url(#f7hqt8yxetuov)" height="70.9118" id="ImportTestController" style="stroke:#A80036;stroke-width:1.305;" width="153.99" x="143.985" y="289.71"/><ellipse cx="169.563" cy="303.63" fill="#ADD1B2" rx="9.57" ry="9.57" style="stroke:#A80036;stroke-width:0.87;"/><path d="M171.303,300.585 Q171.4797,300.15 171.6836,299.9325 Q171.8875,299.715 172.1186,299.715 Q172.5264,299.715 172.7847,299.9597 Q173.043,300.2044 173.043,300.7753 L173.043,302.1347 Q173.043,302.7056 172.7983,302.9503 Q172.5536,303.195 172.173,303.195 Q171.8332,303.195 171.6157,303.0455 Q171.3982,302.8959 171.303,302.5017 Q171.2622,302.2298 171.1127,302.0803 Q170.8408,301.7948 170.3514,301.6317 Q169.8621,301.455 169.3727,301.455 Q168.761,301.455 168.2444,301.6997 Q167.7414,301.9444 167.3472,302.4881 Q166.953,303.0319 166.953,303.7795 L166.953,304.5816 Q166.953,305.4788 167.6871,306.0769 Q168.4211,306.675 169.7261,306.675 Q170.501,306.675 171.0447,306.4983 Q171.3574,306.4031 171.7108,306.0905 Q171.9419,305.9138 172.0643,305.8594 Q172.1866,305.805 172.3361,305.805 Q172.6216,305.805 172.8255,306.0361 Q173.043,306.2536 173.043,306.5663 Q173.043,306.8653 172.7439,307.2188 Q172.3089,307.7353 171.6157,308.0208 Q170.7049,308.415 169.5902,308.415 Q168.2852,308.415 167.2385,307.8984 Q166.3957,307.4906 165.7975,306.607 Q165.213,305.7234 165.213,304.6767 L165.213,303.7252 Q165.213,302.6377 165.7296,301.6861 Q166.2597,300.7345 167.1705,300.2316 Q168.0949,299.715 169.128,299.715 Q169.7533,299.715 170.2971,299.9325 Q170.8408,300.15 171.303,300.585 Z " fill="#000000"/><text fill="#000000" font-family="sans-serif" font-size="10.44" lengthAdjust="spacing" textLength="98.31" x="184.527" y="307.9018">ImportTestController</text><line style="stroke:#A80036;stroke-width:1.305;" x1="144.855" x2="297.105" y1="317.55" y2="317.55"/><text fill="#000000" font-family="sans-serif" font-size="9.57" lengthAdjust="spacing" textLength="143.55" x="149.205" y="330.9645">+createTestsFromFile(TestFileDto)</text><text fill="#000000" font-family="sans-serif" font-size="9.57" lengthAdjust="spacing" textLength="51.33" x="149.205" y="343.0017">+saveTest()</text><text fill="#000000" font-family="sans-serif" font-size="9.57" lengthAdjust="spacing" textLength="58.29" x="149.205" y="355.039">+addSample()</text><!--MD5=[1a7fda4a36185bcd740bdf14b2b3a45e]
class RegisterClientController--><rect codeLine="134" fill="#FEFECE" filter="url(#f7hqt8yxetuov)" height="58.8745" id="RegisterClientController" style="stroke:#A80036;stroke-width:1.305;" width="143.55" x="246.645" y="521.565"/><ellipse cx="259.695" cy="535.485" fill="#ADD1B2" rx="9.57" ry="9.57" style="stroke:#A80036;stroke-width:0.87;"/><path d="M261.435,532.44 Q261.6117,532.005 261.8156,531.7875 Q262.0195,531.57 262.2506,531.57 Q262.6584,531.57 262.9167,531.8147 Q263.175,532.0594 263.175,532.6303 L263.175,533.9897 Q263.175,534.5606 262.9303,534.8053 Q262.6856,535.05 262.305,535.05 Q261.9652,535.05 261.7477,534.9005 Q261.5302,534.7509 261.435,534.3567 Q261.3942,534.0848 261.2447,533.9353 Q260.9728,533.6498 260.4834,533.4867 Q259.9941,533.31 259.5047,533.31 Q258.893,533.31 258.3764,533.5547 Q257.8734,533.7994 257.4792,534.3431 Q257.085,534.8869 257.085,535.6345 L257.085,536.4366 Q257.085,537.3338 257.8191,537.9319 Q258.5531,538.53 259.8581,538.53 Q260.633,538.53 261.1767,538.3533 Q261.4894,538.2581 261.8428,537.9455 Q262.0739,537.7688 262.1963,537.7144 Q262.3186,537.66 262.4681,537.66 Q262.7536,537.66 262.9575,537.8911 Q263.175,538.1086 263.175,538.4213 Q263.175,538.7203 262.8759,539.0738 Q262.4409,539.5903 261.7477,539.8758 Q260.8369,540.27 259.7222,540.27 Q258.4172,540.27 257.3705,539.7534 Q256.5277,539.3456 255.9295,538.462 Q255.345,537.5784 255.345,536.5317 L255.345,535.5802 Q255.345,534.4927 255.8616,533.5411 Q256.3917,532.5895 257.3025,532.0866 Q258.2269,531.57 259.26,531.57 Q259.8853,531.57 260.4291,531.7875 Q260.9728,532.005 261.435,532.44 Z " fill="#000000"/><text fill="#000000" font-family="sans-serif" font-size="10.44" lengthAdjust="spacing" textLength="115.71" x="271.875" y="539.7568">RegisterClientController</text><line style="stroke:#A80036;stroke-width:1.305;" x1="247.515" x2="389.325" y1="549.405" y2="549.405"/><text fill="#000000" font-family="sans-serif" font-size="9.57" lengthAdjust="spacing" textLength="103.53" x="251.865" y="562.8195">+registerClient(ClientDto)</text><text fill="#000000" font-family="sans-serif" font-size="9.57" lengthAdjust="spacing" textLength="55.68" x="251.865" y="574.8567">+saveClient()</text><!--MD5=[a1e7b5096c55c847fdbd76277a7fd41a]
class RecordSamplesController--><rect codeLine="139" fill="#FEFECE" filter="url(#f7hqt8yxetuov)" height="58.8745" id="RecordSamplesController" style="stroke:#A80036;stroke-width:1.305;" width="153.12" x="62.64" y="736.455"/><ellipse cx="75.69" cy="750.375" fill="#ADD1B2" rx="9.57" ry="9.57" style="stroke:#A80036;stroke-width:0.87;"/><path d="M77.43,747.33 Q77.6067,746.895 77.8106,746.6775 Q78.0145,746.46 78.2456,746.46 Q78.6534,746.46 78.9117,746.7047 Q79.17,746.9494 79.17,747.5203 L79.17,748.8797 Q79.17,749.4506 78.9253,749.6953 Q78.6806,749.94 78.3,749.94 Q77.9602,749.94 77.7427,749.7905 Q77.5252,749.6409 77.43,749.2467 Q77.3892,748.9748 77.2397,748.8253 Q76.9678,748.5398 76.4784,748.3767 Q75.9891,748.2 75.4997,748.2 Q74.888,748.2 74.3714,748.4447 Q73.8684,748.6894 73.4742,749.2331 Q73.08,749.7769 73.08,750.5245 L73.08,751.3266 Q73.08,752.2238 73.8141,752.8219 Q74.5481,753.42 75.8531,753.42 Q76.628,753.42 77.1717,753.2433 Q77.4844,753.1481 77.8378,752.8355 Q78.0689,752.6587 78.1913,752.6044 Q78.3136,752.55 78.4631,752.55 Q78.7486,752.55 78.9525,752.7811 Q79.17,752.9986 79.17,753.3113 Q79.17,753.6103 78.8709,753.9638 Q78.4359,754.4803 77.7427,754.7658 Q76.8319,755.16 75.7172,755.16 Q74.4122,755.16 73.3655,754.6434 Q72.5227,754.2356 71.9245,753.352 Q71.34,752.4684 71.34,751.4217 L71.34,750.4702 Q71.34,749.3827 71.8566,748.4311 Q72.3867,747.4795 73.2975,746.9766 Q74.2219,746.46 75.255,746.46 Q75.8803,746.46 76.4241,746.6775 Q76.9678,746.895 77.43,747.33 Z " fill="#000000"/><text fill="#000000" font-family="sans-serif" font-size="10.44" lengthAdjust="spacing" textLength="125.28" x="87.87" y="754.6468">RecordSamplesController</text><line style="stroke:#A80036;stroke-width:1.305;" x1="63.51" x2="214.89" y1="764.295" y2="764.295"/><text fill="#000000" font-family="sans-serif" font-size="9.57" lengthAdjust="spacing" textLength="69.6" x="67.86" y="777.7095">+createSample()</text><text fill="#000000" font-family="sans-serif" font-size="9.57" lengthAdjust="spacing" textLength="79.17" x="67.86" y="789.7467">+addSample(code)</text><!--MD5=[9bb7cc3529c0d40aca5d5110b828cb84]
class TestFileUtils--><rect codeLine="148" fill="#FEFECE" filter="url(#f7hqt8yxetuov)" height="46.8373" id="TestFileUtils" style="stroke:#A80036;stroke-width:1.305;" width="127.89" x="920.025" y="81.78"/><ellipse cx="951.084" cy="95.7" fill="#ADD1B2" rx="9.57" ry="9.57" style="stroke:#A80036;stroke-width:0.87;"/><path d="M952.824,92.655 Q953.0007,92.22 953.2046,92.0025 Q953.4085,91.785 953.6396,91.785 Q954.0474,91.785 954.3057,92.0297 Q954.564,92.2744 954.564,92.8453 L954.564,94.2047 Q954.564,94.7756 954.3193,95.0203 Q954.0746,95.265 953.694,95.265 Q953.3542,95.265 953.1367,95.1155 Q952.9192,94.9659 952.824,94.5717 Q952.7832,94.2998 952.6337,94.1503 Q952.3618,93.8648 951.8724,93.7017 Q951.3831,93.525 950.8937,93.525 Q950.282,93.525 949.7654,93.7697 Q949.2624,94.0144 948.8682,94.5581 Q948.474,95.1019 948.474,95.8495 L948.474,96.6516 Q948.474,97.5488 949.2081,98.1469 Q949.9421,98.745 951.2471,98.745 Q952.022,98.745 952.5657,98.5683 Q952.8784,98.4731 953.2318,98.1605 Q953.4629,97.9838 953.5853,97.9294 Q953.7076,97.875 953.8571,97.875 Q954.1426,97.875 954.3465,98.1061 Q954.564,98.3236 954.564,98.6363 Q954.564,98.9353 954.2649,99.2888 Q953.8299,99.8053 953.1367,100.0908 Q952.2259,100.485 951.1112,100.485 Q949.8062,100.485 948.7595,99.9684 Q947.9167,99.5606 947.3185,98.677 Q946.734,97.7934 946.734,96.7467 L946.734,95.7952 Q946.734,94.7077 947.2506,93.7561 Q947.7807,92.8045 948.6915,92.3016 Q949.6159,91.785 950.649,91.785 Q951.2743,91.785 951.8181,92.0025 Q952.3618,92.22 952.824,92.655 Z " fill="#000000"/><text fill="#000000" font-family="sans-serif" font-size="10.44" lengthAdjust="spacing" textLength="60.03" x="967.266" y="99.9718">TestFileUtils</text><line style="stroke:#A80036;stroke-width:1.305;" x1="920.895" x2="1047.045" y1="109.62" y2="109.62"/><text fill="#000000" font-family="sans-serif" font-size="9.57" lengthAdjust="spacing" textLength="117.45" x="925.245" y="123.0345">+getTestDataToDto(filepath)</text><!--MD5=[bcff1293548765b9bca2a02c7e5ada38]
class ImportTestUI--><rect codeLine="154" fill="#FEFECE" filter="url(#f7hqt8yxetuov)" height="27.84" id="ImportTestUI" style="stroke:#A80036;stroke-width:1.305;" width="89.61" x="780.825" y="91.35"/><ellipse cx="793.875" cy="105.27" fill="#ADD1B2" rx="9.57" ry="9.57" style="stroke:#A80036;stroke-width:0.87;"/><path d="M795.615,102.225 Q795.7917,101.79 795.9956,101.5725 Q796.1995,101.355 796.4306,101.355 Q796.8384,101.355 797.0967,101.5997 Q797.355,101.8444 797.355,102.4153 L797.355,103.7747 Q797.355,104.3456 797.1103,104.5903 Q796.8656,104.835 796.485,104.835 Q796.1452,104.835 795.9277,104.6855 Q795.7102,104.5359 795.615,104.1417 Q795.5742,103.8698 795.4247,103.7203 Q795.1528,103.4348 794.6634,103.2717 Q794.1741,103.095 793.6847,103.095 Q793.073,103.095 792.5564,103.3397 Q792.0534,103.5844 791.6592,104.1281 Q791.265,104.6719 791.265,105.4195 L791.265,106.2216 Q791.265,107.1188 791.9991,107.7169 Q792.7331,108.315 794.0381,108.315 Q794.813,108.315 795.3567,108.1383 Q795.6694,108.0431 796.0228,107.7305 Q796.2539,107.5538 796.3763,107.4994 Q796.4986,107.445 796.6481,107.445 Q796.9336,107.445 797.1375,107.6761 Q797.355,107.8936 797.355,108.2063 Q797.355,108.5053 797.0559,108.8588 Q796.6209,109.3753 795.9277,109.6608 Q795.0169,110.055 793.9022,110.055 Q792.5972,110.055 791.5505,109.5384 Q790.7077,109.1306 790.1095,108.247 Q789.525,107.3634 789.525,106.3167 L789.525,105.3652 Q789.525,104.2777 790.0416,103.3261 Q790.5717,102.3745 791.4825,101.8716 Q792.4069,101.355 793.44,101.355 Q794.0653,101.355 794.6091,101.5725 Q795.1528,101.79 795.615,102.225 Z " fill="#000000"/><text fill="#000000" font-family="sans-serif" font-size="10.44" lengthAdjust="spacing" textLength="61.77" x="806.055" y="109.5418">ImportTestUI</text><!--MD5=[29e5572c3d09c6b445394b9c6bb55e57]
link Controllers to Model--><path d="M434.2507,386.8386 C434.4265,386.9746 434.6037,387.109 434.7822,387.2418 C435.1393,387.5075 435.5019,387.767 435.87,388.02 C453.1569,399.9042 1175.9355,380.4162 1191.03,394.98 C1215.4988,418.5918 1217.5672,456.5804 1213.3586,489.0738 C1212.3064,497.1971 1210.8619,504.977 1209.2771,512.103 C1208.4846,515.666 1207.6571,519.0655 1206.826,522.2627 C1206.4104,523.8613 1205.9939,525.4093 1205.5805,526.9019 C1205.3738,527.6482 1205.1678,528.3806 1204.9631,529.0986 " fill="none" id="Controllers-to-Model" style="stroke:#A80036;stroke-width:0.87;stroke-dasharray:7.0,7.0;"/><polygon fill="#A80036" points="1204.9631,529.0986,1210.4566,522.5229,1206.1558,524.9153,1203.7634,520.6145,1204.9631,529.0986" style="stroke:#A80036;stroke-width:0.87;"/><!--MD5=[01b5c43ff5db2b3ab7f36f76b228af8f]
link Controllers to DTO--><path d="M435.0371,330.7295 C435.344,330.7868 435.6537,330.8447 435.9661,330.9029 C440.9644,331.8353 446.6579,332.8882 452.98,334.0432 C478.2686,338.663 513.6148,344.9164 554.7522,351.629 C637.0271,365.0542 742.4667,380.3162 836.94,388.02 C847.3191,388.8639 1203.8364,388.3941 1211.91,394.98 C1225.395,405.9855 1234.3506,420.9794 1240.1894,437.3321 C1240.9192,439.3762 1241.6003,441.4416 1242.2356,443.523 C1242.5532,444.5637 1242.8593,445.6084 1243.1543,446.6565 " fill="none" id="Controllers-to-DTO" style="stroke:#A80036;stroke-width:0.87;stroke-dasharray:7.0,7.0;"/><polygon fill="#A80036" points="1243.1543,446.6565,1244.3829,438.1766,1241.9758,442.4692,1237.6832,440.0621,1243.1543,446.6565" style="stroke:#A80036;stroke-width:0.87;"/><!--MD5=[b67c273f9ea26139499e1bd3b8231806]
link Controllers to Controllers--><path d="M434.13,314.3575 C434.175,314.3684 434.2198,314.3797 434.2645,314.3911 C434.6222,314.4826 434.9721,314.5888 435.3132,314.7096 C436.6779,315.1929 437.9032,315.9103 438.9304,316.8617 C440.9849,318.7647 442.2469,321.6042 442.2469,325.38 C442.2469,329.1558 440.9849,331.9953 438.9304,333.8983 C437.9032,334.8497 436.6779,335.5671 435.3132,336.0504 C434.9721,336.1712 434.6222,336.2774 434.2645,336.3689 C434.2198,336.3803 434.175,336.3916 434.13,336.4025 " fill="none" id="Controllers-to-Controllers" style="stroke:#A80036;stroke-width:0.87;stroke-dasharray:7.0,7.0;"/><polygon fill="#A80036" points="434.13,336.4025,442.5623,337.9242,438.3556,335.3698,440.91,331.1632,434.13,336.4025" style="stroke:#A80036;stroke-width:0.87;"/><!--MD5=[bb4acd81d18e7ee3505d81d4ee75e8fc]
link UI to Controllers--><path d="M731.385,110.9788 C731.1819,111.1144 730.9749,111.2526 730.7638,111.3934 C730.3418,111.6752 729.904,111.9674 729.4507,112.27 C727.6376,113.4802 725.5769,114.8558 723.2877,116.3839 C714.1306,122.4964 701.3167,131.0501 686.065,141.231 C655.5616,161.593 615.307,188.4643 575.0537,215.3348 C534.8004,242.2053 494.5485,269.075 464.0505,289.4336 C456.426,294.5233 449.4112,299.206 443.1583,303.3801 C440.0318,305.4672 437.0959,307.427 434.3695,309.247 " fill="none" id="UI-to-Controllers" style="stroke:#A80036;stroke-width:0.87;stroke-dasharray:7.0,7.0;"/><polygon fill="#A80036" points="434.3695,309.247,442.8139,307.7941,437.9875,306.8319,438.9497,302.0054,434.3695,309.247" style="stroke:#A80036;stroke-width:0.87;"/><!--MD5=[9ea89be3b33715d555650644e5bd9dde]
link UI to DTO--><path d="M756.6461,170.6433 C757.2102,171.6364 757.7916,172.6183 758.3908,173.5869 C760.7875,177.4614 763.4696,181.1231 766.47,184.44 C913.3782,346.8168 1075.1025,224.0076 1211.91,394.98 C1222.785,408.5716 1230.4149,424.8786 1235.7383,441.7415 C1237.0692,445.9573 1238.2559,450.2077 1239.3131,454.4592 C1239.4453,454.9906 1239.5754,455.5221 1239.7036,456.0535 " fill="none" id="UI-to-DTO" style="stroke:#A80036;stroke-width:0.87;stroke-dasharray:7.0,7.0;"/><polygon fill="#A80036" points="1239.7036,456.0535,1241.2512,447.6259,1238.6839,451.8247,1234.4851,449.2574,1239.7036,456.0535" style="stroke:#A80036;stroke-width:0.87;"/><!--MD5=[8db2d36dfcc6aadb263e2609429d2d71]
link Model to Stores--><path d="M1204.9821,582.6116 C1205.2543,583.8027 1205.5325,585.0201 1205.8165,586.2624 C1210.3592,606.1391 1216.3546,632.3698 1222.35,658.5998 C1228.3454,684.8297 1234.3408,711.0589 1238.8835,730.9323 C1239.1675,732.1744 1239.4457,733.3916 1239.7179,734.5825 " fill="none" id="Model-Stores" style="stroke:#A80036;stroke-width:0.87;"/><text fill="#000000" font-family="sans-serif" font-size="11.31" lengthAdjust="spacing" textLength="34.8" x="1225.83" y="671.2008">uses &gt;</text><!--MD5=[5fdc64a7607c2e0f896a4f6cf6f56cd1]
link ImportTestUI to TestFileUtils--><path codeLine="166" d="M870.4698,105.27 C885.4077,105.27 900.3369,105.27 915.2748,105.27 " fill="none" id="ImportTestUI-to-TestFileUtils" style="stroke:#A80036;stroke-width:0.87;stroke-dasharray:7.0,7.0;"/><polygon fill="#A80036" points="919.9032,105.27,912.0732,101.79,915.5532,105.27,912.0732,108.75,919.9032,105.27" style="stroke:#A80036;stroke-width:0.87;"/><!--MD5=[ebc6b64f71ff29ab8c8b944560b4a5d2]
link ImportTestController to CreateTestOfFileControler--><path codeLine="167" d="M208.1997,361.2501 C192.6093,403.9671 166.4484,475.629 151.2147,517.3716 " fill="none" id="ImportTestController-to-CreateTestOfFileControler" style="stroke:#A80036;stroke-width:0.87;stroke-dasharray:7.0,7.0;"/><polygon fill="#A80036" points="149.6835,521.5563,155.6358,515.3928,151.1741,517.4697,149.0972,513.0079,149.6835,521.5563" style="stroke:#A80036;stroke-width:0.87;"/><!--MD5=[11f505775541bdd9869a5b875923a1bb]
link ImportTestController to RegisterClientController--><path codeLine="168" d="M236.205,361.2501 C254.7795,403.9671 285.9516,475.629 304.1085,517.3716 " fill="none" id="ImportTestController-to-RegisterClientController" style="stroke:#A80036;stroke-width:0.87;stroke-dasharray:7.0,7.0;"/><polygon fill="#A80036" points="305.9268,521.5563,305.9766,512.9879,304.1832,517.571,299.6002,515.7776,305.9268,521.5563" style="stroke:#A80036;stroke-width:0.87;"/><!--MD5=[da8867a6992f0c6e169ba319eeae146b]
link CreateTestOfFileControler to RecordSamplesController--><path codeLine="169" d="M139.2,580.7598 C139.2,620.0142 139.2,690.2319 139.2,731.7657 " fill="none" id="CreateTestOfFileControler-to-RecordSamplesController" style="stroke:#A80036;stroke-width:0.87;stroke-dasharray:7.0,7.0;"/><polygon fill="#A80036" points="139.2,736.194,142.68,728.364,139.2,731.844,135.72,728.364,139.2,736.194" style="stroke:#A80036;stroke-width:0.87;"/><!--MD5=[7e4bc624457760b649895ff2ead938fa]
link Company to Test--><path codeLine="170" d="M916.3536,602.2575 C921.4518,658.416 926.9067,751.9497 916.98,831.72 C914.1873,854.2008 908.5584,878.5086 902.8947,899.3712 " fill="none" id="Company-Test" style="stroke:#A80036;stroke-width:0.87;"/><polygon fill="#000000" points="926.3532,770.5335,929.2635,762.788,924.155,762.5566,926.3532,770.5335" style="stroke:#000000;stroke-width:0.87;"/><text fill="#000000" font-family="sans-serif" font-size="11.31" lengthAdjust="spacing" textLength="46.11" x="934.38" y="770.8158">conducts</text><text fill="#000000" font-family="sans-serif" font-size="11.31" lengthAdjust="spacing" textLength="6.09" x="910.5433" y="620.7215">1</text><text fill="#000000" font-family="sans-serif" font-size="11.31" lengthAdjust="spacing" textLength="4.35" x="900.1854" y="890.1934">*</text><!--MD5=[7e4bc624457760b649895ff2ead938fa]
link Company to Test--><path codeLine="175" d="M882.0582,602.0661 C869.8347,626.0955 857.0196,655.7886 850.86,684.255 C837.0009,748.3131 841.464,766.8615 850.86,831.72 C854.1486,854.3922 860.7345,878.7348 867.3726,899.5626 " fill="none" id="Company-Test-1" style="stroke:#A80036;stroke-width:0.87;"/><polygon fill="#000000" points="854.9955,770.5326,857.9373,762.799,852.8298,762.5469,854.9955,770.5326" style="stroke:#000000;stroke-width:0.87;"/><text fill="#000000" font-family="sans-serif" font-size="11.31" lengthAdjust="spacing" textLength="46.11" x="863.04" y="770.8158">conducts</text><text fill="#000000" font-family="sans-serif" font-size="11.31" lengthAdjust="spacing" textLength="6.09" x="872.0832" y="620.8702">1</text><text fill="#000000" font-family="sans-serif" font-size="11.31" lengthAdjust="spacing" textLength="4.35" x="860.4227" y="890.0299">*</text><!--MD5=[502b51bc079239060389dab43b7d3470]
link Client to Test--><path codeLine="171" d="M750.0444,831.7287 C752.4108,846.3099 756.8478,861.1173 764.73,873.48 C779.5461,896.7264 803.9757,914.5005 827.0742,927.2112 " fill="none" id="Client-Test" style="stroke:#A80036;stroke-width:0.87;"/><polygon fill="#000000" points="766.3487,862.4173,769.2997,870.1474,773.2797,866.9365,766.3487,862.4173" style="stroke:#000000;stroke-width:0.87;"/><text fill="#000000" font-family="sans-serif" font-size="11.31" lengthAdjust="spacing" textLength="65.25" x="776.91" y="870.4308">requested by</text><text fill="#000000" font-family="sans-serif" font-size="11.31" lengthAdjust="spacing" textLength="6.09" x="743.6833" y="850.1938">1</text><text fill="#000000" font-family="sans-serif" font-size="11.31" lengthAdjust="spacing" textLength="6.09" x="814.1482" y="921.4567">1</text><!--MD5=[d480452e7d21fe720ba0207568bc7434]
link ClinicalAnalysisLaboratory to Test--><path codeLine="172" d="M741.0834,953.085 C769.3497,953.085 800.8611,953.085 827.3091,953.085 " fill="none" id="ClinicalAnalysisLaboratory-Test" style="stroke:#A80036;stroke-width:0.87;"/><polygon fill="#000000" points="764.5125,942.7979,756.6433,940.2411,756.6433,945.3548,764.5125,942.7979" style="stroke:#000000;stroke-width:0.87;"/><text fill="#000000" font-family="sans-serif" font-size="11.31" lengthAdjust="spacing" textLength="43.5" x="767.9925" y="947.4258">performs</text><text fill="#000000" font-family="sans-serif" font-size="11.31" lengthAdjust="spacing" textLength="6.09" x="747.7348" y="950.348">1</text><text fill="#000000" font-family="sans-serif" font-size="11.31" lengthAdjust="spacing" textLength="17.4" x="802.9048" y="965.5586">1..*</text><!--MD5=[5b7a9ded131023be416e27d15bcd6d77]
link TestType to Parameter--><path codeLine="173" d="M598.0119,1149.3135 C610.4964,1163.1813 625.7649,1178.7282 641.19,1191.03 C660.9999,1206.8292 685.3251,1221.3495 705.4221,1232.2419 " fill="none" id="TestType-Parameter" style="stroke:#A80036;stroke-width:0.87;"/><polygon fill="#000000" points="648.9832,1186.0113,644.317,1179.1784,641.1918,1183.2261,648.9832,1186.0113" style="stroke:#000000;stroke-width:0.87;"/><text fill="#000000" font-family="sans-serif" font-size="11.31" lengthAdjust="spacing" textLength="83.52" x="653.37" y="1187.9808">characterized by</text><text fill="#000000" font-family="sans-serif" font-size="11.31" lengthAdjust="spacing" textLength="6.09" x="595.9011" y="1167.6448">1</text><text fill="#000000" font-family="sans-serif" font-size="11.31" lengthAdjust="spacing" textLength="17.4" x="681.2724" y="1226.2445">1..*</text><!--MD5=[742a261f27a3dcd734c626287d811acd]
link Company to TestType--><path codeLine="174" d="M860.3865,573.9564 C813.2325,596.3763 743.1192,634.8564 695.13,684.255 C618.2481,763.3902 600.6567,793.1442 571.59,899.58 C554.9643,960.4539 559.3317,1034.7867 564.0993,1077.6516 " fill="none" id="Company-TestType" style="stroke:#A80036;stroke-width:0.87;"/><polygon fill="#000000" points="585.0445,869.5524,591.2382,864.0659,586.8304,861.4732,585.0445,869.5524" style="stroke:#000000;stroke-width:0.87;"/><text fill="#000000" font-family="sans-serif" font-size="11.31" lengthAdjust="spacing" textLength="46.11" x="595.08" y="870.4308">conducts</text><text fill="#000000" font-family="sans-serif" font-size="11.31" lengthAdjust="spacing" textLength="6.09" x="847.4356" y="573.8177">1</text><text fill="#000000" font-family="sans-serif" font-size="11.31" lengthAdjust="spacing" textLength="4.35" x="558.5807" y="1068.4264">*</text><!--MD5=[12d76240d3c3c66074d4ec2ea8bf469c]
link Company to Parameter--><path codeLine="176" d="M936.4158,602.127 C945.0201,618.1872 954.9555,635.883 964.83,651.63 C974.3217,666.768 979.4982,668.7168 988.32,684.255 C1070.8743,829.5624 1070.6394,876.2466 1137.96,1029.21 C1147.5126,1050.9165 1153.3329,1055.0925 1159.71,1077.93 C1173.2994,1126.6239 1205.0196,1152.837 1171.89,1191.03 C1165.5216,1198.3641 888.8355,1233.8253 784.218,1246.9884 " fill="none" id="Company-Parameter" style="stroke:#A80036;stroke-width:0.87;"/><polygon fill="#000000" points="1141.3108,957.4716,1145.6069,950.4001,1140.6299,949.2255,1141.3108,957.4716" style="stroke:#000000;stroke-width:0.87;"/><text fill="#000000" font-family="sans-serif" font-size="11.31" lengthAdjust="spacing" textLength="102.66" x="1150.14" y="957.8658">capable of analysing</text><text fill="#000000" font-family="sans-serif" font-size="11.31" lengthAdjust="spacing" textLength="6.09" x="933.0656" y="620.9385">1</text><text fill="#000000" font-family="sans-serif" font-size="11.31" lengthAdjust="spacing" textLength="4.35" x="790.8596" y="1242.8322">*</text><!--MD5=[e981d4f96c4342412d1e68160b30cf70]
link Test to TestType--><path codeLine="177" d="M827.196,993.7836 C805.5678,1006.764 780.4248,1020.1446 756.03,1029.21 C740.5353,1034.9694 735.1326,1030.8195 719.49,1036.17 C687.7263,1047.0276 654.2661,1063.488 626.9829,1078.365 " fill="none" id="Test-TestType" style="stroke:#A80036;stroke-width:0.87;"/><polygon fill="#000000" points="719.8329,1045.8458,728.0768,1045.1387,726.0868,1040.4281,719.8329,1045.8458" style="stroke:#000000;stroke-width:0.87;"/><text fill="#000000" font-family="sans-serif" font-size="11.31" lengthAdjust="spacing" textLength="62.64" x="731.67" y="1048.7808">classified as</text><text fill="#000000" font-family="sans-serif" font-size="11.31" lengthAdjust="spacing" textLength="4.35" x="816.1185" y="995.3105">*</text><text fill="#000000" font-family="sans-serif" font-size="11.31" lengthAdjust="spacing" textLength="6.09" x="633.66" y="1071.6108">1</text><!--MD5=[f24c888dadeb846430474fe80a58922b]
link Test to TestParameter--><path codeLine="178" d="M839.5065,1006.6074 C814.1895,1034.952 784.2789,1068.4383 764.9214,1090.11 " fill="none" id="Test-TestParameter" style="stroke:#A80036;stroke-width:0.87;"/><polygon fill="#000000" points="812.2922,1047.3972,819.4413,1043.2315,815.6274,1039.825,812.2922,1047.3972" style="stroke:#000000;stroke-width:0.87;"/><text fill="#000000" font-family="sans-serif" font-size="11.31" lengthAdjust="spacing" textLength="100.92" x="823.02" y="1048.7808">requests analysis of</text><text fill="#000000" font-family="sans-serif" font-size="11.31" lengthAdjust="spacing" textLength="6.09" x="827.6273" y="1025.3583">1</text><text fill="#000000" font-family="sans-serif" font-size="11.31" lengthAdjust="spacing" textLength="17.4" x="750.3249" y="1080.5632">1..*</text><!--MD5=[92e8e476cc9e9004a7125f53a120ec97]
link TestParameter to Parameter--><path codeLine="179" d="M744.72,1137.1683 C744.72,1158.9009 744.72,1191.9957 744.72,1217.0778 " fill="none" id="TestParameter-Parameter" style="stroke:#A80036;stroke-width:0.87;"/><polygon fill="#000000" points="749.07,1187.7029,751.6269,1179.8337,746.5131,1179.8337,749.07,1187.7029" style="stroke:#000000;stroke-width:0.87;"/><text fill="#000000" font-family="sans-serif" font-size="11.31" lengthAdjust="spacing" textLength="40.89" x="756.9" y="1187.9808">refers to</text><text fill="#000000" font-family="sans-serif" font-size="11.31" lengthAdjust="spacing" textLength="4.35" x="739.8942" y="1155.6362">*</text><text fill="#000000" font-family="sans-serif" font-size="11.31" lengthAdjust="spacing" textLength="6.09" x="738.1066" y="1207.6256">1</text><!--MD5=[0e00e25ac6b8c14659aaff2cf7e5df08]
link TestParameter to TestParameterResult--><path codeLine="180" d="M831.7896,1113.6 C860.1255,1113.6 891.0627,1113.6 917.5455,1113.6 " fill="none" id="TestParameter-TestParameterResult" style="stroke:#A80036;stroke-width:0.87;"/><polygon fill="#000000" points="855.645,1103.3129,847.7758,1100.7561,847.7758,1105.8698,855.645,1103.3129" style="stroke:#000000;stroke-width:0.87;"/><text fill="#000000" font-family="sans-serif" font-size="11.31" lengthAdjust="spacing" textLength="42.63" x="859.125" y="1107.9408">contains</text><text fill="#000000" font-family="sans-serif" font-size="11.31" lengthAdjust="spacing" textLength="6.09" x="838.689" y="1110.905">1</text><text fill="#000000" font-family="sans-serif" font-size="11.31" lengthAdjust="spacing" textLength="19.14" x="891.7147" y="1125.9933">0..1</text><!--MD5=[b72ac8ab7fb5921fceb5036a3902baea]
link Test to Sample--><path codeLine="181" d="M945.8901,995.0016 C980.4639,1019.0136 1024.8339,1050.003 1064.01,1077.93 C1069.4475,1081.8015 1075.2069,1085.9601 1080.7749,1089.9969 " fill="none" id="Test-Sample" style="stroke:#A80036;stroke-width:0.87;"/><polygon fill="#000000" points="1032.7665,1046.6577,1027.805,1040.0361,1024.8605,1044.217,1032.7665,1046.6577" style="stroke:#000000;stroke-width:0.87;"/><text fill="#000000" font-family="sans-serif" font-size="11.31" lengthAdjust="spacing" textLength="39.15" x="1037.04" y="1048.7808">collects</text><text fill="#000000" font-family="sans-serif" font-size="11.31" lengthAdjust="spacing" textLength="6.09" x="952.7157" y="996.6617">1</text><text fill="#000000" font-family="sans-serif" font-size="11.31" lengthAdjust="spacing" textLength="17.4" x="1055.299" y="1080.8933">1..*</text><!--MD5=[a457e9ab0335e1a600338213fc53e5bd]
link Sample to MyBarcode--><path codeLine="182" d="M1108.2669,1137.1683 C1104.2388,1162.6419 1097.7399,1203.7146 1093.7031,1229.1969 " fill="none" id="Sample-MyBarcode" style="stroke:#A80036;stroke-width:0.87;"/><polygon fill="#000000" points="1105.0901,1187.6495,1108.8455,1180.2766,1103.7946,1179.4773,1105.0901,1187.6495" style="stroke:#000000;stroke-width:0.87;"/><text fill="#000000" font-family="sans-serif" font-size="11.31" lengthAdjust="spacing" textLength="67.86" x="1113.6" y="1187.9808">identified with</text><text fill="#000000" font-family="sans-serif" font-size="11.31" lengthAdjust="spacing" textLength="6.09" x="1100.7248" y="1155.6362">1</text><text fill="#000000" font-family="sans-serif" font-size="11.31" lengthAdjust="spacing" textLength="6.09" x="1087.7398" y="1220.0018">1</text><!--MD5=[d1d8997231ecd729aee5994c14758c82]
link ClientStore to ParameterStore--><!--MD5=[7340b417511c250d567e92d4709250ea]
link ParameterStore to SampleStore--><!--MD5=[88843d74b8637ddbd4f94fc1f534b2f4]
link ClientStore to TestStore--><!--MD5=[b0a70a502b300066f8ea063b3afafece]
link TestStore to ClinicalAnalysisLaboratoryStore--><!--MD5=[e0c74da7971ad49ccb99dd30d5717ca3]
link ClinicalAnalysisLaboratoryStore to TestTypeStore--><!--MD5=[359c43a8e975400cb89dfb6fe2255a2b]
@startuml
hide empty methods
hide empty attributes
/'left to right direction'/
skinparam classAttributeIconSize 0

package Core {

package Domain {

package Model {

       class ClinicalAnalysisLaboratory{
               - laboratoryID
               }

               class Test{
                   - code
                   - NhsCode
                   - dateOfTestRegistration
                   - dateOfSamplesCollection
                   - dateOfChemicalAnalysis
                   - dateOfDiagnosis
               }

        class Company {
                    -designation : String
                    +getTestTypeStore()
                    +getParameterStore()
                    +getTestStore()
                    +getCalStore()
                }
                class TestType {
                    - code : String
                    - description : String
                    - collectingMethod : String
                    }

                class Sample {
                -myBarcode
                }

                class Parameter {
                  -code
                  -shortName
                  -description
                }
                class TestParameter{
                    +TestParameter(parameter: Parameter)
                }
                class TestParameterResult{
                - createdAt
                - value
                - metric
                }

                class Client{
                - name
                - citizenCardNum
                - nhsNum
                - birthDate
                - sex
                - taxIdNum
                - phoneNum
                - email
                }

                class MyBarcode {
                - barcodeNumber
                }

}

package Stores {

    class ClientStore {
               +getClientByTinNumber(tinNumber)
            }

            class ParameterStore {
                    +getParamsByCategories(List<String> selectedCategoriesCodes)
                    +getParamsByCategory(String category)
                }

            class SampleStore {
                +createSample(myBarcode)
                +validateSample(sample)
            }

            class TestStore {
                +createTest(String nhsCode, Client associatedClient,\n TestType selectedTestType, List<Parameter>selectedParamsList)
                +validateTest(test)
                +saveTest(test)
            }

            class ClinicalAnalysisLaboratoryStore {
                +getCalByCode(labId)
            }

            class TestTypeStore {
                +getTestTypeByTinNumber(code)
                }

}


package DTO {

    class TestFileDTO{
               -ClientDTO
               -NhsCode
               -TestParameterCodes
               -TestParameterResult
               - dateOfTestRegistration
               - dateOfSamplesCollection
               - dateOfChemicalAnalysis
               - dateOfDiagnosis
            }
}

}
package Controllers {

    class CreateTestOfFileControler{
        +createTest(TestFileDto)
        +saveTest()
        }

    class ImportTestController{
            +createTestsFromFile(TestFileDto)
            +saveTest()
            +addSample()
        }

    class RegisterClientController {
      +registerClient(ClientDto)
      +saveClient()
    }

    class RecordSamplesController {
    +createSample()
    +addSample(code)
    }
}

}
package UI {
    package Utils{
        class TestFileUtils {
        +getTestDataToDto(filepath)

        }
    }
    package GUI {
     class ImportTestUI{
      }
    }

}

Controllers ..> Model
Controllers ..> DTO
Controllers ..> Controllers
UI ..> Controllers
UI ..> DTO
Model - - Stores : uses >
ImportTestUI .> TestFileUtils
ImportTestController ..> CreateTestOfFileControler
ImportTestController ..> RegisterClientController
CreateTestOfFileControler ..> RecordSamplesController
Company "1" - - - "*" Test : conducts >
Client "1" - - "1" Test : requested by <
ClinicalAnalysisLaboratory "1" - "1..*" Test : performs >
TestType "1" - - "1..*" Parameter : characterized by >
Company "1" - - "*" TestType : conducts >
Company "1" - - "*" Test : conducts >
Company "1" - "*" Parameter : capable of analysing >
Test "*" - - "1" TestType : classified as >
Test "1" - - "1..*" TestParameter : requests analysis of >
TestParameter "*" - - "1" Parameter : refers to >
TestParameter "1" - "0..1" TestParameterResult : contains >
Test"1" - - "1..*" Sample : collects >
Sample "1" - - "1" MyBarcode : identified with >

@enduml

@startuml
hide empty methods
hide empty attributes
skinparam classAttributeIconSize 0

package Core {

package Domain {

package Model {

       class ClinicalAnalysisLaboratory{
               - laboratoryID
               }

               class Test{
                   - code
                   - NhsCode
                   - dateOfTestRegistration
                   - dateOfSamplesCollection
                   - dateOfChemicalAnalysis
                   - dateOfDiagnosis
               }

        class Company {
                    -designation : String
                    +getTestTypeStore()
                    +getParameterStore()
                    +getTestStore()
                    +getCalStore()
                }
                class TestType {
                    - code : String
                    - description : String
                    - collectingMethod : String
                    }

                class Sample {
                -myBarcode
                }

                class Parameter {
                  -code
                  -shortName
                  -description
                }
                class TestParameter{
                    +TestParameter(parameter: Parameter)
                }
                class TestParameterResult{
                - createdAt
                - value
                - metric
                }

                class Client{
                - name
                - citizenCardNum
                - nhsNum
                - birthDate
                - sex
                - taxIdNum
                - phoneNum
                - email
                }

                class MyBarcode {
                - barcodeNumber
                }

}

package Stores {

    class ClientStore {
               +getClientByTinNumber(tinNumber)
            }

            class ParameterStore {
                    +getParamsByCategories(List<String> selectedCategoriesCodes)
                    +getParamsByCategory(String category)
                }

            class SampleStore {
                +createSample(myBarcode)
                +validateSample(sample)
            }

            class TestStore {
                +createTest(String nhsCode, Client associatedClient,\n TestType selectedTestType, List<Parameter>selectedParamsList)
                +validateTest(test)
                +saveTest(test)
            }

            class ClinicalAnalysisLaboratoryStore {
                +getCalByCode(labId)
            }

            class TestTypeStore {
                +getTestTypeByTinNumber(code)
                }

}


package DTO {

    class TestFileDTO{
               -ClientDTO
               -NhsCode
               -TestParameterCodes
               -TestParameterResult
               - dateOfTestRegistration
               - dateOfSamplesCollection
               - dateOfChemicalAnalysis
               - dateOfDiagnosis
            }
}

}
package Controllers {

    class CreateTestOfFileControler{
        +createTest(TestFileDto)
        +saveTest()
        }

    class ImportTestController{
            +createTestsFromFile(TestFileDto)
            +saveTest()
            +addSample()
        }

    class RegisterClientController {
      +registerClient(ClientDto)
      +saveClient()
    }

    class RecordSamplesController {
    +createSample()
    +addSample(code)
    }
}

}
package UI {
    package Utils{
        class TestFileUtils {
        +getTestDataToDto(filepath)

        }
    }
    package GUI {
     class ImportTestUI{
      }
    }

}

Controllers ..> Model
Controllers ..> DTO
Controllers ..> Controllers
UI ..> Controllers
UI ..> DTO
Model - - Stores : uses >
ImportTestUI .> TestFileUtils
ImportTestController ..> CreateTestOfFileControler
ImportTestController ..> RegisterClientController
CreateTestOfFileControler ..> RecordSamplesController
Company "1" - - - "*" Test : conducts >
Client "1" - - "1" Test : requested by <
ClinicalAnalysisLaboratory "1" - "1..*" Test : performs >
TestType "1" - - "1..*" Parameter : characterized by >
Company "1" - - "*" TestType : conducts >
Company "1" - - "*" Test : conducts >
Company "1" - "*" Parameter : capable of analysing >
Test "*" - - "1" TestType : classified as >
Test "1" - - "1..*" TestParameter : requests analysis of >
TestParameter "*" - - "1" Parameter : refers to >
TestParameter "1" - "0..1" TestParameterResult : contains >
Test"1" - - "1..*" Sample : collects >
Sample "1" - - "1" MyBarcode : identified with >

@enduml

PlantUML version 1.2021.00(Sun Jan 10 10:25:05 GMT 2021)
(GPL source distribution)
Java Runtime: OpenJDK Runtime Environment
JVM: OpenJDK 64-Bit Server VM
Default Encoding: Cp1252
Language: pt
Country: BR
--></g></svg>