<?xml version="1.0" encoding="UTF-8" standalone="no"?><svg xmlns="http://www.w3.org/2000/svg" xmlns:xlink="http://www.w3.org/1999/xlink" contentScriptType="application/ecmascript" contentStyleType="text/css" height="795px" preserveAspectRatio="none" style="width:3525px;height:795px;background:#FFFFFF;" version="1.1" viewBox="0 0 3525 795" width="3525px" zoomAndPan="magnify"><defs><filter height="300%" id="f2pp1puqbl4py" width="300%" x="-1" y="-1"><feGaussianBlur result="blurOut" stdDeviation="2.5"/><feColorMatrix in="blurOut" result="blurOut2" type="matrix" values="0 0 0 0 0 0 0 0 0 0 0 0 0 0 0 0 0 0 .4 0"/><feOffset dx="5.0" dy="5.0" in="blurOut2" result="blurOut3"/><feBlend in="SourceGraphic" in2="blurOut3" mode="normal"/></filter></defs><g><!--MD5=[2c2e2644034c00788261e03c85b06837]
cluster Core--><polygon fill="#FFFFFF" filter="url(#f2pp1puqbl4py)" points="20,7.5,70,7.5,78.75,37.0117,3106.25,37.0117,3106.25,786.25,20,786.25,20,7.5" style="stroke:#000000;stroke-width:1.875;"/><line style="stroke:#000000;stroke-width:1.875;" x1="20" x2="78.75" y1="37.0117" y2="37.0117"/><text fill="#000000" font-family="sans-serif" font-size="17.5" font-weight="bold" lengthAdjust="spacing" textLength="42.5" x="25" y="28.1665">Core</text><!--MD5=[121a8bf1197281ab89ed693fab589f94]
cluster Domain--><polygon fill="#FFFFFF" filter="url(#f2pp1puqbl4py)" points="971.25,62.5,1043.75,62.5,1052.5,92.0117,3076.25,92.0117,3076.25,756.25,971.25,756.25,971.25,62.5" style="stroke:#000000;stroke-width:1.875;"/><line style="stroke:#000000;stroke-width:1.875;" x1="971.25" x2="1052.5" y1="92.0117" y2="92.0117"/><text fill="#000000" font-family="sans-serif" font-size="17.5" font-weight="bold" lengthAdjust="spacing" textLength="65" x="976.25" y="83.1665">Domain</text><!--MD5=[15636c1ca4a123c16a2a1a8e90aca7a9]
cluster Model--><polygon fill="#FFFFFF" filter="url(#f2pp1puqbl4py)" points="2427.5,117.5,2490,117.5,2498.75,147.0117,3046.25,147.0117,3046.25,726.25,2427.5,726.25,2427.5,117.5" style="stroke:#000000;stroke-width:1.875;"/><line style="stroke:#000000;stroke-width:1.875;" x1="2427.5" x2="2498.75" y1="147.0117" y2="147.0117"/><text fill="#000000" font-family="sans-serif" font-size="17.5" font-weight="bold" lengthAdjust="spacing" textLength="55" x="2432.5" y="138.1665">Model</text><!--MD5=[0b89f7d34c26fffbb81ea7301eb9df33]
cluster Interfaces--><polygon fill="#FFFFFF" filter="url(#f2pp1puqbl4py)" points="2155,350.625,2251.25,350.625,2260,380.1367,2397.5,380.1367,2397.5,493.125,2155,493.125,2155,350.625" style="stroke:#000000;stroke-width:1.875;"/><line style="stroke:#000000;stroke-width:1.875;" x1="2155" x2="2260" y1="380.1367" y2="380.1367"/><text fill="#000000" font-family="sans-serif" font-size="17.5" font-weight="bold" lengthAdjust="spacing" textLength="88.75" x="2160" y="371.2915">Interfaces</text><!--MD5=[7ce1723ddb6e6233854253973eae5a71]
cluster Store--><polygon fill="#FFFFFF" filter="url(#f2pp1puqbl4py)" points="1585,330,1640,330,1648.75,359.5117,2125,359.5117,2125,513.75,1585,513.75,1585,330" style="stroke:#000000;stroke-width:1.875;"/><line style="stroke:#000000;stroke-width:1.875;" x1="1585" x2="1648.75" y1="359.5117" y2="359.5117"/><text fill="#000000" font-family="sans-serif" font-size="17.5" font-weight="bold" lengthAdjust="spacing" textLength="47.5" x="1590" y="350.6665">Store</text><!--MD5=[aedc30b8666742a3000193d7e0a0b93e]
cluster Adapters--><polygon fill="#FFFFFF" filter="url(#f2pp1puqbl4py)" points="1001.25,355.625,1087.5,355.625,1096.25,385.1367,1555,385.1367,1555,488.125,1001.25,488.125,1001.25,355.625" style="stroke:#000000;stroke-width:1.875;"/><line style="stroke:#000000;stroke-width:1.875;" x1="1001.25" x2="1096.25" y1="385.1367" y2="385.1367"/><text fill="#000000" font-family="sans-serif" font-size="17.5" font-weight="bold" lengthAdjust="spacing" textLength="78.75" x="1006.25" y="376.2915">Adapters</text><!--MD5=[1f2cfc53d9d308f53762fd0fcbaa4873]
cluster Controller--><polygon fill="#FFFFFF" filter="url(#f2pp1puqbl4py)" points="453.75,273.125,550,273.125,558.75,302.6367,941.25,302.6367,941.25,570.625,453.75,570.625,453.75,273.125" style="stroke:#000000;stroke-width:1.875;"/><line style="stroke:#000000;stroke-width:1.875;" x1="453.75" x2="558.75" y1="302.6367" y2="302.6367"/><text fill="#000000" font-family="sans-serif" font-size="17.5" font-weight="bold" lengthAdjust="spacing" textLength="88.75" x="458.75" y="293.7915">Controller</text><!--MD5=[c29634d7cdbe8f1c1e88f2fe66ae73ec]
cluster ThirdParty--><polygon fill="#FFFFFF" filter="url(#f2pp1puqbl4py)" points="50,300.625,146.25,300.625,155,330.1367,423.75,330.1367,423.75,518.125,50,518.125,50,300.625" style="stroke:#000000;stroke-width:1.875;"/><line style="stroke:#000000;stroke-width:1.875;" x1="50" x2="155" y1="330.1367" y2="330.1367"/><text fill="#000000" font-family="sans-serif" font-size="17.5" font-weight="bold" lengthAdjust="spacing" textLength="88.75" x="55" y="321.2915">ThirdParty</text><!--MD5=[0d079ae59d318396171bf167e6cb96b6]
cluster APIs--><polygon fill="#FFFFFF" filter="url(#f2pp1puqbl4py)" points="273.75,355.625,318.75,355.625,327.5,385.1367,393.75,385.1367,393.75,488.125,273.75,488.125,273.75,355.625" style="stroke:#000000;stroke-width:1.875;"/><line style="stroke:#000000;stroke-width:1.875;" x1="273.75" x2="327.5" y1="385.1367" y2="385.1367"/><text fill="#000000" font-family="sans-serif" font-size="17.5" font-weight="bold" lengthAdjust="spacing" textLength="37.5" x="278.75" y="376.2915">APIs</text><!--MD5=[9681dc6e01e10c6b4fe06895ae94f592]
cluster UI--><polygon fill="#FFFFFF" filter="url(#f2pp1puqbl4py)" points="3136.25,314.375,3161.25,314.375,3170,343.8867,3503.75,343.8867,3503.75,504.375,3136.25,504.375,3136.25,314.375" style="stroke:#000000;stroke-width:1.875;"/><line style="stroke:#000000;stroke-width:1.875;" x1="3136.25" x2="3170" y1="343.8867" y2="343.8867"/><text fill="#000000" font-family="sans-serif" font-size="17.5" font-weight="bold" lengthAdjust="spacing" textLength="17.5" x="3141.25" y="335.0415">UI</text><!--MD5=[b27c5c9af3cea12247b1c4c8d3c78770]
cluster GUI--><polygon fill="#FFFFFF" filter="url(#f2pp1puqbl4py)" points="3166.25,369.375,3205,369.375,3213.75,398.8867,3473.75,398.8867,3473.75,474.375,3166.25,474.375,3166.25,369.375" style="stroke:#000000;stroke-width:1.875;"/><line style="stroke:#000000;stroke-width:1.875;" x1="3166.25" x2="3213.75" y1="398.8867" y2="398.8867"/><text fill="#000000" font-family="sans-serif" font-size="17.5" font-weight="bold" lengthAdjust="spacing" textLength="31.25" x="3171.25" y="390.0415">GUI</text><!--MD5=[02e4b9b7573f1156f41e60aa5b4e25a4]
class Company--><rect codeLine="13" fill="#FEFECE" filter="url(#f2pp1puqbl4py)" height="111.8848" id="Company" style="stroke:#A80036;stroke-width:1.875;" width="137.5" x="2888.75" y="378.125"/><ellipse cx="2921.5625" cy="398.125" fill="#ADD1B2" rx="13.75" ry="13.75" style="stroke:#A80036;stroke-width:1.25;"/><path d="M2924.0625,393.75 Q2924.3164,393.125 2924.6094,392.8125 Q2924.9023,392.5 2925.2344,392.5 Q2925.8203,392.5 2926.1914,392.8516 Q2926.5625,393.2031 2926.5625,394.0234 L2926.5625,395.9766 Q2926.5625,396.7969 2926.2109,397.1484 Q2925.8594,397.5 2925.3125,397.5 Q2924.8242,397.5 2924.5117,397.2852 Q2924.1992,397.0703 2924.0625,396.5039 Q2924.0039,396.1133 2923.7891,395.8984 Q2923.3984,395.4883 2922.6953,395.2539 Q2921.9922,395 2921.2891,395 Q2920.4102,395 2919.668,395.3516 Q2918.9453,395.7031 2918.3789,396.4844 Q2917.8125,397.2656 2917.8125,398.3398 L2917.8125,399.4922 Q2917.8125,400.7813 2918.8672,401.6406 Q2919.9219,402.5 2921.7969,402.5 Q2922.9102,402.5 2923.6914,402.2461 Q2924.1406,402.1094 2924.6484,401.6602 Q2924.9805,401.4063 2925.1563,401.3281 Q2925.332,401.25 2925.5469,401.25 Q2925.957,401.25 2926.25,401.582 Q2926.5625,401.8945 2926.5625,402.3438 Q2926.5625,402.7734 2926.1328,403.2813 Q2925.5078,404.0234 2924.5117,404.4336 Q2923.2031,405 2921.6016,405 Q2919.7266,405 2918.2227,404.2578 Q2917.0117,403.6719 2916.1523,402.4023 Q2915.3125,401.1328 2915.3125,399.6289 L2915.3125,398.2617 Q2915.3125,396.6992 2916.0547,395.332 Q2916.8164,393.9648 2918.125,393.2422 Q2919.4531,392.5 2920.9375,392.5 Q2921.8359,392.5 2922.6172,392.8125 Q2923.3984,393.125 2924.0625,393.75 Z " fill="#000000"/><text fill="#000000" font-family="sans-serif" font-size="15" lengthAdjust="spacing" textLength="66.25" x="2942.1875" y="404.2627">Company</text><line style="stroke:#A80036;stroke-width:1.875;" x1="2890" x2="3025" y1="418.125" y2="418.125"/><text fill="#000000" font-family="sans-serif" font-size="13.75" lengthAdjust="spacing" textLength="112.5" x="2896.25" y="437.3987">-String designation</text><text fill="#000000" font-family="sans-serif" font-size="13.75" lengthAdjust="spacing" textLength="122.5" x="2896.25" y="454.6936">-TestStore testStore</text><line style="stroke:#A80036;stroke-width:1.875;" x1="2890" x2="3025" y1="462.7148" y2="462.7148"/><text fill="#000000" font-family="sans-serif" font-size="13.75" lengthAdjust="spacing" textLength="95" x="2896.25" y="481.9885">+getTestStore()</text><!--MD5=[dcf2a5f2a10777fb61a46b3b0525c1db]
class CompanyPerformance--><rect codeLine="19" fill="#FEFECE" filter="url(#f2pp1puqbl4py)" height="544.2578" id="CompanyPerformance" style="stroke:#A80036;stroke-width:1.875;" width="396.25" x="2448.125" y="162.5"/><ellipse cx="2563.4375" cy="182.5" fill="#ADD1B2" rx="13.75" ry="13.75" style="stroke:#A80036;stroke-width:1.25;"/><path d="M2565.9375,178.125 Q2566.1914,177.5 2566.4844,177.1875 Q2566.7773,176.875 2567.1094,176.875 Q2567.6953,176.875 2568.0664,177.2266 Q2568.4375,177.5781 2568.4375,178.3984 L2568.4375,180.3516 Q2568.4375,181.1719 2568.0859,181.5234 Q2567.7344,181.875 2567.1875,181.875 Q2566.6992,181.875 2566.3867,181.6602 Q2566.0742,181.4453 2565.9375,180.8789 Q2565.8789,180.4883 2565.6641,180.2734 Q2565.2734,179.8633 2564.5703,179.6289 Q2563.8672,179.375 2563.1641,179.375 Q2562.2852,179.375 2561.543,179.7266 Q2560.8203,180.0781 2560.2539,180.8594 Q2559.6875,181.6406 2559.6875,182.7148 L2559.6875,183.8672 Q2559.6875,185.1563 2560.7422,186.0156 Q2561.7969,186.875 2563.6719,186.875 Q2564.7852,186.875 2565.5664,186.6211 Q2566.0156,186.4844 2566.5234,186.0352 Q2566.8555,185.7813 2567.0313,185.7031 Q2567.207,185.625 2567.4219,185.625 Q2567.832,185.625 2568.125,185.957 Q2568.4375,186.2695 2568.4375,186.7188 Q2568.4375,187.1484 2568.0078,187.6563 Q2567.3828,188.3984 2566.3867,188.8086 Q2565.0781,189.375 2563.4766,189.375 Q2561.6016,189.375 2560.0977,188.6328 Q2558.8867,188.0469 2558.0273,186.7773 Q2557.1875,185.5078 2557.1875,184.0039 L2557.1875,182.6367 Q2557.1875,181.0742 2557.9297,179.707 Q2558.6914,178.3398 2560,177.6172 Q2561.3281,176.875 2562.8125,176.875 Q2563.7109,176.875 2564.4922,177.1875 Q2565.2734,177.5 2565.9375,178.125 Z " fill="#000000"/><text fill="#000000" font-family="sans-serif" font-size="15" lengthAdjust="spacing" textLength="155" x="2589.0625" y="188.6377">CompanyPerformance</text><line style="stroke:#A80036;stroke-width:1.875;" x1="2449.375" x2="2843.125" y1="202.5" y2="202.5"/><text fill="#000000" font-family="sans-serif" font-size="13.75" lengthAdjust="spacing" textLength="120" x="2455.625" y="221.7737">-Company company</text><text fill="#000000" font-family="sans-serif" font-size="13.75" lengthAdjust="spacing" textLength="121.25" x="2455.625" y="239.0686">-Date beginningDate</text><text fill="#000000" font-family="sans-serif" font-size="13.75" lengthAdjust="spacing" textLength="103.75" x="2455.625" y="256.3635">-Date endingDate</text><text fill="#000000" font-family="sans-serif" font-size="13.75" lengthAdjust="spacing" textLength="108.75" x="2455.625" y="273.6584">-String chosenAlg</text><text fill="#000000" font-family="sans-serif" font-size="13.75" lengthAdjust="spacing" textLength="87.5" x="2455.625" y="290.9534">-int clientsNum</text><text fill="#000000" font-family="sans-serif" font-size="13.75" lengthAdjust="spacing" textLength="132.5" x="2455.625" y="308.2483">-int processTestsNum</text><text fill="#000000" font-family="sans-serif" font-size="13.75" lengthAdjust="spacing" textLength="170" x="2455.625" y="325.5432">-ArrayList&lt;int[]&gt; testInfoDay</text><text fill="#000000" font-family="sans-serif" font-size="13.75" lengthAdjust="spacing" textLength="180" x="2455.625" y="342.8381">-ArrayList&lt;int[]&gt; testInfoWeek</text><text fill="#000000" font-family="sans-serif" font-size="13.75" lengthAdjust="spacing" textLength="182.5" x="2455.625" y="360.1331">-ArrayList&lt;int[]&gt; testInfoMonth</text><text fill="#000000" font-family="sans-serif" font-size="13.75" lengthAdjust="spacing" textLength="176.25" x="2455.625" y="377.428">-ArrayList&lt;int[]&gt; testInfoYear</text><text fill="#000000" font-family="sans-serif" font-size="13.75" lengthAdjust="spacing" textLength="117.5" x="2455.625" y="394.7229">-Date[] worstSubInt</text><line style="stroke:#A80036;stroke-width:1.875;" x1="2449.375" x2="2843.125" y1="402.7441" y2="402.7441"/><text fill="#000000" font-family="sans-serif" font-size="13.75" lengthAdjust="spacing" textLength="102.5" x="2455.625" y="422.0178">+getClientsNum()</text><text fill="#000000" font-family="sans-serif" font-size="13.75" lengthAdjust="spacing" textLength="146.25" x="2455.625" y="439.3127">+getProcessTestsNum()</text><text fill="#000000" font-family="sans-serif" font-size="13.75" lengthAdjust="spacing" textLength="108.75" x="2455.625" y="456.6077">+getTestInfoDay()</text><text fill="#000000" font-family="sans-serif" font-size="13.75" lengthAdjust="spacing" textLength="118.75" x="2455.625" y="473.9026">+getTestInfoWeek()</text><text fill="#000000" font-family="sans-serif" font-size="13.75" lengthAdjust="spacing" textLength="121.25" x="2455.625" y="491.1975">+getTestInfoMonth()</text><text fill="#000000" font-family="sans-serif" font-size="13.75" lengthAdjust="spacing" textLength="115" x="2455.625" y="508.4924">+getTestInfoYear()</text><text fill="#000000" font-family="sans-serif" font-size="13.75" lengthAdjust="spacing" textLength="110" x="2455.625" y="525.7874">+getWorstSubInt()</text><text fill="#000000" font-family="sans-serif" font-size="13.75" lengthAdjust="spacing" textLength="192.5" x="2455.625" y="543.0823">+getClientsInfoPerInterval(days)</text><text fill="#000000" font-family="sans-serif" font-size="13.75" lengthAdjust="spacing" textLength="235" x="2455.625" y="560.3772">+getNumTestsProcessedInterval(days)</text><text fill="#000000" font-family="sans-serif" font-size="13.75" lengthAdjust="spacing" textLength="158.75" x="2455.625" y="577.6721">+getTestInfoPerDay(days)</text><text fill="#000000" font-family="sans-serif" font-size="13.75" lengthAdjust="spacing" textLength="168.75" x="2455.625" y="594.967">+getTestInfoPerWeek(days)</text><text fill="#000000" font-family="sans-serif" font-size="13.75" lengthAdjust="spacing" textLength="171.25" x="2455.625" y="612.262">+getTestInfoPerMonth(days)</text><text fill="#000000" font-family="sans-serif" font-size="13.75" lengthAdjust="spacing" textLength="165" x="2455.625" y="629.5569">+getTestInfoPerYear(days)</text><text fill="#000000" font-family="sans-serif" font-size="13.75" lengthAdjust="spacing" textLength="220" x="2455.625" y="646.8518">+getDays(beginningDay, endingDay)</text><text fill="#000000" font-family="sans-serif" font-size="13.75" lengthAdjust="spacing" textLength="157.5" x="2455.625" y="664.1467">+makeIntervalArray(days)</text><text fill="#000000" font-family="sans-serif" font-size="13.75" lengthAdjust="spacing" textLength="381.25" x="2455.625" y="681.4417">+findWorstSubIntWithChosenAlgorithm(days, chosenAlgorithm)</text><text fill="#000000" font-family="sans-serif" font-size="13.75" lengthAdjust="spacing" textLength="288.75" x="2455.625" y="698.7366">+getChosenAlgorithmAdapter(chosenAlgorithm)</text><!--MD5=[03e21a3a74a4ec725edc90da8949a6b4]
class SubMaxSumAlgorithms--><rect codeLine="54" fill="#FEFECE" filter="url(#f2pp1puqbl4py)" height="77.5293" id="SubMaxSumAlgorithms" style="stroke:#A80036;stroke-width:1.875;" width="202.5" x="2175" y="395.625"/><ellipse cx="2193.75" cy="420.7422" fill="#B4A7E5" rx="13.75" ry="13.75" style="stroke:#A80036;stroke-width:1.25;"/><path d="M2195,416.9922 L2195,424.4922 L2197.5,424.4922 L2198.1055,424.4922 L2198.75,425.2734 L2198.75,425.7422 L2198.75,426.2109 L2198.1055,426.9922 L2197.5,426.9922 L2190,426.9922 L2189.3945,426.9922 L2188.75,426.2109 L2188.75,425.7422 L2188.75,425.2734 L2189.3945,424.4922 L2190,424.4922 L2192.5,424.4922 L2192.5,416.9922 L2190,416.9922 L2189.3945,416.9922 L2188.75,416.2109 L2188.75,415.7422 L2188.75,415.2734 L2189.3945,414.4922 L2190,414.4922 L2197.5,414.4922 L2198.1055,414.4922 L2198.75,415.2734 L2198.75,415.7422 L2198.75,416.2109 L2198.1055,416.9922 L2197.5,416.9922 L2195,416.9922 Z " fill="#000000"/><text fill="#000000" font-family="sans-serif" font-size="15" font-style="italic" lengthAdjust="spacing" textLength="76.25" x="2254.375" y="417.4463">«interface»</text><text fill="#000000" font-family="sans-serif" font-size="15" font-style="italic" lengthAdjust="spacing" textLength="162.5" x="2211.25" y="436.3135">SubMaxSumAlgorithms</text><line style="stroke:#A80036;stroke-width:1.875;" x1="2176.25" x2="2376.25" y1="445.8594" y2="445.8594"/><text fill="#000000" font-family="sans-serif" font-size="13.75" lengthAdjust="spacing" textLength="158.75" x="2182.5" y="465.1331">+findSubMaxSum(interval)</text><!--MD5=[0f6f7964b844a64b0496af0dda7914bd]
class TestStore--><rect codeLine="62" fill="#FEFECE" filter="url(#f2pp1puqbl4py)" height="119.1797" id="TestStore" style="stroke:#A80036;stroke-width:1.875;" width="498.75" x="1605.625" y="375"/><ellipse cx="1816.5625" cy="395" fill="#ADD1B2" rx="13.75" ry="13.75" style="stroke:#A80036;stroke-width:1.25;"/><path d="M1819.0625,390.625 Q1819.3164,390 1819.6094,389.6875 Q1819.9023,389.375 1820.2344,389.375 Q1820.8203,389.375 1821.1914,389.7266 Q1821.5625,390.0781 1821.5625,390.8984 L1821.5625,392.8516 Q1821.5625,393.6719 1821.2109,394.0234 Q1820.8594,394.375 1820.3125,394.375 Q1819.8242,394.375 1819.5117,394.1602 Q1819.1992,393.9453 1819.0625,393.3789 Q1819.0039,392.9883 1818.7891,392.7734 Q1818.3984,392.3633 1817.6953,392.1289 Q1816.9922,391.875 1816.2891,391.875 Q1815.4102,391.875 1814.668,392.2266 Q1813.9453,392.5781 1813.3789,393.3594 Q1812.8125,394.1406 1812.8125,395.2148 L1812.8125,396.3672 Q1812.8125,397.6563 1813.8672,398.5156 Q1814.9219,399.375 1816.7969,399.375 Q1817.9102,399.375 1818.6914,399.1211 Q1819.1406,398.9844 1819.6484,398.5352 Q1819.9805,398.2813 1820.1563,398.2031 Q1820.332,398.125 1820.5469,398.125 Q1820.957,398.125 1821.25,398.457 Q1821.5625,398.7695 1821.5625,399.2188 Q1821.5625,399.6484 1821.1328,400.1563 Q1820.5078,400.8984 1819.5117,401.3086 Q1818.2031,401.875 1816.6016,401.875 Q1814.7266,401.875 1813.2227,401.1328 Q1812.0117,400.5469 1811.1523,399.2773 Q1810.3125,398.0078 1810.3125,396.5039 L1810.3125,395.1367 Q1810.3125,393.5742 1811.0547,392.207 Q1811.8164,390.8398 1813.125,390.1172 Q1814.4531,389.375 1815.9375,389.375 Q1816.8359,389.375 1817.6172,389.6875 Q1818.3984,390 1819.0625,390.625 Z " fill="#000000"/><text fill="#000000" font-family="sans-serif" font-size="15" lengthAdjust="spacing" textLength="66.25" x="1842.1875" y="401.1377">TestStore</text><line style="stroke:#A80036;stroke-width:1.875;" x1="1606.875" x2="2103.125" y1="415" y2="415"/><text fill="#000000" font-family="sans-serif" font-size="13.75" lengthAdjust="spacing" textLength="440" x="1613.125" y="434.2737">+getNumTestsWaitingForResultsDayOrInterval(beginningDay, endingDay)</text><text fill="#000000" font-family="sans-serif" font-size="13.75" lengthAdjust="spacing" textLength="453.75" x="1613.125" y="451.5686">+getNumTestsWaitingForDiagnosisDayOrInterval(beginningDay, endingDay)</text><text fill="#000000" font-family="sans-serif" font-size="13.75" lengthAdjust="spacing" textLength="483.75" x="1613.125" y="468.8635">+getNumberOfTestsByIntervalDateOfTestRegistration(beginningDay, endingDay)</text><text fill="#000000" font-family="sans-serif" font-size="13.75" lengthAdjust="spacing" textLength="445" x="1613.125" y="486.1584">+getNumberOfTestsByIntervalDateOfDiagnosis(beginningDay, endingDay)</text><!--MD5=[f4a38599b97b911edb1e154f571cf5e4]
class BenchmarkAlgorithmAdapter--><rect codeLine="73" fill="#FEFECE" filter="url(#f2pp1puqbl4py)" height="67.2949" id="BenchmarkAlgorithmAdapter" style="stroke:#A80036;stroke-width:1.875;" width="236.25" x="1298.125" y="400.625"/><ellipse cx="1316.875" cy="420.625" fill="#ADD1B2" rx="13.75" ry="13.75" style="stroke:#A80036;stroke-width:1.25;"/><path d="M1319.375,416.25 Q1319.6289,415.625 1319.9219,415.3125 Q1320.2148,415 1320.5469,415 Q1321.1328,415 1321.5039,415.3516 Q1321.875,415.7031 1321.875,416.5234 L1321.875,418.4766 Q1321.875,419.2969 1321.5234,419.6484 Q1321.1719,420 1320.625,420 Q1320.1367,420 1319.8242,419.7852 Q1319.5117,419.5703 1319.375,419.0039 Q1319.3164,418.6133 1319.1016,418.3984 Q1318.7109,417.9883 1318.0078,417.7539 Q1317.3047,417.5 1316.6016,417.5 Q1315.7227,417.5 1314.9805,417.8516 Q1314.2578,418.2031 1313.6914,418.9844 Q1313.125,419.7656 1313.125,420.8398 L1313.125,421.9922 Q1313.125,423.2813 1314.1797,424.1406 Q1315.2344,425 1317.1094,425 Q1318.2227,425 1319.0039,424.7461 Q1319.4531,424.6094 1319.9609,424.1602 Q1320.293,423.9063 1320.4688,423.8281 Q1320.6445,423.75 1320.8594,423.75 Q1321.2695,423.75 1321.5625,424.082 Q1321.875,424.3945 1321.875,424.8438 Q1321.875,425.2734 1321.4453,425.7813 Q1320.8203,426.5234 1319.8242,426.9336 Q1318.5156,427.5 1316.9141,427.5 Q1315.0391,427.5 1313.5352,426.7578 Q1312.3242,426.1719 1311.4648,424.9023 Q1310.625,423.6328 1310.625,422.1289 L1310.625,420.7617 Q1310.625,419.1992 1311.3672,417.832 Q1312.1289,416.4648 1313.4375,415.7422 Q1314.7656,415 1316.25,415 Q1317.1484,415 1317.9297,415.3125 Q1318.7109,415.625 1319.375,416.25 Z " fill="#000000"/><text fill="#000000" font-family="sans-serif" font-size="15" lengthAdjust="spacing" textLength="196.25" x="1334.375" y="426.7627">BenchmarkAlgorithmAdapter</text><line style="stroke:#A80036;stroke-width:1.875;" x1="1299.375" x2="1533.125" y1="440.625" y2="440.625"/><text fill="#000000" font-family="sans-serif" font-size="13.75" lengthAdjust="spacing" textLength="158.75" x="1305.625" y="459.8987">+findSubMaxSum(interval)</text><!--MD5=[3d195b319a9e341286852cea89c88ec3]
class BruteForceAlgorithmAdapter--><rect codeLine="77" fill="#FEFECE" filter="url(#f2pp1puqbl4py)" height="67.2949" id="BruteForceAlgorithmAdapter" style="stroke:#A80036;stroke-width:1.875;" width="232.5" x="1021.25" y="400.625"/><ellipse cx="1040" cy="420.625" fill="#ADD1B2" rx="13.75" ry="13.75" style="stroke:#A80036;stroke-width:1.25;"/><path d="M1042.5,416.25 Q1042.7539,415.625 1043.0469,415.3125 Q1043.3398,415 1043.6719,415 Q1044.2578,415 1044.6289,415.3516 Q1045,415.7031 1045,416.5234 L1045,418.4766 Q1045,419.2969 1044.6484,419.6484 Q1044.2969,420 1043.75,420 Q1043.2617,420 1042.9492,419.7852 Q1042.6367,419.5703 1042.5,419.0039 Q1042.4414,418.6133 1042.2266,418.3984 Q1041.8359,417.9883 1041.1328,417.7539 Q1040.4297,417.5 1039.7266,417.5 Q1038.8477,417.5 1038.1055,417.8516 Q1037.3828,418.2031 1036.8164,418.9844 Q1036.25,419.7656 1036.25,420.8398 L1036.25,421.9922 Q1036.25,423.2813 1037.3047,424.1406 Q1038.3594,425 1040.2344,425 Q1041.3477,425 1042.1289,424.7461 Q1042.5781,424.6094 1043.0859,424.1602 Q1043.418,423.9063 1043.5938,423.8281 Q1043.7695,423.75 1043.9844,423.75 Q1044.3945,423.75 1044.6875,424.082 Q1045,424.3945 1045,424.8438 Q1045,425.2734 1044.5703,425.7813 Q1043.9453,426.5234 1042.9492,426.9336 Q1041.6406,427.5 1040.0391,427.5 Q1038.1641,427.5 1036.6602,426.7578 Q1035.4492,426.1719 1034.5898,424.9023 Q1033.75,423.6328 1033.75,422.1289 L1033.75,420.7617 Q1033.75,419.1992 1034.4922,417.832 Q1035.2539,416.4648 1036.5625,415.7422 Q1037.8906,415 1039.375,415 Q1040.2734,415 1041.0547,415.3125 Q1041.8359,415.625 1042.5,416.25 Z " fill="#000000"/><text fill="#000000" font-family="sans-serif" font-size="15" lengthAdjust="spacing" textLength="192.5" x="1057.5" y="426.7627">BruteForceAlgorithmAdapter</text><line style="stroke:#A80036;stroke-width:1.875;" x1="1022.5" x2="1252.5" y1="440.625" y2="440.625"/><text fill="#000000" font-family="sans-serif" font-size="13.75" lengthAdjust="spacing" textLength="158.75" x="1028.75" y="459.8987">+findSubMaxSum(interval)</text><!--MD5=[670275f839cd0f6ae295f6f439fd6034]
class CompanyPerformanceAnalysisController--><rect codeLine="87" fill="#FEFECE" filter="url(#f2pp1puqbl4py)" height="232.9492" id="CompanyPerformanceAnalysisController" style="stroke:#A80036;stroke-width:1.875;" width="446.25" x="474.375" y="318.125"/><ellipse cx="552.1875" cy="338.125" fill="#ADD1B2" rx="13.75" ry="13.75" style="stroke:#A80036;stroke-width:1.25;"/><path d="M554.6875,333.75 Q554.9414,333.125 555.2344,332.8125 Q555.5273,332.5 555.8594,332.5 Q556.4453,332.5 556.8164,332.8516 Q557.1875,333.2031 557.1875,334.0234 L557.1875,335.9766 Q557.1875,336.7969 556.8359,337.1484 Q556.4844,337.5 555.9375,337.5 Q555.4492,337.5 555.1367,337.2852 Q554.8242,337.0703 554.6875,336.5039 Q554.6289,336.1133 554.4141,335.8984 Q554.0234,335.4883 553.3203,335.2539 Q552.6172,335 551.9141,335 Q551.0352,335 550.293,335.3516 Q549.5703,335.7031 549.0039,336.4844 Q548.4375,337.2656 548.4375,338.3398 L548.4375,339.4922 Q548.4375,340.7813 549.4922,341.6406 Q550.5469,342.5 552.4219,342.5 Q553.5352,342.5 554.3164,342.2461 Q554.7656,342.1094 555.2734,341.6602 Q555.6055,341.4063 555.7813,341.3281 Q555.957,341.25 556.1719,341.25 Q556.582,341.25 556.875,341.582 Q557.1875,341.8945 557.1875,342.3438 Q557.1875,342.7734 556.7578,343.2813 Q556.1328,344.0234 555.1367,344.4336 Q553.8281,345 552.2266,345 Q550.3516,345 548.8477,344.2578 Q547.6367,343.6719 546.7773,342.4023 Q545.9375,341.1328 545.9375,339.6289 L545.9375,338.2617 Q545.9375,336.6992 546.6797,335.332 Q547.4414,333.9648 548.75,333.2422 Q550.0781,332.5 551.5625,332.5 Q552.4609,332.5 553.2422,332.8125 Q554.0234,333.125 554.6875,333.75 Z " fill="#000000"/><text fill="#000000" font-family="sans-serif" font-size="15" lengthAdjust="spacing" textLength="280" x="577.8125" y="344.2627">CompanyPerformanceAnalysisController</text><line style="stroke:#A80036;stroke-width:1.875;" x1="475.625" x2="919.375" y1="358.125" y2="358.125"/><text fill="#000000" font-family="sans-serif" font-size="13.75" lengthAdjust="spacing" textLength="120" x="481.875" y="377.3987">-Company company</text><text fill="#000000" font-family="sans-serif" font-size="13.75" lengthAdjust="spacing" textLength="275" x="481.875" y="394.6936">-CompanyPerformance companyPerformance</text><line style="stroke:#A80036;stroke-width:1.875;" x1="475.625" x2="919.375" y1="402.7148" y2="402.7148"/><text fill="#000000" font-family="sans-serif" font-size="13.75" lengthAdjust="spacing" textLength="431.25" x="481.875" y="421.9885">+setCompanyPerformance(beginningDay, endingDay, chosenAlgorithm)</text><text fill="#000000" font-family="sans-serif" font-size="13.75" lengthAdjust="spacing" textLength="162.5" x="481.875" y="439.2834">+getClientsInfoPerInterval()</text><text fill="#000000" font-family="sans-serif" font-size="13.75" lengthAdjust="spacing" textLength="205" x="481.875" y="456.5784">+getNumTestsProcessedInterval()</text><text fill="#000000" font-family="sans-serif" font-size="13.75" lengthAdjust="spacing" textLength="128.75" x="481.875" y="473.8733">+getTestInfoPerDay()</text><text fill="#000000" font-family="sans-serif" font-size="13.75" lengthAdjust="spacing" textLength="138.75" x="481.875" y="491.1682">+getTestInfoPerWeek()</text><text fill="#000000" font-family="sans-serif" font-size="13.75" lengthAdjust="spacing" textLength="141.25" x="481.875" y="508.4631">+getTestInfoPerMonth()</text><text fill="#000000" font-family="sans-serif" font-size="13.75" lengthAdjust="spacing" textLength="135" x="481.875" y="525.7581">+getTestInfoPerYear()</text><text fill="#000000" font-family="sans-serif" font-size="13.75" lengthAdjust="spacing" textLength="242.5" x="481.875" y="543.053">+findWorstSubIntWithChosenAlgorithm()</text><!--MD5=[1dec90c14ec2ba3af2708f621be65d00]
class BruteForceAlgorithm--><rect codeLine="112" fill="#FEFECE" filter="url(#f2pp1puqbl4py)" height="67.2949" id="BruteForceAlgorithm" style="stroke:#A80036;stroke-width:1.875;" width="180" x="70" y="400.625"/><ellipse cx="88.75" cy="420.625" fill="#ADD1B2" rx="13.75" ry="13.75" style="stroke:#A80036;stroke-width:1.25;"/><path d="M91.25,416.25 Q91.5039,415.625 91.7969,415.3125 Q92.0898,415 92.4219,415 Q93.0078,415 93.3789,415.3516 Q93.75,415.7031 93.75,416.5234 L93.75,418.4766 Q93.75,419.2969 93.3984,419.6484 Q93.0469,420 92.5,420 Q92.0117,420 91.6992,419.7852 Q91.3867,419.5703 91.25,419.0039 Q91.1914,418.6133 90.9766,418.3984 Q90.5859,417.9883 89.8828,417.7539 Q89.1797,417.5 88.4766,417.5 Q87.5977,417.5 86.8555,417.8516 Q86.1328,418.2031 85.5664,418.9844 Q85,419.7656 85,420.8398 L85,421.9922 Q85,423.2813 86.0547,424.1406 Q87.1094,425 88.9844,425 Q90.0977,425 90.8789,424.7461 Q91.3281,424.6094 91.8359,424.1602 Q92.168,423.9063 92.3438,423.8281 Q92.5195,423.75 92.7344,423.75 Q93.1445,423.75 93.4375,424.082 Q93.75,424.3945 93.75,424.8438 Q93.75,425.2734 93.3203,425.7813 Q92.6953,426.5234 91.6992,426.9336 Q90.3906,427.5 88.7891,427.5 Q86.9141,427.5 85.4102,426.7578 Q84.1992,426.1719 83.3398,424.9023 Q82.5,423.6328 82.5,422.1289 L82.5,420.7617 Q82.5,419.1992 83.2422,417.832 Q84.0039,416.4648 85.3125,415.7422 Q86.6406,415 88.125,415 Q89.0234,415 89.8047,415.3125 Q90.5859,415.625 91.25,416.25 Z " fill="#000000"/><text fill="#000000" font-family="sans-serif" font-size="15" lengthAdjust="spacing" textLength="140" x="106.25" y="426.7627">BruteForceAlgorithm</text><line style="stroke:#A80036;stroke-width:1.875;" x1="71.25" x2="248.75" y1="440.625" y2="440.625"/><text fill="#000000" font-family="sans-serif" font-size="13.75" lengthAdjust="spacing" textLength="65" x="77.5" y="459.8987">+Max(seq)</text><!--MD5=[bbc84d1aa0e7f30bd67b3f6e81f0f299]
class Sum--><rect codeLine="106" fill="#FEFECE" filter="url(#f2pp1puqbl4py)" height="67.2949" id="Sum" style="stroke:#A80036;stroke-width:1.875;" width="80" x="293.75" y="400.625"/><ellipse cx="315.875" cy="420.625" fill="#ADD1B2" rx="13.75" ry="13.75" style="stroke:#A80036;stroke-width:1.25;"/><path d="M318.375,416.25 Q318.6289,415.625 318.9219,415.3125 Q319.2148,415 319.5469,415 Q320.1328,415 320.5039,415.3516 Q320.875,415.7031 320.875,416.5234 L320.875,418.4766 Q320.875,419.2969 320.5234,419.6484 Q320.1719,420 319.625,420 Q319.1367,420 318.8242,419.7852 Q318.5117,419.5703 318.375,419.0039 Q318.3164,418.6133 318.1016,418.3984 Q317.7109,417.9883 317.0078,417.7539 Q316.3047,417.5 315.6016,417.5 Q314.7227,417.5 313.9805,417.8516 Q313.2578,418.2031 312.6914,418.9844 Q312.125,419.7656 312.125,420.8398 L312.125,421.9922 Q312.125,423.2813 313.1797,424.1406 Q314.2344,425 316.1094,425 Q317.2227,425 318.0039,424.7461 Q318.4531,424.6094 318.9609,424.1602 Q319.293,423.9063 319.4688,423.8281 Q319.6445,423.75 319.8594,423.75 Q320.2695,423.75 320.5625,424.082 Q320.875,424.3945 320.875,424.8438 Q320.875,425.2734 320.4453,425.7813 Q319.8203,426.5234 318.8242,426.9336 Q317.5156,427.5 315.9141,427.5 Q314.0391,427.5 312.5352,426.7578 Q311.3242,426.1719 310.4648,424.9023 Q309.625,423.6328 309.625,422.1289 L309.625,420.7617 Q309.625,419.1992 310.3672,417.832 Q311.1289,416.4648 312.4375,415.7422 Q313.7656,415 315.25,415 Q316.1484,415 316.9297,415.3125 Q317.7109,415.625 318.375,416.25 Z " fill="#000000"/><text fill="#000000" font-family="sans-serif" font-size="15" lengthAdjust="spacing" textLength="32.5" x="334.125" y="426.7627">Sum</text><line style="stroke:#A80036;stroke-width:1.875;" x1="295" x2="372.5" y1="440.625" y2="440.625"/><text fill="#000000" font-family="sans-serif" font-size="13.75" lengthAdjust="spacing" textLength="65" x="301.25" y="459.8987">+Max(seq)</text><!--MD5=[3404723274ca4ec774b8d2f7e379376f]
class CompanyPerformanceAnalysisUI--><rect codeLine="124" fill="#FEFECE" filter="url(#f2pp1puqbl4py)" height="40" id="CompanyPerformanceAnalysisUI" style="stroke:#A80036;stroke-width:1.875;" width="267.5" x="3186.25" y="414.375"/><ellipse cx="3205" cy="434.375" fill="#ADD1B2" rx="13.75" ry="13.75" style="stroke:#A80036;stroke-width:1.25;"/><path d="M3207.5,430 Q3207.7539,429.375 3208.0469,429.0625 Q3208.3398,428.75 3208.6719,428.75 Q3209.2578,428.75 3209.6289,429.1016 Q3210,429.4531 3210,430.2734 L3210,432.2266 Q3210,433.0469 3209.6484,433.3984 Q3209.2969,433.75 3208.75,433.75 Q3208.2617,433.75 3207.9492,433.5352 Q3207.6367,433.3203 3207.5,432.7539 Q3207.4414,432.3633 3207.2266,432.1484 Q3206.8359,431.7383 3206.1328,431.5039 Q3205.4297,431.25 3204.7266,431.25 Q3203.8477,431.25 3203.1055,431.6016 Q3202.3828,431.9531 3201.8164,432.7344 Q3201.25,433.5156 3201.25,434.5898 L3201.25,435.7422 Q3201.25,437.0313 3202.3047,437.8906 Q3203.3594,438.75 3205.2344,438.75 Q3206.3477,438.75 3207.1289,438.4961 Q3207.5781,438.3594 3208.0859,437.9102 Q3208.418,437.6563 3208.5938,437.5781 Q3208.7695,437.5 3208.9844,437.5 Q3209.3945,437.5 3209.6875,437.832 Q3210,438.1445 3210,438.5938 Q3210,439.0234 3209.5703,439.5313 Q3208.9453,440.2734 3207.9492,440.6836 Q3206.6406,441.25 3205.0391,441.25 Q3203.1641,441.25 3201.6602,440.5078 Q3200.4492,439.9219 3199.5898,438.6523 Q3198.75,437.3828 3198.75,435.8789 L3198.75,434.5117 Q3198.75,432.9492 3199.4922,431.582 Q3200.2539,430.2148 3201.5625,429.4922 Q3202.8906,428.75 3204.375,428.75 Q3205.2734,428.75 3206.0547,429.0625 Q3206.8359,429.375 3207.5,430 Z " fill="#000000"/><text fill="#000000" font-family="sans-serif" font-size="15" lengthAdjust="spacing" textLength="227.5" x="3222.5" y="440.5127">CompanyPerformanceAnalysisUI</text><!--MD5=[5cfbcfef49b0697c98084371a1855326]
@startuml
'skinparam linetype ortho
hide empty methods
hide empty attributes
'left to right direction
skinparam classAttributeIconSize 0

package Core{

package Domain {

package Model{

class Company {
    - String designation
    - TestStore testStore
    + getTestStore()
}

class CompanyPerformance{
    - Company company
    - Date beginningDate
    - Date endingDate
    - String chosenAlg
    - int clientsNum
    - int processTestsNum
    - ArrayList<int[]> testInfoDay
    - ArrayList<int[]> testInfoWeek
    - ArrayList<int[]> testInfoMonth
    - ArrayList<int[]> testInfoYear
    - Date[] worstSubInt
    + getClientsNum()
    + getProcessTestsNum()
    + getTestInfoDay()
    + getTestInfoWeek()
    + getTestInfoMonth()
    + getTestInfoYear()
    + getWorstSubInt()
    + getClientsInfoPerInterval(days)
    + getNumTestsProcessedInterval(days)
    + getTestInfoPerDay(days)
    + getTestInfoPerWeek(days)
    + getTestInfoPerMonth(days)
    + getTestInfoPerYear(days)
    + getDays(beginningDay, endingDay)
    + makeIntervalArray(days)
    + findWorstSubIntWithChosenAlgorithm(days, chosenAlgorithm)
    + getChosenAlgorithmAdapter(chosenAlgorithm)
}

}

package Interfaces {

interface SubMaxSumAlgorithms <<interface>> {
    +findSubMaxSum(interval)
}

}

package Store {

class TestStore {
    + getNumTestsWaitingForResultsDayOrInterval(beginningDay, endingDay)
    + getNumTestsWaitingForDiagnosisDayOrInterval(beginningDay, endingDay)
    + getNumberOfTestsByIntervalDateOfTestRegistration(beginningDay, endingDay)
    + getNumberOfTestsByIntervalDateOfDiagnosis(beginningDay, endingDay)
}

}

package Adapters{

class BenchmarkAlgorithmAdapter{
    +findSubMaxSum(interval)
}

class BruteForceAlgorithmAdapter{
    +findSubMaxSum(interval)
}

}

}

package Controller {

class CompanyPerformanceAnalysisController{
    - Company company
    - CompanyPerformance companyPerformance
    + setCompanyPerformance(beginningDay, endingDay, chosenAlgorithm)
    + getClientsInfoPerInterval()
    + getNumTestsProcessedInterval()
    + getTestInfoPerDay()
    + getTestInfoPerWeek()
    + getTestInfoPerMonth()
    + getTestInfoPerYear()
    + findWorstSubIntWithChosenAlgorithm()
}

}

package ThirdParty{

package APIs {

class Sum{
    +Max(seq)
}

}

class BruteForceAlgorithm{
    +Max(seq)
}

}

}

package UI {

package GUI{

class CompanyPerformanceAnalysisUI{
}

}

}

@enduml

@startuml
hide empty methods
hide empty attributes
skinparam classAttributeIconSize 0

package Core{

package Domain {

package Model{

class Company {
    - String designation
    - TestStore testStore
    + getTestStore()
}

class CompanyPerformance{
    - Company company
    - Date beginningDate
    - Date endingDate
    - String chosenAlg
    - int clientsNum
    - int processTestsNum
    - ArrayList<int[]> testInfoDay
    - ArrayList<int[]> testInfoWeek
    - ArrayList<int[]> testInfoMonth
    - ArrayList<int[]> testInfoYear
    - Date[] worstSubInt
    + getClientsNum()
    + getProcessTestsNum()
    + getTestInfoDay()
    + getTestInfoWeek()
    + getTestInfoMonth()
    + getTestInfoYear()
    + getWorstSubInt()
    + getClientsInfoPerInterval(days)
    + getNumTestsProcessedInterval(days)
    + getTestInfoPerDay(days)
    + getTestInfoPerWeek(days)
    + getTestInfoPerMonth(days)
    + getTestInfoPerYear(days)
    + getDays(beginningDay, endingDay)
    + makeIntervalArray(days)
    + findWorstSubIntWithChosenAlgorithm(days, chosenAlgorithm)
    + getChosenAlgorithmAdapter(chosenAlgorithm)
}

}

package Interfaces {

interface SubMaxSumAlgorithms <<interface>> {
    +findSubMaxSum(interval)
}

}

package Store {

class TestStore {
    + getNumTestsWaitingForResultsDayOrInterval(beginningDay, endingDay)
    + getNumTestsWaitingForDiagnosisDayOrInterval(beginningDay, endingDay)
    + getNumberOfTestsByIntervalDateOfTestRegistration(beginningDay, endingDay)
    + getNumberOfTestsByIntervalDateOfDiagnosis(beginningDay, endingDay)
}

}

package Adapters{

class BenchmarkAlgorithmAdapter{
    +findSubMaxSum(interval)
}

class BruteForceAlgorithmAdapter{
    +findSubMaxSum(interval)
}

}

}

package Controller {

class CompanyPerformanceAnalysisController{
    - Company company
    - CompanyPerformance companyPerformance
    + setCompanyPerformance(beginningDay, endingDay, chosenAlgorithm)
    + getClientsInfoPerInterval()
    + getNumTestsProcessedInterval()
    + getTestInfoPerDay()
    + getTestInfoPerWeek()
    + getTestInfoPerMonth()
    + getTestInfoPerYear()
    + findWorstSubIntWithChosenAlgorithm()
}

}

package ThirdParty{

package APIs {

class Sum{
    +Max(seq)
}

}

class BruteForceAlgorithm{
    +Max(seq)
}

}

}

package UI {

package GUI{

class CompanyPerformanceAnalysisUI{
}

}

}

@enduml

PlantUML version 1.2021.7(Sun May 23 13:40:07 BST 2021)
(GPL source distribution)
Java Runtime: OpenJDK Runtime Environment
JVM: Dynamic Code Evolution 64-Bit Server VM
Default Encoding: Cp1252
Language: pt
Country: PT
--></g></svg>