<?xml version="1.0" encoding="UTF-8" standalone="no"?><svg xmlns="http://www.w3.org/2000/svg" xmlns:xlink="http://www.w3.org/1999/xlink" contentScriptType="application/ecmascript" contentStyleType="text/css" height="397.5px" preserveAspectRatio="none" style="width:1668px;height:397px;background:#FFFFFF;" version="1.1" viewBox="0 0 1668 397" width="1668.75px" zoomAndPan="magnify"><defs><filter height="300%" id="fyye7byd1twma" width="300%" x="-1" y="-1"><feGaussianBlur result="blurOut" stdDeviation="2.5"/><feColorMatrix in="blurOut" result="blurOut2" type="matrix" values="0 0 0 0 0 0 0 0 0 0 0 0 0 0 0 0 0 0 .4 0"/><feOffset dx="5.0" dy="5.0" in="blurOut2" result="blurOut3"/><feBlend in="SourceGraphic" in2="blurOut3" mode="normal"/></filter></defs><g><!--MD5=[2c2e2644034c00788261e03c85b06837]
cluster Core--><polygon fill="#FFFFFF" filter="url(#fyye7byd1twma)" points="20,7.5,70,7.5,78.75,37.0117,1250,37.0117,1250,388.75,20,388.75,20,7.5" style="stroke:#000000;stroke-width:1.875;"/><line style="stroke:#000000;stroke-width:1.875;" x1="20" x2="78.75" y1="37.0117" y2="37.0117"/><text fill="#000000" font-family="sans-serif" font-size="17.5" font-weight="bold" lengthAdjust="spacing" textLength="42.5" x="25" y="28.1665">Core</text><!--MD5=[121a8bf1197281ab89ed693fab589f94]
cluster Domain--><polygon fill="#FFFFFF" filter="url(#fyye7byd1twma)" points="630,62.5,702.5,62.5,711.25,92.0117,1220,92.0117,1220,358.75,630,358.75,630,62.5" style="stroke:#000000;stroke-width:1.875;"/><line style="stroke:#000000;stroke-width:1.875;" x1="630" x2="711.25" y1="92.0117" y2="92.0117"/><text fill="#000000" font-family="sans-serif" font-size="17.5" font-weight="bold" lengthAdjust="spacing" textLength="65" x="635" y="83.1665">Domain</text><!--MD5=[15636c1ca4a123c16a2a1a8e90aca7a9]
cluster Model--><polygon fill="#FFFFFF" filter="url(#fyye7byd1twma)" points="997.5,117.5,1060,117.5,1068.75,147.0117,1190,147.0117,1190,328.75,997.5,328.75,997.5,117.5" style="stroke:#000000;stroke-width:1.875;"/><line style="stroke:#000000;stroke-width:1.875;" x1="997.5" x2="1068.75" y1="147.0117" y2="147.0117"/><text fill="#000000" font-family="sans-serif" font-size="17.5" font-weight="bold" lengthAdjust="spacing" textLength="55" x="1002.5" y="138.1665">Model</text><!--MD5=[7ce1723ddb6e6233854253973eae5a71]
cluster Store--><polygon fill="#FFFFFF" filter="url(#fyye7byd1twma)" points="660,156.875,715,156.875,723.75,186.3867,967.5,186.3867,967.5,289.375,660,289.375,660,156.875" style="stroke:#000000;stroke-width:1.875;"/><line style="stroke:#000000;stroke-width:1.875;" x1="660" x2="723.75" y1="186.3867" y2="186.3867"/><text fill="#000000" font-family="sans-serif" font-size="17.5" font-weight="bold" lengthAdjust="spacing" textLength="47.5" x="665" y="177.5415">Store</text><!--MD5=[1f2cfc53d9d308f53762fd0fcbaa4873]
cluster Controller--><polygon fill="#FFFFFF" filter="url(#fyye7byd1twma)" points="50,126.25,146.25,126.25,155,155.7617,600,155.7617,600,320,50,320,50,126.25" style="stroke:#000000;stroke-width:1.875;"/><line style="stroke:#000000;stroke-width:1.875;" x1="50" x2="155" y1="155.7617" y2="155.7617"/><text fill="#000000" font-family="sans-serif" font-size="17.5" font-weight="bold" lengthAdjust="spacing" textLength="88.75" x="55" y="146.9165">Controller</text><!--MD5=[9681dc6e01e10c6b4fe06895ae94f592]
cluster UI--><polygon fill="#FFFFFF" filter="url(#fyye7byd1twma)" points="1280,115.625,1305,115.625,1313.75,145.1367,1647.5,145.1367,1647.5,305.625,1280,305.625,1280,115.625" style="stroke:#000000;stroke-width:1.875;"/><line style="stroke:#000000;stroke-width:1.875;" x1="1280" x2="1313.75" y1="145.1367" y2="145.1367"/><text fill="#000000" font-family="sans-serif" font-size="17.5" font-weight="bold" lengthAdjust="spacing" textLength="17.5" x="1285" y="136.2915">UI</text><!--MD5=[b27c5c9af3cea12247b1c4c8d3c78770]
cluster GUI--><polygon fill="#FFFFFF" filter="url(#fyye7byd1twma)" points="1310,170.625,1348.75,170.625,1357.5,200.1367,1617.5,200.1367,1617.5,275.625,1310,275.625,1310,170.625" style="stroke:#000000;stroke-width:1.875;"/><line style="stroke:#000000;stroke-width:1.875;" x1="1310" x2="1357.5" y1="200.1367" y2="200.1367"/><text fill="#000000" font-family="sans-serif" font-size="17.5" font-weight="bold" lengthAdjust="spacing" textLength="31.25" x="1315" y="191.2915">GUI</text><!--MD5=[02e4b9b7573f1156f41e60aa5b4e25a4]
class Company--><rect codeLine="12" fill="#FEFECE" filter="url(#fyye7byd1twma)" height="146.4746" id="Company" style="stroke:#A80036;stroke-width:1.875;" width="152.5" x="1017.5" y="162.5"/><ellipse cx="1057.0625" cy="182.5" fill="#ADD1B2" rx="13.75" ry="13.75" style="stroke:#A80036;stroke-width:1.25;"/><path d="M1059.5625,178.125 Q1059.8164,177.5 1060.1094,177.1875 Q1060.4023,176.875 1060.7344,176.875 Q1061.3203,176.875 1061.6914,177.2266 Q1062.0625,177.5781 1062.0625,178.3984 L1062.0625,180.3516 Q1062.0625,181.1719 1061.7109,181.5234 Q1061.3594,181.875 1060.8125,181.875 Q1060.3242,181.875 1060.0117,181.6602 Q1059.6992,181.4453 1059.5625,180.8789 Q1059.5039,180.4883 1059.2891,180.2734 Q1058.8984,179.8633 1058.1953,179.6289 Q1057.4922,179.375 1056.7891,179.375 Q1055.9102,179.375 1055.168,179.7266 Q1054.4453,180.0781 1053.8789,180.8594 Q1053.3125,181.6406 1053.3125,182.7148 L1053.3125,183.8672 Q1053.3125,185.1563 1054.3672,186.0156 Q1055.4219,186.875 1057.2969,186.875 Q1058.4102,186.875 1059.1914,186.6211 Q1059.6406,186.4844 1060.1484,186.0352 Q1060.4805,185.7813 1060.6563,185.7031 Q1060.832,185.625 1061.0469,185.625 Q1061.457,185.625 1061.75,185.957 Q1062.0625,186.2695 1062.0625,186.7188 Q1062.0625,187.1484 1061.6328,187.6563 Q1061.0078,188.3984 1060.0117,188.8086 Q1058.7031,189.375 1057.1016,189.375 Q1055.2266,189.375 1053.7227,188.6328 Q1052.5117,188.0469 1051.6523,186.7773 Q1050.8125,185.5078 1050.8125,184.0039 L1050.8125,182.6367 Q1050.8125,181.0742 1051.5547,179.707 Q1052.3164,178.3398 1053.625,177.6172 Q1054.9531,176.875 1056.4375,176.875 Q1057.3359,176.875 1058.1172,177.1875 Q1058.8984,177.5 1059.5625,178.125 Z " fill="#000000"/><text fill="#000000" font-family="sans-serif" font-size="15" lengthAdjust="spacing" textLength="66.25" x="1079.1875" y="188.6377">Company</text><line style="stroke:#A80036;stroke-width:1.875;" x1="1018.75" x2="1168.75" y1="202.5" y2="202.5"/><text fill="#000000" font-family="sans-serif" font-size="13.75" lengthAdjust="spacing" textLength="112.5" x="1025" y="221.7737">-String designation</text><text fill="#000000" font-family="sans-serif" font-size="13.75" lengthAdjust="spacing" textLength="122.5" x="1025" y="239.0686">-TestStore testStore</text><text fill="#000000" font-family="sans-serif" font-size="13.75" lengthAdjust="spacing" textLength="137.5" x="1025" y="256.3635">-ClientStore clientStore</text><line style="stroke:#A80036;stroke-width:1.875;" x1="1018.75" x2="1168.75" y1="264.3848" y2="264.3848"/><text fill="#000000" font-family="sans-serif" font-size="13.75" lengthAdjust="spacing" textLength="95" x="1025" y="283.6584">+getTestStore()</text><text fill="#000000" font-family="sans-serif" font-size="13.75" lengthAdjust="spacing" textLength="101.25" x="1025" y="300.9534">+getClientStore()</text><!--MD5=[0f6f7964b844a64b0496af0dda7914bd]
class TestStore--><rect codeLine="24" fill="#FEFECE" filter="url(#fyye7byd1twma)" height="67.2949" id="TestStore" style="stroke:#A80036;stroke-width:1.875;" width="106.25" x="840.625" y="201.875"/><ellipse cx="859.375" cy="221.875" fill="#ADD1B2" rx="13.75" ry="13.75" style="stroke:#A80036;stroke-width:1.25;"/><path d="M861.875,217.5 Q862.1289,216.875 862.4219,216.5625 Q862.7148,216.25 863.0469,216.25 Q863.6328,216.25 864.0039,216.6016 Q864.375,216.9531 864.375,217.7734 L864.375,219.7266 Q864.375,220.5469 864.0234,220.8984 Q863.6719,221.25 863.125,221.25 Q862.6367,221.25 862.3242,221.0352 Q862.0117,220.8203 861.875,220.2539 Q861.8164,219.8633 861.6016,219.6484 Q861.2109,219.2383 860.5078,219.0039 Q859.8047,218.75 859.1016,218.75 Q858.2227,218.75 857.4805,219.1016 Q856.7578,219.4531 856.1914,220.2344 Q855.625,221.0156 855.625,222.0898 L855.625,223.2422 Q855.625,224.5313 856.6797,225.3906 Q857.7344,226.25 859.6094,226.25 Q860.7227,226.25 861.5039,225.9961 Q861.9531,225.8594 862.4609,225.4102 Q862.793,225.1563 862.9688,225.0781 Q863.1445,225 863.3594,225 Q863.7695,225 864.0625,225.332 Q864.375,225.6445 864.375,226.0938 Q864.375,226.5234 863.9453,227.0313 Q863.3203,227.7734 862.3242,228.1836 Q861.0156,228.75 859.4141,228.75 Q857.5391,228.75 856.0352,228.0078 Q854.8242,227.4219 853.9648,226.1523 Q853.125,224.8828 853.125,223.3789 L853.125,222.0117 Q853.125,220.4492 853.8672,219.082 Q854.6289,217.7148 855.9375,216.9922 Q857.2656,216.25 858.75,216.25 Q859.6484,216.25 860.4297,216.5625 Q861.2109,216.875 861.875,217.5 Z " fill="#000000"/><text fill="#000000" font-family="sans-serif" font-size="15" lengthAdjust="spacing" textLength="66.25" x="876.875" y="228.0127">TestStore</text><line style="stroke:#A80036;stroke-width:1.875;" x1="841.875" x2="945.625" y1="241.875" y2="241.875"/><text fill="#000000" font-family="sans-serif" font-size="13.75" lengthAdjust="spacing" textLength="82.5" x="848.125" y="261.1487">+getTestsInfo</text><!--MD5=[55cb992be19579b505cea3c5691093cb]
class ClientStore--><rect codeLine="28" fill="#FEFECE" filter="url(#fyye7byd1twma)" height="67.2949" id="ClientStore" style="stroke:#A80036;stroke-width:1.875;" width="116.25" x="680.625" y="201.875"/><ellipse cx="699.375" cy="221.875" fill="#ADD1B2" rx="13.75" ry="13.75" style="stroke:#A80036;stroke-width:1.25;"/><path d="M701.875,217.5 Q702.1289,216.875 702.4219,216.5625 Q702.7148,216.25 703.0469,216.25 Q703.6328,216.25 704.0039,216.6016 Q704.375,216.9531 704.375,217.7734 L704.375,219.7266 Q704.375,220.5469 704.0234,220.8984 Q703.6719,221.25 703.125,221.25 Q702.6367,221.25 702.3242,221.0352 Q702.0117,220.8203 701.875,220.2539 Q701.8164,219.8633 701.6016,219.6484 Q701.2109,219.2383 700.5078,219.0039 Q699.8047,218.75 699.1016,218.75 Q698.2227,218.75 697.4805,219.1016 Q696.7578,219.4531 696.1914,220.2344 Q695.625,221.0156 695.625,222.0898 L695.625,223.2422 Q695.625,224.5313 696.6797,225.3906 Q697.7344,226.25 699.6094,226.25 Q700.7227,226.25 701.5039,225.9961 Q701.9531,225.8594 702.4609,225.4102 Q702.793,225.1563 702.9688,225.0781 Q703.1445,225 703.3594,225 Q703.7695,225 704.0625,225.332 Q704.375,225.6445 704.375,226.0938 Q704.375,226.5234 703.9453,227.0313 Q703.3203,227.7734 702.3242,228.1836 Q701.0156,228.75 699.4141,228.75 Q697.5391,228.75 696.0352,228.0078 Q694.8242,227.4219 693.9648,226.1523 Q693.125,224.8828 693.125,223.3789 L693.125,222.0117 Q693.125,220.4492 693.8672,219.082 Q694.6289,217.7148 695.9375,216.9922 Q697.2656,216.25 698.75,216.25 Q699.6484,216.25 700.4297,216.5625 Q701.2109,216.875 701.875,217.5 Z " fill="#000000"/><text fill="#000000" font-family="sans-serif" font-size="15" lengthAdjust="spacing" textLength="76.25" x="716.875" y="228.0127">ClientStore</text><line style="stroke:#A80036;stroke-width:1.875;" x1="681.875" x2="795.625" y1="241.875" y2="241.875"/><text fill="#000000" font-family="sans-serif" font-size="13.75" lengthAdjust="spacing" textLength="91.25" x="688.125" y="261.1487">+getClientInfo()</text><!--MD5=[670275f839cd0f6ae295f6f439fd6034]
class CompanyPerformanceAnalysisController--><rect codeLine="38" fill="#FEFECE" filter="url(#fyye7byd1twma)" height="129.1797" id="CompanyPerformanceAnalysisController" style="stroke:#A80036;stroke-width:1.875;" width="508.75" x="70.625" y="171.25"/><ellipse cx="179.6875" cy="191.25" fill="#ADD1B2" rx="13.75" ry="13.75" style="stroke:#A80036;stroke-width:1.25;"/><path d="M182.1875,186.875 Q182.4414,186.25 182.7344,185.9375 Q183.0273,185.625 183.3594,185.625 Q183.9453,185.625 184.3164,185.9766 Q184.6875,186.3281 184.6875,187.1484 L184.6875,189.1016 Q184.6875,189.9219 184.3359,190.2734 Q183.9844,190.625 183.4375,190.625 Q182.9492,190.625 182.6367,190.4102 Q182.3242,190.1953 182.1875,189.6289 Q182.1289,189.2383 181.9141,189.0234 Q181.5234,188.6133 180.8203,188.3789 Q180.1172,188.125 179.4141,188.125 Q178.5352,188.125 177.793,188.4766 Q177.0703,188.8281 176.5039,189.6094 Q175.9375,190.3906 175.9375,191.4648 L175.9375,192.6172 Q175.9375,193.9063 176.9922,194.7656 Q178.0469,195.625 179.9219,195.625 Q181.0352,195.625 181.8164,195.3711 Q182.2656,195.2344 182.7734,194.7852 Q183.1055,194.5313 183.2813,194.4531 Q183.457,194.375 183.6719,194.375 Q184.082,194.375 184.375,194.707 Q184.6875,195.0195 184.6875,195.4688 Q184.6875,195.8984 184.2578,196.4063 Q183.6328,197.1484 182.6367,197.5586 Q181.3281,198.125 179.7266,198.125 Q177.8516,198.125 176.3477,197.3828 Q175.1367,196.7969 174.2773,195.5273 Q173.4375,194.2578 173.4375,192.7539 L173.4375,191.3867 Q173.4375,189.8242 174.1797,188.457 Q174.9414,187.0898 176.25,186.3672 Q177.5781,185.625 179.0625,185.625 Q179.9609,185.625 180.7422,185.9375 Q181.5234,186.25 182.1875,186.875 Z " fill="#000000"/><text fill="#000000" font-family="sans-serif" font-size="15" lengthAdjust="spacing" textLength="280" x="205.3125" y="197.3877">CompanyPerformanceAnalysisController</text><line style="stroke:#A80036;stroke-width:1.875;" x1="71.875" x2="578.125" y1="211.25" y2="211.25"/><text fill="#000000" font-family="sans-serif" font-size="13.75" lengthAdjust="spacing" textLength="120" x="78.125" y="230.5237">-Company company</text><line style="stroke:#A80036;stroke-width:1.875;" x1="71.875" x2="578.125" y1="238.5449" y2="238.5449"/><text fill="#000000" font-family="sans-serif" font-size="13.75" lengthAdjust="spacing" textLength="122.5" x="78.125" y="257.8186">+getTestOverview()</text><text fill="#000000" font-family="sans-serif" font-size="13.75" lengthAdjust="spacing" textLength="493.75" x="78.125" y="275.1135">+findWorstSubIntWithBenchmarkAlgorithm(firstDayToAnalyse, lastDayToAnalyse)</text><text fill="#000000" font-family="sans-serif" font-size="13.75" lengthAdjust="spacing" textLength="491.25" x="78.125" y="292.4084">+findWorstSubIntWithBruteforceAlgorithm(firstDayToAnalyse, lastDayToAnalyse)</text><!--MD5=[3404723274ca4ec774b8d2f7e379376f]
class CompanyPerformanceAnalysisUI--><rect codeLine="53" fill="#FEFECE" filter="url(#fyye7byd1twma)" height="40" id="CompanyPerformanceAnalysisUI" style="stroke:#A80036;stroke-width:1.875;" width="267.5" x="1330" y="215.625"/><ellipse cx="1348.75" cy="235.625" fill="#ADD1B2" rx="13.75" ry="13.75" style="stroke:#A80036;stroke-width:1.25;"/><path d="M1351.25,231.25 Q1351.5039,230.625 1351.7969,230.3125 Q1352.0898,230 1352.4219,230 Q1353.0078,230 1353.3789,230.3516 Q1353.75,230.7031 1353.75,231.5234 L1353.75,233.4766 Q1353.75,234.2969 1353.3984,234.6484 Q1353.0469,235 1352.5,235 Q1352.0117,235 1351.6992,234.7852 Q1351.3867,234.5703 1351.25,234.0039 Q1351.1914,233.6133 1350.9766,233.3984 Q1350.5859,232.9883 1349.8828,232.7539 Q1349.1797,232.5 1348.4766,232.5 Q1347.5977,232.5 1346.8555,232.8516 Q1346.1328,233.2031 1345.5664,233.9844 Q1345,234.7656 1345,235.8398 L1345,236.9922 Q1345,238.2813 1346.0547,239.1406 Q1347.1094,240 1348.9844,240 Q1350.0977,240 1350.8789,239.7461 Q1351.3281,239.6094 1351.8359,239.1602 Q1352.168,238.9063 1352.3438,238.8281 Q1352.5195,238.75 1352.7344,238.75 Q1353.1445,238.75 1353.4375,239.082 Q1353.75,239.3945 1353.75,239.8438 Q1353.75,240.2734 1353.3203,240.7813 Q1352.6953,241.5234 1351.6992,241.9336 Q1350.3906,242.5 1348.7891,242.5 Q1346.9141,242.5 1345.4102,241.7578 Q1344.1992,241.1719 1343.3398,239.9023 Q1342.5,238.6328 1342.5,237.1289 L1342.5,235.7617 Q1342.5,234.1992 1343.2422,232.832 Q1344.0039,231.4648 1345.3125,230.7422 Q1346.6406,230 1348.125,230 Q1349.0234,230 1349.8047,230.3125 Q1350.5859,230.625 1351.25,231.25 Z " fill="#000000"/><text fill="#000000" font-family="sans-serif" font-size="15" lengthAdjust="spacing" textLength="227.5" x="1366.25" y="241.7627">CompanyPerformanceAnalysisUI</text><!--MD5=[4028e19c63d38fc1fa58e6da97111c58]
@startuml
hide empty methods
hide empty attributes
'left to right direction
skinparam classAttributeIconSize 0

package Core {

package Domain {

package Model{

class Company {
    -String designation
    -TestStore testStore
    -ClientStore clientStore
    +getTestStore()
    +getClientStore()
}

}

package Store {

class TestStore {
+getTestsInfo
}

class ClientStore {
+getClientInfo()
}

}

}

package Controller {

class CompanyPerformanceAnalysisController{
    -Company company
    +getTestOverview()
    +findWorstSubIntWithBenchmarkAlgorithm(firstDayToAnalyse, lastDayToAnalyse)
    +findWorstSubIntWithBruteforceAlgorithm(firstDayToAnalyse, lastDayToAnalyse)
}

}

}

package UI {

package GUI {

class CompanyPerformanceAnalysisUI{
}

}

}

@enduml

@startuml
hide empty methods
hide empty attributes
skinparam classAttributeIconSize 0

package Core {

package Domain {

package Model{

class Company {
    -String designation
    -TestStore testStore
    -ClientStore clientStore
    +getTestStore()
    +getClientStore()
}

}

package Store {

class TestStore {
+getTestsInfo
}

class ClientStore {
+getClientInfo()
}

}

}

package Controller {

class CompanyPerformanceAnalysisController{
    -Company company
    +getTestOverview()
    +findWorstSubIntWithBenchmarkAlgorithm(firstDayToAnalyse, lastDayToAnalyse)
    +findWorstSubIntWithBruteforceAlgorithm(firstDayToAnalyse, lastDayToAnalyse)
}

}

}

package UI {

package GUI {

class CompanyPerformanceAnalysisUI{
}

}

}

@enduml

PlantUML version 1.2021.7(Sun May 23 13:40:07 BST 2021)
(GPL source distribution)
Java Runtime: OpenJDK Runtime Environment
JVM: Dynamic Code Evolution 64-Bit Server VM
Default Encoding: Cp1252
Language: pt
Country: PT
--></g></svg>