<?xml version="1.0" encoding="UTF-8" standalone="no"?><svg xmlns="http://www.w3.org/2000/svg" xmlns:xlink="http://www.w3.org/1999/xlink" contentScriptType="application/ecmascript" contentStyleType="text/css" height="200px" preserveAspectRatio="none" style="width:948px;height:200px;background:#FFFFFF;" version="1.1" viewBox="0 0 948 200" width="948.75px" zoomAndPan="magnify"><defs><filter height="300%" id="fu6v8bttilno9" width="300%" x="-1" y="-1"><feGaussianBlur result="blurOut" stdDeviation="2.5"/><feColorMatrix in="blurOut" result="blurOut2" type="matrix" values="0 0 0 0 0 0 0 0 0 0 0 0 0 0 0 0 0 0 .4 0"/><feOffset dx="5.0" dy="5.0" in="blurOut2" result="blurOut3"/><feBlend in="SourceGraphic" in2="blurOut3" mode="normal"/></filter></defs><g><!--MD5=[02e4b9b7573f1156f41e60aa5b4e25a4]
class Company--><rect codeLine="7" fill="#FEFECE" filter="url(#fu6v8bttilno9)" height="67.2949" id="Company" style="stroke:#A80036;stroke-width:1.875;" width="106.25" x="52.5" y="8.75"/><ellipse cx="71.25" cy="28.75" fill="#ADD1B2" rx="13.75" ry="13.75" style="stroke:#A80036;stroke-width:1.25;"/><path d="M73.75,24.375 Q74.0039,23.75 74.2969,23.4375 Q74.5898,23.125 74.9219,23.125 Q75.5078,23.125 75.8789,23.4766 Q76.25,23.8281 76.25,24.6484 L76.25,26.6016 Q76.25,27.4219 75.8984,27.7734 Q75.5469,28.125 75,28.125 Q74.5117,28.125 74.1992,27.9102 Q73.8867,27.6953 73.75,27.1289 Q73.6914,26.7383 73.4766,26.5234 Q73.0859,26.1133 72.3828,25.8789 Q71.6797,25.625 70.9766,25.625 Q70.0977,25.625 69.3555,25.9766 Q68.6328,26.3281 68.0664,27.1094 Q67.5,27.8906 67.5,28.9648 L67.5,30.1172 Q67.5,31.4063 68.5547,32.2656 Q69.6094,33.125 71.4844,33.125 Q72.5977,33.125 73.3789,32.8711 Q73.8281,32.7344 74.3359,32.2852 Q74.668,32.0313 74.8438,31.9531 Q75.0195,31.875 75.2344,31.875 Q75.6445,31.875 75.9375,32.207 Q76.25,32.5195 76.25,32.9688 Q76.25,33.3984 75.8203,33.9063 Q75.1953,34.6484 74.1992,35.0586 Q72.8906,35.625 71.2891,35.625 Q69.4141,35.625 67.9102,34.8828 Q66.6992,34.2969 65.8398,33.0273 Q65,31.7578 65,30.2539 L65,28.8867 Q65,27.3242 65.7422,25.957 Q66.5039,24.5898 67.8125,23.8672 Q69.1406,23.125 70.625,23.125 Q71.5234,23.125 72.3047,23.4375 Q73.0859,23.75 73.75,24.375 Z " fill="#000000"/><text fill="#000000" font-family="sans-serif" font-size="15" lengthAdjust="spacing" textLength="66.25" x="88.75" y="34.8877">Company</text><line style="stroke:#A80036;stroke-width:1.875;" x1="53.75" x2="157.5" y1="48.75" y2="48.75"/><text fill="#000000" font-family="sans-serif" font-size="13.75" lengthAdjust="spacing" textLength="73.75" x="60" y="68.0237">-designation</text><!--MD5=[df38be88ccee13e832d6fafd6288a4ca]
class Test--><rect codeLine="11" fill="#FEFECE" filter="url(#fu6v8bttilno9)" height="101.8848" id="Test" style="stroke:#A80036;stroke-width:1.875;" width="158.75" x="772.5" y="38.75"/><ellipse cx="831.5625" cy="58.75" fill="#ADD1B2" rx="13.75" ry="13.75" style="stroke:#A80036;stroke-width:1.25;"/><path d="M834.0625,54.375 Q834.3164,53.75 834.6094,53.4375 Q834.9023,53.125 835.2344,53.125 Q835.8203,53.125 836.1914,53.4766 Q836.5625,53.8281 836.5625,54.6484 L836.5625,56.6016 Q836.5625,57.4219 836.2109,57.7734 Q835.8594,58.125 835.3125,58.125 Q834.8242,58.125 834.5117,57.9102 Q834.1992,57.6953 834.0625,57.1289 Q834.0039,56.7383 833.7891,56.5234 Q833.3984,56.1133 832.6953,55.8789 Q831.9922,55.625 831.2891,55.625 Q830.4102,55.625 829.668,55.9766 Q828.9453,56.3281 828.3789,57.1094 Q827.8125,57.8906 827.8125,58.9648 L827.8125,60.1172 Q827.8125,61.4063 828.8672,62.2656 Q829.9219,63.125 831.7969,63.125 Q832.9102,63.125 833.6914,62.8711 Q834.1406,62.7344 834.6484,62.2852 Q834.9805,62.0313 835.1563,61.9531 Q835.332,61.875 835.5469,61.875 Q835.957,61.875 836.25,62.207 Q836.5625,62.5195 836.5625,62.9688 Q836.5625,63.3984 836.1328,63.9063 Q835.5078,64.6484 834.5117,65.0586 Q833.2031,65.625 831.6016,65.625 Q829.7266,65.625 828.2227,64.8828 Q827.0117,64.2969 826.1523,63.0273 Q825.3125,61.7578 825.3125,60.2539 L825.3125,58.8867 Q825.3125,57.3242 826.0547,55.957 Q826.8164,54.5898 828.125,53.8672 Q829.4531,53.125 830.9375,53.125 Q831.8359,53.125 832.6172,53.4375 Q833.3984,53.75 834.0625,54.375 Z " fill="#000000"/><text fill="#000000" font-family="sans-serif" font-size="15" lengthAdjust="spacing" textLength="30" x="857.1875" y="64.8877">Test</text><line style="stroke:#A80036;stroke-width:1.875;" x1="773.75" x2="930" y1="78.75" y2="78.75"/><text fill="#000000" font-family="sans-serif" font-size="13.75" lengthAdjust="spacing" textLength="60" x="780" y="98.0237">-NhsCode</text><text fill="#000000" font-family="sans-serif" font-size="13.75" lengthAdjust="spacing" textLength="35" x="780" y="115.3186">-code</text><text fill="#000000" font-family="sans-serif" font-size="13.75" lengthAdjust="spacing" textLength="143.75" x="780" y="132.6135">-dateOfTestRegistration</text><!--MD5=[052425de1c0eb6cc1c1b48342b0bb88f]
class LaboratoryCoordinator--><rect codeLine="17" fill="#FEFECE" filter="url(#fu6v8bttilno9)" height="40" id="LaboratoryCoordinator" style="stroke:#A80036;stroke-width:1.875;" width="193.75" x="8.75" y="132.5"/><ellipse cx="27.5" cy="152.5" fill="#ADD1B2" rx="13.75" ry="13.75" style="stroke:#A80036;stroke-width:1.25;"/><path d="M30,148.125 Q30.2539,147.5 30.5469,147.1875 Q30.8398,146.875 31.1719,146.875 Q31.7578,146.875 32.1289,147.2266 Q32.5,147.5781 32.5,148.3984 L32.5,150.3516 Q32.5,151.1719 32.1484,151.5234 Q31.7969,151.875 31.25,151.875 Q30.7617,151.875 30.4492,151.6602 Q30.1367,151.4453 30,150.8789 Q29.9414,150.4883 29.7266,150.2734 Q29.3359,149.8633 28.6328,149.6289 Q27.9297,149.375 27.2266,149.375 Q26.3477,149.375 25.6055,149.7266 Q24.8828,150.0781 24.3164,150.8594 Q23.75,151.6406 23.75,152.7148 L23.75,153.8672 Q23.75,155.1563 24.8047,156.0156 Q25.8594,156.875 27.7344,156.875 Q28.8477,156.875 29.6289,156.6211 Q30.0781,156.4844 30.5859,156.0352 Q30.918,155.7813 31.0938,155.7031 Q31.2695,155.625 31.4844,155.625 Q31.8945,155.625 32.1875,155.957 Q32.5,156.2695 32.5,156.7188 Q32.5,157.1484 32.0703,157.6563 Q31.4453,158.3984 30.4492,158.8086 Q29.1406,159.375 27.5391,159.375 Q25.6641,159.375 24.1602,158.6328 Q22.9492,158.0469 22.0898,156.7773 Q21.25,155.5078 21.25,154.0039 L21.25,152.6367 Q21.25,151.0742 21.9922,149.707 Q22.7539,148.3398 24.0625,147.6172 Q25.3906,146.875 26.875,146.875 Q27.7734,146.875 28.5547,147.1875 Q29.3359,147.5 30,148.125 Z " fill="#000000"/><text fill="#000000" font-family="sans-serif" font-size="15" lengthAdjust="spacing" textLength="153.75" x="45" y="158.6377">LaboratoryCoordinator</text><!--MD5=[ac303f9d3ae5a280bcee843295a9d18a]
class CompanyPerformanceAnalysis--><rect codeLine="20" fill="#FEFECE" filter="url(#fu6v8bttilno9)" height="67.2949" id="CompanyPerformanceAnalysis" style="stroke:#A80036;stroke-width:1.875;" width="252.5" x="361.25" y="116.25"/><ellipse cx="380" cy="136.25" fill="#ADD1B2" rx="13.75" ry="13.75" style="stroke:#A80036;stroke-width:1.25;"/><path d="M382.5,131.875 Q382.7539,131.25 383.0469,130.9375 Q383.3398,130.625 383.6719,130.625 Q384.2578,130.625 384.6289,130.9766 Q385,131.3281 385,132.1484 L385,134.1016 Q385,134.9219 384.6484,135.2734 Q384.2969,135.625 383.75,135.625 Q383.2617,135.625 382.9492,135.4102 Q382.6367,135.1953 382.5,134.6289 Q382.4414,134.2383 382.2266,134.0234 Q381.8359,133.6133 381.1328,133.3789 Q380.4297,133.125 379.7266,133.125 Q378.8477,133.125 378.1055,133.4766 Q377.3828,133.8281 376.8164,134.6094 Q376.25,135.3906 376.25,136.4648 L376.25,137.6172 Q376.25,138.9063 377.3047,139.7656 Q378.3594,140.625 380.2344,140.625 Q381.3477,140.625 382.1289,140.3711 Q382.5781,140.2344 383.0859,139.7852 Q383.418,139.5313 383.5938,139.4531 Q383.7695,139.375 383.9844,139.375 Q384.3945,139.375 384.6875,139.707 Q385,140.0195 385,140.4688 Q385,140.8984 384.5703,141.4063 Q383.9453,142.1484 382.9492,142.5586 Q381.6406,143.125 380.0391,143.125 Q378.1641,143.125 376.6602,142.3828 Q375.4492,141.7969 374.5898,140.5273 Q373.75,139.2578 373.75,137.7539 L373.75,136.3867 Q373.75,134.8242 374.4922,133.457 Q375.2539,132.0898 376.5625,131.3672 Q377.8906,130.625 379.375,130.625 Q380.2734,130.625 381.0547,130.9375 Q381.8359,131.25 382.5,131.875 Z " fill="#000000"/><text fill="#000000" font-family="sans-serif" font-size="15" lengthAdjust="spacing" textLength="212.5" x="397.5" y="142.3877">CompanyPerformanceAnalysis</text><line style="stroke:#A80036;stroke-width:1.875;" x1="362.5" x2="612.5" y1="156.25" y2="156.25"/><text fill="#000000" font-family="sans-serif" font-size="13.75" lengthAdjust="spacing" textLength="78.75" x="368.75" y="175.5237">-worstSubInt</text><!--MD5=[7e4bc624457760b649895ff2ead938fa]
link Company to Test--><path codeLine="29" d="M159.05,44.4875 C266.8,48.8 521.65,60.0375 735,77.5 C747.075,78.4875 759.8375,79.7 772.3125,80.975 " fill="none" id="Company-Test" style="stroke:#A80036;stroke-width:1.25;"/><polygon fill="#000000" points="457.489,44.3409,446.4208,40.0022,445.9844,47.3366,457.489,44.3409" style="stroke:#000000;stroke-width:1.25;"/><text fill="#000000" font-family="sans-serif" font-size="16.25" lengthAdjust="spacing" textLength="66.25" x="462.5" y="50.6189">conducts</text><text fill="#000000" font-family="sans-serif" font-size="16.25" lengthAdjust="spacing" textLength="8.75" x="168.6231" y="63.3952">1</text><text fill="#000000" font-family="sans-serif" font-size="16.25" lengthAdjust="spacing" textLength="6.25" x="756.5018" y="98.0176">*</text><!--MD5=[0d0c29d46803ed8180724ab1158900d9]
link LaboratoryCoordinator to CompanyPerformanceAnalysis--><path codeLine="30" d="M202.85,155.525 C215.35,155.825 227.975,156.075 240,156.25 C277.2125,156.775 286.5375,156.9625 323.75,156.25 C335.8875,156.0125 348.5375,155.6875 361.175,155.3 " fill="none" id="LaboratoryCoordinator-CompanyPerformanceAnalysis" style="stroke:#A80036;stroke-width:1.25;"/><polygon fill="#000000" points="252.5,145.2108,241.1884,141.5533,241.1989,148.9006,252.5,145.2108" style="stroke:#000000;stroke-width:1.25;"/><text fill="#000000" font-family="sans-serif" font-size="16.25" lengthAdjust="spacing" textLength="65" x="257.5" y="151.8689">analyses</text><text fill="#000000" font-family="sans-serif" font-size="16.25" lengthAdjust="spacing" textLength="25" x="212.6224" y="173.5735">1..*</text><text fill="#000000" font-family="sans-serif" font-size="16.25" lengthAdjust="spacing" textLength="6.25" x="345.014" y="173.365">*</text><!--MD5=[9998b5a258ee6660099648093819515e]
link Company to CompanyPerformanceAnalysis--><path codeLine="31" d="M158.9,59.1125 C183.4375,66.825 213.15,75.9875 240,83.75 C279.2375,95.1 322.1625,106.875 361.0375,117.2875 " fill="none" id="Company-CompanyPerformanceAnalysis" style="stroke:#A80036;stroke-width:1.25;"/><polygon fill="#000000" points="271.6312,74.4483,261.7819,67.7909,259.7498,74.8516,271.6312,74.4483" style="stroke:#000000;stroke-width:1.25;"/><text fill="#000000" font-family="sans-serif" font-size="16.25" lengthAdjust="spacing" textLength="26.25" x="276.875" y="79.3689">has</text><text fill="#000000" font-family="sans-serif" font-size="16.25" lengthAdjust="spacing" textLength="8.75" x="168.8086" y="80.6108">1</text><text fill="#000000" font-family="sans-serif" font-size="16.25" lengthAdjust="spacing" textLength="6.25" x="344.866" y="132.4421">*</text><!--MD5=[8e4a637033e5a122b5efde72f17a21bc]
link CompanyPerformanceAnalysis to Test--><path codeLine="32" d="M613.7875,129.2625 C666.3,120.5625 725.7625,110.7 771.975,103.0375 " fill="none" id="CompanyPerformanceAnalysis-Test" style="stroke:#A80036;stroke-width:1.25;"/><polygon fill="#000000" points="663.6658,97.9475,651.9109,96.1725,653.1126,103.4209,663.6658,97.9475" style="stroke:#000000;stroke-width:1.25;"/><text fill="#000000" font-family="sans-serif" font-size="16.25" lengthAdjust="spacing" textLength="65" x="668.75" y="105.6189">analyses</text><text fill="#000000" font-family="sans-serif" font-size="16.25" lengthAdjust="spacing" textLength="8.75" x="623.7913" y="145.334">1</text><text fill="#000000" font-family="sans-serif" font-size="16.25" lengthAdjust="spacing" textLength="6.25" x="756.1252" y="122.6311">*</text><!--MD5=[291aeebb71e2e079d7017d7382b1838f]
@startuml

skinparam classAttributeIconSize 0
hide empty methods
hide empty attributes
left to right direction

class Company{
- designation
}

class Test{
- NhsCode
- code
- dateOfTestRegistration
}

class LaboratoryCoordinator{
}

class CompanyPerformanceAnalysis{
'- firstDayToAnalyse
'- lastDayToAnalyse
'- chosenAlgorithm
- worstSubInt
'- statistics
'- graphs
}

Company "1" - - "*" Test : conducts >
LaboratoryCoordinator "1..*" - - "*" CompanyPerformanceAnalysis : analyses >
Company "1" - - "*" CompanyPerformanceAnalysis : has >
CompanyPerformanceAnalysis "1" - - "*" Test : analyses >

@enduml

@startuml

skinparam classAttributeIconSize 0
hide empty methods
hide empty attributes
left to right direction

class Company{
- designation
}

class Test{
- NhsCode
- code
- dateOfTestRegistration
}

class LaboratoryCoordinator{
}

class CompanyPerformanceAnalysis{
- worstSubInt
}

Company "1" - - "*" Test : conducts >
LaboratoryCoordinator "1..*" - - "*" CompanyPerformanceAnalysis : analyses >
Company "1" - - "*" CompanyPerformanceAnalysis : has >
CompanyPerformanceAnalysis "1" - - "*" Test : analyses >

@enduml

PlantUML version 1.2021.7(Sun May 23 13:40:07 BST 2021)
(GPL source distribution)
Java Runtime: OpenJDK Runtime Environment
JVM: Dynamic Code Evolution 64-Bit Server VM
Default Encoding: Cp1252
Language: pt
Country: PT
--></g></svg>