<?xml version="1.0" encoding="UTF-8" standalone="no"?><svg xmlns="http://www.w3.org/2000/svg" xmlns:xlink="http://www.w3.org/1999/xlink" contentScriptType="application/ecmascript" contentStyleType="text/css" height="467.5px" preserveAspectRatio="none" style="width:2383px;height:467px;background:#FFFFFF;" version="1.1" viewBox="0 0 2383 467" width="2383.75px" zoomAndPan="magnify"><defs><filter height="300%" id="f1opwig295vpxu" width="300%" x="-1" y="-1"><feGaussianBlur result="blurOut" stdDeviation="2.5"/><feColorMatrix in="blurOut" result="blurOut2" type="matrix" values="0 0 0 0 0 0 0 0 0 0 0 0 0 0 0 0 0 0 .4 0"/><feOffset dx="5.0" dy="5.0" in="blurOut2" result="blurOut3"/><feBlend in="SourceGraphic" in2="blurOut3" mode="normal"/></filter></defs><g><!--MD5=[121a8bf1197281ab89ed693fab589f94]
cluster Domain--><polygon fill="#FFFFFF" filter="url(#f1opwig295vpxu)" points="20,7.5,92.5,7.5,101.25,37.0117,1435,37.0117,1435,458.75,20,458.75,20,7.5" style="stroke:#000000;stroke-width:1.875;"/><line style="stroke:#000000;stroke-width:1.875;" x1="20" x2="101.25" y1="37.0117" y2="37.0117"/><text fill="#000000" font-family="sans-serif" font-size="17.5" font-weight="bold" lengthAdjust="spacing" textLength="65" x="25" y="28.1665">Domain</text><!--MD5=[15636c1ca4a123c16a2a1a8e90aca7a9]
cluster Model--><polygon fill="#FFFFFF" filter="url(#f1opwig295vpxu)" points="983.75,66.25,1046.25,66.25,1055,95.7617,1405,95.7617,1405,428.75,983.75,428.75,983.75,66.25" style="stroke:#000000;stroke-width:1.875;"/><line style="stroke:#000000;stroke-width:1.875;" x1="983.75" x2="1055" y1="95.7617" y2="95.7617"/><text fill="#000000" font-family="sans-serif" font-size="17.5" font-weight="bold" lengthAdjust="spacing" textLength="55" x="988.75" y="86.9165">Model</text><!--MD5=[0b89f7d34c26fffbb81ea7301eb9df33]
cluster Interfaces--><polygon fill="#FFFFFF" filter="url(#f1opwig295vpxu)" points="50,100.625,146.25,100.625,155,130.1367,292.5,130.1367,292.5,243.125,50,243.125,50,100.625" style="stroke:#000000;stroke-width:1.875;"/><line style="stroke:#000000;stroke-width:1.875;" x1="50" x2="155" y1="130.1367" y2="130.1367"/><text fill="#000000" font-family="sans-serif" font-size="17.5" font-weight="bold" lengthAdjust="spacing" textLength="88.75" x="55" y="121.2915">Interfaces</text><!--MD5=[7ce1723ddb6e6233854253973eae5a71]
cluster Store--><polygon fill="#FFFFFF" filter="url(#f1opwig295vpxu)" points="322.5,62.5,377.5,62.5,386.25,92.0117,953.75,92.0117,953.75,281.25,322.5,281.25,322.5,62.5" style="stroke:#000000;stroke-width:1.875;"/><line style="stroke:#000000;stroke-width:1.875;" x1="322.5" x2="386.25" y1="92.0117" y2="92.0117"/><text fill="#000000" font-family="sans-serif" font-size="17.5" font-weight="bold" lengthAdjust="spacing" textLength="47.5" x="327.5" y="83.1665">Store</text><!--MD5=[1f2cfc53d9d308f53762fd0fcbaa4873]
cluster Controller--><polygon fill="#FFFFFF" filter="url(#f1opwig295vpxu)" points="1465,57.5,1561.25,57.5,1570,87.0117,2025,87.0117,2025,286.25,1465,286.25,1465,57.5" style="stroke:#000000;stroke-width:1.875;"/><line style="stroke:#000000;stroke-width:1.875;" x1="1465" x2="1570" y1="87.0117" y2="87.0117"/><text fill="#000000" font-family="sans-serif" font-size="17.5" font-weight="bold" lengthAdjust="spacing" textLength="88.75" x="1470" y="78.1665">Controller</text><!--MD5=[9681dc6e01e10c6b4fe06895ae94f592]
cluster UI--><polygon fill="#FFFFFF" filter="url(#f1opwig295vpxu)" points="2055,119.375,2080,119.375,2088.75,148.8867,2362.5,148.8867,2362.5,224.375,2055,224.375,2055,119.375" style="stroke:#000000;stroke-width:1.875;"/><line style="stroke:#000000;stroke-width:1.875;" x1="2055" x2="2088.75" y1="148.8867" y2="148.8867"/><text fill="#000000" font-family="sans-serif" font-size="17.5" font-weight="bold" lengthAdjust="spacing" textLength="17.5" x="2060" y="140.0415">UI</text><!--MD5=[02e4b9b7573f1156f41e60aa5b4e25a4]
class Company--><rect codeLine="11" fill="#FEFECE" filter="url(#f1opwig295vpxu)" height="146.4746" id="Company" style="stroke:#A80036;stroke-width:1.875;" width="152.5" x="1003.75" y="111.25"/><ellipse cx="1043.3125" cy="131.25" fill="#ADD1B2" rx="13.75" ry="13.75" style="stroke:#A80036;stroke-width:1.25;"/><path d="M1045.8125,126.875 Q1046.0664,126.25 1046.3594,125.9375 Q1046.6523,125.625 1046.9844,125.625 Q1047.5703,125.625 1047.9414,125.9766 Q1048.3125,126.3281 1048.3125,127.1484 L1048.3125,129.1016 Q1048.3125,129.9219 1047.9609,130.2734 Q1047.6094,130.625 1047.0625,130.625 Q1046.5742,130.625 1046.2617,130.4102 Q1045.9492,130.1953 1045.8125,129.6289 Q1045.7539,129.2383 1045.5391,129.0234 Q1045.1484,128.6133 1044.4453,128.3789 Q1043.7422,128.125 1043.0391,128.125 Q1042.1602,128.125 1041.418,128.4766 Q1040.6953,128.8281 1040.1289,129.6094 Q1039.5625,130.3906 1039.5625,131.4648 L1039.5625,132.6172 Q1039.5625,133.9063 1040.6172,134.7656 Q1041.6719,135.625 1043.5469,135.625 Q1044.6602,135.625 1045.4414,135.3711 Q1045.8906,135.2344 1046.3984,134.7852 Q1046.7305,134.5313 1046.9063,134.4531 Q1047.082,134.375 1047.2969,134.375 Q1047.707,134.375 1048,134.707 Q1048.3125,135.0195 1048.3125,135.4688 Q1048.3125,135.8984 1047.8828,136.4063 Q1047.2578,137.1484 1046.2617,137.5586 Q1044.9531,138.125 1043.3516,138.125 Q1041.4766,138.125 1039.9727,137.3828 Q1038.7617,136.7969 1037.9023,135.5273 Q1037.0625,134.2578 1037.0625,132.7539 L1037.0625,131.3867 Q1037.0625,129.8242 1037.8047,128.457 Q1038.5664,127.0898 1039.875,126.3672 Q1041.2031,125.625 1042.6875,125.625 Q1043.5859,125.625 1044.3672,125.9375 Q1045.1484,126.25 1045.8125,126.875 Z " fill="#000000"/><text fill="#000000" font-family="sans-serif" font-size="15" lengthAdjust="spacing" textLength="66.25" x="1065.4375" y="137.3877">Company</text><line style="stroke:#A80036;stroke-width:1.875;" x1="1005" x2="1155" y1="151.25" y2="151.25"/><text fill="#000000" font-family="sans-serif" font-size="13.75" lengthAdjust="spacing" textLength="112.5" x="1011.25" y="170.5237">-String designation</text><text fill="#000000" font-family="sans-serif" font-size="13.75" lengthAdjust="spacing" textLength="122.5" x="1011.25" y="187.8186">-TestStore testStore</text><text fill="#000000" font-family="sans-serif" font-size="13.75" lengthAdjust="spacing" textLength="137.5" x="1011.25" y="205.1135">-ClientStore clientStore</text><line style="stroke:#A80036;stroke-width:1.875;" x1="1005" x2="1155" y1="213.1348" y2="213.1348"/><text fill="#000000" font-family="sans-serif" font-size="13.75" lengthAdjust="spacing" textLength="95" x="1011.25" y="232.4084">+getTestStore()</text><text fill="#000000" font-family="sans-serif" font-size="13.75" lengthAdjust="spacing" textLength="101.25" x="1011.25" y="249.7034">+getClientStore()</text><!--MD5=[11bfefeec74d45075ceaf494a510e590]
class BenchmarkAlgorithm--><rect codeLine="19" fill="#FEFECE" filter="url(#f1opwig295vpxu)" height="67.2949" id="BenchmarkAlgorithm" style="stroke:#A80036;stroke-width:1.875;" width="183.75" x="1200.625" y="150.625"/><ellipse cx="1219.375" cy="170.625" fill="#ADD1B2" rx="13.75" ry="13.75" style="stroke:#A80036;stroke-width:1.25;"/><path d="M1221.875,166.25 Q1222.1289,165.625 1222.4219,165.3125 Q1222.7148,165 1223.0469,165 Q1223.6328,165 1224.0039,165.3516 Q1224.375,165.7031 1224.375,166.5234 L1224.375,168.4766 Q1224.375,169.2969 1224.0234,169.6484 Q1223.6719,170 1223.125,170 Q1222.6367,170 1222.3242,169.7852 Q1222.0117,169.5703 1221.875,169.0039 Q1221.8164,168.6133 1221.6016,168.3984 Q1221.2109,167.9883 1220.5078,167.7539 Q1219.8047,167.5 1219.1016,167.5 Q1218.2227,167.5 1217.4805,167.8516 Q1216.7578,168.2031 1216.1914,168.9844 Q1215.625,169.7656 1215.625,170.8398 L1215.625,171.9922 Q1215.625,173.2813 1216.6797,174.1406 Q1217.7344,175 1219.6094,175 Q1220.7227,175 1221.5039,174.7461 Q1221.9531,174.6094 1222.4609,174.1602 Q1222.793,173.9063 1222.9688,173.8281 Q1223.1445,173.75 1223.3594,173.75 Q1223.7695,173.75 1224.0625,174.082 Q1224.375,174.3945 1224.375,174.8438 Q1224.375,175.2734 1223.9453,175.7813 Q1223.3203,176.5234 1222.3242,176.9336 Q1221.0156,177.5 1219.4141,177.5 Q1217.5391,177.5 1216.0352,176.7578 Q1214.8242,176.1719 1213.9648,174.9023 Q1213.125,173.6328 1213.125,172.1289 L1213.125,170.7617 Q1213.125,169.1992 1213.8672,167.832 Q1214.6289,166.4648 1215.9375,165.7422 Q1217.2656,165 1218.75,165 Q1219.6484,165 1220.4297,165.3125 Q1221.2109,165.625 1221.875,166.25 Z " fill="#000000"/><text fill="#000000" font-family="sans-serif" font-size="15" lengthAdjust="spacing" textLength="143.75" x="1236.875" y="176.7627">BenchmarkAlgorithm</text><line style="stroke:#A80036;stroke-width:1.875;" x1="1201.875" x2="1383.125" y1="190.625" y2="190.625"/><text fill="#000000" font-family="sans-serif" font-size="13.75" lengthAdjust="spacing" textLength="158.75" x="1208.125" y="209.8987">+findSubMaxSum(interval)</text><!--MD5=[1dec90c14ec2ba3af2708f621be65d00]
class BruteForceAlgorithm--><rect codeLine="23" fill="#FEFECE" filter="url(#f1opwig295vpxu)" height="67.2949" id="BruteForceAlgorithm" style="stroke:#A80036;stroke-width:1.875;" width="180" x="1003.75" y="341.25"/><ellipse cx="1022.5" cy="361.25" fill="#ADD1B2" rx="13.75" ry="13.75" style="stroke:#A80036;stroke-width:1.25;"/><path d="M1025,356.875 Q1025.2539,356.25 1025.5469,355.9375 Q1025.8398,355.625 1026.1719,355.625 Q1026.7578,355.625 1027.1289,355.9766 Q1027.5,356.3281 1027.5,357.1484 L1027.5,359.1016 Q1027.5,359.9219 1027.1484,360.2734 Q1026.7969,360.625 1026.25,360.625 Q1025.7617,360.625 1025.4492,360.4102 Q1025.1367,360.1953 1025,359.6289 Q1024.9414,359.2383 1024.7266,359.0234 Q1024.3359,358.6133 1023.6328,358.3789 Q1022.9297,358.125 1022.2266,358.125 Q1021.3477,358.125 1020.6055,358.4766 Q1019.8828,358.8281 1019.3164,359.6094 Q1018.75,360.3906 1018.75,361.4648 L1018.75,362.6172 Q1018.75,363.9063 1019.8047,364.7656 Q1020.8594,365.625 1022.7344,365.625 Q1023.8477,365.625 1024.6289,365.3711 Q1025.0781,365.2344 1025.5859,364.7852 Q1025.918,364.5313 1026.0938,364.4531 Q1026.2695,364.375 1026.4844,364.375 Q1026.8945,364.375 1027.1875,364.707 Q1027.5,365.0195 1027.5,365.4688 Q1027.5,365.8984 1027.0703,366.4063 Q1026.4453,367.1484 1025.4492,367.5586 Q1024.1406,368.125 1022.5391,368.125 Q1020.6641,368.125 1019.1602,367.3828 Q1017.9492,366.7969 1017.0898,365.5273 Q1016.25,364.2578 1016.25,362.7539 L1016.25,361.3867 Q1016.25,359.8242 1016.9922,358.457 Q1017.7539,357.0898 1019.0625,356.3672 Q1020.3906,355.625 1021.875,355.625 Q1022.7734,355.625 1023.5547,355.9375 Q1024.3359,356.25 1025,356.875 Z " fill="#000000"/><text fill="#000000" font-family="sans-serif" font-size="15" lengthAdjust="spacing" textLength="140" x="1040" y="367.3877">BruteForceAlgorithm</text><line style="stroke:#A80036;stroke-width:1.875;" x1="1005" x2="1182.5" y1="381.25" y2="381.25"/><text fill="#000000" font-family="sans-serif" font-size="13.75" lengthAdjust="spacing" textLength="158.75" x="1011.25" y="400.5237">+findSubMaxSum(interval)</text><!--MD5=[03e21a3a74a4ec725edc90da8949a6b4]
class SubMaxSumAlgorithms--><rect codeLine="31" fill="#FEFECE" filter="url(#f1opwig295vpxu)" height="77.5293" id="SubMaxSumAlgorithms" style="stroke:#A80036;stroke-width:1.875;" width="202.5" x="70" y="145.625"/><ellipse cx="88.75" cy="170.7422" fill="#B4A7E5" rx="13.75" ry="13.75" style="stroke:#A80036;stroke-width:1.25;"/><path d="M90,166.9922 L90,174.4922 L92.5,174.4922 L93.1055,174.4922 L93.75,175.2734 L93.75,175.7422 L93.75,176.2109 L93.1055,176.9922 L92.5,176.9922 L85,176.9922 L84.3945,176.9922 L83.75,176.2109 L83.75,175.7422 L83.75,175.2734 L84.3945,174.4922 L85,174.4922 L87.5,174.4922 L87.5,166.9922 L85,166.9922 L84.3945,166.9922 L83.75,166.2109 L83.75,165.7422 L83.75,165.2734 L84.3945,164.4922 L85,164.4922 L92.5,164.4922 L93.1055,164.4922 L93.75,165.2734 L93.75,165.7422 L93.75,166.2109 L93.1055,166.9922 L92.5,166.9922 L90,166.9922 Z " fill="#000000"/><text fill="#000000" font-family="sans-serif" font-size="15" font-style="italic" lengthAdjust="spacing" textLength="76.25" x="149.375" y="167.4463">«interface»</text><text fill="#000000" font-family="sans-serif" font-size="15" font-style="italic" lengthAdjust="spacing" textLength="162.5" x="106.25" y="186.3135">SubMaxSumAlgorithms</text><line style="stroke:#A80036;stroke-width:1.875;" x1="71.25" x2="271.25" y1="195.8594" y2="195.8594"/><text fill="#000000" font-family="sans-serif" font-size="13.75" lengthAdjust="spacing" textLength="158.75" x="77.5" y="215.1331">+findSubMaxSum(interval)</text><!--MD5=[0f6f7964b844a64b0496af0dda7914bd]
class TestStore--><rect codeLine="39" fill="#FEFECE" filter="url(#f1opwig295vpxu)" height="153.7695" id="TestStore" style="stroke:#A80036;stroke-width:1.875;" width="430" x="503.75" y="107.5"/><ellipse cx="680.3125" cy="127.5" fill="#ADD1B2" rx="13.75" ry="13.75" style="stroke:#A80036;stroke-width:1.25;"/><path d="M682.8125,123.125 Q683.0664,122.5 683.3594,122.1875 Q683.6523,121.875 683.9844,121.875 Q684.5703,121.875 684.9414,122.2266 Q685.3125,122.5781 685.3125,123.3984 L685.3125,125.3516 Q685.3125,126.1719 684.9609,126.5234 Q684.6094,126.875 684.0625,126.875 Q683.5742,126.875 683.2617,126.6602 Q682.9492,126.4453 682.8125,125.8789 Q682.7539,125.4883 682.5391,125.2734 Q682.1484,124.8633 681.4453,124.6289 Q680.7422,124.375 680.0391,124.375 Q679.1602,124.375 678.418,124.7266 Q677.6953,125.0781 677.1289,125.8594 Q676.5625,126.6406 676.5625,127.7148 L676.5625,128.8672 Q676.5625,130.1563 677.6172,131.0156 Q678.6719,131.875 680.5469,131.875 Q681.6602,131.875 682.4414,131.6211 Q682.8906,131.4844 683.3984,131.0352 Q683.7305,130.7813 683.9063,130.7031 Q684.082,130.625 684.2969,130.625 Q684.707,130.625 685,130.957 Q685.3125,131.2695 685.3125,131.7188 Q685.3125,132.1484 684.8828,132.6563 Q684.2578,133.3984 683.2617,133.8086 Q681.9531,134.375 680.3516,134.375 Q678.4766,134.375 676.9727,133.6328 Q675.7617,133.0469 674.9023,131.7773 Q674.0625,130.5078 674.0625,129.0039 L674.0625,127.6367 Q674.0625,126.0742 674.8047,124.707 Q675.5664,123.3398 676.875,122.6172 Q678.2031,121.875 679.6875,121.875 Q680.5859,121.875 681.3672,122.1875 Q682.1484,122.5 682.8125,123.125 Z " fill="#000000"/><text fill="#000000" font-family="sans-serif" font-size="15" lengthAdjust="spacing" textLength="66.25" x="705.9375" y="133.6377">TestStore</text><line style="stroke:#A80036;stroke-width:1.875;" x1="505" x2="932.5" y1="147.5" y2="147.5"/><text fill="#000000" font-family="sans-serif" font-size="13.75" lengthAdjust="spacing" textLength="251.25" x="511.25" y="166.7737">+getNumTestsWaitingForResultsDay(day)</text><text fill="#000000" font-family="sans-serif" font-size="13.75" lengthAdjust="spacing" textLength="401.25" x="511.25" y="184.0686">+getNumTestsWaitingForResultsInterval(beginningDay, endingDay)</text><text fill="#000000" font-family="sans-serif" font-size="13.75" lengthAdjust="spacing" textLength="265" x="511.25" y="201.3635">+getNumTestsWaitingForDiagnosisDay(day)</text><text fill="#000000" font-family="sans-serif" font-size="13.75" lengthAdjust="spacing" textLength="415" x="511.25" y="218.6584">+getNumTestsWaitingForDiagnosisInterval(beginningDay, endingDay)</text><text fill="#000000" font-family="sans-serif" font-size="13.75" lengthAdjust="spacing" textLength="240" x="511.25" y="235.9534">+getNumTestsProcessedInLabDay(day)</text><text fill="#000000" font-family="sans-serif" font-size="13.75" lengthAdjust="spacing" textLength="390" x="511.25" y="253.2483">+getNumTestsProcessedInLabInterval(beginningDay, endingDay)</text><!--MD5=[55cb992be19579b505cea3c5691093cb]
class ClientStore--><rect codeLine="48" fill="#FEFECE" filter="url(#f1opwig295vpxu)" height="67.2949" id="ClientStore" style="stroke:#A80036;stroke-width:1.875;" width="116.25" x="343.125" y="150.625"/><ellipse cx="361.875" cy="170.625" fill="#ADD1B2" rx="13.75" ry="13.75" style="stroke:#A80036;stroke-width:1.25;"/><path d="M364.375,166.25 Q364.6289,165.625 364.9219,165.3125 Q365.2148,165 365.5469,165 Q366.1328,165 366.5039,165.3516 Q366.875,165.7031 366.875,166.5234 L366.875,168.4766 Q366.875,169.2969 366.5234,169.6484 Q366.1719,170 365.625,170 Q365.1367,170 364.8242,169.7852 Q364.5117,169.5703 364.375,169.0039 Q364.3164,168.6133 364.1016,168.3984 Q363.7109,167.9883 363.0078,167.7539 Q362.3047,167.5 361.6016,167.5 Q360.7227,167.5 359.9805,167.8516 Q359.2578,168.2031 358.6914,168.9844 Q358.125,169.7656 358.125,170.8398 L358.125,171.9922 Q358.125,173.2813 359.1797,174.1406 Q360.2344,175 362.1094,175 Q363.2227,175 364.0039,174.7461 Q364.4531,174.6094 364.9609,174.1602 Q365.293,173.9063 365.4688,173.8281 Q365.6445,173.75 365.8594,173.75 Q366.2695,173.75 366.5625,174.082 Q366.875,174.3945 366.875,174.8438 Q366.875,175.2734 366.4453,175.7813 Q365.8203,176.5234 364.8242,176.9336 Q363.5156,177.5 361.9141,177.5 Q360.0391,177.5 358.5352,176.7578 Q357.3242,176.1719 356.4648,174.9023 Q355.625,173.6328 355.625,172.1289 L355.625,170.7617 Q355.625,169.1992 356.3672,167.832 Q357.1289,166.4648 358.4375,165.7422 Q359.7656,165 361.25,165 Q362.1484,165 362.9297,165.3125 Q363.7109,165.625 364.375,166.25 Z " fill="#000000"/><text fill="#000000" font-family="sans-serif" font-size="15" lengthAdjust="spacing" textLength="76.25" x="379.375" y="176.7627">ClientStore</text><line style="stroke:#A80036;stroke-width:1.875;" x1="344.375" x2="458.125" y1="190.625" y2="190.625"/><text fill="#000000" font-family="sans-serif" font-size="13.75" lengthAdjust="spacing" textLength="76.25" x="350.625" y="209.8987">+getClients()</text><!--MD5=[670275f839cd0f6ae295f6f439fd6034]
class CompanyPerformanceAnalysisController--><rect codeLine="58" fill="#FEFECE" filter="url(#f1opwig295vpxu)" height="163.7695" id="CompanyPerformanceAnalysisController" style="stroke:#A80036;stroke-width:1.875;" width="518.75" x="1485.625" y="102.5"/><ellipse cx="1599.6875" cy="122.5" fill="#ADD1B2" rx="13.75" ry="13.75" style="stroke:#A80036;stroke-width:1.25;"/><path d="M1602.1875,118.125 Q1602.4414,117.5 1602.7344,117.1875 Q1603.0273,116.875 1603.3594,116.875 Q1603.9453,116.875 1604.3164,117.2266 Q1604.6875,117.5781 1604.6875,118.3984 L1604.6875,120.3516 Q1604.6875,121.1719 1604.3359,121.5234 Q1603.9844,121.875 1603.4375,121.875 Q1602.9492,121.875 1602.6367,121.6602 Q1602.3242,121.4453 1602.1875,120.8789 Q1602.1289,120.4883 1601.9141,120.2734 Q1601.5234,119.8633 1600.8203,119.6289 Q1600.1172,119.375 1599.4141,119.375 Q1598.5352,119.375 1597.793,119.7266 Q1597.0703,120.0781 1596.5039,120.8594 Q1595.9375,121.6406 1595.9375,122.7148 L1595.9375,123.8672 Q1595.9375,125.1563 1596.9922,126.0156 Q1598.0469,126.875 1599.9219,126.875 Q1601.0352,126.875 1601.8164,126.6211 Q1602.2656,126.4844 1602.7734,126.0352 Q1603.1055,125.7813 1603.2813,125.7031 Q1603.457,125.625 1603.6719,125.625 Q1604.082,125.625 1604.375,125.957 Q1604.6875,126.2695 1604.6875,126.7188 Q1604.6875,127.1484 1604.2578,127.6563 Q1603.6328,128.3984 1602.6367,128.8086 Q1601.3281,129.375 1599.7266,129.375 Q1597.8516,129.375 1596.3477,128.6328 Q1595.1367,128.0469 1594.2773,126.7773 Q1593.4375,125.5078 1593.4375,124.0039 L1593.4375,122.6367 Q1593.4375,121.0742 1594.1797,119.707 Q1594.9414,118.3398 1596.25,117.6172 Q1597.5781,116.875 1599.0625,116.875 Q1599.9609,116.875 1600.7422,117.1875 Q1601.5234,117.5 1602.1875,118.125 Z " fill="#000000"/><text fill="#000000" font-family="sans-serif" font-size="15" lengthAdjust="spacing" textLength="280" x="1625.3125" y="128.6377">CompanyPerformanceAnalysisController</text><line style="stroke:#A80036;stroke-width:1.875;" x1="1486.875" x2="2003.125" y1="142.5" y2="142.5"/><text fill="#000000" font-family="sans-serif" font-size="13.75" lengthAdjust="spacing" textLength="120" x="1493.125" y="161.7737">-Company company</text><line style="stroke:#A80036;stroke-width:1.875;" x1="1486.875" x2="2003.125" y1="169.7949" y2="169.7949"/><text fill="#000000" font-family="sans-serif" font-size="13.75" lengthAdjust="spacing" textLength="102.5" x="1493.125" y="189.0686">+getNumClients()</text><text fill="#000000" font-family="sans-serif" font-size="13.75" lengthAdjust="spacing" textLength="131.25" x="1493.125" y="206.3635">+getTestInfoDay(day)</text><text fill="#000000" font-family="sans-serif" font-size="13.75" lengthAdjust="spacing" textLength="281.25" x="1493.125" y="223.6584">+getTestInfoInterval(beginningDay, endingDay)</text><text fill="#000000" font-family="sans-serif" font-size="13.75" lengthAdjust="spacing" textLength="280" x="1493.125" y="240.9534">+makeIntervalArray(beginningDay, endingDay)</text><text fill="#000000" font-family="sans-serif" font-size="13.75" lengthAdjust="spacing" textLength="503.75" x="1493.125" y="258.2483">+findWorstSubIntWithChosenAlgorithm(beginningDay, endingDay, chosenAlgorithm)</text><!--MD5=[3404723274ca4ec774b8d2f7e379376f]
class CompanyPerformanceAnalysisUI--><rect codeLine="71" fill="#FEFECE" filter="url(#f1opwig295vpxu)" height="40" id="CompanyPerformanceAnalysisUI" style="stroke:#A80036;stroke-width:1.875;" width="267.5" x="2075" y="164.375"/><ellipse cx="2093.75" cy="184.375" fill="#ADD1B2" rx="13.75" ry="13.75" style="stroke:#A80036;stroke-width:1.25;"/><path d="M2096.25,180 Q2096.5039,179.375 2096.7969,179.0625 Q2097.0898,178.75 2097.4219,178.75 Q2098.0078,178.75 2098.3789,179.1016 Q2098.75,179.4531 2098.75,180.2734 L2098.75,182.2266 Q2098.75,183.0469 2098.3984,183.3984 Q2098.0469,183.75 2097.5,183.75 Q2097.0117,183.75 2096.6992,183.5352 Q2096.3867,183.3203 2096.25,182.7539 Q2096.1914,182.3633 2095.9766,182.1484 Q2095.5859,181.7383 2094.8828,181.5039 Q2094.1797,181.25 2093.4766,181.25 Q2092.5977,181.25 2091.8555,181.6016 Q2091.1328,181.9531 2090.5664,182.7344 Q2090,183.5156 2090,184.5898 L2090,185.7422 Q2090,187.0313 2091.0547,187.8906 Q2092.1094,188.75 2093.9844,188.75 Q2095.0977,188.75 2095.8789,188.4961 Q2096.3281,188.3594 2096.8359,187.9102 Q2097.168,187.6563 2097.3438,187.5781 Q2097.5195,187.5 2097.7344,187.5 Q2098.1445,187.5 2098.4375,187.832 Q2098.75,188.1445 2098.75,188.5938 Q2098.75,189.0234 2098.3203,189.5313 Q2097.6953,190.2734 2096.6992,190.6836 Q2095.3906,191.25 2093.7891,191.25 Q2091.9141,191.25 2090.4102,190.5078 Q2089.1992,189.9219 2088.3398,188.6523 Q2087.5,187.3828 2087.5,185.8789 L2087.5,184.5117 Q2087.5,182.9492 2088.2422,181.582 Q2089.0039,180.2148 2090.3125,179.4922 Q2091.6406,178.75 2093.125,178.75 Q2094.0234,178.75 2094.8047,179.0625 Q2095.5859,179.375 2096.25,180 Z " fill="#000000"/><text fill="#000000" font-family="sans-serif" font-size="15" lengthAdjust="spacing" textLength="227.5" x="2111.25" y="190.5127">CompanyPerformanceAnalysisUI</text><!--MD5=[888b3d82291963d7dc04d00acd60cd0c]
link Company to BenchmarkAlgorithm--><!--MD5=[09613af1eb37106b79d576b9cbf9f55b]
link Company to BruteForceAlgorithm--><!--MD5=[8be84a37e6082526b9d37a92003a570e]
@startuml
'skinparam linetype ortho
hide empty methods
hide empty attributes
'left to right direction
skinparam classAttributeIconSize 0

package Domain {

package Model{

class Company {
    -String designation
    -TestStore testStore
    -ClientStore clientStore
    +getTestStore()
    +getClientStore()
}

class BenchmarkAlgorithm{
    +findSubMaxSum(interval)
}

class BruteForceAlgorithm{
    +findSubMaxSum(interval)
}

}

package Interfaces {

interface SubMaxSumAlgorithms <<interface>> {
    +findSubMaxSum(interval)
}

}

package Store {

class TestStore {
    +getNumTestsWaitingForResultsDay(day)
    +getNumTestsWaitingForResultsInterval(beginningDay, endingDay)
    +getNumTestsWaitingForDiagnosisDay(day)
    +getNumTestsWaitingForDiagnosisInterval(beginningDay, endingDay)
    +getNumTestsProcessedInLabDay(day)
    +getNumTestsProcessedInLabInterval(beginningDay, endingDay)
}

class ClientStore {
    +getClients()
}

}

}

package Controller {

class CompanyPerformanceAnalysisController{
    -Company company
    +getNumClients()
    +getTestInfoDay(day)
    +getTestInfoInterval(beginningDay, endingDay)
    +makeIntervalArray(beginningDay, endingDay)
    +findWorstSubIntWithChosenAlgorithm(beginningDay, endingDay, chosenAlgorithm)
}

}

package UI {

class CompanyPerformanceAnalysisUI{
}

}

@enduml

@startuml
hide empty methods
hide empty attributes
skinparam classAttributeIconSize 0

package Domain {

package Model{

class Company {
    -String designation
    -TestStore testStore
    -ClientStore clientStore
    +getTestStore()
    +getClientStore()
}

class BenchmarkAlgorithm{
    +findSubMaxSum(interval)
}

class BruteForceAlgorithm{
    +findSubMaxSum(interval)
}

}

package Interfaces {

interface SubMaxSumAlgorithms <<interface>> {
    +findSubMaxSum(interval)
}

}

package Store {

class TestStore {
    +getNumTestsWaitingForResultsDay(day)
    +getNumTestsWaitingForResultsInterval(beginningDay, endingDay)
    +getNumTestsWaitingForDiagnosisDay(day)
    +getNumTestsWaitingForDiagnosisInterval(beginningDay, endingDay)
    +getNumTestsProcessedInLabDay(day)
    +getNumTestsProcessedInLabInterval(beginningDay, endingDay)
}

class ClientStore {
    +getClients()
}

}

}

package Controller {

class CompanyPerformanceAnalysisController{
    -Company company
    +getNumClients()
    +getTestInfoDay(day)
    +getTestInfoInterval(beginningDay, endingDay)
    +makeIntervalArray(beginningDay, endingDay)
    +findWorstSubIntWithChosenAlgorithm(beginningDay, endingDay, chosenAlgorithm)
}

}

package UI {

class CompanyPerformanceAnalysisUI{
}

}

@enduml

PlantUML version 1.2021.7(Sun May 23 13:40:07 BST 2021)
(GPL source distribution)
Java Runtime: OpenJDK Runtime Environment
JVM: Dynamic Code Evolution 64-Bit Server VM
Default Encoding: Cp1252
Language: pt
Country: PT
--></g></svg>