<?xml version="1.0" encoding="UTF-8" standalone="no"?><svg xmlns="http://www.w3.org/2000/svg" xmlns:xlink="http://www.w3.org/1999/xlink" contentScriptType="application/ecmascript" contentStyleType="text/css" height="241.25px" preserveAspectRatio="none" style="width:948px;height:241px;" version="1.1" viewBox="0 0 948 241" width="948.75px" zoomAndPan="magnify"><defs><filter height="300%" id="fdgef1l7ezaqs" width="300%" x="-1" y="-1"><feGaussianBlur result="blurOut" stdDeviation="2.5"/><feColorMatrix in="blurOut" result="blurOut2" type="matrix" values="0 0 0 0 0 0 0 0 0 0 0 0 0 0 0 0 0 0 .4 0"/><feOffset dx="5.0" dy="5.0" in="blurOut2" result="blurOut3"/><feBlend in="SourceGraphic" in2="blurOut3" mode="normal"/></filter></defs><g><!--MD5=[02e4b9b7573f1156f41e60aa5b4e25a4]
class Company--><rect codeLine="7" fill="#FEFECE" filter="url(#fdgef1l7ezaqs)" height="67.2949" id="Company" style="stroke:#A80036;stroke-width:1.875;" width="106.25" x="52.5" y="8.75"/><ellipse cx="71.25" cy="28.75" fill="#ADD1B2" rx="13.75" ry="13.75" style="stroke:#A80036;stroke-width:1.25;"/><path d="M73.75,24.375 Q74.0039,23.75 74.2969,23.4375 Q74.5898,23.125 74.9219,23.125 Q75.5078,23.125 75.8789,23.4766 Q76.25,23.8281 76.25,24.6484 L76.25,26.6016 Q76.25,27.4219 75.8984,27.7734 Q75.5469,28.125 75,28.125 Q74.5117,28.125 74.1992,27.9102 Q73.8867,27.6953 73.75,27.1289 Q73.6914,26.7383 73.4766,26.5234 Q73.0859,26.1133 72.3828,25.8789 Q71.6797,25.625 70.9766,25.625 Q70.0977,25.625 69.3555,25.9766 Q68.6328,26.3281 68.0664,27.1094 Q67.5,27.8906 67.5,28.9648 L67.5,30.1172 Q67.5,31.4063 68.5547,32.2656 Q69.6094,33.125 71.4844,33.125 Q72.5977,33.125 73.3789,32.8711 Q73.8281,32.7344 74.3359,32.2852 Q74.668,32.0313 74.8438,31.9531 Q75.0195,31.875 75.2344,31.875 Q75.6445,31.875 75.9375,32.207 Q76.25,32.5195 76.25,32.9688 Q76.25,33.3984 75.8203,33.9063 Q75.1953,34.6484 74.1992,35.0586 Q72.8906,35.625 71.2891,35.625 Q69.4141,35.625 67.9102,34.8828 Q66.6992,34.2969 65.8398,33.0273 Q65,31.7578 65,30.2539 L65,28.8867 Q65,27.3242 65.7422,25.957 Q66.5039,24.5898 67.8125,23.8672 Q69.1406,23.125 70.625,23.125 Q71.5234,23.125 72.3047,23.4375 Q73.0859,23.75 73.75,24.375 Z " fill="#000000"/><text fill="#000000" font-family="sans-serif" font-size="15" lengthAdjust="spacing" textLength="66.25" x="88.75" y="34.8877">Company</text><line style="stroke:#A80036;stroke-width:1.875;" x1="53.75" x2="157.5" y1="48.75" y2="48.75"/><text fill="#000000" font-family="sans-serif" font-size="13.75" lengthAdjust="spacing" textLength="73.75" x="60" y="68.0237">-designation</text><!--MD5=[df38be88ccee13e832d6fafd6288a4ca]
class Test--><rect codeLine="11" fill="#FEFECE" filter="url(#fdgef1l7ezaqs)" height="101.8848" id="Test" style="stroke:#A80036;stroke-width:1.875;" width="158.75" x="772.5" y="40"/><ellipse cx="831.5625" cy="60" fill="#ADD1B2" rx="13.75" ry="13.75" style="stroke:#A80036;stroke-width:1.25;"/><path d="M834.0625,55.625 Q834.3164,55 834.6094,54.6875 Q834.9023,54.375 835.2344,54.375 Q835.8203,54.375 836.1914,54.7266 Q836.5625,55.0781 836.5625,55.8984 L836.5625,57.8516 Q836.5625,58.6719 836.2109,59.0234 Q835.8594,59.375 835.3125,59.375 Q834.8242,59.375 834.5117,59.1602 Q834.1992,58.9453 834.0625,58.3789 Q834.0039,57.9883 833.7891,57.7734 Q833.3984,57.3633 832.6953,57.1289 Q831.9922,56.875 831.2891,56.875 Q830.4102,56.875 829.668,57.2266 Q828.9453,57.5781 828.3789,58.3594 Q827.8125,59.1406 827.8125,60.2148 L827.8125,61.3672 Q827.8125,62.6563 828.8672,63.5156 Q829.9219,64.375 831.7969,64.375 Q832.9102,64.375 833.6914,64.1211 Q834.1406,63.9844 834.6484,63.5352 Q834.9805,63.2813 835.1563,63.2031 Q835.332,63.125 835.5469,63.125 Q835.957,63.125 836.25,63.457 Q836.5625,63.7695 836.5625,64.2188 Q836.5625,64.6484 836.1328,65.1563 Q835.5078,65.8984 834.5117,66.3086 Q833.2031,66.875 831.6016,66.875 Q829.7266,66.875 828.2227,66.1328 Q827.0117,65.5469 826.1523,64.2773 Q825.3125,63.0078 825.3125,61.5039 L825.3125,60.1367 Q825.3125,58.5742 826.0547,57.207 Q826.8164,55.8398 828.125,55.1172 Q829.4531,54.375 830.9375,54.375 Q831.8359,54.375 832.6172,54.6875 Q833.3984,55 834.0625,55.625 Z " fill="#000000"/><text fill="#000000" font-family="sans-serif" font-size="15" lengthAdjust="spacing" textLength="30" x="857.1875" y="66.1377">Test</text><line style="stroke:#A80036;stroke-width:1.875;" x1="773.75" x2="930" y1="80" y2="80"/><text fill="#000000" font-family="sans-serif" font-size="13.75" lengthAdjust="spacing" textLength="60" x="780" y="99.2737">-NhsCode</text><text fill="#000000" font-family="sans-serif" font-size="13.75" lengthAdjust="spacing" textLength="35" x="780" y="116.5686">-code</text><text fill="#000000" font-family="sans-serif" font-size="13.75" lengthAdjust="spacing" textLength="143.75" x="780" y="133.8635">-dateOfTestRegistration</text><!--MD5=[052425de1c0eb6cc1c1b48342b0bb88f]
class LaboratoryCoordinator--><rect codeLine="17" fill="#FEFECE" filter="url(#fdgef1l7ezaqs)" height="40" id="LaboratoryCoordinator" style="stroke:#A80036;stroke-width:1.875;" width="193.75" x="8.75" y="145"/><ellipse cx="27.5" cy="165" fill="#ADD1B2" rx="13.75" ry="13.75" style="stroke:#A80036;stroke-width:1.25;"/><path d="M30,160.625 Q30.2539,160 30.5469,159.6875 Q30.8398,159.375 31.1719,159.375 Q31.7578,159.375 32.1289,159.7266 Q32.5,160.0781 32.5,160.8984 L32.5,162.8516 Q32.5,163.6719 32.1484,164.0234 Q31.7969,164.375 31.25,164.375 Q30.7617,164.375 30.4492,164.1602 Q30.1367,163.9453 30,163.3789 Q29.9414,162.9883 29.7266,162.7734 Q29.3359,162.3633 28.6328,162.1289 Q27.9297,161.875 27.2266,161.875 Q26.3477,161.875 25.6055,162.2266 Q24.8828,162.5781 24.3164,163.3594 Q23.75,164.1406 23.75,165.2148 L23.75,166.3672 Q23.75,167.6563 24.8047,168.5156 Q25.8594,169.375 27.7344,169.375 Q28.8477,169.375 29.6289,169.1211 Q30.0781,168.9844 30.5859,168.5352 Q30.918,168.2813 31.0938,168.2031 Q31.2695,168.125 31.4844,168.125 Q31.8945,168.125 32.1875,168.457 Q32.5,168.7695 32.5,169.2188 Q32.5,169.6484 32.0703,170.1563 Q31.4453,170.8984 30.4492,171.3086 Q29.1406,171.875 27.5391,171.875 Q25.6641,171.875 24.1602,171.1328 Q22.9492,170.5469 22.0898,169.2773 Q21.25,168.0078 21.25,166.5039 L21.25,165.1367 Q21.25,163.5742 21.9922,162.207 Q22.7539,160.8398 24.0625,160.1172 Q25.3906,159.375 26.875,159.375 Q27.7734,159.375 28.5547,159.6875 Q29.3359,160 30,160.625 Z " fill="#000000"/><text fill="#000000" font-family="sans-serif" font-size="15" lengthAdjust="spacing" textLength="153.75" x="45" y="171.1377">LaboratoryCoordinator</text><!--MD5=[ac303f9d3ae5a280bcee843295a9d18a]
class CompanyPerformanceAnalysis--><rect codeLine="20" fill="#FEFECE" filter="url(#fdgef1l7ezaqs)" height="119.1797" id="CompanyPerformanceAnalysis" style="stroke:#A80036;stroke-width:1.875;" width="252.5" x="361.25" y="105.625"/><ellipse cx="380" cy="125.625" fill="#ADD1B2" rx="13.75" ry="13.75" style="stroke:#A80036;stroke-width:1.25;"/><path d="M382.5,121.25 Q382.7539,120.625 383.0469,120.3125 Q383.3398,120 383.6719,120 Q384.2578,120 384.6289,120.3516 Q385,120.7031 385,121.5234 L385,123.4766 Q385,124.2969 384.6484,124.6484 Q384.2969,125 383.75,125 Q383.2617,125 382.9492,124.7852 Q382.6367,124.5703 382.5,124.0039 Q382.4414,123.6133 382.2266,123.3984 Q381.8359,122.9883 381.1328,122.7539 Q380.4297,122.5 379.7266,122.5 Q378.8477,122.5 378.1055,122.8516 Q377.3828,123.2031 376.8164,123.9844 Q376.25,124.7656 376.25,125.8398 L376.25,126.9922 Q376.25,128.2813 377.3047,129.1406 Q378.3594,130 380.2344,130 Q381.3477,130 382.1289,129.7461 Q382.5781,129.6094 383.0859,129.1602 Q383.418,128.9063 383.5938,128.8281 Q383.7695,128.75 383.9844,128.75 Q384.3945,128.75 384.6875,129.082 Q385,129.3945 385,129.8438 Q385,130.2734 384.5703,130.7813 Q383.9453,131.5234 382.9492,131.9336 Q381.6406,132.5 380.0391,132.5 Q378.1641,132.5 376.6602,131.7578 Q375.4492,131.1719 374.5898,129.9023 Q373.75,128.6328 373.75,127.1289 L373.75,125.7617 Q373.75,124.1992 374.4922,122.832 Q375.2539,121.4648 376.5625,120.7422 Q377.8906,120 379.375,120 Q380.2734,120 381.0547,120.3125 Q381.8359,120.625 382.5,121.25 Z " fill="#000000"/><text fill="#000000" font-family="sans-serif" font-size="15" lengthAdjust="spacing" textLength="212.5" x="397.5" y="131.7627">CompanyPerformanceAnalysis</text><line style="stroke:#A80036;stroke-width:1.875;" x1="362.5" x2="612.5" y1="145.625" y2="145.625"/><text fill="#000000" font-family="sans-serif" font-size="13.75" lengthAdjust="spacing" textLength="122.5" x="368.75" y="164.8987">-lastDaysToAnalyse</text><text fill="#000000" font-family="sans-serif" font-size="13.75" lengthAdjust="spacing" textLength="78.75" x="368.75" y="182.1936">-worstSubInt</text><text fill="#000000" font-family="sans-serif" font-size="13.75" lengthAdjust="spacing" textLength="58.75" x="368.75" y="199.4885">-statistics</text><text fill="#000000" font-family="sans-serif" font-size="13.75" lengthAdjust="spacing" textLength="47.5" x="368.75" y="216.7834">-graphs</text><!--MD5=[7e4bc624457760b649895ff2ead938fa]
link Company to Test--><path codeLine="27" d="M159.0375,44.9375 C202.975,47.0625 267.4875,50.325 323.75,53.75 C506.6375,64.8875 552.2625,69.2 735,82.5 C747.05,83.375 759.8,84.325 772.2625,85.2625 " fill="none" id="Company-Test" style="stroke:#A80036;stroke-width:1.25;"/><polygon fill="#000000" points="457.4865,45.6298,446.4456,41.2222,445.9635,48.5537,457.4865,45.6298" style="stroke:#000000;stroke-width:1.25;"/><text fill="#000000" font-family="sans-serif" font-size="16.25" lengthAdjust="spacing" textLength="66.25" x="462.5" y="51.8689">conducts</text><text fill="#000000" font-family="sans-serif" font-size="16.25" lengthAdjust="spacing" textLength="8.75" x="168.6086" y="63.9197">1</text><text fill="#000000" font-family="sans-serif" font-size="16.25" lengthAdjust="spacing" textLength="6.25" x="756.446" y="102.6563">*</text><!--MD5=[0d0c29d46803ed8180724ab1158900d9]
link LaboratoryCoordinator to CompanyPerformanceAnalysis--><path codeLine="28" d="M202.6125,165 C250.675,165 309.525,165 361.125,165 " fill="none" id="LaboratoryCoordinator-CompanyPerformanceAnalysis" style="stroke:#A80036;stroke-width:1.25;"/><polygon fill="#000000" points="252.5,153.9697,241.1936,150.2961,241.1936,157.6434,252.5,153.9697" style="stroke:#000000;stroke-width:1.25;"/><text fill="#000000" font-family="sans-serif" font-size="16.25" lengthAdjust="spacing" textLength="65" x="257.5" y="160.6189">analyses</text><text fill="#000000" font-family="sans-serif" font-size="16.25" lengthAdjust="spacing" textLength="25" x="212.3637" y="182.7791">1..*</text><text fill="#000000" font-family="sans-serif" font-size="16.25" lengthAdjust="spacing" textLength="6.25" x="344.9602" y="182.6349">*</text><!--MD5=[9998b5a258ee6660099648093819515e]
link Company to CompanyPerformanceAnalysis--><path codeLine="29" d="M158.825,59.275 C210.675,76.0125 292.3125,102.375 361.1,124.5875 " fill="none" id="Company-CompanyPerformanceAnalysis" style="stroke:#A80036;stroke-width:1.25;"/><polygon fill="#000000" points="271.5726,77.1402,261.9421,70.1701,259.6845,77.162,271.5726,77.1402" style="stroke:#000000;stroke-width:1.25;"/><text fill="#000000" font-family="sans-serif" font-size="16.25" lengthAdjust="spacing" textLength="26.25" x="276.875" y="81.8689">has</text><text fill="#000000" font-family="sans-serif" font-size="16.25" lengthAdjust="spacing" textLength="8.75" x="168.7207" y="80.8012">1</text><text fill="#000000" font-family="sans-serif" font-size="16.25" lengthAdjust="spacing" textLength="6.25" x="344.9332" y="139.1283">*</text><!--MD5=[8e4a637033e5a122b5efde72f17a21bc]
link CompanyPerformanceAnalysis to Test--><path codeLine="30" d="M613.7875,139.5125 C666.3,128.8125 725.7625,116.7 771.975,107.275 " fill="none" id="CompanyPerformanceAnalysis-Test" style="stroke:#A80036;stroke-width:1.25;"/><polygon fill="#000000" points="663.6241,102.7217,651.8119,101.3798,653.2791,108.5791,663.6241,102.7217" style="stroke:#000000;stroke-width:1.25;"/><text fill="#000000" font-family="sans-serif" font-size="16.25" lengthAdjust="spacing" textLength="65" x="668.75" y="110.6189">analyses</text><text fill="#000000" font-family="sans-serif" font-size="16.25" lengthAdjust="spacing" textLength="8.75" x="623.7913" y="155.196">1</text><text fill="#000000" font-family="sans-serif" font-size="16.25" lengthAdjust="spacing" textLength="6.25" x="756.1252" y="127.214">*</text><!--MD5=[00e31b94b8a5855d843f9c9510d91583]
@startuml

skinparam classAttributeIconSize 0
hide empty methods
hide empty attributes
left to right direction

class Company{
- designation
}

class Test{
- NhsCode
- code
- dateOfTestRegistration
}

class LaboratoryCoordinator{
}

class CompanyPerformanceAnalysis{
- lastDaysToAnalyse
- worstSubInt
- statistics
- graphs
}

Company "1" - - "*" Test : conducts >
LaboratoryCoordinator "1..*" - - "*" CompanyPerformanceAnalysis : analyses >
Company "1" - - "*" CompanyPerformanceAnalysis : has >
CompanyPerformanceAnalysis "1" - - "*" Test : analyses >

@enduml

PlantUML version 1.2021.5(Sun Apr 25 12:20:28 BST 2021)
(GPL source distribution)
Java Runtime: OpenJDK Runtime Environment
JVM: Dynamic Code Evolution 64-Bit Server VM
Default Encoding: Cp1252
Language: pt
Country: PT
--></g></svg>