<?xml version="1.0" encoding="UTF-8" standalone="no"?><svg xmlns="http://www.w3.org/2000/svg" xmlns:xlink="http://www.w3.org/1999/xlink" contentScriptType="application/ecmascript" contentStyleType="text/css" height="627.5px" preserveAspectRatio="none" style="width:575px;height:627px;background:#FFFFFF;" version="1.1" viewBox="0 0 575 627" width="575px" zoomAndPan="magnify"><defs><filter height="300%" id="f1996eqjs65da8" width="300%" x="-1" y="-1"><feGaussianBlur result="blurOut" stdDeviation="2.5"/><feColorMatrix in="blurOut" result="blurOut2" type="matrix" values="0 0 0 0 0 0 0 0 0 0 0 0 0 0 0 0 0 0 .4 0"/><feOffset dx="5.0" dy="5.0" in="blurOut2" result="blurOut3"/><feBlend in="SourceGraphic" in2="blurOut3" mode="normal"/></filter></defs><g><!--MD5=[02e4b9b7573f1156f41e60aa5b4e25a4]
class Company--><rect codeLine="7" fill="#FEFECE" filter="url(#f1996eqjs65da8)" height="67.2949" id="Company" style="stroke:#A80036;stroke-width:1.875;" width="106.25" x="52.5" y="221.25"/><ellipse cx="71.25" cy="241.25" fill="#ADD1B2" rx="13.75" ry="13.75" style="stroke:#A80036;stroke-width:1.25;"/><path d="M73.75,236.875 Q74.0039,236.25 74.2969,235.9375 Q74.5898,235.625 74.9219,235.625 Q75.5078,235.625 75.8789,235.9766 Q76.25,236.3281 76.25,237.1484 L76.25,239.1016 Q76.25,239.9219 75.8984,240.2734 Q75.5469,240.625 75,240.625 Q74.5117,240.625 74.1992,240.4102 Q73.8867,240.1953 73.75,239.6289 Q73.6914,239.2383 73.4766,239.0234 Q73.0859,238.6133 72.3828,238.3789 Q71.6797,238.125 70.9766,238.125 Q70.0977,238.125 69.3555,238.4766 Q68.6328,238.8281 68.0664,239.6094 Q67.5,240.3906 67.5,241.4648 L67.5,242.6172 Q67.5,243.9063 68.5547,244.7656 Q69.6094,245.625 71.4844,245.625 Q72.5977,245.625 73.3789,245.3711 Q73.8281,245.2344 74.3359,244.7852 Q74.668,244.5313 74.8438,244.4531 Q75.0195,244.375 75.2344,244.375 Q75.6445,244.375 75.9375,244.707 Q76.25,245.0195 76.25,245.4688 Q76.25,245.8984 75.8203,246.4063 Q75.1953,247.1484 74.1992,247.5586 Q72.8906,248.125 71.2891,248.125 Q69.4141,248.125 67.9102,247.3828 Q66.6992,246.7969 65.8398,245.5273 Q65,244.2578 65,242.7539 L65,241.3867 Q65,239.8242 65.7422,238.457 Q66.5039,237.0898 67.8125,236.3672 Q69.1406,235.625 70.625,235.625 Q71.5234,235.625 72.3047,235.9375 Q73.0859,236.25 73.75,236.875 Z " fill="#000000"/><text fill="#000000" font-family="sans-serif" font-size="15" lengthAdjust="spacing" textLength="66.25" x="88.75" y="247.3877">Company</text><line style="stroke:#A80036;stroke-width:1.875;" x1="53.75" x2="157.5" y1="261.25" y2="261.25"/><text fill="#000000" font-family="sans-serif" font-size="13.75" lengthAdjust="spacing" textLength="73.75" x="60" y="280.5237">-designation</text><!--MD5=[df38be88ccee13e832d6fafd6288a4ca]
class Test--><rect codeLine="11" fill="#FEFECE" filter="url(#f1996eqjs65da8)" height="101.8848" id="Test" style="stroke:#A80036;stroke-width:1.875;" width="158.75" x="380.625" y="275"/><ellipse cx="439.6875" cy="295" fill="#ADD1B2" rx="13.75" ry="13.75" style="stroke:#A80036;stroke-width:1.25;"/><path d="M442.1875,290.625 Q442.4414,290 442.7344,289.6875 Q443.0273,289.375 443.3594,289.375 Q443.9453,289.375 444.3164,289.7266 Q444.6875,290.0781 444.6875,290.8984 L444.6875,292.8516 Q444.6875,293.6719 444.3359,294.0234 Q443.9844,294.375 443.4375,294.375 Q442.9492,294.375 442.6367,294.1602 Q442.3242,293.9453 442.1875,293.3789 Q442.1289,292.9883 441.9141,292.7734 Q441.5234,292.3633 440.8203,292.1289 Q440.1172,291.875 439.4141,291.875 Q438.5352,291.875 437.793,292.2266 Q437.0703,292.5781 436.5039,293.3594 Q435.9375,294.1406 435.9375,295.2148 L435.9375,296.3672 Q435.9375,297.6563 436.9922,298.5156 Q438.0469,299.375 439.9219,299.375 Q441.0352,299.375 441.8164,299.1211 Q442.2656,298.9844 442.7734,298.5352 Q443.1055,298.2813 443.2813,298.2031 Q443.457,298.125 443.6719,298.125 Q444.082,298.125 444.375,298.457 Q444.6875,298.7695 444.6875,299.2188 Q444.6875,299.6484 444.2578,300.1563 Q443.6328,300.8984 442.6367,301.3086 Q441.3281,301.875 439.7266,301.875 Q437.8516,301.875 436.3477,301.1328 Q435.1367,300.5469 434.2773,299.2773 Q433.4375,298.0078 433.4375,296.5039 L433.4375,295.1367 Q433.4375,293.5742 434.1797,292.207 Q434.9414,290.8398 436.25,290.1172 Q437.5781,289.375 439.0625,289.375 Q439.9609,289.375 440.7422,289.6875 Q441.5234,290 442.1875,290.625 Z " fill="#000000"/><text fill="#000000" font-family="sans-serif" font-size="15" lengthAdjust="spacing" textLength="30" x="465.3125" y="301.1377">Test</text><line style="stroke:#A80036;stroke-width:1.875;" x1="381.875" x2="538.125" y1="315" y2="315"/><text fill="#000000" font-family="sans-serif" font-size="13.75" lengthAdjust="spacing" textLength="60" x="388.125" y="334.2737">-NhsCode</text><text fill="#000000" font-family="sans-serif" font-size="13.75" lengthAdjust="spacing" textLength="35" x="388.125" y="351.5686">-code</text><text fill="#000000" font-family="sans-serif" font-size="13.75" lengthAdjust="spacing" textLength="143.75" x="388.125" y="368.8635">-dateOfTestRegistration</text><!--MD5=[ed6624c6556d5e7b1bd23032162d20b7]
class Client--><rect codeLine="17" fill="#FEFECE" filter="url(#f1996eqjs65da8)" height="188.3594" id="Client" style="stroke:#A80036;stroke-width:1.875;" width="173.75" x="373.125" y="421.875"/><ellipse cx="434.6875" cy="441.875" fill="#ADD1B2" rx="13.75" ry="13.75" style="stroke:#A80036;stroke-width:1.25;"/><path d="M437.1875,437.5 Q437.4414,436.875 437.7344,436.5625 Q438.0273,436.25 438.3594,436.25 Q438.9453,436.25 439.3164,436.6016 Q439.6875,436.9531 439.6875,437.7734 L439.6875,439.7266 Q439.6875,440.5469 439.3359,440.8984 Q438.9844,441.25 438.4375,441.25 Q437.9492,441.25 437.6367,441.0352 Q437.3242,440.8203 437.1875,440.2539 Q437.1289,439.8633 436.9141,439.6484 Q436.5234,439.2383 435.8203,439.0039 Q435.1172,438.75 434.4141,438.75 Q433.5352,438.75 432.793,439.1016 Q432.0703,439.4531 431.5039,440.2344 Q430.9375,441.0156 430.9375,442.0898 L430.9375,443.2422 Q430.9375,444.5313 431.9922,445.3906 Q433.0469,446.25 434.9219,446.25 Q436.0352,446.25 436.8164,445.9961 Q437.2656,445.8594 437.7734,445.4102 Q438.1055,445.1563 438.2813,445.0781 Q438.457,445 438.6719,445 Q439.082,445 439.375,445.332 Q439.6875,445.6445 439.6875,446.0938 Q439.6875,446.5234 439.2578,447.0313 Q438.6328,447.7734 437.6367,448.1836 Q436.3281,448.75 434.7266,448.75 Q432.8516,448.75 431.3477,448.0078 Q430.1367,447.4219 429.2773,446.1523 Q428.4375,444.8828 428.4375,443.3789 L428.4375,442.0117 Q428.4375,440.4492 429.1797,439.082 Q429.9414,437.7148 431.25,436.9922 Q432.5781,436.25 434.0625,436.25 Q434.9609,436.25 435.7422,436.5625 Q436.5234,436.875 437.1875,437.5 Z " fill="#000000"/><text fill="#000000" font-family="sans-serif" font-size="15" lengthAdjust="spacing" textLength="40" x="460.3125" y="448.0127">Client</text><line style="stroke:#A80036;stroke-width:1.875;" x1="374.375" x2="545.625" y1="461.875" y2="461.875"/><text fill="#000000" font-family="sans-serif" font-size="13.75" lengthAdjust="spacing" textLength="158.75" x="380.625" y="481.1487">-clientsCitizenCardNumber</text><text fill="#000000" font-family="sans-serif" font-size="13.75" lengthAdjust="spacing" textLength="73.75" x="380.625" y="498.4436">-nhsNumber</text><text fill="#000000" font-family="sans-serif" font-size="13.75" lengthAdjust="spacing" textLength="58.75" x="380.625" y="515.7385">-birthDate</text><text fill="#000000" font-family="sans-serif" font-size="13.75" lengthAdjust="spacing" textLength="27.5" x="380.625" y="533.0334">-sex</text><text fill="#000000" font-family="sans-serif" font-size="13.75" lengthAdjust="spacing" textLength="65" x="380.625" y="550.3284">-tinNumber</text><text fill="#000000" font-family="sans-serif" font-size="13.75" lengthAdjust="spacing" textLength="35" x="380.625" y="567.6233">-email</text><text fill="#000000" font-family="sans-serif" font-size="13.75" lengthAdjust="spacing" textLength="37.5" x="380.625" y="584.9182">-name</text><text fill="#000000" font-family="sans-serif" font-size="13.75" lengthAdjust="spacing" textLength="88.75" x="380.625" y="602.2131">-phoneNumber</text><!--MD5=[052425de1c0eb6cc1c1b48342b0bb88f]
class LaboratoryCoordinator--><rect codeLine="28" fill="#FEFECE" filter="url(#f1996eqjs65da8)" height="40" id="LaboratoryCoordinator" style="stroke:#A80036;stroke-width:1.875;" width="193.75" x="8.75" y="378.75"/><ellipse cx="27.5" cy="398.75" fill="#ADD1B2" rx="13.75" ry="13.75" style="stroke:#A80036;stroke-width:1.25;"/><path d="M30,394.375 Q30.2539,393.75 30.5469,393.4375 Q30.8398,393.125 31.1719,393.125 Q31.7578,393.125 32.1289,393.4766 Q32.5,393.8281 32.5,394.6484 L32.5,396.6016 Q32.5,397.4219 32.1484,397.7734 Q31.7969,398.125 31.25,398.125 Q30.7617,398.125 30.4492,397.9102 Q30.1367,397.6953 30,397.1289 Q29.9414,396.7383 29.7266,396.5234 Q29.3359,396.1133 28.6328,395.8789 Q27.9297,395.625 27.2266,395.625 Q26.3477,395.625 25.6055,395.9766 Q24.8828,396.3281 24.3164,397.1094 Q23.75,397.8906 23.75,398.9648 L23.75,400.1172 Q23.75,401.4063 24.8047,402.2656 Q25.8594,403.125 27.7344,403.125 Q28.8477,403.125 29.6289,402.8711 Q30.0781,402.7344 30.5859,402.2852 Q30.918,402.0313 31.0938,401.9531 Q31.2695,401.875 31.4844,401.875 Q31.8945,401.875 32.1875,402.207 Q32.5,402.5195 32.5,402.9688 Q32.5,403.3984 32.0703,403.9063 Q31.4453,404.6484 30.4492,405.0586 Q29.1406,405.625 27.5391,405.625 Q25.6641,405.625 24.1602,404.8828 Q22.9492,404.2969 22.0898,403.0273 Q21.25,401.7578 21.25,400.2539 L21.25,398.8867 Q21.25,397.3242 21.9922,395.957 Q22.7539,394.5898 24.0625,393.8672 Q25.3906,393.125 26.875,393.125 Q27.7734,393.125 28.5547,393.4375 Q29.3359,393.75 30,394.375 Z " fill="#000000"/><text fill="#000000" font-family="sans-serif" font-size="15" lengthAdjust="spacing" textLength="153.75" x="45" y="404.8877">LaboratoryCoordinator</text><!--MD5=[dcf2a5f2a10777fb61a46b3b0525c1db]
class CompanyPerformance--><rect codeLine="31" fill="#FEFECE" filter="url(#f1996eqjs65da8)" height="222.9492" id="CompanyPerformance" style="stroke:#A80036;stroke-width:1.875;" width="195" x="362.5" y="8.75"/><ellipse cx="381.25" cy="28.75" fill="#ADD1B2" rx="13.75" ry="13.75" style="stroke:#A80036;stroke-width:1.25;"/><path d="M383.75,24.375 Q384.0039,23.75 384.2969,23.4375 Q384.5898,23.125 384.9219,23.125 Q385.5078,23.125 385.8789,23.4766 Q386.25,23.8281 386.25,24.6484 L386.25,26.6016 Q386.25,27.4219 385.8984,27.7734 Q385.5469,28.125 385,28.125 Q384.5117,28.125 384.1992,27.9102 Q383.8867,27.6953 383.75,27.1289 Q383.6914,26.7383 383.4766,26.5234 Q383.0859,26.1133 382.3828,25.8789 Q381.6797,25.625 380.9766,25.625 Q380.0977,25.625 379.3555,25.9766 Q378.6328,26.3281 378.0664,27.1094 Q377.5,27.8906 377.5,28.9648 L377.5,30.1172 Q377.5,31.4063 378.5547,32.2656 Q379.6094,33.125 381.4844,33.125 Q382.5977,33.125 383.3789,32.8711 Q383.8281,32.7344 384.3359,32.2852 Q384.668,32.0313 384.8438,31.9531 Q385.0195,31.875 385.2344,31.875 Q385.6445,31.875 385.9375,32.207 Q386.25,32.5195 386.25,32.9688 Q386.25,33.3984 385.8203,33.9063 Q385.1953,34.6484 384.1992,35.0586 Q382.8906,35.625 381.2891,35.625 Q379.4141,35.625 377.9102,34.8828 Q376.6992,34.2969 375.8398,33.0273 Q375,31.7578 375,30.2539 L375,28.8867 Q375,27.3242 375.7422,25.957 Q376.5039,24.5898 377.8125,23.8672 Q379.1406,23.125 380.625,23.125 Q381.5234,23.125 382.3047,23.4375 Q383.0859,23.75 383.75,24.375 Z " fill="#000000"/><text fill="#000000" font-family="sans-serif" font-size="15" lengthAdjust="spacing" textLength="155" x="398.75" y="34.8877">CompanyPerformance</text><line style="stroke:#A80036;stroke-width:1.875;" x1="363.75" x2="556.25" y1="48.75" y2="48.75"/><text fill="#000000" font-family="sans-serif" font-size="13.75" lengthAdjust="spacing" textLength="90" x="370" y="68.0237">-beginningDate</text><text fill="#000000" font-family="sans-serif" font-size="13.75" lengthAdjust="spacing" textLength="72.5" x="370" y="85.3186">-endingDate</text><text fill="#000000" font-family="sans-serif" font-size="13.75" lengthAdjust="spacing" textLength="70" x="370" y="102.6135">-chosenAlg</text><text fill="#000000" font-family="sans-serif" font-size="13.75" lengthAdjust="spacing" textLength="70" x="370" y="119.9084">-clientsNum</text><text fill="#000000" font-family="sans-serif" font-size="13.75" lengthAdjust="spacing" textLength="115" x="370" y="137.2034">-processTestsNum</text><text fill="#000000" font-family="sans-serif" font-size="13.75" lengthAdjust="spacing" textLength="73.75" x="370" y="154.4983">-testInfoDay</text><text fill="#000000" font-family="sans-serif" font-size="13.75" lengthAdjust="spacing" textLength="83.75" x="370" y="171.7932">-testInfoWeek</text><text fill="#000000" font-family="sans-serif" font-size="13.75" lengthAdjust="spacing" textLength="86.25" x="370" y="189.0881">-testInfoMonth</text><text fill="#000000" font-family="sans-serif" font-size="13.75" lengthAdjust="spacing" textLength="80" x="370" y="206.3831">-testInfoYear</text><text fill="#000000" font-family="sans-serif" font-size="13.75" lengthAdjust="spacing" textLength="78.75" x="370" y="223.678">-worstSubInt</text><!--MD5=[7e4bc624457760b649895ff2ead938fa]
link Company to Test--><path codeLine="44" d="M158.8,265.5125 C217.3,277.3625 313.0125,296.7375 380.5625,310.4125 " fill="none" id="Company-Test" style="stroke:#A80036;stroke-width:1.25;"/><polygon fill="#000000" points="252.3757,272.71,242.0232,266.8657,240.5652,274.0669,252.3757,272.71" style="stroke:#000000;stroke-width:1.25;"/><text fill="#000000" font-family="sans-serif" font-size="16.25" lengthAdjust="spacing" textLength="66.25" x="257.5" y="278.1189">conducts</text><text fill="#000000" font-family="sans-serif" font-size="16.25" lengthAdjust="spacing" textLength="8.75" x="168.6914" y="285.9624">1</text><text fill="#000000" font-family="sans-serif" font-size="16.25" lengthAdjust="spacing" textLength="6.25" x="364.2502" y="326.6342">*</text><!--MD5=[fe28b095a1a99c1f24c8c2245ad2ba4f]
link LaboratoryCoordinator to Test--><path codeLine="45" d="M202.5625,379.0375 C258.325,367.55 327.775,353.2375 380.2875,342.4125 " fill="none" id="LaboratoryCoordinator-Test" style="stroke:#A80036;stroke-width:1.25;"/><polygon fill="#000000" points="252.9964,341.4583,241.1812,340.1422,242.6642,347.3383,252.9964,341.4583" style="stroke:#000000;stroke-width:1.25;"/><text fill="#000000" font-family="sans-serif" font-size="16.25" lengthAdjust="spacing" textLength="65" x="258.125" y="349.3689">analyses</text><text fill="#000000" font-family="sans-serif" font-size="16.25" lengthAdjust="spacing" textLength="25" x="212.6513" y="395.0313">1..*</text><text fill="#000000" font-family="sans-serif" font-size="16.25" lengthAdjust="spacing" textLength="6.25" x="364.4594" y="362.3674">*</text><!--MD5=[f784385555b336e7c7e1a56b57023a66]
link LaboratoryCoordinator to Client--><path codeLine="46" d="M166.9625,418.8125 C223.6,437.725 309.05,466.2625 372.8625,487.575 " fill="none" id="LaboratoryCoordinator-Client" style="stroke:#A80036;stroke-width:1.25;"/><polygon fill="#000000" points="252.8032,433.4495,243.2427,426.3836,240.9153,433.3525,252.8032,433.4495" style="stroke:#000000;stroke-width:1.25;"/><text fill="#000000" font-family="sans-serif" font-size="16.25" lengthAdjust="spacing" textLength="65" x="258.125" y="438.1189">analyses</text><text fill="#000000" font-family="sans-serif" font-size="16.25" lengthAdjust="spacing" textLength="25" x="158.1399" y="445.7124">1..*</text><text fill="#000000" font-family="sans-serif" font-size="16.25" lengthAdjust="spacing" textLength="6.25" x="356.74" y="502.4467">*</text><!--MD5=[3f3cec389b63617d5cf5a63fd6d0d0a0]
link Company to CompanyPerformance--><path codeLine="47" d="M158.8,235.075 C212.225,214.575 296.7125,182.1625 362.425,156.9625 " fill="none" id="Company-CompanyPerformance" style="stroke:#A80036;stroke-width:1.25;"/><polygon fill="#000000" points="272.0854,159.2312,260.2133,159.8508,262.8448,166.7107,272.0854,159.2312" style="stroke:#000000;stroke-width:1.25;"/><text fill="#000000" font-family="sans-serif" font-size="16.25" lengthAdjust="spacing" textLength="26.25" x="277.5" y="168.1189">has</text><text fill="#000000" font-family="sans-serif" font-size="16.25" lengthAdjust="spacing" textLength="8.75" x="168.6914" y="250.2934">1</text><text fill="#000000" font-family="sans-serif" font-size="16.25" lengthAdjust="spacing" textLength="6.25" x="346.2623" y="178.4538">*</text><!--MD5=[293912d20bab403926aca900146b2ad5]
@startuml

skinparam classAttributeIconSize 0
hide empty methods
hide empty attributes
left to right direction

class Company{
- designation
}

class Test{
- NhsCode
- code
- dateOfTestRegistration
}

class Client{
- clientsCitizenCardNumber
- nhsNumber
- birthDate
- sex
- tinNumber
- email
- name
- phoneNumber
}

class LaboratoryCoordinator{
}

class CompanyPerformance{
- beginningDate
- endingDate
- chosenAlg
- clientsNum
- processTestsNum
- testInfoDay
- testInfoWeek
- testInfoMonth
- testInfoYear
- worstSubInt
}

Company "1" - - "*" Test : conducts >
LaboratoryCoordinator "1..*" - - "*" Test : analyses >
LaboratoryCoordinator "1..*" - - "*" Client : analyses >
Company "1" - - "*" CompanyPerformance : has >

@enduml

PlantUML version 1.2021.7(Sun May 23 13:40:07 BST 2021)
(GPL source distribution)
Java Runtime: OpenJDK Runtime Environment
JVM: Dynamic Code Evolution 64-Bit Server VM
Default Encoding: Cp1252
Language: pt
Country: PT
--></g></svg>