<?xml version="1.0" encoding="UTF-8" standalone="no"?><svg xmlns="http://www.w3.org/2000/svg" xmlns:xlink="http://www.w3.org/1999/xlink" contentScriptType="application/ecmascript" contentStyleType="text/css" height="937.5px" preserveAspectRatio="none" style="width:2317px;height:937px;background:#FFFFFF;" version="1.1" viewBox="0 0 2317 937" width="2317.5px" zoomAndPan="magnify"><defs><filter height="300%" id="fary3z5bxzrgt" width="300%" x="-1" y="-1"><feGaussianBlur result="blurOut" stdDeviation="2.5"/><feColorMatrix in="blurOut" result="blurOut2" type="matrix" values="0 0 0 0 0 0 0 0 0 0 0 0 0 0 0 0 0 0 .4 0"/><feOffset dx="5.0" dy="5.0" in="blurOut2" result="blurOut3"/><feBlend in="SourceGraphic" in2="blurOut3" mode="normal"/></filter></defs><g><!--MD5=[2c2e2644034c00788261e03c85b06837]
cluster Core--><polygon fill="#FFFFFF" filter="url(#fary3z5bxzrgt)" points="428.75,7.5,478.75,7.5,487.5,37.0117,2296.25,37.0117,2296.25,928.75,428.75,928.75,428.75,7.5" style="stroke:#000000;stroke-width:1.875;"/><line style="stroke:#000000;stroke-width:1.875;" x1="428.75" x2="487.5" y1="37.0117" y2="37.0117"/><text fill="#000000" font-family="sans-serif" font-size="17.5" font-weight="bold" lengthAdjust="spacing" textLength="42.5" x="433.75" y="28.1665">Core</text><!--MD5=[121a8bf1197281ab89ed693fab589f94]
cluster Domain--><polygon fill="#FFFFFF" filter="url(#fary3z5bxzrgt)" points="1157.5,310,1230,310,1238.75,339.5117,2266.25,339.5117,2266.25,898.75,1157.5,898.75,1157.5,310" style="stroke:#000000;stroke-width:1.875;"/><line style="stroke:#000000;stroke-width:1.875;" x1="1157.5" x2="1238.75" y1="339.5117" y2="339.5117"/><text fill="#000000" font-family="sans-serif" font-size="17.5" font-weight="bold" lengthAdjust="spacing" textLength="65" x="1162.5" y="330.6665">Domain</text><!--MD5=[15636c1ca4a123c16a2a1a8e90aca7a9]
cluster Model--><polygon fill="#FFFFFF" filter="url(#fary3z5bxzrgt)" points="2016.25,545,2078.75,545,2087.5,574.5117,2236.25,574.5117,2236.25,868.75,2016.25,868.75,2016.25,545" style="stroke:#000000;stroke-width:1.875;"/><line style="stroke:#000000;stroke-width:1.875;" x1="2016.25" x2="2087.5" y1="574.5117" y2="574.5117"/><text fill="#000000" font-family="sans-serif" font-size="17.5" font-weight="bold" lengthAdjust="spacing" textLength="55" x="2021.25" y="565.6665">Model</text><!--MD5=[0b89f7d34c26fffbb81ea7301eb9df33]
cluster Interfaces--><polygon fill="#FFFFFF" filter="url(#fary3z5bxzrgt)" points="1301.25,726.25,1397.5,726.25,1406.25,755.7617,1543.75,755.7617,1543.75,868.75,1301.25,868.75,1301.25,726.25" style="stroke:#000000;stroke-width:1.875;"/><line style="stroke:#000000;stroke-width:1.875;" x1="1301.25" x2="1406.25" y1="755.7617" y2="755.7617"/><text fill="#000000" font-family="sans-serif" font-size="17.5" font-weight="bold" lengthAdjust="spacing" textLength="88.75" x="1306.25" y="746.9165">Interfaces</text><!--MD5=[7ce1723ddb6e6233854253973eae5a71]
cluster Store--><polygon fill="#FFFFFF" filter="url(#fary3z5bxzrgt)" points="1187.5,365,1242.5,365,1251.25,394.5117,1657.5,394.5117,1657.5,696.25,1187.5,696.25,1187.5,365" style="stroke:#000000;stroke-width:1.875;"/><line style="stroke:#000000;stroke-width:1.875;" x1="1187.5" x2="1251.25" y1="394.5117" y2="394.5117"/><text fill="#000000" font-family="sans-serif" font-size="17.5" font-weight="bold" lengthAdjust="spacing" textLength="47.5" x="1192.5" y="385.6665">Store</text><!--MD5=[aedc30b8666742a3000193d7e0a0b93e]
cluster Adapters--><polygon fill="#FFFFFF" filter="url(#fary3z5bxzrgt)" points="1698.75,550,1785,550,1793.75,579.5117,1975,579.5117,1975,793.75,1698.75,793.75,1698.75,550" style="stroke:#000000;stroke-width:1.875;"/><line style="stroke:#000000;stroke-width:1.875;" x1="1698.75" x2="1793.75" y1="579.5117" y2="579.5117"/><text fill="#000000" font-family="sans-serif" font-size="17.5" font-weight="bold" lengthAdjust="spacing" textLength="78.75" x="1703.75" y="570.6665">Adapters</text><!--MD5=[1f2cfc53d9d308f53762fd0fcbaa4873]
cluster Controller--><polygon fill="#FFFFFF" filter="url(#fary3z5bxzrgt)" points="458.75,602.5,555,602.5,563.75,632.0117,1017.5,632.0117,1017.5,850,458.75,850,458.75,602.5" style="stroke:#000000;stroke-width:1.875;"/><line style="stroke:#000000;stroke-width:1.875;" x1="458.75" x2="563.75" y1="632.0117" y2="632.0117"/><text fill="#000000" font-family="sans-serif" font-size="17.5" font-weight="bold" lengthAdjust="spacing" textLength="88.75" x="463.75" y="623.1665">Controller</text><!--MD5=[c29634d7cdbe8f1c1e88f2fe66ae73ec]
cluster ThirdParty--><polygon fill="#FFFFFF" filter="url(#fary3z5bxzrgt)" points="2036.25,62.5,2132.5,62.5,2141.25,92.0117,2216.25,92.0117,2216.25,280,2036.25,280,2036.25,62.5" style="stroke:#000000;stroke-width:1.875;"/><line style="stroke:#000000;stroke-width:1.875;" x1="2036.25" x2="2141.25" y1="92.0117" y2="92.0117"/><text fill="#000000" font-family="sans-serif" font-size="17.5" font-weight="bold" lengthAdjust="spacing" textLength="88.75" x="2041.25" y="83.1665">ThirdParty</text><!--MD5=[0d079ae59d318396171bf167e6cb96b6]
cluster APIs--><polygon fill="#FFFFFF" filter="url(#fary3z5bxzrgt)" points="2066.25,117.5,2111.25,117.5,2120,147.0117,2186.25,147.0117,2186.25,250,2066.25,250,2066.25,117.5" style="stroke:#000000;stroke-width:1.875;"/><line style="stroke:#000000;stroke-width:1.875;" x1="2066.25" x2="2120" y1="147.0117" y2="147.0117"/><text fill="#000000" font-family="sans-serif" font-size="17.5" font-weight="bold" lengthAdjust="spacing" textLength="37.5" x="2071.25" y="138.1665">APIs</text><!--MD5=[9681dc6e01e10c6b4fe06895ae94f592]
cluster UI--><polygon fill="#FFFFFF" filter="url(#fary3z5bxzrgt)" points="20,618.75,45,618.75,53.75,648.2617,387.5,648.2617,387.5,808.75,20,808.75,20,618.75" style="stroke:#000000;stroke-width:1.875;"/><line style="stroke:#000000;stroke-width:1.875;" x1="20" x2="53.75" y1="648.2617" y2="648.2617"/><text fill="#000000" font-family="sans-serif" font-size="17.5" font-weight="bold" lengthAdjust="spacing" textLength="17.5" x="25" y="639.4165">UI</text><!--MD5=[b27c5c9af3cea12247b1c4c8d3c78770]
cluster GUI--><polygon fill="#FFFFFF" filter="url(#fary3z5bxzrgt)" points="50,673.75,88.75,673.75,97.5,703.2617,357.5,703.2617,357.5,778.75,50,778.75,50,673.75" style="stroke:#000000;stroke-width:1.875;"/><line style="stroke:#000000;stroke-width:1.875;" x1="50" x2="97.5" y1="703.2617" y2="703.2617"/><text fill="#000000" font-family="sans-serif" font-size="17.5" font-weight="bold" lengthAdjust="spacing" textLength="31.25" x="55" y="694.4165">GUI</text><!--MD5=[02e4b9b7573f1156f41e60aa5b4e25a4]
class Company--><rect codeLine="13" fill="#FEFECE" filter="url(#fary3z5bxzrgt)" height="146.4746" id="Company" style="stroke:#A80036;stroke-width:1.875;" width="152.5" x="2050" y="701.875"/><ellipse cx="2089.5625" cy="721.875" fill="#ADD1B2" rx="13.75" ry="13.75" style="stroke:#A80036;stroke-width:1.25;"/><path d="M2092.0625,717.5 Q2092.3164,716.875 2092.6094,716.5625 Q2092.9023,716.25 2093.2344,716.25 Q2093.8203,716.25 2094.1914,716.6016 Q2094.5625,716.9531 2094.5625,717.7734 L2094.5625,719.7266 Q2094.5625,720.5469 2094.2109,720.8984 Q2093.8594,721.25 2093.3125,721.25 Q2092.8242,721.25 2092.5117,721.0352 Q2092.1992,720.8203 2092.0625,720.2539 Q2092.0039,719.8633 2091.7891,719.6484 Q2091.3984,719.2383 2090.6953,719.0039 Q2089.9922,718.75 2089.2891,718.75 Q2088.4102,718.75 2087.668,719.1016 Q2086.9453,719.4531 2086.3789,720.2344 Q2085.8125,721.0156 2085.8125,722.0898 L2085.8125,723.2422 Q2085.8125,724.5313 2086.8672,725.3906 Q2087.9219,726.25 2089.7969,726.25 Q2090.9102,726.25 2091.6914,725.9961 Q2092.1406,725.8594 2092.6484,725.4102 Q2092.9805,725.1563 2093.1563,725.0781 Q2093.332,725 2093.5469,725 Q2093.957,725 2094.25,725.332 Q2094.5625,725.6445 2094.5625,726.0938 Q2094.5625,726.5234 2094.1328,727.0313 Q2093.5078,727.7734 2092.5117,728.1836 Q2091.2031,728.75 2089.6016,728.75 Q2087.7266,728.75 2086.2227,728.0078 Q2085.0117,727.4219 2084.1523,726.1523 Q2083.3125,724.8828 2083.3125,723.3789 L2083.3125,722.0117 Q2083.3125,720.4492 2084.0547,719.082 Q2084.8164,717.7148 2086.125,716.9922 Q2087.4531,716.25 2088.9375,716.25 Q2089.8359,716.25 2090.6172,716.5625 Q2091.3984,716.875 2092.0625,717.5 Z " fill="#000000"/><text fill="#000000" font-family="sans-serif" font-size="15" lengthAdjust="spacing" textLength="66.25" x="2111.6875" y="728.0127">Company</text><line style="stroke:#A80036;stroke-width:1.875;" x1="2051.25" x2="2201.25" y1="741.875" y2="741.875"/><text fill="#000000" font-family="sans-serif" font-size="13.75" lengthAdjust="spacing" textLength="112.5" x="2057.5" y="761.1487">-String designation</text><text fill="#000000" font-family="sans-serif" font-size="13.75" lengthAdjust="spacing" textLength="122.5" x="2057.5" y="778.4436">-TestStore testStore</text><text fill="#000000" font-family="sans-serif" font-size="13.75" lengthAdjust="spacing" textLength="137.5" x="2057.5" y="795.7385">-ClientStore clientStore</text><line style="stroke:#A80036;stroke-width:1.875;" x1="2051.25" x2="2201.25" y1="803.7598" y2="803.7598"/><text fill="#000000" font-family="sans-serif" font-size="13.75" lengthAdjust="spacing" textLength="95" x="2057.5" y="823.0334">+getTestStore()</text><text fill="#000000" font-family="sans-serif" font-size="13.75" lengthAdjust="spacing" textLength="101.25" x="2057.5" y="840.3284">+getClientStore()</text><!--MD5=[1dec90c14ec2ba3af2708f621be65d00]
class BruteForceAlgorithm--><rect codeLine="21" fill="#FEFECE" filter="url(#fary3z5bxzrgt)" height="67.2949" id="BruteForceAlgorithm" style="stroke:#A80036;stroke-width:1.875;" width="180" x="2036.25" y="590"/><ellipse cx="2055" cy="610" fill="#ADD1B2" rx="13.75" ry="13.75" style="stroke:#A80036;stroke-width:1.25;"/><path d="M2057.5,605.625 Q2057.7539,605 2058.0469,604.6875 Q2058.3398,604.375 2058.6719,604.375 Q2059.2578,604.375 2059.6289,604.7266 Q2060,605.0781 2060,605.8984 L2060,607.8516 Q2060,608.6719 2059.6484,609.0234 Q2059.2969,609.375 2058.75,609.375 Q2058.2617,609.375 2057.9492,609.1602 Q2057.6367,608.9453 2057.5,608.3789 Q2057.4414,607.9883 2057.2266,607.7734 Q2056.8359,607.3633 2056.1328,607.1289 Q2055.4297,606.875 2054.7266,606.875 Q2053.8477,606.875 2053.1055,607.2266 Q2052.3828,607.5781 2051.8164,608.3594 Q2051.25,609.1406 2051.25,610.2148 L2051.25,611.3672 Q2051.25,612.6563 2052.3047,613.5156 Q2053.3594,614.375 2055.2344,614.375 Q2056.3477,614.375 2057.1289,614.1211 Q2057.5781,613.9844 2058.0859,613.5352 Q2058.418,613.2813 2058.5938,613.2031 Q2058.7695,613.125 2058.9844,613.125 Q2059.3945,613.125 2059.6875,613.457 Q2060,613.7695 2060,614.2188 Q2060,614.6484 2059.5703,615.1563 Q2058.9453,615.8984 2057.9492,616.3086 Q2056.6406,616.875 2055.0391,616.875 Q2053.1641,616.875 2051.6602,616.1328 Q2050.4492,615.5469 2049.5898,614.2773 Q2048.75,613.0078 2048.75,611.5039 L2048.75,610.1367 Q2048.75,608.5742 2049.4922,607.207 Q2050.2539,605.8398 2051.5625,605.1172 Q2052.8906,604.375 2054.375,604.375 Q2055.2734,604.375 2056.0547,604.6875 Q2056.8359,605 2057.5,605.625 Z " fill="#000000"/><text fill="#000000" font-family="sans-serif" font-size="15" lengthAdjust="spacing" textLength="140" x="2072.5" y="616.1377">BruteForceAlgorithm</text><line style="stroke:#A80036;stroke-width:1.875;" x1="2037.5" x2="2215" y1="630" y2="630"/><text fill="#000000" font-family="sans-serif" font-size="13.75" lengthAdjust="spacing" textLength="65" x="2043.75" y="649.2737">+Max(seq)</text><!--MD5=[03e21a3a74a4ec725edc90da8949a6b4]
class SubMaxSumAlgorithms--><rect codeLine="29" fill="#FEFECE" filter="url(#fary3z5bxzrgt)" height="77.5293" id="SubMaxSumAlgorithms" style="stroke:#A80036;stroke-width:1.875;" width="202.5" x="1321.25" y="771.25"/><ellipse cx="1340" cy="796.3672" fill="#B4A7E5" rx="13.75" ry="13.75" style="stroke:#A80036;stroke-width:1.25;"/><path d="M1341.25,792.6172 L1341.25,800.1172 L1343.75,800.1172 L1344.3555,800.1172 L1345,800.8984 L1345,801.3672 L1345,801.8359 L1344.3555,802.6172 L1343.75,802.6172 L1336.25,802.6172 L1335.6445,802.6172 L1335,801.8359 L1335,801.3672 L1335,800.8984 L1335.6445,800.1172 L1336.25,800.1172 L1338.75,800.1172 L1338.75,792.6172 L1336.25,792.6172 L1335.6445,792.6172 L1335,791.8359 L1335,791.3672 L1335,790.8984 L1335.6445,790.1172 L1336.25,790.1172 L1343.75,790.1172 L1344.3555,790.1172 L1345,790.8984 L1345,791.3672 L1345,791.8359 L1344.3555,792.6172 L1343.75,792.6172 L1341.25,792.6172 Z " fill="#000000"/><text fill="#000000" font-family="sans-serif" font-size="15" font-style="italic" lengthAdjust="spacing" textLength="76.25" x="1400.625" y="793.0713">«interface»</text><text fill="#000000" font-family="sans-serif" font-size="15" font-style="italic" lengthAdjust="spacing" textLength="162.5" x="1357.5" y="811.9385">SubMaxSumAlgorithms</text><line style="stroke:#A80036;stroke-width:1.875;" x1="1322.5" x2="1522.5" y1="821.4844" y2="821.4844"/><text fill="#000000" font-family="sans-serif" font-size="13.75" lengthAdjust="spacing" textLength="158.75" x="1328.75" y="840.7581">+findSubMaxSum(interval)</text><!--MD5=[0f6f7964b844a64b0496af0dda7914bd]
class TestStore--><rect codeLine="37" fill="#FEFECE" filter="url(#fary3z5bxzrgt)" height="153.7695" id="TestStore" style="stroke:#A80036;stroke-width:1.875;" width="430" x="1207.5" y="521.875"/><ellipse cx="1384.0625" cy="541.875" fill="#ADD1B2" rx="13.75" ry="13.75" style="stroke:#A80036;stroke-width:1.25;"/><path d="M1386.5625,537.5 Q1386.8164,536.875 1387.1094,536.5625 Q1387.4023,536.25 1387.7344,536.25 Q1388.3203,536.25 1388.6914,536.6016 Q1389.0625,536.9531 1389.0625,537.7734 L1389.0625,539.7266 Q1389.0625,540.5469 1388.7109,540.8984 Q1388.3594,541.25 1387.8125,541.25 Q1387.3242,541.25 1387.0117,541.0352 Q1386.6992,540.8203 1386.5625,540.2539 Q1386.5039,539.8633 1386.2891,539.6484 Q1385.8984,539.2383 1385.1953,539.0039 Q1384.4922,538.75 1383.7891,538.75 Q1382.9102,538.75 1382.168,539.1016 Q1381.4453,539.4531 1380.8789,540.2344 Q1380.3125,541.0156 1380.3125,542.0898 L1380.3125,543.2422 Q1380.3125,544.5313 1381.3672,545.3906 Q1382.4219,546.25 1384.2969,546.25 Q1385.4102,546.25 1386.1914,545.9961 Q1386.6406,545.8594 1387.1484,545.4102 Q1387.4805,545.1563 1387.6563,545.0781 Q1387.832,545 1388.0469,545 Q1388.457,545 1388.75,545.332 Q1389.0625,545.6445 1389.0625,546.0938 Q1389.0625,546.5234 1388.6328,547.0313 Q1388.0078,547.7734 1387.0117,548.1836 Q1385.7031,548.75 1384.1016,548.75 Q1382.2266,548.75 1380.7227,548.0078 Q1379.5117,547.4219 1378.6523,546.1523 Q1377.8125,544.8828 1377.8125,543.3789 L1377.8125,542.0117 Q1377.8125,540.4492 1378.5547,539.082 Q1379.3164,537.7148 1380.625,536.9922 Q1381.9531,536.25 1383.4375,536.25 Q1384.3359,536.25 1385.1172,536.5625 Q1385.8984,536.875 1386.5625,537.5 Z " fill="#000000"/><text fill="#000000" font-family="sans-serif" font-size="15" lengthAdjust="spacing" textLength="66.25" x="1409.6875" y="548.0127">TestStore</text><line style="stroke:#A80036;stroke-width:1.875;" x1="1208.75" x2="1636.25" y1="561.875" y2="561.875"/><text fill="#000000" font-family="sans-serif" font-size="13.75" lengthAdjust="spacing" textLength="251.25" x="1215" y="581.1487">+getNumTestsWaitingForResultsDay(day)</text><text fill="#000000" font-family="sans-serif" font-size="13.75" lengthAdjust="spacing" textLength="401.25" x="1215" y="598.4436">+getNumTestsWaitingForResultsInterval(beginningDay, endingDay)</text><text fill="#000000" font-family="sans-serif" font-size="13.75" lengthAdjust="spacing" textLength="265" x="1215" y="615.7385">+getNumTestsWaitingForDiagnosisDay(day)</text><text fill="#000000" font-family="sans-serif" font-size="13.75" lengthAdjust="spacing" textLength="415" x="1215" y="633.0334">+getNumTestsWaitingForDiagnosisInterval(beginningDay, endingDay)</text><text fill="#000000" font-family="sans-serif" font-size="13.75" lengthAdjust="spacing" textLength="240" x="1215" y="650.3284">+getNumTestsProcessedInLabDay(day)</text><text fill="#000000" font-family="sans-serif" font-size="13.75" lengthAdjust="spacing" textLength="390" x="1215" y="667.6233">+getNumTestsProcessedInLabInterval(beginningDay, endingDay)</text><!--MD5=[55cb992be19579b505cea3c5691093cb]
class ClientStore--><rect codeLine="46" fill="#FEFECE" filter="url(#fary3z5bxzrgt)" height="67.2949" id="ClientStore" style="stroke:#A80036;stroke-width:1.875;" width="116.25" x="1364.375" y="410"/><ellipse cx="1383.125" cy="430" fill="#ADD1B2" rx="13.75" ry="13.75" style="stroke:#A80036;stroke-width:1.25;"/><path d="M1385.625,425.625 Q1385.8789,425 1386.1719,424.6875 Q1386.4648,424.375 1386.7969,424.375 Q1387.3828,424.375 1387.7539,424.7266 Q1388.125,425.0781 1388.125,425.8984 L1388.125,427.8516 Q1388.125,428.6719 1387.7734,429.0234 Q1387.4219,429.375 1386.875,429.375 Q1386.3867,429.375 1386.0742,429.1602 Q1385.7617,428.9453 1385.625,428.3789 Q1385.5664,427.9883 1385.3516,427.7734 Q1384.9609,427.3633 1384.2578,427.1289 Q1383.5547,426.875 1382.8516,426.875 Q1381.9727,426.875 1381.2305,427.2266 Q1380.5078,427.5781 1379.9414,428.3594 Q1379.375,429.1406 1379.375,430.2148 L1379.375,431.3672 Q1379.375,432.6563 1380.4297,433.5156 Q1381.4844,434.375 1383.3594,434.375 Q1384.4727,434.375 1385.2539,434.1211 Q1385.7031,433.9844 1386.2109,433.5352 Q1386.543,433.2813 1386.7188,433.2031 Q1386.8945,433.125 1387.1094,433.125 Q1387.5195,433.125 1387.8125,433.457 Q1388.125,433.7695 1388.125,434.2188 Q1388.125,434.6484 1387.6953,435.1563 Q1387.0703,435.8984 1386.0742,436.3086 Q1384.7656,436.875 1383.1641,436.875 Q1381.2891,436.875 1379.7852,436.1328 Q1378.5742,435.5469 1377.7148,434.2773 Q1376.875,433.0078 1376.875,431.5039 L1376.875,430.1367 Q1376.875,428.5742 1377.6172,427.207 Q1378.3789,425.8398 1379.6875,425.1172 Q1381.0156,424.375 1382.5,424.375 Q1383.3984,424.375 1384.1797,424.6875 Q1384.9609,425 1385.625,425.625 Z " fill="#000000"/><text fill="#000000" font-family="sans-serif" font-size="15" lengthAdjust="spacing" textLength="76.25" x="1400.625" y="436.1377">ClientStore</text><line style="stroke:#A80036;stroke-width:1.875;" x1="1365.625" x2="1479.375" y1="450" y2="450"/><text fill="#000000" font-family="sans-serif" font-size="13.75" lengthAdjust="spacing" textLength="76.25" x="1371.875" y="469.2737">+getClients()</text><!--MD5=[f4a38599b97b911edb1e154f571cf5e4]
class BenchmarkAlgorithmAdapter--><rect codeLine="113" fill="#FEFECE" filter="url(#fary3z5bxzrgt)" height="67.2949" id="BenchmarkAlgorithmAdapter" style="stroke:#A80036;stroke-width:1.875;" width="236.25" x="1718.75" y="595"/><ellipse cx="1737.5" cy="615" fill="#ADD1B2" rx="13.75" ry="13.75" style="stroke:#A80036;stroke-width:1.25;"/><path d="M1740,610.625 Q1740.2539,610 1740.5469,609.6875 Q1740.8398,609.375 1741.1719,609.375 Q1741.7578,609.375 1742.1289,609.7266 Q1742.5,610.0781 1742.5,610.8984 L1742.5,612.8516 Q1742.5,613.6719 1742.1484,614.0234 Q1741.7969,614.375 1741.25,614.375 Q1740.7617,614.375 1740.4492,614.1602 Q1740.1367,613.9453 1740,613.3789 Q1739.9414,612.9883 1739.7266,612.7734 Q1739.3359,612.3633 1738.6328,612.1289 Q1737.9297,611.875 1737.2266,611.875 Q1736.3477,611.875 1735.6055,612.2266 Q1734.8828,612.5781 1734.3164,613.3594 Q1733.75,614.1406 1733.75,615.2148 L1733.75,616.3672 Q1733.75,617.6563 1734.8047,618.5156 Q1735.8594,619.375 1737.7344,619.375 Q1738.8477,619.375 1739.6289,619.1211 Q1740.0781,618.9844 1740.5859,618.5352 Q1740.918,618.2813 1741.0938,618.2031 Q1741.2695,618.125 1741.4844,618.125 Q1741.8945,618.125 1742.1875,618.457 Q1742.5,618.7695 1742.5,619.2188 Q1742.5,619.6484 1742.0703,620.1563 Q1741.4453,620.8984 1740.4492,621.3086 Q1739.1406,621.875 1737.5391,621.875 Q1735.6641,621.875 1734.1602,621.1328 Q1732.9492,620.5469 1732.0898,619.2773 Q1731.25,618.0078 1731.25,616.5039 L1731.25,615.1367 Q1731.25,613.5742 1731.9922,612.207 Q1732.7539,610.8398 1734.0625,610.1172 Q1735.3906,609.375 1736.875,609.375 Q1737.7734,609.375 1738.5547,609.6875 Q1739.3359,610 1740,610.625 Z " fill="#000000"/><text fill="#000000" font-family="sans-serif" font-size="15" lengthAdjust="spacing" textLength="196.25" x="1755" y="621.1377">BenchmarkAlgorithmAdapter</text><line style="stroke:#A80036;stroke-width:1.875;" x1="1720" x2="1953.75" y1="635" y2="635"/><text fill="#000000" font-family="sans-serif" font-size="13.75" lengthAdjust="spacing" textLength="158.75" x="1726.25" y="654.2737">+findSubMaxSum(interval)</text><!--MD5=[3d195b319a9e341286852cea89c88ec3]
class BruteForceAlgorithmAdapter--><rect codeLine="114" fill="#FEFECE" filter="url(#fary3z5bxzrgt)" height="67.2949" id="BruteForceAlgorithmAdapter" style="stroke:#A80036;stroke-width:1.875;" width="232.5" x="1720.625" y="706.25"/><ellipse cx="1739.375" cy="726.25" fill="#ADD1B2" rx="13.75" ry="13.75" style="stroke:#A80036;stroke-width:1.25;"/><path d="M1741.875,721.875 Q1742.1289,721.25 1742.4219,720.9375 Q1742.7148,720.625 1743.0469,720.625 Q1743.6328,720.625 1744.0039,720.9766 Q1744.375,721.3281 1744.375,722.1484 L1744.375,724.1016 Q1744.375,724.9219 1744.0234,725.2734 Q1743.6719,725.625 1743.125,725.625 Q1742.6367,725.625 1742.3242,725.4102 Q1742.0117,725.1953 1741.875,724.6289 Q1741.8164,724.2383 1741.6016,724.0234 Q1741.2109,723.6133 1740.5078,723.3789 Q1739.8047,723.125 1739.1016,723.125 Q1738.2227,723.125 1737.4805,723.4766 Q1736.7578,723.8281 1736.1914,724.6094 Q1735.625,725.3906 1735.625,726.4648 L1735.625,727.6172 Q1735.625,728.9063 1736.6797,729.7656 Q1737.7344,730.625 1739.6094,730.625 Q1740.7227,730.625 1741.5039,730.3711 Q1741.9531,730.2344 1742.4609,729.7852 Q1742.793,729.5313 1742.9688,729.4531 Q1743.1445,729.375 1743.3594,729.375 Q1743.7695,729.375 1744.0625,729.707 Q1744.375,730.0195 1744.375,730.4688 Q1744.375,730.8984 1743.9453,731.4063 Q1743.3203,732.1484 1742.3242,732.5586 Q1741.0156,733.125 1739.4141,733.125 Q1737.5391,733.125 1736.0352,732.3828 Q1734.8242,731.7969 1733.9648,730.5273 Q1733.125,729.2578 1733.125,727.7539 L1733.125,726.3867 Q1733.125,724.8242 1733.8672,723.457 Q1734.6289,722.0898 1735.9375,721.3672 Q1737.2656,720.625 1738.75,720.625 Q1739.6484,720.625 1740.4297,720.9375 Q1741.2109,721.25 1741.875,721.875 Z " fill="#000000"/><text fill="#000000" font-family="sans-serif" font-size="15" lengthAdjust="spacing" textLength="192.5" x="1756.875" y="732.3877">BruteForceAlgorithmAdapter</text><line style="stroke:#A80036;stroke-width:1.875;" x1="1721.875" x2="1951.875" y1="746.25" y2="746.25"/><text fill="#000000" font-family="sans-serif" font-size="13.75" lengthAdjust="spacing" textLength="158.75" x="1728.125" y="765.5237">+findSubMaxSum(interval)</text><!--MD5=[670275f839cd0f6ae295f6f439fd6034]
class CompanyPerformanceAnalysisController--><rect codeLine="68" fill="#FEFECE" filter="url(#fary3z5bxzrgt)" height="181.0645" id="CompanyPerformanceAnalysisController" style="stroke:#A80036;stroke-width:1.875;" width="518.75" x="478.75" y="648.125"/><ellipse cx="592.8125" cy="668.125" fill="#ADD1B2" rx="13.75" ry="13.75" style="stroke:#A80036;stroke-width:1.25;"/><path d="M595.3125,663.75 Q595.5664,663.125 595.8594,662.8125 Q596.1523,662.5 596.4844,662.5 Q597.0703,662.5 597.4414,662.8516 Q597.8125,663.2031 597.8125,664.0234 L597.8125,665.9766 Q597.8125,666.7969 597.4609,667.1484 Q597.1094,667.5 596.5625,667.5 Q596.0742,667.5 595.7617,667.2852 Q595.4492,667.0703 595.3125,666.5039 Q595.2539,666.1133 595.0391,665.8984 Q594.6484,665.4883 593.9453,665.2539 Q593.2422,665 592.5391,665 Q591.6602,665 590.918,665.3516 Q590.1953,665.7031 589.6289,666.4844 Q589.0625,667.2656 589.0625,668.3398 L589.0625,669.4922 Q589.0625,670.7813 590.1172,671.6406 Q591.1719,672.5 593.0469,672.5 Q594.1602,672.5 594.9414,672.2461 Q595.3906,672.1094 595.8984,671.6602 Q596.2305,671.4063 596.4063,671.3281 Q596.582,671.25 596.7969,671.25 Q597.207,671.25 597.5,671.582 Q597.8125,671.8945 597.8125,672.3438 Q597.8125,672.7734 597.3828,673.2813 Q596.7578,674.0234 595.7617,674.4336 Q594.4531,675 592.8516,675 Q590.9766,675 589.4727,674.2578 Q588.2617,673.6719 587.4023,672.4023 Q586.5625,671.1328 586.5625,669.6289 L586.5625,668.2617 Q586.5625,666.6992 587.3047,665.332 Q588.0664,663.9648 589.375,663.2422 Q590.7031,662.5 592.1875,662.5 Q593.0859,662.5 593.8672,662.8125 Q594.6484,663.125 595.3125,663.75 Z " fill="#000000"/><text fill="#000000" font-family="sans-serif" font-size="15" lengthAdjust="spacing" textLength="280" x="618.4375" y="674.2627">CompanyPerformanceAnalysisController</text><line style="stroke:#A80036;stroke-width:1.875;" x1="480" x2="996.25" y1="688.125" y2="688.125"/><text fill="#000000" font-family="sans-serif" font-size="13.75" lengthAdjust="spacing" textLength="120" x="486.25" y="707.3987">-Company company</text><line style="stroke:#A80036;stroke-width:1.875;" x1="480" x2="996.25" y1="715.4199" y2="715.4199"/><text fill="#000000" font-family="sans-serif" font-size="13.75" lengthAdjust="spacing" textLength="102.5" x="486.25" y="734.6936">+getNumClients()</text><text fill="#000000" font-family="sans-serif" font-size="13.75" lengthAdjust="spacing" textLength="131.25" x="486.25" y="751.9885">+getTestInfoDay(day)</text><text fill="#000000" font-family="sans-serif" font-size="13.75" lengthAdjust="spacing" textLength="281.25" x="486.25" y="769.2834">+getTestInfoInterval(beginningDay, endingDay)</text><text fill="#000000" font-family="sans-serif" font-size="13.75" lengthAdjust="spacing" textLength="280" x="486.25" y="786.5784">+makeIntervalArray(beginningDay, endingDay)</text><text fill="#000000" font-family="sans-serif" font-size="13.75" lengthAdjust="spacing" textLength="503.75" x="486.25" y="803.8733">+findWorstSubIntWithChosenAlgorithm(beginningDay, endingDay, chosenAlgorithm)</text><text fill="#000000" font-family="sans-serif" font-size="13.75" lengthAdjust="spacing" textLength="288.75" x="486.25" y="821.1682">+getChosenAlgorithmAdapter(chosenAlgorithm)</text><!--MD5=[bbc84d1aa0e7f30bd67b3f6e81f0f299]
class Sum--><rect codeLine="84" fill="#FEFECE" filter="url(#fary3z5bxzrgt)" height="67.2949" id="Sum" style="stroke:#A80036;stroke-width:1.875;" width="80" x="2086.25" y="162.5"/><ellipse cx="2108.375" cy="182.5" fill="#ADD1B2" rx="13.75" ry="13.75" style="stroke:#A80036;stroke-width:1.25;"/><path d="M2110.875,178.125 Q2111.1289,177.5 2111.4219,177.1875 Q2111.7148,176.875 2112.0469,176.875 Q2112.6328,176.875 2113.0039,177.2266 Q2113.375,177.5781 2113.375,178.3984 L2113.375,180.3516 Q2113.375,181.1719 2113.0234,181.5234 Q2112.6719,181.875 2112.125,181.875 Q2111.6367,181.875 2111.3242,181.6602 Q2111.0117,181.4453 2110.875,180.8789 Q2110.8164,180.4883 2110.6016,180.2734 Q2110.2109,179.8633 2109.5078,179.6289 Q2108.8047,179.375 2108.1016,179.375 Q2107.2227,179.375 2106.4805,179.7266 Q2105.7578,180.0781 2105.1914,180.8594 Q2104.625,181.6406 2104.625,182.7148 L2104.625,183.8672 Q2104.625,185.1563 2105.6797,186.0156 Q2106.7344,186.875 2108.6094,186.875 Q2109.7227,186.875 2110.5039,186.6211 Q2110.9531,186.4844 2111.4609,186.0352 Q2111.793,185.7813 2111.9688,185.7031 Q2112.1445,185.625 2112.3594,185.625 Q2112.7695,185.625 2113.0625,185.957 Q2113.375,186.2695 2113.375,186.7188 Q2113.375,187.1484 2112.9453,187.6563 Q2112.3203,188.3984 2111.3242,188.8086 Q2110.0156,189.375 2108.4141,189.375 Q2106.5391,189.375 2105.0352,188.6328 Q2103.8242,188.0469 2102.9648,186.7773 Q2102.125,185.5078 2102.125,184.0039 L2102.125,182.6367 Q2102.125,181.0742 2102.8672,179.707 Q2103.6289,178.3398 2104.9375,177.6172 Q2106.2656,176.875 2107.75,176.875 Q2108.6484,176.875 2109.4297,177.1875 Q2110.2109,177.5 2110.875,178.125 Z " fill="#000000"/><text fill="#000000" font-family="sans-serif" font-size="15" lengthAdjust="spacing" textLength="32.5" x="2126.625" y="188.6377">Sum</text><line style="stroke:#A80036;stroke-width:1.875;" x1="2087.5" x2="2165" y1="202.5" y2="202.5"/><text fill="#000000" font-family="sans-serif" font-size="13.75" lengthAdjust="spacing" textLength="65" x="2093.75" y="221.7737">+Max(seq)</text><!--MD5=[3404723274ca4ec774b8d2f7e379376f]
class CompanyPerformanceAnalysisUI--><rect codeLine="98" fill="#FEFECE" filter="url(#fary3z5bxzrgt)" height="40" id="CompanyPerformanceAnalysisUI" style="stroke:#A80036;stroke-width:1.875;" width="267.5" x="70" y="718.75"/><ellipse cx="88.75" cy="738.75" fill="#ADD1B2" rx="13.75" ry="13.75" style="stroke:#A80036;stroke-width:1.25;"/><path d="M91.25,734.375 Q91.5039,733.75 91.7969,733.4375 Q92.0898,733.125 92.4219,733.125 Q93.0078,733.125 93.3789,733.4766 Q93.75,733.8281 93.75,734.6484 L93.75,736.6016 Q93.75,737.4219 93.3984,737.7734 Q93.0469,738.125 92.5,738.125 Q92.0117,738.125 91.6992,737.9102 Q91.3867,737.6953 91.25,737.1289 Q91.1914,736.7383 90.9766,736.5234 Q90.5859,736.1133 89.8828,735.8789 Q89.1797,735.625 88.4766,735.625 Q87.5977,735.625 86.8555,735.9766 Q86.1328,736.3281 85.5664,737.1094 Q85,737.8906 85,738.9648 L85,740.1172 Q85,741.4063 86.0547,742.2656 Q87.1094,743.125 88.9844,743.125 Q90.0977,743.125 90.8789,742.8711 Q91.3281,742.7344 91.8359,742.2852 Q92.168,742.0313 92.3438,741.9531 Q92.5195,741.875 92.7344,741.875 Q93.1445,741.875 93.4375,742.207 Q93.75,742.5195 93.75,742.9688 Q93.75,743.3984 93.3203,743.9063 Q92.6953,744.6484 91.6992,745.0586 Q90.3906,745.625 88.7891,745.625 Q86.9141,745.625 85.4102,744.8828 Q84.1992,744.2969 83.3398,743.0273 Q82.5,741.7578 82.5,740.2539 L82.5,738.8867 Q82.5,737.3242 83.2422,735.957 Q84.0039,734.5898 85.3125,733.8672 Q86.6406,733.125 88.125,733.125 Q89.0234,733.125 89.8047,733.4375 Q90.5859,733.75 91.25,734.375 Z " fill="#000000"/><text fill="#000000" font-family="sans-serif" font-size="15" lengthAdjust="spacing" textLength="227.5" x="106.25" y="744.8877">CompanyPerformanceAnalysisUI</text><!--MD5=[5b29af9deb3324aeb9c231daa5002dba]
link CompanyPerformanceAnalysisUI to CompanyPerformanceAnalysisController--><path codeLine="105" d="M337.5,738.75 C378.575,738.75 425.3875,738.75 472.15,738.75 " fill="none" id="CompanyPerformanceAnalysisUI-to-CompanyPerformanceAnalysisController" style="stroke:#A80036;stroke-width:1.25;stroke-dasharray:7.0,7.0;"/><polygon fill="#A80036" points="478.4375,738.75,467.1875,733.75,472.1875,738.75,467.1875,743.75,478.4375,738.75" style="stroke:#A80036;stroke-width:1.25;"/><!--MD5=[5ce4db4ce32c27ecea6aaa74e26a0164]
link CompanyPerformanceAnalysisController to Company--><path codeLine="106" d="M981.9125,829.4625 C1035.7,845.775 1092.9375,860.275 1147.5,868.75 C1375.875,904.2375 1437.5625,892.0625 1667.5,868.75 C1800.625,855.25 1952.25,820.1875 2043.1875,796.9875 " fill="none" id="CompanyPerformanceAnalysisController-to-Company" style="stroke:#A80036;stroke-width:1.25;stroke-dasharray:7.0,7.0;"/><polygon fill="#A80036" points="2049.6375,795.3375,2037.4977,793.291,2043.5837,796.8911,2039.9835,802.9771,2049.6375,795.3375" style="stroke:#A80036;stroke-width:1.25;"/><!--MD5=[556445e2a8ca4c0c6a33a05341a7825e]
link CompanyPerformanceAnalysisController to ClientStore--><path codeLine="107" d="M869.4,647.875 C946.95,597.525 1049.2,537.675 1147.5,500 C1216.8625,473.4125 1301.175,458.5125 1357.7375,450.825 " fill="none" id="CompanyPerformanceAnalysisController-to-ClientStore" style="stroke:#A80036;stroke-width:1.25;stroke-dasharray:7.0,7.0;"/><polygon fill="#A80036" points="1364.15,449.9625,1352.3405,446.4843,1357.9542,450.7838,1353.6546,456.3976,1364.15,449.9625" style="stroke:#A80036;stroke-width:1.25;"/><!--MD5=[d03b593c12afa5f3c42671c11d6ed63b]
link CompanyPerformanceAnalysisController to TestStore--><path codeLine="108" d="M997.65,685.725 C1064.6625,671.9625 1136.2,657.275 1201.05,643.9625 " fill="none" id="CompanyPerformanceAnalysisController-to-TestStore" style="stroke:#A80036;stroke-width:1.25;stroke-dasharray:7.0,7.0;"/><polygon fill="#A80036" points="1207.3,642.675,1195.27,640.0592,1201.1797,643.9419,1197.297,649.8516,1207.3,642.675" style="stroke:#A80036;stroke-width:1.25;"/><!--MD5=[1f5b511532344f36d5811b87494f5882]
link CompanyPerformanceAnalysisController to SubMaxSumAlgorithms--><path codeLine="109" d="M997.65,765.7375 C1107.5,777.2125 1229.525,789.9625 1314.2875,798.825 " fill="none" id="CompanyPerformanceAnalysisController-to-SubMaxSumAlgorithms" style="stroke:#A80036;stroke-width:1.25;"/><polygon fill="#A80036" points="1320.825,799.5125,1310.1492,793.3814,1314.6082,798.8694,1309.1202,803.3283,1320.825,799.5125" style="stroke:#A80036;stroke-width:1.25;"/><text fill="#000000" font-family="sans-serif" font-size="16.25" lengthAdjust="spacing" textLength="97.5" x="1038.75" y="766.8689">makes use of</text><text fill="#000000" font-family="sans-serif" font-size="16.25" lengthAdjust="spacing" textLength="8.75" x="1007.1339" y="783.9469">1</text><text fill="#000000" font-family="sans-serif" font-size="16.25" lengthAdjust="spacing" textLength="8.75" x="1302.6299" y="816.3562">1</text><!--MD5=[6926410afba6dbb7662f77bf9a4beef8]
link BenchmarkAlgorithmAdapter to Sum--><path codeLine="110" d="M1860.6375,594.8125 C1913.1125,515.7 2043.3125,319.4 2099.0375,235.4 " fill="none" id="BenchmarkAlgorithmAdapter-to-Sum" style="stroke:#A80036;stroke-width:1.25;"/><polygon fill="#A80036" points="2102.6,230.025,2092.2098,236.6285,2099.1414,235.2308,2100.5391,242.1623,2102.6,230.025" style="stroke:#A80036;stroke-width:1.25;"/><!--MD5=[5c0b00d376c45fe49ede70ccf937dd89]
link BruteForceAlgorithmAdapter to BruteForceAlgorithm--><path codeLine="111" d="M1928.05,706.2 C1946.925,698.925 1966.65,691.1875 1985,683.75 C2003.275,676.3375 2022.775,668.15 2041.25,660.275 " fill="none" id="BruteForceAlgorithmAdapter-to-BruteForceAlgorithm" style="stroke:#A80036;stroke-width:1.25;"/><polygon fill="#A80036" points="2047.475,657.6125,2035.165,657.4484,2041.7303,660.0745,2039.1042,666.6398,2047.475,657.6125" style="stroke:#A80036;stroke-width:1.25;"/><!--MD5=[7500d493c54aadfc564551571970942a]
reverse link SubMaxSumAlgorithms to BenchmarkAlgorithmAdapter--><path d="M1535.4,760.6 C1577.2625,741.375 1624.975,718.6125 1667.5,696.25 C1677.2,691.15 1678.8625,688.4625 1688.75,683.75 C1704.35,676.3125 1721.2625,669.175 1737.85,662.65 " fill="none" id="SubMaxSumAlgorithms-backto-BenchmarkAlgorithmAdapter" style="stroke:#A80036;stroke-width:1.25;stroke-dasharray:7.0,7.0;"/><polygon fill="none" points="1538.55,768.7875,1512.175,771.1875,1531.2875,752.8625,1538.55,768.7875" style="stroke:#A80036;stroke-width:1.25;"/><!--MD5=[2746a4793daa6de3b91732e823f67982]
reverse link SubMaxSumAlgorithms to BruteForceAlgorithmAdapter--><path d="M1548.75,788.75 C1603.325,779.475 1666.925,768.675 1720.35,759.5875 " fill="none" id="SubMaxSumAlgorithms-backto-BruteForceAlgorithmAdapter" style="stroke:#A80036;stroke-width:1.25;stroke-dasharray:7.0,7.0;"/><polygon fill="none" points="1550.0875,797.4,1523.975,792.9625,1547.1625,780.15,1550.0875,797.4" style="stroke:#A80036;stroke-width:1.25;"/><!--MD5=[db7308c02fb0d6a8bc6953253cc7525d]
@startuml
'skinparam linetype ortho
hide empty methods
hide empty attributes
left to right direction
skinparam classAttributeIconSize 0

package Core{

package Domain {

package Model{

class Company {
    -String designation
    -TestStore testStore
    -ClientStore clientStore
    +getTestStore()
    +getClientStore()
}

class BruteForceAlgorithm{
    +Max(seq)
}

}

package Interfaces {

interface SubMaxSumAlgorithms <<interface>> {
    +findSubMaxSum(interval)
}

}

package Store {

class TestStore {
    +getNumTestsWaitingForResultsDay(day)
    +getNumTestsWaitingForResultsInterval(beginningDay, endingDay)
    +getNumTestsWaitingForDiagnosisDay(day)
    +getNumTestsWaitingForDiagnosisInterval(beginningDay, endingDay)
    +getNumTestsProcessedInLabDay(day)
    +getNumTestsProcessedInLabInterval(beginningDay, endingDay)
}

class ClientStore {
    +getClients()
}

}

package Adapters{

class BenchmarkAlgorithmAdapter{
    +findSubMaxSum(interval)
}

class BruteForceAlgorithmAdapter{
    +findSubMaxSum(interval)
}

}

}

package Controller {

class CompanyPerformanceAnalysisController{
    -Company company
    +getNumClients()
    +getTestInfoDay(day)
    +getTestInfoInterval(beginningDay, endingDay)
    +makeIntervalArray(beginningDay, endingDay)
    +findWorstSubIntWithChosenAlgorithm(beginningDay, endingDay, chosenAlgorithm)
    +getChosenAlgorithmAdapter(chosenAlgorithm)
}

}

package ThirdParty{

package APIs {

class Sum{
    +Max(seq)
}

}

}

}

package UI {

package GUI{

class CompanyPerformanceAnalysisUI{
}

}

}

CompanyPerformanceAnalysisUI ..> CompanyPerformanceAnalysisController
CompanyPerformanceAnalysisController ..> Company
CompanyPerformanceAnalysisController ..> ClientStore
CompanyPerformanceAnalysisController ..> TestStore
CompanyPerformanceAnalysisController "1" - -> "1" SubMaxSumAlgorithms : makes use of
BenchmarkAlgorithmAdapter - -> Sum
BruteForceAlgorithmAdapter - -> BruteForceAlgorithm

class BenchmarkAlgorithmAdapter implements SubMaxSumAlgorithms
class BruteForceAlgorithmAdapter implements SubMaxSumAlgorithms

@enduml

@startuml
hide empty methods
hide empty attributes
left to right direction
skinparam classAttributeIconSize 0

package Core{

package Domain {

package Model{

class Company {
    -String designation
    -TestStore testStore
    -ClientStore clientStore
    +getTestStore()
    +getClientStore()
}

class BruteForceAlgorithm{
    +Max(seq)
}

}

package Interfaces {

interface SubMaxSumAlgorithms <<interface>> {
    +findSubMaxSum(interval)
}

}

package Store {

class TestStore {
    +getNumTestsWaitingForResultsDay(day)
    +getNumTestsWaitingForResultsInterval(beginningDay, endingDay)
    +getNumTestsWaitingForDiagnosisDay(day)
    +getNumTestsWaitingForDiagnosisInterval(beginningDay, endingDay)
    +getNumTestsProcessedInLabDay(day)
    +getNumTestsProcessedInLabInterval(beginningDay, endingDay)
}

class ClientStore {
    +getClients()
}

}

package Adapters{

class BenchmarkAlgorithmAdapter{
    +findSubMaxSum(interval)
}

class BruteForceAlgorithmAdapter{
    +findSubMaxSum(interval)
}

}

}

package Controller {

class CompanyPerformanceAnalysisController{
    -Company company
    +getNumClients()
    +getTestInfoDay(day)
    +getTestInfoInterval(beginningDay, endingDay)
    +makeIntervalArray(beginningDay, endingDay)
    +findWorstSubIntWithChosenAlgorithm(beginningDay, endingDay, chosenAlgorithm)
    +getChosenAlgorithmAdapter(chosenAlgorithm)
}

}

package ThirdParty{

package APIs {

class Sum{
    +Max(seq)
}

}

}

}

package UI {

package GUI{

class CompanyPerformanceAnalysisUI{
}

}

}

CompanyPerformanceAnalysisUI ..> CompanyPerformanceAnalysisController
CompanyPerformanceAnalysisController ..> Company
CompanyPerformanceAnalysisController ..> ClientStore
CompanyPerformanceAnalysisController ..> TestStore
CompanyPerformanceAnalysisController "1" - -> "1" SubMaxSumAlgorithms : makes use of
BenchmarkAlgorithmAdapter - -> Sum
BruteForceAlgorithmAdapter - -> BruteForceAlgorithm

class BenchmarkAlgorithmAdapter implements SubMaxSumAlgorithms
class BruteForceAlgorithmAdapter implements SubMaxSumAlgorithms

@enduml

PlantUML version 1.2021.7(Sun May 23 13:40:07 BST 2021)
(GPL source distribution)
Java Runtime: OpenJDK Runtime Environment
JVM: Dynamic Code Evolution 64-Bit Server VM
Default Encoding: Cp1252
Language: pt
Country: PT
--></g></svg>