<?xml version="1.0" encoding="UTF-8" standalone="no"?><svg xmlns="http://www.w3.org/2000/svg" xmlns:xlink="http://www.w3.org/1999/xlink" contentScriptType="application/ecmascript" contentStyleType="text/css" height="587.5px" preserveAspectRatio="none" style="width:1215px;height:587px;background:#FFFFFF;" version="1.1" viewBox="0 0 1215 587" width="1215px" zoomAndPan="magnify"><defs><filter height="300%" id="f2ttp4e5dwidm" width="300%" x="-1" y="-1"><feGaussianBlur result="blurOut" stdDeviation="2.5"/><feColorMatrix in="blurOut" result="blurOut2" type="matrix" values="0 0 0 0 0 0 0 0 0 0 0 0 0 0 0 0 0 0 .4 0"/><feOffset dx="5.0" dy="5.0" in="blurOut2" result="blurOut3"/><feBlend in="SourceGraphic" in2="blurOut3" mode="normal"/></filter></defs><g><!--MD5=[121a8bf1197281ab89ed693fab589f94]
cluster Domain--><polygon fill="#FFFFFF" filter="url(#f2ttp4e5dwidm)" points="941.25,7.5,1013.75,7.5,1022.5,37.0117,1193.75,37.0117,1193.75,578.75,941.25,578.75,941.25,7.5" style="stroke:#000000;stroke-width:1.875;"/><line style="stroke:#000000;stroke-width:1.875;" x1="941.25" x2="1022.5" y1="37.0117" y2="37.0117"/><text fill="#000000" font-family="sans-serif" font-size="17.5" font-weight="bold" lengthAdjust="spacing" textLength="65" x="946.25" y="28.1665">Domain</text><!--MD5=[15636c1ca4a123c16a2a1a8e90aca7a9]
cluster Model--><polygon fill="#FFFFFF" filter="url(#f2ttp4e5dwidm)" points="971.25,62.5,1033.75,62.5,1042.5,92.0117,1163.75,92.0117,1163.75,275,971.25,275,971.25,62.5" style="stroke:#000000;stroke-width:1.875;"/><line style="stroke:#000000;stroke-width:1.875;" x1="971.25" x2="1042.5" y1="92.0117" y2="92.0117"/><text fill="#000000" font-family="sans-serif" font-size="17.5" font-weight="bold" lengthAdjust="spacing" textLength="55" x="976.25" y="83.1665">Model</text><!--MD5=[7ce1723ddb6e6233854253973eae5a71]
cluster Store--><polygon fill="#FFFFFF" filter="url(#f2ttp4e5dwidm)" points="989.375,305,1044.375,305,1053.125,334.5117,1145.625,334.5117,1145.625,548.75,989.375,548.75,989.375,305" style="stroke:#000000;stroke-width:1.875;"/><line style="stroke:#000000;stroke-width:1.875;" x1="989.375" x2="1053.125" y1="334.5117" y2="334.5117"/><text fill="#000000" font-family="sans-serif" font-size="17.5" font-weight="bold" lengthAdjust="spacing" textLength="47.5" x="994.375" y="325.6665">Store</text><!--MD5=[1f2cfc53d9d308f53762fd0fcbaa4873]
cluster Controller--><polygon fill="#FFFFFF" filter="url(#f2ttp4e5dwidm)" points="362.5,273.75,458.75,273.75,467.5,303.2617,911.25,303.2617,911.25,468.75,362.5,468.75,362.5,273.75" style="stroke:#000000;stroke-width:1.875;"/><line style="stroke:#000000;stroke-width:1.875;" x1="362.5" x2="467.5" y1="303.2617" y2="303.2617"/><text fill="#000000" font-family="sans-serif" font-size="17.5" font-weight="bold" lengthAdjust="spacing" textLength="88.75" x="367.5" y="294.4165">Controller</text><!--MD5=[9681dc6e01e10c6b4fe06895ae94f592]
cluster UI--><polygon fill="#FFFFFF" filter="url(#f2ttp4e5dwidm)" points="20,318.75,45,318.75,53.75,348.2617,327.5,348.2617,327.5,423.75,20,423.75,20,318.75" style="stroke:#000000;stroke-width:1.875;"/><line style="stroke:#000000;stroke-width:1.875;" x1="20" x2="53.75" y1="348.2617" y2="348.2617"/><text fill="#000000" font-family="sans-serif" font-size="17.5" font-weight="bold" lengthAdjust="spacing" textLength="17.5" x="25" y="339.4165">UI</text><!--MD5=[02e4b9b7573f1156f41e60aa5b4e25a4]
class Company--><rect codeLine="10" fill="#FEFECE" filter="url(#f2ttp4e5dwidm)" height="146.4746" id="Company" style="stroke:#A80036;stroke-width:1.875;" width="152.5" x="991.25" y="108.125"/><ellipse cx="1030.8125" cy="128.125" fill="#ADD1B2" rx="13.75" ry="13.75" style="stroke:#A80036;stroke-width:1.25;"/><path d="M1033.3125,123.75 Q1033.5664,123.125 1033.8594,122.8125 Q1034.1523,122.5 1034.4844,122.5 Q1035.0703,122.5 1035.4414,122.8516 Q1035.8125,123.2031 1035.8125,124.0234 L1035.8125,125.9766 Q1035.8125,126.7969 1035.4609,127.1484 Q1035.1094,127.5 1034.5625,127.5 Q1034.0742,127.5 1033.7617,127.2852 Q1033.4492,127.0703 1033.3125,126.5039 Q1033.2539,126.1133 1033.0391,125.8984 Q1032.6484,125.4883 1031.9453,125.2539 Q1031.2422,125 1030.5391,125 Q1029.6602,125 1028.918,125.3516 Q1028.1953,125.7031 1027.6289,126.4844 Q1027.0625,127.2656 1027.0625,128.3398 L1027.0625,129.4922 Q1027.0625,130.7813 1028.1172,131.6406 Q1029.1719,132.5 1031.0469,132.5 Q1032.1602,132.5 1032.9414,132.2461 Q1033.3906,132.1094 1033.8984,131.6602 Q1034.2305,131.4063 1034.4063,131.3281 Q1034.582,131.25 1034.7969,131.25 Q1035.207,131.25 1035.5,131.582 Q1035.8125,131.8945 1035.8125,132.3438 Q1035.8125,132.7734 1035.3828,133.2813 Q1034.7578,134.0234 1033.7617,134.4336 Q1032.4531,135 1030.8516,135 Q1028.9766,135 1027.4727,134.2578 Q1026.2617,133.6719 1025.4023,132.4023 Q1024.5625,131.1328 1024.5625,129.6289 L1024.5625,128.2617 Q1024.5625,126.6992 1025.3047,125.332 Q1026.0664,123.9648 1027.375,123.2422 Q1028.7031,122.5 1030.1875,122.5 Q1031.0859,122.5 1031.8672,122.8125 Q1032.6484,123.125 1033.3125,123.75 Z " fill="#000000"/><text fill="#000000" font-family="sans-serif" font-size="15" lengthAdjust="spacing" textLength="66.25" x="1052.9375" y="134.2627">Company</text><line style="stroke:#A80036;stroke-width:1.875;" x1="992.5" x2="1142.5" y1="148.125" y2="148.125"/><text fill="#000000" font-family="sans-serif" font-size="13.75" lengthAdjust="spacing" textLength="112.5" x="998.75" y="167.3987">-String designation</text><text fill="#000000" font-family="sans-serif" font-size="13.75" lengthAdjust="spacing" textLength="122.5" x="998.75" y="184.6936">-TestStore testStore</text><text fill="#000000" font-family="sans-serif" font-size="13.75" lengthAdjust="spacing" textLength="137.5" x="998.75" y="201.9885">-ClientStore clientStore</text><line style="stroke:#A80036;stroke-width:1.875;" x1="992.5" x2="1142.5" y1="210.0098" y2="210.0098"/><text fill="#000000" font-family="sans-serif" font-size="13.75" lengthAdjust="spacing" textLength="95" x="998.75" y="229.2834">+getTestStore()</text><text fill="#000000" font-family="sans-serif" font-size="13.75" lengthAdjust="spacing" textLength="101.25" x="998.75" y="246.5784">+getClientStore()</text><!--MD5=[0f6f7964b844a64b0496af0dda7914bd]
class TestStore--><rect codeLine="22" fill="#FEFECE" filter="url(#f2ttp4e5dwidm)" height="67.2949" id="TestStore" style="stroke:#A80036;stroke-width:1.875;" width="106.25" x="1014.375" y="350"/><ellipse cx="1033.125" cy="370" fill="#ADD1B2" rx="13.75" ry="13.75" style="stroke:#A80036;stroke-width:1.25;"/><path d="M1035.625,365.625 Q1035.8789,365 1036.1719,364.6875 Q1036.4648,364.375 1036.7969,364.375 Q1037.3828,364.375 1037.7539,364.7266 Q1038.125,365.0781 1038.125,365.8984 L1038.125,367.8516 Q1038.125,368.6719 1037.7734,369.0234 Q1037.4219,369.375 1036.875,369.375 Q1036.3867,369.375 1036.0742,369.1602 Q1035.7617,368.9453 1035.625,368.3789 Q1035.5664,367.9883 1035.3516,367.7734 Q1034.9609,367.3633 1034.2578,367.1289 Q1033.5547,366.875 1032.8516,366.875 Q1031.9727,366.875 1031.2305,367.2266 Q1030.5078,367.5781 1029.9414,368.3594 Q1029.375,369.1406 1029.375,370.2148 L1029.375,371.3672 Q1029.375,372.6563 1030.4297,373.5156 Q1031.4844,374.375 1033.3594,374.375 Q1034.4727,374.375 1035.2539,374.1211 Q1035.7031,373.9844 1036.2109,373.5352 Q1036.543,373.2813 1036.7188,373.2031 Q1036.8945,373.125 1037.1094,373.125 Q1037.5195,373.125 1037.8125,373.457 Q1038.125,373.7695 1038.125,374.2188 Q1038.125,374.6484 1037.6953,375.1563 Q1037.0703,375.8984 1036.0742,376.3086 Q1034.7656,376.875 1033.1641,376.875 Q1031.2891,376.875 1029.7852,376.1328 Q1028.5742,375.5469 1027.7148,374.2773 Q1026.875,373.0078 1026.875,371.5039 L1026.875,370.1367 Q1026.875,368.5742 1027.6172,367.207 Q1028.3789,365.8398 1029.6875,365.1172 Q1031.0156,364.375 1032.5,364.375 Q1033.3984,364.375 1034.1797,364.6875 Q1034.9609,365 1035.625,365.625 Z " fill="#000000"/><text fill="#000000" font-family="sans-serif" font-size="15" lengthAdjust="spacing" textLength="66.25" x="1050.625" y="376.1377">TestStore</text><line style="stroke:#A80036;stroke-width:1.875;" x1="1015.625" x2="1119.375" y1="390" y2="390"/><text fill="#000000" font-family="sans-serif" font-size="13.75" lengthAdjust="spacing" textLength="82.5" x="1021.875" y="409.2737">+getTestsInfo</text><!--MD5=[55cb992be19579b505cea3c5691093cb]
class ClientStore--><rect codeLine="26" fill="#FEFECE" filter="url(#f2ttp4e5dwidm)" height="67.2949" id="ClientStore" style="stroke:#A80036;stroke-width:1.875;" width="116.25" x="1009.375" y="461.25"/><ellipse cx="1028.125" cy="481.25" fill="#ADD1B2" rx="13.75" ry="13.75" style="stroke:#A80036;stroke-width:1.25;"/><path d="M1030.625,476.875 Q1030.8789,476.25 1031.1719,475.9375 Q1031.4648,475.625 1031.7969,475.625 Q1032.3828,475.625 1032.7539,475.9766 Q1033.125,476.3281 1033.125,477.1484 L1033.125,479.1016 Q1033.125,479.9219 1032.7734,480.2734 Q1032.4219,480.625 1031.875,480.625 Q1031.3867,480.625 1031.0742,480.4102 Q1030.7617,480.1953 1030.625,479.6289 Q1030.5664,479.2383 1030.3516,479.0234 Q1029.9609,478.6133 1029.2578,478.3789 Q1028.5547,478.125 1027.8516,478.125 Q1026.9727,478.125 1026.2305,478.4766 Q1025.5078,478.8281 1024.9414,479.6094 Q1024.375,480.3906 1024.375,481.4648 L1024.375,482.6172 Q1024.375,483.9063 1025.4297,484.7656 Q1026.4844,485.625 1028.3594,485.625 Q1029.4727,485.625 1030.2539,485.3711 Q1030.7031,485.2344 1031.2109,484.7852 Q1031.543,484.5313 1031.7188,484.4531 Q1031.8945,484.375 1032.1094,484.375 Q1032.5195,484.375 1032.8125,484.707 Q1033.125,485.0195 1033.125,485.4688 Q1033.125,485.8984 1032.6953,486.4063 Q1032.0703,487.1484 1031.0742,487.5586 Q1029.7656,488.125 1028.1641,488.125 Q1026.2891,488.125 1024.7852,487.3828 Q1023.5742,486.7969 1022.7148,485.5273 Q1021.875,484.2578 1021.875,482.7539 L1021.875,481.3867 Q1021.875,479.8242 1022.6172,478.457 Q1023.3789,477.0898 1024.6875,476.3672 Q1026.0156,475.625 1027.5,475.625 Q1028.3984,475.625 1029.1797,475.9375 Q1029.9609,476.25 1030.625,476.875 Z " fill="#000000"/><text fill="#000000" font-family="sans-serif" font-size="15" lengthAdjust="spacing" textLength="76.25" x="1045.625" y="487.3877">ClientStore</text><line style="stroke:#A80036;stroke-width:1.875;" x1="1010.625" x2="1124.375" y1="501.25" y2="501.25"/><text fill="#000000" font-family="sans-serif" font-size="13.75" lengthAdjust="spacing" textLength="91.25" x="1016.875" y="520.5237">+getClientInfo()</text><!--MD5=[670275f839cd0f6ae295f6f439fd6034]
class CompanyPerformanceAnalysisController--><rect codeLine="36" fill="#FEFECE" filter="url(#f2ttp4e5dwidm)" height="129.1797" id="CompanyPerformanceAnalysisController" style="stroke:#A80036;stroke-width:1.875;" width="508.75" x="382.5" y="319.375"/><ellipse cx="491.5625" cy="339.375" fill="#ADD1B2" rx="13.75" ry="13.75" style="stroke:#A80036;stroke-width:1.25;"/><path d="M494.0625,335 Q494.3164,334.375 494.6094,334.0625 Q494.9023,333.75 495.2344,333.75 Q495.8203,333.75 496.1914,334.1016 Q496.5625,334.4531 496.5625,335.2734 L496.5625,337.2266 Q496.5625,338.0469 496.2109,338.3984 Q495.8594,338.75 495.3125,338.75 Q494.8242,338.75 494.5117,338.5352 Q494.1992,338.3203 494.0625,337.7539 Q494.0039,337.3633 493.7891,337.1484 Q493.3984,336.7383 492.6953,336.5039 Q491.9922,336.25 491.2891,336.25 Q490.4102,336.25 489.668,336.6016 Q488.9453,336.9531 488.3789,337.7344 Q487.8125,338.5156 487.8125,339.5898 L487.8125,340.7422 Q487.8125,342.0313 488.8672,342.8906 Q489.9219,343.75 491.7969,343.75 Q492.9102,343.75 493.6914,343.4961 Q494.1406,343.3594 494.6484,342.9102 Q494.9805,342.6563 495.1563,342.5781 Q495.332,342.5 495.5469,342.5 Q495.957,342.5 496.25,342.832 Q496.5625,343.1445 496.5625,343.5938 Q496.5625,344.0234 496.1328,344.5313 Q495.5078,345.2734 494.5117,345.6836 Q493.2031,346.25 491.6016,346.25 Q489.7266,346.25 488.2227,345.5078 Q487.0117,344.9219 486.1523,343.6523 Q485.3125,342.3828 485.3125,340.8789 L485.3125,339.5117 Q485.3125,337.9492 486.0547,336.582 Q486.8164,335.2148 488.125,334.4922 Q489.4531,333.75 490.9375,333.75 Q491.8359,333.75 492.6172,334.0625 Q493.3984,334.375 494.0625,335 Z " fill="#000000"/><text fill="#000000" font-family="sans-serif" font-size="15" lengthAdjust="spacing" textLength="280" x="517.1875" y="345.5127">CompanyPerformanceAnalysisController</text><line style="stroke:#A80036;stroke-width:1.875;" x1="383.75" x2="890" y1="359.375" y2="359.375"/><text fill="#000000" font-family="sans-serif" font-size="13.75" lengthAdjust="spacing" textLength="120" x="390" y="378.6487">-Company company</text><line style="stroke:#A80036;stroke-width:1.875;" x1="383.75" x2="890" y1="386.6699" y2="386.6699"/><text fill="#000000" font-family="sans-serif" font-size="13.75" lengthAdjust="spacing" textLength="122.5" x="390" y="405.9436">+getTestOverview()</text><text fill="#000000" font-family="sans-serif" font-size="13.75" lengthAdjust="spacing" textLength="493.75" x="390" y="423.2385">+findWorstSubIntWithBenchmarkAlgorithm(firstDayToAnalyse, lastDayToAnalyse)</text><text fill="#000000" font-family="sans-serif" font-size="13.75" lengthAdjust="spacing" textLength="491.25" x="390" y="440.5334">+findWorstSubIntWithBruteforceAlgorithm(firstDayToAnalyse, lastDayToAnalyse)</text><!--MD5=[3404723274ca4ec774b8d2f7e379376f]
class CompanyPerformanceAnalysisUI--><rect codeLine="47" fill="#FEFECE" filter="url(#f2ttp4e5dwidm)" height="40" id="CompanyPerformanceAnalysisUI" style="stroke:#A80036;stroke-width:1.875;" width="267.5" x="40" y="363.75"/><ellipse cx="58.75" cy="383.75" fill="#ADD1B2" rx="13.75" ry="13.75" style="stroke:#A80036;stroke-width:1.25;"/><path d="M61.25,379.375 Q61.5039,378.75 61.7969,378.4375 Q62.0898,378.125 62.4219,378.125 Q63.0078,378.125 63.3789,378.4766 Q63.75,378.8281 63.75,379.6484 L63.75,381.6016 Q63.75,382.4219 63.3984,382.7734 Q63.0469,383.125 62.5,383.125 Q62.0117,383.125 61.6992,382.9102 Q61.3867,382.6953 61.25,382.1289 Q61.1914,381.7383 60.9766,381.5234 Q60.5859,381.1133 59.8828,380.8789 Q59.1797,380.625 58.4766,380.625 Q57.5977,380.625 56.8555,380.9766 Q56.1328,381.3281 55.5664,382.1094 Q55,382.8906 55,383.9648 L55,385.1172 Q55,386.4063 56.0547,387.2656 Q57.1094,388.125 58.9844,388.125 Q60.0977,388.125 60.8789,387.8711 Q61.3281,387.7344 61.8359,387.2852 Q62.168,387.0313 62.3438,386.9531 Q62.5195,386.875 62.7344,386.875 Q63.1445,386.875 63.4375,387.207 Q63.75,387.5195 63.75,387.9688 Q63.75,388.3984 63.3203,388.9063 Q62.6953,389.6484 61.6992,390.0586 Q60.3906,390.625 58.7891,390.625 Q56.9141,390.625 55.4102,389.8828 Q54.1992,389.2969 53.3398,388.0273 Q52.5,386.7578 52.5,385.2539 L52.5,383.8867 Q52.5,382.3242 53.2422,380.957 Q54.0039,379.5898 55.3125,378.8672 Q56.6406,378.125 58.125,378.125 Q59.0234,378.125 59.8047,378.4375 Q60.5859,378.75 61.25,379.375 Z " fill="#000000"/><text fill="#000000" font-family="sans-serif" font-size="15" lengthAdjust="spacing" textLength="227.5" x="76.25" y="389.8877">CompanyPerformanceAnalysisUI</text><!--MD5=[5b29af9deb3324aeb9c231daa5002dba]
link CompanyPerformanceAnalysisUI to CompanyPerformanceAnalysisController--><path codeLine="52" d="M307.6125,383.75 C329.2375,383.75 352.2625,383.75 375.7125,383.75 " fill="none" id="CompanyPerformanceAnalysisUI-to-CompanyPerformanceAnalysisController" style="stroke:#A80036;stroke-width:1.25;stroke-dasharray:7.0,7.0;"/><polygon fill="#A80036" points="382.3375,383.75,371.0875,378.75,376.0875,383.75,371.0875,388.75,382.3375,383.75" style="stroke:#A80036;stroke-width:1.25;"/><!--MD5=[5ce4db4ce32c27ecea6aaa74e26a0164]
link CompanyPerformanceAnalysisController to Company--><path codeLine="53" d="M774.7625,319.125 C844.225,286.2625 926.25,247.4625 985.575,219.4125 " fill="none" id="CompanyPerformanceAnalysisController-to-Company" style="stroke:#A80036;stroke-width:1.25;stroke-dasharray:7.0,7.0;"/><polygon fill="#A80036" points="991.2375,216.725,978.9303,217.0323,985.5913,219.4051,983.2185,226.0662,991.2375,216.725" style="stroke:#A80036;stroke-width:1.25;"/><!--MD5=[556445e2a8ca4c0c6a33a05341a7825e]
link CompanyPerformanceAnalysisController to ClientStore--><path codeLine="54" d="M885.925,448.1375 C929.2625,459.4 970.7125,470.175 1002.925,478.5375 " fill="none" id="CompanyPerformanceAnalysisController-to-ClientStore" style="stroke:#A80036;stroke-width:1.25;stroke-dasharray:7.0,7.0;"/><polygon fill="#A80036" points="1009.2375,480.1875,999.6102,472.5143,1003.1891,478.6128,997.0907,482.1917,1009.2375,480.1875" style="stroke:#A80036;stroke-width:1.25;"/><!--MD5=[d03b593c12afa5f3c42671c11d6ed63b]
link CompanyPerformanceAnalysisController to TestStore--><path codeLine="55" d="M891.5,383.75 C934.9875,383.75 976.2375,383.75 1007.725,383.75 " fill="none" id="CompanyPerformanceAnalysisController-to-TestStore" style="stroke:#A80036;stroke-width:1.25;stroke-dasharray:7.0,7.0;"/><polygon fill="#A80036" points="1014.2875,383.75,1003.0375,378.75,1008.0375,383.75,1003.0375,388.75,1014.2875,383.75" style="stroke:#A80036;stroke-width:1.25;"/><!--MD5=[8736b7a96740c911ffb7b41008e496ba]
@startuml
hide empty methods
hide empty attributes
left to right direction
skinparam classAttributeIconSize 0

package Domain {

package Model{

class Company {
    -String designation
    -TestStore testStore
    -ClientStore clientStore
    +getTestStore()
    +getClientStore()
}

}

package Store {

class TestStore {
+getTestsInfo
}

class ClientStore {
+getClientInfo()
}

}

}

package Controller {

class CompanyPerformanceAnalysisController{
    -Company company
    +getTestOverview()
    +findWorstSubIntWithBenchmarkAlgorithm(firstDayToAnalyse, lastDayToAnalyse)
    +findWorstSubIntWithBruteforceAlgorithm(firstDayToAnalyse, lastDayToAnalyse)
}

}

package UI {

class CompanyPerformanceAnalysisUI{
}

}

CompanyPerformanceAnalysisUI ..> CompanyPerformanceAnalysisController
CompanyPerformanceAnalysisController ..> Company
CompanyPerformanceAnalysisController ..> ClientStore
CompanyPerformanceAnalysisController ..> TestStore

@enduml

PlantUML version 1.2021.7(Sun May 23 13:40:07 BST 2021)
(GPL source distribution)
Java Runtime: OpenJDK Runtime Environment
JVM: Dynamic Code Evolution 64-Bit Server VM
Default Encoding: Cp1252
Language: pt
Country: PT
--></g></svg>