<?xml version="1.0" encoding="UTF-8" standalone="no"?><svg xmlns="http://www.w3.org/2000/svg" xmlns:xlink="http://www.w3.org/1999/xlink" contentScriptType="application/ecmascript" contentStyleType="text/css" height="405px" preserveAspectRatio="none" style="width:3292px;height:405px;background:#FFFFFF;" version="1.1" viewBox="0 0 3292 405" width="3292.5px" zoomAndPan="magnify"><defs><filter height="300%" id="fmnzye6u56nr3" width="300%" x="-1" y="-1"><feGaussianBlur result="blurOut" stdDeviation="2.5"/><feColorMatrix in="blurOut" result="blurOut2" type="matrix" values="0 0 0 0 0 0 0 0 0 0 0 0 0 0 0 0 0 0 .4 0"/><feOffset dx="5.0" dy="5.0" in="blurOut2" result="blurOut3"/><feBlend in="SourceGraphic" in2="blurOut3" mode="normal"/></filter></defs><g><!--MD5=[2c2e2644034c00788261e03c85b06837]
cluster Core--><polygon fill="#FFFFFF" filter="url(#fmnzye6u56nr3)" points="20,7.5,70,7.5,78.75,37.0117,2873.75,37.0117,2873.75,396.25,20,396.25,20,7.5" style="stroke:#000000;stroke-width:1.875;"/><line style="stroke:#000000;stroke-width:1.875;" x1="20" x2="78.75" y1="37.0117" y2="37.0117"/><text fill="#000000" font-family="sans-serif" font-size="17.5" font-weight="bold" lengthAdjust="spacing" textLength="42.5" x="25" y="28.1665">Core</text><!--MD5=[121a8bf1197281ab89ed693fab589f94]
cluster Domain--><polygon fill="#FFFFFF" filter="url(#fmnzye6u56nr3)" points="850,62.5,922.5,62.5,931.25,92.0117,2843.75,92.0117,2843.75,366.25,850,366.25,850,62.5" style="stroke:#000000;stroke-width:1.875;"/><line style="stroke:#000000;stroke-width:1.875;" x1="850" x2="931.25" y1="92.0117" y2="92.0117"/><text fill="#000000" font-family="sans-serif" font-size="17.5" font-weight="bold" lengthAdjust="spacing" textLength="65" x="855" y="83.1665">Domain</text><!--MD5=[15636c1ca4a123c16a2a1a8e90aca7a9]
cluster Model--><polygon fill="#FFFFFF" filter="url(#fmnzye6u56nr3)" points="2397.5,121.25,2460,121.25,2468.75,150.7617,2813.75,150.7617,2813.75,332.5,2397.5,332.5,2397.5,121.25" style="stroke:#000000;stroke-width:1.875;"/><line style="stroke:#000000;stroke-width:1.875;" x1="2397.5" x2="2468.75" y1="150.7617" y2="150.7617"/><text fill="#000000" font-family="sans-serif" font-size="17.5" font-weight="bold" lengthAdjust="spacing" textLength="55" x="2402.5" y="141.9165">Model</text><!--MD5=[0b89f7d34c26fffbb81ea7301eb9df33]
cluster Interfaces--><polygon fill="#FFFFFF" filter="url(#fmnzye6u56nr3)" points="2125,155.625,2221.25,155.625,2230,185.1367,2367.5,185.1367,2367.5,298.125,2125,298.125,2125,155.625" style="stroke:#000000;stroke-width:1.875;"/><line style="stroke:#000000;stroke-width:1.875;" x1="2125" x2="2230" y1="185.1367" y2="185.1367"/><text fill="#000000" font-family="sans-serif" font-size="17.5" font-weight="bold" lengthAdjust="spacing" textLength="88.75" x="2130" y="176.2915">Interfaces</text><!--MD5=[7ce1723ddb6e6233854253973eae5a71]
cluster Store--><polygon fill="#FFFFFF" filter="url(#fmnzye6u56nr3)" points="1463.75,117.5,1518.75,117.5,1527.5,147.0117,2095,147.0117,2095,336.25,1463.75,336.25,1463.75,117.5" style="stroke:#000000;stroke-width:1.875;"/><line style="stroke:#000000;stroke-width:1.875;" x1="1463.75" x2="1527.5" y1="147.0117" y2="147.0117"/><text fill="#000000" font-family="sans-serif" font-size="17.5" font-weight="bold" lengthAdjust="spacing" textLength="47.5" x="1468.75" y="138.1665">Store</text><!--MD5=[aedc30b8666742a3000193d7e0a0b93e]
cluster Adapters--><polygon fill="#FFFFFF" filter="url(#fmnzye6u56nr3)" points="880,160.625,966.25,160.625,975,190.1367,1433.75,190.1367,1433.75,293.125,880,293.125,880,160.625" style="stroke:#000000;stroke-width:1.875;"/><line style="stroke:#000000;stroke-width:1.875;" x1="880" x2="975" y1="190.1367" y2="190.1367"/><text fill="#000000" font-family="sans-serif" font-size="17.5" font-weight="bold" lengthAdjust="spacing" textLength="78.75" x="885" y="181.2915">Adapters</text><!--MD5=[1f2cfc53d9d308f53762fd0fcbaa4873]
cluster Controller--><polygon fill="#FFFFFF" filter="url(#fmnzye6u56nr3)" points="260,103.75,356.25,103.75,365,133.2617,820,133.2617,820,350,260,350,260,103.75" style="stroke:#000000;stroke-width:1.875;"/><line style="stroke:#000000;stroke-width:1.875;" x1="260" x2="365" y1="133.2617" y2="133.2617"/><text fill="#000000" font-family="sans-serif" font-size="17.5" font-weight="bold" lengthAdjust="spacing" textLength="88.75" x="265" y="124.4165">Controller</text><!--MD5=[c29634d7cdbe8f1c1e88f2fe66ae73ec]
cluster ThirdParty--><polygon fill="#FFFFFF" filter="url(#fmnzye6u56nr3)" points="50,105.625,146.25,105.625,155,135.1367,230,135.1367,230,323.125,50,323.125,50,105.625" style="stroke:#000000;stroke-width:1.875;"/><line style="stroke:#000000;stroke-width:1.875;" x1="50" x2="155" y1="135.1367" y2="135.1367"/><text fill="#000000" font-family="sans-serif" font-size="17.5" font-weight="bold" lengthAdjust="spacing" textLength="88.75" x="55" y="126.2915">ThirdParty</text><!--MD5=[0d079ae59d318396171bf167e6cb96b6]
cluster APIs--><polygon fill="#FFFFFF" filter="url(#fmnzye6u56nr3)" points="80,160.625,125,160.625,133.75,190.1367,200,190.1367,200,293.125,80,293.125,80,160.625" style="stroke:#000000;stroke-width:1.875;"/><line style="stroke:#000000;stroke-width:1.875;" x1="80" x2="133.75" y1="190.1367" y2="190.1367"/><text fill="#000000" font-family="sans-serif" font-size="17.5" font-weight="bold" lengthAdjust="spacing" textLength="37.5" x="85" y="181.2915">APIs</text><!--MD5=[9681dc6e01e10c6b4fe06895ae94f592]
cluster UI--><polygon fill="#FFFFFF" filter="url(#fmnzye6u56nr3)" points="2903.75,119.375,2928.75,119.375,2937.5,148.8867,3271.25,148.8867,3271.25,309.375,2903.75,309.375,2903.75,119.375" style="stroke:#000000;stroke-width:1.875;"/><line style="stroke:#000000;stroke-width:1.875;" x1="2903.75" x2="2937.5" y1="148.8867" y2="148.8867"/><text fill="#000000" font-family="sans-serif" font-size="17.5" font-weight="bold" lengthAdjust="spacing" textLength="17.5" x="2908.75" y="140.0415">UI</text><!--MD5=[b27c5c9af3cea12247b1c4c8d3c78770]
cluster GUI--><polygon fill="#FFFFFF" filter="url(#fmnzye6u56nr3)" points="2933.75,174.375,2972.5,174.375,2981.25,203.8867,3241.25,203.8867,3241.25,279.375,2933.75,279.375,2933.75,174.375" style="stroke:#000000;stroke-width:1.875;"/><line style="stroke:#000000;stroke-width:1.875;" x1="2933.75" x2="2981.25" y1="203.8867" y2="203.8867"/><text fill="#000000" font-family="sans-serif" font-size="17.5" font-weight="bold" lengthAdjust="spacing" textLength="31.25" x="2938.75" y="195.0415">GUI</text><!--MD5=[02e4b9b7573f1156f41e60aa5b4e25a4]
class Company--><rect codeLine="13" fill="#FEFECE" filter="url(#fmnzye6u56nr3)" height="146.4746" id="Company" style="stroke:#A80036;stroke-width:1.875;" width="152.5" x="2641.25" y="166.25"/><ellipse cx="2680.8125" cy="186.25" fill="#ADD1B2" rx="13.75" ry="13.75" style="stroke:#A80036;stroke-width:1.25;"/><path d="M2683.3125,181.875 Q2683.5664,181.25 2683.8594,180.9375 Q2684.1523,180.625 2684.4844,180.625 Q2685.0703,180.625 2685.4414,180.9766 Q2685.8125,181.3281 2685.8125,182.1484 L2685.8125,184.1016 Q2685.8125,184.9219 2685.4609,185.2734 Q2685.1094,185.625 2684.5625,185.625 Q2684.0742,185.625 2683.7617,185.4102 Q2683.4492,185.1953 2683.3125,184.6289 Q2683.2539,184.2383 2683.0391,184.0234 Q2682.6484,183.6133 2681.9453,183.3789 Q2681.2422,183.125 2680.5391,183.125 Q2679.6602,183.125 2678.918,183.4766 Q2678.1953,183.8281 2677.6289,184.6094 Q2677.0625,185.3906 2677.0625,186.4648 L2677.0625,187.6172 Q2677.0625,188.9063 2678.1172,189.7656 Q2679.1719,190.625 2681.0469,190.625 Q2682.1602,190.625 2682.9414,190.3711 Q2683.3906,190.2344 2683.8984,189.7852 Q2684.2305,189.5313 2684.4063,189.4531 Q2684.582,189.375 2684.7969,189.375 Q2685.207,189.375 2685.5,189.707 Q2685.8125,190.0195 2685.8125,190.4688 Q2685.8125,190.8984 2685.3828,191.4063 Q2684.7578,192.1484 2683.7617,192.5586 Q2682.4531,193.125 2680.8516,193.125 Q2678.9766,193.125 2677.4727,192.3828 Q2676.2617,191.7969 2675.4023,190.5273 Q2674.5625,189.2578 2674.5625,187.7539 L2674.5625,186.3867 Q2674.5625,184.8242 2675.3047,183.457 Q2676.0664,182.0898 2677.375,181.3672 Q2678.7031,180.625 2680.1875,180.625 Q2681.0859,180.625 2681.8672,180.9375 Q2682.6484,181.25 2683.3125,181.875 Z " fill="#000000"/><text fill="#000000" font-family="sans-serif" font-size="15" lengthAdjust="spacing" textLength="66.25" x="2702.9375" y="192.3877">Company</text><line style="stroke:#A80036;stroke-width:1.875;" x1="2642.5" x2="2792.5" y1="206.25" y2="206.25"/><text fill="#000000" font-family="sans-serif" font-size="13.75" lengthAdjust="spacing" textLength="112.5" x="2648.75" y="225.5237">-String designation</text><text fill="#000000" font-family="sans-serif" font-size="13.75" lengthAdjust="spacing" textLength="122.5" x="2648.75" y="242.8186">-TestStore testStore</text><text fill="#000000" font-family="sans-serif" font-size="13.75" lengthAdjust="spacing" textLength="137.5" x="2648.75" y="260.1135">-ClientStore clientStore</text><line style="stroke:#A80036;stroke-width:1.875;" x1="2642.5" x2="2792.5" y1="268.1348" y2="268.1348"/><text fill="#000000" font-family="sans-serif" font-size="13.75" lengthAdjust="spacing" textLength="95" x="2648.75" y="287.4084">+getTestStore()</text><text fill="#000000" font-family="sans-serif" font-size="13.75" lengthAdjust="spacing" textLength="101.25" x="2648.75" y="304.7034">+getClientStore()</text><!--MD5=[1dec90c14ec2ba3af2708f621be65d00]
class BruteForceAlgorithm--><rect codeLine="21" fill="#FEFECE" filter="url(#fmnzye6u56nr3)" height="67.2949" id="BruteForceAlgorithm" style="stroke:#A80036;stroke-width:1.875;" width="180" x="2417.5" y="205.625"/><ellipse cx="2436.25" cy="225.625" fill="#ADD1B2" rx="13.75" ry="13.75" style="stroke:#A80036;stroke-width:1.25;"/><path d="M2438.75,221.25 Q2439.0039,220.625 2439.2969,220.3125 Q2439.5898,220 2439.9219,220 Q2440.5078,220 2440.8789,220.3516 Q2441.25,220.7031 2441.25,221.5234 L2441.25,223.4766 Q2441.25,224.2969 2440.8984,224.6484 Q2440.5469,225 2440,225 Q2439.5117,225 2439.1992,224.7852 Q2438.8867,224.5703 2438.75,224.0039 Q2438.6914,223.6133 2438.4766,223.3984 Q2438.0859,222.9883 2437.3828,222.7539 Q2436.6797,222.5 2435.9766,222.5 Q2435.0977,222.5 2434.3555,222.8516 Q2433.6328,223.2031 2433.0664,223.9844 Q2432.5,224.7656 2432.5,225.8398 L2432.5,226.9922 Q2432.5,228.2813 2433.5547,229.1406 Q2434.6094,230 2436.4844,230 Q2437.5977,230 2438.3789,229.7461 Q2438.8281,229.6094 2439.3359,229.1602 Q2439.668,228.9063 2439.8438,228.8281 Q2440.0195,228.75 2440.2344,228.75 Q2440.6445,228.75 2440.9375,229.082 Q2441.25,229.3945 2441.25,229.8438 Q2441.25,230.2734 2440.8203,230.7813 Q2440.1953,231.5234 2439.1992,231.9336 Q2437.8906,232.5 2436.2891,232.5 Q2434.4141,232.5 2432.9102,231.7578 Q2431.6992,231.1719 2430.8398,229.9023 Q2430,228.6328 2430,227.1289 L2430,225.7617 Q2430,224.1992 2430.7422,222.832 Q2431.5039,221.4648 2432.8125,220.7422 Q2434.1406,220 2435.625,220 Q2436.5234,220 2437.3047,220.3125 Q2438.0859,220.625 2438.75,221.25 Z " fill="#000000"/><text fill="#000000" font-family="sans-serif" font-size="15" lengthAdjust="spacing" textLength="140" x="2453.75" y="231.7627">BruteForceAlgorithm</text><line style="stroke:#A80036;stroke-width:1.875;" x1="2418.75" x2="2596.25" y1="245.625" y2="245.625"/><text fill="#000000" font-family="sans-serif" font-size="13.75" lengthAdjust="spacing" textLength="65" x="2425" y="264.8987">+Max(seq)</text><!--MD5=[03e21a3a74a4ec725edc90da8949a6b4]
class SubMaxSumAlgorithms--><rect codeLine="29" fill="#FEFECE" filter="url(#fmnzye6u56nr3)" height="77.5293" id="SubMaxSumAlgorithms" style="stroke:#A80036;stroke-width:1.875;" width="202.5" x="2145" y="200.625"/><ellipse cx="2163.75" cy="225.7422" fill="#B4A7E5" rx="13.75" ry="13.75" style="stroke:#A80036;stroke-width:1.25;"/><path d="M2165,221.9922 L2165,229.4922 L2167.5,229.4922 L2168.1055,229.4922 L2168.75,230.2734 L2168.75,230.7422 L2168.75,231.2109 L2168.1055,231.9922 L2167.5,231.9922 L2160,231.9922 L2159.3945,231.9922 L2158.75,231.2109 L2158.75,230.7422 L2158.75,230.2734 L2159.3945,229.4922 L2160,229.4922 L2162.5,229.4922 L2162.5,221.9922 L2160,221.9922 L2159.3945,221.9922 L2158.75,221.2109 L2158.75,220.7422 L2158.75,220.2734 L2159.3945,219.4922 L2160,219.4922 L2167.5,219.4922 L2168.1055,219.4922 L2168.75,220.2734 L2168.75,220.7422 L2168.75,221.2109 L2168.1055,221.9922 L2167.5,221.9922 L2165,221.9922 Z " fill="#000000"/><text fill="#000000" font-family="sans-serif" font-size="15" font-style="italic" lengthAdjust="spacing" textLength="76.25" x="2224.375" y="222.4463">«interface»</text><text fill="#000000" font-family="sans-serif" font-size="15" font-style="italic" lengthAdjust="spacing" textLength="162.5" x="2181.25" y="241.3135">SubMaxSumAlgorithms</text><line style="stroke:#A80036;stroke-width:1.875;" x1="2146.25" x2="2346.25" y1="250.8594" y2="250.8594"/><text fill="#000000" font-family="sans-serif" font-size="13.75" lengthAdjust="spacing" textLength="158.75" x="2152.5" y="270.1331">+findSubMaxSum(interval)</text><!--MD5=[0f6f7964b844a64b0496af0dda7914bd]
class TestStore--><rect codeLine="37" fill="#FEFECE" filter="url(#fmnzye6u56nr3)" height="153.7695" id="TestStore" style="stroke:#A80036;stroke-width:1.875;" width="430" x="1645" y="162.5"/><ellipse cx="1821.5625" cy="182.5" fill="#ADD1B2" rx="13.75" ry="13.75" style="stroke:#A80036;stroke-width:1.25;"/><path d="M1824.0625,178.125 Q1824.3164,177.5 1824.6094,177.1875 Q1824.9023,176.875 1825.2344,176.875 Q1825.8203,176.875 1826.1914,177.2266 Q1826.5625,177.5781 1826.5625,178.3984 L1826.5625,180.3516 Q1826.5625,181.1719 1826.2109,181.5234 Q1825.8594,181.875 1825.3125,181.875 Q1824.8242,181.875 1824.5117,181.6602 Q1824.1992,181.4453 1824.0625,180.8789 Q1824.0039,180.4883 1823.7891,180.2734 Q1823.3984,179.8633 1822.6953,179.6289 Q1821.9922,179.375 1821.2891,179.375 Q1820.4102,179.375 1819.668,179.7266 Q1818.9453,180.0781 1818.3789,180.8594 Q1817.8125,181.6406 1817.8125,182.7148 L1817.8125,183.8672 Q1817.8125,185.1563 1818.8672,186.0156 Q1819.9219,186.875 1821.7969,186.875 Q1822.9102,186.875 1823.6914,186.6211 Q1824.1406,186.4844 1824.6484,186.0352 Q1824.9805,185.7813 1825.1563,185.7031 Q1825.332,185.625 1825.5469,185.625 Q1825.957,185.625 1826.25,185.957 Q1826.5625,186.2695 1826.5625,186.7188 Q1826.5625,187.1484 1826.1328,187.6563 Q1825.5078,188.3984 1824.5117,188.8086 Q1823.2031,189.375 1821.6016,189.375 Q1819.7266,189.375 1818.2227,188.6328 Q1817.0117,188.0469 1816.1523,186.7773 Q1815.3125,185.5078 1815.3125,184.0039 L1815.3125,182.6367 Q1815.3125,181.0742 1816.0547,179.707 Q1816.8164,178.3398 1818.125,177.6172 Q1819.4531,176.875 1820.9375,176.875 Q1821.8359,176.875 1822.6172,177.1875 Q1823.3984,177.5 1824.0625,178.125 Z " fill="#000000"/><text fill="#000000" font-family="sans-serif" font-size="15" lengthAdjust="spacing" textLength="66.25" x="1847.1875" y="188.6377">TestStore</text><line style="stroke:#A80036;stroke-width:1.875;" x1="1646.25" x2="2073.75" y1="202.5" y2="202.5"/><text fill="#000000" font-family="sans-serif" font-size="13.75" lengthAdjust="spacing" textLength="251.25" x="1652.5" y="221.7737">+getNumTestsWaitingForResultsDay(day)</text><text fill="#000000" font-family="sans-serif" font-size="13.75" lengthAdjust="spacing" textLength="401.25" x="1652.5" y="239.0686">+getNumTestsWaitingForResultsInterval(beginningDay, endingDay)</text><text fill="#000000" font-family="sans-serif" font-size="13.75" lengthAdjust="spacing" textLength="265" x="1652.5" y="256.3635">+getNumTestsWaitingForDiagnosisDay(day)</text><text fill="#000000" font-family="sans-serif" font-size="13.75" lengthAdjust="spacing" textLength="415" x="1652.5" y="273.6584">+getNumTestsWaitingForDiagnosisInterval(beginningDay, endingDay)</text><text fill="#000000" font-family="sans-serif" font-size="13.75" lengthAdjust="spacing" textLength="240" x="1652.5" y="290.9534">+getNumTestsProcessedInLabDay(day)</text><text fill="#000000" font-family="sans-serif" font-size="13.75" lengthAdjust="spacing" textLength="390" x="1652.5" y="308.2483">+getNumTestsProcessedInLabInterval(beginningDay, endingDay)</text><!--MD5=[55cb992be19579b505cea3c5691093cb]
class ClientStore--><rect codeLine="46" fill="#FEFECE" filter="url(#fmnzye6u56nr3)" height="67.2949" id="ClientStore" style="stroke:#A80036;stroke-width:1.875;" width="116.25" x="1484.375" y="205.625"/><ellipse cx="1503.125" cy="225.625" fill="#ADD1B2" rx="13.75" ry="13.75" style="stroke:#A80036;stroke-width:1.25;"/><path d="M1505.625,221.25 Q1505.8789,220.625 1506.1719,220.3125 Q1506.4648,220 1506.7969,220 Q1507.3828,220 1507.7539,220.3516 Q1508.125,220.7031 1508.125,221.5234 L1508.125,223.4766 Q1508.125,224.2969 1507.7734,224.6484 Q1507.4219,225 1506.875,225 Q1506.3867,225 1506.0742,224.7852 Q1505.7617,224.5703 1505.625,224.0039 Q1505.5664,223.6133 1505.3516,223.3984 Q1504.9609,222.9883 1504.2578,222.7539 Q1503.5547,222.5 1502.8516,222.5 Q1501.9727,222.5 1501.2305,222.8516 Q1500.5078,223.2031 1499.9414,223.9844 Q1499.375,224.7656 1499.375,225.8398 L1499.375,226.9922 Q1499.375,228.2813 1500.4297,229.1406 Q1501.4844,230 1503.3594,230 Q1504.4727,230 1505.2539,229.7461 Q1505.7031,229.6094 1506.2109,229.1602 Q1506.543,228.9063 1506.7188,228.8281 Q1506.8945,228.75 1507.1094,228.75 Q1507.5195,228.75 1507.8125,229.082 Q1508.125,229.3945 1508.125,229.8438 Q1508.125,230.2734 1507.6953,230.7813 Q1507.0703,231.5234 1506.0742,231.9336 Q1504.7656,232.5 1503.1641,232.5 Q1501.2891,232.5 1499.7852,231.7578 Q1498.5742,231.1719 1497.7148,229.9023 Q1496.875,228.6328 1496.875,227.1289 L1496.875,225.7617 Q1496.875,224.1992 1497.6172,222.832 Q1498.3789,221.4648 1499.6875,220.7422 Q1501.0156,220 1502.5,220 Q1503.3984,220 1504.1797,220.3125 Q1504.9609,220.625 1505.625,221.25 Z " fill="#000000"/><text fill="#000000" font-family="sans-serif" font-size="15" lengthAdjust="spacing" textLength="76.25" x="1520.625" y="231.7627">ClientStore</text><line style="stroke:#A80036;stroke-width:1.875;" x1="1485.625" x2="1599.375" y1="245.625" y2="245.625"/><text fill="#000000" font-family="sans-serif" font-size="13.75" lengthAdjust="spacing" textLength="76.25" x="1491.875" y="264.8987">+getClients()</text><!--MD5=[f4a38599b97b911edb1e154f571cf5e4]
class BenchmarkAlgorithmAdapter--><rect codeLine="54" fill="#FEFECE" filter="url(#fmnzye6u56nr3)" height="67.2949" id="BenchmarkAlgorithmAdapter" style="stroke:#A80036;stroke-width:1.875;" width="236.25" x="1176.875" y="205.625"/><ellipse cx="1195.625" cy="225.625" fill="#ADD1B2" rx="13.75" ry="13.75" style="stroke:#A80036;stroke-width:1.25;"/><path d="M1198.125,221.25 Q1198.3789,220.625 1198.6719,220.3125 Q1198.9648,220 1199.2969,220 Q1199.8828,220 1200.2539,220.3516 Q1200.625,220.7031 1200.625,221.5234 L1200.625,223.4766 Q1200.625,224.2969 1200.2734,224.6484 Q1199.9219,225 1199.375,225 Q1198.8867,225 1198.5742,224.7852 Q1198.2617,224.5703 1198.125,224.0039 Q1198.0664,223.6133 1197.8516,223.3984 Q1197.4609,222.9883 1196.7578,222.7539 Q1196.0547,222.5 1195.3516,222.5 Q1194.4727,222.5 1193.7305,222.8516 Q1193.0078,223.2031 1192.4414,223.9844 Q1191.875,224.7656 1191.875,225.8398 L1191.875,226.9922 Q1191.875,228.2813 1192.9297,229.1406 Q1193.9844,230 1195.8594,230 Q1196.9727,230 1197.7539,229.7461 Q1198.2031,229.6094 1198.7109,229.1602 Q1199.043,228.9063 1199.2188,228.8281 Q1199.3945,228.75 1199.6094,228.75 Q1200.0195,228.75 1200.3125,229.082 Q1200.625,229.3945 1200.625,229.8438 Q1200.625,230.2734 1200.1953,230.7813 Q1199.5703,231.5234 1198.5742,231.9336 Q1197.2656,232.5 1195.6641,232.5 Q1193.7891,232.5 1192.2852,231.7578 Q1191.0742,231.1719 1190.2148,229.9023 Q1189.375,228.6328 1189.375,227.1289 L1189.375,225.7617 Q1189.375,224.1992 1190.1172,222.832 Q1190.8789,221.4648 1192.1875,220.7422 Q1193.5156,220 1195,220 Q1195.8984,220 1196.6797,220.3125 Q1197.4609,220.625 1198.125,221.25 Z " fill="#000000"/><text fill="#000000" font-family="sans-serif" font-size="15" lengthAdjust="spacing" textLength="196.25" x="1213.125" y="231.7627">BenchmarkAlgorithmAdapter</text><line style="stroke:#A80036;stroke-width:1.875;" x1="1178.125" x2="1411.875" y1="245.625" y2="245.625"/><text fill="#000000" font-family="sans-serif" font-size="13.75" lengthAdjust="spacing" textLength="158.75" x="1184.375" y="264.8987">+findSubMaxSum(interval)</text><!--MD5=[3d195b319a9e341286852cea89c88ec3]
class BruteForceAlgorithmAdapter--><rect codeLine="58" fill="#FEFECE" filter="url(#fmnzye6u56nr3)" height="67.2949" id="BruteForceAlgorithmAdapter" style="stroke:#A80036;stroke-width:1.875;" width="232.5" x="900" y="205.625"/><ellipse cx="918.75" cy="225.625" fill="#ADD1B2" rx="13.75" ry="13.75" style="stroke:#A80036;stroke-width:1.25;"/><path d="M921.25,221.25 Q921.5039,220.625 921.7969,220.3125 Q922.0898,220 922.4219,220 Q923.0078,220 923.3789,220.3516 Q923.75,220.7031 923.75,221.5234 L923.75,223.4766 Q923.75,224.2969 923.3984,224.6484 Q923.0469,225 922.5,225 Q922.0117,225 921.6992,224.7852 Q921.3867,224.5703 921.25,224.0039 Q921.1914,223.6133 920.9766,223.3984 Q920.5859,222.9883 919.8828,222.7539 Q919.1797,222.5 918.4766,222.5 Q917.5977,222.5 916.8555,222.8516 Q916.1328,223.2031 915.5664,223.9844 Q915,224.7656 915,225.8398 L915,226.9922 Q915,228.2813 916.0547,229.1406 Q917.1094,230 918.9844,230 Q920.0977,230 920.8789,229.7461 Q921.3281,229.6094 921.8359,229.1602 Q922.168,228.9063 922.3438,228.8281 Q922.5195,228.75 922.7344,228.75 Q923.1445,228.75 923.4375,229.082 Q923.75,229.3945 923.75,229.8438 Q923.75,230.2734 923.3203,230.7813 Q922.6953,231.5234 921.6992,231.9336 Q920.3906,232.5 918.7891,232.5 Q916.9141,232.5 915.4102,231.7578 Q914.1992,231.1719 913.3398,229.9023 Q912.5,228.6328 912.5,227.1289 L912.5,225.7617 Q912.5,224.1992 913.2422,222.832 Q914.0039,221.4648 915.3125,220.7422 Q916.6406,220 918.125,220 Q919.0234,220 919.8047,220.3125 Q920.5859,220.625 921.25,221.25 Z " fill="#000000"/><text fill="#000000" font-family="sans-serif" font-size="15" lengthAdjust="spacing" textLength="192.5" x="936.25" y="231.7627">BruteForceAlgorithmAdapter</text><line style="stroke:#A80036;stroke-width:1.875;" x1="901.25" x2="1131.25" y1="245.625" y2="245.625"/><text fill="#000000" font-family="sans-serif" font-size="13.75" lengthAdjust="spacing" textLength="158.75" x="907.5" y="264.8987">+findSubMaxSum(interval)</text><!--MD5=[670275f839cd0f6ae295f6f439fd6034]
class CompanyPerformanceAnalysisController--><rect codeLine="68" fill="#FEFECE" filter="url(#fmnzye6u56nr3)" height="181.0645" id="CompanyPerformanceAnalysisController" style="stroke:#A80036;stroke-width:1.875;" width="518.75" x="280.625" y="148.75"/><ellipse cx="394.6875" cy="168.75" fill="#ADD1B2" rx="13.75" ry="13.75" style="stroke:#A80036;stroke-width:1.25;"/><path d="M397.1875,164.375 Q397.4414,163.75 397.7344,163.4375 Q398.0273,163.125 398.3594,163.125 Q398.9453,163.125 399.3164,163.4766 Q399.6875,163.8281 399.6875,164.6484 L399.6875,166.6016 Q399.6875,167.4219 399.3359,167.7734 Q398.9844,168.125 398.4375,168.125 Q397.9492,168.125 397.6367,167.9102 Q397.3242,167.6953 397.1875,167.1289 Q397.1289,166.7383 396.9141,166.5234 Q396.5234,166.1133 395.8203,165.8789 Q395.1172,165.625 394.4141,165.625 Q393.5352,165.625 392.793,165.9766 Q392.0703,166.3281 391.5039,167.1094 Q390.9375,167.8906 390.9375,168.9648 L390.9375,170.1172 Q390.9375,171.4063 391.9922,172.2656 Q393.0469,173.125 394.9219,173.125 Q396.0352,173.125 396.8164,172.8711 Q397.2656,172.7344 397.7734,172.2852 Q398.1055,172.0313 398.2813,171.9531 Q398.457,171.875 398.6719,171.875 Q399.082,171.875 399.375,172.207 Q399.6875,172.5195 399.6875,172.9688 Q399.6875,173.3984 399.2578,173.9063 Q398.6328,174.6484 397.6367,175.0586 Q396.3281,175.625 394.7266,175.625 Q392.8516,175.625 391.3477,174.8828 Q390.1367,174.2969 389.2773,173.0273 Q388.4375,171.7578 388.4375,170.2539 L388.4375,168.8867 Q388.4375,167.3242 389.1797,165.957 Q389.9414,164.5898 391.25,163.8672 Q392.5781,163.125 394.0625,163.125 Q394.9609,163.125 395.7422,163.4375 Q396.5234,163.75 397.1875,164.375 Z " fill="#000000"/><text fill="#000000" font-family="sans-serif" font-size="15" lengthAdjust="spacing" textLength="280" x="420.3125" y="174.8877">CompanyPerformanceAnalysisController</text><line style="stroke:#A80036;stroke-width:1.875;" x1="281.875" x2="798.125" y1="188.75" y2="188.75"/><text fill="#000000" font-family="sans-serif" font-size="13.75" lengthAdjust="spacing" textLength="120" x="288.125" y="208.0237">-Company company</text><line style="stroke:#A80036;stroke-width:1.875;" x1="281.875" x2="798.125" y1="216.0449" y2="216.0449"/><text fill="#000000" font-family="sans-serif" font-size="13.75" lengthAdjust="spacing" textLength="102.5" x="288.125" y="235.3186">+getNumClients()</text><text fill="#000000" font-family="sans-serif" font-size="13.75" lengthAdjust="spacing" textLength="131.25" x="288.125" y="252.6135">+getTestInfoDay(day)</text><text fill="#000000" font-family="sans-serif" font-size="13.75" lengthAdjust="spacing" textLength="281.25" x="288.125" y="269.9084">+getTestInfoInterval(beginningDay, endingDay)</text><text fill="#000000" font-family="sans-serif" font-size="13.75" lengthAdjust="spacing" textLength="280" x="288.125" y="287.2034">+makeIntervalArray(beginningDay, endingDay)</text><text fill="#000000" font-family="sans-serif" font-size="13.75" lengthAdjust="spacing" textLength="503.75" x="288.125" y="304.4983">+findWorstSubIntWithChosenAlgorithm(beginningDay, endingDay, chosenAlgorithm)</text><text fill="#000000" font-family="sans-serif" font-size="13.75" lengthAdjust="spacing" textLength="288.75" x="288.125" y="321.7932">+getChosenAlgorithmAdapter(chosenAlgorithm)</text><!--MD5=[bbc84d1aa0e7f30bd67b3f6e81f0f299]
class Sum--><rect codeLine="84" fill="#FEFECE" filter="url(#fmnzye6u56nr3)" height="67.2949" id="Sum" style="stroke:#A80036;stroke-width:1.875;" width="80" x="100" y="205.625"/><ellipse cx="122.125" cy="225.625" fill="#ADD1B2" rx="13.75" ry="13.75" style="stroke:#A80036;stroke-width:1.25;"/><path d="M124.625,221.25 Q124.8789,220.625 125.1719,220.3125 Q125.4648,220 125.7969,220 Q126.3828,220 126.7539,220.3516 Q127.125,220.7031 127.125,221.5234 L127.125,223.4766 Q127.125,224.2969 126.7734,224.6484 Q126.4219,225 125.875,225 Q125.3867,225 125.0742,224.7852 Q124.7617,224.5703 124.625,224.0039 Q124.5664,223.6133 124.3516,223.3984 Q123.9609,222.9883 123.2578,222.7539 Q122.5547,222.5 121.8516,222.5 Q120.9727,222.5 120.2305,222.8516 Q119.5078,223.2031 118.9414,223.9844 Q118.375,224.7656 118.375,225.8398 L118.375,226.9922 Q118.375,228.2813 119.4297,229.1406 Q120.4844,230 122.3594,230 Q123.4727,230 124.2539,229.7461 Q124.7031,229.6094 125.2109,229.1602 Q125.543,228.9063 125.7188,228.8281 Q125.8945,228.75 126.1094,228.75 Q126.5195,228.75 126.8125,229.082 Q127.125,229.3945 127.125,229.8438 Q127.125,230.2734 126.6953,230.7813 Q126.0703,231.5234 125.0742,231.9336 Q123.7656,232.5 122.1641,232.5 Q120.2891,232.5 118.7852,231.7578 Q117.5742,231.1719 116.7148,229.9023 Q115.875,228.6328 115.875,227.1289 L115.875,225.7617 Q115.875,224.1992 116.6172,222.832 Q117.3789,221.4648 118.6875,220.7422 Q120.0156,220 121.5,220 Q122.3984,220 123.1797,220.3125 Q123.9609,220.625 124.625,221.25 Z " fill="#000000"/><text fill="#000000" font-family="sans-serif" font-size="15" lengthAdjust="spacing" textLength="32.5" x="140.375" y="231.7627">Sum</text><line style="stroke:#A80036;stroke-width:1.875;" x1="101.25" x2="178.75" y1="245.625" y2="245.625"/><text fill="#000000" font-family="sans-serif" font-size="13.75" lengthAdjust="spacing" textLength="65" x="107.5" y="264.8987">+Max(seq)</text><!--MD5=[3404723274ca4ec774b8d2f7e379376f]
class CompanyPerformanceAnalysisUI--><rect codeLine="98" fill="#FEFECE" filter="url(#fmnzye6u56nr3)" height="40" id="CompanyPerformanceAnalysisUI" style="stroke:#A80036;stroke-width:1.875;" width="267.5" x="2953.75" y="219.375"/><ellipse cx="2972.5" cy="239.375" fill="#ADD1B2" rx="13.75" ry="13.75" style="stroke:#A80036;stroke-width:1.25;"/><path d="M2975,235 Q2975.2539,234.375 2975.5469,234.0625 Q2975.8398,233.75 2976.1719,233.75 Q2976.7578,233.75 2977.1289,234.1016 Q2977.5,234.4531 2977.5,235.2734 L2977.5,237.2266 Q2977.5,238.0469 2977.1484,238.3984 Q2976.7969,238.75 2976.25,238.75 Q2975.7617,238.75 2975.4492,238.5352 Q2975.1367,238.3203 2975,237.7539 Q2974.9414,237.3633 2974.7266,237.1484 Q2974.3359,236.7383 2973.6328,236.5039 Q2972.9297,236.25 2972.2266,236.25 Q2971.3477,236.25 2970.6055,236.6016 Q2969.8828,236.9531 2969.3164,237.7344 Q2968.75,238.5156 2968.75,239.5898 L2968.75,240.7422 Q2968.75,242.0313 2969.8047,242.8906 Q2970.8594,243.75 2972.7344,243.75 Q2973.8477,243.75 2974.6289,243.4961 Q2975.0781,243.3594 2975.5859,242.9102 Q2975.918,242.6563 2976.0938,242.5781 Q2976.2695,242.5 2976.4844,242.5 Q2976.8945,242.5 2977.1875,242.832 Q2977.5,243.1445 2977.5,243.5938 Q2977.5,244.0234 2977.0703,244.5313 Q2976.4453,245.2734 2975.4492,245.6836 Q2974.1406,246.25 2972.5391,246.25 Q2970.6641,246.25 2969.1602,245.5078 Q2967.9492,244.9219 2967.0898,243.6523 Q2966.25,242.3828 2966.25,240.8789 L2966.25,239.5117 Q2966.25,237.9492 2966.9922,236.582 Q2967.7539,235.2148 2969.0625,234.4922 Q2970.3906,233.75 2971.875,233.75 Q2972.7734,233.75 2973.5547,234.0625 Q2974.3359,234.375 2975,235 Z " fill="#000000"/><text fill="#000000" font-family="sans-serif" font-size="15" lengthAdjust="spacing" textLength="227.5" x="2990" y="245.5127">CompanyPerformanceAnalysisUI</text><!--MD5=[b75581356fcf15886b96a6354a5c9874]
@startuml
'skinparam linetype ortho
hide empty methods
hide empty attributes
'left to right direction
skinparam classAttributeIconSize 0

package Core {

package Domain {

package Model{

class Company {
    -String designation
    -TestStore testStore
    -ClientStore clientStore
    +getTestStore()
    +getClientStore()
}

class BruteForceAlgorithm{
    +Max(seq)
}

}

package Interfaces {

interface SubMaxSumAlgorithms <<interface>> {
    +findSubMaxSum(interval)
}

}

package Store {

class TestStore {
    +getNumTestsWaitingForResultsDay(day)
    +getNumTestsWaitingForResultsInterval(beginningDay, endingDay)
    +getNumTestsWaitingForDiagnosisDay(day)
    +getNumTestsWaitingForDiagnosisInterval(beginningDay, endingDay)
    +getNumTestsProcessedInLabDay(day)
    +getNumTestsProcessedInLabInterval(beginningDay, endingDay)
}

class ClientStore {
    +getClients()
}

}

package Adapters{

class BenchmarkAlgorithmAdapter{
    +findSubMaxSum(interval)
}

class BruteForceAlgorithmAdapter{
    +findSubMaxSum(interval)
}

}

}

package Controller {

class CompanyPerformanceAnalysisController{
    -Company company
    +getNumClients()
    +getTestInfoDay(day)
    +getTestInfoInterval(beginningDay, endingDay)
    +makeIntervalArray(beginningDay, endingDay)
    +findWorstSubIntWithChosenAlgorithm(beginningDay, endingDay, chosenAlgorithm)
    +getChosenAlgorithmAdapter(chosenAlgorithm)
}

}

package ThirdParty{

package APIs{

class Sum{
    +Max(seq)
}

}

}

}

package UI {

package GUI {

class CompanyPerformanceAnalysisUI{
}

}

}

@enduml

@startuml
hide empty methods
hide empty attributes
skinparam classAttributeIconSize 0

package Core {

package Domain {

package Model{

class Company {
    -String designation
    -TestStore testStore
    -ClientStore clientStore
    +getTestStore()
    +getClientStore()
}

class BruteForceAlgorithm{
    +Max(seq)
}

}

package Interfaces {

interface SubMaxSumAlgorithms <<interface>> {
    +findSubMaxSum(interval)
}

}

package Store {

class TestStore {
    +getNumTestsWaitingForResultsDay(day)
    +getNumTestsWaitingForResultsInterval(beginningDay, endingDay)
    +getNumTestsWaitingForDiagnosisDay(day)
    +getNumTestsWaitingForDiagnosisInterval(beginningDay, endingDay)
    +getNumTestsProcessedInLabDay(day)
    +getNumTestsProcessedInLabInterval(beginningDay, endingDay)
}

class ClientStore {
    +getClients()
}

}

package Adapters{

class BenchmarkAlgorithmAdapter{
    +findSubMaxSum(interval)
}

class BruteForceAlgorithmAdapter{
    +findSubMaxSum(interval)
}

}

}

package Controller {

class CompanyPerformanceAnalysisController{
    -Company company
    +getNumClients()
    +getTestInfoDay(day)
    +getTestInfoInterval(beginningDay, endingDay)
    +makeIntervalArray(beginningDay, endingDay)
    +findWorstSubIntWithChosenAlgorithm(beginningDay, endingDay, chosenAlgorithm)
    +getChosenAlgorithmAdapter(chosenAlgorithm)
}

}

package ThirdParty{

package APIs{

class Sum{
    +Max(seq)
}

}

}

}

package UI {

package GUI {

class CompanyPerformanceAnalysisUI{
}

}

}

@enduml

PlantUML version 1.2021.7(Sun May 23 13:40:07 BST 2021)
(GPL source distribution)
Java Runtime: OpenJDK Runtime Environment
JVM: Dynamic Code Evolution 64-Bit Server VM
Default Encoding: Cp1252
Language: pt
Country: PT
--></g></svg>