<?xml version="1.0" encoding="UTF-8" standalone="no"?><svg xmlns="http://www.w3.org/2000/svg" xmlns:xlink="http://www.w3.org/1999/xlink" contentScriptType="application/ecmascript" contentStyleType="text/css" height="836.25px" preserveAspectRatio="none" style="width:1255px;height:836px;background:#FFFFFF;" version="1.1" viewBox="0 0 1255 836" width="1255px" zoomAndPan="magnify"><defs><filter height="300%" id="fuakvy2pr0jzd" width="300%" x="-1" y="-1"><feGaussianBlur result="blurOut" stdDeviation="2.5"/><feColorMatrix in="blurOut" result="blurOut2" type="matrix" values="0 0 0 0 0 0 0 0 0 0 0 0 0 0 0 0 0 0 .4 0"/><feOffset dx="5.0" dy="5.0" in="blurOut2" result="blurOut3"/><feBlend in="SourceGraphic" in2="blurOut3" mode="normal"/></filter></defs><g><!--MD5=[02e4b9b7573f1156f41e60aa5b4e25a4]
class Company--><rect codeLine="7" fill="#FEFECE" filter="url(#fuakvy2pr0jzd)" height="146.4746" id="Company" style="stroke:#A80036;stroke-width:1.875;" width="152.5" x="8.75" y="386.25"/><ellipse cx="48.3125" cy="406.25" fill="#ADD1B2" rx="13.75" ry="13.75" style="stroke:#A80036;stroke-width:1.25;"/><path d="M50.8125,401.875 Q51.0664,401.25 51.3594,400.9375 Q51.6523,400.625 51.9844,400.625 Q52.5703,400.625 52.9414,400.9766 Q53.3125,401.3281 53.3125,402.1484 L53.3125,404.1016 Q53.3125,404.9219 52.9609,405.2734 Q52.6094,405.625 52.0625,405.625 Q51.5742,405.625 51.2617,405.4102 Q50.9492,405.1953 50.8125,404.6289 Q50.7539,404.2383 50.5391,404.0234 Q50.1484,403.6133 49.4453,403.3789 Q48.7422,403.125 48.0391,403.125 Q47.1602,403.125 46.418,403.4766 Q45.6953,403.8281 45.1289,404.6094 Q44.5625,405.3906 44.5625,406.4648 L44.5625,407.6172 Q44.5625,408.9063 45.6172,409.7656 Q46.6719,410.625 48.5469,410.625 Q49.6602,410.625 50.4414,410.3711 Q50.8906,410.2344 51.3984,409.7852 Q51.7305,409.5313 51.9063,409.4531 Q52.082,409.375 52.2969,409.375 Q52.707,409.375 53,409.707 Q53.3125,410.0195 53.3125,410.4688 Q53.3125,410.8984 52.8828,411.4063 Q52.2578,412.1484 51.2617,412.5586 Q49.9531,413.125 48.3516,413.125 Q46.4766,413.125 44.9727,412.3828 Q43.7617,411.7969 42.9023,410.5273 Q42.0625,409.2578 42.0625,407.7539 L42.0625,406.3867 Q42.0625,404.8242 42.8047,403.457 Q43.5664,402.0898 44.875,401.3672 Q46.2031,400.625 47.6875,400.625 Q48.5859,400.625 49.3672,400.9375 Q50.1484,401.25 50.8125,401.875 Z " fill="#000000"/><text fill="#000000" font-family="sans-serif" font-size="15" lengthAdjust="spacing" textLength="66.25" x="70.4375" y="412.3877">Company</text><line style="stroke:#A80036;stroke-width:1.875;" x1="10" x2="160" y1="426.25" y2="426.25"/><text fill="#000000" font-family="sans-serif" font-size="13.75" lengthAdjust="spacing" textLength="112.5" x="16.25" y="445.5237">-String designation</text><text fill="#000000" font-family="sans-serif" font-size="13.75" lengthAdjust="spacing" textLength="122.5" x="16.25" y="462.8186">-TestStore testStore</text><text fill="#000000" font-family="sans-serif" font-size="13.75" lengthAdjust="spacing" textLength="137.5" x="16.25" y="480.1135">-ClientStore clientStore</text><line style="stroke:#A80036;stroke-width:1.875;" x1="10" x2="160" y1="488.1348" y2="488.1348"/><text fill="#000000" font-family="sans-serif" font-size="13.75" lengthAdjust="spacing" textLength="95" x="16.25" y="507.4084">+getTestStore()</text><text fill="#000000" font-family="sans-serif" font-size="13.75" lengthAdjust="spacing" textLength="101.25" x="16.25" y="524.7034">+getClientStore()</text><!--MD5=[0f6f7964b844a64b0496af0dda7914bd]
class TestStore--><rect codeLine="15" fill="#FEFECE" filter="url(#fuakvy2pr0jzd)" height="136.4746" id="TestStore" style="stroke:#A80036;stroke-width:1.875;" width="498.75" x="205.625" y="391.25"/><ellipse cx="416.5625" cy="411.25" fill="#ADD1B2" rx="13.75" ry="13.75" style="stroke:#A80036;stroke-width:1.25;"/><path d="M419.0625,406.875 Q419.3164,406.25 419.6094,405.9375 Q419.9023,405.625 420.2344,405.625 Q420.8203,405.625 421.1914,405.9766 Q421.5625,406.3281 421.5625,407.1484 L421.5625,409.1016 Q421.5625,409.9219 421.2109,410.2734 Q420.8594,410.625 420.3125,410.625 Q419.8242,410.625 419.5117,410.4102 Q419.1992,410.1953 419.0625,409.6289 Q419.0039,409.2383 418.7891,409.0234 Q418.3984,408.6133 417.6953,408.3789 Q416.9922,408.125 416.2891,408.125 Q415.4102,408.125 414.668,408.4766 Q413.9453,408.8281 413.3789,409.6094 Q412.8125,410.3906 412.8125,411.4648 L412.8125,412.6172 Q412.8125,413.9063 413.8672,414.7656 Q414.9219,415.625 416.7969,415.625 Q417.9102,415.625 418.6914,415.3711 Q419.1406,415.2344 419.6484,414.7852 Q419.9805,414.5313 420.1563,414.4531 Q420.332,414.375 420.5469,414.375 Q420.957,414.375 421.25,414.707 Q421.5625,415.0195 421.5625,415.4688 Q421.5625,415.8984 421.1328,416.4063 Q420.5078,417.1484 419.5117,417.5586 Q418.2031,418.125 416.6016,418.125 Q414.7266,418.125 413.2227,417.3828 Q412.0117,416.7969 411.1523,415.5273 Q410.3125,414.2578 410.3125,412.7539 L410.3125,411.3867 Q410.3125,409.8242 411.0547,408.457 Q411.8164,407.0898 413.125,406.3672 Q414.4531,405.625 415.9375,405.625 Q416.8359,405.625 417.6172,405.9375 Q418.3984,406.25 419.0625,406.875 Z " fill="#000000"/><text fill="#000000" font-family="sans-serif" font-size="15" lengthAdjust="spacing" textLength="66.25" x="442.1875" y="417.3877">TestStore</text><line style="stroke:#A80036;stroke-width:1.875;" x1="206.875" x2="703.125" y1="431.25" y2="431.25"/><text fill="#000000" font-family="sans-serif" font-size="13.75" lengthAdjust="spacing" textLength="440" x="213.125" y="450.5237">+getNumTestsWaitingForResultsDayOrInterval(beginningDay, endingDay)</text><text fill="#000000" font-family="sans-serif" font-size="13.75" lengthAdjust="spacing" textLength="453.75" x="213.125" y="467.8186">+getNumTestsWaitingForDiagnosisDayOrInterval(beginningDay, endingDay)</text><text fill="#000000" font-family="sans-serif" font-size="13.75" lengthAdjust="spacing" textLength="428.75" x="213.125" y="485.1135">+getNumTestsProcessedInLabDayOrInterval(beginningDay, endingDay)</text><text fill="#000000" font-family="sans-serif" font-size="13.75" lengthAdjust="spacing" textLength="483.75" x="213.125" y="502.4084">+getNumberOfTestsByIntervalDateOfTestRegistration(beginningDay, endingDay)</text><text fill="#000000" font-family="sans-serif" font-size="13.75" lengthAdjust="spacing" textLength="445" x="213.125" y="519.7034">+getNumberOfTestsByIntervalDateOfDiagnosis(beginningDay, endingDay)</text><!--MD5=[55cb992be19579b505cea3c5691093cb]
class ClientStore--><rect codeLine="23" fill="#FEFECE" filter="url(#fuakvy2pr0jzd)" height="67.2949" id="ClientStore" style="stroke:#A80036;stroke-width:1.875;" width="116.25" x="748.125" y="425.625"/><ellipse cx="766.875" cy="445.625" fill="#ADD1B2" rx="13.75" ry="13.75" style="stroke:#A80036;stroke-width:1.25;"/><path d="M769.375,441.25 Q769.6289,440.625 769.9219,440.3125 Q770.2148,440 770.5469,440 Q771.1328,440 771.5039,440.3516 Q771.875,440.7031 771.875,441.5234 L771.875,443.4766 Q771.875,444.2969 771.5234,444.6484 Q771.1719,445 770.625,445 Q770.1367,445 769.8242,444.7852 Q769.5117,444.5703 769.375,444.0039 Q769.3164,443.6133 769.1016,443.3984 Q768.7109,442.9883 768.0078,442.7539 Q767.3047,442.5 766.6016,442.5 Q765.7227,442.5 764.9805,442.8516 Q764.2578,443.2031 763.6914,443.9844 Q763.125,444.7656 763.125,445.8398 L763.125,446.9922 Q763.125,448.2813 764.1797,449.1406 Q765.2344,450 767.1094,450 Q768.2227,450 769.0039,449.7461 Q769.4531,449.6094 769.9609,449.1602 Q770.293,448.9063 770.4688,448.8281 Q770.6445,448.75 770.8594,448.75 Q771.2695,448.75 771.5625,449.082 Q771.875,449.3945 771.875,449.8438 Q771.875,450.2734 771.4453,450.7813 Q770.8203,451.5234 769.8242,451.9336 Q768.5156,452.5 766.9141,452.5 Q765.0391,452.5 763.5352,451.7578 Q762.3242,451.1719 761.4648,449.9023 Q760.625,448.6328 760.625,447.1289 L760.625,445.7617 Q760.625,444.1992 761.3672,442.832 Q762.1289,441.4648 763.4375,440.7422 Q764.7656,440 766.25,440 Q767.1484,440 767.9297,440.3125 Q768.7109,440.625 769.375,441.25 Z " fill="#000000"/><text fill="#000000" font-family="sans-serif" font-size="15" lengthAdjust="spacing" textLength="76.25" x="784.375" y="451.7627">ClientStore</text><line style="stroke:#A80036;stroke-width:1.875;" x1="749.375" x2="863.125" y1="465.625" y2="465.625"/><text fill="#000000" font-family="sans-serif" font-size="13.75" lengthAdjust="spacing" textLength="76.25" x="755.625" y="484.8987">+getClients()</text><!--MD5=[670275f839cd0f6ae295f6f439fd6034]
class CompanyPerformanceAnalysisController--><rect codeLine="27" fill="#FEFECE" filter="url(#fuakvy2pr0jzd)" height="163.7695" id="CompanyPerformanceAnalysisController" style="stroke:#A80036;stroke-width:1.875;" width="518.75" x="370.625" y="125"/><ellipse cx="484.6875" cy="145" fill="#ADD1B2" rx="13.75" ry="13.75" style="stroke:#A80036;stroke-width:1.25;"/><path d="M487.1875,140.625 Q487.4414,140 487.7344,139.6875 Q488.0273,139.375 488.3594,139.375 Q488.9453,139.375 489.3164,139.7266 Q489.6875,140.0781 489.6875,140.8984 L489.6875,142.8516 Q489.6875,143.6719 489.3359,144.0234 Q488.9844,144.375 488.4375,144.375 Q487.9492,144.375 487.6367,144.1602 Q487.3242,143.9453 487.1875,143.3789 Q487.1289,142.9883 486.9141,142.7734 Q486.5234,142.3633 485.8203,142.1289 Q485.1172,141.875 484.4141,141.875 Q483.5352,141.875 482.793,142.2266 Q482.0703,142.5781 481.5039,143.3594 Q480.9375,144.1406 480.9375,145.2148 L480.9375,146.3672 Q480.9375,147.6563 481.9922,148.5156 Q483.0469,149.375 484.9219,149.375 Q486.0352,149.375 486.8164,149.1211 Q487.2656,148.9844 487.7734,148.5352 Q488.1055,148.2813 488.2813,148.2031 Q488.457,148.125 488.6719,148.125 Q489.082,148.125 489.375,148.457 Q489.6875,148.7695 489.6875,149.2188 Q489.6875,149.6484 489.2578,150.1563 Q488.6328,150.8984 487.6367,151.3086 Q486.3281,151.875 484.7266,151.875 Q482.8516,151.875 481.3477,151.1328 Q480.1367,150.5469 479.2773,149.2773 Q478.4375,148.0078 478.4375,146.5039 L478.4375,145.1367 Q478.4375,143.5742 479.1797,142.207 Q479.9414,140.8398 481.25,140.1172 Q482.5781,139.375 484.0625,139.375 Q484.9609,139.375 485.7422,139.6875 Q486.5234,140 487.1875,140.625 Z " fill="#000000"/><text fill="#000000" font-family="sans-serif" font-size="15" lengthAdjust="spacing" textLength="280" x="510.3125" y="151.1377">CompanyPerformanceAnalysisController</text><line style="stroke:#A80036;stroke-width:1.875;" x1="371.875" x2="888.125" y1="165" y2="165"/><text fill="#000000" font-family="sans-serif" font-size="13.75" lengthAdjust="spacing" textLength="120" x="378.125" y="184.2737">-Company company</text><line style="stroke:#A80036;stroke-width:1.875;" x1="371.875" x2="888.125" y1="192.2949" y2="192.2949"/><text fill="#000000" font-family="sans-serif" font-size="13.75" lengthAdjust="spacing" textLength="102.5" x="378.125" y="211.5686">+getNumClients()</text><text fill="#000000" font-family="sans-serif" font-size="13.75" lengthAdjust="spacing" textLength="320" x="378.125" y="228.8635">+getTestInfoDayOrInterval(beginningDay, endingDay)</text><text fill="#000000" font-family="sans-serif" font-size="13.75" lengthAdjust="spacing" textLength="280" x="378.125" y="246.1584">+makeIntervalArray(beginningDay, endingDay)</text><text fill="#000000" font-family="sans-serif" font-size="13.75" lengthAdjust="spacing" textLength="503.75" x="378.125" y="263.4534">+findWorstSubIntWithChosenAlgorithm(beginningDay, endingDay, chosenAlgorithm)</text><text fill="#000000" font-family="sans-serif" font-size="13.75" lengthAdjust="spacing" textLength="288.75" x="378.125" y="280.7483">+getChosenAlgorithmAdapter(chosenAlgorithm)</text><!--MD5=[3404723274ca4ec774b8d2f7e379376f]
class CompanyPerformanceAnalysisUI--><rect codeLine="36" fill="#FEFECE" filter="url(#fuakvy2pr0jzd)" height="40" id="CompanyPerformanceAnalysisUI" style="stroke:#A80036;stroke-width:1.875;" width="267.5" x="496.25" y="8.75"/><ellipse cx="515" cy="28.75" fill="#ADD1B2" rx="13.75" ry="13.75" style="stroke:#A80036;stroke-width:1.25;"/><path d="M517.5,24.375 Q517.7539,23.75 518.0469,23.4375 Q518.3398,23.125 518.6719,23.125 Q519.2578,23.125 519.6289,23.4766 Q520,23.8281 520,24.6484 L520,26.6016 Q520,27.4219 519.6484,27.7734 Q519.2969,28.125 518.75,28.125 Q518.2617,28.125 517.9492,27.9102 Q517.6367,27.6953 517.5,27.1289 Q517.4414,26.7383 517.2266,26.5234 Q516.8359,26.1133 516.1328,25.8789 Q515.4297,25.625 514.7266,25.625 Q513.8477,25.625 513.1055,25.9766 Q512.3828,26.3281 511.8164,27.1094 Q511.25,27.8906 511.25,28.9648 L511.25,30.1172 Q511.25,31.4063 512.3047,32.2656 Q513.3594,33.125 515.2344,33.125 Q516.3477,33.125 517.1289,32.8711 Q517.5781,32.7344 518.0859,32.2852 Q518.418,32.0313 518.5938,31.9531 Q518.7695,31.875 518.9844,31.875 Q519.3945,31.875 519.6875,32.207 Q520,32.5195 520,32.9688 Q520,33.3984 519.5703,33.9063 Q518.9453,34.6484 517.9492,35.0586 Q516.6406,35.625 515.0391,35.625 Q513.1641,35.625 511.6602,34.8828 Q510.4492,34.2969 509.5898,33.0273 Q508.75,31.7578 508.75,30.2539 L508.75,28.8867 Q508.75,27.3242 509.4922,25.957 Q510.2539,24.5898 511.5625,23.8672 Q512.8906,23.125 514.375,23.125 Q515.2734,23.125 516.0547,23.4375 Q516.8359,23.75 517.5,24.375 Z " fill="#000000"/><text fill="#000000" font-family="sans-serif" font-size="15" lengthAdjust="spacing" textLength="227.5" x="532.5" y="34.8877">CompanyPerformanceAnalysisUI</text><!--MD5=[03e21a3a74a4ec725edc90da8949a6b4]
class SubMaxSumAlgorithms--><rect codeLine="39" fill="#FEFECE" filter="url(#fuakvy2pr0jzd)" height="77.5293" id="SubMaxSumAlgorithms" style="stroke:#A80036;stroke-width:1.875;" width="202.5" x="908.75" y="420.625"/><ellipse cx="927.5" cy="445.7422" fill="#B4A7E5" rx="13.75" ry="13.75" style="stroke:#A80036;stroke-width:1.25;"/><path d="M928.75,441.9922 L928.75,449.4922 L931.25,449.4922 L931.8555,449.4922 L932.5,450.2734 L932.5,450.7422 L932.5,451.2109 L931.8555,451.9922 L931.25,451.9922 L923.75,451.9922 L923.1445,451.9922 L922.5,451.2109 L922.5,450.7422 L922.5,450.2734 L923.1445,449.4922 L923.75,449.4922 L926.25,449.4922 L926.25,441.9922 L923.75,441.9922 L923.1445,441.9922 L922.5,441.2109 L922.5,440.7422 L922.5,440.2734 L923.1445,439.4922 L923.75,439.4922 L931.25,439.4922 L931.8555,439.4922 L932.5,440.2734 L932.5,440.7422 L932.5,441.2109 L931.8555,441.9922 L931.25,441.9922 L928.75,441.9922 Z " fill="#000000"/><text fill="#000000" font-family="sans-serif" font-size="15" font-style="italic" lengthAdjust="spacing" textLength="76.25" x="988.125" y="442.4463">«interface»</text><text fill="#000000" font-family="sans-serif" font-size="15" font-style="italic" lengthAdjust="spacing" textLength="162.5" x="945" y="461.3135">SubMaxSumAlgorithms</text><line style="stroke:#A80036;stroke-width:1.875;" x1="910" x2="1110" y1="470.8594" y2="470.8594"/><text fill="#000000" font-family="sans-serif" font-size="13.75" lengthAdjust="spacing" textLength="158.75" x="916.25" y="490.1331">+findSubMaxSum(interval)</text><!--MD5=[f4a38599b97b911edb1e154f571cf5e4]
class BenchmarkAlgorithmAdapter--><rect codeLine="67" fill="#FEFECE" filter="url(#fuakvy2pr0jzd)" height="67.2949" id="BenchmarkAlgorithmAdapter" style="stroke:#A80036;stroke-width:1.875;" width="236.25" x="724.375" y="608.75"/><ellipse cx="743.125" cy="628.75" fill="#ADD1B2" rx="13.75" ry="13.75" style="stroke:#A80036;stroke-width:1.25;"/><path d="M745.625,624.375 Q745.8789,623.75 746.1719,623.4375 Q746.4648,623.125 746.7969,623.125 Q747.3828,623.125 747.7539,623.4766 Q748.125,623.8281 748.125,624.6484 L748.125,626.6016 Q748.125,627.4219 747.7734,627.7734 Q747.4219,628.125 746.875,628.125 Q746.3867,628.125 746.0742,627.9102 Q745.7617,627.6953 745.625,627.1289 Q745.5664,626.7383 745.3516,626.5234 Q744.9609,626.1133 744.2578,625.8789 Q743.5547,625.625 742.8516,625.625 Q741.9727,625.625 741.2305,625.9766 Q740.5078,626.3281 739.9414,627.1094 Q739.375,627.8906 739.375,628.9648 L739.375,630.1172 Q739.375,631.4063 740.4297,632.2656 Q741.4844,633.125 743.3594,633.125 Q744.4727,633.125 745.2539,632.8711 Q745.7031,632.7344 746.2109,632.2852 Q746.543,632.0313 746.7188,631.9531 Q746.8945,631.875 747.1094,631.875 Q747.5195,631.875 747.8125,632.207 Q748.125,632.5195 748.125,632.9688 Q748.125,633.3984 747.6953,633.9063 Q747.0703,634.6484 746.0742,635.0586 Q744.7656,635.625 743.1641,635.625 Q741.2891,635.625 739.7852,634.8828 Q738.5742,634.2969 737.7148,633.0273 Q736.875,631.7578 736.875,630.2539 L736.875,628.8867 Q736.875,627.3242 737.6172,625.957 Q738.3789,624.5898 739.6875,623.8672 Q741.0156,623.125 742.5,623.125 Q743.3984,623.125 744.1797,623.4375 Q744.9609,623.75 745.625,624.375 Z " fill="#000000"/><text fill="#000000" font-family="sans-serif" font-size="15" lengthAdjust="spacing" textLength="196.25" x="760.625" y="634.8877">BenchmarkAlgorithmAdapter</text><line style="stroke:#A80036;stroke-width:1.875;" x1="725.625" x2="959.375" y1="648.75" y2="648.75"/><text fill="#000000" font-family="sans-serif" font-size="13.75" lengthAdjust="spacing" textLength="158.75" x="731.875" y="668.0237">+findSubMaxSum(interval)</text><!--MD5=[3d195b319a9e341286852cea89c88ec3]
class BruteForceAlgorithmAdapter--><rect codeLine="68" fill="#FEFECE" filter="url(#fuakvy2pr0jzd)" height="67.2949" id="BruteForceAlgorithmAdapter" style="stroke:#A80036;stroke-width:1.875;" width="232.5" x="1005" y="608.75"/><ellipse cx="1023.75" cy="628.75" fill="#ADD1B2" rx="13.75" ry="13.75" style="stroke:#A80036;stroke-width:1.25;"/><path d="M1026.25,624.375 Q1026.5039,623.75 1026.7969,623.4375 Q1027.0898,623.125 1027.4219,623.125 Q1028.0078,623.125 1028.3789,623.4766 Q1028.75,623.8281 1028.75,624.6484 L1028.75,626.6016 Q1028.75,627.4219 1028.3984,627.7734 Q1028.0469,628.125 1027.5,628.125 Q1027.0117,628.125 1026.6992,627.9102 Q1026.3867,627.6953 1026.25,627.1289 Q1026.1914,626.7383 1025.9766,626.5234 Q1025.5859,626.1133 1024.8828,625.8789 Q1024.1797,625.625 1023.4766,625.625 Q1022.5977,625.625 1021.8555,625.9766 Q1021.1328,626.3281 1020.5664,627.1094 Q1020,627.8906 1020,628.9648 L1020,630.1172 Q1020,631.4063 1021.0547,632.2656 Q1022.1094,633.125 1023.9844,633.125 Q1025.0977,633.125 1025.8789,632.8711 Q1026.3281,632.7344 1026.8359,632.2852 Q1027.168,632.0313 1027.3438,631.9531 Q1027.5195,631.875 1027.7344,631.875 Q1028.1445,631.875 1028.4375,632.207 Q1028.75,632.5195 1028.75,632.9688 Q1028.75,633.3984 1028.3203,633.9063 Q1027.6953,634.6484 1026.6992,635.0586 Q1025.3906,635.625 1023.7891,635.625 Q1021.9141,635.625 1020.4102,634.8828 Q1019.1992,634.2969 1018.3398,633.0273 Q1017.5,631.7578 1017.5,630.2539 L1017.5,628.8867 Q1017.5,627.3242 1018.2422,625.957 Q1019.0039,624.5898 1020.3125,623.8672 Q1021.6406,623.125 1023.125,623.125 Q1024.0234,623.125 1024.8047,623.4375 Q1025.5859,623.75 1026.25,624.375 Z " fill="#000000"/><text fill="#000000" font-family="sans-serif" font-size="15" lengthAdjust="spacing" textLength="192.5" x="1041.25" y="634.8877">BruteForceAlgorithmAdapter</text><line style="stroke:#A80036;stroke-width:1.875;" x1="1006.25" x2="1236.25" y1="648.75" y2="648.75"/><text fill="#000000" font-family="sans-serif" font-size="13.75" lengthAdjust="spacing" textLength="158.75" x="1012.5" y="668.0237">+findSubMaxSum(interval)</text><!--MD5=[bbc84d1aa0e7f30bd67b3f6e81f0f299]
class Sum--><rect codeLine="51" fill="#FEFECE" filter="url(#fuakvy2pr0jzd)" height="67.2949" id="Sum" style="stroke:#A80036;stroke-width:1.875;" width="80" x="802.5" y="752.5"/><ellipse cx="824.625" cy="772.5" fill="#ADD1B2" rx="13.75" ry="13.75" style="stroke:#A80036;stroke-width:1.25;"/><path d="M827.125,768.125 Q827.3789,767.5 827.6719,767.1875 Q827.9648,766.875 828.2969,766.875 Q828.8828,766.875 829.2539,767.2266 Q829.625,767.5781 829.625,768.3984 L829.625,770.3516 Q829.625,771.1719 829.2734,771.5234 Q828.9219,771.875 828.375,771.875 Q827.8867,771.875 827.5742,771.6602 Q827.2617,771.4453 827.125,770.8789 Q827.0664,770.4883 826.8516,770.2734 Q826.4609,769.8633 825.7578,769.6289 Q825.0547,769.375 824.3516,769.375 Q823.4727,769.375 822.7305,769.7266 Q822.0078,770.0781 821.4414,770.8594 Q820.875,771.6406 820.875,772.7148 L820.875,773.8672 Q820.875,775.1563 821.9297,776.0156 Q822.9844,776.875 824.8594,776.875 Q825.9727,776.875 826.7539,776.6211 Q827.2031,776.4844 827.7109,776.0352 Q828.043,775.7813 828.2188,775.7031 Q828.3945,775.625 828.6094,775.625 Q829.0195,775.625 829.3125,775.957 Q829.625,776.2695 829.625,776.7188 Q829.625,777.1484 829.1953,777.6563 Q828.5703,778.3984 827.5742,778.8086 Q826.2656,779.375 824.6641,779.375 Q822.7891,779.375 821.2852,778.6328 Q820.0742,778.0469 819.2148,776.7773 Q818.375,775.5078 818.375,774.0039 L818.375,772.6367 Q818.375,771.0742 819.1172,769.707 Q819.8789,768.3398 821.1875,767.6172 Q822.5156,766.875 824,766.875 Q824.8984,766.875 825.6797,767.1875 Q826.4609,767.5 827.125,768.125 Z " fill="#000000"/><text fill="#000000" font-family="sans-serif" font-size="15" lengthAdjust="spacing" textLength="32.5" x="842.875" y="778.6377">Sum</text><line style="stroke:#A80036;stroke-width:1.875;" x1="803.75" x2="881.25" y1="792.5" y2="792.5"/><text fill="#000000" font-family="sans-serif" font-size="13.75" lengthAdjust="spacing" textLength="65" x="810" y="811.7737">+Max(seq)</text><!--MD5=[1dec90c14ec2ba3af2708f621be65d00]
class BruteForceAlgorithm--><rect codeLine="55" fill="#FEFECE" filter="url(#fuakvy2pr0jzd)" height="67.2949" id="BruteForceAlgorithm" style="stroke:#A80036;stroke-width:1.875;" width="180" x="1031.25" y="752.5"/><ellipse cx="1050" cy="772.5" fill="#ADD1B2" rx="13.75" ry="13.75" style="stroke:#A80036;stroke-width:1.25;"/><path d="M1052.5,768.125 Q1052.7539,767.5 1053.0469,767.1875 Q1053.3398,766.875 1053.6719,766.875 Q1054.2578,766.875 1054.6289,767.2266 Q1055,767.5781 1055,768.3984 L1055,770.3516 Q1055,771.1719 1054.6484,771.5234 Q1054.2969,771.875 1053.75,771.875 Q1053.2617,771.875 1052.9492,771.6602 Q1052.6367,771.4453 1052.5,770.8789 Q1052.4414,770.4883 1052.2266,770.2734 Q1051.8359,769.8633 1051.1328,769.6289 Q1050.4297,769.375 1049.7266,769.375 Q1048.8477,769.375 1048.1055,769.7266 Q1047.3828,770.0781 1046.8164,770.8594 Q1046.25,771.6406 1046.25,772.7148 L1046.25,773.8672 Q1046.25,775.1563 1047.3047,776.0156 Q1048.3594,776.875 1050.2344,776.875 Q1051.3477,776.875 1052.1289,776.6211 Q1052.5781,776.4844 1053.0859,776.0352 Q1053.418,775.7813 1053.5938,775.7031 Q1053.7695,775.625 1053.9844,775.625 Q1054.3945,775.625 1054.6875,775.957 Q1055,776.2695 1055,776.7188 Q1055,777.1484 1054.5703,777.6563 Q1053.9453,778.3984 1052.9492,778.8086 Q1051.6406,779.375 1050.0391,779.375 Q1048.1641,779.375 1046.6602,778.6328 Q1045.4492,778.0469 1044.5898,776.7773 Q1043.75,775.5078 1043.75,774.0039 L1043.75,772.6367 Q1043.75,771.0742 1044.4922,769.707 Q1045.2539,768.3398 1046.5625,767.6172 Q1047.8906,766.875 1049.375,766.875 Q1050.2734,766.875 1051.0547,767.1875 Q1051.8359,767.5 1052.5,768.125 Z " fill="#000000"/><text fill="#000000" font-family="sans-serif" font-size="15" lengthAdjust="spacing" textLength="140" x="1067.5" y="778.6377">BruteForceAlgorithm</text><line style="stroke:#A80036;stroke-width:1.875;" x1="1032.5" x2="1210" y1="792.5" y2="792.5"/><text fill="#000000" font-family="sans-serif" font-size="13.75" lengthAdjust="spacing" textLength="65" x="1038.75" y="811.7737">+Max(seq)</text><!--MD5=[5b29af9deb3324aeb9c231daa5002dba]
link CompanyPerformanceAnalysisUI to CompanyPerformanceAnalysisController--><path codeLine="59" d="M630,48.8 C630,65.8375 630,92.2375 630,118.5625 " fill="none" id="CompanyPerformanceAnalysisUI-to-CompanyPerformanceAnalysisController" style="stroke:#A80036;stroke-width:1.25;stroke-dasharray:7.0,7.0;"/><polygon fill="#A80036" points="630,124.875,635,113.625,630,118.625,625,113.625,630,124.875" style="stroke:#A80036;stroke-width:1.25;"/><!--MD5=[5ce4db4ce32c27ecea6aaa74e26a0164]
link CompanyPerformanceAnalysisController to Company--><path codeLine="60" d="M396.2125,288.775 C326.2125,316.2625 250.3875,349.4625 183.75,386.25 C178.175,389.325 172.5625,392.6625 166.975,396.175 " fill="none" id="CompanyPerformanceAnalysisController-to-Company" style="stroke:#A80036;stroke-width:1.25;stroke-dasharray:7.0,7.0;"/><polygon fill="#A80036" points="161.4125,399.725,173.5824,397.8662,166.6751,396.3534,168.1878,389.446,161.4125,399.725" style="stroke:#A80036;stroke-width:1.25;"/><!--MD5=[556445e2a8ca4c0c6a33a05341a7825e]
link CompanyPerformanceAnalysisController to ClientStore--><path codeLine="61" d="M686.975,288.95 C718.0125,332.9625 754.95,385.35 779.4,420.05 " fill="none" id="CompanyPerformanceAnalysisController-to-ClientStore" style="stroke:#A80036;stroke-width:1.25;stroke-dasharray:7.0,7.0;"/><polygon fill="#A80036" points="783.225,425.4625,780.8188,413.3889,779.6193,420.3574,772.6507,419.1579,783.225,425.4625" style="stroke:#A80036;stroke-width:1.25;"/><!--MD5=[d03b593c12afa5f3c42671c11d6ed63b]
link CompanyPerformanceAnalysisController to TestStore--><path codeLine="62" d="M573.425,288.95 C551.6125,320.1 526.875,355.45 505.6625,385.7625 " fill="none" id="CompanyPerformanceAnalysisController-to-TestStore" style="stroke:#A80036;stroke-width:1.25;stroke-dasharray:7.0,7.0;"/><polygon fill="#A80036" points="502.0125,390.9625,512.5616,384.6159,505.5978,385.8431,504.3706,378.8794,502.0125,390.9625" style="stroke:#A80036;stroke-width:1.25;"/><!--MD5=[1f5b511532344f36d5811b87494f5882]
link CompanyPerformanceAnalysisController to SubMaxSumAlgorithms--><path codeLine="63" d="M752.85,288.95 C817.8375,331.7 894.8625,382.375 947.55,417.0375 " fill="none" id="CompanyPerformanceAnalysisController-to-SubMaxSumAlgorithms" style="stroke:#A80036;stroke-width:1.25;"/><polygon fill="#A80036" points="952.8875,420.55,946.2183,410.2018,947.6599,417.1244,940.7373,418.566,952.8875,420.55" style="stroke:#A80036;stroke-width:1.25;"/><text fill="#000000" font-family="sans-serif" font-size="16.25" lengthAdjust="spacing" textLength="97.5" x="845" y="344.3689">makes use of</text><text fill="#000000" font-family="sans-serif" font-size="16.25" lengthAdjust="spacing" textLength="8.75" x="757.0582" y="315.9126">1</text><text fill="#000000" font-family="sans-serif" font-size="16.25" lengthAdjust="spacing" textLength="8.75" x="930.6871" y="406.7833">1</text><!--MD5=[6926410afba6dbb7662f77bf9a4beef8]
link BenchmarkAlgorithmAdapter to Sum--><path codeLine="64" d="M842.5,676.5125 C842.5,697.1875 842.5,724.025 842.5,745.825 " fill="none" id="BenchmarkAlgorithmAdapter-to-Sum" style="stroke:#A80036;stroke-width:1.25;"/><polygon fill="#A80036" points="842.5,752.4125,847.5,741.1625,842.5,746.1625,837.5,741.1625,842.5,752.4125" style="stroke:#A80036;stroke-width:1.25;"/><!--MD5=[5c0b00d376c45fe49ede70ccf937dd89]
link BruteForceAlgorithmAdapter to BruteForceAlgorithm--><path codeLine="65" d="M1121.25,676.5125 C1121.25,697.1875 1121.25,724.025 1121.25,745.825 " fill="none" id="BruteForceAlgorithmAdapter-to-BruteForceAlgorithm" style="stroke:#A80036;stroke-width:1.25;"/><polygon fill="#A80036" points="1121.25,752.4125,1126.25,741.1625,1121.25,746.1625,1116.25,741.1625,1121.25,752.4125" style="stroke:#A80036;stroke-width:1.25;"/><!--MD5=[7500d493c54aadfc564551571970942a]
reverse link SubMaxSumAlgorithms to BenchmarkAlgorithmAdapter--><path d="M957.5625,517.175 C929.7875,547.125 896.6375,582.875 873.0625,608.2875 " fill="none" id="SubMaxSumAlgorithms-backto-BenchmarkAlgorithmAdapter" style="stroke:#A80036;stroke-width:1.25;stroke-dasharray:7.0,7.0;"/><polygon fill="none" points="951.475,510.875,974.8875,498.4875,964.3,522.775,951.475,510.875" style="stroke:#A80036;stroke-width:1.25;"/><!--MD5=[2746a4793daa6de3b91732e823f67982]
reverse link SubMaxSumAlgorithms to BruteForceAlgorithmAdapter--><path d="M1046.6875,520.1875 C1064.7375,549.5 1085.8125,583.725 1100.95,608.2875 " fill="none" id="SubMaxSumAlgorithms-backto-BruteForceAlgorithmAdapter" style="stroke:#A80036;stroke-width:1.25;stroke-dasharray:7.0,7.0;"/><polygon fill="none" points="1038.9875,524.3625,1033.325,498.4875,1053.8875,515.1875,1038.9875,524.3625" style="stroke:#A80036;stroke-width:1.25;"/><!--MD5=[428604419e7ba040c95d2aba6b6f4e95]
@startuml
'skinparam linetype ortho
hide empty methods
hide empty attributes
'left to right direction
skinparam classAttributeIconSize 0

class Company {
    -String designation
    -TestStore testStore
    -ClientStore clientStore
    +getTestStore()
    +getClientStore()
}

class TestStore {
    +getNumTestsWaitingForResultsDayOrInterval(beginningDay, endingDay)
    +getNumTestsWaitingForDiagnosisDayOrInterval(beginningDay, endingDay)
    +getNumTestsProcessedInLabDayOrInterval(beginningDay, endingDay)
    +getNumberOfTestsByIntervalDateOfTestRegistration(beginningDay, endingDay)
    +getNumberOfTestsByIntervalDateOfDiagnosis(beginningDay, endingDay)
}

class ClientStore {
    +getClients()
}

class CompanyPerformanceAnalysisController{
    -Company company
    +getNumClients()
    +getTestInfoDayOrInterval(beginningDay, endingDay)
    +makeIntervalArray(beginningDay, endingDay)
    +findWorstSubIntWithChosenAlgorithm(beginningDay, endingDay, chosenAlgorithm)
    +getChosenAlgorithmAdapter(chosenAlgorithm)
}

class CompanyPerformanceAnalysisUI{
}

interface SubMaxSumAlgorithms <<interface>> {
    +findSubMaxSum(interval)
}

class BenchmarkAlgorithmAdapter{
    +findSubMaxSum(interval)
}

class BruteForceAlgorithmAdapter{
    +findSubMaxSum(interval)
}

class Sum{
    +Max(seq)
}

class BruteForceAlgorithm{
    +Max(seq)
}

CompanyPerformanceAnalysisUI ..> CompanyPerformanceAnalysisController
CompanyPerformanceAnalysisController ..> Company
CompanyPerformanceAnalysisController ..> ClientStore
CompanyPerformanceAnalysisController ..> TestStore
CompanyPerformanceAnalysisController "1" - -> "1" SubMaxSumAlgorithms : makes use of
BenchmarkAlgorithmAdapter - -> Sum
BruteForceAlgorithmAdapter - -> BruteForceAlgorithm

class BenchmarkAlgorithmAdapter implements SubMaxSumAlgorithms
class BruteForceAlgorithmAdapter implements SubMaxSumAlgorithms

@enduml

@startuml
hide empty methods
hide empty attributes
skinparam classAttributeIconSize 0

class Company {
    -String designation
    -TestStore testStore
    -ClientStore clientStore
    +getTestStore()
    +getClientStore()
}

class TestStore {
    +getNumTestsWaitingForResultsDayOrInterval(beginningDay, endingDay)
    +getNumTestsWaitingForDiagnosisDayOrInterval(beginningDay, endingDay)
    +getNumTestsProcessedInLabDayOrInterval(beginningDay, endingDay)
    +getNumberOfTestsByIntervalDateOfTestRegistration(beginningDay, endingDay)
    +getNumberOfTestsByIntervalDateOfDiagnosis(beginningDay, endingDay)
}

class ClientStore {
    +getClients()
}

class CompanyPerformanceAnalysisController{
    -Company company
    +getNumClients()
    +getTestInfoDayOrInterval(beginningDay, endingDay)
    +makeIntervalArray(beginningDay, endingDay)
    +findWorstSubIntWithChosenAlgorithm(beginningDay, endingDay, chosenAlgorithm)
    +getChosenAlgorithmAdapter(chosenAlgorithm)
}

class CompanyPerformanceAnalysisUI{
}

interface SubMaxSumAlgorithms <<interface>> {
    +findSubMaxSum(interval)
}

class BenchmarkAlgorithmAdapter{
    +findSubMaxSum(interval)
}

class BruteForceAlgorithmAdapter{
    +findSubMaxSum(interval)
}

class Sum{
    +Max(seq)
}

class BruteForceAlgorithm{
    +Max(seq)
}

CompanyPerformanceAnalysisUI ..> CompanyPerformanceAnalysisController
CompanyPerformanceAnalysisController ..> Company
CompanyPerformanceAnalysisController ..> ClientStore
CompanyPerformanceAnalysisController ..> TestStore
CompanyPerformanceAnalysisController "1" - -> "1" SubMaxSumAlgorithms : makes use of
BenchmarkAlgorithmAdapter - -> Sum
BruteForceAlgorithmAdapter - -> BruteForceAlgorithm

class BenchmarkAlgorithmAdapter implements SubMaxSumAlgorithms
class BruteForceAlgorithmAdapter implements SubMaxSumAlgorithms

@enduml

PlantUML version 1.2021.7(Sun May 23 13:40:07 BST 2021)
(GPL source distribution)
Java Runtime: OpenJDK Runtime Environment
JVM: Dynamic Code Evolution 64-Bit Server VM
Default Encoding: Cp1252
Language: pt
Country: PT
--></g></svg>