<?xml version="1.0" encoding="UTF-8" standalone="no"?><svg xmlns="http://www.w3.org/2000/svg" xmlns:xlink="http://www.w3.org/1999/xlink" contentScriptType="application/ecmascript" contentStyleType="text/css" height="905px" preserveAspectRatio="none" style="width:1255px;height:905px;background:#FFFFFF;" version="1.1" viewBox="0 0 1255 905" width="1255px" zoomAndPan="magnify"><defs><filter height="300%" id="ff81e1iq9duwr" width="300%" x="-1" y="-1"><feGaussianBlur result="blurOut" stdDeviation="2.5"/><feColorMatrix in="blurOut" result="blurOut2" type="matrix" values="0 0 0 0 0 0 0 0 0 0 0 0 0 0 0 0 0 0 .4 0"/><feOffset dx="5.0" dy="5.0" in="blurOut2" result="blurOut3"/><feBlend in="SourceGraphic" in2="blurOut3" mode="normal"/></filter></defs><g><!--MD5=[02e4b9b7573f1156f41e60aa5b4e25a4]
class Company--><rect codeLine="7" fill="#FEFECE" filter="url(#ff81e1iq9duwr)" height="146.4746" id="Company" style="stroke:#A80036;stroke-width:1.875;" width="152.5" x="8.75" y="455"/><ellipse cx="48.3125" cy="475" fill="#ADD1B2" rx="13.75" ry="13.75" style="stroke:#A80036;stroke-width:1.25;"/><path d="M50.8125,470.625 Q51.0664,470 51.3594,469.6875 Q51.6523,469.375 51.9844,469.375 Q52.5703,469.375 52.9414,469.7266 Q53.3125,470.0781 53.3125,470.8984 L53.3125,472.8516 Q53.3125,473.6719 52.9609,474.0234 Q52.6094,474.375 52.0625,474.375 Q51.5742,474.375 51.2617,474.1602 Q50.9492,473.9453 50.8125,473.3789 Q50.7539,472.9883 50.5391,472.7734 Q50.1484,472.3633 49.4453,472.1289 Q48.7422,471.875 48.0391,471.875 Q47.1602,471.875 46.418,472.2266 Q45.6953,472.5781 45.1289,473.3594 Q44.5625,474.1406 44.5625,475.2148 L44.5625,476.3672 Q44.5625,477.6563 45.6172,478.5156 Q46.6719,479.375 48.5469,479.375 Q49.6602,479.375 50.4414,479.1211 Q50.8906,478.9844 51.3984,478.5352 Q51.7305,478.2813 51.9063,478.2031 Q52.082,478.125 52.2969,478.125 Q52.707,478.125 53,478.457 Q53.3125,478.7695 53.3125,479.2188 Q53.3125,479.6484 52.8828,480.1563 Q52.2578,480.8984 51.2617,481.3086 Q49.9531,481.875 48.3516,481.875 Q46.4766,481.875 44.9727,481.1328 Q43.7617,480.5469 42.9023,479.2773 Q42.0625,478.0078 42.0625,476.5039 L42.0625,475.1367 Q42.0625,473.5742 42.8047,472.207 Q43.5664,470.8398 44.875,470.1172 Q46.2031,469.375 47.6875,469.375 Q48.5859,469.375 49.3672,469.6875 Q50.1484,470 50.8125,470.625 Z " fill="#000000"/><text fill="#000000" font-family="sans-serif" font-size="15" lengthAdjust="spacing" textLength="66.25" x="70.4375" y="481.1377">Company</text><line style="stroke:#A80036;stroke-width:1.875;" x1="10" x2="160" y1="495" y2="495"/><text fill="#000000" font-family="sans-serif" font-size="13.75" lengthAdjust="spacing" textLength="112.5" x="16.25" y="514.2737">-String designation</text><text fill="#000000" font-family="sans-serif" font-size="13.75" lengthAdjust="spacing" textLength="122.5" x="16.25" y="531.5686">-TestStore testStore</text><text fill="#000000" font-family="sans-serif" font-size="13.75" lengthAdjust="spacing" textLength="137.5" x="16.25" y="548.8635">-ClientStore clientStore</text><line style="stroke:#A80036;stroke-width:1.875;" x1="10" x2="160" y1="556.8848" y2="556.8848"/><text fill="#000000" font-family="sans-serif" font-size="13.75" lengthAdjust="spacing" textLength="95" x="16.25" y="576.1584">+getTestStore()</text><text fill="#000000" font-family="sans-serif" font-size="13.75" lengthAdjust="spacing" textLength="101.25" x="16.25" y="593.4534">+getClientStore()</text><!--MD5=[0f6f7964b844a64b0496af0dda7914bd]
class TestStore--><rect codeLine="15" fill="#FEFECE" filter="url(#ff81e1iq9duwr)" height="136.4746" id="TestStore" style="stroke:#A80036;stroke-width:1.875;" width="498.75" x="205.625" y="460"/><ellipse cx="416.5625" cy="480" fill="#ADD1B2" rx="13.75" ry="13.75" style="stroke:#A80036;stroke-width:1.25;"/><path d="M419.0625,475.625 Q419.3164,475 419.6094,474.6875 Q419.9023,474.375 420.2344,474.375 Q420.8203,474.375 421.1914,474.7266 Q421.5625,475.0781 421.5625,475.8984 L421.5625,477.8516 Q421.5625,478.6719 421.2109,479.0234 Q420.8594,479.375 420.3125,479.375 Q419.8242,479.375 419.5117,479.1602 Q419.1992,478.9453 419.0625,478.3789 Q419.0039,477.9883 418.7891,477.7734 Q418.3984,477.3633 417.6953,477.1289 Q416.9922,476.875 416.2891,476.875 Q415.4102,476.875 414.668,477.2266 Q413.9453,477.5781 413.3789,478.3594 Q412.8125,479.1406 412.8125,480.2148 L412.8125,481.3672 Q412.8125,482.6563 413.8672,483.5156 Q414.9219,484.375 416.7969,484.375 Q417.9102,484.375 418.6914,484.1211 Q419.1406,483.9844 419.6484,483.5352 Q419.9805,483.2813 420.1563,483.2031 Q420.332,483.125 420.5469,483.125 Q420.957,483.125 421.25,483.457 Q421.5625,483.7695 421.5625,484.2188 Q421.5625,484.6484 421.1328,485.1563 Q420.5078,485.8984 419.5117,486.3086 Q418.2031,486.875 416.6016,486.875 Q414.7266,486.875 413.2227,486.1328 Q412.0117,485.5469 411.1523,484.2773 Q410.3125,483.0078 410.3125,481.5039 L410.3125,480.1367 Q410.3125,478.5742 411.0547,477.207 Q411.8164,475.8398 413.125,475.1172 Q414.4531,474.375 415.9375,474.375 Q416.8359,474.375 417.6172,474.6875 Q418.3984,475 419.0625,475.625 Z " fill="#000000"/><text fill="#000000" font-family="sans-serif" font-size="15" lengthAdjust="spacing" textLength="66.25" x="442.1875" y="486.1377">TestStore</text><line style="stroke:#A80036;stroke-width:1.875;" x1="206.875" x2="703.125" y1="500" y2="500"/><text fill="#000000" font-family="sans-serif" font-size="13.75" lengthAdjust="spacing" textLength="440" x="213.125" y="519.2737">+getNumTestsWaitingForResultsDayOrInterval(beginningDay, endingDay)</text><text fill="#000000" font-family="sans-serif" font-size="13.75" lengthAdjust="spacing" textLength="453.75" x="213.125" y="536.5686">+getNumTestsWaitingForDiagnosisDayOrInterval(beginningDay, endingDay)</text><text fill="#000000" font-family="sans-serif" font-size="13.75" lengthAdjust="spacing" textLength="428.75" x="213.125" y="553.8635">+getNumTestsProcessedInLabDayOrInterval(beginningDay, endingDay)</text><text fill="#000000" font-family="sans-serif" font-size="13.75" lengthAdjust="spacing" textLength="483.75" x="213.125" y="571.1584">+getNumberOfTestsByIntervalDateOfTestRegistration(beginningDay, endingDay)</text><text fill="#000000" font-family="sans-serif" font-size="13.75" lengthAdjust="spacing" textLength="445" x="213.125" y="588.4534">+getNumberOfTestsByIntervalDateOfDiagnosis(beginningDay, endingDay)</text><!--MD5=[55cb992be19579b505cea3c5691093cb]
class ClientStore--><rect codeLine="23" fill="#FEFECE" filter="url(#ff81e1iq9duwr)" height="67.2949" id="ClientStore" style="stroke:#A80036;stroke-width:1.875;" width="116.25" x="748.125" y="494.375"/><ellipse cx="766.875" cy="514.375" fill="#ADD1B2" rx="13.75" ry="13.75" style="stroke:#A80036;stroke-width:1.25;"/><path d="M769.375,510 Q769.6289,509.375 769.9219,509.0625 Q770.2148,508.75 770.5469,508.75 Q771.1328,508.75 771.5039,509.1016 Q771.875,509.4531 771.875,510.2734 L771.875,512.2266 Q771.875,513.0469 771.5234,513.3984 Q771.1719,513.75 770.625,513.75 Q770.1367,513.75 769.8242,513.5352 Q769.5117,513.3203 769.375,512.7539 Q769.3164,512.3633 769.1016,512.1484 Q768.7109,511.7383 768.0078,511.5039 Q767.3047,511.25 766.6016,511.25 Q765.7227,511.25 764.9805,511.6016 Q764.2578,511.9531 763.6914,512.7344 Q763.125,513.5156 763.125,514.5898 L763.125,515.7422 Q763.125,517.0313 764.1797,517.8906 Q765.2344,518.75 767.1094,518.75 Q768.2227,518.75 769.0039,518.4961 Q769.4531,518.3594 769.9609,517.9102 Q770.293,517.6563 770.4688,517.5781 Q770.6445,517.5 770.8594,517.5 Q771.2695,517.5 771.5625,517.832 Q771.875,518.1445 771.875,518.5938 Q771.875,519.0234 771.4453,519.5313 Q770.8203,520.2734 769.8242,520.6836 Q768.5156,521.25 766.9141,521.25 Q765.0391,521.25 763.5352,520.5078 Q762.3242,519.9219 761.4648,518.6523 Q760.625,517.3828 760.625,515.8789 L760.625,514.5117 Q760.625,512.9492 761.3672,511.582 Q762.1289,510.2148 763.4375,509.4922 Q764.7656,508.75 766.25,508.75 Q767.1484,508.75 767.9297,509.0625 Q768.7109,509.375 769.375,510 Z " fill="#000000"/><text fill="#000000" font-family="sans-serif" font-size="15" lengthAdjust="spacing" textLength="76.25" x="784.375" y="520.5127">ClientStore</text><line style="stroke:#A80036;stroke-width:1.875;" x1="749.375" x2="863.125" y1="534.375" y2="534.375"/><text fill="#000000" font-family="sans-serif" font-size="13.75" lengthAdjust="spacing" textLength="76.25" x="755.625" y="553.6487">+getClients()</text><!--MD5=[670275f839cd0f6ae295f6f439fd6034]
class CompanyPerformanceAnalysisController--><rect codeLine="27" fill="#FEFECE" filter="url(#ff81e1iq9duwr)" height="232.9492" id="CompanyPerformanceAnalysisController" style="stroke:#A80036;stroke-width:1.875;" width="396.25" x="431.875" y="125"/><ellipse cx="484.9375" cy="145" fill="#ADD1B2" rx="13.75" ry="13.75" style="stroke:#A80036;stroke-width:1.25;"/><path d="M487.4375,140.625 Q487.6914,140 487.9844,139.6875 Q488.2773,139.375 488.6094,139.375 Q489.1953,139.375 489.5664,139.7266 Q489.9375,140.0781 489.9375,140.8984 L489.9375,142.8516 Q489.9375,143.6719 489.5859,144.0234 Q489.2344,144.375 488.6875,144.375 Q488.1992,144.375 487.8867,144.1602 Q487.5742,143.9453 487.4375,143.3789 Q487.3789,142.9883 487.1641,142.7734 Q486.7734,142.3633 486.0703,142.1289 Q485.3672,141.875 484.6641,141.875 Q483.7852,141.875 483.043,142.2266 Q482.3203,142.5781 481.7539,143.3594 Q481.1875,144.1406 481.1875,145.2148 L481.1875,146.3672 Q481.1875,147.6563 482.2422,148.5156 Q483.2969,149.375 485.1719,149.375 Q486.2852,149.375 487.0664,149.1211 Q487.5156,148.9844 488.0234,148.5352 Q488.3555,148.2813 488.5313,148.2031 Q488.707,148.125 488.9219,148.125 Q489.332,148.125 489.625,148.457 Q489.9375,148.7695 489.9375,149.2188 Q489.9375,149.6484 489.5078,150.1563 Q488.8828,150.8984 487.8867,151.3086 Q486.5781,151.875 484.9766,151.875 Q483.1016,151.875 481.5977,151.1328 Q480.3867,150.5469 479.5273,149.2773 Q478.6875,148.0078 478.6875,146.5039 L478.6875,145.1367 Q478.6875,143.5742 479.4297,142.207 Q480.1914,140.8398 481.5,140.1172 Q482.8281,139.375 484.3125,139.375 Q485.2109,139.375 485.9922,139.6875 Q486.7734,140 487.4375,140.625 Z " fill="#000000"/><text fill="#000000" font-family="sans-serif" font-size="15" lengthAdjust="spacing" textLength="280" x="510.0625" y="151.1377">CompanyPerformanceAnalysisController</text><line style="stroke:#A80036;stroke-width:1.875;" x1="433.125" x2="826.875" y1="165" y2="165"/><text fill="#000000" font-family="sans-serif" font-size="13.75" lengthAdjust="spacing" textLength="120" x="439.375" y="184.2737">-Company company</text><line style="stroke:#A80036;stroke-width:1.875;" x1="433.125" x2="826.875" y1="192.2949" y2="192.2949"/><text fill="#000000" font-family="sans-serif" font-size="13.75" lengthAdjust="spacing" textLength="102.5" x="439.375" y="211.5686">+getNumClients()</text><text fill="#000000" font-family="sans-serif" font-size="13.75" lengthAdjust="spacing" textLength="158.75" x="439.375" y="228.8635">+getTestInfoPerDay(days)</text><text fill="#000000" font-family="sans-serif" font-size="13.75" lengthAdjust="spacing" textLength="168.75" x="439.375" y="246.1584">+getTestInfoPerWeek(days)</text><text fill="#000000" font-family="sans-serif" font-size="13.75" lengthAdjust="spacing" textLength="171.25" x="439.375" y="263.4534">+getTestInfoPerMonth(days)</text><text fill="#000000" font-family="sans-serif" font-size="13.75" lengthAdjust="spacing" textLength="165" x="439.375" y="280.7483">+getTestInfoPerYear(days)</text><text fill="#000000" font-family="sans-serif" font-size="13.75" lengthAdjust="spacing" textLength="220" x="439.375" y="298.0432">+getDays(beginningDay, endingDay)</text><text fill="#000000" font-family="sans-serif" font-size="13.75" lengthAdjust="spacing" textLength="157.5" x="439.375" y="315.3381">+makeIntervalArray(days)</text><text fill="#000000" font-family="sans-serif" font-size="13.75" lengthAdjust="spacing" textLength="381.25" x="439.375" y="332.6331">+findWorstSubIntWithChosenAlgorithm(days, chosenAlgorithm)</text><text fill="#000000" font-family="sans-serif" font-size="13.75" lengthAdjust="spacing" textLength="288.75" x="439.375" y="349.928">+getChosenAlgorithmAdapter(chosenAlgorithm)</text><!--MD5=[3404723274ca4ec774b8d2f7e379376f]
class CompanyPerformanceAnalysisUI--><rect codeLine="40" fill="#FEFECE" filter="url(#ff81e1iq9duwr)" height="40" id="CompanyPerformanceAnalysisUI" style="stroke:#A80036;stroke-width:1.875;" width="267.5" x="496.25" y="8.75"/><ellipse cx="515" cy="28.75" fill="#ADD1B2" rx="13.75" ry="13.75" style="stroke:#A80036;stroke-width:1.25;"/><path d="M517.5,24.375 Q517.7539,23.75 518.0469,23.4375 Q518.3398,23.125 518.6719,23.125 Q519.2578,23.125 519.6289,23.4766 Q520,23.8281 520,24.6484 L520,26.6016 Q520,27.4219 519.6484,27.7734 Q519.2969,28.125 518.75,28.125 Q518.2617,28.125 517.9492,27.9102 Q517.6367,27.6953 517.5,27.1289 Q517.4414,26.7383 517.2266,26.5234 Q516.8359,26.1133 516.1328,25.8789 Q515.4297,25.625 514.7266,25.625 Q513.8477,25.625 513.1055,25.9766 Q512.3828,26.3281 511.8164,27.1094 Q511.25,27.8906 511.25,28.9648 L511.25,30.1172 Q511.25,31.4063 512.3047,32.2656 Q513.3594,33.125 515.2344,33.125 Q516.3477,33.125 517.1289,32.8711 Q517.5781,32.7344 518.0859,32.2852 Q518.418,32.0313 518.5938,31.9531 Q518.7695,31.875 518.9844,31.875 Q519.3945,31.875 519.6875,32.207 Q520,32.5195 520,32.9688 Q520,33.3984 519.5703,33.9063 Q518.9453,34.6484 517.9492,35.0586 Q516.6406,35.625 515.0391,35.625 Q513.1641,35.625 511.6602,34.8828 Q510.4492,34.2969 509.5898,33.0273 Q508.75,31.7578 508.75,30.2539 L508.75,28.8867 Q508.75,27.3242 509.4922,25.957 Q510.2539,24.5898 511.5625,23.8672 Q512.8906,23.125 514.375,23.125 Q515.2734,23.125 516.0547,23.4375 Q516.8359,23.75 517.5,24.375 Z " fill="#000000"/><text fill="#000000" font-family="sans-serif" font-size="15" lengthAdjust="spacing" textLength="227.5" x="532.5" y="34.8877">CompanyPerformanceAnalysisUI</text><!--MD5=[03e21a3a74a4ec725edc90da8949a6b4]
class SubMaxSumAlgorithms--><rect codeLine="43" fill="#FEFECE" filter="url(#ff81e1iq9duwr)" height="77.5293" id="SubMaxSumAlgorithms" style="stroke:#A80036;stroke-width:1.875;" width="202.5" x="908.75" y="489.375"/><ellipse cx="927.5" cy="514.4922" fill="#B4A7E5" rx="13.75" ry="13.75" style="stroke:#A80036;stroke-width:1.25;"/><path d="M928.75,510.7422 L928.75,518.2422 L931.25,518.2422 L931.8555,518.2422 L932.5,519.0234 L932.5,519.4922 L932.5,519.9609 L931.8555,520.7422 L931.25,520.7422 L923.75,520.7422 L923.1445,520.7422 L922.5,519.9609 L922.5,519.4922 L922.5,519.0234 L923.1445,518.2422 L923.75,518.2422 L926.25,518.2422 L926.25,510.7422 L923.75,510.7422 L923.1445,510.7422 L922.5,509.9609 L922.5,509.4922 L922.5,509.0234 L923.1445,508.2422 L923.75,508.2422 L931.25,508.2422 L931.8555,508.2422 L932.5,509.0234 L932.5,509.4922 L932.5,509.9609 L931.8555,510.7422 L931.25,510.7422 L928.75,510.7422 Z " fill="#000000"/><text fill="#000000" font-family="sans-serif" font-size="15" font-style="italic" lengthAdjust="spacing" textLength="76.25" x="988.125" y="511.1963">«interface»</text><text fill="#000000" font-family="sans-serif" font-size="15" font-style="italic" lengthAdjust="spacing" textLength="162.5" x="945" y="530.0635">SubMaxSumAlgorithms</text><line style="stroke:#A80036;stroke-width:1.875;" x1="910" x2="1110" y1="539.6094" y2="539.6094"/><text fill="#000000" font-family="sans-serif" font-size="13.75" lengthAdjust="spacing" textLength="158.75" x="916.25" y="558.8831">+findSubMaxSum(interval)</text><!--MD5=[f4a38599b97b911edb1e154f571cf5e4]
class BenchmarkAlgorithmAdapter--><rect codeLine="71" fill="#FEFECE" filter="url(#ff81e1iq9duwr)" height="67.2949" id="BenchmarkAlgorithmAdapter" style="stroke:#A80036;stroke-width:1.875;" width="236.25" x="724.375" y="677.5"/><ellipse cx="743.125" cy="697.5" fill="#ADD1B2" rx="13.75" ry="13.75" style="stroke:#A80036;stroke-width:1.25;"/><path d="M745.625,693.125 Q745.8789,692.5 746.1719,692.1875 Q746.4648,691.875 746.7969,691.875 Q747.3828,691.875 747.7539,692.2266 Q748.125,692.5781 748.125,693.3984 L748.125,695.3516 Q748.125,696.1719 747.7734,696.5234 Q747.4219,696.875 746.875,696.875 Q746.3867,696.875 746.0742,696.6602 Q745.7617,696.4453 745.625,695.8789 Q745.5664,695.4883 745.3516,695.2734 Q744.9609,694.8633 744.2578,694.6289 Q743.5547,694.375 742.8516,694.375 Q741.9727,694.375 741.2305,694.7266 Q740.5078,695.0781 739.9414,695.8594 Q739.375,696.6406 739.375,697.7148 L739.375,698.8672 Q739.375,700.1563 740.4297,701.0156 Q741.4844,701.875 743.3594,701.875 Q744.4727,701.875 745.2539,701.6211 Q745.7031,701.4844 746.2109,701.0352 Q746.543,700.7813 746.7188,700.7031 Q746.8945,700.625 747.1094,700.625 Q747.5195,700.625 747.8125,700.957 Q748.125,701.2695 748.125,701.7188 Q748.125,702.1484 747.6953,702.6563 Q747.0703,703.3984 746.0742,703.8086 Q744.7656,704.375 743.1641,704.375 Q741.2891,704.375 739.7852,703.6328 Q738.5742,703.0469 737.7148,701.7773 Q736.875,700.5078 736.875,699.0039 L736.875,697.6367 Q736.875,696.0742 737.6172,694.707 Q738.3789,693.3398 739.6875,692.6172 Q741.0156,691.875 742.5,691.875 Q743.3984,691.875 744.1797,692.1875 Q744.9609,692.5 745.625,693.125 Z " fill="#000000"/><text fill="#000000" font-family="sans-serif" font-size="15" lengthAdjust="spacing" textLength="196.25" x="760.625" y="703.6377">BenchmarkAlgorithmAdapter</text><line style="stroke:#A80036;stroke-width:1.875;" x1="725.625" x2="959.375" y1="717.5" y2="717.5"/><text fill="#000000" font-family="sans-serif" font-size="13.75" lengthAdjust="spacing" textLength="158.75" x="731.875" y="736.7737">+findSubMaxSum(interval)</text><!--MD5=[3d195b319a9e341286852cea89c88ec3]
class BruteForceAlgorithmAdapter--><rect codeLine="72" fill="#FEFECE" filter="url(#ff81e1iq9duwr)" height="67.2949" id="BruteForceAlgorithmAdapter" style="stroke:#A80036;stroke-width:1.875;" width="232.5" x="1005" y="677.5"/><ellipse cx="1023.75" cy="697.5" fill="#ADD1B2" rx="13.75" ry="13.75" style="stroke:#A80036;stroke-width:1.25;"/><path d="M1026.25,693.125 Q1026.5039,692.5 1026.7969,692.1875 Q1027.0898,691.875 1027.4219,691.875 Q1028.0078,691.875 1028.3789,692.2266 Q1028.75,692.5781 1028.75,693.3984 L1028.75,695.3516 Q1028.75,696.1719 1028.3984,696.5234 Q1028.0469,696.875 1027.5,696.875 Q1027.0117,696.875 1026.6992,696.6602 Q1026.3867,696.4453 1026.25,695.8789 Q1026.1914,695.4883 1025.9766,695.2734 Q1025.5859,694.8633 1024.8828,694.6289 Q1024.1797,694.375 1023.4766,694.375 Q1022.5977,694.375 1021.8555,694.7266 Q1021.1328,695.0781 1020.5664,695.8594 Q1020,696.6406 1020,697.7148 L1020,698.8672 Q1020,700.1563 1021.0547,701.0156 Q1022.1094,701.875 1023.9844,701.875 Q1025.0977,701.875 1025.8789,701.6211 Q1026.3281,701.4844 1026.8359,701.0352 Q1027.168,700.7813 1027.3438,700.7031 Q1027.5195,700.625 1027.7344,700.625 Q1028.1445,700.625 1028.4375,700.957 Q1028.75,701.2695 1028.75,701.7188 Q1028.75,702.1484 1028.3203,702.6563 Q1027.6953,703.3984 1026.6992,703.8086 Q1025.3906,704.375 1023.7891,704.375 Q1021.9141,704.375 1020.4102,703.6328 Q1019.1992,703.0469 1018.3398,701.7773 Q1017.5,700.5078 1017.5,699.0039 L1017.5,697.6367 Q1017.5,696.0742 1018.2422,694.707 Q1019.0039,693.3398 1020.3125,692.6172 Q1021.6406,691.875 1023.125,691.875 Q1024.0234,691.875 1024.8047,692.1875 Q1025.5859,692.5 1026.25,693.125 Z " fill="#000000"/><text fill="#000000" font-family="sans-serif" font-size="15" lengthAdjust="spacing" textLength="192.5" x="1041.25" y="703.6377">BruteForceAlgorithmAdapter</text><line style="stroke:#A80036;stroke-width:1.875;" x1="1006.25" x2="1236.25" y1="717.5" y2="717.5"/><text fill="#000000" font-family="sans-serif" font-size="13.75" lengthAdjust="spacing" textLength="158.75" x="1012.5" y="736.7737">+findSubMaxSum(interval)</text><!--MD5=[bbc84d1aa0e7f30bd67b3f6e81f0f299]
class Sum--><rect codeLine="55" fill="#FEFECE" filter="url(#ff81e1iq9duwr)" height="67.2949" id="Sum" style="stroke:#A80036;stroke-width:1.875;" width="80" x="802.5" y="821.25"/><ellipse cx="824.625" cy="841.25" fill="#ADD1B2" rx="13.75" ry="13.75" style="stroke:#A80036;stroke-width:1.25;"/><path d="M827.125,836.875 Q827.3789,836.25 827.6719,835.9375 Q827.9648,835.625 828.2969,835.625 Q828.8828,835.625 829.2539,835.9766 Q829.625,836.3281 829.625,837.1484 L829.625,839.1016 Q829.625,839.9219 829.2734,840.2734 Q828.9219,840.625 828.375,840.625 Q827.8867,840.625 827.5742,840.4102 Q827.2617,840.1953 827.125,839.6289 Q827.0664,839.2383 826.8516,839.0234 Q826.4609,838.6133 825.7578,838.3789 Q825.0547,838.125 824.3516,838.125 Q823.4727,838.125 822.7305,838.4766 Q822.0078,838.8281 821.4414,839.6094 Q820.875,840.3906 820.875,841.4648 L820.875,842.6172 Q820.875,843.9063 821.9297,844.7656 Q822.9844,845.625 824.8594,845.625 Q825.9727,845.625 826.7539,845.3711 Q827.2031,845.2344 827.7109,844.7852 Q828.043,844.5313 828.2188,844.4531 Q828.3945,844.375 828.6094,844.375 Q829.0195,844.375 829.3125,844.707 Q829.625,845.0195 829.625,845.4688 Q829.625,845.8984 829.1953,846.4063 Q828.5703,847.1484 827.5742,847.5586 Q826.2656,848.125 824.6641,848.125 Q822.7891,848.125 821.2852,847.3828 Q820.0742,846.7969 819.2148,845.5273 Q818.375,844.2578 818.375,842.7539 L818.375,841.3867 Q818.375,839.8242 819.1172,838.457 Q819.8789,837.0898 821.1875,836.3672 Q822.5156,835.625 824,835.625 Q824.8984,835.625 825.6797,835.9375 Q826.4609,836.25 827.125,836.875 Z " fill="#000000"/><text fill="#000000" font-family="sans-serif" font-size="15" lengthAdjust="spacing" textLength="32.5" x="842.875" y="847.3877">Sum</text><line style="stroke:#A80036;stroke-width:1.875;" x1="803.75" x2="881.25" y1="861.25" y2="861.25"/><text fill="#000000" font-family="sans-serif" font-size="13.75" lengthAdjust="spacing" textLength="65" x="810" y="880.5237">+Max(seq)</text><!--MD5=[1dec90c14ec2ba3af2708f621be65d00]
class BruteForceAlgorithm--><rect codeLine="59" fill="#FEFECE" filter="url(#ff81e1iq9duwr)" height="67.2949" id="BruteForceAlgorithm" style="stroke:#A80036;stroke-width:1.875;" width="180" x="1031.25" y="821.25"/><ellipse cx="1050" cy="841.25" fill="#ADD1B2" rx="13.75" ry="13.75" style="stroke:#A80036;stroke-width:1.25;"/><path d="M1052.5,836.875 Q1052.7539,836.25 1053.0469,835.9375 Q1053.3398,835.625 1053.6719,835.625 Q1054.2578,835.625 1054.6289,835.9766 Q1055,836.3281 1055,837.1484 L1055,839.1016 Q1055,839.9219 1054.6484,840.2734 Q1054.2969,840.625 1053.75,840.625 Q1053.2617,840.625 1052.9492,840.4102 Q1052.6367,840.1953 1052.5,839.6289 Q1052.4414,839.2383 1052.2266,839.0234 Q1051.8359,838.6133 1051.1328,838.3789 Q1050.4297,838.125 1049.7266,838.125 Q1048.8477,838.125 1048.1055,838.4766 Q1047.3828,838.8281 1046.8164,839.6094 Q1046.25,840.3906 1046.25,841.4648 L1046.25,842.6172 Q1046.25,843.9063 1047.3047,844.7656 Q1048.3594,845.625 1050.2344,845.625 Q1051.3477,845.625 1052.1289,845.3711 Q1052.5781,845.2344 1053.0859,844.7852 Q1053.418,844.5313 1053.5938,844.4531 Q1053.7695,844.375 1053.9844,844.375 Q1054.3945,844.375 1054.6875,844.707 Q1055,845.0195 1055,845.4688 Q1055,845.8984 1054.5703,846.4063 Q1053.9453,847.1484 1052.9492,847.5586 Q1051.6406,848.125 1050.0391,848.125 Q1048.1641,848.125 1046.6602,847.3828 Q1045.4492,846.7969 1044.5898,845.5273 Q1043.75,844.2578 1043.75,842.7539 L1043.75,841.3867 Q1043.75,839.8242 1044.4922,838.457 Q1045.2539,837.0898 1046.5625,836.3672 Q1047.8906,835.625 1049.375,835.625 Q1050.2734,835.625 1051.0547,835.9375 Q1051.8359,836.25 1052.5,836.875 Z " fill="#000000"/><text fill="#000000" font-family="sans-serif" font-size="15" lengthAdjust="spacing" textLength="140" x="1067.5" y="847.3877">BruteForceAlgorithm</text><line style="stroke:#A80036;stroke-width:1.875;" x1="1032.5" x2="1210" y1="861.25" y2="861.25"/><text fill="#000000" font-family="sans-serif" font-size="13.75" lengthAdjust="spacing" textLength="65" x="1038.75" y="880.5237">+Max(seq)</text><!--MD5=[5b29af9deb3324aeb9c231daa5002dba]
link CompanyPerformanceAnalysisUI to CompanyPerformanceAnalysisController--><path codeLine="63" d="M630,49.0125 C630,65.55 630,91.0625 630,118.125 " fill="none" id="CompanyPerformanceAnalysisUI-to-CompanyPerformanceAnalysisController" style="stroke:#A80036;stroke-width:1.25;stroke-dasharray:7.0,7.0;"/><polygon fill="#A80036" points="630,124.65,635,113.4,630,118.4,625,113.4,630,124.65" style="stroke:#A80036;stroke-width:1.25;"/><!--MD5=[5ce4db4ce32c27ecea6aaa74e26a0164]
link CompanyPerformanceAnalysisController to Company--><path codeLine="64" d="M431.5375,327.45 C352.7125,363.6375 262.2875,408.2625 183.75,455 C178.2875,458.25 172.7375,461.725 167.2125,465.3375 " fill="none" id="CompanyPerformanceAnalysisController-to-Company" style="stroke:#A80036;stroke-width:1.25;stroke-dasharray:7.0,7.0;"/><polygon fill="#A80036" points="161.7,468.975,173.8422,466.943,166.914,465.5288,168.3282,458.6006,161.7,468.975" style="stroke:#A80036;stroke-width:1.25;"/><!--MD5=[556445e2a8ca4c0c6a33a05341a7825e]
link CompanyPerformanceAnalysisController to ClientStore--><path codeLine="65" d="M701.4375,357.75 C730.3,404.325 761.6375,454.9 782.4625,488.5 " fill="none" id="CompanyPerformanceAnalysisController-to-ClientStore" style="stroke:#A80036;stroke-width:1.25;stroke-dasharray:7.0,7.0;"/><polygon fill="#A80036" points="785.9625,494.15,784.3064,481.9508,782.6789,488.832,775.7977,487.2045,785.9625,494.15" style="stroke:#A80036;stroke-width:1.25;"/><!--MD5=[d03b593c12afa5f3c42671c11d6ed63b]
link CompanyPerformanceAnalysisController to TestStore--><path codeLine="66" d="M559.075,357.75 C539,390.3625 517.725,424.9375 499.675,454.275 " fill="none" id="CompanyPerformanceAnalysisController-to-TestStore" style="stroke:#A80036;stroke-width:1.25;stroke-dasharray:7.0,7.0;"/><polygon fill="#A80036" points="496.35,459.6875,506.5148,452.742,499.6336,454.3695,498.0061,447.4883,496.35,459.6875" style="stroke:#A80036;stroke-width:1.25;"/><!--MD5=[1f5b511532344f36d5811b87494f5882]
link CompanyPerformanceAnalysisController to SubMaxSumAlgorithms--><path codeLine="67" d="M784.0125,357.75 C844.3125,402.875 909.625,451.7625 954.4625,485.3125 " fill="none" id="CompanyPerformanceAnalysisController-to-SubMaxSumAlgorithms" style="stroke:#A80036;stroke-width:1.25;"/><polygon fill="#A80036" points="959.825,489.325,953.8004,478.5888,954.8164,485.5865,947.8187,486.6025,959.825,489.325" style="stroke:#A80036;stroke-width:1.25;"/><text fill="#000000" font-family="sans-serif" font-size="16.25" lengthAdjust="spacing" textLength="97.5" x="856.25" y="413.1189">makes use of</text><text fill="#000000" font-family="sans-serif" font-size="16.25" lengthAdjust="spacing" textLength="8.75" x="787.1867" y="384.699">1</text><text fill="#000000" font-family="sans-serif" font-size="16.25" lengthAdjust="spacing" textLength="8.75" x="939.1422" y="475.5638">1</text><!--MD5=[6926410afba6dbb7662f77bf9a4beef8]
link BenchmarkAlgorithmAdapter to Sum--><path codeLine="68" d="M842.5,745.2625 C842.5,765.9375 842.5,792.775 842.5,814.575 " fill="none" id="BenchmarkAlgorithmAdapter-to-Sum" style="stroke:#A80036;stroke-width:1.25;"/><polygon fill="#A80036" points="842.5,821.1625,847.5,809.9125,842.5,814.9125,837.5,809.9125,842.5,821.1625" style="stroke:#A80036;stroke-width:1.25;"/><!--MD5=[5c0b00d376c45fe49ede70ccf937dd89]
link BruteForceAlgorithmAdapter to BruteForceAlgorithm--><path codeLine="69" d="M1121.25,745.2625 C1121.25,765.9375 1121.25,792.775 1121.25,814.575 " fill="none" id="BruteForceAlgorithmAdapter-to-BruteForceAlgorithm" style="stroke:#A80036;stroke-width:1.25;"/><polygon fill="#A80036" points="1121.25,821.1625,1126.25,809.9125,1121.25,814.9125,1116.25,809.9125,1121.25,821.1625" style="stroke:#A80036;stroke-width:1.25;"/><!--MD5=[7500d493c54aadfc564551571970942a]
reverse link SubMaxSumAlgorithms to BenchmarkAlgorithmAdapter--><path d="M957.5625,585.925 C929.7875,615.875 896.6375,651.625 873.0625,677.0375 " fill="none" id="SubMaxSumAlgorithms-backto-BenchmarkAlgorithmAdapter" style="stroke:#A80036;stroke-width:1.25;stroke-dasharray:7.0,7.0;"/><polygon fill="none" points="951.475,579.625,974.8875,567.2375,964.3,591.525,951.475,579.625" style="stroke:#A80036;stroke-width:1.25;"/><!--MD5=[2746a4793daa6de3b91732e823f67982]
reverse link SubMaxSumAlgorithms to BruteForceAlgorithmAdapter--><path d="M1046.6875,588.9375 C1064.7375,618.25 1085.8125,652.475 1100.95,677.0375 " fill="none" id="SubMaxSumAlgorithms-backto-BruteForceAlgorithmAdapter" style="stroke:#A80036;stroke-width:1.25;stroke-dasharray:7.0,7.0;"/><polygon fill="none" points="1038.9875,593.1125,1033.325,567.2375,1053.8875,583.9375,1038.9875,593.1125" style="stroke:#A80036;stroke-width:1.25;"/><!--MD5=[12f995c59b524918cfec6a74c9ba0855]
@startuml
'skinparam linetype ortho
hide empty methods
hide empty attributes
'left to right direction
skinparam classAttributeIconSize 0

class Company {
    -String designation
    -TestStore testStore
    -ClientStore clientStore
    +getTestStore()
    +getClientStore()
}

class TestStore {
    +getNumTestsWaitingForResultsDayOrInterval(beginningDay, endingDay)
    +getNumTestsWaitingForDiagnosisDayOrInterval(beginningDay, endingDay)
    +getNumTestsProcessedInLabDayOrInterval(beginningDay, endingDay)
    +getNumberOfTestsByIntervalDateOfTestRegistration(beginningDay, endingDay)
    +getNumberOfTestsByIntervalDateOfDiagnosis(beginningDay, endingDay)
}

class ClientStore {
    +getClients()
}

class CompanyPerformanceAnalysisController{
    -Company company
    +getNumClients()
    +getTestInfoPerDay(days)
    +getTestInfoPerWeek(days)
    +getTestInfoPerMonth(days)
    +getTestInfoPerYear(days)
    +getDays(beginningDay, endingDay)
    +makeIntervalArray(days)
    +findWorstSubIntWithChosenAlgorithm(days, chosenAlgorithm)
    +getChosenAlgorithmAdapter(chosenAlgorithm)
}

class CompanyPerformanceAnalysisUI{
}

interface SubMaxSumAlgorithms <<interface>> {
    +findSubMaxSum(interval)
}

class BenchmarkAlgorithmAdapter{
    +findSubMaxSum(interval)
}

class BruteForceAlgorithmAdapter{
    +findSubMaxSum(interval)
}

class Sum{
    +Max(seq)
}

class BruteForceAlgorithm{
    +Max(seq)
}

CompanyPerformanceAnalysisUI ..> CompanyPerformanceAnalysisController
CompanyPerformanceAnalysisController ..> Company
CompanyPerformanceAnalysisController ..> ClientStore
CompanyPerformanceAnalysisController ..> TestStore
CompanyPerformanceAnalysisController "1" - -> "1" SubMaxSumAlgorithms : makes use of
BenchmarkAlgorithmAdapter - -> Sum
BruteForceAlgorithmAdapter - -> BruteForceAlgorithm

class BenchmarkAlgorithmAdapter implements SubMaxSumAlgorithms
class BruteForceAlgorithmAdapter implements SubMaxSumAlgorithms

@enduml

@startuml
hide empty methods
hide empty attributes
skinparam classAttributeIconSize 0

class Company {
    -String designation
    -TestStore testStore
    -ClientStore clientStore
    +getTestStore()
    +getClientStore()
}

class TestStore {
    +getNumTestsWaitingForResultsDayOrInterval(beginningDay, endingDay)
    +getNumTestsWaitingForDiagnosisDayOrInterval(beginningDay, endingDay)
    +getNumTestsProcessedInLabDayOrInterval(beginningDay, endingDay)
    +getNumberOfTestsByIntervalDateOfTestRegistration(beginningDay, endingDay)
    +getNumberOfTestsByIntervalDateOfDiagnosis(beginningDay, endingDay)
}

class ClientStore {
    +getClients()
}

class CompanyPerformanceAnalysisController{
    -Company company
    +getNumClients()
    +getTestInfoPerDay(days)
    +getTestInfoPerWeek(days)
    +getTestInfoPerMonth(days)
    +getTestInfoPerYear(days)
    +getDays(beginningDay, endingDay)
    +makeIntervalArray(days)
    +findWorstSubIntWithChosenAlgorithm(days, chosenAlgorithm)
    +getChosenAlgorithmAdapter(chosenAlgorithm)
}

class CompanyPerformanceAnalysisUI{
}

interface SubMaxSumAlgorithms <<interface>> {
    +findSubMaxSum(interval)
}

class BenchmarkAlgorithmAdapter{
    +findSubMaxSum(interval)
}

class BruteForceAlgorithmAdapter{
    +findSubMaxSum(interval)
}

class Sum{
    +Max(seq)
}

class BruteForceAlgorithm{
    +Max(seq)
}

CompanyPerformanceAnalysisUI ..> CompanyPerformanceAnalysisController
CompanyPerformanceAnalysisController ..> Company
CompanyPerformanceAnalysisController ..> ClientStore
CompanyPerformanceAnalysisController ..> TestStore
CompanyPerformanceAnalysisController "1" - -> "1" SubMaxSumAlgorithms : makes use of
BenchmarkAlgorithmAdapter - -> Sum
BruteForceAlgorithmAdapter - -> BruteForceAlgorithm

class BenchmarkAlgorithmAdapter implements SubMaxSumAlgorithms
class BruteForceAlgorithmAdapter implements SubMaxSumAlgorithms

@enduml

PlantUML version 1.2021.7(Sun May 23 13:40:07 BST 2021)
(GPL source distribution)
Java Runtime: OpenJDK Runtime Environment
JVM: Dynamic Code Evolution 64-Bit Server VM
Default Encoding: Cp1252
Language: pt
Country: PT
--></g></svg>