<?xml version="1.0" encoding="UTF-8" standalone="no"?><svg xmlns="http://www.w3.org/2000/svg" xmlns:xlink="http://www.w3.org/1999/xlink" contentScriptType="application/ecmascript" contentStyleType="text/css" height="241.25px" preserveAspectRatio="none" style="width:948px;height:241px;" version="1.1" viewBox="0 0 948 241" width="948.75px" zoomAndPan="magnify"><defs><filter height="300%" id="fjfwo830l855z" width="300%" x="-1" y="-1"><feGaussianBlur result="blurOut" stdDeviation="2.5"/><feColorMatrix in="blurOut" result="blurOut2" type="matrix" values="0 0 0 0 0 0 0 0 0 0 0 0 0 0 0 0 0 0 .4 0"/><feOffset dx="5.0" dy="5.0" in="blurOut2" result="blurOut3"/><feBlend in="SourceGraphic" in2="blurOut3" mode="normal"/></filter></defs><g><!--MD5=[02e4b9b7573f1156f41e60aa5b4e25a4]
class Company--><rect codeLine="7" fill="#FEFECE" filter="url(#fjfwo830l855z)" height="67.2949" id="Company" style="stroke:#A80036;stroke-width:1.875;" width="106.25" x="52.5" y="8.75"/><ellipse cx="71.25" cy="28.75" fill="#ADD1B2" rx="13.75" ry="13.75" style="stroke:#A80036;stroke-width:1.25;"/><path d="M73.75,24.375 Q74.0039,23.75 74.2969,23.4375 Q74.5898,23.125 74.9219,23.125 Q75.5078,23.125 75.8789,23.4766 Q76.25,23.8281 76.25,24.6484 L76.25,26.6016 Q76.25,27.4219 75.8984,27.7734 Q75.5469,28.125 75,28.125 Q74.5117,28.125 74.1992,27.9102 Q73.8867,27.6953 73.75,27.1289 Q73.6914,26.7383 73.4766,26.5234 Q73.0859,26.1133 72.3828,25.8789 Q71.6797,25.625 70.9766,25.625 Q70.0977,25.625 69.3555,25.9766 Q68.6328,26.3281 68.0664,27.1094 Q67.5,27.8906 67.5,28.9648 L67.5,30.1172 Q67.5,31.4063 68.5547,32.2656 Q69.6094,33.125 71.4844,33.125 Q72.5977,33.125 73.3789,32.8711 Q73.8281,32.7344 74.3359,32.2852 Q74.668,32.0313 74.8438,31.9531 Q75.0195,31.875 75.2344,31.875 Q75.6445,31.875 75.9375,32.207 Q76.25,32.5195 76.25,32.9688 Q76.25,33.3984 75.8203,33.9063 Q75.1953,34.6484 74.1992,35.0586 Q72.8906,35.625 71.2891,35.625 Q69.4141,35.625 67.9102,34.8828 Q66.6992,34.2969 65.8398,33.0273 Q65,31.7578 65,30.2539 L65,28.8867 Q65,27.3242 65.7422,25.957 Q66.5039,24.5898 67.8125,23.8672 Q69.1406,23.125 70.625,23.125 Q71.5234,23.125 72.3047,23.4375 Q73.0859,23.75 73.75,24.375 Z " fill="#000000"/><text fill="#000000" font-family="sans-serif" font-size="15" lengthAdjust="spacing" textLength="66.25" x="88.75" y="34.8877">Company</text><line style="stroke:#A80036;stroke-width:1.875;" x1="53.75" x2="157.5" y1="48.75" y2="48.75"/><text fill="#000000" font-family="sans-serif" font-size="13.75" lengthAdjust="spacing" textLength="73.75" x="60" y="68.0237">-designation</text><!--MD5=[df38be88ccee13e832d6fafd6288a4ca]
class Test--><rect codeLine="11" fill="#FEFECE" filter="url(#fjfwo830l855z)" height="101.8848" id="Test" style="stroke:#A80036;stroke-width:1.875;" width="158.75" x="772.5" y="27.5"/><ellipse cx="831.5625" cy="47.5" fill="#ADD1B2" rx="13.75" ry="13.75" style="stroke:#A80036;stroke-width:1.25;"/><path d="M834.0625,43.125 Q834.3164,42.5 834.6094,42.1875 Q834.9023,41.875 835.2344,41.875 Q835.8203,41.875 836.1914,42.2266 Q836.5625,42.5781 836.5625,43.3984 L836.5625,45.3516 Q836.5625,46.1719 836.2109,46.5234 Q835.8594,46.875 835.3125,46.875 Q834.8242,46.875 834.5117,46.6602 Q834.1992,46.4453 834.0625,45.8789 Q834.0039,45.4883 833.7891,45.2734 Q833.3984,44.8633 832.6953,44.6289 Q831.9922,44.375 831.2891,44.375 Q830.4102,44.375 829.668,44.7266 Q828.9453,45.0781 828.3789,45.8594 Q827.8125,46.6406 827.8125,47.7148 L827.8125,48.8672 Q827.8125,50.1563 828.8672,51.0156 Q829.9219,51.875 831.7969,51.875 Q832.9102,51.875 833.6914,51.6211 Q834.1406,51.4844 834.6484,51.0352 Q834.9805,50.7813 835.1563,50.7031 Q835.332,50.625 835.5469,50.625 Q835.957,50.625 836.25,50.957 Q836.5625,51.2695 836.5625,51.7188 Q836.5625,52.1484 836.1328,52.6563 Q835.5078,53.3984 834.5117,53.8086 Q833.2031,54.375 831.6016,54.375 Q829.7266,54.375 828.2227,53.6328 Q827.0117,53.0469 826.1523,51.7773 Q825.3125,50.5078 825.3125,49.0039 L825.3125,47.6367 Q825.3125,46.0742 826.0547,44.707 Q826.8164,43.3398 828.125,42.6172 Q829.4531,41.875 830.9375,41.875 Q831.8359,41.875 832.6172,42.1875 Q833.3984,42.5 834.0625,43.125 Z " fill="#000000"/><text fill="#000000" font-family="sans-serif" font-size="15" lengthAdjust="spacing" textLength="30" x="857.1875" y="53.6377">Test</text><line style="stroke:#A80036;stroke-width:1.875;" x1="773.75" x2="930" y1="67.5" y2="67.5"/><text fill="#000000" font-family="sans-serif" font-size="13.75" lengthAdjust="spacing" textLength="60" x="780" y="86.7737">-NhsCode</text><text fill="#000000" font-family="sans-serif" font-size="13.75" lengthAdjust="spacing" textLength="35" x="780" y="104.0686">-code</text><text fill="#000000" font-family="sans-serif" font-size="13.75" lengthAdjust="spacing" textLength="143.75" x="780" y="121.3635">-dateOfTestRegistration</text><!--MD5=[052425de1c0eb6cc1c1b48342b0bb88f]
class LaboratoryCoordinator--><rect codeLine="17" fill="#FEFECE" filter="url(#fjfwo830l855z)" height="40" id="LaboratoryCoordinator" style="stroke:#A80036;stroke-width:1.875;" width="193.75" x="8.75" y="136.25"/><ellipse cx="27.5" cy="156.25" fill="#ADD1B2" rx="13.75" ry="13.75" style="stroke:#A80036;stroke-width:1.25;"/><path d="M30,151.875 Q30.2539,151.25 30.5469,150.9375 Q30.8398,150.625 31.1719,150.625 Q31.7578,150.625 32.1289,150.9766 Q32.5,151.3281 32.5,152.1484 L32.5,154.1016 Q32.5,154.9219 32.1484,155.2734 Q31.7969,155.625 31.25,155.625 Q30.7617,155.625 30.4492,155.4102 Q30.1367,155.1953 30,154.6289 Q29.9414,154.2383 29.7266,154.0234 Q29.3359,153.6133 28.6328,153.3789 Q27.9297,153.125 27.2266,153.125 Q26.3477,153.125 25.6055,153.4766 Q24.8828,153.8281 24.3164,154.6094 Q23.75,155.3906 23.75,156.4648 L23.75,157.6172 Q23.75,158.9063 24.8047,159.7656 Q25.8594,160.625 27.7344,160.625 Q28.8477,160.625 29.6289,160.3711 Q30.0781,160.2344 30.5859,159.7852 Q30.918,159.5313 31.0938,159.4531 Q31.2695,159.375 31.4844,159.375 Q31.8945,159.375 32.1875,159.707 Q32.5,160.0195 32.5,160.4688 Q32.5,160.8984 32.0703,161.4063 Q31.4453,162.1484 30.4492,162.5586 Q29.1406,163.125 27.5391,163.125 Q25.6641,163.125 24.1602,162.3828 Q22.9492,161.7969 22.0898,160.5273 Q21.25,159.2578 21.25,157.7539 L21.25,156.3867 Q21.25,154.8242 21.9922,153.457 Q22.7539,152.0898 24.0625,151.3672 Q25.3906,150.625 26.875,150.625 Q27.7734,150.625 28.5547,150.9375 Q29.3359,151.25 30,151.875 Z " fill="#000000"/><text fill="#000000" font-family="sans-serif" font-size="15" lengthAdjust="spacing" textLength="153.75" x="45" y="162.3877">LaboratoryCoordinator</text><!--MD5=[ac303f9d3ae5a280bcee843295a9d18a]
class CompanyPerformanceAnalysis--><rect codeLine="20" fill="#FEFECE" filter="url(#fjfwo830l855z)" height="136.4746" id="CompanyPerformanceAnalysis" style="stroke:#A80036;stroke-width:1.875;" width="252.5" x="361.25" y="88.125"/><ellipse cx="380" cy="108.125" fill="#ADD1B2" rx="13.75" ry="13.75" style="stroke:#A80036;stroke-width:1.25;"/><path d="M382.5,103.75 Q382.7539,103.125 383.0469,102.8125 Q383.3398,102.5 383.6719,102.5 Q384.2578,102.5 384.6289,102.8516 Q385,103.2031 385,104.0234 L385,105.9766 Q385,106.7969 384.6484,107.1484 Q384.2969,107.5 383.75,107.5 Q383.2617,107.5 382.9492,107.2852 Q382.6367,107.0703 382.5,106.5039 Q382.4414,106.1133 382.2266,105.8984 Q381.8359,105.4883 381.1328,105.2539 Q380.4297,105 379.7266,105 Q378.8477,105 378.1055,105.3516 Q377.3828,105.7031 376.8164,106.4844 Q376.25,107.2656 376.25,108.3398 L376.25,109.4922 Q376.25,110.7813 377.3047,111.6406 Q378.3594,112.5 380.2344,112.5 Q381.3477,112.5 382.1289,112.2461 Q382.5781,112.1094 383.0859,111.6602 Q383.418,111.4063 383.5938,111.3281 Q383.7695,111.25 383.9844,111.25 Q384.3945,111.25 384.6875,111.582 Q385,111.8945 385,112.3438 Q385,112.7734 384.5703,113.2813 Q383.9453,114.0234 382.9492,114.4336 Q381.6406,115 380.0391,115 Q378.1641,115 376.6602,114.2578 Q375.4492,113.6719 374.5898,112.4023 Q373.75,111.1328 373.75,109.6289 L373.75,108.2617 Q373.75,106.6992 374.4922,105.332 Q375.2539,103.9648 376.5625,103.2422 Q377.8906,102.5 379.375,102.5 Q380.2734,102.5 381.0547,102.8125 Q381.8359,103.125 382.5,103.75 Z " fill="#000000"/><text fill="#000000" font-family="sans-serif" font-size="15" lengthAdjust="spacing" textLength="212.5" x="397.5" y="114.2627">CompanyPerformanceAnalysis</text><line style="stroke:#A80036;stroke-width:1.875;" x1="362.5" x2="612.5" y1="128.125" y2="128.125"/><text fill="#000000" font-family="sans-serif" font-size="13.75" lengthAdjust="spacing" textLength="117.5" x="368.75" y="147.3987">-firstDayToAnalyse</text><text fill="#000000" font-family="sans-serif" font-size="13.75" lengthAdjust="spacing" textLength="115" x="368.75" y="164.6936">-lastDayToAnalyse</text><text fill="#000000" font-family="sans-serif" font-size="13.75" lengthAdjust="spacing" textLength="78.75" x="368.75" y="181.9885">-worstSubInt</text><text fill="#000000" font-family="sans-serif" font-size="13.75" lengthAdjust="spacing" textLength="58.75" x="368.75" y="199.2834">-statistics</text><text fill="#000000" font-family="sans-serif" font-size="13.75" lengthAdjust="spacing" textLength="47.5" x="368.75" y="216.5784">-graphs</text><!--MD5=[7e4bc624457760b649895ff2ead938fa]
link Company to Test--><path codeLine="28" d="M159.025,44.4375 C202.9625,46.1125 267.475,48.6625 323.75,51.25 C506.575,59.6625 552.2375,62.8375 735,72.5 C747.05,73.1375 759.8,73.8125 772.2625,74.4875 " fill="none" id="Company-Test" style="stroke:#A80036;stroke-width:1.25;"/><polygon fill="#000000" points="457.4925,43.0256,446.3795,38.803,446.0199,46.1415,457.4925,43.0256" style="stroke:#000000;stroke-width:1.25;"/><text fill="#000000" font-family="sans-serif" font-size="16.25" lengthAdjust="spacing" textLength="66.25" x="462.5" y="49.3689">conducts</text><text fill="#000000" font-family="sans-serif" font-size="16.25" lengthAdjust="spacing" textLength="8.75" x="168.594" y="63.3369">1</text><text fill="#000000" font-family="sans-serif" font-size="16.25" lengthAdjust="spacing" textLength="6.25" x="756.446" y="92.0808">*</text><!--MD5=[0d0c29d46803ed8180724ab1158900d9]
link LaboratoryCoordinator to CompanyPerformanceAnalysis--><path codeLine="29" d="M202.6125,156.25 C250.675,156.25 309.525,156.25 361.125,156.25 " fill="none" id="LaboratoryCoordinator-CompanyPerformanceAnalysis" style="stroke:#A80036;stroke-width:1.25;"/><polygon fill="#000000" points="252.5,145.2197,241.1936,141.5461,241.1936,148.8934,252.5,145.2197" style="stroke:#000000;stroke-width:1.25;"/><text fill="#000000" font-family="sans-serif" font-size="16.25" lengthAdjust="spacing" textLength="65" x="257.5" y="151.8689">analyses</text><text fill="#000000" font-family="sans-serif" font-size="16.25" lengthAdjust="spacing" textLength="25" x="212.3637" y="174.0291">1..*</text><text fill="#000000" font-family="sans-serif" font-size="16.25" lengthAdjust="spacing" textLength="6.25" x="344.9602" y="173.8927">*</text><!--MD5=[9998b5a258ee6660099648093819515e]
link Company to CompanyPerformanceAnalysis--><path codeLine="30" d="M158.825,58.075 C210.675,73.625 292.3125,98.1 361.1,118.725 " fill="none" id="Company-CompanyPerformanceAnalysis" style="stroke:#A80036;stroke-width:1.25;"/><polygon fill="#000000" points="271.6117,74.5148,261.8368,67.7486,259.7266,74.7864,271.6117,74.5148" style="stroke:#000000;stroke-width:1.25;"/><text fill="#000000" font-family="sans-serif" font-size="16.25" lengthAdjust="spacing" textLength="26.25" x="276.875" y="79.3689">has</text><text fill="#000000" font-family="sans-serif" font-size="16.25" lengthAdjust="spacing" textLength="8.75" x="168.7207" y="79.395">1</text><text fill="#000000" font-family="sans-serif" font-size="16.25" lengthAdjust="spacing" textLength="6.25" x="344.9332" y="133.4947">*</text><!--MD5=[8e4a637033e5a122b5efde72f17a21bc]
link CompanyPerformanceAnalysis to Test--><path codeLine="31" d="M613.7875,129.475 C666.3,118.225 725.7625,105.4875 771.975,95.6 " fill="none" id="CompanyPerformanceAnalysis-Test" style="stroke:#A80036;stroke-width:1.25;"/><polygon fill="#000000" points="663.6114,92.661,651.7865,91.4363,653.325,98.6207,663.6114,92.661" style="stroke:#000000;stroke-width:1.25;"/><text fill="#000000" font-family="sans-serif" font-size="16.25" lengthAdjust="spacing" textLength="65" x="668.75" y="100.6189">analyses</text><text fill="#000000" font-family="sans-serif" font-size="16.25" lengthAdjust="spacing" textLength="8.75" x="623.7913" y="145.0678">1</text><text fill="#000000" font-family="sans-serif" font-size="16.25" lengthAdjust="spacing" textLength="6.25" x="756.1252" y="115.6344">*</text><!--MD5=[8f63cf235787e3c5eb0533d4195bdbe1]
@startuml

skinparam classAttributeIconSize 0
hide empty methods
hide empty attributes
left to right direction

class Company{
- designation
}

class Test{
- NhsCode
- code
- dateOfTestRegistration
}

class LaboratoryCoordinator{
}

class CompanyPerformanceAnalysis{
- firstDayToAnalyse
- lastDayToAnalyse
- worstSubInt
- statistics
- graphs
}

Company "1" - - "*" Test : conducts >
LaboratoryCoordinator "1..*" - - "*" CompanyPerformanceAnalysis : analyses >
Company "1" - - "*" CompanyPerformanceAnalysis : has >
CompanyPerformanceAnalysis "1" - - "*" Test : analyses >

@enduml

PlantUML version 1.2021.5(Sun Apr 25 12:20:28 BST 2021)
(GPL source distribution)
Java Runtime: OpenJDK Runtime Environment
JVM: Dynamic Code Evolution 64-Bit Server VM
Default Encoding: Cp1252
Language: pt
Country: PT
--></g></svg>