<?xml version="1.0" encoding="UTF-8" standalone="no"?><svg xmlns="http://www.w3.org/2000/svg" xmlns:xlink="http://www.w3.org/1999/xlink" contentScriptType="application/ecmascript" contentStyleType="text/css" height="920px" preserveAspectRatio="none" style="width:2386px;height:920px;background:#FFFFFF;" version="1.1" viewBox="0 0 2386 920" width="2386.25px" zoomAndPan="magnify"><defs><filter height="300%" id="f1r2xwvlwit3j7" width="300%" x="-1" y="-1"><feGaussianBlur result="blurOut" stdDeviation="2.5"/><feColorMatrix in="blurOut" result="blurOut2" type="matrix" values="0 0 0 0 0 0 0 0 0 0 0 0 0 0 0 0 0 0 .4 0"/><feOffset dx="5.0" dy="5.0" in="blurOut2" result="blurOut3"/><feBlend in="SourceGraphic" in2="blurOut3" mode="normal"/></filter></defs><g><!--MD5=[2c2e2644034c00788261e03c85b06837]
cluster Core--><polygon fill="#FFFFFF" filter="url(#f1r2xwvlwit3j7)" points="428.75,7.5,478.75,7.5,487.5,37.0117,2365,37.0117,2365,911.25,428.75,911.25,428.75,7.5" style="stroke:#000000;stroke-width:1.875;"/><line style="stroke:#000000;stroke-width:1.875;" x1="428.75" x2="487.5" y1="37.0117" y2="37.0117"/><text fill="#000000" font-family="sans-serif" font-size="17.5" font-weight="bold" lengthAdjust="spacing" textLength="42.5" x="433.75" y="28.1665">Core</text><!--MD5=[121a8bf1197281ab89ed693fab589f94]
cluster Domain--><polygon fill="#FFFFFF" filter="url(#f1r2xwvlwit3j7)" points="1157.5,310,1230,310,1238.75,339.5117,2335,339.5117,2335,881.25,1157.5,881.25,1157.5,310" style="stroke:#000000;stroke-width:1.875;"/><line style="stroke:#000000;stroke-width:1.875;" x1="1157.5" x2="1238.75" y1="339.5117" y2="339.5117"/><text fill="#000000" font-family="sans-serif" font-size="17.5" font-weight="bold" lengthAdjust="spacing" textLength="65" x="1162.5" y="330.6665">Domain</text><!--MD5=[15636c1ca4a123c16a2a1a8e90aca7a9]
cluster Model--><polygon fill="#FFFFFF" filter="url(#f1r2xwvlwit3j7)" points="2085,527.5,2147.5,527.5,2156.25,557.0117,2305,557.0117,2305,851.25,2085,851.25,2085,527.5" style="stroke:#000000;stroke-width:1.875;"/><line style="stroke:#000000;stroke-width:1.875;" x1="2085" x2="2156.25" y1="557.0117" y2="557.0117"/><text fill="#000000" font-family="sans-serif" font-size="17.5" font-weight="bold" lengthAdjust="spacing" textLength="55" x="2090" y="548.1665">Model</text><!--MD5=[0b89f7d34c26fffbb81ea7301eb9df33]
cluster Interfaces--><polygon fill="#FFFFFF" filter="url(#f1r2xwvlwit3j7)" points="1335.625,708.75,1431.875,708.75,1440.625,738.2617,1578.125,738.2617,1578.125,851.25,1335.625,851.25,1335.625,708.75" style="stroke:#000000;stroke-width:1.875;"/><line style="stroke:#000000;stroke-width:1.875;" x1="1335.625" x2="1440.625" y1="738.2617" y2="738.2617"/><text fill="#000000" font-family="sans-serif" font-size="17.5" font-weight="bold" lengthAdjust="spacing" textLength="88.75" x="1340.625" y="729.4165">Interfaces</text><!--MD5=[7ce1723ddb6e6233854253973eae5a71]
cluster Store--><polygon fill="#FFFFFF" filter="url(#f1r2xwvlwit3j7)" points="1187.5,365,1242.5,365,1251.25,394.5117,1726.25,394.5117,1726.25,678.75,1187.5,678.75,1187.5,365" style="stroke:#000000;stroke-width:1.875;"/><line style="stroke:#000000;stroke-width:1.875;" x1="1187.5" x2="1251.25" y1="394.5117" y2="394.5117"/><text fill="#000000" font-family="sans-serif" font-size="17.5" font-weight="bold" lengthAdjust="spacing" textLength="47.5" x="1192.5" y="385.6665">Store</text><!--MD5=[aedc30b8666742a3000193d7e0a0b93e]
cluster Adapters--><polygon fill="#FFFFFF" filter="url(#f1r2xwvlwit3j7)" points="1767.5,532.5,1853.75,532.5,1862.5,562.0117,2043.75,562.0117,2043.75,776.25,1767.5,776.25,1767.5,532.5" style="stroke:#000000;stroke-width:1.875;"/><line style="stroke:#000000;stroke-width:1.875;" x1="1767.5" x2="1862.5" y1="562.0117" y2="562.0117"/><text fill="#000000" font-family="sans-serif" font-size="17.5" font-weight="bold" lengthAdjust="spacing" textLength="78.75" x="1772.5" y="553.1665">Adapters</text><!--MD5=[1f2cfc53d9d308f53762fd0fcbaa4873]
cluster Controller--><polygon fill="#FFFFFF" filter="url(#f1r2xwvlwit3j7)" points="458.75,600,555,600,563.75,629.5117,1017.5,629.5117,1017.5,830,458.75,830,458.75,600" style="stroke:#000000;stroke-width:1.875;"/><line style="stroke:#000000;stroke-width:1.875;" x1="458.75" x2="563.75" y1="629.5117" y2="629.5117"/><text fill="#000000" font-family="sans-serif" font-size="17.5" font-weight="bold" lengthAdjust="spacing" textLength="88.75" x="463.75" y="620.6665">Controller</text><!--MD5=[c29634d7cdbe8f1c1e88f2fe66ae73ec]
cluster ThirdParty--><polygon fill="#FFFFFF" filter="url(#f1r2xwvlwit3j7)" points="2105,62.5,2201.25,62.5,2210,92.0117,2285,92.0117,2285,280,2105,280,2105,62.5" style="stroke:#000000;stroke-width:1.875;"/><line style="stroke:#000000;stroke-width:1.875;" x1="2105" x2="2210" y1="92.0117" y2="92.0117"/><text fill="#000000" font-family="sans-serif" font-size="17.5" font-weight="bold" lengthAdjust="spacing" textLength="88.75" x="2110" y="83.1665">ThirdParty</text><!--MD5=[0d079ae59d318396171bf167e6cb96b6]
cluster APIs--><polygon fill="#FFFFFF" filter="url(#f1r2xwvlwit3j7)" points="2135,117.5,2180,117.5,2188.75,147.0117,2255,147.0117,2255,250,2135,250,2135,117.5" style="stroke:#000000;stroke-width:1.875;"/><line style="stroke:#000000;stroke-width:1.875;" x1="2135" x2="2188.75" y1="147.0117" y2="147.0117"/><text fill="#000000" font-family="sans-serif" font-size="17.5" font-weight="bold" lengthAdjust="spacing" textLength="37.5" x="2140" y="138.1665">APIs</text><!--MD5=[9681dc6e01e10c6b4fe06895ae94f592]
cluster UI--><polygon fill="#FFFFFF" filter="url(#f1r2xwvlwit3j7)" points="20,607.5,45,607.5,53.75,637.0117,387.5,637.0117,387.5,797.5,20,797.5,20,607.5" style="stroke:#000000;stroke-width:1.875;"/><line style="stroke:#000000;stroke-width:1.875;" x1="20" x2="53.75" y1="637.0117" y2="637.0117"/><text fill="#000000" font-family="sans-serif" font-size="17.5" font-weight="bold" lengthAdjust="spacing" textLength="17.5" x="25" y="628.1665">UI</text><!--MD5=[b27c5c9af3cea12247b1c4c8d3c78770]
cluster GUI--><polygon fill="#FFFFFF" filter="url(#f1r2xwvlwit3j7)" points="50,662.5,88.75,662.5,97.5,692.0117,357.5,692.0117,357.5,767.5,50,767.5,50,662.5" style="stroke:#000000;stroke-width:1.875;"/><line style="stroke:#000000;stroke-width:1.875;" x1="50" x2="97.5" y1="692.0117" y2="692.0117"/><text fill="#000000" font-family="sans-serif" font-size="17.5" font-weight="bold" lengthAdjust="spacing" textLength="31.25" x="55" y="683.1665">GUI</text><!--MD5=[02e4b9b7573f1156f41e60aa5b4e25a4]
class Company--><rect codeLine="13" fill="#FEFECE" filter="url(#f1r2xwvlwit3j7)" height="146.4746" id="Company" style="stroke:#A80036;stroke-width:1.875;" width="152.5" x="2118.75" y="684.375"/><ellipse cx="2158.3125" cy="704.375" fill="#ADD1B2" rx="13.75" ry="13.75" style="stroke:#A80036;stroke-width:1.25;"/><path d="M2160.8125,700 Q2161.0664,699.375 2161.3594,699.0625 Q2161.6523,698.75 2161.9844,698.75 Q2162.5703,698.75 2162.9414,699.1016 Q2163.3125,699.4531 2163.3125,700.2734 L2163.3125,702.2266 Q2163.3125,703.0469 2162.9609,703.3984 Q2162.6094,703.75 2162.0625,703.75 Q2161.5742,703.75 2161.2617,703.5352 Q2160.9492,703.3203 2160.8125,702.7539 Q2160.7539,702.3633 2160.5391,702.1484 Q2160.1484,701.7383 2159.4453,701.5039 Q2158.7422,701.25 2158.0391,701.25 Q2157.1602,701.25 2156.418,701.6016 Q2155.6953,701.9531 2155.1289,702.7344 Q2154.5625,703.5156 2154.5625,704.5898 L2154.5625,705.7422 Q2154.5625,707.0313 2155.6172,707.8906 Q2156.6719,708.75 2158.5469,708.75 Q2159.6602,708.75 2160.4414,708.4961 Q2160.8906,708.3594 2161.3984,707.9102 Q2161.7305,707.6563 2161.9063,707.5781 Q2162.082,707.5 2162.2969,707.5 Q2162.707,707.5 2163,707.832 Q2163.3125,708.1445 2163.3125,708.5938 Q2163.3125,709.0234 2162.8828,709.5313 Q2162.2578,710.2734 2161.2617,710.6836 Q2159.9531,711.25 2158.3516,711.25 Q2156.4766,711.25 2154.9727,710.5078 Q2153.7617,709.9219 2152.9023,708.6523 Q2152.0625,707.3828 2152.0625,705.8789 L2152.0625,704.5117 Q2152.0625,702.9492 2152.8047,701.582 Q2153.5664,700.2148 2154.875,699.4922 Q2156.2031,698.75 2157.6875,698.75 Q2158.5859,698.75 2159.3672,699.0625 Q2160.1484,699.375 2160.8125,700 Z " fill="#000000"/><text fill="#000000" font-family="sans-serif" font-size="15" lengthAdjust="spacing" textLength="66.25" x="2180.4375" y="710.5127">Company</text><line style="stroke:#A80036;stroke-width:1.875;" x1="2120" x2="2270" y1="724.375" y2="724.375"/><text fill="#000000" font-family="sans-serif" font-size="13.75" lengthAdjust="spacing" textLength="112.5" x="2126.25" y="743.6487">-String designation</text><text fill="#000000" font-family="sans-serif" font-size="13.75" lengthAdjust="spacing" textLength="122.5" x="2126.25" y="760.9436">-TestStore testStore</text><text fill="#000000" font-family="sans-serif" font-size="13.75" lengthAdjust="spacing" textLength="137.5" x="2126.25" y="778.2385">-ClientStore clientStore</text><line style="stroke:#A80036;stroke-width:1.875;" x1="2120" x2="2270" y1="786.2598" y2="786.2598"/><text fill="#000000" font-family="sans-serif" font-size="13.75" lengthAdjust="spacing" textLength="95" x="2126.25" y="805.5334">+getTestStore()</text><text fill="#000000" font-family="sans-serif" font-size="13.75" lengthAdjust="spacing" textLength="101.25" x="2126.25" y="822.8284">+getClientStore()</text><!--MD5=[1dec90c14ec2ba3af2708f621be65d00]
class BruteForceAlgorithm--><rect codeLine="21" fill="#FEFECE" filter="url(#f1r2xwvlwit3j7)" height="67.2949" id="BruteForceAlgorithm" style="stroke:#A80036;stroke-width:1.875;" width="180" x="2105" y="572.5"/><ellipse cx="2123.75" cy="592.5" fill="#ADD1B2" rx="13.75" ry="13.75" style="stroke:#A80036;stroke-width:1.25;"/><path d="M2126.25,588.125 Q2126.5039,587.5 2126.7969,587.1875 Q2127.0898,586.875 2127.4219,586.875 Q2128.0078,586.875 2128.3789,587.2266 Q2128.75,587.5781 2128.75,588.3984 L2128.75,590.3516 Q2128.75,591.1719 2128.3984,591.5234 Q2128.0469,591.875 2127.5,591.875 Q2127.0117,591.875 2126.6992,591.6602 Q2126.3867,591.4453 2126.25,590.8789 Q2126.1914,590.4883 2125.9766,590.2734 Q2125.5859,589.8633 2124.8828,589.6289 Q2124.1797,589.375 2123.4766,589.375 Q2122.5977,589.375 2121.8555,589.7266 Q2121.1328,590.0781 2120.5664,590.8594 Q2120,591.6406 2120,592.7148 L2120,593.8672 Q2120,595.1563 2121.0547,596.0156 Q2122.1094,596.875 2123.9844,596.875 Q2125.0977,596.875 2125.8789,596.6211 Q2126.3281,596.4844 2126.8359,596.0352 Q2127.168,595.7813 2127.3438,595.7031 Q2127.5195,595.625 2127.7344,595.625 Q2128.1445,595.625 2128.4375,595.957 Q2128.75,596.2695 2128.75,596.7188 Q2128.75,597.1484 2128.3203,597.6563 Q2127.6953,598.3984 2126.6992,598.8086 Q2125.3906,599.375 2123.7891,599.375 Q2121.9141,599.375 2120.4102,598.6328 Q2119.1992,598.0469 2118.3398,596.7773 Q2117.5,595.5078 2117.5,594.0039 L2117.5,592.6367 Q2117.5,591.0742 2118.2422,589.707 Q2119.0039,588.3398 2120.3125,587.6172 Q2121.6406,586.875 2123.125,586.875 Q2124.0234,586.875 2124.8047,587.1875 Q2125.5859,587.5 2126.25,588.125 Z " fill="#000000"/><text fill="#000000" font-family="sans-serif" font-size="15" lengthAdjust="spacing" textLength="140" x="2141.25" y="598.6377">BruteForceAlgorithm</text><line style="stroke:#A80036;stroke-width:1.875;" x1="2106.25" x2="2283.75" y1="612.5" y2="612.5"/><text fill="#000000" font-family="sans-serif" font-size="13.75" lengthAdjust="spacing" textLength="65" x="2112.5" y="631.7737">+Max(seq)</text><!--MD5=[03e21a3a74a4ec725edc90da8949a6b4]
class SubMaxSumAlgorithms--><rect codeLine="29" fill="#FEFECE" filter="url(#f1r2xwvlwit3j7)" height="77.5293" id="SubMaxSumAlgorithms" style="stroke:#A80036;stroke-width:1.875;" width="202.5" x="1355.625" y="753.75"/><ellipse cx="1374.375" cy="778.8672" fill="#B4A7E5" rx="13.75" ry="13.75" style="stroke:#A80036;stroke-width:1.25;"/><path d="M1375.625,775.1172 L1375.625,782.6172 L1378.125,782.6172 L1378.7305,782.6172 L1379.375,783.3984 L1379.375,783.8672 L1379.375,784.3359 L1378.7305,785.1172 L1378.125,785.1172 L1370.625,785.1172 L1370.0195,785.1172 L1369.375,784.3359 L1369.375,783.8672 L1369.375,783.3984 L1370.0195,782.6172 L1370.625,782.6172 L1373.125,782.6172 L1373.125,775.1172 L1370.625,775.1172 L1370.0195,775.1172 L1369.375,774.3359 L1369.375,773.8672 L1369.375,773.3984 L1370.0195,772.6172 L1370.625,772.6172 L1378.125,772.6172 L1378.7305,772.6172 L1379.375,773.3984 L1379.375,773.8672 L1379.375,774.3359 L1378.7305,775.1172 L1378.125,775.1172 L1375.625,775.1172 Z " fill="#000000"/><text fill="#000000" font-family="sans-serif" font-size="15" font-style="italic" lengthAdjust="spacing" textLength="76.25" x="1435" y="775.5713">«interface»</text><text fill="#000000" font-family="sans-serif" font-size="15" font-style="italic" lengthAdjust="spacing" textLength="162.5" x="1391.875" y="794.4385">SubMaxSumAlgorithms</text><line style="stroke:#A80036;stroke-width:1.875;" x1="1356.875" x2="1556.875" y1="803.9844" y2="803.9844"/><text fill="#000000" font-family="sans-serif" font-size="13.75" lengthAdjust="spacing" textLength="158.75" x="1363.125" y="823.2581">+findSubMaxSum(interval)</text><!--MD5=[0f6f7964b844a64b0496af0dda7914bd]
class TestStore--><rect codeLine="37" fill="#FEFECE" filter="url(#f1r2xwvlwit3j7)" height="136.4746" id="TestStore" style="stroke:#A80036;stroke-width:1.875;" width="498.75" x="1207.5" y="521.875"/><ellipse cx="1418.4375" cy="541.875" fill="#ADD1B2" rx="13.75" ry="13.75" style="stroke:#A80036;stroke-width:1.25;"/><path d="M1420.9375,537.5 Q1421.1914,536.875 1421.4844,536.5625 Q1421.7773,536.25 1422.1094,536.25 Q1422.6953,536.25 1423.0664,536.6016 Q1423.4375,536.9531 1423.4375,537.7734 L1423.4375,539.7266 Q1423.4375,540.5469 1423.0859,540.8984 Q1422.7344,541.25 1422.1875,541.25 Q1421.6992,541.25 1421.3867,541.0352 Q1421.0742,540.8203 1420.9375,540.2539 Q1420.8789,539.8633 1420.6641,539.6484 Q1420.2734,539.2383 1419.5703,539.0039 Q1418.8672,538.75 1418.1641,538.75 Q1417.2852,538.75 1416.543,539.1016 Q1415.8203,539.4531 1415.2539,540.2344 Q1414.6875,541.0156 1414.6875,542.0898 L1414.6875,543.2422 Q1414.6875,544.5313 1415.7422,545.3906 Q1416.7969,546.25 1418.6719,546.25 Q1419.7852,546.25 1420.5664,545.9961 Q1421.0156,545.8594 1421.5234,545.4102 Q1421.8555,545.1563 1422.0313,545.0781 Q1422.207,545 1422.4219,545 Q1422.832,545 1423.125,545.332 Q1423.4375,545.6445 1423.4375,546.0938 Q1423.4375,546.5234 1423.0078,547.0313 Q1422.3828,547.7734 1421.3867,548.1836 Q1420.0781,548.75 1418.4766,548.75 Q1416.6016,548.75 1415.0977,548.0078 Q1413.8867,547.4219 1413.0273,546.1523 Q1412.1875,544.8828 1412.1875,543.3789 L1412.1875,542.0117 Q1412.1875,540.4492 1412.9297,539.082 Q1413.6914,537.7148 1415,536.9922 Q1416.3281,536.25 1417.8125,536.25 Q1418.7109,536.25 1419.4922,536.5625 Q1420.2734,536.875 1420.9375,537.5 Z " fill="#000000"/><text fill="#000000" font-family="sans-serif" font-size="15" lengthAdjust="spacing" textLength="66.25" x="1444.0625" y="548.0127">TestStore</text><line style="stroke:#A80036;stroke-width:1.875;" x1="1208.75" x2="1705" y1="561.875" y2="561.875"/><text fill="#000000" font-family="sans-serif" font-size="13.75" lengthAdjust="spacing" textLength="440" x="1215" y="581.1487">+getNumTestsWaitingForResultsDayOrInterval(beginningDay, endingDay)</text><text fill="#000000" font-family="sans-serif" font-size="13.75" lengthAdjust="spacing" textLength="453.75" x="1215" y="598.4436">+getNumTestsWaitingForDiagnosisDayOrInterval(beginningDay, endingDay)</text><text fill="#000000" font-family="sans-serif" font-size="13.75" lengthAdjust="spacing" textLength="428.75" x="1215" y="615.7385">+getNumTestsProcessedInLabDayOrInterval(beginningDay, endingDay)</text><text fill="#000000" font-family="sans-serif" font-size="13.75" lengthAdjust="spacing" textLength="483.75" x="1215" y="633.0334">+getNumberOfTestsByIntervalDateOfTestRegistration(beginningDay, endingDay)</text><text fill="#000000" font-family="sans-serif" font-size="13.75" lengthAdjust="spacing" textLength="445" x="1215" y="650.3284">+getNumberOfTestsByIntervalDateOfDiagnosis(beginningDay, endingDay)</text><!--MD5=[55cb992be19579b505cea3c5691093cb]
class ClientStore--><rect codeLine="45" fill="#FEFECE" filter="url(#f1r2xwvlwit3j7)" height="67.2949" id="ClientStore" style="stroke:#A80036;stroke-width:1.875;" width="116.25" x="1398.75" y="410"/><ellipse cx="1417.5" cy="430" fill="#ADD1B2" rx="13.75" ry="13.75" style="stroke:#A80036;stroke-width:1.25;"/><path d="M1420,425.625 Q1420.2539,425 1420.5469,424.6875 Q1420.8398,424.375 1421.1719,424.375 Q1421.7578,424.375 1422.1289,424.7266 Q1422.5,425.0781 1422.5,425.8984 L1422.5,427.8516 Q1422.5,428.6719 1422.1484,429.0234 Q1421.7969,429.375 1421.25,429.375 Q1420.7617,429.375 1420.4492,429.1602 Q1420.1367,428.9453 1420,428.3789 Q1419.9414,427.9883 1419.7266,427.7734 Q1419.3359,427.3633 1418.6328,427.1289 Q1417.9297,426.875 1417.2266,426.875 Q1416.3477,426.875 1415.6055,427.2266 Q1414.8828,427.5781 1414.3164,428.3594 Q1413.75,429.1406 1413.75,430.2148 L1413.75,431.3672 Q1413.75,432.6563 1414.8047,433.5156 Q1415.8594,434.375 1417.7344,434.375 Q1418.8477,434.375 1419.6289,434.1211 Q1420.0781,433.9844 1420.5859,433.5352 Q1420.918,433.2813 1421.0938,433.2031 Q1421.2695,433.125 1421.4844,433.125 Q1421.8945,433.125 1422.1875,433.457 Q1422.5,433.7695 1422.5,434.2188 Q1422.5,434.6484 1422.0703,435.1563 Q1421.4453,435.8984 1420.4492,436.3086 Q1419.1406,436.875 1417.5391,436.875 Q1415.6641,436.875 1414.1602,436.1328 Q1412.9492,435.5469 1412.0898,434.2773 Q1411.25,433.0078 1411.25,431.5039 L1411.25,430.1367 Q1411.25,428.5742 1411.9922,427.207 Q1412.7539,425.8398 1414.0625,425.1172 Q1415.3906,424.375 1416.875,424.375 Q1417.7734,424.375 1418.5547,424.6875 Q1419.3359,425 1420,425.625 Z " fill="#000000"/><text fill="#000000" font-family="sans-serif" font-size="15" lengthAdjust="spacing" textLength="76.25" x="1435" y="436.1377">ClientStore</text><line style="stroke:#A80036;stroke-width:1.875;" x1="1400" x2="1513.75" y1="450" y2="450"/><text fill="#000000" font-family="sans-serif" font-size="13.75" lengthAdjust="spacing" textLength="76.25" x="1406.25" y="469.2737">+getClients()</text><!--MD5=[f4a38599b97b911edb1e154f571cf5e4]
class BenchmarkAlgorithmAdapter--><rect codeLine="111" fill="#FEFECE" filter="url(#f1r2xwvlwit3j7)" height="67.2949" id="BenchmarkAlgorithmAdapter" style="stroke:#A80036;stroke-width:1.875;" width="236.25" x="1787.5" y="577.5"/><ellipse cx="1806.25" cy="597.5" fill="#ADD1B2" rx="13.75" ry="13.75" style="stroke:#A80036;stroke-width:1.25;"/><path d="M1808.75,593.125 Q1809.0039,592.5 1809.2969,592.1875 Q1809.5898,591.875 1809.9219,591.875 Q1810.5078,591.875 1810.8789,592.2266 Q1811.25,592.5781 1811.25,593.3984 L1811.25,595.3516 Q1811.25,596.1719 1810.8984,596.5234 Q1810.5469,596.875 1810,596.875 Q1809.5117,596.875 1809.1992,596.6602 Q1808.8867,596.4453 1808.75,595.8789 Q1808.6914,595.4883 1808.4766,595.2734 Q1808.0859,594.8633 1807.3828,594.6289 Q1806.6797,594.375 1805.9766,594.375 Q1805.0977,594.375 1804.3555,594.7266 Q1803.6328,595.0781 1803.0664,595.8594 Q1802.5,596.6406 1802.5,597.7148 L1802.5,598.8672 Q1802.5,600.1563 1803.5547,601.0156 Q1804.6094,601.875 1806.4844,601.875 Q1807.5977,601.875 1808.3789,601.6211 Q1808.8281,601.4844 1809.3359,601.0352 Q1809.668,600.7813 1809.8438,600.7031 Q1810.0195,600.625 1810.2344,600.625 Q1810.6445,600.625 1810.9375,600.957 Q1811.25,601.2695 1811.25,601.7188 Q1811.25,602.1484 1810.8203,602.6563 Q1810.1953,603.3984 1809.1992,603.8086 Q1807.8906,604.375 1806.2891,604.375 Q1804.4141,604.375 1802.9102,603.6328 Q1801.6992,603.0469 1800.8398,601.7773 Q1800,600.5078 1800,599.0039 L1800,597.6367 Q1800,596.0742 1800.7422,594.707 Q1801.5039,593.3398 1802.8125,592.6172 Q1804.1406,591.875 1805.625,591.875 Q1806.5234,591.875 1807.3047,592.1875 Q1808.0859,592.5 1808.75,593.125 Z " fill="#000000"/><text fill="#000000" font-family="sans-serif" font-size="15" lengthAdjust="spacing" textLength="196.25" x="1823.75" y="603.6377">BenchmarkAlgorithmAdapter</text><line style="stroke:#A80036;stroke-width:1.875;" x1="1788.75" x2="2022.5" y1="617.5" y2="617.5"/><text fill="#000000" font-family="sans-serif" font-size="13.75" lengthAdjust="spacing" textLength="158.75" x="1795" y="636.7737">+findSubMaxSum(interval)</text><!--MD5=[3d195b319a9e341286852cea89c88ec3]
class BruteForceAlgorithmAdapter--><rect codeLine="112" fill="#FEFECE" filter="url(#f1r2xwvlwit3j7)" height="67.2949" id="BruteForceAlgorithmAdapter" style="stroke:#A80036;stroke-width:1.875;" width="232.5" x="1789.375" y="688.75"/><ellipse cx="1808.125" cy="708.75" fill="#ADD1B2" rx="13.75" ry="13.75" style="stroke:#A80036;stroke-width:1.25;"/><path d="M1810.625,704.375 Q1810.8789,703.75 1811.1719,703.4375 Q1811.4648,703.125 1811.7969,703.125 Q1812.3828,703.125 1812.7539,703.4766 Q1813.125,703.8281 1813.125,704.6484 L1813.125,706.6016 Q1813.125,707.4219 1812.7734,707.7734 Q1812.4219,708.125 1811.875,708.125 Q1811.3867,708.125 1811.0742,707.9102 Q1810.7617,707.6953 1810.625,707.1289 Q1810.5664,706.7383 1810.3516,706.5234 Q1809.9609,706.1133 1809.2578,705.8789 Q1808.5547,705.625 1807.8516,705.625 Q1806.9727,705.625 1806.2305,705.9766 Q1805.5078,706.3281 1804.9414,707.1094 Q1804.375,707.8906 1804.375,708.9648 L1804.375,710.1172 Q1804.375,711.4063 1805.4297,712.2656 Q1806.4844,713.125 1808.3594,713.125 Q1809.4727,713.125 1810.2539,712.8711 Q1810.7031,712.7344 1811.2109,712.2852 Q1811.543,712.0313 1811.7188,711.9531 Q1811.8945,711.875 1812.1094,711.875 Q1812.5195,711.875 1812.8125,712.207 Q1813.125,712.5195 1813.125,712.9688 Q1813.125,713.3984 1812.6953,713.9063 Q1812.0703,714.6484 1811.0742,715.0586 Q1809.7656,715.625 1808.1641,715.625 Q1806.2891,715.625 1804.7852,714.8828 Q1803.5742,714.2969 1802.7148,713.0273 Q1801.875,711.7578 1801.875,710.2539 L1801.875,708.8867 Q1801.875,707.3242 1802.6172,705.957 Q1803.3789,704.5898 1804.6875,703.8672 Q1806.0156,703.125 1807.5,703.125 Q1808.3984,703.125 1809.1797,703.4375 Q1809.9609,703.75 1810.625,704.375 Z " fill="#000000"/><text fill="#000000" font-family="sans-serif" font-size="15" lengthAdjust="spacing" textLength="192.5" x="1825.625" y="714.8877">BruteForceAlgorithmAdapter</text><line style="stroke:#A80036;stroke-width:1.875;" x1="1790.625" x2="2020.625" y1="728.75" y2="728.75"/><text fill="#000000" font-family="sans-serif" font-size="13.75" lengthAdjust="spacing" textLength="158.75" x="1796.875" y="748.0237">+findSubMaxSum(interval)</text><!--MD5=[670275f839cd0f6ae295f6f439fd6034]
class CompanyPerformanceAnalysisController--><rect codeLine="67" fill="#FEFECE" filter="url(#f1r2xwvlwit3j7)" height="163.7695" id="CompanyPerformanceAnalysisController" style="stroke:#A80036;stroke-width:1.875;" width="518.75" x="478.75" y="645.625"/><ellipse cx="592.8125" cy="665.625" fill="#ADD1B2" rx="13.75" ry="13.75" style="stroke:#A80036;stroke-width:1.25;"/><path d="M595.3125,661.25 Q595.5664,660.625 595.8594,660.3125 Q596.1523,660 596.4844,660 Q597.0703,660 597.4414,660.3516 Q597.8125,660.7031 597.8125,661.5234 L597.8125,663.4766 Q597.8125,664.2969 597.4609,664.6484 Q597.1094,665 596.5625,665 Q596.0742,665 595.7617,664.7852 Q595.4492,664.5703 595.3125,664.0039 Q595.2539,663.6133 595.0391,663.3984 Q594.6484,662.9883 593.9453,662.7539 Q593.2422,662.5 592.5391,662.5 Q591.6602,662.5 590.918,662.8516 Q590.1953,663.2031 589.6289,663.9844 Q589.0625,664.7656 589.0625,665.8398 L589.0625,666.9922 Q589.0625,668.2813 590.1172,669.1406 Q591.1719,670 593.0469,670 Q594.1602,670 594.9414,669.7461 Q595.3906,669.6094 595.8984,669.1602 Q596.2305,668.9063 596.4063,668.8281 Q596.582,668.75 596.7969,668.75 Q597.207,668.75 597.5,669.082 Q597.8125,669.3945 597.8125,669.8438 Q597.8125,670.2734 597.3828,670.7813 Q596.7578,671.5234 595.7617,671.9336 Q594.4531,672.5 592.8516,672.5 Q590.9766,672.5 589.4727,671.7578 Q588.2617,671.1719 587.4023,669.9023 Q586.5625,668.6328 586.5625,667.1289 L586.5625,665.7617 Q586.5625,664.1992 587.3047,662.832 Q588.0664,661.4648 589.375,660.7422 Q590.7031,660 592.1875,660 Q593.0859,660 593.8672,660.3125 Q594.6484,660.625 595.3125,661.25 Z " fill="#000000"/><text fill="#000000" font-family="sans-serif" font-size="15" lengthAdjust="spacing" textLength="280" x="618.4375" y="671.7627">CompanyPerformanceAnalysisController</text><line style="stroke:#A80036;stroke-width:1.875;" x1="480" x2="996.25" y1="685.625" y2="685.625"/><text fill="#000000" font-family="sans-serif" font-size="13.75" lengthAdjust="spacing" textLength="120" x="486.25" y="704.8987">-Company company</text><line style="stroke:#A80036;stroke-width:1.875;" x1="480" x2="996.25" y1="712.9199" y2="712.9199"/><text fill="#000000" font-family="sans-serif" font-size="13.75" lengthAdjust="spacing" textLength="102.5" x="486.25" y="732.1936">+getNumClients()</text><text fill="#000000" font-family="sans-serif" font-size="13.75" lengthAdjust="spacing" textLength="320" x="486.25" y="749.4885">+getTestInfoDayOrInterval(beginningDay, endingDay)</text><text fill="#000000" font-family="sans-serif" font-size="13.75" lengthAdjust="spacing" textLength="280" x="486.25" y="766.7834">+makeIntervalArray(beginningDay, endingDay)</text><text fill="#000000" font-family="sans-serif" font-size="13.75" lengthAdjust="spacing" textLength="503.75" x="486.25" y="784.0784">+findWorstSubIntWithChosenAlgorithm(beginningDay, endingDay, chosenAlgorithm)</text><text fill="#000000" font-family="sans-serif" font-size="13.75" lengthAdjust="spacing" textLength="288.75" x="486.25" y="801.3733">+getChosenAlgorithmAdapter(chosenAlgorithm)</text><!--MD5=[bbc84d1aa0e7f30bd67b3f6e81f0f299]
class Sum--><rect codeLine="82" fill="#FEFECE" filter="url(#f1r2xwvlwit3j7)" height="67.2949" id="Sum" style="stroke:#A80036;stroke-width:1.875;" width="80" x="2155" y="162.5"/><ellipse cx="2177.125" cy="182.5" fill="#ADD1B2" rx="13.75" ry="13.75" style="stroke:#A80036;stroke-width:1.25;"/><path d="M2179.625,178.125 Q2179.8789,177.5 2180.1719,177.1875 Q2180.4648,176.875 2180.7969,176.875 Q2181.3828,176.875 2181.7539,177.2266 Q2182.125,177.5781 2182.125,178.3984 L2182.125,180.3516 Q2182.125,181.1719 2181.7734,181.5234 Q2181.4219,181.875 2180.875,181.875 Q2180.3867,181.875 2180.0742,181.6602 Q2179.7617,181.4453 2179.625,180.8789 Q2179.5664,180.4883 2179.3516,180.2734 Q2178.9609,179.8633 2178.2578,179.6289 Q2177.5547,179.375 2176.8516,179.375 Q2175.9727,179.375 2175.2305,179.7266 Q2174.5078,180.0781 2173.9414,180.8594 Q2173.375,181.6406 2173.375,182.7148 L2173.375,183.8672 Q2173.375,185.1563 2174.4297,186.0156 Q2175.4844,186.875 2177.3594,186.875 Q2178.4727,186.875 2179.2539,186.6211 Q2179.7031,186.4844 2180.2109,186.0352 Q2180.543,185.7813 2180.7188,185.7031 Q2180.8945,185.625 2181.1094,185.625 Q2181.5195,185.625 2181.8125,185.957 Q2182.125,186.2695 2182.125,186.7188 Q2182.125,187.1484 2181.6953,187.6563 Q2181.0703,188.3984 2180.0742,188.8086 Q2178.7656,189.375 2177.1641,189.375 Q2175.2891,189.375 2173.7852,188.6328 Q2172.5742,188.0469 2171.7148,186.7773 Q2170.875,185.5078 2170.875,184.0039 L2170.875,182.6367 Q2170.875,181.0742 2171.6172,179.707 Q2172.3789,178.3398 2173.6875,177.6172 Q2175.0156,176.875 2176.5,176.875 Q2177.3984,176.875 2178.1797,177.1875 Q2178.9609,177.5 2179.625,178.125 Z " fill="#000000"/><text fill="#000000" font-family="sans-serif" font-size="15" lengthAdjust="spacing" textLength="32.5" x="2195.375" y="188.6377">Sum</text><line style="stroke:#A80036;stroke-width:1.875;" x1="2156.25" x2="2233.75" y1="202.5" y2="202.5"/><text fill="#000000" font-family="sans-serif" font-size="13.75" lengthAdjust="spacing" textLength="65" x="2162.5" y="221.7737">+Max(seq)</text><!--MD5=[3404723274ca4ec774b8d2f7e379376f]
class CompanyPerformanceAnalysisUI--><rect codeLine="96" fill="#FEFECE" filter="url(#f1r2xwvlwit3j7)" height="40" id="CompanyPerformanceAnalysisUI" style="stroke:#A80036;stroke-width:1.875;" width="267.5" x="70" y="707.5"/><ellipse cx="88.75" cy="727.5" fill="#ADD1B2" rx="13.75" ry="13.75" style="stroke:#A80036;stroke-width:1.25;"/><path d="M91.25,723.125 Q91.5039,722.5 91.7969,722.1875 Q92.0898,721.875 92.4219,721.875 Q93.0078,721.875 93.3789,722.2266 Q93.75,722.5781 93.75,723.3984 L93.75,725.3516 Q93.75,726.1719 93.3984,726.5234 Q93.0469,726.875 92.5,726.875 Q92.0117,726.875 91.6992,726.6602 Q91.3867,726.4453 91.25,725.8789 Q91.1914,725.4883 90.9766,725.2734 Q90.5859,724.8633 89.8828,724.6289 Q89.1797,724.375 88.4766,724.375 Q87.5977,724.375 86.8555,724.7266 Q86.1328,725.0781 85.5664,725.8594 Q85,726.6406 85,727.7148 L85,728.8672 Q85,730.1563 86.0547,731.0156 Q87.1094,731.875 88.9844,731.875 Q90.0977,731.875 90.8789,731.6211 Q91.3281,731.4844 91.8359,731.0352 Q92.168,730.7813 92.3438,730.7031 Q92.5195,730.625 92.7344,730.625 Q93.1445,730.625 93.4375,730.957 Q93.75,731.2695 93.75,731.7188 Q93.75,732.1484 93.3203,732.6563 Q92.6953,733.3984 91.6992,733.8086 Q90.3906,734.375 88.7891,734.375 Q86.9141,734.375 85.4102,733.6328 Q84.1992,733.0469 83.3398,731.7773 Q82.5,730.5078 82.5,729.0039 L82.5,727.6367 Q82.5,726.0742 83.2422,724.707 Q84.0039,723.3398 85.3125,722.6172 Q86.6406,721.875 88.125,721.875 Q89.0234,721.875 89.8047,722.1875 Q90.5859,722.5 91.25,723.125 Z " fill="#000000"/><text fill="#000000" font-family="sans-serif" font-size="15" lengthAdjust="spacing" textLength="227.5" x="106.25" y="733.6377">CompanyPerformanceAnalysisUI</text><!--MD5=[5b29af9deb3324aeb9c231daa5002dba]
link CompanyPerformanceAnalysisUI to CompanyPerformanceAnalysisController--><path codeLine="103" d="M337.5,727.5 C378.575,727.5 425.3875,727.5 472.15,727.5 " fill="none" id="CompanyPerformanceAnalysisUI-to-CompanyPerformanceAnalysisController" style="stroke:#A80036;stroke-width:1.25;stroke-dasharray:7.0,7.0;"/><polygon fill="#A80036" points="478.4375,727.5,467.1875,722.5,472.1875,727.5,467.1875,732.5,478.4375,727.5" style="stroke:#A80036;stroke-width:1.25;"/><!--MD5=[5ce4db4ce32c27ecea6aaa74e26a0164]
link CompanyPerformanceAnalysisController to Company--><path codeLine="104" d="M967.075,809.4375 C1025.15,826.7375 1087.9875,842.425 1147.5,851.25 C1406.3375,889.625 1475.9125,877.65 1736.25,851.25 C1869.375,837.75 2021,802.6875 2111.9375,779.4875 " fill="none" id="CompanyPerformanceAnalysisController-to-Company" style="stroke:#A80036;stroke-width:1.25;stroke-dasharray:7.0,7.0;"/><polygon fill="#A80036" points="2118.3875,777.8375,2106.2477,775.791,2112.3337,779.3911,2108.7335,785.4771,2118.3875,777.8375" style="stroke:#A80036;stroke-width:1.25;"/><!--MD5=[556445e2a8ca4c0c6a33a05341a7825e]
link CompanyPerformanceAnalysisController to ClientStore--><path codeLine="105" d="M861.6,645.375 C940.1625,596.2 1046.1375,536.375 1147.5,500 C1229.15,470.7 1328.6875,456.075 1392.1125,449.2125 " fill="none" id="CompanyPerformanceAnalysisController-to-ClientStore" style="stroke:#A80036;stroke-width:1.25;stroke-dasharray:7.0,7.0;"/><polygon fill="#A80036" points="1398.5125,448.5375,1386.7969,444.7549,1392.2975,449.1983,1387.8542,454.6989,1398.5125,448.5375" style="stroke:#A80036;stroke-width:1.25;"/><!--MD5=[d03b593c12afa5f3c42671c11d6ed63b]
link CompanyPerformanceAnalysisController to TestStore--><path codeLine="106" d="M997.9625,677.8625 C1063.95,665.1875 1134.8375,651.5875 1200.65,638.95 " fill="none" id="CompanyPerformanceAnalysisController-to-TestStore" style="stroke:#A80036;stroke-width:1.25;stroke-dasharray:7.0,7.0;"/><polygon fill="#A80036" points="1207,637.725,1195.0079,634.9408,1200.8626,638.906,1196.8974,644.7607,1207,637.725" style="stroke:#A80036;stroke-width:1.25;"/><!--MD5=[1f5b511532344f36d5811b87494f5882]
link CompanyPerformanceAnalysisController to SubMaxSumAlgorithms--><path codeLine="107" d="M997.9625,750.9625 C1118.875,761.9375 1256.2375,774.4 1348.6625,782.7875 " fill="none" id="CompanyPerformanceAnalysisController-to-SubMaxSumAlgorithms" style="stroke:#A80036;stroke-width:1.25;"/><polygon fill="#A80036" points="1355.2375,783.3875,1344.4755,777.409,1349.0122,782.8329,1343.5882,787.3696,1355.2375,783.3875" style="stroke:#A80036;stroke-width:1.25;"/><text fill="#000000" font-family="sans-serif" font-size="16.25" lengthAdjust="spacing" textLength="97.5" x="1038.75" y="751.8689">makes use of</text><text fill="#000000" font-family="sans-serif" font-size="16.25" lengthAdjust="spacing" textLength="8.75" x="1007.4576" y="769.0415">1</text><text fill="#000000" font-family="sans-serif" font-size="16.25" lengthAdjust="spacing" textLength="8.75" x="1336.7145" y="800.3571">1</text><!--MD5=[6926410afba6dbb7662f77bf9a4beef8]
link BenchmarkAlgorithmAdapter to Sum--><path codeLine="108" d="M1930.35,577.2875 C1983.125,500.95 2110.85,316.175 2166.775,235.275 " fill="none" id="BenchmarkAlgorithmAdapter-to-Sum" style="stroke:#A80036;stroke-width:1.25;"/><polygon fill="#A80036" points="2170.35,230.1,2159.8412,236.5131,2166.7971,235.2419,2168.0683,242.1978,2170.35,230.1" style="stroke:#A80036;stroke-width:1.25;"/><!--MD5=[5c0b00d376c45fe49ede70ccf937dd89]
link BruteForceAlgorithmAdapter to BruteForceAlgorithm--><path codeLine="109" d="M1996.8,688.7 C2015.675,681.425 2035.4,673.6875 2053.75,666.25 C2072.025,658.8375 2091.525,650.65 2110,642.775 " fill="none" id="BruteForceAlgorithmAdapter-to-BruteForceAlgorithm" style="stroke:#A80036;stroke-width:1.25;"/><polygon fill="#A80036" points="2116.225,640.1125,2103.915,639.9484,2110.4803,642.5745,2107.8542,649.1398,2116.225,640.1125" style="stroke:#A80036;stroke-width:1.25;"/><!--MD5=[7500d493c54aadfc564551571970942a]
reverse link SubMaxSumAlgorithms to BenchmarkAlgorithmAdapter--><path d="M1581.7625,746.35 C1630.5875,726.9875 1686.7375,703.275 1736.25,678.75 C1746.0625,673.8875 1747.6125,670.9625 1757.5,666.25 C1773.1,658.8125 1790.0125,651.675 1806.6,645.15 " fill="none" id="SubMaxSumAlgorithms-backto-BenchmarkAlgorithmAdapter" style="stroke:#A80036;stroke-width:1.25;stroke-dasharray:7.0,7.0;"/><polygon fill="none" points="1584.9125,754.5125,1558.45,755.4875,1578.525,738.2125,1584.9125,754.5125" style="stroke:#A80036;stroke-width:1.25;"/><!--MD5=[2746a4793daa6de3b91732e823f67982]
reverse link SubMaxSumAlgorithms to BruteForceAlgorithmAdapter--><path d="M1583.2125,772.875 C1647.8125,762.75 1726.0875,750.4625 1789.2,740.5625 " fill="none" id="SubMaxSumAlgorithms-backto-BruteForceAlgorithmAdapter" style="stroke:#A80036;stroke-width:1.25;stroke-dasharray:7.0,7.0;"/><polygon fill="none" points="1584.325,781.5625,1558.275,776.7875,1581.6125,764.275,1584.325,781.5625" style="stroke:#A80036;stroke-width:1.25;"/><!--MD5=[3ea633c4068c590f3251a26b86a194e6]
@startuml
'skinparam linetype ortho
hide empty methods
hide empty attributes
left to right direction
skinparam classAttributeIconSize 0

package Core{

package Domain {

package Model{

class Company {
    -String designation
    -TestStore testStore
    -ClientStore clientStore
    +getTestStore()
    +getClientStore()
}

class BruteForceAlgorithm{
    +Max(seq)
}

}

package Interfaces {

interface SubMaxSumAlgorithms <<interface>> {
    +findSubMaxSum(interval)
}

}

package Store {

class TestStore {
    +getNumTestsWaitingForResultsDayOrInterval(beginningDay, endingDay)
    +getNumTestsWaitingForDiagnosisDayOrInterval(beginningDay, endingDay)
    +getNumTestsProcessedInLabDayOrInterval(beginningDay, endingDay)
    +getNumberOfTestsByIntervalDateOfTestRegistration(beginningDay, endingDay)
    +getNumberOfTestsByIntervalDateOfDiagnosis(beginningDay, endingDay)
}

class ClientStore {
    +getClients()
}

}

package Adapters{

class BenchmarkAlgorithmAdapter{
    +findSubMaxSum(interval)
}

class BruteForceAlgorithmAdapter{
    +findSubMaxSum(interval)
}

}

}

package Controller {

class CompanyPerformanceAnalysisController{
    -Company company
    +getNumClients()
    +getTestInfoDayOrInterval(beginningDay, endingDay)
    +makeIntervalArray(beginningDay, endingDay)
    +findWorstSubIntWithChosenAlgorithm(beginningDay, endingDay, chosenAlgorithm)
    +getChosenAlgorithmAdapter(chosenAlgorithm)
}

}

package ThirdParty{

package APIs {

class Sum{
    +Max(seq)
}

}

}

}

package UI {

package GUI{

class CompanyPerformanceAnalysisUI{
}

}

}

CompanyPerformanceAnalysisUI ..> CompanyPerformanceAnalysisController
CompanyPerformanceAnalysisController ..> Company
CompanyPerformanceAnalysisController ..> ClientStore
CompanyPerformanceAnalysisController ..> TestStore
CompanyPerformanceAnalysisController "1" - -> "1" SubMaxSumAlgorithms : makes use of
BenchmarkAlgorithmAdapter - -> Sum
BruteForceAlgorithmAdapter - -> BruteForceAlgorithm

class BenchmarkAlgorithmAdapter implements SubMaxSumAlgorithms
class BruteForceAlgorithmAdapter implements SubMaxSumAlgorithms

@enduml

@startuml
hide empty methods
hide empty attributes
left to right direction
skinparam classAttributeIconSize 0

package Core{

package Domain {

package Model{

class Company {
    -String designation
    -TestStore testStore
    -ClientStore clientStore
    +getTestStore()
    +getClientStore()
}

class BruteForceAlgorithm{
    +Max(seq)
}

}

package Interfaces {

interface SubMaxSumAlgorithms <<interface>> {
    +findSubMaxSum(interval)
}

}

package Store {

class TestStore {
    +getNumTestsWaitingForResultsDayOrInterval(beginningDay, endingDay)
    +getNumTestsWaitingForDiagnosisDayOrInterval(beginningDay, endingDay)
    +getNumTestsProcessedInLabDayOrInterval(beginningDay, endingDay)
    +getNumberOfTestsByIntervalDateOfTestRegistration(beginningDay, endingDay)
    +getNumberOfTestsByIntervalDateOfDiagnosis(beginningDay, endingDay)
}

class ClientStore {
    +getClients()
}

}

package Adapters{

class BenchmarkAlgorithmAdapter{
    +findSubMaxSum(interval)
}

class BruteForceAlgorithmAdapter{
    +findSubMaxSum(interval)
}

}

}

package Controller {

class CompanyPerformanceAnalysisController{
    -Company company
    +getNumClients()
    +getTestInfoDayOrInterval(beginningDay, endingDay)
    +makeIntervalArray(beginningDay, endingDay)
    +findWorstSubIntWithChosenAlgorithm(beginningDay, endingDay, chosenAlgorithm)
    +getChosenAlgorithmAdapter(chosenAlgorithm)
}

}

package ThirdParty{

package APIs {

class Sum{
    +Max(seq)
}

}

}

}

package UI {

package GUI{

class CompanyPerformanceAnalysisUI{
}

}

}

CompanyPerformanceAnalysisUI ..> CompanyPerformanceAnalysisController
CompanyPerformanceAnalysisController ..> Company
CompanyPerformanceAnalysisController ..> ClientStore
CompanyPerformanceAnalysisController ..> TestStore
CompanyPerformanceAnalysisController "1" - -> "1" SubMaxSumAlgorithms : makes use of
BenchmarkAlgorithmAdapter - -> Sum
BruteForceAlgorithmAdapter - -> BruteForceAlgorithm

class BenchmarkAlgorithmAdapter implements SubMaxSumAlgorithms
class BruteForceAlgorithmAdapter implements SubMaxSumAlgorithms

@enduml

PlantUML version 1.2021.7(Sun May 23 13:40:07 BST 2021)
(GPL source distribution)
Java Runtime: OpenJDK Runtime Environment
JVM: Dynamic Code Evolution 64-Bit Server VM
Default Encoding: Cp1252
Language: pt
Country: PT
--></g></svg>