<?xml version="1.0" encoding="UTF-8" standalone="no"?><svg xmlns="http://www.w3.org/2000/svg" xmlns:xlink="http://www.w3.org/1999/xlink" contentScriptType="application/ecmascript" contentStyleType="text/css" height="397.5px" preserveAspectRatio="none" style="width:3361px;height:397px;background:#FFFFFF;" version="1.1" viewBox="0 0 3361 397" width="3361.25px" zoomAndPan="magnify"><defs><filter height="300%" id="f1gizhdiklt8y7" width="300%" x="-1" y="-1"><feGaussianBlur result="blurOut" stdDeviation="2.5"/><feColorMatrix in="blurOut" result="blurOut2" type="matrix" values="0 0 0 0 0 0 0 0 0 0 0 0 0 0 0 0 0 0 .4 0"/><feOffset dx="5.0" dy="5.0" in="blurOut2" result="blurOut3"/><feBlend in="SourceGraphic" in2="blurOut3" mode="normal"/></filter></defs><g><!--MD5=[2c2e2644034c00788261e03c85b06837]
cluster Core--><polygon fill="#FFFFFF" filter="url(#f1gizhdiklt8y7)" points="20,7.5,70,7.5,78.75,37.0117,2942.5,37.0117,2942.5,388.75,20,388.75,20,7.5" style="stroke:#000000;stroke-width:1.875;"/><line style="stroke:#000000;stroke-width:1.875;" x1="20" x2="78.75" y1="37.0117" y2="37.0117"/><text fill="#000000" font-family="sans-serif" font-size="17.5" font-weight="bold" lengthAdjust="spacing" textLength="42.5" x="25" y="28.1665">Core</text><!--MD5=[121a8bf1197281ab89ed693fab589f94]
cluster Domain--><polygon fill="#FFFFFF" filter="url(#f1gizhdiklt8y7)" points="850,62.5,922.5,62.5,931.25,92.0117,2912.5,92.0117,2912.5,358.75,850,358.75,850,62.5" style="stroke:#000000;stroke-width:1.875;"/><line style="stroke:#000000;stroke-width:1.875;" x1="850" x2="931.25" y1="92.0117" y2="92.0117"/><text fill="#000000" font-family="sans-serif" font-size="17.5" font-weight="bold" lengthAdjust="spacing" textLength="65" x="855" y="83.1665">Domain</text><!--MD5=[15636c1ca4a123c16a2a1a8e90aca7a9]
cluster Model--><polygon fill="#FFFFFF" filter="url(#f1gizhdiklt8y7)" points="2466.25,117.5,2528.75,117.5,2537.5,147.0117,2882.5,147.0117,2882.5,328.75,2466.25,328.75,2466.25,117.5" style="stroke:#000000;stroke-width:1.875;"/><line style="stroke:#000000;stroke-width:1.875;" x1="2466.25" x2="2537.5" y1="147.0117" y2="147.0117"/><text fill="#000000" font-family="sans-serif" font-size="17.5" font-weight="bold" lengthAdjust="spacing" textLength="55" x="2471.25" y="138.1665">Model</text><!--MD5=[0b89f7d34c26fffbb81ea7301eb9df33]
cluster Interfaces--><polygon fill="#FFFFFF" filter="url(#f1gizhdiklt8y7)" points="2193.75,151.875,2290,151.875,2298.75,181.3867,2436.25,181.3867,2436.25,294.375,2193.75,294.375,2193.75,151.875" style="stroke:#000000;stroke-width:1.875;"/><line style="stroke:#000000;stroke-width:1.875;" x1="2193.75" x2="2298.75" y1="181.3867" y2="181.3867"/><text fill="#000000" font-family="sans-serif" font-size="17.5" font-weight="bold" lengthAdjust="spacing" textLength="88.75" x="2198.75" y="172.5415">Interfaces</text><!--MD5=[7ce1723ddb6e6233854253973eae5a71]
cluster Store--><polygon fill="#FFFFFF" filter="url(#f1gizhdiklt8y7)" points="1463.75,122.5,1518.75,122.5,1527.5,152.0117,2163.75,152.0117,2163.75,323.75,1463.75,323.75,1463.75,122.5" style="stroke:#000000;stroke-width:1.875;"/><line style="stroke:#000000;stroke-width:1.875;" x1="1463.75" x2="1527.5" y1="152.0117" y2="152.0117"/><text fill="#000000" font-family="sans-serif" font-size="17.5" font-weight="bold" lengthAdjust="spacing" textLength="47.5" x="1468.75" y="143.1665">Store</text><!--MD5=[aedc30b8666742a3000193d7e0a0b93e]
cluster Adapters--><polygon fill="#FFFFFF" filter="url(#f1gizhdiklt8y7)" points="880,156.875,966.25,156.875,975,186.3867,1433.75,186.3867,1433.75,289.375,880,289.375,880,156.875" style="stroke:#000000;stroke-width:1.875;"/><line style="stroke:#000000;stroke-width:1.875;" x1="880" x2="975" y1="186.3867" y2="186.3867"/><text fill="#000000" font-family="sans-serif" font-size="17.5" font-weight="bold" lengthAdjust="spacing" textLength="78.75" x="885" y="177.5415">Adapters</text><!--MD5=[1f2cfc53d9d308f53762fd0fcbaa4873]
cluster Controller--><polygon fill="#FFFFFF" filter="url(#f1gizhdiklt8y7)" points="260,108.75,356.25,108.75,365,138.2617,820,138.2617,820,337.5,260,337.5,260,108.75" style="stroke:#000000;stroke-width:1.875;"/><line style="stroke:#000000;stroke-width:1.875;" x1="260" x2="365" y1="138.2617" y2="138.2617"/><text fill="#000000" font-family="sans-serif" font-size="17.5" font-weight="bold" lengthAdjust="spacing" textLength="88.75" x="265" y="129.4165">Controller</text><!--MD5=[c29634d7cdbe8f1c1e88f2fe66ae73ec]
cluster ThirdParty--><polygon fill="#FFFFFF" filter="url(#f1gizhdiklt8y7)" points="50,101.875,146.25,101.875,155,131.3867,230,131.3867,230,319.375,50,319.375,50,101.875" style="stroke:#000000;stroke-width:1.875;"/><line style="stroke:#000000;stroke-width:1.875;" x1="50" x2="155" y1="131.3867" y2="131.3867"/><text fill="#000000" font-family="sans-serif" font-size="17.5" font-weight="bold" lengthAdjust="spacing" textLength="88.75" x="55" y="122.5415">ThirdParty</text><!--MD5=[0d079ae59d318396171bf167e6cb96b6]
cluster APIs--><polygon fill="#FFFFFF" filter="url(#f1gizhdiklt8y7)" points="80,156.875,125,156.875,133.75,186.3867,200,186.3867,200,289.375,80,289.375,80,156.875" style="stroke:#000000;stroke-width:1.875;"/><line style="stroke:#000000;stroke-width:1.875;" x1="80" x2="133.75" y1="186.3867" y2="186.3867"/><text fill="#000000" font-family="sans-serif" font-size="17.5" font-weight="bold" lengthAdjust="spacing" textLength="37.5" x="85" y="177.5415">APIs</text><!--MD5=[9681dc6e01e10c6b4fe06895ae94f592]
cluster UI--><polygon fill="#FFFFFF" filter="url(#f1gizhdiklt8y7)" points="2972.5,115.625,2997.5,115.625,3006.25,145.1367,3340,145.1367,3340,305.625,2972.5,305.625,2972.5,115.625" style="stroke:#000000;stroke-width:1.875;"/><line style="stroke:#000000;stroke-width:1.875;" x1="2972.5" x2="3006.25" y1="145.1367" y2="145.1367"/><text fill="#000000" font-family="sans-serif" font-size="17.5" font-weight="bold" lengthAdjust="spacing" textLength="17.5" x="2977.5" y="136.2915">UI</text><!--MD5=[b27c5c9af3cea12247b1c4c8d3c78770]
cluster GUI--><polygon fill="#FFFFFF" filter="url(#f1gizhdiklt8y7)" points="3002.5,170.625,3041.25,170.625,3050,200.1367,3310,200.1367,3310,275.625,3002.5,275.625,3002.5,170.625" style="stroke:#000000;stroke-width:1.875;"/><line style="stroke:#000000;stroke-width:1.875;" x1="3002.5" x2="3050" y1="200.1367" y2="200.1367"/><text fill="#000000" font-family="sans-serif" font-size="17.5" font-weight="bold" lengthAdjust="spacing" textLength="31.25" x="3007.5" y="191.2915">GUI</text><!--MD5=[02e4b9b7573f1156f41e60aa5b4e25a4]
class Company--><rect codeLine="13" fill="#FEFECE" filter="url(#f1gizhdiklt8y7)" height="146.4746" id="Company" style="stroke:#A80036;stroke-width:1.875;" width="152.5" x="2710" y="162.5"/><ellipse cx="2749.5625" cy="182.5" fill="#ADD1B2" rx="13.75" ry="13.75" style="stroke:#A80036;stroke-width:1.25;"/><path d="M2752.0625,178.125 Q2752.3164,177.5 2752.6094,177.1875 Q2752.9023,176.875 2753.2344,176.875 Q2753.8203,176.875 2754.1914,177.2266 Q2754.5625,177.5781 2754.5625,178.3984 L2754.5625,180.3516 Q2754.5625,181.1719 2754.2109,181.5234 Q2753.8594,181.875 2753.3125,181.875 Q2752.8242,181.875 2752.5117,181.6602 Q2752.1992,181.4453 2752.0625,180.8789 Q2752.0039,180.4883 2751.7891,180.2734 Q2751.3984,179.8633 2750.6953,179.6289 Q2749.9922,179.375 2749.2891,179.375 Q2748.4102,179.375 2747.668,179.7266 Q2746.9453,180.0781 2746.3789,180.8594 Q2745.8125,181.6406 2745.8125,182.7148 L2745.8125,183.8672 Q2745.8125,185.1563 2746.8672,186.0156 Q2747.9219,186.875 2749.7969,186.875 Q2750.9102,186.875 2751.6914,186.6211 Q2752.1406,186.4844 2752.6484,186.0352 Q2752.9805,185.7813 2753.1563,185.7031 Q2753.332,185.625 2753.5469,185.625 Q2753.957,185.625 2754.25,185.957 Q2754.5625,186.2695 2754.5625,186.7188 Q2754.5625,187.1484 2754.1328,187.6563 Q2753.5078,188.3984 2752.5117,188.8086 Q2751.2031,189.375 2749.6016,189.375 Q2747.7266,189.375 2746.2227,188.6328 Q2745.0117,188.0469 2744.1523,186.7773 Q2743.3125,185.5078 2743.3125,184.0039 L2743.3125,182.6367 Q2743.3125,181.0742 2744.0547,179.707 Q2744.8164,178.3398 2746.125,177.6172 Q2747.4531,176.875 2748.9375,176.875 Q2749.8359,176.875 2750.6172,177.1875 Q2751.3984,177.5 2752.0625,178.125 Z " fill="#000000"/><text fill="#000000" font-family="sans-serif" font-size="15" lengthAdjust="spacing" textLength="66.25" x="2771.6875" y="188.6377">Company</text><line style="stroke:#A80036;stroke-width:1.875;" x1="2711.25" x2="2861.25" y1="202.5" y2="202.5"/><text fill="#000000" font-family="sans-serif" font-size="13.75" lengthAdjust="spacing" textLength="112.5" x="2717.5" y="221.7737">-String designation</text><text fill="#000000" font-family="sans-serif" font-size="13.75" lengthAdjust="spacing" textLength="122.5" x="2717.5" y="239.0686">-TestStore testStore</text><text fill="#000000" font-family="sans-serif" font-size="13.75" lengthAdjust="spacing" textLength="137.5" x="2717.5" y="256.3635">-ClientStore clientStore</text><line style="stroke:#A80036;stroke-width:1.875;" x1="2711.25" x2="2861.25" y1="264.3848" y2="264.3848"/><text fill="#000000" font-family="sans-serif" font-size="13.75" lengthAdjust="spacing" textLength="95" x="2717.5" y="283.6584">+getTestStore()</text><text fill="#000000" font-family="sans-serif" font-size="13.75" lengthAdjust="spacing" textLength="101.25" x="2717.5" y="300.9534">+getClientStore()</text><!--MD5=[1dec90c14ec2ba3af2708f621be65d00]
class BruteForceAlgorithm--><rect codeLine="21" fill="#FEFECE" filter="url(#f1gizhdiklt8y7)" height="67.2949" id="BruteForceAlgorithm" style="stroke:#A80036;stroke-width:1.875;" width="180" x="2486.25" y="201.875"/><ellipse cx="2505" cy="221.875" fill="#ADD1B2" rx="13.75" ry="13.75" style="stroke:#A80036;stroke-width:1.25;"/><path d="M2507.5,217.5 Q2507.7539,216.875 2508.0469,216.5625 Q2508.3398,216.25 2508.6719,216.25 Q2509.2578,216.25 2509.6289,216.6016 Q2510,216.9531 2510,217.7734 L2510,219.7266 Q2510,220.5469 2509.6484,220.8984 Q2509.2969,221.25 2508.75,221.25 Q2508.2617,221.25 2507.9492,221.0352 Q2507.6367,220.8203 2507.5,220.2539 Q2507.4414,219.8633 2507.2266,219.6484 Q2506.8359,219.2383 2506.1328,219.0039 Q2505.4297,218.75 2504.7266,218.75 Q2503.8477,218.75 2503.1055,219.1016 Q2502.3828,219.4531 2501.8164,220.2344 Q2501.25,221.0156 2501.25,222.0898 L2501.25,223.2422 Q2501.25,224.5313 2502.3047,225.3906 Q2503.3594,226.25 2505.2344,226.25 Q2506.3477,226.25 2507.1289,225.9961 Q2507.5781,225.8594 2508.0859,225.4102 Q2508.418,225.1563 2508.5938,225.0781 Q2508.7695,225 2508.9844,225 Q2509.3945,225 2509.6875,225.332 Q2510,225.6445 2510,226.0938 Q2510,226.5234 2509.5703,227.0313 Q2508.9453,227.7734 2507.9492,228.1836 Q2506.6406,228.75 2505.0391,228.75 Q2503.1641,228.75 2501.6602,228.0078 Q2500.4492,227.4219 2499.5898,226.1523 Q2498.75,224.8828 2498.75,223.3789 L2498.75,222.0117 Q2498.75,220.4492 2499.4922,219.082 Q2500.2539,217.7148 2501.5625,216.9922 Q2502.8906,216.25 2504.375,216.25 Q2505.2734,216.25 2506.0547,216.5625 Q2506.8359,216.875 2507.5,217.5 Z " fill="#000000"/><text fill="#000000" font-family="sans-serif" font-size="15" lengthAdjust="spacing" textLength="140" x="2522.5" y="228.0127">BruteForceAlgorithm</text><line style="stroke:#A80036;stroke-width:1.875;" x1="2487.5" x2="2665" y1="241.875" y2="241.875"/><text fill="#000000" font-family="sans-serif" font-size="13.75" lengthAdjust="spacing" textLength="65" x="2493.75" y="261.1487">+Max(seq)</text><!--MD5=[03e21a3a74a4ec725edc90da8949a6b4]
class SubMaxSumAlgorithms--><rect codeLine="29" fill="#FEFECE" filter="url(#f1gizhdiklt8y7)" height="77.5293" id="SubMaxSumAlgorithms" style="stroke:#A80036;stroke-width:1.875;" width="202.5" x="2213.75" y="196.875"/><ellipse cx="2232.5" cy="221.9922" fill="#B4A7E5" rx="13.75" ry="13.75" style="stroke:#A80036;stroke-width:1.25;"/><path d="M2233.75,218.2422 L2233.75,225.7422 L2236.25,225.7422 L2236.8555,225.7422 L2237.5,226.5234 L2237.5,226.9922 L2237.5,227.4609 L2236.8555,228.2422 L2236.25,228.2422 L2228.75,228.2422 L2228.1445,228.2422 L2227.5,227.4609 L2227.5,226.9922 L2227.5,226.5234 L2228.1445,225.7422 L2228.75,225.7422 L2231.25,225.7422 L2231.25,218.2422 L2228.75,218.2422 L2228.1445,218.2422 L2227.5,217.4609 L2227.5,216.9922 L2227.5,216.5234 L2228.1445,215.7422 L2228.75,215.7422 L2236.25,215.7422 L2236.8555,215.7422 L2237.5,216.5234 L2237.5,216.9922 L2237.5,217.4609 L2236.8555,218.2422 L2236.25,218.2422 L2233.75,218.2422 Z " fill="#000000"/><text fill="#000000" font-family="sans-serif" font-size="15" font-style="italic" lengthAdjust="spacing" textLength="76.25" x="2293.125" y="218.6963">«interface»</text><text fill="#000000" font-family="sans-serif" font-size="15" font-style="italic" lengthAdjust="spacing" textLength="162.5" x="2250" y="237.5635">SubMaxSumAlgorithms</text><line style="stroke:#A80036;stroke-width:1.875;" x1="2215" x2="2415" y1="247.1094" y2="247.1094"/><text fill="#000000" font-family="sans-serif" font-size="13.75" lengthAdjust="spacing" textLength="158.75" x="2221.25" y="266.3831">+findSubMaxSum(interval)</text><!--MD5=[0f6f7964b844a64b0496af0dda7914bd]
class TestStore--><rect codeLine="37" fill="#FEFECE" filter="url(#f1gizhdiklt8y7)" height="136.4746" id="TestStore" style="stroke:#A80036;stroke-width:1.875;" width="498.75" x="1644.375" y="167.5"/><ellipse cx="1855.3125" cy="187.5" fill="#ADD1B2" rx="13.75" ry="13.75" style="stroke:#A80036;stroke-width:1.25;"/><path d="M1857.8125,183.125 Q1858.0664,182.5 1858.3594,182.1875 Q1858.6523,181.875 1858.9844,181.875 Q1859.5703,181.875 1859.9414,182.2266 Q1860.3125,182.5781 1860.3125,183.3984 L1860.3125,185.3516 Q1860.3125,186.1719 1859.9609,186.5234 Q1859.6094,186.875 1859.0625,186.875 Q1858.5742,186.875 1858.2617,186.6602 Q1857.9492,186.4453 1857.8125,185.8789 Q1857.7539,185.4883 1857.5391,185.2734 Q1857.1484,184.8633 1856.4453,184.6289 Q1855.7422,184.375 1855.0391,184.375 Q1854.1602,184.375 1853.418,184.7266 Q1852.6953,185.0781 1852.1289,185.8594 Q1851.5625,186.6406 1851.5625,187.7148 L1851.5625,188.8672 Q1851.5625,190.1563 1852.6172,191.0156 Q1853.6719,191.875 1855.5469,191.875 Q1856.6602,191.875 1857.4414,191.6211 Q1857.8906,191.4844 1858.3984,191.0352 Q1858.7305,190.7813 1858.9063,190.7031 Q1859.082,190.625 1859.2969,190.625 Q1859.707,190.625 1860,190.957 Q1860.3125,191.2695 1860.3125,191.7188 Q1860.3125,192.1484 1859.8828,192.6563 Q1859.2578,193.3984 1858.2617,193.8086 Q1856.9531,194.375 1855.3516,194.375 Q1853.4766,194.375 1851.9727,193.6328 Q1850.7617,193.0469 1849.9023,191.7773 Q1849.0625,190.5078 1849.0625,189.0039 L1849.0625,187.6367 Q1849.0625,186.0742 1849.8047,184.707 Q1850.5664,183.3398 1851.875,182.6172 Q1853.2031,181.875 1854.6875,181.875 Q1855.5859,181.875 1856.3672,182.1875 Q1857.1484,182.5 1857.8125,183.125 Z " fill="#000000"/><text fill="#000000" font-family="sans-serif" font-size="15" lengthAdjust="spacing" textLength="66.25" x="1880.9375" y="193.6377">TestStore</text><line style="stroke:#A80036;stroke-width:1.875;" x1="1645.625" x2="2141.875" y1="207.5" y2="207.5"/><text fill="#000000" font-family="sans-serif" font-size="13.75" lengthAdjust="spacing" textLength="440" x="1651.875" y="226.7737">+getNumTestsWaitingForResultsDayOrInterval(beginningDay, endingDay)</text><text fill="#000000" font-family="sans-serif" font-size="13.75" lengthAdjust="spacing" textLength="453.75" x="1651.875" y="244.0686">+getNumTestsWaitingForDiagnosisDayOrInterval(beginningDay, endingDay)</text><text fill="#000000" font-family="sans-serif" font-size="13.75" lengthAdjust="spacing" textLength="428.75" x="1651.875" y="261.3635">+getNumTestsProcessedInLabDayOrInterval(beginningDay, endingDay)</text><text fill="#000000" font-family="sans-serif" font-size="13.75" lengthAdjust="spacing" textLength="483.75" x="1651.875" y="278.6584">+getNumberOfTestsByIntervalDateOfTestRegistration(beginningDay, endingDay)</text><text fill="#000000" font-family="sans-serif" font-size="13.75" lengthAdjust="spacing" textLength="445" x="1651.875" y="295.9534">+getNumberOfTestsByIntervalDateOfDiagnosis(beginningDay, endingDay)</text><!--MD5=[55cb992be19579b505cea3c5691093cb]
class ClientStore--><rect codeLine="45" fill="#FEFECE" filter="url(#f1gizhdiklt8y7)" height="67.2949" id="ClientStore" style="stroke:#A80036;stroke-width:1.875;" width="116.25" x="1484.375" y="201.875"/><ellipse cx="1503.125" cy="221.875" fill="#ADD1B2" rx="13.75" ry="13.75" style="stroke:#A80036;stroke-width:1.25;"/><path d="M1505.625,217.5 Q1505.8789,216.875 1506.1719,216.5625 Q1506.4648,216.25 1506.7969,216.25 Q1507.3828,216.25 1507.7539,216.6016 Q1508.125,216.9531 1508.125,217.7734 L1508.125,219.7266 Q1508.125,220.5469 1507.7734,220.8984 Q1507.4219,221.25 1506.875,221.25 Q1506.3867,221.25 1506.0742,221.0352 Q1505.7617,220.8203 1505.625,220.2539 Q1505.5664,219.8633 1505.3516,219.6484 Q1504.9609,219.2383 1504.2578,219.0039 Q1503.5547,218.75 1502.8516,218.75 Q1501.9727,218.75 1501.2305,219.1016 Q1500.5078,219.4531 1499.9414,220.2344 Q1499.375,221.0156 1499.375,222.0898 L1499.375,223.2422 Q1499.375,224.5313 1500.4297,225.3906 Q1501.4844,226.25 1503.3594,226.25 Q1504.4727,226.25 1505.2539,225.9961 Q1505.7031,225.8594 1506.2109,225.4102 Q1506.543,225.1563 1506.7188,225.0781 Q1506.8945,225 1507.1094,225 Q1507.5195,225 1507.8125,225.332 Q1508.125,225.6445 1508.125,226.0938 Q1508.125,226.5234 1507.6953,227.0313 Q1507.0703,227.7734 1506.0742,228.1836 Q1504.7656,228.75 1503.1641,228.75 Q1501.2891,228.75 1499.7852,228.0078 Q1498.5742,227.4219 1497.7148,226.1523 Q1496.875,224.8828 1496.875,223.3789 L1496.875,222.0117 Q1496.875,220.4492 1497.6172,219.082 Q1498.3789,217.7148 1499.6875,216.9922 Q1501.0156,216.25 1502.5,216.25 Q1503.3984,216.25 1504.1797,216.5625 Q1504.9609,216.875 1505.625,217.5 Z " fill="#000000"/><text fill="#000000" font-family="sans-serif" font-size="15" lengthAdjust="spacing" textLength="76.25" x="1520.625" y="228.0127">ClientStore</text><line style="stroke:#A80036;stroke-width:1.875;" x1="1485.625" x2="1599.375" y1="241.875" y2="241.875"/><text fill="#000000" font-family="sans-serif" font-size="13.75" lengthAdjust="spacing" textLength="76.25" x="1491.875" y="261.1487">+getClients()</text><!--MD5=[f4a38599b97b911edb1e154f571cf5e4]
class BenchmarkAlgorithmAdapter--><rect codeLine="53" fill="#FEFECE" filter="url(#f1gizhdiklt8y7)" height="67.2949" id="BenchmarkAlgorithmAdapter" style="stroke:#A80036;stroke-width:1.875;" width="236.25" x="1176.875" y="201.875"/><ellipse cx="1195.625" cy="221.875" fill="#ADD1B2" rx="13.75" ry="13.75" style="stroke:#A80036;stroke-width:1.25;"/><path d="M1198.125,217.5 Q1198.3789,216.875 1198.6719,216.5625 Q1198.9648,216.25 1199.2969,216.25 Q1199.8828,216.25 1200.2539,216.6016 Q1200.625,216.9531 1200.625,217.7734 L1200.625,219.7266 Q1200.625,220.5469 1200.2734,220.8984 Q1199.9219,221.25 1199.375,221.25 Q1198.8867,221.25 1198.5742,221.0352 Q1198.2617,220.8203 1198.125,220.2539 Q1198.0664,219.8633 1197.8516,219.6484 Q1197.4609,219.2383 1196.7578,219.0039 Q1196.0547,218.75 1195.3516,218.75 Q1194.4727,218.75 1193.7305,219.1016 Q1193.0078,219.4531 1192.4414,220.2344 Q1191.875,221.0156 1191.875,222.0898 L1191.875,223.2422 Q1191.875,224.5313 1192.9297,225.3906 Q1193.9844,226.25 1195.8594,226.25 Q1196.9727,226.25 1197.7539,225.9961 Q1198.2031,225.8594 1198.7109,225.4102 Q1199.043,225.1563 1199.2188,225.0781 Q1199.3945,225 1199.6094,225 Q1200.0195,225 1200.3125,225.332 Q1200.625,225.6445 1200.625,226.0938 Q1200.625,226.5234 1200.1953,227.0313 Q1199.5703,227.7734 1198.5742,228.1836 Q1197.2656,228.75 1195.6641,228.75 Q1193.7891,228.75 1192.2852,228.0078 Q1191.0742,227.4219 1190.2148,226.1523 Q1189.375,224.8828 1189.375,223.3789 L1189.375,222.0117 Q1189.375,220.4492 1190.1172,219.082 Q1190.8789,217.7148 1192.1875,216.9922 Q1193.5156,216.25 1195,216.25 Q1195.8984,216.25 1196.6797,216.5625 Q1197.4609,216.875 1198.125,217.5 Z " fill="#000000"/><text fill="#000000" font-family="sans-serif" font-size="15" lengthAdjust="spacing" textLength="196.25" x="1213.125" y="228.0127">BenchmarkAlgorithmAdapter</text><line style="stroke:#A80036;stroke-width:1.875;" x1="1178.125" x2="1411.875" y1="241.875" y2="241.875"/><text fill="#000000" font-family="sans-serif" font-size="13.75" lengthAdjust="spacing" textLength="158.75" x="1184.375" y="261.1487">+findSubMaxSum(interval)</text><!--MD5=[3d195b319a9e341286852cea89c88ec3]
class BruteForceAlgorithmAdapter--><rect codeLine="57" fill="#FEFECE" filter="url(#f1gizhdiklt8y7)" height="67.2949" id="BruteForceAlgorithmAdapter" style="stroke:#A80036;stroke-width:1.875;" width="232.5" x="900" y="201.875"/><ellipse cx="918.75" cy="221.875" fill="#ADD1B2" rx="13.75" ry="13.75" style="stroke:#A80036;stroke-width:1.25;"/><path d="M921.25,217.5 Q921.5039,216.875 921.7969,216.5625 Q922.0898,216.25 922.4219,216.25 Q923.0078,216.25 923.3789,216.6016 Q923.75,216.9531 923.75,217.7734 L923.75,219.7266 Q923.75,220.5469 923.3984,220.8984 Q923.0469,221.25 922.5,221.25 Q922.0117,221.25 921.6992,221.0352 Q921.3867,220.8203 921.25,220.2539 Q921.1914,219.8633 920.9766,219.6484 Q920.5859,219.2383 919.8828,219.0039 Q919.1797,218.75 918.4766,218.75 Q917.5977,218.75 916.8555,219.1016 Q916.1328,219.4531 915.5664,220.2344 Q915,221.0156 915,222.0898 L915,223.2422 Q915,224.5313 916.0547,225.3906 Q917.1094,226.25 918.9844,226.25 Q920.0977,226.25 920.8789,225.9961 Q921.3281,225.8594 921.8359,225.4102 Q922.168,225.1563 922.3438,225.0781 Q922.5195,225 922.7344,225 Q923.1445,225 923.4375,225.332 Q923.75,225.6445 923.75,226.0938 Q923.75,226.5234 923.3203,227.0313 Q922.6953,227.7734 921.6992,228.1836 Q920.3906,228.75 918.7891,228.75 Q916.9141,228.75 915.4102,228.0078 Q914.1992,227.4219 913.3398,226.1523 Q912.5,224.8828 912.5,223.3789 L912.5,222.0117 Q912.5,220.4492 913.2422,219.082 Q914.0039,217.7148 915.3125,216.9922 Q916.6406,216.25 918.125,216.25 Q919.0234,216.25 919.8047,216.5625 Q920.5859,216.875 921.25,217.5 Z " fill="#000000"/><text fill="#000000" font-family="sans-serif" font-size="15" lengthAdjust="spacing" textLength="192.5" x="936.25" y="228.0127">BruteForceAlgorithmAdapter</text><line style="stroke:#A80036;stroke-width:1.875;" x1="901.25" x2="1131.25" y1="241.875" y2="241.875"/><text fill="#000000" font-family="sans-serif" font-size="13.75" lengthAdjust="spacing" textLength="158.75" x="907.5" y="261.1487">+findSubMaxSum(interval)</text><!--MD5=[670275f839cd0f6ae295f6f439fd6034]
class CompanyPerformanceAnalysisController--><rect codeLine="67" fill="#FEFECE" filter="url(#f1gizhdiklt8y7)" height="163.7695" id="CompanyPerformanceAnalysisController" style="stroke:#A80036;stroke-width:1.875;" width="518.75" x="280.625" y="153.75"/><ellipse cx="394.6875" cy="173.75" fill="#ADD1B2" rx="13.75" ry="13.75" style="stroke:#A80036;stroke-width:1.25;"/><path d="M397.1875,169.375 Q397.4414,168.75 397.7344,168.4375 Q398.0273,168.125 398.3594,168.125 Q398.9453,168.125 399.3164,168.4766 Q399.6875,168.8281 399.6875,169.6484 L399.6875,171.6016 Q399.6875,172.4219 399.3359,172.7734 Q398.9844,173.125 398.4375,173.125 Q397.9492,173.125 397.6367,172.9102 Q397.3242,172.6953 397.1875,172.1289 Q397.1289,171.7383 396.9141,171.5234 Q396.5234,171.1133 395.8203,170.8789 Q395.1172,170.625 394.4141,170.625 Q393.5352,170.625 392.793,170.9766 Q392.0703,171.3281 391.5039,172.1094 Q390.9375,172.8906 390.9375,173.9648 L390.9375,175.1172 Q390.9375,176.4063 391.9922,177.2656 Q393.0469,178.125 394.9219,178.125 Q396.0352,178.125 396.8164,177.8711 Q397.2656,177.7344 397.7734,177.2852 Q398.1055,177.0313 398.2813,176.9531 Q398.457,176.875 398.6719,176.875 Q399.082,176.875 399.375,177.207 Q399.6875,177.5195 399.6875,177.9688 Q399.6875,178.3984 399.2578,178.9063 Q398.6328,179.6484 397.6367,180.0586 Q396.3281,180.625 394.7266,180.625 Q392.8516,180.625 391.3477,179.8828 Q390.1367,179.2969 389.2773,178.0273 Q388.4375,176.7578 388.4375,175.2539 L388.4375,173.8867 Q388.4375,172.3242 389.1797,170.957 Q389.9414,169.5898 391.25,168.8672 Q392.5781,168.125 394.0625,168.125 Q394.9609,168.125 395.7422,168.4375 Q396.5234,168.75 397.1875,169.375 Z " fill="#000000"/><text fill="#000000" font-family="sans-serif" font-size="15" lengthAdjust="spacing" textLength="280" x="420.3125" y="179.8877">CompanyPerformanceAnalysisController</text><line style="stroke:#A80036;stroke-width:1.875;" x1="281.875" x2="798.125" y1="193.75" y2="193.75"/><text fill="#000000" font-family="sans-serif" font-size="13.75" lengthAdjust="spacing" textLength="120" x="288.125" y="213.0237">-Company company</text><line style="stroke:#A80036;stroke-width:1.875;" x1="281.875" x2="798.125" y1="221.0449" y2="221.0449"/><text fill="#000000" font-family="sans-serif" font-size="13.75" lengthAdjust="spacing" textLength="102.5" x="288.125" y="240.3186">+getNumClients()</text><text fill="#000000" font-family="sans-serif" font-size="13.75" lengthAdjust="spacing" textLength="320" x="288.125" y="257.6135">+getTestInfoDayOrInterval(beginningDay, endingDay)</text><text fill="#000000" font-family="sans-serif" font-size="13.75" lengthAdjust="spacing" textLength="280" x="288.125" y="274.9084">+makeIntervalArray(beginningDay, endingDay)</text><text fill="#000000" font-family="sans-serif" font-size="13.75" lengthAdjust="spacing" textLength="503.75" x="288.125" y="292.2034">+findWorstSubIntWithChosenAlgorithm(beginningDay, endingDay, chosenAlgorithm)</text><text fill="#000000" font-family="sans-serif" font-size="13.75" lengthAdjust="spacing" textLength="288.75" x="288.125" y="309.4983">+getChosenAlgorithmAdapter(chosenAlgorithm)</text><!--MD5=[bbc84d1aa0e7f30bd67b3f6e81f0f299]
class Sum--><rect codeLine="82" fill="#FEFECE" filter="url(#f1gizhdiklt8y7)" height="67.2949" id="Sum" style="stroke:#A80036;stroke-width:1.875;" width="80" x="100" y="201.875"/><ellipse cx="122.125" cy="221.875" fill="#ADD1B2" rx="13.75" ry="13.75" style="stroke:#A80036;stroke-width:1.25;"/><path d="M124.625,217.5 Q124.8789,216.875 125.1719,216.5625 Q125.4648,216.25 125.7969,216.25 Q126.3828,216.25 126.7539,216.6016 Q127.125,216.9531 127.125,217.7734 L127.125,219.7266 Q127.125,220.5469 126.7734,220.8984 Q126.4219,221.25 125.875,221.25 Q125.3867,221.25 125.0742,221.0352 Q124.7617,220.8203 124.625,220.2539 Q124.5664,219.8633 124.3516,219.6484 Q123.9609,219.2383 123.2578,219.0039 Q122.5547,218.75 121.8516,218.75 Q120.9727,218.75 120.2305,219.1016 Q119.5078,219.4531 118.9414,220.2344 Q118.375,221.0156 118.375,222.0898 L118.375,223.2422 Q118.375,224.5313 119.4297,225.3906 Q120.4844,226.25 122.3594,226.25 Q123.4727,226.25 124.2539,225.9961 Q124.7031,225.8594 125.2109,225.4102 Q125.543,225.1563 125.7188,225.0781 Q125.8945,225 126.1094,225 Q126.5195,225 126.8125,225.332 Q127.125,225.6445 127.125,226.0938 Q127.125,226.5234 126.6953,227.0313 Q126.0703,227.7734 125.0742,228.1836 Q123.7656,228.75 122.1641,228.75 Q120.2891,228.75 118.7852,228.0078 Q117.5742,227.4219 116.7148,226.1523 Q115.875,224.8828 115.875,223.3789 L115.875,222.0117 Q115.875,220.4492 116.6172,219.082 Q117.3789,217.7148 118.6875,216.9922 Q120.0156,216.25 121.5,216.25 Q122.3984,216.25 123.1797,216.5625 Q123.9609,216.875 124.625,217.5 Z " fill="#000000"/><text fill="#000000" font-family="sans-serif" font-size="15" lengthAdjust="spacing" textLength="32.5" x="140.375" y="228.0127">Sum</text><line style="stroke:#A80036;stroke-width:1.875;" x1="101.25" x2="178.75" y1="241.875" y2="241.875"/><text fill="#000000" font-family="sans-serif" font-size="13.75" lengthAdjust="spacing" textLength="65" x="107.5" y="261.1487">+Max(seq)</text><!--MD5=[3404723274ca4ec774b8d2f7e379376f]
class CompanyPerformanceAnalysisUI--><rect codeLine="96" fill="#FEFECE" filter="url(#f1gizhdiklt8y7)" height="40" id="CompanyPerformanceAnalysisUI" style="stroke:#A80036;stroke-width:1.875;" width="267.5" x="3022.5" y="215.625"/><ellipse cx="3041.25" cy="235.625" fill="#ADD1B2" rx="13.75" ry="13.75" style="stroke:#A80036;stroke-width:1.25;"/><path d="M3043.75,231.25 Q3044.0039,230.625 3044.2969,230.3125 Q3044.5898,230 3044.9219,230 Q3045.5078,230 3045.8789,230.3516 Q3046.25,230.7031 3046.25,231.5234 L3046.25,233.4766 Q3046.25,234.2969 3045.8984,234.6484 Q3045.5469,235 3045,235 Q3044.5117,235 3044.1992,234.7852 Q3043.8867,234.5703 3043.75,234.0039 Q3043.6914,233.6133 3043.4766,233.3984 Q3043.0859,232.9883 3042.3828,232.7539 Q3041.6797,232.5 3040.9766,232.5 Q3040.0977,232.5 3039.3555,232.8516 Q3038.6328,233.2031 3038.0664,233.9844 Q3037.5,234.7656 3037.5,235.8398 L3037.5,236.9922 Q3037.5,238.2813 3038.5547,239.1406 Q3039.6094,240 3041.4844,240 Q3042.5977,240 3043.3789,239.7461 Q3043.8281,239.6094 3044.3359,239.1602 Q3044.668,238.9063 3044.8438,238.8281 Q3045.0195,238.75 3045.2344,238.75 Q3045.6445,238.75 3045.9375,239.082 Q3046.25,239.3945 3046.25,239.8438 Q3046.25,240.2734 3045.8203,240.7813 Q3045.1953,241.5234 3044.1992,241.9336 Q3042.8906,242.5 3041.2891,242.5 Q3039.4141,242.5 3037.9102,241.7578 Q3036.6992,241.1719 3035.8398,239.9023 Q3035,238.6328 3035,237.1289 L3035,235.7617 Q3035,234.1992 3035.7422,232.832 Q3036.5039,231.4648 3037.8125,230.7422 Q3039.1406,230 3040.625,230 Q3041.5234,230 3042.3047,230.3125 Q3043.0859,230.625 3043.75,231.25 Z " fill="#000000"/><text fill="#000000" font-family="sans-serif" font-size="15" lengthAdjust="spacing" textLength="227.5" x="3058.75" y="241.7627">CompanyPerformanceAnalysisUI</text><!--MD5=[a1049747488fca3c6a4586f32052ca2c]
@startuml
'skinparam linetype ortho
hide empty methods
hide empty attributes
'left to right direction
skinparam classAttributeIconSize 0

package Core {

package Domain {

package Model{

class Company {
    -String designation
    -TestStore testStore
    -ClientStore clientStore
    +getTestStore()
    +getClientStore()
}

class BruteForceAlgorithm{
    +Max(seq)
}

}

package Interfaces {

interface SubMaxSumAlgorithms <<interface>> {
    +findSubMaxSum(interval)
}

}

package Store {

class TestStore {
    +getNumTestsWaitingForResultsDayOrInterval(beginningDay, endingDay)
    +getNumTestsWaitingForDiagnosisDayOrInterval(beginningDay, endingDay)
    +getNumTestsProcessedInLabDayOrInterval(beginningDay, endingDay)
    +getNumberOfTestsByIntervalDateOfTestRegistration(beginningDay, endingDay)
    +getNumberOfTestsByIntervalDateOfDiagnosis(beginningDay, endingDay)
}

class ClientStore {
    +getClients()
}

}

package Adapters{

class BenchmarkAlgorithmAdapter{
    +findSubMaxSum(interval)
}

class BruteForceAlgorithmAdapter{
    +findSubMaxSum(interval)
}

}

}

package Controller {

class CompanyPerformanceAnalysisController{
    -Company company
    +getNumClients()
    +getTestInfoDayOrInterval(beginningDay, endingDay)
    +makeIntervalArray(beginningDay, endingDay)
    +findWorstSubIntWithChosenAlgorithm(beginningDay, endingDay, chosenAlgorithm)
    +getChosenAlgorithmAdapter(chosenAlgorithm)
}

}

package ThirdParty{

package APIs{

class Sum{
    +Max(seq)
}

}

}

}

package UI {

package GUI {

class CompanyPerformanceAnalysisUI{
}

}

}

@enduml

@startuml
hide empty methods
hide empty attributes
skinparam classAttributeIconSize 0

package Core {

package Domain {

package Model{

class Company {
    -String designation
    -TestStore testStore
    -ClientStore clientStore
    +getTestStore()
    +getClientStore()
}

class BruteForceAlgorithm{
    +Max(seq)
}

}

package Interfaces {

interface SubMaxSumAlgorithms <<interface>> {
    +findSubMaxSum(interval)
}

}

package Store {

class TestStore {
    +getNumTestsWaitingForResultsDayOrInterval(beginningDay, endingDay)
    +getNumTestsWaitingForDiagnosisDayOrInterval(beginningDay, endingDay)
    +getNumTestsProcessedInLabDayOrInterval(beginningDay, endingDay)
    +getNumberOfTestsByIntervalDateOfTestRegistration(beginningDay, endingDay)
    +getNumberOfTestsByIntervalDateOfDiagnosis(beginningDay, endingDay)
}

class ClientStore {
    +getClients()
}

}

package Adapters{

class BenchmarkAlgorithmAdapter{
    +findSubMaxSum(interval)
}

class BruteForceAlgorithmAdapter{
    +findSubMaxSum(interval)
}

}

}

package Controller {

class CompanyPerformanceAnalysisController{
    -Company company
    +getNumClients()
    +getTestInfoDayOrInterval(beginningDay, endingDay)
    +makeIntervalArray(beginningDay, endingDay)
    +findWorstSubIntWithChosenAlgorithm(beginningDay, endingDay, chosenAlgorithm)
    +getChosenAlgorithmAdapter(chosenAlgorithm)
}

}

package ThirdParty{

package APIs{

class Sum{
    +Max(seq)
}

}

}

}

package UI {

package GUI {

class CompanyPerformanceAnalysisUI{
}

}

}

@enduml

PlantUML version 1.2021.7(Sun May 23 13:40:07 BST 2021)
(GPL source distribution)
Java Runtime: OpenJDK Runtime Environment
JVM: Dynamic Code Evolution 64-Bit Server VM
Default Encoding: Cp1252
Language: pt
Country: PT
--></g></svg>