<?xml version="1.0" encoding="UTF-8" standalone="no"?><svg xmlns="http://www.w3.org/2000/svg" xmlns:xlink="http://www.w3.org/1999/xlink" contentScriptType="application/ecmascript" contentStyleType="text/css" height="395px" preserveAspectRatio="none" style="width:1442px;height:395px;background:#FFFFFF;" version="1.1" viewBox="0 0 1442 395" width="1442.5px" zoomAndPan="magnify"><defs><filter height="300%" id="f1xn6amigzc87i" width="300%" x="-1" y="-1"><feGaussianBlur result="blurOut" stdDeviation="2.5"/><feColorMatrix in="blurOut" result="blurOut2" type="matrix" values="0 0 0 0 0 0 0 0 0 0 0 0 0 0 0 0 0 0 .4 0"/><feOffset dx="5.0" dy="5.0" in="blurOut2" result="blurOut3"/><feBlend in="SourceGraphic" in2="blurOut3" mode="normal"/></filter></defs><g><!--MD5=[02e4b9b7573f1156f41e60aa5b4e25a4]
class Company--><rect codeLine="6" fill="#FEFECE" filter="url(#f1xn6amigzc87i)" height="146.4746" id="Company" style="stroke:#A80036;stroke-width:1.875;" width="152.5" x="900" y="8.75"/><ellipse cx="939.5625" cy="28.75" fill="#ADD1B2" rx="13.75" ry="13.75" style="stroke:#A80036;stroke-width:1.25;"/><path d="M942.0625,24.375 Q942.3164,23.75 942.6094,23.4375 Q942.9023,23.125 943.2344,23.125 Q943.8203,23.125 944.1914,23.4766 Q944.5625,23.8281 944.5625,24.6484 L944.5625,26.6016 Q944.5625,27.4219 944.2109,27.7734 Q943.8594,28.125 943.3125,28.125 Q942.8242,28.125 942.5117,27.9102 Q942.1992,27.6953 942.0625,27.1289 Q942.0039,26.7383 941.7891,26.5234 Q941.3984,26.1133 940.6953,25.8789 Q939.9922,25.625 939.2891,25.625 Q938.4102,25.625 937.668,25.9766 Q936.9453,26.3281 936.3789,27.1094 Q935.8125,27.8906 935.8125,28.9648 L935.8125,30.1172 Q935.8125,31.4063 936.8672,32.2656 Q937.9219,33.125 939.7969,33.125 Q940.9102,33.125 941.6914,32.8711 Q942.1406,32.7344 942.6484,32.2852 Q942.9805,32.0313 943.1563,31.9531 Q943.332,31.875 943.5469,31.875 Q943.957,31.875 944.25,32.207 Q944.5625,32.5195 944.5625,32.9688 Q944.5625,33.3984 944.1328,33.9063 Q943.5078,34.6484 942.5117,35.0586 Q941.2031,35.625 939.6016,35.625 Q937.7266,35.625 936.2227,34.8828 Q935.0117,34.2969 934.1523,33.0273 Q933.3125,31.7578 933.3125,30.2539 L933.3125,28.8867 Q933.3125,27.3242 934.0547,25.957 Q934.8164,24.5898 936.125,23.8672 Q937.4531,23.125 938.9375,23.125 Q939.8359,23.125 940.6172,23.4375 Q941.3984,23.75 942.0625,24.375 Z " fill="#000000"/><text fill="#000000" font-family="sans-serif" font-size="15" lengthAdjust="spacing" textLength="66.25" x="961.6875" y="34.8877">Company</text><line style="stroke:#A80036;stroke-width:1.875;" x1="901.25" x2="1051.25" y1="48.75" y2="48.75"/><text fill="#000000" font-family="sans-serif" font-size="13.75" lengthAdjust="spacing" textLength="112.5" x="907.5" y="68.0237">-String designation</text><text fill="#000000" font-family="sans-serif" font-size="13.75" lengthAdjust="spacing" textLength="122.5" x="907.5" y="85.3186">-TestStore testStore</text><text fill="#000000" font-family="sans-serif" font-size="13.75" lengthAdjust="spacing" textLength="137.5" x="907.5" y="102.6135">-ClientStore clientStore</text><line style="stroke:#A80036;stroke-width:1.875;" x1="901.25" x2="1051.25" y1="110.6348" y2="110.6348"/><text fill="#000000" font-family="sans-serif" font-size="13.75" lengthAdjust="spacing" textLength="95" x="907.5" y="129.9084">+getTestStore()</text><text fill="#000000" font-family="sans-serif" font-size="13.75" lengthAdjust="spacing" textLength="101.25" x="907.5" y="147.2034">+getClientStore()</text><!--MD5=[ac303f9d3ae5a280bcee843295a9d18a]
class CompanyPerformanceAnalysis--><rect codeLine="14" fill="#FEFECE" filter="url(#f1xn6amigzc87i)" height="94.5898" id="CompanyPerformanceAnalysis" style="stroke:#A80036;stroke-width:1.875;" width="252.5" x="1172.5" y="34.375"/><ellipse cx="1191.25" cy="54.375" fill="#ADD1B2" rx="13.75" ry="13.75" style="stroke:#A80036;stroke-width:1.25;"/><path d="M1193.75,50 Q1194.0039,49.375 1194.2969,49.0625 Q1194.5898,48.75 1194.9219,48.75 Q1195.5078,48.75 1195.8789,49.1016 Q1196.25,49.4531 1196.25,50.2734 L1196.25,52.2266 Q1196.25,53.0469 1195.8984,53.3984 Q1195.5469,53.75 1195,53.75 Q1194.5117,53.75 1194.1992,53.5352 Q1193.8867,53.3203 1193.75,52.7539 Q1193.6914,52.3633 1193.4766,52.1484 Q1193.0859,51.7383 1192.3828,51.5039 Q1191.6797,51.25 1190.9766,51.25 Q1190.0977,51.25 1189.3555,51.6016 Q1188.6328,51.9531 1188.0664,52.7344 Q1187.5,53.5156 1187.5,54.5898 L1187.5,55.7422 Q1187.5,57.0313 1188.5547,57.8906 Q1189.6094,58.75 1191.4844,58.75 Q1192.5977,58.75 1193.3789,58.4961 Q1193.8281,58.3594 1194.3359,57.9102 Q1194.668,57.6563 1194.8438,57.5781 Q1195.0195,57.5 1195.2344,57.5 Q1195.6445,57.5 1195.9375,57.832 Q1196.25,58.1445 1196.25,58.5938 Q1196.25,59.0234 1195.8203,59.5313 Q1195.1953,60.2734 1194.1992,60.6836 Q1192.8906,61.25 1191.2891,61.25 Q1189.4141,61.25 1187.9102,60.5078 Q1186.6992,59.9219 1185.8398,58.6523 Q1185,57.3828 1185,55.8789 L1185,54.5117 Q1185,52.9492 1185.7422,51.582 Q1186.5039,50.2148 1187.8125,49.4922 Q1189.1406,48.75 1190.625,48.75 Q1191.5234,48.75 1192.3047,49.0625 Q1193.0859,49.375 1193.75,50 Z " fill="#000000"/><text fill="#000000" font-family="sans-serif" font-size="15" lengthAdjust="spacing" textLength="212.5" x="1208.75" y="60.5127">CompanyPerformanceAnalysis</text><line style="stroke:#A80036;stroke-width:1.875;" x1="1173.75" x2="1423.75" y1="74.375" y2="74.375"/><text fill="#000000" font-family="sans-serif" font-size="13.75" lengthAdjust="spacing" textLength="195" x="1180" y="93.6487">-ArrayList&lt;Integer&gt; worstSubInt</text><line style="stroke:#A80036;stroke-width:1.875;" x1="1173.75" x2="1423.75" y1="101.6699" y2="101.6699"/><text fill="#000000" font-family="sans-serif" font-size="13.75" lengthAdjust="spacing" textLength="187.5" x="1180" y="120.9436">+addWorstSubInt(worstSubInt)</text><!--MD5=[0f6f7964b844a64b0496af0dda7914bd]
class TestStore--><rect codeLine="19" fill="#FEFECE" filter="url(#f1xn6amigzc87i)" height="67.2949" id="TestStore" style="stroke:#A80036;stroke-width:1.875;" width="106.25" x="923.125" y="199.375"/><ellipse cx="941.875" cy="219.375" fill="#ADD1B2" rx="13.75" ry="13.75" style="stroke:#A80036;stroke-width:1.25;"/><path d="M944.375,215 Q944.6289,214.375 944.9219,214.0625 Q945.2148,213.75 945.5469,213.75 Q946.1328,213.75 946.5039,214.1016 Q946.875,214.4531 946.875,215.2734 L946.875,217.2266 Q946.875,218.0469 946.5234,218.3984 Q946.1719,218.75 945.625,218.75 Q945.1367,218.75 944.8242,218.5352 Q944.5117,218.3203 944.375,217.7539 Q944.3164,217.3633 944.1016,217.1484 Q943.7109,216.7383 943.0078,216.5039 Q942.3047,216.25 941.6016,216.25 Q940.7227,216.25 939.9805,216.6016 Q939.2578,216.9531 938.6914,217.7344 Q938.125,218.5156 938.125,219.5898 L938.125,220.7422 Q938.125,222.0313 939.1797,222.8906 Q940.2344,223.75 942.1094,223.75 Q943.2227,223.75 944.0039,223.4961 Q944.4531,223.3594 944.9609,222.9102 Q945.293,222.6563 945.4688,222.5781 Q945.6445,222.5 945.8594,222.5 Q946.2695,222.5 946.5625,222.832 Q946.875,223.1445 946.875,223.5938 Q946.875,224.0234 946.4453,224.5313 Q945.8203,225.2734 944.8242,225.6836 Q943.5156,226.25 941.9141,226.25 Q940.0391,226.25 938.5352,225.5078 Q937.3242,224.9219 936.4648,223.6523 Q935.625,222.3828 935.625,220.8789 L935.625,219.5117 Q935.625,217.9492 936.3672,216.582 Q937.1289,215.2148 938.4375,214.4922 Q939.7656,213.75 941.25,213.75 Q942.1484,213.75 942.9297,214.0625 Q943.7109,214.375 944.375,215 Z " fill="#000000"/><text fill="#000000" font-family="sans-serif" font-size="15" lengthAdjust="spacing" textLength="66.25" x="959.375" y="225.5127">TestStore</text><line style="stroke:#A80036;stroke-width:1.875;" x1="924.375" x2="1028.125" y1="239.375" y2="239.375"/><text fill="#000000" font-family="sans-serif" font-size="13.75" lengthAdjust="spacing" textLength="82.5" x="930.625" y="258.6487">+getTestsInfo</text><!--MD5=[55cb992be19579b505cea3c5691093cb]
class ClientStore--><rect codeLine="23" fill="#FEFECE" filter="url(#f1xn6amigzc87i)" height="67.2949" id="ClientStore" style="stroke:#A80036;stroke-width:1.875;" width="116.25" x="918.125" y="310.625"/><ellipse cx="936.875" cy="330.625" fill="#ADD1B2" rx="13.75" ry="13.75" style="stroke:#A80036;stroke-width:1.25;"/><path d="M939.375,326.25 Q939.6289,325.625 939.9219,325.3125 Q940.2148,325 940.5469,325 Q941.1328,325 941.5039,325.3516 Q941.875,325.7031 941.875,326.5234 L941.875,328.4766 Q941.875,329.2969 941.5234,329.6484 Q941.1719,330 940.625,330 Q940.1367,330 939.8242,329.7852 Q939.5117,329.5703 939.375,329.0039 Q939.3164,328.6133 939.1016,328.3984 Q938.7109,327.9883 938.0078,327.7539 Q937.3047,327.5 936.6016,327.5 Q935.7227,327.5 934.9805,327.8516 Q934.2578,328.2031 933.6914,328.9844 Q933.125,329.7656 933.125,330.8398 L933.125,331.9922 Q933.125,333.2813 934.1797,334.1406 Q935.2344,335 937.1094,335 Q938.2227,335 939.0039,334.7461 Q939.4531,334.6094 939.9609,334.1602 Q940.293,333.9063 940.4688,333.8281 Q940.6445,333.75 940.8594,333.75 Q941.2695,333.75 941.5625,334.082 Q941.875,334.3945 941.875,334.8438 Q941.875,335.2734 941.4453,335.7813 Q940.8203,336.5234 939.8242,336.9336 Q938.5156,337.5 936.9141,337.5 Q935.0391,337.5 933.5352,336.7578 Q932.3242,336.1719 931.4648,334.9023 Q930.625,333.6328 930.625,332.1289 L930.625,330.7617 Q930.625,329.1992 931.3672,327.832 Q932.1289,326.4648 933.4375,325.7422 Q934.7656,325 936.25,325 Q937.1484,325 937.9297,325.3125 Q938.7109,325.625 939.375,326.25 Z " fill="#000000"/><text fill="#000000" font-family="sans-serif" font-size="15" lengthAdjust="spacing" textLength="76.25" x="954.375" y="336.7627">ClientStore</text><line style="stroke:#A80036;stroke-width:1.875;" x1="919.375" x2="1033.125" y1="350.625" y2="350.625"/><text fill="#000000" font-family="sans-serif" font-size="13.75" lengthAdjust="spacing" textLength="91.25" x="925.625" y="369.8987">+getClientInfo()</text><!--MD5=[670275f839cd0f6ae295f6f439fd6034]
class CompanyPerformanceAnalysisController--><rect codeLine="27" fill="#FEFECE" filter="url(#f1xn6amigzc87i)" height="84.5898" id="CompanyPerformanceAnalysisController" style="stroke:#A80036;stroke-width:1.875;" width="471.25" x="352.5" y="190.625"/><ellipse cx="442.8125" cy="210.625" fill="#ADD1B2" rx="13.75" ry="13.75" style="stroke:#A80036;stroke-width:1.25;"/><path d="M445.3125,206.25 Q445.5664,205.625 445.8594,205.3125 Q446.1523,205 446.4844,205 Q447.0703,205 447.4414,205.3516 Q447.8125,205.7031 447.8125,206.5234 L447.8125,208.4766 Q447.8125,209.2969 447.4609,209.6484 Q447.1094,210 446.5625,210 Q446.0742,210 445.7617,209.7852 Q445.4492,209.5703 445.3125,209.0039 Q445.2539,208.6133 445.0391,208.3984 Q444.6484,207.9883 443.9453,207.7539 Q443.2422,207.5 442.5391,207.5 Q441.6602,207.5 440.918,207.8516 Q440.1953,208.2031 439.6289,208.9844 Q439.0625,209.7656 439.0625,210.8398 L439.0625,211.9922 Q439.0625,213.2813 440.1172,214.1406 Q441.1719,215 443.0469,215 Q444.1602,215 444.9414,214.7461 Q445.3906,214.6094 445.8984,214.1602 Q446.2305,213.9063 446.4063,213.8281 Q446.582,213.75 446.7969,213.75 Q447.207,213.75 447.5,214.082 Q447.8125,214.3945 447.8125,214.8438 Q447.8125,215.2734 447.3828,215.7813 Q446.7578,216.5234 445.7617,216.9336 Q444.4531,217.5 442.8516,217.5 Q440.9766,217.5 439.4727,216.7578 Q438.2617,216.1719 437.4023,214.9023 Q436.5625,213.6328 436.5625,212.1289 L436.5625,210.7617 Q436.5625,209.1992 437.3047,207.832 Q438.0664,206.4648 439.375,205.7422 Q440.7031,205 442.1875,205 Q443.0859,205 443.8672,205.3125 Q444.6484,205.625 445.3125,206.25 Z " fill="#000000"/><text fill="#000000" font-family="sans-serif" font-size="15" lengthAdjust="spacing" textLength="280" x="468.4375" y="216.7627">CompanyPerformanceAnalysisController</text><line style="stroke:#A80036;stroke-width:1.875;" x1="353.75" x2="822.5" y1="230.625" y2="230.625"/><text fill="#000000" font-family="sans-serif" font-size="13.75" lengthAdjust="spacing" textLength="122.5" x="360" y="249.8987">+getTestOverview()</text><text fill="#000000" font-family="sans-serif" font-size="13.75" lengthAdjust="spacing" textLength="456.25" x="360" y="267.1936">+findWorstSubInt(firstDayToAnalyse, lastDayToAnalyse, chosen Algorithm)</text><!--MD5=[3404723274ca4ec774b8d2f7e379376f]
class CompanyPerformanceAnalysisUI--><rect codeLine="32" fill="#FEFECE" filter="url(#f1xn6amigzc87i)" height="40" id="CompanyPerformanceAnalysisUI" style="stroke:#A80036;stroke-width:1.875;" width="267.5" x="8.75" y="213.125"/><ellipse cx="27.5" cy="233.125" fill="#ADD1B2" rx="13.75" ry="13.75" style="stroke:#A80036;stroke-width:1.25;"/><path d="M30,228.75 Q30.2539,228.125 30.5469,227.8125 Q30.8398,227.5 31.1719,227.5 Q31.7578,227.5 32.1289,227.8516 Q32.5,228.2031 32.5,229.0234 L32.5,230.9766 Q32.5,231.7969 32.1484,232.1484 Q31.7969,232.5 31.25,232.5 Q30.7617,232.5 30.4492,232.2852 Q30.1367,232.0703 30,231.5039 Q29.9414,231.1133 29.7266,230.8984 Q29.3359,230.4883 28.6328,230.2539 Q27.9297,230 27.2266,230 Q26.3477,230 25.6055,230.3516 Q24.8828,230.7031 24.3164,231.4844 Q23.75,232.2656 23.75,233.3398 L23.75,234.4922 Q23.75,235.7813 24.8047,236.6406 Q25.8594,237.5 27.7344,237.5 Q28.8477,237.5 29.6289,237.2461 Q30.0781,237.1094 30.5859,236.6602 Q30.918,236.4063 31.0938,236.3281 Q31.2695,236.25 31.4844,236.25 Q31.8945,236.25 32.1875,236.582 Q32.5,236.8945 32.5,237.3438 Q32.5,237.7734 32.0703,238.2813 Q31.4453,239.0234 30.4492,239.4336 Q29.1406,240 27.5391,240 Q25.6641,240 24.1602,239.2578 Q22.9492,238.6719 22.0898,237.4023 Q21.25,236.1328 21.25,234.6289 L21.25,233.2617 Q21.25,231.6992 21.9922,230.332 Q22.7539,228.9648 24.0625,228.2422 Q25.3906,227.5 26.875,227.5 Q27.7734,227.5 28.5547,227.8125 Q29.3359,228.125 30,228.75 Z " fill="#000000"/><text fill="#000000" font-family="sans-serif" font-size="15" lengthAdjust="spacing" textLength="227.5" x="45" y="239.2627">CompanyPerformanceAnalysisUI</text><!--MD5=[5b29af9deb3324aeb9c231daa5002dba]
link CompanyPerformanceAnalysisUI to CompanyPerformanceAnalysisController--><path codeLine="35" d="M276.7,233.125 C298.6125,233.125 321.9,233.125 345.4875,233.125 " fill="none" id="CompanyPerformanceAnalysisUI-to-CompanyPerformanceAnalysisController" style="stroke:#A80036;stroke-width:1.25;stroke-dasharray:7.0,7.0;"/><polygon fill="#A80036" points="352.15,233.125,340.9,228.125,345.9,233.125,340.9,238.125,352.15,233.125" style="stroke:#A80036;stroke-width:1.25;"/><!--MD5=[5ce4db4ce32c27ecea6aaa74e26a0164]
link CompanyPerformanceAnalysisController to Company--><path codeLine="36" d="M697.825,190.5875 C759.9375,166.225 836.6,136.15 893.55,113.825 " fill="none" id="CompanyPerformanceAnalysisController-to-Company" style="stroke:#A80036;stroke-width:1.25;stroke-dasharray:7.0,7.0;"/><polygon fill="#A80036" points="899.7,111.4125,887.4009,110.87,893.8824,113.6967,891.0556,120.1782,899.7,111.4125" style="stroke:#A80036;stroke-width:1.25;"/><!--MD5=[556445e2a8ca4c0c6a33a05341a7825e]
link CompanyPerformanceAnalysisController to ClientStore--><path codeLine="37" d="M736.8125,275.6625 C797.25,293.1 863.9875,312.35 911.4125,326.025 " fill="none" id="CompanyPerformanceAnalysisController-to-ClientStore" style="stroke:#A80036;stroke-width:1.25;stroke-dasharray:7.0,7.0;"/><polygon fill="#A80036" points="917.675,327.8375,908.2469,319.9208,911.6688,326.1087,905.4809,329.5306,917.675,327.8375" style="stroke:#A80036;stroke-width:1.25;"/><!--MD5=[d03b593c12afa5f3c42671c11d6ed63b]
link CompanyPerformanceAnalysisController to TestStore--><path codeLine="38" d="M824.25,233.125 C858.325,233.125 890.55,233.125 916.3875,233.125 " fill="none" id="CompanyPerformanceAnalysisController-to-TestStore" style="stroke:#A80036;stroke-width:1.25;stroke-dasharray:7.0,7.0;"/><polygon fill="#A80036" points="922.825,233.125,911.575,228.125,916.575,233.125,911.575,238.125,922.825,233.125" style="stroke:#A80036;stroke-width:1.25;"/><!--MD5=[9998b5a258ee6660099648093819515e]
link Company to CompanyPerformanceAnalysis--><path codeLine="39" d="M1052.525,81.875 C1086.225,81.875 1127.025,81.875 1165.5625,81.875 " fill="none" id="Company-to-CompanyPerformanceAnalysis" style="stroke:#A80036;stroke-width:1.25;"/><polygon fill="#A80036" points="1172.225,81.875,1160.975,76.875,1165.975,81.875,1160.975,86.875,1172.225,81.875" style="stroke:#A80036;stroke-width:1.25;"/><polygon fill="#000000" points="1102.5,70.8447,1091.1936,67.1711,1091.1936,74.5184,1102.5,70.8447" style="stroke:#000000;stroke-width:1.25;"/><text fill="#000000" font-family="sans-serif" font-size="16.25" lengthAdjust="spacing" textLength="26.25" x="1107.5" y="77.4939">has</text><text fill="#000000" font-family="sans-serif" font-size="16.25" lengthAdjust="spacing" textLength="8.75" x="1062.3542" y="99.9757">1</text><text fill="#000000" font-family="sans-serif" font-size="16.25" lengthAdjust="spacing" textLength="6.25" x="1156.0487" y="99.542">*</text><!--MD5=[b9e2f46d64ffcedca2cabfc6a63f807e]
@startuml
hide empty methods
hide empty attributes
left to right direction
skinparam classAttributeIconSize 0

class Company {
    -String designation
    -TestStore testStore
    -ClientStore clientStore
    +getTestStore()
    +getClientStore()
}

class CompanyPerformanceAnalysis{
-ArrayList<Integer> worstSubInt
+addWorstSubInt(worstSubInt)
}

class TestStore {
+getTestsInfo
}

class ClientStore {
+getClientInfo()
}

class CompanyPerformanceAnalysisController{
+getTestOverview()
+findWorstSubInt(firstDayToAnalyse, lastDayToAnalyse, chosen Algorithm)
}

class CompanyPerformanceAnalysisUI{
}

CompanyPerformanceAnalysisUI ..> CompanyPerformanceAnalysisController
CompanyPerformanceAnalysisController ..> Company
CompanyPerformanceAnalysisController ..> ClientStore
CompanyPerformanceAnalysisController ..> TestStore
Company "1" - -> "*" CompanyPerformanceAnalysis : has >

@enduml

PlantUML version 1.2021.7(Sun May 23 13:40:07 BST 2021)
(GPL source distribution)
Java Runtime: OpenJDK Runtime Environment
JVM: Dynamic Code Evolution 64-Bit Server VM
Default Encoding: Cp1252
Language: pt
Country: PT
--></g></svg>