<?xml version="1.0" encoding="UTF-8" standalone="no"?><svg xmlns="http://www.w3.org/2000/svg" xmlns:xlink="http://www.w3.org/1999/xlink" contentScriptType="application/ecmascript" contentStyleType="text/css" height="300px" preserveAspectRatio="none" style="width:725px;height:300px;background:#FFFFFF;" version="1.1" viewBox="0 0 725 300" width="725px" zoomAndPan="magnify"><defs><filter height="300%" id="f1eagf4ftf19co" width="300%" x="-1" y="-1"><feGaussianBlur result="blurOut" stdDeviation="2.5"/><feColorMatrix in="blurOut" result="blurOut2" type="matrix" values="0 0 0 0 0 0 0 0 0 0 0 0 0 0 0 0 0 0 .4 0"/><feOffset dx="5.0" dy="5.0" in="blurOut2" result="blurOut3"/><feBlend in="SourceGraphic" in2="blurOut3" mode="normal"/></filter></defs><g><!--MD5=[2c2e2644034c00788261e03c85b06837]
cluster Core--><polygon fill="#FFFFFF" filter="url(#f1eagf4ftf19co)" points="121.25,7.5,171.25,7.5,180,37.0117,703.75,37.0117,703.75,291.25,121.25,291.25,121.25,7.5" style="stroke:#000000;stroke-width:1.875;"/><line style="stroke:#000000;stroke-width:1.875;" x1="121.25" x2="180" y1="37.0117" y2="37.0117"/><text fill="#000000" font-family="sans-serif" font-size="17.5" font-weight="bold" lengthAdjust="spacing" textLength="42.5" x="126.25" y="28.1665">Core</text><!--MD5=[121a8bf1197281ab89ed693fab589f94]
cluster Domain--><polygon fill="#FFFFFF" filter="url(#f1eagf4ftf19co)" points="323.75,72.5,396.25,72.5,405,102.0117,663.75,102.0117,663.75,251.25,323.75,251.25,323.75,72.5" style="stroke:#000000;stroke-width:1.875;"/><line style="stroke:#000000;stroke-width:1.875;" x1="323.75" x2="405" y1="102.0117" y2="102.0117"/><text fill="#000000" font-family="sans-serif" font-size="17.5" font-weight="bold" lengthAdjust="spacing" textLength="65" x="328.75" y="93.1665">Domain</text><polygon fill="#FFFFFF" filter="url(#f1eagf4ftf19co)" points="353.75,128.125,416.25,128.125,425,157.6367,433.75,157.6367,433.75,197.1484,353.75,197.1484,353.75,128.125" style="stroke:#000000;stroke-width:1.875;"/><line style="stroke:#000000;stroke-width:1.875;" x1="353.75" x2="425" y1="157.6367" y2="157.6367"/><text fill="#000000" font-family="sans-serif" font-size="17.5" font-weight="bold" lengthAdjust="spacing" textLength="55" x="358.75" y="148.7915">Model</text><polygon fill="#FFFFFF" filter="url(#f1eagf4ftf19co)" points="561.25,128.125,616.25,128.125,625,157.6367,633.75,157.6367,633.75,197.1484,561.25,197.1484,561.25,128.125" style="stroke:#000000;stroke-width:1.875;"/><line style="stroke:#000000;stroke-width:1.875;" x1="561.25" x2="625" y1="157.6367" y2="157.6367"/><text fill="#000000" font-family="sans-serif" font-size="17.5" font-weight="bold" lengthAdjust="spacing" textLength="47.5" x="566.25" y="148.7915">Store</text><polygon fill="#FFFFFF" filter="url(#f1eagf4ftf19co)" points="141.25,201.875,237.5,201.875,246.25,231.3867,255,231.3867,255,270.8984,141.25,270.8984,141.25,201.875" style="stroke:#000000;stroke-width:1.875;"/><line style="stroke:#000000;stroke-width:1.875;" x1="141.25" x2="246.25" y1="231.3867" y2="231.3867"/><text fill="#000000" font-family="sans-serif" font-size="17.5" font-weight="bold" lengthAdjust="spacing" textLength="88.75" x="146.25" y="222.5415">Controller</text><polygon fill="#FFFFFF" filter="url(#f1eagf4ftf19co)" points="20,201.875,45,201.875,53.75,231.3867,62.5,231.3867,62.5,270.8984,20,270.8984,20,201.875" style="stroke:#000000;stroke-width:1.875;"/><line style="stroke:#000000;stroke-width:1.875;" x1="20" x2="53.75" y1="231.3867" y2="231.3867"/><text fill="#000000" font-family="sans-serif" font-size="17.5" font-weight="bold" lengthAdjust="spacing" textLength="17.5" x="25" y="222.5415">UI</text><!--MD5=[132c963044dc2a803644bb1c6fd2eeb1]
link UI to Controller--><path d="M62.6875,236.25 C80.9875,236.25 108.9625,236.25 134.65,236.25 " fill="none" id="UI-to-Controller" style="stroke:#A80036;stroke-width:1.25;stroke-dasharray:7.0,7.0;"/><polygon fill="#A80036" points="141.1125,236.25,129.8625,231.25,134.8625,236.25,129.8625,241.25,141.1125,236.25" style="stroke:#A80036;stroke-width:1.25;"/><!--MD5=[5eef8fc34ee0f8a6e9a4917deebd15c5]
link Controller to Domain--><path d="M255.2375,237.7 C269.2719,238.0625 284.7117,238.4617 300.0152,238.8576 C307.667,239.0556 315.2847,239.2527 322.6755,239.444 C322.9065,239.4499 323.1372,239.4559 323.3678,239.4619 " fill="none" id="Controller-to-Domain" style="stroke:#A80036;stroke-width:1.25;stroke-dasharray:7.0,7.0;"/><polygon fill="#A80036" points="323.3678,239.4619,312.2509,234.1725,317.1199,239.3002,311.9922,244.1691,323.3678,239.4619" style="stroke:#A80036;stroke-width:1.25;"/><!--MD5=[5a887953c81670e82bf0effada931465]
link Model to Store--><path d="M433.8,162.5 C468.425,162.5 519,162.5 554.4875,162.5 " fill="none" id="Model-to-Store" style="stroke:#A80036;stroke-width:1.25;"/><polygon fill="#A80036" points="560.9375,162.5,549.6875,157.5,554.6875,162.5,549.6875,167.5,560.9375,162.5" style="stroke:#A80036;stroke-width:1.25;"/><text fill="#000000" font-family="sans-serif" font-size="16.25" lengthAdjust="spacing" textLength="50" x="472.5" y="158.1189">uses &gt;</text><!--MD5=[7189f059c84b2ae1539af61d96d2ec83]
@startuml
hide empty methods
hide empty attributes
left to right direction
skinparam classAttributeIconSize 0

package Core {

package Domain {
package Model {}
package Store {}
}

package Controller {}

}


package UI {}

UI ..> Controller
Controller ..> Domain
Model - -> Store : uses >

@enduml

PlantUML version 1.2021.7(Sun May 23 13:40:07 BST 2021)
(GPL source distribution)
Java Runtime: OpenJDK Runtime Environment
JVM: Dynamic Code Evolution 64-Bit Server VM
Default Encoding: Cp1252
Language: pt
Country: PT
--></g></svg>