<?xml version="1.0" encoding="UTF-8" standalone="no"?><svg xmlns="http://www.w3.org/2000/svg" xmlns:xlink="http://www.w3.org/1999/xlink" contentScriptType="application/ecmascript" contentStyleType="text/css" height="412.5px" preserveAspectRatio="none" style="width:743px;height:412px;background:#FFFFFF;" version="1.1" viewBox="0 0 743 412" width="743.75px" zoomAndPan="magnify"><defs><filter height="300%" id="f1u9e9jv2z2urh" width="300%" x="-1" y="-1"><feGaussianBlur result="blurOut" stdDeviation="2.5"/><feColorMatrix in="blurOut" result="blurOut2" type="matrix" values="0 0 0 0 0 0 0 0 0 0 0 0 0 0 0 0 0 0 .4 0"/><feOffset dx="5.0" dy="5.0" in="blurOut2" result="blurOut3"/><feBlend in="SourceGraphic" in2="blurOut3" mode="normal"/></filter></defs><g><!--MD5=[2c2e2644034c00788261e03c85b06837]
cluster Core--><polygon fill="#FFFFFF" filter="url(#f1u9e9jv2z2urh)" points="121.25,7.5,171.25,7.5,180,37.0117,722.5,37.0117,722.5,403.75,121.25,403.75,121.25,7.5" style="stroke:#000000;stroke-width:1.875;"/><line style="stroke:#000000;stroke-width:1.875;" x1="121.25" x2="180" y1="37.0117" y2="37.0117"/><text fill="#000000" font-family="sans-serif" font-size="17.5" font-weight="bold" lengthAdjust="spacing" textLength="42.5" x="126.25" y="28.1665">Core</text><!--MD5=[121a8bf1197281ab89ed693fab589f94]
cluster Domain--><polygon fill="#FFFFFF" filter="url(#f1u9e9jv2z2urh)" points="323.75,72.5,396.25,72.5,405,102.0117,682.5,102.0117,682.5,363.75,323.75,363.75,323.75,72.5" style="stroke:#000000;stroke-width:1.875;"/><line style="stroke:#000000;stroke-width:1.875;" x1="323.75" x2="405" y1="102.0117" y2="102.0117"/><text fill="#000000" font-family="sans-serif" font-size="17.5" font-weight="bold" lengthAdjust="spacing" textLength="65" x="328.75" y="93.1665">Domain</text><polygon fill="#FFFFFF" filter="url(#f1u9e9jv2z2urh)" points="370.625,128.125,433.125,128.125,441.875,157.6367,450.625,157.6367,450.625,197.1484,370.625,197.1484,370.625,128.125" style="stroke:#000000;stroke-width:1.875;"/><line style="stroke:#000000;stroke-width:1.875;" x1="370.625" x2="441.875" y1="157.6367" y2="157.6367"/><text fill="#000000" font-family="sans-serif" font-size="17.5" font-weight="bold" lengthAdjust="spacing" textLength="55" x="375.625" y="148.7915">Model</text><polygon fill="#FFFFFF" filter="url(#f1u9e9jv2z2urh)" points="580,128.125,635,128.125,643.75,157.6367,652.5,157.6367,652.5,197.1484,580,197.1484,580,128.125" style="stroke:#000000;stroke-width:1.875;"/><line style="stroke:#000000;stroke-width:1.875;" x1="580" x2="643.75" y1="157.6367" y2="157.6367"/><text fill="#000000" font-family="sans-serif" font-size="17.5" font-weight="bold" lengthAdjust="spacing" textLength="47.5" x="585" y="148.7915">Store</text><polygon fill="#FFFFFF" filter="url(#f1u9e9jv2z2urh)" points="353.75,240.625,450,240.625,458.75,270.1367,467.5,270.1367,467.5,309.6484,353.75,309.6484,353.75,240.625" style="stroke:#000000;stroke-width:1.875;"/><line style="stroke:#000000;stroke-width:1.875;" x1="353.75" x2="458.75" y1="270.1367" y2="270.1367"/><text fill="#000000" font-family="sans-serif" font-size="17.5" font-weight="bold" lengthAdjust="spacing" textLength="88.75" x="358.75" y="261.2915">Interfaces</text><polygon fill="#FFFFFF" filter="url(#f1u9e9jv2z2urh)" points="141.25,314.375,237.5,314.375,246.25,343.8867,255,343.8867,255,383.3984,141.25,383.3984,141.25,314.375" style="stroke:#000000;stroke-width:1.875;"/><line style="stroke:#000000;stroke-width:1.875;" x1="141.25" x2="246.25" y1="343.8867" y2="343.8867"/><text fill="#000000" font-family="sans-serif" font-size="17.5" font-weight="bold" lengthAdjust="spacing" textLength="88.75" x="146.25" y="335.0415">Controller</text><polygon fill="#FFFFFF" filter="url(#f1u9e9jv2z2urh)" points="20,314.375,45,314.375,53.75,343.8867,62.5,343.8867,62.5,383.3984,20,383.3984,20,314.375" style="stroke:#000000;stroke-width:1.875;"/><line style="stroke:#000000;stroke-width:1.875;" x1="20" x2="53.75" y1="343.8867" y2="343.8867"/><text fill="#000000" font-family="sans-serif" font-size="17.5" font-weight="bold" lengthAdjust="spacing" textLength="17.5" x="25" y="335.0415">UI</text><!--MD5=[132c963044dc2a803644bb1c6fd2eeb1]
link UI to Controller--><path d="M62.6875,348.75 C80.9875,348.75 108.9625,348.75 134.65,348.75 " fill="none" id="UI-to-Controller" style="stroke:#A80036;stroke-width:1.25;stroke-dasharray:7.0,7.0;"/><polygon fill="#A80036" points="141.1125,348.75,129.8625,343.75,134.8625,348.75,129.8625,353.75,141.1125,348.75" style="stroke:#A80036;stroke-width:1.25;"/><!--MD5=[5eef8fc34ee0f8a6e9a4917deebd15c5]
link Controller to Domain--><path d="M255.1,350.075 C270.4094,350.4406 287.5266,350.8492 304.6348,351.2574 C308.9118,351.3595 313.1883,351.4615 317.4358,351.5628 C318.4977,351.5882 319.5578,351.6134 320.6156,351.6387 C321.1445,351.6513 321.6729,351.6639 322.2006,351.6765 C322.4645,351.6828 322.7282,351.6891 322.9917,351.6954 " fill="none" id="Controller-to-Domain" style="stroke:#A80036;stroke-width:1.25;stroke-dasharray:7.0,7.0;"/><polygon fill="#A80036" points="322.9917,351.6954,311.8642,346.4285,316.7435,351.5463,311.6257,356.4257,322.9917,351.6954" style="stroke:#A80036;stroke-width:1.25;"/><!--MD5=[5a887953c81670e82bf0effada931465]
link Model to Store--><path d="M451.0375,162.5 C486.1,162.5 537.3375,162.5 573.1875,162.5 " fill="none" id="Model-to-Store" style="stroke:#A80036;stroke-width:1.25;"/><polygon fill="#A80036" points="579.6875,162.5,568.4375,157.5,573.4375,162.5,568.4375,167.5,579.6875,162.5" style="stroke:#A80036;stroke-width:1.25;"/><text fill="#000000" font-family="sans-serif" font-size="16.25" lengthAdjust="spacing" textLength="35" x="506.25" y="158.1189">uses</text><!--MD5=[5c4e8fe63ff17eb797e4c22b78e6d6f6]
@startuml
hide empty methods
hide empty attributes
left to right direction
skinparam classAttributeIconSize 0

package Core {

package Domain {
package Model {}
package Store {}
package Interfaces{}
}

package Controller {}

}


package UI {}

UI ..> Controller
Controller ..> Domain
Model - -> Store : uses

@enduml

PlantUML version 1.2021.7(Sun May 23 13:40:07 BST 2021)
(GPL source distribution)
Java Runtime: OpenJDK Runtime Environment
JVM: Dynamic Code Evolution 64-Bit Server VM
Default Encoding: Cp1252
Language: pt
Country: PT
--></g></svg>