<?xml version="1.0" encoding="UTF-8" standalone="no"?><svg xmlns="http://www.w3.org/2000/svg" xmlns:xlink="http://www.w3.org/1999/xlink" contentScriptType="application/ecmascript" contentStyleType="text/css" height="945px" preserveAspectRatio="none" style="width:2263px;height:945px;background:#FFFFFF;" version="1.1" viewBox="0 0 2263 945" width="2263.75px" zoomAndPan="magnify"><defs><filter height="300%" id="fv340us3z8wih" width="300%" x="-1" y="-1"><feGaussianBlur result="blurOut" stdDeviation="2.5"/><feColorMatrix in="blurOut" result="blurOut2" type="matrix" values="0 0 0 0 0 0 0 0 0 0 0 0 0 0 0 0 0 0 .4 0"/><feOffset dx="5.0" dy="5.0" in="blurOut2" result="blurOut3"/><feBlend in="SourceGraphic" in2="blurOut3" mode="normal"/></filter></defs><g><!--MD5=[2c2e2644034c00788261e03c85b06837]
cluster Core--><polygon fill="#FFFFFF" filter="url(#fv340us3z8wih)" points="428.75,7.5,478.75,7.5,487.5,37.0117,2242.5,37.0117,2242.5,911.25,428.75,911.25,428.75,7.5" style="stroke:#000000;stroke-width:1.875;"/><line style="stroke:#000000;stroke-width:1.875;" x1="428.75" x2="487.5" y1="37.0117" y2="37.0117"/><text fill="#000000" font-family="sans-serif" font-size="17.5" font-weight="bold" lengthAdjust="spacing" textLength="42.5" x="433.75" y="28.1665">Core</text><!--MD5=[121a8bf1197281ab89ed693fab589f94]
cluster Domain--><polygon fill="#FFFFFF" filter="url(#fv340us3z8wih)" points="1035,310,1107.5,310,1116.25,339.5117,2212.5,339.5117,2212.5,881.25,1035,881.25,1035,310" style="stroke:#000000;stroke-width:1.875;"/><line style="stroke:#000000;stroke-width:1.875;" x1="1035" x2="1116.25" y1="339.5117" y2="339.5117"/><text fill="#000000" font-family="sans-serif" font-size="17.5" font-weight="bold" lengthAdjust="spacing" textLength="65" x="1040" y="330.6665">Domain</text><!--MD5=[15636c1ca4a123c16a2a1a8e90aca7a9]
cluster Model--><polygon fill="#FFFFFF" filter="url(#fv340us3z8wih)" points="1962.5,527.5,2025,527.5,2033.75,557.0117,2182.5,557.0117,2182.5,851.25,1962.5,851.25,1962.5,527.5" style="stroke:#000000;stroke-width:1.875;"/><line style="stroke:#000000;stroke-width:1.875;" x1="1962.5" x2="2033.75" y1="557.0117" y2="557.0117"/><text fill="#000000" font-family="sans-serif" font-size="17.5" font-weight="bold" lengthAdjust="spacing" textLength="55" x="1967.5" y="548.1665">Model</text><!--MD5=[0b89f7d34c26fffbb81ea7301eb9df33]
cluster Interfaces--><polygon fill="#FFFFFF" filter="url(#fv340us3z8wih)" points="1213.125,708.75,1309.375,708.75,1318.125,738.2617,1455.625,738.2617,1455.625,851.25,1213.125,851.25,1213.125,708.75" style="stroke:#000000;stroke-width:1.875;"/><line style="stroke:#000000;stroke-width:1.875;" x1="1213.125" x2="1318.125" y1="738.2617" y2="738.2617"/><text fill="#000000" font-family="sans-serif" font-size="17.5" font-weight="bold" lengthAdjust="spacing" textLength="88.75" x="1218.125" y="729.4165">Interfaces</text><!--MD5=[7ce1723ddb6e6233854253973eae5a71]
cluster Store--><polygon fill="#FFFFFF" filter="url(#fv340us3z8wih)" points="1065,365,1120,365,1128.75,394.5117,1603.75,394.5117,1603.75,678.75,1065,678.75,1065,365" style="stroke:#000000;stroke-width:1.875;"/><line style="stroke:#000000;stroke-width:1.875;" x1="1065" x2="1128.75" y1="394.5117" y2="394.5117"/><text fill="#000000" font-family="sans-serif" font-size="17.5" font-weight="bold" lengthAdjust="spacing" textLength="47.5" x="1070" y="385.6665">Store</text><!--MD5=[aedc30b8666742a3000193d7e0a0b93e]
cluster Adapters--><polygon fill="#FFFFFF" filter="url(#fv340us3z8wih)" points="1645,532.5,1731.25,532.5,1740,562.0117,1921.25,562.0117,1921.25,776.25,1645,776.25,1645,532.5" style="stroke:#000000;stroke-width:1.875;"/><line style="stroke:#000000;stroke-width:1.875;" x1="1645" x2="1740" y1="562.0117" y2="562.0117"/><text fill="#000000" font-family="sans-serif" font-size="17.5" font-weight="bold" lengthAdjust="spacing" textLength="78.75" x="1650" y="553.1665">Adapters</text><!--MD5=[1f2cfc53d9d308f53762fd0fcbaa4873]
cluster Controller--><polygon fill="#FFFFFF" filter="url(#fv340us3z8wih)" points="458.75,511.25,555,511.25,563.75,540.7617,895,540.7617,895,808.75,458.75,808.75,458.75,511.25" style="stroke:#000000;stroke-width:1.875;"/><line style="stroke:#000000;stroke-width:1.875;" x1="458.75" x2="563.75" y1="540.7617" y2="540.7617"/><text fill="#000000" font-family="sans-serif" font-size="17.5" font-weight="bold" lengthAdjust="spacing" textLength="88.75" x="463.75" y="531.9165">Controller</text><!--MD5=[c29634d7cdbe8f1c1e88f2fe66ae73ec]
cluster ThirdParty--><polygon fill="#FFFFFF" filter="url(#fv340us3z8wih)" points="1982.5,62.5,2078.75,62.5,2087.5,92.0117,2162.5,92.0117,2162.5,280,1982.5,280,1982.5,62.5" style="stroke:#000000;stroke-width:1.875;"/><line style="stroke:#000000;stroke-width:1.875;" x1="1982.5" x2="2087.5" y1="92.0117" y2="92.0117"/><text fill="#000000" font-family="sans-serif" font-size="17.5" font-weight="bold" lengthAdjust="spacing" textLength="88.75" x="1987.5" y="83.1665">ThirdParty</text><!--MD5=[0d079ae59d318396171bf167e6cb96b6]
cluster APIs--><polygon fill="#FFFFFF" filter="url(#fv340us3z8wih)" points="2012.5,117.5,2057.5,117.5,2066.25,147.0117,2132.5,147.0117,2132.5,250,2012.5,250,2012.5,117.5" style="stroke:#000000;stroke-width:1.875;"/><line style="stroke:#000000;stroke-width:1.875;" x1="2012.5" x2="2066.25" y1="147.0117" y2="147.0117"/><text fill="#000000" font-family="sans-serif" font-size="17.5" font-weight="bold" lengthAdjust="spacing" textLength="37.5" x="2017.5" y="138.1665">APIs</text><!--MD5=[9681dc6e01e10c6b4fe06895ae94f592]
cluster UI--><polygon fill="#FFFFFF" filter="url(#fv340us3z8wih)" points="20,552.5,45,552.5,53.75,582.0117,387.5,582.0117,387.5,742.5,20,742.5,20,552.5" style="stroke:#000000;stroke-width:1.875;"/><line style="stroke:#000000;stroke-width:1.875;" x1="20" x2="53.75" y1="582.0117" y2="582.0117"/><text fill="#000000" font-family="sans-serif" font-size="17.5" font-weight="bold" lengthAdjust="spacing" textLength="17.5" x="25" y="573.1665">UI</text><!--MD5=[b27c5c9af3cea12247b1c4c8d3c78770]
cluster GUI--><polygon fill="#FFFFFF" filter="url(#fv340us3z8wih)" points="50,607.5,88.75,607.5,97.5,637.0117,357.5,637.0117,357.5,712.5,50,712.5,50,607.5" style="stroke:#000000;stroke-width:1.875;"/><line style="stroke:#000000;stroke-width:1.875;" x1="50" x2="97.5" y1="637.0117" y2="637.0117"/><text fill="#000000" font-family="sans-serif" font-size="17.5" font-weight="bold" lengthAdjust="spacing" textLength="31.25" x="55" y="628.1665">GUI</text><!--MD5=[02e4b9b7573f1156f41e60aa5b4e25a4]
class Company--><rect codeLine="13" fill="#FEFECE" filter="url(#fv340us3z8wih)" height="146.4746" id="Company" style="stroke:#A80036;stroke-width:1.875;" width="152.5" x="1996.25" y="684.375"/><ellipse cx="2035.8125" cy="704.375" fill="#ADD1B2" rx="13.75" ry="13.75" style="stroke:#A80036;stroke-width:1.25;"/><path d="M2038.3125,700 Q2038.5664,699.375 2038.8594,699.0625 Q2039.1523,698.75 2039.4844,698.75 Q2040.0703,698.75 2040.4414,699.1016 Q2040.8125,699.4531 2040.8125,700.2734 L2040.8125,702.2266 Q2040.8125,703.0469 2040.4609,703.3984 Q2040.1094,703.75 2039.5625,703.75 Q2039.0742,703.75 2038.7617,703.5352 Q2038.4492,703.3203 2038.3125,702.7539 Q2038.2539,702.3633 2038.0391,702.1484 Q2037.6484,701.7383 2036.9453,701.5039 Q2036.2422,701.25 2035.5391,701.25 Q2034.6602,701.25 2033.918,701.6016 Q2033.1953,701.9531 2032.6289,702.7344 Q2032.0625,703.5156 2032.0625,704.5898 L2032.0625,705.7422 Q2032.0625,707.0313 2033.1172,707.8906 Q2034.1719,708.75 2036.0469,708.75 Q2037.1602,708.75 2037.9414,708.4961 Q2038.3906,708.3594 2038.8984,707.9102 Q2039.2305,707.6563 2039.4063,707.5781 Q2039.582,707.5 2039.7969,707.5 Q2040.207,707.5 2040.5,707.832 Q2040.8125,708.1445 2040.8125,708.5938 Q2040.8125,709.0234 2040.3828,709.5313 Q2039.7578,710.2734 2038.7617,710.6836 Q2037.4531,711.25 2035.8516,711.25 Q2033.9766,711.25 2032.4727,710.5078 Q2031.2617,709.9219 2030.4023,708.6523 Q2029.5625,707.3828 2029.5625,705.8789 L2029.5625,704.5117 Q2029.5625,702.9492 2030.3047,701.582 Q2031.0664,700.2148 2032.375,699.4922 Q2033.7031,698.75 2035.1875,698.75 Q2036.0859,698.75 2036.8672,699.0625 Q2037.6484,699.375 2038.3125,700 Z " fill="#000000"/><text fill="#000000" font-family="sans-serif" font-size="15" lengthAdjust="spacing" textLength="66.25" x="2057.9375" y="710.5127">Company</text><line style="stroke:#A80036;stroke-width:1.875;" x1="1997.5" x2="2147.5" y1="724.375" y2="724.375"/><text fill="#000000" font-family="sans-serif" font-size="13.75" lengthAdjust="spacing" textLength="112.5" x="2003.75" y="743.6487">-String designation</text><text fill="#000000" font-family="sans-serif" font-size="13.75" lengthAdjust="spacing" textLength="122.5" x="2003.75" y="760.9436">-TestStore testStore</text><text fill="#000000" font-family="sans-serif" font-size="13.75" lengthAdjust="spacing" textLength="137.5" x="2003.75" y="778.2385">-ClientStore clientStore</text><line style="stroke:#A80036;stroke-width:1.875;" x1="1997.5" x2="2147.5" y1="786.2598" y2="786.2598"/><text fill="#000000" font-family="sans-serif" font-size="13.75" lengthAdjust="spacing" textLength="95" x="2003.75" y="805.5334">+getTestStore()</text><text fill="#000000" font-family="sans-serif" font-size="13.75" lengthAdjust="spacing" textLength="101.25" x="2003.75" y="822.8284">+getClientStore()</text><!--MD5=[1dec90c14ec2ba3af2708f621be65d00]
class BruteForceAlgorithm--><rect codeLine="21" fill="#FEFECE" filter="url(#fv340us3z8wih)" height="67.2949" id="BruteForceAlgorithm" style="stroke:#A80036;stroke-width:1.875;" width="180" x="1982.5" y="572.5"/><ellipse cx="2001.25" cy="592.5" fill="#ADD1B2" rx="13.75" ry="13.75" style="stroke:#A80036;stroke-width:1.25;"/><path d="M2003.75,588.125 Q2004.0039,587.5 2004.2969,587.1875 Q2004.5898,586.875 2004.9219,586.875 Q2005.5078,586.875 2005.8789,587.2266 Q2006.25,587.5781 2006.25,588.3984 L2006.25,590.3516 Q2006.25,591.1719 2005.8984,591.5234 Q2005.5469,591.875 2005,591.875 Q2004.5117,591.875 2004.1992,591.6602 Q2003.8867,591.4453 2003.75,590.8789 Q2003.6914,590.4883 2003.4766,590.2734 Q2003.0859,589.8633 2002.3828,589.6289 Q2001.6797,589.375 2000.9766,589.375 Q2000.0977,589.375 1999.3555,589.7266 Q1998.6328,590.0781 1998.0664,590.8594 Q1997.5,591.6406 1997.5,592.7148 L1997.5,593.8672 Q1997.5,595.1563 1998.5547,596.0156 Q1999.6094,596.875 2001.4844,596.875 Q2002.5977,596.875 2003.3789,596.6211 Q2003.8281,596.4844 2004.3359,596.0352 Q2004.668,595.7813 2004.8438,595.7031 Q2005.0195,595.625 2005.2344,595.625 Q2005.6445,595.625 2005.9375,595.957 Q2006.25,596.2695 2006.25,596.7188 Q2006.25,597.1484 2005.8203,597.6563 Q2005.1953,598.3984 2004.1992,598.8086 Q2002.8906,599.375 2001.2891,599.375 Q1999.4141,599.375 1997.9102,598.6328 Q1996.6992,598.0469 1995.8398,596.7773 Q1995,595.5078 1995,594.0039 L1995,592.6367 Q1995,591.0742 1995.7422,589.707 Q1996.5039,588.3398 1997.8125,587.6172 Q1999.1406,586.875 2000.625,586.875 Q2001.5234,586.875 2002.3047,587.1875 Q2003.0859,587.5 2003.75,588.125 Z " fill="#000000"/><text fill="#000000" font-family="sans-serif" font-size="15" lengthAdjust="spacing" textLength="140" x="2018.75" y="598.6377">BruteForceAlgorithm</text><line style="stroke:#A80036;stroke-width:1.875;" x1="1983.75" x2="2161.25" y1="612.5" y2="612.5"/><text fill="#000000" font-family="sans-serif" font-size="13.75" lengthAdjust="spacing" textLength="65" x="1990" y="631.7737">+Max(seq)</text><!--MD5=[03e21a3a74a4ec725edc90da8949a6b4]
class SubMaxSumAlgorithms--><rect codeLine="29" fill="#FEFECE" filter="url(#fv340us3z8wih)" height="77.5293" id="SubMaxSumAlgorithms" style="stroke:#A80036;stroke-width:1.875;" width="202.5" x="1233.125" y="753.75"/><ellipse cx="1251.875" cy="778.8672" fill="#B4A7E5" rx="13.75" ry="13.75" style="stroke:#A80036;stroke-width:1.25;"/><path d="M1253.125,775.1172 L1253.125,782.6172 L1255.625,782.6172 L1256.2305,782.6172 L1256.875,783.3984 L1256.875,783.8672 L1256.875,784.3359 L1256.2305,785.1172 L1255.625,785.1172 L1248.125,785.1172 L1247.5195,785.1172 L1246.875,784.3359 L1246.875,783.8672 L1246.875,783.3984 L1247.5195,782.6172 L1248.125,782.6172 L1250.625,782.6172 L1250.625,775.1172 L1248.125,775.1172 L1247.5195,775.1172 L1246.875,774.3359 L1246.875,773.8672 L1246.875,773.3984 L1247.5195,772.6172 L1248.125,772.6172 L1255.625,772.6172 L1256.2305,772.6172 L1256.875,773.3984 L1256.875,773.8672 L1256.875,774.3359 L1256.2305,775.1172 L1255.625,775.1172 L1253.125,775.1172 Z " fill="#000000"/><text fill="#000000" font-family="sans-serif" font-size="15" font-style="italic" lengthAdjust="spacing" textLength="76.25" x="1312.5" y="775.5713">«interface»</text><text fill="#000000" font-family="sans-serif" font-size="15" font-style="italic" lengthAdjust="spacing" textLength="162.5" x="1269.375" y="794.4385">SubMaxSumAlgorithms</text><line style="stroke:#A80036;stroke-width:1.875;" x1="1234.375" x2="1434.375" y1="803.9844" y2="803.9844"/><text fill="#000000" font-family="sans-serif" font-size="13.75" lengthAdjust="spacing" textLength="158.75" x="1240.625" y="823.2581">+findSubMaxSum(interval)</text><!--MD5=[0f6f7964b844a64b0496af0dda7914bd]
class TestStore--><rect codeLine="37" fill="#FEFECE" filter="url(#fv340us3z8wih)" height="136.4746" id="TestStore" style="stroke:#A80036;stroke-width:1.875;" width="498.75" x="1085" y="521.875"/><ellipse cx="1295.9375" cy="541.875" fill="#ADD1B2" rx="13.75" ry="13.75" style="stroke:#A80036;stroke-width:1.25;"/><path d="M1298.4375,537.5 Q1298.6914,536.875 1298.9844,536.5625 Q1299.2773,536.25 1299.6094,536.25 Q1300.1953,536.25 1300.5664,536.6016 Q1300.9375,536.9531 1300.9375,537.7734 L1300.9375,539.7266 Q1300.9375,540.5469 1300.5859,540.8984 Q1300.2344,541.25 1299.6875,541.25 Q1299.1992,541.25 1298.8867,541.0352 Q1298.5742,540.8203 1298.4375,540.2539 Q1298.3789,539.8633 1298.1641,539.6484 Q1297.7734,539.2383 1297.0703,539.0039 Q1296.3672,538.75 1295.6641,538.75 Q1294.7852,538.75 1294.043,539.1016 Q1293.3203,539.4531 1292.7539,540.2344 Q1292.1875,541.0156 1292.1875,542.0898 L1292.1875,543.2422 Q1292.1875,544.5313 1293.2422,545.3906 Q1294.2969,546.25 1296.1719,546.25 Q1297.2852,546.25 1298.0664,545.9961 Q1298.5156,545.8594 1299.0234,545.4102 Q1299.3555,545.1563 1299.5313,545.0781 Q1299.707,545 1299.9219,545 Q1300.332,545 1300.625,545.332 Q1300.9375,545.6445 1300.9375,546.0938 Q1300.9375,546.5234 1300.5078,547.0313 Q1299.8828,547.7734 1298.8867,548.1836 Q1297.5781,548.75 1295.9766,548.75 Q1294.1016,548.75 1292.5977,548.0078 Q1291.3867,547.4219 1290.5273,546.1523 Q1289.6875,544.8828 1289.6875,543.3789 L1289.6875,542.0117 Q1289.6875,540.4492 1290.4297,539.082 Q1291.1914,537.7148 1292.5,536.9922 Q1293.8281,536.25 1295.3125,536.25 Q1296.2109,536.25 1296.9922,536.5625 Q1297.7734,536.875 1298.4375,537.5 Z " fill="#000000"/><text fill="#000000" font-family="sans-serif" font-size="15" lengthAdjust="spacing" textLength="66.25" x="1321.5625" y="548.0127">TestStore</text><line style="stroke:#A80036;stroke-width:1.875;" x1="1086.25" x2="1582.5" y1="561.875" y2="561.875"/><text fill="#000000" font-family="sans-serif" font-size="13.75" lengthAdjust="spacing" textLength="440" x="1092.5" y="581.1487">+getNumTestsWaitingForResultsDayOrInterval(beginningDay, endingDay)</text><text fill="#000000" font-family="sans-serif" font-size="13.75" lengthAdjust="spacing" textLength="453.75" x="1092.5" y="598.4436">+getNumTestsWaitingForDiagnosisDayOrInterval(beginningDay, endingDay)</text><text fill="#000000" font-family="sans-serif" font-size="13.75" lengthAdjust="spacing" textLength="428.75" x="1092.5" y="615.7385">+getNumTestsProcessedInLabDayOrInterval(beginningDay, endingDay)</text><text fill="#000000" font-family="sans-serif" font-size="13.75" lengthAdjust="spacing" textLength="483.75" x="1092.5" y="633.0334">+getNumberOfTestsByIntervalDateOfTestRegistration(beginningDay, endingDay)</text><text fill="#000000" font-family="sans-serif" font-size="13.75" lengthAdjust="spacing" textLength="445" x="1092.5" y="650.3284">+getNumberOfTestsByIntervalDateOfDiagnosis(beginningDay, endingDay)</text><!--MD5=[55cb992be19579b505cea3c5691093cb]
class ClientStore--><rect codeLine="45" fill="#FEFECE" filter="url(#fv340us3z8wih)" height="67.2949" id="ClientStore" style="stroke:#A80036;stroke-width:1.875;" width="116.25" x="1276.25" y="410"/><ellipse cx="1295" cy="430" fill="#ADD1B2" rx="13.75" ry="13.75" style="stroke:#A80036;stroke-width:1.25;"/><path d="M1297.5,425.625 Q1297.7539,425 1298.0469,424.6875 Q1298.3398,424.375 1298.6719,424.375 Q1299.2578,424.375 1299.6289,424.7266 Q1300,425.0781 1300,425.8984 L1300,427.8516 Q1300,428.6719 1299.6484,429.0234 Q1299.2969,429.375 1298.75,429.375 Q1298.2617,429.375 1297.9492,429.1602 Q1297.6367,428.9453 1297.5,428.3789 Q1297.4414,427.9883 1297.2266,427.7734 Q1296.8359,427.3633 1296.1328,427.1289 Q1295.4297,426.875 1294.7266,426.875 Q1293.8477,426.875 1293.1055,427.2266 Q1292.3828,427.5781 1291.8164,428.3594 Q1291.25,429.1406 1291.25,430.2148 L1291.25,431.3672 Q1291.25,432.6563 1292.3047,433.5156 Q1293.3594,434.375 1295.2344,434.375 Q1296.3477,434.375 1297.1289,434.1211 Q1297.5781,433.9844 1298.0859,433.5352 Q1298.418,433.2813 1298.5938,433.2031 Q1298.7695,433.125 1298.9844,433.125 Q1299.3945,433.125 1299.6875,433.457 Q1300,433.7695 1300,434.2188 Q1300,434.6484 1299.5703,435.1563 Q1298.9453,435.8984 1297.9492,436.3086 Q1296.6406,436.875 1295.0391,436.875 Q1293.1641,436.875 1291.6602,436.1328 Q1290.4492,435.5469 1289.5898,434.2773 Q1288.75,433.0078 1288.75,431.5039 L1288.75,430.1367 Q1288.75,428.5742 1289.4922,427.207 Q1290.2539,425.8398 1291.5625,425.1172 Q1292.8906,424.375 1294.375,424.375 Q1295.2734,424.375 1296.0547,424.6875 Q1296.8359,425 1297.5,425.625 Z " fill="#000000"/><text fill="#000000" font-family="sans-serif" font-size="15" lengthAdjust="spacing" textLength="76.25" x="1312.5" y="436.1377">ClientStore</text><line style="stroke:#A80036;stroke-width:1.875;" x1="1277.5" x2="1391.25" y1="450" y2="450"/><text fill="#000000" font-family="sans-serif" font-size="13.75" lengthAdjust="spacing" textLength="76.25" x="1283.75" y="469.2737">+getClients()</text><!--MD5=[f4a38599b97b911edb1e154f571cf5e4]
class BenchmarkAlgorithmAdapter--><rect codeLine="115" fill="#FEFECE" filter="url(#fv340us3z8wih)" height="67.2949" id="BenchmarkAlgorithmAdapter" style="stroke:#A80036;stroke-width:1.875;" width="236.25" x="1665" y="577.5"/><ellipse cx="1683.75" cy="597.5" fill="#ADD1B2" rx="13.75" ry="13.75" style="stroke:#A80036;stroke-width:1.25;"/><path d="M1686.25,593.125 Q1686.5039,592.5 1686.7969,592.1875 Q1687.0898,591.875 1687.4219,591.875 Q1688.0078,591.875 1688.3789,592.2266 Q1688.75,592.5781 1688.75,593.3984 L1688.75,595.3516 Q1688.75,596.1719 1688.3984,596.5234 Q1688.0469,596.875 1687.5,596.875 Q1687.0117,596.875 1686.6992,596.6602 Q1686.3867,596.4453 1686.25,595.8789 Q1686.1914,595.4883 1685.9766,595.2734 Q1685.5859,594.8633 1684.8828,594.6289 Q1684.1797,594.375 1683.4766,594.375 Q1682.5977,594.375 1681.8555,594.7266 Q1681.1328,595.0781 1680.5664,595.8594 Q1680,596.6406 1680,597.7148 L1680,598.8672 Q1680,600.1563 1681.0547,601.0156 Q1682.1094,601.875 1683.9844,601.875 Q1685.0977,601.875 1685.8789,601.6211 Q1686.3281,601.4844 1686.8359,601.0352 Q1687.168,600.7813 1687.3438,600.7031 Q1687.5195,600.625 1687.7344,600.625 Q1688.1445,600.625 1688.4375,600.957 Q1688.75,601.2695 1688.75,601.7188 Q1688.75,602.1484 1688.3203,602.6563 Q1687.6953,603.3984 1686.6992,603.8086 Q1685.3906,604.375 1683.7891,604.375 Q1681.9141,604.375 1680.4102,603.6328 Q1679.1992,603.0469 1678.3398,601.7773 Q1677.5,600.5078 1677.5,599.0039 L1677.5,597.6367 Q1677.5,596.0742 1678.2422,594.707 Q1679.0039,593.3398 1680.3125,592.6172 Q1681.6406,591.875 1683.125,591.875 Q1684.0234,591.875 1684.8047,592.1875 Q1685.5859,592.5 1686.25,593.125 Z " fill="#000000"/><text fill="#000000" font-family="sans-serif" font-size="15" lengthAdjust="spacing" textLength="196.25" x="1701.25" y="603.6377">BenchmarkAlgorithmAdapter</text><line style="stroke:#A80036;stroke-width:1.875;" x1="1666.25" x2="1900" y1="617.5" y2="617.5"/><text fill="#000000" font-family="sans-serif" font-size="13.75" lengthAdjust="spacing" textLength="158.75" x="1672.5" y="636.7737">+findSubMaxSum(interval)</text><!--MD5=[3d195b319a9e341286852cea89c88ec3]
class BruteForceAlgorithmAdapter--><rect codeLine="116" fill="#FEFECE" filter="url(#fv340us3z8wih)" height="67.2949" id="BruteForceAlgorithmAdapter" style="stroke:#A80036;stroke-width:1.875;" width="232.5" x="1666.875" y="688.75"/><ellipse cx="1685.625" cy="708.75" fill="#ADD1B2" rx="13.75" ry="13.75" style="stroke:#A80036;stroke-width:1.25;"/><path d="M1688.125,704.375 Q1688.3789,703.75 1688.6719,703.4375 Q1688.9648,703.125 1689.2969,703.125 Q1689.8828,703.125 1690.2539,703.4766 Q1690.625,703.8281 1690.625,704.6484 L1690.625,706.6016 Q1690.625,707.4219 1690.2734,707.7734 Q1689.9219,708.125 1689.375,708.125 Q1688.8867,708.125 1688.5742,707.9102 Q1688.2617,707.6953 1688.125,707.1289 Q1688.0664,706.7383 1687.8516,706.5234 Q1687.4609,706.1133 1686.7578,705.8789 Q1686.0547,705.625 1685.3516,705.625 Q1684.4727,705.625 1683.7305,705.9766 Q1683.0078,706.3281 1682.4414,707.1094 Q1681.875,707.8906 1681.875,708.9648 L1681.875,710.1172 Q1681.875,711.4063 1682.9297,712.2656 Q1683.9844,713.125 1685.8594,713.125 Q1686.9727,713.125 1687.7539,712.8711 Q1688.2031,712.7344 1688.7109,712.2852 Q1689.043,712.0313 1689.2188,711.9531 Q1689.3945,711.875 1689.6094,711.875 Q1690.0195,711.875 1690.3125,712.207 Q1690.625,712.5195 1690.625,712.9688 Q1690.625,713.3984 1690.1953,713.9063 Q1689.5703,714.6484 1688.5742,715.0586 Q1687.2656,715.625 1685.6641,715.625 Q1683.7891,715.625 1682.2852,714.8828 Q1681.0742,714.2969 1680.2148,713.0273 Q1679.375,711.7578 1679.375,710.2539 L1679.375,708.8867 Q1679.375,707.3242 1680.1172,705.957 Q1680.8789,704.5898 1682.1875,703.8672 Q1683.5156,703.125 1685,703.125 Q1685.8984,703.125 1686.6797,703.4375 Q1687.4609,703.75 1688.125,704.375 Z " fill="#000000"/><text fill="#000000" font-family="sans-serif" font-size="15" lengthAdjust="spacing" textLength="192.5" x="1703.125" y="714.8877">BruteForceAlgorithmAdapter</text><line style="stroke:#A80036;stroke-width:1.875;" x1="1668.125" x2="1898.125" y1="728.75" y2="728.75"/><text fill="#000000" font-family="sans-serif" font-size="13.75" lengthAdjust="spacing" textLength="158.75" x="1674.375" y="748.0237">+findSubMaxSum(interval)</text><!--MD5=[670275f839cd0f6ae295f6f439fd6034]
class CompanyPerformanceAnalysisController--><rect codeLine="67" fill="#FEFECE" filter="url(#fv340us3z8wih)" height="232.9492" id="CompanyPerformanceAnalysisController" style="stroke:#A80036;stroke-width:1.875;" width="396.25" x="478.75" y="556.25"/><ellipse cx="531.8125" cy="576.25" fill="#ADD1B2" rx="13.75" ry="13.75" style="stroke:#A80036;stroke-width:1.25;"/><path d="M534.3125,571.875 Q534.5664,571.25 534.8594,570.9375 Q535.1523,570.625 535.4844,570.625 Q536.0703,570.625 536.4414,570.9766 Q536.8125,571.3281 536.8125,572.1484 L536.8125,574.1016 Q536.8125,574.9219 536.4609,575.2734 Q536.1094,575.625 535.5625,575.625 Q535.0742,575.625 534.7617,575.4102 Q534.4492,575.1953 534.3125,574.6289 Q534.2539,574.2383 534.0391,574.0234 Q533.6484,573.6133 532.9453,573.3789 Q532.2422,573.125 531.5391,573.125 Q530.6602,573.125 529.918,573.4766 Q529.1953,573.8281 528.6289,574.6094 Q528.0625,575.3906 528.0625,576.4648 L528.0625,577.6172 Q528.0625,578.9063 529.1172,579.7656 Q530.1719,580.625 532.0469,580.625 Q533.1602,580.625 533.9414,580.3711 Q534.3906,580.2344 534.8984,579.7852 Q535.2305,579.5313 535.4063,579.4531 Q535.582,579.375 535.7969,579.375 Q536.207,579.375 536.5,579.707 Q536.8125,580.0195 536.8125,580.4688 Q536.8125,580.8984 536.3828,581.4063 Q535.7578,582.1484 534.7617,582.5586 Q533.4531,583.125 531.8516,583.125 Q529.9766,583.125 528.4727,582.3828 Q527.2617,581.7969 526.4023,580.5273 Q525.5625,579.2578 525.5625,577.7539 L525.5625,576.3867 Q525.5625,574.8242 526.3047,573.457 Q527.0664,572.0898 528.375,571.3672 Q529.7031,570.625 531.1875,570.625 Q532.0859,570.625 532.8672,570.9375 Q533.6484,571.25 534.3125,571.875 Z " fill="#000000"/><text fill="#000000" font-family="sans-serif" font-size="15" lengthAdjust="spacing" textLength="280" x="556.9375" y="582.3877">CompanyPerformanceAnalysisController</text><line style="stroke:#A80036;stroke-width:1.875;" x1="480" x2="873.75" y1="596.25" y2="596.25"/><text fill="#000000" font-family="sans-serif" font-size="13.75" lengthAdjust="spacing" textLength="120" x="486.25" y="615.5237">-Company company</text><line style="stroke:#A80036;stroke-width:1.875;" x1="480" x2="873.75" y1="623.5449" y2="623.5449"/><text fill="#000000" font-family="sans-serif" font-size="13.75" lengthAdjust="spacing" textLength="102.5" x="486.25" y="642.8186">+getNumClients()</text><text fill="#000000" font-family="sans-serif" font-size="13.75" lengthAdjust="spacing" textLength="158.75" x="486.25" y="660.1135">+getTestInfoPerDay(days)</text><text fill="#000000" font-family="sans-serif" font-size="13.75" lengthAdjust="spacing" textLength="168.75" x="486.25" y="677.4084">+getTestInfoPerWeek(days)</text><text fill="#000000" font-family="sans-serif" font-size="13.75" lengthAdjust="spacing" textLength="171.25" x="486.25" y="694.7034">+getTestInfoPerMonth(days)</text><text fill="#000000" font-family="sans-serif" font-size="13.75" lengthAdjust="spacing" textLength="165" x="486.25" y="711.9983">+getTestInfoPerYear(days)</text><text fill="#000000" font-family="sans-serif" font-size="13.75" lengthAdjust="spacing" textLength="220" x="486.25" y="729.2932">+getDays(beginningDay, endingDay)</text><text fill="#000000" font-family="sans-serif" font-size="13.75" lengthAdjust="spacing" textLength="157.5" x="486.25" y="746.5881">+makeIntervalArray(days)</text><text fill="#000000" font-family="sans-serif" font-size="13.75" lengthAdjust="spacing" textLength="381.25" x="486.25" y="763.8831">+findWorstSubIntWithChosenAlgorithm(days, chosenAlgorithm)</text><text fill="#000000" font-family="sans-serif" font-size="13.75" lengthAdjust="spacing" textLength="288.75" x="486.25" y="781.178">+getChosenAlgorithmAdapter(chosenAlgorithm)</text><!--MD5=[bbc84d1aa0e7f30bd67b3f6e81f0f299]
class Sum--><rect codeLine="86" fill="#FEFECE" filter="url(#fv340us3z8wih)" height="67.2949" id="Sum" style="stroke:#A80036;stroke-width:1.875;" width="80" x="2032.5" y="162.5"/><ellipse cx="2054.625" cy="182.5" fill="#ADD1B2" rx="13.75" ry="13.75" style="stroke:#A80036;stroke-width:1.25;"/><path d="M2057.125,178.125 Q2057.3789,177.5 2057.6719,177.1875 Q2057.9648,176.875 2058.2969,176.875 Q2058.8828,176.875 2059.2539,177.2266 Q2059.625,177.5781 2059.625,178.3984 L2059.625,180.3516 Q2059.625,181.1719 2059.2734,181.5234 Q2058.9219,181.875 2058.375,181.875 Q2057.8867,181.875 2057.5742,181.6602 Q2057.2617,181.4453 2057.125,180.8789 Q2057.0664,180.4883 2056.8516,180.2734 Q2056.4609,179.8633 2055.7578,179.6289 Q2055.0547,179.375 2054.3516,179.375 Q2053.4727,179.375 2052.7305,179.7266 Q2052.0078,180.0781 2051.4414,180.8594 Q2050.875,181.6406 2050.875,182.7148 L2050.875,183.8672 Q2050.875,185.1563 2051.9297,186.0156 Q2052.9844,186.875 2054.8594,186.875 Q2055.9727,186.875 2056.7539,186.6211 Q2057.2031,186.4844 2057.7109,186.0352 Q2058.043,185.7813 2058.2188,185.7031 Q2058.3945,185.625 2058.6094,185.625 Q2059.0195,185.625 2059.3125,185.957 Q2059.625,186.2695 2059.625,186.7188 Q2059.625,187.1484 2059.1953,187.6563 Q2058.5703,188.3984 2057.5742,188.8086 Q2056.2656,189.375 2054.6641,189.375 Q2052.7891,189.375 2051.2852,188.6328 Q2050.0742,188.0469 2049.2148,186.7773 Q2048.375,185.5078 2048.375,184.0039 L2048.375,182.6367 Q2048.375,181.0742 2049.1172,179.707 Q2049.8789,178.3398 2051.1875,177.6172 Q2052.5156,176.875 2054,176.875 Q2054.8984,176.875 2055.6797,177.1875 Q2056.4609,177.5 2057.125,178.125 Z " fill="#000000"/><text fill="#000000" font-family="sans-serif" font-size="15" lengthAdjust="spacing" textLength="32.5" x="2072.875" y="188.6377">Sum</text><line style="stroke:#A80036;stroke-width:1.875;" x1="2033.75" x2="2111.25" y1="202.5" y2="202.5"/><text fill="#000000" font-family="sans-serif" font-size="13.75" lengthAdjust="spacing" textLength="65" x="2040" y="221.7737">+Max(seq)</text><!--MD5=[3404723274ca4ec774b8d2f7e379376f]
class CompanyPerformanceAnalysisUI--><rect codeLine="100" fill="#FEFECE" filter="url(#fv340us3z8wih)" height="40" id="CompanyPerformanceAnalysisUI" style="stroke:#A80036;stroke-width:1.875;" width="267.5" x="70" y="652.5"/><ellipse cx="88.75" cy="672.5" fill="#ADD1B2" rx="13.75" ry="13.75" style="stroke:#A80036;stroke-width:1.25;"/><path d="M91.25,668.125 Q91.5039,667.5 91.7969,667.1875 Q92.0898,666.875 92.4219,666.875 Q93.0078,666.875 93.3789,667.2266 Q93.75,667.5781 93.75,668.3984 L93.75,670.3516 Q93.75,671.1719 93.3984,671.5234 Q93.0469,671.875 92.5,671.875 Q92.0117,671.875 91.6992,671.6602 Q91.3867,671.4453 91.25,670.8789 Q91.1914,670.4883 90.9766,670.2734 Q90.5859,669.8633 89.8828,669.6289 Q89.1797,669.375 88.4766,669.375 Q87.5977,669.375 86.8555,669.7266 Q86.1328,670.0781 85.5664,670.8594 Q85,671.6406 85,672.7148 L85,673.8672 Q85,675.1563 86.0547,676.0156 Q87.1094,676.875 88.9844,676.875 Q90.0977,676.875 90.8789,676.6211 Q91.3281,676.4844 91.8359,676.0352 Q92.168,675.7813 92.3438,675.7031 Q92.5195,675.625 92.7344,675.625 Q93.1445,675.625 93.4375,675.957 Q93.75,676.2695 93.75,676.7188 Q93.75,677.1484 93.3203,677.6563 Q92.6953,678.3984 91.6992,678.8086 Q90.3906,679.375 88.7891,679.375 Q86.9141,679.375 85.4102,678.6328 Q84.1992,678.0469 83.3398,676.7773 Q82.5,675.5078 82.5,674.0039 L82.5,672.6367 Q82.5,671.0742 83.2422,669.707 Q84.0039,668.3398 85.3125,667.6172 Q86.6406,666.875 88.125,666.875 Q89.0234,666.875 89.8047,667.1875 Q90.5859,667.5 91.25,668.125 Z " fill="#000000"/><text fill="#000000" font-family="sans-serif" font-size="15" lengthAdjust="spacing" textLength="227.5" x="106.25" y="678.6377">CompanyPerformanceAnalysisUI</text><!--MD5=[5b29af9deb3324aeb9c231daa5002dba]
link CompanyPerformanceAnalysisUI to CompanyPerformanceAnalysisController--><path codeLine="107" d="M337.6625,672.5 C379.375,672.5 426.45,672.5 471.9125,672.5 " fill="none" id="CompanyPerformanceAnalysisUI-to-CompanyPerformanceAnalysisController" style="stroke:#A80036;stroke-width:1.25;stroke-dasharray:7.0,7.0;"/><polygon fill="#A80036" points="478.6125,672.5,467.3625,667.5,472.3625,672.5,467.3625,677.5,478.6125,672.5" style="stroke:#A80036;stroke-width:1.25;"/><!--MD5=[5ce4db4ce32c27ecea6aaa74e26a0164]
link CompanyPerformanceAnalysisController to Company--><path codeLine="108" d="M864.3875,788.9125 C914.675,814.55 970.35,838 1025,851.25 C1376.8375,936.575 1812.1625,833.1875 1989.9125,782.4625 " fill="none" id="CompanyPerformanceAnalysisController-to-Company" style="stroke:#A80036;stroke-width:1.25;stroke-dasharray:7.0,7.0;"/><polygon fill="#A80036" points="1996.125,780.675,1983.9296,778.9915,1990.1202,782.4085,1986.7032,788.5992,1996.125,780.675" style="stroke:#A80036;stroke-width:1.25;"/><!--MD5=[556445e2a8ca4c0c6a33a05341a7825e]
link CompanyPerformanceAnalysisController to ClientStore--><path codeLine="109" d="M875.3625,562.5125 C923.2375,539.175 975.0625,516.6125 1025,500 C1107.0625,472.7125 1206.0875,457.625 1269.325,450.1 " fill="none" id="CompanyPerformanceAnalysisController-to-ClientStore" style="stroke:#A80036;stroke-width:1.25;stroke-dasharray:7.0,7.0;"/><polygon fill="#A80036" points="1275.7,449.35,1263.941,445.7046,1269.4932,450.0834,1265.1144,455.6355,1275.7,449.35" style="stroke:#A80036;stroke-width:1.25;"/><!--MD5=[d03b593c12afa5f3c42671c11d6ed63b]
link CompanyPerformanceAnalysisController to TestStore--><path codeLine="110" d="M875.0875,647.6875 C938.9625,639.65 1010.75,630.6 1078.2125,622.1125 " fill="none" id="CompanyPerformanceAnalysisController-to-TestStore" style="stroke:#A80036;stroke-width:1.25;stroke-dasharray:7.0,7.0;"/><polygon fill="#A80036" points="1084.7375,621.2875,1072.958,617.709,1078.5349,622.0561,1074.1878,627.6331,1084.7375,621.2875" style="stroke:#A80036;stroke-width:1.25;"/><!--MD5=[1f5b511532344f36d5811b87494f5882]
link CompanyPerformanceAnalysisController to SubMaxSumAlgorithms--><path codeLine="111" d="M875.0875,708.5875 C990.475,729.725 1131.725,755.6 1226.5875,772.9875 " fill="none" id="CompanyPerformanceAnalysisController-to-SubMaxSumAlgorithms" style="stroke:#A80036;stroke-width:1.25;"/><polygon fill="#A80036" points="1232.775,774.1125,1222.6098,767.1677,1226.6272,772.9866,1220.8083,777.0041,1232.775,774.1125" style="stroke:#A80036;stroke-width:1.25;"/><text fill="#000000" font-family="sans-serif" font-size="16.25" lengthAdjust="spacing" textLength="97.5" x="916.25" y="713.1189">makes use of</text><text fill="#000000" font-family="sans-serif" font-size="16.25" lengthAdjust="spacing" textLength="8.75" x="884.9003" y="727.6885">1</text><text fill="#000000" font-family="sans-serif" font-size="16.25" lengthAdjust="spacing" textLength="8.75" x="1214.2554" y="790.2271">1</text><!--MD5=[6926410afba6dbb7662f77bf9a4beef8]
link BenchmarkAlgorithmAdapter to Sum--><path codeLine="112" d="M1807.85,577.2875 C1860.625,500.95 1988.35,316.175 2044.275,235.275 " fill="none" id="BenchmarkAlgorithmAdapter-to-Sum" style="stroke:#A80036;stroke-width:1.25;"/><polygon fill="#A80036" points="2047.85,230.1,2037.3412,236.5131,2044.2971,235.2419,2045.5683,242.1978,2047.85,230.1" style="stroke:#A80036;stroke-width:1.25;"/><!--MD5=[5c0b00d376c45fe49ede70ccf937dd89]
link BruteForceAlgorithmAdapter to BruteForceAlgorithm--><path codeLine="113" d="M1874.3,688.7 C1893.175,681.425 1912.9,673.6875 1931.25,666.25 C1949.525,658.8375 1969.025,650.65 1987.5,642.775 " fill="none" id="BruteForceAlgorithmAdapter-to-BruteForceAlgorithm" style="stroke:#A80036;stroke-width:1.25;"/><polygon fill="#A80036" points="1993.725,640.1125,1981.415,639.9484,1987.9803,642.5745,1985.3542,649.1398,1993.725,640.1125" style="stroke:#A80036;stroke-width:1.25;"/><!--MD5=[7500d493c54aadfc564551571970942a]
reverse link SubMaxSumAlgorithms to BenchmarkAlgorithmAdapter--><path d="M1459.2625,746.35 C1508.0875,726.9875 1564.2375,703.275 1613.75,678.75 C1623.5625,673.8875 1625.1125,670.9625 1635,666.25 C1650.6,658.8125 1667.5125,651.675 1684.1,645.15 " fill="none" id="SubMaxSumAlgorithms-backto-BenchmarkAlgorithmAdapter" style="stroke:#A80036;stroke-width:1.25;stroke-dasharray:7.0,7.0;"/><polygon fill="none" points="1462.4125,754.5125,1435.95,755.4875,1456.025,738.2125,1462.4125,754.5125" style="stroke:#A80036;stroke-width:1.25;"/><!--MD5=[2746a4793daa6de3b91732e823f67982]
reverse link SubMaxSumAlgorithms to BruteForceAlgorithmAdapter--><path d="M1460.7125,772.875 C1525.3125,762.75 1603.5875,750.4625 1666.7,740.5625 " fill="none" id="SubMaxSumAlgorithms-backto-BruteForceAlgorithmAdapter" style="stroke:#A80036;stroke-width:1.25;stroke-dasharray:7.0,7.0;"/><polygon fill="none" points="1461.825,781.5625,1435.775,776.7875,1459.1125,764.275,1461.825,781.5625" style="stroke:#A80036;stroke-width:1.25;"/><!--MD5=[e1183495bf7df526895458dd32da44d7]
@startuml
'skinparam linetype ortho
hide empty methods
hide empty attributes
left to right direction
skinparam classAttributeIconSize 0

package Core{

package Domain {

package Model{

class Company {
    -String designation
    -TestStore testStore
    -ClientStore clientStore
    +getTestStore()
    +getClientStore()
}

class BruteForceAlgorithm{
    +Max(seq)
}

}

package Interfaces {

interface SubMaxSumAlgorithms <<interface>> {
    +findSubMaxSum(interval)
}

}

package Store {

class TestStore {
    +getNumTestsWaitingForResultsDayOrInterval(beginningDay, endingDay)
    +getNumTestsWaitingForDiagnosisDayOrInterval(beginningDay, endingDay)
    +getNumTestsProcessedInLabDayOrInterval(beginningDay, endingDay)
    +getNumberOfTestsByIntervalDateOfTestRegistration(beginningDay, endingDay)
    +getNumberOfTestsByIntervalDateOfDiagnosis(beginningDay, endingDay)
}

class ClientStore {
    +getClients()
}

}

package Adapters{

class BenchmarkAlgorithmAdapter{
    +findSubMaxSum(interval)
}

class BruteForceAlgorithmAdapter{
    +findSubMaxSum(interval)
}

}

}

package Controller {

class CompanyPerformanceAnalysisController{
    -Company company
    +getNumClients()
    +getTestInfoPerDay(days)
    +getTestInfoPerWeek(days)
    +getTestInfoPerMonth(days)
    +getTestInfoPerYear(days)
    +getDays(beginningDay, endingDay)
    +makeIntervalArray(days)
    +findWorstSubIntWithChosenAlgorithm(days, chosenAlgorithm)
    +getChosenAlgorithmAdapter(chosenAlgorithm)
}

}

package ThirdParty{

package APIs {

class Sum{
    +Max(seq)
}

}

}

}

package UI {

package GUI{

class CompanyPerformanceAnalysisUI{
}

}

}

CompanyPerformanceAnalysisUI ..> CompanyPerformanceAnalysisController
CompanyPerformanceAnalysisController ..> Company
CompanyPerformanceAnalysisController ..> ClientStore
CompanyPerformanceAnalysisController ..> TestStore
CompanyPerformanceAnalysisController "1" - -> "1" SubMaxSumAlgorithms : makes use of
BenchmarkAlgorithmAdapter - -> Sum
BruteForceAlgorithmAdapter - -> BruteForceAlgorithm

class BenchmarkAlgorithmAdapter implements SubMaxSumAlgorithms
class BruteForceAlgorithmAdapter implements SubMaxSumAlgorithms

@enduml

@startuml
hide empty methods
hide empty attributes
left to right direction
skinparam classAttributeIconSize 0

package Core{

package Domain {

package Model{

class Company {
    -String designation
    -TestStore testStore
    -ClientStore clientStore
    +getTestStore()
    +getClientStore()
}

class BruteForceAlgorithm{
    +Max(seq)
}

}

package Interfaces {

interface SubMaxSumAlgorithms <<interface>> {
    +findSubMaxSum(interval)
}

}

package Store {

class TestStore {
    +getNumTestsWaitingForResultsDayOrInterval(beginningDay, endingDay)
    +getNumTestsWaitingForDiagnosisDayOrInterval(beginningDay, endingDay)
    +getNumTestsProcessedInLabDayOrInterval(beginningDay, endingDay)
    +getNumberOfTestsByIntervalDateOfTestRegistration(beginningDay, endingDay)
    +getNumberOfTestsByIntervalDateOfDiagnosis(beginningDay, endingDay)
}

class ClientStore {
    +getClients()
}

}

package Adapters{

class BenchmarkAlgorithmAdapter{
    +findSubMaxSum(interval)
}

class BruteForceAlgorithmAdapter{
    +findSubMaxSum(interval)
}

}

}

package Controller {

class CompanyPerformanceAnalysisController{
    -Company company
    +getNumClients()
    +getTestInfoPerDay(days)
    +getTestInfoPerWeek(days)
    +getTestInfoPerMonth(days)
    +getTestInfoPerYear(days)
    +getDays(beginningDay, endingDay)
    +makeIntervalArray(days)
    +findWorstSubIntWithChosenAlgorithm(days, chosenAlgorithm)
    +getChosenAlgorithmAdapter(chosenAlgorithm)
}

}

package ThirdParty{

package APIs {

class Sum{
    +Max(seq)
}

}

}

}

package UI {

package GUI{

class CompanyPerformanceAnalysisUI{
}

}

}

CompanyPerformanceAnalysisUI ..> CompanyPerformanceAnalysisController
CompanyPerformanceAnalysisController ..> Company
CompanyPerformanceAnalysisController ..> ClientStore
CompanyPerformanceAnalysisController ..> TestStore
CompanyPerformanceAnalysisController "1" - -> "1" SubMaxSumAlgorithms : makes use of
BenchmarkAlgorithmAdapter - -> Sum
BruteForceAlgorithmAdapter - -> BruteForceAlgorithm

class BenchmarkAlgorithmAdapter implements SubMaxSumAlgorithms
class BruteForceAlgorithmAdapter implements SubMaxSumAlgorithms

@enduml

PlantUML version 1.2021.7(Sun May 23 13:40:07 BST 2021)
(GPL source distribution)
Java Runtime: OpenJDK Runtime Environment
JVM: Dynamic Code Evolution 64-Bit Server VM
Default Encoding: Cp1252
Language: pt
Country: PT
--></g></svg>