<?xml version="1.0" encoding="UTF-8" standalone="no"?><svg xmlns="http://www.w3.org/2000/svg" xmlns:xlink="http://www.w3.org/1999/xlink" contentScriptType="application/ecmascript" contentStyleType="text/css" height="395px" preserveAspectRatio="none" style="width:1105px;height:395px;background:#FFFFFF;" version="1.1" viewBox="0 0 1105 395" width="1105px" zoomAndPan="magnify"><defs><filter height="300%" id="flgx5p8wr7rjg" width="300%" x="-1" y="-1"><feGaussianBlur result="blurOut" stdDeviation="2.5"/><feColorMatrix in="blurOut" result="blurOut2" type="matrix" values="0 0 0 0 0 0 0 0 0 0 0 0 0 0 0 0 0 0 .4 0"/><feOffset dx="5.0" dy="5.0" in="blurOut2" result="blurOut3"/><feBlend in="SourceGraphic" in2="blurOut3" mode="normal"/></filter></defs><g><!--MD5=[02e4b9b7573f1156f41e60aa5b4e25a4]
class Company--><rect codeLine="6" fill="#FEFECE" filter="url(#flgx5p8wr7rjg)" height="146.4746" id="Company" style="stroke:#A80036;stroke-width:1.875;" width="152.5" x="935" y="8.75"/><ellipse cx="974.5625" cy="28.75" fill="#ADD1B2" rx="13.75" ry="13.75" style="stroke:#A80036;stroke-width:1.25;"/><path d="M977.0625,24.375 Q977.3164,23.75 977.6094,23.4375 Q977.9023,23.125 978.2344,23.125 Q978.8203,23.125 979.1914,23.4766 Q979.5625,23.8281 979.5625,24.6484 L979.5625,26.6016 Q979.5625,27.4219 979.2109,27.7734 Q978.8594,28.125 978.3125,28.125 Q977.8242,28.125 977.5117,27.9102 Q977.1992,27.6953 977.0625,27.1289 Q977.0039,26.7383 976.7891,26.5234 Q976.3984,26.1133 975.6953,25.8789 Q974.9922,25.625 974.2891,25.625 Q973.4102,25.625 972.668,25.9766 Q971.9453,26.3281 971.3789,27.1094 Q970.8125,27.8906 970.8125,28.9648 L970.8125,30.1172 Q970.8125,31.4063 971.8672,32.2656 Q972.9219,33.125 974.7969,33.125 Q975.9102,33.125 976.6914,32.8711 Q977.1406,32.7344 977.6484,32.2852 Q977.9805,32.0313 978.1563,31.9531 Q978.332,31.875 978.5469,31.875 Q978.957,31.875 979.25,32.207 Q979.5625,32.5195 979.5625,32.9688 Q979.5625,33.3984 979.1328,33.9063 Q978.5078,34.6484 977.5117,35.0586 Q976.2031,35.625 974.6016,35.625 Q972.7266,35.625 971.2227,34.8828 Q970.0117,34.2969 969.1523,33.0273 Q968.3125,31.7578 968.3125,30.2539 L968.3125,28.8867 Q968.3125,27.3242 969.0547,25.957 Q969.8164,24.5898 971.125,23.8672 Q972.4531,23.125 973.9375,23.125 Q974.8359,23.125 975.6172,23.4375 Q976.3984,23.75 977.0625,24.375 Z " fill="#000000"/><text fill="#000000" font-family="sans-serif" font-size="15" lengthAdjust="spacing" textLength="66.25" x="996.6875" y="34.8877">Company</text><line style="stroke:#A80036;stroke-width:1.875;" x1="936.25" x2="1086.25" y1="48.75" y2="48.75"/><text fill="#000000" font-family="sans-serif" font-size="13.75" lengthAdjust="spacing" textLength="112.5" x="942.5" y="68.0237">-String designation</text><text fill="#000000" font-family="sans-serif" font-size="13.75" lengthAdjust="spacing" textLength="122.5" x="942.5" y="85.3186">-TestStore testStore</text><text fill="#000000" font-family="sans-serif" font-size="13.75" lengthAdjust="spacing" textLength="137.5" x="942.5" y="102.6135">-ClientStore clientStore</text><line style="stroke:#A80036;stroke-width:1.875;" x1="936.25" x2="1086.25" y1="110.6348" y2="110.6348"/><text fill="#000000" font-family="sans-serif" font-size="13.75" lengthAdjust="spacing" textLength="95" x="942.5" y="129.9084">+getTestStore()</text><text fill="#000000" font-family="sans-serif" font-size="13.75" lengthAdjust="spacing" textLength="101.25" x="942.5" y="147.2034">+getClientStore()</text><!--MD5=[0f6f7964b844a64b0496af0dda7914bd]
class TestStore--><rect codeLine="14" fill="#FEFECE" filter="url(#flgx5p8wr7rjg)" height="67.2949" id="TestStore" style="stroke:#A80036;stroke-width:1.875;" width="106.25" x="958.125" y="199.375"/><ellipse cx="976.875" cy="219.375" fill="#ADD1B2" rx="13.75" ry="13.75" style="stroke:#A80036;stroke-width:1.25;"/><path d="M979.375,215 Q979.6289,214.375 979.9219,214.0625 Q980.2148,213.75 980.5469,213.75 Q981.1328,213.75 981.5039,214.1016 Q981.875,214.4531 981.875,215.2734 L981.875,217.2266 Q981.875,218.0469 981.5234,218.3984 Q981.1719,218.75 980.625,218.75 Q980.1367,218.75 979.8242,218.5352 Q979.5117,218.3203 979.375,217.7539 Q979.3164,217.3633 979.1016,217.1484 Q978.7109,216.7383 978.0078,216.5039 Q977.3047,216.25 976.6016,216.25 Q975.7227,216.25 974.9805,216.6016 Q974.2578,216.9531 973.6914,217.7344 Q973.125,218.5156 973.125,219.5898 L973.125,220.7422 Q973.125,222.0313 974.1797,222.8906 Q975.2344,223.75 977.1094,223.75 Q978.2227,223.75 979.0039,223.4961 Q979.4531,223.3594 979.9609,222.9102 Q980.293,222.6563 980.4688,222.5781 Q980.6445,222.5 980.8594,222.5 Q981.2695,222.5 981.5625,222.832 Q981.875,223.1445 981.875,223.5938 Q981.875,224.0234 981.4453,224.5313 Q980.8203,225.2734 979.8242,225.6836 Q978.5156,226.25 976.9141,226.25 Q975.0391,226.25 973.5352,225.5078 Q972.3242,224.9219 971.4648,223.6523 Q970.625,222.3828 970.625,220.8789 L970.625,219.5117 Q970.625,217.9492 971.3672,216.582 Q972.1289,215.2148 973.4375,214.4922 Q974.7656,213.75 976.25,213.75 Q977.1484,213.75 977.9297,214.0625 Q978.7109,214.375 979.375,215 Z " fill="#000000"/><text fill="#000000" font-family="sans-serif" font-size="15" lengthAdjust="spacing" textLength="66.25" x="994.375" y="225.5127">TestStore</text><line style="stroke:#A80036;stroke-width:1.875;" x1="959.375" x2="1063.125" y1="239.375" y2="239.375"/><text fill="#000000" font-family="sans-serif" font-size="13.75" lengthAdjust="spacing" textLength="82.5" x="965.625" y="258.6487">+getTestsInfo</text><!--MD5=[55cb992be19579b505cea3c5691093cb]
class ClientStore--><rect codeLine="18" fill="#FEFECE" filter="url(#flgx5p8wr7rjg)" height="67.2949" id="ClientStore" style="stroke:#A80036;stroke-width:1.875;" width="116.25" x="953.125" y="310.625"/><ellipse cx="971.875" cy="330.625" fill="#ADD1B2" rx="13.75" ry="13.75" style="stroke:#A80036;stroke-width:1.25;"/><path d="M974.375,326.25 Q974.6289,325.625 974.9219,325.3125 Q975.2148,325 975.5469,325 Q976.1328,325 976.5039,325.3516 Q976.875,325.7031 976.875,326.5234 L976.875,328.4766 Q976.875,329.2969 976.5234,329.6484 Q976.1719,330 975.625,330 Q975.1367,330 974.8242,329.7852 Q974.5117,329.5703 974.375,329.0039 Q974.3164,328.6133 974.1016,328.3984 Q973.7109,327.9883 973.0078,327.7539 Q972.3047,327.5 971.6016,327.5 Q970.7227,327.5 969.9805,327.8516 Q969.2578,328.2031 968.6914,328.9844 Q968.125,329.7656 968.125,330.8398 L968.125,331.9922 Q968.125,333.2813 969.1797,334.1406 Q970.2344,335 972.1094,335 Q973.2227,335 974.0039,334.7461 Q974.4531,334.6094 974.9609,334.1602 Q975.293,333.9063 975.4688,333.8281 Q975.6445,333.75 975.8594,333.75 Q976.2695,333.75 976.5625,334.082 Q976.875,334.3945 976.875,334.8438 Q976.875,335.2734 976.4453,335.7813 Q975.8203,336.5234 974.8242,336.9336 Q973.5156,337.5 971.9141,337.5 Q970.0391,337.5 968.5352,336.7578 Q967.3242,336.1719 966.4648,334.9023 Q965.625,333.6328 965.625,332.1289 L965.625,330.7617 Q965.625,329.1992 966.3672,327.832 Q967.1289,326.4648 968.4375,325.7422 Q969.7656,325 971.25,325 Q972.1484,325 972.9297,325.3125 Q973.7109,325.625 974.375,326.25 Z " fill="#000000"/><text fill="#000000" font-family="sans-serif" font-size="15" lengthAdjust="spacing" textLength="76.25" x="989.375" y="336.7627">ClientStore</text><line style="stroke:#A80036;stroke-width:1.875;" x1="954.375" x2="1068.125" y1="350.625" y2="350.625"/><text fill="#000000" font-family="sans-serif" font-size="13.75" lengthAdjust="spacing" textLength="91.25" x="960.625" y="369.8987">+getClientInfo()</text><!--MD5=[670275f839cd0f6ae295f6f439fd6034]
class CompanyPerformanceAnalysisController--><rect codeLine="22" fill="#FEFECE" filter="url(#flgx5p8wr7rjg)" height="129.1797" id="CompanyPerformanceAnalysisController" style="stroke:#A80036;stroke-width:1.875;" width="508.75" x="351.25" y="168.75"/><ellipse cx="460.3125" cy="188.75" fill="#ADD1B2" rx="13.75" ry="13.75" style="stroke:#A80036;stroke-width:1.25;"/><path d="M462.8125,184.375 Q463.0664,183.75 463.3594,183.4375 Q463.6523,183.125 463.9844,183.125 Q464.5703,183.125 464.9414,183.4766 Q465.3125,183.8281 465.3125,184.6484 L465.3125,186.6016 Q465.3125,187.4219 464.9609,187.7734 Q464.6094,188.125 464.0625,188.125 Q463.5742,188.125 463.2617,187.9102 Q462.9492,187.6953 462.8125,187.1289 Q462.7539,186.7383 462.5391,186.5234 Q462.1484,186.1133 461.4453,185.8789 Q460.7422,185.625 460.0391,185.625 Q459.1602,185.625 458.418,185.9766 Q457.6953,186.3281 457.1289,187.1094 Q456.5625,187.8906 456.5625,188.9648 L456.5625,190.1172 Q456.5625,191.4063 457.6172,192.2656 Q458.6719,193.125 460.5469,193.125 Q461.6602,193.125 462.4414,192.8711 Q462.8906,192.7344 463.3984,192.2852 Q463.7305,192.0313 463.9063,191.9531 Q464.082,191.875 464.2969,191.875 Q464.707,191.875 465,192.207 Q465.3125,192.5195 465.3125,192.9688 Q465.3125,193.3984 464.8828,193.9063 Q464.2578,194.6484 463.2617,195.0586 Q461.9531,195.625 460.3516,195.625 Q458.4766,195.625 456.9727,194.8828 Q455.7617,194.2969 454.9023,193.0273 Q454.0625,191.7578 454.0625,190.2539 L454.0625,188.8867 Q454.0625,187.3242 454.8047,185.957 Q455.5664,184.5898 456.875,183.8672 Q458.2031,183.125 459.6875,183.125 Q460.5859,183.125 461.3672,183.4375 Q462.1484,183.75 462.8125,184.375 Z " fill="#000000"/><text fill="#000000" font-family="sans-serif" font-size="15" lengthAdjust="spacing" textLength="280" x="485.9375" y="194.8877">CompanyPerformanceAnalysisController</text><line style="stroke:#A80036;stroke-width:1.875;" x1="352.5" x2="858.75" y1="208.75" y2="208.75"/><text fill="#000000" font-family="sans-serif" font-size="13.75" lengthAdjust="spacing" textLength="120" x="358.75" y="228.0237">-Company company</text><line style="stroke:#A80036;stroke-width:1.875;" x1="352.5" x2="858.75" y1="236.0449" y2="236.0449"/><text fill="#000000" font-family="sans-serif" font-size="13.75" lengthAdjust="spacing" textLength="122.5" x="358.75" y="255.3186">+getTestOverview()</text><text fill="#000000" font-family="sans-serif" font-size="13.75" lengthAdjust="spacing" textLength="493.75" x="358.75" y="272.6135">+findWorstSubIntWithBenchmarkAlgorithm(firstDayToAnalyse, lastDayToAnalyse)</text><text fill="#000000" font-family="sans-serif" font-size="13.75" lengthAdjust="spacing" textLength="491.25" x="358.75" y="289.9084">+findWorstSubIntWithBruteforceAlgorithm(firstDayToAnalyse, lastDayToAnalyse)</text><!--MD5=[3404723274ca4ec774b8d2f7e379376f]
class CompanyPerformanceAnalysisUI--><rect codeLine="29" fill="#FEFECE" filter="url(#flgx5p8wr7rjg)" height="40" id="CompanyPerformanceAnalysisUI" style="stroke:#A80036;stroke-width:1.875;" width="267.5" x="8.75" y="213.125"/><ellipse cx="27.5" cy="233.125" fill="#ADD1B2" rx="13.75" ry="13.75" style="stroke:#A80036;stroke-width:1.25;"/><path d="M30,228.75 Q30.2539,228.125 30.5469,227.8125 Q30.8398,227.5 31.1719,227.5 Q31.7578,227.5 32.1289,227.8516 Q32.5,228.2031 32.5,229.0234 L32.5,230.9766 Q32.5,231.7969 32.1484,232.1484 Q31.7969,232.5 31.25,232.5 Q30.7617,232.5 30.4492,232.2852 Q30.1367,232.0703 30,231.5039 Q29.9414,231.1133 29.7266,230.8984 Q29.3359,230.4883 28.6328,230.2539 Q27.9297,230 27.2266,230 Q26.3477,230 25.6055,230.3516 Q24.8828,230.7031 24.3164,231.4844 Q23.75,232.2656 23.75,233.3398 L23.75,234.4922 Q23.75,235.7813 24.8047,236.6406 Q25.8594,237.5 27.7344,237.5 Q28.8477,237.5 29.6289,237.2461 Q30.0781,237.1094 30.5859,236.6602 Q30.918,236.4063 31.0938,236.3281 Q31.2695,236.25 31.4844,236.25 Q31.8945,236.25 32.1875,236.582 Q32.5,236.8945 32.5,237.3438 Q32.5,237.7734 32.0703,238.2813 Q31.4453,239.0234 30.4492,239.4336 Q29.1406,240 27.5391,240 Q25.6641,240 24.1602,239.2578 Q22.9492,238.6719 22.0898,237.4023 Q21.25,236.1328 21.25,234.6289 L21.25,233.2617 Q21.25,231.6992 21.9922,230.332 Q22.7539,228.9648 24.0625,228.2422 Q25.3906,227.5 26.875,227.5 Q27.7734,227.5 28.5547,227.8125 Q29.3359,228.125 30,228.75 Z " fill="#000000"/><text fill="#000000" font-family="sans-serif" font-size="15" lengthAdjust="spacing" textLength="227.5" x="45" y="239.2627">CompanyPerformanceAnalysisUI</text><!--MD5=[5b29af9deb3324aeb9c231daa5002dba]
link CompanyPerformanceAnalysisUI to CompanyPerformanceAnalysisController--><path codeLine="32" d="M276.3625,233.125 C297.9875,233.125 321.0125,233.125 344.4625,233.125 " fill="none" id="CompanyPerformanceAnalysisUI-to-CompanyPerformanceAnalysisController" style="stroke:#A80036;stroke-width:1.25;stroke-dasharray:7.0,7.0;"/><polygon fill="#A80036" points="351.0875,233.125,339.8375,228.125,344.8375,233.125,339.8375,238.125,351.0875,233.125" style="stroke:#A80036;stroke-width:1.25;"/><!--MD5=[5ce4db4ce32c27ecea6aaa74e26a0164]
link CompanyPerformanceAnalysisController to Company--><path codeLine="33" d="M779,168.5375 C830.8125,149.1 885.275,128.675 928.2875,112.525 " fill="none" id="CompanyPerformanceAnalysisController-to-Company" style="stroke:#A80036;stroke-width:1.25;stroke-dasharray:7.0,7.0;"/><polygon fill="#A80036" points="934.55,110.175,922.2607,109.4435,928.6979,112.3695,925.7719,118.8068,934.55,110.175" style="stroke:#A80036;stroke-width:1.25;"/><!--MD5=[556445e2a8ca4c0c6a33a05341a7825e]
link CompanyPerformanceAnalysisController to ClientStore--><path codeLine="34" d="M840.2125,297.5125 C879.3875,308.325 916.9125,318.6875 946.6875,326.9 " fill="none" id="CompanyPerformanceAnalysisController-to-ClientStore" style="stroke:#A80036;stroke-width:1.25;stroke-dasharray:7.0,7.0;"/><polygon fill="#A80036" points="952.925,328.625,943.4105,320.8124,946.9002,326.9624,940.7503,330.4521,952.925,328.625" style="stroke:#A80036;stroke-width:1.25;"/><!--MD5=[d03b593c12afa5f3c42671c11d6ed63b]
link CompanyPerformanceAnalysisController to TestStore--><path codeLine="35" d="M860.4625,233.125 C894.3375,233.125 926.1125,233.125 951.575,233.125 " fill="none" id="CompanyPerformanceAnalysisController-to-TestStore" style="stroke:#A80036;stroke-width:1.25;stroke-dasharray:7.0,7.0;"/><polygon fill="#A80036" points="957.9125,233.125,946.6625,228.125,951.6625,233.125,946.6625,238.125,957.9125,233.125" style="stroke:#A80036;stroke-width:1.25;"/><!--MD5=[4938c26b6bb554c2736bf56b0bafc06d]
@startuml
hide empty methods
hide empty attributes
left to right direction
skinparam classAttributeIconSize 0

class Company {
    -String designation
    -TestStore testStore
    -ClientStore clientStore
    +getTestStore()
    +getClientStore()
}

class TestStore {
    +getTestsInfo
}

class ClientStore {
    +getClientInfo()
}

class CompanyPerformanceAnalysisController{
    -Company company
    +getTestOverview()
    +findWorstSubIntWithBenchmarkAlgorithm(firstDayToAnalyse, lastDayToAnalyse)
    +findWorstSubIntWithBruteforceAlgorithm(firstDayToAnalyse, lastDayToAnalyse)
}

class CompanyPerformanceAnalysisUI{
}

CompanyPerformanceAnalysisUI ..> CompanyPerformanceAnalysisController
CompanyPerformanceAnalysisController ..> Company
CompanyPerformanceAnalysisController ..> ClientStore
CompanyPerformanceAnalysisController ..> TestStore

@enduml

PlantUML version 1.2021.7(Sun May 23 13:40:07 BST 2021)
(GPL source distribution)
Java Runtime: OpenJDK Runtime Environment
JVM: Dynamic Code Evolution 64-Bit Server VM
Default Encoding: Cp1252
Language: pt
Country: PT
--></g></svg>