<?xml version="1.0" encoding="UTF-8" standalone="no"?><svg xmlns="http://www.w3.org/2000/svg" xmlns:xlink="http://www.w3.org/1999/xlink" contentScriptType="application/ecmascript" contentStyleType="text/css" height="672.5px" preserveAspectRatio="none" style="width:1883px;height:672px;background:#FFFFFF;" version="1.1" viewBox="0 0 1883 672" width="1883.75px" zoomAndPan="magnify"><defs><filter height="300%" id="f4yfbsuuv5n3z" width="300%" x="-1" y="-1"><feGaussianBlur result="blurOut" stdDeviation="2.5"/><feColorMatrix in="blurOut" result="blurOut2" type="matrix" values="0 0 0 0 0 0 0 0 0 0 0 0 0 0 0 0 0 0 .4 0"/><feOffset dx="5.0" dy="5.0" in="blurOut2" result="blurOut3"/><feBlend in="SourceGraphic" in2="blurOut3" mode="normal"/></filter></defs><g><!--MD5=[121a8bf1197281ab89ed693fab589f94]
cluster Domain--><polygon fill="#FFFFFF" filter="url(#f4yfbsuuv5n3z)" points="1067.5,7.5,1140,7.5,1148.75,37.0117,1862.5,37.0117,1862.5,596.25,1067.5,596.25,1067.5,7.5" style="stroke:#000000;stroke-width:1.875;"/><line style="stroke:#000000;stroke-width:1.875;" x1="1067.5" x2="1148.75" y1="37.0117" y2="37.0117"/><text fill="#000000" font-family="sans-serif" font-size="17.5" font-weight="bold" lengthAdjust="spacing" textLength="65" x="1072.5" y="28.1665">Domain</text><!--MD5=[15636c1ca4a123c16a2a1a8e90aca7a9]
cluster Model--><polygon fill="#FFFFFF" filter="url(#f4yfbsuuv5n3z)" points="1608.75,67.5,1671.25,67.5,1680,97.0117,1832.5,97.0117,1832.5,502.5,1608.75,502.5,1608.75,67.5" style="stroke:#000000;stroke-width:1.875;"/><line style="stroke:#000000;stroke-width:1.875;" x1="1608.75" x2="1680" y1="97.0117" y2="97.0117"/><text fill="#000000" font-family="sans-serif" font-size="17.5" font-weight="bold" lengthAdjust="spacing" textLength="55" x="1613.75" y="88.1665">Model</text><!--MD5=[0b89f7d34c26fffbb81ea7301eb9df33]
cluster Interfaces--><polygon fill="#FFFFFF" filter="url(#f4yfbsuuv5n3z)" points="1211.25,62.5,1307.5,62.5,1316.25,92.0117,1453.75,92.0117,1453.75,205,1211.25,205,1211.25,62.5" style="stroke:#000000;stroke-width:1.875;"/><line style="stroke:#000000;stroke-width:1.875;" x1="1211.25" x2="1316.25" y1="92.0117" y2="92.0117"/><text fill="#000000" font-family="sans-serif" font-size="17.5" font-weight="bold" lengthAdjust="spacing" textLength="88.75" x="1216.25" y="83.1665">Interfaces</text><!--MD5=[7ce1723ddb6e6233854253973eae5a71]
cluster Store--><polygon fill="#FFFFFF" filter="url(#f4yfbsuuv5n3z)" points="1097.5,235,1152.5,235,1161.25,264.5117,1567.5,264.5117,1567.5,566.25,1097.5,566.25,1097.5,235" style="stroke:#000000;stroke-width:1.875;"/><line style="stroke:#000000;stroke-width:1.875;" x1="1097.5" x2="1161.25" y1="264.5117" y2="264.5117"/><text fill="#000000" font-family="sans-serif" font-size="17.5" font-weight="bold" lengthAdjust="spacing" textLength="47.5" x="1102.5" y="255.6665">Store</text><!--MD5=[1f2cfc53d9d308f53762fd0fcbaa4873]
cluster Controller--><polygon fill="#FFFFFF" filter="url(#f4yfbsuuv5n3z)" points="368.75,355,465,355,473.75,384.5117,927.5,384.5117,927.5,585,368.75,585,368.75,355" style="stroke:#000000;stroke-width:1.875;"/><line style="stroke:#000000;stroke-width:1.875;" x1="368.75" x2="473.75" y1="384.5117" y2="384.5117"/><text fill="#000000" font-family="sans-serif" font-size="17.5" font-weight="bold" lengthAdjust="spacing" textLength="88.75" x="373.75" y="375.6665">Controller</text><!--MD5=[9681dc6e01e10c6b4fe06895ae94f592]
cluster UI--><polygon fill="#FFFFFF" filter="url(#f4yfbsuuv5n3z)" points="20,417.5,45,417.5,53.75,447.0117,327.5,447.0117,327.5,522.5,20,522.5,20,417.5" style="stroke:#000000;stroke-width:1.875;"/><line style="stroke:#000000;stroke-width:1.875;" x1="20" x2="53.75" y1="447.0117" y2="447.0117"/><text fill="#000000" font-family="sans-serif" font-size="17.5" font-weight="bold" lengthAdjust="spacing" textLength="17.5" x="25" y="438.1665">UI</text><!--MD5=[02e4b9b7573f1156f41e60aa5b4e25a4]
class Company--><rect codeLine="11" fill="#FEFECE" filter="url(#f4yfbsuuv5n3z)" height="146.4746" id="Company" style="stroke:#A80036;stroke-width:1.875;" width="152.5" x="1644.375" y="335.625"/><ellipse cx="1683.9375" cy="355.625" fill="#ADD1B2" rx="13.75" ry="13.75" style="stroke:#A80036;stroke-width:1.25;"/><path d="M1686.4375,351.25 Q1686.6914,350.625 1686.9844,350.3125 Q1687.2773,350 1687.6094,350 Q1688.1953,350 1688.5664,350.3516 Q1688.9375,350.7031 1688.9375,351.5234 L1688.9375,353.4766 Q1688.9375,354.2969 1688.5859,354.6484 Q1688.2344,355 1687.6875,355 Q1687.1992,355 1686.8867,354.7852 Q1686.5742,354.5703 1686.4375,354.0039 Q1686.3789,353.6133 1686.1641,353.3984 Q1685.7734,352.9883 1685.0703,352.7539 Q1684.3672,352.5 1683.6641,352.5 Q1682.7852,352.5 1682.043,352.8516 Q1681.3203,353.2031 1680.7539,353.9844 Q1680.1875,354.7656 1680.1875,355.8398 L1680.1875,356.9922 Q1680.1875,358.2813 1681.2422,359.1406 Q1682.2969,360 1684.1719,360 Q1685.2852,360 1686.0664,359.7461 Q1686.5156,359.6094 1687.0234,359.1602 Q1687.3555,358.9063 1687.5313,358.8281 Q1687.707,358.75 1687.9219,358.75 Q1688.332,358.75 1688.625,359.082 Q1688.9375,359.3945 1688.9375,359.8438 Q1688.9375,360.2734 1688.5078,360.7813 Q1687.8828,361.5234 1686.8867,361.9336 Q1685.5781,362.5 1683.9766,362.5 Q1682.1016,362.5 1680.5977,361.7578 Q1679.3867,361.1719 1678.5273,359.9023 Q1677.6875,358.6328 1677.6875,357.1289 L1677.6875,355.7617 Q1677.6875,354.1992 1678.4297,352.832 Q1679.1914,351.4648 1680.5,350.7422 Q1681.8281,350 1683.3125,350 Q1684.2109,350 1684.9922,350.3125 Q1685.7734,350.625 1686.4375,351.25 Z " fill="#000000"/><text fill="#000000" font-family="sans-serif" font-size="15" lengthAdjust="spacing" textLength="66.25" x="1706.0625" y="361.7627">Company</text><line style="stroke:#A80036;stroke-width:1.875;" x1="1645.625" x2="1795.625" y1="375.625" y2="375.625"/><text fill="#000000" font-family="sans-serif" font-size="13.75" lengthAdjust="spacing" textLength="112.5" x="1651.875" y="394.8987">-String designation</text><text fill="#000000" font-family="sans-serif" font-size="13.75" lengthAdjust="spacing" textLength="122.5" x="1651.875" y="412.1936">-TestStore testStore</text><text fill="#000000" font-family="sans-serif" font-size="13.75" lengthAdjust="spacing" textLength="137.5" x="1651.875" y="429.4885">-ClientStore clientStore</text><line style="stroke:#A80036;stroke-width:1.875;" x1="1645.625" x2="1795.625" y1="437.5098" y2="437.5098"/><text fill="#000000" font-family="sans-serif" font-size="13.75" lengthAdjust="spacing" textLength="95" x="1651.875" y="456.7834">+getTestStore()</text><text fill="#000000" font-family="sans-serif" font-size="13.75" lengthAdjust="spacing" textLength="101.25" x="1651.875" y="474.0784">+getClientStore()</text><!--MD5=[11bfefeec74d45075ceaf494a510e590]
class BenchmarkAlgorithm--><rect codeLine="82" fill="#FEFECE" filter="url(#f4yfbsuuv5n3z)" height="67.2949" id="BenchmarkAlgorithm" style="stroke:#A80036;stroke-width:1.875;" width="183.75" x="1628.75" y="223.75"/><ellipse cx="1647.5" cy="243.75" fill="#ADD1B2" rx="13.75" ry="13.75" style="stroke:#A80036;stroke-width:1.25;"/><path d="M1650,239.375 Q1650.2539,238.75 1650.5469,238.4375 Q1650.8398,238.125 1651.1719,238.125 Q1651.7578,238.125 1652.1289,238.4766 Q1652.5,238.8281 1652.5,239.6484 L1652.5,241.6016 Q1652.5,242.4219 1652.1484,242.7734 Q1651.7969,243.125 1651.25,243.125 Q1650.7617,243.125 1650.4492,242.9102 Q1650.1367,242.6953 1650,242.1289 Q1649.9414,241.7383 1649.7266,241.5234 Q1649.3359,241.1133 1648.6328,240.8789 Q1647.9297,240.625 1647.2266,240.625 Q1646.3477,240.625 1645.6055,240.9766 Q1644.8828,241.3281 1644.3164,242.1094 Q1643.75,242.8906 1643.75,243.9648 L1643.75,245.1172 Q1643.75,246.4063 1644.8047,247.2656 Q1645.8594,248.125 1647.7344,248.125 Q1648.8477,248.125 1649.6289,247.8711 Q1650.0781,247.7344 1650.5859,247.2852 Q1650.918,247.0313 1651.0938,246.9531 Q1651.2695,246.875 1651.4844,246.875 Q1651.8945,246.875 1652.1875,247.207 Q1652.5,247.5195 1652.5,247.9688 Q1652.5,248.3984 1652.0703,248.9063 Q1651.4453,249.6484 1650.4492,250.0586 Q1649.1406,250.625 1647.5391,250.625 Q1645.6641,250.625 1644.1602,249.8828 Q1642.9492,249.2969 1642.0898,248.0273 Q1641.25,246.7578 1641.25,245.2539 L1641.25,243.8867 Q1641.25,242.3242 1641.9922,240.957 Q1642.7539,239.5898 1644.0625,238.8672 Q1645.3906,238.125 1646.875,238.125 Q1647.7734,238.125 1648.5547,238.4375 Q1649.3359,238.75 1650,239.375 Z " fill="#000000"/><text fill="#000000" font-family="sans-serif" font-size="15" lengthAdjust="spacing" textLength="143.75" x="1665" y="249.8877">BenchmarkAlgorithm</text><line style="stroke:#A80036;stroke-width:1.875;" x1="1630" x2="1811.25" y1="263.75" y2="263.75"/><text fill="#000000" font-family="sans-serif" font-size="13.75" lengthAdjust="spacing" textLength="158.75" x="1636.25" y="283.0237">+findSubMaxSum(interval)</text><!--MD5=[1dec90c14ec2ba3af2708f621be65d00]
class BruteForceAlgorithm--><rect codeLine="83" fill="#FEFECE" filter="url(#f4yfbsuuv5n3z)" height="67.2949" id="BruteForceAlgorithm" style="stroke:#A80036;stroke-width:1.875;" width="180" x="1630.625" y="112.5"/><ellipse cx="1649.375" cy="132.5" fill="#ADD1B2" rx="13.75" ry="13.75" style="stroke:#A80036;stroke-width:1.25;"/><path d="M1651.875,128.125 Q1652.1289,127.5 1652.4219,127.1875 Q1652.7148,126.875 1653.0469,126.875 Q1653.6328,126.875 1654.0039,127.2266 Q1654.375,127.5781 1654.375,128.3984 L1654.375,130.3516 Q1654.375,131.1719 1654.0234,131.5234 Q1653.6719,131.875 1653.125,131.875 Q1652.6367,131.875 1652.3242,131.6602 Q1652.0117,131.4453 1651.875,130.8789 Q1651.8164,130.4883 1651.6016,130.2734 Q1651.2109,129.8633 1650.5078,129.6289 Q1649.8047,129.375 1649.1016,129.375 Q1648.2227,129.375 1647.4805,129.7266 Q1646.7578,130.0781 1646.1914,130.8594 Q1645.625,131.6406 1645.625,132.7148 L1645.625,133.8672 Q1645.625,135.1563 1646.6797,136.0156 Q1647.7344,136.875 1649.6094,136.875 Q1650.7227,136.875 1651.5039,136.6211 Q1651.9531,136.4844 1652.4609,136.0352 Q1652.793,135.7813 1652.9688,135.7031 Q1653.1445,135.625 1653.3594,135.625 Q1653.7695,135.625 1654.0625,135.957 Q1654.375,136.2695 1654.375,136.7188 Q1654.375,137.1484 1653.9453,137.6563 Q1653.3203,138.3984 1652.3242,138.8086 Q1651.0156,139.375 1649.4141,139.375 Q1647.5391,139.375 1646.0352,138.6328 Q1644.8242,138.0469 1643.9648,136.7773 Q1643.125,135.5078 1643.125,134.0039 L1643.125,132.6367 Q1643.125,131.0742 1643.8672,129.707 Q1644.6289,128.3398 1645.9375,127.6172 Q1647.2656,126.875 1648.75,126.875 Q1649.6484,126.875 1650.4297,127.1875 Q1651.2109,127.5 1651.875,128.125 Z " fill="#000000"/><text fill="#000000" font-family="sans-serif" font-size="15" lengthAdjust="spacing" textLength="140" x="1666.875" y="138.6377">BruteForceAlgorithm</text><line style="stroke:#A80036;stroke-width:1.875;" x1="1631.875" x2="1809.375" y1="152.5" y2="152.5"/><text fill="#000000" font-family="sans-serif" font-size="13.75" lengthAdjust="spacing" textLength="158.75" x="1638.125" y="171.7737">+findSubMaxSum(interval)</text><!--MD5=[03e21a3a74a4ec725edc90da8949a6b4]
class SubMaxSumAlgorithms--><rect codeLine="31" fill="#FEFECE" filter="url(#f4yfbsuuv5n3z)" height="77.5293" id="SubMaxSumAlgorithms" style="stroke:#A80036;stroke-width:1.875;" width="202.5" x="1231.25" y="107.5"/><ellipse cx="1250" cy="132.6172" fill="#B4A7E5" rx="13.75" ry="13.75" style="stroke:#A80036;stroke-width:1.25;"/><path d="M1251.25,128.8672 L1251.25,136.3672 L1253.75,136.3672 L1254.3555,136.3672 L1255,137.1484 L1255,137.6172 L1255,138.0859 L1254.3555,138.8672 L1253.75,138.8672 L1246.25,138.8672 L1245.6445,138.8672 L1245,138.0859 L1245,137.6172 L1245,137.1484 L1245.6445,136.3672 L1246.25,136.3672 L1248.75,136.3672 L1248.75,128.8672 L1246.25,128.8672 L1245.6445,128.8672 L1245,128.0859 L1245,127.6172 L1245,127.1484 L1245.6445,126.3672 L1246.25,126.3672 L1253.75,126.3672 L1254.3555,126.3672 L1255,127.1484 L1255,127.6172 L1255,128.0859 L1254.3555,128.8672 L1253.75,128.8672 L1251.25,128.8672 Z " fill="#000000"/><text fill="#000000" font-family="sans-serif" font-size="15" font-style="italic" lengthAdjust="spacing" textLength="76.25" x="1310.625" y="129.3213">«interface»</text><text fill="#000000" font-family="sans-serif" font-size="15" font-style="italic" lengthAdjust="spacing" textLength="162.5" x="1267.5" y="148.1885">SubMaxSumAlgorithms</text><line style="stroke:#A80036;stroke-width:1.875;" x1="1232.5" x2="1432.5" y1="157.7344" y2="157.7344"/><text fill="#000000" font-family="sans-serif" font-size="13.75" lengthAdjust="spacing" textLength="158.75" x="1238.75" y="177.0081">+findSubMaxSum(interval)</text><!--MD5=[0f6f7964b844a64b0496af0dda7914bd]
class TestStore--><rect codeLine="39" fill="#FEFECE" filter="url(#f4yfbsuuv5n3z)" height="153.7695" id="TestStore" style="stroke:#A80036;stroke-width:1.875;" width="430" x="1117.5" y="280.625"/><ellipse cx="1294.0625" cy="300.625" fill="#ADD1B2" rx="13.75" ry="13.75" style="stroke:#A80036;stroke-width:1.25;"/><path d="M1296.5625,296.25 Q1296.8164,295.625 1297.1094,295.3125 Q1297.4023,295 1297.7344,295 Q1298.3203,295 1298.6914,295.3516 Q1299.0625,295.7031 1299.0625,296.5234 L1299.0625,298.4766 Q1299.0625,299.2969 1298.7109,299.6484 Q1298.3594,300 1297.8125,300 Q1297.3242,300 1297.0117,299.7852 Q1296.6992,299.5703 1296.5625,299.0039 Q1296.5039,298.6133 1296.2891,298.3984 Q1295.8984,297.9883 1295.1953,297.7539 Q1294.4922,297.5 1293.7891,297.5 Q1292.9102,297.5 1292.168,297.8516 Q1291.4453,298.2031 1290.8789,298.9844 Q1290.3125,299.7656 1290.3125,300.8398 L1290.3125,301.9922 Q1290.3125,303.2813 1291.3672,304.1406 Q1292.4219,305 1294.2969,305 Q1295.4102,305 1296.1914,304.7461 Q1296.6406,304.6094 1297.1484,304.1602 Q1297.4805,303.9063 1297.6563,303.8281 Q1297.832,303.75 1298.0469,303.75 Q1298.457,303.75 1298.75,304.082 Q1299.0625,304.3945 1299.0625,304.8438 Q1299.0625,305.2734 1298.6328,305.7813 Q1298.0078,306.5234 1297.0117,306.9336 Q1295.7031,307.5 1294.1016,307.5 Q1292.2266,307.5 1290.7227,306.7578 Q1289.5117,306.1719 1288.6523,304.9023 Q1287.8125,303.6328 1287.8125,302.1289 L1287.8125,300.7617 Q1287.8125,299.1992 1288.5547,297.832 Q1289.3164,296.4648 1290.625,295.7422 Q1291.9531,295 1293.4375,295 Q1294.3359,295 1295.1172,295.3125 Q1295.8984,295.625 1296.5625,296.25 Z " fill="#000000"/><text fill="#000000" font-family="sans-serif" font-size="15" lengthAdjust="spacing" textLength="66.25" x="1319.6875" y="306.7627">TestStore</text><line style="stroke:#A80036;stroke-width:1.875;" x1="1118.75" x2="1546.25" y1="320.625" y2="320.625"/><text fill="#000000" font-family="sans-serif" font-size="13.75" lengthAdjust="spacing" textLength="251.25" x="1125" y="339.8987">+getNumTestsWaitingForResultsDay(day)</text><text fill="#000000" font-family="sans-serif" font-size="13.75" lengthAdjust="spacing" textLength="401.25" x="1125" y="357.1936">+getNumTestsWaitingForResultsInterval(beginningDay, endingDay)</text><text fill="#000000" font-family="sans-serif" font-size="13.75" lengthAdjust="spacing" textLength="265" x="1125" y="374.4885">+getNumTestsWaitingForDiagnosisDay(day)</text><text fill="#000000" font-family="sans-serif" font-size="13.75" lengthAdjust="spacing" textLength="415" x="1125" y="391.7834">+getNumTestsWaitingForDiagnosisInterval(beginningDay, endingDay)</text><text fill="#000000" font-family="sans-serif" font-size="13.75" lengthAdjust="spacing" textLength="240" x="1125" y="409.0784">+getNumTestsProcessedInLabDay(day)</text><text fill="#000000" font-family="sans-serif" font-size="13.75" lengthAdjust="spacing" textLength="390" x="1125" y="426.3733">+getNumTestsProcessedInLabInterval(beginningDay, endingDay)</text><!--MD5=[55cb992be19579b505cea3c5691093cb]
class ClientStore--><rect codeLine="48" fill="#FEFECE" filter="url(#f4yfbsuuv5n3z)" height="67.2949" id="ClientStore" style="stroke:#A80036;stroke-width:1.875;" width="116.25" x="1274.375" y="478.75"/><ellipse cx="1293.125" cy="498.75" fill="#ADD1B2" rx="13.75" ry="13.75" style="stroke:#A80036;stroke-width:1.25;"/><path d="M1295.625,494.375 Q1295.8789,493.75 1296.1719,493.4375 Q1296.4648,493.125 1296.7969,493.125 Q1297.3828,493.125 1297.7539,493.4766 Q1298.125,493.8281 1298.125,494.6484 L1298.125,496.6016 Q1298.125,497.4219 1297.7734,497.7734 Q1297.4219,498.125 1296.875,498.125 Q1296.3867,498.125 1296.0742,497.9102 Q1295.7617,497.6953 1295.625,497.1289 Q1295.5664,496.7383 1295.3516,496.5234 Q1294.9609,496.1133 1294.2578,495.8789 Q1293.5547,495.625 1292.8516,495.625 Q1291.9727,495.625 1291.2305,495.9766 Q1290.5078,496.3281 1289.9414,497.1094 Q1289.375,497.8906 1289.375,498.9648 L1289.375,500.1172 Q1289.375,501.4063 1290.4297,502.2656 Q1291.4844,503.125 1293.3594,503.125 Q1294.4727,503.125 1295.2539,502.8711 Q1295.7031,502.7344 1296.2109,502.2852 Q1296.543,502.0313 1296.7188,501.9531 Q1296.8945,501.875 1297.1094,501.875 Q1297.5195,501.875 1297.8125,502.207 Q1298.125,502.5195 1298.125,502.9688 Q1298.125,503.3984 1297.6953,503.9063 Q1297.0703,504.6484 1296.0742,505.0586 Q1294.7656,505.625 1293.1641,505.625 Q1291.2891,505.625 1289.7852,504.8828 Q1288.5742,504.2969 1287.7148,503.0273 Q1286.875,501.7578 1286.875,500.2539 L1286.875,498.8867 Q1286.875,497.3242 1287.6172,495.957 Q1288.3789,494.5898 1289.6875,493.8672 Q1291.0156,493.125 1292.5,493.125 Q1293.3984,493.125 1294.1797,493.4375 Q1294.9609,493.75 1295.625,494.375 Z " fill="#000000"/><text fill="#000000" font-family="sans-serif" font-size="15" lengthAdjust="spacing" textLength="76.25" x="1310.625" y="504.8877">ClientStore</text><line style="stroke:#A80036;stroke-width:1.875;" x1="1275.625" x2="1389.375" y1="518.75" y2="518.75"/><text fill="#000000" font-family="sans-serif" font-size="13.75" lengthAdjust="spacing" textLength="76.25" x="1281.875" y="538.0237">+getClients()</text><!--MD5=[670275f839cd0f6ae295f6f439fd6034]
class CompanyPerformanceAnalysisController--><rect codeLine="58" fill="#FEFECE" filter="url(#f4yfbsuuv5n3z)" height="163.7695" id="CompanyPerformanceAnalysisController" style="stroke:#A80036;stroke-width:1.875;" width="518.75" x="388.75" y="400.625"/><ellipse cx="502.8125" cy="420.625" fill="#ADD1B2" rx="13.75" ry="13.75" style="stroke:#A80036;stroke-width:1.25;"/><path d="M505.3125,416.25 Q505.5664,415.625 505.8594,415.3125 Q506.1523,415 506.4844,415 Q507.0703,415 507.4414,415.3516 Q507.8125,415.7031 507.8125,416.5234 L507.8125,418.4766 Q507.8125,419.2969 507.4609,419.6484 Q507.1094,420 506.5625,420 Q506.0742,420 505.7617,419.7852 Q505.4492,419.5703 505.3125,419.0039 Q505.2539,418.6133 505.0391,418.3984 Q504.6484,417.9883 503.9453,417.7539 Q503.2422,417.5 502.5391,417.5 Q501.6602,417.5 500.918,417.8516 Q500.1953,418.2031 499.6289,418.9844 Q499.0625,419.7656 499.0625,420.8398 L499.0625,421.9922 Q499.0625,423.2813 500.1172,424.1406 Q501.1719,425 503.0469,425 Q504.1602,425 504.9414,424.7461 Q505.3906,424.6094 505.8984,424.1602 Q506.2305,423.9063 506.4063,423.8281 Q506.582,423.75 506.7969,423.75 Q507.207,423.75 507.5,424.082 Q507.8125,424.3945 507.8125,424.8438 Q507.8125,425.2734 507.3828,425.7813 Q506.7578,426.5234 505.7617,426.9336 Q504.4531,427.5 502.8516,427.5 Q500.9766,427.5 499.4727,426.7578 Q498.2617,426.1719 497.4023,424.9023 Q496.5625,423.6328 496.5625,422.1289 L496.5625,420.7617 Q496.5625,419.1992 497.3047,417.832 Q498.0664,416.4648 499.375,415.7422 Q500.7031,415 502.1875,415 Q503.0859,415 503.8672,415.3125 Q504.6484,415.625 505.3125,416.25 Z " fill="#000000"/><text fill="#000000" font-family="sans-serif" font-size="15" lengthAdjust="spacing" textLength="280" x="528.4375" y="426.7627">CompanyPerformanceAnalysisController</text><line style="stroke:#A80036;stroke-width:1.875;" x1="390" x2="906.25" y1="440.625" y2="440.625"/><text fill="#000000" font-family="sans-serif" font-size="13.75" lengthAdjust="spacing" textLength="120" x="396.25" y="459.8987">-Company company</text><line style="stroke:#A80036;stroke-width:1.875;" x1="390" x2="906.25" y1="467.9199" y2="467.9199"/><text fill="#000000" font-family="sans-serif" font-size="13.75" lengthAdjust="spacing" textLength="102.5" x="396.25" y="487.1936">+getNumClients()</text><text fill="#000000" font-family="sans-serif" font-size="13.75" lengthAdjust="spacing" textLength="131.25" x="396.25" y="504.4885">+getTestInfoDay(day)</text><text fill="#000000" font-family="sans-serif" font-size="13.75" lengthAdjust="spacing" textLength="281.25" x="396.25" y="521.7834">+getTestInfoInterval(beginningDay, endingDay)</text><text fill="#000000" font-family="sans-serif" font-size="13.75" lengthAdjust="spacing" textLength="280" x="396.25" y="539.0784">+makeIntervalArray(beginningDay, endingDay)</text><text fill="#000000" font-family="sans-serif" font-size="13.75" lengthAdjust="spacing" textLength="503.75" x="396.25" y="556.3733">+findWorstSubIntWithChosenAlgorithm(beginningDay, endingDay, chosenAlgorithm)</text><!--MD5=[3404723274ca4ec774b8d2f7e379376f]
class CompanyPerformanceAnalysisUI--><rect codeLine="71" fill="#FEFECE" filter="url(#f4yfbsuuv5n3z)" height="40" id="CompanyPerformanceAnalysisUI" style="stroke:#A80036;stroke-width:1.875;" width="267.5" x="40" y="462.5"/><ellipse cx="58.75" cy="482.5" fill="#ADD1B2" rx="13.75" ry="13.75" style="stroke:#A80036;stroke-width:1.25;"/><path d="M61.25,478.125 Q61.5039,477.5 61.7969,477.1875 Q62.0898,476.875 62.4219,476.875 Q63.0078,476.875 63.3789,477.2266 Q63.75,477.5781 63.75,478.3984 L63.75,480.3516 Q63.75,481.1719 63.3984,481.5234 Q63.0469,481.875 62.5,481.875 Q62.0117,481.875 61.6992,481.6602 Q61.3867,481.4453 61.25,480.8789 Q61.1914,480.4883 60.9766,480.2734 Q60.5859,479.8633 59.8828,479.6289 Q59.1797,479.375 58.4766,479.375 Q57.5977,479.375 56.8555,479.7266 Q56.1328,480.0781 55.5664,480.8594 Q55,481.6406 55,482.7148 L55,483.8672 Q55,485.1563 56.0547,486.0156 Q57.1094,486.875 58.9844,486.875 Q60.0977,486.875 60.8789,486.6211 Q61.3281,486.4844 61.8359,486.0352 Q62.168,485.7813 62.3438,485.7031 Q62.5195,485.625 62.7344,485.625 Q63.1445,485.625 63.4375,485.957 Q63.75,486.2695 63.75,486.7188 Q63.75,487.1484 63.3203,487.6563 Q62.6953,488.3984 61.6992,488.8086 Q60.3906,489.375 58.7891,489.375 Q56.9141,489.375 55.4102,488.6328 Q54.1992,488.0469 53.3398,486.7773 Q52.5,485.5078 52.5,484.0039 L52.5,482.6367 Q52.5,481.0742 53.2422,479.707 Q54.0039,478.3398 55.3125,477.6172 Q56.6406,476.875 58.125,476.875 Q59.0234,476.875 59.8047,477.1875 Q60.5859,477.5 61.25,478.125 Z " fill="#000000"/><text fill="#000000" font-family="sans-serif" font-size="15" lengthAdjust="spacing" textLength="227.5" x="76.25" y="488.6377">CompanyPerformanceAnalysisUI</text><!--MD5=[5b29af9deb3324aeb9c231daa5002dba]
link CompanyPerformanceAnalysisUI to CompanyPerformanceAnalysisController--><path codeLine="76" d="M307.7,482.5 C331.2,482.5 356.3875,482.5 382.05,482.5 " fill="none" id="CompanyPerformanceAnalysisUI-to-CompanyPerformanceAnalysisController" style="stroke:#A80036;stroke-width:1.25;stroke-dasharray:7.0,7.0;"/><polygon fill="#A80036" points="388.5875,482.5,377.3375,477.5,382.3375,482.5,377.3375,487.5,388.5875,482.5" style="stroke:#A80036;stroke-width:1.25;"/><!--MD5=[5ce4db4ce32c27ecea6aaa74e26a0164]
link CompanyPerformanceAnalysisController to Company--><path codeLine="77" d="M880.9375,564.4375 C1075.25,619.2125 1355.7875,664.925 1577.5,566.25 C1614.6875,549.7 1646.225,518.05 1670.05,487.4375 " fill="none" id="CompanyPerformanceAnalysisController-to-Company" style="stroke:#A80036;stroke-width:1.25;stroke-dasharray:7.0,7.0;"/><polygon fill="#A80036" points="1674.1125,482.1375,1663.3148,488.0512,1670.3226,487.1073,1671.2665,494.1151,1674.1125,482.1375" style="stroke:#A80036;stroke-width:1.25;"/><!--MD5=[556445e2a8ca4c0c6a33a05341a7825e]
link CompanyPerformanceAnalysisController to ClientStore--><path codeLine="78" d="M907.65,493.8625 C1038.25,499.6125 1186.075,506.1125 1268,509.7125 " fill="none" id="CompanyPerformanceAnalysisController-to-ClientStore" style="stroke:#A80036;stroke-width:1.25;stroke-dasharray:7.0,7.0;"/><polygon fill="#A80036" points="1274.275,509.9875,1263.2494,504.5104,1268.0307,509.7199,1262.8212,514.5012,1274.275,509.9875" style="stroke:#A80036;stroke-width:1.25;"/><!--MD5=[d03b593c12afa5f3c42671c11d6ed63b]
link CompanyPerformanceAnalysisController to TestStore--><path codeLine="79" d="M907.65,435.15 C974.6625,422.8625 1046.2,409.75 1111.05,397.8625 " fill="none" id="CompanyPerformanceAnalysisController-to-TestStore" style="stroke:#A80036;stroke-width:1.25;stroke-dasharray:7.0,7.0;"/><polygon fill="#A80036" points="1117.3,396.7125,1105.3348,393.8148,1111.1517,397.8352,1107.1312,403.6521,1117.3,396.7125" style="stroke:#A80036;stroke-width:1.25;"/><!--MD5=[1f5b511532344f36d5811b87494f5882]
link CompanyPerformanceAnalysisController to SubMaxSumAlgorithms--><path codeLine="80" d="M791.0125,400.5 C868.6625,356.7625 967.2375,303.2 1057.5,260 C1111.8125,234 1173.65,208 1224.8,187.4375 " fill="none" id="CompanyPerformanceAnalysisController-to-SubMaxSumAlgorithms" style="stroke:#A80036;stroke-width:1.25;"/><polygon fill="#A80036" points="1230.9875,184.9625,1218.6852,184.4983,1225.1845,187.2837,1222.3991,193.783,1230.9875,184.9625" style="stroke:#A80036;stroke-width:1.25;"/><text fill="#000000" font-family="sans-serif" font-size="16.25" lengthAdjust="spacing" textLength="97.5" x="948.75" y="261.8689">makes use of</text><text fill="#000000" font-family="sans-serif" font-size="16.25" lengthAdjust="spacing" textLength="8.75" x="797.4123" y="387.3294">1</text><text fill="#000000" font-family="sans-serif" font-size="16.25" lengthAdjust="spacing" textLength="8.75" x="1212.476" y="206.341">1</text><!--MD5=[c8e100f44fde5425da9ad34dc7ebdfb6]
reverse link SubMaxSumAlgorithms to BenchmarkAlgorithm--><path d="M1458.4,182.2125 C1513.7625,198.175 1577.725,216.6375 1628.4625,231.275 " fill="none" id="SubMaxSumAlgorithms-backto-BenchmarkAlgorithm" style="stroke:#A80036;stroke-width:1.25;stroke-dasharray:7.0,7.0;"/><polygon fill="none" points="1455.6625,190.525,1434.0625,175.1875,1460.5125,173.7125,1455.6625,190.525" style="stroke:#A80036;stroke-width:1.25;"/><!--MD5=[778e010c63a15d1050fa3eed8c57d7e7]
reverse link SubMaxSumAlgorithms to BruteForceAlgorithm--><path d="M1459.0625,146.25 C1514.975,146.25 1579.5625,146.25 1630.4125,146.25 " fill="none" id="SubMaxSumAlgorithms-backto-BruteForceAlgorithm" style="stroke:#A80036;stroke-width:1.25;stroke-dasharray:7.0,7.0;"/><polygon fill="none" points="1459.0625,155,1434.0625,146.25,1459.0625,137.5,1459.0625,155" style="stroke:#A80036;stroke-width:1.25;"/><!--MD5=[0cdf5599716e374ca9b2771feb06c57f]
@startuml
'skinparam linetype ortho
hide empty methods
hide empty attributes
left to right direction
skinparam classAttributeIconSize 0

package Domain {

package Model{

class Company {
    -String designation
    -TestStore testStore
    -ClientStore clientStore
    +getTestStore()
    +getClientStore()
}

class BenchmarkAlgorithm{
    +findSubMaxSum(interval)
}

class BruteForceAlgorithm{
    +findSubMaxSum(interval)
}

}

package Interfaces {

interface SubMaxSumAlgorithms <<interface>> {
    +findSubMaxSum(interval)
}

}

package Store {

class TestStore {
    +getNumTestsWaitingForResultsDay(day)
    +getNumTestsWaitingForResultsInterval(beginningDay, endingDay)
    +getNumTestsWaitingForDiagnosisDay(day)
    +getNumTestsWaitingForDiagnosisInterval(beginningDay, endingDay)
    +getNumTestsProcessedInLabDay(day)
    +getNumTestsProcessedInLabInterval(beginningDay, endingDay)
}

class ClientStore {
    +getClients()
}

}

}

package Controller {

class CompanyPerformanceAnalysisController{
    -Company company
    +getNumClients()
    +getTestInfoDay(day)
    +getTestInfoInterval(beginningDay, endingDay)
    +makeIntervalArray(beginningDay, endingDay)
    +findWorstSubIntWithChosenAlgorithm(beginningDay, endingDay, chosenAlgorithm)
}

}

package UI {

class CompanyPerformanceAnalysisUI{
}

}

CompanyPerformanceAnalysisUI ..> CompanyPerformanceAnalysisController
CompanyPerformanceAnalysisController ..> Company
CompanyPerformanceAnalysisController ..> ClientStore
CompanyPerformanceAnalysisController ..> TestStore
CompanyPerformanceAnalysisController "1" - -> "1" SubMaxSumAlgorithms : makes use of

class BenchmarkAlgorithm implements SubMaxSumAlgorithms
class BruteForceAlgorithm implements SubMaxSumAlgorithms

@enduml

@startuml
hide empty methods
hide empty attributes
left to right direction
skinparam classAttributeIconSize 0

package Domain {

package Model{

class Company {
    -String designation
    -TestStore testStore
    -ClientStore clientStore
    +getTestStore()
    +getClientStore()
}

class BenchmarkAlgorithm{
    +findSubMaxSum(interval)
}

class BruteForceAlgorithm{
    +findSubMaxSum(interval)
}

}

package Interfaces {

interface SubMaxSumAlgorithms <<interface>> {
    +findSubMaxSum(interval)
}

}

package Store {

class TestStore {
    +getNumTestsWaitingForResultsDay(day)
    +getNumTestsWaitingForResultsInterval(beginningDay, endingDay)
    +getNumTestsWaitingForDiagnosisDay(day)
    +getNumTestsWaitingForDiagnosisInterval(beginningDay, endingDay)
    +getNumTestsProcessedInLabDay(day)
    +getNumTestsProcessedInLabInterval(beginningDay, endingDay)
}

class ClientStore {
    +getClients()
}

}

}

package Controller {

class CompanyPerformanceAnalysisController{
    -Company company
    +getNumClients()
    +getTestInfoDay(day)
    +getTestInfoInterval(beginningDay, endingDay)
    +makeIntervalArray(beginningDay, endingDay)
    +findWorstSubIntWithChosenAlgorithm(beginningDay, endingDay, chosenAlgorithm)
}

}

package UI {

class CompanyPerformanceAnalysisUI{
}

}

CompanyPerformanceAnalysisUI ..> CompanyPerformanceAnalysisController
CompanyPerformanceAnalysisController ..> Company
CompanyPerformanceAnalysisController ..> ClientStore
CompanyPerformanceAnalysisController ..> TestStore
CompanyPerformanceAnalysisController "1" - -> "1" SubMaxSumAlgorithms : makes use of

class BenchmarkAlgorithm implements SubMaxSumAlgorithms
class BruteForceAlgorithm implements SubMaxSumAlgorithms

@enduml

PlantUML version 1.2021.7(Sun May 23 13:40:07 BST 2021)
(GPL source distribution)
Java Runtime: OpenJDK Runtime Environment
JVM: Dynamic Code Evolution 64-Bit Server VM
Default Encoding: Cp1252
Language: pt
Country: PT
--></g></svg>