<?xml version="1.0" encoding="UTF-8" standalone="no"?><svg xmlns="http://www.w3.org/2000/svg" xmlns:xlink="http://www.w3.org/1999/xlink" contentScriptType="application/ecmascript" contentStyleType="text/css" height="410px" preserveAspectRatio="none" style="width:3238px;height:410px;background:#FFFFFF;" version="1.1" viewBox="0 0 3238 410" width="3238.75px" zoomAndPan="magnify"><defs><filter height="300%" id="f1g41jccnolmr9" width="300%" x="-1" y="-1"><feGaussianBlur result="blurOut" stdDeviation="2.5"/><feColorMatrix in="blurOut" result="blurOut2" type="matrix" values="0 0 0 0 0 0 0 0 0 0 0 0 0 0 0 0 0 0 .4 0"/><feOffset dx="5.0" dy="5.0" in="blurOut2" result="blurOut3"/><feBlend in="SourceGraphic" in2="blurOut3" mode="normal"/></filter></defs><g><!--MD5=[2c2e2644034c00788261e03c85b06837]
cluster Core--><polygon fill="#FFFFFF" filter="url(#f1g41jccnolmr9)" points="20,7.5,70,7.5,78.75,37.0117,2820,37.0117,2820,401.875,20,401.875,20,7.5" style="stroke:#000000;stroke-width:1.875;"/><line style="stroke:#000000;stroke-width:1.875;" x1="20" x2="78.75" y1="37.0117" y2="37.0117"/><text fill="#000000" font-family="sans-serif" font-size="17.5" font-weight="bold" lengthAdjust="spacing" textLength="42.5" x="25" y="28.1665">Core</text><!--MD5=[121a8bf1197281ab89ed693fab589f94]
cluster Domain--><polygon fill="#FFFFFF" filter="url(#f1g41jccnolmr9)" points="727.5,62.5,800,62.5,808.75,92.0117,2790,92.0117,2790,358.75,727.5,358.75,727.5,62.5" style="stroke:#000000;stroke-width:1.875;"/><line style="stroke:#000000;stroke-width:1.875;" x1="727.5" x2="808.75" y1="92.0117" y2="92.0117"/><text fill="#000000" font-family="sans-serif" font-size="17.5" font-weight="bold" lengthAdjust="spacing" textLength="65" x="732.5" y="83.1665">Domain</text><!--MD5=[15636c1ca4a123c16a2a1a8e90aca7a9]
cluster Model--><polygon fill="#FFFFFF" filter="url(#f1g41jccnolmr9)" points="2343.75,117.5,2406.25,117.5,2415,147.0117,2760,147.0117,2760,328.75,2343.75,328.75,2343.75,117.5" style="stroke:#000000;stroke-width:1.875;"/><line style="stroke:#000000;stroke-width:1.875;" x1="2343.75" x2="2415" y1="147.0117" y2="147.0117"/><text fill="#000000" font-family="sans-serif" font-size="17.5" font-weight="bold" lengthAdjust="spacing" textLength="55" x="2348.75" y="138.1665">Model</text><!--MD5=[0b89f7d34c26fffbb81ea7301eb9df33]
cluster Interfaces--><polygon fill="#FFFFFF" filter="url(#f1g41jccnolmr9)" points="2071.25,151.875,2167.5,151.875,2176.25,181.3867,2313.75,181.3867,2313.75,294.375,2071.25,294.375,2071.25,151.875" style="stroke:#000000;stroke-width:1.875;"/><line style="stroke:#000000;stroke-width:1.875;" x1="2071.25" x2="2176.25" y1="181.3867" y2="181.3867"/><text fill="#000000" font-family="sans-serif" font-size="17.5" font-weight="bold" lengthAdjust="spacing" textLength="88.75" x="2076.25" y="172.5415">Interfaces</text><!--MD5=[7ce1723ddb6e6233854253973eae5a71]
cluster Store--><polygon fill="#FFFFFF" filter="url(#f1g41jccnolmr9)" points="1341.25,122.5,1396.25,122.5,1405,152.0117,2041.25,152.0117,2041.25,323.75,1341.25,323.75,1341.25,122.5" style="stroke:#000000;stroke-width:1.875;"/><line style="stroke:#000000;stroke-width:1.875;" x1="1341.25" x2="1405" y1="152.0117" y2="152.0117"/><text fill="#000000" font-family="sans-serif" font-size="17.5" font-weight="bold" lengthAdjust="spacing" textLength="47.5" x="1346.25" y="143.1665">Store</text><!--MD5=[aedc30b8666742a3000193d7e0a0b93e]
cluster Adapters--><polygon fill="#FFFFFF" filter="url(#f1g41jccnolmr9)" points="757.5,156.875,843.75,156.875,852.5,186.3867,1311.25,186.3867,1311.25,289.375,757.5,289.375,757.5,156.875" style="stroke:#000000;stroke-width:1.875;"/><line style="stroke:#000000;stroke-width:1.875;" x1="757.5" x2="852.5" y1="186.3867" y2="186.3867"/><text fill="#000000" font-family="sans-serif" font-size="17.5" font-weight="bold" lengthAdjust="spacing" textLength="78.75" x="762.5" y="177.5415">Adapters</text><!--MD5=[1f2cfc53d9d308f53762fd0fcbaa4873]
cluster Controller--><polygon fill="#FFFFFF" filter="url(#f1g41jccnolmr9)" points="260,74.375,356.25,74.375,365,103.8867,697.5,103.8867,697.5,371.875,260,371.875,260,74.375" style="stroke:#000000;stroke-width:1.875;"/><line style="stroke:#000000;stroke-width:1.875;" x1="260" x2="365" y1="103.8867" y2="103.8867"/><text fill="#000000" font-family="sans-serif" font-size="17.5" font-weight="bold" lengthAdjust="spacing" textLength="88.75" x="265" y="95.0415">Controller</text><!--MD5=[c29634d7cdbe8f1c1e88f2fe66ae73ec]
cluster ThirdParty--><polygon fill="#FFFFFF" filter="url(#f1g41jccnolmr9)" points="50,101.875,146.25,101.875,155,131.3867,230,131.3867,230,319.375,50,319.375,50,101.875" style="stroke:#000000;stroke-width:1.875;"/><line style="stroke:#000000;stroke-width:1.875;" x1="50" x2="155" y1="131.3867" y2="131.3867"/><text fill="#000000" font-family="sans-serif" font-size="17.5" font-weight="bold" lengthAdjust="spacing" textLength="88.75" x="55" y="122.5415">ThirdParty</text><!--MD5=[0d079ae59d318396171bf167e6cb96b6]
cluster APIs--><polygon fill="#FFFFFF" filter="url(#f1g41jccnolmr9)" points="80,156.875,125,156.875,133.75,186.3867,200,186.3867,200,289.375,80,289.375,80,156.875" style="stroke:#000000;stroke-width:1.875;"/><line style="stroke:#000000;stroke-width:1.875;" x1="80" x2="133.75" y1="186.3867" y2="186.3867"/><text fill="#000000" font-family="sans-serif" font-size="17.5" font-weight="bold" lengthAdjust="spacing" textLength="37.5" x="85" y="177.5415">APIs</text><!--MD5=[9681dc6e01e10c6b4fe06895ae94f592]
cluster UI--><polygon fill="#FFFFFF" filter="url(#f1g41jccnolmr9)" points="2850,115.625,2875,115.625,2883.75,145.1367,3217.5,145.1367,3217.5,305.625,2850,305.625,2850,115.625" style="stroke:#000000;stroke-width:1.875;"/><line style="stroke:#000000;stroke-width:1.875;" x1="2850" x2="2883.75" y1="145.1367" y2="145.1367"/><text fill="#000000" font-family="sans-serif" font-size="17.5" font-weight="bold" lengthAdjust="spacing" textLength="17.5" x="2855" y="136.2915">UI</text><!--MD5=[b27c5c9af3cea12247b1c4c8d3c78770]
cluster GUI--><polygon fill="#FFFFFF" filter="url(#f1g41jccnolmr9)" points="2880,170.625,2918.75,170.625,2927.5,200.1367,3187.5,200.1367,3187.5,275.625,2880,275.625,2880,170.625" style="stroke:#000000;stroke-width:1.875;"/><line style="stroke:#000000;stroke-width:1.875;" x1="2880" x2="2927.5" y1="200.1367" y2="200.1367"/><text fill="#000000" font-family="sans-serif" font-size="17.5" font-weight="bold" lengthAdjust="spacing" textLength="31.25" x="2885" y="191.2915">GUI</text><!--MD5=[02e4b9b7573f1156f41e60aa5b4e25a4]
class Company--><rect codeLine="13" fill="#FEFECE" filter="url(#f1g41jccnolmr9)" height="146.4746" id="Company" style="stroke:#A80036;stroke-width:1.875;" width="152.5" x="2587.5" y="162.5"/><ellipse cx="2627.0625" cy="182.5" fill="#ADD1B2" rx="13.75" ry="13.75" style="stroke:#A80036;stroke-width:1.25;"/><path d="M2629.5625,178.125 Q2629.8164,177.5 2630.1094,177.1875 Q2630.4023,176.875 2630.7344,176.875 Q2631.3203,176.875 2631.6914,177.2266 Q2632.0625,177.5781 2632.0625,178.3984 L2632.0625,180.3516 Q2632.0625,181.1719 2631.7109,181.5234 Q2631.3594,181.875 2630.8125,181.875 Q2630.3242,181.875 2630.0117,181.6602 Q2629.6992,181.4453 2629.5625,180.8789 Q2629.5039,180.4883 2629.2891,180.2734 Q2628.8984,179.8633 2628.1953,179.6289 Q2627.4922,179.375 2626.7891,179.375 Q2625.9102,179.375 2625.168,179.7266 Q2624.4453,180.0781 2623.8789,180.8594 Q2623.3125,181.6406 2623.3125,182.7148 L2623.3125,183.8672 Q2623.3125,185.1563 2624.3672,186.0156 Q2625.4219,186.875 2627.2969,186.875 Q2628.4102,186.875 2629.1914,186.6211 Q2629.6406,186.4844 2630.1484,186.0352 Q2630.4805,185.7813 2630.6563,185.7031 Q2630.832,185.625 2631.0469,185.625 Q2631.457,185.625 2631.75,185.957 Q2632.0625,186.2695 2632.0625,186.7188 Q2632.0625,187.1484 2631.6328,187.6563 Q2631.0078,188.3984 2630.0117,188.8086 Q2628.7031,189.375 2627.1016,189.375 Q2625.2266,189.375 2623.7227,188.6328 Q2622.5117,188.0469 2621.6523,186.7773 Q2620.8125,185.5078 2620.8125,184.0039 L2620.8125,182.6367 Q2620.8125,181.0742 2621.5547,179.707 Q2622.3164,178.3398 2623.625,177.6172 Q2624.9531,176.875 2626.4375,176.875 Q2627.3359,176.875 2628.1172,177.1875 Q2628.8984,177.5 2629.5625,178.125 Z " fill="#000000"/><text fill="#000000" font-family="sans-serif" font-size="15" lengthAdjust="spacing" textLength="66.25" x="2649.1875" y="188.6377">Company</text><line style="stroke:#A80036;stroke-width:1.875;" x1="2588.75" x2="2738.75" y1="202.5" y2="202.5"/><text fill="#000000" font-family="sans-serif" font-size="13.75" lengthAdjust="spacing" textLength="112.5" x="2595" y="221.7737">-String designation</text><text fill="#000000" font-family="sans-serif" font-size="13.75" lengthAdjust="spacing" textLength="122.5" x="2595" y="239.0686">-TestStore testStore</text><text fill="#000000" font-family="sans-serif" font-size="13.75" lengthAdjust="spacing" textLength="137.5" x="2595" y="256.3635">-ClientStore clientStore</text><line style="stroke:#A80036;stroke-width:1.875;" x1="2588.75" x2="2738.75" y1="264.3848" y2="264.3848"/><text fill="#000000" font-family="sans-serif" font-size="13.75" lengthAdjust="spacing" textLength="95" x="2595" y="283.6584">+getTestStore()</text><text fill="#000000" font-family="sans-serif" font-size="13.75" lengthAdjust="spacing" textLength="101.25" x="2595" y="300.9534">+getClientStore()</text><!--MD5=[1dec90c14ec2ba3af2708f621be65d00]
class BruteForceAlgorithm--><rect codeLine="21" fill="#FEFECE" filter="url(#f1g41jccnolmr9)" height="67.2949" id="BruteForceAlgorithm" style="stroke:#A80036;stroke-width:1.875;" width="180" x="2363.75" y="201.875"/><ellipse cx="2382.5" cy="221.875" fill="#ADD1B2" rx="13.75" ry="13.75" style="stroke:#A80036;stroke-width:1.25;"/><path d="M2385,217.5 Q2385.2539,216.875 2385.5469,216.5625 Q2385.8398,216.25 2386.1719,216.25 Q2386.7578,216.25 2387.1289,216.6016 Q2387.5,216.9531 2387.5,217.7734 L2387.5,219.7266 Q2387.5,220.5469 2387.1484,220.8984 Q2386.7969,221.25 2386.25,221.25 Q2385.7617,221.25 2385.4492,221.0352 Q2385.1367,220.8203 2385,220.2539 Q2384.9414,219.8633 2384.7266,219.6484 Q2384.3359,219.2383 2383.6328,219.0039 Q2382.9297,218.75 2382.2266,218.75 Q2381.3477,218.75 2380.6055,219.1016 Q2379.8828,219.4531 2379.3164,220.2344 Q2378.75,221.0156 2378.75,222.0898 L2378.75,223.2422 Q2378.75,224.5313 2379.8047,225.3906 Q2380.8594,226.25 2382.7344,226.25 Q2383.8477,226.25 2384.6289,225.9961 Q2385.0781,225.8594 2385.5859,225.4102 Q2385.918,225.1563 2386.0938,225.0781 Q2386.2695,225 2386.4844,225 Q2386.8945,225 2387.1875,225.332 Q2387.5,225.6445 2387.5,226.0938 Q2387.5,226.5234 2387.0703,227.0313 Q2386.4453,227.7734 2385.4492,228.1836 Q2384.1406,228.75 2382.5391,228.75 Q2380.6641,228.75 2379.1602,228.0078 Q2377.9492,227.4219 2377.0898,226.1523 Q2376.25,224.8828 2376.25,223.3789 L2376.25,222.0117 Q2376.25,220.4492 2376.9922,219.082 Q2377.7539,217.7148 2379.0625,216.9922 Q2380.3906,216.25 2381.875,216.25 Q2382.7734,216.25 2383.5547,216.5625 Q2384.3359,216.875 2385,217.5 Z " fill="#000000"/><text fill="#000000" font-family="sans-serif" font-size="15" lengthAdjust="spacing" textLength="140" x="2400" y="228.0127">BruteForceAlgorithm</text><line style="stroke:#A80036;stroke-width:1.875;" x1="2365" x2="2542.5" y1="241.875" y2="241.875"/><text fill="#000000" font-family="sans-serif" font-size="13.75" lengthAdjust="spacing" textLength="65" x="2371.25" y="261.1487">+Max(seq)</text><!--MD5=[03e21a3a74a4ec725edc90da8949a6b4]
class SubMaxSumAlgorithms--><rect codeLine="29" fill="#FEFECE" filter="url(#f1g41jccnolmr9)" height="77.5293" id="SubMaxSumAlgorithms" style="stroke:#A80036;stroke-width:1.875;" width="202.5" x="2091.25" y="196.875"/><ellipse cx="2110" cy="221.9922" fill="#B4A7E5" rx="13.75" ry="13.75" style="stroke:#A80036;stroke-width:1.25;"/><path d="M2111.25,218.2422 L2111.25,225.7422 L2113.75,225.7422 L2114.3555,225.7422 L2115,226.5234 L2115,226.9922 L2115,227.4609 L2114.3555,228.2422 L2113.75,228.2422 L2106.25,228.2422 L2105.6445,228.2422 L2105,227.4609 L2105,226.9922 L2105,226.5234 L2105.6445,225.7422 L2106.25,225.7422 L2108.75,225.7422 L2108.75,218.2422 L2106.25,218.2422 L2105.6445,218.2422 L2105,217.4609 L2105,216.9922 L2105,216.5234 L2105.6445,215.7422 L2106.25,215.7422 L2113.75,215.7422 L2114.3555,215.7422 L2115,216.5234 L2115,216.9922 L2115,217.4609 L2114.3555,218.2422 L2113.75,218.2422 L2111.25,218.2422 Z " fill="#000000"/><text fill="#000000" font-family="sans-serif" font-size="15" font-style="italic" lengthAdjust="spacing" textLength="76.25" x="2170.625" y="218.6963">«interface»</text><text fill="#000000" font-family="sans-serif" font-size="15" font-style="italic" lengthAdjust="spacing" textLength="162.5" x="2127.5" y="237.5635">SubMaxSumAlgorithms</text><line style="stroke:#A80036;stroke-width:1.875;" x1="2092.5" x2="2292.5" y1="247.1094" y2="247.1094"/><text fill="#000000" font-family="sans-serif" font-size="13.75" lengthAdjust="spacing" textLength="158.75" x="2098.75" y="266.3831">+findSubMaxSum(interval)</text><!--MD5=[0f6f7964b844a64b0496af0dda7914bd]
class TestStore--><rect codeLine="37" fill="#FEFECE" filter="url(#f1g41jccnolmr9)" height="136.4746" id="TestStore" style="stroke:#A80036;stroke-width:1.875;" width="498.75" x="1521.875" y="167.5"/><ellipse cx="1732.8125" cy="187.5" fill="#ADD1B2" rx="13.75" ry="13.75" style="stroke:#A80036;stroke-width:1.25;"/><path d="M1735.3125,183.125 Q1735.5664,182.5 1735.8594,182.1875 Q1736.1523,181.875 1736.4844,181.875 Q1737.0703,181.875 1737.4414,182.2266 Q1737.8125,182.5781 1737.8125,183.3984 L1737.8125,185.3516 Q1737.8125,186.1719 1737.4609,186.5234 Q1737.1094,186.875 1736.5625,186.875 Q1736.0742,186.875 1735.7617,186.6602 Q1735.4492,186.4453 1735.3125,185.8789 Q1735.2539,185.4883 1735.0391,185.2734 Q1734.6484,184.8633 1733.9453,184.6289 Q1733.2422,184.375 1732.5391,184.375 Q1731.6602,184.375 1730.918,184.7266 Q1730.1953,185.0781 1729.6289,185.8594 Q1729.0625,186.6406 1729.0625,187.7148 L1729.0625,188.8672 Q1729.0625,190.1563 1730.1172,191.0156 Q1731.1719,191.875 1733.0469,191.875 Q1734.1602,191.875 1734.9414,191.6211 Q1735.3906,191.4844 1735.8984,191.0352 Q1736.2305,190.7813 1736.4063,190.7031 Q1736.582,190.625 1736.7969,190.625 Q1737.207,190.625 1737.5,190.957 Q1737.8125,191.2695 1737.8125,191.7188 Q1737.8125,192.1484 1737.3828,192.6563 Q1736.7578,193.3984 1735.7617,193.8086 Q1734.4531,194.375 1732.8516,194.375 Q1730.9766,194.375 1729.4727,193.6328 Q1728.2617,193.0469 1727.4023,191.7773 Q1726.5625,190.5078 1726.5625,189.0039 L1726.5625,187.6367 Q1726.5625,186.0742 1727.3047,184.707 Q1728.0664,183.3398 1729.375,182.6172 Q1730.7031,181.875 1732.1875,181.875 Q1733.0859,181.875 1733.8672,182.1875 Q1734.6484,182.5 1735.3125,183.125 Z " fill="#000000"/><text fill="#000000" font-family="sans-serif" font-size="15" lengthAdjust="spacing" textLength="66.25" x="1758.4375" y="193.6377">TestStore</text><line style="stroke:#A80036;stroke-width:1.875;" x1="1523.125" x2="2019.375" y1="207.5" y2="207.5"/><text fill="#000000" font-family="sans-serif" font-size="13.75" lengthAdjust="spacing" textLength="440" x="1529.375" y="226.7737">+getNumTestsWaitingForResultsDayOrInterval(beginningDay, endingDay)</text><text fill="#000000" font-family="sans-serif" font-size="13.75" lengthAdjust="spacing" textLength="453.75" x="1529.375" y="244.0686">+getNumTestsWaitingForDiagnosisDayOrInterval(beginningDay, endingDay)</text><text fill="#000000" font-family="sans-serif" font-size="13.75" lengthAdjust="spacing" textLength="428.75" x="1529.375" y="261.3635">+getNumTestsProcessedInLabDayOrInterval(beginningDay, endingDay)</text><text fill="#000000" font-family="sans-serif" font-size="13.75" lengthAdjust="spacing" textLength="483.75" x="1529.375" y="278.6584">+getNumberOfTestsByIntervalDateOfTestRegistration(beginningDay, endingDay)</text><text fill="#000000" font-family="sans-serif" font-size="13.75" lengthAdjust="spacing" textLength="445" x="1529.375" y="295.9534">+getNumberOfTestsByIntervalDateOfDiagnosis(beginningDay, endingDay)</text><!--MD5=[55cb992be19579b505cea3c5691093cb]
class ClientStore--><rect codeLine="45" fill="#FEFECE" filter="url(#f1g41jccnolmr9)" height="67.2949" id="ClientStore" style="stroke:#A80036;stroke-width:1.875;" width="116.25" x="1361.875" y="201.875"/><ellipse cx="1380.625" cy="221.875" fill="#ADD1B2" rx="13.75" ry="13.75" style="stroke:#A80036;stroke-width:1.25;"/><path d="M1383.125,217.5 Q1383.3789,216.875 1383.6719,216.5625 Q1383.9648,216.25 1384.2969,216.25 Q1384.8828,216.25 1385.2539,216.6016 Q1385.625,216.9531 1385.625,217.7734 L1385.625,219.7266 Q1385.625,220.5469 1385.2734,220.8984 Q1384.9219,221.25 1384.375,221.25 Q1383.8867,221.25 1383.5742,221.0352 Q1383.2617,220.8203 1383.125,220.2539 Q1383.0664,219.8633 1382.8516,219.6484 Q1382.4609,219.2383 1381.7578,219.0039 Q1381.0547,218.75 1380.3516,218.75 Q1379.4727,218.75 1378.7305,219.1016 Q1378.0078,219.4531 1377.4414,220.2344 Q1376.875,221.0156 1376.875,222.0898 L1376.875,223.2422 Q1376.875,224.5313 1377.9297,225.3906 Q1378.9844,226.25 1380.8594,226.25 Q1381.9727,226.25 1382.7539,225.9961 Q1383.2031,225.8594 1383.7109,225.4102 Q1384.043,225.1563 1384.2188,225.0781 Q1384.3945,225 1384.6094,225 Q1385.0195,225 1385.3125,225.332 Q1385.625,225.6445 1385.625,226.0938 Q1385.625,226.5234 1385.1953,227.0313 Q1384.5703,227.7734 1383.5742,228.1836 Q1382.2656,228.75 1380.6641,228.75 Q1378.7891,228.75 1377.2852,228.0078 Q1376.0742,227.4219 1375.2148,226.1523 Q1374.375,224.8828 1374.375,223.3789 L1374.375,222.0117 Q1374.375,220.4492 1375.1172,219.082 Q1375.8789,217.7148 1377.1875,216.9922 Q1378.5156,216.25 1380,216.25 Q1380.8984,216.25 1381.6797,216.5625 Q1382.4609,216.875 1383.125,217.5 Z " fill="#000000"/><text fill="#000000" font-family="sans-serif" font-size="15" lengthAdjust="spacing" textLength="76.25" x="1398.125" y="228.0127">ClientStore</text><line style="stroke:#A80036;stroke-width:1.875;" x1="1363.125" x2="1476.875" y1="241.875" y2="241.875"/><text fill="#000000" font-family="sans-serif" font-size="13.75" lengthAdjust="spacing" textLength="76.25" x="1369.375" y="261.1487">+getClients()</text><!--MD5=[f4a38599b97b911edb1e154f571cf5e4]
class BenchmarkAlgorithmAdapter--><rect codeLine="53" fill="#FEFECE" filter="url(#f1g41jccnolmr9)" height="67.2949" id="BenchmarkAlgorithmAdapter" style="stroke:#A80036;stroke-width:1.875;" width="236.25" x="1054.375" y="201.875"/><ellipse cx="1073.125" cy="221.875" fill="#ADD1B2" rx="13.75" ry="13.75" style="stroke:#A80036;stroke-width:1.25;"/><path d="M1075.625,217.5 Q1075.8789,216.875 1076.1719,216.5625 Q1076.4648,216.25 1076.7969,216.25 Q1077.3828,216.25 1077.7539,216.6016 Q1078.125,216.9531 1078.125,217.7734 L1078.125,219.7266 Q1078.125,220.5469 1077.7734,220.8984 Q1077.4219,221.25 1076.875,221.25 Q1076.3867,221.25 1076.0742,221.0352 Q1075.7617,220.8203 1075.625,220.2539 Q1075.5664,219.8633 1075.3516,219.6484 Q1074.9609,219.2383 1074.2578,219.0039 Q1073.5547,218.75 1072.8516,218.75 Q1071.9727,218.75 1071.2305,219.1016 Q1070.5078,219.4531 1069.9414,220.2344 Q1069.375,221.0156 1069.375,222.0898 L1069.375,223.2422 Q1069.375,224.5313 1070.4297,225.3906 Q1071.4844,226.25 1073.3594,226.25 Q1074.4727,226.25 1075.2539,225.9961 Q1075.7031,225.8594 1076.2109,225.4102 Q1076.543,225.1563 1076.7188,225.0781 Q1076.8945,225 1077.1094,225 Q1077.5195,225 1077.8125,225.332 Q1078.125,225.6445 1078.125,226.0938 Q1078.125,226.5234 1077.6953,227.0313 Q1077.0703,227.7734 1076.0742,228.1836 Q1074.7656,228.75 1073.1641,228.75 Q1071.2891,228.75 1069.7852,228.0078 Q1068.5742,227.4219 1067.7148,226.1523 Q1066.875,224.8828 1066.875,223.3789 L1066.875,222.0117 Q1066.875,220.4492 1067.6172,219.082 Q1068.3789,217.7148 1069.6875,216.9922 Q1071.0156,216.25 1072.5,216.25 Q1073.3984,216.25 1074.1797,216.5625 Q1074.9609,216.875 1075.625,217.5 Z " fill="#000000"/><text fill="#000000" font-family="sans-serif" font-size="15" lengthAdjust="spacing" textLength="196.25" x="1090.625" y="228.0127">BenchmarkAlgorithmAdapter</text><line style="stroke:#A80036;stroke-width:1.875;" x1="1055.625" x2="1289.375" y1="241.875" y2="241.875"/><text fill="#000000" font-family="sans-serif" font-size="13.75" lengthAdjust="spacing" textLength="158.75" x="1061.875" y="261.1487">+findSubMaxSum(interval)</text><!--MD5=[3d195b319a9e341286852cea89c88ec3]
class BruteForceAlgorithmAdapter--><rect codeLine="57" fill="#FEFECE" filter="url(#f1g41jccnolmr9)" height="67.2949" id="BruteForceAlgorithmAdapter" style="stroke:#A80036;stroke-width:1.875;" width="232.5" x="777.5" y="201.875"/><ellipse cx="796.25" cy="221.875" fill="#ADD1B2" rx="13.75" ry="13.75" style="stroke:#A80036;stroke-width:1.25;"/><path d="M798.75,217.5 Q799.0039,216.875 799.2969,216.5625 Q799.5898,216.25 799.9219,216.25 Q800.5078,216.25 800.8789,216.6016 Q801.25,216.9531 801.25,217.7734 L801.25,219.7266 Q801.25,220.5469 800.8984,220.8984 Q800.5469,221.25 800,221.25 Q799.5117,221.25 799.1992,221.0352 Q798.8867,220.8203 798.75,220.2539 Q798.6914,219.8633 798.4766,219.6484 Q798.0859,219.2383 797.3828,219.0039 Q796.6797,218.75 795.9766,218.75 Q795.0977,218.75 794.3555,219.1016 Q793.6328,219.4531 793.0664,220.2344 Q792.5,221.0156 792.5,222.0898 L792.5,223.2422 Q792.5,224.5313 793.5547,225.3906 Q794.6094,226.25 796.4844,226.25 Q797.5977,226.25 798.3789,225.9961 Q798.8281,225.8594 799.3359,225.4102 Q799.668,225.1563 799.8438,225.0781 Q800.0195,225 800.2344,225 Q800.6445,225 800.9375,225.332 Q801.25,225.6445 801.25,226.0938 Q801.25,226.5234 800.8203,227.0313 Q800.1953,227.7734 799.1992,228.1836 Q797.8906,228.75 796.2891,228.75 Q794.4141,228.75 792.9102,228.0078 Q791.6992,227.4219 790.8398,226.1523 Q790,224.8828 790,223.3789 L790,222.0117 Q790,220.4492 790.7422,219.082 Q791.5039,217.7148 792.8125,216.9922 Q794.1406,216.25 795.625,216.25 Q796.5234,216.25 797.3047,216.5625 Q798.0859,216.875 798.75,217.5 Z " fill="#000000"/><text fill="#000000" font-family="sans-serif" font-size="15" lengthAdjust="spacing" textLength="192.5" x="813.75" y="228.0127">BruteForceAlgorithmAdapter</text><line style="stroke:#A80036;stroke-width:1.875;" x1="778.75" x2="1008.75" y1="241.875" y2="241.875"/><text fill="#000000" font-family="sans-serif" font-size="13.75" lengthAdjust="spacing" textLength="158.75" x="785" y="261.1487">+findSubMaxSum(interval)</text><!--MD5=[670275f839cd0f6ae295f6f439fd6034]
class CompanyPerformanceAnalysisController--><rect codeLine="67" fill="#FEFECE" filter="url(#f1g41jccnolmr9)" height="232.9492" id="CompanyPerformanceAnalysisController" style="stroke:#A80036;stroke-width:1.875;" width="396.25" x="280.625" y="119.375"/><ellipse cx="333.6875" cy="139.375" fill="#ADD1B2" rx="13.75" ry="13.75" style="stroke:#A80036;stroke-width:1.25;"/><path d="M336.1875,135 Q336.4414,134.375 336.7344,134.0625 Q337.0273,133.75 337.3594,133.75 Q337.9453,133.75 338.3164,134.1016 Q338.6875,134.4531 338.6875,135.2734 L338.6875,137.2266 Q338.6875,138.0469 338.3359,138.3984 Q337.9844,138.75 337.4375,138.75 Q336.9492,138.75 336.6367,138.5352 Q336.3242,138.3203 336.1875,137.7539 Q336.1289,137.3633 335.9141,137.1484 Q335.5234,136.7383 334.8203,136.5039 Q334.1172,136.25 333.4141,136.25 Q332.5352,136.25 331.793,136.6016 Q331.0703,136.9531 330.5039,137.7344 Q329.9375,138.5156 329.9375,139.5898 L329.9375,140.7422 Q329.9375,142.0313 330.9922,142.8906 Q332.0469,143.75 333.9219,143.75 Q335.0352,143.75 335.8164,143.4961 Q336.2656,143.3594 336.7734,142.9102 Q337.1055,142.6563 337.2813,142.5781 Q337.457,142.5 337.6719,142.5 Q338.082,142.5 338.375,142.832 Q338.6875,143.1445 338.6875,143.5938 Q338.6875,144.0234 338.2578,144.5313 Q337.6328,145.2734 336.6367,145.6836 Q335.3281,146.25 333.7266,146.25 Q331.8516,146.25 330.3477,145.5078 Q329.1367,144.9219 328.2773,143.6523 Q327.4375,142.3828 327.4375,140.8789 L327.4375,139.5117 Q327.4375,137.9492 328.1797,136.582 Q328.9414,135.2148 330.25,134.4922 Q331.5781,133.75 333.0625,133.75 Q333.9609,133.75 334.7422,134.0625 Q335.5234,134.375 336.1875,135 Z " fill="#000000"/><text fill="#000000" font-family="sans-serif" font-size="15" lengthAdjust="spacing" textLength="280" x="358.8125" y="145.5127">CompanyPerformanceAnalysisController</text><line style="stroke:#A80036;stroke-width:1.875;" x1="281.875" x2="675.625" y1="159.375" y2="159.375"/><text fill="#000000" font-family="sans-serif" font-size="13.75" lengthAdjust="spacing" textLength="120" x="288.125" y="178.6487">-Company company</text><line style="stroke:#A80036;stroke-width:1.875;" x1="281.875" x2="675.625" y1="186.6699" y2="186.6699"/><text fill="#000000" font-family="sans-serif" font-size="13.75" lengthAdjust="spacing" textLength="102.5" x="288.125" y="205.9436">+getNumClients()</text><text fill="#000000" font-family="sans-serif" font-size="13.75" lengthAdjust="spacing" textLength="158.75" x="288.125" y="223.2385">+getTestInfoPerDay(days)</text><text fill="#000000" font-family="sans-serif" font-size="13.75" lengthAdjust="spacing" textLength="168.75" x="288.125" y="240.5334">+getTestInfoPerWeek(days)</text><text fill="#000000" font-family="sans-serif" font-size="13.75" lengthAdjust="spacing" textLength="171.25" x="288.125" y="257.8284">+getTestInfoPerMonth(days)</text><text fill="#000000" font-family="sans-serif" font-size="13.75" lengthAdjust="spacing" textLength="165" x="288.125" y="275.1233">+getTestInfoPerYear(days)</text><text fill="#000000" font-family="sans-serif" font-size="13.75" lengthAdjust="spacing" textLength="220" x="288.125" y="292.4182">+getDays(beginningDay, endingDay)</text><text fill="#000000" font-family="sans-serif" font-size="13.75" lengthAdjust="spacing" textLength="157.5" x="288.125" y="309.7131">+makeIntervalArray(days)</text><text fill="#000000" font-family="sans-serif" font-size="13.75" lengthAdjust="spacing" textLength="381.25" x="288.125" y="327.0081">+findWorstSubIntWithChosenAlgorithm(days, chosenAlgorithm)</text><text fill="#000000" font-family="sans-serif" font-size="13.75" lengthAdjust="spacing" textLength="288.75" x="288.125" y="344.303">+getChosenAlgorithmAdapter(chosenAlgorithm)</text><!--MD5=[bbc84d1aa0e7f30bd67b3f6e81f0f299]
class Sum--><rect codeLine="86" fill="#FEFECE" filter="url(#f1g41jccnolmr9)" height="67.2949" id="Sum" style="stroke:#A80036;stroke-width:1.875;" width="80" x="100" y="201.875"/><ellipse cx="122.125" cy="221.875" fill="#ADD1B2" rx="13.75" ry="13.75" style="stroke:#A80036;stroke-width:1.25;"/><path d="M124.625,217.5 Q124.8789,216.875 125.1719,216.5625 Q125.4648,216.25 125.7969,216.25 Q126.3828,216.25 126.7539,216.6016 Q127.125,216.9531 127.125,217.7734 L127.125,219.7266 Q127.125,220.5469 126.7734,220.8984 Q126.4219,221.25 125.875,221.25 Q125.3867,221.25 125.0742,221.0352 Q124.7617,220.8203 124.625,220.2539 Q124.5664,219.8633 124.3516,219.6484 Q123.9609,219.2383 123.2578,219.0039 Q122.5547,218.75 121.8516,218.75 Q120.9727,218.75 120.2305,219.1016 Q119.5078,219.4531 118.9414,220.2344 Q118.375,221.0156 118.375,222.0898 L118.375,223.2422 Q118.375,224.5313 119.4297,225.3906 Q120.4844,226.25 122.3594,226.25 Q123.4727,226.25 124.2539,225.9961 Q124.7031,225.8594 125.2109,225.4102 Q125.543,225.1563 125.7188,225.0781 Q125.8945,225 126.1094,225 Q126.5195,225 126.8125,225.332 Q127.125,225.6445 127.125,226.0938 Q127.125,226.5234 126.6953,227.0313 Q126.0703,227.7734 125.0742,228.1836 Q123.7656,228.75 122.1641,228.75 Q120.2891,228.75 118.7852,228.0078 Q117.5742,227.4219 116.7148,226.1523 Q115.875,224.8828 115.875,223.3789 L115.875,222.0117 Q115.875,220.4492 116.6172,219.082 Q117.3789,217.7148 118.6875,216.9922 Q120.0156,216.25 121.5,216.25 Q122.3984,216.25 123.1797,216.5625 Q123.9609,216.875 124.625,217.5 Z " fill="#000000"/><text fill="#000000" font-family="sans-serif" font-size="15" lengthAdjust="spacing" textLength="32.5" x="140.375" y="228.0127">Sum</text><line style="stroke:#A80036;stroke-width:1.875;" x1="101.25" x2="178.75" y1="241.875" y2="241.875"/><text fill="#000000" font-family="sans-serif" font-size="13.75" lengthAdjust="spacing" textLength="65" x="107.5" y="261.1487">+Max(seq)</text><!--MD5=[3404723274ca4ec774b8d2f7e379376f]
class CompanyPerformanceAnalysisUI--><rect codeLine="100" fill="#FEFECE" filter="url(#f1g41jccnolmr9)" height="40" id="CompanyPerformanceAnalysisUI" style="stroke:#A80036;stroke-width:1.875;" width="267.5" x="2900" y="215.625"/><ellipse cx="2918.75" cy="235.625" fill="#ADD1B2" rx="13.75" ry="13.75" style="stroke:#A80036;stroke-width:1.25;"/><path d="M2921.25,231.25 Q2921.5039,230.625 2921.7969,230.3125 Q2922.0898,230 2922.4219,230 Q2923.0078,230 2923.3789,230.3516 Q2923.75,230.7031 2923.75,231.5234 L2923.75,233.4766 Q2923.75,234.2969 2923.3984,234.6484 Q2923.0469,235 2922.5,235 Q2922.0117,235 2921.6992,234.7852 Q2921.3867,234.5703 2921.25,234.0039 Q2921.1914,233.6133 2920.9766,233.3984 Q2920.5859,232.9883 2919.8828,232.7539 Q2919.1797,232.5 2918.4766,232.5 Q2917.5977,232.5 2916.8555,232.8516 Q2916.1328,233.2031 2915.5664,233.9844 Q2915,234.7656 2915,235.8398 L2915,236.9922 Q2915,238.2813 2916.0547,239.1406 Q2917.1094,240 2918.9844,240 Q2920.0977,240 2920.8789,239.7461 Q2921.3281,239.6094 2921.8359,239.1602 Q2922.168,238.9063 2922.3438,238.8281 Q2922.5195,238.75 2922.7344,238.75 Q2923.1445,238.75 2923.4375,239.082 Q2923.75,239.3945 2923.75,239.8438 Q2923.75,240.2734 2923.3203,240.7813 Q2922.6953,241.5234 2921.6992,241.9336 Q2920.3906,242.5 2918.7891,242.5 Q2916.9141,242.5 2915.4102,241.7578 Q2914.1992,241.1719 2913.3398,239.9023 Q2912.5,238.6328 2912.5,237.1289 L2912.5,235.7617 Q2912.5,234.1992 2913.2422,232.832 Q2914.0039,231.4648 2915.3125,230.7422 Q2916.6406,230 2918.125,230 Q2919.0234,230 2919.8047,230.3125 Q2920.5859,230.625 2921.25,231.25 Z " fill="#000000"/><text fill="#000000" font-family="sans-serif" font-size="15" lengthAdjust="spacing" textLength="227.5" x="2936.25" y="241.7627">CompanyPerformanceAnalysisUI</text><!--MD5=[740974138e4835885d0fce5ceb253262]
@startuml
'skinparam linetype ortho
hide empty methods
hide empty attributes
'left to right direction
skinparam classAttributeIconSize 0

package Core {

package Domain {

package Model{

class Company {
    -String designation
    -TestStore testStore
    -ClientStore clientStore
    +getTestStore()
    +getClientStore()
}

class BruteForceAlgorithm{
    +Max(seq)
}

}

package Interfaces {

interface SubMaxSumAlgorithms <<interface>> {
    +findSubMaxSum(interval)
}

}

package Store {

class TestStore {
    +getNumTestsWaitingForResultsDayOrInterval(beginningDay, endingDay)
    +getNumTestsWaitingForDiagnosisDayOrInterval(beginningDay, endingDay)
    +getNumTestsProcessedInLabDayOrInterval(beginningDay, endingDay)
    +getNumberOfTestsByIntervalDateOfTestRegistration(beginningDay, endingDay)
    +getNumberOfTestsByIntervalDateOfDiagnosis(beginningDay, endingDay)
}

class ClientStore {
    +getClients()
}

}

package Adapters{

class BenchmarkAlgorithmAdapter{
    +findSubMaxSum(interval)
}

class BruteForceAlgorithmAdapter{
    +findSubMaxSum(interval)
}

}

}

package Controller {

class CompanyPerformanceAnalysisController{
    -Company company
    +getNumClients()
    +getTestInfoPerDay(days)
    +getTestInfoPerWeek(days)
    +getTestInfoPerMonth(days)
    +getTestInfoPerYear(days)
    +getDays(beginningDay, endingDay)
    +makeIntervalArray(days)
    +findWorstSubIntWithChosenAlgorithm(days, chosenAlgorithm)
    +getChosenAlgorithmAdapter(chosenAlgorithm)
}

}

package ThirdParty{

package APIs{

class Sum{
    +Max(seq)
}

}

}

}

package UI {

package GUI {

class CompanyPerformanceAnalysisUI{
}

}

}

@enduml

@startuml
hide empty methods
hide empty attributes
skinparam classAttributeIconSize 0

package Core {

package Domain {

package Model{

class Company {
    -String designation
    -TestStore testStore
    -ClientStore clientStore
    +getTestStore()
    +getClientStore()
}

class BruteForceAlgorithm{
    +Max(seq)
}

}

package Interfaces {

interface SubMaxSumAlgorithms <<interface>> {
    +findSubMaxSum(interval)
}

}

package Store {

class TestStore {
    +getNumTestsWaitingForResultsDayOrInterval(beginningDay, endingDay)
    +getNumTestsWaitingForDiagnosisDayOrInterval(beginningDay, endingDay)
    +getNumTestsProcessedInLabDayOrInterval(beginningDay, endingDay)
    +getNumberOfTestsByIntervalDateOfTestRegistration(beginningDay, endingDay)
    +getNumberOfTestsByIntervalDateOfDiagnosis(beginningDay, endingDay)
}

class ClientStore {
    +getClients()
}

}

package Adapters{

class BenchmarkAlgorithmAdapter{
    +findSubMaxSum(interval)
}

class BruteForceAlgorithmAdapter{
    +findSubMaxSum(interval)
}

}

}

package Controller {

class CompanyPerformanceAnalysisController{
    -Company company
    +getNumClients()
    +getTestInfoPerDay(days)
    +getTestInfoPerWeek(days)
    +getTestInfoPerMonth(days)
    +getTestInfoPerYear(days)
    +getDays(beginningDay, endingDay)
    +makeIntervalArray(days)
    +findWorstSubIntWithChosenAlgorithm(days, chosenAlgorithm)
    +getChosenAlgorithmAdapter(chosenAlgorithm)
}

}

package ThirdParty{

package APIs{

class Sum{
    +Max(seq)
}

}

}

}

package UI {

package GUI {

class CompanyPerformanceAnalysisUI{
}

}

}

@enduml

PlantUML version 1.2021.7(Sun May 23 13:40:07 BST 2021)
(GPL source distribution)
Java Runtime: OpenJDK Runtime Environment
JVM: Dynamic Code Evolution 64-Bit Server VM
Default Encoding: Cp1252
Language: pt
Country: PT
--></g></svg>