<?xml version="1.0" encoding="UTF-8" standalone="no"?><svg xmlns="http://www.w3.org/2000/svg" xmlns:xlink="http://www.w3.org/1999/xlink" contentScriptType="application/ecmascript" contentStyleType="text/css" height="255px" preserveAspectRatio="none" style="width:948px;height:255px;background:#FFFFFF;" version="1.1" viewBox="0 0 948 255" width="948.75px" zoomAndPan="magnify"><defs><filter height="300%" id="fvtt7d8cuzq36" width="300%" x="-1" y="-1"><feGaussianBlur result="blurOut" stdDeviation="2.5"/><feColorMatrix in="blurOut" result="blurOut2" type="matrix" values="0 0 0 0 0 0 0 0 0 0 0 0 0 0 0 0 0 0 .4 0"/><feOffset dx="5.0" dy="5.0" in="blurOut2" result="blurOut3"/><feBlend in="SourceGraphic" in2="blurOut3" mode="normal"/></filter></defs><g><!--MD5=[02e4b9b7573f1156f41e60aa5b4e25a4]
class Company--><rect codeLine="7" fill="#FEFECE" filter="url(#fvtt7d8cuzq36)" height="67.2949" id="Company" style="stroke:#A80036;stroke-width:1.875;" width="106.25" x="52.5" y="8.75"/><ellipse cx="71.25" cy="28.75" fill="#ADD1B2" rx="13.75" ry="13.75" style="stroke:#A80036;stroke-width:1.25;"/><path d="M73.75,24.375 Q74.0039,23.75 74.2969,23.4375 Q74.5898,23.125 74.9219,23.125 Q75.5078,23.125 75.8789,23.4766 Q76.25,23.8281 76.25,24.6484 L76.25,26.6016 Q76.25,27.4219 75.8984,27.7734 Q75.5469,28.125 75,28.125 Q74.5117,28.125 74.1992,27.9102 Q73.8867,27.6953 73.75,27.1289 Q73.6914,26.7383 73.4766,26.5234 Q73.0859,26.1133 72.3828,25.8789 Q71.6797,25.625 70.9766,25.625 Q70.0977,25.625 69.3555,25.9766 Q68.6328,26.3281 68.0664,27.1094 Q67.5,27.8906 67.5,28.9648 L67.5,30.1172 Q67.5,31.4063 68.5547,32.2656 Q69.6094,33.125 71.4844,33.125 Q72.5977,33.125 73.3789,32.8711 Q73.8281,32.7344 74.3359,32.2852 Q74.668,32.0313 74.8438,31.9531 Q75.0195,31.875 75.2344,31.875 Q75.6445,31.875 75.9375,32.207 Q76.25,32.5195 76.25,32.9688 Q76.25,33.3984 75.8203,33.9063 Q75.1953,34.6484 74.1992,35.0586 Q72.8906,35.625 71.2891,35.625 Q69.4141,35.625 67.9102,34.8828 Q66.6992,34.2969 65.8398,33.0273 Q65,31.7578 65,30.2539 L65,28.8867 Q65,27.3242 65.7422,25.957 Q66.5039,24.5898 67.8125,23.8672 Q69.1406,23.125 70.625,23.125 Q71.5234,23.125 72.3047,23.4375 Q73.0859,23.75 73.75,24.375 Z " fill="#000000"/><text fill="#000000" font-family="sans-serif" font-size="15" lengthAdjust="spacing" textLength="66.25" x="88.75" y="34.8877">Company</text><line style="stroke:#A80036;stroke-width:1.875;" x1="53.75" x2="157.5" y1="48.75" y2="48.75"/><text fill="#000000" font-family="sans-serif" font-size="13.75" lengthAdjust="spacing" textLength="73.75" x="60" y="68.0237">-designation</text><!--MD5=[df38be88ccee13e832d6fafd6288a4ca]
class Test--><rect codeLine="11" fill="#FEFECE" filter="url(#fvtt7d8cuzq36)" height="101.8848" id="Test" style="stroke:#A80036;stroke-width:1.875;" width="158.75" x="772.5" y="27.5"/><ellipse cx="831.5625" cy="47.5" fill="#ADD1B2" rx="13.75" ry="13.75" style="stroke:#A80036;stroke-width:1.25;"/><path d="M834.0625,43.125 Q834.3164,42.5 834.6094,42.1875 Q834.9023,41.875 835.2344,41.875 Q835.8203,41.875 836.1914,42.2266 Q836.5625,42.5781 836.5625,43.3984 L836.5625,45.3516 Q836.5625,46.1719 836.2109,46.5234 Q835.8594,46.875 835.3125,46.875 Q834.8242,46.875 834.5117,46.6602 Q834.1992,46.4453 834.0625,45.8789 Q834.0039,45.4883 833.7891,45.2734 Q833.3984,44.8633 832.6953,44.6289 Q831.9922,44.375 831.2891,44.375 Q830.4102,44.375 829.668,44.7266 Q828.9453,45.0781 828.3789,45.8594 Q827.8125,46.6406 827.8125,47.7148 L827.8125,48.8672 Q827.8125,50.1563 828.8672,51.0156 Q829.9219,51.875 831.7969,51.875 Q832.9102,51.875 833.6914,51.6211 Q834.1406,51.4844 834.6484,51.0352 Q834.9805,50.7813 835.1563,50.7031 Q835.332,50.625 835.5469,50.625 Q835.957,50.625 836.25,50.957 Q836.5625,51.2695 836.5625,51.7188 Q836.5625,52.1484 836.1328,52.6563 Q835.5078,53.3984 834.5117,53.8086 Q833.2031,54.375 831.6016,54.375 Q829.7266,54.375 828.2227,53.6328 Q827.0117,53.0469 826.1523,51.7773 Q825.3125,50.5078 825.3125,49.0039 L825.3125,47.6367 Q825.3125,46.0742 826.0547,44.707 Q826.8164,43.3398 828.125,42.6172 Q829.4531,41.875 830.9375,41.875 Q831.8359,41.875 832.6172,42.1875 Q833.3984,42.5 834.0625,43.125 Z " fill="#000000"/><text fill="#000000" font-family="sans-serif" font-size="15" lengthAdjust="spacing" textLength="30" x="857.1875" y="53.6377">Test</text><line style="stroke:#A80036;stroke-width:1.875;" x1="773.75" x2="930" y1="67.5" y2="67.5"/><text fill="#000000" font-family="sans-serif" font-size="13.75" lengthAdjust="spacing" textLength="60" x="780" y="86.7737">-NhsCode</text><text fill="#000000" font-family="sans-serif" font-size="13.75" lengthAdjust="spacing" textLength="35" x="780" y="104.0686">-code</text><text fill="#000000" font-family="sans-serif" font-size="13.75" lengthAdjust="spacing" textLength="143.75" x="780" y="121.3635">-dateOfTestRegistration</text><!--MD5=[052425de1c0eb6cc1c1b48342b0bb88f]
class LaboratoryCoordinator--><rect codeLine="17" fill="#FEFECE" filter="url(#fvtt7d8cuzq36)" height="40" id="LaboratoryCoordinator" style="stroke:#A80036;stroke-width:1.875;" width="193.75" x="8.75" y="141.25"/><ellipse cx="27.5" cy="161.25" fill="#ADD1B2" rx="13.75" ry="13.75" style="stroke:#A80036;stroke-width:1.25;"/><path d="M30,156.875 Q30.2539,156.25 30.5469,155.9375 Q30.8398,155.625 31.1719,155.625 Q31.7578,155.625 32.1289,155.9766 Q32.5,156.3281 32.5,157.1484 L32.5,159.1016 Q32.5,159.9219 32.1484,160.2734 Q31.7969,160.625 31.25,160.625 Q30.7617,160.625 30.4492,160.4102 Q30.1367,160.1953 30,159.6289 Q29.9414,159.2383 29.7266,159.0234 Q29.3359,158.6133 28.6328,158.3789 Q27.9297,158.125 27.2266,158.125 Q26.3477,158.125 25.6055,158.4766 Q24.8828,158.8281 24.3164,159.6094 Q23.75,160.3906 23.75,161.4648 L23.75,162.6172 Q23.75,163.9063 24.8047,164.7656 Q25.8594,165.625 27.7344,165.625 Q28.8477,165.625 29.6289,165.3711 Q30.0781,165.2344 30.5859,164.7852 Q30.918,164.5313 31.0938,164.4531 Q31.2695,164.375 31.4844,164.375 Q31.8945,164.375 32.1875,164.707 Q32.5,165.0195 32.5,165.4688 Q32.5,165.8984 32.0703,166.4063 Q31.4453,167.1484 30.4492,167.5586 Q29.1406,168.125 27.5391,168.125 Q25.6641,168.125 24.1602,167.3828 Q22.9492,166.7969 22.0898,165.5273 Q21.25,164.2578 21.25,162.7539 L21.25,161.3867 Q21.25,159.8242 21.9922,158.457 Q22.7539,157.0898 24.0625,156.3672 Q25.3906,155.625 26.875,155.625 Q27.7734,155.625 28.5547,155.9375 Q29.3359,156.25 30,156.875 Z " fill="#000000"/><text fill="#000000" font-family="sans-serif" font-size="15" lengthAdjust="spacing" textLength="153.75" x="45" y="167.3877">LaboratoryCoordinator</text><!--MD5=[ac303f9d3ae5a280bcee843295a9d18a]
class CompanyPerformanceAnalysis--><rect codeLine="20" fill="#FEFECE" filter="url(#fvtt7d8cuzq36)" height="153.7695" id="CompanyPerformanceAnalysis" style="stroke:#A80036;stroke-width:1.875;" width="252.5" x="361.25" y="84.375"/><ellipse cx="380" cy="104.375" fill="#ADD1B2" rx="13.75" ry="13.75" style="stroke:#A80036;stroke-width:1.25;"/><path d="M382.5,100 Q382.7539,99.375 383.0469,99.0625 Q383.3398,98.75 383.6719,98.75 Q384.2578,98.75 384.6289,99.1016 Q385,99.4531 385,100.2734 L385,102.2266 Q385,103.0469 384.6484,103.3984 Q384.2969,103.75 383.75,103.75 Q383.2617,103.75 382.9492,103.5352 Q382.6367,103.3203 382.5,102.7539 Q382.4414,102.3633 382.2266,102.1484 Q381.8359,101.7383 381.1328,101.5039 Q380.4297,101.25 379.7266,101.25 Q378.8477,101.25 378.1055,101.6016 Q377.3828,101.9531 376.8164,102.7344 Q376.25,103.5156 376.25,104.5898 L376.25,105.7422 Q376.25,107.0313 377.3047,107.8906 Q378.3594,108.75 380.2344,108.75 Q381.3477,108.75 382.1289,108.4961 Q382.5781,108.3594 383.0859,107.9102 Q383.418,107.6563 383.5938,107.5781 Q383.7695,107.5 383.9844,107.5 Q384.3945,107.5 384.6875,107.832 Q385,108.1445 385,108.5938 Q385,109.0234 384.5703,109.5313 Q383.9453,110.2734 382.9492,110.6836 Q381.6406,111.25 380.0391,111.25 Q378.1641,111.25 376.6602,110.5078 Q375.4492,109.9219 374.5898,108.6523 Q373.75,107.3828 373.75,105.8789 L373.75,104.5117 Q373.75,102.9492 374.4922,101.582 Q375.2539,100.2148 376.5625,99.4922 Q377.8906,98.75 379.375,98.75 Q380.2734,98.75 381.0547,99.0625 Q381.8359,99.375 382.5,100 Z " fill="#000000"/><text fill="#000000" font-family="sans-serif" font-size="15" lengthAdjust="spacing" textLength="212.5" x="397.5" y="110.5127">CompanyPerformanceAnalysis</text><line style="stroke:#A80036;stroke-width:1.875;" x1="362.5" x2="612.5" y1="124.375" y2="124.375"/><text fill="#000000" font-family="sans-serif" font-size="13.75" lengthAdjust="spacing" textLength="117.5" x="368.75" y="143.6487">-firstDayToAnalyse</text><text fill="#000000" font-family="sans-serif" font-size="13.75" lengthAdjust="spacing" textLength="115" x="368.75" y="160.9436">-lastDayToAnalyse</text><text fill="#000000" font-family="sans-serif" font-size="13.75" lengthAdjust="spacing" textLength="106.25" x="368.75" y="178.2385">-chosenAlgorithm</text><text fill="#000000" font-family="sans-serif" font-size="13.75" lengthAdjust="spacing" textLength="78.75" x="368.75" y="195.5334">-worstSubInt</text><text fill="#000000" font-family="sans-serif" font-size="13.75" lengthAdjust="spacing" textLength="58.75" x="368.75" y="212.8284">-statistics</text><text fill="#000000" font-family="sans-serif" font-size="13.75" lengthAdjust="spacing" textLength="47.5" x="368.75" y="230.1233">-graphs</text><!--MD5=[7e4bc624457760b649895ff2ead938fa]
link Company to Test--><path codeLine="29" d="M159.075,44.0625 C251,46.9125 447.7625,53.5375 613.75,62.5 C666.6375,65.3625 726.1125,69.4375 772.2375,72.8 " fill="none" id="Company-Test" style="stroke:#A80036;stroke-width:1.25;"/><polygon fill="#000000" points="457.4931,41.7623,446.3712,37.5634,446.0272,44.9026,457.4931,41.7623" style="stroke:#000000;stroke-width:1.25;"/><text fill="#000000" font-family="sans-serif" font-size="16.25" lengthAdjust="spacing" textLength="66.25" x="462.5" y="48.1189">conducts</text><text fill="#000000" font-family="sans-serif" font-size="16.25" lengthAdjust="spacing" textLength="8.75" x="168.6523" y="62.8998">1</text><text fill="#000000" font-family="sans-serif" font-size="16.25" lengthAdjust="spacing" textLength="6.25" x="756.4181" y="90.1982">*</text><!--MD5=[0d0c29d46803ed8180724ab1158900d9]
link LaboratoryCoordinator to CompanyPerformanceAnalysis--><path codeLine="30" d="M202.6125,161.25 C250.675,161.25 309.525,161.25 361.125,161.25 " fill="none" id="LaboratoryCoordinator-CompanyPerformanceAnalysis" style="stroke:#A80036;stroke-width:1.25;"/><polygon fill="#000000" points="252.5,150.2197,241.1936,146.5461,241.1936,153.8934,252.5,150.2197" style="stroke:#000000;stroke-width:1.25;"/><text fill="#000000" font-family="sans-serif" font-size="16.25" lengthAdjust="spacing" textLength="65" x="257.5" y="156.8689">analyses</text><text fill="#000000" font-family="sans-serif" font-size="16.25" lengthAdjust="spacing" textLength="25" x="212.3637" y="179.0291">1..*</text><text fill="#000000" font-family="sans-serif" font-size="16.25" lengthAdjust="spacing" textLength="6.25" x="344.9602" y="178.9006">*</text><!--MD5=[9998b5a258ee6660099648093819515e]
link Company to CompanyPerformanceAnalysis--><path codeLine="31" d="M158.825,58.7625 C210.675,74.9875 292.3125,100.55 361.1,122.075 " fill="none" id="Company-CompanyPerformanceAnalysis" style="stroke:#A80036;stroke-width:1.25;"/><polygon fill="#000000" points="271.5896,75.8367,261.8969,68.9534,259.7021,75.9653,271.5896,75.8367" style="stroke:#000000;stroke-width:1.25;"/><text fill="#000000" font-family="sans-serif" font-size="16.25" lengthAdjust="spacing" textLength="26.25" x="276.875" y="80.6189">has</text><text fill="#000000" font-family="sans-serif" font-size="16.25" lengthAdjust="spacing" textLength="8.75" x="168.7207" y="80.2007">1</text><text fill="#000000" font-family="sans-serif" font-size="16.25" lengthAdjust="spacing" textLength="6.25" x="344.9332" y="136.7263">*</text><!--MD5=[8e4a637033e5a122b5efde72f17a21bc]
link CompanyPerformanceAnalysis to Test--><path codeLine="32" d="M613.7875,132.7375 C666.3,120.775 725.7625,107.2125 771.975,96.675 " fill="none" id="CompanyPerformanceAnalysis-Test" style="stroke:#A80036;stroke-width:1.25;"/><polygon fill="#000000" points="663.5937,93.8305,651.7536,92.7618,653.3867,99.9254,663.5937,93.8305" style="stroke:#000000;stroke-width:1.25;"/><text fill="#000000" font-family="sans-serif" font-size="16.25" lengthAdjust="spacing" textLength="65" x="668.75" y="101.8689">analyses</text><text fill="#000000" font-family="sans-serif" font-size="16.25" lengthAdjust="spacing" textLength="8.75" x="623.7913" y="148.2051">1</text><text fill="#000000" font-family="sans-serif" font-size="16.25" lengthAdjust="spacing" textLength="6.25" x="756.1252" y="116.8337">*</text><!--MD5=[785611193a0410c53965932106027481]
@startuml

skinparam classAttributeIconSize 0
hide empty methods
hide empty attributes
left to right direction

class Company{
- designation
}

class Test{
- NhsCode
- code
- dateOfTestRegistration
}

class LaboratoryCoordinator{
}

class CompanyPerformanceAnalysis{
- firstDayToAnalyse
- lastDayToAnalyse
- chosenAlgorithm
- worstSubInt
- statistics
- graphs
}

Company "1" - - "*" Test : conducts >
LaboratoryCoordinator "1..*" - - "*" CompanyPerformanceAnalysis : analyses >
Company "1" - - "*" CompanyPerformanceAnalysis : has >
CompanyPerformanceAnalysis "1" - - "*" Test : analyses >

@enduml

PlantUML version 1.2021.7(Sun May 23 13:40:07 BST 2021)
(GPL source distribution)
Java Runtime: OpenJDK Runtime Environment
JVM: Dynamic Code Evolution 64-Bit Server VM
Default Encoding: Cp1252
Language: pt
Country: PT
--></g></svg>