<?xml version="1.0" encoding="UTF-8" standalone="no"?><svg xmlns="http://www.w3.org/2000/svg" xmlns:xlink="http://www.w3.org/1999/xlink" contentScriptType="application/ecmascript" contentStyleType="text/css" height="587.5px" preserveAspectRatio="none" style="width:1567px;height:587px;background:#FFFFFF;" version="1.1" viewBox="0 0 1567 587" width="1567.5px" zoomAndPan="magnify"><defs><filter height="300%" id="fgchyhps4f7ea" width="300%" x="-1" y="-1"><feGaussianBlur result="blurOut" stdDeviation="2.5"/><feColorMatrix in="blurOut" result="blurOut2" type="matrix" values="0 0 0 0 0 0 0 0 0 0 0 0 0 0 0 0 0 0 .4 0"/><feOffset dx="5.0" dy="5.0" in="blurOut2" result="blurOut3"/><feBlend in="SourceGraphic" in2="blurOut3" mode="normal"/></filter></defs><g><!--MD5=[121a8bf1197281ab89ed693fab589f94]
cluster Domain--><polygon fill="#FFFFFF" filter="url(#fgchyhps4f7ea)" points="921.25,7.5,993.75,7.5,1002.5,37.0117,1546.25,37.0117,1546.25,578.75,921.25,578.75,921.25,7.5" style="stroke:#000000;stroke-width:1.875;"/><line style="stroke:#000000;stroke-width:1.875;" x1="921.25" x2="1002.5" y1="37.0117" y2="37.0117"/><text fill="#000000" font-family="sans-serif" font-size="17.5" font-weight="bold" lengthAdjust="spacing" textLength="65" x="926.25" y="28.1665">Domain</text><!--MD5=[15636c1ca4a123c16a2a1a8e90aca7a9]
cluster Model--><polygon fill="#FFFFFF" filter="url(#fgchyhps4f7ea)" points="951.25,62.5,1013.75,62.5,1022.5,92.0117,1516.25,92.0117,1516.25,275,951.25,275,951.25,62.5" style="stroke:#000000;stroke-width:1.875;"/><line style="stroke:#000000;stroke-width:1.875;" x1="951.25" x2="1022.5" y1="92.0117" y2="92.0117"/><text fill="#000000" font-family="sans-serif" font-size="17.5" font-weight="bold" lengthAdjust="spacing" textLength="55" x="956.25" y="83.1665">Model</text><!--MD5=[7ce1723ddb6e6233854253973eae5a71]
cluster Store--><polygon fill="#FFFFFF" filter="url(#fgchyhps4f7ea)" points="969.375,305,1024.375,305,1033.125,334.5117,1125.625,334.5117,1125.625,548.75,969.375,548.75,969.375,305" style="stroke:#000000;stroke-width:1.875;"/><line style="stroke:#000000;stroke-width:1.875;" x1="969.375" x2="1033.125" y1="334.5117" y2="334.5117"/><text fill="#000000" font-family="sans-serif" font-size="17.5" font-weight="bold" lengthAdjust="spacing" textLength="47.5" x="974.375" y="325.6665">Store</text><!--MD5=[1f2cfc53d9d308f53762fd0fcbaa4873]
cluster Controller--><polygon fill="#FFFFFF" filter="url(#fgchyhps4f7ea)" points="368.75,296.25,465,296.25,473.75,325.7617,880,325.7617,880,446.25,368.75,446.25,368.75,296.25" style="stroke:#000000;stroke-width:1.875;"/><line style="stroke:#000000;stroke-width:1.875;" x1="368.75" x2="473.75" y1="325.7617" y2="325.7617"/><text fill="#000000" font-family="sans-serif" font-size="17.5" font-weight="bold" lengthAdjust="spacing" textLength="88.75" x="373.75" y="316.9165">Controller</text><!--MD5=[9681dc6e01e10c6b4fe06895ae94f592]
cluster UI--><polygon fill="#FFFFFF" filter="url(#fgchyhps4f7ea)" points="20,318.75,45,318.75,53.75,348.2617,327.5,348.2617,327.5,423.75,20,423.75,20,318.75" style="stroke:#000000;stroke-width:1.875;"/><line style="stroke:#000000;stroke-width:1.875;" x1="20" x2="53.75" y1="348.2617" y2="348.2617"/><text fill="#000000" font-family="sans-serif" font-size="17.5" font-weight="bold" lengthAdjust="spacing" textLength="17.5" x="25" y="339.4165">UI</text><!--MD5=[02e4b9b7573f1156f41e60aa5b4e25a4]
class Company--><rect codeLine="10" fill="#FEFECE" filter="url(#fgchyhps4f7ea)" height="146.4746" id="Company" style="stroke:#A80036;stroke-width:1.875;" width="152.5" x="971.25" y="108.125"/><ellipse cx="1010.8125" cy="128.125" fill="#ADD1B2" rx="13.75" ry="13.75" style="stroke:#A80036;stroke-width:1.25;"/><path d="M1013.3125,123.75 Q1013.5664,123.125 1013.8594,122.8125 Q1014.1523,122.5 1014.4844,122.5 Q1015.0703,122.5 1015.4414,122.8516 Q1015.8125,123.2031 1015.8125,124.0234 L1015.8125,125.9766 Q1015.8125,126.7969 1015.4609,127.1484 Q1015.1094,127.5 1014.5625,127.5 Q1014.0742,127.5 1013.7617,127.2852 Q1013.4492,127.0703 1013.3125,126.5039 Q1013.2539,126.1133 1013.0391,125.8984 Q1012.6484,125.4883 1011.9453,125.2539 Q1011.2422,125 1010.5391,125 Q1009.6602,125 1008.918,125.3516 Q1008.1953,125.7031 1007.6289,126.4844 Q1007.0625,127.2656 1007.0625,128.3398 L1007.0625,129.4922 Q1007.0625,130.7813 1008.1172,131.6406 Q1009.1719,132.5 1011.0469,132.5 Q1012.1602,132.5 1012.9414,132.2461 Q1013.3906,132.1094 1013.8984,131.6602 Q1014.2305,131.4063 1014.4063,131.3281 Q1014.582,131.25 1014.7969,131.25 Q1015.207,131.25 1015.5,131.582 Q1015.8125,131.8945 1015.8125,132.3438 Q1015.8125,132.7734 1015.3828,133.2813 Q1014.7578,134.0234 1013.7617,134.4336 Q1012.4531,135 1010.8516,135 Q1008.9766,135 1007.4727,134.2578 Q1006.2617,133.6719 1005.4023,132.4023 Q1004.5625,131.1328 1004.5625,129.6289 L1004.5625,128.2617 Q1004.5625,126.6992 1005.3047,125.332 Q1006.0664,123.9648 1007.375,123.2422 Q1008.7031,122.5 1010.1875,122.5 Q1011.0859,122.5 1011.8672,122.8125 Q1012.6484,123.125 1013.3125,123.75 Z " fill="#000000"/><text fill="#000000" font-family="sans-serif" font-size="15" lengthAdjust="spacing" textLength="66.25" x="1032.9375" y="134.2627">Company</text><line style="stroke:#A80036;stroke-width:1.875;" x1="972.5" x2="1122.5" y1="148.125" y2="148.125"/><text fill="#000000" font-family="sans-serif" font-size="13.75" lengthAdjust="spacing" textLength="112.5" x="978.75" y="167.3987">-String designation</text><text fill="#000000" font-family="sans-serif" font-size="13.75" lengthAdjust="spacing" textLength="122.5" x="978.75" y="184.6936">-TestStore testStore</text><text fill="#000000" font-family="sans-serif" font-size="13.75" lengthAdjust="spacing" textLength="137.5" x="978.75" y="201.9885">-ClientStore clientStore</text><line style="stroke:#A80036;stroke-width:1.875;" x1="972.5" x2="1122.5" y1="210.0098" y2="210.0098"/><text fill="#000000" font-family="sans-serif" font-size="13.75" lengthAdjust="spacing" textLength="95" x="978.75" y="229.2834">+getTestStore()</text><text fill="#000000" font-family="sans-serif" font-size="13.75" lengthAdjust="spacing" textLength="101.25" x="978.75" y="246.5784">+getClientStore()</text><!--MD5=[ac303f9d3ae5a280bcee843295a9d18a]
class CompanyPerformanceAnalysis--><rect codeLine="18" fill="#FEFECE" filter="url(#fgchyhps4f7ea)" height="94.5898" id="CompanyPerformanceAnalysis" style="stroke:#A80036;stroke-width:1.875;" width="252.5" x="1243.75" y="133.75"/><ellipse cx="1262.5" cy="153.75" fill="#ADD1B2" rx="13.75" ry="13.75" style="stroke:#A80036;stroke-width:1.25;"/><path d="M1265,149.375 Q1265.2539,148.75 1265.5469,148.4375 Q1265.8398,148.125 1266.1719,148.125 Q1266.7578,148.125 1267.1289,148.4766 Q1267.5,148.8281 1267.5,149.6484 L1267.5,151.6016 Q1267.5,152.4219 1267.1484,152.7734 Q1266.7969,153.125 1266.25,153.125 Q1265.7617,153.125 1265.4492,152.9102 Q1265.1367,152.6953 1265,152.1289 Q1264.9414,151.7383 1264.7266,151.5234 Q1264.3359,151.1133 1263.6328,150.8789 Q1262.9297,150.625 1262.2266,150.625 Q1261.3477,150.625 1260.6055,150.9766 Q1259.8828,151.3281 1259.3164,152.1094 Q1258.75,152.8906 1258.75,153.9648 L1258.75,155.1172 Q1258.75,156.4063 1259.8047,157.2656 Q1260.8594,158.125 1262.7344,158.125 Q1263.8477,158.125 1264.6289,157.8711 Q1265.0781,157.7344 1265.5859,157.2852 Q1265.918,157.0313 1266.0938,156.9531 Q1266.2695,156.875 1266.4844,156.875 Q1266.8945,156.875 1267.1875,157.207 Q1267.5,157.5195 1267.5,157.9688 Q1267.5,158.3984 1267.0703,158.9063 Q1266.4453,159.6484 1265.4492,160.0586 Q1264.1406,160.625 1262.5391,160.625 Q1260.6641,160.625 1259.1602,159.8828 Q1257.9492,159.2969 1257.0898,158.0273 Q1256.25,156.7578 1256.25,155.2539 L1256.25,153.8867 Q1256.25,152.3242 1256.9922,150.957 Q1257.7539,149.5898 1259.0625,148.8672 Q1260.3906,148.125 1261.875,148.125 Q1262.7734,148.125 1263.5547,148.4375 Q1264.3359,148.75 1265,149.375 Z " fill="#000000"/><text fill="#000000" font-family="sans-serif" font-size="15" lengthAdjust="spacing" textLength="212.5" x="1280" y="159.8877">CompanyPerformanceAnalysis</text><line style="stroke:#A80036;stroke-width:1.875;" x1="1245" x2="1495" y1="173.75" y2="173.75"/><text fill="#000000" font-family="sans-serif" font-size="13.75" lengthAdjust="spacing" textLength="195" x="1251.25" y="193.0237">-ArrayList&lt;Integer&gt; worstSubInt</text><line style="stroke:#A80036;stroke-width:1.875;" x1="1245" x2="1495" y1="201.0449" y2="201.0449"/><text fill="#000000" font-family="sans-serif" font-size="13.75" lengthAdjust="spacing" textLength="187.5" x="1251.25" y="220.3186">+addWorstSubInt(worstSubInt)</text><!--MD5=[0f6f7964b844a64b0496af0dda7914bd]
class TestStore--><rect codeLine="27" fill="#FEFECE" filter="url(#fgchyhps4f7ea)" height="67.2949" id="TestStore" style="stroke:#A80036;stroke-width:1.875;" width="106.25" x="994.375" y="350"/><ellipse cx="1013.125" cy="370" fill="#ADD1B2" rx="13.75" ry="13.75" style="stroke:#A80036;stroke-width:1.25;"/><path d="M1015.625,365.625 Q1015.8789,365 1016.1719,364.6875 Q1016.4648,364.375 1016.7969,364.375 Q1017.3828,364.375 1017.7539,364.7266 Q1018.125,365.0781 1018.125,365.8984 L1018.125,367.8516 Q1018.125,368.6719 1017.7734,369.0234 Q1017.4219,369.375 1016.875,369.375 Q1016.3867,369.375 1016.0742,369.1602 Q1015.7617,368.9453 1015.625,368.3789 Q1015.5664,367.9883 1015.3516,367.7734 Q1014.9609,367.3633 1014.2578,367.1289 Q1013.5547,366.875 1012.8516,366.875 Q1011.9727,366.875 1011.2305,367.2266 Q1010.5078,367.5781 1009.9414,368.3594 Q1009.375,369.1406 1009.375,370.2148 L1009.375,371.3672 Q1009.375,372.6563 1010.4297,373.5156 Q1011.4844,374.375 1013.3594,374.375 Q1014.4727,374.375 1015.2539,374.1211 Q1015.7031,373.9844 1016.2109,373.5352 Q1016.543,373.2813 1016.7188,373.2031 Q1016.8945,373.125 1017.1094,373.125 Q1017.5195,373.125 1017.8125,373.457 Q1018.125,373.7695 1018.125,374.2188 Q1018.125,374.6484 1017.6953,375.1563 Q1017.0703,375.8984 1016.0742,376.3086 Q1014.7656,376.875 1013.1641,376.875 Q1011.2891,376.875 1009.7852,376.1328 Q1008.5742,375.5469 1007.7148,374.2773 Q1006.875,373.0078 1006.875,371.5039 L1006.875,370.1367 Q1006.875,368.5742 1007.6172,367.207 Q1008.3789,365.8398 1009.6875,365.1172 Q1011.0156,364.375 1012.5,364.375 Q1013.3984,364.375 1014.1797,364.6875 Q1014.9609,365 1015.625,365.625 Z " fill="#000000"/><text fill="#000000" font-family="sans-serif" font-size="15" lengthAdjust="spacing" textLength="66.25" x="1030.625" y="376.1377">TestStore</text><line style="stroke:#A80036;stroke-width:1.875;" x1="995.625" x2="1099.375" y1="390" y2="390"/><text fill="#000000" font-family="sans-serif" font-size="13.75" lengthAdjust="spacing" textLength="82.5" x="1001.875" y="409.2737">+getTestsInfo</text><!--MD5=[55cb992be19579b505cea3c5691093cb]
class ClientStore--><rect codeLine="31" fill="#FEFECE" filter="url(#fgchyhps4f7ea)" height="67.2949" id="ClientStore" style="stroke:#A80036;stroke-width:1.875;" width="116.25" x="989.375" y="461.25"/><ellipse cx="1008.125" cy="481.25" fill="#ADD1B2" rx="13.75" ry="13.75" style="stroke:#A80036;stroke-width:1.25;"/><path d="M1010.625,476.875 Q1010.8789,476.25 1011.1719,475.9375 Q1011.4648,475.625 1011.7969,475.625 Q1012.3828,475.625 1012.7539,475.9766 Q1013.125,476.3281 1013.125,477.1484 L1013.125,479.1016 Q1013.125,479.9219 1012.7734,480.2734 Q1012.4219,480.625 1011.875,480.625 Q1011.3867,480.625 1011.0742,480.4102 Q1010.7617,480.1953 1010.625,479.6289 Q1010.5664,479.2383 1010.3516,479.0234 Q1009.9609,478.6133 1009.2578,478.3789 Q1008.5547,478.125 1007.8516,478.125 Q1006.9727,478.125 1006.2305,478.4766 Q1005.5078,478.8281 1004.9414,479.6094 Q1004.375,480.3906 1004.375,481.4648 L1004.375,482.6172 Q1004.375,483.9063 1005.4297,484.7656 Q1006.4844,485.625 1008.3594,485.625 Q1009.4727,485.625 1010.2539,485.3711 Q1010.7031,485.2344 1011.2109,484.7852 Q1011.543,484.5313 1011.7188,484.4531 Q1011.8945,484.375 1012.1094,484.375 Q1012.5195,484.375 1012.8125,484.707 Q1013.125,485.0195 1013.125,485.4688 Q1013.125,485.8984 1012.6953,486.4063 Q1012.0703,487.1484 1011.0742,487.5586 Q1009.7656,488.125 1008.1641,488.125 Q1006.2891,488.125 1004.7852,487.3828 Q1003.5742,486.7969 1002.7148,485.5273 Q1001.875,484.2578 1001.875,482.7539 L1001.875,481.3867 Q1001.875,479.8242 1002.6172,478.457 Q1003.3789,477.0898 1004.6875,476.3672 Q1006.0156,475.625 1007.5,475.625 Q1008.3984,475.625 1009.1797,475.9375 Q1009.9609,476.25 1010.625,476.875 Z " fill="#000000"/><text fill="#000000" font-family="sans-serif" font-size="15" lengthAdjust="spacing" textLength="76.25" x="1025.625" y="487.3877">ClientStore</text><line style="stroke:#A80036;stroke-width:1.875;" x1="990.625" x2="1104.375" y1="501.25" y2="501.25"/><text fill="#000000" font-family="sans-serif" font-size="13.75" lengthAdjust="spacing" textLength="91.25" x="996.875" y="520.5237">+getClientInfo()</text><!--MD5=[670275f839cd0f6ae295f6f439fd6034]
class CompanyPerformanceAnalysisController--><rect codeLine="41" fill="#FEFECE" filter="url(#fgchyhps4f7ea)" height="84.5898" id="CompanyPerformanceAnalysisController" style="stroke:#A80036;stroke-width:1.875;" width="471.25" x="388.75" y="341.25"/><ellipse cx="479.0625" cy="361.25" fill="#ADD1B2" rx="13.75" ry="13.75" style="stroke:#A80036;stroke-width:1.25;"/><path d="M481.5625,356.875 Q481.8164,356.25 482.1094,355.9375 Q482.4023,355.625 482.7344,355.625 Q483.3203,355.625 483.6914,355.9766 Q484.0625,356.3281 484.0625,357.1484 L484.0625,359.1016 Q484.0625,359.9219 483.7109,360.2734 Q483.3594,360.625 482.8125,360.625 Q482.3242,360.625 482.0117,360.4102 Q481.6992,360.1953 481.5625,359.6289 Q481.5039,359.2383 481.2891,359.0234 Q480.8984,358.6133 480.1953,358.3789 Q479.4922,358.125 478.7891,358.125 Q477.9102,358.125 477.168,358.4766 Q476.4453,358.8281 475.8789,359.6094 Q475.3125,360.3906 475.3125,361.4648 L475.3125,362.6172 Q475.3125,363.9063 476.3672,364.7656 Q477.4219,365.625 479.2969,365.625 Q480.4102,365.625 481.1914,365.3711 Q481.6406,365.2344 482.1484,364.7852 Q482.4805,364.5313 482.6563,364.4531 Q482.832,364.375 483.0469,364.375 Q483.457,364.375 483.75,364.707 Q484.0625,365.0195 484.0625,365.4688 Q484.0625,365.8984 483.6328,366.4063 Q483.0078,367.1484 482.0117,367.5586 Q480.7031,368.125 479.1016,368.125 Q477.2266,368.125 475.7227,367.3828 Q474.5117,366.7969 473.6523,365.5273 Q472.8125,364.2578 472.8125,362.7539 L472.8125,361.3867 Q472.8125,359.8242 473.5547,358.457 Q474.3164,357.0898 475.625,356.3672 Q476.9531,355.625 478.4375,355.625 Q479.3359,355.625 480.1172,355.9375 Q480.8984,356.25 481.5625,356.875 Z " fill="#000000"/><text fill="#000000" font-family="sans-serif" font-size="15" lengthAdjust="spacing" textLength="280" x="504.6875" y="367.3877">CompanyPerformanceAnalysisController</text><line style="stroke:#A80036;stroke-width:1.875;" x1="390" x2="858.75" y1="381.25" y2="381.25"/><text fill="#000000" font-family="sans-serif" font-size="13.75" lengthAdjust="spacing" textLength="122.5" x="396.25" y="400.5237">+getTestOverview()</text><text fill="#000000" font-family="sans-serif" font-size="13.75" lengthAdjust="spacing" textLength="456.25" x="396.25" y="417.8186">+findWorstSubInt(firstDayToAnalyse, lastDayToAnalyse, chosen Algorithm)</text><!--MD5=[3404723274ca4ec774b8d2f7e379376f]
class CompanyPerformanceAnalysisUI--><rect codeLine="50" fill="#FEFECE" filter="url(#fgchyhps4f7ea)" height="40" id="CompanyPerformanceAnalysisUI" style="stroke:#A80036;stroke-width:1.875;" width="267.5" x="40" y="363.75"/><ellipse cx="58.75" cy="383.75" fill="#ADD1B2" rx="13.75" ry="13.75" style="stroke:#A80036;stroke-width:1.25;"/><path d="M61.25,379.375 Q61.5039,378.75 61.7969,378.4375 Q62.0898,378.125 62.4219,378.125 Q63.0078,378.125 63.3789,378.4766 Q63.75,378.8281 63.75,379.6484 L63.75,381.6016 Q63.75,382.4219 63.3984,382.7734 Q63.0469,383.125 62.5,383.125 Q62.0117,383.125 61.6992,382.9102 Q61.3867,382.6953 61.25,382.1289 Q61.1914,381.7383 60.9766,381.5234 Q60.5859,381.1133 59.8828,380.8789 Q59.1797,380.625 58.4766,380.625 Q57.5977,380.625 56.8555,380.9766 Q56.1328,381.3281 55.5664,382.1094 Q55,382.8906 55,383.9648 L55,385.1172 Q55,386.4063 56.0547,387.2656 Q57.1094,388.125 58.9844,388.125 Q60.0977,388.125 60.8789,387.8711 Q61.3281,387.7344 61.8359,387.2852 Q62.168,387.0313 62.3438,386.9531 Q62.5195,386.875 62.7344,386.875 Q63.1445,386.875 63.4375,387.207 Q63.75,387.5195 63.75,387.9688 Q63.75,388.3984 63.3203,388.9063 Q62.6953,389.6484 61.6992,390.0586 Q60.3906,390.625 58.7891,390.625 Q56.9141,390.625 55.4102,389.8828 Q54.1992,389.2969 53.3398,388.0273 Q52.5,386.7578 52.5,385.2539 L52.5,383.8867 Q52.5,382.3242 53.2422,380.957 Q54.0039,379.5898 55.3125,378.8672 Q56.6406,378.125 58.125,378.125 Q59.0234,378.125 59.8047,378.4375 Q60.5859,378.75 61.25,379.375 Z " fill="#000000"/><text fill="#000000" font-family="sans-serif" font-size="15" lengthAdjust="spacing" textLength="227.5" x="76.25" y="389.8877">CompanyPerformanceAnalysisUI</text><!--MD5=[5b29af9deb3324aeb9c231daa5002dba]
link CompanyPerformanceAnalysisUI to CompanyPerformanceAnalysisController--><path codeLine="55" d="M307.6375,383.75 C331.1875,383.75 356.375,383.75 381.85,383.75 " fill="none" id="CompanyPerformanceAnalysisUI-to-CompanyPerformanceAnalysisController" style="stroke:#A80036;stroke-width:1.25;stroke-dasharray:7.0,7.0;"/><polygon fill="#A80036" points="388.3375,383.75,377.0875,378.75,382.0875,383.75,377.0875,388.75,388.3375,383.75" style="stroke:#A80036;stroke-width:1.25;"/><!--MD5=[5ce4db4ce32c27ecea6aaa74e26a0164]
link CompanyPerformanceAnalysisController to Company--><path codeLine="56" d="M714.3125,341.05 C788.4,305.3875 893.15,254.95 965.0625,220.3375 " fill="none" id="CompanyPerformanceAnalysisController-to-Company" style="stroke:#A80036;stroke-width:1.25;stroke-dasharray:7.0,7.0;"/><polygon fill="#A80036" points="971.05,217.45,958.745,217.836,965.4211,220.1662,963.0909,226.8423,971.05,217.45" style="stroke:#A80036;stroke-width:1.25;"/><!--MD5=[556445e2a8ca4c0c6a33a05341a7825e]
link CompanyPerformanceAnalysisController to ClientStore--><path codeLine="57" d="M786.45,426.2875 C854.8625,444.375 930.6875,464.4375 982.675,478.1875 " fill="none" id="CompanyPerformanceAnalysisController-to-ClientStore" style="stroke:#A80036;stroke-width:1.25;stroke-dasharray:7.0,7.0;"/><polygon fill="#A80036" points="988.9,479.825,979.2884,472.1322,982.8549,478.2379,976.7491,481.8044,988.9,479.825" style="stroke:#A80036;stroke-width:1.25;"/><!--MD5=[d03b593c12afa5f3c42671c11d6ed63b]
link CompanyPerformanceAnalysisController to TestStore--><path codeLine="58" d="M860.5375,383.75 C908.0125,383.75 953.7875,383.75 988.025,383.75 " fill="none" id="CompanyPerformanceAnalysisController-to-TestStore" style="stroke:#A80036;stroke-width:1.25;stroke-dasharray:7.0,7.0;"/><polygon fill="#A80036" points="994.275,383.75,983.025,378.75,988.025,383.75,983.025,388.75,994.275,383.75" style="stroke:#A80036;stroke-width:1.25;"/><!--MD5=[9998b5a258ee6660099648093819515e]
link Company to CompanyPerformanceAnalysis--><path codeLine="59" d="M1123.775,181.25 C1157.475,181.25 1198.275,181.25 1236.8125,181.25 " fill="none" id="Company-to-CompanyPerformanceAnalysis" style="stroke:#A80036;stroke-width:1.25;"/><polygon fill="#A80036" points="1243.475,181.25,1232.225,176.25,1237.225,181.25,1232.225,186.25,1243.475,181.25" style="stroke:#A80036;stroke-width:1.25;"/><polygon fill="#000000" points="1173.75,170.2197,1162.4436,166.5461,1162.4436,173.8934,1173.75,170.2197" style="stroke:#000000;stroke-width:1.25;"/><text fill="#000000" font-family="sans-serif" font-size="16.25" lengthAdjust="spacing" textLength="26.25" x="1178.75" y="176.8689">has</text><text fill="#000000" font-family="sans-serif" font-size="16.25" lengthAdjust="spacing" textLength="8.75" x="1133.6042" y="199.3507">1</text><text fill="#000000" font-family="sans-serif" font-size="16.25" lengthAdjust="spacing" textLength="6.25" x="1227.2987" y="198.917">*</text><!--MD5=[31d3814c3f2972fe6393cacc6214a3bf]
@startuml
hide empty methods
hide empty attributes
left to right direction
skinparam classAttributeIconSize 0

package Domain {

package Model{

class Company {
    -String designation
    -TestStore testStore
    -ClientStore clientStore
    +getTestStore()
    +getClientStore()
}

class CompanyPerformanceAnalysis{
-ArrayList<Integer> worstSubInt
+addWorstSubInt(worstSubInt)
}

}

package Store {

class TestStore {
+getTestsInfo
}

class ClientStore {
+getClientInfo()
}

}

}

package Controller {

class CompanyPerformanceAnalysisController{
+getTestOverview()
+findWorstSubInt(firstDayToAnalyse, lastDayToAnalyse, chosen Algorithm)
}

}

package UI {

class CompanyPerformanceAnalysisUI{
}

}

CompanyPerformanceAnalysisUI ..> CompanyPerformanceAnalysisController
CompanyPerformanceAnalysisController ..> Company
CompanyPerformanceAnalysisController ..> ClientStore
CompanyPerformanceAnalysisController ..> TestStore
Company "1" - -> "*" CompanyPerformanceAnalysis : has >

@enduml

PlantUML version 1.2021.7(Sun May 23 13:40:07 BST 2021)
(GPL source distribution)
Java Runtime: OpenJDK Runtime Environment
JVM: Dynamic Code Evolution 64-Bit Server VM
Default Encoding: Cp1252
Language: pt
Country: PT
--></g></svg>