<?xml version="1.0" encoding="UTF-8" standalone="no"?><svg xmlns="http://www.w3.org/2000/svg" xmlns:xlink="http://www.w3.org/1999/xlink" contentScriptType="application/ecmascript" contentStyleType="text/css" height="861.25px" preserveAspectRatio="none" style="width:1186px;height:861px;background:#FFFFFF;" version="1.1" viewBox="0 0 1186 861" width="1186.25px" zoomAndPan="magnify"><defs><filter height="300%" id="fi8g4m4kaugmg" width="300%" x="-1" y="-1"><feGaussianBlur result="blurOut" stdDeviation="2.5"/><feColorMatrix in="blurOut" result="blurOut2" type="matrix" values="0 0 0 0 0 0 0 0 0 0 0 0 0 0 0 0 0 0 .4 0"/><feOffset dx="5.0" dy="5.0" in="blurOut2" result="blurOut3"/><feBlend in="SourceGraphic" in2="blurOut3" mode="normal"/></filter></defs><g><!--MD5=[02e4b9b7573f1156f41e60aa5b4e25a4]
class Company--><rect codeLine="7" fill="#FEFECE" filter="url(#fi8g4m4kaugmg)" height="146.4746" id="Company" style="stroke:#A80036;stroke-width:1.875;" width="152.5" x="8.75" y="407.5"/><ellipse cx="48.3125" cy="427.5" fill="#ADD1B2" rx="13.75" ry="13.75" style="stroke:#A80036;stroke-width:1.25;"/><path d="M50.8125,423.125 Q51.0664,422.5 51.3594,422.1875 Q51.6523,421.875 51.9844,421.875 Q52.5703,421.875 52.9414,422.2266 Q53.3125,422.5781 53.3125,423.3984 L53.3125,425.3516 Q53.3125,426.1719 52.9609,426.5234 Q52.6094,426.875 52.0625,426.875 Q51.5742,426.875 51.2617,426.6602 Q50.9492,426.4453 50.8125,425.8789 Q50.7539,425.4883 50.5391,425.2734 Q50.1484,424.8633 49.4453,424.6289 Q48.7422,424.375 48.0391,424.375 Q47.1602,424.375 46.418,424.7266 Q45.6953,425.0781 45.1289,425.8594 Q44.5625,426.6406 44.5625,427.7148 L44.5625,428.8672 Q44.5625,430.1563 45.6172,431.0156 Q46.6719,431.875 48.5469,431.875 Q49.6602,431.875 50.4414,431.6211 Q50.8906,431.4844 51.3984,431.0352 Q51.7305,430.7813 51.9063,430.7031 Q52.082,430.625 52.2969,430.625 Q52.707,430.625 53,430.957 Q53.3125,431.2695 53.3125,431.7188 Q53.3125,432.1484 52.8828,432.6563 Q52.2578,433.3984 51.2617,433.8086 Q49.9531,434.375 48.3516,434.375 Q46.4766,434.375 44.9727,433.6328 Q43.7617,433.0469 42.9023,431.7773 Q42.0625,430.5078 42.0625,429.0039 L42.0625,427.6367 Q42.0625,426.0742 42.8047,424.707 Q43.5664,423.3398 44.875,422.6172 Q46.2031,421.875 47.6875,421.875 Q48.5859,421.875 49.3672,422.1875 Q50.1484,422.5 50.8125,423.125 Z " fill="#000000"/><text fill="#000000" font-family="sans-serif" font-size="15" lengthAdjust="spacing" textLength="66.25" x="70.4375" y="433.6377">Company</text><line style="stroke:#A80036;stroke-width:1.875;" x1="10" x2="160" y1="447.5" y2="447.5"/><text fill="#000000" font-family="sans-serif" font-size="13.75" lengthAdjust="spacing" textLength="112.5" x="16.25" y="466.7737">-String designation</text><text fill="#000000" font-family="sans-serif" font-size="13.75" lengthAdjust="spacing" textLength="122.5" x="16.25" y="484.0686">-TestStore testStore</text><text fill="#000000" font-family="sans-serif" font-size="13.75" lengthAdjust="spacing" textLength="137.5" x="16.25" y="501.3635">-ClientStore clientStore</text><line style="stroke:#A80036;stroke-width:1.875;" x1="10" x2="160" y1="509.3848" y2="509.3848"/><text fill="#000000" font-family="sans-serif" font-size="13.75" lengthAdjust="spacing" textLength="95" x="16.25" y="528.6584">+getTestStore()</text><text fill="#000000" font-family="sans-serif" font-size="13.75" lengthAdjust="spacing" textLength="101.25" x="16.25" y="545.9534">+getClientStore()</text><!--MD5=[0f6f7964b844a64b0496af0dda7914bd]
class TestStore--><rect codeLine="15" fill="#FEFECE" filter="url(#fi8g4m4kaugmg)" height="153.7695" id="TestStore" style="stroke:#A80036;stroke-width:1.875;" width="430" x="205" y="403.75"/><ellipse cx="381.5625" cy="423.75" fill="#ADD1B2" rx="13.75" ry="13.75" style="stroke:#A80036;stroke-width:1.25;"/><path d="M384.0625,419.375 Q384.3164,418.75 384.6094,418.4375 Q384.9023,418.125 385.2344,418.125 Q385.8203,418.125 386.1914,418.4766 Q386.5625,418.8281 386.5625,419.6484 L386.5625,421.6016 Q386.5625,422.4219 386.2109,422.7734 Q385.8594,423.125 385.3125,423.125 Q384.8242,423.125 384.5117,422.9102 Q384.1992,422.6953 384.0625,422.1289 Q384.0039,421.7383 383.7891,421.5234 Q383.3984,421.1133 382.6953,420.8789 Q381.9922,420.625 381.2891,420.625 Q380.4102,420.625 379.668,420.9766 Q378.9453,421.3281 378.3789,422.1094 Q377.8125,422.8906 377.8125,423.9648 L377.8125,425.1172 Q377.8125,426.4063 378.8672,427.2656 Q379.9219,428.125 381.7969,428.125 Q382.9102,428.125 383.6914,427.8711 Q384.1406,427.7344 384.6484,427.2852 Q384.9805,427.0313 385.1563,426.9531 Q385.332,426.875 385.5469,426.875 Q385.957,426.875 386.25,427.207 Q386.5625,427.5195 386.5625,427.9688 Q386.5625,428.3984 386.1328,428.9063 Q385.5078,429.6484 384.5117,430.0586 Q383.2031,430.625 381.6016,430.625 Q379.7266,430.625 378.2227,429.8828 Q377.0117,429.2969 376.1523,428.0273 Q375.3125,426.7578 375.3125,425.2539 L375.3125,423.8867 Q375.3125,422.3242 376.0547,420.957 Q376.8164,419.5898 378.125,418.8672 Q379.4531,418.125 380.9375,418.125 Q381.8359,418.125 382.6172,418.4375 Q383.3984,418.75 384.0625,419.375 Z " fill="#000000"/><text fill="#000000" font-family="sans-serif" font-size="15" lengthAdjust="spacing" textLength="66.25" x="407.1875" y="429.8877">TestStore</text><line style="stroke:#A80036;stroke-width:1.875;" x1="206.25" x2="633.75" y1="443.75" y2="443.75"/><text fill="#000000" font-family="sans-serif" font-size="13.75" lengthAdjust="spacing" textLength="251.25" x="212.5" y="463.0237">+getNumTestsWaitingForResultsDay(day)</text><text fill="#000000" font-family="sans-serif" font-size="13.75" lengthAdjust="spacing" textLength="401.25" x="212.5" y="480.3186">+getNumTestsWaitingForResultsInterval(beginningDay, endingDay)</text><text fill="#000000" font-family="sans-serif" font-size="13.75" lengthAdjust="spacing" textLength="265" x="212.5" y="497.6135">+getNumTestsWaitingForDiagnosisDay(day)</text><text fill="#000000" font-family="sans-serif" font-size="13.75" lengthAdjust="spacing" textLength="415" x="212.5" y="514.9084">+getNumTestsWaitingForDiagnosisInterval(beginningDay, endingDay)</text><text fill="#000000" font-family="sans-serif" font-size="13.75" lengthAdjust="spacing" textLength="240" x="212.5" y="532.2034">+getNumTestsProcessedInLabDay(day)</text><text fill="#000000" font-family="sans-serif" font-size="13.75" lengthAdjust="spacing" textLength="390" x="212.5" y="549.4983">+getNumTestsProcessedInLabInterval(beginningDay, endingDay)</text><!--MD5=[55cb992be19579b505cea3c5691093cb]
class ClientStore--><rect codeLine="24" fill="#FEFECE" filter="url(#fi8g4m4kaugmg)" height="67.2949" id="ClientStore" style="stroke:#A80036;stroke-width:1.875;" width="116.25" x="679.375" y="446.875"/><ellipse cx="698.125" cy="466.875" fill="#ADD1B2" rx="13.75" ry="13.75" style="stroke:#A80036;stroke-width:1.25;"/><path d="M700.625,462.5 Q700.8789,461.875 701.1719,461.5625 Q701.4648,461.25 701.7969,461.25 Q702.3828,461.25 702.7539,461.6016 Q703.125,461.9531 703.125,462.7734 L703.125,464.7266 Q703.125,465.5469 702.7734,465.8984 Q702.4219,466.25 701.875,466.25 Q701.3867,466.25 701.0742,466.0352 Q700.7617,465.8203 700.625,465.2539 Q700.5664,464.8633 700.3516,464.6484 Q699.9609,464.2383 699.2578,464.0039 Q698.5547,463.75 697.8516,463.75 Q696.9727,463.75 696.2305,464.1016 Q695.5078,464.4531 694.9414,465.2344 Q694.375,466.0156 694.375,467.0898 L694.375,468.2422 Q694.375,469.5313 695.4297,470.3906 Q696.4844,471.25 698.3594,471.25 Q699.4727,471.25 700.2539,470.9961 Q700.7031,470.8594 701.2109,470.4102 Q701.543,470.1563 701.7188,470.0781 Q701.8945,470 702.1094,470 Q702.5195,470 702.8125,470.332 Q703.125,470.6445 703.125,471.0938 Q703.125,471.5234 702.6953,472.0313 Q702.0703,472.7734 701.0742,473.1836 Q699.7656,473.75 698.1641,473.75 Q696.2891,473.75 694.7852,473.0078 Q693.5742,472.4219 692.7148,471.1523 Q691.875,469.8828 691.875,468.3789 L691.875,467.0117 Q691.875,465.4492 692.6172,464.082 Q693.3789,462.7148 694.6875,461.9922 Q696.0156,461.25 697.5,461.25 Q698.3984,461.25 699.1797,461.5625 Q699.9609,461.875 700.625,462.5 Z " fill="#000000"/><text fill="#000000" font-family="sans-serif" font-size="15" lengthAdjust="spacing" textLength="76.25" x="715.625" y="473.0127">ClientStore</text><line style="stroke:#A80036;stroke-width:1.875;" x1="680.625" x2="794.375" y1="486.875" y2="486.875"/><text fill="#000000" font-family="sans-serif" font-size="13.75" lengthAdjust="spacing" textLength="76.25" x="686.875" y="506.1487">+getClients()</text><!--MD5=[670275f839cd0f6ae295f6f439fd6034]
class CompanyPerformanceAnalysisController--><rect codeLine="28" fill="#FEFECE" filter="url(#fi8g4m4kaugmg)" height="181.0645" id="CompanyPerformanceAnalysisController" style="stroke:#A80036;stroke-width:1.875;" width="518.75" x="319.375" y="125"/><ellipse cx="433.4375" cy="145" fill="#ADD1B2" rx="13.75" ry="13.75" style="stroke:#A80036;stroke-width:1.25;"/><path d="M435.9375,140.625 Q436.1914,140 436.4844,139.6875 Q436.7773,139.375 437.1094,139.375 Q437.6953,139.375 438.0664,139.7266 Q438.4375,140.0781 438.4375,140.8984 L438.4375,142.8516 Q438.4375,143.6719 438.0859,144.0234 Q437.7344,144.375 437.1875,144.375 Q436.6992,144.375 436.3867,144.1602 Q436.0742,143.9453 435.9375,143.3789 Q435.8789,142.9883 435.6641,142.7734 Q435.2734,142.3633 434.5703,142.1289 Q433.8672,141.875 433.1641,141.875 Q432.2852,141.875 431.543,142.2266 Q430.8203,142.5781 430.2539,143.3594 Q429.6875,144.1406 429.6875,145.2148 L429.6875,146.3672 Q429.6875,147.6563 430.7422,148.5156 Q431.7969,149.375 433.6719,149.375 Q434.7852,149.375 435.5664,149.1211 Q436.0156,148.9844 436.5234,148.5352 Q436.8555,148.2813 437.0313,148.2031 Q437.207,148.125 437.4219,148.125 Q437.832,148.125 438.125,148.457 Q438.4375,148.7695 438.4375,149.2188 Q438.4375,149.6484 438.0078,150.1563 Q437.3828,150.8984 436.3867,151.3086 Q435.0781,151.875 433.4766,151.875 Q431.6016,151.875 430.0977,151.1328 Q428.8867,150.5469 428.0273,149.2773 Q427.1875,148.0078 427.1875,146.5039 L427.1875,145.1367 Q427.1875,143.5742 427.9297,142.207 Q428.6914,140.8398 430,140.1172 Q431.3281,139.375 432.8125,139.375 Q433.7109,139.375 434.4922,139.6875 Q435.2734,140 435.9375,140.625 Z " fill="#000000"/><text fill="#000000" font-family="sans-serif" font-size="15" lengthAdjust="spacing" textLength="280" x="459.0625" y="151.1377">CompanyPerformanceAnalysisController</text><line style="stroke:#A80036;stroke-width:1.875;" x1="320.625" x2="836.875" y1="165" y2="165"/><text fill="#000000" font-family="sans-serif" font-size="13.75" lengthAdjust="spacing" textLength="120" x="326.875" y="184.2737">-Company company</text><line style="stroke:#A80036;stroke-width:1.875;" x1="320.625" x2="836.875" y1="192.2949" y2="192.2949"/><text fill="#000000" font-family="sans-serif" font-size="13.75" lengthAdjust="spacing" textLength="102.5" x="326.875" y="211.5686">+getNumClients()</text><text fill="#000000" font-family="sans-serif" font-size="13.75" lengthAdjust="spacing" textLength="131.25" x="326.875" y="228.8635">+getTestInfoDay(day)</text><text fill="#000000" font-family="sans-serif" font-size="13.75" lengthAdjust="spacing" textLength="281.25" x="326.875" y="246.1584">+getTestInfoInterval(beginningDay, endingDay)</text><text fill="#000000" font-family="sans-serif" font-size="13.75" lengthAdjust="spacing" textLength="280" x="326.875" y="263.4534">+makeIntervalArray(beginningDay, endingDay)</text><text fill="#000000" font-family="sans-serif" font-size="13.75" lengthAdjust="spacing" textLength="503.75" x="326.875" y="280.7483">+findWorstSubIntWithChosenAlgorithm(beginningDay, endingDay, chosenAlgorithm)</text><text fill="#000000" font-family="sans-serif" font-size="13.75" lengthAdjust="spacing" textLength="227.5" x="326.875" y="298.0432">+getAlgorithmClass(chosenAlgorithm)</text><!--MD5=[3404723274ca4ec774b8d2f7e379376f]
class CompanyPerformanceAnalysisUI--><rect codeLine="38" fill="#FEFECE" filter="url(#fi8g4m4kaugmg)" height="40" id="CompanyPerformanceAnalysisUI" style="stroke:#A80036;stroke-width:1.875;" width="267.5" x="445" y="8.75"/><ellipse cx="463.75" cy="28.75" fill="#ADD1B2" rx="13.75" ry="13.75" style="stroke:#A80036;stroke-width:1.25;"/><path d="M466.25,24.375 Q466.5039,23.75 466.7969,23.4375 Q467.0898,23.125 467.4219,23.125 Q468.0078,23.125 468.3789,23.4766 Q468.75,23.8281 468.75,24.6484 L468.75,26.6016 Q468.75,27.4219 468.3984,27.7734 Q468.0469,28.125 467.5,28.125 Q467.0117,28.125 466.6992,27.9102 Q466.3867,27.6953 466.25,27.1289 Q466.1914,26.7383 465.9766,26.5234 Q465.5859,26.1133 464.8828,25.8789 Q464.1797,25.625 463.4766,25.625 Q462.5977,25.625 461.8555,25.9766 Q461.1328,26.3281 460.5664,27.1094 Q460,27.8906 460,28.9648 L460,30.1172 Q460,31.4063 461.0547,32.2656 Q462.1094,33.125 463.9844,33.125 Q465.0977,33.125 465.8789,32.8711 Q466.3281,32.7344 466.8359,32.2852 Q467.168,32.0313 467.3438,31.9531 Q467.5195,31.875 467.7344,31.875 Q468.1445,31.875 468.4375,32.207 Q468.75,32.5195 468.75,32.9688 Q468.75,33.3984 468.3203,33.9063 Q467.6953,34.6484 466.6992,35.0586 Q465.3906,35.625 463.7891,35.625 Q461.9141,35.625 460.4102,34.8828 Q459.1992,34.2969 458.3398,33.0273 Q457.5,31.7578 457.5,30.2539 L457.5,28.8867 Q457.5,27.3242 458.2422,25.957 Q459.0039,24.5898 460.3125,23.8672 Q461.6406,23.125 463.125,23.125 Q464.0234,23.125 464.8047,23.4375 Q465.5859,23.75 466.25,24.375 Z " fill="#000000"/><text fill="#000000" font-family="sans-serif" font-size="15" lengthAdjust="spacing" textLength="227.5" x="481.25" y="34.8877">CompanyPerformanceAnalysisUI</text><!--MD5=[03e21a3a74a4ec725edc90da8949a6b4]
class SubMaxSumAlgorithms--><rect codeLine="41" fill="#FEFECE" filter="url(#fi8g4m4kaugmg)" height="77.5293" id="SubMaxSumAlgorithms" style="stroke:#A80036;stroke-width:1.875;" width="202.5" x="840" y="441.875"/><ellipse cx="858.75" cy="466.9922" fill="#B4A7E5" rx="13.75" ry="13.75" style="stroke:#A80036;stroke-width:1.25;"/><path d="M860,463.2422 L860,470.7422 L862.5,470.7422 L863.1055,470.7422 L863.75,471.5234 L863.75,471.9922 L863.75,472.4609 L863.1055,473.2422 L862.5,473.2422 L855,473.2422 L854.3945,473.2422 L853.75,472.4609 L853.75,471.9922 L853.75,471.5234 L854.3945,470.7422 L855,470.7422 L857.5,470.7422 L857.5,463.2422 L855,463.2422 L854.3945,463.2422 L853.75,462.4609 L853.75,461.9922 L853.75,461.5234 L854.3945,460.7422 L855,460.7422 L862.5,460.7422 L863.1055,460.7422 L863.75,461.5234 L863.75,461.9922 L863.75,462.4609 L863.1055,463.2422 L862.5,463.2422 L860,463.2422 Z " fill="#000000"/><text fill="#000000" font-family="sans-serif" font-size="15" font-style="italic" lengthAdjust="spacing" textLength="76.25" x="919.375" y="463.6963">«interface»</text><text fill="#000000" font-family="sans-serif" font-size="15" font-style="italic" lengthAdjust="spacing" textLength="162.5" x="876.25" y="482.5635">SubMaxSumAlgorithms</text><line style="stroke:#A80036;stroke-width:1.875;" x1="841.25" x2="1041.25" y1="492.1094" y2="492.1094"/><text fill="#000000" font-family="sans-serif" font-size="13.75" lengthAdjust="spacing" textLength="158.75" x="847.5" y="511.3831">+findSubMaxSum(interval)</text><!--MD5=[f4a38599b97b911edb1e154f571cf5e4]
class BenchmarkAlgorithmAdapter--><rect codeLine="69" fill="#FEFECE" filter="url(#fi8g4m4kaugmg)" height="67.2949" id="BenchmarkAlgorithmAdapter" style="stroke:#A80036;stroke-width:1.875;" width="236.25" x="655.625" y="633.75"/><ellipse cx="674.375" cy="653.75" fill="#ADD1B2" rx="13.75" ry="13.75" style="stroke:#A80036;stroke-width:1.25;"/><path d="M676.875,649.375 Q677.1289,648.75 677.4219,648.4375 Q677.7148,648.125 678.0469,648.125 Q678.6328,648.125 679.0039,648.4766 Q679.375,648.8281 679.375,649.6484 L679.375,651.6016 Q679.375,652.4219 679.0234,652.7734 Q678.6719,653.125 678.125,653.125 Q677.6367,653.125 677.3242,652.9102 Q677.0117,652.6953 676.875,652.1289 Q676.8164,651.7383 676.6016,651.5234 Q676.2109,651.1133 675.5078,650.8789 Q674.8047,650.625 674.1016,650.625 Q673.2227,650.625 672.4805,650.9766 Q671.7578,651.3281 671.1914,652.1094 Q670.625,652.8906 670.625,653.9648 L670.625,655.1172 Q670.625,656.4063 671.6797,657.2656 Q672.7344,658.125 674.6094,658.125 Q675.7227,658.125 676.5039,657.8711 Q676.9531,657.7344 677.4609,657.2852 Q677.793,657.0313 677.9688,656.9531 Q678.1445,656.875 678.3594,656.875 Q678.7695,656.875 679.0625,657.207 Q679.375,657.5195 679.375,657.9688 Q679.375,658.3984 678.9453,658.9063 Q678.3203,659.6484 677.3242,660.0586 Q676.0156,660.625 674.4141,660.625 Q672.5391,660.625 671.0352,659.8828 Q669.8242,659.2969 668.9648,658.0273 Q668.125,656.7578 668.125,655.2539 L668.125,653.8867 Q668.125,652.3242 668.8672,650.957 Q669.6289,649.5898 670.9375,648.8672 Q672.2656,648.125 673.75,648.125 Q674.6484,648.125 675.4297,648.4375 Q676.2109,648.75 676.875,649.375 Z " fill="#000000"/><text fill="#000000" font-family="sans-serif" font-size="15" lengthAdjust="spacing" textLength="196.25" x="691.875" y="659.8877">BenchmarkAlgorithmAdapter</text><line style="stroke:#A80036;stroke-width:1.875;" x1="656.875" x2="890.625" y1="673.75" y2="673.75"/><text fill="#000000" font-family="sans-serif" font-size="13.75" lengthAdjust="spacing" textLength="158.75" x="663.125" y="693.0237">+findSubMaxSum(interval)</text><!--MD5=[3d195b319a9e341286852cea89c88ec3]
class BruteForceAlgorithmAdapter--><rect codeLine="70" fill="#FEFECE" filter="url(#fi8g4m4kaugmg)" height="67.2949" id="BruteForceAlgorithmAdapter" style="stroke:#A80036;stroke-width:1.875;" width="232.5" x="936.25" y="633.75"/><ellipse cx="955" cy="653.75" fill="#ADD1B2" rx="13.75" ry="13.75" style="stroke:#A80036;stroke-width:1.25;"/><path d="M957.5,649.375 Q957.7539,648.75 958.0469,648.4375 Q958.3398,648.125 958.6719,648.125 Q959.2578,648.125 959.6289,648.4766 Q960,648.8281 960,649.6484 L960,651.6016 Q960,652.4219 959.6484,652.7734 Q959.2969,653.125 958.75,653.125 Q958.2617,653.125 957.9492,652.9102 Q957.6367,652.6953 957.5,652.1289 Q957.4414,651.7383 957.2266,651.5234 Q956.8359,651.1133 956.1328,650.8789 Q955.4297,650.625 954.7266,650.625 Q953.8477,650.625 953.1055,650.9766 Q952.3828,651.3281 951.8164,652.1094 Q951.25,652.8906 951.25,653.9648 L951.25,655.1172 Q951.25,656.4063 952.3047,657.2656 Q953.3594,658.125 955.2344,658.125 Q956.3477,658.125 957.1289,657.8711 Q957.5781,657.7344 958.0859,657.2852 Q958.418,657.0313 958.5938,656.9531 Q958.7695,656.875 958.9844,656.875 Q959.3945,656.875 959.6875,657.207 Q960,657.5195 960,657.9688 Q960,658.3984 959.5703,658.9063 Q958.9453,659.6484 957.9492,660.0586 Q956.6406,660.625 955.0391,660.625 Q953.1641,660.625 951.6602,659.8828 Q950.4492,659.2969 949.5898,658.0273 Q948.75,656.7578 948.75,655.2539 L948.75,653.8867 Q948.75,652.3242 949.4922,650.957 Q950.2539,649.5898 951.5625,648.8672 Q952.8906,648.125 954.375,648.125 Q955.2734,648.125 956.0547,648.4375 Q956.8359,648.75 957.5,649.375 Z " fill="#000000"/><text fill="#000000" font-family="sans-serif" font-size="15" lengthAdjust="spacing" textLength="192.5" x="972.5" y="659.8877">BruteForceAlgorithmAdapter</text><line style="stroke:#A80036;stroke-width:1.875;" x1="937.5" x2="1167.5" y1="673.75" y2="673.75"/><text fill="#000000" font-family="sans-serif" font-size="13.75" lengthAdjust="spacing" textLength="158.75" x="943.75" y="693.0237">+findSubMaxSum(interval)</text><!--MD5=[bbc84d1aa0e7f30bd67b3f6e81f0f299]
class Sum--><rect codeLine="53" fill="#FEFECE" filter="url(#fi8g4m4kaugmg)" height="67.2949" id="Sum" style="stroke:#A80036;stroke-width:1.875;" width="80" x="733.75" y="777.5"/><ellipse cx="755.875" cy="797.5" fill="#ADD1B2" rx="13.75" ry="13.75" style="stroke:#A80036;stroke-width:1.25;"/><path d="M758.375,793.125 Q758.6289,792.5 758.9219,792.1875 Q759.2148,791.875 759.5469,791.875 Q760.1328,791.875 760.5039,792.2266 Q760.875,792.5781 760.875,793.3984 L760.875,795.3516 Q760.875,796.1719 760.5234,796.5234 Q760.1719,796.875 759.625,796.875 Q759.1367,796.875 758.8242,796.6602 Q758.5117,796.4453 758.375,795.8789 Q758.3164,795.4883 758.1016,795.2734 Q757.7109,794.8633 757.0078,794.6289 Q756.3047,794.375 755.6016,794.375 Q754.7227,794.375 753.9805,794.7266 Q753.2578,795.0781 752.6914,795.8594 Q752.125,796.6406 752.125,797.7148 L752.125,798.8672 Q752.125,800.1563 753.1797,801.0156 Q754.2344,801.875 756.1094,801.875 Q757.2227,801.875 758.0039,801.6211 Q758.4531,801.4844 758.9609,801.0352 Q759.293,800.7813 759.4688,800.7031 Q759.6445,800.625 759.8594,800.625 Q760.2695,800.625 760.5625,800.957 Q760.875,801.2695 760.875,801.7188 Q760.875,802.1484 760.4453,802.6563 Q759.8203,803.3984 758.8242,803.8086 Q757.5156,804.375 755.9141,804.375 Q754.0391,804.375 752.5352,803.6328 Q751.3242,803.0469 750.4648,801.7773 Q749.625,800.5078 749.625,799.0039 L749.625,797.6367 Q749.625,796.0742 750.3672,794.707 Q751.1289,793.3398 752.4375,792.6172 Q753.7656,791.875 755.25,791.875 Q756.1484,791.875 756.9297,792.1875 Q757.7109,792.5 758.375,793.125 Z " fill="#000000"/><text fill="#000000" font-family="sans-serif" font-size="15" lengthAdjust="spacing" textLength="32.5" x="774.125" y="803.6377">Sum</text><line style="stroke:#A80036;stroke-width:1.875;" x1="735" x2="812.5" y1="817.5" y2="817.5"/><text fill="#000000" font-family="sans-serif" font-size="13.75" lengthAdjust="spacing" textLength="65" x="741.25" y="836.7737">+Max(seq)</text><!--MD5=[1dec90c14ec2ba3af2708f621be65d00]
class BruteForceAlgorithm--><rect codeLine="57" fill="#FEFECE" filter="url(#fi8g4m4kaugmg)" height="67.2949" id="BruteForceAlgorithm" style="stroke:#A80036;stroke-width:1.875;" width="180" x="962.5" y="777.5"/><ellipse cx="981.25" cy="797.5" fill="#ADD1B2" rx="13.75" ry="13.75" style="stroke:#A80036;stroke-width:1.25;"/><path d="M983.75,793.125 Q984.0039,792.5 984.2969,792.1875 Q984.5898,791.875 984.9219,791.875 Q985.5078,791.875 985.8789,792.2266 Q986.25,792.5781 986.25,793.3984 L986.25,795.3516 Q986.25,796.1719 985.8984,796.5234 Q985.5469,796.875 985,796.875 Q984.5117,796.875 984.1992,796.6602 Q983.8867,796.4453 983.75,795.8789 Q983.6914,795.4883 983.4766,795.2734 Q983.0859,794.8633 982.3828,794.6289 Q981.6797,794.375 980.9766,794.375 Q980.0977,794.375 979.3555,794.7266 Q978.6328,795.0781 978.0664,795.8594 Q977.5,796.6406 977.5,797.7148 L977.5,798.8672 Q977.5,800.1563 978.5547,801.0156 Q979.6094,801.875 981.4844,801.875 Q982.5977,801.875 983.3789,801.6211 Q983.8281,801.4844 984.3359,801.0352 Q984.668,800.7813 984.8438,800.7031 Q985.0195,800.625 985.2344,800.625 Q985.6445,800.625 985.9375,800.957 Q986.25,801.2695 986.25,801.7188 Q986.25,802.1484 985.8203,802.6563 Q985.1953,803.3984 984.1992,803.8086 Q982.8906,804.375 981.2891,804.375 Q979.4141,804.375 977.9102,803.6328 Q976.6992,803.0469 975.8398,801.7773 Q975,800.5078 975,799.0039 L975,797.6367 Q975,796.0742 975.7422,794.707 Q976.5039,793.3398 977.8125,792.6172 Q979.1406,791.875 980.625,791.875 Q981.5234,791.875 982.3047,792.1875 Q983.0859,792.5 983.75,793.125 Z " fill="#000000"/><text fill="#000000" font-family="sans-serif" font-size="15" lengthAdjust="spacing" textLength="140" x="998.75" y="803.6377">BruteForceAlgorithm</text><line style="stroke:#A80036;stroke-width:1.875;" x1="963.75" x2="1141.25" y1="817.5" y2="817.5"/><text fill="#000000" font-family="sans-serif" font-size="13.75" lengthAdjust="spacing" textLength="65" x="970" y="836.7737">+Max(seq)</text><!--MD5=[5b29af9deb3324aeb9c231daa5002dba]
link CompanyPerformanceAnalysisUI to CompanyPerformanceAnalysisController--><path codeLine="61" d="M578.75,49.0375 C578.75,65.9 578.75,91.8875 578.75,118.2875 " fill="none" id="CompanyPerformanceAnalysisUI-to-CompanyPerformanceAnalysisController" style="stroke:#A80036;stroke-width:1.25;stroke-dasharray:7.0,7.0;"/><polygon fill="#A80036" points="578.75,124.65,583.75,113.4,578.75,118.4,573.75,113.4,578.75,124.65" style="stroke:#A80036;stroke-width:1.25;"/><!--MD5=[5ce4db4ce32c27ecea6aaa74e26a0164]
link CompanyPerformanceAnalysisController to Company--><path codeLine="62" d="M367.0625,306.275 C306.05,334.8 240.3625,368.2625 182.5,403.75 C177.3,406.9375 172.0375,410.3625 166.8125,413.9125 " fill="none" id="CompanyPerformanceAnalysisController-to-Company" style="stroke:#A80036;stroke-width:1.25;stroke-dasharray:7.0,7.0;"/><polygon fill="#A80036" points="161.6,417.5125,173.6978,415.2308,166.7419,413.9596,168.0131,407.0037,161.6,417.5125" style="stroke:#A80036;stroke-width:1.25;"/><!--MD5=[556445e2a8ca4c0c6a33a05341a7825e]
link CompanyPerformanceAnalysisController to ClientStore--><path codeLine="63" d="M632.9375,306.475 C660.7375,352.4375 693.125,406 714.4,441.1875 " fill="none" id="CompanyPerformanceAnalysisController-to-ClientStore" style="stroke:#A80036;stroke-width:1.25;stroke-dasharray:7.0,7.0;"/><polygon fill="#A80036" points="717.725,446.675,716.1945,434.4594,714.4963,441.3236,707.6322,439.6254,717.725,446.675" style="stroke:#A80036;stroke-width:1.25;"/><!--MD5=[d03b593c12afa5f3c42671c11d6ed63b]
link CompanyPerformanceAnalysisController to TestStore--><path codeLine="64" d="M524.5625,306.475 C506.55,336.2625 486.6125,369.2375 469.0125,398.325 " fill="none" id="CompanyPerformanceAnalysisController-to-TestStore" style="stroke:#A80036;stroke-width:1.25;stroke-dasharray:7.0,7.0;"/><polygon fill="#A80036" points="465.75,403.7125,475.8428,396.6629,468.9787,398.3611,467.2805,391.4969,465.75,403.7125" style="stroke:#A80036;stroke-width:1.25;"/><!--MD5=[1f5b511532344f36d5811b87494f5882]
link CompanyPerformanceAnalysisController to SubMaxSumAlgorithms--><path codeLine="65" d="M702.4875,306.475 C764.0375,351.05 835.45,402.7625 884.025,437.9375 " fill="none" id="CompanyPerformanceAnalysisController-to-SubMaxSumAlgorithms" style="stroke:#A80036;stroke-width:1.25;"/><polygon fill="#A80036" points="889.2375,441.7125,883.0421,431.0739,884.1698,438.0545,877.1893,439.1822,889.2375,441.7125" style="stroke:#A80036;stroke-width:1.25;"/><text fill="#000000" font-family="sans-serif" font-size="16.25" lengthAdjust="spacing" textLength="97.5" x="783.75" y="361.8689">makes use of</text><text fill="#000000" font-family="sans-serif" font-size="16.25" lengthAdjust="spacing" textLength="8.75" x="705.1142" y="332.9859">1</text><text fill="#000000" font-family="sans-serif" font-size="16.25" lengthAdjust="spacing" textLength="8.75" x="868.8576" y="428.5355">1</text><!--MD5=[6926410afba6dbb7662f77bf9a4beef8]
link BenchmarkAlgorithmAdapter to Sum--><path codeLine="66" d="M773.75,701.5125 C773.75,722.1875 773.75,749.025 773.75,770.825 " fill="none" id="BenchmarkAlgorithmAdapter-to-Sum" style="stroke:#A80036;stroke-width:1.25;"/><polygon fill="#A80036" points="773.75,777.4125,778.75,766.1625,773.75,771.1625,768.75,766.1625,773.75,777.4125" style="stroke:#A80036;stroke-width:1.25;"/><!--MD5=[5c0b00d376c45fe49ede70ccf937dd89]
link BruteForceAlgorithmAdapter to BruteForceAlgorithm--><path codeLine="67" d="M1052.5,701.5125 C1052.5,722.1875 1052.5,749.025 1052.5,770.825 " fill="none" id="BruteForceAlgorithmAdapter-to-BruteForceAlgorithm" style="stroke:#A80036;stroke-width:1.25;"/><polygon fill="#A80036" points="1052.5,777.4125,1057.5,766.1625,1052.5,771.1625,1047.5,766.1625,1052.5,777.4125" style="stroke:#A80036;stroke-width:1.25;"/><!--MD5=[7500d493c54aadfc564551571970942a]
reverse link SubMaxSumAlgorithms to BenchmarkAlgorithmAdapter--><path d="M889.8,538.5125 C861.5,569.65 827.4125,607.1875 803.525,633.4875 " fill="none" id="SubMaxSumAlgorithms-backto-BenchmarkAlgorithmAdapter" style="stroke:#A80036;stroke-width:1.25;stroke-dasharray:7.0,7.0;"/><polygon fill="none" points="883.6625,532.25,906.95,519.625,896.6125,544.025,883.6625,532.25" style="stroke:#A80036;stroke-width:1.25;"/><!--MD5=[2746a4793daa6de3b91732e823f67982]
reverse link SubMaxSumAlgorithms to BruteForceAlgorithmAdapter--><path d="M977.0375,541.1875 C995.5,571.775 1017.3125,607.9375 1032.725,633.4875 " fill="none" id="SubMaxSumAlgorithms-backto-BruteForceAlgorithmAdapter" style="stroke:#A80036;stroke-width:1.25;stroke-dasharray:7.0,7.0;"/><polygon fill="none" points="969.45,545.5625,964.0375,519.625,984.4375,536.5125,969.45,545.5625" style="stroke:#A80036;stroke-width:1.25;"/><!--MD5=[79c05b33dd701adba4f202d199860628]
@startuml
'skinparam linetype ortho
hide empty methods
hide empty attributes
'left to right direction
skinparam classAttributeIconSize 0

class Company {
    -String designation
    -TestStore testStore
    -ClientStore clientStore
    +getTestStore()
    +getClientStore()
}

class TestStore {
    +getNumTestsWaitingForResultsDay(day)
    +getNumTestsWaitingForResultsInterval(beginningDay, endingDay)
    +getNumTestsWaitingForDiagnosisDay(day)
    +getNumTestsWaitingForDiagnosisInterval(beginningDay, endingDay)
    +getNumTestsProcessedInLabDay(day)
    +getNumTestsProcessedInLabInterval(beginningDay, endingDay)
}

class ClientStore {
    +getClients()
}

class CompanyPerformanceAnalysisController{
    -Company company
    +getNumClients()
    +getTestInfoDay(day)
    +getTestInfoInterval(beginningDay, endingDay)
    +makeIntervalArray(beginningDay, endingDay)
    +findWorstSubIntWithChosenAlgorithm(beginningDay, endingDay, chosenAlgorithm)
    +getAlgorithmClass(chosenAlgorithm)
}

class CompanyPerformanceAnalysisUI{
}

interface SubMaxSumAlgorithms <<interface>> {
    +findSubMaxSum(interval)
}

class BenchmarkAlgorithmAdapter{
    +findSubMaxSum(interval)
}

class BruteForceAlgorithmAdapter{
    +findSubMaxSum(interval)
}

class Sum{
    +Max(seq)
}

class BruteForceAlgorithm{
    +Max(seq)
}

CompanyPerformanceAnalysisUI ..> CompanyPerformanceAnalysisController
CompanyPerformanceAnalysisController ..> Company
CompanyPerformanceAnalysisController ..> ClientStore
CompanyPerformanceAnalysisController ..> TestStore
CompanyPerformanceAnalysisController "1" - -> "1" SubMaxSumAlgorithms : makes use of
BenchmarkAlgorithmAdapter - -> Sum
BruteForceAlgorithmAdapter - -> BruteForceAlgorithm

class BenchmarkAlgorithmAdapter implements SubMaxSumAlgorithms
class BruteForceAlgorithmAdapter implements SubMaxSumAlgorithms

@enduml

@startuml
hide empty methods
hide empty attributes
skinparam classAttributeIconSize 0

class Company {
    -String designation
    -TestStore testStore
    -ClientStore clientStore
    +getTestStore()
    +getClientStore()
}

class TestStore {
    +getNumTestsWaitingForResultsDay(day)
    +getNumTestsWaitingForResultsInterval(beginningDay, endingDay)
    +getNumTestsWaitingForDiagnosisDay(day)
    +getNumTestsWaitingForDiagnosisInterval(beginningDay, endingDay)
    +getNumTestsProcessedInLabDay(day)
    +getNumTestsProcessedInLabInterval(beginningDay, endingDay)
}

class ClientStore {
    +getClients()
}

class CompanyPerformanceAnalysisController{
    -Company company
    +getNumClients()
    +getTestInfoDay(day)
    +getTestInfoInterval(beginningDay, endingDay)
    +makeIntervalArray(beginningDay, endingDay)
    +findWorstSubIntWithChosenAlgorithm(beginningDay, endingDay, chosenAlgorithm)
    +getAlgorithmClass(chosenAlgorithm)
}

class CompanyPerformanceAnalysisUI{
}

interface SubMaxSumAlgorithms <<interface>> {
    +findSubMaxSum(interval)
}

class BenchmarkAlgorithmAdapter{
    +findSubMaxSum(interval)
}

class BruteForceAlgorithmAdapter{
    +findSubMaxSum(interval)
}

class Sum{
    +Max(seq)
}

class BruteForceAlgorithm{
    +Max(seq)
}

CompanyPerformanceAnalysisUI ..> CompanyPerformanceAnalysisController
CompanyPerformanceAnalysisController ..> Company
CompanyPerformanceAnalysisController ..> ClientStore
CompanyPerformanceAnalysisController ..> TestStore
CompanyPerformanceAnalysisController "1" - -> "1" SubMaxSumAlgorithms : makes use of
BenchmarkAlgorithmAdapter - -> Sum
BruteForceAlgorithmAdapter - -> BruteForceAlgorithm

class BenchmarkAlgorithmAdapter implements SubMaxSumAlgorithms
class BruteForceAlgorithmAdapter implements SubMaxSumAlgorithms

@enduml

PlantUML version 1.2021.7(Sun May 23 13:40:07 BST 2021)
(GPL source distribution)
Java Runtime: OpenJDK Runtime Environment
JVM: Dynamic Code Evolution 64-Bit Server VM
Default Encoding: Cp1252
Language: pt
Country: PT
--></g></svg>