<?xml version="1.0" encoding="UTF-8" standalone="no"?><svg xmlns="http://www.w3.org/2000/svg" xmlns:xlink="http://www.w3.org/1999/xlink" contentScriptType="application/ecmascript" contentStyleType="text/css" height="700px" preserveAspectRatio="none" style="width:1162px;height:700px;background:#FFFFFF;" version="1.1" viewBox="0 0 1162 700" width="1162.5px" zoomAndPan="magnify"><defs><filter height="300%" id="f12dt2mc6nvc9p" width="300%" x="-1" y="-1"><feGaussianBlur result="blurOut" stdDeviation="2.5"/><feColorMatrix in="blurOut" result="blurOut2" type="matrix" values="0 0 0 0 0 0 0 0 0 0 0 0 0 0 0 0 0 0 .4 0"/><feOffset dx="5.0" dy="5.0" in="blurOut2" result="blurOut3"/><feBlend in="SourceGraphic" in2="blurOut3" mode="normal"/></filter></defs><g><!--MD5=[02e4b9b7573f1156f41e60aa5b4e25a4]
class Company--><rect codeLine="7" fill="#FEFECE" filter="url(#f12dt2mc6nvc9p)" height="146.4746" id="Company" style="stroke:#A80036;stroke-width:1.875;" width="152.5" x="8.75" y="390"/><ellipse cx="48.3125" cy="410" fill="#ADD1B2" rx="13.75" ry="13.75" style="stroke:#A80036;stroke-width:1.25;"/><path d="M50.8125,405.625 Q51.0664,405 51.3594,404.6875 Q51.6523,404.375 51.9844,404.375 Q52.5703,404.375 52.9414,404.7266 Q53.3125,405.0781 53.3125,405.8984 L53.3125,407.8516 Q53.3125,408.6719 52.9609,409.0234 Q52.6094,409.375 52.0625,409.375 Q51.5742,409.375 51.2617,409.1602 Q50.9492,408.9453 50.8125,408.3789 Q50.7539,407.9883 50.5391,407.7734 Q50.1484,407.3633 49.4453,407.1289 Q48.7422,406.875 48.0391,406.875 Q47.1602,406.875 46.418,407.2266 Q45.6953,407.5781 45.1289,408.3594 Q44.5625,409.1406 44.5625,410.2148 L44.5625,411.3672 Q44.5625,412.6563 45.6172,413.5156 Q46.6719,414.375 48.5469,414.375 Q49.6602,414.375 50.4414,414.1211 Q50.8906,413.9844 51.3984,413.5352 Q51.7305,413.2813 51.9063,413.2031 Q52.082,413.125 52.2969,413.125 Q52.707,413.125 53,413.457 Q53.3125,413.7695 53.3125,414.2188 Q53.3125,414.6484 52.8828,415.1563 Q52.2578,415.8984 51.2617,416.3086 Q49.9531,416.875 48.3516,416.875 Q46.4766,416.875 44.9727,416.1328 Q43.7617,415.5469 42.9023,414.2773 Q42.0625,413.0078 42.0625,411.5039 L42.0625,410.1367 Q42.0625,408.5742 42.8047,407.207 Q43.5664,405.8398 44.875,405.1172 Q46.2031,404.375 47.6875,404.375 Q48.5859,404.375 49.3672,404.6875 Q50.1484,405 50.8125,405.625 Z " fill="#000000"/><text fill="#000000" font-family="sans-serif" font-size="15" lengthAdjust="spacing" textLength="66.25" x="70.4375" y="416.1377">Company</text><line style="stroke:#A80036;stroke-width:1.875;" x1="10" x2="160" y1="430" y2="430"/><text fill="#000000" font-family="sans-serif" font-size="13.75" lengthAdjust="spacing" textLength="112.5" x="16.25" y="449.2737">-String designation</text><text fill="#000000" font-family="sans-serif" font-size="13.75" lengthAdjust="spacing" textLength="122.5" x="16.25" y="466.5686">-TestStore testStore</text><text fill="#000000" font-family="sans-serif" font-size="13.75" lengthAdjust="spacing" textLength="137.5" x="16.25" y="483.8635">-ClientStore clientStore</text><line style="stroke:#A80036;stroke-width:1.875;" x1="10" x2="160" y1="491.8848" y2="491.8848"/><text fill="#000000" font-family="sans-serif" font-size="13.75" lengthAdjust="spacing" textLength="95" x="16.25" y="511.1584">+getTestStore()</text><text fill="#000000" font-family="sans-serif" font-size="13.75" lengthAdjust="spacing" textLength="101.25" x="16.25" y="528.4534">+getClientStore()</text><!--MD5=[0f6f7964b844a64b0496af0dda7914bd]
class TestStore--><rect codeLine="15" fill="#FEFECE" filter="url(#f12dt2mc6nvc9p)" height="153.7695" id="TestStore" style="stroke:#A80036;stroke-width:1.875;" width="430" x="205" y="386.25"/><ellipse cx="381.5625" cy="406.25" fill="#ADD1B2" rx="13.75" ry="13.75" style="stroke:#A80036;stroke-width:1.25;"/><path d="M384.0625,401.875 Q384.3164,401.25 384.6094,400.9375 Q384.9023,400.625 385.2344,400.625 Q385.8203,400.625 386.1914,400.9766 Q386.5625,401.3281 386.5625,402.1484 L386.5625,404.1016 Q386.5625,404.9219 386.2109,405.2734 Q385.8594,405.625 385.3125,405.625 Q384.8242,405.625 384.5117,405.4102 Q384.1992,405.1953 384.0625,404.6289 Q384.0039,404.2383 383.7891,404.0234 Q383.3984,403.6133 382.6953,403.3789 Q381.9922,403.125 381.2891,403.125 Q380.4102,403.125 379.668,403.4766 Q378.9453,403.8281 378.3789,404.6094 Q377.8125,405.3906 377.8125,406.4648 L377.8125,407.6172 Q377.8125,408.9063 378.8672,409.7656 Q379.9219,410.625 381.7969,410.625 Q382.9102,410.625 383.6914,410.3711 Q384.1406,410.2344 384.6484,409.7852 Q384.9805,409.5313 385.1563,409.4531 Q385.332,409.375 385.5469,409.375 Q385.957,409.375 386.25,409.707 Q386.5625,410.0195 386.5625,410.4688 Q386.5625,410.8984 386.1328,411.4063 Q385.5078,412.1484 384.5117,412.5586 Q383.2031,413.125 381.6016,413.125 Q379.7266,413.125 378.2227,412.3828 Q377.0117,411.7969 376.1523,410.5273 Q375.3125,409.2578 375.3125,407.7539 L375.3125,406.3867 Q375.3125,404.8242 376.0547,403.457 Q376.8164,402.0898 378.125,401.3672 Q379.4531,400.625 380.9375,400.625 Q381.8359,400.625 382.6172,400.9375 Q383.3984,401.25 384.0625,401.875 Z " fill="#000000"/><text fill="#000000" font-family="sans-serif" font-size="15" lengthAdjust="spacing" textLength="66.25" x="407.1875" y="412.3877">TestStore</text><line style="stroke:#A80036;stroke-width:1.875;" x1="206.25" x2="633.75" y1="426.25" y2="426.25"/><text fill="#000000" font-family="sans-serif" font-size="13.75" lengthAdjust="spacing" textLength="251.25" x="212.5" y="445.5237">+getNumTestsWaitingForResultsDay(day)</text><text fill="#000000" font-family="sans-serif" font-size="13.75" lengthAdjust="spacing" textLength="401.25" x="212.5" y="462.8186">+getNumTestsWaitingForResultsInterval(beginningDay, endingDay)</text><text fill="#000000" font-family="sans-serif" font-size="13.75" lengthAdjust="spacing" textLength="265" x="212.5" y="480.1135">+getNumTestsWaitingForDiagnosisDay(day)</text><text fill="#000000" font-family="sans-serif" font-size="13.75" lengthAdjust="spacing" textLength="415" x="212.5" y="497.4084">+getNumTestsWaitingForDiagnosisInterval(beginningDay, endingDay)</text><text fill="#000000" font-family="sans-serif" font-size="13.75" lengthAdjust="spacing" textLength="240" x="212.5" y="514.7034">+getNumTestsProcessedInLabDay(day)</text><text fill="#000000" font-family="sans-serif" font-size="13.75" lengthAdjust="spacing" textLength="390" x="212.5" y="531.9983">+getNumTestsProcessedInLabInterval(beginningDay, endingDay)</text><!--MD5=[55cb992be19579b505cea3c5691093cb]
class ClientStore--><rect codeLine="24" fill="#FEFECE" filter="url(#f12dt2mc6nvc9p)" height="67.2949" id="ClientStore" style="stroke:#A80036;stroke-width:1.875;" width="116.25" x="679.375" y="429.375"/><ellipse cx="698.125" cy="449.375" fill="#ADD1B2" rx="13.75" ry="13.75" style="stroke:#A80036;stroke-width:1.25;"/><path d="M700.625,445 Q700.8789,444.375 701.1719,444.0625 Q701.4648,443.75 701.7969,443.75 Q702.3828,443.75 702.7539,444.1016 Q703.125,444.4531 703.125,445.2734 L703.125,447.2266 Q703.125,448.0469 702.7734,448.3984 Q702.4219,448.75 701.875,448.75 Q701.3867,448.75 701.0742,448.5352 Q700.7617,448.3203 700.625,447.7539 Q700.5664,447.3633 700.3516,447.1484 Q699.9609,446.7383 699.2578,446.5039 Q698.5547,446.25 697.8516,446.25 Q696.9727,446.25 696.2305,446.6016 Q695.5078,446.9531 694.9414,447.7344 Q694.375,448.5156 694.375,449.5898 L694.375,450.7422 Q694.375,452.0313 695.4297,452.8906 Q696.4844,453.75 698.3594,453.75 Q699.4727,453.75 700.2539,453.4961 Q700.7031,453.3594 701.2109,452.9102 Q701.543,452.6563 701.7188,452.5781 Q701.8945,452.5 702.1094,452.5 Q702.5195,452.5 702.8125,452.832 Q703.125,453.1445 703.125,453.5938 Q703.125,454.0234 702.6953,454.5313 Q702.0703,455.2734 701.0742,455.6836 Q699.7656,456.25 698.1641,456.25 Q696.2891,456.25 694.7852,455.5078 Q693.5742,454.9219 692.7148,453.6523 Q691.875,452.3828 691.875,450.8789 L691.875,449.5117 Q691.875,447.9492 692.6172,446.582 Q693.3789,445.2148 694.6875,444.4922 Q696.0156,443.75 697.5,443.75 Q698.3984,443.75 699.1797,444.0625 Q699.9609,444.375 700.625,445 Z " fill="#000000"/><text fill="#000000" font-family="sans-serif" font-size="15" lengthAdjust="spacing" textLength="76.25" x="715.625" y="455.5127">ClientStore</text><line style="stroke:#A80036;stroke-width:1.875;" x1="680.625" x2="794.375" y1="469.375" y2="469.375"/><text fill="#000000" font-family="sans-serif" font-size="13.75" lengthAdjust="spacing" textLength="76.25" x="686.875" y="488.6487">+getClients()</text><!--MD5=[670275f839cd0f6ae295f6f439fd6034]
class CompanyPerformanceAnalysisController--><rect codeLine="28" fill="#FEFECE" filter="url(#f12dt2mc6nvc9p)" height="163.7695" id="CompanyPerformanceAnalysisController" style="stroke:#A80036;stroke-width:1.875;" width="518.75" x="319.375" y="125"/><ellipse cx="433.4375" cy="145" fill="#ADD1B2" rx="13.75" ry="13.75" style="stroke:#A80036;stroke-width:1.25;"/><path d="M435.9375,140.625 Q436.1914,140 436.4844,139.6875 Q436.7773,139.375 437.1094,139.375 Q437.6953,139.375 438.0664,139.7266 Q438.4375,140.0781 438.4375,140.8984 L438.4375,142.8516 Q438.4375,143.6719 438.0859,144.0234 Q437.7344,144.375 437.1875,144.375 Q436.6992,144.375 436.3867,144.1602 Q436.0742,143.9453 435.9375,143.3789 Q435.8789,142.9883 435.6641,142.7734 Q435.2734,142.3633 434.5703,142.1289 Q433.8672,141.875 433.1641,141.875 Q432.2852,141.875 431.543,142.2266 Q430.8203,142.5781 430.2539,143.3594 Q429.6875,144.1406 429.6875,145.2148 L429.6875,146.3672 Q429.6875,147.6563 430.7422,148.5156 Q431.7969,149.375 433.6719,149.375 Q434.7852,149.375 435.5664,149.1211 Q436.0156,148.9844 436.5234,148.5352 Q436.8555,148.2813 437.0313,148.2031 Q437.207,148.125 437.4219,148.125 Q437.832,148.125 438.125,148.457 Q438.4375,148.7695 438.4375,149.2188 Q438.4375,149.6484 438.0078,150.1563 Q437.3828,150.8984 436.3867,151.3086 Q435.0781,151.875 433.4766,151.875 Q431.6016,151.875 430.0977,151.1328 Q428.8867,150.5469 428.0273,149.2773 Q427.1875,148.0078 427.1875,146.5039 L427.1875,145.1367 Q427.1875,143.5742 427.9297,142.207 Q428.6914,140.8398 430,140.1172 Q431.3281,139.375 432.8125,139.375 Q433.7109,139.375 434.4922,139.6875 Q435.2734,140 435.9375,140.625 Z " fill="#000000"/><text fill="#000000" font-family="sans-serif" font-size="15" lengthAdjust="spacing" textLength="280" x="459.0625" y="151.1377">CompanyPerformanceAnalysisController</text><line style="stroke:#A80036;stroke-width:1.875;" x1="320.625" x2="836.875" y1="165" y2="165"/><text fill="#000000" font-family="sans-serif" font-size="13.75" lengthAdjust="spacing" textLength="120" x="326.875" y="184.2737">-Company company</text><line style="stroke:#A80036;stroke-width:1.875;" x1="320.625" x2="836.875" y1="192.2949" y2="192.2949"/><text fill="#000000" font-family="sans-serif" font-size="13.75" lengthAdjust="spacing" textLength="102.5" x="326.875" y="211.5686">+getNumClients()</text><text fill="#000000" font-family="sans-serif" font-size="13.75" lengthAdjust="spacing" textLength="131.25" x="326.875" y="228.8635">+getTestInfoDay(day)</text><text fill="#000000" font-family="sans-serif" font-size="13.75" lengthAdjust="spacing" textLength="281.25" x="326.875" y="246.1584">+getTestInfoInterval(beginningDay, endingDay)</text><text fill="#000000" font-family="sans-serif" font-size="13.75" lengthAdjust="spacing" textLength="280" x="326.875" y="263.4534">+makeIntervalArray(beginningDay, endingDay)</text><text fill="#000000" font-family="sans-serif" font-size="13.75" lengthAdjust="spacing" textLength="503.75" x="326.875" y="280.7483">+findWorstSubIntWithChosenAlgorithm(beginningDay, endingDay, chosenAlgorithm)</text><!--MD5=[3404723274ca4ec774b8d2f7e379376f]
class CompanyPerformanceAnalysisUI--><rect codeLine="37" fill="#FEFECE" filter="url(#f12dt2mc6nvc9p)" height="40" id="CompanyPerformanceAnalysisUI" style="stroke:#A80036;stroke-width:1.875;" width="267.5" x="445" y="8.75"/><ellipse cx="463.75" cy="28.75" fill="#ADD1B2" rx="13.75" ry="13.75" style="stroke:#A80036;stroke-width:1.25;"/><path d="M466.25,24.375 Q466.5039,23.75 466.7969,23.4375 Q467.0898,23.125 467.4219,23.125 Q468.0078,23.125 468.3789,23.4766 Q468.75,23.8281 468.75,24.6484 L468.75,26.6016 Q468.75,27.4219 468.3984,27.7734 Q468.0469,28.125 467.5,28.125 Q467.0117,28.125 466.6992,27.9102 Q466.3867,27.6953 466.25,27.1289 Q466.1914,26.7383 465.9766,26.5234 Q465.5859,26.1133 464.8828,25.8789 Q464.1797,25.625 463.4766,25.625 Q462.5977,25.625 461.8555,25.9766 Q461.1328,26.3281 460.5664,27.1094 Q460,27.8906 460,28.9648 L460,30.1172 Q460,31.4063 461.0547,32.2656 Q462.1094,33.125 463.9844,33.125 Q465.0977,33.125 465.8789,32.8711 Q466.3281,32.7344 466.8359,32.2852 Q467.168,32.0313 467.3438,31.9531 Q467.5195,31.875 467.7344,31.875 Q468.1445,31.875 468.4375,32.207 Q468.75,32.5195 468.75,32.9688 Q468.75,33.3984 468.3203,33.9063 Q467.6953,34.6484 466.6992,35.0586 Q465.3906,35.625 463.7891,35.625 Q461.9141,35.625 460.4102,34.8828 Q459.1992,34.2969 458.3398,33.0273 Q457.5,31.7578 457.5,30.2539 L457.5,28.8867 Q457.5,27.3242 458.2422,25.957 Q459.0039,24.5898 460.3125,23.8672 Q461.6406,23.125 463.125,23.125 Q464.0234,23.125 464.8047,23.4375 Q465.5859,23.75 466.25,24.375 Z " fill="#000000"/><text fill="#000000" font-family="sans-serif" font-size="15" lengthAdjust="spacing" textLength="227.5" x="481.25" y="34.8877">CompanyPerformanceAnalysisUI</text><!--MD5=[03e21a3a74a4ec725edc90da8949a6b4]
class SubMaxSumAlgorithms--><rect codeLine="40" fill="#FEFECE" filter="url(#f12dt2mc6nvc9p)" height="77.5293" id="SubMaxSumAlgorithms" style="stroke:#A80036;stroke-width:1.875;" width="202.5" x="840" y="424.375"/><ellipse cx="858.75" cy="449.4922" fill="#B4A7E5" rx="13.75" ry="13.75" style="stroke:#A80036;stroke-width:1.25;"/><path d="M860,445.7422 L860,453.2422 L862.5,453.2422 L863.1055,453.2422 L863.75,454.0234 L863.75,454.4922 L863.75,454.9609 L863.1055,455.7422 L862.5,455.7422 L855,455.7422 L854.3945,455.7422 L853.75,454.9609 L853.75,454.4922 L853.75,454.0234 L854.3945,453.2422 L855,453.2422 L857.5,453.2422 L857.5,445.7422 L855,445.7422 L854.3945,445.7422 L853.75,444.9609 L853.75,444.4922 L853.75,444.0234 L854.3945,443.2422 L855,443.2422 L862.5,443.2422 L863.1055,443.2422 L863.75,444.0234 L863.75,444.4922 L863.75,444.9609 L863.1055,445.7422 L862.5,445.7422 L860,445.7422 Z " fill="#000000"/><text fill="#000000" font-family="sans-serif" font-size="15" font-style="italic" lengthAdjust="spacing" textLength="76.25" x="919.375" y="446.1963">«interface»</text><text fill="#000000" font-family="sans-serif" font-size="15" font-style="italic" lengthAdjust="spacing" textLength="162.5" x="876.25" y="465.0635">SubMaxSumAlgorithms</text><line style="stroke:#A80036;stroke-width:1.875;" x1="841.25" x2="1041.25" y1="474.6094" y2="474.6094"/><text fill="#000000" font-family="sans-serif" font-size="13.75" lengthAdjust="spacing" textLength="158.75" x="847.5" y="493.8831">+findSubMaxSum(interval)</text><!--MD5=[11bfefeec74d45075ceaf494a510e590]
class BenchmarkAlgorithm--><rect codeLine="58" fill="#FEFECE" filter="url(#f12dt2mc6nvc9p)" height="67.2949" id="BenchmarkAlgorithm" style="stroke:#A80036;stroke-width:1.875;" width="183.75" x="736.875" y="616.25"/><ellipse cx="755.625" cy="636.25" fill="#ADD1B2" rx="13.75" ry="13.75" style="stroke:#A80036;stroke-width:1.25;"/><path d="M758.125,631.875 Q758.3789,631.25 758.6719,630.9375 Q758.9648,630.625 759.2969,630.625 Q759.8828,630.625 760.2539,630.9766 Q760.625,631.3281 760.625,632.1484 L760.625,634.1016 Q760.625,634.9219 760.2734,635.2734 Q759.9219,635.625 759.375,635.625 Q758.8867,635.625 758.5742,635.4102 Q758.2617,635.1953 758.125,634.6289 Q758.0664,634.2383 757.8516,634.0234 Q757.4609,633.6133 756.7578,633.3789 Q756.0547,633.125 755.3516,633.125 Q754.4727,633.125 753.7305,633.4766 Q753.0078,633.8281 752.4414,634.6094 Q751.875,635.3906 751.875,636.4648 L751.875,637.6172 Q751.875,638.9063 752.9297,639.7656 Q753.9844,640.625 755.8594,640.625 Q756.9727,640.625 757.7539,640.3711 Q758.2031,640.2344 758.7109,639.7852 Q759.043,639.5313 759.2188,639.4531 Q759.3945,639.375 759.6094,639.375 Q760.0195,639.375 760.3125,639.707 Q760.625,640.0195 760.625,640.4688 Q760.625,640.8984 760.1953,641.4063 Q759.5703,642.1484 758.5742,642.5586 Q757.2656,643.125 755.6641,643.125 Q753.7891,643.125 752.2852,642.3828 Q751.0742,641.7969 750.2148,640.5273 Q749.375,639.2578 749.375,637.7539 L749.375,636.3867 Q749.375,634.8242 750.1172,633.457 Q750.8789,632.0898 752.1875,631.3672 Q753.5156,630.625 755,630.625 Q755.8984,630.625 756.6797,630.9375 Q757.4609,631.25 758.125,631.875 Z " fill="#000000"/><text fill="#000000" font-family="sans-serif" font-size="15" lengthAdjust="spacing" textLength="143.75" x="773.125" y="642.3877">BenchmarkAlgorithm</text><line style="stroke:#A80036;stroke-width:1.875;" x1="738.125" x2="919.375" y1="656.25" y2="656.25"/><text fill="#000000" font-family="sans-serif" font-size="13.75" lengthAdjust="spacing" textLength="158.75" x="744.375" y="675.5237">+findSubMaxSum(interval)</text><!--MD5=[1dec90c14ec2ba3af2708f621be65d00]
class BruteForceAlgorithm--><rect codeLine="59" fill="#FEFECE" filter="url(#f12dt2mc6nvc9p)" height="67.2949" id="BruteForceAlgorithm" style="stroke:#A80036;stroke-width:1.875;" width="180" x="965" y="616.25"/><ellipse cx="983.75" cy="636.25" fill="#ADD1B2" rx="13.75" ry="13.75" style="stroke:#A80036;stroke-width:1.25;"/><path d="M986.25,631.875 Q986.5039,631.25 986.7969,630.9375 Q987.0898,630.625 987.4219,630.625 Q988.0078,630.625 988.3789,630.9766 Q988.75,631.3281 988.75,632.1484 L988.75,634.1016 Q988.75,634.9219 988.3984,635.2734 Q988.0469,635.625 987.5,635.625 Q987.0117,635.625 986.6992,635.4102 Q986.3867,635.1953 986.25,634.6289 Q986.1914,634.2383 985.9766,634.0234 Q985.5859,633.6133 984.8828,633.3789 Q984.1797,633.125 983.4766,633.125 Q982.5977,633.125 981.8555,633.4766 Q981.1328,633.8281 980.5664,634.6094 Q980,635.3906 980,636.4648 L980,637.6172 Q980,638.9063 981.0547,639.7656 Q982.1094,640.625 983.9844,640.625 Q985.0977,640.625 985.8789,640.3711 Q986.3281,640.2344 986.8359,639.7852 Q987.168,639.5313 987.3438,639.4531 Q987.5195,639.375 987.7344,639.375 Q988.1445,639.375 988.4375,639.707 Q988.75,640.0195 988.75,640.4688 Q988.75,640.8984 988.3203,641.4063 Q987.6953,642.1484 986.6992,642.5586 Q985.3906,643.125 983.7891,643.125 Q981.9141,643.125 980.4102,642.3828 Q979.1992,641.7969 978.3398,640.5273 Q977.5,639.2578 977.5,637.7539 L977.5,636.3867 Q977.5,634.8242 978.2422,633.457 Q979.0039,632.0898 980.3125,631.3672 Q981.6406,630.625 983.125,630.625 Q984.0234,630.625 984.8047,630.9375 Q985.5859,631.25 986.25,631.875 Z " fill="#000000"/><text fill="#000000" font-family="sans-serif" font-size="15" lengthAdjust="spacing" textLength="140" x="1001.25" y="642.3877">BruteForceAlgorithm</text><line style="stroke:#A80036;stroke-width:1.875;" x1="966.25" x2="1143.75" y1="656.25" y2="656.25"/><text fill="#000000" font-family="sans-serif" font-size="13.75" lengthAdjust="spacing" textLength="158.75" x="972.5" y="675.5237">+findSubMaxSum(interval)</text><!--MD5=[5b29af9deb3324aeb9c231daa5002dba]
link CompanyPerformanceAnalysisUI to CompanyPerformanceAnalysisController--><path codeLine="52" d="M578.75,48.8 C578.75,65.8375 578.75,92.2375 578.75,118.5625 " fill="none" id="CompanyPerformanceAnalysisUI-to-CompanyPerformanceAnalysisController" style="stroke:#A80036;stroke-width:1.25;stroke-dasharray:7.0,7.0;"/><polygon fill="#A80036" points="578.75,124.875,583.75,113.625,578.75,118.625,573.75,113.625,578.75,124.875" style="stroke:#A80036;stroke-width:1.25;"/><!--MD5=[5ce4db4ce32c27ecea6aaa74e26a0164]
link CompanyPerformanceAnalysisController to Company--><path codeLine="53" d="M374.5125,288.8625 C311.3625,316.7375 242.625,350.125 182.5,386.25 C177.2625,389.4 171.9875,392.775 166.75,396.3 " fill="none" id="CompanyPerformanceAnalysisController-to-Company" style="stroke:#A80036;stroke-width:1.25;stroke-dasharray:7.0,7.0;"/><polygon fill="#A80036" points="161.5125,399.875,173.6192,397.6413,166.6685,396.3425,167.9673,389.3918,161.5125,399.875" style="stroke:#A80036;stroke-width:1.25;"/><!--MD5=[556445e2a8ca4c0c6a33a05341a7825e]
link CompanyPerformanceAnalysisController to ClientStore--><path codeLine="54" d="M629.2,288.7625 C657.4625,333.95 691.4,388.1875 713.6625,423.7625 " fill="none" id="CompanyPerformanceAnalysisController-to-ClientStore" style="stroke:#A80036;stroke-width:1.25;stroke-dasharray:7.0,7.0;"/><polygon fill="#A80036" points="717.125,429.3125,715.3914,417.1241,713.8077,424.0155,706.9163,422.4318,717.125,429.3125" style="stroke:#A80036;stroke-width:1.25;"/><!--MD5=[d03b593c12afa5f3c42671c11d6ed63b]
link CompanyPerformanceAnalysisController to TestStore--><path codeLine="55" d="M528.3,288.7625 C509.925,318.1375 489.15,351.3375 470.75,380.75 " fill="none" id="CompanyPerformanceAnalysisController-to-TestStore" style="stroke:#A80036;stroke-width:1.25;stroke-dasharray:7.0,7.0;"/><polygon fill="#A80036" points="467.35,386.2,477.5587,379.3193,470.6673,380.903,469.0836,374.0116,467.35,386.2" style="stroke:#A80036;stroke-width:1.25;"/><!--MD5=[1f5b511532344f36d5811b87494f5882]
link CompanyPerformanceAnalysisController to SubMaxSumAlgorithms--><path codeLine="56" d="M693.95,288.7625 C756.55,332.5875 831.3375,384.9375 882.1625,420.5125 " fill="none" id="CompanyPerformanceAnalysisController-to-SubMaxSumAlgorithms" style="stroke:#A80036;stroke-width:1.25;"/><polygon fill="#A80036" points="887.625,424.3375,881.271,413.7929,882.5031,420.7558,875.5402,421.9879,887.625,424.3375" style="stroke:#A80036;stroke-width:1.25;"/><text fill="#000000" font-family="sans-serif" font-size="16.25" lengthAdjust="spacing" textLength="97.5" x="772.5" y="344.3689">makes use of</text><text fill="#000000" font-family="sans-serif" font-size="16.25" lengthAdjust="spacing" textLength="8.75" x="697.3215" y="315.7046">1</text><text fill="#000000" font-family="sans-serif" font-size="16.25" lengthAdjust="spacing" textLength="8.75" x="866.1875" y="410.579">1</text><!--MD5=[c8e100f44fde5425da9ad34dc7ebdfb6]
reverse link SubMaxSumAlgorithms to BenchmarkAlgorithm--><path d="M905.0625,523.6875 C886.3875,554.275 864.3375,590.4375 848.75,615.9875 " fill="none" id="SubMaxSumAlgorithms-backto-BenchmarkAlgorithm" style="stroke:#A80036;stroke-width:1.25;stroke-dasharray:7.0,7.0;"/><polygon fill="none" points="897.725,518.9125,918.2125,502.125,912.6625,528.025,897.725,518.9125" style="stroke:#A80036;stroke-width:1.25;"/><!--MD5=[778e010c63a15d1050fa3eed8c57d7e7]
reverse link SubMaxSumAlgorithms to BruteForceAlgorithm--><path d="M977.8375,523.6875 C996.7125,554.275 1019.025,590.4375 1034.7875,615.9875 " fill="none" id="SubMaxSumAlgorithms-backto-BruteForceAlgorithm" style="stroke:#A80036;stroke-width:1.25;stroke-dasharray:7.0,7.0;"/><polygon fill="none" points="970.225,528,964.5375,502.125,985.1125,518.8125,970.225,528" style="stroke:#A80036;stroke-width:1.25;"/><!--MD5=[68097e226ed79276aa789bc952a3ff48]
@startuml
'skinparam linetype ortho
hide empty methods
hide empty attributes
'left to right direction
skinparam classAttributeIconSize 0

class Company {
    -String designation
    -TestStore testStore
    -ClientStore clientStore
    +getTestStore()
    +getClientStore()
}

class TestStore {
    +getNumTestsWaitingForResultsDay(day)
    +getNumTestsWaitingForResultsInterval(beginningDay, endingDay)
    +getNumTestsWaitingForDiagnosisDay(day)
    +getNumTestsWaitingForDiagnosisInterval(beginningDay, endingDay)
    +getNumTestsProcessedInLabDay(day)
    +getNumTestsProcessedInLabInterval(beginningDay, endingDay)
}

class ClientStore {
    +getClients()
}

class CompanyPerformanceAnalysisController{
    -Company company
    +getNumClients()
    +getTestInfoDay(day)
    +getTestInfoInterval(beginningDay, endingDay)
    +makeIntervalArray(beginningDay, endingDay)
    +findWorstSubIntWithChosenAlgorithm(beginningDay, endingDay, chosenAlgorithm)
}

class CompanyPerformanceAnalysisUI{
}

interface SubMaxSumAlgorithms <<interface>> {
    +findSubMaxSum(interval)
}

class BenchmarkAlgorithm{
    +findSubMaxSum(interval)
}

class BruteForceAlgorithm{
    +findSubMaxSum(interval)
}

CompanyPerformanceAnalysisUI ..> CompanyPerformanceAnalysisController
CompanyPerformanceAnalysisController ..> Company
CompanyPerformanceAnalysisController ..> ClientStore
CompanyPerformanceAnalysisController ..> TestStore
CompanyPerformanceAnalysisController "1" - -> "1" SubMaxSumAlgorithms : makes use of

class BenchmarkAlgorithm implements SubMaxSumAlgorithms
class BruteForceAlgorithm implements SubMaxSumAlgorithms

@enduml

@startuml
hide empty methods
hide empty attributes
skinparam classAttributeIconSize 0

class Company {
    -String designation
    -TestStore testStore
    -ClientStore clientStore
    +getTestStore()
    +getClientStore()
}

class TestStore {
    +getNumTestsWaitingForResultsDay(day)
    +getNumTestsWaitingForResultsInterval(beginningDay, endingDay)
    +getNumTestsWaitingForDiagnosisDay(day)
    +getNumTestsWaitingForDiagnosisInterval(beginningDay, endingDay)
    +getNumTestsProcessedInLabDay(day)
    +getNumTestsProcessedInLabInterval(beginningDay, endingDay)
}

class ClientStore {
    +getClients()
}

class CompanyPerformanceAnalysisController{
    -Company company
    +getNumClients()
    +getTestInfoDay(day)
    +getTestInfoInterval(beginningDay, endingDay)
    +makeIntervalArray(beginningDay, endingDay)
    +findWorstSubIntWithChosenAlgorithm(beginningDay, endingDay, chosenAlgorithm)
}

class CompanyPerformanceAnalysisUI{
}

interface SubMaxSumAlgorithms <<interface>> {
    +findSubMaxSum(interval)
}

class BenchmarkAlgorithm{
    +findSubMaxSum(interval)
}

class BruteForceAlgorithm{
    +findSubMaxSum(interval)
}

CompanyPerformanceAnalysisUI ..> CompanyPerformanceAnalysisController
CompanyPerformanceAnalysisController ..> Company
CompanyPerformanceAnalysisController ..> ClientStore
CompanyPerformanceAnalysisController ..> TestStore
CompanyPerformanceAnalysisController "1" - -> "1" SubMaxSumAlgorithms : makes use of

class BenchmarkAlgorithm implements SubMaxSumAlgorithms
class BruteForceAlgorithm implements SubMaxSumAlgorithms

@enduml

PlantUML version 1.2021.7(Sun May 23 13:40:07 BST 2021)
(GPL source distribution)
Java Runtime: OpenJDK Runtime Environment
JVM: Dynamic Code Evolution 64-Bit Server VM
Default Encoding: Cp1252
Language: pt
Country: PT
--></g></svg>