<?xml version="1.0" encoding="UTF-8" standalone="no"?><svg xmlns="http://www.w3.org/2000/svg" xmlns:xlink="http://www.w3.org/1999/xlink" contentScriptType="application/ecmascript" contentStyleType="text/css" height="1011.25px" preserveAspectRatio="none" style="width:3132px;height:1011px;background:#FFFFFF;" version="1.1" viewBox="0 0 3132 1011" width="3132.5px" zoomAndPan="magnify"><defs><filter height="300%" id="f1gcwm9e3buli5" width="300%" x="-1" y="-1"><feGaussianBlur result="blurOut" stdDeviation="2.5"/><feColorMatrix in="blurOut" result="blurOut2" type="matrix" values="0 0 0 0 0 0 0 0 0 0 0 0 0 0 0 0 0 0 .4 0"/><feOffset dx="5.0" dy="5.0" in="blurOut2" result="blurOut3"/><feBlend in="SourceGraphic" in2="blurOut3" mode="normal"/></filter></defs><g><!--MD5=[2c2e2644034c00788261e03c85b06837]
cluster Core--><polygon fill="#FFFFFF" filter="url(#f1gcwm9e3buli5)" points="428.75,7.5,478.75,7.5,487.5,37.0117,3111.25,37.0117,3111.25,1002.5,428.75,1002.5,428.75,7.5" style="stroke:#000000;stroke-width:1.875;"/><line style="stroke:#000000;stroke-width:1.875;" x1="428.75" x2="487.5" y1="37.0117" y2="37.0117"/><text fill="#000000" font-family="sans-serif" font-size="17.5" font-weight="bold" lengthAdjust="spacing" textLength="42.5" x="433.75" y="28.1665">Core</text><!--MD5=[121a8bf1197281ab89ed693fab589f94]
cluster Domain--><polygon fill="#FFFFFF" filter="url(#f1gcwm9e3buli5)" points="986.25,62.5,1058.75,62.5,1067.5,92.0117,2820,92.0117,2820,972.5,986.25,972.5,986.25,62.5" style="stroke:#000000;stroke-width:1.875;"/><line style="stroke:#000000;stroke-width:1.875;" x1="986.25" x2="1067.5" y1="92.0117" y2="92.0117"/><text fill="#000000" font-family="sans-serif" font-size="17.5" font-weight="bold" lengthAdjust="spacing" textLength="65" x="991.25" y="83.1665">Domain</text><!--MD5=[15636c1ca4a123c16a2a1a8e90aca7a9]
cluster Model--><polygon fill="#FFFFFF" filter="url(#f1gcwm9e3buli5)" points="1196.875,332.5,1259.375,332.5,1268.125,362.0117,2073.75,362.0117,2073.75,942.5,1196.875,942.5,1196.875,332.5" style="stroke:#000000;stroke-width:1.875;"/><line style="stroke:#000000;stroke-width:1.875;" x1="1196.875" x2="1268.125" y1="362.0117" y2="362.0117"/><text fill="#000000" font-family="sans-serif" font-size="17.5" font-weight="bold" lengthAdjust="spacing" textLength="55" x="1201.875" y="353.1665">Model</text><!--MD5=[0b89f7d34c26fffbb81ea7301eb9df33]
cluster Interfaces--><polygon fill="#FFFFFF" filter="url(#f1gcwm9e3buli5)" points="2230,566.25,2326.25,566.25,2335,595.7617,2472.5,595.7617,2472.5,708.75,2230,708.75,2230,566.25" style="stroke:#000000;stroke-width:1.875;"/><line style="stroke:#000000;stroke-width:1.875;" x1="2230" x2="2335" y1="595.7617" y2="595.7617"/><text fill="#000000" font-family="sans-serif" font-size="17.5" font-weight="bold" lengthAdjust="spacing" textLength="88.75" x="2235" y="586.9165">Interfaces</text><!--MD5=[7ce1723ddb6e6233854253973eae5a71]
cluster Store--><polygon fill="#FFFFFF" filter="url(#f1gcwm9e3buli5)" points="1016.25,117.5,1071.25,117.5,1080,147.0117,1555,147.0117,1555,302.5,1016.25,302.5,1016.25,117.5" style="stroke:#000000;stroke-width:1.875;"/><line style="stroke:#000000;stroke-width:1.875;" x1="1016.25" x2="1080" y1="147.0117" y2="147.0117"/><text fill="#000000" font-family="sans-serif" font-size="17.5" font-weight="bold" lengthAdjust="spacing" textLength="47.5" x="1021.25" y="138.1665">Store</text><!--MD5=[aedc30b8666742a3000193d7e0a0b93e]
cluster Adapters--><polygon fill="#FFFFFF" filter="url(#f1gcwm9e3buli5)" points="2513.75,515,2600,515,2608.75,544.5117,2790,544.5117,2790,758.75,2513.75,758.75,2513.75,515" style="stroke:#000000;stroke-width:1.875;"/><line style="stroke:#000000;stroke-width:1.875;" x1="2513.75" x2="2608.75" y1="544.5117" y2="544.5117"/><text fill="#000000" font-family="sans-serif" font-size="17.5" font-weight="bold" lengthAdjust="spacing" textLength="78.75" x="2518.75" y="535.6665">Adapters</text><!--MD5=[1f2cfc53d9d308f53762fd0fcbaa4873]
cluster Controller--><polygon fill="#FFFFFF" filter="url(#f1gcwm9e3buli5)" points="458.75,196.25,555,196.25,563.75,225.7617,945,225.7617,945,493.75,458.75,493.75,458.75,196.25" style="stroke:#000000;stroke-width:1.875;"/><line style="stroke:#000000;stroke-width:1.875;" x1="458.75" x2="563.75" y1="225.7617" y2="225.7617"/><text fill="#000000" font-family="sans-serif" font-size="17.5" font-weight="bold" lengthAdjust="spacing" textLength="88.75" x="463.75" y="216.9165">Controller</text><!--MD5=[c29634d7cdbe8f1c1e88f2fe66ae73ec]
cluster ThirdParty--><polygon fill="#FFFFFF" filter="url(#f1gcwm9e3buli5)" points="2861.25,500,2957.5,500,2966.25,529.5117,3081.25,529.5117,3081.25,795,2861.25,795,2861.25,500" style="stroke:#000000;stroke-width:1.875;"/><line style="stroke:#000000;stroke-width:1.875;" x1="2861.25" x2="2966.25" y1="529.5117" y2="529.5117"/><text fill="#000000" font-family="sans-serif" font-size="17.5" font-weight="bold" lengthAdjust="spacing" textLength="88.75" x="2866.25" y="520.6665">ThirdParty</text><!--MD5=[0d079ae59d318396171bf167e6cb96b6]
cluster APIs--><polygon fill="#FFFFFF" filter="url(#f1gcwm9e3buli5)" points="2911.25,632.5,2956.25,632.5,2965,662.0117,3031.25,662.0117,3031.25,765,2911.25,765,2911.25,632.5" style="stroke:#000000;stroke-width:1.875;"/><line style="stroke:#000000;stroke-width:1.875;" x1="2911.25" x2="2965" y1="662.0117" y2="662.0117"/><text fill="#000000" font-family="sans-serif" font-size="17.5" font-weight="bold" lengthAdjust="spacing" textLength="37.5" x="2916.25" y="653.1665">APIs</text><!--MD5=[9681dc6e01e10c6b4fe06895ae94f592]
cluster UI--><polygon fill="#FFFFFF" filter="url(#f1gcwm9e3buli5)" points="20,237.5,45,237.5,53.75,267.0117,387.5,267.0117,387.5,427.5,20,427.5,20,237.5" style="stroke:#000000;stroke-width:1.875;"/><line style="stroke:#000000;stroke-width:1.875;" x1="20" x2="53.75" y1="267.0117" y2="267.0117"/><text fill="#000000" font-family="sans-serif" font-size="17.5" font-weight="bold" lengthAdjust="spacing" textLength="17.5" x="25" y="258.1665">UI</text><!--MD5=[b27c5c9af3cea12247b1c4c8d3c78770]
cluster GUI--><polygon fill="#FFFFFF" filter="url(#f1gcwm9e3buli5)" points="50,292.5,88.75,292.5,97.5,322.0117,357.5,322.0117,357.5,397.5,50,397.5,50,292.5" style="stroke:#000000;stroke-width:1.875;"/><line style="stroke:#000000;stroke-width:1.875;" x1="50" x2="97.5" y1="322.0117" y2="322.0117"/><text fill="#000000" font-family="sans-serif" font-size="17.5" font-weight="bold" lengthAdjust="spacing" textLength="31.25" x="55" y="313.1665">GUI</text><!--MD5=[02e4b9b7573f1156f41e60aa5b4e25a4]
class Company--><rect codeLine="13" fill="#FEFECE" filter="url(#f1gcwm9e3buli5)" height="111.8848" id="Company" style="stroke:#A80036;stroke-width:1.875;" width="137.5" x="1216.875" y="462.5"/><ellipse cx="1249.6875" cy="482.5" fill="#ADD1B2" rx="13.75" ry="13.75" style="stroke:#A80036;stroke-width:1.25;"/><path d="M1252.1875,478.125 Q1252.4414,477.5 1252.7344,477.1875 Q1253.0273,476.875 1253.3594,476.875 Q1253.9453,476.875 1254.3164,477.2266 Q1254.6875,477.5781 1254.6875,478.3984 L1254.6875,480.3516 Q1254.6875,481.1719 1254.3359,481.5234 Q1253.9844,481.875 1253.4375,481.875 Q1252.9492,481.875 1252.6367,481.6602 Q1252.3242,481.4453 1252.1875,480.8789 Q1252.1289,480.4883 1251.9141,480.2734 Q1251.5234,479.8633 1250.8203,479.6289 Q1250.1172,479.375 1249.4141,479.375 Q1248.5352,479.375 1247.793,479.7266 Q1247.0703,480.0781 1246.5039,480.8594 Q1245.9375,481.6406 1245.9375,482.7148 L1245.9375,483.8672 Q1245.9375,485.1563 1246.9922,486.0156 Q1248.0469,486.875 1249.9219,486.875 Q1251.0352,486.875 1251.8164,486.6211 Q1252.2656,486.4844 1252.7734,486.0352 Q1253.1055,485.7813 1253.2813,485.7031 Q1253.457,485.625 1253.6719,485.625 Q1254.082,485.625 1254.375,485.957 Q1254.6875,486.2695 1254.6875,486.7188 Q1254.6875,487.1484 1254.2578,487.6563 Q1253.6328,488.3984 1252.6367,488.8086 Q1251.3281,489.375 1249.7266,489.375 Q1247.8516,489.375 1246.3477,488.6328 Q1245.1367,488.0469 1244.2773,486.7773 Q1243.4375,485.5078 1243.4375,484.0039 L1243.4375,482.6367 Q1243.4375,481.0742 1244.1797,479.707 Q1244.9414,478.3398 1246.25,477.6172 Q1247.5781,476.875 1249.0625,476.875 Q1249.9609,476.875 1250.7422,477.1875 Q1251.5234,477.5 1252.1875,478.125 Z " fill="#000000"/><text fill="#000000" font-family="sans-serif" font-size="15" lengthAdjust="spacing" textLength="66.25" x="1270.3125" y="488.6377">Company</text><line style="stroke:#A80036;stroke-width:1.875;" x1="1218.125" x2="1353.125" y1="502.5" y2="502.5"/><text fill="#000000" font-family="sans-serif" font-size="13.75" lengthAdjust="spacing" textLength="112.5" x="1224.375" y="521.7737">-String designation</text><text fill="#000000" font-family="sans-serif" font-size="13.75" lengthAdjust="spacing" textLength="122.5" x="1224.375" y="539.0686">-TestStore testStore</text><line style="stroke:#A80036;stroke-width:1.875;" x1="1218.125" x2="1353.125" y1="547.0898" y2="547.0898"/><text fill="#000000" font-family="sans-serif" font-size="13.75" lengthAdjust="spacing" textLength="95" x="1224.375" y="566.3635">+getTestStore()</text><!--MD5=[dcf2a5f2a10777fb61a46b3b0525c1db]
class CompanyPerformance--><rect codeLine="19" fill="#FEFECE" filter="url(#f1gcwm9e3buli5)" height="544.2578" id="CompanyPerformance" style="stroke:#A80036;stroke-width:1.875;" width="396.25" x="1657.5" y="378.125"/><ellipse cx="1772.8125" cy="398.125" fill="#ADD1B2" rx="13.75" ry="13.75" style="stroke:#A80036;stroke-width:1.25;"/><path d="M1775.3125,393.75 Q1775.5664,393.125 1775.8594,392.8125 Q1776.1523,392.5 1776.4844,392.5 Q1777.0703,392.5 1777.4414,392.8516 Q1777.8125,393.2031 1777.8125,394.0234 L1777.8125,395.9766 Q1777.8125,396.7969 1777.4609,397.1484 Q1777.1094,397.5 1776.5625,397.5 Q1776.0742,397.5 1775.7617,397.2852 Q1775.4492,397.0703 1775.3125,396.5039 Q1775.2539,396.1133 1775.0391,395.8984 Q1774.6484,395.4883 1773.9453,395.2539 Q1773.2422,395 1772.5391,395 Q1771.6602,395 1770.918,395.3516 Q1770.1953,395.7031 1769.6289,396.4844 Q1769.0625,397.2656 1769.0625,398.3398 L1769.0625,399.4922 Q1769.0625,400.7813 1770.1172,401.6406 Q1771.1719,402.5 1773.0469,402.5 Q1774.1602,402.5 1774.9414,402.2461 Q1775.3906,402.1094 1775.8984,401.6602 Q1776.2305,401.4063 1776.4063,401.3281 Q1776.582,401.25 1776.7969,401.25 Q1777.207,401.25 1777.5,401.582 Q1777.8125,401.8945 1777.8125,402.3438 Q1777.8125,402.7734 1777.3828,403.2813 Q1776.7578,404.0234 1775.7617,404.4336 Q1774.4531,405 1772.8516,405 Q1770.9766,405 1769.4727,404.2578 Q1768.2617,403.6719 1767.4023,402.4023 Q1766.5625,401.1328 1766.5625,399.6289 L1766.5625,398.2617 Q1766.5625,396.6992 1767.3047,395.332 Q1768.0664,393.9648 1769.375,393.2422 Q1770.7031,392.5 1772.1875,392.5 Q1773.0859,392.5 1773.8672,392.8125 Q1774.6484,393.125 1775.3125,393.75 Z " fill="#000000"/><text fill="#000000" font-family="sans-serif" font-size="15" lengthAdjust="spacing" textLength="155" x="1798.4375" y="404.2627">CompanyPerformance</text><line style="stroke:#A80036;stroke-width:1.875;" x1="1658.75" x2="2052.5" y1="418.125" y2="418.125"/><text fill="#000000" font-family="sans-serif" font-size="13.75" lengthAdjust="spacing" textLength="120" x="1665" y="437.3987">-Company company</text><text fill="#000000" font-family="sans-serif" font-size="13.75" lengthAdjust="spacing" textLength="121.25" x="1665" y="454.6936">-Date beginningDate</text><text fill="#000000" font-family="sans-serif" font-size="13.75" lengthAdjust="spacing" textLength="103.75" x="1665" y="471.9885">-Date endingDate</text><text fill="#000000" font-family="sans-serif" font-size="13.75" lengthAdjust="spacing" textLength="108.75" x="1665" y="489.2834">-String chosenAlg</text><text fill="#000000" font-family="sans-serif" font-size="13.75" lengthAdjust="spacing" textLength="87.5" x="1665" y="506.5784">-int clientsNum</text><text fill="#000000" font-family="sans-serif" font-size="13.75" lengthAdjust="spacing" textLength="132.5" x="1665" y="523.8733">-int processTestsNum</text><text fill="#000000" font-family="sans-serif" font-size="13.75" lengthAdjust="spacing" textLength="170" x="1665" y="541.1682">-ArrayList&lt;int[]&gt; testInfoDay</text><text fill="#000000" font-family="sans-serif" font-size="13.75" lengthAdjust="spacing" textLength="180" x="1665" y="558.4631">-ArrayList&lt;int[]&gt; testInfoWeek</text><text fill="#000000" font-family="sans-serif" font-size="13.75" lengthAdjust="spacing" textLength="182.5" x="1665" y="575.7581">-ArrayList&lt;int[]&gt; testInfoMonth</text><text fill="#000000" font-family="sans-serif" font-size="13.75" lengthAdjust="spacing" textLength="176.25" x="1665" y="593.053">-ArrayList&lt;int[]&gt; testInfoYear</text><text fill="#000000" font-family="sans-serif" font-size="13.75" lengthAdjust="spacing" textLength="117.5" x="1665" y="610.3479">-Date[] worstSubInt</text><line style="stroke:#A80036;stroke-width:1.875;" x1="1658.75" x2="2052.5" y1="618.3691" y2="618.3691"/><text fill="#000000" font-family="sans-serif" font-size="13.75" lengthAdjust="spacing" textLength="102.5" x="1665" y="637.6428">+getClientsNum()</text><text fill="#000000" font-family="sans-serif" font-size="13.75" lengthAdjust="spacing" textLength="146.25" x="1665" y="654.9377">+getProcessTestsNum()</text><text fill="#000000" font-family="sans-serif" font-size="13.75" lengthAdjust="spacing" textLength="108.75" x="1665" y="672.2327">+getTestInfoDay()</text><text fill="#000000" font-family="sans-serif" font-size="13.75" lengthAdjust="spacing" textLength="118.75" x="1665" y="689.5276">+getTestInfoWeek()</text><text fill="#000000" font-family="sans-serif" font-size="13.75" lengthAdjust="spacing" textLength="121.25" x="1665" y="706.8225">+getTestInfoMonth()</text><text fill="#000000" font-family="sans-serif" font-size="13.75" lengthAdjust="spacing" textLength="115" x="1665" y="724.1174">+getTestInfoYear()</text><text fill="#000000" font-family="sans-serif" font-size="13.75" lengthAdjust="spacing" textLength="110" x="1665" y="741.4124">+getWorstSubInt()</text><text fill="#000000" font-family="sans-serif" font-size="13.75" lengthAdjust="spacing" textLength="192.5" x="1665" y="758.7073">+getClientsInfoPerInterval(days)</text><text fill="#000000" font-family="sans-serif" font-size="13.75" lengthAdjust="spacing" textLength="235" x="1665" y="776.0022">+getNumTestsProcessedInterval(days)</text><text fill="#000000" font-family="sans-serif" font-size="13.75" lengthAdjust="spacing" textLength="158.75" x="1665" y="793.2971">+getTestInfoPerDay(days)</text><text fill="#000000" font-family="sans-serif" font-size="13.75" lengthAdjust="spacing" textLength="168.75" x="1665" y="810.592">+getTestInfoPerWeek(days)</text><text fill="#000000" font-family="sans-serif" font-size="13.75" lengthAdjust="spacing" textLength="171.25" x="1665" y="827.887">+getTestInfoPerMonth(days)</text><text fill="#000000" font-family="sans-serif" font-size="13.75" lengthAdjust="spacing" textLength="165" x="1665" y="845.1819">+getTestInfoPerYear(days)</text><text fill="#000000" font-family="sans-serif" font-size="13.75" lengthAdjust="spacing" textLength="220" x="1665" y="862.4768">+getDays(beginningDay, endingDay)</text><text fill="#000000" font-family="sans-serif" font-size="13.75" lengthAdjust="spacing" textLength="157.5" x="1665" y="879.7717">+makeIntervalArray(days)</text><text fill="#000000" font-family="sans-serif" font-size="13.75" lengthAdjust="spacing" textLength="381.25" x="1665" y="897.0667">+findWorstSubIntWithChosenAlgorithm(days, chosenAlgorithm)</text><text fill="#000000" font-family="sans-serif" font-size="13.75" lengthAdjust="spacing" textLength="288.75" x="1665" y="914.3616">+getChosenAlgorithmAdapter(chosenAlgorithm)</text><!--MD5=[03e21a3a74a4ec725edc90da8949a6b4]
class SubMaxSumAlgorithms--><rect codeLine="54" fill="#FEFECE" filter="url(#f1gcwm9e3buli5)" height="77.5293" id="SubMaxSumAlgorithms" style="stroke:#A80036;stroke-width:1.875;" width="202.5" x="2250" y="611.25"/><ellipse cx="2268.75" cy="636.3672" fill="#B4A7E5" rx="13.75" ry="13.75" style="stroke:#A80036;stroke-width:1.25;"/><path d="M2270,632.6172 L2270,640.1172 L2272.5,640.1172 L2273.1055,640.1172 L2273.75,640.8984 L2273.75,641.3672 L2273.75,641.8359 L2273.1055,642.6172 L2272.5,642.6172 L2265,642.6172 L2264.3945,642.6172 L2263.75,641.8359 L2263.75,641.3672 L2263.75,640.8984 L2264.3945,640.1172 L2265,640.1172 L2267.5,640.1172 L2267.5,632.6172 L2265,632.6172 L2264.3945,632.6172 L2263.75,631.8359 L2263.75,631.3672 L2263.75,630.8984 L2264.3945,630.1172 L2265,630.1172 L2272.5,630.1172 L2273.1055,630.1172 L2273.75,630.8984 L2273.75,631.3672 L2273.75,631.8359 L2273.1055,632.6172 L2272.5,632.6172 L2270,632.6172 Z " fill="#000000"/><text fill="#000000" font-family="sans-serif" font-size="15" font-style="italic" lengthAdjust="spacing" textLength="76.25" x="2329.375" y="633.0713">«interface»</text><text fill="#000000" font-family="sans-serif" font-size="15" font-style="italic" lengthAdjust="spacing" textLength="162.5" x="2286.25" y="651.9385">SubMaxSumAlgorithms</text><line style="stroke:#A80036;stroke-width:1.875;" x1="2251.25" x2="2451.25" y1="661.4844" y2="661.4844"/><text fill="#000000" font-family="sans-serif" font-size="13.75" lengthAdjust="spacing" textLength="158.75" x="2257.5" y="680.7581">+findSubMaxSum(interval)</text><!--MD5=[0f6f7964b844a64b0496af0dda7914bd]
class TestStore--><rect codeLine="62" fill="#FEFECE" filter="url(#f1gcwm9e3buli5)" height="119.1797" id="TestStore" style="stroke:#A80036;stroke-width:1.875;" width="498.75" x="1036.25" y="163.125"/><ellipse cx="1247.1875" cy="183.125" fill="#ADD1B2" rx="13.75" ry="13.75" style="stroke:#A80036;stroke-width:1.25;"/><path d="M1249.6875,178.75 Q1249.9414,178.125 1250.2344,177.8125 Q1250.5273,177.5 1250.8594,177.5 Q1251.4453,177.5 1251.8164,177.8516 Q1252.1875,178.2031 1252.1875,179.0234 L1252.1875,180.9766 Q1252.1875,181.7969 1251.8359,182.1484 Q1251.4844,182.5 1250.9375,182.5 Q1250.4492,182.5 1250.1367,182.2852 Q1249.8242,182.0703 1249.6875,181.5039 Q1249.6289,181.1133 1249.4141,180.8984 Q1249.0234,180.4883 1248.3203,180.2539 Q1247.6172,180 1246.9141,180 Q1246.0352,180 1245.293,180.3516 Q1244.5703,180.7031 1244.0039,181.4844 Q1243.4375,182.2656 1243.4375,183.3398 L1243.4375,184.4922 Q1243.4375,185.7813 1244.4922,186.6406 Q1245.5469,187.5 1247.4219,187.5 Q1248.5352,187.5 1249.3164,187.2461 Q1249.7656,187.1094 1250.2734,186.6602 Q1250.6055,186.4063 1250.7813,186.3281 Q1250.957,186.25 1251.1719,186.25 Q1251.582,186.25 1251.875,186.582 Q1252.1875,186.8945 1252.1875,187.3438 Q1252.1875,187.7734 1251.7578,188.2813 Q1251.1328,189.0234 1250.1367,189.4336 Q1248.8281,190 1247.2266,190 Q1245.3516,190 1243.8477,189.2578 Q1242.6367,188.6719 1241.7773,187.4023 Q1240.9375,186.1328 1240.9375,184.6289 L1240.9375,183.2617 Q1240.9375,181.6992 1241.6797,180.332 Q1242.4414,178.9648 1243.75,178.2422 Q1245.0781,177.5 1246.5625,177.5 Q1247.4609,177.5 1248.2422,177.8125 Q1249.0234,178.125 1249.6875,178.75 Z " fill="#000000"/><text fill="#000000" font-family="sans-serif" font-size="15" lengthAdjust="spacing" textLength="66.25" x="1272.8125" y="189.2627">TestStore</text><line style="stroke:#A80036;stroke-width:1.875;" x1="1037.5" x2="1533.75" y1="203.125" y2="203.125"/><text fill="#000000" font-family="sans-serif" font-size="13.75" lengthAdjust="spacing" textLength="440" x="1043.75" y="222.3987">+getNumTestsWaitingForResultsDayOrInterval(beginningDay, endingDay)</text><text fill="#000000" font-family="sans-serif" font-size="13.75" lengthAdjust="spacing" textLength="453.75" x="1043.75" y="239.6936">+getNumTestsWaitingForDiagnosisDayOrInterval(beginningDay, endingDay)</text><text fill="#000000" font-family="sans-serif" font-size="13.75" lengthAdjust="spacing" textLength="483.75" x="1043.75" y="256.9885">+getNumberOfTestsByIntervalDateOfTestRegistration(beginningDay, endingDay)</text><text fill="#000000" font-family="sans-serif" font-size="13.75" lengthAdjust="spacing" textLength="445" x="1043.75" y="274.2834">+getNumberOfTestsByIntervalDateOfDiagnosis(beginningDay, endingDay)</text><!--MD5=[f4a38599b97b911edb1e154f571cf5e4]
class BenchmarkAlgorithmAdapter--><rect codeLine="139" fill="#FEFECE" filter="url(#f1gcwm9e3buli5)" height="67.2949" id="BenchmarkAlgorithmAdapter" style="stroke:#A80036;stroke-width:1.875;" width="236.25" x="2533.75" y="671.25"/><ellipse cx="2552.5" cy="691.25" fill="#ADD1B2" rx="13.75" ry="13.75" style="stroke:#A80036;stroke-width:1.25;"/><path d="M2555,686.875 Q2555.2539,686.25 2555.5469,685.9375 Q2555.8398,685.625 2556.1719,685.625 Q2556.7578,685.625 2557.1289,685.9766 Q2557.5,686.3281 2557.5,687.1484 L2557.5,689.1016 Q2557.5,689.9219 2557.1484,690.2734 Q2556.7969,690.625 2556.25,690.625 Q2555.7617,690.625 2555.4492,690.4102 Q2555.1367,690.1953 2555,689.6289 Q2554.9414,689.2383 2554.7266,689.0234 Q2554.3359,688.6133 2553.6328,688.3789 Q2552.9297,688.125 2552.2266,688.125 Q2551.3477,688.125 2550.6055,688.4766 Q2549.8828,688.8281 2549.3164,689.6094 Q2548.75,690.3906 2548.75,691.4648 L2548.75,692.6172 Q2548.75,693.9063 2549.8047,694.7656 Q2550.8594,695.625 2552.7344,695.625 Q2553.8477,695.625 2554.6289,695.3711 Q2555.0781,695.2344 2555.5859,694.7852 Q2555.918,694.5313 2556.0938,694.4531 Q2556.2695,694.375 2556.4844,694.375 Q2556.8945,694.375 2557.1875,694.707 Q2557.5,695.0195 2557.5,695.4688 Q2557.5,695.8984 2557.0703,696.4063 Q2556.4453,697.1484 2555.4492,697.5586 Q2554.1406,698.125 2552.5391,698.125 Q2550.6641,698.125 2549.1602,697.3828 Q2547.9492,696.7969 2547.0898,695.5273 Q2546.25,694.2578 2546.25,692.7539 L2546.25,691.3867 Q2546.25,689.8242 2546.9922,688.457 Q2547.7539,687.0898 2549.0625,686.3672 Q2550.3906,685.625 2551.875,685.625 Q2552.7734,685.625 2553.5547,685.9375 Q2554.3359,686.25 2555,686.875 Z " fill="#000000"/><text fill="#000000" font-family="sans-serif" font-size="15" lengthAdjust="spacing" textLength="196.25" x="2570" y="697.3877">BenchmarkAlgorithmAdapter</text><line style="stroke:#A80036;stroke-width:1.875;" x1="2535" x2="2768.75" y1="711.25" y2="711.25"/><text fill="#000000" font-family="sans-serif" font-size="13.75" lengthAdjust="spacing" textLength="158.75" x="2541.25" y="730.5237">+findSubMaxSum(interval)</text><!--MD5=[3d195b319a9e341286852cea89c88ec3]
class BruteForceAlgorithmAdapter--><rect codeLine="140" fill="#FEFECE" filter="url(#f1gcwm9e3buli5)" height="67.2949" id="BruteForceAlgorithmAdapter" style="stroke:#A80036;stroke-width:1.875;" width="232.5" x="2535.625" y="560"/><ellipse cx="2554.375" cy="580" fill="#ADD1B2" rx="13.75" ry="13.75" style="stroke:#A80036;stroke-width:1.25;"/><path d="M2556.875,575.625 Q2557.1289,575 2557.4219,574.6875 Q2557.7148,574.375 2558.0469,574.375 Q2558.6328,574.375 2559.0039,574.7266 Q2559.375,575.0781 2559.375,575.8984 L2559.375,577.8516 Q2559.375,578.6719 2559.0234,579.0234 Q2558.6719,579.375 2558.125,579.375 Q2557.6367,579.375 2557.3242,579.1602 Q2557.0117,578.9453 2556.875,578.3789 Q2556.8164,577.9883 2556.6016,577.7734 Q2556.2109,577.3633 2555.5078,577.1289 Q2554.8047,576.875 2554.1016,576.875 Q2553.2227,576.875 2552.4805,577.2266 Q2551.7578,577.5781 2551.1914,578.3594 Q2550.625,579.1406 2550.625,580.2148 L2550.625,581.3672 Q2550.625,582.6563 2551.6797,583.5156 Q2552.7344,584.375 2554.6094,584.375 Q2555.7227,584.375 2556.5039,584.1211 Q2556.9531,583.9844 2557.4609,583.5352 Q2557.793,583.2813 2557.9688,583.2031 Q2558.1445,583.125 2558.3594,583.125 Q2558.7695,583.125 2559.0625,583.457 Q2559.375,583.7695 2559.375,584.2188 Q2559.375,584.6484 2558.9453,585.1563 Q2558.3203,585.8984 2557.3242,586.3086 Q2556.0156,586.875 2554.4141,586.875 Q2552.5391,586.875 2551.0352,586.1328 Q2549.8242,585.5469 2548.9648,584.2773 Q2548.125,583.0078 2548.125,581.5039 L2548.125,580.1367 Q2548.125,578.5742 2548.8672,577.207 Q2549.6289,575.8398 2550.9375,575.1172 Q2552.2656,574.375 2553.75,574.375 Q2554.6484,574.375 2555.4297,574.6875 Q2556.2109,575 2556.875,575.625 Z " fill="#000000"/><text fill="#000000" font-family="sans-serif" font-size="15" lengthAdjust="spacing" textLength="192.5" x="2571.875" y="586.1377">BruteForceAlgorithmAdapter</text><line style="stroke:#A80036;stroke-width:1.875;" x1="2536.875" x2="2766.875" y1="600" y2="600"/><text fill="#000000" font-family="sans-serif" font-size="13.75" lengthAdjust="spacing" textLength="158.75" x="2543.125" y="619.2737">+findSubMaxSum(interval)</text><!--MD5=[670275f839cd0f6ae295f6f439fd6034]
class CompanyPerformanceAnalysisController--><rect codeLine="87" fill="#FEFECE" filter="url(#f1gcwm9e3buli5)" height="232.9492" id="CompanyPerformanceAnalysisController" style="stroke:#A80036;stroke-width:1.875;" width="446.25" x="478.75" y="241.25"/><ellipse cx="556.5625" cy="261.25" fill="#ADD1B2" rx="13.75" ry="13.75" style="stroke:#A80036;stroke-width:1.25;"/><path d="M559.0625,256.875 Q559.3164,256.25 559.6094,255.9375 Q559.9023,255.625 560.2344,255.625 Q560.8203,255.625 561.1914,255.9766 Q561.5625,256.3281 561.5625,257.1484 L561.5625,259.1016 Q561.5625,259.9219 561.2109,260.2734 Q560.8594,260.625 560.3125,260.625 Q559.8242,260.625 559.5117,260.4102 Q559.1992,260.1953 559.0625,259.6289 Q559.0039,259.2383 558.7891,259.0234 Q558.3984,258.6133 557.6953,258.3789 Q556.9922,258.125 556.2891,258.125 Q555.4102,258.125 554.668,258.4766 Q553.9453,258.8281 553.3789,259.6094 Q552.8125,260.3906 552.8125,261.4648 L552.8125,262.6172 Q552.8125,263.9063 553.8672,264.7656 Q554.9219,265.625 556.7969,265.625 Q557.9102,265.625 558.6914,265.3711 Q559.1406,265.2344 559.6484,264.7852 Q559.9805,264.5313 560.1563,264.4531 Q560.332,264.375 560.5469,264.375 Q560.957,264.375 561.25,264.707 Q561.5625,265.0195 561.5625,265.4688 Q561.5625,265.8984 561.1328,266.4063 Q560.5078,267.1484 559.5117,267.5586 Q558.2031,268.125 556.6016,268.125 Q554.7266,268.125 553.2227,267.3828 Q552.0117,266.7969 551.1523,265.5273 Q550.3125,264.2578 550.3125,262.7539 L550.3125,261.3867 Q550.3125,259.8242 551.0547,258.457 Q551.8164,257.0898 553.125,256.3672 Q554.4531,255.625 555.9375,255.625 Q556.8359,255.625 557.6172,255.9375 Q558.3984,256.25 559.0625,256.875 Z " fill="#000000"/><text fill="#000000" font-family="sans-serif" font-size="15" lengthAdjust="spacing" textLength="280" x="582.1875" y="267.3877">CompanyPerformanceAnalysisController</text><line style="stroke:#A80036;stroke-width:1.875;" x1="480" x2="923.75" y1="281.25" y2="281.25"/><text fill="#000000" font-family="sans-serif" font-size="13.75" lengthAdjust="spacing" textLength="120" x="486.25" y="300.5237">-Company company</text><text fill="#000000" font-family="sans-serif" font-size="13.75" lengthAdjust="spacing" textLength="275" x="486.25" y="317.8186">-CompanyPerformance companyPerformance</text><line style="stroke:#A80036;stroke-width:1.875;" x1="480" x2="923.75" y1="325.8398" y2="325.8398"/><text fill="#000000" font-family="sans-serif" font-size="13.75" lengthAdjust="spacing" textLength="431.25" x="486.25" y="345.1135">+setCompanyPerformance(beginningDay, endingDay, chosenAlgorithm)</text><text fill="#000000" font-family="sans-serif" font-size="13.75" lengthAdjust="spacing" textLength="162.5" x="486.25" y="362.4084">+getClientsInfoPerInterval()</text><text fill="#000000" font-family="sans-serif" font-size="13.75" lengthAdjust="spacing" textLength="205" x="486.25" y="379.7034">+getNumTestsProcessedInterval()</text><text fill="#000000" font-family="sans-serif" font-size="13.75" lengthAdjust="spacing" textLength="128.75" x="486.25" y="396.9983">+getTestInfoPerDay()</text><text fill="#000000" font-family="sans-serif" font-size="13.75" lengthAdjust="spacing" textLength="138.75" x="486.25" y="414.2932">+getTestInfoPerWeek()</text><text fill="#000000" font-family="sans-serif" font-size="13.75" lengthAdjust="spacing" textLength="141.25" x="486.25" y="431.5881">+getTestInfoPerMonth()</text><text fill="#000000" font-family="sans-serif" font-size="13.75" lengthAdjust="spacing" textLength="135" x="486.25" y="448.8831">+getTestInfoPerYear()</text><text fill="#000000" font-family="sans-serif" font-size="13.75" lengthAdjust="spacing" textLength="242.5" x="486.25" y="466.178">+findWorstSubIntWithChosenAlgorithm()</text><!--MD5=[1dec90c14ec2ba3af2708f621be65d00]
class BruteForceAlgorithm--><rect codeLine="112" fill="#FEFECE" filter="url(#f1gcwm9e3buli5)" height="67.2949" id="BruteForceAlgorithm" style="stroke:#A80036;stroke-width:1.875;" width="180" x="2881.25" y="545"/><ellipse cx="2900" cy="565" fill="#ADD1B2" rx="13.75" ry="13.75" style="stroke:#A80036;stroke-width:1.25;"/><path d="M2902.5,560.625 Q2902.7539,560 2903.0469,559.6875 Q2903.3398,559.375 2903.6719,559.375 Q2904.2578,559.375 2904.6289,559.7266 Q2905,560.0781 2905,560.8984 L2905,562.8516 Q2905,563.6719 2904.6484,564.0234 Q2904.2969,564.375 2903.75,564.375 Q2903.2617,564.375 2902.9492,564.1602 Q2902.6367,563.9453 2902.5,563.3789 Q2902.4414,562.9883 2902.2266,562.7734 Q2901.8359,562.3633 2901.1328,562.1289 Q2900.4297,561.875 2899.7266,561.875 Q2898.8477,561.875 2898.1055,562.2266 Q2897.3828,562.5781 2896.8164,563.3594 Q2896.25,564.1406 2896.25,565.2148 L2896.25,566.3672 Q2896.25,567.6563 2897.3047,568.5156 Q2898.3594,569.375 2900.2344,569.375 Q2901.3477,569.375 2902.1289,569.1211 Q2902.5781,568.9844 2903.0859,568.5352 Q2903.418,568.2813 2903.5938,568.2031 Q2903.7695,568.125 2903.9844,568.125 Q2904.3945,568.125 2904.6875,568.457 Q2905,568.7695 2905,569.2188 Q2905,569.6484 2904.5703,570.1563 Q2903.9453,570.8984 2902.9492,571.3086 Q2901.6406,571.875 2900.0391,571.875 Q2898.1641,571.875 2896.6602,571.1328 Q2895.4492,570.5469 2894.5898,569.2773 Q2893.75,568.0078 2893.75,566.5039 L2893.75,565.1367 Q2893.75,563.5742 2894.4922,562.207 Q2895.2539,560.8398 2896.5625,560.1172 Q2897.8906,559.375 2899.375,559.375 Q2900.2734,559.375 2901.0547,559.6875 Q2901.8359,560 2902.5,560.625 Z " fill="#000000"/><text fill="#000000" font-family="sans-serif" font-size="15" lengthAdjust="spacing" textLength="140" x="2917.5" y="571.1377">BruteForceAlgorithm</text><line style="stroke:#A80036;stroke-width:1.875;" x1="2882.5" x2="3060" y1="585" y2="585"/><text fill="#000000" font-family="sans-serif" font-size="13.75" lengthAdjust="spacing" textLength="65" x="2888.75" y="604.2737">+Max(seq)</text><!--MD5=[bbc84d1aa0e7f30bd67b3f6e81f0f299]
class Sum--><rect codeLine="106" fill="#FEFECE" filter="url(#f1gcwm9e3buli5)" height="67.2949" id="Sum" style="stroke:#A80036;stroke-width:1.875;" width="80" x="2931.25" y="677.5"/><ellipse cx="2953.375" cy="697.5" fill="#ADD1B2" rx="13.75" ry="13.75" style="stroke:#A80036;stroke-width:1.25;"/><path d="M2955.875,693.125 Q2956.1289,692.5 2956.4219,692.1875 Q2956.7148,691.875 2957.0469,691.875 Q2957.6328,691.875 2958.0039,692.2266 Q2958.375,692.5781 2958.375,693.3984 L2958.375,695.3516 Q2958.375,696.1719 2958.0234,696.5234 Q2957.6719,696.875 2957.125,696.875 Q2956.6367,696.875 2956.3242,696.6602 Q2956.0117,696.4453 2955.875,695.8789 Q2955.8164,695.4883 2955.6016,695.2734 Q2955.2109,694.8633 2954.5078,694.6289 Q2953.8047,694.375 2953.1016,694.375 Q2952.2227,694.375 2951.4805,694.7266 Q2950.7578,695.0781 2950.1914,695.8594 Q2949.625,696.6406 2949.625,697.7148 L2949.625,698.8672 Q2949.625,700.1563 2950.6797,701.0156 Q2951.7344,701.875 2953.6094,701.875 Q2954.7227,701.875 2955.5039,701.6211 Q2955.9531,701.4844 2956.4609,701.0352 Q2956.793,700.7813 2956.9688,700.7031 Q2957.1445,700.625 2957.3594,700.625 Q2957.7695,700.625 2958.0625,700.957 Q2958.375,701.2695 2958.375,701.7188 Q2958.375,702.1484 2957.9453,702.6563 Q2957.3203,703.3984 2956.3242,703.8086 Q2955.0156,704.375 2953.4141,704.375 Q2951.5391,704.375 2950.0352,703.6328 Q2948.8242,703.0469 2947.9648,701.7773 Q2947.125,700.5078 2947.125,699.0039 L2947.125,697.6367 Q2947.125,696.0742 2947.8672,694.707 Q2948.6289,693.3398 2949.9375,692.6172 Q2951.2656,691.875 2952.75,691.875 Q2953.6484,691.875 2954.4297,692.1875 Q2955.2109,692.5 2955.875,693.125 Z " fill="#000000"/><text fill="#000000" font-family="sans-serif" font-size="15" lengthAdjust="spacing" textLength="32.5" x="2971.625" y="703.6377">Sum</text><line style="stroke:#A80036;stroke-width:1.875;" x1="2932.5" x2="3010" y1="717.5" y2="717.5"/><text fill="#000000" font-family="sans-serif" font-size="13.75" lengthAdjust="spacing" textLength="65" x="2938.75" y="736.7737">+Max(seq)</text><!--MD5=[3404723274ca4ec774b8d2f7e379376f]
class CompanyPerformanceAnalysisUI--><rect codeLine="124" fill="#FEFECE" filter="url(#f1gcwm9e3buli5)" height="40" id="CompanyPerformanceAnalysisUI" style="stroke:#A80036;stroke-width:1.875;" width="267.5" x="70" y="337.5"/><ellipse cx="88.75" cy="357.5" fill="#ADD1B2" rx="13.75" ry="13.75" style="stroke:#A80036;stroke-width:1.25;"/><path d="M91.25,353.125 Q91.5039,352.5 91.7969,352.1875 Q92.0898,351.875 92.4219,351.875 Q93.0078,351.875 93.3789,352.2266 Q93.75,352.5781 93.75,353.3984 L93.75,355.3516 Q93.75,356.1719 93.3984,356.5234 Q93.0469,356.875 92.5,356.875 Q92.0117,356.875 91.6992,356.6602 Q91.3867,356.4453 91.25,355.8789 Q91.1914,355.4883 90.9766,355.2734 Q90.5859,354.8633 89.8828,354.6289 Q89.1797,354.375 88.4766,354.375 Q87.5977,354.375 86.8555,354.7266 Q86.1328,355.0781 85.5664,355.8594 Q85,356.6406 85,357.7148 L85,358.8672 Q85,360.1563 86.0547,361.0156 Q87.1094,361.875 88.9844,361.875 Q90.0977,361.875 90.8789,361.6211 Q91.3281,361.4844 91.8359,361.0352 Q92.168,360.7813 92.3438,360.7031 Q92.5195,360.625 92.7344,360.625 Q93.1445,360.625 93.4375,360.957 Q93.75,361.2695 93.75,361.7188 Q93.75,362.1484 93.3203,362.6563 Q92.6953,363.3984 91.6992,363.8086 Q90.3906,364.375 88.7891,364.375 Q86.9141,364.375 85.4102,363.6328 Q84.1992,363.0469 83.3398,361.7773 Q82.5,360.5078 82.5,359.0039 L82.5,357.6367 Q82.5,356.0742 83.2422,354.707 Q84.0039,353.3398 85.3125,352.6172 Q86.6406,351.875 88.125,351.875 Q89.0234,351.875 89.8047,352.1875 Q90.5859,352.5 91.25,353.125 Z " fill="#000000"/><text fill="#000000" font-family="sans-serif" font-size="15" lengthAdjust="spacing" textLength="227.5" x="106.25" y="363.6377">CompanyPerformanceAnalysisUI</text><!--MD5=[5b29af9deb3324aeb9c231daa5002dba]
link CompanyPerformanceAnalysisUI to CompanyPerformanceAnalysisController--><path codeLine="131" d="M337.8125,357.5 C379.0875,357.5 425.825,357.5 471.6875,357.5 " fill="none" id="CompanyPerformanceAnalysisUI-to-CompanyPerformanceAnalysisController" style="stroke:#A80036;stroke-width:1.25;stroke-dasharray:7.0,7.0;"/><polygon fill="#A80036" points="478.45,357.5,467.2,352.5,472.2,357.5,467.2,362.5,478.45,357.5" style="stroke:#A80036;stroke-width:1.25;"/><!--MD5=[5ce4db4ce32c27ecea6aaa74e26a0164]
link CompanyPerformanceAnalysisController to Company--><path codeLine="132" d="M925.3625,419.15 C1026.15,447.1125 1138.5875,478.3 1210.325,498.2125 " fill="none" id="CompanyPerformanceAnalysisController-to-Company" style="stroke:#A80036;stroke-width:1.25;stroke-dasharray:7.0,7.0;"/><polygon fill="#A80036" points="1216.7125,499.975,1207.2195,492.1362,1210.6923,498.2958,1204.5328,501.7686,1216.7125,499.975" style="stroke:#A80036;stroke-width:1.25;"/><!--MD5=[d03b593c12afa5f3c42671c11d6ed63b]
link CompanyPerformanceAnalysisController to TestStore--><path codeLine="133" d="M925.3625,305.8875 C959.45,297.9625 994.875,289.7375 1029.6125,281.675 " fill="none" id="CompanyPerformanceAnalysisController-to-TestStore" style="stroke:#A80036;stroke-width:1.25;stroke-dasharray:7.0,7.0;"/><polygon fill="#A80036" points="1036.0875,280.1625,1023.9993,277.8306,1029.9988,281.5731,1026.2562,287.5725,1036.0875,280.1625" style="stroke:#A80036;stroke-width:1.25;"/><!--MD5=[3300167ae7d23235b62a0a68c7d5f569]
link CompanyPerformance to SubMaxSumAlgorithms--><path codeLine="134" d="M2053.9,650 C2118.6,650 2188.0625,650 2243.425,650 " fill="none" id="CompanyPerformance-to-SubMaxSumAlgorithms" style="stroke:#A80036;stroke-width:1.25;"/><polygon fill="#A80036" points="2249.7625,650,2238.5125,645,2243.5125,650,2238.5125,655,2249.7625,650" style="stroke:#A80036;stroke-width:1.25;"/><polygon fill="#000000" points="2106.25,638.9697,2094.9436,635.2961,2094.9436,642.6434,2106.25,638.9697" style="stroke:#000000;stroke-width:1.25;"/><text fill="#000000" font-family="sans-serif" font-size="16.25" lengthAdjust="spacing" textLength="97.5" x="2111.25" y="645.6189">makes use of</text><text fill="#000000" font-family="sans-serif" font-size="16.25" lengthAdjust="spacing" textLength="6.25" x="2063.6553" y="667.3516">*</text><text fill="#000000" font-family="sans-serif" font-size="16.25" lengthAdjust="spacing" textLength="8.75" x="2231.2533" y="667.8097">1</text><!--MD5=[6926410afba6dbb7662f77bf9a4beef8]
link BenchmarkAlgorithmAdapter to Sum--><path codeLine="135" d="M2770.2125,707.3125 C2823.9375,708.375 2884.475,709.5625 2924.6875,710.3625 " fill="none" id="BenchmarkAlgorithmAdapter-to-Sum" style="stroke:#A80036;stroke-width:1.25;"/><polygon fill="#A80036" points="2930.9625,710.475,2919.815,705.2504,2924.7138,710.3497,2919.6145,715.2484,2930.9625,710.475" style="stroke:#A80036;stroke-width:1.25;"/><!--MD5=[5c0b00d376c45fe49ede70ccf937dd89]
link BruteForceAlgorithmAdapter to BruteForceAlgorithm--><path codeLine="136" d="M2768.425,588.2875 C2803.2625,586.6375 2841.1125,584.85 2874.5,583.275 " fill="none" id="BruteForceAlgorithmAdapter-to-BruteForceAlgorithm" style="stroke:#A80036;stroke-width:1.25;"/><polygon fill="#A80036" points="2881.125,582.9625,2869.6457,578.5142,2874.8824,583.2657,2870.1308,588.5024,2881.125,582.9625" style="stroke:#A80036;stroke-width:1.25;"/><!--MD5=[3f3cec389b63617d5cf5a63fd6d0d0a0]
link Company to CompanyPerformance--><path codeLine="137" d="M1354.7625,534.45 C1427.75,551.325 1547.2875,578.975 1651.1375,603 " fill="none" id="Company-to-CompanyPerformance" style="stroke:#A80036;stroke-width:1.25;"/><polygon fill="#A80036" points="1657.325,604.425,1647.4937,597.015,1651.2363,603.0144,1645.2368,606.7569,1657.325,604.425" style="stroke:#A80036;stroke-width:1.25;"/><polygon fill="#000000" points="1587.3392,579.1281,1577.1515,573.0011,1575.4959,580.1595,1587.3392,579.1281" style="stroke:#000000;stroke-width:1.25;"/><text fill="#000000" font-family="sans-serif" font-size="16.25" lengthAdjust="spacing" textLength="26.25" x="1592.5" y="584.3689">has</text><text fill="#000000" font-family="sans-serif" font-size="16.25" lengthAdjust="spacing" textLength="8.75" x="1364.1813" y="554.6793">1</text><text fill="#000000" font-family="sans-serif" font-size="16.25" lengthAdjust="spacing" textLength="6.25" x="1641.3185" y="619.5691">*</text><!--MD5=[7500d493c54aadfc564551571970942a]
reverse link SubMaxSumAlgorithms to BenchmarkAlgorithmAdapter--><path d="M2477.4,673.0375 C2495.9,676.45 2514.9125,679.9625 2533.25,683.35 " fill="none" id="SubMaxSumAlgorithms-backto-BenchmarkAlgorithmAdapter" style="stroke:#A80036;stroke-width:1.25;stroke-dasharray:7.0,7.0;"/><polygon fill="none" points="2475.6,681.6125,2452.6,668.4625,2478.775,664.4,2475.6,681.6125" style="stroke:#A80036;stroke-width:1.25;"/><!--MD5=[2746a4793daa6de3b91732e823f67982]
reverse link SubMaxSumAlgorithms to BruteForceAlgorithmAdapter--><path d="M2477.4125,626.425 C2496.6125,622.8125 2516.3625,619.0875 2535.35,615.5 " fill="none" id="SubMaxSumAlgorithms-backto-BruteForceAlgorithmAdapter" style="stroke:#A80036;stroke-width:1.25;stroke-dasharray:7.0,7.0;"/><polygon fill="none" points="2478.7875,635.075,2452.6,631.1125,2475.55,617.875,2478.7875,635.075" style="stroke:#A80036;stroke-width:1.25;"/><!--MD5=[ec0cde4464b7950111bee40fe0f56d51]
@startuml
'skinparam linetype ortho
hide empty methods
hide empty attributes
left to right direction
skinparam classAttributeIconSize 0

package Core{

package Domain {

package Model{

class Company {
    - String designation
    - TestStore testStore
    + getTestStore()
}

class CompanyPerformance{
    - Company company
    - Date beginningDate
    - Date endingDate
    - String chosenAlg
    - int clientsNum
    - int processTestsNum
    - ArrayList<int[]> testInfoDay
    - ArrayList<int[]> testInfoWeek
    - ArrayList<int[]> testInfoMonth
    - ArrayList<int[]> testInfoYear
    - Date[] worstSubInt
    + getClientsNum()
    + getProcessTestsNum()
    + getTestInfoDay()
    + getTestInfoWeek()
    + getTestInfoMonth()
    + getTestInfoYear()
    + getWorstSubInt()
    + getClientsInfoPerInterval(days)
    + getNumTestsProcessedInterval(days)
    + getTestInfoPerDay(days)
    + getTestInfoPerWeek(days)
    + getTestInfoPerMonth(days)
    + getTestInfoPerYear(days)
    + getDays(beginningDay, endingDay)
    + makeIntervalArray(days)
    + findWorstSubIntWithChosenAlgorithm(days, chosenAlgorithm)
    + getChosenAlgorithmAdapter(chosenAlgorithm)
}

}

package Interfaces {

interface SubMaxSumAlgorithms <<interface>> {
    +findSubMaxSum(interval)
}

}

package Store {

class TestStore {
    + getNumTestsWaitingForResultsDayOrInterval(beginningDay, endingDay)
    + getNumTestsWaitingForDiagnosisDayOrInterval(beginningDay, endingDay)
    + getNumberOfTestsByIntervalDateOfTestRegistration(beginningDay, endingDay)
    + getNumberOfTestsByIntervalDateOfDiagnosis(beginningDay, endingDay)
}

}

package Adapters{

class BenchmarkAlgorithmAdapter{
    +findSubMaxSum(interval)
}

class BruteForceAlgorithmAdapter{
    +findSubMaxSum(interval)
}

}

}

package Controller {

class CompanyPerformanceAnalysisController{
    - Company company
    - CompanyPerformance companyPerformance
    + setCompanyPerformance(beginningDay, endingDay, chosenAlgorithm)
    + getClientsInfoPerInterval()
    + getNumTestsProcessedInterval()
    + getTestInfoPerDay()
    + getTestInfoPerWeek()
    + getTestInfoPerMonth()
    + getTestInfoPerYear()
    + findWorstSubIntWithChosenAlgorithm()
}

}

package ThirdParty{

package APIs {

class Sum{
    +Max(seq)
}

}

class BruteForceAlgorithm{
    +Max(seq)
}

}

}

package UI {

package GUI{

class CompanyPerformanceAnalysisUI{
}

}

}

CompanyPerformanceAnalysisUI ..> CompanyPerformanceAnalysisController
CompanyPerformanceAnalysisController ..> Company
CompanyPerformanceAnalysisController ..> TestStore
CompanyPerformance "*" - -> "1" SubMaxSumAlgorithms : makes use of >
BenchmarkAlgorithmAdapter - -> Sum
BruteForceAlgorithmAdapter - -> BruteForceAlgorithm
Company "1" - -> "*" CompanyPerformance : has >

class BenchmarkAlgorithmAdapter implements SubMaxSumAlgorithms
class BruteForceAlgorithmAdapter implements SubMaxSumAlgorithms

@enduml

@startuml
hide empty methods
hide empty attributes
left to right direction
skinparam classAttributeIconSize 0

package Core{

package Domain {

package Model{

class Company {
    - String designation
    - TestStore testStore
    + getTestStore()
}

class CompanyPerformance{
    - Company company
    - Date beginningDate
    - Date endingDate
    - String chosenAlg
    - int clientsNum
    - int processTestsNum
    - ArrayList<int[]> testInfoDay
    - ArrayList<int[]> testInfoWeek
    - ArrayList<int[]> testInfoMonth
    - ArrayList<int[]> testInfoYear
    - Date[] worstSubInt
    + getClientsNum()
    + getProcessTestsNum()
    + getTestInfoDay()
    + getTestInfoWeek()
    + getTestInfoMonth()
    + getTestInfoYear()
    + getWorstSubInt()
    + getClientsInfoPerInterval(days)
    + getNumTestsProcessedInterval(days)
    + getTestInfoPerDay(days)
    + getTestInfoPerWeek(days)
    + getTestInfoPerMonth(days)
    + getTestInfoPerYear(days)
    + getDays(beginningDay, endingDay)
    + makeIntervalArray(days)
    + findWorstSubIntWithChosenAlgorithm(days, chosenAlgorithm)
    + getChosenAlgorithmAdapter(chosenAlgorithm)
}

}

package Interfaces {

interface SubMaxSumAlgorithms <<interface>> {
    +findSubMaxSum(interval)
}

}

package Store {

class TestStore {
    + getNumTestsWaitingForResultsDayOrInterval(beginningDay, endingDay)
    + getNumTestsWaitingForDiagnosisDayOrInterval(beginningDay, endingDay)
    + getNumberOfTestsByIntervalDateOfTestRegistration(beginningDay, endingDay)
    + getNumberOfTestsByIntervalDateOfDiagnosis(beginningDay, endingDay)
}

}

package Adapters{

class BenchmarkAlgorithmAdapter{
    +findSubMaxSum(interval)
}

class BruteForceAlgorithmAdapter{
    +findSubMaxSum(interval)
}

}

}

package Controller {

class CompanyPerformanceAnalysisController{
    - Company company
    - CompanyPerformance companyPerformance
    + setCompanyPerformance(beginningDay, endingDay, chosenAlgorithm)
    + getClientsInfoPerInterval()
    + getNumTestsProcessedInterval()
    + getTestInfoPerDay()
    + getTestInfoPerWeek()
    + getTestInfoPerMonth()
    + getTestInfoPerYear()
    + findWorstSubIntWithChosenAlgorithm()
}

}

package ThirdParty{

package APIs {

class Sum{
    +Max(seq)
}

}

class BruteForceAlgorithm{
    +Max(seq)
}

}

}

package UI {

package GUI{

class CompanyPerformanceAnalysisUI{
}

}

}

CompanyPerformanceAnalysisUI ..> CompanyPerformanceAnalysisController
CompanyPerformanceAnalysisController ..> Company
CompanyPerformanceAnalysisController ..> TestStore
CompanyPerformance "*" - -> "1" SubMaxSumAlgorithms : makes use of >
BenchmarkAlgorithmAdapter - -> Sum
BruteForceAlgorithmAdapter - -> BruteForceAlgorithm
Company "1" - -> "*" CompanyPerformance : has >

class BenchmarkAlgorithmAdapter implements SubMaxSumAlgorithms
class BruteForceAlgorithmAdapter implements SubMaxSumAlgorithms

@enduml

PlantUML version 1.2021.7(Sun May 23 13:40:07 BST 2021)
(GPL source distribution)
Java Runtime: OpenJDK Runtime Environment
JVM: Dynamic Code Evolution 64-Bit Server VM
Default Encoding: Cp1252
Language: pt
Country: PT
--></g></svg>