<?xml version="1.0" encoding="UTF-8" standalone="no"?><svg xmlns="http://www.w3.org/2000/svg" xmlns:xlink="http://www.w3.org/1999/xlink" contentScriptType="application/ecmascript" contentStyleType="text/css" height="231px" preserveAspectRatio="none" style="width:693px;height:231px;" version="1.1" viewBox="0 0 693 231" width="693.75px" zoomAndPan="magnify"><defs><filter height="300%" id="fg7a6ee0wpzrf" width="300%" x="-1" y="-1"><feGaussianBlur result="blurOut" stdDeviation="1.5"/><feColorMatrix in="blurOut" result="blurOut2" type="matrix" values="0 0 0 0 0 0 0 0 0 0 0 0 0 0 0 0 0 0 .4 0"/><feOffset dx="3.0" dy="3.0" in="blurOut2" result="blurOut3"/><feBlend in="SourceGraphic" in2="blurOut3" mode="normal"/></filter></defs><g><!--MD5=[df38be88ccee13e832d6fafd6288a4ca]
class Test--><rect codeLine="7" fill="#FEFECE" filter="url(#fg7a6ee0wpzrf)" height="61.1309" id="Test" style="stroke:#A80036;stroke-width:1.125;" width="48" x="174.75" y="72"/><ellipse cx="188.7" cy="84" fill="#ADD1B2" rx="8.25" ry="8.25" style="stroke:#A80036;stroke-width:0.75;"/><path d="M190.2,81.375 Q190.3523,81 190.5281,80.8125 Q190.7039,80.625 190.9031,80.625 Q191.2547,80.625 191.4773,80.8359 Q191.7,81.0469 191.7,81.5391 L191.7,82.7109 Q191.7,83.2031 191.4891,83.4141 Q191.2781,83.625 190.95,83.625 Q190.657,83.625 190.4695,83.4961 Q190.282,83.3672 190.2,83.0273 Q190.1648,82.793 190.0359,82.6641 Q189.8016,82.418 189.3797,82.2773 Q188.9578,82.125 188.5359,82.125 Q188.0086,82.125 187.5633,82.3359 Q187.1297,82.5469 186.7898,83.0156 Q186.45,83.4844 186.45,84.1289 L186.45,84.8203 Q186.45,85.5938 187.0828,86.1094 Q187.7156,86.625 188.8406,86.625 Q189.5086,86.625 189.9773,86.4727 Q190.2469,86.3906 190.5516,86.1211 Q190.7508,85.9688 190.8563,85.9219 Q190.9617,85.875 191.0906,85.875 Q191.3367,85.875 191.5125,86.0742 Q191.7,86.2617 191.7,86.5313 Q191.7,86.7891 191.4422,87.0938 Q191.0672,87.5391 190.4695,87.7852 Q189.6844,88.125 188.7234,88.125 Q187.5984,88.125 186.6961,87.6797 Q185.9695,87.3281 185.4539,86.5664 Q184.95,85.8047 184.95,84.9023 L184.95,84.082 Q184.95,83.1445 185.3953,82.3242 Q185.8523,81.5039 186.6375,81.0703 Q187.4344,80.625 188.325,80.625 Q188.8641,80.625 189.3328,80.8125 Q189.8016,81 190.2,81.375 Z " fill="#000000"/><text fill="#000000" font-family="sans-serif" font-size="9" lengthAdjust="spacing" textLength="18" x="199.8" y="87.6826">Test</text><line style="stroke:#A80036;stroke-width:1.125;" x1="175.5" x2="222" y1="96" y2="96"/><text fill="#000000" font-family="sans-serif" font-size="8.25" lengthAdjust="spacing" textLength="21" x="179.25" y="107.5642">-code</text><text fill="#000000" font-family="sans-serif" font-size="8.25" lengthAdjust="spacing" textLength="36" x="179.25" y="117.9412">-NhsCode</text><text fill="#000000" font-family="sans-serif" font-size="8.25" lengthAdjust="spacing" textLength="39" x="179.25" y="128.3181">-createdAt</text><!--MD5=[36afb6bbd95a8ac778c4537c55a683d5]
class ParameterCategory--><rect codeLine="13" fill="#FEFECE" filter="url(#fg7a6ee0wpzrf)" height="50.7539" id="ParameterCategory" style="stroke:#A80036;stroke-width:1.125;" width="104.25" x="579" y="121.5"/><ellipse cx="590.25" cy="133.5" fill="#ADD1B2" rx="8.25" ry="8.25" style="stroke:#A80036;stroke-width:0.75;"/><path d="M591.75,130.875 Q591.9023,130.5 592.0781,130.3125 Q592.2539,130.125 592.4531,130.125 Q592.8047,130.125 593.0273,130.3359 Q593.25,130.5469 593.25,131.0391 L593.25,132.2109 Q593.25,132.7031 593.0391,132.9141 Q592.8281,133.125 592.5,133.125 Q592.207,133.125 592.0195,132.9961 Q591.832,132.8672 591.75,132.5273 Q591.7148,132.293 591.5859,132.1641 Q591.3516,131.918 590.9297,131.7773 Q590.5078,131.625 590.0859,131.625 Q589.5586,131.625 589.1133,131.8359 Q588.6797,132.0469 588.3398,132.5156 Q588,132.9844 588,133.6289 L588,134.3203 Q588,135.0938 588.6328,135.6094 Q589.2656,136.125 590.3906,136.125 Q591.0586,136.125 591.5273,135.9727 Q591.7969,135.8906 592.1016,135.6211 Q592.3008,135.4688 592.4063,135.4219 Q592.5117,135.375 592.6406,135.375 Q592.8867,135.375 593.0625,135.5742 Q593.25,135.7617 593.25,136.0313 Q593.25,136.2891 592.9922,136.5938 Q592.6172,137.0391 592.0195,137.2852 Q591.2344,137.625 590.2734,137.625 Q589.1484,137.625 588.2461,137.1797 Q587.5195,136.8281 587.0039,136.0664 Q586.5,135.3047 586.5,134.4023 L586.5,133.582 Q586.5,132.6445 586.9453,131.8242 Q587.4023,131.0039 588.1875,130.5703 Q588.9844,130.125 589.875,130.125 Q590.4141,130.125 590.8828,130.3125 Q591.3516,130.5 591.75,130.875 Z " fill="#000000"/><text fill="#000000" font-family="sans-serif" font-size="9" lengthAdjust="spacing" textLength="80.25" x="600.75" y="137.1826">ParameterCategory</text><line style="stroke:#A80036;stroke-width:1.125;" x1="579.75" x2="682.5" y1="145.5" y2="145.5"/><text fill="#000000" font-family="sans-serif" font-size="8.25" lengthAdjust="spacing" textLength="21" x="583.5" y="157.0642">-code</text><text fill="#000000" font-family="sans-serif" font-size="8.25" lengthAdjust="spacing" textLength="22.5" x="583.5" y="167.4412">-name</text><!--MD5=[03960189e81aa2c066c762ffabbee709]
class Receptionist--><rect codeLine="18" fill="#FEFECE" filter="url(#fg7a6ee0wpzrf)" height="24" id="Receptionist" style="stroke:#A80036;stroke-width:1.125;" width="75.75" x="5.25" y="90.75"/><ellipse cx="16.5" cy="102.75" fill="#ADD1B2" rx="8.25" ry="8.25" style="stroke:#A80036;stroke-width:0.75;"/><path d="M18,100.125 Q18.1523,99.75 18.3281,99.5625 Q18.5039,99.375 18.7031,99.375 Q19.0547,99.375 19.2773,99.5859 Q19.5,99.7969 19.5,100.2891 L19.5,101.4609 Q19.5,101.9531 19.2891,102.1641 Q19.0781,102.375 18.75,102.375 Q18.457,102.375 18.2695,102.2461 Q18.082,102.1172 18,101.7773 Q17.9648,101.543 17.8359,101.4141 Q17.6016,101.168 17.1797,101.0273 Q16.7578,100.875 16.3359,100.875 Q15.8086,100.875 15.3633,101.0859 Q14.9297,101.2969 14.5898,101.7656 Q14.25,102.2344 14.25,102.8789 L14.25,103.5703 Q14.25,104.3438 14.8828,104.8594 Q15.5156,105.375 16.6406,105.375 Q17.3086,105.375 17.7773,105.2227 Q18.0469,105.1406 18.3516,104.8711 Q18.5508,104.7188 18.6563,104.6719 Q18.7617,104.625 18.8906,104.625 Q19.1367,104.625 19.3125,104.8242 Q19.5,105.0117 19.5,105.2813 Q19.5,105.5391 19.2422,105.8438 Q18.8672,106.2891 18.2695,106.5352 Q17.4844,106.875 16.5234,106.875 Q15.3984,106.875 14.4961,106.4297 Q13.7695,106.0781 13.2539,105.3164 Q12.75,104.5547 12.75,103.6523 L12.75,102.832 Q12.75,101.8945 13.1953,101.0742 Q13.6523,100.2539 14.4375,99.8203 Q15.2344,99.375 16.125,99.375 Q16.6641,99.375 17.1328,99.5625 Q17.6016,99.75 18,100.125 Z " fill="#000000"/><text fill="#000000" font-family="sans-serif" font-size="9" lengthAdjust="spacing" textLength="51.75" x="27" y="106.4326">Receptionist</text><!--MD5=[9681492165142af2a4a3a169d90ee8d4]
class Sample--><rect codeLine="20" fill="#FEFECE" filter="url(#fg7a6ee0wpzrf)" height="40.377" id="Sample" style="stroke:#A80036;stroke-width:1.125;" width="56.25" x="382.875" y="5.25"/><ellipse cx="394.125" cy="17.25" fill="#ADD1B2" rx="8.25" ry="8.25" style="stroke:#A80036;stroke-width:0.75;"/><path d="M395.625,14.625 Q395.7773,14.25 395.9531,14.0625 Q396.1289,13.875 396.3281,13.875 Q396.6797,13.875 396.9023,14.0859 Q397.125,14.2969 397.125,14.7891 L397.125,15.9609 Q397.125,16.4531 396.9141,16.6641 Q396.7031,16.875 396.375,16.875 Q396.082,16.875 395.8945,16.7461 Q395.707,16.6172 395.625,16.2773 Q395.5898,16.043 395.4609,15.9141 Q395.2266,15.668 394.8047,15.5273 Q394.3828,15.375 393.9609,15.375 Q393.4336,15.375 392.9883,15.5859 Q392.5547,15.7969 392.2148,16.2656 Q391.875,16.7344 391.875,17.3789 L391.875,18.0703 Q391.875,18.8438 392.5078,19.3594 Q393.1406,19.875 394.2656,19.875 Q394.9336,19.875 395.4023,19.7227 Q395.6719,19.6406 395.9766,19.3711 Q396.1758,19.2188 396.2813,19.1719 Q396.3867,19.125 396.5156,19.125 Q396.7617,19.125 396.9375,19.3242 Q397.125,19.5117 397.125,19.7813 Q397.125,20.0391 396.8672,20.3438 Q396.4922,20.7891 395.8945,21.0352 Q395.1094,21.375 394.1484,21.375 Q393.0234,21.375 392.1211,20.9297 Q391.3945,20.5781 390.8789,19.8164 Q390.375,19.0547 390.375,18.1523 L390.375,17.332 Q390.375,16.3945 390.8203,15.5742 Q391.2773,14.7539 392.0625,14.3203 Q392.8594,13.875 393.75,13.875 Q394.2891,13.875 394.7578,14.0625 Q395.2266,14.25 395.625,14.625 Z " fill="#000000"/><text fill="#000000" font-family="sans-serif" font-size="9" lengthAdjust="spacing" textLength="32.25" x="404.625" y="20.9326">Sample</text><line style="stroke:#A80036;stroke-width:1.125;" x1="383.625" x2="438.375" y1="29.25" y2="29.25"/><text fill="#000000" font-family="sans-serif" font-size="8.25" lengthAdjust="spacing" textLength="33.75" x="387.375" y="40.8142">-barCode</text><!--MD5=[aeb3272166074d8737a70b61b1e71682]
class TestType--><rect codeLine="24" fill="#FEFECE" filter="url(#fg7a6ee0wpzrf)" height="61.1309" id="TestType" style="stroke:#A80036;stroke-width:1.125;" width="79.5" x="371.25" y="72"/><ellipse cx="390.6" cy="84" fill="#ADD1B2" rx="8.25" ry="8.25" style="stroke:#A80036;stroke-width:0.75;"/><path d="M392.1,81.375 Q392.2523,81 392.4281,80.8125 Q392.6039,80.625 392.8031,80.625 Q393.1547,80.625 393.3773,80.8359 Q393.6,81.0469 393.6,81.5391 L393.6,82.7109 Q393.6,83.2031 393.3891,83.4141 Q393.1781,83.625 392.85,83.625 Q392.557,83.625 392.3695,83.4961 Q392.182,83.3672 392.1,83.0273 Q392.0648,82.793 391.9359,82.6641 Q391.7016,82.418 391.2797,82.2773 Q390.8578,82.125 390.4359,82.125 Q389.9086,82.125 389.4633,82.3359 Q389.0297,82.5469 388.6898,83.0156 Q388.35,83.4844 388.35,84.1289 L388.35,84.8203 Q388.35,85.5938 388.9828,86.1094 Q389.6156,86.625 390.7406,86.625 Q391.4086,86.625 391.8773,86.4727 Q392.1469,86.3906 392.4516,86.1211 Q392.6508,85.9688 392.7562,85.9219 Q392.8617,85.875 392.9906,85.875 Q393.2367,85.875 393.4125,86.0742 Q393.6,86.2617 393.6,86.5313 Q393.6,86.7891 393.3422,87.0938 Q392.9672,87.5391 392.3695,87.7852 Q391.5844,88.125 390.6234,88.125 Q389.4984,88.125 388.5961,87.6797 Q387.8695,87.3281 387.3539,86.5664 Q386.85,85.8047 386.85,84.9023 L386.85,84.082 Q386.85,83.1445 387.2953,82.3242 Q387.7523,81.5039 388.5375,81.0703 Q389.3344,80.625 390.225,80.625 Q390.7641,80.625 391.2328,80.8125 Q391.7016,81 392.1,81.375 Z " fill="#000000"/><text fill="#000000" font-family="sans-serif" font-size="9" lengthAdjust="spacing" textLength="37.5" x="402.9" y="87.6826">TestType</text><line style="stroke:#A80036;stroke-width:1.125;" x1="372" x2="450" y1="96" y2="96"/><text fill="#000000" font-family="sans-serif" font-size="8.25" lengthAdjust="spacing" textLength="21.75" x="375.75" y="107.5642">-Code</text><text fill="#000000" font-family="sans-serif" font-size="8.25" lengthAdjust="spacing" textLength="43.5" x="375.75" y="117.9412">-Description</text><text fill="#000000" font-family="sans-serif" font-size="8.25" lengthAdjust="spacing" textLength="70.5" x="375.75" y="128.3181">-Collecting methods</text><!--MD5=[1f6362a5c8f21d8d6a0fce68f3a92a4e]
class Parameter--><rect codeLine="30" fill="#FEFECE" filter="url(#fg7a6ee0wpzrf)" height="61.1309" id="Parameter" style="stroke:#A80036;stroke-width:1.125;" width="67.5" x="377.25" y="159.75"/><ellipse cx="388.5" cy="171.75" fill="#ADD1B2" rx="8.25" ry="8.25" style="stroke:#A80036;stroke-width:0.75;"/><path d="M390,169.125 Q390.1523,168.75 390.3281,168.5625 Q390.5039,168.375 390.7031,168.375 Q391.0547,168.375 391.2773,168.5859 Q391.5,168.7969 391.5,169.2891 L391.5,170.4609 Q391.5,170.9531 391.2891,171.1641 Q391.0781,171.375 390.75,171.375 Q390.457,171.375 390.2695,171.2461 Q390.082,171.1172 390,170.7773 Q389.9648,170.543 389.8359,170.4141 Q389.6016,170.168 389.1797,170.0273 Q388.7578,169.875 388.3359,169.875 Q387.8086,169.875 387.3633,170.0859 Q386.9297,170.2969 386.5898,170.7656 Q386.25,171.2344 386.25,171.8789 L386.25,172.5703 Q386.25,173.3438 386.8828,173.8594 Q387.5156,174.375 388.6406,174.375 Q389.3086,174.375 389.7773,174.2227 Q390.0469,174.1406 390.3516,173.8711 Q390.5508,173.7188 390.6563,173.6719 Q390.7617,173.625 390.8906,173.625 Q391.1367,173.625 391.3125,173.8242 Q391.5,174.0117 391.5,174.2813 Q391.5,174.5391 391.2422,174.8438 Q390.8672,175.2891 390.2695,175.5352 Q389.4844,175.875 388.5234,175.875 Q387.3984,175.875 386.4961,175.4297 Q385.7695,175.0781 385.2539,174.3164 Q384.75,173.5547 384.75,172.6523 L384.75,171.832 Q384.75,170.8945 385.1953,170.0742 Q385.6523,169.2539 386.4375,168.8203 Q387.2344,168.375 388.125,168.375 Q388.6641,168.375 389.1328,168.5625 Q389.6016,168.75 390,169.125 Z " fill="#000000"/><text fill="#000000" font-family="sans-serif" font-size="9" lengthAdjust="spacing" textLength="43.5" x="399" y="175.4326">Parameter</text><line style="stroke:#A80036;stroke-width:1.125;" x1="378" x2="444" y1="183.75" y2="183.75"/><text fill="#000000" font-family="sans-serif" font-size="8.25" lengthAdjust="spacing" textLength="21" x="381.75" y="195.3142">-code</text><text fill="#000000" font-family="sans-serif" font-size="8.25" lengthAdjust="spacing" textLength="42" x="381.75" y="205.6912">-shortName</text><text fill="#000000" font-family="sans-serif" font-size="8.25" lengthAdjust="spacing" textLength="42.75" x="381.75" y="216.0681">-description</text><!--MD5=[e981d4f96c4342412d1e68160b30cf70]
link Test to TestType--><path codeLine="36" d="M222.8625,102.75 C258.705,102.75 327.6975,102.75 371.2275,102.75 " fill="none" id="Test-TestType" style="stroke:#A80036;stroke-width:0.75;"/><polygon fill="#000000" points="271.875,96.1318,265.0912,93.9276,265.0912,98.336,271.875,96.1318" style="stroke:#000000;stroke-width:0.75;"/><text fill="#000000" font-family="sans-serif" font-size="9.75" lengthAdjust="spacing" textLength="54" x="274.875" y="100.1213">classified as</text><text fill="#000000" font-family="sans-serif" font-size="9.75" lengthAdjust="spacing" textLength="3.75" x="228.8721" y="114.332">*</text><text fill="#000000" font-family="sans-serif" font-size="9.75" lengthAdjust="spacing" textLength="5.25" x="360.0154" y="113.7596">1</text><!--MD5=[b72ac8ab7fb5921fceb5036a3902baea]
link Test to Sample--><path codeLine="37" d="M222.885,92.43 C230.025,89.3775 237.9225,86.0925 245.25,83.25 C293.0775,64.71 349.665,45.48 382.605,34.5525 " fill="none" id="Test-Sample" style="stroke:#A80036;stroke-width:0.75;"/><polygon fill="#000000" points="281.7757,39.3542,274.6467,39.5931,276.1486,43.7378,281.7757,39.3542" style="stroke:#000000;stroke-width:0.75;"/><text fill="#000000" font-family="sans-serif" font-size="9.75" lengthAdjust="spacing" textLength="33.75" x="285" y="44.6213">collects</text><text fill="#000000" font-family="sans-serif" font-size="9.75" lengthAdjust="spacing" textLength="5.25" x="228.7388" y="101.6756">1</text><text fill="#000000" font-family="sans-serif" font-size="9.75" lengthAdjust="spacing" textLength="15" x="361.8842" y="47.1036">1..*</text><!--MD5=[c23963f6e403fc3ebec8dae22c30ade6]
link Test to Parameter--><path codeLine="38" d="M222.7575,112.7175 C229.9575,115.7925 237.9225,119.175 245.25,122.25 C290.835,141.39 343.6725,163.1775 377.025,176.88 " fill="none" id="Test-Parameter" style="stroke:#A80036;stroke-width:0.75;"/><polygon fill="#000000" points="252.4625,117.0719,247.0453,112.4316,245.3523,116.502,252.4625,117.0719" style="stroke:#000000;stroke-width:0.75;"/><text fill="#000000" font-family="sans-serif" font-size="9.75" lengthAdjust="spacing" textLength="92.25" x="255.75" y="119.6213">requested analysis of</text><text fill="#000000" font-family="sans-serif" font-size="9.75" lengthAdjust="spacing" textLength="3.75" x="228.7428" y="126.6045">*</text><text fill="#000000" font-family="sans-serif" font-size="9.75" lengthAdjust="spacing" textLength="15" x="356.1926" y="185.9743">1..*</text><!--MD5=[e8b34c2e6517a986175307f5599f058a]
link Receptionist to Test--><path codeLine="39" d="M81.1875,102.75 C110.3175,102.75 149.8875,102.75 174.675,102.75 " fill="none" id="Receptionist-Test" style="stroke:#A80036;stroke-width:0.75;"/><polygon fill="#000000" points="111,96.1318,104.2162,93.9276,104.2162,98.336,111,96.1318" style="stroke:#000000;stroke-width:0.75;"/><text fill="#000000" font-family="sans-serif" font-size="9.75" lengthAdjust="spacing" textLength="37.5" x="114" y="100.1213">registers</text><text fill="#000000" font-family="sans-serif" font-size="9.75" lengthAdjust="spacing" textLength="5.25" x="86.9092" y="113.7336">1</text><text fill="#000000" font-family="sans-serif" font-size="9.75" lengthAdjust="spacing" textLength="3.75" x="164.9241" y="114.332">*</text><!--MD5=[6df8849671cb880f6936e94aa30db6f9]
link Parameter to ParameterCategory--><path codeLine="40" d="M444.9525,183.8925 C480.555,176.8125 537.525,165.4725 578.9325,157.2375 " fill="none" id="Parameter-ParameterCategory" style="stroke:#A80036;stroke-width:0.75;"/><polygon fill="#000000" points="481.8029,154.6501,474.7194,153.812,475.5796,158.1356,481.8029,154.6501" style="stroke:#000000;stroke-width:0.75;"/><text fill="#000000" font-family="sans-serif" font-size="9.75" lengthAdjust="spacing" textLength="69.75" x="484.875" y="159.3713">presented under</text><text fill="#000000" font-family="sans-serif" font-size="9.75" lengthAdjust="spacing" textLength="3.75" x="450.6625" y="193.9674">*</text><text fill="#000000" font-family="sans-serif" font-size="9.75" lengthAdjust="spacing" textLength="5.25" x="567.6868" y="169.1627">1</text><!--MD5=[8aaf0efd5e2f3824be7ea3e488dcc283]
link TestType to ParameterCategory--><path codeLine="41" d="M450.8325,110.6625 C486.5775,117.8925 539.685,128.6475 578.88,136.575 " fill="none" id="TestType-ParameterCategory" style="stroke:#A80036;stroke-width:0.75;"/><polygon fill="#000000" points="480.6755,109.6256,474.4637,106.1197,473.5893,110.4405,480.6755,109.6256" style="stroke:#000000;stroke-width:0.75;"/><text fill="#000000" font-family="sans-serif" font-size="9.75" lengthAdjust="spacing" textLength="72" x="483.75" y="112.8713">characterized by</text><text fill="#000000" font-family="sans-serif" font-size="9.75" lengthAdjust="spacing" textLength="5.25" x="456.8031" y="122.7848">1</text><text fill="#000000" font-family="sans-serif" font-size="9.75" lengthAdjust="spacing" textLength="15" x="557.9989" y="146.2858">1..*</text><!--MD5=[225c252dde0293183515a5d7f4759808]
@startuml

left to right direction
skinparam classAttributeIconSize 0
hide empty methods
hide empty attributes

class Test{
- code
- NhsCode
- createdAt
}

class ParameterCategory{
  -code
  -name
}

class Receptionist{}

class Sample{
- barCode
}

class TestType{
- Code
- Description
- Collecting methods
}

class Parameter{
- code
- shortName
- description
}

Test "*" - - "1" TestType : classified as >
Test "1" - - "1..*" Sample : collects >
Test "*" - - "1..*" Parameter : requested analysis of >
Receptionist "1" - - "*" Test : registers >
Parameter "*" - - "1" ParameterCategory: presented under >
TestType "1" - - "1..*" ParameterCategory : characterized by >
@enduml

PlantUML version 1.2021.00(Sun Jan 10 10:25:05 GMT 2021)
(GPL source distribution)
Java Runtime: OpenJDK Runtime Environment
JVM: OpenJDK 64-Bit Server VM
Default Encoding: Cp1252
Language: pt
Country: BR
--></g></svg>