<?xml version="1.0" encoding="UTF-8" standalone="no"?><svg xmlns="http://www.w3.org/2000/svg" xmlns:xlink="http://www.w3.org/1999/xlink" contentScriptType="application/ecmascript" contentStyleType="text/css" height="1723.47px" preserveAspectRatio="none" style="width:2286px;height:1723px;" version="1.1" viewBox="0 0 2286 1723" width="2286.36px" zoomAndPan="magnify"><defs><filter height="300%" id="fyb3opv2mw01v" width="300%" x="-1" y="-1"><feGaussianBlur result="blurOut" stdDeviation="1.74"/><feColorMatrix in="blurOut" result="blurOut2" type="matrix" values="0 0 0 0 0 0 0 0 0 0 0 0 0 0 0 0 0 0 .4 0"/><feOffset dx="3.48" dy="3.48" in="blurOut2" result="blurOut3"/><feBlend in="SourceGraphic" in2="blurOut3" mode="normal"/></filter></defs><g><!--MD5=[9681dc6e01e10c6b4fe06895ae94f592]
cluster UI--><polygon fill="#FFFFFF" filter="url(#fyb3opv2mw01v)" points="13.92,1438.11,31.32,1438.11,37.41,1458.6502,133.11,1458.6502,133.11,1525.11,13.92,1525.11,13.92,1438.11" style="stroke:#000000;stroke-width:1.305;"/><line style="stroke:#000000;stroke-width:1.305;" x1="13.92" x2="37.41" y1="1458.6502" y2="1458.6502"/><text fill="#000000" font-family="sans-serif" font-size="12.18" font-weight="bold" lengthAdjust="spacing" textLength="12.18" x="17.4" y="1452.4939">UI</text><!--MD5=[121a8bf1197281ab89ed693fab589f94]
cluster Domain--><polygon fill="#FFFFFF" filter="url(#fyb3opv2mw01v)" points="672.945,5.22,723.405,5.22,729.495,25.7602,2271.57,25.7602,2271.57,803.88,672.945,803.88,672.945,5.22" style="stroke:#000000;stroke-width:1.305;"/><line style="stroke:#000000;stroke-width:1.305;" x1="672.945" x2="729.495" y1="25.7602" y2="25.7602"/><text fill="#000000" font-family="sans-serif" font-size="12.18" font-weight="bold" lengthAdjust="spacing" textLength="45.24" x="676.425" y="19.6039">Domain</text><!--MD5=[15636c1ca4a123c16a2a1a8e90aca7a9]
cluster Model--><polygon fill="#FFFFFF" filter="url(#fyb3opv2mw01v)" points="693.825,405.42,737.325,405.42,743.415,425.9602,2250.69,425.9602,2250.69,783,693.825,783,693.825,405.42" style="stroke:#000000;stroke-width:1.305;"/><line style="stroke:#000000;stroke-width:1.305;" x1="693.825" x2="743.415" y1="425.9602" y2="425.9602"/><text fill="#000000" font-family="sans-serif" font-size="12.18" font-weight="bold" lengthAdjust="spacing" textLength="38.28" x="697.305" y="419.8039">Model</text><!--MD5=[8dd535d56cd4cf7faf64fdd082ba836e]
cluster Stores--><polygon fill="#FFFFFF" filter="url(#fyb3opv2mw01v)" points="1032.255,43.5,1077.495,43.5,1083.585,64.0402,1348.065,64.0402,1348.065,384.54,1032.255,384.54,1032.255,43.5" style="stroke:#000000;stroke-width:1.305;"/><line style="stroke:#000000;stroke-width:1.305;" x1="1032.255" x2="1083.585" y1="64.0402" y2="64.0402"/><text fill="#000000" font-family="sans-serif" font-size="12.18" font-weight="bold" lengthAdjust="spacing" textLength="40.02" x="1035.735" y="57.8839">Stores</text><!--MD5=[1f2cfc53d9d308f53762fd0fcbaa4873]
cluster Controller--><polygon fill="#FFFFFF" filter="url(#fyb3opv2mw01v)" points="161.82,1046.61,228.81,1046.61,234.9,1067.1502,574.2,1067.1502,574.2,1194.51,161.82,1194.51,161.82,1046.61" style="stroke:#000000;stroke-width:1.305;"/><line style="stroke:#000000;stroke-width:1.305;" x1="161.82" x2="234.9" y1="1067.1502" y2="1067.1502"/><text fill="#000000" font-family="sans-serif" font-size="12.18" font-weight="bold" lengthAdjust="spacing" textLength="61.77" x="165.3" y="1060.9939">Controller</text><!--MD5=[7b8bc9ee8bb84b99fb3a3f9477c19238]
cluster DTO--><polygon fill="#FFFFFF" filter="url(#fyb3opv2mw01v)" points="1019.64,1208.43,1050.09,1208.43,1056.18,1228.9702,1360.68,1228.9702,1360.68,1598.19,1019.64,1598.19,1019.64,1208.43" style="stroke:#000000;stroke-width:1.305;"/><line style="stroke:#000000;stroke-width:1.305;" x1="1019.64" x2="1056.18" y1="1228.9702" y2="1228.9702"/><text fill="#000000" font-family="sans-serif" font-size="12.18" font-weight="bold" lengthAdjust="spacing" textLength="25.23" x="1023.12" y="1222.8139">DTO</text><!--MD5=[701152d03fbf85133a1de050cfdbc7fd]
cluster Mappers--><polygon fill="#FFFFFF" filter="url(#fyb3opv2mw01v)" points="602.91,968.31,662.07,968.31,668.16,988.8502,913.5,988.8502,913.5,1272.81,602.91,1272.81,602.91,968.31" style="stroke:#000000;stroke-width:1.305;"/><line style="stroke:#000000;stroke-width:1.305;" x1="602.91" x2="668.16" y1="988.8502" y2="988.8502"/><text fill="#000000" font-family="sans-serif" font-size="12.18" font-weight="bold" lengthAdjust="spacing" textLength="53.94" x="606.39" y="982.6939">Mappers</text><!--MD5=[92f70f89e9f3cc4b172fe964212d1829]
class CreateTestUI--><rect codeLine="6" fill="#FEFECE" filter="url(#fyb3opv2mw01v)" height="41.76" id="CreateTestUI" style="stroke:#A80036;stroke-width:1.305;" width="91.35" x="27.84" y="1469.43"/><ellipse cx="40.89" cy="1483.35" fill="#ADD1B2" rx="9.57" ry="9.57" style="stroke:#A80036;stroke-width:0.87;"/><path d="M42.63,1480.305 Q42.8067,1479.87 43.0106,1479.6525 Q43.2145,1479.435 43.4456,1479.435 Q43.8534,1479.435 44.1117,1479.6797 Q44.37,1479.9244 44.37,1480.4953 L44.37,1481.8547 Q44.37,1482.4256 44.1253,1482.6703 Q43.8806,1482.915 43.5,1482.915 Q43.1602,1482.915 42.9427,1482.7655 Q42.7252,1482.6159 42.63,1482.2217 Q42.5892,1481.9498 42.4397,1481.8003 Q42.1678,1481.5148 41.6784,1481.3517 Q41.1891,1481.175 40.6997,1481.175 Q40.088,1481.175 39.5714,1481.4197 Q39.0684,1481.6644 38.6742,1482.2081 Q38.28,1482.7519 38.28,1483.4995 L38.28,1484.3016 Q38.28,1485.1988 39.0141,1485.7969 Q39.7481,1486.395 41.0531,1486.395 Q41.828,1486.395 42.3717,1486.2183 Q42.6844,1486.1231 43.0378,1485.8105 Q43.2689,1485.6338 43.3913,1485.5794 Q43.5136,1485.525 43.6631,1485.525 Q43.9486,1485.525 44.1525,1485.7561 Q44.37,1485.9736 44.37,1486.2862 Q44.37,1486.5853 44.0709,1486.9388 Q43.6359,1487.4553 42.9427,1487.7408 Q42.0319,1488.135 40.9172,1488.135 Q39.6122,1488.135 38.5655,1487.6184 Q37.7227,1487.2106 37.1245,1486.327 Q36.54,1485.4434 36.54,1484.3967 L36.54,1483.4452 Q36.54,1482.3577 37.0566,1481.4061 Q37.5867,1480.4545 38.4975,1479.9516 Q39.4219,1479.435 40.455,1479.435 Q41.0803,1479.435 41.6241,1479.6525 Q42.1678,1479.87 42.63,1480.305 Z " fill="#000000"/><text fill="#000000" font-family="sans-serif" font-size="10.44" lengthAdjust="spacing" textLength="63.51" x="53.07" y="1487.6218">CreateTestUI</text><line style="stroke:#A80036;stroke-width:1.305;" x1="28.71" x2="118.32" y1="1497.27" y2="1497.27"/><line style="stroke:#A80036;stroke-width:1.305;" x1="28.71" x2="118.32" y1="1504.23" y2="1504.23"/><!--MD5=[f00dbe8c0302c6aec2cb26b3c659c8fc]
class Report--><rect codeLine="13" fill="#FEFECE" filter="url(#fyb3opv2mw01v)" height="41.76" id="Report" style="stroke:#A80036;stroke-width:1.305;" width="60.03" x="728.19" y="557.67"/><ellipse cx="741.24" cy="571.59" fill="#ADD1B2" rx="9.57" ry="9.57" style="stroke:#A80036;stroke-width:0.87;"/><path d="M742.98,568.545 Q743.1567,568.11 743.3606,567.8925 Q743.5645,567.675 743.7956,567.675 Q744.2034,567.675 744.4617,567.9197 Q744.72,568.1644 744.72,568.7353 L744.72,570.0947 Q744.72,570.6656 744.4753,570.9103 Q744.2306,571.155 743.85,571.155 Q743.5102,571.155 743.2927,571.0055 Q743.0752,570.8559 742.98,570.4617 Q742.9392,570.1898 742.7897,570.0403 Q742.5178,569.7548 742.0284,569.5917 Q741.5391,569.415 741.0497,569.415 Q740.438,569.415 739.9214,569.6597 Q739.4184,569.9044 739.0242,570.4481 Q738.63,570.9919 738.63,571.7395 L738.63,572.5416 Q738.63,573.4388 739.3641,574.0369 Q740.0981,574.635 741.4031,574.635 Q742.178,574.635 742.7217,574.4583 Q743.0344,574.3631 743.3878,574.0505 Q743.6189,573.8738 743.7413,573.8194 Q743.8636,573.765 744.0131,573.765 Q744.2986,573.765 744.5025,573.9961 Q744.72,574.2136 744.72,574.5263 Q744.72,574.8253 744.4209,575.1788 Q743.9859,575.6953 743.2927,575.9808 Q742.3819,576.375 741.2672,576.375 Q739.9622,576.375 738.9155,575.8584 Q738.0727,575.4506 737.4745,574.567 Q736.89,573.6834 736.89,572.6367 L736.89,571.6852 Q736.89,570.5977 737.4066,569.6461 Q737.9367,568.6945 738.8475,568.1916 Q739.7719,567.675 740.805,567.675 Q741.4303,567.675 741.9741,567.8925 Q742.5178,568.11 742.98,568.545 Z " fill="#000000"/><text fill="#000000" font-family="sans-serif" font-size="10.44" lengthAdjust="spacing" textLength="32.19" x="753.42" y="575.8618">Report</text><line style="stroke:#A80036;stroke-width:1.305;" x1="729.06" x2="787.35" y1="585.51" y2="585.51"/><line style="stroke:#A80036;stroke-width:1.305;" x1="729.06" x2="787.35" y1="592.47" y2="592.47"/><!--MD5=[0f07739f46effee96e095e9c408da841]
class TestParameter--><rect codeLine="14" fill="#FEFECE" filter="url(#fyb3opv2mw01v)" height="53.7973" id="TestParameter" style="stroke:#A80036;stroke-width:1.305;" width="174" x="1516.41" y="676.86"/><ellipse cx="1564.0425" cy="690.78" fill="#ADD1B2" rx="9.57" ry="9.57" style="stroke:#A80036;stroke-width:0.87;"/><path d="M1565.7825,687.735 Q1565.9592,687.3 1566.1631,687.0825 Q1566.367,686.865 1566.5981,686.865 Q1567.0059,686.865 1567.2642,687.1097 Q1567.5225,687.3544 1567.5225,687.9253 L1567.5225,689.2847 Q1567.5225,689.8556 1567.2778,690.1003 Q1567.0331,690.345 1566.6525,690.345 Q1566.3127,690.345 1566.0952,690.1955 Q1565.8777,690.0459 1565.7825,689.6517 Q1565.7417,689.3798 1565.5922,689.2303 Q1565.3203,688.9448 1564.8309,688.7817 Q1564.3416,688.605 1563.8522,688.605 Q1563.2405,688.605 1562.7239,688.8497 Q1562.2209,689.0944 1561.8267,689.6381 Q1561.4325,690.1819 1561.4325,690.9295 L1561.4325,691.7316 Q1561.4325,692.6288 1562.1666,693.2269 Q1562.9006,693.825 1564.2056,693.825 Q1564.9805,693.825 1565.5242,693.6483 Q1565.8369,693.5531 1566.1903,693.2405 Q1566.4214,693.0638 1566.5438,693.0094 Q1566.6661,692.955 1566.8156,692.955 Q1567.1011,692.955 1567.305,693.1861 Q1567.5225,693.4036 1567.5225,693.7163 Q1567.5225,694.0153 1567.2234,694.3688 Q1566.7884,694.8853 1566.0952,695.1708 Q1565.1844,695.565 1564.0697,695.565 Q1562.7647,695.565 1561.718,695.0484 Q1560.8752,694.6406 1560.277,693.757 Q1559.6925,692.8734 1559.6925,691.8267 L1559.6925,690.8752 Q1559.6925,689.7877 1560.2091,688.8361 Q1560.7392,687.8845 1561.65,687.3816 Q1562.5744,686.865 1563.6075,686.865 Q1564.2328,686.865 1564.7766,687.0825 Q1565.3203,687.3 1565.7825,687.735 Z " fill="#000000"/><text fill="#000000" font-family="sans-serif" font-size="10.44" lengthAdjust="spacing" textLength="71.34" x="1581.8775" y="695.0518">TestParameter</text><line style="stroke:#A80036;stroke-width:1.305;" x1="1517.28" x2="1689.54" y1="704.7" y2="704.7"/><line style="stroke:#A80036;stroke-width:1.305;" x1="1517.28" x2="1689.54" y1="711.66" y2="711.66"/><text fill="#000000" font-family="sans-serif" font-size="9.57" lengthAdjust="spacing" textLength="163.56" x="1521.63" y="725.0745">+TestParameter(parameter: Parameter)</text><!--MD5=[4e608140b854dae633589343bce77383]
class TestParameterResult--><rect codeLine="17" fill="#FEFECE" filter="url(#fyb3opv2mw01v)" height="77.8718" id="TestParameterResult" style="stroke:#A80036;stroke-width:1.305;" width="130.5" x="1839.18" y="683.82"/><ellipse cx="1852.23" cy="697.74" fill="#ADD1B2" rx="9.57" ry="9.57" style="stroke:#A80036;stroke-width:0.87;"/><path d="M1853.97,694.695 Q1854.1467,694.26 1854.3506,694.0425 Q1854.5545,693.825 1854.7856,693.825 Q1855.1934,693.825 1855.4517,694.0697 Q1855.71,694.3144 1855.71,694.8853 L1855.71,696.2447 Q1855.71,696.8156 1855.4653,697.0603 Q1855.2206,697.305 1854.84,697.305 Q1854.5002,697.305 1854.2827,697.1555 Q1854.0652,697.0059 1853.97,696.6117 Q1853.9292,696.3398 1853.7797,696.1903 Q1853.5078,695.9048 1853.0184,695.7417 Q1852.5291,695.565 1852.0397,695.565 Q1851.428,695.565 1850.9114,695.8097 Q1850.4084,696.0544 1850.0142,696.5981 Q1849.62,697.1419 1849.62,697.8895 L1849.62,698.6916 Q1849.62,699.5888 1850.3541,700.1869 Q1851.0881,700.785 1852.3931,700.785 Q1853.168,700.785 1853.7117,700.6083 Q1854.0244,700.5131 1854.3778,700.2005 Q1854.6089,700.0238 1854.7313,699.9694 Q1854.8536,699.915 1855.0031,699.915 Q1855.2886,699.915 1855.4925,700.1461 Q1855.71,700.3636 1855.71,700.6763 Q1855.71,700.9753 1855.4109,701.3288 Q1854.9759,701.8453 1854.2827,702.1308 Q1853.3719,702.525 1852.2572,702.525 Q1850.9522,702.525 1849.9055,702.0084 Q1849.0627,701.6006 1848.4645,700.717 Q1847.88,699.8334 1847.88,698.7867 L1847.88,697.8352 Q1847.88,696.7477 1848.3966,695.7961 Q1848.9267,694.8445 1849.8375,694.3416 Q1850.7619,693.825 1851.795,693.825 Q1852.4203,693.825 1852.9641,694.0425 Q1853.5078,694.26 1853.97,694.695 Z " fill="#000000"/><text fill="#000000" font-family="sans-serif" font-size="10.44" lengthAdjust="spacing" textLength="102.66" x="1864.41" y="702.0118">TestParameterResult</text><line style="stroke:#A80036;stroke-width:1.305;" x1="1840.05" x2="1968.81" y1="711.66" y2="711.66"/><text fill="#000000" font-family="sans-serif" font-size="9.57" lengthAdjust="spacing" textLength="45.24" x="1844.4" y="725.0745">-createdAt</text><text fill="#000000" font-family="sans-serif" font-size="9.57" lengthAdjust="spacing" textLength="26.1" x="1844.4" y="737.1117">-value</text><text fill="#000000" font-family="sans-serif" font-size="9.57" lengthAdjust="spacing" textLength="28.71" x="1844.4" y="749.149">-metric</text><line style="stroke:#A80036;stroke-width:1.305;" x1="1840.05" x2="1968.81" y1="754.7318" y2="754.7318"/><!--MD5=[aeb3272166074d8737a70b61b1e71682]
class TestType--><rect codeLine="22" fill="#FEFECE" filter="url(#fyb3opv2mw01v)" height="77.8718" id="TestType" style="stroke:#A80036;stroke-width:1.305;" width="115.71" x="1545.555" y="483.72"/><ellipse cx="1578.5715" cy="497.64" fill="#ADD1B2" rx="9.57" ry="9.57" style="stroke:#A80036;stroke-width:0.87;"/><path d="M1580.3115,494.595 Q1580.4882,494.16 1580.6921,493.9425 Q1580.896,493.725 1581.1271,493.725 Q1581.5349,493.725 1581.7932,493.9697 Q1582.0515,494.2144 1582.0515,494.7853 L1582.0515,496.1447 Q1582.0515,496.7156 1581.8068,496.9603 Q1581.5621,497.205 1581.1815,497.205 Q1580.8417,497.205 1580.6242,497.0555 Q1580.4067,496.9059 1580.3115,496.5117 Q1580.2707,496.2398 1580.1212,496.0903 Q1579.8493,495.8048 1579.3599,495.6417 Q1578.8706,495.465 1578.3812,495.465 Q1577.7695,495.465 1577.2529,495.7097 Q1576.7499,495.9544 1576.3557,496.4981 Q1575.9615,497.0419 1575.9615,497.7895 L1575.9615,498.5916 Q1575.9615,499.4888 1576.6956,500.0869 Q1577.4296,500.685 1578.7346,500.685 Q1579.5095,500.685 1580.0532,500.5083 Q1580.3659,500.4131 1580.7193,500.1005 Q1580.9504,499.9238 1581.0728,499.8694 Q1581.1951,499.815 1581.3446,499.815 Q1581.6301,499.815 1581.834,500.0461 Q1582.0515,500.2636 1582.0515,500.5763 Q1582.0515,500.8753 1581.7524,501.2288 Q1581.3174,501.7453 1580.6242,502.0308 Q1579.7134,502.425 1578.5987,502.425 Q1577.2937,502.425 1576.247,501.9084 Q1575.4042,501.5006 1574.806,500.617 Q1574.2215,499.7334 1574.2215,498.6867 L1574.2215,497.7352 Q1574.2215,496.6477 1574.7381,495.6961 Q1575.2682,494.7445 1576.179,494.2416 Q1577.1034,493.725 1578.1365,493.725 Q1578.7618,493.725 1579.3056,493.9425 Q1579.8493,494.16 1580.3115,494.595 Z " fill="#000000"/><text fill="#000000" font-family="sans-serif" font-size="10.44" lengthAdjust="spacing" textLength="43.5" x="1595.1885" y="501.9118">TestType</text><line style="stroke:#A80036;stroke-width:1.305;" x1="1546.425" x2="1660.395" y1="511.56" y2="511.56"/><text fill="#000000" font-family="sans-serif" font-size="9.57" lengthAdjust="spacing" textLength="56.55" x="1550.775" y="524.9745">-code : String</text><text fill="#000000" font-family="sans-serif" font-size="9.57" lengthAdjust="spacing" textLength="81.78" x="1550.775" y="537.0117">-description : String</text><text fill="#000000" font-family="sans-serif" font-size="9.57" lengthAdjust="spacing" textLength="105.27" x="1550.775" y="549.049">-collectingMethod : String</text><line style="stroke:#A80036;stroke-width:1.305;" x1="1546.425" x2="1660.395" y1="554.6318" y2="554.6318"/><!--MD5=[df38be88ccee13e832d6fafd6288a4ca]
class Test--><rect codeLine="28" fill="#FEFECE" filter="url(#fyb3opv2mw01v)" height="113.9836" id="Test" style="stroke:#A80036;stroke-width:1.305;" width="118.32" x="1131" y="560.715"/><ellipse cx="1176.0225" cy="574.635" fill="#ADD1B2" rx="9.57" ry="9.57" style="stroke:#A80036;stroke-width:0.87;"/><path d="M1177.7625,571.59 Q1177.9392,571.155 1178.1431,570.9375 Q1178.347,570.72 1178.5781,570.72 Q1178.9859,570.72 1179.2442,570.9647 Q1179.5025,571.2094 1179.5025,571.7803 L1179.5025,573.1397 Q1179.5025,573.7106 1179.2578,573.9553 Q1179.0131,574.2 1178.6325,574.2 Q1178.2927,574.2 1178.0752,574.0505 Q1177.8577,573.9009 1177.7625,573.5067 Q1177.7217,573.2348 1177.5722,573.0853 Q1177.3003,572.7998 1176.8109,572.6367 Q1176.3216,572.46 1175.8322,572.46 Q1175.2205,572.46 1174.7039,572.7047 Q1174.2009,572.9494 1173.8067,573.4931 Q1173.4125,574.0369 1173.4125,574.7845 L1173.4125,575.5866 Q1173.4125,576.4838 1174.1466,577.0819 Q1174.8806,577.68 1176.1856,577.68 Q1176.9605,577.68 1177.5042,577.5033 Q1177.8169,577.4081 1178.1703,577.0955 Q1178.4014,576.9188 1178.5238,576.8644 Q1178.6461,576.81 1178.7956,576.81 Q1179.0811,576.81 1179.285,577.0411 Q1179.5025,577.2586 1179.5025,577.5713 Q1179.5025,577.8703 1179.2034,578.2238 Q1178.7684,578.7403 1178.0752,579.0258 Q1177.1644,579.42 1176.0497,579.42 Q1174.7447,579.42 1173.698,578.9034 Q1172.8552,578.4956 1172.257,577.612 Q1171.6725,576.7284 1171.6725,575.6817 L1171.6725,574.7302 Q1171.6725,573.6427 1172.1891,572.6911 Q1172.7192,571.7395 1173.63,571.2366 Q1174.5544,570.72 1175.5875,570.72 Q1176.2128,570.72 1176.7566,570.9375 Q1177.3003,571.155 1177.7625,571.59 Z " fill="#000000"/><text fill="#000000" font-family="sans-serif" font-size="10.44" lengthAdjust="spacing" textLength="20.88" x="1193.8575" y="578.9068">Test</text><line style="stroke:#A80036;stroke-width:1.305;" x1="1131.87" x2="1248.45" y1="588.555" y2="588.555"/><text fill="#000000" font-family="sans-serif" font-size="9.57" lengthAdjust="spacing" textLength="24.36" x="1136.22" y="601.9695">-code</text><text fill="#000000" font-family="sans-serif" font-size="9.57" lengthAdjust="spacing" textLength="41.76" x="1136.22" y="614.0067">-NhsCode</text><text fill="#000000" font-family="sans-serif" font-size="9.57" lengthAdjust="spacing" textLength="100.05" x="1136.22" y="626.044">-dateOfTestRegistration</text><text fill="#000000" font-family="sans-serif" font-size="9.57" lengthAdjust="spacing" textLength="107.88" x="1136.22" y="638.0813">-dateOfSamplesCollection</text><text fill="#000000" font-family="sans-serif" font-size="9.57" lengthAdjust="spacing" textLength="106.14" x="1136.22" y="650.1185">-dateOfChemicalAnalysis</text><text fill="#000000" font-family="sans-serif" font-size="9.57" lengthAdjust="spacing" textLength="73.08" x="1136.22" y="662.1558">-dateOfDiagnosis</text><line style="stroke:#A80036;stroke-width:1.305;" x1="1131.87" x2="1248.45" y1="667.7386" y2="667.7386"/><!--MD5=[9681492165142af2a4a3a169d90ee8d4]
class Sample--><rect codeLine="37" fill="#FEFECE" filter="url(#fyb3opv2mw01v)" height="53.7973" id="Sample" style="stroke:#A80036;stroke-width:1.305;" width="65.25" x="1570.785" y="592.47"/><ellipse cx="1583.835" cy="606.39" fill="#ADD1B2" rx="9.57" ry="9.57" style="stroke:#A80036;stroke-width:0.87;"/><path d="M1585.575,603.345 Q1585.7517,602.91 1585.9556,602.6925 Q1586.1595,602.475 1586.3906,602.475 Q1586.7984,602.475 1587.0567,602.7197 Q1587.315,602.9644 1587.315,603.5353 L1587.315,604.8947 Q1587.315,605.4656 1587.0703,605.7103 Q1586.8256,605.955 1586.445,605.955 Q1586.1052,605.955 1585.8877,605.8055 Q1585.6702,605.6559 1585.575,605.2617 Q1585.5342,604.9898 1585.3847,604.8403 Q1585.1128,604.5548 1584.6234,604.3917 Q1584.1341,604.215 1583.6447,604.215 Q1583.033,604.215 1582.5164,604.4597 Q1582.0134,604.7044 1581.6192,605.2481 Q1581.225,605.7919 1581.225,606.5395 L1581.225,607.3416 Q1581.225,608.2388 1581.9591,608.8369 Q1582.6931,609.435 1583.9981,609.435 Q1584.773,609.435 1585.3167,609.2583 Q1585.6294,609.1631 1585.9828,608.8505 Q1586.2139,608.6738 1586.3363,608.6194 Q1586.4586,608.565 1586.6081,608.565 Q1586.8936,608.565 1587.0975,608.7961 Q1587.315,609.0136 1587.315,609.3263 Q1587.315,609.6253 1587.0159,609.9788 Q1586.5809,610.4953 1585.8877,610.7808 Q1584.9769,611.175 1583.8622,611.175 Q1582.5572,611.175 1581.5105,610.6584 Q1580.6677,610.2506 1580.0695,609.367 Q1579.485,608.4834 1579.485,607.4367 L1579.485,606.4852 Q1579.485,605.3977 1580.0016,604.4461 Q1580.5317,603.4945 1581.4425,602.9916 Q1582.3669,602.475 1583.4,602.475 Q1584.0253,602.475 1584.5691,602.6925 Q1585.1128,602.91 1585.575,603.345 Z " fill="#000000"/><text fill="#000000" font-family="sans-serif" font-size="10.44" lengthAdjust="spacing" textLength="37.41" x="1596.015" y="610.6618">Sample</text><line style="stroke:#A80036;stroke-width:1.305;" x1="1571.655" x2="1635.165" y1="620.31" y2="620.31"/><text fill="#000000" font-family="sans-serif" font-size="9.57" lengthAdjust="spacing" textLength="39.15" x="1576.005" y="633.7245">-barCode</text><line style="stroke:#A80036;stroke-width:1.305;" x1="1571.655" x2="1635.165" y1="639.3073" y2="639.3073"/><!--MD5=[1f6362a5c8f21d8d6a0fce68f3a92a4e]
class Parameter--><rect codeLine="41" fill="#FEFECE" filter="url(#fyb3opv2mw01v)" height="77.8718" id="Parameter" style="stroke:#A80036;stroke-width:1.305;" width="78.3" x="1865.28" y="575.07"/><ellipse cx="1878.33" cy="588.99" fill="#ADD1B2" rx="9.57" ry="9.57" style="stroke:#A80036;stroke-width:0.87;"/><path d="M1880.07,585.945 Q1880.2467,585.51 1880.4506,585.2925 Q1880.6545,585.075 1880.8856,585.075 Q1881.2934,585.075 1881.5517,585.3197 Q1881.81,585.5644 1881.81,586.1353 L1881.81,587.4947 Q1881.81,588.0656 1881.5653,588.3103 Q1881.3206,588.555 1880.94,588.555 Q1880.6002,588.555 1880.3827,588.4055 Q1880.1652,588.2559 1880.07,587.8617 Q1880.0292,587.5898 1879.8797,587.4403 Q1879.6078,587.1548 1879.1184,586.9917 Q1878.6291,586.815 1878.1397,586.815 Q1877.528,586.815 1877.0114,587.0597 Q1876.5084,587.3044 1876.1142,587.8481 Q1875.72,588.3919 1875.72,589.1395 L1875.72,589.9416 Q1875.72,590.8388 1876.4541,591.4369 Q1877.1881,592.035 1878.4931,592.035 Q1879.268,592.035 1879.8117,591.8583 Q1880.1244,591.7631 1880.4778,591.4505 Q1880.7089,591.2738 1880.8313,591.2194 Q1880.9536,591.165 1881.1031,591.165 Q1881.3886,591.165 1881.5925,591.3961 Q1881.81,591.6136 1881.81,591.9263 Q1881.81,592.2253 1881.5109,592.5788 Q1881.0759,593.0953 1880.3827,593.3808 Q1879.4719,593.775 1878.3572,593.775 Q1877.0522,593.775 1876.0055,593.2584 Q1875.1627,592.8506 1874.5645,591.967 Q1873.98,591.0834 1873.98,590.0367 L1873.98,589.0852 Q1873.98,587.9977 1874.4966,587.0461 Q1875.0267,586.0945 1875.9375,585.5916 Q1876.8619,585.075 1877.895,585.075 Q1878.5203,585.075 1879.0641,585.2925 Q1879.6078,585.51 1880.07,585.945 Z " fill="#000000"/><text fill="#000000" font-family="sans-serif" font-size="10.44" lengthAdjust="spacing" textLength="50.46" x="1890.51" y="593.2618">Parameter</text><line style="stroke:#A80036;stroke-width:1.305;" x1="1866.15" x2="1942.71" y1="602.91" y2="602.91"/><text fill="#000000" font-family="sans-serif" font-size="9.57" lengthAdjust="spacing" textLength="24.36" x="1870.5" y="616.3245">-code</text><text fill="#000000" font-family="sans-serif" font-size="9.57" lengthAdjust="spacing" textLength="48.72" x="1870.5" y="628.3617">-shortName</text><text fill="#000000" font-family="sans-serif" font-size="9.57" lengthAdjust="spacing" textLength="49.59" x="1870.5" y="640.399">-description</text><line style="stroke:#A80036;stroke-width:1.305;" x1="1866.15" x2="1942.71" y1="645.9818" y2="645.9818"/><!--MD5=[02e4b9b7573f1156f41e60aa5b4e25a4]
class Company--><rect codeLine="47" fill="#FEFECE" filter="url(#fyb3opv2mw01v)" height="89.9091" id="Company" style="stroke:#A80036;stroke-width:1.305;" width="100.92" x="707.745" y="437.175"/><ellipse cx="732.9315" cy="451.095" fill="#ADD1B2" rx="9.57" ry="9.57" style="stroke:#A80036;stroke-width:0.87;"/><path d="M734.6715,448.05 Q734.8482,447.615 735.0521,447.3975 Q735.256,447.18 735.4871,447.18 Q735.8949,447.18 736.1532,447.4247 Q736.4115,447.6694 736.4115,448.2403 L736.4115,449.5997 Q736.4115,450.1706 736.1668,450.4153 Q735.9221,450.66 735.5415,450.66 Q735.2017,450.66 734.9842,450.5105 Q734.7667,450.3609 734.6715,449.9667 Q734.6307,449.6948 734.4812,449.5453 Q734.2093,449.2598 733.7199,449.0967 Q733.2306,448.92 732.7412,448.92 Q732.1295,448.92 731.6129,449.1647 Q731.1099,449.4094 730.7157,449.9531 Q730.3215,450.4969 730.3215,451.2445 L730.3215,452.0466 Q730.3215,452.9438 731.0556,453.5419 Q731.7896,454.14 733.0946,454.14 Q733.8695,454.14 734.4132,453.9633 Q734.7259,453.8681 735.0793,453.5555 Q735.3104,453.3788 735.4328,453.3244 Q735.5551,453.27 735.7046,453.27 Q735.9901,453.27 736.194,453.5011 Q736.4115,453.7186 736.4115,454.0313 Q736.4115,454.3303 736.1124,454.6838 Q735.6774,455.2003 734.9842,455.4858 Q734.0734,455.88 732.9587,455.88 Q731.6537,455.88 730.607,455.3634 Q729.7642,454.9556 729.166,454.072 Q728.5815,453.1884 728.5815,452.1417 L728.5815,451.1902 Q728.5815,450.1027 729.0981,449.1511 Q729.6282,448.1995 730.539,447.6966 Q731.4634,447.18 732.4965,447.18 Q733.1218,447.18 733.6656,447.3975 Q734.2093,447.615 734.6715,448.05 Z " fill="#000000"/><text fill="#000000" font-family="sans-serif" font-size="10.44" lengthAdjust="spacing" textLength="46.11" x="747.8085" y="455.3668">Company</text><line style="stroke:#A80036;stroke-width:1.305;" x1="708.615" x2="807.795" y1="465.015" y2="465.015"/><text fill="#000000" font-family="sans-serif" font-size="9.57" lengthAdjust="spacing" textLength="83.52" x="712.965" y="478.4295">-designation : String</text><line style="stroke:#A80036;stroke-width:1.305;" x1="708.615" x2="807.795" y1="484.0123" y2="484.0123"/><text fill="#000000" font-family="sans-serif" font-size="9.57" lengthAdjust="spacing" textLength="87" x="712.965" y="497.4267">+getTestTypeStore()</text><text fill="#000000" font-family="sans-serif" font-size="9.57" lengthAdjust="spacing" textLength="90.48" x="712.965" y="509.464">+getParameterStore()</text><text fill="#000000" font-family="sans-serif" font-size="9.57" lengthAdjust="spacing" textLength="66.12" x="712.965" y="521.5013">+getTestStore()</text><!--MD5=[36afb6bbd95a8ac778c4537c55a683d5]
class ParameterCategory--><rect codeLine="54" fill="#FEFECE" filter="url(#fyb3opv2mw01v)" height="65.8345" id="ParameterCategory" style="stroke:#A80036;stroke-width:1.305;" width="120.93" x="2115.84" y="581.16"/><ellipse cx="2128.89" cy="595.08" fill="#ADD1B2" rx="9.57" ry="9.57" style="stroke:#A80036;stroke-width:0.87;"/><path d="M2130.63,592.035 Q2130.8067,591.6 2131.0106,591.3825 Q2131.2145,591.165 2131.4456,591.165 Q2131.8534,591.165 2132.1117,591.4097 Q2132.37,591.6544 2132.37,592.2253 L2132.37,593.5847 Q2132.37,594.1556 2132.1253,594.4003 Q2131.8806,594.645 2131.5,594.645 Q2131.1602,594.645 2130.9427,594.4955 Q2130.7252,594.3459 2130.63,593.9517 Q2130.5892,593.6798 2130.4397,593.5303 Q2130.1678,593.2448 2129.6784,593.0817 Q2129.1891,592.905 2128.6997,592.905 Q2128.088,592.905 2127.5714,593.1497 Q2127.0684,593.3944 2126.6742,593.9381 Q2126.28,594.4819 2126.28,595.2295 L2126.28,596.0316 Q2126.28,596.9288 2127.0141,597.5269 Q2127.7481,598.125 2129.0531,598.125 Q2129.828,598.125 2130.3717,597.9483 Q2130.6844,597.8531 2131.0378,597.5405 Q2131.2689,597.3638 2131.3913,597.3094 Q2131.5136,597.255 2131.6631,597.255 Q2131.9486,597.255 2132.1525,597.4861 Q2132.37,597.7036 2132.37,598.0163 Q2132.37,598.3153 2132.0709,598.6688 Q2131.6359,599.1853 2130.9427,599.4708 Q2130.0319,599.865 2128.9172,599.865 Q2127.6122,599.865 2126.5655,599.3484 Q2125.7227,598.9406 2125.1245,598.057 Q2124.54,597.1734 2124.54,596.1267 L2124.54,595.1752 Q2124.54,594.0877 2125.0566,593.1361 Q2125.5867,592.1845 2126.4975,591.6816 Q2127.4219,591.165 2128.455,591.165 Q2129.0803,591.165 2129.6241,591.3825 Q2130.1678,591.6 2130.63,592.035 Z " fill="#000000"/><text fill="#000000" font-family="sans-serif" font-size="10.44" lengthAdjust="spacing" textLength="93.09" x="2141.07" y="599.3518">ParameterCategory</text><line style="stroke:#A80036;stroke-width:1.305;" x1="2116.71" x2="2235.9" y1="609" y2="609"/><text fill="#000000" font-family="sans-serif" font-size="9.57" lengthAdjust="spacing" textLength="24.36" x="2121.06" y="622.4145">-code</text><text fill="#000000" font-family="sans-serif" font-size="9.57" lengthAdjust="spacing" textLength="26.1" x="2121.06" y="634.4517">-name</text><line style="stroke:#A80036;stroke-width:1.305;" x1="2116.71" x2="2235.9" y1="640.0345" y2="640.0345"/><!--MD5=[ed6624c6556d5e7b1bd23032162d20b7]
class Client--><rect codeLine="58" fill="#FEFECE" filter="url(#fyb3opv2mw01v)" height="138.0581" id="Client" style="stroke:#A80036;stroke-width:1.305;" width="79.17" x="718.62" y="630.315"/><ellipse cx="742.2405" cy="644.235" fill="#ADD1B2" rx="9.57" ry="9.57" style="stroke:#A80036;stroke-width:0.87;"/><path d="M743.9805,641.19 Q744.1572,640.755 744.3611,640.5375 Q744.565,640.32 744.7961,640.32 Q745.2039,640.32 745.4622,640.5647 Q745.7205,640.8094 745.7205,641.3803 L745.7205,642.7397 Q745.7205,643.3106 745.4758,643.5553 Q745.2311,643.8 744.8505,643.8 Q744.5107,643.8 744.2932,643.6505 Q744.0757,643.5009 743.9805,643.1067 Q743.9397,642.8348 743.7902,642.6853 Q743.5183,642.3998 743.0289,642.2367 Q742.5396,642.06 742.0502,642.06 Q741.4385,642.06 740.9219,642.3047 Q740.4189,642.5494 740.0247,643.0931 Q739.6305,643.6369 739.6305,644.3845 L739.6305,645.1866 Q739.6305,646.0838 740.3646,646.6819 Q741.0986,647.28 742.4036,647.28 Q743.1785,647.28 743.7222,647.1033 Q744.0349,647.0081 744.3883,646.6955 Q744.6194,646.5188 744.7418,646.4644 Q744.8641,646.41 745.0136,646.41 Q745.2991,646.41 745.503,646.6411 Q745.7205,646.8586 745.7205,647.1713 Q745.7205,647.4703 745.4214,647.8238 Q744.9864,648.3403 744.2932,648.6258 Q743.3824,649.02 742.2677,649.02 Q740.9627,649.02 739.916,648.5034 Q739.0732,648.0956 738.475,647.212 Q737.8905,646.3284 737.8905,645.2817 L737.8905,644.3302 Q737.8905,643.2427 738.4071,642.2911 Q738.9372,641.3395 739.848,640.8366 Q740.7724,640.32 741.8055,640.32 Q742.4308,640.32 742.9746,640.5375 Q743.5183,640.755 743.9805,641.19 Z " fill="#000000"/><text fill="#000000" font-family="sans-serif" font-size="10.44" lengthAdjust="spacing" textLength="27.84" x="756.7695" y="648.5068">Client</text><line style="stroke:#A80036;stroke-width:1.305;" x1="719.49" x2="796.92" y1="658.155" y2="658.155"/><text fill="#000000" font-family="sans-serif" font-size="9.57" lengthAdjust="spacing" textLength="26.1" x="723.84" y="671.5695">-name</text><text fill="#000000" font-family="sans-serif" font-size="9.57" lengthAdjust="spacing" textLength="68.73" x="723.84" y="683.6067">-citizenCardNum</text><text fill="#000000" font-family="sans-serif" font-size="9.57" lengthAdjust="spacing" textLength="37.41" x="723.84" y="695.644">-nhsNum</text><text fill="#000000" font-family="sans-serif" font-size="9.57" lengthAdjust="spacing" textLength="40.89" x="723.84" y="707.6813">-birthDate</text><text fill="#000000" font-family="sans-serif" font-size="9.57" lengthAdjust="spacing" textLength="19.14" x="723.84" y="719.7185">-sex</text><text fill="#000000" font-family="sans-serif" font-size="9.57" lengthAdjust="spacing" textLength="41.76" x="723.84" y="731.7558">-taxIdNum</text><text fill="#000000" font-family="sans-serif" font-size="9.57" lengthAdjust="spacing" textLength="47.85" x="723.84" y="743.7931">-phoneNum</text><text fill="#000000" font-family="sans-serif" font-size="9.57" lengthAdjust="spacing" textLength="24.36" x="723.84" y="755.8303">-email</text><line style="stroke:#A80036;stroke-width:1.305;" x1="719.49" x2="796.92" y1="761.4131" y2="761.4131"/><!--MD5=[be7802b157a16874d39c59ca0e2b25be]
class ParameterStore--><rect codeLine="71" fill="#FEFECE" filter="url(#fyb3opv2mw01v)" height="65.8345" id="ParameterStore" style="stroke:#A80036;stroke-width:1.305;" width="283.62" x="1048.35" y="74.82"/><ellipse cx="1148.6175" cy="88.74" fill="#ADD1B2" rx="9.57" ry="9.57" style="stroke:#A80036;stroke-width:0.87;"/><path d="M1150.3575,85.695 Q1150.5342,85.26 1150.7381,85.0425 Q1150.942,84.825 1151.1731,84.825 Q1151.5809,84.825 1151.8392,85.0697 Q1152.0975,85.3144 1152.0975,85.8853 L1152.0975,87.2447 Q1152.0975,87.8156 1151.8528,88.0603 Q1151.6081,88.305 1151.2275,88.305 Q1150.8877,88.305 1150.6702,88.1555 Q1150.4527,88.0059 1150.3575,87.6117 Q1150.3167,87.3398 1150.1672,87.1903 Q1149.8953,86.9048 1149.4059,86.7417 Q1148.9166,86.565 1148.4272,86.565 Q1147.8155,86.565 1147.2989,86.8097 Q1146.7959,87.0544 1146.4017,87.5981 Q1146.0075,88.1419 1146.0075,88.8895 L1146.0075,89.6916 Q1146.0075,90.5888 1146.7416,91.1869 Q1147.4756,91.785 1148.7806,91.785 Q1149.5555,91.785 1150.0992,91.6083 Q1150.4119,91.5131 1150.7653,91.2005 Q1150.9964,91.0237 1151.1188,90.9694 Q1151.2411,90.915 1151.3906,90.915 Q1151.6761,90.915 1151.88,91.1461 Q1152.0975,91.3636 1152.0975,91.6763 Q1152.0975,91.9753 1151.7984,92.3288 Q1151.3634,92.8453 1150.6702,93.1308 Q1149.7594,93.525 1148.6447,93.525 Q1147.3397,93.525 1146.293,93.0084 Q1145.4502,92.6006 1144.852,91.717 Q1144.2675,90.8334 1144.2675,89.7867 L1144.2675,88.8352 Q1144.2675,87.7477 1144.7841,86.7961 Q1145.3142,85.8445 1146.225,85.3416 Q1147.1494,84.825 1148.1825,84.825 Q1148.8078,84.825 1149.3516,85.0425 Q1149.8953,85.26 1150.3575,85.695 Z " fill="#000000"/><text fill="#000000" font-family="sans-serif" font-size="10.44" lengthAdjust="spacing" textLength="75.69" x="1166.4525" y="93.0118">ParameterStore</text><line style="stroke:#A80036;stroke-width:1.305;" x1="1049.22" x2="1331.1" y1="102.66" y2="102.66"/><line style="stroke:#A80036;stroke-width:1.305;" x1="1049.22" x2="1331.1" y1="109.62" y2="109.62"/><text fill="#000000" font-family="sans-serif" font-size="9.57" lengthAdjust="spacing" textLength="273.18" x="1053.57" y="123.0345">+getParamsByCategories(List&lt;String&gt; selectedCategoriesCodes)</text><text fill="#000000" font-family="sans-serif" font-size="9.57" lengthAdjust="spacing" textLength="170.52" x="1053.57" y="135.0717">+getParamsByCategory(String category)</text><!--MD5=[6ba72ddf03822b91e8d41ca71de58ed3]
class TestTypeStore--><rect codeLine="76" fill="#FEFECE" filter="url(#fyb3opv2mw01v)" height="77.8718" id="TestTypeStore" style="stroke:#A80036;stroke-width:1.305;" width="276.66" x="1051.83" y="171.39"/><ellipse cx="1152.0975" cy="185.31" fill="#ADD1B2" rx="9.57" ry="9.57" style="stroke:#A80036;stroke-width:0.87;"/><path d="M1153.8375,182.265 Q1154.0142,181.83 1154.2181,181.6125 Q1154.422,181.395 1154.6531,181.395 Q1155.0609,181.395 1155.3192,181.6397 Q1155.5775,181.8844 1155.5775,182.4553 L1155.5775,183.8147 Q1155.5775,184.3856 1155.3328,184.6303 Q1155.0881,184.875 1154.7075,184.875 Q1154.3677,184.875 1154.1502,184.7255 Q1153.9327,184.5759 1153.8375,184.1817 Q1153.7967,183.9098 1153.6472,183.7603 Q1153.3753,183.4748 1152.8859,183.3117 Q1152.3966,183.135 1151.9072,183.135 Q1151.2955,183.135 1150.7789,183.3797 Q1150.2759,183.6244 1149.8817,184.1681 Q1149.4875,184.7119 1149.4875,185.4595 L1149.4875,186.2616 Q1149.4875,187.1588 1150.2216,187.7569 Q1150.9556,188.355 1152.2606,188.355 Q1153.0355,188.355 1153.5792,188.1783 Q1153.8919,188.0831 1154.2453,187.7705 Q1154.4764,187.5938 1154.5987,187.5394 Q1154.7211,187.485 1154.8706,187.485 Q1155.1561,187.485 1155.36,187.7161 Q1155.5775,187.9336 1155.5775,188.2463 Q1155.5775,188.5453 1155.2784,188.8988 Q1154.8434,189.4153 1154.1502,189.7008 Q1153.2394,190.095 1152.1247,190.095 Q1150.8197,190.095 1149.773,189.5784 Q1148.9302,189.1706 1148.332,188.287 Q1147.7475,187.4034 1147.7475,186.3567 L1147.7475,185.4052 Q1147.7475,184.3177 1148.2641,183.3661 Q1148.7942,182.4145 1149.705,181.9116 Q1150.6294,181.395 1151.6625,181.395 Q1152.2878,181.395 1152.8316,181.6125 Q1153.3753,181.83 1153.8375,182.265 Z " fill="#000000"/><text fill="#000000" font-family="sans-serif" font-size="10.44" lengthAdjust="spacing" textLength="68.73" x="1169.9325" y="189.5818">TestTypeStore</text><line style="stroke:#A80036;stroke-width:1.305;" x1="1052.7" x2="1327.62" y1="199.23" y2="199.23"/><line style="stroke:#A80036;stroke-width:1.305;" x1="1052.7" x2="1327.62" y1="206.19" y2="206.19"/><text fill="#000000" font-family="sans-serif" font-size="9.57" lengthAdjust="spacing" textLength="69.6" x="1057.05" y="219.6045">+getTestTypes()</text><text fill="#000000" font-family="sans-serif" font-size="9.57" lengthAdjust="spacing" textLength="145.29" x="1057.05" y="231.6417">+getTestTypeByCode(String code)</text><text fill="#000000" font-family="sans-serif" font-size="9.57" lengthAdjust="spacing" textLength="266.22" x="1057.05" y="243.679">+getCategoriesByTestTypeCode(String selectedTestTypeCode)</text><!--MD5=[0f6f7964b844a64b0496af0dda7914bd]
class TestStore--><rect codeLine="82" fill="#FEFECE" filter="url(#fyb3opv2mw01v)" height="89.9091" id="TestStore" style="stroke:#A80036;stroke-width:1.305;" width="287.97" x="1046.175" y="280.575"/><ellipse cx="1163.4075" cy="294.495" fill="#ADD1B2" rx="9.57" ry="9.57" style="stroke:#A80036;stroke-width:0.87;"/><path d="M1165.1475,291.45 Q1165.3242,291.015 1165.5281,290.7975 Q1165.732,290.58 1165.9631,290.58 Q1166.3709,290.58 1166.6292,290.8247 Q1166.8875,291.0694 1166.8875,291.6403 L1166.8875,292.9997 Q1166.8875,293.5706 1166.6428,293.8153 Q1166.3981,294.06 1166.0175,294.06 Q1165.6777,294.06 1165.4602,293.9105 Q1165.2427,293.7609 1165.1475,293.3667 Q1165.1067,293.0948 1164.9572,292.9453 Q1164.6853,292.6598 1164.1959,292.4967 Q1163.7066,292.32 1163.2172,292.32 Q1162.6055,292.32 1162.0889,292.5647 Q1161.5859,292.8094 1161.1917,293.3531 Q1160.7975,293.8969 1160.7975,294.6445 L1160.7975,295.4466 Q1160.7975,296.3438 1161.5316,296.9419 Q1162.2656,297.54 1163.5706,297.54 Q1164.3455,297.54 1164.8892,297.3633 Q1165.2019,297.2681 1165.5553,296.9555 Q1165.7864,296.7788 1165.9088,296.7244 Q1166.0311,296.67 1166.1806,296.67 Q1166.4661,296.67 1166.67,296.9011 Q1166.8875,297.1186 1166.8875,297.4313 Q1166.8875,297.7303 1166.5884,298.0838 Q1166.1534,298.6003 1165.4602,298.8858 Q1164.5494,299.28 1163.4347,299.28 Q1162.1297,299.28 1161.083,298.7634 Q1160.2402,298.3556 1159.642,297.472 Q1159.0575,296.5884 1159.0575,295.5417 L1159.0575,294.5902 Q1159.0575,293.5027 1159.5741,292.5511 Q1160.1042,291.5995 1161.015,291.0966 Q1161.9394,290.58 1162.9725,290.58 Q1163.5978,290.58 1164.1416,290.7975 Q1164.6853,291.015 1165.1475,291.45 Z " fill="#000000"/><text fill="#000000" font-family="sans-serif" font-size="10.44" lengthAdjust="spacing" textLength="46.11" x="1181.2425" y="298.7668">TestStore</text><line style="stroke:#A80036;stroke-width:1.305;" x1="1047.045" x2="1333.275" y1="308.415" y2="308.415"/><line style="stroke:#A80036;stroke-width:1.305;" x1="1047.045" x2="1333.275" y1="315.375" y2="315.375"/><text fill="#000000" font-family="sans-serif" font-size="9.57" lengthAdjust="spacing" textLength="221.85" x="1051.395" y="328.7895">+createTest(String NHScode, Client associatedClient,</text><text fill="#000000" font-family="sans-serif" font-size="9.57" lengthAdjust="spacing" textLength="274.92" x="1054.005" y="340.8267">TestType selectedTestType, List&lt;Parameter&gt;selectedParamsList)</text><text fill="#000000" font-family="sans-serif" font-size="9.57" lengthAdjust="spacing" textLength="78.3" x="1051.395" y="352.864">+validateTest(test)</text><text fill="#000000" font-family="sans-serif" font-size="9.57" lengthAdjust="spacing" textLength="66.99" x="1051.395" y="364.9013">+saveTest(test)</text><!--MD5=[9d781343e96e75b44552b4e167cedac1]
class CreateTestControler--><rect codeLine="92" fill="#FEFECE" filter="url(#fyb3opv2mw01v)" height="101.9463" id="CreateTestControler" style="stroke:#A80036;stroke-width:1.305;" width="384.54" x="175.74" y="1078.365"/><ellipse cx="315.5925" cy="1092.285" fill="#ADD1B2" rx="9.57" ry="9.57" style="stroke:#A80036;stroke-width:0.87;"/><path d="M317.3325,1089.24 Q317.5092,1088.805 317.7131,1088.5875 Q317.917,1088.37 318.1481,1088.37 Q318.5559,1088.37 318.8142,1088.6147 Q319.0725,1088.8594 319.0725,1089.4303 L319.0725,1090.7897 Q319.0725,1091.3606 318.8278,1091.6053 Q318.5831,1091.85 318.2025,1091.85 Q317.8627,1091.85 317.6452,1091.7005 Q317.4277,1091.5509 317.3325,1091.1567 Q317.2917,1090.8848 317.1422,1090.7353 Q316.8703,1090.4498 316.3809,1090.2867 Q315.8916,1090.11 315.4022,1090.11 Q314.7905,1090.11 314.2739,1090.3547 Q313.7709,1090.5994 313.3767,1091.1431 Q312.9825,1091.6869 312.9825,1092.4345 L312.9825,1093.2366 Q312.9825,1094.1337 313.7166,1094.7319 Q314.4506,1095.33 315.7556,1095.33 Q316.5305,1095.33 317.0742,1095.1533 Q317.3869,1095.0581 317.7403,1094.7455 Q317.9714,1094.5688 318.0938,1094.5144 Q318.2161,1094.46 318.3656,1094.46 Q318.6511,1094.46 318.855,1094.6911 Q319.0725,1094.9086 319.0725,1095.2212 Q319.0725,1095.5203 318.7734,1095.8737 Q318.3384,1096.3903 317.6452,1096.6758 Q316.7344,1097.07 315.6197,1097.07 Q314.3147,1097.07 313.268,1096.5534 Q312.4252,1096.1456 311.827,1095.262 Q311.2425,1094.3784 311.2425,1093.3317 L311.2425,1092.3802 Q311.2425,1091.2927 311.7591,1090.3411 Q312.2892,1089.3895 313.2,1088.8866 Q314.1244,1088.37 315.1575,1088.37 Q315.7828,1088.37 316.3266,1088.5875 Q316.8703,1088.805 317.3325,1089.24 Z " fill="#000000"/><text fill="#000000" font-family="sans-serif" font-size="10.44" lengthAdjust="spacing" textLength="97.44" x="333.4275" y="1096.5568">CreateTestControler</text><line style="stroke:#A80036;stroke-width:1.305;" x1="176.61" x2="559.41" y1="1106.205" y2="1106.205"/><line style="stroke:#A80036;stroke-width:1.305;" x1="176.61" x2="559.41" y1="1113.165" y2="1113.165"/><text fill="#000000" font-family="sans-serif" font-size="9.57" lengthAdjust="spacing" textLength="374.1" x="180.96" y="1126.5795">+createTest(NHScode, citizenCardNumber,selectedTestTypeCode, selectedParamCodes)</text><text fill="#000000" font-family="sans-serif" font-size="9.57" lengthAdjust="spacing" textLength="66.99" x="180.96" y="1138.6167">+saveTest(test)</text><text fill="#000000" font-family="sans-serif" font-size="9.57" lengthAdjust="spacing" textLength="134.85" x="180.96" y="1150.654">+getTestTypes() : TestTypeDTO</text><text fill="#000000" font-family="sans-serif" font-size="9.57" lengthAdjust="spacing" textLength="300.15" x="180.96" y="1162.6913">+getCategoriesListOfTestType(selectedTestTypeCode): CategoriesDTO</text><text fill="#000000" font-family="sans-serif" font-size="9.57" lengthAdjust="spacing" textLength="307.98" x="180.96" y="1174.7285">+getParametersOfCategories(selectedCategoriesCodes): ParametersDTO</text><!--MD5=[d0024740988d3925690046e9afae9c9c]
class TestTypeDTO--><rect codeLine="102" fill="#FEFECE" filter="url(#fyb3opv2mw01v)" height="101.9463" id="TestTypeDTO" style="stroke:#A80036;stroke-width:1.305;" width="313.2" x="1033.56" y="1240.185"/><ellipse cx="1153.8375" cy="1254.105" fill="#ADD1B2" rx="9.57" ry="9.57" style="stroke:#A80036;stroke-width:0.87;"/><path d="M1155.5775,1251.06 Q1155.7542,1250.625 1155.9581,1250.4075 Q1156.162,1250.19 1156.3931,1250.19 Q1156.8009,1250.19 1157.0592,1250.4347 Q1157.3175,1250.6794 1157.3175,1251.2503 L1157.3175,1252.6097 Q1157.3175,1253.1806 1157.0728,1253.4253 Q1156.8281,1253.67 1156.4475,1253.67 Q1156.1077,1253.67 1155.8902,1253.5205 Q1155.6727,1253.3709 1155.5775,1252.9767 Q1155.5367,1252.7048 1155.3872,1252.5553 Q1155.1153,1252.2698 1154.6259,1252.1067 Q1154.1366,1251.93 1153.6472,1251.93 Q1153.0355,1251.93 1152.5189,1252.1747 Q1152.0159,1252.4194 1151.6217,1252.9631 Q1151.2275,1253.5069 1151.2275,1254.2545 L1151.2275,1255.0566 Q1151.2275,1255.9538 1151.9616,1256.5519 Q1152.6956,1257.15 1154.0006,1257.15 Q1154.7755,1257.15 1155.3192,1256.9733 Q1155.6319,1256.8781 1155.9853,1256.5655 Q1156.2164,1256.3888 1156.3388,1256.3344 Q1156.4611,1256.28 1156.6106,1256.28 Q1156.8961,1256.28 1157.1,1256.5111 Q1157.3175,1256.7286 1157.3175,1257.0413 Q1157.3175,1257.3403 1157.0184,1257.6938 Q1156.5834,1258.2103 1155.8902,1258.4958 Q1154.9794,1258.89 1153.8647,1258.89 Q1152.5597,1258.89 1151.513,1258.3734 Q1150.6702,1257.9656 1150.072,1257.082 Q1149.4875,1256.1984 1149.4875,1255.1517 L1149.4875,1254.2002 Q1149.4875,1253.1127 1150.0041,1252.1611 Q1150.5342,1251.2095 1151.445,1250.7066 Q1152.3694,1250.19 1153.4025,1250.19 Q1154.0278,1250.19 1154.5716,1250.4075 Q1155.1153,1250.625 1155.5775,1251.06 Z " fill="#000000"/><text fill="#000000" font-family="sans-serif" font-size="10.44" lengthAdjust="spacing" textLength="65.25" x="1171.6725" y="1258.3768">TestTypeDTO</text><line style="stroke:#A80036;stroke-width:1.305;" x1="1034.43" x2="1345.89" y1="1268.025" y2="1268.025"/><text fill="#000000" font-family="sans-serif" font-size="9.57" lengthAdjust="spacing" textLength="24.36" x="1038.78" y="1281.4395">-code</text><text fill="#000000" font-family="sans-serif" font-size="9.57" lengthAdjust="spacing" textLength="49.59" x="1038.78" y="1293.4767">-description</text><text fill="#000000" font-family="sans-serif" font-size="9.57" lengthAdjust="spacing" textLength="73.08" x="1038.78" y="1305.514">-collectingMethod</text><text fill="#000000" font-family="sans-serif" font-size="9.57" lengthAdjust="spacing" textLength="150.51" x="1038.78" y="1317.5513">-List&lt;Category&gt; selectedCategories</text><line style="stroke:#A80036;stroke-width:1.305;" x1="1034.43" x2="1345.89" y1="1323.1341" y2="1323.1341"/><text fill="#000000" font-family="sans-serif" font-size="9.57" lengthAdjust="spacing" textLength="302.76" x="1038.78" y="1336.5485">+TestTypeDTO(code, description, collectingMethod, selectedCategories)</text><!--MD5=[6ca282d596ffdf8981b3c7f53e037f13]
class CategoryDto--><rect codeLine="110" fill="#FEFECE" filter="url(#fyb3opv2mw01v)" height="77.8718" id="CategoryDto" style="stroke:#A80036;stroke-width:1.305;" width="123.54" x="1128.39" y="1372.86"/><ellipse cx="1157.883" cy="1386.78" fill="#ADD1B2" rx="9.57" ry="9.57" style="stroke:#A80036;stroke-width:0.87;"/><path d="M1159.623,1383.735 Q1159.7997,1383.3 1160.0036,1383.0825 Q1160.2075,1382.865 1160.4386,1382.865 Q1160.8464,1382.865 1161.1047,1383.1097 Q1161.363,1383.3544 1161.363,1383.9253 L1161.363,1385.2847 Q1161.363,1385.8556 1161.1183,1386.1003 Q1160.8736,1386.345 1160.493,1386.345 Q1160.1532,1386.345 1159.9357,1386.1955 Q1159.7182,1386.0459 1159.623,1385.6517 Q1159.5822,1385.3798 1159.4327,1385.2303 Q1159.1608,1384.9448 1158.6714,1384.7817 Q1158.1821,1384.605 1157.6927,1384.605 Q1157.081,1384.605 1156.5644,1384.8497 Q1156.0614,1385.0944 1155.6672,1385.6381 Q1155.273,1386.1819 1155.273,1386.9295 L1155.273,1387.7316 Q1155.273,1388.6288 1156.0071,1389.2269 Q1156.7411,1389.825 1158.0461,1389.825 Q1158.821,1389.825 1159.3647,1389.6483 Q1159.6774,1389.5531 1160.0308,1389.2405 Q1160.2619,1389.0638 1160.3843,1389.0094 Q1160.5066,1388.955 1160.6561,1388.955 Q1160.9416,1388.955 1161.1455,1389.1861 Q1161.363,1389.4036 1161.363,1389.7163 Q1161.363,1390.0153 1161.0639,1390.3688 Q1160.6289,1390.8853 1159.9357,1391.1708 Q1159.0249,1391.565 1157.9102,1391.565 Q1156.6052,1391.565 1155.5585,1391.0484 Q1154.7157,1390.6406 1154.1175,1389.757 Q1153.533,1388.8734 1153.533,1387.8267 L1153.533,1386.8752 Q1153.533,1385.7877 1154.0496,1384.8361 Q1154.5797,1383.8845 1155.4905,1383.3816 Q1156.4149,1382.865 1157.448,1382.865 Q1158.0733,1382.865 1158.6171,1383.0825 Q1159.1608,1383.3 1159.623,1383.735 Z " fill="#000000"/><text fill="#000000" font-family="sans-serif" font-size="10.44" lengthAdjust="spacing" textLength="59.16" x="1173.717" y="1391.0518">CategoryDto</text><line style="stroke:#A80036;stroke-width:1.305;" x1="1129.26" x2="1251.06" y1="1400.7" y2="1400.7"/><text fill="#000000" font-family="sans-serif" font-size="9.57" lengthAdjust="spacing" textLength="24.36" x="1133.61" y="1414.1145">-code</text><text fill="#000000" font-family="sans-serif" font-size="9.57" lengthAdjust="spacing" textLength="26.1" x="1133.61" y="1426.1517">-name</text><line style="stroke:#A80036;stroke-width:1.305;" x1="1129.26" x2="1251.06" y1="1431.7345" y2="1431.7345"/><text fill="#000000" font-family="sans-serif" font-size="9.57" lengthAdjust="spacing" textLength="113.1" x="1133.61" y="1445.149">+CategoryDto(code, name)</text><!--MD5=[e82331375a7233007428e4f15d504621]
class ParameterDTO--><rect codeLine="116" fill="#FEFECE" filter="url(#fyb3opv2mw01v)" height="101.9463" id="ParameterDTO" style="stroke:#A80036;stroke-width:1.305;" width="294.06" x="1043.13" y="1482.045"/><ellipse cx="1150.3575" cy="1495.965" fill="#ADD1B2" rx="9.57" ry="9.57" style="stroke:#A80036;stroke-width:0.87;"/><path d="M1152.0975,1492.92 Q1152.2742,1492.485 1152.4781,1492.2675 Q1152.682,1492.05 1152.9131,1492.05 Q1153.3209,1492.05 1153.5792,1492.2947 Q1153.8375,1492.5394 1153.8375,1493.1103 L1153.8375,1494.4697 Q1153.8375,1495.0406 1153.5928,1495.2853 Q1153.3481,1495.53 1152.9675,1495.53 Q1152.6277,1495.53 1152.4102,1495.3805 Q1152.1927,1495.2309 1152.0975,1494.8367 Q1152.0567,1494.5648 1151.9072,1494.4153 Q1151.6353,1494.1298 1151.1459,1493.9667 Q1150.6566,1493.79 1150.1672,1493.79 Q1149.5555,1493.79 1149.0389,1494.0347 Q1148.5359,1494.2794 1148.1417,1494.8231 Q1147.7475,1495.3669 1147.7475,1496.1145 L1147.7475,1496.9166 Q1147.7475,1497.8138 1148.4816,1498.4119 Q1149.2156,1499.01 1150.5206,1499.01 Q1151.2955,1499.01 1151.8392,1498.8333 Q1152.1519,1498.7381 1152.5053,1498.4255 Q1152.7364,1498.2488 1152.8588,1498.1944 Q1152.9811,1498.14 1153.1306,1498.14 Q1153.4161,1498.14 1153.62,1498.3711 Q1153.8375,1498.5886 1153.8375,1498.9013 Q1153.8375,1499.2003 1153.5384,1499.5538 Q1153.1034,1500.0703 1152.4102,1500.3558 Q1151.4994,1500.75 1150.3847,1500.75 Q1149.0797,1500.75 1148.033,1500.2334 Q1147.1902,1499.8256 1146.592,1498.942 Q1146.0075,1498.0584 1146.0075,1497.0117 L1146.0075,1496.0602 Q1146.0075,1494.9727 1146.5241,1494.0211 Q1147.0542,1493.0695 1147.965,1492.5666 Q1148.8894,1492.05 1149.9225,1492.05 Q1150.5478,1492.05 1151.0916,1492.2675 Q1151.6353,1492.485 1152.0975,1492.92 Z " fill="#000000"/><text fill="#000000" font-family="sans-serif" font-size="10.44" lengthAdjust="spacing" textLength="72.21" x="1168.1925" y="1500.2368">ParameterDTO</text><line style="stroke:#A80036;stroke-width:1.305;" x1="1044" x2="1336.32" y1="1509.885" y2="1509.885"/><text fill="#000000" font-family="sans-serif" font-size="9.57" lengthAdjust="spacing" textLength="24.36" x="1048.35" y="1523.2995">-code</text><text fill="#000000" font-family="sans-serif" font-size="9.57" lengthAdjust="spacing" textLength="48.72" x="1048.35" y="1535.3367">-shortName</text><text fill="#000000" font-family="sans-serif" font-size="9.57" lengthAdjust="spacing" textLength="49.59" x="1048.35" y="1547.374">-description</text><text fill="#000000" font-family="sans-serif" font-size="9.57" lengthAdjust="spacing" textLength="84.39" x="1048.35" y="1559.4113">-ParameterCategory</text><line style="stroke:#A80036;stroke-width:1.305;" x1="1044" x2="1336.32" y1="1564.9941" y2="1564.9941"/><text fill="#000000" font-family="sans-serif" font-size="9.57" lengthAdjust="spacing" textLength="283.62" x="1048.35" y="1578.4085">+ParameterDTO(code, shortName, description, ParameterCategory)'</text><!--MD5=[724ead17d3ca940995455a91cefd1e12]
class TestTypeMapper--><rect codeLine="127" fill="#FEFECE" filter="url(#fyb3opv2mw01v)" height="65.8345" id="TestTypeMapper" style="stroke:#A80036;stroke-width:1.305;" width="242.73" x="636.84" y="999.63"/><ellipse cx="714.9225" cy="1013.55" fill="#ADD1B2" rx="9.57" ry="9.57" style="stroke:#A80036;stroke-width:0.87;"/><path d="M716.6625,1010.505 Q716.8392,1010.07 717.0431,1009.8525 Q717.247,1009.635 717.4781,1009.635 Q717.8859,1009.635 718.1442,1009.8797 Q718.4025,1010.1244 718.4025,1010.6953 L718.4025,1012.0547 Q718.4025,1012.6256 718.1578,1012.8703 Q717.9131,1013.115 717.5325,1013.115 Q717.1927,1013.115 716.9752,1012.9655 Q716.7577,1012.8159 716.6625,1012.4217 Q716.6217,1012.1498 716.4722,1012.0003 Q716.2003,1011.7148 715.7109,1011.5517 Q715.2216,1011.375 714.7322,1011.375 Q714.1205,1011.375 713.6039,1011.6197 Q713.1009,1011.8644 712.7067,1012.4081 Q712.3125,1012.9519 712.3125,1013.6995 L712.3125,1014.5016 Q712.3125,1015.3987 713.0466,1015.9969 Q713.7806,1016.595 715.0856,1016.595 Q715.8605,1016.595 716.4042,1016.4183 Q716.7169,1016.3231 717.0703,1016.0105 Q717.3014,1015.8337 717.4238,1015.7794 Q717.5461,1015.725 717.6956,1015.725 Q717.9811,1015.725 718.185,1015.9561 Q718.4025,1016.1736 718.4025,1016.4862 Q718.4025,1016.7853 718.1034,1017.1387 Q717.6684,1017.6553 716.9752,1017.9408 Q716.0644,1018.335 714.9497,1018.335 Q713.6447,1018.335 712.598,1017.8184 Q711.7552,1017.4106 711.157,1016.527 Q710.5725,1015.6434 710.5725,1014.5967 L710.5725,1013.6452 Q710.5725,1012.5577 711.0891,1011.6061 Q711.6192,1010.6545 712.53,1010.1516 Q713.4544,1009.635 714.4875,1009.635 Q715.1128,1009.635 715.6566,1009.8525 Q716.2003,1010.07 716.6625,1010.505 Z " fill="#000000"/><text fill="#000000" font-family="sans-serif" font-size="10.44" lengthAdjust="spacing" textLength="79.17" x="732.7575" y="1017.8218">TestTypeMapper</text><line style="stroke:#A80036;stroke-width:1.305;" x1="637.71" x2="878.7" y1="1027.47" y2="1027.47"/><line style="stroke:#A80036;stroke-width:1.305;" x1="637.71" x2="878.7" y1="1034.43" y2="1034.43"/><text fill="#000000" font-family="sans-serif" font-size="9.57" lengthAdjust="spacing" textLength="232.29" x="642.06" y="1047.8445">+List&lt;TestTypeDTO&gt; toDTO(List&lt;TestType&gt; testTypes)</text><text fill="#000000" font-family="sans-serif" font-size="9.57" lengthAdjust="spacing" textLength="145.29" x="642.06" y="1059.8817">+TestTypeDTO toDTO(TestType tt)</text><!--MD5=[867476cd2a5db62f3ac412e45787ce2b]
class CategoryMapper--><rect codeLine="131" fill="#FEFECE" filter="url(#fyb3opv2mw01v)" height="65.8345" id="CategoryMapper" style="stroke:#A80036;stroke-width:1.305;" width="282.75" x="616.83" y="1096.2"/><ellipse cx="715.3575" cy="1110.12" fill="#ADD1B2" rx="9.57" ry="9.57" style="stroke:#A80036;stroke-width:0.87;"/><path d="M717.0975,1107.075 Q717.2742,1106.64 717.4781,1106.4225 Q717.682,1106.205 717.9131,1106.205 Q718.3209,1106.205 718.5792,1106.4497 Q718.8375,1106.6944 718.8375,1107.2653 L718.8375,1108.6247 Q718.8375,1109.1956 718.5928,1109.4403 Q718.3481,1109.685 717.9675,1109.685 Q717.6277,1109.685 717.4102,1109.5355 Q717.1927,1109.3859 717.0975,1108.9917 Q717.0567,1108.7198 716.9072,1108.5703 Q716.6353,1108.2848 716.1459,1108.1217 Q715.6566,1107.945 715.1672,1107.945 Q714.5555,1107.945 714.0389,1108.1897 Q713.5359,1108.4344 713.1417,1108.9781 Q712.7475,1109.5219 712.7475,1110.2695 L712.7475,1111.0716 Q712.7475,1111.9687 713.4816,1112.5669 Q714.2156,1113.165 715.5206,1113.165 Q716.2955,1113.165 716.8392,1112.9883 Q717.1519,1112.8931 717.5053,1112.5805 Q717.7364,1112.4037 717.8588,1112.3494 Q717.9811,1112.295 718.1306,1112.295 Q718.4161,1112.295 718.62,1112.5261 Q718.8375,1112.7436 718.8375,1113.0562 Q718.8375,1113.3553 718.5384,1113.7087 Q718.1034,1114.2253 717.4102,1114.5108 Q716.4994,1114.905 715.3847,1114.905 Q714.0797,1114.905 713.033,1114.3884 Q712.1902,1113.9806 711.592,1113.097 Q711.0075,1112.2134 711.0075,1111.1667 L711.0075,1110.2152 Q711.0075,1109.1277 711.5241,1108.1761 Q712.0542,1107.2245 712.965,1106.7216 Q713.8894,1106.205 714.9225,1106.205 Q715.5478,1106.205 716.0916,1106.4225 Q716.6353,1106.64 717.0975,1107.075 Z " fill="#000000"/><text fill="#000000" font-family="sans-serif" font-size="10.44" lengthAdjust="spacing" textLength="78.3" x="733.1925" y="1114.3918">CategoryMapper</text><line style="stroke:#A80036;stroke-width:1.305;" x1="617.7" x2="898.71" y1="1124.04" y2="1124.04"/><line style="stroke:#A80036;stroke-width:1.305;" x1="617.7" x2="898.71" y1="1131" y2="1131"/><text fill="#000000" font-family="sans-serif" font-size="9.57" lengthAdjust="spacing" textLength="272.31" x="622.05" y="1144.4145">+List&lt;CategoryDto&gt; toDTO(List&lt;Category&gt; parameterCategories)</text><text fill="#000000" font-family="sans-serif" font-size="9.57" lengthAdjust="spacing" textLength="171.39" x="622.05" y="1156.4517">+CategoryDto toDTO(Category category)</text><!--MD5=[e0569d1bc34b9d21face98cd33d75fba]
class ParameterMapper--><rect codeLine="135" fill="#FEFECE" filter="url(#fyb3opv2mw01v)" height="65.8345" id="ParameterMapper" style="stroke:#A80036;stroke-width:1.305;" width="255.78" x="630.315" y="1192.77"/><ellipse cx="711.4425" cy="1206.69" fill="#ADD1B2" rx="9.57" ry="9.57" style="stroke:#A80036;stroke-width:0.87;"/><path d="M713.1825,1203.645 Q713.3592,1203.21 713.5631,1202.9925 Q713.767,1202.775 713.9981,1202.775 Q714.4059,1202.775 714.6642,1203.0197 Q714.9225,1203.2644 714.9225,1203.8353 L714.9225,1205.1947 Q714.9225,1205.7656 714.6778,1206.0103 Q714.4331,1206.255 714.0525,1206.255 Q713.7127,1206.255 713.4952,1206.1055 Q713.2777,1205.9559 713.1825,1205.5617 Q713.1417,1205.2898 712.9922,1205.1403 Q712.7203,1204.8548 712.2309,1204.6917 Q711.7416,1204.515 711.2522,1204.515 Q710.6405,1204.515 710.1239,1204.7597 Q709.6209,1205.0044 709.2267,1205.5481 Q708.8325,1206.0919 708.8325,1206.8395 L708.8325,1207.6416 Q708.8325,1208.5387 709.5666,1209.1369 Q710.3006,1209.735 711.6056,1209.735 Q712.3805,1209.735 712.9242,1209.5583 Q713.2369,1209.4631 713.5903,1209.1505 Q713.8214,1208.9737 713.9438,1208.9194 Q714.0661,1208.865 714.2156,1208.865 Q714.5011,1208.865 714.705,1209.0961 Q714.9225,1209.3136 714.9225,1209.6262 Q714.9225,1209.9253 714.6234,1210.2787 Q714.1884,1210.7953 713.4952,1211.0808 Q712.5844,1211.475 711.4697,1211.475 Q710.1647,1211.475 709.118,1210.9584 Q708.2752,1210.5506 707.677,1209.667 Q707.0925,1208.7834 707.0925,1207.7367 L707.0925,1206.7852 Q707.0925,1205.6977 707.6091,1204.7461 Q708.1392,1203.7945 709.05,1203.2916 Q709.9744,1202.775 711.0075,1202.775 Q711.6328,1202.775 712.1766,1202.9925 Q712.7203,1203.21 713.1825,1203.645 Z " fill="#000000"/><text fill="#000000" font-family="sans-serif" font-size="10.44" lengthAdjust="spacing" textLength="86.13" x="729.2775" y="1210.9618">ParameterMapper</text><line style="stroke:#A80036;stroke-width:1.305;" x1="631.185" x2="885.225" y1="1220.61" y2="1220.61"/><line style="stroke:#A80036;stroke-width:1.305;" x1="631.185" x2="885.225" y1="1227.57" y2="1227.57"/><text fill="#000000" font-family="sans-serif" font-size="9.57" lengthAdjust="spacing" textLength="245.34" x="635.535" y="1240.9845">+List&lt;ParameterDTO&gt; toDTO(List&lt;Parameter&gt; parameters)</text><text fill="#000000" font-family="sans-serif" font-size="9.57" lengthAdjust="spacing" textLength="189.66" x="635.535" y="1253.0217">+ParameterDTO toDTO(Parameter parameter)</text><!--MD5=[502b51bc079239060389dab43b7d3470]
link Client to Test--><!--MD5=[502b51bc079239060389dab43b7d3470]
link Client to Test--><path codeLine="179" d="M797.9814,700.6023 C846.9711,701.22 933.4839,699.7062 1005.72,684.69 C1048.7328,675.7551 1095.2082,658.7205 1130.6259,644.061 " fill="none" id="Client-Test" style="stroke:#A80036;stroke-width:0.87;"/><polygon fill="#000000" points="927.4815,677.7419,935.6679,678.9439,934.811,673.9025,927.4815,677.7419" style="stroke:#000000;stroke-width:0.87;"/><text fill="#000000" font-family="sans-serif" font-size="11.31" lengthAdjust="spacing" textLength="65.25" x="939.6" y="681.6408">requested by</text><text fill="#000000" font-family="sans-serif" font-size="11.31" lengthAdjust="spacing" textLength="6.09" x="804.8061" y="713.6772">1</text><text fill="#000000" font-family="sans-serif" font-size="11.31" lengthAdjust="spacing" textLength="6.09" x="1118.0824" y="659.2531">1</text><!--MD5=[a87ca41b19769012ec630dbc141b1436]
link CreateTestUI to CreateTestControler--><path codeLine="144" d="M91.3935,1469.343 C135.8853,1414.4721 256.824,1265.3106 322.7874,1183.9656 " fill="none" id="CreateTestUI-to-CreateTestControler" style="stroke:#A80036;stroke-width:0.87;stroke-dasharray:7.0,7.0;"/><polygon fill="#A80036" points="325.6932,1180.3812,318.0634,1184.2806,322.9576,1183.7634,323.4749,1188.6576,325.6932,1180.3812" style="stroke:#A80036;stroke-width:0.87;"/><!--MD5=[3d5f36034bd05a68f42d063684fd8cdc]
link CreateTestUI to CategoryDto--><path codeLine="145" d="M119.2161,1489.788 C245.5314,1487.9784 615.0813,1480.392 920.46,1451.16 C990.2166,1444.4871 1069.5519,1432.3767 1123.8486,1423.3809 " fill="none" id="CreateTestUI-to-CategoryDto" style="stroke:#A80036;stroke-width:0.87;stroke-dasharray:7.0,7.0;"/><polygon fill="#A80036" points="1128.3726,1422.6327,1120.0801,1420.4756,1124.0808,1423.3418,1121.2146,1427.3425,1128.3726,1422.6327" style="stroke:#A80036;stroke-width:0.87;"/><!--MD5=[4623db2661f880c526208cfcca0131e5]
link CreateTestUI to ParameterDTO--><path codeLine="146" d="M85.5123,1511.5728 C97.5705,1532.07 118.9116,1561.8066 147.03,1574.7 C459.4818,1718.0064 577.7322,1601.1654 920.46,1574.7 C958.8879,1571.7333 1000.1346,1566.4176 1038.4929,1560.5451 " fill="none" id="CreateTestUI-to-ParameterDTO" style="stroke:#A80036;stroke-width:0.87;stroke-dasharray:7.0,7.0;"/><polygon fill="#A80036" points="1042.9212,1559.8665,1034.6546,1557.6122,1038.6214,1560.5251,1035.7084,1564.4919,1042.9212,1559.8665" style="stroke:#A80036;stroke-width:0.87;"/><!--MD5=[b119393afdc8554af40a71e4d23c569f]
link CreateTestUI to TestTypeDTO--><path codeLine="147" d="M119.4075,1471.4658 C130.8219,1467.1941 143.1759,1462.992 154.86,1459.86 C196.707,1448.6544 748.9221,1360.6887 1028.8794,1316.397 " fill="none" id="CreateTestUI-to-TestTypeDTO" style="stroke:#A80036;stroke-width:0.87;stroke-dasharray:7.0,7.0;"/><polygon fill="#A80036" points="1033.3947,1315.6836,1025.1217,1313.4526,1029.0967,1316.3544,1026.195,1320.3294,1033.3947,1315.6836" style="stroke:#A80036;stroke-width:0.87;"/><!--MD5=[3d90787a6c4fcaaaef3316a8b7a2a1cb]
link CategoryMapper to CategoryDto--><path codeLine="148" d="M898.9449,1162.4244 C906.5835,1166.7309 913.8306,1171.6029 920.46,1177.11 C989.6511,1234.5561 943.8543,1299.3276 1012.68,1357.2 C1043.9652,1383.5088 1087.8132,1397.2113 1123.9965,1404.3279 " fill="none" id="CategoryMapper-to-CategoryDto" style="stroke:#A80036;stroke-width:0.87;stroke-dasharray:7.0,7.0;"/><polygon fill="#A80036" points="1128.3726,1405.1718,1121.3249,1400.2985,1124.0982,1404.3641,1120.0326,1407.1375,1128.3726,1405.1718" style="stroke:#A80036;stroke-width:0.87;"/><!--MD5=[5f4198d269e8e237122a004a01e5b057]
link CategoryMapper to ParameterCategory--><path codeLine="149" d="M899.7888,1129.695 C983.8221,1129.9125 1092.6591,1130.13 1189.29,1130.13 C1189.29,1130.13 1189.29,1130.13 1905.3,1130.13 C2121.1557,1130.13 2164.8558,771.2898 2173.4166,652.152 " fill="none" id="CategoryMapper-to-ParameterCategory" style="stroke:#A80036;stroke-width:0.87;stroke-dasharray:7.0,7.0;"/><polygon fill="#A80036" points="2173.7298,647.6715,2169.7208,655.2443,2173.4314,652.0113,2176.6644,655.7218,2173.7298,647.6715" style="stroke:#A80036;stroke-width:0.87;"/><!--MD5=[bcaa6a39389c8cb768501da2b7549a8d]
link ParameterMapper to ParameterDTO--><path codeLine="150" d="M786.6018,1259.3076 C829.9713,1310.1504 918.9462,1407.1467 1012.68,1465.95 C1021.0668,1471.2135 1029.9321,1476.1638 1039.041,1480.8096 " fill="none" id="ParameterMapper-to-ParameterDTO" style="stroke:#A80036;stroke-width:0.87;stroke-dasharray:7.0,7.0;"/><polygon fill="#A80036" points="1042.9647,1482.7758,1037.543,1476.1407,1039.0814,1480.8155,1034.4066,1482.354,1042.9647,1482.7758" style="stroke:#A80036;stroke-width:0.87;"/><!--MD5=[6a9c25a7b7cd4f2505d061be4a34119e]
link ParameterMapper to Parameter--><path codeLine="151" d="M876.1335,1192.7439 C891.1671,1187.8371 906.2529,1182.5823 920.46,1177.11 C1335.7023,1017.291 1507.8927,1047.6192 1813.08,723.84 C1831.8285,703.9518 1822.5108,689.823 1839.18,668.16 C1845.6354,659.7732 1853.6133,651.7953 1861.7217,644.6874 " fill="none" id="ParameterMapper-to-Parameter" style="stroke:#A80036;stroke-width:0.87;stroke-dasharray:7.0,7.0;"/><polygon fill="#A80036" points="1865.2104,641.6859,1857.0106,644.1724,1861.9191,644.5301,1861.5614,649.4386,1865.2104,641.6859" style="stroke:#A80036;stroke-width:0.87;"/><!--MD5=[a866f4e758874d18eed8ecae1602bb43]
link TestTypeMapper to TestTypeDTO--><path codeLine="152" d="M879.5961,1062.9225 C893.6901,1068.0555 907.6014,1073.9106 920.46,1080.54 C1001.3961,1122.3 1082.0016,1189.7598 1133.5317,1237.0356 " fill="none" id="TestTypeMapper-to-TestTypeDTO" style="stroke:#A80036;stroke-width:0.87;stroke-dasharray:7.0,7.0;"/><polygon fill="#A80036" points="1136.8812,1240.1241,1133.4691,1232.2643,1133.6777,1237.1813,1128.7606,1237.3899,1136.8812,1240.1241" style="stroke:#A80036;stroke-width:0.87;"/><!--MD5=[a3b705e4e3f391aa28b18ef9a5fd28a9]
link TestTypeMapper to TestType--><path codeLine="153" d="M879.5961,1003.9539 C920.3643,992.6352 965.6826,978.2541 1005.72,961.35 C1234.0167,864.9714 1341.4356,883.6677 1490.31,685.56 C1520.1684,645.8271 1487.3868,617.1693 1516.41,576.81 C1523.196,567.3705 1532.2005,559.2186 1541.8227,552.3108 " fill="none" id="TestTypeMapper-to-TestType" style="stroke:#A80036;stroke-width:0.87;stroke-dasharray:7.0,7.0;"/><polygon fill="#A80036" points="1545.3984,549.8226,1536.9821,551.4304,1541.8254,552.3038,1540.9521,557.1472,1545.3984,549.8226" style="stroke:#A80036;stroke-width:0.87;"/><!--MD5=[8f55894bbc012aa6e8bd0f9e9c1fa823]
link CreateTestControler to Company--><path codeLine="154" d="M374.5611,1078.0431 C389.673,965.5956 440.9595,695.0256 595.95,542.01 C624.7557,513.5697 668.247,498.423 702.8208,490.4625 " fill="none" id="CreateTestControler-to-Company" style="stroke:#A80036;stroke-width:0.87;stroke-dasharray:7.0,7.0;"/><polygon fill="#A80036" points="707.4231,489.4359,699.0199,487.7607,703.1793,490.3914,700.5487,494.5508,707.4231,489.4359" style="stroke:#A80036;stroke-width:0.87;"/><!--MD5=[75f1b5762c49b994a7e3ff994124fe26]
link CreateTestControler to CategoryMapper--><path codeLine="155" d="M560.5497,1129.26 C577.8627,1129.26 595.2018,1129.26 612.0189,1129.26 " fill="none" id="CreateTestControler-to-CategoryMapper" style="stroke:#A80036;stroke-width:0.87;stroke-dasharray:7.0,7.0;"/><polygon fill="#A80036" points="616.7517,1129.26,608.9217,1125.78,612.4017,1129.26,608.9217,1132.74,616.7517,1129.26" style="stroke:#A80036;stroke-width:0.87;"/><!--MD5=[08b46ea753435d83600a12592d428521]
link CreateTestControler to CategoryDto--><path codeLine="156" d="M413.9286,1180.3029 C456.2715,1224.7425 523.7922,1287.0345 595.95,1319.79 C774.4218,1400.8131 1010.7921,1412.5668 1123.7442,1413.0975 " fill="none" id="CreateTestControler-to-CategoryDto" style="stroke:#A80036;stroke-width:0.87;stroke-dasharray:7.0,7.0;"/><polygon fill="#A80036" points="1128.3726,1413.1149,1120.5526,1409.6125,1124.0226,1413.1025,1120.5327,1416.5725,1128.3726,1413.1149" style="stroke:#A80036;stroke-width:0.87;"/><!--MD5=[4e2eaaaa924769a5915195a82e4b50b3]
link CreateTestControler to ParameterMapper--><path codeLine="157" d="M560.5497,1176.9099 C582.6042,1182.3996 604.7109,1187.8893 625.7214,1193.1093 " fill="none" id="CreateTestControler-to-ParameterMapper" style="stroke:#A80036;stroke-width:0.87;stroke-dasharray:7.0,7.0;"/><polygon fill="#A80036" points="630.1845,1194.2229,623.4213,1188.9618,625.9622,1193.1767,621.7474,1195.7175,630.1845,1194.2229" style="stroke:#A80036;stroke-width:0.87;"/><!--MD5=[5198f3041045b9988aed843607ceac3f]
link CreateTestControler to ParameterDTO--><path codeLine="158" d="M395.7456,1180.2768 C432.1899,1244.1957 503.5038,1352.1888 595.95,1408.53 C731.061,1490.8929 912.1167,1519.4202 1038.5538,1528.9467 " fill="none" id="CreateTestControler-to-ParameterDTO" style="stroke:#A80036;stroke-width:0.87;stroke-dasharray:7.0,7.0;"/><polygon fill="#A80036" points="1043.0256,1529.2773,1035.4758,1525.2252,1038.6876,1528.9541,1034.9587,1532.166,1043.0256,1529.2773" style="stroke:#A80036;stroke-width:0.87;"/><!--MD5=[d436aa16cf3879d6ad396285eddf41c1]
link CreateTestControler to TestTypeMapper--><path codeLine="159" d="M560.5497,1081.6188 C584.9532,1075.5462 609.4089,1069.4649 632.3856,1063.7577 " fill="none" id="CreateTestControler-to-TestTypeMapper" style="stroke:#A80036;stroke-width:0.87;stroke-dasharray:7.0,7.0;"/><polygon fill="#A80036" points="636.6573,1062.6963,628.216,1061.2251,632.4379,1063.7543,629.9088,1067.9761,636.6573,1062.6963" style="stroke:#A80036;stroke-width:0.87;"/><!--MD5=[a728a1c0b6f50bd0e8c130b0563a2e8d]
link CreateTestControler to TestTypeDTO--><path codeLine="160" d="M429.4407,1180.2681 C472.7928,1213.4238 534.1887,1253.8962 595.95,1272.81 C737.6295,1316.2143 907.3143,1316.6319 1028.8707,1308.654 " fill="none" id="CreateTestControler-to-TestTypeDTO" style="stroke:#A80036;stroke-width:0.87;stroke-dasharray:7.0,7.0;"/><polygon fill="#A80036" points="1033.5339,1308.3408,1025.4842,1305.4046,1029.1941,1308.6384,1025.9603,1312.3483,1033.5339,1308.3408" style="stroke:#A80036;stroke-width:0.87;"/><!--MD5=[b89d522ccf9caf95dbbde9769ba39561]
link CreateTestControler to ParameterStore--><path codeLine="161" d="M403.7148,1078.278 C443.7783,1023.5637 514.5876,938.0601 595.95,890.01 C676.9905,842.1513 947.778,857.1675 1005.72,783 C1016.4471,769.2714 1002.0138,169.5108 1012.68,155.73 C1021.2408,144.6723 1032.081,135.9984 1044.1566,129.2298 " fill="none" id="CreateTestControler-to-ParameterStore" style="stroke:#A80036;stroke-width:0.87;stroke-dasharray:7.0,7.0;"/><polygon fill="#A80036" points="1048.2978,127.0026,1039.7532,127.6425,1044.4658,129.0612,1043.047,133.7738,1048.2978,127.0026" style="stroke:#A80036;stroke-width:0.87;"/><!--MD5=[3bbb6c5b03dfc4e682128937e80c1ca1]
link CreateTestControler to TestTypeStore--><path codeLine="162" d="M417.3651,1077.9996 C460.4214,1035.3957 527.0373,976.2966 595.95,941.34 C679.7136,898.8579 947.5605,911.5599 1005.72,837.81 C1025.4168,812.841 993.6618,290.841 1012.68,265.35 C1021.9803,252.8916 1034.082,243.1737 1047.6018,235.6221 " fill="none" id="CreateTestControler-to-TestTypeStore" style="stroke:#A80036;stroke-width:0.87;stroke-dasharray:7.0,7.0;"/><polygon fill="#A80036" points="1051.4472,233.5515,1042.9035,234.203,1047.6179,235.6153,1046.2056,240.3298,1051.4472,233.5515" style="stroke:#A80036;stroke-width:0.87;"/><!--MD5=[0a261a9b138dfe2e0bcc9eaa6466be5e]
link CreateTestControler to TestStore--><path codeLine="163" d="M435.2262,1078.365 C478.761,1047.2973 538.1472,1009.1652 595.95,985.71 C682.1757,950.7273 946.5513,971.3985 1005.72,899.58 C1022.5632,879.135 999.0471,445.5357 1012.68,422.82 C1024.9818,402.3315 1043.2779,385.8363 1063.4967,372.6732 " fill="none" id="CreateTestControler-to-TestStore" style="stroke:#A80036;stroke-width:0.87;stroke-dasharray:7.0,7.0;"/><polygon fill="#A80036" points="1067.2899,370.2546,1058.8165,371.528,1063.6215,372.5924,1062.5571,377.3974,1067.2899,370.2546" style="stroke:#A80036;stroke-width:0.87;"/><!--MD5=[3eebf0e5f359806b77b30e9524c37676]
link TestTypeStore to TestType--><path codeLine="164" d="M1328.5683,245.1747 C1342.236,250.9602 1355.5122,257.6505 1367.64,265.35 C1459.5729,323.7792 1538.3514,427.3527 1577.0316,483.7026 " fill="none" id="TestTypeStore-TestType" style="stroke:#A80036;stroke-width:0.87;"/><polygon fill="#000000" points="1417.758,265.9055,1413.852,258.6113,1410.3106,262.3002,1417.758,265.9055" style="stroke:#000000;stroke-width:0.87;"/><text fill="#000000" font-family="sans-serif" font-size="11.31" lengthAdjust="spacing" textLength="31.32" x="1422.45" y="267.5208">stores</text><text fill="#000000" font-family="sans-serif" font-size="11.31" lengthAdjust="spacing" textLength="6.09" x="1335.4199" y="258.948">1</text><text fill="#000000" font-family="sans-serif" font-size="11.31" lengthAdjust="spacing" textLength="4.35" x="1568.1309" y="474.2303">*</text><!--MD5=[b0f4f6db8206580012ef9cd998ed01c5]
link TestStore to Test--><path codeLine="165" d="M1057.6068,370.2894 C1008.1299,395.8239 966.9093,433.0077 980.925,483.72 C999.2211,549.9357 1075.7202,585.6144 1130.9304,603.1275 " fill="none" id="TestStore-Test" style="stroke:#A80036;stroke-width:0.87;"/><polygon fill="#000000" points="950.0416,480.1921,950.1167,471.9182,945.2391,473.4542,950.0416,480.1921" style="stroke:#000000;stroke-width:0.87;"/><text fill="#000000" font-family="sans-serif" font-size="11.31" lengthAdjust="spacing" textLength="31.32" x="956.565" y="480.6708">stores</text><text fill="#000000" font-family="sans-serif" font-size="11.31" lengthAdjust="spacing" textLength="6.09" x="1033.2958" y="389.0006">1</text><text fill="#000000" font-family="sans-serif" font-size="11.31" lengthAdjust="spacing" textLength="4.35" x="1119.8643" y="614.0516">*</text><!--MD5=[a0992dda039fed1bb57aff5aacace800]
link ParameterStore to Parameter--><path codeLine="166" d="M1324.0791,141.027 C1469.517,184.701 1697.2482,276.4599 1813.08,444.57 C1844.487,490.158 1809.2433,519.8076 1839.18,566.37 C1845.7311,576.5664 1855.2663,585.3534 1865.0016,592.5222 " fill="none" id="ParameterStore-Parameter" style="stroke:#A80036;stroke-width:0.87;"/><polygon fill="#000000" points="1588.9146,210.0004,1584.5117,202.9949,1581.2348,206.9208,1588.9146,210.0004" style="stroke:#000000;stroke-width:0.87;"/><text fill="#000000" font-family="sans-serif" font-size="11.31" lengthAdjust="spacing" textLength="31.32" x="1593.405" y="211.8408">stores</text><text fill="#000000" font-family="sans-serif" font-size="11.31" lengthAdjust="spacing" textLength="6.09" x="1338.8472" y="159.2069">1</text><text fill="#000000" font-family="sans-serif" font-size="11.31" lengthAdjust="spacing" textLength="4.35" x="1854.0211" y="585.8341">*</text><!--MD5=[daf3d7412afa2c7651483be0b6e971d1]
link Company to ParameterStore--><path codeLine="167" d="M780.2856,437.0706 C816.8256,365.0085 898.8492,224.6775 1012.68,155.73 C1023.7551,149.0223 1035.7785,143.2455 1048.1673,138.2604 " fill="none" id="Company-ParameterStore" style="stroke:#A80036;stroke-width:0.87;"/><polygon fill="#000000" points="955.1187,150.904,947.962,155.0565,951.7697,158.4701,955.1187,150.904" style="stroke:#000000;stroke-width:0.87;"/><text fill="#000000" font-family="sans-serif" font-size="11.31" lengthAdjust="spacing" textLength="24.36" x="960.045" y="158.7708">uses</text><text fill="#000000" font-family="sans-serif" font-size="11.31" lengthAdjust="spacing" textLength="6.09" x="776.8725" y="427.5977">1</text><text fill="#000000" font-family="sans-serif" font-size="11.31" lengthAdjust="spacing" textLength="6.09" x="1035.5053" y="151.7065">1</text><!--MD5=[141c3afa12b2b3c0a39ffce56dbd5f19]
link Company to TestTypeStore--><path codeLine="168" d="M800.4957,437.0358 C847.5975,388.3767 928.8903,311.5557 1012.68,265.35 C1024.9818,258.5727 1038.2319,252.5088 1051.7517,247.1148 " fill="none" id="Company-TestTypeStore" style="stroke:#A80036;stroke-width:0.87;"/><polygon fill="#000000" points="955.6852,260.2699,947.8658,262.9753,950.9494,267.0547,955.6852,260.2699" style="stroke:#000000;stroke-width:0.87;"/><text fill="#000000" font-family="sans-serif" font-size="11.31" lengthAdjust="spacing" textLength="24.36" x="960.045" y="267.5208">uses</text><text fill="#000000" font-family="sans-serif" font-size="11.31" lengthAdjust="spacing" textLength="6.09" x="799.6793" y="427.8824">1</text><text fill="#000000" font-family="sans-serif" font-size="11.31" lengthAdjust="spacing" textLength="6.09" x="1038.8101" y="260.982">1</text><!--MD5=[7f6cf7f175eae0af66201860de5de971]
link Company to TestStore--><path codeLine="169" d="M808.8477,463.8666 C871.3311,441.1248 980.6814,401.3136 1066.1589,370.2024 " fill="none" id="Company-TestStore" style="stroke:#A80036;stroke-width:0.87;"/><polygon fill="#000000" points="956.3026,385.815,948.0335,386.1041,949.7826,390.9093,956.3026,385.815" style="stroke:#000000;stroke-width:0.87;"/><text fill="#000000" font-family="sans-serif" font-size="11.31" lengthAdjust="spacing" textLength="24.36" x="960.045" y="391.9308">uses</text><text fill="#000000" font-family="sans-serif" font-size="11.31" lengthAdjust="spacing" textLength="6.09" x="815.7264" y="458.4753">1</text><text fill="#000000" font-family="sans-serif" font-size="11.31" lengthAdjust="spacing" textLength="6.09" x="1042.203" y="389.2255">1</text><!--MD5=[5b7a9ded131023be416e27d15bcd6d77]
link TestType to Parameter--><path codeLine="170" d="M1661.2737,540.27 C1721.0601,558.5139 1813.3671,586.6932 1865.0799,602.475 " fill="none" id="TestType-Parameter" style="stroke:#A80036;stroke-width:0.87;"/><polygon fill="#000000" points="1725.0205,552.1328,1718.2405,547.3901,1716.7477,552.2811,1725.0205,552.1328" style="stroke:#000000;stroke-width:0.87;"/><text fill="#000000" font-family="sans-serif" font-size="11.31" lengthAdjust="spacing" textLength="83.52" x="1728.69" y="555.4908">characterized by</text><text fill="#000000" font-family="sans-serif" font-size="11.31" lengthAdjust="spacing" textLength="6.09" x="1668.3163" y="554.8698">1</text><text fill="#000000" font-family="sans-serif" font-size="11.31" lengthAdjust="spacing" textLength="17.4" x="1840.9229" y="613.5945">1..*</text><!--MD5=[742a261f27a3dcd734c626287d811acd]
link Company to TestType--><path codeLine="171" d="M808.7955,484.6074 C842.3079,486.3561 887.5218,488.7051 927.42,490.68 C1156.3953,502.0596 1429.0968,514.8225 1545.4071,520.2252 " fill="none" id="Company-TestType" style="stroke:#A80036;stroke-width:0.87;"/><polygon fill="#000000" points="1169.2749,488.433,1161.5384,485.4991,1161.2914,490.6068,1169.2749,488.433" style="stroke:#000000;stroke-width:0.87;"/><text fill="#000000" font-family="sans-serif" font-size="11.31" lengthAdjust="spacing" textLength="46.11" x="1172.76" y="492.8508">conducts</text><text fill="#000000" font-family="sans-serif" font-size="11.31" lengthAdjust="spacing" textLength="6.09" x="815.6675" y="481.8735">1</text><text fill="#000000" font-family="sans-serif" font-size="11.31" lengthAdjust="spacing" textLength="4.35" x="1534.099" y="532.5073">*</text><!--MD5=[7e4bc624457760b649895ff2ead938fa]
link Company to Test--><path codeLine="172" d="M808.8477,497.6835 C888.8007,522.9048 1045.5051,572.3469 1130.7216,599.2299 " fill="none" id="Company-Test" style="stroke:#A80036;stroke-width:0.87;"/><polygon fill="#000000" points="945.4884,529.5517,938.7531,524.7457,937.2146,529.6225,945.4884,529.5517" style="stroke:#000000;stroke-width:0.87;"/><text fill="#000000" font-family="sans-serif" font-size="11.31" lengthAdjust="spacing" textLength="46.11" x="949.17" y="532.8708">conducts</text><text fill="#000000" font-family="sans-serif" font-size="11.31" lengthAdjust="spacing" textLength="6.09" x="815.7264" y="512.3284">1</text><text fill="#000000" font-family="sans-serif" font-size="11.31" lengthAdjust="spacing" textLength="4.35" x="1119.6326" y="594.2852">*</text><!--MD5=[12d76240d3c3c66074d4ec2ea8bf469c]
link Company to Parameter--><path codeLine="173" d="M808.6737,472.0359 C949.6572,445.7097 1363.6032,381.9213 1690.41,468.06 C1750.6575,483.9462 1764.7776,496.5612 1813.08,535.92 C1826.8956,547.1865 1826.1474,554.2161 1839.18,566.37 C1847.1231,573.7824 1856.2059,581.1165 1864.9842,587.7372 " fill="none" id="Company-Parameter" style="stroke:#A80036;stroke-width:0.87;"/><polygon fill="#000000" points="1383.2741,419.0966,1375.7301,415.6981,1375.1733,420.7814,1383.2741,419.0966" style="stroke:#000000;stroke-width:0.87;"/><text fill="#000000" font-family="sans-serif" font-size="11.31" lengthAdjust="spacing" textLength="102.66" x="1386.78" y="423.2508">capable of analysing</text><text fill="#000000" font-family="sans-serif" font-size="11.31" lengthAdjust="spacing" textLength="6.09" x="815.5301" y="467.6912">1</text><text fill="#000000" font-family="sans-serif" font-size="11.31" lengthAdjust="spacing" textLength="4.35" x="1854.0009" y="596.425">*</text><!--MD5=[e981d4f96c4342412d1e68160b30cf70]
link Test to TestType--><path codeLine="174" d="M1249.3374,604.2672 C1328.0463,586.1277 1467.4116,554.016 1545.4767,536.0244 " fill="none" id="Test-TestType" style="stroke:#A80036;stroke-width:0.87;"/><polygon fill="#000000" points="1403.1989,542.9261,1394.9565,542.2016,1396.1048,547.1848,1403.1989,542.9261" style="stroke:#000000;stroke-width:0.87;"/><text fill="#000000" font-family="sans-serif" font-size="11.31" lengthAdjust="spacing" textLength="62.64" x="1406.79" y="548.5308">classified as</text><text fill="#000000" font-family="sans-serif" font-size="11.31" lengthAdjust="spacing" textLength="4.35" x="1256.4313" y="615.2764">*</text><text fill="#000000" font-family="sans-serif" font-size="11.31" lengthAdjust="spacing" textLength="6.09" x="1532.3361" y="550.1333">1</text><!--MD5=[f24c888dadeb846430474fe80a58922b]
link Test to TestParameter--><path codeLine="175" d="M1249.3374,629.9061 C1318.9548,644.4786 1436.0307,668.9778 1516.1664,685.7514 " fill="none" id="Test-TestParameter" style="stroke:#A80036;stroke-width:0.87;"/><polygon fill="#000000" points="1384.0777,651.804,1376.8992,647.6894,1375.8516,652.6946,1384.0777,651.804" style="stroke:#000000;stroke-width:0.87;"/><text fill="#000000" font-family="sans-serif" font-size="11.31" lengthAdjust="spacing" textLength="100.92" x="1387.65" y="655.5408">requests analysis of</text><text fill="#000000" font-family="sans-serif" font-size="11.31" lengthAdjust="spacing" textLength="6.09" x="1256.143" y="643.7591">1</text><text fill="#000000" font-family="sans-serif" font-size="11.31" lengthAdjust="spacing" textLength="17.4" x="1492.0204" y="696.7261">1..*</text><!--MD5=[92e8e476cc9e9004a7125f53a120ec97]
link TestParameter to Parameter--><path codeLine="176" d="M1690.4448,678.0345 C1748.1171,660.765 1821.2406,638.8758 1865.106,625.7388 " fill="none" id="TestParameter-Parameter" style="stroke:#A80036;stroke-width:0.87;"/><polygon fill="#000000" points="1746.3422,634.8752,1738.0703,634.6829,1739.537,639.5818,1746.3422,634.8752" style="stroke:#000000;stroke-width:0.87;"/><text fill="#000000" font-family="sans-serif" font-size="11.31" lengthAdjust="spacing" textLength="40.89" x="1750.005" y="640.7508">refers to</text><text fill="#000000" font-family="sans-serif" font-size="11.31" lengthAdjust="spacing" textLength="4.35" x="1697.2749" y="688.3503">*</text><text fill="#000000" font-family="sans-serif" font-size="11.31" lengthAdjust="spacing" textLength="6.09" x="1852.2634" y="640.4831">1</text><!--MD5=[0e00e25ac6b8c14659aaff2cf7e5df08]
link TestParameter to TestParameterResult--><path codeLine="177" d="M1690.4448,709.3458 C1737.8424,712.3734 1795.68,716.0709 1839.1278,718.8549 " fill="none" id="TestParameter-TestParameterResult" style="stroke:#A80036;stroke-width:0.87;"/><polygon fill="#000000" points="1745.6461,704.2606,1737.9561,701.2067,1737.6298,706.31,1745.6461,704.2606" style="stroke:#000000;stroke-width:0.87;"/><text fill="#000000" font-family="sans-serif" font-size="11.31" lengthAdjust="spacing" textLength="42.63" x="1749.135" y="708.6108">contains</text><text fill="#000000" font-family="sans-serif" font-size="11.31" lengthAdjust="spacing" textLength="6.09" x="1697.3415" y="722.0589">1</text><text fill="#000000" font-family="sans-serif" font-size="11.31" lengthAdjust="spacing" textLength="19.14" x="1813.0855" y="730.8918">0..1</text><!--MD5=[b72ac8ab7fb5921fceb5036a3902baea]
link Test to Sample--><path codeLine="178" d="M1249.3374,617.9523 C1337.4684,618.3264 1501.6461,619.0137 1570.6719,619.3095 " fill="none" id="Test-Sample" style="stroke:#A80036;stroke-width:0.87;"/><polygon fill="#000000" points="1415.055,610.9113,1407.1966,608.3212,1407.175,613.4349,1415.055,610.9113" style="stroke:#000000;stroke-width:0.87;"/><text fill="#000000" font-family="sans-serif" font-size="11.31" lengthAdjust="spacing" textLength="39.15" x="1418.535" y="615.5208">collects</text><text fill="#000000" font-family="sans-serif" font-size="11.31" lengthAdjust="spacing" textLength="6.09" x="1256.143" y="630.4979">1</text><text fill="#000000" font-family="sans-serif" font-size="11.31" lengthAdjust="spacing" textLength="17.4" x="1546.4087" y="632.2185">1..*</text><!--MD5=[6df8849671cb880f6936e94aa30db6f9]
link Parameter to ParameterCategory--><path codeLine="180" d="M1943.7192,614.22 C1988.5851,614.22 2063.3181,614.22 2115.7617,614.22 " fill="none" id="Parameter-ParameterCategory" style="stroke:#A80036;stroke-width:0.87;"/><polygon fill="#000000" points="2004.48,606.5429,1996.6108,603.9861,1996.6108,609.0998,2004.48,606.5429" style="stroke:#000000;stroke-width:0.87;"/><text fill="#000000" font-family="sans-serif" font-size="11.31" lengthAdjust="spacing" textLength="80.91" x="2007.96" y="611.1708">presented under</text><text fill="#000000" font-family="sans-serif" font-size="11.31" lengthAdjust="spacing" textLength="4.35" x="1950.5867" y="627.1743">*</text><text fill="#000000" font-family="sans-serif" font-size="11.31" lengthAdjust="spacing" textLength="6.09" x="2102.7167" y="626.7543">1</text><!--MD5=[8aaf0efd5e2f3824be7ea3e488dcc283]
link TestType to ParameterCategory--><path codeLine="181" d="M1661.3346,525.1059 C1703.3643,527.0721 1761.8805,530.4912 1813.08,535.92 C1883.0628,543.3411 1900.7673,545.1159 1969.68,559.41 C2019.357,569.7195 2074.9065,584.7357 2115.7617,596.4372 " fill="none" id="TestType-ParameterCategory" style="stroke:#A80036;stroke-width:0.87;"/><polygon fill="#000000" points="1864.7924,532.3975,1857.4148,528.6513,1856.6219,533.7031,1864.7924,532.3975" style="stroke:#000000;stroke-width:0.87;"/><text fill="#000000" font-family="sans-serif" font-size="11.31" lengthAdjust="spacing" textLength="83.52" x="1868.325" y="536.3508">characterized by</text><text fill="#000000" font-family="sans-serif" font-size="11.31" lengthAdjust="spacing" textLength="6.09" x="1668.3842" y="537.9524">1</text><text fill="#000000" font-family="sans-serif" font-size="11.31" lengthAdjust="spacing" textLength="17.4" x="2091.5456" y="607.1417">1..*</text><!--MD5=[63d25d625ab355317a074a623d33bba8]
link Report to Test--><path codeLine="182" d="M788.307,581.2122 C858.4725,587.598 1037.4924,603.8931 1130.7738,612.3756 " fill="none" id="Report-Test" style="stroke:#A80036;stroke-width:0.87;"/><polygon fill="#000000" points="958.2871,586.9271,950.682,583.6677,950.2185,588.7604,958.2871,586.9271" style="stroke:#000000;stroke-width:0.87;"/><text fill="#000000" font-family="sans-serif" font-size="11.31" lengthAdjust="spacing" textLength="20.88" x="961.785" y="591.1608">is of</text><text fill="#000000" font-family="sans-serif" font-size="11.31" lengthAdjust="spacing" textLength="6.09" x="795.1436" y="594.9691">1</text><text fill="#000000" font-family="sans-serif" font-size="11.31" lengthAdjust="spacing" textLength="6.09" x="1117.8554" y="624.3112">1</text><!--MD5=[1ea40c2fd127caf59eae45660cf2eb0b]
@startuml
skinparam classAttributeIconSize 0
left to right direction


package UI <<Folder>> {
  class CreateTestUI{
  }
}


package Domain <<Folder>> {
    package Model <<Folder>> {
        class Report{}
        class TestParameter{
            +TestParameter(parameter: Parameter)
        }
        class TestParameterResult{
        - createdAt
        - value
        - metric
        }
        class TestType {
        - code : String
        - description : String
        - collectingMethod : String
        }

        class Test{
            - code
            - NhsCode
            - dateOfTestRegistration
            - dateOfSamplesCollection
            - dateOfChemicalAnalysis
            - dateOfDiagnosis
        }

        class Sample{
            - barCode
        }

        class Parameter {
          -code
          -shortName
          -description
        }

        class Company {
            -designation : String
            +getTestTypeStore()
            +getParameterStore()
            +getTestStore()
        }

        class ParameterCategory{
            -code
            -name
        }
        class Client{
        - name
        - citizenCardNum
        - nhsNum
        - birthDate
        - sex
        - taxIdNum
        - phoneNum
        - email
        }

    }
    package Stores <<Folder>> {
        class ParameterStore {
            +getParamsByCategories(List<String> selectedCategoriesCodes)
            +getParamsByCategory(String category)
        }

        class TestTypeStore {
               +getTestTypes()
               +getTestTypeByCode(String code)
               +getCategoriesByTestTypeCode(String selectedTestTypeCode)
            }

        class TestStore {
            +createTest(String NHScode, Client associatedClient,\n TestType selectedTestType, List<Parameter>selectedParamsList)
            +validateTest(test)
            +saveTest(test)
        }

    }
}

package Controller <<Folder>>{
    class CreateTestControler{
    +createTest(NHScode, citizenCardNumber,selectedTestTypeCode, selectedParamCodes)
    +saveTest(test)
    +getTestTypes() : TestTypeDTO
    +getCategoriesListOfTestType(selectedTestTypeCode): CategoriesDTO
    +getParametersOfCategories(selectedCategoriesCodes): ParametersDTO
    }
}

package DTO <<Folder>>{
    class TestTypeDTO {
    -code
    -description
    -collectingMethod
    -List<Category> selectedCategories
    +TestTypeDTO(code, description, collectingMethod, selectedCategories)
    }

    class CategoryDto {
    -code
    -name
    +CategoryDto(code, name)
    }

    class ParameterDTO {
    -code
    -shortName
    -description
    -ParameterCategory
    +ParameterDTO(code, shortName, description, ParameterCategory)'
    }

}

package Mappers <<Folder>>{
    class TestTypeMapper {
        +List<TestTypeDTO> toDTO(List<TestType> testTypes)
        +TestTypeDTO toDTO(TestType tt)
    }
    class CategoryMapper{
        +List<CategoryDto> toDTO(List<Category> parameterCategories)
        +CategoryDto toDTO(Category category)
    }
    class ParameterMapper {
        +List<ParameterDTO> toDTO(List<Parameter> parameters)
        +ParameterDTO toDTO(Parameter parameter)
    }

}

Client -[hidden]-|> Test

CreateTestUI ..> CreateTestControler
CreateTestUI ..> CategoryDto
CreateTestUI ..> ParameterDTO
CreateTestUI ..> TestTypeDTO
CategoryMapper ..> CategoryDto
CategoryMapper ..> ParameterCategory
ParameterMapper ..> ParameterDTO
ParameterMapper ..> Parameter
TestTypeMapper ..> TestTypeDTO
TestTypeMapper ..> TestType
CreateTestControler ..> Company
CreateTestControler ..> CategoryMapper
CreateTestControler ..> CategoryDto
CreateTestControler ..> ParameterMapper
CreateTestControler ..> ParameterDTO
CreateTestControler ..> TestTypeMapper
CreateTestControler ..> TestTypeDTO
CreateTestControler ..> ParameterStore
CreateTestControler ..> TestTypeStore
CreateTestControler ..> TestStore
TestTypeStore "1" - - "*" TestType : stores >
TestStore "1" - - "*" Test : stores >
ParameterStore "1" - - "*" Parameter : stores >
Company "1" - - "1" ParameterStore : uses >
Company "1" - - "1" TestTypeStore : uses >
Company "1" - - "1" TestStore : uses >
TestType "1" - - "1..*" Parameter : characterized by >
Company "1" - - "*" TestType : conducts >
Company "1" - - "*" Test : conducts >
Company "1" - - "*" Parameter : capable of analysing >
Test "*" - - "1" TestType : classified as >
Test "1" - - "1..*" TestParameter : requests analysis of >
TestParameter "*" - - "1" Parameter : refers to >
TestParameter "1" - - "0..1" TestParameterResult : contains >
Test "1" - - "1..*" Sample : collects >
Client "1" - - "1" Test : requested by <
Parameter "*" - - "1" ParameterCategory: presented under >
TestType "1" - - "1..*" ParameterCategory : characterized by >
Report "1" - - "1" Test : is of >

@enduml

PlantUML version 1.2021.00(Sun Jan 10 10:25:05 GMT 2021)
(GPL source distribution)
Java Runtime: OpenJDK Runtime Environment
JVM: OpenJDK 64-Bit Server VM
Default Encoding: Cp1252
Language: pt
Country: BR
--></g></svg>