<?xml version="1.0" encoding="UTF-8" standalone="no"?><svg xmlns="http://www.w3.org/2000/svg" xmlns:xlink="http://www.w3.org/1999/xlink" contentScriptType="application/ecmascript" contentStyleType="text/css" height="267.96px" preserveAspectRatio="none" style="width:804px;height:267px;" version="1.1" viewBox="0 0 804 267" width="804.75px" zoomAndPan="magnify"><defs><filter height="300%" id="freu42n4c3dth" width="300%" x="-1" y="-1"><feGaussianBlur result="blurOut" stdDeviation="1.74"/><feColorMatrix in="blurOut" result="blurOut2" type="matrix" values="0 0 0 0 0 0 0 0 0 0 0 0 0 0 0 0 0 0 .4 0"/><feOffset dx="3.48" dy="3.48" in="blurOut2" result="blurOut3"/><feBlend in="SourceGraphic" in2="blurOut3" mode="normal"/></filter></defs><g><!--MD5=[df38be88ccee13e832d6fafd6288a4ca]
class Test--><rect codeLine="7" fill="#FEFECE" filter="url(#freu42n4c3dth)" height="70.9118" id="Test" style="stroke:#A80036;stroke-width:1.305;" width="55.68" x="202.71" y="83.52"/><ellipse cx="218.892" cy="97.44" fill="#ADD1B2" rx="9.57" ry="9.57" style="stroke:#A80036;stroke-width:0.87;"/><path d="M220.632,94.395 Q220.8087,93.96 221.0126,93.7425 Q221.2165,93.525 221.4476,93.525 Q221.8554,93.525 222.1137,93.7697 Q222.372,94.0144 222.372,94.5853 L222.372,95.9447 Q222.372,96.5156 222.1273,96.7603 Q221.8826,97.005 221.502,97.005 Q221.1622,97.005 220.9447,96.8555 Q220.7272,96.7059 220.632,96.3117 Q220.5912,96.0398 220.4417,95.8903 Q220.1698,95.6048 219.6804,95.4417 Q219.1911,95.265 218.7017,95.265 Q218.09,95.265 217.5734,95.5097 Q217.0704,95.7544 216.6762,96.2981 Q216.282,96.8419 216.282,97.5895 L216.282,98.3916 Q216.282,99.2888 217.0161,99.8869 Q217.7501,100.485 219.0551,100.485 Q219.83,100.485 220.3737,100.3083 Q220.6864,100.2131 221.0398,99.9005 Q221.2709,99.7238 221.3933,99.6694 Q221.5156,99.615 221.6651,99.615 Q221.9506,99.615 222.1545,99.8461 Q222.372,100.0636 222.372,100.3763 Q222.372,100.6753 222.0729,101.0288 Q221.6379,101.5453 220.9447,101.8308 Q220.0339,102.225 218.9192,102.225 Q217.6142,102.225 216.5675,101.7084 Q215.7247,101.3006 215.1265,100.417 Q214.542,99.5334 214.542,98.4867 L214.542,97.5352 Q214.542,96.4477 215.0586,95.4961 Q215.5887,94.5445 216.4995,94.0416 Q217.4239,93.525 218.457,93.525 Q219.0823,93.525 219.6261,93.7425 Q220.1698,93.96 220.632,94.395 Z " fill="#000000"/><text fill="#000000" font-family="sans-serif" font-size="10.44" lengthAdjust="spacing" textLength="20.88" x="231.768" y="101.7118">Test</text><line style="stroke:#A80036;stroke-width:1.305;" x1="203.58" x2="257.52" y1="111.36" y2="111.36"/><text fill="#000000" font-family="sans-serif" font-size="9.57" lengthAdjust="spacing" textLength="24.36" x="207.93" y="124.7745">-code</text><text fill="#000000" font-family="sans-serif" font-size="9.57" lengthAdjust="spacing" textLength="41.76" x="207.93" y="136.8117">-NhsCode</text><text fill="#000000" font-family="sans-serif" font-size="9.57" lengthAdjust="spacing" textLength="45.24" x="207.93" y="148.849">-createdAt</text><!--MD5=[36afb6bbd95a8ac778c4537c55a683d5]
class ParameterCategory--><rect codeLine="13" fill="#FEFECE" filter="url(#freu42n4c3dth)" height="58.8745" id="ParameterCategory" style="stroke:#A80036;stroke-width:1.305;" width="120.93" x="671.64" y="140.94"/><ellipse cx="684.69" cy="154.86" fill="#ADD1B2" rx="9.57" ry="9.57" style="stroke:#A80036;stroke-width:0.87;"/><path d="M686.43,151.815 Q686.6067,151.38 686.8106,151.1625 Q687.0145,150.945 687.2456,150.945 Q687.6534,150.945 687.9117,151.1897 Q688.17,151.4344 688.17,152.0053 L688.17,153.3647 Q688.17,153.9356 687.9253,154.1803 Q687.6806,154.425 687.3,154.425 Q686.9602,154.425 686.7427,154.2755 Q686.5252,154.1259 686.43,153.7317 Q686.3892,153.4598 686.2397,153.3103 Q685.9678,153.0248 685.4784,152.8617 Q684.9891,152.685 684.4997,152.685 Q683.888,152.685 683.3714,152.9297 Q682.8684,153.1744 682.4742,153.7181 Q682.08,154.2619 682.08,155.0095 L682.08,155.8116 Q682.08,156.7088 682.8141,157.3069 Q683.5481,157.905 684.8531,157.905 Q685.628,157.905 686.1717,157.7283 Q686.4844,157.6331 686.8378,157.3205 Q687.0689,157.1438 687.1913,157.0894 Q687.3136,157.035 687.4631,157.035 Q687.7486,157.035 687.9525,157.2661 Q688.17,157.4836 688.17,157.7963 Q688.17,158.0953 687.8709,158.4488 Q687.4359,158.9653 686.7427,159.2508 Q685.8319,159.645 684.7172,159.645 Q683.4122,159.645 682.3655,159.1284 Q681.5227,158.7206 680.9245,157.837 Q680.34,156.9534 680.34,155.9067 L680.34,154.9552 Q680.34,153.8677 680.8566,152.9161 Q681.3867,151.9645 682.2975,151.4616 Q683.2219,150.945 684.255,150.945 Q684.8803,150.945 685.4241,151.1625 Q685.9678,151.38 686.43,151.815 Z " fill="#000000"/><text fill="#000000" font-family="sans-serif" font-size="10.44" lengthAdjust="spacing" textLength="93.09" x="696.87" y="159.1318">ParameterCategory</text><line style="stroke:#A80036;stroke-width:1.305;" x1="672.51" x2="791.7" y1="168.78" y2="168.78"/><text fill="#000000" font-family="sans-serif" font-size="9.57" lengthAdjust="spacing" textLength="24.36" x="676.86" y="182.1945">-code</text><text fill="#000000" font-family="sans-serif" font-size="9.57" lengthAdjust="spacing" textLength="26.1" x="676.86" y="194.2317">-name</text><!--MD5=[03960189e81aa2c066c762ffabbee709]
class Receptionist--><rect codeLine="18" fill="#FEFECE" filter="url(#freu42n4c3dth)" height="27.84" id="Receptionist" style="stroke:#A80036;stroke-width:1.305;" width="87.87" x="6.09" y="105.27"/><ellipse cx="19.14" cy="119.19" fill="#ADD1B2" rx="9.57" ry="9.57" style="stroke:#A80036;stroke-width:0.87;"/><path d="M20.88,116.145 Q21.0567,115.71 21.2606,115.4925 Q21.4645,115.275 21.6956,115.275 Q22.1034,115.275 22.3617,115.5197 Q22.62,115.7644 22.62,116.3353 L22.62,117.6947 Q22.62,118.2656 22.3753,118.5103 Q22.1306,118.755 21.75,118.755 Q21.4102,118.755 21.1927,118.6055 Q20.9752,118.4559 20.88,118.0617 Q20.8392,117.7898 20.6897,117.6403 Q20.4178,117.3548 19.9284,117.1917 Q19.4391,117.015 18.9497,117.015 Q18.338,117.015 17.8214,117.2597 Q17.3184,117.5044 16.9242,118.0481 Q16.53,118.5919 16.53,119.3395 L16.53,120.1416 Q16.53,121.0388 17.2641,121.6369 Q17.9981,122.235 19.3031,122.235 Q20.078,122.235 20.6217,122.0583 Q20.9344,121.9631 21.2878,121.6505 Q21.5189,121.4738 21.6413,121.4194 Q21.7636,121.365 21.9131,121.365 Q22.1986,121.365 22.4025,121.5961 Q22.62,121.8136 22.62,122.1263 Q22.62,122.4253 22.3209,122.7788 Q21.8859,123.2953 21.1927,123.5808 Q20.2819,123.975 19.1672,123.975 Q17.8622,123.975 16.8155,123.4584 Q15.9727,123.0506 15.3745,122.167 Q14.79,121.2834 14.79,120.2367 L14.79,119.2852 Q14.79,118.1977 15.3066,117.2461 Q15.8367,116.2945 16.7475,115.7916 Q17.6719,115.275 18.705,115.275 Q19.3303,115.275 19.8741,115.4925 Q20.4178,115.71 20.88,116.145 Z " fill="#000000"/><text fill="#000000" font-family="sans-serif" font-size="10.44" lengthAdjust="spacing" textLength="60.03" x="31.32" y="123.4618">Receptionist</text><!--MD5=[9681492165142af2a4a3a169d90ee8d4]
class Sample--><rect codeLine="20" fill="#FEFECE" filter="url(#freu42n4c3dth)" height="46.8373" id="Sample" style="stroke:#A80036;stroke-width:1.305;" width="65.25" x="444.135" y="6.09"/><ellipse cx="457.185" cy="20.01" fill="#ADD1B2" rx="9.57" ry="9.57" style="stroke:#A80036;stroke-width:0.87;"/><path d="M458.925,16.965 Q459.1017,16.53 459.3056,16.3125 Q459.5095,16.095 459.7406,16.095 Q460.1484,16.095 460.4067,16.3397 Q460.665,16.5844 460.665,17.1553 L460.665,18.5147 Q460.665,19.0856 460.4203,19.3303 Q460.1756,19.575 459.795,19.575 Q459.4552,19.575 459.2377,19.4255 Q459.0202,19.2759 458.925,18.8817 Q458.8842,18.6098 458.7347,18.4603 Q458.4628,18.1748 457.9734,18.0117 Q457.4841,17.835 456.9947,17.835 Q456.383,17.835 455.8664,18.0797 Q455.3634,18.3244 454.9692,18.8681 Q454.575,19.4119 454.575,20.1595 L454.575,20.9616 Q454.575,21.8588 455.3091,22.4569 Q456.0431,23.055 457.3481,23.055 Q458.123,23.055 458.6667,22.8783 Q458.9794,22.7831 459.3328,22.4705 Q459.5639,22.2938 459.6863,22.2394 Q459.8086,22.185 459.9581,22.185 Q460.2436,22.185 460.4475,22.4161 Q460.665,22.6336 460.665,22.9463 Q460.665,23.2453 460.3659,23.5988 Q459.9309,24.1153 459.2377,24.4008 Q458.3269,24.795 457.2122,24.795 Q455.9072,24.795 454.8605,24.2784 Q454.0177,23.8706 453.4195,22.987 Q452.835,22.1034 452.835,21.0567 L452.835,20.1052 Q452.835,19.0177 453.3516,18.0661 Q453.8817,17.1145 454.7925,16.6116 Q455.7169,16.095 456.75,16.095 Q457.3753,16.095 457.9191,16.3125 Q458.4628,16.53 458.925,16.965 Z " fill="#000000"/><text fill="#000000" font-family="sans-serif" font-size="10.44" lengthAdjust="spacing" textLength="37.41" x="469.365" y="24.2818">Sample</text><line style="stroke:#A80036;stroke-width:1.305;" x1="445.005" x2="508.515" y1="33.93" y2="33.93"/><text fill="#000000" font-family="sans-serif" font-size="9.57" lengthAdjust="spacing" textLength="39.15" x="449.355" y="47.3445">-barCode</text><!--MD5=[aeb3272166074d8737a70b61b1e71682]
class TestType--><rect codeLine="24" fill="#FEFECE" filter="url(#freu42n4c3dth)" height="70.9118" id="TestType" style="stroke:#A80036;stroke-width:1.305;" width="92.22" x="430.65" y="83.52"/><ellipse cx="453.096" cy="97.44" fill="#ADD1B2" rx="9.57" ry="9.57" style="stroke:#A80036;stroke-width:0.87;"/><path d="M454.836,94.395 Q455.0127,93.96 455.2166,93.7425 Q455.4205,93.525 455.6516,93.525 Q456.0594,93.525 456.3177,93.7697 Q456.576,94.0144 456.576,94.5853 L456.576,95.9447 Q456.576,96.5156 456.3313,96.7603 Q456.0866,97.005 455.706,97.005 Q455.3662,97.005 455.1487,96.8555 Q454.9312,96.7059 454.836,96.3117 Q454.7952,96.0398 454.6457,95.8903 Q454.3738,95.6048 453.8844,95.4417 Q453.3951,95.265 452.9057,95.265 Q452.294,95.265 451.7774,95.5097 Q451.2744,95.7544 450.8802,96.2981 Q450.486,96.8419 450.486,97.5895 L450.486,98.3916 Q450.486,99.2888 451.2201,99.8869 Q451.9541,100.485 453.2591,100.485 Q454.034,100.485 454.5777,100.3083 Q454.8904,100.2131 455.2438,99.9005 Q455.4749,99.7238 455.5973,99.6694 Q455.7196,99.615 455.8691,99.615 Q456.1546,99.615 456.3585,99.8461 Q456.576,100.0636 456.576,100.3763 Q456.576,100.6753 456.2769,101.0288 Q455.8419,101.5453 455.1487,101.8308 Q454.2379,102.225 453.1232,102.225 Q451.8182,102.225 450.7715,101.7084 Q449.9287,101.3006 449.3305,100.417 Q448.746,99.5334 448.746,98.4867 L448.746,97.5352 Q448.746,96.4477 449.2626,95.4961 Q449.7927,94.5445 450.7035,94.0416 Q451.6279,93.525 452.661,93.525 Q453.2863,93.525 453.8301,93.7425 Q454.3738,93.96 454.836,94.395 Z " fill="#000000"/><text fill="#000000" font-family="sans-serif" font-size="10.44" lengthAdjust="spacing" textLength="43.5" x="467.364" y="101.7118">TestType</text><line style="stroke:#A80036;stroke-width:1.305;" x1="431.52" x2="522" y1="111.36" y2="111.36"/><text fill="#000000" font-family="sans-serif" font-size="9.57" lengthAdjust="spacing" textLength="25.23" x="435.87" y="124.7745">-Code</text><text fill="#000000" font-family="sans-serif" font-size="9.57" lengthAdjust="spacing" textLength="50.46" x="435.87" y="136.8117">-Description</text><text fill="#000000" font-family="sans-serif" font-size="9.57" lengthAdjust="spacing" textLength="81.78" x="435.87" y="148.849">-Collecting methods</text><!--MD5=[1f6362a5c8f21d8d6a0fce68f3a92a4e]
class Parameter--><rect codeLine="30" fill="#FEFECE" filter="url(#freu42n4c3dth)" height="70.9118" id="Parameter" style="stroke:#A80036;stroke-width:1.305;" width="78.3" x="437.61" y="185.31"/><ellipse cx="450.66" cy="199.23" fill="#ADD1B2" rx="9.57" ry="9.57" style="stroke:#A80036;stroke-width:0.87;"/><path d="M452.4,196.185 Q452.5767,195.75 452.7806,195.5325 Q452.9845,195.315 453.2156,195.315 Q453.6234,195.315 453.8817,195.5597 Q454.14,195.8044 454.14,196.3753 L454.14,197.7347 Q454.14,198.3056 453.8953,198.5503 Q453.6506,198.795 453.27,198.795 Q452.9302,198.795 452.7127,198.6455 Q452.4952,198.4959 452.4,198.1017 Q452.3592,197.8298 452.2097,197.6803 Q451.9378,197.3948 451.4484,197.2317 Q450.9591,197.055 450.4697,197.055 Q449.858,197.055 449.3414,197.2997 Q448.8384,197.5444 448.4442,198.0881 Q448.05,198.6319 448.05,199.3795 L448.05,200.1816 Q448.05,201.0787 448.7841,201.6769 Q449.5181,202.275 450.8231,202.275 Q451.598,202.275 452.1417,202.0983 Q452.4544,202.0031 452.8078,201.6905 Q453.0389,201.5138 453.1613,201.4594 Q453.2836,201.405 453.4331,201.405 Q453.7186,201.405 453.9225,201.6361 Q454.14,201.8536 454.14,202.1663 Q454.14,202.4653 453.8409,202.8188 Q453.4059,203.3353 452.7127,203.6208 Q451.8019,204.015 450.6872,204.015 Q449.3822,204.015 448.3355,203.4984 Q447.4927,203.0906 446.8945,202.207 Q446.31,201.3234 446.31,200.2767 L446.31,199.3252 Q446.31,198.2377 446.8266,197.2861 Q447.3567,196.3345 448.2675,195.8316 Q449.1919,195.315 450.225,195.315 Q450.8503,195.315 451.3941,195.5325 Q451.9378,195.75 452.4,196.185 Z " fill="#000000"/><text fill="#000000" font-family="sans-serif" font-size="10.44" lengthAdjust="spacing" textLength="50.46" x="462.84" y="203.5018">Parameter</text><line style="stroke:#A80036;stroke-width:1.305;" x1="438.48" x2="515.04" y1="213.15" y2="213.15"/><text fill="#000000" font-family="sans-serif" font-size="9.57" lengthAdjust="spacing" textLength="24.36" x="442.83" y="226.5645">-code</text><text fill="#000000" font-family="sans-serif" font-size="9.57" lengthAdjust="spacing" textLength="48.72" x="442.83" y="238.6017">-shortName</text><text fill="#000000" font-family="sans-serif" font-size="9.57" lengthAdjust="spacing" textLength="49.59" x="442.83" y="250.639">-description</text><!--MD5=[e981d4f96c4342412d1e68160b30cf70]
link Test to TestType--><path codeLine="36" d="M258.5205,119.19 C300.0978,119.19 380.1291,119.19 430.6239,119.19 " fill="none" id="Test-TestType" style="stroke:#A80036;stroke-width:0.87;"/><polygon fill="#000000" points="315.375,111.5129,307.5058,108.9561,307.5058,114.0698,315.375,111.5129" style="stroke:#000000;stroke-width:0.87;"/><text fill="#000000" font-family="sans-serif" font-size="11.31" lengthAdjust="spacing" textLength="62.64" x="318.855" y="116.1408">classified as</text><text fill="#000000" font-family="sans-serif" font-size="11.31" lengthAdjust="spacing" textLength="4.35" x="265.4916" y="132.6251">*</text><text fill="#000000" font-family="sans-serif" font-size="11.31" lengthAdjust="spacing" textLength="6.09" x="417.6178" y="131.9611">1</text><!--MD5=[c23963f6e403fc3ebec8dae22c30ade6]
link Test to Parameter--><path codeLine="37" d="M258.3987,130.7523 C266.7507,134.3193 275.9901,138.243 284.49,141.81 C337.3686,164.0124 398.6601,189.2859 437.349,205.1808 " fill="none" id="Test-Parameter" style="stroke:#A80036;stroke-width:0.87;"/><polygon fill="#000000" points="292.8565,135.8034,286.5725,130.4206,284.6087,135.1423,292.8565,135.8034" style="stroke:#000000;stroke-width:0.87;"/><text fill="#000000" font-family="sans-serif" font-size="11.31" lengthAdjust="spacing" textLength="107.01" x="296.67" y="138.7608">requested analysis of</text><text fill="#000000" font-family="sans-serif" font-size="11.31" lengthAdjust="spacing" textLength="4.35" x="265.3417" y="146.8612">*</text><text fill="#000000" font-family="sans-serif" font-size="11.31" lengthAdjust="spacing" textLength="17.4" x="413.1834" y="215.7302">1..*</text><!--MD5=[e8b34c2e6517a986175307f5599f058a]
link Receptionist to Test--><path codeLine="38" d="M94.1775,119.19 C127.9683,119.19 173.8695,119.19 202.623,119.19 " fill="none" id="Receptionist-Test" style="stroke:#A80036;stroke-width:0.87;"/><polygon fill="#000000" points="128.76,111.5129,120.8908,108.9561,120.8908,114.0698,128.76,111.5129" style="stroke:#000000;stroke-width:0.87;"/><text fill="#000000" font-family="sans-serif" font-size="11.31" lengthAdjust="spacing" textLength="43.5" x="132.24" y="116.1408">registers</text><text fill="#000000" font-family="sans-serif" font-size="11.31" lengthAdjust="spacing" textLength="6.09" x="100.8146" y="131.931">1</text><text fill="#000000" font-family="sans-serif" font-size="11.31" lengthAdjust="spacing" textLength="4.35" x="191.3119" y="132.6251">*</text><!--MD5=[6df8849671cb880f6936e94aa30db6f9]
link Parameter to ParameterCategory--><path codeLine="39" d="M516.1449,213.3153 C557.4438,205.1025 623.529,191.9481 671.5617,182.3955 " fill="none" id="Parameter-ParameterCategory" style="stroke:#A80036;stroke-width:0.87;"/><polygon fill="#000000" points="558.8914,179.3941,550.6745,178.4219,551.6723,183.4373,558.8914,179.3941" style="stroke:#000000;stroke-width:0.87;"/><text fill="#000000" font-family="sans-serif" font-size="11.31" lengthAdjust="spacing" textLength="80.91" x="562.455" y="184.8708">presented under</text><text fill="#000000" font-family="sans-serif" font-size="11.31" lengthAdjust="spacing" textLength="4.35" x="522.7685" y="225.0022">*</text><text fill="#000000" font-family="sans-serif" font-size="11.31" lengthAdjust="spacing" textLength="6.09" x="658.5167" y="196.2287">1</text><!--MD5=[8aaf0efd5e2f3824be7ea3e488dcc283]
link TestType to ParameterCategory--><path codeLine="40" d="M522.9657,128.3685 C564.4299,136.7553 626.0346,149.2311 671.5008,158.427 " fill="none" id="TestType-ParameterCategory" style="stroke:#A80036;stroke-width:0.87;"/><polygon fill="#000000" points="557.5836,127.1657,550.3778,123.0988,549.3636,128.111,557.5836,127.1657" style="stroke:#000000;stroke-width:0.87;"/><text fill="#000000" font-family="sans-serif" font-size="11.31" lengthAdjust="spacing" textLength="83.52" x="561.15" y="130.9308">characterized by</text><text fill="#000000" font-family="sans-serif" font-size="11.31" lengthAdjust="spacing" textLength="6.09" x="529.8916" y="142.4303">1</text><text fill="#000000" font-family="sans-serif" font-size="11.31" lengthAdjust="spacing" textLength="17.4" x="647.2787" y="169.6916">1..*</text><!--MD5=[b72ac8ab7fb5921fceb5036a3902baea]
link Test to Sample--><path codeLine="41" d="M258.5466,107.2188 C266.829,103.6779 275.9901,99.8673 284.49,96.57 C339.9699,75.0636 405.6114,52.7568 443.8218,40.0809 " fill="none" id="Test-Sample" style="stroke:#A80036;stroke-width:0.87;"/><polygon fill="#000000" points="326.8598,45.6509,318.5902,45.928,320.3324,50.7358,326.8598,45.6509" style="stroke:#000000;stroke-width:0.87;"/><text fill="#000000" font-family="sans-serif" font-size="11.31" lengthAdjust="spacing" textLength="39.15" x="330.6" y="51.7608">collects</text><text fill="#000000" font-family="sans-serif" font-size="11.31" lengthAdjust="spacing" textLength="6.09" x="265.337" y="117.9436">1</text><text fill="#000000" font-family="sans-serif" font-size="11.31" lengthAdjust="spacing" textLength="17.4" x="419.7857" y="54.6402">1..*</text><!--MD5=[781b37631a77632d0169560c81ce1dfb]
@startuml

left to right direction
skinparam classAttributeIconSize 0
hide empty methods
hide empty attributes

class Test{
- code
- NhsCode
- createdAt
}

class ParameterCategory{
  -code
  -name
}

class Receptionist{}

class Sample{
- barCode
}

class TestType{
- Code
- Description
- Collecting methods
}

class Parameter{
- code
- shortName
- description
}

Test "*" - - "1" TestType : classified as >
Test "*" - - "1..*" Parameter : requested analysis of >
Receptionist "1" - - "*" Test : registers >
Parameter "*" - - "1" ParameterCategory: presented under >
TestType "1" - - "1..*" ParameterCategory : characterized by >
Test "1" - - "1..*" Sample : collects >
@enduml

PlantUML version 1.2021.00(Sun Jan 10 10:25:05 GMT 2021)
(GPL source distribution)
Java Runtime: OpenJDK Runtime Environment
JVM: OpenJDK 64-Bit Server VM
Default Encoding: Cp1252
Language: pt
Country: BR
--></g></svg>