<?xml version="1.0" encoding="UTF-8" standalone="no"?><svg xmlns="http://www.w3.org/2000/svg" xmlns:xlink="http://www.w3.org/1999/xlink" contentScriptType="application/ecmascript" contentStyleType="text/css" height="449.79px" preserveAspectRatio="none" style="width:1098px;height:449px;" version="1.1" viewBox="0 0 1098 449" width="1098.81px" zoomAndPan="magnify"><defs><filter height="300%" id="f1o2w3cadsf4er" width="300%" x="-1" y="-1"><feGaussianBlur result="blurOut" stdDeviation="1.74"/><feColorMatrix in="blurOut" result="blurOut2" type="matrix" values="0 0 0 0 0 0 0 0 0 0 0 0 0 0 0 0 0 0 .4 0"/><feOffset dx="3.48" dy="3.48" in="blurOut2" result="blurOut3"/><feBlend in="SourceGraphic" in2="blurOut3" mode="normal"/></filter></defs><g><!--MD5=[df38be88ccee13e832d6fafd6288a4ca]
class Test--><rect codeLine="7" fill="#FEFECE" filter="url(#f1o2w3cadsf4er)" height="70.9118" id="Test" style="stroke:#A80036;stroke-width:1.305;" width="55.68" x="202.71" y="226.2"/><ellipse cx="218.892" cy="240.12" fill="#ADD1B2" rx="9.57" ry="9.57" style="stroke:#A80036;stroke-width:0.87;"/><path d="M220.632,237.075 Q220.8087,236.64 221.0126,236.4225 Q221.2165,236.205 221.4476,236.205 Q221.8554,236.205 222.1137,236.4497 Q222.372,236.6944 222.372,237.2653 L222.372,238.6247 Q222.372,239.1956 222.1273,239.4403 Q221.8826,239.685 221.502,239.685 Q221.1622,239.685 220.9447,239.5355 Q220.7272,239.3859 220.632,238.9917 Q220.5912,238.7198 220.4417,238.5703 Q220.1698,238.2848 219.6804,238.1217 Q219.1911,237.945 218.7017,237.945 Q218.09,237.945 217.5734,238.1897 Q217.0704,238.4344 216.6762,238.9781 Q216.282,239.5219 216.282,240.2695 L216.282,241.0716 Q216.282,241.9688 217.0161,242.5669 Q217.7501,243.165 219.0551,243.165 Q219.83,243.165 220.3737,242.9883 Q220.6864,242.8931 221.0398,242.5805 Q221.2709,242.4038 221.3933,242.3494 Q221.5156,242.295 221.6651,242.295 Q221.9506,242.295 222.1545,242.5261 Q222.372,242.7436 222.372,243.0563 Q222.372,243.3553 222.0729,243.7088 Q221.6379,244.2253 220.9447,244.5108 Q220.0339,244.905 218.9192,244.905 Q217.6142,244.905 216.5675,244.3884 Q215.7247,243.9806 215.1265,243.097 Q214.542,242.2134 214.542,241.1667 L214.542,240.2152 Q214.542,239.1277 215.0586,238.1761 Q215.5887,237.2245 216.4995,236.7216 Q217.4239,236.205 218.457,236.205 Q219.0823,236.205 219.6261,236.4225 Q220.1698,236.64 220.632,237.075 Z " fill="#000000"/><text fill="#000000" font-family="sans-serif" font-size="10.44" lengthAdjust="spacing" textLength="20.88" x="231.768" y="244.3918">Test</text><line style="stroke:#A80036;stroke-width:1.305;" x1="203.58" x2="257.52" y1="254.04" y2="254.04"/><text fill="#000000" font-family="sans-serif" font-size="9.57" lengthAdjust="spacing" textLength="24.36" x="207.93" y="267.4545">-code</text><text fill="#000000" font-family="sans-serif" font-size="9.57" lengthAdjust="spacing" textLength="41.76" x="207.93" y="279.4917">-NhsCode</text><text fill="#000000" font-family="sans-serif" font-size="9.57" lengthAdjust="spacing" textLength="45.24" x="207.93" y="291.529">-createdAt</text><!--MD5=[36afb6bbd95a8ac778c4537c55a683d5]
class ParameterCategory--><rect codeLine="13" fill="#FEFECE" filter="url(#f1o2w3cadsf4er)" height="58.8745" id="ParameterCategory" style="stroke:#A80036;stroke-width:1.305;" width="120.93" x="965.7" y="274.05"/><ellipse cx="978.75" cy="287.97" fill="#ADD1B2" rx="9.57" ry="9.57" style="stroke:#A80036;stroke-width:0.87;"/><path d="M980.49,284.925 Q980.6667,284.49 980.8706,284.2725 Q981.0745,284.055 981.3056,284.055 Q981.7134,284.055 981.9717,284.2997 Q982.23,284.5444 982.23,285.1153 L982.23,286.4747 Q982.23,287.0456 981.9853,287.2903 Q981.7406,287.535 981.36,287.535 Q981.0202,287.535 980.8027,287.3855 Q980.5852,287.2359 980.49,286.8417 Q980.4492,286.5698 980.2997,286.4203 Q980.0278,286.1348 979.5384,285.9717 Q979.0491,285.795 978.5597,285.795 Q977.948,285.795 977.4314,286.0397 Q976.9284,286.2844 976.5342,286.8281 Q976.14,287.3719 976.14,288.1195 L976.14,288.9216 Q976.14,289.8188 976.8741,290.4169 Q977.6081,291.015 978.9131,291.015 Q979.688,291.015 980.2317,290.8383 Q980.5444,290.7431 980.8978,290.4305 Q981.1289,290.2538 981.2513,290.1994 Q981.3736,290.145 981.5231,290.145 Q981.8086,290.145 982.0125,290.3761 Q982.23,290.5936 982.23,290.9063 Q982.23,291.2053 981.9309,291.5588 Q981.4959,292.0753 980.8027,292.3608 Q979.8919,292.755 978.7772,292.755 Q977.4722,292.755 976.4255,292.2384 Q975.5827,291.8306 974.9845,290.947 Q974.4,290.0634 974.4,289.0167 L974.4,288.0652 Q974.4,286.9777 974.9166,286.0261 Q975.4467,285.0745 976.3575,284.5716 Q977.2819,284.055 978.315,284.055 Q978.9403,284.055 979.4841,284.2725 Q980.0278,284.49 980.49,284.925 Z " fill="#000000"/><text fill="#000000" font-family="sans-serif" font-size="10.44" lengthAdjust="spacing" textLength="93.09" x="990.93" y="292.2418">ParameterCategory</text><line style="stroke:#A80036;stroke-width:1.305;" x1="966.57" x2="1085.76" y1="301.89" y2="301.89"/><text fill="#000000" font-family="sans-serif" font-size="9.57" lengthAdjust="spacing" textLength="24.36" x="970.92" y="315.3045">-code</text><text fill="#000000" font-family="sans-serif" font-size="9.57" lengthAdjust="spacing" textLength="26.1" x="970.92" y="327.3417">-name</text><!--MD5=[03960189e81aa2c066c762ffabbee709]
class Receptionist--><rect codeLine="18" fill="#FEFECE" filter="url(#f1o2w3cadsf4er)" height="27.84" id="Receptionist" style="stroke:#A80036;stroke-width:1.305;" width="87.87" x="6.09" y="247.95"/><ellipse cx="19.14" cy="261.87" fill="#ADD1B2" rx="9.57" ry="9.57" style="stroke:#A80036;stroke-width:0.87;"/><path d="M20.88,258.825 Q21.0567,258.39 21.2606,258.1725 Q21.4645,257.955 21.6956,257.955 Q22.1034,257.955 22.3617,258.1997 Q22.62,258.4444 22.62,259.0153 L22.62,260.3747 Q22.62,260.9456 22.3753,261.1903 Q22.1306,261.435 21.75,261.435 Q21.4102,261.435 21.1927,261.2855 Q20.9752,261.1359 20.88,260.7417 Q20.8392,260.4698 20.6897,260.3203 Q20.4178,260.0348 19.9284,259.8717 Q19.4391,259.695 18.9497,259.695 Q18.338,259.695 17.8214,259.9397 Q17.3184,260.1844 16.9242,260.7281 Q16.53,261.2719 16.53,262.0195 L16.53,262.8216 Q16.53,263.7188 17.2641,264.3169 Q17.9981,264.915 19.3031,264.915 Q20.078,264.915 20.6217,264.7383 Q20.9344,264.6431 21.2878,264.3305 Q21.5189,264.1538 21.6413,264.0994 Q21.7636,264.045 21.9131,264.045 Q22.1986,264.045 22.4025,264.2761 Q22.62,264.4936 22.62,264.8063 Q22.62,265.1053 22.3209,265.4588 Q21.8859,265.9753 21.1927,266.2608 Q20.2819,266.655 19.1672,266.655 Q17.8622,266.655 16.8155,266.1384 Q15.9727,265.7306 15.3745,264.847 Q14.79,263.9634 14.79,262.9167 L14.79,261.9652 Q14.79,260.8777 15.3066,259.9261 Q15.8367,258.9745 16.7475,258.4716 Q17.6719,257.955 18.705,257.955 Q19.3303,257.955 19.8741,258.1725 Q20.4178,258.39 20.88,258.825 Z " fill="#000000"/><text fill="#000000" font-family="sans-serif" font-size="10.44" lengthAdjust="spacing" textLength="60.03" x="31.32" y="266.1418">Receptionist</text><!--MD5=[9681492165142af2a4a3a169d90ee8d4]
class Sample--><rect codeLine="20" fill="#FEFECE" filter="url(#f1o2w3cadsf4er)" height="46.8373" id="Sample" style="stroke:#A80036;stroke-width:1.305;" width="65.25" x="451.965" y="6.09"/><ellipse cx="465.015" cy="20.01" fill="#ADD1B2" rx="9.57" ry="9.57" style="stroke:#A80036;stroke-width:0.87;"/><path d="M466.755,16.965 Q466.9317,16.53 467.1356,16.3125 Q467.3395,16.095 467.5706,16.095 Q467.9784,16.095 468.2367,16.3397 Q468.495,16.5844 468.495,17.1553 L468.495,18.5147 Q468.495,19.0856 468.2503,19.3303 Q468.0056,19.575 467.625,19.575 Q467.2852,19.575 467.0677,19.4255 Q466.8502,19.2759 466.755,18.8817 Q466.7142,18.6098 466.5647,18.4603 Q466.2928,18.1748 465.8034,18.0117 Q465.3141,17.835 464.8247,17.835 Q464.213,17.835 463.6964,18.0797 Q463.1934,18.3244 462.7992,18.8681 Q462.405,19.4119 462.405,20.1595 L462.405,20.9616 Q462.405,21.8588 463.1391,22.4569 Q463.8731,23.055 465.1781,23.055 Q465.953,23.055 466.4967,22.8783 Q466.8094,22.7831 467.1628,22.4705 Q467.3939,22.2938 467.5163,22.2394 Q467.6386,22.185 467.7881,22.185 Q468.0736,22.185 468.2775,22.4161 Q468.495,22.6336 468.495,22.9463 Q468.495,23.2453 468.1959,23.5988 Q467.7609,24.1153 467.0677,24.4008 Q466.1569,24.795 465.0422,24.795 Q463.7372,24.795 462.6905,24.2784 Q461.8477,23.8706 461.2495,22.987 Q460.665,22.1034 460.665,21.0567 L460.665,20.1052 Q460.665,19.0177 461.1816,18.0661 Q461.7117,17.1145 462.6225,16.6116 Q463.5469,16.095 464.58,16.095 Q465.2053,16.095 465.7491,16.3125 Q466.2928,16.53 466.755,16.965 Z " fill="#000000"/><text fill="#000000" font-family="sans-serif" font-size="10.44" lengthAdjust="spacing" textLength="37.41" x="477.195" y="24.2818">Sample</text><line style="stroke:#A80036;stroke-width:1.305;" x1="452.835" x2="516.345" y1="33.93" y2="33.93"/><text fill="#000000" font-family="sans-serif" font-size="9.57" lengthAdjust="spacing" textLength="39.15" x="457.185" y="47.3445">-barCode</text><!--MD5=[ed6624c6556d5e7b1bd23032162d20b7]
class Client--><rect codeLine="24" fill="#FEFECE" filter="url(#f1o2w3cadsf4er)" height="131.0981" id="Client" style="stroke:#A80036;stroke-width:1.305;" width="79.17" x="445.005" y="83.955"/><ellipse cx="468.6255" cy="97.875" fill="#ADD1B2" rx="9.57" ry="9.57" style="stroke:#A80036;stroke-width:0.87;"/><path d="M470.3655,94.83 Q470.5422,94.395 470.7461,94.1775 Q470.95,93.96 471.1811,93.96 Q471.5889,93.96 471.8472,94.2047 Q472.1055,94.4494 472.1055,95.0203 L472.1055,96.3797 Q472.1055,96.9506 471.8608,97.1953 Q471.6161,97.44 471.2355,97.44 Q470.8957,97.44 470.6782,97.2905 Q470.4607,97.1409 470.3655,96.7467 Q470.3247,96.4748 470.1752,96.3253 Q469.9033,96.0398 469.4139,95.8767 Q468.9246,95.7 468.4352,95.7 Q467.8235,95.7 467.3069,95.9447 Q466.8039,96.1894 466.4097,96.7331 Q466.0155,97.2769 466.0155,98.0245 L466.0155,98.8266 Q466.0155,99.7238 466.7496,100.3219 Q467.4836,100.92 468.7886,100.92 Q469.5635,100.92 470.1072,100.7433 Q470.4199,100.6481 470.7733,100.3355 Q471.0044,100.1588 471.1267,100.1044 Q471.2491,100.05 471.3986,100.05 Q471.6841,100.05 471.888,100.2811 Q472.1055,100.4986 472.1055,100.8113 Q472.1055,101.1103 471.8064,101.4638 Q471.3714,101.9803 470.6782,102.2658 Q469.7674,102.66 468.6527,102.66 Q467.3477,102.66 466.301,102.1434 Q465.4582,101.7356 464.86,100.852 Q464.2755,99.9684 464.2755,98.9217 L464.2755,97.9702 Q464.2755,96.8827 464.7921,95.9311 Q465.3222,94.9795 466.233,94.4766 Q467.1574,93.96 468.1905,93.96 Q468.8158,93.96 469.3596,94.1775 Q469.9033,94.395 470.3655,94.83 Z " fill="#000000"/><text fill="#000000" font-family="sans-serif" font-size="10.44" lengthAdjust="spacing" textLength="27.84" x="483.1545" y="102.1468">Client</text><line style="stroke:#A80036;stroke-width:1.305;" x1="445.875" x2="523.305" y1="111.795" y2="111.795"/><text fill="#000000" font-family="sans-serif" font-size="9.57" lengthAdjust="spacing" textLength="26.1" x="450.225" y="125.2095">-name</text><text fill="#000000" font-family="sans-serif" font-size="9.57" lengthAdjust="spacing" textLength="68.73" x="450.225" y="137.2467">-citizenCardNum</text><text fill="#000000" font-family="sans-serif" font-size="9.57" lengthAdjust="spacing" textLength="37.41" x="450.225" y="149.284">-nhsNum</text><text fill="#000000" font-family="sans-serif" font-size="9.57" lengthAdjust="spacing" textLength="40.89" x="450.225" y="161.3213">-birthDate</text><text fill="#000000" font-family="sans-serif" font-size="9.57" lengthAdjust="spacing" textLength="19.14" x="450.225" y="173.3585">-sex</text><text fill="#000000" font-family="sans-serif" font-size="9.57" lengthAdjust="spacing" textLength="41.76" x="450.225" y="185.3958">-taxIdNum</text><text fill="#000000" font-family="sans-serif" font-size="9.57" lengthAdjust="spacing" textLength="47.85" x="450.225" y="197.4331">-phoneNum</text><text fill="#000000" font-family="sans-serif" font-size="9.57" lengthAdjust="spacing" textLength="24.36" x="450.225" y="209.4703">-email</text><!--MD5=[0f07739f46effee96e095e9c408da841]
class TestParameter--><rect codeLine="34" fill="#FEFECE" filter="url(#f1o2w3cadsf4er)" height="27.84" id="TestParameter" style="stroke:#A80036;stroke-width:1.305;" width="99.18" x="435" y="307.98"/><ellipse cx="448.05" cy="321.9" fill="#ADD1B2" rx="9.57" ry="9.57" style="stroke:#A80036;stroke-width:0.87;"/><path d="M449.79,318.855 Q449.9667,318.42 450.1706,318.2025 Q450.3745,317.985 450.6056,317.985 Q451.0134,317.985 451.2717,318.2297 Q451.53,318.4744 451.53,319.0453 L451.53,320.4047 Q451.53,320.9756 451.2853,321.2203 Q451.0406,321.465 450.66,321.465 Q450.3202,321.465 450.1027,321.3155 Q449.8852,321.1659 449.79,320.7717 Q449.7492,320.4998 449.5997,320.3503 Q449.3278,320.0648 448.8384,319.9017 Q448.3491,319.725 447.8597,319.725 Q447.248,319.725 446.7314,319.9697 Q446.2284,320.2144 445.8342,320.7581 Q445.44,321.3019 445.44,322.0495 L445.44,322.8516 Q445.44,323.7488 446.1741,324.3469 Q446.9081,324.945 448.2131,324.945 Q448.988,324.945 449.5317,324.7683 Q449.8444,324.6731 450.1978,324.3605 Q450.4289,324.1838 450.5513,324.1294 Q450.6736,324.075 450.8231,324.075 Q451.1086,324.075 451.3125,324.3061 Q451.53,324.5236 451.53,324.8363 Q451.53,325.1353 451.2309,325.4888 Q450.7959,326.0053 450.1027,326.2908 Q449.1919,326.685 448.0772,326.685 Q446.7722,326.685 445.7255,326.1684 Q444.8827,325.7606 444.2845,324.877 Q443.7,323.9934 443.7,322.9467 L443.7,321.9952 Q443.7,320.9077 444.2166,319.9561 Q444.7467,319.0045 445.6575,318.5016 Q446.5819,317.985 447.615,317.985 Q448.2403,317.985 448.7841,318.2025 Q449.3278,318.42 449.79,318.855 Z " fill="#000000"/><text fill="#000000" font-family="sans-serif" font-size="10.44" lengthAdjust="spacing" textLength="71.34" x="460.23" y="326.1718">TestParameter</text><!--MD5=[4e608140b854dae633589343bce77383]
class TestParameterResult--><rect codeLine="35" fill="#FEFECE" filter="url(#f1o2w3cadsf4er)" height="70.9118" id="TestParameterResult" style="stroke:#A80036;stroke-width:1.305;" width="130.5" x="689.04" y="265.35"/><ellipse cx="702.09" cy="279.27" fill="#ADD1B2" rx="9.57" ry="9.57" style="stroke:#A80036;stroke-width:0.87;"/><path d="M703.83,276.225 Q704.0067,275.79 704.2106,275.5725 Q704.4145,275.355 704.6456,275.355 Q705.0534,275.355 705.3117,275.5997 Q705.57,275.8444 705.57,276.4153 L705.57,277.7747 Q705.57,278.3456 705.3253,278.5903 Q705.0806,278.835 704.7,278.835 Q704.3602,278.835 704.1427,278.6855 Q703.9252,278.5359 703.83,278.1417 Q703.7892,277.8698 703.6397,277.7203 Q703.3678,277.4348 702.8784,277.2717 Q702.3891,277.095 701.8997,277.095 Q701.288,277.095 700.7714,277.3397 Q700.2684,277.5844 699.8742,278.1281 Q699.48,278.6719 699.48,279.4195 L699.48,280.2216 Q699.48,281.1188 700.2141,281.7169 Q700.9481,282.315 702.2531,282.315 Q703.028,282.315 703.5717,282.1383 Q703.8844,282.0431 704.2378,281.7305 Q704.4689,281.5538 704.5913,281.4994 Q704.7136,281.445 704.8631,281.445 Q705.1486,281.445 705.3525,281.6761 Q705.57,281.8936 705.57,282.2063 Q705.57,282.5053 705.2709,282.8588 Q704.8359,283.3753 704.1427,283.6608 Q703.2319,284.055 702.1172,284.055 Q700.8122,284.055 699.7655,283.5384 Q698.9227,283.1306 698.3245,282.247 Q697.74,281.3634 697.74,280.3167 L697.74,279.3652 Q697.74,278.2777 698.2566,277.3261 Q698.7867,276.3745 699.6975,275.8716 Q700.6219,275.355 701.655,275.355 Q702.2803,275.355 702.8241,275.5725 Q703.3678,275.79 703.83,276.225 Z " fill="#000000"/><text fill="#000000" font-family="sans-serif" font-size="10.44" lengthAdjust="spacing" textLength="102.66" x="714.27" y="283.5418">TestParameterResult</text><line style="stroke:#A80036;stroke-width:1.305;" x1="689.91" x2="818.67" y1="293.19" y2="293.19"/><text fill="#000000" font-family="sans-serif" font-size="9.57" lengthAdjust="spacing" textLength="45.24" x="694.26" y="306.6045">-createdAt</text><text fill="#000000" font-family="sans-serif" font-size="9.57" lengthAdjust="spacing" textLength="26.1" x="694.26" y="318.6417">-value</text><text fill="#000000" font-family="sans-serif" font-size="9.57" lengthAdjust="spacing" textLength="28.71" x="694.26" y="330.679">-metric</text><!--MD5=[aeb3272166074d8737a70b61b1e71682]
class TestType--><rect codeLine="40" fill="#FEFECE" filter="url(#f1o2w3cadsf4er)" height="70.9118" id="TestType" style="stroke:#A80036;stroke-width:1.305;" width="92.22" x="570.72" y="189.66"/><ellipse cx="593.166" cy="203.58" fill="#ADD1B2" rx="9.57" ry="9.57" style="stroke:#A80036;stroke-width:0.87;"/><path d="M594.906,200.535 Q595.0827,200.1 595.2866,199.8825 Q595.4905,199.665 595.7216,199.665 Q596.1294,199.665 596.3877,199.9097 Q596.646,200.1544 596.646,200.7253 L596.646,202.0847 Q596.646,202.6556 596.4013,202.9003 Q596.1566,203.145 595.776,203.145 Q595.4362,203.145 595.2187,202.9955 Q595.0012,202.8459 594.906,202.4517 Q594.8652,202.1798 594.7157,202.0303 Q594.4438,201.7448 593.9544,201.5817 Q593.4651,201.405 592.9757,201.405 Q592.364,201.405 591.8474,201.6497 Q591.3444,201.8944 590.9502,202.4381 Q590.556,202.9819 590.556,203.7295 L590.556,204.5316 Q590.556,205.4288 591.2901,206.0269 Q592.0241,206.625 593.3291,206.625 Q594.104,206.625 594.6477,206.4483 Q594.9604,206.3531 595.3138,206.0405 Q595.5449,205.8638 595.6673,205.8094 Q595.7896,205.755 595.9391,205.755 Q596.2246,205.755 596.4285,205.9861 Q596.646,206.2036 596.646,206.5162 Q596.646,206.8153 596.3469,207.1688 Q595.9119,207.6853 595.2187,207.9708 Q594.3079,208.365 593.1932,208.365 Q591.8882,208.365 590.8415,207.8484 Q589.9987,207.4406 589.4005,206.557 Q588.816,205.6734 588.816,204.6267 L588.816,203.6752 Q588.816,202.5877 589.3326,201.6361 Q589.8627,200.6845 590.7735,200.1816 Q591.6979,199.665 592.731,199.665 Q593.3563,199.665 593.9001,199.8825 Q594.4438,200.1 594.906,200.535 Z " fill="#000000"/><text fill="#000000" font-family="sans-serif" font-size="10.44" lengthAdjust="spacing" textLength="43.5" x="607.434" y="207.8518">TestType</text><line style="stroke:#A80036;stroke-width:1.305;" x1="571.59" x2="662.07" y1="217.5" y2="217.5"/><text fill="#000000" font-family="sans-serif" font-size="9.57" lengthAdjust="spacing" textLength="25.23" x="575.94" y="230.9145">-Code</text><text fill="#000000" font-family="sans-serif" font-size="9.57" lengthAdjust="spacing" textLength="50.46" x="575.94" y="242.9517">-Description</text><text fill="#000000" font-family="sans-serif" font-size="9.57" lengthAdjust="spacing" textLength="81.78" x="575.94" y="254.989">-Collecting methods</text><!--MD5=[1f6362a5c8f21d8d6a0fce68f3a92a4e]
class Parameter--><rect codeLine="46" fill="#FEFECE" filter="url(#f1o2w3cadsf4er)" height="70.9118" id="Parameter" style="stroke:#A80036;stroke-width:1.305;" width="78.3" x="715.14" y="367.14"/><ellipse cx="728.19" cy="381.06" fill="#ADD1B2" rx="9.57" ry="9.57" style="stroke:#A80036;stroke-width:0.87;"/><path d="M729.93,378.015 Q730.1067,377.58 730.3106,377.3625 Q730.5145,377.145 730.7456,377.145 Q731.1534,377.145 731.4117,377.3897 Q731.67,377.6344 731.67,378.2053 L731.67,379.5647 Q731.67,380.1356 731.4253,380.3803 Q731.1806,380.625 730.8,380.625 Q730.4602,380.625 730.2427,380.4755 Q730.0252,380.3259 729.93,379.9317 Q729.8892,379.6598 729.7397,379.5103 Q729.4678,379.2248 728.9784,379.0617 Q728.4891,378.885 727.9997,378.885 Q727.388,378.885 726.8714,379.1297 Q726.3684,379.3744 725.9742,379.9181 Q725.58,380.4619 725.58,381.2095 L725.58,382.0116 Q725.58,382.9088 726.3141,383.5069 Q727.0481,384.105 728.3531,384.105 Q729.128,384.105 729.6717,383.9283 Q729.9844,383.8331 730.3378,383.5205 Q730.5689,383.3438 730.6913,383.2894 Q730.8136,383.235 730.9631,383.235 Q731.2486,383.235 731.4525,383.4661 Q731.67,383.6836 731.67,383.9963 Q731.67,384.2953 731.3709,384.6488 Q730.9359,385.1653 730.2427,385.4508 Q729.3319,385.845 728.2172,385.845 Q726.9122,385.845 725.8655,385.3284 Q725.0227,384.9206 724.4245,384.037 Q723.84,383.1534 723.84,382.1067 L723.84,381.1552 Q723.84,380.0677 724.3566,379.1161 Q724.8867,378.1645 725.7975,377.6616 Q726.7219,377.145 727.755,377.145 Q728.3803,377.145 728.9241,377.3625 Q729.4678,377.58 729.93,378.015 Z " fill="#000000"/><text fill="#000000" font-family="sans-serif" font-size="10.44" lengthAdjust="spacing" textLength="50.46" x="740.37" y="385.3318">Parameter</text><line style="stroke:#A80036;stroke-width:1.305;" x1="716.01" x2="792.57" y1="394.98" y2="394.98"/><text fill="#000000" font-family="sans-serif" font-size="9.57" lengthAdjust="spacing" textLength="24.36" x="720.36" y="408.3945">-code</text><text fill="#000000" font-family="sans-serif" font-size="9.57" lengthAdjust="spacing" textLength="48.72" x="720.36" y="420.4317">-shortName</text><text fill="#000000" font-family="sans-serif" font-size="9.57" lengthAdjust="spacing" textLength="49.59" x="720.36" y="432.469">-description</text><!--MD5=[e981d4f96c4342412d1e68160b30cf70]
link Test to TestType--><path codeLine="52" d="M258.6771,262.8183 C291.7893,263.697 349.3311,264.2886 398.46,260.13 C458.2812,255.0579 526.5327,243.1215 570.372,234.6477 " fill="none" id="Test-TestType" style="stroke:#A80036;stroke-width:0.87;"/><polygon fill="#000000" points="312.3123,252.0614,304.2449,250.2232,304.7052,255.3162,312.3123,252.0614" style="stroke:#000000;stroke-width:0.87;"/><text fill="#000000" font-family="sans-serif" font-size="11.31" lengthAdjust="spacing" textLength="62.64" x="315.81" y="257.0808">classified as</text><text fill="#000000" font-family="sans-serif" font-size="11.31" lengthAdjust="spacing" textLength="4.35" x="265.3057" y="276.3693">*</text><text fill="#000000" font-family="sans-serif" font-size="11.31" lengthAdjust="spacing" textLength="6.09" x="557.63" y="248.6251">1</text><!--MD5=[3994f36c72829dbcddd1cf7021dddf61]
link Test to Client--><path codeLine="53" d="M258.4248,249.8553 C303.2298,229.9236 393.1356,189.9384 444.7962,166.953 " fill="none" id="Test-Client" style="stroke:#A80036;stroke-width:0.87;"/><polygon fill="#000000" points="310.6495,179.345,302.4204,180.2071,304.4987,184.8794,310.6495,179.345" style="stroke:#000000;stroke-width:0.87;"/><text fill="#000000" font-family="sans-serif" font-size="11.31" lengthAdjust="spacing" textLength="65.25" x="314.505" y="185.7408">requested by</text><text fill="#000000" font-family="sans-serif" font-size="11.31" lengthAdjust="spacing" textLength="4.35" x="265.3738" y="243.373">*</text><text fill="#000000" font-family="sans-serif" font-size="11.31" lengthAdjust="spacing" textLength="6.09" x="431.8788" y="182.6083">1</text><!--MD5=[c23963f6e403fc3ebec8dae22c30ade6]
link Test to Parameter--><path codeLine="54" d="M248.211,297.8706 C256.9719,312.8868 269.1171,329.1645 284.49,339.3 C421.3062,429.5451 629.6625,417.7044 714.9747,408.0822 " fill="none" id="Test-Parameter" style="stroke:#A80036;stroke-width:0.87;"/><polygon fill="#000000" points="433.1436,390.0426,426.0725,385.7458,424.8974,390.7227,433.1436,390.0426" style="stroke:#000000;stroke-width:0.87;"/><text fill="#000000" font-family="sans-serif" font-size="11.31" lengthAdjust="spacing" textLength="107.01" x="436.74" y="393.6708">requested analysis of</text><text fill="#000000" font-family="sans-serif" font-size="11.31" lengthAdjust="spacing" textLength="4.35" x="246.0387" y="315.7043">*</text><text fill="#000000" font-family="sans-serif" font-size="11.31" lengthAdjust="spacing" textLength="17.4" x="690.8225" y="421.5947">1..*</text><!--MD5=[e8b34c2e6517a986175307f5599f058a]
link Receptionist to Test--><path codeLine="55" d="M94.1775,261.87 C127.9683,261.87 173.8695,261.87 202.623,261.87 " fill="none" id="Receptionist-Test" style="stroke:#A80036;stroke-width:0.87;"/><polygon fill="#000000" points="128.76,254.1929,120.8908,251.6361,120.8908,256.7498,128.76,254.1929" style="stroke:#000000;stroke-width:0.87;"/><text fill="#000000" font-family="sans-serif" font-size="11.31" lengthAdjust="spacing" textLength="43.5" x="132.24" y="258.8208">registers</text><text fill="#000000" font-family="sans-serif" font-size="11.31" lengthAdjust="spacing" textLength="6.09" x="100.8146" y="274.611">1</text><text fill="#000000" font-family="sans-serif" font-size="11.31" lengthAdjust="spacing" textLength="4.35" x="191.3119" y="275.3051">*</text><!--MD5=[6df8849671cb880f6936e94aa30db6f9]
link Parameter to ParameterCategory--><path codeLine="56" d="M793.5792,388.7073 C838.4451,372.2295 913.1781,344.7897 965.6217,325.5366 " fill="none" id="Parameter-ParameterCategory" style="stroke:#A80036;stroke-width:0.87;"/><polygon fill="#000000" points="854.0734,325.7736,845.8051,326.0858,847.5677,330.8861,854.0734,325.7736" style="stroke:#000000;stroke-width:0.87;"/><text fill="#000000" font-family="sans-serif" font-size="11.31" lengthAdjust="spacing" textLength="80.91" x="857.82" y="331.9008">presented under</text><text fill="#000000" font-family="sans-serif" font-size="11.31" lengthAdjust="spacing" textLength="4.35" x="800.4467" y="399.3258">*</text><text fill="#000000" font-family="sans-serif" font-size="11.31" lengthAdjust="spacing" textLength="6.09" x="952.5767" y="340.467">1</text><!--MD5=[8aaf0efd5e2f3824be7ea3e488dcc283]
link TestType to ParameterCategory--><path codeLine="57" d="M663.2532,229.3407 C704.3346,233.3601 766.2873,240.4071 819.54,250.56 C869.2779,260.043 924.8274,274.6155 965.6565,286.0908 " fill="none" id="TestType-ParameterCategory" style="stroke:#A80036;stroke-width:0.87;"/><polygon fill="#000000" points="714.6304,225.4153,707.3678,221.4508,706.4246,226.4768,714.6304,225.4153" style="stroke:#000000;stroke-width:0.87;"/><text fill="#000000" font-family="sans-serif" font-size="11.31" lengthAdjust="spacing" textLength="83.52" x="718.185" y="229.2408">characterized by</text><text fill="#000000" font-family="sans-serif" font-size="11.31" lengthAdjust="spacing" textLength="6.09" x="669.9005" y="242.605">1</text><text fill="#000000" font-family="sans-serif" font-size="11.31" lengthAdjust="spacing" textLength="17.4" x="941.4438" y="296.8193">1..*</text><!--MD5=[b72ac8ab7fb5921fceb5036a3902baea]
link Test to Sample--><path codeLine="58" d="M246.384,226.1826 C255.5451,207.0252 268.569,183.7962 284.49,166.17 C333.8277,111.5514 409.1523,67.6251 451.6431,45.4053 " fill="none" id="Test-Sample" style="stroke:#A80036;stroke-width:0.87;"/><polygon fill="#000000" points="322.9894,66.8779,315.3941,70.1601,318.7739,73.9977,322.9894,66.8779" style="stroke:#000000;stroke-width:0.87;"/><text fill="#000000" font-family="sans-serif" font-size="11.31" lengthAdjust="spacing" textLength="39.15" x="327.555" y="74.3808">collects</text><text fill="#000000" font-family="sans-serif" font-size="11.31" lengthAdjust="spacing" textLength="6.09" x="242.4921" y="216.7364">1</text><text fill="#000000" font-family="sans-serif" font-size="11.31" lengthAdjust="spacing" textLength="17.4" x="427.6056" y="60.8132">1..*</text><!--MD5=[f24c888dadeb846430474fe80a58922b]
link Test to TestParameter--><path codeLine="59" d="M258.6249,296.7396 C266.1591,304.0389 274.9287,310.7814 284.49,314.94 C332.4183,335.7765 393.1182,334.4541 434.8521,329.8692 " fill="none" id="Test-TestParameter" style="stroke:#A80036;stroke-width:0.87;"/><polygon fill="#000000" points="293.1151,308.0666,285.8538,304.0999,284.909,309.1256,293.1151,308.0666" style="stroke:#000000;stroke-width:0.87;"/><text fill="#000000" font-family="sans-serif" font-size="11.31" lengthAdjust="spacing" textLength="100.92" x="296.67" y="311.8908">requests analysis of</text><text fill="#000000" font-family="sans-serif" font-size="11.31" lengthAdjust="spacing" textLength="6.09" x="263.9736" y="315.7329">1</text><text fill="#000000" font-family="sans-serif" font-size="11.31" lengthAdjust="spacing" textLength="17.4" x="410.6952" y="343.3538">1..*</text><!--MD5=[92e8e476cc9e9004a7125f53a120ec97]
link TestParameter to Parameter--><path codeLine="60" d="M531.831,335.8983 C583.6569,351.5496 666.6288,376.6056 714.9921,391.2042 " fill="none" id="TestParameter-Parameter" style="stroke:#A80036;stroke-width:0.87;"/><polygon fill="#000000" points="598.3743,341.5803,591.5801,336.8579,590.1019,341.7534,598.3743,341.5803" style="stroke:#000000;stroke-width:0.87;"/><text fill="#000000" font-family="sans-serif" font-size="11.31" lengthAdjust="spacing" textLength="40.89" x="602.04" y="344.9508">refers to</text><text fill="#000000" font-family="sans-serif" font-size="11.31" lengthAdjust="spacing" textLength="4.35" x="541.2825" y="354.1044">*</text><text fill="#000000" font-family="sans-serif" font-size="11.31" lengthAdjust="spacing" textLength="6.09" x="702.1537" y="402.263">1</text><!--MD5=[0e00e25ac6b8c14659aaff2cf7e5df08]
link TestParameter to TestParameterResult--><path codeLine="61" d="M534.2931,318.0981 C577.6974,314.7138 641.451,309.7461 689.0139,306.0399 " fill="none" id="TestParameter-TestParameterResult" style="stroke:#A80036;stroke-width:0.87;"/><polygon fill="#000000" points="597.6768,299.9649,589.6327,298.0272,590.0301,303.1255,597.6768,299.9649" style="stroke:#000000;stroke-width:0.87;"/><text fill="#000000" font-family="sans-serif" font-size="11.31" lengthAdjust="spacing" textLength="42.63" x="601.17" y="304.9308">contains</text><text fill="#000000" font-family="sans-serif" font-size="11.31" lengthAdjust="spacing" textLength="6.09" x="541.0515" y="330.2631">1</text><text fill="#000000" font-family="sans-serif" font-size="11.31" lengthAdjust="spacing" textLength="19.14" x="662.974" y="318.9189">0..1</text><!--MD5=[d366442fb7e0c0984cafd0ac703fe640]
@startuml

left to right direction
skinparam classAttributeIconSize 0
hide empty methods
hide empty attributes

class Test{
- code
- NhsCode
- createdAt
}

class ParameterCategory{
  -code
  -name
}

class Receptionist{}

class Sample{
- barCode
}

class Client{
- name
- citizenCardNum
- nhsNum
- birthDate
- sex
- taxIdNum
- phoneNum
- email
}
class TestParameter{}
class TestParameterResult{
- createdAt
- value
- metric
}
class TestType{
- Code
- Description
- Collecting methods
}

class Parameter{
- code
- shortName
- description
}

Test "*" - - "1" TestType : classified as >
Test "*" - - "1" Client : requested by >
Test "*" - - "1..*" Parameter : requested analysis of >
Receptionist "1" - - "*" Test : registers >
Parameter "*" - - "1" ParameterCategory: presented under >
TestType "1" - - "1..*" ParameterCategory : characterized by >
Test "1" - - "1..*" Sample : collects >
Test "1" - - "1..*" TestParameter : requests analysis of >
TestParameter "*" - - "1" Parameter : refers to >
TestParameter "1" - - "0..1" TestParameterResult : contains >
@enduml

PlantUML version 1.2021.00(Sun Jan 10 10:25:05 GMT 2021)
(GPL source distribution)
Java Runtime: OpenJDK Runtime Environment
JVM: OpenJDK 64-Bit Server VM
Default Encoding: Cp1252
Language: pt
Country: BR
--></g></svg>