<?xml version="1.0" encoding="UTF-8" standalone="no"?><svg xmlns="http://www.w3.org/2000/svg" xmlns:xlink="http://www.w3.org/1999/xlink" contentScriptType="application/ecmascript" contentStyleType="text/css" height="1646.04px" preserveAspectRatio="none" style="width:2179px;height:1646px;" version="1.1" viewBox="0 0 2179 1646" width="2179.35px" zoomAndPan="magnify"><defs><filter height="300%" id="f1rfd2imcsdc3z" width="300%" x="-1" y="-1"><feGaussianBlur result="blurOut" stdDeviation="1.74"/><feColorMatrix in="blurOut" result="blurOut2" type="matrix" values="0 0 0 0 0 0 0 0 0 0 0 0 0 0 0 0 0 0 .4 0"/><feOffset dx="3.48" dy="3.48" in="blurOut2" result="blurOut3"/><feBlend in="SourceGraphic" in2="blurOut3" mode="normal"/></filter></defs><g><!--MD5=[9681dc6e01e10c6b4fe06895ae94f592]
cluster UI--><polygon fill="#FFFFFF" filter="url(#f1rfd2imcsdc3z)" points="13.92,1455.51,31.32,1455.51,37.41,1476.0502,133.11,1476.0502,133.11,1542.51,13.92,1542.51,13.92,1455.51" style="stroke:#000000;stroke-width:1.305;"/><line style="stroke:#000000;stroke-width:1.305;" x1="13.92" x2="37.41" y1="1476.0502" y2="1476.0502"/><text fill="#000000" font-family="sans-serif" font-size="12.18" font-weight="bold" lengthAdjust="spacing" textLength="12.18" x="17.4" y="1469.8939">UI</text><!--MD5=[121a8bf1197281ab89ed693fab589f94]
cluster Domain--><polygon fill="#FFFFFF" filter="url(#f1rfd2imcsdc3z)" points="672.945,5.22,723.405,5.22,729.495,25.7602,2164.56,25.7602,2164.56,779.52,672.945,779.52,672.945,5.22" style="stroke:#000000;stroke-width:1.305;"/><line style="stroke:#000000;stroke-width:1.305;" x1="672.945" x2="729.495" y1="25.7602" y2="25.7602"/><text fill="#000000" font-family="sans-serif" font-size="12.18" font-weight="bold" lengthAdjust="spacing" textLength="45.24" x="676.425" y="19.6039">Domain</text><!--MD5=[15636c1ca4a123c16a2a1a8e90aca7a9]
cluster Model--><polygon fill="#FFFFFF" filter="url(#f1rfd2imcsdc3z)" points="693.825,441.96,737.325,441.96,743.415,462.5002,2143.68,462.5002,2143.68,758.64,693.825,758.64,693.825,441.96" style="stroke:#000000;stroke-width:1.305;"/><line style="stroke:#000000;stroke-width:1.305;" x1="693.825" x2="743.415" y1="462.5002" y2="462.5002"/><text fill="#000000" font-family="sans-serif" font-size="12.18" font-weight="bold" lengthAdjust="spacing" textLength="38.28" x="697.305" y="456.3439">Model</text><!--MD5=[8dd535d56cd4cf7faf64fdd082ba836e]
cluster Stores--><polygon fill="#FFFFFF" filter="url(#f1rfd2imcsdc3z)" points="1013.115,43.5,1058.355,43.5,1064.445,64.0402,1328.925,64.0402,1328.925,421.08,1013.115,421.08,1013.115,43.5" style="stroke:#000000;stroke-width:1.305;"/><line style="stroke:#000000;stroke-width:1.305;" x1="1013.115" x2="1064.445" y1="64.0402" y2="64.0402"/><text fill="#000000" font-family="sans-serif" font-size="12.18" font-weight="bold" lengthAdjust="spacing" textLength="40.02" x="1016.595" y="57.8839">Stores</text><!--MD5=[1f2cfc53d9d308f53762fd0fcbaa4873]
cluster Controller--><polygon fill="#FFFFFF" filter="url(#f1rfd2imcsdc3z)" points="161.82,1019.64,228.81,1019.64,234.9,1040.1802,574.2,1040.1802,574.2,1167.54,161.82,1167.54,161.82,1019.64" style="stroke:#000000;stroke-width:1.305;"/><line style="stroke:#000000;stroke-width:1.305;" x1="161.82" x2="234.9" y1="1040.1802" y2="1040.1802"/><text fill="#000000" font-family="sans-serif" font-size="12.18" font-weight="bold" lengthAdjust="spacing" textLength="61.77" x="165.3" y="1034.0239">Controller</text><!--MD5=[7b8bc9ee8bb84b99fb3a3f9477c19238]
cluster DTO--><polygon fill="#FFFFFF" filter="url(#f1rfd2imcsdc3z)" points="1000.5,1162.32,1030.95,1162.32,1037.04,1182.8602,1341.54,1182.8602,1341.54,1552.08,1000.5,1552.08,1000.5,1162.32" style="stroke:#000000;stroke-width:1.305;"/><line style="stroke:#000000;stroke-width:1.305;" x1="1000.5" x2="1037.04" y1="1182.8602" y2="1182.8602"/><text fill="#000000" font-family="sans-serif" font-size="12.18" font-weight="bold" lengthAdjust="spacing" textLength="25.23" x="1003.98" y="1176.7039">DTO</text><!--MD5=[701152d03fbf85133a1de050cfdbc7fd]
cluster Mappers--><polygon fill="#FFFFFF" filter="url(#f1rfd2imcsdc3z)" points="602.91,941.34,662.07,941.34,668.16,961.8802,913.5,961.8802,913.5,1245.84,602.91,1245.84,602.91,941.34" style="stroke:#000000;stroke-width:1.305;"/><line style="stroke:#000000;stroke-width:1.305;" x1="602.91" x2="668.16" y1="961.8802" y2="961.8802"/><text fill="#000000" font-family="sans-serif" font-size="12.18" font-weight="bold" lengthAdjust="spacing" textLength="53.94" x="606.39" y="955.7239">Mappers</text><!--MD5=[92f70f89e9f3cc4b172fe964212d1829]
class CreateTestUI--><rect codeLine="6" fill="#FEFECE" filter="url(#f1rfd2imcsdc3z)" height="41.76" id="CreateTestUI" style="stroke:#A80036;stroke-width:1.305;" width="91.35" x="27.84" y="1486.83"/><ellipse cx="40.89" cy="1500.75" fill="#ADD1B2" rx="9.57" ry="9.57" style="stroke:#A80036;stroke-width:0.87;"/><path d="M42.63,1497.705 Q42.8067,1497.27 43.0106,1497.0525 Q43.2145,1496.835 43.4456,1496.835 Q43.8534,1496.835 44.1117,1497.0797 Q44.37,1497.3244 44.37,1497.8953 L44.37,1499.2547 Q44.37,1499.8256 44.1253,1500.0703 Q43.8806,1500.315 43.5,1500.315 Q43.1602,1500.315 42.9427,1500.1655 Q42.7252,1500.0159 42.63,1499.6217 Q42.5892,1499.3498 42.4397,1499.2003 Q42.1678,1498.9148 41.6784,1498.7517 Q41.1891,1498.575 40.6997,1498.575 Q40.088,1498.575 39.5714,1498.8197 Q39.0684,1499.0644 38.6742,1499.6081 Q38.28,1500.1519 38.28,1500.8995 L38.28,1501.7016 Q38.28,1502.5987 39.0141,1503.1969 Q39.7481,1503.795 41.0531,1503.795 Q41.828,1503.795 42.3717,1503.6183 Q42.6844,1503.5231 43.0378,1503.2105 Q43.2689,1503.0338 43.3913,1502.9794 Q43.5136,1502.925 43.6631,1502.925 Q43.9486,1502.925 44.1525,1503.1561 Q44.37,1503.3736 44.37,1503.6863 Q44.37,1503.9853 44.0709,1504.3388 Q43.6359,1504.8553 42.9427,1505.1408 Q42.0319,1505.535 40.9172,1505.535 Q39.6122,1505.535 38.5655,1505.0184 Q37.7227,1504.6106 37.1245,1503.727 Q36.54,1502.8434 36.54,1501.7967 L36.54,1500.8452 Q36.54,1499.7577 37.0566,1498.8061 Q37.5867,1497.8545 38.4975,1497.3516 Q39.4219,1496.835 40.455,1496.835 Q41.0803,1496.835 41.6241,1497.0525 Q42.1678,1497.27 42.63,1497.705 Z " fill="#000000"/><text fill="#000000" font-family="sans-serif" font-size="10.44" lengthAdjust="spacing" textLength="63.51" x="53.07" y="1505.0218">CreateTestUI</text><line style="stroke:#A80036;stroke-width:1.305;" x1="28.71" x2="118.32" y1="1514.67" y2="1514.67"/><line style="stroke:#A80036;stroke-width:1.305;" x1="28.71" x2="118.32" y1="1521.63" y2="1521.63"/><!--MD5=[aeb3272166074d8737a70b61b1e71682]
class TestType--><rect codeLine="14" fill="#FEFECE" filter="url(#f1rfd2imcsdc3z)" height="77.8718" id="TestType" style="stroke:#A80036;stroke-width:1.305;" width="115.71" x="1499.445" y="666.42"/><ellipse cx="1532.4615" cy="680.34" fill="#ADD1B2" rx="9.57" ry="9.57" style="stroke:#A80036;stroke-width:0.87;"/><path d="M1534.2015,677.295 Q1534.3782,676.86 1534.5821,676.6425 Q1534.786,676.425 1535.0171,676.425 Q1535.4249,676.425 1535.6832,676.6697 Q1535.9415,676.9144 1535.9415,677.4853 L1535.9415,678.8447 Q1535.9415,679.4156 1535.6968,679.6603 Q1535.4521,679.905 1535.0715,679.905 Q1534.7317,679.905 1534.5142,679.7555 Q1534.2967,679.6059 1534.2015,679.2117 Q1534.1607,678.9398 1534.0112,678.7903 Q1533.7393,678.5048 1533.2499,678.3417 Q1532.7606,678.165 1532.2712,678.165 Q1531.6595,678.165 1531.1429,678.4097 Q1530.6399,678.6544 1530.2457,679.1981 Q1529.8515,679.7419 1529.8515,680.4895 L1529.8515,681.2916 Q1529.8515,682.1888 1530.5856,682.7869 Q1531.3196,683.385 1532.6246,683.385 Q1533.3995,683.385 1533.9432,683.2083 Q1534.2559,683.1131 1534.6093,682.8005 Q1534.8404,682.6238 1534.9628,682.5694 Q1535.0851,682.515 1535.2346,682.515 Q1535.5201,682.515 1535.724,682.7461 Q1535.9415,682.9636 1535.9415,683.2763 Q1535.9415,683.5753 1535.6424,683.9288 Q1535.2074,684.4453 1534.5142,684.7308 Q1533.6034,685.125 1532.4887,685.125 Q1531.1837,685.125 1530.137,684.6084 Q1529.2942,684.2006 1528.696,683.317 Q1528.1115,682.4334 1528.1115,681.3867 L1528.1115,680.4352 Q1528.1115,679.3477 1528.6281,678.3961 Q1529.1582,677.4445 1530.069,676.9416 Q1530.9934,676.425 1532.0265,676.425 Q1532.6518,676.425 1533.1956,676.6425 Q1533.7393,676.86 1534.2015,677.295 Z " fill="#000000"/><text fill="#000000" font-family="sans-serif" font-size="10.44" lengthAdjust="spacing" textLength="43.5" x="1549.0785" y="684.6118">TestType</text><line style="stroke:#A80036;stroke-width:1.305;" x1="1500.315" x2="1614.285" y1="694.26" y2="694.26"/><text fill="#000000" font-family="sans-serif" font-size="9.57" lengthAdjust="spacing" textLength="56.55" x="1504.665" y="707.6745">-code : String</text><text fill="#000000" font-family="sans-serif" font-size="9.57" lengthAdjust="spacing" textLength="81.78" x="1504.665" y="719.7117">-description : String</text><text fill="#000000" font-family="sans-serif" font-size="9.57" lengthAdjust="spacing" textLength="105.27" x="1504.665" y="731.749">-collectingMethod : String</text><line style="stroke:#A80036;stroke-width:1.305;" x1="1500.315" x2="1614.285" y1="737.3318" y2="737.3318"/><!--MD5=[df38be88ccee13e832d6fafd6288a4ca]
class Test--><rect codeLine="20" fill="#FEFECE" filter="url(#f1rfd2imcsdc3z)" height="65.8345" id="Test" style="stroke:#A80036;stroke-width:1.305;" width="83.52" x="1129.26" y="535.05"/><ellipse cx="1157.97" cy="548.97" fill="#ADD1B2" rx="9.57" ry="9.57" style="stroke:#A80036;stroke-width:0.87;"/><path d="M1159.71,545.925 Q1159.8867,545.49 1160.0906,545.2725 Q1160.2945,545.055 1160.5256,545.055 Q1160.9334,545.055 1161.1917,545.2997 Q1161.45,545.5444 1161.45,546.1153 L1161.45,547.4747 Q1161.45,548.0456 1161.2053,548.2903 Q1160.9606,548.535 1160.58,548.535 Q1160.2402,548.535 1160.0227,548.3855 Q1159.8052,548.2359 1159.71,547.8417 Q1159.6692,547.5698 1159.5197,547.4203 Q1159.2478,547.1348 1158.7584,546.9717 Q1158.2691,546.795 1157.7797,546.795 Q1157.168,546.795 1156.6514,547.0397 Q1156.1484,547.2844 1155.7542,547.8281 Q1155.36,548.3719 1155.36,549.1195 L1155.36,549.9216 Q1155.36,550.8188 1156.0941,551.4169 Q1156.8281,552.015 1158.1331,552.015 Q1158.908,552.015 1159.4517,551.8383 Q1159.7644,551.7431 1160.1178,551.4305 Q1160.3489,551.2538 1160.4713,551.1994 Q1160.5936,551.145 1160.7431,551.145 Q1161.0286,551.145 1161.2325,551.3761 Q1161.45,551.5936 1161.45,551.9063 Q1161.45,552.2053 1161.1509,552.5588 Q1160.7159,553.0753 1160.0227,553.3608 Q1159.1119,553.755 1157.9972,553.755 Q1156.6922,553.755 1155.6455,553.2384 Q1154.8027,552.8306 1154.2045,551.947 Q1153.62,551.0634 1153.62,550.0167 L1153.62,549.0652 Q1153.62,547.9777 1154.1366,547.0261 Q1154.6667,546.0745 1155.5775,545.5716 Q1156.5019,545.055 1157.535,545.055 Q1158.1603,545.055 1158.7041,545.2725 Q1159.2478,545.49 1159.71,545.925 Z " fill="#000000"/><text fill="#000000" font-family="sans-serif" font-size="10.44" lengthAdjust="spacing" textLength="20.88" x="1173.63" y="553.2418">Test</text><line style="stroke:#A80036;stroke-width:1.305;" x1="1130.13" x2="1211.91" y1="562.89" y2="562.89"/><text fill="#000000" font-family="sans-serif" font-size="9.57" lengthAdjust="spacing" textLength="73.08" x="1134.48" y="576.3045">-NHSCode: String</text><text fill="#000000" font-family="sans-serif" font-size="9.57" lengthAdjust="spacing" textLength="53.94" x="1134.48" y="588.3417">-code: String</text><line style="stroke:#A80036;stroke-width:1.305;" x1="1130.13" x2="1211.91" y1="593.9245" y2="593.9245"/><!--MD5=[9681492165142af2a4a3a169d90ee8d4]
class Sample--><rect codeLine="25" fill="#FEFECE" filter="url(#f1rfd2imcsdc3z)" height="53.7973" id="Sample" style="stroke:#A80036;stroke-width:1.305;" width="65.25" x="1524.675" y="505.47"/><ellipse cx="1537.725" cy="519.39" fill="#ADD1B2" rx="9.57" ry="9.57" style="stroke:#A80036;stroke-width:0.87;"/><path d="M1539.465,516.345 Q1539.6417,515.91 1539.8456,515.6925 Q1540.0495,515.475 1540.2806,515.475 Q1540.6884,515.475 1540.9467,515.7197 Q1541.205,515.9644 1541.205,516.5353 L1541.205,517.8947 Q1541.205,518.4656 1540.9603,518.7103 Q1540.7156,518.955 1540.335,518.955 Q1539.9952,518.955 1539.7777,518.8055 Q1539.5602,518.6559 1539.465,518.2617 Q1539.4242,517.9898 1539.2747,517.8403 Q1539.0028,517.5548 1538.5134,517.3917 Q1538.0241,517.215 1537.5347,517.215 Q1536.923,517.215 1536.4064,517.4597 Q1535.9034,517.7044 1535.5092,518.2481 Q1535.115,518.7919 1535.115,519.5395 L1535.115,520.3416 Q1535.115,521.2388 1535.8491,521.8369 Q1536.5831,522.435 1537.8881,522.435 Q1538.663,522.435 1539.2067,522.2583 Q1539.5194,522.1631 1539.8728,521.8505 Q1540.1039,521.6738 1540.2263,521.6194 Q1540.3486,521.565 1540.4981,521.565 Q1540.7836,521.565 1540.9875,521.7961 Q1541.205,522.0136 1541.205,522.3263 Q1541.205,522.6253 1540.9059,522.9788 Q1540.4709,523.4953 1539.7777,523.7808 Q1538.8669,524.175 1537.7522,524.175 Q1536.4472,524.175 1535.4005,523.6584 Q1534.5577,523.2506 1533.9595,522.367 Q1533.375,521.4834 1533.375,520.4367 L1533.375,519.4852 Q1533.375,518.3977 1533.8916,517.4461 Q1534.4217,516.4945 1535.3325,515.9916 Q1536.2569,515.475 1537.29,515.475 Q1537.9153,515.475 1538.4591,515.6925 Q1539.0028,515.91 1539.465,516.345 Z " fill="#000000"/><text fill="#000000" font-family="sans-serif" font-size="10.44" lengthAdjust="spacing" textLength="37.41" x="1549.905" y="523.6618">Sample</text><line style="stroke:#A80036;stroke-width:1.305;" x1="1525.545" x2="1589.055" y1="533.31" y2="533.31"/><text fill="#000000" font-family="sans-serif" font-size="9.57" lengthAdjust="spacing" textLength="39.15" x="1529.895" y="546.7245">-barCode</text><line style="stroke:#A80036;stroke-width:1.305;" x1="1525.545" x2="1589.055" y1="552.3073" y2="552.3073"/><!--MD5=[1f6362a5c8f21d8d6a0fce68f3a92a4e]
class Parameter--><rect codeLine="29" fill="#FEFECE" filter="url(#f1rfd2imcsdc3z)" height="77.8718" id="Parameter" style="stroke:#A80036;stroke-width:1.305;" width="78.3" x="1775.235" y="573.33"/><ellipse cx="1788.285" cy="587.25" fill="#ADD1B2" rx="9.57" ry="9.57" style="stroke:#A80036;stroke-width:0.87;"/><path d="M1790.025,584.205 Q1790.2017,583.77 1790.4056,583.5525 Q1790.6095,583.335 1790.8406,583.335 Q1791.2484,583.335 1791.5067,583.5797 Q1791.765,583.8244 1791.765,584.3953 L1791.765,585.7547 Q1791.765,586.3256 1791.5203,586.5703 Q1791.2756,586.815 1790.895,586.815 Q1790.5552,586.815 1790.3377,586.6655 Q1790.1202,586.5159 1790.025,586.1217 Q1789.9842,585.8498 1789.8347,585.7003 Q1789.5628,585.4148 1789.0734,585.2517 Q1788.5841,585.075 1788.0947,585.075 Q1787.483,585.075 1786.9664,585.3197 Q1786.4634,585.5644 1786.0692,586.1081 Q1785.675,586.6519 1785.675,587.3995 L1785.675,588.2016 Q1785.675,589.0988 1786.4091,589.6969 Q1787.1431,590.295 1788.4481,590.295 Q1789.223,590.295 1789.7667,590.1183 Q1790.0794,590.0231 1790.4328,589.7105 Q1790.6639,589.5337 1790.7862,589.4794 Q1790.9086,589.425 1791.0581,589.425 Q1791.3436,589.425 1791.5475,589.6561 Q1791.765,589.8736 1791.765,590.1863 Q1791.765,590.4853 1791.4659,590.8388 Q1791.0309,591.3553 1790.3377,591.6408 Q1789.4269,592.035 1788.3122,592.035 Q1787.0072,592.035 1785.9605,591.5184 Q1785.1177,591.1106 1784.5195,590.227 Q1783.935,589.3434 1783.935,588.2967 L1783.935,587.3452 Q1783.935,586.2577 1784.4516,585.3061 Q1784.9817,584.3545 1785.8925,583.8516 Q1786.8169,583.335 1787.85,583.335 Q1788.4753,583.335 1789.0191,583.5525 Q1789.5628,583.77 1790.025,584.205 Z " fill="#000000"/><text fill="#000000" font-family="sans-serif" font-size="10.44" lengthAdjust="spacing" textLength="50.46" x="1800.465" y="591.5218">Parameter</text><line style="stroke:#A80036;stroke-width:1.305;" x1="1776.105" x2="1852.665" y1="601.17" y2="601.17"/><text fill="#000000" font-family="sans-serif" font-size="9.57" lengthAdjust="spacing" textLength="24.36" x="1780.455" y="614.5845">-code</text><text fill="#000000" font-family="sans-serif" font-size="9.57" lengthAdjust="spacing" textLength="48.72" x="1780.455" y="626.6217">-shortName</text><text fill="#000000" font-family="sans-serif" font-size="9.57" lengthAdjust="spacing" textLength="49.59" x="1780.455" y="638.659">-description</text><line style="stroke:#A80036;stroke-width:1.305;" x1="1776.105" x2="1852.665" y1="644.2418" y2="644.2418"/><!--MD5=[02e4b9b7573f1156f41e60aa5b4e25a4]
class Company--><rect codeLine="35" fill="#FEFECE" filter="url(#f1rfd2imcsdc3z)" height="89.9091" id="Company" style="stroke:#A80036;stroke-width:1.305;" width="100.92" x="707.745" y="473.715"/><ellipse cx="732.9315" cy="487.635" fill="#ADD1B2" rx="9.57" ry="9.57" style="stroke:#A80036;stroke-width:0.87;"/><path d="M734.6715,484.59 Q734.8482,484.155 735.0521,483.9375 Q735.256,483.72 735.4871,483.72 Q735.8949,483.72 736.1532,483.9647 Q736.4115,484.2094 736.4115,484.7803 L736.4115,486.1397 Q736.4115,486.7106 736.1668,486.9553 Q735.9221,487.2 735.5415,487.2 Q735.2017,487.2 734.9842,487.0505 Q734.7667,486.9009 734.6715,486.5067 Q734.6307,486.2348 734.4812,486.0853 Q734.2093,485.7998 733.7199,485.6367 Q733.2306,485.46 732.7412,485.46 Q732.1295,485.46 731.6129,485.7047 Q731.1099,485.9494 730.7157,486.4931 Q730.3215,487.0369 730.3215,487.7845 L730.3215,488.5866 Q730.3215,489.4838 731.0556,490.0819 Q731.7896,490.68 733.0946,490.68 Q733.8695,490.68 734.4132,490.5033 Q734.7259,490.4081 735.0793,490.0955 Q735.3104,489.9188 735.4328,489.8644 Q735.5551,489.81 735.7046,489.81 Q735.9901,489.81 736.194,490.0411 Q736.4115,490.2586 736.4115,490.5713 Q736.4115,490.8703 736.1124,491.2238 Q735.6774,491.7403 734.9842,492.0258 Q734.0734,492.42 732.9587,492.42 Q731.6537,492.42 730.607,491.9034 Q729.7642,491.4956 729.166,490.612 Q728.5815,489.7284 728.5815,488.6817 L728.5815,487.7302 Q728.5815,486.6427 729.0981,485.6911 Q729.6282,484.7395 730.539,484.2366 Q731.4634,483.72 732.4965,483.72 Q733.1218,483.72 733.6656,483.9375 Q734.2093,484.155 734.6715,484.59 Z " fill="#000000"/><text fill="#000000" font-family="sans-serif" font-size="10.44" lengthAdjust="spacing" textLength="46.11" x="747.8085" y="491.9068">Company</text><line style="stroke:#A80036;stroke-width:1.305;" x1="708.615" x2="807.795" y1="501.555" y2="501.555"/><text fill="#000000" font-family="sans-serif" font-size="9.57" lengthAdjust="spacing" textLength="83.52" x="712.965" y="514.9695">-designation : String</text><line style="stroke:#A80036;stroke-width:1.305;" x1="708.615" x2="807.795" y1="520.5523" y2="520.5523"/><text fill="#000000" font-family="sans-serif" font-size="9.57" lengthAdjust="spacing" textLength="87" x="712.965" y="533.9667">+getTestTypeStore()</text><text fill="#000000" font-family="sans-serif" font-size="9.57" lengthAdjust="spacing" textLength="90.48" x="712.965" y="546.004">+getParameterStore()</text><text fill="#000000" font-family="sans-serif" font-size="9.57" lengthAdjust="spacing" textLength="66.12" x="712.965" y="558.0413">+getTestStore()</text><!--MD5=[36afb6bbd95a8ac778c4537c55a683d5]
class ParameterCategory--><rect codeLine="42" fill="#FEFECE" filter="url(#f1rfd2imcsdc3z)" height="65.8345" id="ParameterCategory" style="stroke:#A80036;stroke-width:1.305;" width="120.93" x="2008.83" y="672.51"/><ellipse cx="2021.88" cy="686.43" fill="#ADD1B2" rx="9.57" ry="9.57" style="stroke:#A80036;stroke-width:0.87;"/><path d="M2023.62,683.385 Q2023.7967,682.95 2024.0006,682.7325 Q2024.2045,682.515 2024.4356,682.515 Q2024.8434,682.515 2025.1017,682.7597 Q2025.36,683.0044 2025.36,683.5753 L2025.36,684.9347 Q2025.36,685.5056 2025.1153,685.7503 Q2024.8706,685.995 2024.49,685.995 Q2024.1502,685.995 2023.9327,685.8455 Q2023.7152,685.6959 2023.62,685.3017 Q2023.5792,685.0298 2023.4297,684.8803 Q2023.1578,684.5948 2022.6684,684.4317 Q2022.1791,684.255 2021.6897,684.255 Q2021.078,684.255 2020.5614,684.4997 Q2020.0584,684.7444 2019.6642,685.2881 Q2019.27,685.8319 2019.27,686.5795 L2019.27,687.3816 Q2019.27,688.2788 2020.0041,688.8769 Q2020.7381,689.475 2022.0431,689.475 Q2022.818,689.475 2023.3617,689.2983 Q2023.6744,689.2031 2024.0278,688.8905 Q2024.2589,688.7138 2024.3813,688.6594 Q2024.5036,688.605 2024.6531,688.605 Q2024.9386,688.605 2025.1425,688.8361 Q2025.36,689.0536 2025.36,689.3663 Q2025.36,689.6653 2025.0609,690.0188 Q2024.6259,690.5353 2023.9327,690.8208 Q2023.0219,691.215 2021.9072,691.215 Q2020.6022,691.215 2019.5555,690.6984 Q2018.7127,690.2906 2018.1145,689.407 Q2017.53,688.5234 2017.53,687.4767 L2017.53,686.5252 Q2017.53,685.4377 2018.0466,684.4861 Q2018.5767,683.5345 2019.4875,683.0316 Q2020.4119,682.515 2021.445,682.515 Q2022.0703,682.515 2022.6141,682.7325 Q2023.1578,682.95 2023.62,683.385 Z " fill="#000000"/><text fill="#000000" font-family="sans-serif" font-size="10.44" lengthAdjust="spacing" textLength="93.09" x="2034.06" y="690.7018">ParameterCategory</text><line style="stroke:#A80036;stroke-width:1.305;" x1="2009.7" x2="2128.89" y1="700.35" y2="700.35"/><text fill="#000000" font-family="sans-serif" font-size="9.57" lengthAdjust="spacing" textLength="24.36" x="2014.05" y="713.7645">-code</text><text fill="#000000" font-family="sans-serif" font-size="9.57" lengthAdjust="spacing" textLength="26.1" x="2014.05" y="725.8017">-name</text><line style="stroke:#A80036;stroke-width:1.305;" x1="2009.7" x2="2128.89" y1="731.3845" y2="731.3845"/><!--MD5=[be7802b157a16874d39c59ca0e2b25be]
class ParameterStore--><rect codeLine="49" fill="#FEFECE" filter="url(#f1rfd2imcsdc3z)" height="101.9463" id="ParameterStore" style="stroke:#A80036;stroke-width:1.305;" width="283.62" x="1029.21" y="75.255"/><ellipse cx="1129.4775" cy="89.175" fill="#ADD1B2" rx="9.57" ry="9.57" style="stroke:#A80036;stroke-width:0.87;"/><path d="M1131.2175,86.13 Q1131.3942,85.695 1131.5981,85.4775 Q1131.802,85.26 1132.0331,85.26 Q1132.4409,85.26 1132.6992,85.5047 Q1132.9575,85.7494 1132.9575,86.3203 L1132.9575,87.6797 Q1132.9575,88.2506 1132.7128,88.4953 Q1132.4681,88.74 1132.0875,88.74 Q1131.7477,88.74 1131.5302,88.5905 Q1131.3127,88.4409 1131.2175,88.0467 Q1131.1767,87.7748 1131.0272,87.6253 Q1130.7553,87.3398 1130.2659,87.1767 Q1129.7766,87 1129.2872,87 Q1128.6755,87 1128.1589,87.2447 Q1127.6559,87.4894 1127.2617,88.0331 Q1126.8675,88.5769 1126.8675,89.3245 L1126.8675,90.1266 Q1126.8675,91.0237 1127.6016,91.6219 Q1128.3356,92.22 1129.6406,92.22 Q1130.4155,92.22 1130.9592,92.0433 Q1131.2719,91.9481 1131.6253,91.6355 Q1131.8564,91.4588 1131.9788,91.4044 Q1132.1011,91.35 1132.2506,91.35 Q1132.5361,91.35 1132.74,91.5811 Q1132.9575,91.7986 1132.9575,92.1113 Q1132.9575,92.4103 1132.6584,92.7638 Q1132.2234,93.2803 1131.5302,93.5658 Q1130.6194,93.96 1129.5047,93.96 Q1128.1997,93.96 1127.153,93.4434 Q1126.3102,93.0356 1125.712,92.152 Q1125.1275,91.2684 1125.1275,90.2217 L1125.1275,89.2702 Q1125.1275,88.1827 1125.6441,87.2311 Q1126.1742,86.2795 1127.085,85.7766 Q1128.0094,85.26 1129.0425,85.26 Q1129.6678,85.26 1130.2116,85.4775 Q1130.7553,85.695 1131.2175,86.13 Z " fill="#000000"/><text fill="#000000" font-family="sans-serif" font-size="10.44" lengthAdjust="spacing" textLength="75.69" x="1147.3125" y="93.4468">ParameterStore</text><line style="stroke:#A80036;stroke-width:1.305;" x1="1030.08" x2="1311.96" y1="103.095" y2="103.095"/><line style="stroke:#A80036;stroke-width:1.305;" x1="1030.08" x2="1311.96" y1="110.055" y2="110.055"/><text fill="#000000" font-family="sans-serif" font-size="9.57" lengthAdjust="spacing" textLength="135.72" x="1034.43" y="123.4695">+getParameterCategoriesStore()</text><text fill="#000000" font-family="sans-serif" font-size="9.57" lengthAdjust="spacing" textLength="225.33" x="1034.43" y="135.5067">+getCategoriesByCode(List&lt;String&gt; ParameterCodes)</text><text fill="#000000" font-family="sans-serif" font-size="9.57" lengthAdjust="spacing" textLength="144.42" x="1034.43" y="147.544">+getCategoryByCode(String code)</text><text fill="#000000" font-family="sans-serif" font-size="9.57" lengthAdjust="spacing" textLength="273.18" x="1034.43" y="159.5813">+getParamsByCategories(List&lt;String&gt; selectedCategoriesCodes)</text><text fill="#000000" font-family="sans-serif" font-size="9.57" lengthAdjust="spacing" textLength="170.52" x="1034.43" y="171.6185">+getParamsByCategory(String category)</text><!--MD5=[6ba72ddf03822b91e8d41ca71de58ed3]
class TestTypeStore--><rect codeLine="57" fill="#FEFECE" filter="url(#f1rfd2imcsdc3z)" height="77.8718" id="TestTypeStore" style="stroke:#A80036;stroke-width:1.305;" width="276.66" x="1032.69" y="207.93"/><ellipse cx="1132.9575" cy="221.85" fill="#ADD1B2" rx="9.57" ry="9.57" style="stroke:#A80036;stroke-width:0.87;"/><path d="M1134.6975,218.805 Q1134.8742,218.37 1135.0781,218.1525 Q1135.282,217.935 1135.5131,217.935 Q1135.9209,217.935 1136.1792,218.1797 Q1136.4375,218.4244 1136.4375,218.9953 L1136.4375,220.3547 Q1136.4375,220.9256 1136.1928,221.1703 Q1135.9481,221.415 1135.5675,221.415 Q1135.2277,221.415 1135.0102,221.2655 Q1134.7927,221.1159 1134.6975,220.7217 Q1134.6567,220.4498 1134.5072,220.3003 Q1134.2353,220.0148 1133.7459,219.8517 Q1133.2566,219.675 1132.7672,219.675 Q1132.1555,219.675 1131.6389,219.9197 Q1131.1359,220.1644 1130.7417,220.7081 Q1130.3475,221.2519 1130.3475,221.9995 L1130.3475,222.8016 Q1130.3475,223.6988 1131.0816,224.2969 Q1131.8156,224.895 1133.1206,224.895 Q1133.8955,224.895 1134.4392,224.7183 Q1134.7519,224.6231 1135.1053,224.3105 Q1135.3364,224.1338 1135.4588,224.0794 Q1135.5811,224.025 1135.7306,224.025 Q1136.0161,224.025 1136.22,224.2561 Q1136.4375,224.4736 1136.4375,224.7863 Q1136.4375,225.0853 1136.1384,225.4388 Q1135.7034,225.9553 1135.0102,226.2408 Q1134.0994,226.635 1132.9847,226.635 Q1131.6797,226.635 1130.633,226.1184 Q1129.7902,225.7106 1129.192,224.827 Q1128.6075,223.9434 1128.6075,222.8967 L1128.6075,221.9452 Q1128.6075,220.8577 1129.1241,219.9061 Q1129.6542,218.9545 1130.565,218.4516 Q1131.4894,217.935 1132.5225,217.935 Q1133.1478,217.935 1133.6916,218.1525 Q1134.2353,218.37 1134.6975,218.805 Z " fill="#000000"/><text fill="#000000" font-family="sans-serif" font-size="10.44" lengthAdjust="spacing" textLength="68.73" x="1150.7925" y="226.1218">TestTypeStore</text><line style="stroke:#A80036;stroke-width:1.305;" x1="1033.56" x2="1308.48" y1="235.77" y2="235.77"/><line style="stroke:#A80036;stroke-width:1.305;" x1="1033.56" x2="1308.48" y1="242.73" y2="242.73"/><text fill="#000000" font-family="sans-serif" font-size="9.57" lengthAdjust="spacing" textLength="69.6" x="1037.91" y="256.1445">+getTestTypes()</text><text fill="#000000" font-family="sans-serif" font-size="9.57" lengthAdjust="spacing" textLength="145.29" x="1037.91" y="268.1817">+getTestTypeByCode(String code)</text><text fill="#000000" font-family="sans-serif" font-size="9.57" lengthAdjust="spacing" textLength="266.22" x="1037.91" y="280.219">+getCategoriesByTestTypeCode(String selectedTestTypeCode)</text><!--MD5=[0f6f7964b844a64b0496af0dda7914bd]
class TestStore--><rect codeLine="63" fill="#FEFECE" filter="url(#f1rfd2imcsdc3z)" height="89.9091" id="TestStore" style="stroke:#A80036;stroke-width:1.305;" width="287.97" x="1027.035" y="317.115"/><ellipse cx="1144.2675" cy="331.035" fill="#ADD1B2" rx="9.57" ry="9.57" style="stroke:#A80036;stroke-width:0.87;"/><path d="M1146.0075,327.99 Q1146.1842,327.555 1146.3881,327.3375 Q1146.592,327.12 1146.8231,327.12 Q1147.2309,327.12 1147.4892,327.3647 Q1147.7475,327.6094 1147.7475,328.1803 L1147.7475,329.5397 Q1147.7475,330.1106 1147.5028,330.3553 Q1147.2581,330.6 1146.8775,330.6 Q1146.5377,330.6 1146.3202,330.4505 Q1146.1027,330.3009 1146.0075,329.9067 Q1145.9667,329.6348 1145.8172,329.4853 Q1145.5453,329.1998 1145.0559,329.0367 Q1144.5666,328.86 1144.0772,328.86 Q1143.4655,328.86 1142.9489,329.1047 Q1142.4459,329.3494 1142.0517,329.8931 Q1141.6575,330.4369 1141.6575,331.1845 L1141.6575,331.9866 Q1141.6575,332.8838 1142.3916,333.4819 Q1143.1256,334.08 1144.4306,334.08 Q1145.2055,334.08 1145.7492,333.9033 Q1146.0619,333.8081 1146.4153,333.4955 Q1146.6464,333.3188 1146.7688,333.2644 Q1146.8911,333.21 1147.0406,333.21 Q1147.3261,333.21 1147.53,333.4411 Q1147.7475,333.6586 1147.7475,333.9713 Q1147.7475,334.2703 1147.4484,334.6238 Q1147.0134,335.1403 1146.3202,335.4258 Q1145.4094,335.82 1144.2947,335.82 Q1142.9897,335.82 1141.943,335.3034 Q1141.1002,334.8956 1140.502,334.012 Q1139.9175,333.1284 1139.9175,332.0817 L1139.9175,331.1302 Q1139.9175,330.0427 1140.4341,329.0911 Q1140.9642,328.1395 1141.875,327.6366 Q1142.7994,327.12 1143.8325,327.12 Q1144.4578,327.12 1145.0016,327.3375 Q1145.5453,327.555 1146.0075,327.99 Z " fill="#000000"/><text fill="#000000" font-family="sans-serif" font-size="10.44" lengthAdjust="spacing" textLength="46.11" x="1162.1025" y="335.3068">TestStore</text><line style="stroke:#A80036;stroke-width:1.305;" x1="1027.905" x2="1314.135" y1="344.955" y2="344.955"/><line style="stroke:#A80036;stroke-width:1.305;" x1="1027.905" x2="1314.135" y1="351.915" y2="351.915"/><text fill="#000000" font-family="sans-serif" font-size="9.57" lengthAdjust="spacing" textLength="221.85" x="1032.255" y="365.3295">+createTest(String NHScode, Client associatedClient,</text><text fill="#000000" font-family="sans-serif" font-size="9.57" lengthAdjust="spacing" textLength="274.92" x="1034.865" y="377.3667">TestType selectedTestType, List&lt;Parameter&gt;selectedParamsList)</text><text fill="#000000" font-family="sans-serif" font-size="9.57" lengthAdjust="spacing" textLength="78.3" x="1032.255" y="389.404">+validateTest(test)</text><text fill="#000000" font-family="sans-serif" font-size="9.57" lengthAdjust="spacing" textLength="66.99" x="1032.255" y="401.4413">+saveTest(test)</text><!--MD5=[9d781343e96e75b44552b4e167cedac1]
class CreateTestControler--><rect codeLine="73" fill="#FEFECE" filter="url(#f1rfd2imcsdc3z)" height="101.9463" id="CreateTestControler" style="stroke:#A80036;stroke-width:1.305;" width="384.54" x="175.74" y="1051.395"/><ellipse cx="315.5925" cy="1065.315" fill="#ADD1B2" rx="9.57" ry="9.57" style="stroke:#A80036;stroke-width:0.87;"/><path d="M317.3325,1062.27 Q317.5092,1061.835 317.7131,1061.6175 Q317.917,1061.4 318.1481,1061.4 Q318.5559,1061.4 318.8142,1061.6447 Q319.0725,1061.8894 319.0725,1062.4603 L319.0725,1063.8197 Q319.0725,1064.3906 318.8278,1064.6353 Q318.5831,1064.88 318.2025,1064.88 Q317.8627,1064.88 317.6452,1064.7305 Q317.4277,1064.5809 317.3325,1064.1867 Q317.2917,1063.9148 317.1422,1063.7653 Q316.8703,1063.4798 316.3809,1063.3167 Q315.8916,1063.14 315.4022,1063.14 Q314.7905,1063.14 314.2739,1063.3847 Q313.7709,1063.6294 313.3767,1064.1731 Q312.9825,1064.7169 312.9825,1065.4645 L312.9825,1066.2666 Q312.9825,1067.1638 313.7166,1067.7619 Q314.4506,1068.36 315.7556,1068.36 Q316.5305,1068.36 317.0742,1068.1833 Q317.3869,1068.0881 317.7403,1067.7755 Q317.9714,1067.5987 318.0938,1067.5444 Q318.2161,1067.49 318.3656,1067.49 Q318.6511,1067.49 318.855,1067.7211 Q319.0725,1067.9386 319.0725,1068.2513 Q319.0725,1068.5503 318.7734,1068.9038 Q318.3384,1069.4203 317.6452,1069.7058 Q316.7344,1070.1 315.6197,1070.1 Q314.3147,1070.1 313.268,1069.5834 Q312.4252,1069.1756 311.827,1068.292 Q311.2425,1067.4084 311.2425,1066.3617 L311.2425,1065.4102 Q311.2425,1064.3227 311.7591,1063.3711 Q312.2892,1062.4195 313.2,1061.9166 Q314.1244,1061.4 315.1575,1061.4 Q315.7828,1061.4 316.3266,1061.6175 Q316.8703,1061.835 317.3325,1062.27 Z " fill="#000000"/><text fill="#000000" font-family="sans-serif" font-size="10.44" lengthAdjust="spacing" textLength="97.44" x="333.4275" y="1069.5868">CreateTestControler</text><line style="stroke:#A80036;stroke-width:1.305;" x1="176.61" x2="559.41" y1="1079.235" y2="1079.235"/><line style="stroke:#A80036;stroke-width:1.305;" x1="176.61" x2="559.41" y1="1086.195" y2="1086.195"/><text fill="#000000" font-family="sans-serif" font-size="9.57" lengthAdjust="spacing" textLength="374.1" x="180.96" y="1099.6095">+createTest(NHScode, citizenCardNumber,selectedTestTypeCode, selectedParamCodes)</text><text fill="#000000" font-family="sans-serif" font-size="9.57" lengthAdjust="spacing" textLength="66.99" x="180.96" y="1111.6467">+saveTest(test)</text><text fill="#000000" font-family="sans-serif" font-size="9.57" lengthAdjust="spacing" textLength="134.85" x="180.96" y="1123.684">+getTestTypes() : TestTypeDTO</text><text fill="#000000" font-family="sans-serif" font-size="9.57" lengthAdjust="spacing" textLength="300.15" x="180.96" y="1135.7213">+getCategoriesListOfTestType(selectedTestTypeCode): CategoriesDTO</text><text fill="#000000" font-family="sans-serif" font-size="9.57" lengthAdjust="spacing" textLength="307.98" x="180.96" y="1147.7585">+getParametersOfCategories(selectedCategoriesCodes): ParametersDTO</text><!--MD5=[d0024740988d3925690046e9afae9c9c]
class TestTypeDTO--><rect codeLine="83" fill="#FEFECE" filter="url(#f1rfd2imcsdc3z)" height="101.9463" id="TestTypeDTO" style="stroke:#A80036;stroke-width:1.305;" width="313.2" x="1014.42" y="1194.075"/><ellipse cx="1134.6975" cy="1207.995" fill="#ADD1B2" rx="9.57" ry="9.57" style="stroke:#A80036;stroke-width:0.87;"/><path d="M1136.4375,1204.95 Q1136.6142,1204.515 1136.8181,1204.2975 Q1137.022,1204.08 1137.2531,1204.08 Q1137.6609,1204.08 1137.9192,1204.3247 Q1138.1775,1204.5694 1138.1775,1205.1403 L1138.1775,1206.4997 Q1138.1775,1207.0706 1137.9328,1207.3153 Q1137.6881,1207.56 1137.3075,1207.56 Q1136.9677,1207.56 1136.7502,1207.4105 Q1136.5327,1207.2609 1136.4375,1206.8667 Q1136.3967,1206.5948 1136.2472,1206.4453 Q1135.9753,1206.1598 1135.4859,1205.9967 Q1134.9966,1205.82 1134.5072,1205.82 Q1133.8955,1205.82 1133.3789,1206.0647 Q1132.8759,1206.3094 1132.4817,1206.8531 Q1132.0875,1207.3969 1132.0875,1208.1445 L1132.0875,1208.9466 Q1132.0875,1209.8438 1132.8216,1210.4419 Q1133.5556,1211.04 1134.8606,1211.04 Q1135.6355,1211.04 1136.1792,1210.8633 Q1136.4919,1210.7681 1136.8453,1210.4555 Q1137.0764,1210.2788 1137.1988,1210.2244 Q1137.3211,1210.17 1137.4706,1210.17 Q1137.7561,1210.17 1137.96,1210.4011 Q1138.1775,1210.6186 1138.1775,1210.9313 Q1138.1775,1211.2303 1137.8784,1211.5838 Q1137.4434,1212.1003 1136.7502,1212.3858 Q1135.8394,1212.78 1134.7247,1212.78 Q1133.4197,1212.78 1132.373,1212.2634 Q1131.5302,1211.8556 1130.932,1210.972 Q1130.3475,1210.0884 1130.3475,1209.0417 L1130.3475,1208.0902 Q1130.3475,1207.0027 1130.8641,1206.0511 Q1131.3942,1205.0995 1132.305,1204.5966 Q1133.2294,1204.08 1134.2625,1204.08 Q1134.8878,1204.08 1135.4316,1204.2975 Q1135.9753,1204.515 1136.4375,1204.95 Z " fill="#000000"/><text fill="#000000" font-family="sans-serif" font-size="10.44" lengthAdjust="spacing" textLength="65.25" x="1152.5325" y="1212.2668">TestTypeDTO</text><line style="stroke:#A80036;stroke-width:1.305;" x1="1015.29" x2="1326.75" y1="1221.915" y2="1221.915"/><text fill="#000000" font-family="sans-serif" font-size="9.57" lengthAdjust="spacing" textLength="24.36" x="1019.64" y="1235.3295">-code</text><text fill="#000000" font-family="sans-serif" font-size="9.57" lengthAdjust="spacing" textLength="49.59" x="1019.64" y="1247.3667">-description</text><text fill="#000000" font-family="sans-serif" font-size="9.57" lengthAdjust="spacing" textLength="73.08" x="1019.64" y="1259.404">-collectingMethod</text><text fill="#000000" font-family="sans-serif" font-size="9.57" lengthAdjust="spacing" textLength="150.51" x="1019.64" y="1271.4413">-List&lt;Category&gt; selectedCategories</text><line style="stroke:#A80036;stroke-width:1.305;" x1="1015.29" x2="1326.75" y1="1277.0241" y2="1277.0241"/><text fill="#000000" font-family="sans-serif" font-size="9.57" lengthAdjust="spacing" textLength="302.76" x="1019.64" y="1290.4385">+TestTypeDTO(code, description, collectingMethod, selectedCategories)</text><!--MD5=[6ca282d596ffdf8981b3c7f53e037f13]
class CategoryDto--><rect codeLine="91" fill="#FEFECE" filter="url(#f1rfd2imcsdc3z)" height="77.8718" id="CategoryDto" style="stroke:#A80036;stroke-width:1.305;" width="123.54" x="1109.25" y="1326.75"/><ellipse cx="1138.743" cy="1340.67" fill="#ADD1B2" rx="9.57" ry="9.57" style="stroke:#A80036;stroke-width:0.87;"/><path d="M1140.483,1337.625 Q1140.6597,1337.19 1140.8636,1336.9725 Q1141.0675,1336.755 1141.2986,1336.755 Q1141.7064,1336.755 1141.9647,1336.9997 Q1142.223,1337.2444 1142.223,1337.8153 L1142.223,1339.1747 Q1142.223,1339.7456 1141.9783,1339.9903 Q1141.7336,1340.235 1141.353,1340.235 Q1141.0132,1340.235 1140.7957,1340.0855 Q1140.5782,1339.9359 1140.483,1339.5417 Q1140.4422,1339.2698 1140.2927,1339.1203 Q1140.0208,1338.8348 1139.5314,1338.6717 Q1139.0421,1338.495 1138.5527,1338.495 Q1137.941,1338.495 1137.4244,1338.7397 Q1136.9214,1338.9844 1136.5272,1339.5281 Q1136.133,1340.0719 1136.133,1340.8195 L1136.133,1341.6216 Q1136.133,1342.5188 1136.8671,1343.1169 Q1137.6011,1343.715 1138.9061,1343.715 Q1139.681,1343.715 1140.2247,1343.5383 Q1140.5374,1343.4431 1140.8908,1343.1305 Q1141.1219,1342.9538 1141.2443,1342.8994 Q1141.3666,1342.845 1141.5161,1342.845 Q1141.8016,1342.845 1142.0055,1343.0761 Q1142.223,1343.2936 1142.223,1343.6063 Q1142.223,1343.9053 1141.9239,1344.2588 Q1141.4889,1344.7753 1140.7957,1345.0608 Q1139.8849,1345.455 1138.7702,1345.455 Q1137.4652,1345.455 1136.4185,1344.9384 Q1135.5757,1344.5306 1134.9775,1343.647 Q1134.393,1342.7634 1134.393,1341.7167 L1134.393,1340.7652 Q1134.393,1339.6777 1134.9096,1338.7261 Q1135.4397,1337.7745 1136.3505,1337.2716 Q1137.2749,1336.755 1138.308,1336.755 Q1138.9333,1336.755 1139.4771,1336.9725 Q1140.0208,1337.19 1140.483,1337.625 Z " fill="#000000"/><text fill="#000000" font-family="sans-serif" font-size="10.44" lengthAdjust="spacing" textLength="59.16" x="1154.577" y="1344.9418">CategoryDto</text><line style="stroke:#A80036;stroke-width:1.305;" x1="1110.12" x2="1231.92" y1="1354.59" y2="1354.59"/><text fill="#000000" font-family="sans-serif" font-size="9.57" lengthAdjust="spacing" textLength="24.36" x="1114.47" y="1368.0045">-code</text><text fill="#000000" font-family="sans-serif" font-size="9.57" lengthAdjust="spacing" textLength="26.1" x="1114.47" y="1380.0417">-name</text><line style="stroke:#A80036;stroke-width:1.305;" x1="1110.12" x2="1231.92" y1="1385.6245" y2="1385.6245"/><text fill="#000000" font-family="sans-serif" font-size="9.57" lengthAdjust="spacing" textLength="113.1" x="1114.47" y="1399.039">+CategoryDto(code, name)</text><!--MD5=[e82331375a7233007428e4f15d504621]
class ParameterDTO--><rect codeLine="97" fill="#FEFECE" filter="url(#f1rfd2imcsdc3z)" height="101.9463" id="ParameterDTO" style="stroke:#A80036;stroke-width:1.305;" width="294.06" x="1023.99" y="1435.935"/><ellipse cx="1131.2175" cy="1449.855" fill="#ADD1B2" rx="9.57" ry="9.57" style="stroke:#A80036;stroke-width:0.87;"/><path d="M1132.9575,1446.81 Q1133.1342,1446.375 1133.3381,1446.1575 Q1133.542,1445.94 1133.7731,1445.94 Q1134.1809,1445.94 1134.4392,1446.1847 Q1134.6975,1446.4294 1134.6975,1447.0003 L1134.6975,1448.3597 Q1134.6975,1448.9306 1134.4528,1449.1753 Q1134.2081,1449.42 1133.8275,1449.42 Q1133.4877,1449.42 1133.2702,1449.2705 Q1133.0527,1449.1209 1132.9575,1448.7267 Q1132.9167,1448.4548 1132.7672,1448.3053 Q1132.4953,1448.0198 1132.0059,1447.8567 Q1131.5166,1447.68 1131.0272,1447.68 Q1130.4155,1447.68 1129.8989,1447.9247 Q1129.3959,1448.1694 1129.0017,1448.7131 Q1128.6075,1449.2569 1128.6075,1450.0045 L1128.6075,1450.8066 Q1128.6075,1451.7038 1129.3416,1452.3019 Q1130.0756,1452.9 1131.3806,1452.9 Q1132.1555,1452.9 1132.6992,1452.7233 Q1133.0119,1452.6281 1133.3653,1452.3155 Q1133.5964,1452.1388 1133.7188,1452.0844 Q1133.8411,1452.03 1133.9906,1452.03 Q1134.2761,1452.03 1134.48,1452.2611 Q1134.6975,1452.4786 1134.6975,1452.7913 Q1134.6975,1453.0903 1134.3984,1453.4438 Q1133.9634,1453.9603 1133.2702,1454.2458 Q1132.3594,1454.64 1131.2447,1454.64 Q1129.9397,1454.64 1128.893,1454.1234 Q1128.0502,1453.7156 1127.452,1452.832 Q1126.8675,1451.9484 1126.8675,1450.9017 L1126.8675,1449.9502 Q1126.8675,1448.8627 1127.3841,1447.9111 Q1127.9142,1446.9595 1128.825,1446.4566 Q1129.7494,1445.94 1130.7825,1445.94 Q1131.4078,1445.94 1131.9516,1446.1575 Q1132.4953,1446.375 1132.9575,1446.81 Z " fill="#000000"/><text fill="#000000" font-family="sans-serif" font-size="10.44" lengthAdjust="spacing" textLength="72.21" x="1149.0525" y="1454.1268">ParameterDTO</text><line style="stroke:#A80036;stroke-width:1.305;" x1="1024.86" x2="1317.18" y1="1463.775" y2="1463.775"/><text fill="#000000" font-family="sans-serif" font-size="9.57" lengthAdjust="spacing" textLength="24.36" x="1029.21" y="1477.1895">-code</text><text fill="#000000" font-family="sans-serif" font-size="9.57" lengthAdjust="spacing" textLength="48.72" x="1029.21" y="1489.2267">-shortName</text><text fill="#000000" font-family="sans-serif" font-size="9.57" lengthAdjust="spacing" textLength="49.59" x="1029.21" y="1501.264">-description</text><text fill="#000000" font-family="sans-serif" font-size="9.57" lengthAdjust="spacing" textLength="84.39" x="1029.21" y="1513.3013">-ParameterCategory</text><line style="stroke:#A80036;stroke-width:1.305;" x1="1024.86" x2="1317.18" y1="1518.8841" y2="1518.8841"/><text fill="#000000" font-family="sans-serif" font-size="9.57" lengthAdjust="spacing" textLength="283.62" x="1029.21" y="1532.2985">+ParameterDTO(code, shortName, description, ParameterCategory)'</text><!--MD5=[724ead17d3ca940995455a91cefd1e12]
class TestTypeMapper--><rect codeLine="108" fill="#FEFECE" filter="url(#f1rfd2imcsdc3z)" height="65.8345" id="TestTypeMapper" style="stroke:#A80036;stroke-width:1.305;" width="242.73" x="636.84" y="972.66"/><ellipse cx="714.9225" cy="986.58" fill="#ADD1B2" rx="9.57" ry="9.57" style="stroke:#A80036;stroke-width:0.87;"/><path d="M716.6625,983.535 Q716.8392,983.1 717.0431,982.8825 Q717.247,982.665 717.4781,982.665 Q717.8859,982.665 718.1442,982.9097 Q718.4025,983.1544 718.4025,983.7253 L718.4025,985.0847 Q718.4025,985.6556 718.1578,985.9003 Q717.9131,986.145 717.5325,986.145 Q717.1927,986.145 716.9752,985.9955 Q716.7577,985.8459 716.6625,985.4517 Q716.6217,985.1798 716.4722,985.0303 Q716.2003,984.7448 715.7109,984.5817 Q715.2216,984.405 714.7322,984.405 Q714.1205,984.405 713.6039,984.6497 Q713.1009,984.8944 712.7067,985.4381 Q712.3125,985.9819 712.3125,986.7295 L712.3125,987.5316 Q712.3125,988.4288 713.0466,989.0269 Q713.7806,989.625 715.0856,989.625 Q715.8605,989.625 716.4042,989.4483 Q716.7169,989.3531 717.0703,989.0405 Q717.3014,988.8638 717.4238,988.8094 Q717.5461,988.755 717.6956,988.755 Q717.9811,988.755 718.185,988.9861 Q718.4025,989.2036 718.4025,989.5163 Q718.4025,989.8153 718.1034,990.1688 Q717.6684,990.6853 716.9752,990.9708 Q716.0644,991.365 714.9497,991.365 Q713.6447,991.365 712.598,990.8484 Q711.7552,990.4406 711.157,989.557 Q710.5725,988.6734 710.5725,987.6267 L710.5725,986.6752 Q710.5725,985.5877 711.0891,984.6361 Q711.6192,983.6845 712.53,983.1816 Q713.4544,982.665 714.4875,982.665 Q715.1128,982.665 715.6566,982.8825 Q716.2003,983.1 716.6625,983.535 Z " fill="#000000"/><text fill="#000000" font-family="sans-serif" font-size="10.44" lengthAdjust="spacing" textLength="79.17" x="732.7575" y="990.8518">TestTypeMapper</text><line style="stroke:#A80036;stroke-width:1.305;" x1="637.71" x2="878.7" y1="1000.5" y2="1000.5"/><line style="stroke:#A80036;stroke-width:1.305;" x1="637.71" x2="878.7" y1="1007.46" y2="1007.46"/><text fill="#000000" font-family="sans-serif" font-size="9.57" lengthAdjust="spacing" textLength="232.29" x="642.06" y="1020.8745">+List&lt;TestTypeDTO&gt; toDTO(List&lt;TestType&gt; testTypes)</text><text fill="#000000" font-family="sans-serif" font-size="9.57" lengthAdjust="spacing" textLength="145.29" x="642.06" y="1032.9117">+TestTypeDTO toDTO(TestType tt)</text><!--MD5=[867476cd2a5db62f3ac412e45787ce2b]
class CategoryMapper--><rect codeLine="112" fill="#FEFECE" filter="url(#f1rfd2imcsdc3z)" height="65.8345" id="CategoryMapper" style="stroke:#A80036;stroke-width:1.305;" width="282.75" x="616.83" y="1069.23"/><ellipse cx="715.3575" cy="1083.15" fill="#ADD1B2" rx="9.57" ry="9.57" style="stroke:#A80036;stroke-width:0.87;"/><path d="M717.0975,1080.105 Q717.2742,1079.67 717.4781,1079.4525 Q717.682,1079.235 717.9131,1079.235 Q718.3209,1079.235 718.5792,1079.4797 Q718.8375,1079.7244 718.8375,1080.2953 L718.8375,1081.6547 Q718.8375,1082.2256 718.5928,1082.4703 Q718.3481,1082.715 717.9675,1082.715 Q717.6277,1082.715 717.4102,1082.5655 Q717.1927,1082.4159 717.0975,1082.0217 Q717.0567,1081.7498 716.9072,1081.6003 Q716.6353,1081.3148 716.1459,1081.1517 Q715.6566,1080.975 715.1672,1080.975 Q714.5555,1080.975 714.0389,1081.2197 Q713.5359,1081.4644 713.1417,1082.0081 Q712.7475,1082.5519 712.7475,1083.2995 L712.7475,1084.1016 Q712.7475,1084.9988 713.4816,1085.5969 Q714.2156,1086.195 715.5206,1086.195 Q716.2955,1086.195 716.8392,1086.0183 Q717.1519,1085.9231 717.5053,1085.6105 Q717.7364,1085.4338 717.8588,1085.3794 Q717.9811,1085.325 718.1306,1085.325 Q718.4161,1085.325 718.62,1085.5561 Q718.8375,1085.7736 718.8375,1086.0863 Q718.8375,1086.3853 718.5384,1086.7388 Q718.1034,1087.2553 717.4102,1087.5408 Q716.4994,1087.935 715.3847,1087.935 Q714.0797,1087.935 713.033,1087.4184 Q712.1902,1087.0106 711.592,1086.127 Q711.0075,1085.2434 711.0075,1084.1967 L711.0075,1083.2452 Q711.0075,1082.1577 711.5241,1081.2061 Q712.0542,1080.2545 712.965,1079.7516 Q713.8894,1079.235 714.9225,1079.235 Q715.5478,1079.235 716.0916,1079.4525 Q716.6353,1079.67 717.0975,1080.105 Z " fill="#000000"/><text fill="#000000" font-family="sans-serif" font-size="10.44" lengthAdjust="spacing" textLength="78.3" x="733.1925" y="1087.4218">CategoryMapper</text><line style="stroke:#A80036;stroke-width:1.305;" x1="617.7" x2="898.71" y1="1097.07" y2="1097.07"/><line style="stroke:#A80036;stroke-width:1.305;" x1="617.7" x2="898.71" y1="1104.03" y2="1104.03"/><text fill="#000000" font-family="sans-serif" font-size="9.57" lengthAdjust="spacing" textLength="272.31" x="622.05" y="1117.4445">+List&lt;CategoryDto&gt; toDTO(List&lt;Category&gt; parameterCategories)</text><text fill="#000000" font-family="sans-serif" font-size="9.57" lengthAdjust="spacing" textLength="171.39" x="622.05" y="1129.4817">+CategoryDto toDTO(Category category)</text><!--MD5=[e0569d1bc34b9d21face98cd33d75fba]
class ParameterMapper--><rect codeLine="116" fill="#FEFECE" filter="url(#f1rfd2imcsdc3z)" height="65.8345" id="ParameterMapper" style="stroke:#A80036;stroke-width:1.305;" width="255.78" x="630.315" y="1165.8"/><ellipse cx="711.4425" cy="1179.72" fill="#ADD1B2" rx="9.57" ry="9.57" style="stroke:#A80036;stroke-width:0.87;"/><path d="M713.1825,1176.675 Q713.3592,1176.24 713.5631,1176.0225 Q713.767,1175.805 713.9981,1175.805 Q714.4059,1175.805 714.6642,1176.0497 Q714.9225,1176.2944 714.9225,1176.8653 L714.9225,1178.2247 Q714.9225,1178.7956 714.6778,1179.0403 Q714.4331,1179.285 714.0525,1179.285 Q713.7127,1179.285 713.4952,1179.1355 Q713.2777,1178.9859 713.1825,1178.5917 Q713.1417,1178.3198 712.9922,1178.1703 Q712.7203,1177.8848 712.2309,1177.7217 Q711.7416,1177.545 711.2522,1177.545 Q710.6405,1177.545 710.1239,1177.7897 Q709.6209,1178.0344 709.2267,1178.5781 Q708.8325,1179.1219 708.8325,1179.8695 L708.8325,1180.6716 Q708.8325,1181.5688 709.5666,1182.1669 Q710.3006,1182.765 711.6056,1182.765 Q712.3805,1182.765 712.9242,1182.5883 Q713.2369,1182.4931 713.5903,1182.1805 Q713.8214,1182.0038 713.9438,1181.9494 Q714.0661,1181.895 714.2156,1181.895 Q714.5011,1181.895 714.705,1182.1261 Q714.9225,1182.3436 714.9225,1182.6563 Q714.9225,1182.9553 714.6234,1183.3088 Q714.1884,1183.8253 713.4952,1184.1108 Q712.5844,1184.505 711.4697,1184.505 Q710.1647,1184.505 709.118,1183.9884 Q708.2752,1183.5806 707.677,1182.697 Q707.0925,1181.8134 707.0925,1180.7667 L707.0925,1179.8152 Q707.0925,1178.7277 707.6091,1177.7761 Q708.1392,1176.8245 709.05,1176.3216 Q709.9744,1175.805 711.0075,1175.805 Q711.6328,1175.805 712.1766,1176.0225 Q712.7203,1176.24 713.1825,1176.675 Z " fill="#000000"/><text fill="#000000" font-family="sans-serif" font-size="10.44" lengthAdjust="spacing" textLength="86.13" x="729.2775" y="1183.9918">ParameterMapper</text><line style="stroke:#A80036;stroke-width:1.305;" x1="631.185" x2="885.225" y1="1193.64" y2="1193.64"/><line style="stroke:#A80036;stroke-width:1.305;" x1="631.185" x2="885.225" y1="1200.6" y2="1200.6"/><text fill="#000000" font-family="sans-serif" font-size="9.57" lengthAdjust="spacing" textLength="245.34" x="635.535" y="1214.0145">+List&lt;ParameterDTO&gt; toDTO(List&lt;Parameter&gt; parameters)</text><text fill="#000000" font-family="sans-serif" font-size="9.57" lengthAdjust="spacing" textLength="189.66" x="635.535" y="1226.0517">+ParameterDTO toDTO(Parameter parameter)</text><!--MD5=[a87ca41b19769012ec630dbc141b1436]
link CreateTestUI to CreateTestControler--><path codeLine="125" d="M89.5056,1486.7691 C133.3884,1425.9996 261.8091,1248.1629 327.4767,1157.2218 " fill="none" id="CreateTestUI-to-CreateTestControler" style="stroke:#A80036;stroke-width:0.87;stroke-dasharray:7.0,7.0;"/><polygon fill="#A80036" points="330.165,1153.4982,322.7633,1157.815,327.6213,1157.027,328.4094,1161.8849,330.165,1153.4982" style="stroke:#A80036;stroke-width:0.87;"/><!--MD5=[3d5f36034bd05a68f42d063684fd8cdc]
link CreateTestUI to CategoryDto--><path codeLine="126" d="M119.1987,1516.9581 C248.9505,1541.5878 633.9342,1599.5037 920.46,1485.96 C960.9411,1469.9259 955.6428,1442.1555 993.54,1420.71 C1027.905,1401.2742 1070.0043,1387.8588 1104.4824,1379.1675 " fill="none" id="CreateTestUI-to-CategoryDto" style="stroke:#A80036;stroke-width:0.87;stroke-dasharray:7.0,7.0;"/><polygon fill="#A80036" points="1109.0847,1378.0278,1100.6445,1376.5508,1104.8646,1379.0828,1102.3325,1383.3029,1109.0847,1378.0278" style="stroke:#A80036;stroke-width:0.87;"/><!--MD5=[4623db2661f880c526208cfcca0131e5]
link CreateTestUI to ParameterDTO--><path codeLine="127" d="M104.4,1528.7031 C116.9715,1536.2721 132.1095,1543.8933 147.03,1547.73 C508.4019,1640.6895 618.222,1607.238 986.58,1547.73 C1000.1694,1545.5376 1014.1242,1542.4839 1027.9659,1538.8995 " fill="none" id="CreateTestUI-to-ParameterDTO" style="stroke:#A80036;stroke-width:0.87;stroke-dasharray:7.0,7.0;"/><polygon fill="#A80036" points="1032.255,1537.7685,1023.798,1536.3909,1028.0476,1538.8731,1025.5653,1543.1227,1032.255,1537.7685" style="stroke:#A80036;stroke-width:0.87;"/><!--MD5=[b119393afdc8554af40a71e4d23c569f]
link CreateTestUI to TestTypeDTO--><path codeLine="128" d="M119.3814,1496.922 C268.9692,1461.0519 754.5249,1344.6285 1009.8612,1283.4066 " fill="none" id="CreateTestUI-to-TestTypeDTO" style="stroke:#A80036;stroke-width:0.87;stroke-dasharray:7.0,7.0;"/><polygon fill="#A80036" points="1014.3591,1282.3278,1005.9358,1280.7571,1010.1275,1283.3359,1007.5488,1287.5277,1014.3591,1282.3278" style="stroke:#A80036;stroke-width:0.87;"/><!--MD5=[3d90787a6c4fcaaaef3316a8b7a2a1cb]
link CategoryMapper to CategoryDto--><path codeLine="129" d="M898.4055,1135.4196 C906.2181,1139.7435 913.6479,1144.6242 920.46,1150.14 C968.3187,1188.9159 966.2307,1213.8066 986.58,1271.94 C992.4177,1288.6266 981.8472,1297.8399 993.54,1311.09 C1021.3539,1342.6188 1066.9245,1356.2343 1104.813,1362.0111 " fill="none" id="CategoryMapper-to-CategoryDto" style="stroke:#A80036;stroke-width:0.87;stroke-dasharray:7.0,7.0;"/><polygon fill="#A80036" points="1109.1543,1362.6462,1101.9025,1358.0821,1104.849,1362.024,1100.9071,1364.9706,1109.1543,1362.6462" style="stroke:#A80036;stroke-width:0.87;"/><!--MD5=[5f4198d269e8e237122a004a01e5b057]
link CategoryMapper to ParameterCategory--><path codeLine="130" d="M899.5974,1076.8773 C978.7761,1064.6886 1079.6613,1052.7 1170.15,1052.7 C1170.15,1052.7 1170.15,1052.7 1815.255,1052.7 C1967.0961,1052.7 2037.54,833.2164 2060.0208,743.3019 " fill="none" id="CategoryMapper-to-ParameterCategory" style="stroke:#A80036;stroke-width:0.87;stroke-dasharray:7.0,7.0;"/><polygon fill="#A80036" points="2061.117,738.8562,2055.8606,745.623,2060.0737,743.0792,2062.6174,747.2923,2061.117,738.8562" style="stroke:#A80036;stroke-width:0.87;"/><!--MD5=[bcaa6a39389c8cb768501da2b7549a8d]
link ParameterMapper to ParameterDTO--><path codeLine="131" d="M823.194,1232.0244 C875.8551,1262.7876 947.8737,1313.6217 986.58,1378.95 C995.976,1394.8101 981.8298,1405.6068 993.54,1419.84 C1001.1438,1429.0881 1010.1744,1437.066 1020.075,1443.939 " fill="none" id="ParameterMapper-to-ParameterDTO" style="stroke:#A80036;stroke-width:0.87;stroke-dasharray:7.0,7.0;"/><polygon fill="#A80036" points="1023.7551,1446.4185,1019.2049,1439.158,1020.1472,1443.9884,1015.3168,1444.9307,1023.7551,1446.4185" style="stroke:#A80036;stroke-width:0.87;"/><!--MD5=[6a9c25a7b7cd4f2505d061be4a34119e]
link ParameterMapper to Parameter--><path codeLine="132" d="M886.1472,1180.8945 C1034.6475,1158.3963 1270.0608,1117.6542 1348.5,1075.32 C1547.73,967.8228 1717.8846,748.2783 1784.0307,655.4493 " fill="none" id="ParameterMapper-to-Parameter" style="stroke:#A80036;stroke-width:0.87;stroke-dasharray:7.0,7.0;"/><polygon fill="#A80036" points="1786.7277,651.6648,1779.3578,656.0356,1784.2099,655.2121,1785.0334,660.0641,1786.7277,651.6648" style="stroke:#A80036;stroke-width:0.87;"/><!--MD5=[a866f4e758874d18eed8ecae1602bb43]
link TestTypeMapper to TestTypeDTO--><path codeLine="133" d="M879.9615,1036.2396 C893.9163,1041.3117 907.6971,1047.0711 920.46,1053.57 C992.3481,1090.1883 1064.4015,1148.2695 1112.4951,1190.856 " fill="none" id="TestTypeMapper-to-TestTypeDTO" style="stroke:#A80036;stroke-width:0.87;stroke-dasharray:7.0,7.0;"/><polygon fill="#A80036" points="1115.9229,1193.8923,1112.3679,1186.0961,1112.6662,1191.0085,1107.7538,1191.3068,1115.9229,1193.8923" style="stroke:#A80036;stroke-width:0.87;"/><!--MD5=[a3b705e4e3f391aa28b18ef9a5fd28a9]
link TestTypeMapper to TestType--><path codeLine="134" d="M870.7395,972.6078 C907.8015,961.1151 949.1526,947.7432 986.58,934.38 C1173.9954,867.4857 1391.0691,776.4924 1494.9123,732.1137 " fill="none" id="TestTypeMapper-to-TestType" style="stroke:#A80036;stroke-width:0.87;stroke-dasharray:7.0,7.0;"/><polygon fill="#A80036" points="1499.1666,730.2954,1490.5987,730.1908,1495.1703,732.0135,1493.3476,736.585,1499.1666,730.2954" style="stroke:#A80036;stroke-width:0.87;"/><!--MD5=[8f55894bbc012aa6e8bd0f9e9c1fa823]
link CreateTestControler to Company--><path codeLine="135" d="M401.5659,1051.2819 C444.0915,985.1184 520.9038,866.2416 588.12,765.6 C634.4127,696.2871 689.0922,616.8822 723.492,567.2139 " fill="none" id="CreateTestControler-to-Company" style="stroke:#A80036;stroke-width:0.87;stroke-dasharray:7.0,7.0;"/><polygon fill="#A80036" points="726.1368,563.3946,718.8122,567.8409,723.6556,566.9676,724.529,571.8109,726.1368,563.3946" style="stroke:#A80036;stroke-width:0.87;"/><!--MD5=[75f1b5762c49b994a7e3ff994124fe26]
link CreateTestControler to CategoryMapper--><path codeLine="136" d="M560.5497,1102.29 C577.8627,1102.29 595.2018,1102.29 612.0189,1102.29 " fill="none" id="CreateTestControler-to-CategoryMapper" style="stroke:#A80036;stroke-width:0.87;stroke-dasharray:7.0,7.0;"/><polygon fill="#A80036" points="616.7517,1102.29,608.9217,1098.81,612.4017,1102.29,608.9217,1105.77,616.7517,1102.29" style="stroke:#A80036;stroke-width:0.87;"/><!--MD5=[08b46ea753435d83600a12592d428521]
link CreateTestControler to CategoryDto--><path codeLine="137" d="M416.3385,1153.533 C458.9946,1196.1282 525.6105,1254.5226 595.95,1284.99 C768.384,1359.6882 994.6362,1368.4665 1104.552,1367.7531 " fill="none" id="CreateTestControler-to-CategoryDto" style="stroke:#A80036;stroke-width:0.87;stroke-dasharray:7.0,7.0;"/><polygon fill="#A80036" points="1109.0499,1367.7183,1101.1904,1364.3055,1104.7001,1367.7556,1101.25,1371.2653,1109.0499,1367.7183" style="stroke:#A80036;stroke-width:0.87;"/><!--MD5=[4e2eaaaa924769a5915195a82e4b50b3]
link CreateTestControler to ParameterMapper--><path codeLine="138" d="M560.5497,1149.9399 C582.6042,1155.4209 604.7109,1160.9193 625.7214,1166.1393 " fill="none" id="CreateTestControler-to-ParameterMapper" style="stroke:#A80036;stroke-width:0.87;stroke-dasharray:7.0,7.0;"/><polygon fill="#A80036" points="630.1845,1167.2529,623.4213,1161.9918,625.9622,1166.2067,621.7474,1168.7475,630.1845,1167.2529" style="stroke:#A80036;stroke-width:0.87;"/><!--MD5=[5198f3041045b9988aed843607ceac3f]
link CreateTestControler to ParameterDTO--><path codeLine="139" d="M398.0598,1153.2546 C435.6786,1214.0937 506.9925,1314.2046 595.95,1366.77 C725.7975,1443.504 897.5703,1471.6398 1019.3094,1481.7231 " fill="none" id="CreateTestControler-to-ParameterDTO" style="stroke:#A80036;stroke-width:0.87;stroke-dasharray:7.0,7.0;"/><polygon fill="#A80036" points="1023.9813,1482.0972,1016.4556,1478.0004,1019.6453,1481.7483,1015.8974,1484.938,1023.9813,1482.0972" style="stroke:#A80036;stroke-width:0.87;"/><!--MD5=[d436aa16cf3879d6ad396285eddf41c1]
link CreateTestControler to TestTypeMapper--><path codeLine="140" d="M560.5497,1054.6401 C584.9532,1048.5762 609.4089,1042.4949 632.3856,1036.7877 " fill="none" id="CreateTestControler-to-TestTypeMapper" style="stroke:#A80036;stroke-width:0.87;stroke-dasharray:7.0,7.0;"/><polygon fill="#A80036" points="636.6573,1035.7263,628.2171,1034.2493,632.4372,1036.7813,629.9051,1041.0014,636.6573,1035.7263" style="stroke:#A80036;stroke-width:0.87;"/><!--MD5=[a728a1c0b6f50bd0e8c130b0563a2e8d]
link CreateTestControler to TestTypeDTO--><path codeLine="141" d="M428.562,1153.359 C471.8706,1186.8888 533.571,1227.7788 595.95,1245.84 C731.496,1285.0944 892.707,1280.6748 1009.7481,1268.8689 " fill="none" id="CreateTestControler-to-TestTypeDTO" style="stroke:#A80036;stroke-width:0.87;stroke-dasharray:7.0,7.0;"/><polygon fill="#A80036" points="1014.246,1268.4165,1006.1078,1265.7352,1009.9177,1268.8506,1006.8023,1272.6605,1014.246,1268.4165" style="stroke:#A80036;stroke-width:0.87;"/><!--MD5=[b89d522ccf9caf95dbbde9769ba39561]
link CreateTestControler to ParameterStore--><path codeLine="142" d="M406.7424,1051.1775 C447.8325,999.2037 518.0763,919.9032 595.95,873.48 C751.3842,780.825 877.2732,902.8599 986.58,758.64 C1005.5895,733.5666 975.4527,218.022 993.54,192.27 C1001.979,180.2553 1012.8888,170.4156 1025.1384,162.3681 " fill="none" id="CreateTestControler-to-ParameterStore" style="stroke:#A80036;stroke-width:0.87;stroke-dasharray:7.0,7.0;"/><polygon fill="#A80036" points="1028.9838,159.9234,1020.5074,161.1763,1025.3098,162.2524,1024.2337,167.0547,1028.9838,159.9234" style="stroke:#A80036;stroke-width:0.87;"/><!--MD5=[3bbb6c5b03dfc4e682128937e80c1ca1]
link CreateTestControler to TestTypeStore--><path codeLine="143" d="M420.3666,1051.2471 C463.8318,1010.7486 529.4646,955.4601 595.95,921.33 C756.465,838.9323 876.7599,953.9898 986.58,810.84 C1003.7886,788.4027 976.6098,324.5448 993.54,301.89 C1002.849,289.4316 1014.9594,279.7311 1028.4792,272.1795 " fill="none" id="CreateTestControler-to-TestTypeStore" style="stroke:#A80036;stroke-width:0.87;stroke-dasharray:7.0,7.0;"/><polygon fill="#A80036" points="1032.3333,270.1089,1023.7896,270.7604,1028.504,272.1727,1027.0917,276.8872,1032.3333,270.1089" style="stroke:#A80036;stroke-width:0.87;"/><!--MD5=[0a261a9b138dfe2e0bcc9eaa6466be5e]
link CreateTestControler to TestStore--><path codeLine="144" d="M435.7917,1051.2471 C479.3178,1020.3099 538.4778,982.3953 595.95,958.74 C760.3539,891.0888 874.0629,1010.2527 986.58,872.61 C1001.109,854.8359 981.6993,479.0394 993.54,459.36 C1005.8679,438.8802 1024.1727,422.4024 1044.3915,409.2306 " fill="none" id="CreateTestControler-to-TestStore" style="stroke:#A80036;stroke-width:0.87;stroke-dasharray:7.0,7.0;"/><polygon fill="#A80036" points="1048.1934,406.812,1039.72,408.0854,1044.525,409.1498,1043.4606,413.9548,1048.1934,406.812" style="stroke:#A80036;stroke-width:0.87;"/><!--MD5=[3eebf0e5f359806b77b30e9524c37676]
link TestTypeStore to TestType--><path codeLine="145" d="M1309.4718,272.571 C1324.1835,280.0182 1337.6946,289.5969 1348.5,301.89 C1360.419,315.4533 1347.4299,325.7367 1355.46,341.91 C1389.0333,409.5525 1438.4667,398.2599 1471.17,466.32 C1505.535,537.8427 1462.6266,571.5465 1497.27,642.93 C1501.2546,651.1428 1506.7008,658.9989 1512.6777,666.1938 " fill="none" id="TestTypeStore-TestType" style="stroke:#A80036;stroke-width:0.87;"/><polygon fill="#000000" points="1397.4755,338.0982,1396.1376,329.9329,1391.5937,332.2787,1397.4755,338.0982" style="stroke:#000000;stroke-width:0.87;"/><text fill="#000000" font-family="sans-serif" font-size="11.31" lengthAdjust="spacing" textLength="31.32" x="1403.31" y="338.8608">stores</text><text fill="#000000" font-family="sans-serif" font-size="11.31" lengthAdjust="spacing" textLength="6.09" x="1316.3256" y="285.9014">1</text><text fill="#000000" font-family="sans-serif" font-size="11.31" lengthAdjust="spacing" textLength="4.35" x="1501.1619" y="656.9755">*</text><!--MD5=[b0f4f6db8206580012ef9cd998ed01c5]
link TestStore to Test--><path codeLine="146" d="M1171.02,406.8903 C1171.02,445.4922 1171.02,500.2674 1171.02,534.9804 " fill="none" id="TestStore-Test" style="stroke:#A80036;stroke-width:0.87;"/><polygon fill="#000000" points="1142.745,475.3904,1145.3019,467.5212,1140.1881,467.5212,1142.745,475.3904" style="stroke:#000000;stroke-width:0.87;"/><text fill="#000000" font-family="sans-serif" font-size="11.31" lengthAdjust="spacing" textLength="31.32" x="1150.575" y="475.6683">stores</text><text fill="#000000" font-family="sans-serif" font-size="11.31" lengthAdjust="spacing" textLength="6.09" x="1164.5208" y="425.6096">1</text><text fill="#000000" font-family="sans-serif" font-size="11.31" lengthAdjust="spacing" textLength="4.35" x="1166.2826" y="525.7129">*</text><!--MD5=[a0992dda039fed1bb57aff5aacace800]
link ParameterStore to Parameter--><path codeLine="147" d="M1312.8648,175.218 C1325.0883,180.5859 1337.1291,186.2844 1348.5,192.27 C1536.4548,291.1977 1601.061,305.6745 1740,466.32 C1767.405,498.0141 1787.6325,541.7055 1799.8647,573.0516 " fill="none" id="ParameterStore-Parameter" style="stroke:#A80036;stroke-width:0.87;"/><polygon fill="#000000" points="1542.8338,264.7749,1538.3572,257.8164,1535.122,261.7766,1542.8338,264.7749" style="stroke:#000000;stroke-width:0.87;"/><text fill="#000000" font-family="sans-serif" font-size="11.31" lengthAdjust="spacing" textLength="31.32" x="1547.295" y="266.6508">stores</text><text fill="#000000" font-family="sans-serif" font-size="11.31" lengthAdjust="spacing" textLength="6.09" x="1319.8829" y="189.6762">1</text><text fill="#000000" font-family="sans-serif" font-size="11.31" lengthAdjust="spacing" textLength="4.35" x="1792.9582" y="563.8253">*</text><!--MD5=[daf3d7412afa2c7651483be0b6e971d1]
link Company to ParameterStore--><path codeLine="148" d="M780.3465,473.5149 C815.4162,403.8453 891.7413,269.8566 993.54,192.27 C1004.4759,183.9354 1016.5776,176.5578 1029.1665,170.0415 " fill="none" id="Company-ParameterStore" style="stroke:#A80036;stroke-width:0.87;"/><polygon fill="#000000" points="945.4031,188.1891,938.4365,192.6532,942.3909,195.8955,945.4031,188.1891" style="stroke:#000000;stroke-width:0.87;"/><text fill="#000000" font-family="sans-serif" font-size="11.31" lengthAdjust="spacing" textLength="24.36" x="950.475" y="196.1808">uses</text><text fill="#000000" font-family="sans-serif" font-size="11.31" lengthAdjust="spacing" textLength="6.09" x="776.8226" y="464.3533">1</text><text fill="#000000" font-family="sans-serif" font-size="11.31" lengthAdjust="spacing" textLength="6.09" x="1016.058" y="184.249">1</text><!--MD5=[141c3afa12b2b3c0a39ffce56dbd5f19]
link Company to TestTypeStore--><path codeLine="149" d="M796.4763,473.6367 C839.376,424.8471 914.1003,347.739 993.54,301.89 C1005.7722,294.8343 1019.0223,288.579 1032.5682,283.0632 " fill="none" id="Company-TestTypeStore" style="stroke:#A80036;stroke-width:0.87;"/><polygon fill="#000000" points="946.0299,295.8307,938.3006,298.7838,941.5126,302.7629,946.0299,295.8307" style="stroke:#000000;stroke-width:0.87;"/><text fill="#000000" font-family="sans-serif" font-size="11.31" lengthAdjust="spacing" textLength="24.36" x="950.475" y="303.1908">uses</text><text fill="#000000" font-family="sans-serif" font-size="11.31" lengthAdjust="spacing" textLength="6.09" x="795.34" y="464.1675">1</text><text fill="#000000" font-family="sans-serif" font-size="11.31" lengthAdjust="spacing" textLength="6.09" x="1019.6244" y="296.9018">1</text><!--MD5=[7f6cf7f175eae0af66201860de5de971]
link Company to TestStore--><path codeLine="150" d="M809.0739,499.4757 C869.0865,476.6121 971.7204,437.5143 1052.2563,406.8294 " fill="none" id="Company-TestStore" style="stroke:#A80036;stroke-width:0.87;"/><polygon fill="#000000" points="946.71,424.0343,938.4461,424.4465,940.2666,429.2252,946.71,424.0343" style="stroke:#000000;stroke-width:0.87;"/><text fill="#000000" font-family="sans-serif" font-size="11.31" lengthAdjust="spacing" textLength="24.36" x="950.475" y="430.2108">uses</text><text fill="#000000" font-family="sans-serif" font-size="11.31" lengthAdjust="spacing" textLength="6.09" x="815.6447" y="494.1276">1</text><text fill="#000000" font-family="sans-serif" font-size="11.31" lengthAdjust="spacing" textLength="6.09" x="1029.037" y="425.8648">1</text><!--MD5=[5b7a9ded131023be416e27d15bcd6d77]
link TestType to Parameter--><path codeLine="151" d="M1615.155,684.7944 C1663.8054,667.0638 1732.4571,642.0339 1774.9131,626.5566 " fill="none" id="TestType-Parameter" style="stroke:#A80036;stroke-width:0.87;"/><polygon fill="#000000" points="1651.8669,631.1531,1643.5979,631.446,1645.3493,636.2505,1651.8669,631.1531" style="stroke:#000000;stroke-width:0.87;"/><text fill="#000000" font-family="sans-serif" font-size="11.31" lengthAdjust="spacing" textLength="83.52" x="1655.61" y="637.2708">characterized by</text><text fill="#000000" font-family="sans-serif" font-size="11.31" lengthAdjust="spacing" textLength="6.09" x="1622.1966" y="694.9802">1</text><text fill="#000000" font-family="sans-serif" font-size="11.31" lengthAdjust="spacing" textLength="17.4" x="1750.7389" y="641.3072">1..*</text><!--MD5=[742a261f27a3dcd734c626287d811acd]
link Company to TestType--><path codeLine="152" d="M808.8738,548.3349 C855.0882,574.5741 926.637,611.6274 993.54,631.62 C1172.9688,685.2555 1396.1238,700.0107 1499.2623,704.0562 " fill="none" id="Company-TestType" style="stroke:#A80036;stroke-width:0.87;"/><polygon fill="#000000" points="1150.0334,624.9001,1142.9196,620.6744,1141.7944,625.6628,1150.0334,624.9001" style="stroke:#000000;stroke-width:0.87;"/><text fill="#000000" font-family="sans-serif" font-size="11.31" lengthAdjust="spacing" textLength="46.11" x="1153.62" y="628.5708">conducts</text><text fill="#000000" font-family="sans-serif" font-size="11.31" lengthAdjust="spacing" textLength="6.09" x="815.7559" y="564.7879">1</text><text fill="#000000" font-family="sans-serif" font-size="11.31" lengthAdjust="spacing" textLength="4.35" x="1487.9502" y="716.4691">*</text><!--MD5=[7e4bc624457760b649895ff2ead938fa]
link Company to Test--><path codeLine="153" d="M809.0739,524.5578 C891.2367,534.4671 1053.2568,554.0073 1129.1382,563.1684 " fill="none" id="Company-Test" style="stroke:#A80036;stroke-width:0.87;"/><polygon fill="#000000" points="936.0887,532.2439,928.5823,528.763,927.9699,533.8399,936.0887,532.2439" style="stroke:#000000;stroke-width:0.87;"/><text fill="#000000" font-family="sans-serif" font-size="11.31" lengthAdjust="spacing" textLength="46.11" x="939.6" y="536.3508">conducts</text><text fill="#000000" font-family="sans-serif" font-size="11.31" lengthAdjust="spacing" textLength="6.09" x="815.6447" y="537.8831">1</text><text fill="#000000" font-family="sans-serif" font-size="11.31" lengthAdjust="spacing" textLength="4.35" x="1118.042" y="575.2635">*</text><!--MD5=[12d76240d3c3c66074d4ec2ea8bf469c]
link Company to Parameter--><path codeLine="154" d="M808.7346,515.9274 C927.6114,509.8461 1237.923,494.856 1497.27,489.81 C1550.6184,488.7747 1566.0435,475.0983 1617.33,489.81 C1677.7602,507.1491 1737.6249,549.1353 1775.0262,579.1503 " fill="none" id="Company-Parameter" style="stroke:#A80036;stroke-width:0.87;"/><polygon fill="#000000" points="1364.1507,483.2869,1356.4652,480.2218,1356.1313,485.3246,1364.1507,483.2869" style="stroke:#000000;stroke-width:0.87;"/><text fill="#000000" font-family="sans-serif" font-size="11.31" lengthAdjust="spacing" textLength="102.66" x="1367.64" y="487.6308">capable of analysing</text><text fill="#000000" font-family="sans-serif" font-size="11.31" lengthAdjust="spacing" textLength="6.09" x="815.5988" y="512.5247">1</text><text fill="#000000" font-family="sans-serif" font-size="11.31" lengthAdjust="spacing" textLength="4.35" x="1763.7972" y="586.5844">*</text><!--MD5=[e981d4f96c4342412d1e68160b30cf70]
link Test to TestType--><path codeLine="155" d="M1213.041,582.8217 C1282.0146,607.4775 1421.0841,657.1893 1499.4276,685.1946 " fill="none" id="Test-TestType" style="stroke:#A80036;stroke-width:0.87;"/><polygon fill="#000000" points="1383.9162,630.6272,1377.3668,625.5707,1375.6455,630.386,1383.9162,630.6272" style="stroke:#000000;stroke-width:0.87;"/><text fill="#000000" font-family="sans-serif" font-size="11.31" lengthAdjust="spacing" textLength="62.64" x="1387.65" y="633.7908">classified as</text><text fill="#000000" font-family="sans-serif" font-size="11.31" lengthAdjust="spacing" textLength="4.35" x="1219.8085" y="597.9262">*</text><text fill="#000000" font-family="sans-serif" font-size="11.31" lengthAdjust="spacing" textLength="6.09" x="1486.294" y="695.4266">1</text><!--MD5=[c23963f6e403fc3ebec8dae22c30ade6]
link Test to Parameter--><path codeLine="156" d="M1213.0062,570.9549 C1329.7254,579.0285 1661.9871,602.0052 1775.1915,609.8352 " fill="none" id="Test-Parameter" style="stroke:#A80036;stroke-width:0.87;"/><polygon fill="#000000" points="1505.9596,583.3531,1498.2856,580.2593,1497.9328,585.3609,1505.9596,583.3531" style="stroke:#000000;stroke-width:0.87;"/><text fill="#000000" font-family="sans-serif" font-size="11.31" lengthAdjust="spacing" textLength="107.01" x="1509.45" y="587.6808">requested analysis of</text><text fill="#000000" font-family="sans-serif" font-size="11.31" lengthAdjust="spacing" textLength="4.35" x="1219.7684" y="580.2294">*</text><text fill="#000000" font-family="sans-serif" font-size="11.31" lengthAdjust="spacing" textLength="17.4" x="1750.7571" y="622.2637">1..*</text><!--MD5=[b72ac8ab7fb5921fceb5036a3902baea]
link Test to Sample--><path codeLine="157" d="M1212.8235,564.8649 C1270.4958,560.2191 1378.9239,551.2146 1471.17,542.01 C1488.8049,540.2526 1508.4669,538.0602 1524.4662,536.2245 " fill="none" id="Test-Sample" style="stroke:#A80036;stroke-width:0.87;"/><polygon fill="#000000" points="1395.8967,533.9348,1387.8266,532.1089,1388.2945,537.2011,1395.8967,533.9348" style="stroke:#000000;stroke-width:0.87;"/><text fill="#000000" font-family="sans-serif" font-size="11.31" lengthAdjust="spacing" textLength="39.15" x="1399.395" y="538.9608">collects</text><text fill="#000000" font-family="sans-serif" font-size="11.31" lengthAdjust="spacing" textLength="6.09" x="1219.6909" y="561.1683">1</text><text fill="#000000" font-family="sans-serif" font-size="11.31" lengthAdjust="spacing" textLength="17.4" x="1500.1872" y="549.782">1..*</text><!--MD5=[6df8849671cb880f6936e94aa30db6f9]
link Parameter to ParameterCategory--><path codeLine="158" d="M1853.709,626.6175 C1894.86,641.7555 1960.6842,665.9589 2008.6125,683.5764 " fill="none" id="Parameter-ParameterCategory" style="stroke:#A80036;stroke-width:0.87;"/><polygon fill="#000000" points="1897.2027,634.1442,1890.6994,629.0286,1888.9346,633.8282,1897.2027,634.1442" style="stroke:#000000;stroke-width:0.87;"/><text fill="#000000" font-family="sans-serif" font-size="11.31" lengthAdjust="spacing" textLength="80.91" x="1900.95" y="637.2708">presented under</text><text fill="#000000" font-family="sans-serif" font-size="11.31" lengthAdjust="spacing" textLength="4.35" x="1860.5823" y="641.9133">*</text><text fill="#000000" font-family="sans-serif" font-size="11.31" lengthAdjust="spacing" textLength="6.09" x="1995.9506" y="693.7973">1</text><!--MD5=[8aaf0efd5e2f3824be7ea3e488dcc283]
link TestType to ParameterCategory--><path codeLine="159" d="M1615.2159,705.57 C1712.4819,705.57 1909.476,705.57 2008.5951,705.57 " fill="none" id="TestType-ParameterCategory" style="stroke:#A80036;stroke-width:0.87;"/><polygon fill="#000000" points="1774.8,697.8929,1766.9308,695.3361,1766.9308,700.4498,1774.8,697.8929" style="stroke:#000000;stroke-width:0.87;"/><text fill="#000000" font-family="sans-serif" font-size="11.31" lengthAdjust="spacing" textLength="83.52" x="1778.28" y="702.5208">characterized by</text><text fill="#000000" font-family="sans-serif" font-size="11.31" lengthAdjust="spacing" textLength="6.09" x="1622.2645" y="718.1579">1</text><text fill="#000000" font-family="sans-serif" font-size="11.31" lengthAdjust="spacing" textLength="17.4" x="1984.3635" y="718.025">1..*</text><!--MD5=[d56dbd7f27e02e02f3fc21a4579a46b3]
@startuml
skinparam classAttributeIconSize 0
left to right direction


package UI <<Folder>> {
  class CreateTestUI{
  }
}


package Domain <<Folder>> {
    package Model <<Folder>> {

        class TestType {
        - code : String
        - description : String
        - collectingMethod : String
        }

        class Test{
            - NHSCode: String
            - code: String
        }

        class Sample{
            - barCode
        }

        class Parameter {
          -code
          -shortName
          -description
        }

        class Company {
            -designation : String
            +getTestTypeStore()
            +getParameterStore()
            +getTestStore()
        }

        class ParameterCategory{
            -code
            -name
        }

    }
    package Stores <<Folder>> {
        class ParameterStore {
            +getParameterCategoriesStore()
            +getCategoriesByCode(List<String> ParameterCodes)
            +getCategoryByCode(String code)
            +getParamsByCategories(List<String> selectedCategoriesCodes)
            +getParamsByCategory(String category)
        }

        class TestTypeStore {
               +getTestTypes()
               +getTestTypeByCode(String code)
               +getCategoriesByTestTypeCode(String selectedTestTypeCode)
            }

        class TestStore {
            +createTest(String NHScode, Client associatedClient,\n TestType selectedTestType, List<Parameter>selectedParamsList)
            +validateTest(test)
            +saveTest(test)
        }

    }
}

package Controller <<Folder>>{
    class CreateTestControler{
    +createTest(NHScode, citizenCardNumber,selectedTestTypeCode, selectedParamCodes)
    +saveTest(test)
    +getTestTypes() : TestTypeDTO
    +getCategoriesListOfTestType(selectedTestTypeCode): CategoriesDTO
    +getParametersOfCategories(selectedCategoriesCodes): ParametersDTO
    }
}

package DTO <<Folder>>{
    class TestTypeDTO {
    -code
    -description
    -collectingMethod
    -List<Category> selectedCategories
    +TestTypeDTO(code, description, collectingMethod, selectedCategories)
    }

    class CategoryDto {
    -code
    -name
    +CategoryDto(code, name)
    }

    class ParameterDTO {
    -code
    -shortName
    -description
    -ParameterCategory
    +ParameterDTO(code, shortName, description, ParameterCategory)'
    }

}

package Mappers <<Folder>>{
    class TestTypeMapper {
        +List<TestTypeDTO> toDTO(List<TestType> testTypes)
        +TestTypeDTO toDTO(TestType tt)
    }
    class CategoryMapper{
        +List<CategoryDto> toDTO(List<Category> parameterCategories)
        +CategoryDto toDTO(Category category)
    }
    class ParameterMapper {
        +List<ParameterDTO> toDTO(List<Parameter> parameters)
        +ParameterDTO toDTO(Parameter parameter)
    }

}



CreateTestUI ..> CreateTestControler
CreateTestUI ..> CategoryDto
CreateTestUI ..> ParameterDTO
CreateTestUI ..> TestTypeDTO
CategoryMapper ..> CategoryDto
CategoryMapper ..> ParameterCategory
ParameterMapper ..> ParameterDTO
ParameterMapper ..> Parameter
TestTypeMapper ..> TestTypeDTO
TestTypeMapper ..> TestType
CreateTestControler ..> Company
CreateTestControler ..> CategoryMapper
CreateTestControler ..> CategoryDto
CreateTestControler ..> ParameterMapper
CreateTestControler ..> ParameterDTO
CreateTestControler ..> TestTypeMapper
CreateTestControler ..> TestTypeDTO
CreateTestControler ..> ParameterStore
CreateTestControler ..> TestTypeStore
CreateTestControler ..> TestStore
TestTypeStore "1" - - "*" TestType : stores >
TestStore "1" - - "*" Test : stores >
ParameterStore "1" - - "*" Parameter : stores >
Company "1" - - "1" ParameterStore : uses >
Company "1" - - "1" TestTypeStore : uses >
Company "1" - - "1" TestStore : uses >
TestType "1" - - "1..*" Parameter : characterized by >
Company "1" - - "*" TestType : conducts >
Company "1" - - "*" Test : conducts >
Company "1" - - "*" Parameter : capable of analysing >
Test "*" - - "1" TestType : classified as >
Test "*" - - "1..*" Parameter : requested analysis of >
Test "1" - - "1..*" Sample : collects >
Parameter "*" - - "1" ParameterCategory: presented under >
TestType "1" - - "1..*" ParameterCategory : characterized by >


@enduml

PlantUML version 1.2021.00(Sun Jan 10 10:25:05 GMT 2021)
(GPL source distribution)
Java Runtime: OpenJDK Runtime Environment
JVM: OpenJDK 64-Bit Server VM
Default Encoding: Cp1252
Language: pt
Country: BR
--></g></svg>