<?xml version="1.0" encoding="UTF-8" standalone="no"?><svg xmlns="http://www.w3.org/2000/svg" xmlns:xlink="http://www.w3.org/1999/xlink" contentScriptType="application/ecmascript" contentStyleType="text/css" height="397.5px" preserveAspectRatio="none" style="width:450px;height:397px;" version="1.1" viewBox="0 0 450 397" width="450.75px" zoomAndPan="magnify"><defs><filter height="300%" id="f1l46zzeam4vrz" width="300%" x="-1" y="-1"><feGaussianBlur result="blurOut" stdDeviation="1.5"/><feColorMatrix in="blurOut" result="blurOut2" type="matrix" values="0 0 0 0 0 0 0 0 0 0 0 0 0 0 0 0 0 0 .4 0"/><feOffset dx="3.0" dy="3.0" in="blurOut2" result="blurOut3"/><feBlend in="SourceGraphic" in2="blurOut3" mode="normal"/></filter></defs><g><rect fill="#FFFFFF" filter="url(#f1l46zzeam4vrz)" height="245.6367" style="stroke:#A80036;stroke-width:0.75;" width="7.5" x="42.75" y="74.707"/><rect fill="#FFFFFF" filter="url(#f1l46zzeam4vrz)" height="22.7637" style="stroke:#A80036;stroke-width:0.75;" width="7.5" x="403.5" y="91.4707"/><rect fill="#FFFFFF" filter="url(#f1l46zzeam4vrz)" height="22.7637" style="stroke:#A80036;stroke-width:0.75;" width="7.5" x="403.5" y="136.998"/><rect fill="#FFFFFF" filter="url(#f1l46zzeam4vrz)" height="41.7773" style="stroke:#A80036;stroke-width:0.75;" width="7.5" x="403.5" y="182.5254"/><rect fill="#FFFFFF" filter="url(#f1l46zzeam4vrz)" height="28.0137" style="stroke:#A80036;stroke-width:0.75;" width="7.5" x="403.5" y="247.0664"/><rect fill="#FFFFFF" filter="url(#f1l46zzeam4vrz)" height="29.25" style="stroke:#A80036;stroke-width:0.75;" width="7.5" x="403.5" y="297.8438"/><rect fill="#FFFFFF" filter="url(#f1l46zzeam4vrz)" height="59.291" style="stroke:#000000;stroke-width:1.5;" width="432.75" x="7.5" y="193.7754"/><line style="stroke:#A80036;stroke-width:0.75;stroke-dasharray:5.0,5.0;" x1="46.5" x2="46.5" y1="67.207" y2="333.8438"/><line style="stroke:#A80036;stroke-width:0.75;stroke-dasharray:5.0,5.0;" x1="407.25" x2="407.25" y1="67.207" y2="333.8438"/><text fill="#000000" font-family="sans-serif" font-size="10.5" lengthAdjust="spacing" textLength="58.5" x="15" y="64.8999">Receptionist</text><ellipse cx="46.5" cy="11.25" fill="#FEFECE" filter="url(#f1l46zzeam4vrz)" rx="6" ry="6" style="stroke:#A80036;stroke-width:1.5;"/><path d="M46.5,17.25 L46.5,37.5 M36.75,23.25 L56.25,23.25 M46.5,37.5 L36.75,48.75 M46.5,37.5 L56.25,48.75 " fill="none" filter="url(#f1l46zzeam4vrz)" style="stroke:#A80036;stroke-width:1.5;"/><text fill="#000000" font-family="sans-serif" font-size="10.5" lengthAdjust="spacing" textLength="58.5" x="15" y="343.9937">Receptionist</text><ellipse cx="46.5" cy="353.8008" fill="#FEFECE" filter="url(#f1l46zzeam4vrz)" rx="6" ry="6" style="stroke:#A80036;stroke-width:1.5;"/><path d="M46.5,359.8008 L46.5,380.0508 M36.75,365.8008 L56.25,365.8008 M46.5,380.0508 L36.75,391.3008 M46.5,380.0508 L56.25,391.3008 " fill="none" filter="url(#f1l46zzeam4vrz)" style="stroke:#A80036;stroke-width:1.5;"/><rect fill="#FEFECE" filter="url(#f1l46zzeam4vrz)" height="23.707" style="stroke:#A80036;stroke-width:1.125;" width="48" x="381.75" y="39.75"/><text fill="#000000" font-family="sans-serif" font-size="10.5" lengthAdjust="spacing" textLength="37.5" x="387" y="55.8999">:System</text><rect fill="#FEFECE" filter="url(#f1l46zzeam4vrz)" height="23.707" style="stroke:#A80036;stroke-width:1.125;" width="48" x="381.75" y="333.0938"/><text fill="#000000" font-family="sans-serif" font-size="10.5" lengthAdjust="spacing" textLength="37.5" x="387" y="349.2437">:System</text><rect fill="#FFFFFF" filter="url(#f1l46zzeam4vrz)" height="245.6367" style="stroke:#A80036;stroke-width:0.75;" width="7.5" x="42.75" y="74.707"/><rect fill="#FFFFFF" filter="url(#f1l46zzeam4vrz)" height="22.7637" style="stroke:#A80036;stroke-width:0.75;" width="7.5" x="403.5" y="91.4707"/><rect fill="#FFFFFF" filter="url(#f1l46zzeam4vrz)" height="22.7637" style="stroke:#A80036;stroke-width:0.75;" width="7.5" x="403.5" y="136.998"/><rect fill="#FFFFFF" filter="url(#f1l46zzeam4vrz)" height="41.7773" style="stroke:#A80036;stroke-width:0.75;" width="7.5" x="403.5" y="182.5254"/><rect fill="#FFFFFF" filter="url(#f1l46zzeam4vrz)" height="28.0137" style="stroke:#A80036;stroke-width:0.75;" width="7.5" x="403.5" y="247.0664"/><rect fill="#FFFFFF" filter="url(#f1l46zzeam4vrz)" height="29.25" style="stroke:#A80036;stroke-width:0.75;" width="7.5" x="403.5" y="297.8438"/><polygon fill="#A80036" points="394.5,88.4707,402,91.4707,394.5,94.4707,397.5,91.4707" style="stroke:#A80036;stroke-width:0.75;"/><line style="stroke:#A80036;stroke-width:0.75;" x1="50.25" x2="399" y1="91.4707" y2="91.4707"/><text fill="#000000" font-family="sans-serif" font-size="9.75" font-weight="bold" lengthAdjust="spacing" textLength="5.25" x="55.5" y="87.8284">1</text><text fill="#000000" font-family="sans-serif" font-size="9.75" lengthAdjust="spacing" textLength="258.75" x="63.75" y="87.8284">Asks to register a test to be performed to a registered client</text><polygon fill="#A80036" points="58.5,111.2344,51,114.2344,58.5,117.2344,55.5,114.2344" style="stroke:#A80036;stroke-width:0.75;"/><line style="stroke:#A80036;stroke-width:0.75;stroke-dasharray:2.0,2.0;" x1="54" x2="406.5" y1="114.2344" y2="114.2344"/><text fill="#000000" font-family="sans-serif" font-size="9.75" font-weight="bold" lengthAdjust="spacing" textLength="5.25" x="63" y="110.592">2</text><text fill="#000000" font-family="sans-serif" font-size="9.75" lengthAdjust="spacing" textLength="199.5" x="71.25" y="110.592">requests data (CitizenCardNumber, NHScode)</text><polygon fill="#A80036" points="394.5,133.998,402,136.998,394.5,139.998,397.5,136.998" style="stroke:#A80036;stroke-width:0.75;"/><line style="stroke:#A80036;stroke-width:0.75;" x1="50.25" x2="399" y1="136.998" y2="136.998"/><text fill="#000000" font-family="sans-serif" font-size="9.75" font-weight="bold" lengthAdjust="spacing" textLength="5.25" x="55.5" y="133.3557">3</text><text fill="#000000" font-family="sans-serif" font-size="9.75" lengthAdjust="spacing" textLength="93.75" x="63.75" y="133.3557">Types requested data</text><polygon fill="#A80036" points="58.5,156.7617,51,159.7617,58.5,162.7617,55.5,159.7617" style="stroke:#A80036;stroke-width:0.75;"/><line style="stroke:#A80036;stroke-width:0.75;stroke-dasharray:2.0,2.0;" x1="54" x2="406.5" y1="159.7617" y2="159.7617"/><text fill="#000000" font-family="sans-serif" font-size="9.75" font-weight="bold" lengthAdjust="spacing" textLength="5.25" x="63" y="156.1194">4</text><text fill="#000000" font-family="sans-serif" font-size="9.75" lengthAdjust="spacing" textLength="228.75" x="71.25" y="156.1194">Shows available test types and request to select one</text><polygon fill="#A80036" points="394.5,179.5254,402,182.5254,394.5,185.5254,397.5,182.5254" style="stroke:#A80036;stroke-width:0.75;"/><line style="stroke:#A80036;stroke-width:0.75;" x1="50.25" x2="399" y1="182.5254" y2="182.5254"/><text fill="#000000" font-family="sans-serif" font-size="9.75" font-weight="bold" lengthAdjust="spacing" textLength="5.25" x="55.5" y="178.8831">5</text><text fill="#000000" font-family="sans-serif" font-size="9.75" lengthAdjust="spacing" textLength="74.25" x="63.75" y="178.8831">Selects test type</text><path d="M7.5,193.7754 L62.25,193.7754 L62.25,199.7754 L54.75,207.2754 L7.5,207.2754 L7.5,193.7754 " fill="#EEEEEE" style="stroke:#000000;stroke-width:0.75;"/><rect fill="none" height="59.291" style="stroke:#000000;stroke-width:1.5;" width="432.75" x="7.5" y="193.7754"/><text fill="#000000" font-family="sans-serif" font-size="9.75" font-weight="bold" lengthAdjust="spacing" textLength="21" x="18.75" y="204.6467">loop</text><text fill="#000000" font-family="sans-serif" font-size="8.25" font-weight="bold" lengthAdjust="spacing" textLength="123.75" x="73.5" y="203.8396">[while user adds parameters]</text><polygon fill="#A80036" points="58.5,221.3027,51,224.3027,58.5,227.3027,55.5,224.3027" style="stroke:#A80036;stroke-width:0.75;"/><line style="stroke:#A80036;stroke-width:0.75;stroke-dasharray:2.0,2.0;" x1="54" x2="406.5" y1="224.3027" y2="224.3027"/><text fill="#000000" font-family="sans-serif" font-size="9.75" font-weight="bold" lengthAdjust="spacing" textLength="5.25" x="63" y="220.6604">6</text><text fill="#000000" font-family="sans-serif" font-size="9.75" lengthAdjust="spacing" textLength="327" x="71.25" y="220.6604">Shows all parameters associated with tt category and request to select one</text><polygon fill="#A80036" points="394.5,244.0664,402,247.0664,394.5,250.0664,397.5,247.0664" style="stroke:#A80036;stroke-width:0.75;"/><line style="stroke:#A80036;stroke-width:0.75;" x1="50.25" x2="399" y1="247.0664" y2="247.0664"/><text fill="#000000" font-family="sans-serif" font-size="9.75" font-weight="bold" lengthAdjust="spacing" textLength="5.25" x="55.5" y="243.4241">7</text><text fill="#000000" font-family="sans-serif" font-size="9.75" lengthAdjust="spacing" textLength="79.5" x="63.75" y="243.4241">Selects parameter</text><polygon fill="#A80036" points="58.5,272.0801,51,275.0801,58.5,278.0801,55.5,275.0801" style="stroke:#A80036;stroke-width:0.75;"/><line style="stroke:#A80036;stroke-width:0.75;stroke-dasharray:2.0,2.0;" x1="54" x2="406.5" y1="275.0801" y2="275.0801"/><text fill="#000000" font-family="sans-serif" font-size="9.75" font-weight="bold" lengthAdjust="spacing" textLength="5.25" x="63" y="271.4377">8</text><text fill="#000000" font-family="sans-serif" font-size="9.75" lengthAdjust="spacing" textLength="187.5" x="71.25" y="271.4377">Shows Test data and requests confirmation</text><polygon fill="#A80036" points="394.5,294.8438,402,297.8438,394.5,300.8438,397.5,297.8438" style="stroke:#A80036;stroke-width:0.75;"/><line style="stroke:#A80036;stroke-width:0.75;" x1="50.25" x2="399" y1="297.8438" y2="297.8438"/><text fill="#000000" font-family="sans-serif" font-size="9.75" font-weight="bold" lengthAdjust="spacing" textLength="5.25" x="55.5" y="294.2014">9</text><text fill="#000000" font-family="sans-serif" font-size="9.75" lengthAdjust="spacing" textLength="75" x="63.75" y="294.2014">confirms the data</text><!--MD5=[d5d5b5fdcb89b33b4020b00b2a91602b]
@startuml

autonumber
actor "Receptionist" as MLT

activate MLT
MLT -> ":System" : Asks to register a test to be performed to a registered client
activate ":System"
":System" - -> MLT :requests data (CitizenCardNumber, NHScode)
deactivate ":System"

MLT -> ":System" : Types requested data
activate ":System"
":System" - -> MLT : Shows available test types and request to select one
deactivate ":System"

MLT -> ":System" : Selects test type
activate ":System"
loop while user adds parameters
":System" - -> MLT : Shows all parameters associated with tt category and request to select one
deactivate ":System"
MLT -> ":System" : Selects parameter
activate ":System"
end
":System" - -> MLT : Shows Test data and requests confirmation
deactivate ":System"
MLT -> ":System" : confirms the data
activate ":System"

deactivate MLT

@enduml

PlantUML version 1.2021.00(Sun Jan 10 10:25:05 GMT 2021)
(GPL source distribution)
Java Runtime: OpenJDK Runtime Environment
JVM: OpenJDK 64-Bit Server VM
Default Encoding: Cp1252
Language: pt
Country: BR
--></g></svg>