<?xml version="1.0" encoding="UTF-8" standalone="no"?><svg xmlns="http://www.w3.org/2000/svg" xmlns:xlink="http://www.w3.org/1999/xlink" contentScriptType="application/ecmascript" contentStyleType="text/css" height="1431px" preserveAspectRatio="none" style="width:1878px;height:1431px;" version="1.1" viewBox="0 0 1878 1431" width="1878.75px" zoomAndPan="magnify"><defs><filter height="300%" id="ftukj0i2e63t9" width="300%" x="-1" y="-1"><feGaussianBlur result="blurOut" stdDeviation="1.5"/><feColorMatrix in="blurOut" result="blurOut2" type="matrix" values="0 0 0 0 0 0 0 0 0 0 0 0 0 0 0 0 0 0 .4 0"/><feOffset dx="3.0" dy="3.0" in="blurOut2" result="blurOut3"/><feBlend in="SourceGraphic" in2="blurOut3" mode="normal"/></filter></defs><g><!--MD5=[9681dc6e01e10c6b4fe06895ae94f592]
cluster UI--><polygon fill="#FFFFFF" filter="url(#ftukj0i2e63t9)" points="12,1185,27,1185,32.25,1202.707,114.75,1202.707,114.75,1260,12,1260,12,1185" style="stroke:#000000;stroke-width:1.125;"/><line style="stroke:#000000;stroke-width:1.125;" x1="12" x2="32.25" y1="1202.707" y2="1202.707"/><text fill="#000000" font-family="sans-serif" font-size="10.5" font-weight="bold" lengthAdjust="spacing" textLength="10.5" x="15" y="1197.3999">UI</text><!--MD5=[121a8bf1197281ab89ed693fab589f94]
cluster Domain--><polygon fill="#FFFFFF" filter="url(#ftukj0i2e63t9)" points="580.125,4.5,623.625,4.5,628.875,22.207,1866,22.207,1866,640.5,580.125,640.5,580.125,4.5" style="stroke:#000000;stroke-width:1.125;"/><line style="stroke:#000000;stroke-width:1.125;" x1="580.125" x2="628.875" y1="22.207" y2="22.207"/><text fill="#000000" font-family="sans-serif" font-size="10.5" font-weight="bold" lengthAdjust="spacing" textLength="39" x="583.125" y="16.8999">Domain</text><!--MD5=[15636c1ca4a123c16a2a1a8e90aca7a9]
cluster Model--><polygon fill="#FFFFFF" filter="url(#ftukj0i2e63t9)" points="598.125,349.5,635.625,349.5,640.875,367.207,1848,367.207,1848,622.5,598.125,622.5,598.125,349.5" style="stroke:#000000;stroke-width:1.125;"/><line style="stroke:#000000;stroke-width:1.125;" x1="598.125" x2="640.875" y1="367.207" y2="367.207"/><text fill="#000000" font-family="sans-serif" font-size="10.5" font-weight="bold" lengthAdjust="spacing" textLength="33" x="601.125" y="361.8999">Model</text><!--MD5=[8dd535d56cd4cf7faf64fdd082ba836e]
cluster Stores--><polygon fill="#FFFFFF" filter="url(#ftukj0i2e63t9)" points="873.375,37.5,912.375,37.5,917.625,55.207,1145.625,55.207,1145.625,331.5,873.375,331.5,873.375,37.5" style="stroke:#000000;stroke-width:1.125;"/><line style="stroke:#000000;stroke-width:1.125;" x1="873.375" x2="917.625" y1="55.207" y2="55.207"/><text fill="#000000" font-family="sans-serif" font-size="10.5" font-weight="bold" lengthAdjust="spacing" textLength="34.5" x="876.375" y="49.8999">Stores</text><!--MD5=[1f2cfc53d9d308f53762fd0fcbaa4873]
cluster Controller--><polygon fill="#FFFFFF" filter="url(#ftukj0i2e63t9)" points="139.5,847.5,197.25,847.5,202.5,865.207,495,865.207,495,975,139.5,975,139.5,847.5" style="stroke:#000000;stroke-width:1.125;"/><line style="stroke:#000000;stroke-width:1.125;" x1="139.5" x2="202.5" y1="865.207" y2="865.207"/><text fill="#000000" font-family="sans-serif" font-size="10.5" font-weight="bold" lengthAdjust="spacing" textLength="53.25" x="142.5" y="859.8999">Controller</text><!--MD5=[7b8bc9ee8bb84b99fb3a3f9477c19238]
cluster DTO--><polygon fill="#FFFFFF" filter="url(#ftukj0i2e63t9)" points="862.5,987,888.75,987,894,1004.707,1156.5,1004.707,1156.5,1323,862.5,1323,862.5,987" style="stroke:#000000;stroke-width:1.125;"/><line style="stroke:#000000;stroke-width:1.125;" x1="862.5" x2="894" y1="1004.707" y2="1004.707"/><text fill="#000000" font-family="sans-serif" font-size="10.5" font-weight="bold" lengthAdjust="spacing" textLength="21.75" x="865.5" y="999.3999">DTO</text><!--MD5=[701152d03fbf85133a1de050cfdbc7fd]
cluster Mappers--><polygon fill="#FFFFFF" filter="url(#ftukj0i2e63t9)" points="519.75,780,570.75,780,576,797.707,787.5,797.707,787.5,1042.5,519.75,1042.5,519.75,780" style="stroke:#000000;stroke-width:1.125;"/><line style="stroke:#000000;stroke-width:1.125;" x1="519.75" x2="576" y1="797.707" y2="797.707"/><text fill="#000000" font-family="sans-serif" font-size="10.5" font-weight="bold" lengthAdjust="spacing" textLength="46.5" x="522.75" y="792.3999">Mappers</text><!--MD5=[92f70f89e9f3cc4b172fe964212d1829]
class CreateTestUI--><rect codeLine="6" fill="#FEFECE" filter="url(#ftukj0i2e63t9)" height="36" id="CreateTestUI" style="stroke:#A80036;stroke-width:1.125;" width="78.75" x="24" y="1212"/><ellipse cx="35.25" cy="1224" fill="#ADD1B2" rx="8.25" ry="8.25" style="stroke:#A80036;stroke-width:0.75;"/><path d="M36.75,1221.375 Q36.9023,1221 37.0781,1220.8125 Q37.2539,1220.625 37.4531,1220.625 Q37.8047,1220.625 38.0273,1220.8359 Q38.25,1221.0469 38.25,1221.5391 L38.25,1222.7109 Q38.25,1223.2031 38.0391,1223.4141 Q37.8281,1223.625 37.5,1223.625 Q37.207,1223.625 37.0195,1223.4961 Q36.832,1223.3672 36.75,1223.0273 Q36.7148,1222.793 36.5859,1222.6641 Q36.3516,1222.418 35.9297,1222.2773 Q35.5078,1222.125 35.0859,1222.125 Q34.5586,1222.125 34.1133,1222.3359 Q33.6797,1222.5469 33.3398,1223.0156 Q33,1223.4844 33,1224.1289 L33,1224.8203 Q33,1225.5938 33.6328,1226.1094 Q34.2656,1226.625 35.3906,1226.625 Q36.0586,1226.625 36.5273,1226.4727 Q36.7969,1226.3906 37.1016,1226.1211 Q37.3008,1225.9688 37.4063,1225.9219 Q37.5117,1225.875 37.6406,1225.875 Q37.8867,1225.875 38.0625,1226.0742 Q38.25,1226.2617 38.25,1226.5313 Q38.25,1226.7891 37.9922,1227.0938 Q37.6172,1227.5391 37.0195,1227.7852 Q36.2344,1228.125 35.2734,1228.125 Q34.1484,1228.125 33.2461,1227.6797 Q32.5195,1227.3281 32.0039,1226.5664 Q31.5,1225.8047 31.5,1224.9023 L31.5,1224.082 Q31.5,1223.1445 31.9453,1222.3242 Q32.4023,1221.5039 33.1875,1221.0703 Q33.9844,1220.625 34.875,1220.625 Q35.4141,1220.625 35.8828,1220.8125 Q36.3516,1221 36.75,1221.375 Z " fill="#000000"/><text fill="#000000" font-family="sans-serif" font-size="9" lengthAdjust="spacing" textLength="54.75" x="45.75" y="1227.6826">CreateTestUI</text><line style="stroke:#A80036;stroke-width:1.125;" x1="24.75" x2="102" y1="1236" y2="1236"/><line style="stroke:#A80036;stroke-width:1.125;" x1="24.75" x2="102" y1="1242" y2="1242"/><!--MD5=[aeb3272166074d8737a70b61b1e71682]
class TestType--><rect codeLine="14" fill="#FEFECE" filter="url(#ftukj0i2e63t9)" height="67.1309" id="TestType" style="stroke:#A80036;stroke-width:1.125;" width="99.75" x="1292.625" y="376.5"/><ellipse cx="1321.0875" cy="388.5" fill="#ADD1B2" rx="8.25" ry="8.25" style="stroke:#A80036;stroke-width:0.75;"/><path d="M1322.5875,385.875 Q1322.7398,385.5 1322.9156,385.3125 Q1323.0914,385.125 1323.2906,385.125 Q1323.6422,385.125 1323.8648,385.3359 Q1324.0875,385.5469 1324.0875,386.0391 L1324.0875,387.2109 Q1324.0875,387.7031 1323.8766,387.9141 Q1323.6656,388.125 1323.3375,388.125 Q1323.0445,388.125 1322.857,387.9961 Q1322.6695,387.8672 1322.5875,387.5273 Q1322.5523,387.293 1322.4234,387.1641 Q1322.1891,386.918 1321.7672,386.7773 Q1321.3453,386.625 1320.9234,386.625 Q1320.3961,386.625 1319.9508,386.8359 Q1319.5172,387.0469 1319.1773,387.5156 Q1318.8375,387.9844 1318.8375,388.6289 L1318.8375,389.3203 Q1318.8375,390.0938 1319.4703,390.6094 Q1320.1031,391.125 1321.2281,391.125 Q1321.8961,391.125 1322.3648,390.9727 Q1322.6344,390.8906 1322.9391,390.6211 Q1323.1383,390.4688 1323.2438,390.4219 Q1323.3492,390.375 1323.4781,390.375 Q1323.7242,390.375 1323.9,390.5742 Q1324.0875,390.7617 1324.0875,391.0313 Q1324.0875,391.2891 1323.8297,391.5938 Q1323.4547,392.0391 1322.857,392.2852 Q1322.0719,392.625 1321.1109,392.625 Q1319.9859,392.625 1319.0836,392.1797 Q1318.357,391.8281 1317.8414,391.0664 Q1317.3375,390.3047 1317.3375,389.4023 L1317.3375,388.582 Q1317.3375,387.6445 1317.7828,386.8242 Q1318.2398,386.0039 1319.025,385.5703 Q1319.8219,385.125 1320.7125,385.125 Q1321.2516,385.125 1321.7203,385.3125 Q1322.1891,385.5 1322.5875,385.875 Z " fill="#000000"/><text fill="#000000" font-family="sans-serif" font-size="9" lengthAdjust="spacing" textLength="37.5" x="1335.4125" y="392.1826">TestType</text><line style="stroke:#A80036;stroke-width:1.125;" x1="1293.375" x2="1391.625" y1="400.5" y2="400.5"/><text fill="#000000" font-family="sans-serif" font-size="8.25" lengthAdjust="spacing" textLength="48.75" x="1297.125" y="412.0642">-code : String</text><text fill="#000000" font-family="sans-serif" font-size="8.25" lengthAdjust="spacing" textLength="70.5" x="1297.125" y="422.4412">-description : String</text><text fill="#000000" font-family="sans-serif" font-size="8.25" lengthAdjust="spacing" textLength="90.75" x="1297.125" y="432.8181">-collectingMethod : String</text><line style="stroke:#A80036;stroke-width:1.125;" x1="1293.375" x2="1391.625" y1="437.6309" y2="437.6309"/><!--MD5=[df38be88ccee13e832d6fafd6288a4ca]
class Test--><rect codeLine="20" fill="#FEFECE" filter="url(#ftukj0i2e63t9)" height="56.7539" id="Test" style="stroke:#A80036;stroke-width:1.125;" width="72" x="973.5" y="475.5"/><ellipse cx="998.25" cy="487.5" fill="#ADD1B2" rx="8.25" ry="8.25" style="stroke:#A80036;stroke-width:0.75;"/><path d="M999.75,484.875 Q999.9023,484.5 1000.0781,484.3125 Q1000.2539,484.125 1000.4531,484.125 Q1000.8047,484.125 1001.0273,484.3359 Q1001.25,484.5469 1001.25,485.0391 L1001.25,486.2109 Q1001.25,486.7031 1001.0391,486.9141 Q1000.8281,487.125 1000.5,487.125 Q1000.207,487.125 1000.0195,486.9961 Q999.832,486.8672 999.75,486.5273 Q999.7148,486.293 999.5859,486.1641 Q999.3516,485.918 998.9297,485.7773 Q998.5078,485.625 998.0859,485.625 Q997.5586,485.625 997.1133,485.8359 Q996.6797,486.0469 996.3398,486.5156 Q996,486.9844 996,487.6289 L996,488.3203 Q996,489.0938 996.6328,489.6094 Q997.2656,490.125 998.3906,490.125 Q999.0586,490.125 999.5273,489.9727 Q999.7969,489.8906 1000.1016,489.6211 Q1000.3008,489.4688 1000.4063,489.4219 Q1000.5117,489.375 1000.6406,489.375 Q1000.8867,489.375 1001.0625,489.5742 Q1001.25,489.7617 1001.25,490.0313 Q1001.25,490.2891 1000.9922,490.5938 Q1000.6172,491.0391 1000.0195,491.2852 Q999.2344,491.625 998.2734,491.625 Q997.1484,491.625 996.2461,491.1797 Q995.5195,490.8281 995.0039,490.0664 Q994.5,489.3047 994.5,488.4023 L994.5,487.582 Q994.5,486.6445 994.9453,485.8242 Q995.4023,485.0039 996.1875,484.5703 Q996.9844,484.125 997.875,484.125 Q998.4141,484.125 998.8828,484.3125 Q999.3516,484.5 999.75,484.875 Z " fill="#000000"/><text fill="#000000" font-family="sans-serif" font-size="9" lengthAdjust="spacing" textLength="18" x="1011.75" y="491.1826">Test</text><line style="stroke:#A80036;stroke-width:1.125;" x1="974.25" x2="1044.75" y1="499.5" y2="499.5"/><text fill="#000000" font-family="sans-serif" font-size="8.25" lengthAdjust="spacing" textLength="63" x="978" y="511.0642">-NHSCode: String</text><text fill="#000000" font-family="sans-serif" font-size="8.25" lengthAdjust="spacing" textLength="46.5" x="978" y="521.4412">-code: String</text><line style="stroke:#A80036;stroke-width:1.125;" x1="974.25" x2="1044.75" y1="526.2539" y2="526.2539"/><!--MD5=[9681492165142af2a4a3a169d90ee8d4]
class Sample--><rect codeLine="25" fill="#FEFECE" filter="url(#ftukj0i2e63t9)" height="46.377" id="Sample" style="stroke:#A80036;stroke-width:1.125;" width="56.25" x="1314.375" y="564"/><ellipse cx="1325.625" cy="576" fill="#ADD1B2" rx="8.25" ry="8.25" style="stroke:#A80036;stroke-width:0.75;"/><path d="M1327.125,573.375 Q1327.2773,573 1327.4531,572.8125 Q1327.6289,572.625 1327.8281,572.625 Q1328.1797,572.625 1328.4023,572.8359 Q1328.625,573.0469 1328.625,573.5391 L1328.625,574.7109 Q1328.625,575.2031 1328.4141,575.4141 Q1328.2031,575.625 1327.875,575.625 Q1327.582,575.625 1327.3945,575.4961 Q1327.207,575.3672 1327.125,575.0273 Q1327.0898,574.793 1326.9609,574.6641 Q1326.7266,574.418 1326.3047,574.2773 Q1325.8828,574.125 1325.4609,574.125 Q1324.9336,574.125 1324.4883,574.3359 Q1324.0547,574.5469 1323.7148,575.0156 Q1323.375,575.4844 1323.375,576.1289 L1323.375,576.8203 Q1323.375,577.5938 1324.0078,578.1094 Q1324.6406,578.625 1325.7656,578.625 Q1326.4336,578.625 1326.9023,578.4727 Q1327.1719,578.3906 1327.4766,578.1211 Q1327.6758,577.9688 1327.7813,577.9219 Q1327.8867,577.875 1328.0156,577.875 Q1328.2617,577.875 1328.4375,578.0742 Q1328.625,578.2617 1328.625,578.5313 Q1328.625,578.7891 1328.3672,579.0938 Q1327.9922,579.5391 1327.3945,579.7852 Q1326.6094,580.125 1325.6484,580.125 Q1324.5234,580.125 1323.6211,579.6797 Q1322.8945,579.3281 1322.3789,578.5664 Q1321.875,577.8047 1321.875,576.9023 L1321.875,576.082 Q1321.875,575.1445 1322.3203,574.3242 Q1322.7773,573.5039 1323.5625,573.0703 Q1324.3594,572.625 1325.25,572.625 Q1325.7891,572.625 1326.2578,572.8125 Q1326.7266,573 1327.125,573.375 Z " fill="#000000"/><text fill="#000000" font-family="sans-serif" font-size="9" lengthAdjust="spacing" textLength="32.25" x="1336.125" y="579.6826">Sample</text><line style="stroke:#A80036;stroke-width:1.125;" x1="1315.125" x2="1369.875" y1="588" y2="588"/><text fill="#000000" font-family="sans-serif" font-size="8.25" lengthAdjust="spacing" textLength="33.75" x="1318.875" y="599.5642">-barCode</text><line style="stroke:#A80036;stroke-width:1.125;" x1="1315.125" x2="1369.875" y1="604.377" y2="604.377"/><!--MD5=[1f6362a5c8f21d8d6a0fce68f3a92a4e]
class Parameter--><rect codeLine="29" fill="#FEFECE" filter="url(#ftukj0i2e63t9)" height="67.1309" id="Parameter" style="stroke:#A80036;stroke-width:1.125;" width="67.5" x="1530.375" y="462.75"/><ellipse cx="1541.625" cy="474.75" fill="#ADD1B2" rx="8.25" ry="8.25" style="stroke:#A80036;stroke-width:0.75;"/><path d="M1543.125,472.125 Q1543.2773,471.75 1543.4531,471.5625 Q1543.6289,471.375 1543.8281,471.375 Q1544.1797,471.375 1544.4023,471.5859 Q1544.625,471.7969 1544.625,472.2891 L1544.625,473.4609 Q1544.625,473.9531 1544.4141,474.1641 Q1544.2031,474.375 1543.875,474.375 Q1543.582,474.375 1543.3945,474.2461 Q1543.207,474.1172 1543.125,473.7773 Q1543.0898,473.543 1542.9609,473.4141 Q1542.7266,473.168 1542.3047,473.0273 Q1541.8828,472.875 1541.4609,472.875 Q1540.9336,472.875 1540.4883,473.0859 Q1540.0547,473.2969 1539.7148,473.7656 Q1539.375,474.2344 1539.375,474.8789 L1539.375,475.5703 Q1539.375,476.3438 1540.0078,476.8594 Q1540.6406,477.375 1541.7656,477.375 Q1542.4336,477.375 1542.9023,477.2227 Q1543.1719,477.1406 1543.4766,476.8711 Q1543.6758,476.7188 1543.7813,476.6719 Q1543.8867,476.625 1544.0156,476.625 Q1544.2617,476.625 1544.4375,476.8242 Q1544.625,477.0117 1544.625,477.2813 Q1544.625,477.5391 1544.3672,477.8438 Q1543.9922,478.2891 1543.3945,478.5352 Q1542.6094,478.875 1541.6484,478.875 Q1540.5234,478.875 1539.6211,478.4297 Q1538.8945,478.0781 1538.3789,477.3164 Q1537.875,476.5547 1537.875,475.6523 L1537.875,474.832 Q1537.875,473.8945 1538.3203,473.0742 Q1538.7773,472.2539 1539.5625,471.8203 Q1540.3594,471.375 1541.25,471.375 Q1541.7891,471.375 1542.2578,471.5625 Q1542.7266,471.75 1543.125,472.125 Z " fill="#000000"/><text fill="#000000" font-family="sans-serif" font-size="9" lengthAdjust="spacing" textLength="43.5" x="1552.125" y="478.4326">Parameter</text><line style="stroke:#A80036;stroke-width:1.125;" x1="1531.125" x2="1597.125" y1="486.75" y2="486.75"/><text fill="#000000" font-family="sans-serif" font-size="8.25" lengthAdjust="spacing" textLength="21" x="1534.875" y="498.3142">-code</text><text fill="#000000" font-family="sans-serif" font-size="8.25" lengthAdjust="spacing" textLength="42" x="1534.875" y="508.6912">-shortName</text><text fill="#000000" font-family="sans-serif" font-size="8.25" lengthAdjust="spacing" textLength="42.75" x="1534.875" y="519.0681">-description</text><line style="stroke:#A80036;stroke-width:1.125;" x1="1531.125" x2="1597.125" y1="523.8809" y2="523.8809"/><!--MD5=[02e4b9b7573f1156f41e60aa5b4e25a4]
class Company--><rect codeLine="35" fill="#FEFECE" filter="url(#ftukj0i2e63t9)" height="77.5078" id="Company" style="stroke:#A80036;stroke-width:1.125;" width="87" x="610.125" y="376.875"/><ellipse cx="631.8375" cy="388.875" fill="#ADD1B2" rx="8.25" ry="8.25" style="stroke:#A80036;stroke-width:0.75;"/><path d="M633.3375,386.25 Q633.4898,385.875 633.6656,385.6875 Q633.8414,385.5 634.0406,385.5 Q634.3922,385.5 634.6148,385.7109 Q634.8375,385.9219 634.8375,386.4141 L634.8375,387.5859 Q634.8375,388.0781 634.6266,388.2891 Q634.4156,388.5 634.0875,388.5 Q633.7945,388.5 633.607,388.3711 Q633.4195,388.2422 633.3375,387.9023 Q633.3023,387.668 633.1734,387.5391 Q632.9391,387.293 632.5172,387.1523 Q632.0953,387 631.6734,387 Q631.1461,387 630.7008,387.2109 Q630.2672,387.4219 629.9273,387.8906 Q629.5875,388.3594 629.5875,389.0039 L629.5875,389.6953 Q629.5875,390.4688 630.2203,390.9844 Q630.8531,391.5 631.9781,391.5 Q632.6461,391.5 633.1148,391.3477 Q633.3844,391.2656 633.6891,390.9961 Q633.8883,390.8438 633.9938,390.7969 Q634.0992,390.75 634.2281,390.75 Q634.4742,390.75 634.65,390.9492 Q634.8375,391.1367 634.8375,391.4063 Q634.8375,391.6641 634.5797,391.9688 Q634.2047,392.4141 633.607,392.6602 Q632.8219,393 631.8609,393 Q630.7359,393 629.8336,392.5547 Q629.107,392.2031 628.5914,391.4414 Q628.0875,390.6797 628.0875,389.7773 L628.0875,388.957 Q628.0875,388.0195 628.5328,387.1992 Q628.9898,386.3789 629.775,385.9453 Q630.5719,385.5 631.4625,385.5 Q632.0016,385.5 632.4703,385.6875 Q632.9391,385.875 633.3375,386.25 Z " fill="#000000"/><text fill="#000000" font-family="sans-serif" font-size="9" lengthAdjust="spacing" textLength="39.75" x="644.6625" y="392.5576">Company</text><line style="stroke:#A80036;stroke-width:1.125;" x1="610.875" x2="696.375" y1="400.875" y2="400.875"/><text fill="#000000" font-family="sans-serif" font-size="8.25" lengthAdjust="spacing" textLength="72" x="614.625" y="412.4392">-designation : String</text><line style="stroke:#A80036;stroke-width:1.125;" x1="610.875" x2="696.375" y1="417.252" y2="417.252"/><text fill="#000000" font-family="sans-serif" font-size="8.25" lengthAdjust="spacing" textLength="75" x="614.625" y="428.8162">+getTestTypeStore()</text><text fill="#000000" font-family="sans-serif" font-size="8.25" lengthAdjust="spacing" textLength="78" x="614.625" y="439.1931">+getParameterStore()</text><text fill="#000000" font-family="sans-serif" font-size="8.25" lengthAdjust="spacing" textLength="57" x="614.625" y="449.5701">+getTestStore()</text><!--MD5=[36afb6bbd95a8ac778c4537c55a683d5]
class ParameterCategory--><rect codeLine="42" fill="#FEFECE" filter="url(#ftukj0i2e63t9)" height="56.7539" id="ParameterCategory" style="stroke:#A80036;stroke-width:1.125;" width="104.25" x="1731.75" y="468"/><ellipse cx="1743" cy="480" fill="#ADD1B2" rx="8.25" ry="8.25" style="stroke:#A80036;stroke-width:0.75;"/><path d="M1744.5,477.375 Q1744.6523,477 1744.8281,476.8125 Q1745.0039,476.625 1745.2031,476.625 Q1745.5547,476.625 1745.7773,476.8359 Q1746,477.0469 1746,477.5391 L1746,478.7109 Q1746,479.2031 1745.7891,479.4141 Q1745.5781,479.625 1745.25,479.625 Q1744.957,479.625 1744.7695,479.4961 Q1744.582,479.3672 1744.5,479.0273 Q1744.4648,478.793 1744.3359,478.6641 Q1744.1016,478.418 1743.6797,478.2773 Q1743.2578,478.125 1742.8359,478.125 Q1742.3086,478.125 1741.8633,478.3359 Q1741.4297,478.5469 1741.0898,479.0156 Q1740.75,479.4844 1740.75,480.1289 L1740.75,480.8203 Q1740.75,481.5938 1741.3828,482.1094 Q1742.0156,482.625 1743.1406,482.625 Q1743.8086,482.625 1744.2773,482.4727 Q1744.5469,482.3906 1744.8516,482.1211 Q1745.0508,481.9688 1745.1563,481.9219 Q1745.2617,481.875 1745.3906,481.875 Q1745.6367,481.875 1745.8125,482.0742 Q1746,482.2617 1746,482.5313 Q1746,482.7891 1745.7422,483.0938 Q1745.3672,483.5391 1744.7695,483.7852 Q1743.9844,484.125 1743.0234,484.125 Q1741.8984,484.125 1740.9961,483.6797 Q1740.2695,483.3281 1739.7539,482.5664 Q1739.25,481.8047 1739.25,480.9023 L1739.25,480.082 Q1739.25,479.1445 1739.6953,478.3242 Q1740.1523,477.5039 1740.9375,477.0703 Q1741.7344,476.625 1742.625,476.625 Q1743.1641,476.625 1743.6328,476.8125 Q1744.1016,477 1744.5,477.375 Z " fill="#000000"/><text fill="#000000" font-family="sans-serif" font-size="9" lengthAdjust="spacing" textLength="80.25" x="1753.5" y="483.6826">ParameterCategory</text><line style="stroke:#A80036;stroke-width:1.125;" x1="1732.5" x2="1835.25" y1="492" y2="492"/><text fill="#000000" font-family="sans-serif" font-size="8.25" lengthAdjust="spacing" textLength="21" x="1736.25" y="503.5642">-code</text><text fill="#000000" font-family="sans-serif" font-size="8.25" lengthAdjust="spacing" textLength="22.5" x="1736.25" y="513.9412">-name</text><line style="stroke:#A80036;stroke-width:1.125;" x1="1732.5" x2="1835.25" y1="518.7539" y2="518.7539"/><!--MD5=[ed6624c6556d5e7b1bd23032162d20b7]
class Client--><rect codeLine="46" fill="#FEFECE" filter="url(#ftukj0i2e63t9)" height="119.0156" id="Client" style="stroke:#A80036;stroke-width:1.125;" width="68.25" x="619.5" y="480.375"/><ellipse cx="639.8625" cy="492.375" fill="#ADD1B2" rx="8.25" ry="8.25" style="stroke:#A80036;stroke-width:0.75;"/><path d="M641.3625,489.75 Q641.5148,489.375 641.6906,489.1875 Q641.8664,489 642.0656,489 Q642.4172,489 642.6398,489.2109 Q642.8625,489.4219 642.8625,489.9141 L642.8625,491.0859 Q642.8625,491.5781 642.6516,491.7891 Q642.4406,492 642.1125,492 Q641.8195,492 641.632,491.8711 Q641.4445,491.7422 641.3625,491.4023 Q641.3273,491.168 641.1984,491.0391 Q640.9641,490.793 640.5422,490.6523 Q640.1203,490.5 639.6984,490.5 Q639.1711,490.5 638.7258,490.7109 Q638.2922,490.9219 637.9523,491.3906 Q637.6125,491.8594 637.6125,492.5039 L637.6125,493.1953 Q637.6125,493.9688 638.2453,494.4844 Q638.8781,495 640.0031,495 Q640.6711,495 641.1398,494.8477 Q641.4094,494.7656 641.7141,494.4961 Q641.9133,494.3438 642.0188,494.2969 Q642.1242,494.25 642.2531,494.25 Q642.4992,494.25 642.675,494.4492 Q642.8625,494.6367 642.8625,494.9063 Q642.8625,495.1641 642.6047,495.4688 Q642.2297,495.9141 641.632,496.1602 Q640.8469,496.5 639.8859,496.5 Q638.7609,496.5 637.8586,496.0547 Q637.132,495.7031 636.6164,494.9414 Q636.1125,494.1797 636.1125,493.2773 L636.1125,492.457 Q636.1125,491.5195 636.5578,490.6992 Q637.0148,489.8789 637.8,489.4453 Q638.5969,489 639.4875,489 Q640.0266,489 640.4953,489.1875 Q640.9641,489.375 641.3625,489.75 Z " fill="#000000"/><text fill="#000000" font-family="sans-serif" font-size="9" lengthAdjust="spacing" textLength="24" x="652.3875" y="496.0576">Client</text><line style="stroke:#A80036;stroke-width:1.125;" x1="620.25" x2="687" y1="504.375" y2="504.375"/><text fill="#000000" font-family="sans-serif" font-size="8.25" lengthAdjust="spacing" textLength="22.5" x="624" y="515.9392">-name</text><text fill="#000000" font-family="sans-serif" font-size="8.25" lengthAdjust="spacing" textLength="59.25" x="624" y="526.3162">-citizenCardNum</text><text fill="#000000" font-family="sans-serif" font-size="8.25" lengthAdjust="spacing" textLength="32.25" x="624" y="536.6931">-nhsNum</text><text fill="#000000" font-family="sans-serif" font-size="8.25" lengthAdjust="spacing" textLength="35.25" x="624" y="547.0701">-birthDate</text><text fill="#000000" font-family="sans-serif" font-size="8.25" lengthAdjust="spacing" textLength="16.5" x="624" y="557.447">-sex</text><text fill="#000000" font-family="sans-serif" font-size="8.25" lengthAdjust="spacing" textLength="36" x="624" y="567.824">-taxIdNum</text><text fill="#000000" font-family="sans-serif" font-size="8.25" lengthAdjust="spacing" textLength="41.25" x="624" y="578.2009">-phoneNum</text><text fill="#000000" font-family="sans-serif" font-size="8.25" lengthAdjust="spacing" textLength="21" x="624" y="588.5779">-email</text><line style="stroke:#A80036;stroke-width:1.125;" x1="620.25" x2="687" y1="593.3906" y2="593.3906"/><!--MD5=[be7802b157a16874d39c59ca0e2b25be]
class ParameterStore--><rect codeLine="59" fill="#FEFECE" filter="url(#ftukj0i2e63t9)" height="56.7539" id="ParameterStore" style="stroke:#A80036;stroke-width:1.125;" width="244.5" x="887.25" y="64.5"/><ellipse cx="973.6875" cy="76.5" fill="#ADD1B2" rx="8.25" ry="8.25" style="stroke:#A80036;stroke-width:0.75;"/><path d="M975.1875,73.875 Q975.3398,73.5 975.5156,73.3125 Q975.6914,73.125 975.8906,73.125 Q976.2422,73.125 976.4648,73.3359 Q976.6875,73.5469 976.6875,74.0391 L976.6875,75.2109 Q976.6875,75.7031 976.4766,75.9141 Q976.2656,76.125 975.9375,76.125 Q975.6445,76.125 975.457,75.9961 Q975.2695,75.8672 975.1875,75.5273 Q975.1523,75.293 975.0234,75.1641 Q974.7891,74.918 974.3672,74.7773 Q973.9453,74.625 973.5234,74.625 Q972.9961,74.625 972.5508,74.8359 Q972.1172,75.0469 971.7773,75.5156 Q971.4375,75.9844 971.4375,76.6289 L971.4375,77.3203 Q971.4375,78.0938 972.0703,78.6094 Q972.7031,79.125 973.8281,79.125 Q974.4961,79.125 974.9648,78.9727 Q975.2344,78.8906 975.5391,78.6211 Q975.7383,78.4688 975.8438,78.4219 Q975.9492,78.375 976.0781,78.375 Q976.3242,78.375 976.5,78.5742 Q976.6875,78.7617 976.6875,79.0313 Q976.6875,79.2891 976.4297,79.5938 Q976.0547,80.0391 975.457,80.2852 Q974.6719,80.625 973.7109,80.625 Q972.5859,80.625 971.6836,80.1797 Q970.957,79.8281 970.4414,79.0664 Q969.9375,78.3047 969.9375,77.4023 L969.9375,76.582 Q969.9375,75.6445 970.3828,74.8242 Q970.8398,74.0039 971.625,73.5703 Q972.4219,73.125 973.3125,73.125 Q973.8516,73.125 974.3203,73.3125 Q974.7891,73.5 975.1875,73.875 Z " fill="#000000"/><text fill="#000000" font-family="sans-serif" font-size="9" lengthAdjust="spacing" textLength="65.25" x="989.0625" y="80.1826">ParameterStore</text><line style="stroke:#A80036;stroke-width:1.125;" x1="888" x2="1131" y1="88.5" y2="88.5"/><line style="stroke:#A80036;stroke-width:1.125;" x1="888" x2="1131" y1="94.5" y2="94.5"/><text fill="#000000" font-family="sans-serif" font-size="8.25" lengthAdjust="spacing" textLength="235.5" x="891.75" y="106.0642">+getParamsByCategories(List&lt;String&gt; selectedCategoriesCodes)</text><text fill="#000000" font-family="sans-serif" font-size="8.25" lengthAdjust="spacing" textLength="147" x="891.75" y="116.4412">+getParamsByCategory(String category)</text><!--MD5=[6ba72ddf03822b91e8d41ca71de58ed3]
class TestTypeStore--><rect codeLine="64" fill="#FEFECE" filter="url(#ftukj0i2e63t9)" height="67.1309" id="TestTypeStore" style="stroke:#A80036;stroke-width:1.125;" width="238.5" x="890.25" y="147.75"/><ellipse cx="976.6875" cy="159.75" fill="#ADD1B2" rx="8.25" ry="8.25" style="stroke:#A80036;stroke-width:0.75;"/><path d="M978.1875,157.125 Q978.3398,156.75 978.5156,156.5625 Q978.6914,156.375 978.8906,156.375 Q979.2422,156.375 979.4648,156.5859 Q979.6875,156.7969 979.6875,157.2891 L979.6875,158.4609 Q979.6875,158.9531 979.4766,159.1641 Q979.2656,159.375 978.9375,159.375 Q978.6445,159.375 978.457,159.2461 Q978.2695,159.1172 978.1875,158.7773 Q978.1523,158.543 978.0234,158.4141 Q977.7891,158.168 977.3672,158.0273 Q976.9453,157.875 976.5234,157.875 Q975.9961,157.875 975.5508,158.0859 Q975.1172,158.2969 974.7773,158.7656 Q974.4375,159.2344 974.4375,159.8789 L974.4375,160.5703 Q974.4375,161.3438 975.0703,161.8594 Q975.7031,162.375 976.8281,162.375 Q977.4961,162.375 977.9648,162.2227 Q978.2344,162.1406 978.5391,161.8711 Q978.7383,161.7188 978.8438,161.6719 Q978.9492,161.625 979.0781,161.625 Q979.3242,161.625 979.5,161.8242 Q979.6875,162.0117 979.6875,162.2813 Q979.6875,162.5391 979.4297,162.8438 Q979.0547,163.2891 978.457,163.5352 Q977.6719,163.875 976.7109,163.875 Q975.5859,163.875 974.6836,163.4297 Q973.957,163.0781 973.4414,162.3164 Q972.9375,161.5547 972.9375,160.6523 L972.9375,159.832 Q972.9375,158.8945 973.3828,158.0742 Q973.8398,157.2539 974.625,156.8203 Q975.4219,156.375 976.3125,156.375 Q976.8516,156.375 977.3203,156.5625 Q977.7891,156.75 978.1875,157.125 Z " fill="#000000"/><text fill="#000000" font-family="sans-serif" font-size="9" lengthAdjust="spacing" textLength="59.25" x="992.0625" y="163.4326">TestTypeStore</text><line style="stroke:#A80036;stroke-width:1.125;" x1="891" x2="1128" y1="171.75" y2="171.75"/><line style="stroke:#A80036;stroke-width:1.125;" x1="891" x2="1128" y1="177.75" y2="177.75"/><text fill="#000000" font-family="sans-serif" font-size="8.25" lengthAdjust="spacing" textLength="60" x="894.75" y="189.3142">+getTestTypes()</text><text fill="#000000" font-family="sans-serif" font-size="8.25" lengthAdjust="spacing" textLength="125.25" x="894.75" y="199.6912">+getTestTypeByCode(String code)</text><text fill="#000000" font-family="sans-serif" font-size="8.25" lengthAdjust="spacing" textLength="229.5" x="894.75" y="210.0681">+getCategoriesByTestTypeCode(String selectedTestTypeCode)</text><!--MD5=[0f6f7964b844a64b0496af0dda7914bd]
class TestStore--><rect codeLine="70" fill="#FEFECE" filter="url(#ftukj0i2e63t9)" height="77.5078" id="TestStore" style="stroke:#A80036;stroke-width:1.125;" width="248.25" x="885.375" y="241.875"/><ellipse cx="986.4375" cy="253.875" fill="#ADD1B2" rx="8.25" ry="8.25" style="stroke:#A80036;stroke-width:0.75;"/><path d="M987.9375,251.25 Q988.0898,250.875 988.2656,250.6875 Q988.4414,250.5 988.6406,250.5 Q988.9922,250.5 989.2148,250.7109 Q989.4375,250.9219 989.4375,251.4141 L989.4375,252.5859 Q989.4375,253.0781 989.2266,253.2891 Q989.0156,253.5 988.6875,253.5 Q988.3945,253.5 988.207,253.3711 Q988.0195,253.2422 987.9375,252.9023 Q987.9023,252.668 987.7734,252.5391 Q987.5391,252.293 987.1172,252.1523 Q986.6953,252 986.2734,252 Q985.7461,252 985.3008,252.2109 Q984.8672,252.4219 984.5273,252.8906 Q984.1875,253.3594 984.1875,254.0039 L984.1875,254.6953 Q984.1875,255.4688 984.8203,255.9844 Q985.4531,256.5 986.5781,256.5 Q987.2461,256.5 987.7148,256.3477 Q987.9844,256.2656 988.2891,255.9961 Q988.4883,255.8438 988.5938,255.7969 Q988.6992,255.75 988.8281,255.75 Q989.0742,255.75 989.25,255.9492 Q989.4375,256.1367 989.4375,256.4063 Q989.4375,256.6641 989.1797,256.9688 Q988.8047,257.4141 988.207,257.6602 Q987.4219,258 986.4609,258 Q985.3359,258 984.4336,257.5547 Q983.707,257.2031 983.1914,256.4414 Q982.6875,255.6797 982.6875,254.7773 L982.6875,253.957 Q982.6875,253.0195 983.1328,252.1992 Q983.5898,251.3789 984.375,250.9453 Q985.1719,250.5 986.0625,250.5 Q986.6016,250.5 987.0703,250.6875 Q987.5391,250.875 987.9375,251.25 Z " fill="#000000"/><text fill="#000000" font-family="sans-serif" font-size="9" lengthAdjust="spacing" textLength="39.75" x="1001.8125" y="257.5576">TestStore</text><line style="stroke:#A80036;stroke-width:1.125;" x1="886.125" x2="1132.875" y1="265.875" y2="265.875"/><line style="stroke:#A80036;stroke-width:1.125;" x1="886.125" x2="1132.875" y1="271.875" y2="271.875"/><text fill="#000000" font-family="sans-serif" font-size="8.25" lengthAdjust="spacing" textLength="191.25" x="889.875" y="283.4392">+createTest(String NHScode, Client associatedClient,</text><text fill="#000000" font-family="sans-serif" font-size="8.25" lengthAdjust="spacing" textLength="237" x="892.125" y="293.8162">TestType selectedTestType, List&lt;Parameter&gt;selectedParamsList)</text><text fill="#000000" font-family="sans-serif" font-size="8.25" lengthAdjust="spacing" textLength="67.5" x="889.875" y="304.1931">+validateTest(test)</text><text fill="#000000" font-family="sans-serif" font-size="8.25" lengthAdjust="spacing" textLength="57.75" x="889.875" y="314.5701">+saveTest(test)</text><!--MD5=[9d781343e96e75b44552b4e167cedac1]
class CreateTestControler--><rect codeLine="80" fill="#FEFECE" filter="url(#ftukj0i2e63t9)" height="87.8848" id="CreateTestControler" style="stroke:#A80036;stroke-width:1.125;" width="331.5" x="151.5" y="874.875"/><ellipse cx="272.0625" cy="886.875" fill="#ADD1B2" rx="8.25" ry="8.25" style="stroke:#A80036;stroke-width:0.75;"/><path d="M273.5625,884.25 Q273.7148,883.875 273.8906,883.6875 Q274.0664,883.5 274.2656,883.5 Q274.6172,883.5 274.8398,883.7109 Q275.0625,883.9219 275.0625,884.4141 L275.0625,885.5859 Q275.0625,886.0781 274.8516,886.2891 Q274.6406,886.5 274.3125,886.5 Q274.0195,886.5 273.832,886.3711 Q273.6445,886.2422 273.5625,885.9023 Q273.5273,885.668 273.3984,885.5391 Q273.1641,885.293 272.7422,885.1523 Q272.3203,885 271.8984,885 Q271.3711,885 270.9258,885.2109 Q270.4922,885.4219 270.1523,885.8906 Q269.8125,886.3594 269.8125,887.0039 L269.8125,887.6953 Q269.8125,888.4688 270.4453,888.9844 Q271.0781,889.5 272.2031,889.5 Q272.8711,889.5 273.3398,889.3477 Q273.6094,889.2656 273.9141,888.9961 Q274.1133,888.8438 274.2188,888.7969 Q274.3242,888.75 274.4531,888.75 Q274.6992,888.75 274.875,888.9492 Q275.0625,889.1367 275.0625,889.4063 Q275.0625,889.6641 274.8047,889.9688 Q274.4297,890.4141 273.832,890.6602 Q273.0469,891 272.0859,891 Q270.9609,891 270.0586,890.5547 Q269.332,890.2031 268.8164,889.4414 Q268.3125,888.6797 268.3125,887.7773 L268.3125,886.957 Q268.3125,886.0195 268.7578,885.1992 Q269.2148,884.3789 270,883.9453 Q270.7969,883.5 271.6875,883.5 Q272.2266,883.5 272.6953,883.6875 Q273.1641,883.875 273.5625,884.25 Z " fill="#000000"/><text fill="#000000" font-family="sans-serif" font-size="9" lengthAdjust="spacing" textLength="84" x="287.4375" y="890.5576">CreateTestControler</text><line style="stroke:#A80036;stroke-width:1.125;" x1="152.25" x2="482.25" y1="898.875" y2="898.875"/><line style="stroke:#A80036;stroke-width:1.125;" x1="152.25" x2="482.25" y1="904.875" y2="904.875"/><text fill="#000000" font-family="sans-serif" font-size="8.25" lengthAdjust="spacing" textLength="322.5" x="156" y="916.4392">+createTest(NHScode, citizenCardNumber,selectedTestTypeCode, selectedParamCodes)</text><text fill="#000000" font-family="sans-serif" font-size="8.25" lengthAdjust="spacing" textLength="57.75" x="156" y="926.8162">+saveTest(test)</text><text fill="#000000" font-family="sans-serif" font-size="8.25" lengthAdjust="spacing" textLength="116.25" x="156" y="937.1931">+getTestTypes() : TestTypeDTO</text><text fill="#000000" font-family="sans-serif" font-size="8.25" lengthAdjust="spacing" textLength="258.75" x="156" y="947.5701">+getCategoriesListOfTestType(selectedTestTypeCode): CategoriesDTO</text><text fill="#000000" font-family="sans-serif" font-size="8.25" lengthAdjust="spacing" textLength="265.5" x="156" y="957.947">+getParametersOfCategories(selectedCategoriesCodes): ParametersDTO</text><!--MD5=[d0024740988d3925690046e9afae9c9c]
class TestTypeDTO--><rect codeLine="90" fill="#FEFECE" filter="url(#ftukj0i2e63t9)" height="87.8848" id="TestTypeDTO" style="stroke:#A80036;stroke-width:1.125;" width="270" x="874.5" y="1014.375"/><ellipse cx="978.1875" cy="1026.375" fill="#ADD1B2" rx="8.25" ry="8.25" style="stroke:#A80036;stroke-width:0.75;"/><path d="M979.6875,1023.75 Q979.8398,1023.375 980.0156,1023.1875 Q980.1914,1023 980.3906,1023 Q980.7422,1023 980.9648,1023.2109 Q981.1875,1023.4219 981.1875,1023.9141 L981.1875,1025.0859 Q981.1875,1025.5781 980.9766,1025.7891 Q980.7656,1026 980.4375,1026 Q980.1445,1026 979.957,1025.8711 Q979.7695,1025.7422 979.6875,1025.4023 Q979.6523,1025.168 979.5234,1025.0391 Q979.2891,1024.793 978.8672,1024.6523 Q978.4453,1024.5 978.0234,1024.5 Q977.4961,1024.5 977.0508,1024.7109 Q976.6172,1024.9219 976.2773,1025.3906 Q975.9375,1025.8594 975.9375,1026.5039 L975.9375,1027.1953 Q975.9375,1027.9688 976.5703,1028.4844 Q977.2031,1029 978.3281,1029 Q978.9961,1029 979.4648,1028.8477 Q979.7344,1028.7656 980.0391,1028.4961 Q980.2383,1028.3438 980.3438,1028.2969 Q980.4492,1028.25 980.5781,1028.25 Q980.8242,1028.25 981,1028.4492 Q981.1875,1028.6367 981.1875,1028.9063 Q981.1875,1029.1641 980.9297,1029.4688 Q980.5547,1029.9141 979.957,1030.1602 Q979.1719,1030.5 978.2109,1030.5 Q977.0859,1030.5 976.1836,1030.0547 Q975.457,1029.7031 974.9414,1028.9414 Q974.4375,1028.1797 974.4375,1027.2773 L974.4375,1026.457 Q974.4375,1025.5195 974.8828,1024.6992 Q975.3398,1023.8789 976.125,1023.4453 Q976.9219,1023 977.8125,1023 Q978.3516,1023 978.8203,1023.1875 Q979.2891,1023.375 979.6875,1023.75 Z " fill="#000000"/><text fill="#000000" font-family="sans-serif" font-size="9" lengthAdjust="spacing" textLength="56.25" x="993.5625" y="1030.0576">TestTypeDTO</text><line style="stroke:#A80036;stroke-width:1.125;" x1="875.25" x2="1143.75" y1="1038.375" y2="1038.375"/><text fill="#000000" font-family="sans-serif" font-size="8.25" lengthAdjust="spacing" textLength="21" x="879" y="1049.9392">-code</text><text fill="#000000" font-family="sans-serif" font-size="8.25" lengthAdjust="spacing" textLength="42.75" x="879" y="1060.3162">-description</text><text fill="#000000" font-family="sans-serif" font-size="8.25" lengthAdjust="spacing" textLength="63" x="879" y="1070.6931">-collectingMethod</text><text fill="#000000" font-family="sans-serif" font-size="8.25" lengthAdjust="spacing" textLength="129.75" x="879" y="1081.0701">-List&lt;Category&gt; selectedCategories</text><line style="stroke:#A80036;stroke-width:1.125;" x1="875.25" x2="1143.75" y1="1085.8828" y2="1085.8828"/><text fill="#000000" font-family="sans-serif" font-size="8.25" lengthAdjust="spacing" textLength="261" x="879" y="1097.447">+TestTypeDTO(code, description, collectingMethod, selectedCategories)</text><!--MD5=[6ca282d596ffdf8981b3c7f53e037f13]
class CategoryDto--><rect codeLine="98" fill="#FEFECE" filter="url(#ftukj0i2e63t9)" height="67.1309" id="CategoryDto" style="stroke:#A80036;stroke-width:1.125;" width="106.5" x="956.25" y="1128.75"/><ellipse cx="981.675" cy="1140.75" fill="#ADD1B2" rx="8.25" ry="8.25" style="stroke:#A80036;stroke-width:0.75;"/><path d="M983.175,1138.125 Q983.3273,1137.75 983.5031,1137.5625 Q983.6789,1137.375 983.8781,1137.375 Q984.2297,1137.375 984.4523,1137.5859 Q984.675,1137.7969 984.675,1138.2891 L984.675,1139.4609 Q984.675,1139.9531 984.4641,1140.1641 Q984.2531,1140.375 983.925,1140.375 Q983.632,1140.375 983.4445,1140.2461 Q983.257,1140.1172 983.175,1139.7773 Q983.1398,1139.543 983.0109,1139.4141 Q982.7766,1139.168 982.3547,1139.0273 Q981.9328,1138.875 981.5109,1138.875 Q980.9836,1138.875 980.5383,1139.0859 Q980.1047,1139.2969 979.7648,1139.7656 Q979.425,1140.2344 979.425,1140.8789 L979.425,1141.5703 Q979.425,1142.3438 980.0578,1142.8594 Q980.6906,1143.375 981.8156,1143.375 Q982.4836,1143.375 982.9523,1143.2227 Q983.2219,1143.1406 983.5266,1142.8711 Q983.7258,1142.7188 983.8313,1142.6719 Q983.9367,1142.625 984.0656,1142.625 Q984.3117,1142.625 984.4875,1142.8242 Q984.675,1143.0117 984.675,1143.2813 Q984.675,1143.5391 984.4172,1143.8438 Q984.0422,1144.2891 983.4445,1144.5352 Q982.6594,1144.875 981.6984,1144.875 Q980.5734,1144.875 979.6711,1144.4297 Q978.9445,1144.0781 978.4289,1143.3164 Q977.925,1142.5547 977.925,1141.6523 L977.925,1140.832 Q977.925,1139.8945 978.3703,1139.0742 Q978.8273,1138.2539 979.6125,1137.8203 Q980.4094,1137.375 981.3,1137.375 Q981.8391,1137.375 982.3078,1137.5625 Q982.7766,1137.75 983.175,1138.125 Z " fill="#000000"/><text fill="#000000" font-family="sans-serif" font-size="9" lengthAdjust="spacing" textLength="51" x="995.325" y="1144.4326">CategoryDto</text><line style="stroke:#A80036;stroke-width:1.125;" x1="957" x2="1062" y1="1152.75" y2="1152.75"/><text fill="#000000" font-family="sans-serif" font-size="8.25" lengthAdjust="spacing" textLength="21" x="960.75" y="1164.3142">-code</text><text fill="#000000" font-family="sans-serif" font-size="8.25" lengthAdjust="spacing" textLength="22.5" x="960.75" y="1174.6912">-name</text><line style="stroke:#A80036;stroke-width:1.125;" x1="957" x2="1062" y1="1179.5039" y2="1179.5039"/><text fill="#000000" font-family="sans-serif" font-size="8.25" lengthAdjust="spacing" textLength="97.5" x="960.75" y="1191.0681">+CategoryDto(code, name)</text><!--MD5=[e82331375a7233007428e4f15d504621]
class ParameterDTO--><rect codeLine="104" fill="#FEFECE" filter="url(#ftukj0i2e63t9)" height="87.8848" id="ParameterDTO" style="stroke:#A80036;stroke-width:1.125;" width="253.5" x="882.75" y="1222.875"/><ellipse cx="975.1875" cy="1234.875" fill="#ADD1B2" rx="8.25" ry="8.25" style="stroke:#A80036;stroke-width:0.75;"/><path d="M976.6875,1232.25 Q976.8398,1231.875 977.0156,1231.6875 Q977.1914,1231.5 977.3906,1231.5 Q977.7422,1231.5 977.9648,1231.7109 Q978.1875,1231.9219 978.1875,1232.4141 L978.1875,1233.5859 Q978.1875,1234.0781 977.9766,1234.2891 Q977.7656,1234.5 977.4375,1234.5 Q977.1445,1234.5 976.957,1234.3711 Q976.7695,1234.2422 976.6875,1233.9023 Q976.6523,1233.668 976.5234,1233.5391 Q976.2891,1233.293 975.8672,1233.1523 Q975.4453,1233 975.0234,1233 Q974.4961,1233 974.0508,1233.2109 Q973.6172,1233.4219 973.2773,1233.8906 Q972.9375,1234.3594 972.9375,1235.0039 L972.9375,1235.6953 Q972.9375,1236.4688 973.5703,1236.9844 Q974.2031,1237.5 975.3281,1237.5 Q975.9961,1237.5 976.4648,1237.3477 Q976.7344,1237.2656 977.0391,1236.9961 Q977.2383,1236.8438 977.3438,1236.7969 Q977.4492,1236.75 977.5781,1236.75 Q977.8242,1236.75 978,1236.9492 Q978.1875,1237.1367 978.1875,1237.4063 Q978.1875,1237.6641 977.9297,1237.9688 Q977.5547,1238.4141 976.957,1238.6602 Q976.1719,1239 975.2109,1239 Q974.0859,1239 973.1836,1238.5547 Q972.457,1238.2031 971.9414,1237.4414 Q971.4375,1236.6797 971.4375,1235.7773 L971.4375,1234.957 Q971.4375,1234.0195 971.8828,1233.1992 Q972.3398,1232.3789 973.125,1231.9453 Q973.9219,1231.5 974.8125,1231.5 Q975.3516,1231.5 975.8203,1231.6875 Q976.2891,1231.875 976.6875,1232.25 Z " fill="#000000"/><text fill="#000000" font-family="sans-serif" font-size="9" lengthAdjust="spacing" textLength="62.25" x="990.5625" y="1238.5576">ParameterDTO</text><line style="stroke:#A80036;stroke-width:1.125;" x1="883.5" x2="1135.5" y1="1246.875" y2="1246.875"/><text fill="#000000" font-family="sans-serif" font-size="8.25" lengthAdjust="spacing" textLength="21" x="887.25" y="1258.4392">-code</text><text fill="#000000" font-family="sans-serif" font-size="8.25" lengthAdjust="spacing" textLength="42" x="887.25" y="1268.8162">-shortName</text><text fill="#000000" font-family="sans-serif" font-size="8.25" lengthAdjust="spacing" textLength="42.75" x="887.25" y="1279.1931">-description</text><text fill="#000000" font-family="sans-serif" font-size="8.25" lengthAdjust="spacing" textLength="72.75" x="887.25" y="1289.5701">-ParameterCategory</text><line style="stroke:#A80036;stroke-width:1.125;" x1="883.5" x2="1135.5" y1="1294.3828" y2="1294.3828"/><text fill="#000000" font-family="sans-serif" font-size="8.25" lengthAdjust="spacing" textLength="244.5" x="887.25" y="1305.947">+ParameterDTO(code, shortName, description, ParameterCategory)'</text><!--MD5=[724ead17d3ca940995455a91cefd1e12]
class TestTypeMapper--><rect codeLine="115" fill="#FEFECE" filter="url(#ftukj0i2e63t9)" height="56.7539" id="TestTypeMapper" style="stroke:#A80036;stroke-width:1.125;" width="209.25" x="549" y="807"/><ellipse cx="616.3125" cy="819" fill="#ADD1B2" rx="8.25" ry="8.25" style="stroke:#A80036;stroke-width:0.75;"/><path d="M617.8125,816.375 Q617.9648,816 618.1406,815.8125 Q618.3164,815.625 618.5156,815.625 Q618.8672,815.625 619.0898,815.8359 Q619.3125,816.0469 619.3125,816.5391 L619.3125,817.7109 Q619.3125,818.2031 619.1016,818.4141 Q618.8906,818.625 618.5625,818.625 Q618.2695,818.625 618.082,818.4961 Q617.8945,818.3672 617.8125,818.0273 Q617.7773,817.793 617.6484,817.6641 Q617.4141,817.418 616.9922,817.2773 Q616.5703,817.125 616.1484,817.125 Q615.6211,817.125 615.1758,817.3359 Q614.7422,817.5469 614.4023,818.0156 Q614.0625,818.4844 614.0625,819.1289 L614.0625,819.8203 Q614.0625,820.5938 614.6953,821.1094 Q615.3281,821.625 616.4531,821.625 Q617.1211,821.625 617.5898,821.4727 Q617.8594,821.3906 618.1641,821.1211 Q618.3633,820.9688 618.4688,820.9219 Q618.5742,820.875 618.7031,820.875 Q618.9492,820.875 619.125,821.0742 Q619.3125,821.2617 619.3125,821.5313 Q619.3125,821.7891 619.0547,822.0938 Q618.6797,822.5391 618.082,822.7852 Q617.2969,823.125 616.3359,823.125 Q615.2109,823.125 614.3086,822.6797 Q613.582,822.3281 613.0664,821.5664 Q612.5625,820.8047 612.5625,819.9023 L612.5625,819.082 Q612.5625,818.1445 613.0078,817.3242 Q613.4648,816.5039 614.25,816.0703 Q615.0469,815.625 615.9375,815.625 Q616.4766,815.625 616.9453,815.8125 Q617.4141,816 617.8125,816.375 Z " fill="#000000"/><text fill="#000000" font-family="sans-serif" font-size="9" lengthAdjust="spacing" textLength="68.25" x="631.6875" y="822.6826">TestTypeMapper</text><line style="stroke:#A80036;stroke-width:1.125;" x1="549.75" x2="757.5" y1="831" y2="831"/><line style="stroke:#A80036;stroke-width:1.125;" x1="549.75" x2="757.5" y1="837" y2="837"/><text fill="#000000" font-family="sans-serif" font-size="8.25" lengthAdjust="spacing" textLength="200.25" x="553.5" y="848.5642">+List&lt;TestTypeDTO&gt; toDTO(List&lt;TestType&gt; testTypes)</text><text fill="#000000" font-family="sans-serif" font-size="8.25" lengthAdjust="spacing" textLength="125.25" x="553.5" y="858.9412">+TestTypeDTO toDTO(TestType tt)</text><!--MD5=[867476cd2a5db62f3ac412e45787ce2b]
class CategoryMapper--><rect codeLine="119" fill="#FEFECE" filter="url(#ftukj0i2e63t9)" height="56.7539" id="CategoryMapper" style="stroke:#A80036;stroke-width:1.125;" width="243.75" x="531.75" y="890.25"/><ellipse cx="616.6875" cy="902.25" fill="#ADD1B2" rx="8.25" ry="8.25" style="stroke:#A80036;stroke-width:0.75;"/><path d="M618.1875,899.625 Q618.3398,899.25 618.5156,899.0625 Q618.6914,898.875 618.8906,898.875 Q619.2422,898.875 619.4648,899.0859 Q619.6875,899.2969 619.6875,899.7891 L619.6875,900.9609 Q619.6875,901.4531 619.4766,901.6641 Q619.2656,901.875 618.9375,901.875 Q618.6445,901.875 618.457,901.7461 Q618.2695,901.6172 618.1875,901.2773 Q618.1523,901.043 618.0234,900.9141 Q617.7891,900.668 617.3672,900.5273 Q616.9453,900.375 616.5234,900.375 Q615.9961,900.375 615.5508,900.5859 Q615.1172,900.7969 614.7773,901.2656 Q614.4375,901.7344 614.4375,902.3789 L614.4375,903.0703 Q614.4375,903.8438 615.0703,904.3594 Q615.7031,904.875 616.8281,904.875 Q617.4961,904.875 617.9648,904.7227 Q618.2344,904.6406 618.5391,904.3711 Q618.7383,904.2188 618.8438,904.1719 Q618.9492,904.125 619.0781,904.125 Q619.3242,904.125 619.5,904.3242 Q619.6875,904.5117 619.6875,904.7813 Q619.6875,905.0391 619.4297,905.3438 Q619.0547,905.7891 618.457,906.0352 Q617.6719,906.375 616.7109,906.375 Q615.5859,906.375 614.6836,905.9297 Q613.957,905.5781 613.4414,904.8164 Q612.9375,904.0547 612.9375,903.1523 L612.9375,902.332 Q612.9375,901.3945 613.3828,900.5742 Q613.8398,899.7539 614.625,899.3203 Q615.4219,898.875 616.3125,898.875 Q616.8516,898.875 617.3203,899.0625 Q617.7891,899.25 618.1875,899.625 Z " fill="#000000"/><text fill="#000000" font-family="sans-serif" font-size="9" lengthAdjust="spacing" textLength="67.5" x="632.0625" y="905.9326">CategoryMapper</text><line style="stroke:#A80036;stroke-width:1.125;" x1="532.5" x2="774.75" y1="914.25" y2="914.25"/><line style="stroke:#A80036;stroke-width:1.125;" x1="532.5" x2="774.75" y1="920.25" y2="920.25"/><text fill="#000000" font-family="sans-serif" font-size="8.25" lengthAdjust="spacing" textLength="234.75" x="536.25" y="931.8142">+List&lt;CategoryDto&gt; toDTO(List&lt;Category&gt; parameterCategories)</text><text fill="#000000" font-family="sans-serif" font-size="8.25" lengthAdjust="spacing" textLength="147.75" x="536.25" y="942.1912">+CategoryDto toDTO(Category category)</text><!--MD5=[e0569d1bc34b9d21face98cd33d75fba]
class ParameterMapper--><rect codeLine="123" fill="#FEFECE" filter="url(#ftukj0i2e63t9)" height="56.7539" id="ParameterMapper" style="stroke:#A80036;stroke-width:1.125;" width="220.5" x="543.375" y="973.5"/><ellipse cx="613.3125" cy="985.5" fill="#ADD1B2" rx="8.25" ry="8.25" style="stroke:#A80036;stroke-width:0.75;"/><path d="M614.8125,982.875 Q614.9648,982.5 615.1406,982.3125 Q615.3164,982.125 615.5156,982.125 Q615.8672,982.125 616.0898,982.3359 Q616.3125,982.5469 616.3125,983.0391 L616.3125,984.2109 Q616.3125,984.7031 616.1016,984.9141 Q615.8906,985.125 615.5625,985.125 Q615.2695,985.125 615.082,984.9961 Q614.8945,984.8672 614.8125,984.5273 Q614.7773,984.293 614.6484,984.1641 Q614.4141,983.918 613.9922,983.7773 Q613.5703,983.625 613.1484,983.625 Q612.6211,983.625 612.1758,983.8359 Q611.7422,984.0469 611.4023,984.5156 Q611.0625,984.9844 611.0625,985.6289 L611.0625,986.3203 Q611.0625,987.0938 611.6953,987.6094 Q612.3281,988.125 613.4531,988.125 Q614.1211,988.125 614.5898,987.9727 Q614.8594,987.8906 615.1641,987.6211 Q615.3633,987.4688 615.4688,987.4219 Q615.5742,987.375 615.7031,987.375 Q615.9492,987.375 616.125,987.5742 Q616.3125,987.7617 616.3125,988.0313 Q616.3125,988.2891 616.0547,988.5938 Q615.6797,989.0391 615.082,989.2852 Q614.2969,989.625 613.3359,989.625 Q612.2109,989.625 611.3086,989.1797 Q610.582,988.8281 610.0664,988.0664 Q609.5625,987.3047 609.5625,986.4023 L609.5625,985.582 Q609.5625,984.6445 610.0078,983.8242 Q610.4648,983.0039 611.25,982.5703 Q612.0469,982.125 612.9375,982.125 Q613.4766,982.125 613.9453,982.3125 Q614.4141,982.5 614.8125,982.875 Z " fill="#000000"/><text fill="#000000" font-family="sans-serif" font-size="9" lengthAdjust="spacing" textLength="74.25" x="628.6875" y="989.1826">ParameterMapper</text><line style="stroke:#A80036;stroke-width:1.125;" x1="544.125" x2="763.125" y1="997.5" y2="997.5"/><line style="stroke:#A80036;stroke-width:1.125;" x1="544.125" x2="763.125" y1="1003.5" y2="1003.5"/><text fill="#000000" font-family="sans-serif" font-size="8.25" lengthAdjust="spacing" textLength="211.5" x="547.875" y="1015.0642">+List&lt;ParameterDTO&gt; toDTO(List&lt;Parameter&gt; parameters)</text><text fill="#000000" font-family="sans-serif" font-size="8.25" lengthAdjust="spacing" textLength="163.5" x="547.875" y="1025.4412">+ParameterDTO toDTO(Parameter parameter)</text><!--MD5=[502b51bc079239060389dab43b7d3470]
link Client to Test--><!--MD5=[502b51bc079239060389dab43b7d3470]
link Client to Test--><path codeLine="165" d="M688.035,536.58 C755.1525,529.7625 905.07,514.53 973.485,507.5775 " fill="none" id="Client-Test" style="stroke:#A80036;stroke-width:0.75;"/><text fill="#000000" font-family="sans-serif" font-size="9.75" lengthAdjust="spacing" textLength="37.5" x="806.25" y="517.8713">performs</text><text fill="#000000" font-family="sans-serif" font-size="9.75" lengthAdjust="spacing" textLength="5.25" x="693.706" y="547.1345">1</text><text fill="#000000" font-family="sans-serif" font-size="9.75" lengthAdjust="spacing" textLength="5.25" x="962.3183" y="519.2044">1</text><!--MD5=[a87ca41b19769012ec630dbc141b1436]
link CreateTestUI to CreateTestControler--><path codeLine="132" d="M78.7875,1211.9175 C117.1425,1164.615 221.4,1036.0275 278.265,965.9025 " fill="none" id="CreateTestUI-to-CreateTestControler" style="stroke:#A80036;stroke-width:0.75;stroke-dasharray:7.0,7.0;"/><polygon fill="#A80036" points="280.77,962.8125,274.1852,966.1595,278.4053,965.7229,278.8418,969.943,280.77,962.8125" style="stroke:#A80036;stroke-width:0.75;"/><!--MD5=[3d5f36034bd05a68f42d063684fd8cdc]
link CreateTestUI to CategoryDto--><path codeLine="133" d="M102.78,1229.6925 C211.7175,1228.5225 530.385,1222.8825 793.5,1196.25 C847.6575,1190.7675 908.9475,1180.785 952.2375,1173.09 " fill="none" id="CreateTestUI-to-CategoryDto" style="stroke:#A80036;stroke-width:0.75;stroke-dasharray:7.0,7.0;"/><polygon fill="#A80036" points="956.1,1172.4,948.9299,1170.6246,952.4076,1173.0548,949.9775,1176.5325,956.1,1172.4" style="stroke:#A80036;stroke-width:0.75;"/><!--MD5=[4623db2661f880c526208cfcca0131e5]
link CreateTestUI to ParameterDTO--><path codeLine="134" d="M73.7175,1248.33 C84.1125,1265.9925 102.51,1291.635 126.75,1302.75 C396.105,1426.29 498.18,1327.275 793.5,1302.75 C821.235,1300.4475 850.7775,1296.5025 878.7975,1292.0475 " fill="none" id="CreateTestUI-to-ParameterDTO" style="stroke:#A80036;stroke-width:0.75;stroke-dasharray:7.0,7.0;"/><polygon fill="#A80036" points="882.5625,1291.44,875.4252,1289.5369,878.859,1292.0287,876.3672,1295.4625,882.5625,1291.44" style="stroke:#A80036;stroke-width:0.75;"/><!--MD5=[b119393afdc8554af40a71e4d23c569f]
link CreateTestUI to TestTypeDTO--><path codeLine="135" d="M102.975,1214.2725 C112.815,1210.6875 123.45,1207.1625 133.5,1204.5 C203.4075,1185.9825 641.6325,1115.9475 870.2625,1079.9325 " fill="none" id="CreateTestUI-to-TestTypeDTO" style="stroke:#A80036;stroke-width:0.75;stroke-dasharray:7.0,7.0;"/><polygon fill="#A80036" points="874.2825,1079.3025,867.1452,1077.3994,870.579,1079.8912,868.0872,1083.325,874.2825,1079.3025" style="stroke:#A80036;stroke-width:0.75;"/><!--MD5=[3d90787a6c4fcaaaef3316a8b7a2a1cb]
link CategoryMapper to CategoryDto--><path codeLine="136" d="M775.785,946.95 C782.115,950.76 788.0925,955.0875 793.5,960 C848.655,1010.0325 801.6675,1064.865 856.5,1115.25 C882.645,1139.2725 920.82,1151.085 952.4025,1156.89 " fill="none" id="CategoryMapper-to-CategoryDto" style="stroke:#A80036;stroke-width:0.75;stroke-dasharray:7.0,7.0;"/><polygon fill="#A80036" points="956.22,1157.565,950.0954,1153.4356,952.5273,1156.9121,949.0508,1159.3439,956.22,1157.565" style="stroke:#A80036;stroke-width:0.75;"/><!--MD5=[5f4198d269e8e237122a004a01e5b057]
link CategoryMapper to ParameterCategory--><path codeLine="137" d="M775.5375,919.1325 C843.9975,919.3125 931.155,919.5 1008.75,919.5 C1008.75,919.5 1008.75,919.5 1564.875,919.5 C1740.315,919.5 1774.8675,628.5675 1781.5575,529.26 " fill="none" id="CategoryMapper-to-ParameterCategory" style="stroke:#A80036;stroke-width:0.75;stroke-dasharray:7.0,7.0;"/><polygon fill="#A80036" points="1781.82,525.24,1778.4025,531.7885,1781.5847,528.9826,1784.3906,532.1649,1781.82,525.24" style="stroke:#A80036;stroke-width:0.75;"/><!--MD5=[bcaa6a39389c8cb768501da2b7549a8d]
link ParameterMapper to ParameterDTO--><path codeLine="138" d="M675.555,1030.605 C709.365,1074.495 779.61,1158.63 856.5,1209 C863.6925,1213.71 871.32,1218.1125 879.1875,1222.2225 " fill="none" id="ParameterMapper-to-ParameterDTO" style="stroke:#A80036;stroke-width:0.75;stroke-dasharray:7.0,7.0;"/><polygon fill="#A80036" points="882.57,1223.9625,877.9402,1218.2069,879.2354,1222.247,875.1953,1223.5422,882.57,1223.9625" style="stroke:#A80036;stroke-width:0.75;"/><!--MD5=[6a9c25a7b7cd4f2505d061be4a34119e]
link ParameterMapper to Parameter--><path codeLine="139" d="M753.6,973.44 C767.0775,969.15 780.6825,964.6125 793.5,960 C960.9,899.7075 1008.705,894.2175 1162.5,804.75 C1307.565,720.36 1459.5075,590.1225 1527.165,529.5675 " fill="none" id="ParameterMapper-to-Parameter" style="stroke:#A80036;stroke-width:0.75;stroke-dasharray:7.0,7.0;"/><polygon fill="#A80036" points="1530.1275,526.9125,1523.099,529.1847,1527.3354,529.4158,1527.1043,533.6521,1530.1275,526.9125" style="stroke:#A80036;stroke-width:0.75;"/><!--MD5=[a866f4e758874d18eed8ecae1602bb43]
link TestTypeMapper to TestTypeDTO--><path codeLine="140" d="M758.4825,861.165 C770.5875,865.6575 782.52,870.8325 793.5,876.75 C859.71,912.435 924.09,970.7925 964.92,1011.675 " fill="none" id="TestTypeMapper-to-TestTypeDTO" style="stroke:#A80036;stroke-width:0.75;stroke-dasharray:7.0,7.0;"/><polygon fill="#A80036" points="967.575,1014.345,964.9373,1007.4454,964.9287,1011.688,960.6861,1011.6794,967.575,1014.345" style="stroke:#A80036;stroke-width:0.75;"/><!--MD5=[a3b705e4e3f391aa28b18ef9a5fd28a9]
link TestTypeMapper to TestType--><path codeLine="141" d="M758.4975,820.6725 C896.4825,795.345 1137.66,730.3575 1268.25,573.75 C1292.5875,544.56 1275.4575,526.0425 1290.75,491.25 C1297.3425,476.2425 1306.4325,460.7775 1315.11,447.4275 " fill="none" id="TestTypeMapper-to-TestType" style="stroke:#A80036;stroke-width:0.75;stroke-dasharray:7.0,7.0;"/><polygon fill="#A80036" points="1317.3,444.0825,1311.0848,448.0743,1315.2397,447.2158,1316.0982,451.3707,1317.3,444.0825" style="stroke:#A80036;stroke-width:0.75;"/><!--MD5=[8f55894bbc012aa6e8bd0f9e9c1fa823]
link CreateTestControler to Company--><path codeLine="142" d="M325.26,874.62 C342.18,785.4075 392.4,582.33 513.75,467.25 C538.98,443.3175 576.27,430.2375 605.895,423.2175 " fill="none" id="CreateTestControler-to-Company" style="stroke:#A80036;stroke-width:0.75;stroke-dasharray:7.0,7.0;"/><polygon fill="#A80036" points="609.8325,422.31,602.5835,420.8906,606.1769,423.1462,603.9214,426.7396,609.8325,422.31" style="stroke:#A80036;stroke-width:0.75;"/><!--MD5=[75f1b5762c49b994a7e3ff994124fe26]
link CreateTestControler to CategoryMapper--><path codeLine="143" d="M483.2325,918.75 C498.1575,918.75 513.105,918.75 527.6025,918.75 " fill="none" id="CreateTestControler-to-CategoryMapper" style="stroke:#A80036;stroke-width:0.75;stroke-dasharray:7.0,7.0;"/><polygon fill="#A80036" points="531.6825,918.75,524.9325,915.75,527.9325,918.75,524.9325,921.75,531.6825,918.75" style="stroke:#A80036;stroke-width:0.75;"/><!--MD5=[08b46ea753435d83600a12592d428521]
link CreateTestControler to CategoryDto--><path codeLine="144" d="M357.2775,962.8125 C393.8625,1000.86 451.92,1054.02 513.75,1082.25 C661.5825,1149.7425 857.0025,1161.4725 952.0125,1162.8825 " fill="none" id="CreateTestControler-to-CategoryDto" style="stroke:#A80036;stroke-width:0.75;stroke-dasharray:7.0,7.0;"/><polygon fill="#A80036" points="955.9125,1162.935,949.206,1159.8389,952.1629,1162.8814,949.1203,1165.8383,955.9125,1162.935" style="stroke:#A80036;stroke-width:0.75;"/><!--MD5=[4e2eaaaa924769a5915195a82e4b50b3]
link CreateTestControler to ParameterMapper--><path codeLine="145" d="M483.2325,959.8275 C502.245,964.5525 521.3025,969.2925 539.415,973.7925 " fill="none" id="CreateTestControler-to-ParameterMapper" style="stroke:#A80036;stroke-width:0.75;stroke-dasharray:7.0,7.0;"/><polygon fill="#A80036" points="543.2625,974.7525,537.4291,970.2211,539.622,973.8531,535.99,976.046,543.2625,974.7525" style="stroke:#A80036;stroke-width:0.75;"/><!--MD5=[5198f3041045b9988aed843607ceac3f]
link CreateTestControler to ParameterDTO--><path codeLine="146" d="M341.3925,962.7225 C372.9525,1017.585 434.4825,1110.075 513.75,1158.75 C624.8475,1226.97 773.235,1252.395 878.4825,1261.7175 " fill="none" id="CreateTestControler-to-ParameterDTO" style="stroke:#A80036;stroke-width:0.75;stroke-dasharray:7.0,7.0;"/><polygon fill="#A80036" points="882.525,1262.07,876.0669,1258.4845,878.7897,1261.7382,875.536,1264.461,882.525,1262.07" style="stroke:#A80036;stroke-width:0.75;"/><!--MD5=[d436aa16cf3879d6ad396285eddf41c1]
link CreateTestControler to TestTypeMapper--><path codeLine="147" d="M483.2325,877.6725 C504.27,872.445 525.3525,867.2025 545.16,862.275 " fill="none" id="CreateTestControler-to-TestTypeMapper" style="stroke:#A80036;stroke-width:0.75;stroke-dasharray:7.0,7.0;"/><polygon fill="#A80036" points="548.8425,861.36,541.5664,860.0867,545.2045,862.2695,543.0216,865.9075,548.8425,861.36" style="stroke:#A80036;stroke-width:0.75;"/><!--MD5=[a728a1c0b6f50bd0e8c130b0563a2e8d]
link CreateTestControler to TestTypeDTO--><path codeLine="148" d="M370.215,962.7 C407.5875,991.2825 460.515,1026.1575 513.75,1042.5 C630.2025,1078.2375 769.3725,1079.2425 870.4425,1073.01 " fill="none" id="CreateTestControler-to-TestTypeDTO" style="stroke:#A80036;stroke-width:0.75;stroke-dasharray:7.0,7.0;"/><polygon fill="#A80036" points="874.32,1072.77,867.3946,1070.2006,870.5774,1073.0059,867.7721,1076.1887,874.32,1072.77" style="stroke:#A80036;stroke-width:0.75;"/><!--MD5=[b89d522ccf9caf95dbbde9769ba39561]
link CreateTestControler to ParameterStore--><path codeLine="149" d="M350.64,874.68 C386.0625,829.875 446.6175,761.52 513.75,721.5 C647.745,641.6175 756.27,746.82 850.5,622.5 C866.8875,600.8775 839.8875,155.6925 856.5,134.25 C863.8875,124.7175 873.2325,117.2475 883.65,111.405 " fill="none" id="CreateTestControler-to-ParameterStore" style="stroke:#A80036;stroke-width:0.75;stroke-dasharray:7.0,7.0;"/><polygon fill="#A80036" points="887.22,109.485,879.8533,110.0281,883.9145,111.2558,882.6867,115.3169,887.22,109.485" style="stroke:#A80036;stroke-width:0.75;"/><!--MD5=[3bbb6c5b03dfc4e682128937e80c1ca1]
link CreateTestControler to TestTypeStore--><path codeLine="150" d="M362.385,874.74 C399.855,839.8275 456.435,792.1725 513.75,762.75 C652.125,691.7175 755.8275,790.905 850.5,667.5 C865.335,648.1575 841.905,248.2725 856.5,228.75 C864.525,218.01 874.965,209.64 886.62,203.13 " fill="none" id="CreateTestControler-to-TestTypeStore" style="stroke:#A80036;stroke-width:0.75;stroke-dasharray:7.0,7.0;"/><polygon fill="#A80036" points="889.9425,201.345,882.5772,201.9066,886.6414,203.1242,885.4239,207.1883,889.9425,201.345" style="stroke:#A80036;stroke-width:0.75;"/><!--MD5=[0a261a9b138dfe2e0bcc9eaa6466be5e]
link CreateTestControler to TestStore--><path codeLine="151" d="M375.6825,874.74 C413.205,848.0775 464.205,815.385 513.75,795 C655.4775,736.6725 753.5025,839.4075 850.5,720.75 C863.025,705.42 846.2925,381.4575 856.5,364.5 C867.1275,346.845 882.9075,332.6325 900.3375,321.285 " fill="none" id="CreateTestControler-to-TestStore" style="stroke:#A80036;stroke-width:0.75;stroke-dasharray:7.0,7.0;"/><polygon fill="#A80036" points="903.615,319.2,896.3104,320.2977,900.4526,321.2154,899.535,325.3576,903.615,319.2" style="stroke:#A80036;stroke-width:0.75;"/><!--MD5=[3eebf0e5f359806b77b30e9524c37676]
link TestTypeStore to TestType--><path codeLine="152" d="M1129.02,203.85 C1141.59,210.21 1153.1625,218.3475 1162.5,228.75 C1171.8,239.115 1161.54,247.44 1168.5,259.5 C1198.41,311.2875 1252.7475,354.1425 1292.625,380.7525 " fill="none" id="TestTypeStore-TestType" style="stroke:#A80036;stroke-width:0.75;"/><polygon fill="#000000" points="1205.5462,255.6349,1202.5583,249.1579,1199.3219,252.1511,1205.5462,255.6349" style="stroke:#000000;stroke-width:0.75;"/><text fill="#000000" font-family="sans-serif" font-size="9.75" lengthAdjust="spacing" textLength="27" x="1209.75" y="256.8713">stores</text><text fill="#000000" font-family="sans-serif" font-size="9.75" lengthAdjust="spacing" textLength="5.25" x="1134.9364" y="215.3599">1</text><text fill="#000000" font-family="sans-serif" font-size="9.75" lengthAdjust="spacing" textLength="3.75" x="1282.8914" y="388.1935">*</text><!--MD5=[b0f4f6db8206580012ef9cd998ed01c5]
link TestStore to Test--><path codeLine="153" d="M905.5725,319.26 C854.5425,344.625 809.31,380.955 836.625,423.75 C866.625,470.745 932.025,490.6425 973.23,498.75 " fill="none" id="TestStore-Test" style="stroke:#A80036;stroke-width:0.75;"/><polygon fill="#000000" points="810.9477,420.6408,810.6175,413.5155,806.4924,415.0705,810.9477,420.6408" style="stroke:#000000;stroke-width:0.75;"/><text fill="#000000" font-family="sans-serif" font-size="9.75" lengthAdjust="spacing" textLength="27" x="816.375" y="421.1213">stores</text><text fill="#000000" font-family="sans-serif" font-size="9.75" lengthAdjust="spacing" textLength="5.25" x="886.0045" y="335.3964">1</text><text fill="#000000" font-family="sans-serif" font-size="9.75" lengthAdjust="spacing" textLength="3.75" x="963.639" y="495.1877">*</text><!--MD5=[a0992dda039fed1bb57aff5aacace800]
link ParameterStore to Parameter--><path codeLine="154" d="M1131.945,120.8325 C1142.505,124.7775 1152.84,129.2325 1162.5,134.25 C1335.5925,224.145 1364.7075,274.2525 1500,414.75 C1511.3775,426.5625 1512.465,431.025 1522.5,444 C1527.165,450.03 1532.145,456.435 1536.96,462.63 " fill="none" id="ParameterStore-Parameter" style="stroke:#A80036;stroke-width:0.75;"/><polygon fill="#000000" points="1329.9909,209.5504,1326.2281,203.4907,1323.3849,206.8597,1329.9909,209.5504" style="stroke:#000000;stroke-width:0.75;"/><text fill="#000000" font-family="sans-serif" font-size="9.75" lengthAdjust="spacing" textLength="27" x="1333.875" y="211.1213">stores</text><text fill="#000000" font-family="sans-serif" font-size="9.75" lengthAdjust="spacing" textLength="5.25" x="1137.7409" y="134.0963">1</text><text fill="#000000" font-family="sans-serif" font-size="9.75" lengthAdjust="spacing" textLength="3.75" x="1528.7633" y="454.6947">*</text><!--MD5=[daf3d7412afa2c7651483be0b6e971d1]
link Company to ParameterStore--><path codeLine="155" d="M671.505,376.6875 C700.5225,315.5475 765.2175,197.295 856.5,134.25 C865.905,127.7475 876.2925,122.2725 887.0925,117.66 " fill="none" id="Company-ParameterStore" style="stroke:#A80036;stroke-width:0.75;"/><polygon fill="#000000" points="815.0239,130.7495,808.9901,134.5536,812.3784,137.3737,815.0239,130.7495" style="stroke:#000000;stroke-width:0.75;"/><text fill="#000000" font-family="sans-serif" font-size="9.75" lengthAdjust="spacing" textLength="21" x="819.375" y="137.6213">uses</text><text fill="#000000" font-family="sans-serif" font-size="9.75" lengthAdjust="spacing" textLength="5.25" x="668.3049" y="368.7876">1</text><text fill="#000000" font-family="sans-serif" font-size="9.75" lengthAdjust="spacing" textLength="5.25" x="876.177" y="129.1822">1</text><!--MD5=[141c3afa12b2b3c0a39ffce56dbd5f19]
link Company to TestTypeStore--><path codeLine="156" d="M686.6175,376.8 C723.6,334.74 788.0175,268.2675 856.5,228.75 C867.045,222.66 878.4675,217.275 890.145,212.52 " fill="none" id="Company-TestTypeStore" style="stroke:#A80036;stroke-width:0.75;"/><polygon fill="#000000" points="815.543,223.5265,808.8798,226.0722,811.6487,229.5025,815.543,223.5265" style="stroke:#000000;stroke-width:0.75;"/><text fill="#000000" font-family="sans-serif" font-size="9.75" lengthAdjust="spacing" textLength="21" x="819.375" y="229.8713">uses</text><text fill="#000000" font-family="sans-serif" font-size="9.75" lengthAdjust="spacing" textLength="5.25" x="685.6379" y="368.6358">1</text><text fill="#000000" font-family="sans-serif" font-size="9.75" lengthAdjust="spacing" textLength="5.25" x="878.9866" y="224.4498">1</text><!--MD5=[7f6cf7f175eae0af66201860de5de971]
link Company to TestStore--><path codeLine="157" d="M697.4775,399.0825 C749.2125,379.3725 837.69,345.6675 907.1175,319.215 " fill="none" id="Company-TestStore" style="stroke:#A80036;stroke-width:0.75;"/><polygon fill="#000000" points="816.1293,334.0468,809.0052,334.4021,810.5747,338.5217,816.1293,334.0468" style="stroke:#000000;stroke-width:0.75;"/><text fill="#000000" font-family="sans-serif" font-size="9.75" lengthAdjust="spacing" textLength="21" x="819.375" y="339.3713">uses</text><text fill="#000000" font-family="sans-serif" font-size="9.75" lengthAdjust="spacing" textLength="5.25" x="703.1419" y="394.4721">1</text><text fill="#000000" font-family="sans-serif" font-size="9.75" lengthAdjust="spacing" textLength="5.25" x="893.0891" y="335.6248">1</text><!--MD5=[5b7a9ded131023be416e27d15bcd6d77]
link TestType to Parameter--><path codeLine="158" d="M1392.63,425.31 C1423.83,435.3075 1464.7575,449.295 1500,464.25 C1509.9975,468.495 1520.6175,473.625 1530.24,478.545 " fill="none" id="TestType-Parameter" style="stroke:#A80036;stroke-width:0.75;"/><polygon fill="#000000" points="1423.9974,428.9848,1418.4658,424.4815,1416.8753,428.593,1423.9974,428.9848" style="stroke:#000000;stroke-width:0.75;"/><text fill="#000000" font-family="sans-serif" font-size="9.75" lengthAdjust="spacing" textLength="72" x="1427.25" y="431.6213">characterized by</text><text fill="#000000" font-family="sans-serif" font-size="9.75" lengthAdjust="spacing" textLength="5.25" x="1398.4001" y="437.7694">1</text><text fill="#000000" font-family="sans-serif" font-size="9.75" lengthAdjust="spacing" textLength="15" x="1509.4202" y="487.0297">1..*</text><!--MD5=[742a261f27a3dcd734c626287d811acd]
link Company to TestType--><path codeLine="159" d="M697.185,411.3075 C726.06,408.69 765.03,405.585 799.5,404.25 C981.0675,397.2225 1197.0675,404.1975 1292.385,408.06 " fill="none" id="Company-TestType" style="stroke:#A80036;stroke-width:0.75;"/><polygon fill="#000000" points="991.4999,394.6114,984.7042,392.4442,984.7283,396.8526,991.4999,394.6114" style="stroke:#000000;stroke-width:0.75;"/><text fill="#000000" font-family="sans-serif" font-size="9.75" lengthAdjust="spacing" textLength="39.75" x="994.5" y="398.6213">conducts</text><text fill="#000000" font-family="sans-serif" font-size="9.75" lengthAdjust="spacing" textLength="5.25" x="703.1025" y="408.1233">1</text><text fill="#000000" font-family="sans-serif" font-size="9.75" lengthAdjust="spacing" textLength="3.75" x="1282.9486" y="418.6327">*</text><!--MD5=[7e4bc624457760b649895ff2ead938fa]
link Company to Test--><path codeLine="160" d="M697.41,431.6775 C726.045,442.0125 764.655,455.13 799.5,464.25 C859.7775,480.0225 931.3575,492.2475 973.2525,498.765 " fill="none" id="Company-Test" style="stroke:#A80036;stroke-width:0.75;"/><polygon fill="#000000" points="806.8938,458.518,800.823,454.7731,799.7812,459.0566,806.8938,458.518" style="stroke:#000000;stroke-width:0.75;"/><text fill="#000000" font-family="sans-serif" font-size="9.75" lengthAdjust="spacing" textLength="39.75" x="810" y="461.6213">conducts</text><text fill="#000000" font-family="sans-serif" font-size="9.75" lengthAdjust="spacing" textLength="5.25" x="703.0662" y="444.5021">1</text><text fill="#000000" font-family="sans-serif" font-size="9.75" lengthAdjust="spacing" textLength="3.75" x="963.665" y="509.0425">*</text><!--MD5=[12d76240d3c3c66074d4ec2ea8bf469c]
link Company to Parameter--><path codeLine="161" d="M697.23,419.8275 C726.1125,422.715 765.09,426.555 799.5,429.75 C945.06,443.2575 1403.085,482.715 1530.3075,493.6575 " fill="none" id="Company-Parameter" style="stroke:#A80036;stroke-width:0.75;"/><polygon fill="#000000" points="1175.9854,457.2129,1169.4226,454.4184,1169.0335,458.8096,1175.9854,457.2129" style="stroke:#000000;stroke-width:0.75;"/><text fill="#000000" font-family="sans-serif" font-size="9.75" lengthAdjust="spacing" textLength="88.5" x="1179" y="460.8713">capable of analysing</text><text fill="#000000" font-family="sans-serif" font-size="9.75" lengthAdjust="spacing" textLength="5.25" x="703.1532" y="424.5037">1</text><text fill="#000000" font-family="sans-serif" font-size="9.75" lengthAdjust="spacing" textLength="3.75" x="1520.6459" y="504.3542">*</text><!--MD5=[e981d4f96c4342412d1e68160b30cf70]
link Test to TestType--><path codeLine="162" d="M1045.65,510.0675 C1097.3175,517.2075 1195.1925,524.13 1268.25,489.75 C1289.2575,479.865 1307.1,461.01 1319.94,444.15 " fill="none" id="Test-TestType" style="stroke:#A80036;stroke-width:0.75;"/><polygon fill="#000000" points="1193.1462,482.2556,1186.0351,481.6976,1187.0652,485.9839,1193.1462,482.2556" style="stroke:#000000;stroke-width:0.75;"/><text fill="#000000" font-family="sans-serif" font-size="9.75" lengthAdjust="spacing" textLength="54" x="1196.25" y="487.1213">classified as</text><text fill="#000000" font-family="sans-serif" font-size="9.75" lengthAdjust="spacing" textLength="3.75" x="1051.4726" y="522.0757">*</text><text fill="#000000" font-family="sans-serif" font-size="9.75" lengthAdjust="spacing" textLength="5.25" x="1311.3058" y="459.6754">1</text><!--MD5=[c23963f6e403fc3ebec8dae22c30ade6]
link Test to Parameter--><path codeLine="163" d="M1045.725,507.03 C1077.78,509.6025 1126.26,513.0975 1168.5,514.5 C1302.765,518.9475 1462.575,506.07 1530.3675,499.7625 " fill="none" id="Test-Parameter" style="stroke:#A80036;stroke-width:0.75;"/><polygon fill="#000000" points="1298.2496,504.0756,1291.4335,501.9734,1291.4996,506.3813,1298.2496,504.0756" style="stroke:#000000;stroke-width:0.75;"/><text fill="#000000" font-family="sans-serif" font-size="9.75" lengthAdjust="spacing" textLength="92.25" x="1301.25" y="508.1213">requested analysis of</text><text fill="#000000" font-family="sans-serif" font-size="9.75" lengthAdjust="spacing" textLength="3.75" x="1051.5591" y="504.7356">*</text><text fill="#000000" font-family="sans-serif" font-size="9.75" lengthAdjust="spacing" textLength="15" x="1509.3078" y="511.2907">1..*</text><!--MD5=[b72ac8ab7fb5921fceb5036a3902baea]
link Test to Sample--><path codeLine="164" d="M1045.725,512.91 C1112.2875,529.62 1254.5625,565.35 1314.3675,580.3725 " fill="none" id="Test-Sample" style="stroke:#A80036;stroke-width:0.75;"/><polygon fill="#000000" points="1203.2621,540.2952,1197.2194,536.5051,1196.1457,540.7807,1203.2621,540.2952" style="stroke:#000000;stroke-width:0.75;"/><text fill="#000000" font-family="sans-serif" font-size="9.75" lengthAdjust="spacing" textLength="33.75" x="1206.375" y="543.3713">collects</text><text fill="#000000" font-family="sans-serif" font-size="9.75" lengthAdjust="spacing" textLength="5.25" x="1051.4311" y="511.4962">1</text><text fill="#000000" font-family="sans-serif" font-size="9.75" lengthAdjust="spacing" textLength="15" x="1293.4659" y="590.3805">1..*</text><!--MD5=[6df8849671cb880f6936e94aa30db6f9]
link Parameter to ParameterCategory--><path codeLine="166" d="M1598.025,496.5 C1633.5,496.5 1690.245,496.5 1731.5625,496.5 " fill="none" id="Parameter-ParameterCategory" style="stroke:#A80036;stroke-width:0.75;"/><polygon fill="#000000" points="1635.75,489.8818,1628.9662,487.6776,1628.9662,492.086,1635.75,489.8818" style="stroke:#000000;stroke-width:0.75;"/><text fill="#000000" font-family="sans-serif" font-size="9.75" lengthAdjust="spacing" textLength="69.75" x="1638.75" y="493.8713">presented under</text><text fill="#000000" font-family="sans-serif" font-size="9.75" lengthAdjust="spacing" textLength="3.75" x="1603.9502" y="507.6675">*</text><text fill="#000000" font-family="sans-serif" font-size="9.75" lengthAdjust="spacing" textLength="5.25" x="1720.6471" y="507.2664">1</text><!--MD5=[8aaf0efd5e2f3824be7ea3e488dcc283]
link TestType to ParameterCategory--><path codeLine="167" d="M1392.6075,408.495 C1423.62,408.1725 1464.36,409.185 1500,414.75 C1582.7775,427.6725 1675.4925,457.515 1731.57,477.3375 " fill="none" id="TestType-ParameterCategory" style="stroke:#A80036;stroke-width:0.75;"/><polygon fill="#000000" points="1529.925,414.1282,1523.7156,410.6179,1522.8382,414.9381,1529.925,414.1282" style="stroke:#000000;stroke-width:0.75;"/><text fill="#000000" font-family="sans-serif" font-size="9.75" lengthAdjust="spacing" textLength="72" x="1533" y="417.3713">characterized by</text><text fill="#000000" font-family="sans-serif" font-size="9.75" lengthAdjust="spacing" textLength="5.25" x="1398.3751" y="419.1152">1</text><text fill="#000000" font-family="sans-serif" font-size="9.75" lengthAdjust="spacing" textLength="15" x="1710.6829" y="486.1882">1..*</text><!--MD5=[67edd770b2673989562d0a81d3c6e8f6]
@startuml
skinparam classAttributeIconSize 0
left to right direction


package UI <<Folder>> {
  class CreateTestUI{
  }
}


package Domain <<Folder>> {
    package Model <<Folder>> {

        class TestType {
        - code : String
        - description : String
        - collectingMethod : String
        }

        class Test{
            - NHSCode: String
            - code: String
        }

        class Sample{
            - barCode
        }

        class Parameter {
          -code
          -shortName
          -description
        }

        class Company {
            -designation : String
            +getTestTypeStore()
            +getParameterStore()
            +getTestStore()
        }

        class ParameterCategory{
            -code
            -name
        }
        class Client{
        - name
        - citizenCardNum
        - nhsNum
        - birthDate
        - sex
        - taxIdNum
        - phoneNum
        - email
        }

    }
    package Stores <<Folder>> {
        class ParameterStore {
            +getParamsByCategories(List<String> selectedCategoriesCodes)
            +getParamsByCategory(String category)
        }

        class TestTypeStore {
               +getTestTypes()
               +getTestTypeByCode(String code)
               +getCategoriesByTestTypeCode(String selectedTestTypeCode)
            }

        class TestStore {
            +createTest(String NHScode, Client associatedClient,\n TestType selectedTestType, List<Parameter>selectedParamsList)
            +validateTest(test)
            +saveTest(test)
        }

    }
}

package Controller <<Folder>>{
    class CreateTestControler{
    +createTest(NHScode, citizenCardNumber,selectedTestTypeCode, selectedParamCodes)
    +saveTest(test)
    +getTestTypes() : TestTypeDTO
    +getCategoriesListOfTestType(selectedTestTypeCode): CategoriesDTO
    +getParametersOfCategories(selectedCategoriesCodes): ParametersDTO
    }
}

package DTO <<Folder>>{
    class TestTypeDTO {
    -code
    -description
    -collectingMethod
    -List<Category> selectedCategories
    +TestTypeDTO(code, description, collectingMethod, selectedCategories)
    }

    class CategoryDto {
    -code
    -name
    +CategoryDto(code, name)
    }

    class ParameterDTO {
    -code
    -shortName
    -description
    -ParameterCategory
    +ParameterDTO(code, shortName, description, ParameterCategory)'
    }

}

package Mappers <<Folder>>{
    class TestTypeMapper {
        +List<TestTypeDTO> toDTO(List<TestType> testTypes)
        +TestTypeDTO toDTO(TestType tt)
    }
    class CategoryMapper{
        +List<CategoryDto> toDTO(List<Category> parameterCategories)
        +CategoryDto toDTO(Category category)
    }
    class ParameterMapper {
        +List<ParameterDTO> toDTO(List<Parameter> parameters)
        +ParameterDTO toDTO(Parameter parameter)
    }

}

Client -[hidden]-|> Test

CreateTestUI ..> CreateTestControler
CreateTestUI ..> CategoryDto
CreateTestUI ..> ParameterDTO
CreateTestUI ..> TestTypeDTO
CategoryMapper ..> CategoryDto
CategoryMapper ..> ParameterCategory
ParameterMapper ..> ParameterDTO
ParameterMapper ..> Parameter
TestTypeMapper ..> TestTypeDTO
TestTypeMapper ..> TestType
CreateTestControler ..> Company
CreateTestControler ..> CategoryMapper
CreateTestControler ..> CategoryDto
CreateTestControler ..> ParameterMapper
CreateTestControler ..> ParameterDTO
CreateTestControler ..> TestTypeMapper
CreateTestControler ..> TestTypeDTO
CreateTestControler ..> ParameterStore
CreateTestControler ..> TestTypeStore
CreateTestControler ..> TestStore
TestTypeStore "1" - - "*" TestType : stores >
TestStore "1" - - "*" Test : stores >
ParameterStore "1" - - "*" Parameter : stores >
Company "1" - - "1" ParameterStore : uses >
Company "1" - - "1" TestTypeStore : uses >
Company "1" - - "1" TestStore : uses >
TestType "1" - - "1..*" Parameter : characterized by >
Company "1" - - "*" TestType : conducts >
Company "1" - - "*" Test : conducts >
Company "1" - - "*" Parameter : capable of analysing >
Test "*" - - "1" TestType : classified as >
Test "*" - - "1..*" Parameter : requested analysis of >
Test "1" - - "1..*" Sample : collects >
Client "1" - - "1" Test : performs
Parameter "*" - - "1" ParameterCategory: presented under >
TestType "1" - - "1..*" ParameterCategory : characterized by >


@enduml

PlantUML version 1.2021.00(Sun Jan 10 10:25:05 GMT 2021)
(GPL source distribution)
Java Runtime: OpenJDK Runtime Environment
JVM: OpenJDK 64-Bit Server VM
Default Encoding: Cp1252
Language: pt
Country: BR
--></g></svg>