<?xml version="1.0" encoding="UTF-8" standalone="no"?><svg xmlns="http://www.w3.org/2000/svg" xmlns:xlink="http://www.w3.org/1999/xlink" contentScriptType="application/ecmascript" contentStyleType="text/css" height="1172.25px" preserveAspectRatio="none" style="width:1822px;height:1172px;" version="1.1" viewBox="0 0 1822 1172" width="1822.5px" zoomAndPan="magnify"><defs><filter height="300%" id="fnkpprewvzor6" width="300%" x="-1" y="-1"><feGaussianBlur result="blurOut" stdDeviation="1.5"/><feColorMatrix in="blurOut" result="blurOut2" type="matrix" values="0 0 0 0 0 0 0 0 0 0 0 0 0 0 0 0 0 0 .4 0"/><feOffset dx="3.0" dy="3.0" in="blurOut2" result="blurOut3"/><feBlend in="SourceGraphic" in2="blurOut3" mode="normal"/></filter></defs><g><!--MD5=[9681dc6e01e10c6b4fe06895ae94f592]
cluster UI--><polygon fill="#FFFFFF" filter="url(#fnkpprewvzor6)" points="12,1059,27,1059,32.25,1076.707,114.75,1076.707,114.75,1134,12,1134,12,1059" style="stroke:#000000;stroke-width:1.125;"/><line style="stroke:#000000;stroke-width:1.125;" x1="12" x2="32.25" y1="1076.707" y2="1076.707"/><text fill="#000000" font-family="sans-serif" font-size="10.5" font-weight="bold" lengthAdjust="spacing" textLength="10.5" x="15" y="1071.3999">UI</text><!--MD5=[121a8bf1197281ab89ed693fab589f94]
cluster Domain--><polygon fill="#FFFFFF" filter="url(#fnkpprewvzor6)" points="557.25,4.5,600.75,4.5,606,22.207,1809.75,22.207,1809.75,651,557.25,651,557.25,4.5" style="stroke:#000000;stroke-width:1.125;"/><line style="stroke:#000000;stroke-width:1.125;" x1="557.25" x2="606" y1="22.207" y2="22.207"/><text fill="#000000" font-family="sans-serif" font-size="10.5" font-weight="bold" lengthAdjust="spacing" textLength="39" x="560.25" y="16.8999">Domain</text><!--MD5=[15636c1ca4a123c16a2a1a8e90aca7a9]
cluster Model--><polygon fill="#FFFFFF" filter="url(#fnkpprewvzor6)" points="575.25,349.5,612.75,349.5,618,367.207,1791.75,367.207,1791.75,633,575.25,633,575.25,349.5" style="stroke:#000000;stroke-width:1.125;"/><line style="stroke:#000000;stroke-width:1.125;" x1="575.25" x2="618" y1="367.207" y2="367.207"/><text fill="#000000" font-family="sans-serif" font-size="10.5" font-weight="bold" lengthAdjust="spacing" textLength="33" x="578.25" y="361.8999">Model</text><!--MD5=[8dd535d56cd4cf7faf64fdd082ba836e]
cluster Stores--><polygon fill="#FFFFFF" filter="url(#fnkpprewvzor6)" points="847.5,37.5,886.5,37.5,891.75,55.207,1172.25,55.207,1172.25,331.5,847.5,331.5,847.5,37.5" style="stroke:#000000;stroke-width:1.125;"/><line style="stroke:#000000;stroke-width:1.125;" x1="847.5" x2="891.75" y1="55.207" y2="55.207"/><text fill="#000000" font-family="sans-serif" font-size="10.5" font-weight="bold" lengthAdjust="spacing" textLength="34.5" x="850.5" y="49.8999">Stores</text><!--MD5=[1f2cfc53d9d308f53762fd0fcbaa4873]
cluster Controller--><polygon fill="#FFFFFF" filter="url(#fnkpprewvzor6)" points="139.5,785.25,197.25,785.25,202.5,802.957,464.25,802.957,464.25,891.75,139.5,891.75,139.5,785.25" style="stroke:#000000;stroke-width:1.125;"/><line style="stroke:#000000;stroke-width:1.125;" x1="139.5" x2="202.5" y1="802.957" y2="802.957"/><text fill="#000000" font-family="sans-serif" font-size="10.5" font-weight="bold" lengthAdjust="spacing" textLength="53.25" x="142.5" y="797.6499">Controller</text><!--MD5=[7b8bc9ee8bb84b99fb3a3f9477c19238]
cluster DTO--><polygon fill="#FFFFFF" filter="url(#fnkpprewvzor6)" points="865.125,930,891.375,930,896.625,947.707,1154.625,947.707,1154.625,1130.25,865.125,1130.25,865.125,930" style="stroke:#000000;stroke-width:1.125;"/><line style="stroke:#000000;stroke-width:1.125;" x1="865.125" x2="896.625" y1="947.707" y2="947.707"/><text fill="#000000" font-family="sans-serif" font-size="10.5" font-weight="bold" lengthAdjust="spacing" textLength="21.75" x="868.125" y="942.3999">DTO</text><!--MD5=[701152d03fbf85133a1de050cfdbc7fd]
cluster Mappers--><polygon fill="#FFFFFF" filter="url(#fnkpprewvzor6)" points="489,790.5,540,790.5,545.25,808.207,772.5,808.207,772.5,969.75,489,969.75,489,790.5" style="stroke:#000000;stroke-width:1.125;"/><line style="stroke:#000000;stroke-width:1.125;" x1="489" x2="545.25" y1="808.207" y2="808.207"/><text fill="#000000" font-family="sans-serif" font-size="10.5" font-weight="bold" lengthAdjust="spacing" textLength="46.5" x="492" y="802.8999">Mappers</text><!--MD5=[92f70f89e9f3cc4b172fe964212d1829]
class CreateTestUI--><rect codeLine="6" fill="#FEFECE" filter="url(#fnkpprewvzor6)" height="36" id="CreateTestUI" style="stroke:#A80036;stroke-width:1.125;" width="78.75" x="24" y="1086"/><ellipse cx="35.25" cy="1098" fill="#ADD1B2" rx="8.25" ry="8.25" style="stroke:#A80036;stroke-width:0.75;"/><path d="M36.75,1095.375 Q36.9023,1095 37.0781,1094.8125 Q37.2539,1094.625 37.4531,1094.625 Q37.8047,1094.625 38.0273,1094.8359 Q38.25,1095.0469 38.25,1095.5391 L38.25,1096.7109 Q38.25,1097.2031 38.0391,1097.4141 Q37.8281,1097.625 37.5,1097.625 Q37.207,1097.625 37.0195,1097.4961 Q36.832,1097.3672 36.75,1097.0273 Q36.7148,1096.793 36.5859,1096.6641 Q36.3516,1096.418 35.9297,1096.2773 Q35.5078,1096.125 35.0859,1096.125 Q34.5586,1096.125 34.1133,1096.3359 Q33.6797,1096.5469 33.3398,1097.0156 Q33,1097.4844 33,1098.1289 L33,1098.8203 Q33,1099.5938 33.6328,1100.1094 Q34.2656,1100.625 35.3906,1100.625 Q36.0586,1100.625 36.5273,1100.4727 Q36.7969,1100.3906 37.1016,1100.1211 Q37.3008,1099.9688 37.4063,1099.9219 Q37.5117,1099.875 37.6406,1099.875 Q37.8867,1099.875 38.0625,1100.0742 Q38.25,1100.2617 38.25,1100.5313 Q38.25,1100.7891 37.9922,1101.0938 Q37.6172,1101.5391 37.0195,1101.7852 Q36.2344,1102.125 35.2734,1102.125 Q34.1484,1102.125 33.2461,1101.6797 Q32.5195,1101.3281 32.0039,1100.5664 Q31.5,1099.8047 31.5,1098.9023 L31.5,1098.082 Q31.5,1097.1445 31.9453,1096.3242 Q32.4023,1095.5039 33.1875,1095.0703 Q33.9844,1094.625 34.875,1094.625 Q35.4141,1094.625 35.8828,1094.8125 Q36.3516,1095 36.75,1095.375 Z " fill="#000000"/><text fill="#000000" font-family="sans-serif" font-size="9" lengthAdjust="spacing" textLength="54.75" x="45.75" y="1101.6826">CreateTestUI</text><line style="stroke:#A80036;stroke-width:1.125;" x1="24.75" x2="102" y1="1110" y2="1110"/><line style="stroke:#A80036;stroke-width:1.125;" x1="24.75" x2="102" y1="1116" y2="1116"/><!--MD5=[aeb3272166074d8737a70b61b1e71682]
class TestType--><rect codeLine="13" fill="#FEFECE" filter="url(#fnkpprewvzor6)" height="77.5078" id="TestType" style="stroke:#A80036;stroke-width:1.125;" width="277.5" x="1306.5" y="543.375"/><ellipse cx="1423.3125" cy="555.375" fill="#ADD1B2" rx="8.25" ry="8.25" style="stroke:#A80036;stroke-width:0.75;"/><path d="M1424.8125,552.75 Q1424.9648,552.375 1425.1406,552.1875 Q1425.3164,552 1425.5156,552 Q1425.8672,552 1426.0898,552.2109 Q1426.3125,552.4219 1426.3125,552.9141 L1426.3125,554.0859 Q1426.3125,554.5781 1426.1016,554.7891 Q1425.8906,555 1425.5625,555 Q1425.2695,555 1425.082,554.8711 Q1424.8945,554.7422 1424.8125,554.4023 Q1424.7773,554.168 1424.6484,554.0391 Q1424.4141,553.793 1423.9922,553.6523 Q1423.5703,553.5 1423.1484,553.5 Q1422.6211,553.5 1422.1758,553.7109 Q1421.7422,553.9219 1421.4023,554.3906 Q1421.0625,554.8594 1421.0625,555.5039 L1421.0625,556.1953 Q1421.0625,556.9688 1421.6953,557.4844 Q1422.3281,558 1423.4531,558 Q1424.1211,558 1424.5898,557.8477 Q1424.8594,557.7656 1425.1641,557.4961 Q1425.3633,557.3438 1425.4688,557.2969 Q1425.5742,557.25 1425.7031,557.25 Q1425.9492,557.25 1426.125,557.4492 Q1426.3125,557.6367 1426.3125,557.9063 Q1426.3125,558.1641 1426.0547,558.4688 Q1425.6797,558.9141 1425.082,559.1602 Q1424.2969,559.5 1423.3359,559.5 Q1422.2109,559.5 1421.3086,559.0547 Q1420.582,558.7031 1420.0664,557.9414 Q1419.5625,557.1797 1419.5625,556.2773 L1419.5625,555.457 Q1419.5625,554.5195 1420.0078,553.6992 Q1420.4648,552.8789 1421.25,552.4453 Q1422.0469,552 1422.9375,552 Q1423.4766,552 1423.9453,552.1875 Q1424.4141,552.375 1424.8125,552.75 Z " fill="#000000"/><text fill="#000000" font-family="sans-serif" font-size="9" lengthAdjust="spacing" textLength="37.5" x="1438.6875" y="559.0576">TestType</text><line style="stroke:#A80036;stroke-width:1.125;" x1="1307.25" x2="1583.25" y1="567.375" y2="567.375"/><text fill="#000000" font-family="sans-serif" font-size="8.25" lengthAdjust="spacing" textLength="48.75" x="1311" y="578.9392">-code : String</text><text fill="#000000" font-family="sans-serif" font-size="8.25" lengthAdjust="spacing" textLength="70.5" x="1311" y="589.3162">-description : String</text><text fill="#000000" font-family="sans-serif" font-size="8.25" lengthAdjust="spacing" textLength="90.75" x="1311" y="599.6931">-collectingMethod : String</text><line style="stroke:#A80036;stroke-width:1.125;" x1="1307.25" x2="1583.25" y1="604.5059" y2="604.5059"/><text fill="#000000" font-family="sans-serif" font-size="8.25" lengthAdjust="spacing" textLength="268.5" x="1311" y="616.0701">+TestType(code, description, collectingMethod, selectedCategoriesCodes)</text><!--MD5=[df38be88ccee13e832d6fafd6288a4ca]
class Test--><rect codeLine="20" fill="#FEFECE" filter="url(#fnkpprewvzor6)" height="56.7539" id="Test" style="stroke:#A80036;stroke-width:1.125;" width="72" x="973.875" y="441"/><ellipse cx="998.625" cy="453" fill="#ADD1B2" rx="8.25" ry="8.25" style="stroke:#A80036;stroke-width:0.75;"/><path d="M1000.125,450.375 Q1000.2773,450 1000.4531,449.8125 Q1000.6289,449.625 1000.8281,449.625 Q1001.1797,449.625 1001.4023,449.8359 Q1001.625,450.0469 1001.625,450.5391 L1001.625,451.7109 Q1001.625,452.2031 1001.4141,452.4141 Q1001.2031,452.625 1000.875,452.625 Q1000.582,452.625 1000.3945,452.4961 Q1000.207,452.3672 1000.125,452.0273 Q1000.0898,451.793 999.9609,451.6641 Q999.7266,451.418 999.3047,451.2773 Q998.8828,451.125 998.4609,451.125 Q997.9336,451.125 997.4883,451.3359 Q997.0547,451.5469 996.7148,452.0156 Q996.375,452.4844 996.375,453.1289 L996.375,453.8203 Q996.375,454.5938 997.0078,455.1094 Q997.6406,455.625 998.7656,455.625 Q999.4336,455.625 999.9023,455.4727 Q1000.1719,455.3906 1000.4766,455.1211 Q1000.6758,454.9688 1000.7813,454.9219 Q1000.8867,454.875 1001.0156,454.875 Q1001.2617,454.875 1001.4375,455.0742 Q1001.625,455.2617 1001.625,455.5313 Q1001.625,455.7891 1001.3672,456.0938 Q1000.9922,456.5391 1000.3945,456.7852 Q999.6094,457.125 998.6484,457.125 Q997.5234,457.125 996.6211,456.6797 Q995.8945,456.3281 995.3789,455.5664 Q994.875,454.8047 994.875,453.9023 L994.875,453.082 Q994.875,452.1445 995.3203,451.3242 Q995.7773,450.5039 996.5625,450.0703 Q997.3594,449.625 998.25,449.625 Q998.7891,449.625 999.2578,449.8125 Q999.7266,450 1000.125,450.375 Z " fill="#000000"/><text fill="#000000" font-family="sans-serif" font-size="9" lengthAdjust="spacing" textLength="18" x="1012.125" y="456.6826">Test</text><line style="stroke:#A80036;stroke-width:1.125;" x1="974.625" x2="1045.125" y1="465" y2="465"/><text fill="#000000" font-family="sans-serif" font-size="8.25" lengthAdjust="spacing" textLength="63" x="978.375" y="476.5642">-NHSCode: String</text><text fill="#000000" font-family="sans-serif" font-size="8.25" lengthAdjust="spacing" textLength="46.5" x="978.375" y="486.9412">-code: String</text><line style="stroke:#A80036;stroke-width:1.125;" x1="974.625" x2="1045.125" y1="491.7539" y2="491.7539"/><!--MD5=[9681492165142af2a4a3a169d90ee8d4]
class Sample--><rect codeLine="25" fill="#FEFECE" filter="url(#fnkpprewvzor6)" height="46.377" id="Sample" style="stroke:#A80036;stroke-width:1.125;" width="56.25" x="1417.125" y="470.25"/><ellipse cx="1428.375" cy="482.25" fill="#ADD1B2" rx="8.25" ry="8.25" style="stroke:#A80036;stroke-width:0.75;"/><path d="M1429.875,479.625 Q1430.0273,479.25 1430.2031,479.0625 Q1430.3789,478.875 1430.5781,478.875 Q1430.9297,478.875 1431.1523,479.0859 Q1431.375,479.2969 1431.375,479.7891 L1431.375,480.9609 Q1431.375,481.4531 1431.1641,481.6641 Q1430.9531,481.875 1430.625,481.875 Q1430.332,481.875 1430.1445,481.7461 Q1429.957,481.6172 1429.875,481.2773 Q1429.8398,481.043 1429.7109,480.9141 Q1429.4766,480.668 1429.0547,480.5273 Q1428.6328,480.375 1428.2109,480.375 Q1427.6836,480.375 1427.2383,480.5859 Q1426.8047,480.7969 1426.4648,481.2656 Q1426.125,481.7344 1426.125,482.3789 L1426.125,483.0703 Q1426.125,483.8438 1426.7578,484.3594 Q1427.3906,484.875 1428.5156,484.875 Q1429.1836,484.875 1429.6523,484.7227 Q1429.9219,484.6406 1430.2266,484.3711 Q1430.4258,484.2188 1430.5313,484.1719 Q1430.6367,484.125 1430.7656,484.125 Q1431.0117,484.125 1431.1875,484.3242 Q1431.375,484.5117 1431.375,484.7813 Q1431.375,485.0391 1431.1172,485.3438 Q1430.7422,485.7891 1430.1445,486.0352 Q1429.3594,486.375 1428.3984,486.375 Q1427.2734,486.375 1426.3711,485.9297 Q1425.6445,485.5781 1425.1289,484.8164 Q1424.625,484.0547 1424.625,483.1523 L1424.625,482.332 Q1424.625,481.3945 1425.0703,480.5742 Q1425.5273,479.7539 1426.3125,479.3203 Q1427.1094,478.875 1428,478.875 Q1428.5391,478.875 1429.0078,479.0625 Q1429.4766,479.25 1429.875,479.625 Z " fill="#000000"/><text fill="#000000" font-family="sans-serif" font-size="9" lengthAdjust="spacing" textLength="32.25" x="1438.875" y="485.9326">Sample</text><line style="stroke:#A80036;stroke-width:1.125;" x1="1417.875" x2="1472.625" y1="494.25" y2="494.25"/><text fill="#000000" font-family="sans-serif" font-size="8.25" lengthAdjust="spacing" textLength="33.75" x="1421.625" y="505.8142">-barCode</text><line style="stroke:#A80036;stroke-width:1.125;" x1="1417.875" x2="1472.625" y1="510.627" y2="510.627"/><!--MD5=[1f6362a5c8f21d8d6a0fce68f3a92a4e]
class Parameter--><rect codeLine="29" fill="#FEFECE" filter="url(#fnkpprewvzor6)" height="56.7539" id="Parameter" style="stroke:#A80036;stroke-width:1.125;" width="67.5" x="1712.25" y="389.25"/><ellipse cx="1723.5" cy="401.25" fill="#ADD1B2" rx="8.25" ry="8.25" style="stroke:#A80036;stroke-width:0.75;"/><path d="M1725,398.625 Q1725.1523,398.25 1725.3281,398.0625 Q1725.5039,397.875 1725.7031,397.875 Q1726.0547,397.875 1726.2773,398.0859 Q1726.5,398.2969 1726.5,398.7891 L1726.5,399.9609 Q1726.5,400.4531 1726.2891,400.6641 Q1726.0781,400.875 1725.75,400.875 Q1725.457,400.875 1725.2695,400.7461 Q1725.082,400.6172 1725,400.2773 Q1724.9648,400.043 1724.8359,399.9141 Q1724.6016,399.668 1724.1797,399.5273 Q1723.7578,399.375 1723.3359,399.375 Q1722.8086,399.375 1722.3633,399.5859 Q1721.9297,399.7969 1721.5898,400.2656 Q1721.25,400.7344 1721.25,401.3789 L1721.25,402.0703 Q1721.25,402.8438 1721.8828,403.3594 Q1722.5156,403.875 1723.6406,403.875 Q1724.3086,403.875 1724.7773,403.7227 Q1725.0469,403.6406 1725.3516,403.3711 Q1725.5508,403.2188 1725.6563,403.1719 Q1725.7617,403.125 1725.8906,403.125 Q1726.1367,403.125 1726.3125,403.3242 Q1726.5,403.5117 1726.5,403.7813 Q1726.5,404.0391 1726.2422,404.3438 Q1725.8672,404.7891 1725.2695,405.0352 Q1724.4844,405.375 1723.5234,405.375 Q1722.3984,405.375 1721.4961,404.9297 Q1720.7695,404.5781 1720.2539,403.8164 Q1719.75,403.0547 1719.75,402.1523 L1719.75,401.332 Q1719.75,400.3945 1720.1953,399.5742 Q1720.6523,398.7539 1721.4375,398.3203 Q1722.2344,397.875 1723.125,397.875 Q1723.6641,397.875 1724.1328,398.0625 Q1724.6016,398.25 1725,398.625 Z " fill="#000000"/><text fill="#000000" font-family="sans-serif" font-size="9" lengthAdjust="spacing" textLength="43.5" x="1734" y="404.9326">Parameter</text><line style="stroke:#A80036;stroke-width:1.125;" x1="1713" x2="1779" y1="413.25" y2="413.25"/><text fill="#000000" font-family="sans-serif" font-size="8.25" lengthAdjust="spacing" textLength="22.5" x="1716.75" y="424.8142">-name</text><text fill="#000000" font-family="sans-serif" font-size="8.25" lengthAdjust="spacing" textLength="21" x="1716.75" y="435.1912">-code</text><line style="stroke:#A80036;stroke-width:1.125;" x1="1713" x2="1779" y1="440.0039" y2="440.0039"/><!--MD5=[02e4b9b7573f1156f41e60aa5b4e25a4]
class Company--><rect codeLine="34" fill="#FEFECE" filter="url(#fnkpprewvzor6)" height="67.1309" id="Company" style="stroke:#A80036;stroke-width:1.125;" width="87" x="587.25" y="376.5"/><ellipse cx="608.9625" cy="388.5" fill="#ADD1B2" rx="8.25" ry="8.25" style="stroke:#A80036;stroke-width:0.75;"/><path d="M610.4625,385.875 Q610.6148,385.5 610.7906,385.3125 Q610.9664,385.125 611.1656,385.125 Q611.5172,385.125 611.7398,385.3359 Q611.9625,385.5469 611.9625,386.0391 L611.9625,387.2109 Q611.9625,387.7031 611.7516,387.9141 Q611.5406,388.125 611.2125,388.125 Q610.9195,388.125 610.732,387.9961 Q610.5445,387.8672 610.4625,387.5273 Q610.4273,387.293 610.2984,387.1641 Q610.0641,386.918 609.6422,386.7773 Q609.2203,386.625 608.7984,386.625 Q608.2711,386.625 607.8258,386.8359 Q607.3922,387.0469 607.0523,387.5156 Q606.7125,387.9844 606.7125,388.6289 L606.7125,389.3203 Q606.7125,390.0938 607.3453,390.6094 Q607.9781,391.125 609.1031,391.125 Q609.7711,391.125 610.2398,390.9727 Q610.5094,390.8906 610.8141,390.6211 Q611.0133,390.4688 611.1188,390.4219 Q611.2242,390.375 611.3531,390.375 Q611.5992,390.375 611.775,390.5742 Q611.9625,390.7617 611.9625,391.0313 Q611.9625,391.2891 611.7047,391.5938 Q611.3297,392.0391 610.732,392.2852 Q609.9469,392.625 608.9859,392.625 Q607.8609,392.625 606.9586,392.1797 Q606.232,391.8281 605.7164,391.0664 Q605.2125,390.3047 605.2125,389.4023 L605.2125,388.582 Q605.2125,387.6445 605.6578,386.8242 Q606.1148,386.0039 606.9,385.5703 Q607.6969,385.125 608.5875,385.125 Q609.1266,385.125 609.5953,385.3125 Q610.0641,385.5 610.4625,385.875 Z " fill="#000000"/><text fill="#000000" font-family="sans-serif" font-size="9" lengthAdjust="spacing" textLength="39.75" x="621.7875" y="392.1826">Company</text><line style="stroke:#A80036;stroke-width:1.125;" x1="588" x2="673.5" y1="400.5" y2="400.5"/><text fill="#000000" font-family="sans-serif" font-size="8.25" lengthAdjust="spacing" textLength="72" x="591.75" y="412.0642">-designation : String</text><line style="stroke:#A80036;stroke-width:1.125;" x1="588" x2="673.5" y1="416.877" y2="416.877"/><text fill="#000000" font-family="sans-serif" font-size="8.25" lengthAdjust="spacing" textLength="75" x="591.75" y="428.4412">+getTestTypeStore()</text><text fill="#000000" font-family="sans-serif" font-size="8.25" lengthAdjust="spacing" textLength="78" x="591.75" y="438.8181">+getParameterStore()</text><!--MD5=[be7802b157a16874d39c59ca0e2b25be]
class ParameterStore--><rect codeLine="43" fill="#FEFECE" filter="url(#fnkpprewvzor6)" height="67.1309" id="ParameterStore" style="stroke:#A80036;stroke-width:1.125;" width="203.25" x="908.25" y="64.5"/><ellipse cx="974.0625" cy="76.5" fill="#ADD1B2" rx="8.25" ry="8.25" style="stroke:#A80036;stroke-width:0.75;"/><path d="M975.5625,73.875 Q975.7148,73.5 975.8906,73.3125 Q976.0664,73.125 976.2656,73.125 Q976.6172,73.125 976.8398,73.3359 Q977.0625,73.5469 977.0625,74.0391 L977.0625,75.2109 Q977.0625,75.7031 976.8516,75.9141 Q976.6406,76.125 976.3125,76.125 Q976.0195,76.125 975.832,75.9961 Q975.6445,75.8672 975.5625,75.5273 Q975.5273,75.293 975.3984,75.1641 Q975.1641,74.918 974.7422,74.7773 Q974.3203,74.625 973.8984,74.625 Q973.3711,74.625 972.9258,74.8359 Q972.4922,75.0469 972.1523,75.5156 Q971.8125,75.9844 971.8125,76.6289 L971.8125,77.3203 Q971.8125,78.0938 972.4453,78.6094 Q973.0781,79.125 974.2031,79.125 Q974.8711,79.125 975.3398,78.9727 Q975.6094,78.8906 975.9141,78.6211 Q976.1133,78.4688 976.2188,78.4219 Q976.3242,78.375 976.4531,78.375 Q976.6992,78.375 976.875,78.5742 Q977.0625,78.7617 977.0625,79.0313 Q977.0625,79.2891 976.8047,79.5938 Q976.4297,80.0391 975.832,80.2852 Q975.0469,80.625 974.0859,80.625 Q972.9609,80.625 972.0586,80.1797 Q971.332,79.8281 970.8164,79.0664 Q970.3125,78.3047 970.3125,77.4023 L970.3125,76.582 Q970.3125,75.6445 970.7578,74.8242 Q971.2148,74.0039 972,73.5703 Q972.7969,73.125 973.6875,73.125 Q974.2266,73.125 974.6953,73.3125 Q975.1641,73.5 975.5625,73.875 Z " fill="#000000"/><text fill="#000000" font-family="sans-serif" font-size="9" lengthAdjust="spacing" textLength="65.25" x="989.4375" y="80.1826">ParameterStore</text><line style="stroke:#A80036;stroke-width:1.125;" x1="909" x2="1110.75" y1="88.5" y2="88.5"/><line style="stroke:#A80036;stroke-width:1.125;" x1="909" x2="1110.75" y1="94.5" y2="94.5"/><text fill="#000000" font-family="sans-serif" font-size="8.25" lengthAdjust="spacing" textLength="117" x="912.75" y="106.0642">+getParameterCategoriesStore()</text><text fill="#000000" font-family="sans-serif" font-size="8.25" lengthAdjust="spacing" textLength="194.25" x="912.75" y="116.4412">+getCategoriesByCode(List&lt;String&gt; ParameterCodes)</text><text fill="#000000" font-family="sans-serif" font-size="8.25" lengthAdjust="spacing" textLength="124.5" x="912.75" y="126.8181">+getCategoryByCode(String code)</text><!--MD5=[6ba72ddf03822b91e8d41ca71de58ed3]
class TestTypeStore--><rect codeLine="49" fill="#FEFECE" filter="url(#fnkpprewvzor6)" height="67.1309" id="TestTypeStore" style="stroke:#A80036;stroke-width:1.125;" width="300.75" x="859.5" y="158.25"/><ellipse cx="977.0625" cy="170.25" fill="#ADD1B2" rx="8.25" ry="8.25" style="stroke:#A80036;stroke-width:0.75;"/><path d="M978.5625,167.625 Q978.7148,167.25 978.8906,167.0625 Q979.0664,166.875 979.2656,166.875 Q979.6172,166.875 979.8398,167.0859 Q980.0625,167.2969 980.0625,167.7891 L980.0625,168.9609 Q980.0625,169.4531 979.8516,169.6641 Q979.6406,169.875 979.3125,169.875 Q979.0195,169.875 978.832,169.7461 Q978.6445,169.6172 978.5625,169.2773 Q978.5273,169.043 978.3984,168.9141 Q978.1641,168.668 977.7422,168.5273 Q977.3203,168.375 976.8984,168.375 Q976.3711,168.375 975.9258,168.5859 Q975.4922,168.7969 975.1523,169.2656 Q974.8125,169.7344 974.8125,170.3789 L974.8125,171.0703 Q974.8125,171.8438 975.4453,172.3594 Q976.0781,172.875 977.2031,172.875 Q977.8711,172.875 978.3398,172.7227 Q978.6094,172.6406 978.9141,172.3711 Q979.1133,172.2188 979.2188,172.1719 Q979.3242,172.125 979.4531,172.125 Q979.6992,172.125 979.875,172.3242 Q980.0625,172.5117 980.0625,172.7813 Q980.0625,173.0391 979.8047,173.3438 Q979.4297,173.7891 978.832,174.0352 Q978.0469,174.375 977.0859,174.375 Q975.9609,174.375 975.0586,173.9297 Q974.332,173.5781 973.8164,172.8164 Q973.3125,172.0547 973.3125,171.1523 L973.3125,170.332 Q973.3125,169.3945 973.7578,168.5742 Q974.2148,167.7539 975,167.3203 Q975.7969,166.875 976.6875,166.875 Q977.2266,166.875 977.6953,167.0625 Q978.1641,167.25 978.5625,167.625 Z " fill="#000000"/><text fill="#000000" font-family="sans-serif" font-size="9" lengthAdjust="spacing" textLength="59.25" x="992.4375" y="173.9326">TestTypeStore</text><line style="stroke:#A80036;stroke-width:1.125;" x1="860.25" x2="1159.5" y1="182.25" y2="182.25"/><line style="stroke:#A80036;stroke-width:1.125;" x1="860.25" x2="1159.5" y1="188.25" y2="188.25"/><text fill="#000000" font-family="sans-serif" font-size="8.25" lengthAdjust="spacing" textLength="291.75" x="864" y="199.8142">+createTestType(code, description, collectingMethod, selectedCategoriesCodes)</text><text fill="#000000" font-family="sans-serif" font-size="8.25" lengthAdjust="spacing" textLength="76.5" x="864" y="210.1912">+validateTestType(tt)</text><text fill="#000000" font-family="sans-serif" font-size="8.25" lengthAdjust="spacing" textLength="66.75" x="864" y="220.5681">+saveTestType(tt)</text><!--MD5=[0f6f7964b844a64b0496af0dda7914bd]
class TestStore--><rect codeLine="55" fill="#FEFECE" filter="url(#fnkpprewvzor6)" height="67.1309" id="TestStore" style="stroke:#A80036;stroke-width:1.125;" width="300.75" x="859.5" y="252"/><ellipse cx="986.8125" cy="264" fill="#ADD1B2" rx="8.25" ry="8.25" style="stroke:#A80036;stroke-width:0.75;"/><path d="M988.3125,261.375 Q988.4648,261 988.6406,260.8125 Q988.8164,260.625 989.0156,260.625 Q989.3672,260.625 989.5898,260.8359 Q989.8125,261.0469 989.8125,261.5391 L989.8125,262.7109 Q989.8125,263.2031 989.6016,263.4141 Q989.3906,263.625 989.0625,263.625 Q988.7695,263.625 988.582,263.4961 Q988.3945,263.3672 988.3125,263.0273 Q988.2773,262.793 988.1484,262.6641 Q987.9141,262.418 987.4922,262.2773 Q987.0703,262.125 986.6484,262.125 Q986.1211,262.125 985.6758,262.3359 Q985.2422,262.5469 984.9023,263.0156 Q984.5625,263.4844 984.5625,264.1289 L984.5625,264.8203 Q984.5625,265.5938 985.1953,266.1094 Q985.8281,266.625 986.9531,266.625 Q987.6211,266.625 988.0898,266.4727 Q988.3594,266.3906 988.6641,266.1211 Q988.8633,265.9688 988.9688,265.9219 Q989.0742,265.875 989.2031,265.875 Q989.4492,265.875 989.625,266.0742 Q989.8125,266.2617 989.8125,266.5313 Q989.8125,266.7891 989.5547,267.0938 Q989.1797,267.5391 988.582,267.7852 Q987.7969,268.125 986.8359,268.125 Q985.7109,268.125 984.8086,267.6797 Q984.082,267.3281 983.5664,266.5664 Q983.0625,265.8047 983.0625,264.9023 L983.0625,264.082 Q983.0625,263.1445 983.5078,262.3242 Q983.9648,261.5039 984.75,261.0703 Q985.5469,260.625 986.4375,260.625 Q986.9766,260.625 987.4453,260.8125 Q987.9141,261 988.3125,261.375 Z " fill="#000000"/><text fill="#000000" font-family="sans-serif" font-size="9" lengthAdjust="spacing" textLength="39.75" x="1002.1875" y="267.6826">TestStore</text><line style="stroke:#A80036;stroke-width:1.125;" x1="860.25" x2="1159.5" y1="276" y2="276"/><line style="stroke:#A80036;stroke-width:1.125;" x1="860.25" x2="1159.5" y1="282" y2="282"/><text fill="#000000" font-family="sans-serif" font-size="8.25" lengthAdjust="spacing" textLength="291.75" x="864" y="293.5642">+createTestType(code, description, collectingMethod, selectedCategoriesCodes)</text><text fill="#000000" font-family="sans-serif" font-size="8.25" lengthAdjust="spacing" textLength="76.5" x="864" y="303.9412">+validateTestType(tt)</text><text fill="#000000" font-family="sans-serif" font-size="8.25" lengthAdjust="spacing" textLength="66.75" x="864" y="314.3181">+saveTestType(tt)</text><!--MD5=[9d781343e96e75b44552b4e167cedac1]
class CreateTestControler--><rect codeLine="65" fill="#FEFECE" filter="url(#fnkpprewvzor6)" height="67.1309" id="CreateTestControler" style="stroke:#A80036;stroke-width:1.125;" width="300.75" x="151.5" y="812.25"/><ellipse cx="256.6875" cy="824.25" fill="#ADD1B2" rx="8.25" ry="8.25" style="stroke:#A80036;stroke-width:0.75;"/><path d="M258.1875,821.625 Q258.3398,821.25 258.5156,821.0625 Q258.6914,820.875 258.8906,820.875 Q259.2422,820.875 259.4648,821.0859 Q259.6875,821.2969 259.6875,821.7891 L259.6875,822.9609 Q259.6875,823.4531 259.4766,823.6641 Q259.2656,823.875 258.9375,823.875 Q258.6445,823.875 258.457,823.7461 Q258.2695,823.6172 258.1875,823.2773 Q258.1523,823.043 258.0234,822.9141 Q257.7891,822.668 257.3672,822.5273 Q256.9453,822.375 256.5234,822.375 Q255.9961,822.375 255.5508,822.5859 Q255.1172,822.7969 254.7773,823.2656 Q254.4375,823.7344 254.4375,824.3789 L254.4375,825.0703 Q254.4375,825.8438 255.0703,826.3594 Q255.7031,826.875 256.8281,826.875 Q257.4961,826.875 257.9648,826.7227 Q258.2344,826.6406 258.5391,826.3711 Q258.7383,826.2188 258.8438,826.1719 Q258.9492,826.125 259.0781,826.125 Q259.3242,826.125 259.5,826.3242 Q259.6875,826.5117 259.6875,826.7813 Q259.6875,827.0391 259.4297,827.3438 Q259.0547,827.7891 258.457,828.0352 Q257.6719,828.375 256.7109,828.375 Q255.5859,828.375 254.6836,827.9297 Q253.957,827.5781 253.4414,826.8164 Q252.9375,826.0547 252.9375,825.1523 L252.9375,824.332 Q252.9375,823.3945 253.3828,822.5742 Q253.8398,821.7539 254.625,821.3203 Q255.4219,820.875 256.3125,820.875 Q256.8516,820.875 257.3203,821.0625 Q257.7891,821.25 258.1875,821.625 Z " fill="#000000"/><text fill="#000000" font-family="sans-serif" font-size="9" lengthAdjust="spacing" textLength="84" x="272.0625" y="827.9326">CreateTestControler</text><line style="stroke:#A80036;stroke-width:1.125;" x1="152.25" x2="451.5" y1="836.25" y2="836.25"/><line style="stroke:#A80036;stroke-width:1.125;" x1="152.25" x2="451.5" y1="842.25" y2="842.25"/><text fill="#000000" font-family="sans-serif" font-size="8.25" lengthAdjust="spacing" textLength="291.75" x="156" y="853.8142">+createTestType(code, description, collectingMethod, selectedCategoriesCodes)</text><text fill="#000000" font-family="sans-serif" font-size="8.25" lengthAdjust="spacing" textLength="66.75" x="156" y="864.1912">+saveTestType(tt)</text><text fill="#000000" font-family="sans-serif" font-size="8.25" lengthAdjust="spacing" textLength="60.75" x="156" y="874.5681">+getCategories()</text><!--MD5=[d0024740988d3925690046e9afae9c9c]
class TestTypeDTO--><rect codeLine="73" fill="#FEFECE" filter="url(#fnkpprewvzor6)" height="67.1309" id="TestTypeDTO" style="stroke:#A80036;stroke-width:1.125;" width="265.5" x="877.125" y="957"/><ellipse cx="978.5625" cy="969" fill="#ADD1B2" rx="8.25" ry="8.25" style="stroke:#A80036;stroke-width:0.75;"/><path d="M980.0625,966.375 Q980.2148,966 980.3906,965.8125 Q980.5664,965.625 980.7656,965.625 Q981.1172,965.625 981.3398,965.8359 Q981.5625,966.0469 981.5625,966.5391 L981.5625,967.7109 Q981.5625,968.2031 981.3516,968.4141 Q981.1406,968.625 980.8125,968.625 Q980.5195,968.625 980.332,968.4961 Q980.1445,968.3672 980.0625,968.0273 Q980.0273,967.793 979.8984,967.6641 Q979.6641,967.418 979.2422,967.2773 Q978.8203,967.125 978.3984,967.125 Q977.8711,967.125 977.4258,967.3359 Q976.9922,967.5469 976.6523,968.0156 Q976.3125,968.4844 976.3125,969.1289 L976.3125,969.8203 Q976.3125,970.5938 976.9453,971.1094 Q977.5781,971.625 978.7031,971.625 Q979.3711,971.625 979.8398,971.4727 Q980.1094,971.3906 980.4141,971.1211 Q980.6133,970.9688 980.7188,970.9219 Q980.8242,970.875 980.9531,970.875 Q981.1992,970.875 981.375,971.0742 Q981.5625,971.2617 981.5625,971.5313 Q981.5625,971.7891 981.3047,972.0938 Q980.9297,972.5391 980.332,972.7852 Q979.5469,973.125 978.5859,973.125 Q977.4609,973.125 976.5586,972.6797 Q975.832,972.3281 975.3164,971.5664 Q974.8125,970.8047 974.8125,969.9023 L974.8125,969.082 Q974.8125,968.1445 975.2578,967.3242 Q975.7148,966.5039 976.5,966.0703 Q977.2969,965.625 978.1875,965.625 Q978.7266,965.625 979.1953,965.8125 Q979.6641,966 980.0625,966.375 Z " fill="#000000"/><text fill="#000000" font-family="sans-serif" font-size="9" lengthAdjust="spacing" textLength="56.25" x="993.9375" y="972.6826">TestTypeDTO</text><line style="stroke:#A80036;stroke-width:1.125;" x1="877.875" x2="1141.875" y1="981" y2="981"/><text fill="#000000" font-family="sans-serif" font-size="8.25" lengthAdjust="spacing" textLength="21" x="881.625" y="992.5642">-code</text><text fill="#000000" font-family="sans-serif" font-size="8.25" lengthAdjust="spacing" textLength="22.5" x="881.625" y="1002.9412">-name</text><line style="stroke:#A80036;stroke-width:1.125;" x1="877.875" x2="1141.875" y1="1007.7539" y2="1007.7539"/><text fill="#000000" font-family="sans-serif" font-size="8.25" lengthAdjust="spacing" textLength="256.5" x="881.625" y="1019.3181">+CategoryDto(code, description, collectingMethod, selectedCategories)</text><!--MD5=[6ca282d596ffdf8981b3c7f53e037f13]
class CategoryDto--><rect codeLine="79" fill="#FEFECE" filter="url(#fnkpprewvzor6)" height="67.1309" id="CategoryDto" style="stroke:#A80036;stroke-width:1.125;" width="265.5" x="877.125" y="1050.75"/><ellipse cx="981.1875" cy="1062.75" fill="#ADD1B2" rx="8.25" ry="8.25" style="stroke:#A80036;stroke-width:0.75;"/><path d="M982.6875,1060.125 Q982.8398,1059.75 983.0156,1059.5625 Q983.1914,1059.375 983.3906,1059.375 Q983.7422,1059.375 983.9648,1059.5859 Q984.1875,1059.7969 984.1875,1060.2891 L984.1875,1061.4609 Q984.1875,1061.9531 983.9766,1062.1641 Q983.7656,1062.375 983.4375,1062.375 Q983.1445,1062.375 982.957,1062.2461 Q982.7695,1062.1172 982.6875,1061.7773 Q982.6523,1061.543 982.5234,1061.4141 Q982.2891,1061.168 981.8672,1061.0273 Q981.4453,1060.875 981.0234,1060.875 Q980.4961,1060.875 980.0508,1061.0859 Q979.6172,1061.2969 979.2773,1061.7656 Q978.9375,1062.2344 978.9375,1062.8789 L978.9375,1063.5703 Q978.9375,1064.3438 979.5703,1064.8594 Q980.2031,1065.375 981.3281,1065.375 Q981.9961,1065.375 982.4648,1065.2227 Q982.7344,1065.1406 983.0391,1064.8711 Q983.2383,1064.7188 983.3438,1064.6719 Q983.4492,1064.625 983.5781,1064.625 Q983.8242,1064.625 984,1064.8242 Q984.1875,1065.0117 984.1875,1065.2813 Q984.1875,1065.5391 983.9297,1065.8438 Q983.5547,1066.2891 982.957,1066.5352 Q982.1719,1066.875 981.2109,1066.875 Q980.0859,1066.875 979.1836,1066.4297 Q978.457,1066.0781 977.9414,1065.3164 Q977.4375,1064.5547 977.4375,1063.6523 L977.4375,1062.832 Q977.4375,1061.8945 977.8828,1061.0742 Q978.3398,1060.2539 979.125,1059.8203 Q979.9219,1059.375 980.8125,1059.375 Q981.3516,1059.375 981.8203,1059.5625 Q982.2891,1059.75 982.6875,1060.125 Z " fill="#000000"/><text fill="#000000" font-family="sans-serif" font-size="9" lengthAdjust="spacing" textLength="51" x="996.5625" y="1066.4326">CategoryDto</text><line style="stroke:#A80036;stroke-width:1.125;" x1="877.875" x2="1141.875" y1="1074.75" y2="1074.75"/><text fill="#000000" font-family="sans-serif" font-size="8.25" lengthAdjust="spacing" textLength="21" x="881.625" y="1086.3142">-code</text><text fill="#000000" font-family="sans-serif" font-size="8.25" lengthAdjust="spacing" textLength="22.5" x="881.625" y="1096.6912">-name</text><line style="stroke:#A80036;stroke-width:1.125;" x1="877.875" x2="1141.875" y1="1101.5039" y2="1101.5039"/><text fill="#000000" font-family="sans-serif" font-size="8.25" lengthAdjust="spacing" textLength="256.5" x="881.625" y="1113.0681">+CategoryDto(code, description, collectingMethod, selectedCategories)</text><!--MD5=[724ead17d3ca940995455a91cefd1e12]
class TestTypeMapper--><rect codeLine="88" fill="#FEFECE" filter="url(#fnkpprewvzor6)" height="56.7539" id="TestTypeMapper" style="stroke:#A80036;stroke-width:1.125;" width="259.5" x="501" y="817.5"/><ellipse cx="593.4375" cy="829.5" fill="#ADD1B2" rx="8.25" ry="8.25" style="stroke:#A80036;stroke-width:0.75;"/><path d="M594.9375,826.875 Q595.0898,826.5 595.2656,826.3125 Q595.4414,826.125 595.6406,826.125 Q595.9922,826.125 596.2148,826.3359 Q596.4375,826.5469 596.4375,827.0391 L596.4375,828.2109 Q596.4375,828.7031 596.2266,828.9141 Q596.0156,829.125 595.6875,829.125 Q595.3945,829.125 595.207,828.9961 Q595.0195,828.8672 594.9375,828.5273 Q594.9023,828.293 594.7734,828.1641 Q594.5391,827.918 594.1172,827.7773 Q593.6953,827.625 593.2734,827.625 Q592.7461,827.625 592.3008,827.8359 Q591.8672,828.0469 591.5273,828.5156 Q591.1875,828.9844 591.1875,829.6289 L591.1875,830.3203 Q591.1875,831.0938 591.8203,831.6094 Q592.4531,832.125 593.5781,832.125 Q594.2461,832.125 594.7148,831.9727 Q594.9844,831.8906 595.2891,831.6211 Q595.4883,831.4688 595.5938,831.4219 Q595.6992,831.375 595.8281,831.375 Q596.0742,831.375 596.25,831.5742 Q596.4375,831.7617 596.4375,832.0313 Q596.4375,832.2891 596.1797,832.5938 Q595.8047,833.0391 595.207,833.2852 Q594.4219,833.625 593.4609,833.625 Q592.3359,833.625 591.4336,833.1797 Q590.707,832.8281 590.1914,832.0664 Q589.6875,831.3047 589.6875,830.4023 L589.6875,829.582 Q589.6875,828.6445 590.1328,827.8242 Q590.5898,827.0039 591.375,826.5703 Q592.1719,826.125 593.0625,826.125 Q593.6016,826.125 594.0703,826.3125 Q594.5391,826.5 594.9375,826.875 Z " fill="#000000"/><text fill="#000000" font-family="sans-serif" font-size="9" lengthAdjust="spacing" textLength="68.25" x="608.8125" y="833.1826">TestTypeMapper</text><line style="stroke:#A80036;stroke-width:1.125;" x1="501.75" x2="759.75" y1="841.5" y2="841.5"/><line style="stroke:#A80036;stroke-width:1.125;" x1="501.75" x2="759.75" y1="847.5" y2="847.5"/><text fill="#000000" font-family="sans-serif" font-size="8.25" lengthAdjust="spacing" textLength="250.5" x="505.5" y="859.0642">+List&lt;CategoryDtoDto&gt; toDTO(List&lt;Parameter&gt; parameterCategories)</text><text fill="#000000" font-family="sans-serif" font-size="8.25" lengthAdjust="spacing" textLength="123.75" x="505.5" y="869.4412">+CategoryDto toDTO(Parameter tt)</text><!--MD5=[867476cd2a5db62f3ac412e45787ce2b]
class CategoryMapper--><rect codeLine="94" fill="#FEFECE" filter="url(#fnkpprewvzor6)" height="56.7539" id="CategoryMapper" style="stroke:#A80036;stroke-width:1.125;" width="259.5" x="501" y="900.75"/><ellipse cx="593.8125" cy="912.75" fill="#ADD1B2" rx="8.25" ry="8.25" style="stroke:#A80036;stroke-width:0.75;"/><path d="M595.3125,910.125 Q595.4648,909.75 595.6406,909.5625 Q595.8164,909.375 596.0156,909.375 Q596.3672,909.375 596.5898,909.5859 Q596.8125,909.7969 596.8125,910.2891 L596.8125,911.4609 Q596.8125,911.9531 596.6016,912.1641 Q596.3906,912.375 596.0625,912.375 Q595.7695,912.375 595.582,912.2461 Q595.3945,912.1172 595.3125,911.7773 Q595.2773,911.543 595.1484,911.4141 Q594.9141,911.168 594.4922,911.0273 Q594.0703,910.875 593.6484,910.875 Q593.1211,910.875 592.6758,911.0859 Q592.2422,911.2969 591.9023,911.7656 Q591.5625,912.2344 591.5625,912.8789 L591.5625,913.5703 Q591.5625,914.3438 592.1953,914.8594 Q592.8281,915.375 593.9531,915.375 Q594.6211,915.375 595.0898,915.2227 Q595.3594,915.1406 595.6641,914.8711 Q595.8633,914.7188 595.9688,914.6719 Q596.0742,914.625 596.2031,914.625 Q596.4492,914.625 596.625,914.8242 Q596.8125,915.0117 596.8125,915.2813 Q596.8125,915.5391 596.5547,915.8438 Q596.1797,916.2891 595.582,916.5352 Q594.7969,916.875 593.8359,916.875 Q592.7109,916.875 591.8086,916.4297 Q591.082,916.0781 590.5664,915.3164 Q590.0625,914.5547 590.0625,913.6523 L590.0625,912.832 Q590.0625,911.8945 590.5078,911.0742 Q590.9648,910.2539 591.75,909.8203 Q592.5469,909.375 593.4375,909.375 Q593.9766,909.375 594.4453,909.5625 Q594.9141,909.75 595.3125,910.125 Z " fill="#000000"/><text fill="#000000" font-family="sans-serif" font-size="9" lengthAdjust="spacing" textLength="67.5" x="609.1875" y="916.4326">CategoryMapper</text><line style="stroke:#A80036;stroke-width:1.125;" x1="501.75" x2="759.75" y1="924.75" y2="924.75"/><line style="stroke:#A80036;stroke-width:1.125;" x1="501.75" x2="759.75" y1="930.75" y2="930.75"/><text fill="#000000" font-family="sans-serif" font-size="8.25" lengthAdjust="spacing" textLength="250.5" x="505.5" y="942.3142">+List&lt;CategoryDtoDto&gt; toDTO(List&lt;Parameter&gt; parameterCategories)</text><text fill="#000000" font-family="sans-serif" font-size="8.25" lengthAdjust="spacing" textLength="123.75" x="505.5" y="952.6912">+CategoryDto toDTO(Parameter tt)</text><!--MD5=[a87ca41b19769012ec630dbc141b1436]
link CreateTestUI to CreateTestControler--><path codeLine="104" d="M80.79,1085.8575 C119.4525,1043.775 215.865,938.8125 267.3975,882.72 " fill="none" id="CreateTestUI-to-CreateTestControler" style="stroke:#A80036;stroke-width:0.75;stroke-dasharray:7.0,7.0;"/><polygon fill="#A80036" points="270.12,879.7575,263.3448,882.7002,267.5836,882.5196,267.7642,886.7584,270.12,879.7575" style="stroke:#A80036;stroke-width:0.75;"/><!--MD5=[3d5f36034bd05a68f42d063684fd8cdc]
link CreateTestUI to CategoryDto--><path codeLine="105" d="M102.78,1118.025 C110.6175,1120.305 118.8675,1122.3 126.75,1123.5 C413.1225,1167.0525 489.8475,1147.7325 778.5,1123.5 C809.3175,1120.9125 842.205,1116.4125 873.21,1111.3725 " fill="none" id="CreateTestUI-to-CategoryDto" style="stroke:#A80036;stroke-width:0.75;stroke-dasharray:7.0,7.0;"/><polygon fill="#A80036" points="876.9825,1110.75,869.8338,1108.8904,873.2827,1111.3613,870.8118,1114.8102,876.9825,1110.75" style="stroke:#A80036;stroke-width:0.75;"/><!--MD5=[b119393afdc8554af40a71e4d23c569f]
link CreateTestUI to TestTypeDTO--><path codeLine="106" d="M102.9,1099.935 C215.94,1087.9875 554.9025,1051.59 835.5,1015.5 C847.68,1013.9325 860.3325,1012.245 873,1010.52 " fill="none" id="CreateTestUI-to-TestTypeDTO" style="stroke:#A80036;stroke-width:0.75;stroke-dasharray:7.0,7.0;"/><polygon fill="#A80036" points="876.93,1009.98,869.8326,1007.9332,873.2154,1010.4938,870.6547,1013.8766,876.93,1009.98" style="stroke:#A80036;stroke-width:0.75;"/><!--MD5=[3d90787a6c4fcaaaef3316a8b7a2a1cb]
link CategoryMapper to CategoryDto--><path codeLine="107" d="M680.055,957.765 C721.8075,981.4125 784.1775,1014.6975 841.5,1037.25 C852.465,1041.5625 863.9775,1045.665 875.61,1049.505 " fill="none" id="CategoryMapper-to-CategoryDto" style="stroke:#A80036;stroke-width:0.75;stroke-dasharray:7.0,7.0;"/><polygon fill="#A80036" points="879.225,1050.69,873.7432,1045.739,875.6611,1049.5234,871.8767,1051.4413,879.225,1050.69" style="stroke:#A80036;stroke-width:0.75;"/><!--MD5=[5bd4c3b4d7a767e679691cce8019bfba]
link CategoryMapper to Parameter--><path codeLine="108" d="M760.6575,912.8475 C953.67,883.395 1322.58,807.5475 1584,633.75 C1640.745,596.025 1649.955,578.0625 1689.75,522.75 C1706.1975,499.89 1720.8975,471.5325 1731.03,450.0525 " fill="none" id="CategoryMapper-to-Parameter" style="stroke:#A80036;stroke-width:0.75;stroke-dasharray:7.0,7.0;"/><polygon fill="#A80036" points="1732.74,446.3925,1727.1661,451.2396,1731.1536,449.7904,1732.6028,453.7779,1732.74,446.3925" style="stroke:#A80036;stroke-width:0.75;"/><!--MD5=[a866f4e758874d18eed8ecae1602bb43]
link TestTypeMapper to TestTypeDTO--><path codeLine="109" d="M740.2575,874.5525 C753.2325,878.5425 766.23,882.8025 778.5,887.25 C832.89,906.96 892.41,933.8175 937.365,955.23 " fill="none" id="TestTypeMapper-to-TestTypeDTO" style="stroke:#A80036;stroke-width:0.75;stroke-dasharray:7.0,7.0;"/><polygon fill="#A80036" points="940.845,956.895,936.0481,951.2779,937.4615,955.2782,933.4612,956.6916,940.845,956.895" style="stroke:#A80036;stroke-width:0.75;"/><!--MD5=[a3b705e4e3f391aa28b18ef9a5fd28a9]
link TestTypeMapper to TestType--><path codeLine="110" d="M728.1825,817.4625 C762.1725,807.27 800.5875,795.5625 835.5,784.5 C1007.4675,730.005 1205.4975,663.4425 1327.8525,621.8775 " fill="none" id="TestTypeMapper-to-TestType" style="stroke:#A80036;stroke-width:0.75;stroke-dasharray:7.0,7.0;"/><polygon fill="#A80036" points="1331.445,620.655,1324.0896,619.9768,1327.8928,621.8569,1326.0127,625.6602,1331.445,620.655" style="stroke:#A80036;stroke-width:0.75;"/><!--MD5=[8f55894bbc012aa6e8bd0f9e9c1fa823]
link CreateTestControler to Company--><path codeLine="111" d="M328.0425,812.175 C388.335,731.9175 539.64,530.52 602.2275,447.2175 " fill="none" id="CreateTestControler-to-Company" style="stroke:#A80036;stroke-width:0.75;stroke-dasharray:7.0,7.0;"/><polygon fill="#A80036" points="604.5975,444.06,598.1475,447.66,602.3475,447.06,602.9475,451.26,604.5975,444.06" style="stroke:#A80036;stroke-width:0.75;"/><!--MD5=[75f1b5762c49b994a7e3ff994124fe26]
link CreateTestControler to CategoryMapper--><path codeLine="112" d="M435.5475,879.8025 C461.5425,886.4175 488.6175,893.3025 514.0125,899.76 " fill="none" id="CreateTestControler-to-CategoryMapper" style="stroke:#A80036;stroke-width:0.75;stroke-dasharray:7.0,7.0;"/><polygon fill="#A80036" points="517.7475,900.705,511.9519,896.1253,514.1145,899.7754,510.4645,901.9381,517.7475,900.705" style="stroke:#A80036;stroke-width:0.75;"/><!--MD5=[08b46ea753435d83600a12592d428521]
link CreateTestControler to CategoryDto--><path codeLine="113" d="M327.6675,879.945 C359.1,919.7475 416.9775,984.2325 483,1015.5 C606.2175,1073.865 762.8025,1087.8075 872.9925,1089.1875 " fill="none" id="CreateTestControler-to-CategoryDto" style="stroke:#A80036;stroke-width:0.75;stroke-dasharray:7.0,7.0;"/><polygon fill="#A80036" points="876.8925,1089.225,870.1685,1086.1673,873.1426,1089.1929,870.117,1092.167,876.8925,1089.225" style="stroke:#A80036;stroke-width:0.75;"/><!--MD5=[d436aa16cf3879d6ad396285eddf41c1]
link CreateTestControler to TestTypeMapper--><path codeLine="114" d="M452.4225,846 C467.1975,846 482.1225,846 496.71,846 " fill="none" id="CreateTestControler-to-TestTypeMapper" style="stroke:#A80036;stroke-width:0.75;stroke-dasharray:7.0,7.0;"/><polygon fill="#A80036" points="500.82,846,494.07,843,497.07,846,494.07,849,500.82,846" style="stroke:#A80036;stroke-width:0.75;"/><!--MD5=[a728a1c0b6f50bd0e8c130b0563a2e8d]
link CreateTestControler to TestTypeDTO--><path codeLine="115" d="M338.61,879.93 C372.795,909.75 427.1325,951.2025 483,969.75 C610.32,1012.0275 764.5725,1012.7325 873.03,1005.6375 " fill="none" id="CreateTestControler-to-TestTypeDTO" style="stroke:#A80036;stroke-width:0.75;stroke-dasharray:7.0,7.0;"/><polygon fill="#A80036" points="876.87,1005.3825,869.9373,1002.8329,873.1281,1005.6291,870.3319,1008.8199,876.87,1005.3825" style="stroke:#A80036;stroke-width:0.75;"/><!--MD5=[b89d522ccf9caf95dbbde9769ba39561]
link CreateTestControler to ParameterStore--><path codeLine="116" d="M348.8325,812.1075 C384.135,787.5075 434.76,754.9125 483,733.5 C631.905,667.4175 736.56,762.4275 835.5,633 C851.9775,611.4525 824.9475,166.245 841.5,144.75 C856.845,124.8225 879.9525,112.935 904.1475,105.975 " fill="none" id="CreateTestControler-to-ParameterStore" style="stroke:#A80036;stroke-width:0.75;stroke-dasharray:7.0,7.0;"/><polygon fill="#A80036" points="908.0325,104.895,900.7277,103.7987,904.4176,105.8926,902.3238,109.5825,908.0325,104.895" style="stroke:#A80036;stroke-width:0.75;"/><!--MD5=[3bbb6c5b03dfc4e682128937e80c1ca1]
link CreateTestControler to TestTypeStore--><path codeLine="117" d="M381.5925,812.22 C412.875,799.4325 449.3475,785.2575 483,774 C636.9825,722.49 736.0425,806.3475 835.5,678 C850.455,658.7025 826.59,257.835 841.5,238.5 C845.8575,232.8525 850.8375,227.85 856.29,223.4175 " fill="none" id="CreateTestControler-to-TestTypeStore" style="stroke:#A80036;stroke-width:0.75;stroke-dasharray:7.0,7.0;"/><polygon fill="#A80036" points="859.365,221.0175,852.2004,222.8151,856.4119,223.3287,855.8983,227.5401,859.365,221.0175" style="stroke:#A80036;stroke-width:0.75;"/><!--MD5=[0a261a9b138dfe2e0bcc9eaa6466be5e]
link CreateTestControler to TestStore--><path codeLine="118" d="M452.445,812.205 C462.78,809.9175 473.04,807.6675 483,805.5 C639.4425,771.465 733.6125,854.7525 835.5,731.25 C848.4675,715.53 830.4375,381.615 841.5,364.5 C853.26,346.3125 870.435,332.25 889.3575,321.39 " fill="none" id="CreateTestControler-to-TestStore" style="stroke:#A80036;stroke-width:0.75;stroke-dasharray:7.0,7.0;"/><polygon fill="#A80036" points="892.665,319.5375,885.3101,320.2217,889.394,321.3714,888.2443,325.4553,892.665,319.5375" style="stroke:#A80036;stroke-width:0.75;"/><!--MD5=[3eebf0e5f359806b77b30e9524c37676]
link TestTypeStore to TestType--><path codeLine="119" d="M1160.4675,223.23 C1166.9175,227.685 1172.9025,232.7475 1178.25,238.5 C1187.505,248.46 1177.8975,256.4775 1184.25,268.5 C1213.86,324.57 1255.995,313.6125 1284,370.5 C1315.5225,434.535 1261.9575,473.7375 1306.5,529.5 C1310.4975,534.51 1315.035,539.04 1319.9625,543.135 " fill="none" id="TestTypeStore-TestType" style="stroke:#A80036;stroke-width:0.75;"/><polygon fill="#000000" points="1220.4232,265.2379,1219.369,258.1833,1215.4237,260.1502,1220.4232,265.2379" style="stroke:#000000;stroke-width:0.75;"/><text fill="#000000" font-family="sans-serif" font-size="9.75" lengthAdjust="spacing" textLength="27" x="1225.5" y="265.8713">stores</text><text fill="#000000" font-family="sans-serif" font-size="9.75" lengthAdjust="spacing" textLength="5.25" x="1166.4526" y="234.818">1</text><text fill="#000000" font-family="sans-serif" font-size="9.75" lengthAdjust="spacing" textLength="3.75" x="1299.125" y="535.228">*</text><!--MD5=[b0f4f6db8206580012ef9cd998ed01c5]
link TestStore to Test--><path codeLine="120" d="M1009.875,319.6425 C1009.875,354.51 1009.875,408.2325 1009.875,440.9925 " fill="none" id="TestStore-Test" style="stroke:#A80036;stroke-width:0.75;"/><polygon fill="#000000" points="985.5,384.1318,987.7042,377.348,983.2958,377.348,985.5,384.1318" style="stroke:#000000;stroke-width:0.75;"/><text fill="#000000" font-family="sans-serif" font-size="9.75" lengthAdjust="spacing" textLength="27" x="992.25" y="384.3713">stores</text><text fill="#000000" font-family="sans-serif" font-size="9.75" lengthAdjust="spacing" textLength="5.25" x="1004.2723" y="335.1669">1</text><text fill="#000000" font-family="sans-serif" font-size="9.75" lengthAdjust="spacing" textLength="3.75" x="1005.7793" y="432.7985">*</text><!--MD5=[a0992dda039fed1bb57aff5aacace800]
link ParameterStore to Parameter--><path codeLine="121" d="M1111.53,123.69 C1133.7,129.9825 1156.92,137.13 1178.25,144.75 C1412.2575,228.3525 1479.2775,238.41 1689.75,370.5 C1698.3225,375.885 1706.9625,382.515 1714.7775,389.0925 " fill="none" id="ParameterStore-Parameter" style="stroke:#A80036;stroke-width:0.75;"/><polygon fill="#000000" points="1433.3075,184.642,1427.9857,179.8925,1426.2104,183.9277,1433.3075,184.642" style="stroke:#000000;stroke-width:0.75;"/><text fill="#000000" font-family="sans-serif" font-size="9.75" lengthAdjust="spacing" textLength="27" x="1436.625" y="187.1213">stores</text><text fill="#000000" font-family="sans-serif" font-size="9.75" lengthAdjust="spacing" textLength="5.25" x="1117.5587" y="135.6473">1</text><text fill="#000000" font-family="sans-serif" font-size="9.75" lengthAdjust="spacing" textLength="3.75" x="1705.132" y="381.0859">*</text><!--MD5=[daf3d7412afa2c7651483be0b6e971d1]
link Company to ParameterStore--><path codeLine="122" d="M648.84,376.485 C679.7175,319.7925 749.7,205.7025 841.5,144.75 C861.375,131.5575 884.9475,122.0775 908.04,115.275 " fill="none" id="Company-ParameterStore" style="stroke:#A80036;stroke-width:0.75;"/><polygon fill="#000000" points="800.2664,140.72,793.9235,143.9828,797.0527,147.0879,800.2664,140.72" style="stroke:#000000;stroke-width:0.75;"/><text fill="#000000" font-family="sans-serif" font-size="9.75" lengthAdjust="spacing" textLength="21" x="804.375" y="147.3713">uses</text><text fill="#000000" font-family="sans-serif" font-size="9.75" lengthAdjust="spacing" textLength="5.25" x="646.0547" y="368.3192">1</text><text fill="#000000" font-family="sans-serif" font-size="9.75" lengthAdjust="spacing" textLength="5.25" x="897.0773" y="126.6728">1</text><!--MD5=[141c3afa12b2b3c0a39ffce56dbd5f19]
link Company to TestTypeStore--><path codeLine="123" d="M663.975,376.2225 C702.7575,337.4925 771.2475,274.905 841.5,238.5 C850.485,233.85 859.9875,229.6125 869.715,225.7725 " fill="none" id="Company-TestTypeStore" style="stroke:#A80036;stroke-width:0.75;"/><polygon fill="#000000" points="800.652,233.4183,793.875,235.6434,796.4772,239.2019,800.652,233.4183" style="stroke:#000000;stroke-width:0.75;"/><text fill="#000000" font-family="sans-serif" font-size="9.75" lengthAdjust="spacing" textLength="21" x="804.375" y="239.6213">uses</text><text fill="#000000" font-family="sans-serif" font-size="9.75" lengthAdjust="spacing" textLength="5.25" x="663.4106" y="368.2631">1</text><text fill="#000000" font-family="sans-serif" font-size="9.75" lengthAdjust="spacing" textLength="5.25" x="847.9555" y="240.5291">1</text><!--MD5=[7f6cf7f175eae0af66201860de5de971]
link Company to TestStore--><path codeLine="124" d="M674.4525,396.09 C730.56,377.595 830.61,344.61 906.7425,319.5075 " fill="none" id="Company-TestStore" style="stroke:#A80036;stroke-width:0.75;"/><polygon fill="#000000" points="801.1864,337.2077,794.0536,337.2384,795.4339,341.4251,801.1864,337.2077" style="stroke:#000000;stroke-width:0.75;"/><text fill="#000000" font-family="sans-serif" font-size="9.75" lengthAdjust="spacing" textLength="21" x="804.375" y="342.3713">uses</text><text fill="#000000" font-family="sans-serif" font-size="9.75" lengthAdjust="spacing" textLength="5.25" x="680.3882" y="391.6689">1</text><text fill="#000000" font-family="sans-serif" font-size="9.75" lengthAdjust="spacing" textLength="5.25" x="886.6204" y="335.2642">1</text><!--MD5=[5b7a9ded131023be416e27d15bcd6d77]
link TestType to Parameter--><path codeLine="125" d="M1555.2075,543.315 C1565.085,538.9575 1574.8125,534.3375 1584,529.5 C1631.01,504.7425 1680.6075,468.66 1712.175,444.2475 " fill="none" id="TestType-Parameter" style="stroke:#A80036;stroke-width:0.75;"/><polygon fill="#000000" points="1613.4212,455.6304,1606.508,457.3871,1608.8609,461.1151,1613.4212,455.6304" style="stroke:#000000;stroke-width:0.75;"/><text fill="#000000" font-family="sans-serif" font-size="9.75" lengthAdjust="spacing" textLength="72" x="1617" y="461.6213">characterized by</text><text fill="#000000" font-family="sans-serif" font-size="9.75" lengthAdjust="spacing" textLength="5.25" x="1565.0511" y="535.1529">1</text><text fill="#000000" font-family="sans-serif" font-size="9.75" lengthAdjust="spacing" textLength="15" x="1691.3637" y="458.9746">1..*</text><!--MD5=[742a261f27a3dcd734c626287d811acd]
link Company to TestType--><path codeLine="126" d="M674.265,440.1975 C715.1625,467.1525 779.61,505.35 841.5,524.25 C996.015,571.44 1182.2325,582.795 1306.4625,584.325 " fill="none" id="Company-TestType" style="stroke:#A80036;stroke-width:0.75;"/><polygon fill="#000000" points="991.7812,518.4654,985.657,514.8084,984.6771,519.1065,991.7812,518.4654" style="stroke:#000000;stroke-width:0.75;"/><text fill="#000000" font-family="sans-serif" font-size="9.75" lengthAdjust="spacing" textLength="39.75" x="994.875" y="521.6213">conducts</text><text fill="#000000" font-family="sans-serif" font-size="9.75" lengthAdjust="spacing" textLength="5.25" x="680.1767" y="454.9652">1</text><text fill="#000000" font-family="sans-serif" font-size="9.75" lengthAdjust="spacing" textLength="3.75" x="1296.7783" y="594.7977">*</text><!--MD5=[7e4bc624457760b649895ff2ead938fa]
link Company to Test--><path codeLine="127" d="M674.4525,416.9925 C749.745,428.805 904.1625,453.03 973.7475,463.95 " fill="none" id="Company-Test" style="stroke:#A80036;stroke-width:0.75;"/><polygon fill="#000000" points="791.9547,428.9631,785.5945,425.734,784.9112,430.0892,791.9547,428.9631" style="stroke:#000000;stroke-width:0.75;"/><text fill="#000000" font-family="sans-serif" font-size="9.75" lengthAdjust="spacing" textLength="39.75" x="795" y="432.3713">conducts</text><text fill="#000000" font-family="sans-serif" font-size="9.75" lengthAdjust="spacing" textLength="5.25" x="680.3882" y="428.787">1</text><text fill="#000000" font-family="sans-serif" font-size="9.75" lengthAdjust="spacing" textLength="3.75" x="964.1784" y="474.1793">*</text><!--MD5=[12d76240d3c3c66074d4ec2ea8bf469c]
link Company to Parameter--><path codeLine="128" d="M674.4675,409.5375 C808.8075,407.4675 1232.9025,402.09 1584,410.25 C1628.4075,411.285 1679.64,413.91 1712.22,415.7625 " fill="none" id="Company-Parameter" style="stroke:#A80036;stroke-width:0.75;"/><polygon fill="#000000" points="1191.7499,399.9043,1184.9795,397.6595,1184.953,402.0678,1191.7499,399.9043" style="stroke:#000000;stroke-width:0.75;"/><text fill="#000000" font-family="sans-serif" font-size="9.75" lengthAdjust="spacing" textLength="88.5" x="1194.75" y="403.8713">capable of analysing</text><text fill="#000000" font-family="sans-serif" font-size="9.75" lengthAdjust="spacing" textLength="5.25" x="680.1155" y="406.8793">1</text><text fill="#000000" font-family="sans-serif" font-size="9.75" lengthAdjust="spacing" textLength="3.75" x="1702.5646" y="412.6031">*</text><!--MD5=[e981d4f96c4342412d1e68160b30cf70]
link Test to TestType--><path codeLine="129" d="M1046.13,478.71 C1102.4475,493.3125 1215.21,522.5475 1306.4325,546.2025 " fill="none" id="Test-TestType" style="stroke:#A80036;stroke-width:0.75;"/><polygon fill="#000000" points="1208.88,510.323,1202.8665,506.4868,1201.7601,510.754,1208.88,510.323" style="stroke:#000000;stroke-width:0.75;"/><text fill="#000000" font-family="sans-serif" font-size="9.75" lengthAdjust="spacing" textLength="54" x="1212" y="513.3713">classified as</text><text fill="#000000" font-family="sans-serif" font-size="9.75" lengthAdjust="spacing" textLength="3.75" x="1051.9687" y="491.1994">*</text><text fill="#000000" font-family="sans-serif" font-size="9.75" lengthAdjust="spacing" textLength="5.25" x="1295.2154" y="555.0669">1</text><!--MD5=[c23963f6e403fc3ebec8dae22c30ade6]
link Test to Parameter--><path codeLine="130" d="M1046.055,467.0025 C1171.0875,458.1975 1590.66,428.64 1712.0775,420.09 " fill="none" id="Test-Parameter" style="stroke:#A80036;stroke-width:0.75;"/><polygon fill="#000000" points="1400.9907,422.8684,1394.0688,421.1463,1394.3786,425.5437,1400.9907,422.8684" style="stroke:#000000;stroke-width:0.75;"/><text fill="#000000" font-family="sans-serif" font-size="9.75" lengthAdjust="spacing" textLength="92.25" x="1404" y="427.1213">requested analysis of</text><text fill="#000000" font-family="sans-serif" font-size="9.75" lengthAdjust="spacing" textLength="3.75" x="1051.8822" y="477.6992">*</text><text fill="#000000" font-family="sans-serif" font-size="9.75" lengthAdjust="spacing" textLength="15" x="1691.2525" y="431.42">1..*</text><!--MD5=[b72ac8ab7fb5921fceb5036a3902baea]
link Test to Sample--><path codeLine="131" d="M1046.13,471.465 C1130.4225,476.13 1341.195,487.785 1416.8925,491.9775 " fill="none" id="Test-Sample" style="stroke:#A80036;stroke-width:0.75;"/><polygon fill="#000000" points="1219.1193,473.589,1212.4676,471.0134,1212.2241,475.4151,1219.1193,473.589" style="stroke:#000000;stroke-width:0.75;"/><text fill="#000000" font-family="sans-serif" font-size="9.75" lengthAdjust="spacing" textLength="33.75" x="1222.125" y="477.3713">collects</text><text fill="#000000" font-family="sans-serif" font-size="9.75" lengthAdjust="spacing" textLength="5.25" x="1051.8405" y="469.0311">1</text><text fill="#000000" font-family="sans-serif" font-size="9.75" lengthAdjust="spacing" textLength="15" x="1396.1777" y="502.8433">1..*</text><!--MD5=[c7297a7684563f89b3145e8d0f6628d8]
@startuml
skinparam classAttributeIconSize 0
left to right direction


package UI <<Folder>> {
  class CreateTestUI{
  }
}


package Domain <<Folder>> {
    package Model <<Folder>> {
        class TestType {
        - code : String
        - description : String
        - collectingMethod : String
        +TestType(code, description, collectingMethod, selectedCategoriesCodes)
        }

        class Test{
        - NHSCode: String
        - code: String
        }

        class Sample{
        - barCode
        }

        class Parameter{
        - name
        - code
        }

        class Company {
        -designation : String
        +getTestTypeStore()
        +getParameterStore()
        }


    }
    package Stores <<Folder>> {
        class ParameterStore {
        +getParameterCategoriesStore()
        +getCategoriesByCode(List<String> ParameterCodes)
        +getCategoryByCode(String code)
        }

        class TestTypeStore {
        +createTestType(code, description, collectingMethod, selectedCategoriesCodes)
        +validateTestType(tt)
        +saveTestType(tt)
        }

        class TestStore {
        +createTestType(code, description, collectingMethod, selectedCategoriesCodes)
        +validateTestType(tt)
        +saveTestType(tt)
        }

    }
}

package Controller <<Folder>>{
    class CreateTestControler{
    +createTestType(code, description, collectingMethod, selectedCategoriesCodes)
    +saveTestType(tt)
    +getCategories()
    }
}

package DTO <<Folder>>{
    class TestTypeDTO {
    -code
    -name
    +CategoryDto(code, description, collectingMethod, selectedCategories)
    }

    class CategoryDto {
    -code
    -name
    +CategoryDto(code, description, collectingMethod, selectedCategories)
    }

}

package Mappers <<Folder>>{
    class TestTypeMapper {
    +List<CategoryDtoDto> toDTO(List<Parameter> parameterCategories)
    +CategoryDto toDTO(Parameter tt)
    }


    class CategoryMapper {
    +List<CategoryDtoDto> toDTO(List<Parameter> parameterCategories)
    +CategoryDto toDTO(Parameter tt)
    }

}




CreateTestUI ..> CreateTestControler
CreateTestUI ..> CategoryDto
CreateTestUI ..> TestTypeDTO
CategoryMapper ..> CategoryDto
CategoryMapper ..> Parameter
TestTypeMapper ..> TestTypeDTO
TestTypeMapper ..> TestType
CreateTestControler ..> Company
CreateTestControler ..> CategoryMapper
CreateTestControler ..> CategoryDto
CreateTestControler ..> TestTypeMapper
CreateTestControler ..> TestTypeDTO
CreateTestControler ..> ParameterStore
CreateTestControler ..> TestTypeStore
CreateTestControler ..> TestStore
TestTypeStore "1" - - "*" TestType : stores >
TestStore "1" - - "*" Test : stores >
ParameterStore "1" - - "*" Parameter : stores >
Company "1" - - "1" ParameterStore : uses >
Company "1" - - "1" TestTypeStore : uses >
Company "1" - - "1" TestStore : uses >
TestType "1" - - "1..*" Parameter : characterized by >
Company "1" - - "*" TestType : conducts >
Company "1" - - "*" Test : conducts >
Company "1" - - "*" Parameter : capable of analysing >
Test "*" - - "1" TestType : classified as >
Test "*" - - "1..*" Parameter : requested analysis of >
Test "1" - - "1..*" Sample : collects >



@enduml

PlantUML version 1.2021.00(Sun Jan 10 10:25:05 GMT 2021)
(GPL source distribution)
Java Runtime: OpenJDK Runtime Environment
JVM: OpenJDK 64-Bit Server VM
Default Encoding: Cp1252
Language: pt
Country: BR
--></g></svg>