<?xml version="1.0" encoding="UTF-8" standalone="no"?><svg xmlns="http://www.w3.org/2000/svg" xmlns:xlink="http://www.w3.org/1999/xlink" contentScriptType="application/ecmascript" contentStyleType="text/css" height="542.88px" preserveAspectRatio="none" style="width:470px;height:542px;" version="1.1" viewBox="0 0 470 542" width="470.67px" zoomAndPan="magnify"><defs><filter height="300%" id="ft87t2e0ye4y8" width="300%" x="-1" y="-1"><feGaussianBlur result="blurOut" stdDeviation="1.74"/><feColorMatrix in="blurOut" result="blurOut2" type="matrix" values="0 0 0 0 0 0 0 0 0 0 0 0 0 0 0 0 0 0 .4 0"/><feOffset dx="3.48" dy="3.48" in="blurOut2" result="blurOut3"/><feBlend in="SourceGraphic" in2="blurOut3" mode="normal"/></filter></defs><g><rect fill="#FFFFFF" filter="url(#ft87t2e0ye4y8)" height="366.202" style="stroke:#A80036;stroke-width:0.87;" width="8.7" x="49.59" y="86.6602"/><rect fill="#FFFFFF" filter="url(#ft87t2e0ye4y8)" height="26.4059" style="stroke:#A80036;stroke-width:0.87;" width="8.7" x="415.86" y="106.106"/><rect fill="#FFFFFF" filter="url(#ft87t2e0ye4y8)" height="26.4059" style="stroke:#A80036;stroke-width:0.87;" width="8.7" x="415.86" y="158.9177"/><rect fill="#FFFFFF" filter="url(#ft87t2e0ye4y8)" height="48.4617" style="stroke:#A80036;stroke-width:0.87;" width="8.7" x="415.86" y="211.7295"/><rect fill="#FFFFFF" filter="url(#ft87t2e0ye4y8)" height="54.5517" style="stroke:#A80036;stroke-width:0.87;" width="8.7" x="415.86" y="286.597"/><rect fill="#FFFFFF" filter="url(#ft87t2e0ye4y8)" height="32.4959" style="stroke:#A80036;stroke-width:0.87;" width="8.7" x="415.86" y="367.5546"/><rect fill="#FFFFFF" filter="url(#ft87t2e0ye4y8)" height="26.4059" style="stroke:#A80036;stroke-width:0.87;" width="8.7" x="415.86" y="426.4563"/><rect fill="#FFFFFF" filter="url(#ft87t2e0ye4y8)" height="68.7776" style="stroke:#000000;stroke-width:1.74;" width="449.79" x="8.7" y="224.7795"/><rect fill="#FFFFFF" filter="url(#ft87t2e0ye4y8)" height="68.7776" style="stroke:#000000;stroke-width:1.74;" width="449.79" x="8.7" y="305.737"/><line style="stroke:#A80036;stroke-width:0.87;stroke-dasharray:5.0,5.0;" x1="53.94" x2="53.94" y1="77.9602" y2="468.5222"/><line style="stroke:#A80036;stroke-width:0.87;stroke-dasharray:5.0,5.0;" x1="420.21" x2="420.21" y1="77.9602" y2="468.5222"/><text fill="#000000" font-family="sans-serif" font-size="12.18" lengthAdjust="spacing" textLength="67.86" x="17.4" y="75.2839">Receptionist</text><ellipse cx="53.94" cy="13.05" fill="#FEFECE" filter="url(#ft87t2e0ye4y8)" rx="6.96" ry="6.96" style="stroke:#A80036;stroke-width:1.74;"/><path d="M53.94,20.01 L53.94,43.5 M42.63,26.97 L65.25,26.97 M53.94,43.5 L42.63,56.55 M53.94,43.5 L65.25,56.55 " fill="none" filter="url(#ft87t2e0ye4y8)" style="stroke:#A80036;stroke-width:1.74;"/><text fill="#000000" font-family="sans-serif" font-size="12.18" lengthAdjust="spacing" textLength="67.86" x="17.4" y="480.2961">Receptionist</text><ellipse cx="53.94" cy="491.6723" fill="#FEFECE" filter="url(#ft87t2e0ye4y8)" rx="6.96" ry="6.96" style="stroke:#A80036;stroke-width:1.74;"/><path d="M53.94,498.6323 L53.94,522.1223 M42.63,505.5923 L65.25,505.5923 M53.94,522.1223 L42.63,535.1723 M53.94,522.1223 L65.25,535.1723 " fill="none" filter="url(#ft87t2e0ye4y8)" style="stroke:#A80036;stroke-width:1.74;"/><rect fill="#FEFECE" filter="url(#ft87t2e0ye4y8)" height="27.5002" style="stroke:#A80036;stroke-width:1.305;" width="55.68" x="390.63" y="46.11"/><text fill="#000000" font-family="sans-serif" font-size="12.18" lengthAdjust="spacing" textLength="43.5" x="396.72" y="64.8439">:System</text><rect fill="#FEFECE" filter="url(#ft87t2e0ye4y8)" height="27.5002" style="stroke:#A80036;stroke-width:1.305;" width="55.68" x="390.63" y="467.6522"/><text fill="#000000" font-family="sans-serif" font-size="12.18" lengthAdjust="spacing" textLength="43.5" x="396.72" y="486.3861">:System</text><rect fill="#FFFFFF" filter="url(#ft87t2e0ye4y8)" height="366.202" style="stroke:#A80036;stroke-width:0.87;" width="8.7" x="49.59" y="86.6602"/><rect fill="#FFFFFF" filter="url(#ft87t2e0ye4y8)" height="26.4059" style="stroke:#A80036;stroke-width:0.87;" width="8.7" x="415.86" y="106.106"/><rect fill="#FFFFFF" filter="url(#ft87t2e0ye4y8)" height="26.4059" style="stroke:#A80036;stroke-width:0.87;" width="8.7" x="415.86" y="158.9177"/><rect fill="#FFFFFF" filter="url(#ft87t2e0ye4y8)" height="48.4617" style="stroke:#A80036;stroke-width:0.87;" width="8.7" x="415.86" y="211.7295"/><rect fill="#FFFFFF" filter="url(#ft87t2e0ye4y8)" height="54.5517" style="stroke:#A80036;stroke-width:0.87;" width="8.7" x="415.86" y="286.597"/><rect fill="#FFFFFF" filter="url(#ft87t2e0ye4y8)" height="32.4959" style="stroke:#A80036;stroke-width:0.87;" width="8.7" x="415.86" y="367.5546"/><rect fill="#FFFFFF" filter="url(#ft87t2e0ye4y8)" height="26.4059" style="stroke:#A80036;stroke-width:0.87;" width="8.7" x="415.86" y="426.4563"/><polygon fill="#A80036" points="405.42,102.626,414.12,106.106,405.42,109.586,408.9,106.106" style="stroke:#A80036;stroke-width:0.87;"/><line style="stroke:#A80036;stroke-width:0.87;" x1="58.29" x2="410.64" y1="106.106" y2="106.106"/><text fill="#000000" font-family="sans-serif" font-size="11.31" font-weight="bold" lengthAdjust="spacing" textLength="6.09" x="64.38" y="101.8809">1</text><text fill="#000000" font-family="sans-serif" font-size="11.31" lengthAdjust="spacing" textLength="298.41" x="73.95" y="101.8809">asks to register a test to be performed to a registered client</text><polygon fill="#A80036" points="67.86,129.0319,59.16,132.5119,67.86,135.9919,64.38,132.5119" style="stroke:#A80036;stroke-width:0.87;"/><line style="stroke:#A80036;stroke-width:0.87;stroke-dasharray:2.0,2.0;" x1="62.64" x2="419.34" y1="132.5119" y2="132.5119"/><text fill="#000000" font-family="sans-serif" font-size="11.31" font-weight="bold" lengthAdjust="spacing" textLength="6.09" x="73.08" y="128.2868">2</text><text fill="#000000" font-family="sans-serif" font-size="11.31" lengthAdjust="spacing" textLength="231.42" x="82.65" y="128.2868">requests data (CitizenCardNumber, NHScode)</text><polygon fill="#A80036" points="405.42,155.4377,414.12,158.9177,405.42,162.3977,408.9,158.9177" style="stroke:#A80036;stroke-width:0.87;"/><line style="stroke:#A80036;stroke-width:0.87;" x1="58.29" x2="410.64" y1="158.9177" y2="158.9177"/><text fill="#000000" font-family="sans-serif" font-size="11.31" font-weight="bold" lengthAdjust="spacing" textLength="6.09" x="64.38" y="154.6926">3</text><text fill="#000000" font-family="sans-serif" font-size="11.31" lengthAdjust="spacing" textLength="106.14" x="73.95" y="154.6926">types requested data</text><polygon fill="#A80036" points="67.86,181.8436,59.16,185.3236,67.86,188.8036,64.38,185.3236" style="stroke:#A80036;stroke-width:0.87;"/><line style="stroke:#A80036;stroke-width:0.87;stroke-dasharray:2.0,2.0;" x1="62.64" x2="419.34" y1="185.3236" y2="185.3236"/><text fill="#000000" font-family="sans-serif" font-size="11.31" font-weight="bold" lengthAdjust="spacing" textLength="6.09" x="73.08" y="181.0985">4</text><text fill="#000000" font-family="sans-serif" font-size="11.31" lengthAdjust="spacing" textLength="223.59" x="82.65" y="181.0985">shows test types and requests to select one</text><polygon fill="#A80036" points="405.42,208.2495,414.12,211.7295,405.42,215.2095,408.9,211.7295" style="stroke:#A80036;stroke-width:0.87;"/><line style="stroke:#A80036;stroke-width:0.87;" x1="58.29" x2="410.64" y1="211.7295" y2="211.7295"/><text fill="#000000" font-family="sans-serif" font-size="11.31" font-weight="bold" lengthAdjust="spacing" textLength="6.09" x="64.38" y="207.5043">5</text><text fill="#000000" font-family="sans-serif" font-size="11.31" lengthAdjust="spacing" textLength="84.39" x="73.95" y="207.5043">selects test type</text><path d="M8.7,224.7795 L72.21,224.7795 L72.21,231.7395 L63.51,240.4395 L8.7,240.4395 L8.7,224.7795 " fill="#EEEEEE" style="stroke:#000000;stroke-width:0.87;"/><rect fill="none" height="68.7776" style="stroke:#000000;stroke-width:1.74;" width="449.79" x="8.7" y="224.7795"/><text fill="#000000" font-family="sans-serif" font-size="11.31" font-weight="bold" lengthAdjust="spacing" textLength="24.36" x="21.75" y="237.3902">loop</text><text fill="#000000" font-family="sans-serif" font-size="9.57" font-weight="bold" lengthAdjust="spacing" textLength="138.33" x="85.26" y="236.4539">[while user adds categories]</text><polygon fill="#A80036" points="67.86,256.7112,59.16,260.1912,67.86,263.6712,64.38,260.1912" style="stroke:#A80036;stroke-width:0.87;"/><line style="stroke:#A80036;stroke-width:0.87;stroke-dasharray:2.0,2.0;" x1="62.64" x2="419.34" y1="260.1912" y2="260.1912"/><text fill="#000000" font-family="sans-serif" font-size="11.31" font-weight="bold" lengthAdjust="spacing" textLength="6.09" x="73.08" y="255.9661">6</text><text fill="#000000" font-family="sans-serif" font-size="11.31" lengthAdjust="spacing" textLength="327.12" x="82.65" y="255.9661">shows categories associated with test type request to select one</text><polygon fill="#A80036" points="405.42,283.117,414.12,286.597,405.42,290.077,408.9,286.597" style="stroke:#A80036;stroke-width:0.87;"/><line style="stroke:#A80036;stroke-width:0.87;" x1="58.29" x2="410.64" y1="286.597" y2="286.597"/><text fill="#000000" font-family="sans-serif" font-size="11.31" font-weight="bold" lengthAdjust="spacing" textLength="6.09" x="64.38" y="282.3719">7</text><text fill="#000000" font-family="sans-serif" font-size="11.31" lengthAdjust="spacing" textLength="83.52" x="73.95" y="282.3719">selects category</text><path d="M8.7,305.737 L72.21,305.737 L72.21,312.697 L63.51,321.397 L8.7,321.397 L8.7,305.737 " fill="#EEEEEE" style="stroke:#000000;stroke-width:0.87;"/><rect fill="none" height="68.7776" style="stroke:#000000;stroke-width:1.74;" width="449.79" x="8.7" y="305.737"/><text fill="#000000" font-family="sans-serif" font-size="11.31" font-weight="bold" lengthAdjust="spacing" textLength="24.36" x="21.75" y="318.3478">loop</text><text fill="#000000" font-family="sans-serif" font-size="9.57" font-weight="bold" lengthAdjust="spacing" textLength="143.55" x="85.26" y="317.4115">[while user adds parameters]</text><polygon fill="#A80036" points="67.86,337.6688,59.16,341.1488,67.86,344.6288,64.38,341.1488" style="stroke:#A80036;stroke-width:0.87;"/><line style="stroke:#A80036;stroke-width:0.87;stroke-dasharray:2.0,2.0;" x1="62.64" x2="419.34" y1="341.1488" y2="341.1488"/><text fill="#000000" font-family="sans-serif" font-size="11.31" font-weight="bold" lengthAdjust="spacing" textLength="6.09" x="73.08" y="336.9236">8</text><text fill="#000000" font-family="sans-serif" font-size="11.31" lengthAdjust="spacing" textLength="267.09" x="82.65" y="336.9236">shows all parameters associated selected categories</text><polygon fill="#A80036" points="405.42,364.0746,414.12,367.5546,405.42,371.0346,408.9,367.5546" style="stroke:#A80036;stroke-width:0.87;"/><line style="stroke:#A80036;stroke-width:0.87;" x1="58.29" x2="410.64" y1="367.5546" y2="367.5546"/><text fill="#000000" font-family="sans-serif" font-size="11.31" font-weight="bold" lengthAdjust="spacing" textLength="6.09" x="64.38" y="363.3295">9</text><text fill="#000000" font-family="sans-serif" font-size="11.31" lengthAdjust="spacing" textLength="90.48" x="73.95" y="363.3295">selects parameter</text><polygon fill="#A80036" points="67.86,396.5705,59.16,400.0505,67.86,403.5305,64.38,400.0505" style="stroke:#A80036;stroke-width:0.87;"/><line style="stroke:#A80036;stroke-width:0.87;stroke-dasharray:2.0,2.0;" x1="62.64" x2="419.34" y1="400.0505" y2="400.0505"/><text fill="#000000" font-family="sans-serif" font-size="11.31" font-weight="bold" lengthAdjust="spacing" textLength="12.18" x="73.08" y="395.8254">10</text><text fill="#000000" font-family="sans-serif" font-size="11.31" lengthAdjust="spacing" textLength="215.76" x="88.74" y="395.8254">shows Test data and requests confirmation</text><polygon fill="#A80036" points="405.42,422.9763,414.12,426.4563,405.42,429.9363,408.9,426.4563" style="stroke:#A80036;stroke-width:0.87;"/><line style="stroke:#A80036;stroke-width:0.87;" x1="58.29" x2="410.64" y1="426.4563" y2="426.4563"/><text fill="#000000" font-family="sans-serif" font-size="11.31" font-weight="bold" lengthAdjust="spacing" textLength="12.18" x="64.38" y="422.2312">11</text><text fill="#000000" font-family="sans-serif" font-size="11.31" lengthAdjust="spacing" textLength="87" x="80.04" y="422.2312">confirms the data</text><polygon fill="#A80036" points="63.51,449.3822,54.81,452.8622,63.51,456.3422,60.03,452.8622" style="stroke:#A80036;stroke-width:0.87;"/><line style="stroke:#A80036;stroke-width:0.87;stroke-dasharray:2.0,2.0;" x1="58.29" x2="419.34" y1="452.8622" y2="452.8622"/><text fill="#000000" font-family="sans-serif" font-size="11.31" font-weight="bold" lengthAdjust="spacing" textLength="12.18" x="68.73" y="448.6371">12</text><text fill="#000000" font-family="sans-serif" font-size="11.31" lengthAdjust="spacing" textLength="132.24" x="84.39" y="448.6371">informs operation success</text><!--MD5=[eb5a5b03e4c0cb0f32e7dd580595a8e4]
@startuml

autonumber
actor "Receptionist" as MLT

activate MLT
MLT -> ":System" : asks to register a test to be performed to a registered client
activate ":System"
":System" - -> MLT :requests data (CitizenCardNumber, NHScode)
deactivate ":System"

MLT -> ":System" : types requested data
activate ":System"
":System" - -> MLT : shows test types and requests to select one
deactivate ":System"
MLT -> ":System" : selects test type

activate ":System"
loop while user adds categories
":System" - -> MLT : shows categories associated with test type request to select one
deactivate ":System"
MLT -> ":System" : selects category
activate ":System"
end

loop while user adds parameters
":System" - -> MLT : shows all parameters associated selected categories
deactivate ":System"
MLT -> ":System" : selects parameter
activate ":System"
end
":System" - -> MLT : shows Test data and requests confirmation
deactivate ":System"
MLT -> ":System" : confirms the data
activate ":System"
":System" - -> MLT : informs operation success
deactivate ":System"
deactivate MLT

@enduml

PlantUML version 1.2021.00(Sun Jan 10 10:25:05 GMT 2021)
(GPL source distribution)
Java Runtime: OpenJDK Runtime Environment
JVM: OpenJDK 64-Bit Server VM
Default Encoding: Cp1252
Language: pt
Country: BR
--></g></svg>