<?xml version="1.0" encoding="UTF-8" standalone="no"?><svg xmlns="http://www.w3.org/2000/svg" xmlns:xlink="http://www.w3.org/1999/xlink" contentScriptType="application/ecmascript" contentStyleType="text/css" height="1667.79px" preserveAspectRatio="none" style="width:2286px;height:1667px;" version="1.1" viewBox="0 0 2286 1667" width="2286.36px" zoomAndPan="magnify"><defs><filter height="300%" id="f5w3jtjlm831q" width="300%" x="-1" y="-1"><feGaussianBlur result="blurOut" stdDeviation="1.74"/><feColorMatrix in="blurOut" result="blurOut2" type="matrix" values="0 0 0 0 0 0 0 0 0 0 0 0 0 0 0 0 0 0 .4 0"/><feOffset dx="3.48" dy="3.48" in="blurOut2" result="blurOut3"/><feBlend in="SourceGraphic" in2="blurOut3" mode="normal"/></filter></defs><g><!--MD5=[9681dc6e01e10c6b4fe06895ae94f592]
cluster UI--><polygon fill="#FFFFFF" filter="url(#f5w3jtjlm831q)" points="13.92,1382.43,31.32,1382.43,37.41,1402.9702,133.11,1402.9702,133.11,1469.43,13.92,1469.43,13.92,1382.43" style="stroke:#000000;stroke-width:1.305;"/><line style="stroke:#000000;stroke-width:1.305;" x1="13.92" x2="37.41" y1="1402.9702" y2="1402.9702"/><text fill="#000000" font-family="sans-serif" font-size="12.18" font-weight="bold" lengthAdjust="spacing" textLength="12.18" x="17.4" y="1396.8139">UI</text><!--MD5=[121a8bf1197281ab89ed693fab589f94]
cluster Domain--><polygon fill="#FFFFFF" filter="url(#f5w3jtjlm831q)" points="672.945,5.22,723.405,5.22,729.495,25.7602,2271.57,25.7602,2271.57,750.81,672.945,750.81,672.945,5.22" style="stroke:#000000;stroke-width:1.305;"/><line style="stroke:#000000;stroke-width:1.305;" x1="672.945" x2="729.495" y1="25.7602" y2="25.7602"/><text fill="#000000" font-family="sans-serif" font-size="12.18" font-weight="bold" lengthAdjust="spacing" textLength="45.24" x="676.425" y="19.6039">Domain</text><!--MD5=[15636c1ca4a123c16a2a1a8e90aca7a9]
cluster Model--><polygon fill="#FFFFFF" filter="url(#f5w3jtjlm831q)" points="693.825,405.42,737.325,405.42,743.415,425.9602,2250.69,425.9602,2250.69,729.93,693.825,729.93,693.825,405.42" style="stroke:#000000;stroke-width:1.305;"/><line style="stroke:#000000;stroke-width:1.305;" x1="693.825" x2="743.415" y1="425.9602" y2="425.9602"/><text fill="#000000" font-family="sans-serif" font-size="12.18" font-weight="bold" lengthAdjust="spacing" textLength="38.28" x="697.305" y="419.8039">Model</text><!--MD5=[8dd535d56cd4cf7faf64fdd082ba836e]
cluster Stores--><polygon fill="#FFFFFF" filter="url(#f5w3jtjlm831q)" points="1032.255,43.5,1077.495,43.5,1083.585,64.0402,1348.065,64.0402,1348.065,384.54,1032.255,384.54,1032.255,43.5" style="stroke:#000000;stroke-width:1.305;"/><line style="stroke:#000000;stroke-width:1.305;" x1="1032.255" x2="1083.585" y1="64.0402" y2="64.0402"/><text fill="#000000" font-family="sans-serif" font-size="12.18" font-weight="bold" lengthAdjust="spacing" textLength="40.02" x="1035.735" y="57.8839">Stores</text><!--MD5=[1f2cfc53d9d308f53762fd0fcbaa4873]
cluster Controller--><polygon fill="#FFFFFF" filter="url(#f5w3jtjlm831q)" points="161.82,990.93,228.81,990.93,234.9,1011.4702,574.2,1011.4702,574.2,1138.83,161.82,1138.83,161.82,990.93" style="stroke:#000000;stroke-width:1.305;"/><line style="stroke:#000000;stroke-width:1.305;" x1="161.82" x2="234.9" y1="1011.4702" y2="1011.4702"/><text fill="#000000" font-family="sans-serif" font-size="12.18" font-weight="bold" lengthAdjust="spacing" textLength="61.77" x="165.3" y="1005.3139">Controller</text><!--MD5=[7b8bc9ee8bb84b99fb3a3f9477c19238]
cluster DTO--><polygon fill="#FFFFFF" filter="url(#f5w3jtjlm831q)" points="1019.64,1152.75,1050.09,1152.75,1056.18,1173.2902,1360.68,1173.2902,1360.68,1542.51,1019.64,1542.51,1019.64,1152.75" style="stroke:#000000;stroke-width:1.305;"/><line style="stroke:#000000;stroke-width:1.305;" x1="1019.64" x2="1056.18" y1="1173.2902" y2="1173.2902"/><text fill="#000000" font-family="sans-serif" font-size="12.18" font-weight="bold" lengthAdjust="spacing" textLength="25.23" x="1023.12" y="1167.1339">DTO</text><!--MD5=[701152d03fbf85133a1de050cfdbc7fd]
cluster Mappers--><polygon fill="#FFFFFF" filter="url(#f5w3jtjlm831q)" points="602.91,912.63,662.07,912.63,668.16,933.1702,913.5,933.1702,913.5,1217.13,602.91,1217.13,602.91,912.63" style="stroke:#000000;stroke-width:1.305;"/><line style="stroke:#000000;stroke-width:1.305;" x1="602.91" x2="668.16" y1="933.1702" y2="933.1702"/><text fill="#000000" font-family="sans-serif" font-size="12.18" font-weight="bold" lengthAdjust="spacing" textLength="53.94" x="606.39" y="927.0139">Mappers</text><!--MD5=[92f70f89e9f3cc4b172fe964212d1829]
class CreateTestUI--><rect codeLine="6" fill="#FEFECE" filter="url(#f5w3jtjlm831q)" height="41.76" id="CreateTestUI" style="stroke:#A80036;stroke-width:1.305;" width="91.35" x="27.84" y="1413.75"/><ellipse cx="40.89" cy="1427.67" fill="#ADD1B2" rx="9.57" ry="9.57" style="stroke:#A80036;stroke-width:0.87;"/><path d="M42.63,1424.625 Q42.8067,1424.19 43.0106,1423.9725 Q43.2145,1423.755 43.4456,1423.755 Q43.8534,1423.755 44.1117,1423.9997 Q44.37,1424.2444 44.37,1424.8153 L44.37,1426.1747 Q44.37,1426.7456 44.1253,1426.9903 Q43.8806,1427.235 43.5,1427.235 Q43.1602,1427.235 42.9427,1427.0855 Q42.7252,1426.9359 42.63,1426.5417 Q42.5892,1426.2698 42.4397,1426.1203 Q42.1678,1425.8348 41.6784,1425.6717 Q41.1891,1425.495 40.6997,1425.495 Q40.088,1425.495 39.5714,1425.7397 Q39.0684,1425.9844 38.6742,1426.5281 Q38.28,1427.0719 38.28,1427.8195 L38.28,1428.6216 Q38.28,1429.5188 39.0141,1430.1169 Q39.7481,1430.715 41.0531,1430.715 Q41.828,1430.715 42.3717,1430.5383 Q42.6844,1430.4431 43.0378,1430.1305 Q43.2689,1429.9538 43.3913,1429.8994 Q43.5136,1429.845 43.6631,1429.845 Q43.9486,1429.845 44.1525,1430.0761 Q44.37,1430.2936 44.37,1430.6063 Q44.37,1430.9053 44.0709,1431.2588 Q43.6359,1431.7753 42.9427,1432.0608 Q42.0319,1432.455 40.9172,1432.455 Q39.6122,1432.455 38.5655,1431.9384 Q37.7227,1431.5306 37.1245,1430.647 Q36.54,1429.7634 36.54,1428.7167 L36.54,1427.7652 Q36.54,1426.6777 37.0566,1425.7261 Q37.5867,1424.7745 38.4975,1424.2716 Q39.4219,1423.755 40.455,1423.755 Q41.0803,1423.755 41.6241,1423.9725 Q42.1678,1424.19 42.63,1424.625 Z " fill="#000000"/><text fill="#000000" font-family="sans-serif" font-size="10.44" lengthAdjust="spacing" textLength="63.51" x="53.07" y="1431.9418">CreateTestUI</text><line style="stroke:#A80036;stroke-width:1.305;" x1="28.71" x2="118.32" y1="1441.59" y2="1441.59"/><line style="stroke:#A80036;stroke-width:1.305;" x1="28.71" x2="118.32" y1="1448.55" y2="1448.55"/><!--MD5=[0f07739f46effee96e095e9c408da841]
class TestParameter--><rect codeLine="13" fill="#FEFECE" filter="url(#f5w3jtjlm831q)" height="53.7973" id="TestParameter" style="stroke:#A80036;stroke-width:1.305;" width="174" x="1516.41" y="577.68"/><ellipse cx="1564.0425" cy="591.6" fill="#ADD1B2" rx="9.57" ry="9.57" style="stroke:#A80036;stroke-width:0.87;"/><path d="M1565.7825,588.555 Q1565.9592,588.12 1566.1631,587.9025 Q1566.367,587.685 1566.5981,587.685 Q1567.0059,587.685 1567.2642,587.9297 Q1567.5225,588.1744 1567.5225,588.7453 L1567.5225,590.1047 Q1567.5225,590.6756 1567.2778,590.9203 Q1567.0331,591.165 1566.6525,591.165 Q1566.3127,591.165 1566.0952,591.0155 Q1565.8777,590.8659 1565.7825,590.4717 Q1565.7417,590.1998 1565.5922,590.0503 Q1565.3203,589.7648 1564.8309,589.6017 Q1564.3416,589.425 1563.8522,589.425 Q1563.2405,589.425 1562.7239,589.6697 Q1562.2209,589.9144 1561.8267,590.4581 Q1561.4325,591.0019 1561.4325,591.7495 L1561.4325,592.5516 Q1561.4325,593.4488 1562.1666,594.0469 Q1562.9006,594.645 1564.2056,594.645 Q1564.9805,594.645 1565.5242,594.4683 Q1565.8369,594.3731 1566.1903,594.0605 Q1566.4214,593.8838 1566.5438,593.8294 Q1566.6661,593.775 1566.8156,593.775 Q1567.1011,593.775 1567.305,594.0061 Q1567.5225,594.2236 1567.5225,594.5363 Q1567.5225,594.8353 1567.2234,595.1888 Q1566.7884,595.7053 1566.0952,595.9908 Q1565.1844,596.385 1564.0697,596.385 Q1562.7647,596.385 1561.718,595.8684 Q1560.8752,595.4606 1560.277,594.577 Q1559.6925,593.6934 1559.6925,592.6467 L1559.6925,591.6952 Q1559.6925,590.6077 1560.2091,589.6561 Q1560.7392,588.7045 1561.65,588.2016 Q1562.5744,587.685 1563.6075,587.685 Q1564.2328,587.685 1564.7766,587.9025 Q1565.3203,588.12 1565.7825,588.555 Z " fill="#000000"/><text fill="#000000" font-family="sans-serif" font-size="10.44" lengthAdjust="spacing" textLength="71.34" x="1581.8775" y="595.8718">TestParameter</text><line style="stroke:#A80036;stroke-width:1.305;" x1="1517.28" x2="1689.54" y1="605.52" y2="605.52"/><line style="stroke:#A80036;stroke-width:1.305;" x1="1517.28" x2="1689.54" y1="612.48" y2="612.48"/><text fill="#000000" font-family="sans-serif" font-size="9.57" lengthAdjust="spacing" textLength="163.56" x="1521.63" y="625.8945">+TestParameter(parameter: Parameter)</text><!--MD5=[4e608140b854dae633589343bce77383]
class TestParameterResult--><rect codeLine="16" fill="#FEFECE" filter="url(#f5w3jtjlm831q)" height="77.8718" id="TestParameterResult" style="stroke:#A80036;stroke-width:1.305;" width="130.5" x="1839.18" y="629.88"/><ellipse cx="1852.23" cy="643.8" fill="#ADD1B2" rx="9.57" ry="9.57" style="stroke:#A80036;stroke-width:0.87;"/><path d="M1853.97,640.755 Q1854.1467,640.32 1854.3506,640.1025 Q1854.5545,639.885 1854.7856,639.885 Q1855.1934,639.885 1855.4517,640.1297 Q1855.71,640.3744 1855.71,640.9453 L1855.71,642.3047 Q1855.71,642.8756 1855.4653,643.1203 Q1855.2206,643.365 1854.84,643.365 Q1854.5002,643.365 1854.2827,643.2155 Q1854.0652,643.0659 1853.97,642.6717 Q1853.9292,642.3998 1853.7797,642.2503 Q1853.5078,641.9648 1853.0184,641.8017 Q1852.5291,641.625 1852.0397,641.625 Q1851.428,641.625 1850.9114,641.8697 Q1850.4084,642.1144 1850.0142,642.6581 Q1849.62,643.2019 1849.62,643.9495 L1849.62,644.7516 Q1849.62,645.6488 1850.3541,646.2469 Q1851.0881,646.845 1852.3931,646.845 Q1853.168,646.845 1853.7117,646.6683 Q1854.0244,646.5731 1854.3778,646.2605 Q1854.6089,646.0838 1854.7313,646.0294 Q1854.8536,645.975 1855.0031,645.975 Q1855.2886,645.975 1855.4925,646.2061 Q1855.71,646.4236 1855.71,646.7363 Q1855.71,647.0353 1855.4109,647.3888 Q1854.9759,647.9053 1854.2827,648.1908 Q1853.3719,648.585 1852.2572,648.585 Q1850.9522,648.585 1849.9055,648.0684 Q1849.0627,647.6606 1848.4645,646.777 Q1847.88,645.8934 1847.88,644.8467 L1847.88,643.8952 Q1847.88,642.8077 1848.3966,641.8561 Q1848.9267,640.9045 1849.8375,640.4016 Q1850.7619,639.885 1851.795,639.885 Q1852.4203,639.885 1852.9641,640.1025 Q1853.5078,640.32 1853.97,640.755 Z " fill="#000000"/><text fill="#000000" font-family="sans-serif" font-size="10.44" lengthAdjust="spacing" textLength="102.66" x="1864.41" y="648.0718">TestParameterResult</text><line style="stroke:#A80036;stroke-width:1.305;" x1="1840.05" x2="1968.81" y1="657.72" y2="657.72"/><text fill="#000000" font-family="sans-serif" font-size="9.57" lengthAdjust="spacing" textLength="45.24" x="1844.4" y="671.1345">-createdAt</text><text fill="#000000" font-family="sans-serif" font-size="9.57" lengthAdjust="spacing" textLength="26.1" x="1844.4" y="683.1717">-value</text><text fill="#000000" font-family="sans-serif" font-size="9.57" lengthAdjust="spacing" textLength="28.71" x="1844.4" y="695.209">-metric</text><line style="stroke:#A80036;stroke-width:1.305;" x1="1840.05" x2="1968.81" y1="700.7918" y2="700.7918"/><!--MD5=[aeb3272166074d8737a70b61b1e71682]
class TestType--><rect codeLine="21" fill="#FEFECE" filter="url(#f5w3jtjlm831q)" height="77.8718" id="TestType" style="stroke:#A80036;stroke-width:1.305;" width="115.71" x="1545.555" y="436.74"/><ellipse cx="1578.5715" cy="450.66" fill="#ADD1B2" rx="9.57" ry="9.57" style="stroke:#A80036;stroke-width:0.87;"/><path d="M1580.3115,447.615 Q1580.4882,447.18 1580.6921,446.9625 Q1580.896,446.745 1581.1271,446.745 Q1581.5349,446.745 1581.7932,446.9897 Q1582.0515,447.2344 1582.0515,447.8053 L1582.0515,449.1647 Q1582.0515,449.7356 1581.8068,449.9803 Q1581.5621,450.225 1581.1815,450.225 Q1580.8417,450.225 1580.6242,450.0755 Q1580.4067,449.9259 1580.3115,449.5317 Q1580.2707,449.2598 1580.1212,449.1103 Q1579.8493,448.8248 1579.3599,448.6617 Q1578.8706,448.485 1578.3812,448.485 Q1577.7695,448.485 1577.2529,448.7297 Q1576.7499,448.9744 1576.3557,449.5181 Q1575.9615,450.0619 1575.9615,450.8095 L1575.9615,451.6116 Q1575.9615,452.5088 1576.6956,453.1069 Q1577.4296,453.705 1578.7346,453.705 Q1579.5095,453.705 1580.0532,453.5283 Q1580.3659,453.4331 1580.7193,453.1205 Q1580.9504,452.9438 1581.0728,452.8894 Q1581.1951,452.835 1581.3446,452.835 Q1581.6301,452.835 1581.834,453.0661 Q1582.0515,453.2836 1582.0515,453.5963 Q1582.0515,453.8953 1581.7524,454.2488 Q1581.3174,454.7653 1580.6242,455.0508 Q1579.7134,455.445 1578.5987,455.445 Q1577.2937,455.445 1576.247,454.9284 Q1575.4042,454.5206 1574.806,453.637 Q1574.2215,452.7534 1574.2215,451.7067 L1574.2215,450.7552 Q1574.2215,449.6677 1574.7381,448.7161 Q1575.2682,447.7645 1576.179,447.2616 Q1577.1034,446.745 1578.1365,446.745 Q1578.7618,446.745 1579.3056,446.9625 Q1579.8493,447.18 1580.3115,447.615 Z " fill="#000000"/><text fill="#000000" font-family="sans-serif" font-size="10.44" lengthAdjust="spacing" textLength="43.5" x="1595.1885" y="454.9318">TestType</text><line style="stroke:#A80036;stroke-width:1.305;" x1="1546.425" x2="1660.395" y1="464.58" y2="464.58"/><text fill="#000000" font-family="sans-serif" font-size="9.57" lengthAdjust="spacing" textLength="56.55" x="1550.775" y="477.9945">-code : String</text><text fill="#000000" font-family="sans-serif" font-size="9.57" lengthAdjust="spacing" textLength="81.78" x="1550.775" y="490.0317">-description : String</text><text fill="#000000" font-family="sans-serif" font-size="9.57" lengthAdjust="spacing" textLength="105.27" x="1550.775" y="502.069">-collectingMethod : String</text><line style="stroke:#A80036;stroke-width:1.305;" x1="1546.425" x2="1660.395" y1="507.6518" y2="507.6518"/><!--MD5=[df38be88ccee13e832d6fafd6288a4ca]
class Test--><rect codeLine="27" fill="#FEFECE" filter="url(#f5w3jtjlm831q)" height="65.8345" id="Test" style="stroke:#A80036;stroke-width:1.305;" width="83.52" x="1148.4" y="568.98"/><ellipse cx="1177.11" cy="582.9" fill="#ADD1B2" rx="9.57" ry="9.57" style="stroke:#A80036;stroke-width:0.87;"/><path d="M1178.85,579.855 Q1179.0267,579.42 1179.2306,579.2025 Q1179.4345,578.985 1179.6656,578.985 Q1180.0734,578.985 1180.3317,579.2297 Q1180.59,579.4744 1180.59,580.0453 L1180.59,581.4047 Q1180.59,581.9756 1180.3453,582.2203 Q1180.1006,582.465 1179.72,582.465 Q1179.3802,582.465 1179.1627,582.3155 Q1178.9452,582.1659 1178.85,581.7717 Q1178.8092,581.4998 1178.6597,581.3503 Q1178.3878,581.0648 1177.8984,580.9017 Q1177.4091,580.725 1176.9197,580.725 Q1176.308,580.725 1175.7914,580.9697 Q1175.2884,581.2144 1174.8942,581.7581 Q1174.5,582.3019 1174.5,583.0495 L1174.5,583.8516 Q1174.5,584.7488 1175.2341,585.3469 Q1175.9681,585.945 1177.2731,585.945 Q1178.048,585.945 1178.5917,585.7683 Q1178.9044,585.6731 1179.2578,585.3605 Q1179.4889,585.1838 1179.6113,585.1294 Q1179.7336,585.075 1179.8831,585.075 Q1180.1686,585.075 1180.3725,585.3061 Q1180.59,585.5236 1180.59,585.8363 Q1180.59,586.1353 1180.2909,586.4888 Q1179.8559,587.0053 1179.1627,587.2908 Q1178.2519,587.685 1177.1372,587.685 Q1175.8322,587.685 1174.7855,587.1684 Q1173.9427,586.7606 1173.3445,585.877 Q1172.76,584.9934 1172.76,583.9467 L1172.76,582.9952 Q1172.76,581.9077 1173.2766,580.9561 Q1173.8067,580.0045 1174.7175,579.5016 Q1175.6419,578.985 1176.675,578.985 Q1177.3003,578.985 1177.8441,579.2025 Q1178.3878,579.42 1178.85,579.855 Z " fill="#000000"/><text fill="#000000" font-family="sans-serif" font-size="10.44" lengthAdjust="spacing" textLength="20.88" x="1192.77" y="587.1718">Test</text><line style="stroke:#A80036;stroke-width:1.305;" x1="1149.27" x2="1231.05" y1="596.82" y2="596.82"/><text fill="#000000" font-family="sans-serif" font-size="9.57" lengthAdjust="spacing" textLength="73.08" x="1153.62" y="610.2345">-NHSCode: String</text><text fill="#000000" font-family="sans-serif" font-size="9.57" lengthAdjust="spacing" textLength="53.94" x="1153.62" y="622.2717">-code: String</text><line style="stroke:#A80036;stroke-width:1.305;" x1="1149.27" x2="1231.05" y1="627.8545" y2="627.8545"/><!--MD5=[9681492165142af2a4a3a169d90ee8d4]
class Sample--><rect codeLine="32" fill="#FEFECE" filter="url(#f5w3jtjlm831q)" height="53.7973" id="Sample" style="stroke:#A80036;stroke-width:1.305;" width="65.25" x="1570.785" y="662.07"/><ellipse cx="1583.835" cy="675.99" fill="#ADD1B2" rx="9.57" ry="9.57" style="stroke:#A80036;stroke-width:0.87;"/><path d="M1585.575,672.945 Q1585.7517,672.51 1585.9556,672.2925 Q1586.1595,672.075 1586.3906,672.075 Q1586.7984,672.075 1587.0567,672.3197 Q1587.315,672.5644 1587.315,673.1353 L1587.315,674.4947 Q1587.315,675.0656 1587.0703,675.3103 Q1586.8256,675.555 1586.445,675.555 Q1586.1052,675.555 1585.8877,675.4055 Q1585.6702,675.2559 1585.575,674.8617 Q1585.5342,674.5898 1585.3847,674.4403 Q1585.1128,674.1548 1584.6234,673.9917 Q1584.1341,673.815 1583.6447,673.815 Q1583.033,673.815 1582.5164,674.0597 Q1582.0134,674.3044 1581.6192,674.8481 Q1581.225,675.3919 1581.225,676.1395 L1581.225,676.9416 Q1581.225,677.8388 1581.9591,678.4369 Q1582.6931,679.035 1583.9981,679.035 Q1584.773,679.035 1585.3167,678.8583 Q1585.6294,678.7631 1585.9828,678.4505 Q1586.2139,678.2738 1586.3363,678.2194 Q1586.4586,678.165 1586.6081,678.165 Q1586.8936,678.165 1587.0975,678.3961 Q1587.315,678.6136 1587.315,678.9263 Q1587.315,679.2253 1587.0159,679.5788 Q1586.5809,680.0953 1585.8877,680.3808 Q1584.9769,680.775 1583.8622,680.775 Q1582.5572,680.775 1581.5105,680.2584 Q1580.6677,679.8506 1580.0695,678.967 Q1579.485,678.0834 1579.485,677.0367 L1579.485,676.0852 Q1579.485,674.9977 1580.0016,674.0461 Q1580.5317,673.0945 1581.4425,672.5916 Q1582.3669,672.075 1583.4,672.075 Q1584.0253,672.075 1584.5691,672.2925 Q1585.1128,672.51 1585.575,672.945 Z " fill="#000000"/><text fill="#000000" font-family="sans-serif" font-size="10.44" lengthAdjust="spacing" textLength="37.41" x="1596.015" y="680.2618">Sample</text><line style="stroke:#A80036;stroke-width:1.305;" x1="1571.655" x2="1635.165" y1="689.91" y2="689.91"/><text fill="#000000" font-family="sans-serif" font-size="9.57" lengthAdjust="spacing" textLength="39.15" x="1576.005" y="703.3245">-barCode</text><line style="stroke:#A80036;stroke-width:1.305;" x1="1571.655" x2="1635.165" y1="708.9073" y2="708.9073"/><!--MD5=[1f6362a5c8f21d8d6a0fce68f3a92a4e]
class Parameter--><rect codeLine="36" fill="#FEFECE" filter="url(#f5w3jtjlm831q)" height="77.8718" id="Parameter" style="stroke:#A80036;stroke-width:1.305;" width="78.3" x="1865.28" y="521.13"/><ellipse cx="1878.33" cy="535.05" fill="#ADD1B2" rx="9.57" ry="9.57" style="stroke:#A80036;stroke-width:0.87;"/><path d="M1880.07,532.005 Q1880.2467,531.57 1880.4506,531.3525 Q1880.6545,531.135 1880.8856,531.135 Q1881.2934,531.135 1881.5517,531.3797 Q1881.81,531.6244 1881.81,532.1953 L1881.81,533.5547 Q1881.81,534.1256 1881.5653,534.3703 Q1881.3206,534.615 1880.94,534.615 Q1880.6002,534.615 1880.3827,534.4655 Q1880.1652,534.3159 1880.07,533.9217 Q1880.0292,533.6498 1879.8797,533.5003 Q1879.6078,533.2148 1879.1184,533.0517 Q1878.6291,532.875 1878.1397,532.875 Q1877.528,532.875 1877.0114,533.1197 Q1876.5084,533.3644 1876.1142,533.9081 Q1875.72,534.4519 1875.72,535.1995 L1875.72,536.0016 Q1875.72,536.8988 1876.4541,537.4969 Q1877.1881,538.095 1878.4931,538.095 Q1879.268,538.095 1879.8117,537.9183 Q1880.1244,537.8231 1880.4778,537.5105 Q1880.7089,537.3338 1880.8313,537.2794 Q1880.9536,537.225 1881.1031,537.225 Q1881.3886,537.225 1881.5925,537.4561 Q1881.81,537.6736 1881.81,537.9863 Q1881.81,538.2853 1881.5109,538.6388 Q1881.0759,539.1553 1880.3827,539.4408 Q1879.4719,539.835 1878.3572,539.835 Q1877.0522,539.835 1876.0055,539.3184 Q1875.1627,538.9106 1874.5645,538.027 Q1873.98,537.1434 1873.98,536.0967 L1873.98,535.1452 Q1873.98,534.0577 1874.4966,533.1061 Q1875.0267,532.1545 1875.9375,531.6516 Q1876.8619,531.135 1877.895,531.135 Q1878.5203,531.135 1879.0641,531.3525 Q1879.6078,531.57 1880.07,532.005 Z " fill="#000000"/><text fill="#000000" font-family="sans-serif" font-size="10.44" lengthAdjust="spacing" textLength="50.46" x="1890.51" y="539.3218">Parameter</text><line style="stroke:#A80036;stroke-width:1.305;" x1="1866.15" x2="1942.71" y1="548.97" y2="548.97"/><text fill="#000000" font-family="sans-serif" font-size="9.57" lengthAdjust="spacing" textLength="24.36" x="1870.5" y="562.3845">-code</text><text fill="#000000" font-family="sans-serif" font-size="9.57" lengthAdjust="spacing" textLength="48.72" x="1870.5" y="574.4217">-shortName</text><text fill="#000000" font-family="sans-serif" font-size="9.57" lengthAdjust="spacing" textLength="49.59" x="1870.5" y="586.459">-description</text><line style="stroke:#A80036;stroke-width:1.305;" x1="1866.15" x2="1942.71" y1="592.0418" y2="592.0418"/><!--MD5=[02e4b9b7573f1156f41e60aa5b4e25a4]
class Company--><rect codeLine="42" fill="#FEFECE" filter="url(#f5w3jtjlm831q)" height="89.9091" id="Company" style="stroke:#A80036;stroke-width:1.305;" width="100.92" x="707.745" y="437.175"/><ellipse cx="732.9315" cy="451.095" fill="#ADD1B2" rx="9.57" ry="9.57" style="stroke:#A80036;stroke-width:0.87;"/><path d="M734.6715,448.05 Q734.8482,447.615 735.0521,447.3975 Q735.256,447.18 735.4871,447.18 Q735.8949,447.18 736.1532,447.4247 Q736.4115,447.6694 736.4115,448.2403 L736.4115,449.5997 Q736.4115,450.1706 736.1668,450.4153 Q735.9221,450.66 735.5415,450.66 Q735.2017,450.66 734.9842,450.5105 Q734.7667,450.3609 734.6715,449.9667 Q734.6307,449.6948 734.4812,449.5453 Q734.2093,449.2598 733.7199,449.0967 Q733.2306,448.92 732.7412,448.92 Q732.1295,448.92 731.6129,449.1647 Q731.1099,449.4094 730.7157,449.9531 Q730.3215,450.4969 730.3215,451.2445 L730.3215,452.0466 Q730.3215,452.9438 731.0556,453.5419 Q731.7896,454.14 733.0946,454.14 Q733.8695,454.14 734.4132,453.9633 Q734.7259,453.8681 735.0793,453.5555 Q735.3104,453.3788 735.4328,453.3244 Q735.5551,453.27 735.7046,453.27 Q735.9901,453.27 736.194,453.5011 Q736.4115,453.7186 736.4115,454.0313 Q736.4115,454.3303 736.1124,454.6838 Q735.6774,455.2003 734.9842,455.4858 Q734.0734,455.88 732.9587,455.88 Q731.6537,455.88 730.607,455.3634 Q729.7642,454.9556 729.166,454.072 Q728.5815,453.1884 728.5815,452.1417 L728.5815,451.1902 Q728.5815,450.1027 729.0981,449.1511 Q729.6282,448.1995 730.539,447.6966 Q731.4634,447.18 732.4965,447.18 Q733.1218,447.18 733.6656,447.3975 Q734.2093,447.615 734.6715,448.05 Z " fill="#000000"/><text fill="#000000" font-family="sans-serif" font-size="10.44" lengthAdjust="spacing" textLength="46.11" x="747.8085" y="455.3668">Company</text><line style="stroke:#A80036;stroke-width:1.305;" x1="708.615" x2="807.795" y1="465.015" y2="465.015"/><text fill="#000000" font-family="sans-serif" font-size="9.57" lengthAdjust="spacing" textLength="83.52" x="712.965" y="478.4295">-designation : String</text><line style="stroke:#A80036;stroke-width:1.305;" x1="708.615" x2="807.795" y1="484.0123" y2="484.0123"/><text fill="#000000" font-family="sans-serif" font-size="9.57" lengthAdjust="spacing" textLength="87" x="712.965" y="497.4267">+getTestTypeStore()</text><text fill="#000000" font-family="sans-serif" font-size="9.57" lengthAdjust="spacing" textLength="90.48" x="712.965" y="509.464">+getParameterStore()</text><text fill="#000000" font-family="sans-serif" font-size="9.57" lengthAdjust="spacing" textLength="66.12" x="712.965" y="521.5013">+getTestStore()</text><!--MD5=[36afb6bbd95a8ac778c4537c55a683d5]
class ParameterCategory--><rect codeLine="49" fill="#FEFECE" filter="url(#f5w3jtjlm831q)" height="65.8345" id="ParameterCategory" style="stroke:#A80036;stroke-width:1.305;" width="120.93" x="2115.84" y="527.22"/><ellipse cx="2128.89" cy="541.14" fill="#ADD1B2" rx="9.57" ry="9.57" style="stroke:#A80036;stroke-width:0.87;"/><path d="M2130.63,538.095 Q2130.8067,537.66 2131.0106,537.4425 Q2131.2145,537.225 2131.4456,537.225 Q2131.8534,537.225 2132.1117,537.4697 Q2132.37,537.7144 2132.37,538.2853 L2132.37,539.6447 Q2132.37,540.2156 2132.1253,540.4603 Q2131.8806,540.705 2131.5,540.705 Q2131.1602,540.705 2130.9427,540.5555 Q2130.7252,540.4059 2130.63,540.0117 Q2130.5892,539.7398 2130.4397,539.5903 Q2130.1678,539.3048 2129.6784,539.1417 Q2129.1891,538.965 2128.6997,538.965 Q2128.088,538.965 2127.5714,539.2097 Q2127.0684,539.4544 2126.6742,539.9981 Q2126.28,540.5419 2126.28,541.2895 L2126.28,542.0916 Q2126.28,542.9888 2127.0141,543.5869 Q2127.7481,544.185 2129.0531,544.185 Q2129.828,544.185 2130.3717,544.0083 Q2130.6844,543.9131 2131.0378,543.6005 Q2131.2689,543.4238 2131.3913,543.3694 Q2131.5136,543.315 2131.6631,543.315 Q2131.9486,543.315 2132.1525,543.5461 Q2132.37,543.7636 2132.37,544.0763 Q2132.37,544.3753 2132.0709,544.7288 Q2131.6359,545.2453 2130.9427,545.5308 Q2130.0319,545.925 2128.9172,545.925 Q2127.6122,545.925 2126.5655,545.4084 Q2125.7227,545.0006 2125.1245,544.117 Q2124.54,543.2334 2124.54,542.1867 L2124.54,541.2352 Q2124.54,540.1477 2125.0566,539.1961 Q2125.5867,538.2445 2126.4975,537.7416 Q2127.4219,537.225 2128.455,537.225 Q2129.0803,537.225 2129.6241,537.4425 Q2130.1678,537.66 2130.63,538.095 Z " fill="#000000"/><text fill="#000000" font-family="sans-serif" font-size="10.44" lengthAdjust="spacing" textLength="93.09" x="2141.07" y="545.4118">ParameterCategory</text><line style="stroke:#A80036;stroke-width:1.305;" x1="2116.71" x2="2235.9" y1="555.06" y2="555.06"/><text fill="#000000" font-family="sans-serif" font-size="9.57" lengthAdjust="spacing" textLength="24.36" x="2121.06" y="568.4745">-code</text><text fill="#000000" font-family="sans-serif" font-size="9.57" lengthAdjust="spacing" textLength="26.1" x="2121.06" y="580.5117">-name</text><line style="stroke:#A80036;stroke-width:1.305;" x1="2116.71" x2="2235.9" y1="586.0945" y2="586.0945"/><!--MD5=[ed6624c6556d5e7b1bd23032162d20b7]
class Client--><rect codeLine="53" fill="#FEFECE" filter="url(#f5w3jtjlm831q)" height="138.0581" id="Client" style="stroke:#A80036;stroke-width:1.305;" width="79.17" x="718.62" y="565.065"/><ellipse cx="742.2405" cy="578.985" fill="#ADD1B2" rx="9.57" ry="9.57" style="stroke:#A80036;stroke-width:0.87;"/><path d="M743.9805,575.94 Q744.1572,575.505 744.3611,575.2875 Q744.565,575.07 744.7961,575.07 Q745.2039,575.07 745.4622,575.3147 Q745.7205,575.5594 745.7205,576.1303 L745.7205,577.4897 Q745.7205,578.0606 745.4758,578.3053 Q745.2311,578.55 744.8505,578.55 Q744.5107,578.55 744.2932,578.4005 Q744.0757,578.2509 743.9805,577.8567 Q743.9397,577.5848 743.7902,577.4353 Q743.5183,577.1498 743.0289,576.9867 Q742.5396,576.81 742.0502,576.81 Q741.4385,576.81 740.9219,577.0547 Q740.4189,577.2994 740.0247,577.8431 Q739.6305,578.3869 739.6305,579.1345 L739.6305,579.9366 Q739.6305,580.8338 740.3646,581.4319 Q741.0986,582.03 742.4036,582.03 Q743.1785,582.03 743.7222,581.8533 Q744.0349,581.7581 744.3883,581.4455 Q744.6194,581.2688 744.7418,581.2144 Q744.8641,581.16 745.0136,581.16 Q745.2991,581.16 745.503,581.3911 Q745.7205,581.6086 745.7205,581.9213 Q745.7205,582.2203 745.4214,582.5738 Q744.9864,583.0903 744.2932,583.3758 Q743.3824,583.77 742.2677,583.77 Q740.9627,583.77 739.916,583.2534 Q739.0732,582.8456 738.475,581.962 Q737.8905,581.0784 737.8905,580.0317 L737.8905,579.0802 Q737.8905,577.9927 738.4071,577.0411 Q738.9372,576.0895 739.848,575.5866 Q740.7724,575.07 741.8055,575.07 Q742.4308,575.07 742.9746,575.2875 Q743.5183,575.505 743.9805,575.94 Z " fill="#000000"/><text fill="#000000" font-family="sans-serif" font-size="10.44" lengthAdjust="spacing" textLength="27.84" x="756.7695" y="583.2568">Client</text><line style="stroke:#A80036;stroke-width:1.305;" x1="719.49" x2="796.92" y1="592.905" y2="592.905"/><text fill="#000000" font-family="sans-serif" font-size="9.57" lengthAdjust="spacing" textLength="26.1" x="723.84" y="606.3195">-name</text><text fill="#000000" font-family="sans-serif" font-size="9.57" lengthAdjust="spacing" textLength="68.73" x="723.84" y="618.3567">-citizenCardNum</text><text fill="#000000" font-family="sans-serif" font-size="9.57" lengthAdjust="spacing" textLength="37.41" x="723.84" y="630.394">-nhsNum</text><text fill="#000000" font-family="sans-serif" font-size="9.57" lengthAdjust="spacing" textLength="40.89" x="723.84" y="642.4313">-birthDate</text><text fill="#000000" font-family="sans-serif" font-size="9.57" lengthAdjust="spacing" textLength="19.14" x="723.84" y="654.4685">-sex</text><text fill="#000000" font-family="sans-serif" font-size="9.57" lengthAdjust="spacing" textLength="41.76" x="723.84" y="666.5058">-taxIdNum</text><text fill="#000000" font-family="sans-serif" font-size="9.57" lengthAdjust="spacing" textLength="47.85" x="723.84" y="678.5431">-phoneNum</text><text fill="#000000" font-family="sans-serif" font-size="9.57" lengthAdjust="spacing" textLength="24.36" x="723.84" y="690.5803">-email</text><line style="stroke:#A80036;stroke-width:1.305;" x1="719.49" x2="796.92" y1="696.1631" y2="696.1631"/><!--MD5=[be7802b157a16874d39c59ca0e2b25be]
class ParameterStore--><rect codeLine="66" fill="#FEFECE" filter="url(#f5w3jtjlm831q)" height="65.8345" id="ParameterStore" style="stroke:#A80036;stroke-width:1.305;" width="283.62" x="1048.35" y="74.82"/><ellipse cx="1148.6175" cy="88.74" fill="#ADD1B2" rx="9.57" ry="9.57" style="stroke:#A80036;stroke-width:0.87;"/><path d="M1150.3575,85.695 Q1150.5342,85.26 1150.7381,85.0425 Q1150.942,84.825 1151.1731,84.825 Q1151.5809,84.825 1151.8392,85.0697 Q1152.0975,85.3144 1152.0975,85.8853 L1152.0975,87.2447 Q1152.0975,87.8156 1151.8528,88.0603 Q1151.6081,88.305 1151.2275,88.305 Q1150.8877,88.305 1150.6702,88.1555 Q1150.4527,88.0059 1150.3575,87.6117 Q1150.3167,87.3398 1150.1672,87.1903 Q1149.8953,86.9048 1149.4059,86.7417 Q1148.9166,86.565 1148.4272,86.565 Q1147.8155,86.565 1147.2989,86.8097 Q1146.7959,87.0544 1146.4017,87.5981 Q1146.0075,88.1419 1146.0075,88.8895 L1146.0075,89.6916 Q1146.0075,90.5888 1146.7416,91.1869 Q1147.4756,91.785 1148.7806,91.785 Q1149.5555,91.785 1150.0992,91.6083 Q1150.4119,91.5131 1150.7653,91.2005 Q1150.9964,91.0237 1151.1188,90.9694 Q1151.2411,90.915 1151.3906,90.915 Q1151.6761,90.915 1151.88,91.1461 Q1152.0975,91.3636 1152.0975,91.6763 Q1152.0975,91.9753 1151.7984,92.3288 Q1151.3634,92.8453 1150.6702,93.1308 Q1149.7594,93.525 1148.6447,93.525 Q1147.3397,93.525 1146.293,93.0084 Q1145.4502,92.6006 1144.852,91.717 Q1144.2675,90.8334 1144.2675,89.7867 L1144.2675,88.8352 Q1144.2675,87.7477 1144.7841,86.7961 Q1145.3142,85.8445 1146.225,85.3416 Q1147.1494,84.825 1148.1825,84.825 Q1148.8078,84.825 1149.3516,85.0425 Q1149.8953,85.26 1150.3575,85.695 Z " fill="#000000"/><text fill="#000000" font-family="sans-serif" font-size="10.44" lengthAdjust="spacing" textLength="75.69" x="1166.4525" y="93.0118">ParameterStore</text><line style="stroke:#A80036;stroke-width:1.305;" x1="1049.22" x2="1331.1" y1="102.66" y2="102.66"/><line style="stroke:#A80036;stroke-width:1.305;" x1="1049.22" x2="1331.1" y1="109.62" y2="109.62"/><text fill="#000000" font-family="sans-serif" font-size="9.57" lengthAdjust="spacing" textLength="273.18" x="1053.57" y="123.0345">+getParamsByCategories(List&lt;String&gt; selectedCategoriesCodes)</text><text fill="#000000" font-family="sans-serif" font-size="9.57" lengthAdjust="spacing" textLength="170.52" x="1053.57" y="135.0717">+getParamsByCategory(String category)</text><!--MD5=[6ba72ddf03822b91e8d41ca71de58ed3]
class TestTypeStore--><rect codeLine="71" fill="#FEFECE" filter="url(#f5w3jtjlm831q)" height="77.8718" id="TestTypeStore" style="stroke:#A80036;stroke-width:1.305;" width="276.66" x="1051.83" y="171.39"/><ellipse cx="1152.0975" cy="185.31" fill="#ADD1B2" rx="9.57" ry="9.57" style="stroke:#A80036;stroke-width:0.87;"/><path d="M1153.8375,182.265 Q1154.0142,181.83 1154.2181,181.6125 Q1154.422,181.395 1154.6531,181.395 Q1155.0609,181.395 1155.3192,181.6397 Q1155.5775,181.8844 1155.5775,182.4553 L1155.5775,183.8147 Q1155.5775,184.3856 1155.3328,184.6303 Q1155.0881,184.875 1154.7075,184.875 Q1154.3677,184.875 1154.1502,184.7255 Q1153.9327,184.5759 1153.8375,184.1817 Q1153.7967,183.9098 1153.6472,183.7603 Q1153.3753,183.4748 1152.8859,183.3117 Q1152.3966,183.135 1151.9072,183.135 Q1151.2955,183.135 1150.7789,183.3797 Q1150.2759,183.6244 1149.8817,184.1681 Q1149.4875,184.7119 1149.4875,185.4595 L1149.4875,186.2616 Q1149.4875,187.1588 1150.2216,187.7569 Q1150.9556,188.355 1152.2606,188.355 Q1153.0355,188.355 1153.5792,188.1783 Q1153.8919,188.0831 1154.2453,187.7705 Q1154.4764,187.5938 1154.5987,187.5394 Q1154.7211,187.485 1154.8706,187.485 Q1155.1561,187.485 1155.36,187.7161 Q1155.5775,187.9336 1155.5775,188.2463 Q1155.5775,188.5453 1155.2784,188.8988 Q1154.8434,189.4153 1154.1502,189.7008 Q1153.2394,190.095 1152.1247,190.095 Q1150.8197,190.095 1149.773,189.5784 Q1148.9302,189.1706 1148.332,188.287 Q1147.7475,187.4034 1147.7475,186.3567 L1147.7475,185.4052 Q1147.7475,184.3177 1148.2641,183.3661 Q1148.7942,182.4145 1149.705,181.9116 Q1150.6294,181.395 1151.6625,181.395 Q1152.2878,181.395 1152.8316,181.6125 Q1153.3753,181.83 1153.8375,182.265 Z " fill="#000000"/><text fill="#000000" font-family="sans-serif" font-size="10.44" lengthAdjust="spacing" textLength="68.73" x="1169.9325" y="189.5818">TestTypeStore</text><line style="stroke:#A80036;stroke-width:1.305;" x1="1052.7" x2="1327.62" y1="199.23" y2="199.23"/><line style="stroke:#A80036;stroke-width:1.305;" x1="1052.7" x2="1327.62" y1="206.19" y2="206.19"/><text fill="#000000" font-family="sans-serif" font-size="9.57" lengthAdjust="spacing" textLength="69.6" x="1057.05" y="219.6045">+getTestTypes()</text><text fill="#000000" font-family="sans-serif" font-size="9.57" lengthAdjust="spacing" textLength="145.29" x="1057.05" y="231.6417">+getTestTypeByCode(String code)</text><text fill="#000000" font-family="sans-serif" font-size="9.57" lengthAdjust="spacing" textLength="266.22" x="1057.05" y="243.679">+getCategoriesByTestTypeCode(String selectedTestTypeCode)</text><!--MD5=[0f6f7964b844a64b0496af0dda7914bd]
class TestStore--><rect codeLine="77" fill="#FEFECE" filter="url(#f5w3jtjlm831q)" height="89.9091" id="TestStore" style="stroke:#A80036;stroke-width:1.305;" width="287.97" x="1046.175" y="280.575"/><ellipse cx="1163.4075" cy="294.495" fill="#ADD1B2" rx="9.57" ry="9.57" style="stroke:#A80036;stroke-width:0.87;"/><path d="M1165.1475,291.45 Q1165.3242,291.015 1165.5281,290.7975 Q1165.732,290.58 1165.9631,290.58 Q1166.3709,290.58 1166.6292,290.8247 Q1166.8875,291.0694 1166.8875,291.6403 L1166.8875,292.9997 Q1166.8875,293.5706 1166.6428,293.8153 Q1166.3981,294.06 1166.0175,294.06 Q1165.6777,294.06 1165.4602,293.9105 Q1165.2427,293.7609 1165.1475,293.3667 Q1165.1067,293.0948 1164.9572,292.9453 Q1164.6853,292.6598 1164.1959,292.4967 Q1163.7066,292.32 1163.2172,292.32 Q1162.6055,292.32 1162.0889,292.5647 Q1161.5859,292.8094 1161.1917,293.3531 Q1160.7975,293.8969 1160.7975,294.6445 L1160.7975,295.4466 Q1160.7975,296.3438 1161.5316,296.9419 Q1162.2656,297.54 1163.5706,297.54 Q1164.3455,297.54 1164.8892,297.3633 Q1165.2019,297.2681 1165.5553,296.9555 Q1165.7864,296.7788 1165.9088,296.7244 Q1166.0311,296.67 1166.1806,296.67 Q1166.4661,296.67 1166.67,296.9011 Q1166.8875,297.1186 1166.8875,297.4313 Q1166.8875,297.7303 1166.5884,298.0838 Q1166.1534,298.6003 1165.4602,298.8858 Q1164.5494,299.28 1163.4347,299.28 Q1162.1297,299.28 1161.083,298.7634 Q1160.2402,298.3556 1159.642,297.472 Q1159.0575,296.5884 1159.0575,295.5417 L1159.0575,294.5902 Q1159.0575,293.5027 1159.5741,292.5511 Q1160.1042,291.5995 1161.015,291.0966 Q1161.9394,290.58 1162.9725,290.58 Q1163.5978,290.58 1164.1416,290.7975 Q1164.6853,291.015 1165.1475,291.45 Z " fill="#000000"/><text fill="#000000" font-family="sans-serif" font-size="10.44" lengthAdjust="spacing" textLength="46.11" x="1181.2425" y="298.7668">TestStore</text><line style="stroke:#A80036;stroke-width:1.305;" x1="1047.045" x2="1333.275" y1="308.415" y2="308.415"/><line style="stroke:#A80036;stroke-width:1.305;" x1="1047.045" x2="1333.275" y1="315.375" y2="315.375"/><text fill="#000000" font-family="sans-serif" font-size="9.57" lengthAdjust="spacing" textLength="221.85" x="1051.395" y="328.7895">+createTest(String NHScode, Client associatedClient,</text><text fill="#000000" font-family="sans-serif" font-size="9.57" lengthAdjust="spacing" textLength="274.92" x="1054.005" y="340.8267">TestType selectedTestType, List&lt;Parameter&gt;selectedParamsList)</text><text fill="#000000" font-family="sans-serif" font-size="9.57" lengthAdjust="spacing" textLength="78.3" x="1051.395" y="352.864">+validateTest(test)</text><text fill="#000000" font-family="sans-serif" font-size="9.57" lengthAdjust="spacing" textLength="66.99" x="1051.395" y="364.9013">+saveTest(test)</text><!--MD5=[9d781343e96e75b44552b4e167cedac1]
class CreateTestControler--><rect codeLine="87" fill="#FEFECE" filter="url(#f5w3jtjlm831q)" height="101.9463" id="CreateTestControler" style="stroke:#A80036;stroke-width:1.305;" width="384.54" x="175.74" y="1022.685"/><ellipse cx="315.5925" cy="1036.605" fill="#ADD1B2" rx="9.57" ry="9.57" style="stroke:#A80036;stroke-width:0.87;"/><path d="M317.3325,1033.56 Q317.5092,1033.125 317.7131,1032.9075 Q317.917,1032.69 318.1481,1032.69 Q318.5559,1032.69 318.8142,1032.9347 Q319.0725,1033.1794 319.0725,1033.7503 L319.0725,1035.1097 Q319.0725,1035.6806 318.8278,1035.9253 Q318.5831,1036.17 318.2025,1036.17 Q317.8627,1036.17 317.6452,1036.0205 Q317.4277,1035.8709 317.3325,1035.4767 Q317.2917,1035.2048 317.1422,1035.0553 Q316.8703,1034.7698 316.3809,1034.6067 Q315.8916,1034.43 315.4022,1034.43 Q314.7905,1034.43 314.2739,1034.6747 Q313.7709,1034.9194 313.3767,1035.4631 Q312.9825,1036.0069 312.9825,1036.7545 L312.9825,1037.5566 Q312.9825,1038.4538 313.7166,1039.0519 Q314.4506,1039.65 315.7556,1039.65 Q316.5305,1039.65 317.0742,1039.4733 Q317.3869,1039.3781 317.7403,1039.0655 Q317.9714,1038.8887 318.0938,1038.8344 Q318.2161,1038.78 318.3656,1038.78 Q318.6511,1038.78 318.855,1039.0111 Q319.0725,1039.2286 319.0725,1039.5412 Q319.0725,1039.8403 318.7734,1040.1938 Q318.3384,1040.7103 317.6452,1040.9958 Q316.7344,1041.39 315.6197,1041.39 Q314.3147,1041.39 313.268,1040.8734 Q312.4252,1040.4656 311.827,1039.582 Q311.2425,1038.6984 311.2425,1037.6517 L311.2425,1036.7002 Q311.2425,1035.6127 311.7591,1034.6611 Q312.2892,1033.7095 313.2,1033.2066 Q314.1244,1032.69 315.1575,1032.69 Q315.7828,1032.69 316.3266,1032.9075 Q316.8703,1033.125 317.3325,1033.56 Z " fill="#000000"/><text fill="#000000" font-family="sans-serif" font-size="10.44" lengthAdjust="spacing" textLength="97.44" x="333.4275" y="1040.8768">CreateTestControler</text><line style="stroke:#A80036;stroke-width:1.305;" x1="176.61" x2="559.41" y1="1050.525" y2="1050.525"/><line style="stroke:#A80036;stroke-width:1.305;" x1="176.61" x2="559.41" y1="1057.485" y2="1057.485"/><text fill="#000000" font-family="sans-serif" font-size="9.57" lengthAdjust="spacing" textLength="374.1" x="180.96" y="1070.8995">+createTest(NHScode, citizenCardNumber,selectedTestTypeCode, selectedParamCodes)</text><text fill="#000000" font-family="sans-serif" font-size="9.57" lengthAdjust="spacing" textLength="66.99" x="180.96" y="1082.9367">+saveTest(test)</text><text fill="#000000" font-family="sans-serif" font-size="9.57" lengthAdjust="spacing" textLength="134.85" x="180.96" y="1094.974">+getTestTypes() : TestTypeDTO</text><text fill="#000000" font-family="sans-serif" font-size="9.57" lengthAdjust="spacing" textLength="300.15" x="180.96" y="1107.0113">+getCategoriesListOfTestType(selectedTestTypeCode): CategoriesDTO</text><text fill="#000000" font-family="sans-serif" font-size="9.57" lengthAdjust="spacing" textLength="307.98" x="180.96" y="1119.0485">+getParametersOfCategories(selectedCategoriesCodes): ParametersDTO</text><!--MD5=[d0024740988d3925690046e9afae9c9c]
class TestTypeDTO--><rect codeLine="97" fill="#FEFECE" filter="url(#f5w3jtjlm831q)" height="101.9463" id="TestTypeDTO" style="stroke:#A80036;stroke-width:1.305;" width="313.2" x="1033.56" y="1184.505"/><ellipse cx="1153.8375" cy="1198.425" fill="#ADD1B2" rx="9.57" ry="9.57" style="stroke:#A80036;stroke-width:0.87;"/><path d="M1155.5775,1195.38 Q1155.7542,1194.945 1155.9581,1194.7275 Q1156.162,1194.51 1156.3931,1194.51 Q1156.8009,1194.51 1157.0592,1194.7547 Q1157.3175,1194.9994 1157.3175,1195.5703 L1157.3175,1196.9297 Q1157.3175,1197.5006 1157.0728,1197.7453 Q1156.8281,1197.99 1156.4475,1197.99 Q1156.1077,1197.99 1155.8902,1197.8405 Q1155.6727,1197.6909 1155.5775,1197.2967 Q1155.5367,1197.0248 1155.3872,1196.8753 Q1155.1153,1196.5898 1154.6259,1196.4267 Q1154.1366,1196.25 1153.6472,1196.25 Q1153.0355,1196.25 1152.5189,1196.4947 Q1152.0159,1196.7394 1151.6217,1197.2831 Q1151.2275,1197.8269 1151.2275,1198.5745 L1151.2275,1199.3766 Q1151.2275,1200.2738 1151.9616,1200.8719 Q1152.6956,1201.47 1154.0006,1201.47 Q1154.7755,1201.47 1155.3192,1201.2933 Q1155.6319,1201.1981 1155.9853,1200.8855 Q1156.2164,1200.7088 1156.3388,1200.6544 Q1156.4611,1200.6 1156.6106,1200.6 Q1156.8961,1200.6 1157.1,1200.8311 Q1157.3175,1201.0486 1157.3175,1201.3613 Q1157.3175,1201.6603 1157.0184,1202.0138 Q1156.5834,1202.5303 1155.8902,1202.8158 Q1154.9794,1203.21 1153.8647,1203.21 Q1152.5597,1203.21 1151.513,1202.6934 Q1150.6702,1202.2856 1150.072,1201.402 Q1149.4875,1200.5184 1149.4875,1199.4717 L1149.4875,1198.5202 Q1149.4875,1197.4327 1150.0041,1196.4811 Q1150.5342,1195.5295 1151.445,1195.0266 Q1152.3694,1194.51 1153.4025,1194.51 Q1154.0278,1194.51 1154.5716,1194.7275 Q1155.1153,1194.945 1155.5775,1195.38 Z " fill="#000000"/><text fill="#000000" font-family="sans-serif" font-size="10.44" lengthAdjust="spacing" textLength="65.25" x="1171.6725" y="1202.6968">TestTypeDTO</text><line style="stroke:#A80036;stroke-width:1.305;" x1="1034.43" x2="1345.89" y1="1212.345" y2="1212.345"/><text fill="#000000" font-family="sans-serif" font-size="9.57" lengthAdjust="spacing" textLength="24.36" x="1038.78" y="1225.7595">-code</text><text fill="#000000" font-family="sans-serif" font-size="9.57" lengthAdjust="spacing" textLength="49.59" x="1038.78" y="1237.7967">-description</text><text fill="#000000" font-family="sans-serif" font-size="9.57" lengthAdjust="spacing" textLength="73.08" x="1038.78" y="1249.834">-collectingMethod</text><text fill="#000000" font-family="sans-serif" font-size="9.57" lengthAdjust="spacing" textLength="150.51" x="1038.78" y="1261.8713">-List&lt;Category&gt; selectedCategories</text><line style="stroke:#A80036;stroke-width:1.305;" x1="1034.43" x2="1345.89" y1="1267.4541" y2="1267.4541"/><text fill="#000000" font-family="sans-serif" font-size="9.57" lengthAdjust="spacing" textLength="302.76" x="1038.78" y="1280.8685">+TestTypeDTO(code, description, collectingMethod, selectedCategories)</text><!--MD5=[6ca282d596ffdf8981b3c7f53e037f13]
class CategoryDto--><rect codeLine="105" fill="#FEFECE" filter="url(#f5w3jtjlm831q)" height="77.8718" id="CategoryDto" style="stroke:#A80036;stroke-width:1.305;" width="123.54" x="1128.39" y="1317.18"/><ellipse cx="1157.883" cy="1331.1" fill="#ADD1B2" rx="9.57" ry="9.57" style="stroke:#A80036;stroke-width:0.87;"/><path d="M1159.623,1328.055 Q1159.7997,1327.62 1160.0036,1327.4025 Q1160.2075,1327.185 1160.4386,1327.185 Q1160.8464,1327.185 1161.1047,1327.4297 Q1161.363,1327.6744 1161.363,1328.2453 L1161.363,1329.6047 Q1161.363,1330.1756 1161.1183,1330.4203 Q1160.8736,1330.665 1160.493,1330.665 Q1160.1532,1330.665 1159.9357,1330.5155 Q1159.7182,1330.3659 1159.623,1329.9717 Q1159.5822,1329.6998 1159.4327,1329.5503 Q1159.1608,1329.2648 1158.6714,1329.1017 Q1158.1821,1328.925 1157.6927,1328.925 Q1157.081,1328.925 1156.5644,1329.1697 Q1156.0614,1329.4144 1155.6672,1329.9581 Q1155.273,1330.5019 1155.273,1331.2495 L1155.273,1332.0516 Q1155.273,1332.9488 1156.0071,1333.5469 Q1156.7411,1334.145 1158.0461,1334.145 Q1158.821,1334.145 1159.3647,1333.9683 Q1159.6774,1333.8731 1160.0308,1333.5605 Q1160.2619,1333.3838 1160.3843,1333.3294 Q1160.5066,1333.275 1160.6561,1333.275 Q1160.9416,1333.275 1161.1455,1333.5061 Q1161.363,1333.7236 1161.363,1334.0362 Q1161.363,1334.3353 1161.0639,1334.6888 Q1160.6289,1335.2053 1159.9357,1335.4908 Q1159.0249,1335.885 1157.9102,1335.885 Q1156.6052,1335.885 1155.5585,1335.3684 Q1154.7157,1334.9606 1154.1175,1334.077 Q1153.533,1333.1934 1153.533,1332.1467 L1153.533,1331.1952 Q1153.533,1330.1077 1154.0496,1329.1561 Q1154.5797,1328.2045 1155.4905,1327.7016 Q1156.4149,1327.185 1157.448,1327.185 Q1158.0733,1327.185 1158.6171,1327.4025 Q1159.1608,1327.62 1159.623,1328.055 Z " fill="#000000"/><text fill="#000000" font-family="sans-serif" font-size="10.44" lengthAdjust="spacing" textLength="59.16" x="1173.717" y="1335.3718">CategoryDto</text><line style="stroke:#A80036;stroke-width:1.305;" x1="1129.26" x2="1251.06" y1="1345.02" y2="1345.02"/><text fill="#000000" font-family="sans-serif" font-size="9.57" lengthAdjust="spacing" textLength="24.36" x="1133.61" y="1358.4345">-code</text><text fill="#000000" font-family="sans-serif" font-size="9.57" lengthAdjust="spacing" textLength="26.1" x="1133.61" y="1370.4717">-name</text><line style="stroke:#A80036;stroke-width:1.305;" x1="1129.26" x2="1251.06" y1="1376.0545" y2="1376.0545"/><text fill="#000000" font-family="sans-serif" font-size="9.57" lengthAdjust="spacing" textLength="113.1" x="1133.61" y="1389.469">+CategoryDto(code, name)</text><!--MD5=[e82331375a7233007428e4f15d504621]
class ParameterDTO--><rect codeLine="111" fill="#FEFECE" filter="url(#f5w3jtjlm831q)" height="101.9463" id="ParameterDTO" style="stroke:#A80036;stroke-width:1.305;" width="294.06" x="1043.13" y="1426.365"/><ellipse cx="1150.3575" cy="1440.285" fill="#ADD1B2" rx="9.57" ry="9.57" style="stroke:#A80036;stroke-width:0.87;"/><path d="M1152.0975,1437.24 Q1152.2742,1436.805 1152.4781,1436.5875 Q1152.682,1436.37 1152.9131,1436.37 Q1153.3209,1436.37 1153.5792,1436.6147 Q1153.8375,1436.8594 1153.8375,1437.4303 L1153.8375,1438.7897 Q1153.8375,1439.3606 1153.5928,1439.6053 Q1153.3481,1439.85 1152.9675,1439.85 Q1152.6277,1439.85 1152.4102,1439.7005 Q1152.1927,1439.5509 1152.0975,1439.1567 Q1152.0567,1438.8848 1151.9072,1438.7353 Q1151.6353,1438.4498 1151.1459,1438.2867 Q1150.6566,1438.11 1150.1672,1438.11 Q1149.5555,1438.11 1149.0389,1438.3547 Q1148.5359,1438.5994 1148.1417,1439.1431 Q1147.7475,1439.6869 1147.7475,1440.4345 L1147.7475,1441.2366 Q1147.7475,1442.1338 1148.4816,1442.7319 Q1149.2156,1443.33 1150.5206,1443.33 Q1151.2955,1443.33 1151.8392,1443.1533 Q1152.1519,1443.0581 1152.5053,1442.7455 Q1152.7364,1442.5688 1152.8588,1442.5144 Q1152.9811,1442.46 1153.1306,1442.46 Q1153.4161,1442.46 1153.62,1442.6911 Q1153.8375,1442.9086 1153.8375,1443.2213 Q1153.8375,1443.5203 1153.5384,1443.8738 Q1153.1034,1444.3903 1152.4102,1444.6758 Q1151.4994,1445.07 1150.3847,1445.07 Q1149.0797,1445.07 1148.033,1444.5534 Q1147.1902,1444.1456 1146.592,1443.262 Q1146.0075,1442.3784 1146.0075,1441.3317 L1146.0075,1440.3802 Q1146.0075,1439.2927 1146.5241,1438.3411 Q1147.0542,1437.3895 1147.965,1436.8866 Q1148.8894,1436.37 1149.9225,1436.37 Q1150.5478,1436.37 1151.0916,1436.5875 Q1151.6353,1436.805 1152.0975,1437.24 Z " fill="#000000"/><text fill="#000000" font-family="sans-serif" font-size="10.44" lengthAdjust="spacing" textLength="72.21" x="1168.1925" y="1444.5568">ParameterDTO</text><line style="stroke:#A80036;stroke-width:1.305;" x1="1044" x2="1336.32" y1="1454.205" y2="1454.205"/><text fill="#000000" font-family="sans-serif" font-size="9.57" lengthAdjust="spacing" textLength="24.36" x="1048.35" y="1467.6195">-code</text><text fill="#000000" font-family="sans-serif" font-size="9.57" lengthAdjust="spacing" textLength="48.72" x="1048.35" y="1479.6567">-shortName</text><text fill="#000000" font-family="sans-serif" font-size="9.57" lengthAdjust="spacing" textLength="49.59" x="1048.35" y="1491.694">-description</text><text fill="#000000" font-family="sans-serif" font-size="9.57" lengthAdjust="spacing" textLength="84.39" x="1048.35" y="1503.7313">-ParameterCategory</text><line style="stroke:#A80036;stroke-width:1.305;" x1="1044" x2="1336.32" y1="1509.3141" y2="1509.3141"/><text fill="#000000" font-family="sans-serif" font-size="9.57" lengthAdjust="spacing" textLength="283.62" x="1048.35" y="1522.7285">+ParameterDTO(code, shortName, description, ParameterCategory)'</text><!--MD5=[724ead17d3ca940995455a91cefd1e12]
class TestTypeMapper--><rect codeLine="122" fill="#FEFECE" filter="url(#f5w3jtjlm831q)" height="65.8345" id="TestTypeMapper" style="stroke:#A80036;stroke-width:1.305;" width="242.73" x="636.84" y="943.95"/><ellipse cx="714.9225" cy="957.87" fill="#ADD1B2" rx="9.57" ry="9.57" style="stroke:#A80036;stroke-width:0.87;"/><path d="M716.6625,954.825 Q716.8392,954.39 717.0431,954.1725 Q717.247,953.955 717.4781,953.955 Q717.8859,953.955 718.1442,954.1997 Q718.4025,954.4444 718.4025,955.0153 L718.4025,956.3747 Q718.4025,956.9456 718.1578,957.1903 Q717.9131,957.435 717.5325,957.435 Q717.1927,957.435 716.9752,957.2855 Q716.7577,957.1359 716.6625,956.7417 Q716.6217,956.4698 716.4722,956.3203 Q716.2003,956.0348 715.7109,955.8717 Q715.2216,955.695 714.7322,955.695 Q714.1205,955.695 713.6039,955.9397 Q713.1009,956.1844 712.7067,956.7281 Q712.3125,957.2719 712.3125,958.0195 L712.3125,958.8216 Q712.3125,959.7187 713.0466,960.3169 Q713.7806,960.915 715.0856,960.915 Q715.8605,960.915 716.4042,960.7383 Q716.7169,960.6431 717.0703,960.3305 Q717.3014,960.1537 717.4238,960.0994 Q717.5461,960.045 717.6956,960.045 Q717.9811,960.045 718.185,960.2761 Q718.4025,960.4936 718.4025,960.8062 Q718.4025,961.1053 718.1034,961.4587 Q717.6684,961.9753 716.9752,962.2608 Q716.0644,962.655 714.9497,962.655 Q713.6447,962.655 712.598,962.1384 Q711.7552,961.7306 711.157,960.847 Q710.5725,959.9634 710.5725,958.9167 L710.5725,957.9652 Q710.5725,956.8777 711.0891,955.9261 Q711.6192,954.9745 712.53,954.4716 Q713.4544,953.955 714.4875,953.955 Q715.1128,953.955 715.6566,954.1725 Q716.2003,954.39 716.6625,954.825 Z " fill="#000000"/><text fill="#000000" font-family="sans-serif" font-size="10.44" lengthAdjust="spacing" textLength="79.17" x="732.7575" y="962.1418">TestTypeMapper</text><line style="stroke:#A80036;stroke-width:1.305;" x1="637.71" x2="878.7" y1="971.79" y2="971.79"/><line style="stroke:#A80036;stroke-width:1.305;" x1="637.71" x2="878.7" y1="978.75" y2="978.75"/><text fill="#000000" font-family="sans-serif" font-size="9.57" lengthAdjust="spacing" textLength="232.29" x="642.06" y="992.1645">+List&lt;TestTypeDTO&gt; toDTO(List&lt;TestType&gt; testTypes)</text><text fill="#000000" font-family="sans-serif" font-size="9.57" lengthAdjust="spacing" textLength="145.29" x="642.06" y="1004.2017">+TestTypeDTO toDTO(TestType tt)</text><!--MD5=[867476cd2a5db62f3ac412e45787ce2b]
class CategoryMapper--><rect codeLine="126" fill="#FEFECE" filter="url(#f5w3jtjlm831q)" height="65.8345" id="CategoryMapper" style="stroke:#A80036;stroke-width:1.305;" width="282.75" x="616.83" y="1040.52"/><ellipse cx="715.3575" cy="1054.44" fill="#ADD1B2" rx="9.57" ry="9.57" style="stroke:#A80036;stroke-width:0.87;"/><path d="M717.0975,1051.395 Q717.2742,1050.96 717.4781,1050.7425 Q717.682,1050.525 717.9131,1050.525 Q718.3209,1050.525 718.5792,1050.7697 Q718.8375,1051.0144 718.8375,1051.5853 L718.8375,1052.9447 Q718.8375,1053.5156 718.5928,1053.7603 Q718.3481,1054.005 717.9675,1054.005 Q717.6277,1054.005 717.4102,1053.8555 Q717.1927,1053.7059 717.0975,1053.3117 Q717.0567,1053.0398 716.9072,1052.8903 Q716.6353,1052.6048 716.1459,1052.4417 Q715.6566,1052.265 715.1672,1052.265 Q714.5555,1052.265 714.0389,1052.5097 Q713.5359,1052.7544 713.1417,1053.2981 Q712.7475,1053.8419 712.7475,1054.5895 L712.7475,1055.3916 Q712.7475,1056.2887 713.4816,1056.8869 Q714.2156,1057.485 715.5206,1057.485 Q716.2955,1057.485 716.8392,1057.3083 Q717.1519,1057.2131 717.5053,1056.9005 Q717.7364,1056.7237 717.8588,1056.6694 Q717.9811,1056.615 718.1306,1056.615 Q718.4161,1056.615 718.62,1056.8461 Q718.8375,1057.0636 718.8375,1057.3762 Q718.8375,1057.6753 718.5384,1058.0287 Q718.1034,1058.5453 717.4102,1058.8308 Q716.4994,1059.225 715.3847,1059.225 Q714.0797,1059.225 713.033,1058.7084 Q712.1902,1058.3006 711.592,1057.417 Q711.0075,1056.5334 711.0075,1055.4867 L711.0075,1054.5352 Q711.0075,1053.4477 711.5241,1052.4961 Q712.0542,1051.5445 712.965,1051.0416 Q713.8894,1050.525 714.9225,1050.525 Q715.5478,1050.525 716.0916,1050.7425 Q716.6353,1050.96 717.0975,1051.395 Z " fill="#000000"/><text fill="#000000" font-family="sans-serif" font-size="10.44" lengthAdjust="spacing" textLength="78.3" x="733.1925" y="1058.7118">CategoryMapper</text><line style="stroke:#A80036;stroke-width:1.305;" x1="617.7" x2="898.71" y1="1068.36" y2="1068.36"/><line style="stroke:#A80036;stroke-width:1.305;" x1="617.7" x2="898.71" y1="1075.32" y2="1075.32"/><text fill="#000000" font-family="sans-serif" font-size="9.57" lengthAdjust="spacing" textLength="272.31" x="622.05" y="1088.7345">+List&lt;CategoryDto&gt; toDTO(List&lt;Category&gt; parameterCategories)</text><text fill="#000000" font-family="sans-serif" font-size="9.57" lengthAdjust="spacing" textLength="171.39" x="622.05" y="1100.7717">+CategoryDto toDTO(Category category)</text><!--MD5=[e0569d1bc34b9d21face98cd33d75fba]
class ParameterMapper--><rect codeLine="130" fill="#FEFECE" filter="url(#f5w3jtjlm831q)" height="65.8345" id="ParameterMapper" style="stroke:#A80036;stroke-width:1.305;" width="255.78" x="630.315" y="1137.09"/><ellipse cx="711.4425" cy="1151.01" fill="#ADD1B2" rx="9.57" ry="9.57" style="stroke:#A80036;stroke-width:0.87;"/><path d="M713.1825,1147.965 Q713.3592,1147.53 713.5631,1147.3125 Q713.767,1147.095 713.9981,1147.095 Q714.4059,1147.095 714.6642,1147.3397 Q714.9225,1147.5844 714.9225,1148.1553 L714.9225,1149.5147 Q714.9225,1150.0856 714.6778,1150.3303 Q714.4331,1150.575 714.0525,1150.575 Q713.7127,1150.575 713.4952,1150.4255 Q713.2777,1150.2759 713.1825,1149.8817 Q713.1417,1149.6098 712.9922,1149.4603 Q712.7203,1149.1748 712.2309,1149.0117 Q711.7416,1148.835 711.2522,1148.835 Q710.6405,1148.835 710.1239,1149.0797 Q709.6209,1149.3244 709.2267,1149.8681 Q708.8325,1150.4119 708.8325,1151.1595 L708.8325,1151.9616 Q708.8325,1152.8587 709.5666,1153.4569 Q710.3006,1154.055 711.6056,1154.055 Q712.3805,1154.055 712.9242,1153.8783 Q713.2369,1153.7831 713.5903,1153.4705 Q713.8214,1153.2937 713.9438,1153.2394 Q714.0661,1153.185 714.2156,1153.185 Q714.5011,1153.185 714.705,1153.4161 Q714.9225,1153.6336 714.9225,1153.9462 Q714.9225,1154.2453 714.6234,1154.5987 Q714.1884,1155.1153 713.4952,1155.4008 Q712.5844,1155.795 711.4697,1155.795 Q710.1647,1155.795 709.118,1155.2784 Q708.2752,1154.8706 707.677,1153.987 Q707.0925,1153.1034 707.0925,1152.0567 L707.0925,1151.1052 Q707.0925,1150.0177 707.6091,1149.0661 Q708.1392,1148.1145 709.05,1147.6116 Q709.9744,1147.095 711.0075,1147.095 Q711.6328,1147.095 712.1766,1147.3125 Q712.7203,1147.53 713.1825,1147.965 Z " fill="#000000"/><text fill="#000000" font-family="sans-serif" font-size="10.44" lengthAdjust="spacing" textLength="86.13" x="729.2775" y="1155.2818">ParameterMapper</text><line style="stroke:#A80036;stroke-width:1.305;" x1="631.185" x2="885.225" y1="1164.93" y2="1164.93"/><line style="stroke:#A80036;stroke-width:1.305;" x1="631.185" x2="885.225" y1="1171.89" y2="1171.89"/><text fill="#000000" font-family="sans-serif" font-size="9.57" lengthAdjust="spacing" textLength="245.34" x="635.535" y="1185.3045">+List&lt;ParameterDTO&gt; toDTO(List&lt;Parameter&gt; parameters)</text><text fill="#000000" font-family="sans-serif" font-size="9.57" lengthAdjust="spacing" textLength="189.66" x="635.535" y="1197.3417">+ParameterDTO toDTO(Parameter parameter)</text><!--MD5=[502b51bc079239060389dab43b7d3470]
link Client to Test--><!--MD5=[502b51bc079239060389dab43b7d3470]
link Client to Test--><path codeLine="174" d="M798.0162,631.3155 C879.0915,625.2516 1065.3759,611.3142 1148.2434,605.1111 " fill="none" id="Client-Test" style="stroke:#A80036;stroke-width:0.87;"/><polygon fill="#000000" points="927.4321,609.4775,935.4702,611.4401,935.0886,606.3406,927.4321,609.4775" style="stroke:#000000;stroke-width:0.87;"/><text fill="#000000" font-family="sans-serif" font-size="11.31" lengthAdjust="spacing" textLength="65.25" x="939.6" y="613.7808">requested by</text><text fill="#000000" font-family="sans-serif" font-size="11.31" lengthAdjust="spacing" textLength="6.09" x="804.8464" y="643.747">1</text><text fill="#000000" font-family="sans-serif" font-size="11.31" lengthAdjust="spacing" textLength="6.09" x="1135.2687" y="602.3816">1</text><!--MD5=[a87ca41b19769012ec630dbc141b1436]
link CreateTestUI to CreateTestControler--><path codeLine="139" d="M91.3935,1413.663 C135.8853,1358.7921 256.824,1209.6306 322.7874,1128.2856 " fill="none" id="CreateTestUI-to-CreateTestControler" style="stroke:#A80036;stroke-width:0.87;stroke-dasharray:7.0,7.0;"/><polygon fill="#A80036" points="325.6932,1124.7012,318.0634,1128.6006,322.9576,1128.0834,323.4749,1132.9776,325.6932,1124.7012" style="stroke:#A80036;stroke-width:0.87;"/><!--MD5=[3d5f36034bd05a68f42d063684fd8cdc]
link CreateTestUI to CategoryDto--><path codeLine="140" d="M119.2161,1434.108 C245.5314,1432.2984 615.0813,1424.712 920.46,1395.48 C990.2166,1388.8071 1069.5519,1376.6967 1123.8486,1367.7009 " fill="none" id="CreateTestUI-to-CategoryDto" style="stroke:#A80036;stroke-width:0.87;stroke-dasharray:7.0,7.0;"/><polygon fill="#A80036" points="1128.3726,1366.9527,1120.0801,1364.7956,1124.0808,1367.6618,1121.2146,1371.6625,1128.3726,1366.9527" style="stroke:#A80036;stroke-width:0.87;"/><!--MD5=[4623db2661f880c526208cfcca0131e5]
link CreateTestUI to ParameterDTO--><path codeLine="141" d="M85.5123,1455.8928 C97.5705,1476.39 118.9116,1506.1266 147.03,1519.02 C459.4818,1662.3264 577.7322,1545.4854 920.46,1519.02 C958.8879,1516.0533 1000.1346,1510.7376 1038.4929,1504.8651 " fill="none" id="CreateTestUI-to-ParameterDTO" style="stroke:#A80036;stroke-width:0.87;stroke-dasharray:7.0,7.0;"/><polygon fill="#A80036" points="1042.9212,1504.1865,1034.6546,1501.9322,1038.6214,1504.8451,1035.7084,1508.8119,1042.9212,1504.1865" style="stroke:#A80036;stroke-width:0.87;"/><!--MD5=[b119393afdc8554af40a71e4d23c569f]
link CreateTestUI to TestTypeDTO--><path codeLine="142" d="M119.4075,1415.7858 C130.8219,1411.5141 143.1759,1407.312 154.86,1404.18 C196.707,1392.9744 748.9221,1305.0087 1028.8794,1260.717 " fill="none" id="CreateTestUI-to-TestTypeDTO" style="stroke:#A80036;stroke-width:0.87;stroke-dasharray:7.0,7.0;"/><polygon fill="#A80036" points="1033.3947,1260.0036,1025.1217,1257.7726,1029.0967,1260.6744,1026.195,1264.6494,1033.3947,1260.0036" style="stroke:#A80036;stroke-width:0.87;"/><!--MD5=[3d90787a6c4fcaaaef3316a8b7a2a1cb]
link CategoryMapper to CategoryDto--><path codeLine="143" d="M898.9449,1106.7444 C906.5835,1111.0509 913.8306,1115.9229 920.46,1121.43 C989.6511,1178.8761 943.8543,1243.6476 1012.68,1301.52 C1043.9652,1327.8288 1087.8132,1341.5313 1123.9965,1348.6479 " fill="none" id="CategoryMapper-to-CategoryDto" style="stroke:#A80036;stroke-width:0.87;stroke-dasharray:7.0,7.0;"/><polygon fill="#A80036" points="1128.3726,1349.4918,1121.3249,1344.6185,1124.0982,1348.6841,1120.0326,1351.4575,1128.3726,1349.4918" style="stroke:#A80036;stroke-width:0.87;"/><!--MD5=[5f4198d269e8e237122a004a01e5b057]
link CategoryMapper to ParameterCategory--><path codeLine="144" d="M899.7888,1074.015 C983.8221,1074.2325 1092.6591,1074.45 1189.29,1074.45 C1189.29,1074.45 1189.29,1074.45 1905.3,1074.45 C2120.5902,1074.45 2164.6731,716.8191 2173.3731,598.0815 " fill="none" id="CategoryMapper-to-ParameterCategory" style="stroke:#A80036;stroke-width:0.87;stroke-dasharray:7.0,7.0;"/><polygon fill="#A80036" points="2173.695,593.6271,2169.6644,601.1884,2173.3842,597.966,2176.6067,601.6857,2173.695,593.6271" style="stroke:#A80036;stroke-width:0.87;"/><!--MD5=[bcaa6a39389c8cb768501da2b7549a8d]
link ParameterMapper to ParameterDTO--><path codeLine="145" d="M786.6018,1203.6276 C829.9713,1254.4704 918.9462,1351.4667 1012.68,1410.27 C1021.0668,1415.5335 1029.9321,1420.4838 1039.041,1425.1296 " fill="none" id="ParameterMapper-to-ParameterDTO" style="stroke:#A80036;stroke-width:0.87;stroke-dasharray:7.0,7.0;"/><polygon fill="#A80036" points="1042.9647,1427.0958,1037.543,1420.4607,1039.0814,1425.1355,1034.4066,1426.674,1042.9647,1427.0958" style="stroke:#A80036;stroke-width:0.87;"/><!--MD5=[6a9c25a7b7cd4f2505d061be4a34119e]
link ParameterMapper to Parameter--><path codeLine="146" d="M872.7318,1137.0552 C888.8181,1132.0179 905.1045,1126.7283 920.46,1121.43 C1343.4279,975.5484 1500.0192,975.6267 1813.08,655.98 C1828.392,640.3461 1824.8163,630.7326 1839.18,614.22 C1845.879,606.5205 1853.7264,599.0037 1861.5999,592.1307 " fill="none" id="ParameterMapper-to-Parameter" style="stroke:#A80036;stroke-width:0.87;stroke-dasharray:7.0,7.0;"/><polygon fill="#A80036" points="1864.9668,589.2336,1856.7616,591.7024,1861.6693,592.0707,1861.301,596.9783,1864.9668,589.2336" style="stroke:#A80036;stroke-width:0.87;"/><!--MD5=[a866f4e758874d18eed8ecae1602bb43]
link TestTypeMapper to TestTypeDTO--><path codeLine="147" d="M879.5961,1007.2425 C893.6901,1012.3755 907.6014,1018.2306 920.46,1024.86 C1001.3961,1066.62 1082.0016,1134.0798 1133.5317,1181.3556 " fill="none" id="TestTypeMapper-to-TestTypeDTO" style="stroke:#A80036;stroke-width:0.87;stroke-dasharray:7.0,7.0;"/><polygon fill="#A80036" points="1136.8812,1184.4441,1133.4691,1176.5843,1133.6777,1181.5013,1128.7606,1181.7099,1136.8812,1184.4441" style="stroke:#A80036;stroke-width:0.87;"/><!--MD5=[a3b705e4e3f391aa28b18ef9a5fd28a9]
link TestTypeMapper to TestType--><path codeLine="148" d="M879.7092,965.7522 C1044.957,943.4802 1338.4689,878.1519 1490.31,689.04 C1526.3976,644.1045 1489.0833,612.7671 1516.41,562.02 C1525.0056,546.0642 1537.5075,531.1263 1550.3313,518.3286 " fill="none" id="TestTypeMapper-to-TestType" style="stroke:#A80036;stroke-width:0.87;stroke-dasharray:7.0,7.0;"/><polygon fill="#A80036" points="1553.5938,515.1183,1545.5658,518.1133,1550.487,518.163,1550.4373,523.0842,1553.5938,515.1183" style="stroke:#A80036;stroke-width:0.87;"/><!--MD5=[8f55894bbc012aa6e8bd0f9e9c1fa823]
link CreateTestControler to Company--><path codeLine="149" d="M377.8497,1022.4849 C398.4078,919.6857 458.1942,686.082 595.95,549.84 C625.2168,520.9038 668.682,503.5908 703.1253,493.6989 " fill="none" id="CreateTestControler-to-Company" style="stroke:#A80036;stroke-width:0.87;stroke-dasharray:7.0,7.0;"/><polygon fill="#A80036" points="707.7102,492.4113,699.2331,491.163,703.5201,493.58,701.1031,497.8671,707.7102,492.4113" style="stroke:#A80036;stroke-width:0.87;"/><!--MD5=[75f1b5762c49b994a7e3ff994124fe26]
link CreateTestControler to CategoryMapper--><path codeLine="150" d="M560.5497,1073.58 C577.8627,1073.58 595.2018,1073.58 612.0189,1073.58 " fill="none" id="CreateTestControler-to-CategoryMapper" style="stroke:#A80036;stroke-width:0.87;stroke-dasharray:7.0,7.0;"/><polygon fill="#A80036" points="616.7517,1073.58,608.9217,1070.1,612.4017,1073.58,608.9217,1077.06,616.7517,1073.58" style="stroke:#A80036;stroke-width:0.87;"/><!--MD5=[08b46ea753435d83600a12592d428521]
link CreateTestControler to CategoryDto--><path codeLine="151" d="M413.9286,1124.6229 C456.2715,1169.0625 523.7922,1231.3545 595.95,1264.11 C774.4218,1345.1331 1010.7921,1356.8868 1123.7442,1357.4175 " fill="none" id="CreateTestControler-to-CategoryDto" style="stroke:#A80036;stroke-width:0.87;stroke-dasharray:7.0,7.0;"/><polygon fill="#A80036" points="1128.3726,1357.4349,1120.5526,1353.9325,1124.0226,1357.4225,1120.5327,1360.8925,1128.3726,1357.4349" style="stroke:#A80036;stroke-width:0.87;"/><!--MD5=[4e2eaaaa924769a5915195a82e4b50b3]
link CreateTestControler to ParameterMapper--><path codeLine="152" d="M560.5497,1121.2299 C582.6042,1126.7196 604.7109,1132.2093 625.7214,1137.4293 " fill="none" id="CreateTestControler-to-ParameterMapper" style="stroke:#A80036;stroke-width:0.87;stroke-dasharray:7.0,7.0;"/><polygon fill="#A80036" points="630.1845,1138.5429,623.4213,1133.2818,625.9622,1137.4967,621.7474,1140.0375,630.1845,1138.5429" style="stroke:#A80036;stroke-width:0.87;"/><!--MD5=[5198f3041045b9988aed843607ceac3f]
link CreateTestControler to ParameterDTO--><path codeLine="153" d="M395.7456,1124.5968 C432.1899,1188.5157 503.5038,1296.5088 595.95,1352.85 C731.061,1435.2129 912.1167,1463.7402 1038.5538,1473.2667 " fill="none" id="CreateTestControler-to-ParameterDTO" style="stroke:#A80036;stroke-width:0.87;stroke-dasharray:7.0,7.0;"/><polygon fill="#A80036" points="1043.0256,1473.5973,1035.4758,1469.5452,1038.6876,1473.2741,1034.9587,1476.486,1043.0256,1473.5973" style="stroke:#A80036;stroke-width:0.87;"/><!--MD5=[d436aa16cf3879d6ad396285eddf41c1]
link CreateTestControler to TestTypeMapper--><path codeLine="154" d="M560.5497,1025.9388 C584.9532,1019.8662 609.4089,1013.7849 632.3856,1008.0777 " fill="none" id="CreateTestControler-to-TestTypeMapper" style="stroke:#A80036;stroke-width:0.87;stroke-dasharray:7.0,7.0;"/><polygon fill="#A80036" points="636.6573,1007.0163,628.216,1005.5451,632.4379,1008.0743,629.9088,1012.2961,636.6573,1007.0163" style="stroke:#A80036;stroke-width:0.87;"/><!--MD5=[a728a1c0b6f50bd0e8c130b0563a2e8d]
link CreateTestControler to TestTypeDTO--><path codeLine="155" d="M429.4407,1124.5881 C472.7928,1157.7438 534.1887,1198.2162 595.95,1217.13 C737.6295,1260.5343 907.3143,1260.9519 1028.8707,1252.974 " fill="none" id="CreateTestControler-to-TestTypeDTO" style="stroke:#A80036;stroke-width:0.87;stroke-dasharray:7.0,7.0;"/><polygon fill="#A80036" points="1033.5339,1252.6608,1025.4842,1249.7246,1029.1941,1252.9584,1025.9603,1256.6683,1033.5339,1252.6608" style="stroke:#A80036;stroke-width:0.87;"/><!--MD5=[b89d522ccf9caf95dbbde9769ba39561]
link CreateTestControler to ParameterStore--><path codeLine="156" d="M408.204,1022.4762 C449.6856,971.9118 519.5379,895.7694 595.95,850.86 C677.7996,802.7577 948.4131,805.6287 1005.72,729.93 C1024.9731,704.4999 993.1398,180.9513 1012.68,155.73 C1021.2495,144.681 1032.0897,136.0071 1044.174,129.2385 " fill="none" id="CreateTestControler-to-ParameterStore" style="stroke:#A80036;stroke-width:0.87;stroke-dasharray:7.0,7.0;"/><polygon fill="#A80036" points="1048.3152,127.0113,1039.769,127.6297,1044.478,129.0603,1043.0474,133.7692,1048.3152,127.0113" style="stroke:#A80036;stroke-width:0.87;"/><!--MD5=[3bbb6c5b03dfc4e682128937e80c1ca1]
link CreateTestControler to TestTypeStore--><path codeLine="157" d="M421.3845,1022.6763 C464.9367,983.0217 530.178,929.2992 595.95,896.1 C764.7126,810.9357 890.3493,931.8744 1005.72,782.13 C1023.2418,759.3882 995.4975,288.3528 1012.68,265.35 C1021.989,252.8916 1034.0994,243.1911 1047.6192,235.6395 " fill="none" id="CreateTestControler-to-TestTypeStore" style="stroke:#A80036;stroke-width:0.87;stroke-dasharray:7.0,7.0;"/><polygon fill="#A80036" points="1051.4646,233.5689,1042.9209,234.2204,1047.6353,235.6327,1046.223,240.3472,1051.4646,233.5689" style="stroke:#A80036;stroke-width:0.87;"/><!--MD5=[0a261a9b138dfe2e0bcc9eaa6466be5e]
link CreateTestControler to TestStore--><path codeLine="158" d="M435.2262,1022.685 C478.761,991.6173 538.1472,953.4852 595.95,930.03 C768.3927,860.0646 887.2521,987.4239 1005.72,843.9 C1020.6144,825.8562 1000.6218,442.8735 1012.68,422.82 C1024.9992,402.3402 1043.304,385.8537 1063.5315,372.6906 " fill="none" id="CreateTestControler-to-TestStore" style="stroke:#A80036;stroke-width:0.87;stroke-dasharray:7.0,7.0;"/><polygon fill="#A80036" points="1067.3247,370.272,1058.8513,371.5454,1063.6563,372.6098,1062.5919,377.4148,1067.3247,370.272" style="stroke:#A80036;stroke-width:0.87;"/><!--MD5=[3eebf0e5f359806b77b30e9524c37676]
link TestTypeStore to TestType--><path codeLine="159" d="M1328.4987,236.7444 C1343.1321,244.0698 1356.6606,253.431 1367.64,265.35 C1377.297,275.8422 1367.0049,284.6031 1374.6,296.67 C1416.6906,363.5643 1492.8852,415.8165 1545.5202,446.2317 " fill="none" id="TestTypeStore-TestType" style="stroke:#A80036;stroke-width:0.87;"/><polygon fill="#000000" points="1417.7498,292.014,1413.8637,284.7092,1410.3122,288.3884,1417.7498,292.014" style="stroke:#000000;stroke-width:0.87;"/><text fill="#000000" font-family="sans-serif" font-size="11.31" lengthAdjust="spacing" textLength="31.32" x="1422.45" y="293.6208">stores</text><text fill="#000000" font-family="sans-serif" font-size="11.31" lengthAdjust="spacing" textLength="6.09" x="1335.347" y="250.1093">1</text><text fill="#000000" font-family="sans-serif" font-size="11.31" lengthAdjust="spacing" textLength="4.35" x="1534.2252" y="455.3904">*</text><!--MD5=[b0f4f6db8206580012ef9cd998ed01c5]
link TestStore to Test--><path codeLine="160" d="M1076.9295,370.2198 C1009.548,403.941 943.7847,453.9573 980.925,510.69 C1017.987,567.3183 1098.6969,589.0509 1148.3391,597.2376 " fill="none" id="TestStore-Test" style="stroke:#A80036;stroke-width:0.87;"/><polygon fill="#000000" points="950.0403,507.1625,950.1181,498.8887,945.24,500.4231,950.0403,507.1625" style="stroke:#000000;stroke-width:0.87;"/><text fill="#000000" font-family="sans-serif" font-size="11.31" lengthAdjust="spacing" textLength="31.32" x="956.565" y="507.6408">stores</text><text fill="#000000" font-family="sans-serif" font-size="11.31" lengthAdjust="spacing" textLength="6.09" x="1054.4883" y="389.2454">1</text><text fill="#000000" font-family="sans-serif" font-size="11.31" lengthAdjust="spacing" textLength="4.35" x="1136.9773" y="593.2308">*</text><!--MD5=[a0992dda039fed1bb57aff5aacace800]
link ParameterStore to Parameter--><path codeLine="161" d="M1332.0918,140.9313 C1344.3327,145.3422 1356.3474,150.2664 1367.64,155.73 C1589.3334,263.0706 1627.8222,323.1441 1813.08,485.46 C1825.6254,496.4568 1826.6433,501.4245 1839.18,512.43 C1847.2362,519.5118 1856.2755,526.6545 1864.9668,533.1882 " fill="none" id="ParameterStore-Parameter" style="stroke:#A80036;stroke-width:0.87;"/><polygon fill="#000000" points="1589.0782,232.4117,1584.2566,225.6875,1581.2251,229.8058,1589.0782,232.4117" style="stroke:#000000;stroke-width:0.87;"/><text fill="#000000" font-family="sans-serif" font-size="11.31" lengthAdjust="spacing" textLength="31.32" x="1593.405" y="234.4608">stores</text><text fill="#000000" font-family="sans-serif" font-size="11.31" lengthAdjust="spacing" textLength="6.09" x="1338.8054" y="156.3879">1</text><text fill="#000000" font-family="sans-serif" font-size="11.31" lengthAdjust="spacing" textLength="4.35" x="1853.9807" y="525.6404">*</text><!--MD5=[daf3d7412afa2c7651483be0b6e971d1]
link Company to ParameterStore--><path codeLine="162" d="M780.2856,437.0706 C816.8256,365.0085 898.8492,224.6775 1012.68,155.73 C1023.7551,149.0223 1035.7785,143.2455 1048.1673,138.2604 " fill="none" id="Company-ParameterStore" style="stroke:#A80036;stroke-width:0.87;"/><polygon fill="#000000" points="955.1187,150.904,947.962,155.0565,951.7697,158.4701,955.1187,150.904" style="stroke:#000000;stroke-width:0.87;"/><text fill="#000000" font-family="sans-serif" font-size="11.31" lengthAdjust="spacing" textLength="24.36" x="960.045" y="158.7708">uses</text><text fill="#000000" font-family="sans-serif" font-size="11.31" lengthAdjust="spacing" textLength="6.09" x="776.8725" y="427.5977">1</text><text fill="#000000" font-family="sans-serif" font-size="11.31" lengthAdjust="spacing" textLength="6.09" x="1035.5053" y="151.7065">1</text><!--MD5=[141c3afa12b2b3c0a39ffce56dbd5f19]
link Company to TestTypeStore--><path codeLine="163" d="M800.4957,437.0358 C847.5975,388.3767 928.8903,311.5557 1012.68,265.35 C1024.9818,258.5727 1038.2319,252.5088 1051.7517,247.1148 " fill="none" id="Company-TestTypeStore" style="stroke:#A80036;stroke-width:0.87;"/><polygon fill="#000000" points="955.6852,260.2699,947.8658,262.9753,950.9494,267.0547,955.6852,260.2699" style="stroke:#000000;stroke-width:0.87;"/><text fill="#000000" font-family="sans-serif" font-size="11.31" lengthAdjust="spacing" textLength="24.36" x="960.045" y="267.5208">uses</text><text fill="#000000" font-family="sans-serif" font-size="11.31" lengthAdjust="spacing" textLength="6.09" x="799.6793" y="427.8824">1</text><text fill="#000000" font-family="sans-serif" font-size="11.31" lengthAdjust="spacing" textLength="6.09" x="1038.8101" y="260.982">1</text><!--MD5=[7f6cf7f175eae0af66201860de5de971]
link Company to TestStore--><path codeLine="164" d="M808.8477,463.8666 C871.3311,441.1248 980.6814,401.3136 1066.1589,370.2024 " fill="none" id="Company-TestStore" style="stroke:#A80036;stroke-width:0.87;"/><polygon fill="#000000" points="956.3026,385.815,948.0335,386.1041,949.7826,390.9093,956.3026,385.815" style="stroke:#000000;stroke-width:0.87;"/><text fill="#000000" font-family="sans-serif" font-size="11.31" lengthAdjust="spacing" textLength="24.36" x="960.045" y="391.9308">uses</text><text fill="#000000" font-family="sans-serif" font-size="11.31" lengthAdjust="spacing" textLength="6.09" x="815.7264" y="458.4753">1</text><text fill="#000000" font-family="sans-serif" font-size="11.31" lengthAdjust="spacing" textLength="6.09" x="1042.203" y="389.2255">1</text><!--MD5=[5b7a9ded131023be416e27d15bcd6d77]
link TestType to Parameter--><path codeLine="165" d="M1661.2737,491.9676 C1721.0601,508.8195 1813.3671,534.8499 1865.0799,549.4311 " fill="none" id="TestType-Parameter" style="stroke:#A80036;stroke-width:0.87;"/><polygon fill="#000000" points="1725.0468,501.5834,1718.1667,496.987,1716.779,501.9088,1725.0468,501.5834" style="stroke:#000000;stroke-width:0.87;"/><text fill="#000000" font-family="sans-serif" font-size="11.31" lengthAdjust="spacing" textLength="83.52" x="1728.69" y="505.0308">characterized by</text><text fill="#000000" font-family="sans-serif" font-size="11.31" lengthAdjust="spacing" textLength="6.09" x="1668.3163" y="506.4145">1</text><text fill="#000000" font-family="sans-serif" font-size="11.31" lengthAdjust="spacing" textLength="17.4" x="1840.9229" y="544.7991">1..*</text><!--MD5=[742a261f27a3dcd734c626287d811acd]
link Company to TestType--><path codeLine="166" d="M808.6911,481.6233 C955.7646,480.5619 1388.8854,477.4386 1545.3375,476.3076 " fill="none" id="Company-TestType" style="stroke:#A80036;stroke-width:0.87;"/><polygon fill="#000000" points="1169.2799,469.9215,1161.3924,467.4215,1161.4293,472.5351,1169.2799,469.9215" style="stroke:#000000;stroke-width:0.87;"/><text fill="#000000" font-family="sans-serif" font-size="11.31" lengthAdjust="spacing" textLength="46.11" x="1172.76" y="474.5808">conducts</text><text fill="#000000" font-family="sans-serif" font-size="11.31" lengthAdjust="spacing" textLength="6.09" x="815.5498" y="478.507">1</text><text fill="#000000" font-family="sans-serif" font-size="11.31" lengthAdjust="spacing" textLength="4.35" x="1534.3979" y="488.8954">*</text><!--MD5=[7e4bc624457760b649895ff2ead938fa]
link Company to Test--><path codeLine="167" d="M808.9521,496.509 C842.4384,507.7494 886.4691,525.5235 920.46,549.84 C924.2445,552.5544 923.3484,555.4167 927.42,557.67 C997.8987,596.7243 1094.1816,603.1362 1148.1999,603.2754 " fill="none" id="Company-Test" style="stroke:#A80036;stroke-width:0.87;"/><polygon fill="#000000" points="945.4894,551.2988,938.7507,546.4975,937.2155,551.3754,945.4894,551.2988" style="stroke:#000000;stroke-width:0.87;"/><text fill="#000000" font-family="sans-serif" font-size="11.31" lengthAdjust="spacing" textLength="46.11" x="949.17" y="554.6208">conducts</text><text fill="#000000" font-family="sans-serif" font-size="11.31" lengthAdjust="spacing" textLength="6.09" x="815.508" y="510.8691">1</text><text fill="#000000" font-family="sans-serif" font-size="11.31" lengthAdjust="spacing" textLength="4.35" x="1137.0917" y="616.3163">*</text><!--MD5=[12d76240d3c3c66074d4ec2ea8bf469c]
link Company to Parameter--><path codeLine="168" d="M808.7868,494.8386 C842.1078,502.8774 887.1042,512.6301 927.42,517.65 C1318.3197,566.3874 1419.927,527.7333 1813.08,552.45 C1830.1494,553.5288 1849.011,555.0948 1865.0625,556.5477 " fill="none" id="Company-Parameter" style="stroke:#A80036;stroke-width:0.87;"/><polygon fill="#000000" points="1383.2926,536.3266,1375.5859,533.3152,1375.2876,538.4202,1383.2926,536.3266" style="stroke:#000000;stroke-width:0.87;"/><text fill="#000000" font-family="sans-serif" font-size="11.31" lengthAdjust="spacing" textLength="102.66" x="1386.78" y="540.7008">capable of analysing</text><text fill="#000000" font-family="sans-serif" font-size="11.31" lengthAdjust="spacing" textLength="6.09" x="815.6577" y="493.4155">1</text><text fill="#000000" font-family="sans-serif" font-size="11.31" lengthAdjust="spacing" textLength="4.35" x="1854.0917" y="568.8614">*</text><!--MD5=[e981d4f96c4342412d1e68160b30cf70]
link Test to TestType--><path codeLine="169" d="M1232.094,608.9304 C1291.7934,617.0301 1404.7542,624.9906 1490.31,587.25 C1491.5106,586.7193 1531.3653,547.0473 1563.2421,515.214 " fill="none" id="Test-TestType" style="stroke:#A80036;stroke-width:0.87;"/><polygon fill="#000000" points="1403.1456,578.3884,1394.8775,578.071,1396.27,582.9915,1403.1456,578.3884" style="stroke:#000000;stroke-width:0.87;"/><text fill="#000000" font-family="sans-serif" font-size="11.31" lengthAdjust="spacing" textLength="62.64" x="1406.79" y="584.2008">classified as</text><text fill="#000000" font-family="sans-serif" font-size="11.31" lengthAdjust="spacing" textLength="4.35" x="1238.8482" y="606.7858">*</text><text fill="#000000" font-family="sans-serif" font-size="11.31" lengthAdjust="spacing" textLength="6.09" x="1551.3454" y="533.2235">1</text><!--MD5=[f24c888dadeb846430474fe80a58922b]
link Test to TestParameter--><path codeLine="170" d="M1232.0157,613.7241 C1289.7489,628.6359 1398.2553,650.9862 1490.31,637.71 C1500.2628,636.2745 1510.5636,634.1604 1520.6991,631.6809 " fill="none" id="Test-TestParameter" style="stroke:#A80036;stroke-width:0.87;"/><polygon fill="#000000" points="1384.1616,630.303,1376.4663,627.2625,1376.1488,632.3664,1384.1616,630.303" style="stroke:#000000;stroke-width:0.87;"/><text fill="#000000" font-family="sans-serif" font-size="11.31" lengthAdjust="spacing" textLength="100.92" x="1387.65" y="634.6608">requests analysis of</text><text fill="#000000" font-family="sans-serif" font-size="11.31" lengthAdjust="spacing" textLength="6.09" x="1238.8911" y="628.365">1</text><text fill="#000000" font-family="sans-serif" font-size="11.31" lengthAdjust="spacing" textLength="17.4" x="1492.1584" y="647.5916">1..*</text><!--MD5=[92e8e476cc9e9004a7125f53a120ec97]
link TestParameter to Parameter--><path codeLine="171" d="M1690.4448,591.8784 C1748.1171,583.3263 1821.2406,572.4861 1865.106,565.9872 " fill="none" id="TestParameter-Parameter" style="stroke:#A80036;stroke-width:0.87;"/><polygon fill="#000000" points="1746.478,566.7551,1738.3189,565.3797,1739.0687,570.4382,1746.478,566.7551" style="stroke:#000000;stroke-width:0.87;"/><text fill="#000000" font-family="sans-serif" font-size="11.31" lengthAdjust="spacing" textLength="40.89" x="1750.005" y="572.0208">refers to</text><text fill="#000000" font-family="sans-serif" font-size="11.31" lengthAdjust="spacing" textLength="4.35" x="1697.2749" y="603.1914">*</text><text fill="#000000" font-family="sans-serif" font-size="11.31" lengthAdjust="spacing" textLength="6.09" x="1852.2634" y="579.8053">1</text><!--MD5=[0e00e25ac6b8c14659aaff2cf7e5df08]
link TestParameter to TestParameterResult--><path codeLine="172" d="M1690.4448,623.1897 C1737.8424,633.3861 1795.68,645.8271 1839.1278,655.1709 " fill="none" id="TestParameter-TestParameterResult" style="stroke:#A80036;stroke-width:0.87;"/><polygon fill="#000000" points="1745.5577,623.1177,1738.4021,618.9632,1737.3268,623.9626,1745.5577,623.1177" style="stroke:#000000;stroke-width:0.87;"/><text fill="#000000" font-family="sans-serif" font-size="11.31" lengthAdjust="spacing" textLength="42.63" x="1749.135" y="626.8308">contains</text><text fill="#000000" font-family="sans-serif" font-size="11.31" lengthAdjust="spacing" textLength="6.09" x="1697.3415" y="636.8999">1</text><text fill="#000000" font-family="sans-serif" font-size="11.31" lengthAdjust="spacing" textLength="19.14" x="1813.0855" y="666.3095">0..1</text><!--MD5=[b72ac8ab7fb5921fceb5036a3902baea]
link Test to Sample--><path codeLine="173" d="M1232.1984,619.0398 C1268.9124,633.4905 1324.4619,653.5962 1374.6,664.68 C1443.3822,679.8963 1526.0148,685.7166 1570.4631,687.8568 " fill="none" id="Test-Sample" style="stroke:#A80036;stroke-width:0.87;"/><polygon fill="#000000" points="1414.9677,657.8701,1407.7661,653.7958,1406.7467,658.8069,1414.9677,657.8701" style="stroke:#000000;stroke-width:0.87;"/><text fill="#000000" font-family="sans-serif" font-size="11.31" lengthAdjust="spacing" textLength="39.15" x="1418.535" y="661.6308">collects</text><text fill="#000000" font-family="sans-serif" font-size="11.31" lengthAdjust="spacing" textLength="6.09" x="1238.82" y="634.3431">1</text><text fill="#000000" font-family="sans-serif" font-size="11.31" lengthAdjust="spacing" textLength="17.4" x="1546.4256" y="700.554">1..*</text><!--MD5=[6df8849671cb880f6936e94aa30db6f9]
link Parameter to ParameterCategory--><path codeLine="175" d="M1943.7192,560.28 C1988.5851,560.28 2063.3181,560.28 2115.7617,560.28 " fill="none" id="Parameter-ParameterCategory" style="stroke:#A80036;stroke-width:0.87;"/><polygon fill="#000000" points="2004.48,552.6029,1996.6108,550.0461,1996.6108,555.1598,2004.48,552.6029" style="stroke:#000000;stroke-width:0.87;"/><text fill="#000000" font-family="sans-serif" font-size="11.31" lengthAdjust="spacing" textLength="80.91" x="2007.96" y="557.2308">presented under</text><text fill="#000000" font-family="sans-serif" font-size="11.31" lengthAdjust="spacing" textLength="4.35" x="1950.5867" y="573.2343">*</text><text fill="#000000" font-family="sans-serif" font-size="11.31" lengthAdjust="spacing" textLength="6.09" x="2102.7167" y="572.8143">1</text><!--MD5=[8aaf0efd5e2f3824be7ea3e488dcc283]
link TestType to ParameterCategory--><path codeLine="176" d="M1661.4738,476.5425 C1733.8665,478.2738 1862.1045,484.3725 1969.68,505.47 C2019.4701,515.2401 2075.0109,530.2911 2115.8313,542.1492 " fill="none" id="TestType-ParameterCategory" style="stroke:#A80036;stroke-width:0.87;"/><polygon fill="#000000" points="1864.8003,481.0146,1857.3773,477.3594,1856.6465,482.4206,1864.8003,481.0146" style="stroke:#000000;stroke-width:0.87;"/><text fill="#000000" font-family="sans-serif" font-size="11.31" lengthAdjust="spacing" textLength="83.52" x="1868.325" y="485.0208">characterized by</text><text fill="#000000" font-family="sans-serif" font-size="11.31" lengthAdjust="spacing" textLength="6.09" x="1668.1576" y="489.156">1</text><text fill="#000000" font-family="sans-serif" font-size="11.31" lengthAdjust="spacing" textLength="17.4" x="2091.2978" y="552.7685">1..*</text><!--MD5=[fd2230037ac9d052c9c564ffa22d6803]
@startuml
skinparam classAttributeIconSize 0
left to right direction


package UI <<Folder>> {
  class CreateTestUI{
  }
}


package Domain <<Folder>> {
    package Model <<Folder>> {
        class TestParameter{
            +TestParameter(parameter: Parameter)
        }
        class TestParameterResult{
        - createdAt
        - value
        - metric
        }
        class TestType {
        - code : String
        - description : String
        - collectingMethod : String
        }

        class Test{
            - NHSCode: String
            - code: String
        }

        class Sample{
            - barCode
        }

        class Parameter {
          -code
          -shortName
          -description
        }

        class Company {
            -designation : String
            +getTestTypeStore()
            +getParameterStore()
            +getTestStore()
        }

        class ParameterCategory{
            -code
            -name
        }
        class Client{
        - name
        - citizenCardNum
        - nhsNum
        - birthDate
        - sex
        - taxIdNum
        - phoneNum
        - email
        }

    }
    package Stores <<Folder>> {
        class ParameterStore {
            +getParamsByCategories(List<String> selectedCategoriesCodes)
            +getParamsByCategory(String category)
        }

        class TestTypeStore {
               +getTestTypes()
               +getTestTypeByCode(String code)
               +getCategoriesByTestTypeCode(String selectedTestTypeCode)
            }

        class TestStore {
            +createTest(String NHScode, Client associatedClient,\n TestType selectedTestType, List<Parameter>selectedParamsList)
            +validateTest(test)
            +saveTest(test)
        }

    }
}

package Controller <<Folder>>{
    class CreateTestControler{
    +createTest(NHScode, citizenCardNumber,selectedTestTypeCode, selectedParamCodes)
    +saveTest(test)
    +getTestTypes() : TestTypeDTO
    +getCategoriesListOfTestType(selectedTestTypeCode): CategoriesDTO
    +getParametersOfCategories(selectedCategoriesCodes): ParametersDTO
    }
}

package DTO <<Folder>>{
    class TestTypeDTO {
    -code
    -description
    -collectingMethod
    -List<Category> selectedCategories
    +TestTypeDTO(code, description, collectingMethod, selectedCategories)
    }

    class CategoryDto {
    -code
    -name
    +CategoryDto(code, name)
    }

    class ParameterDTO {
    -code
    -shortName
    -description
    -ParameterCategory
    +ParameterDTO(code, shortName, description, ParameterCategory)'
    }

}

package Mappers <<Folder>>{
    class TestTypeMapper {
        +List<TestTypeDTO> toDTO(List<TestType> testTypes)
        +TestTypeDTO toDTO(TestType tt)
    }
    class CategoryMapper{
        +List<CategoryDto> toDTO(List<Category> parameterCategories)
        +CategoryDto toDTO(Category category)
    }
    class ParameterMapper {
        +List<ParameterDTO> toDTO(List<Parameter> parameters)
        +ParameterDTO toDTO(Parameter parameter)
    }

}

Client -[hidden]-|> Test

CreateTestUI ..> CreateTestControler
CreateTestUI ..> CategoryDto
CreateTestUI ..> ParameterDTO
CreateTestUI ..> TestTypeDTO
CategoryMapper ..> CategoryDto
CategoryMapper ..> ParameterCategory
ParameterMapper ..> ParameterDTO
ParameterMapper ..> Parameter
TestTypeMapper ..> TestTypeDTO
TestTypeMapper ..> TestType
CreateTestControler ..> Company
CreateTestControler ..> CategoryMapper
CreateTestControler ..> CategoryDto
CreateTestControler ..> ParameterMapper
CreateTestControler ..> ParameterDTO
CreateTestControler ..> TestTypeMapper
CreateTestControler ..> TestTypeDTO
CreateTestControler ..> ParameterStore
CreateTestControler ..> TestTypeStore
CreateTestControler ..> TestStore
TestTypeStore "1" - - "*" TestType : stores >
TestStore "1" - - "*" Test : stores >
ParameterStore "1" - - "*" Parameter : stores >
Company "1" - - "1" ParameterStore : uses >
Company "1" - - "1" TestTypeStore : uses >
Company "1" - - "1" TestStore : uses >
TestType "1" - - "1..*" Parameter : characterized by >
Company "1" - - "*" TestType : conducts >
Company "1" - - "*" Test : conducts >
Company "1" - - "*" Parameter : capable of analysing >
Test "*" - - "1" TestType : classified as >
Test "1" - - "1..*" TestParameter : requests analysis of >
TestParameter "*" - - "1" Parameter : refers to >
TestParameter "1" - - "0..1" TestParameterResult : contains >
Test "1" - - "1..*" Sample : collects >
Client "1" - - "1" Test : requested by <
Parameter "*" - - "1" ParameterCategory: presented under >
TestType "1" - - "1..*" ParameterCategory : characterized by >


@enduml

PlantUML version 1.2021.00(Sun Jan 10 10:25:05 GMT 2021)
(GPL source distribution)
Java Runtime: OpenJDK Runtime Environment
JVM: OpenJDK 64-Bit Server VM
Default Encoding: Cp1252
Language: pt
Country: BR
--></g></svg>