<?xml version="1.0" encoding="UTF-8" standalone="no"?><svg xmlns="http://www.w3.org/2000/svg" xmlns:xlink="http://www.w3.org/1999/xlink" contentScriptType="application/ecmascript" contentStyleType="text/css" height="2312.5px" preserveAspectRatio="none" style="width:3131px;height:2312px;" version="1.1" viewBox="0 0 3131 2312" width="3131.25px" zoomAndPan="magnify"><defs><filter height="300%" id="f3hcefzubxhh6" width="300%" x="-1" y="-1"><feGaussianBlur result="blurOut" stdDeviation="2.5"/><feColorMatrix in="blurOut" result="blurOut2" type="matrix" values="0 0 0 0 0 0 0 0 0 0 0 0 0 0 0 0 0 0 .4 0"/><feOffset dx="5.0" dy="5.0" in="blurOut2" result="blurOut3"/><feBlend in="SourceGraphic" in2="blurOut3" mode="normal"/></filter></defs><g><!--MD5=[9681dc6e01e10c6b4fe06895ae94f592]
cluster UI--><polygon fill="#FFFFFF" filter="url(#f3hcefzubxhh6)" points="20,2038.75,45,2038.75,53.75,2068.2617,191.25,2068.2617,191.25,2163.75,20,2163.75,20,2038.75" style="stroke:#000000;stroke-width:1.875;"/><line style="stroke:#000000;stroke-width:1.875;" x1="20" x2="53.75" y1="2068.2617" y2="2068.2617"/><text fill="#000000" font-family="sans-serif" font-size="17.5" font-weight="bold" lengthAdjust="spacing" textLength="17.5" x="25" y="2059.4165">UI</text><!--MD5=[121a8bf1197281ab89ed693fab589f94]
cluster Domain--><polygon fill="#FFFFFF" filter="url(#f3hcefzubxhh6)" points="966.875,7.5,1039.375,7.5,1048.125,37.0117,3110,37.0117,3110,1067.5,966.875,1067.5,966.875,7.5" style="stroke:#000000;stroke-width:1.875;"/><line style="stroke:#000000;stroke-width:1.875;" x1="966.875" x2="1048.125" y1="37.0117" y2="37.0117"/><text fill="#000000" font-family="sans-serif" font-size="17.5" font-weight="bold" lengthAdjust="spacing" textLength="65" x="971.875" y="28.1665">Domain</text><!--MD5=[15636c1ca4a123c16a2a1a8e90aca7a9]
cluster Model--><polygon fill="#FFFFFF" filter="url(#f3hcefzubxhh6)" points="996.875,582.5,1059.375,582.5,1068.125,612.0117,3080,612.0117,3080,1037.5,996.875,1037.5,996.875,582.5" style="stroke:#000000;stroke-width:1.875;"/><line style="stroke:#000000;stroke-width:1.875;" x1="996.875" x2="1068.125" y1="612.0117" y2="612.0117"/><text fill="#000000" font-family="sans-serif" font-size="17.5" font-weight="bold" lengthAdjust="spacing" textLength="55" x="1001.875" y="603.1665">Model</text><!--MD5=[8dd535d56cd4cf7faf64fdd082ba836e]
cluster Stores--><polygon fill="#FFFFFF" filter="url(#f3hcefzubxhh6)" points="1455.625,62.5,1520.625,62.5,1529.375,92.0117,1909.375,92.0117,1909.375,552.5,1455.625,552.5,1455.625,62.5" style="stroke:#000000;stroke-width:1.875;"/><line style="stroke:#000000;stroke-width:1.875;" x1="1455.625" x2="1529.375" y1="92.0117" y2="92.0117"/><text fill="#000000" font-family="sans-serif" font-size="17.5" font-weight="bold" lengthAdjust="spacing" textLength="57.5" x="1460.625" y="83.1665">Stores</text><!--MD5=[1f2cfc53d9d308f53762fd0fcbaa4873]
cluster Controller--><polygon fill="#FFFFFF" filter="url(#f3hcefzubxhh6)" points="232.5,1412.5,328.75,1412.5,337.5,1442.0117,825,1442.0117,825,1625,232.5,1625,232.5,1412.5" style="stroke:#000000;stroke-width:1.875;"/><line style="stroke:#000000;stroke-width:1.875;" x1="232.5" x2="337.5" y1="1442.0117" y2="1442.0117"/><text fill="#000000" font-family="sans-serif" font-size="17.5" font-weight="bold" lengthAdjust="spacing" textLength="88.75" x="237.5" y="1433.1665">Controller</text><!--MD5=[7b8bc9ee8bb84b99fb3a3f9477c19238]
cluster DTO--><polygon fill="#FFFFFF" filter="url(#f3hcefzubxhh6)" points="1437.5,1617.5,1481.25,1617.5,1490,1647.0117,1927.5,1647.0117,1927.5,2177.5,1437.5,2177.5,1437.5,1617.5" style="stroke:#000000;stroke-width:1.875;"/><line style="stroke:#000000;stroke-width:1.875;" x1="1437.5" x2="1490" y1="1647.0117" y2="1647.0117"/><text fill="#000000" font-family="sans-serif" font-size="17.5" font-weight="bold" lengthAdjust="spacing" textLength="36.25" x="1442.5" y="1638.1665">DTO</text><!--MD5=[701152d03fbf85133a1de050cfdbc7fd]
cluster Mappers--><polygon fill="#FFFFFF" filter="url(#f3hcefzubxhh6)" points="866.25,1300,951.25,1300,960,1329.5117,1312.5,1329.5117,1312.5,1737.5,866.25,1737.5,866.25,1300" style="stroke:#000000;stroke-width:1.875;"/><line style="stroke:#000000;stroke-width:1.875;" x1="866.25" x2="960" y1="1329.5117" y2="1329.5117"/><text fill="#000000" font-family="sans-serif" font-size="17.5" font-weight="bold" lengthAdjust="spacing" textLength="77.5" x="871.25" y="1320.6665">Mappers</text><!--MD5=[92f70f89e9f3cc4b172fe964212d1829]
class CreateTestUI--><rect codeLine="6" fill="#FEFECE" filter="url(#f3hcefzubxhh6)" height="60" id="CreateTestUI" style="stroke:#A80036;stroke-width:1.875;" width="131.25" x="40" y="2083.75"/><ellipse cx="58.75" cy="2103.75" fill="#ADD1B2" rx="13.75" ry="13.75" style="stroke:#A80036;stroke-width:1.25;"/><path d="M61.25,2099.375 Q61.5039,2098.75 61.7969,2098.4375 Q62.0898,2098.125 62.4219,2098.125 Q63.0078,2098.125 63.3789,2098.4766 Q63.75,2098.8281 63.75,2099.6484 L63.75,2101.6016 Q63.75,2102.4219 63.3984,2102.7734 Q63.0469,2103.125 62.5,2103.125 Q62.0117,2103.125 61.6992,2102.9102 Q61.3867,2102.6953 61.25,2102.1289 Q61.1914,2101.7383 60.9766,2101.5234 Q60.5859,2101.1133 59.8828,2100.8789 Q59.1797,2100.625 58.4766,2100.625 Q57.5977,2100.625 56.8555,2100.9766 Q56.1328,2101.3281 55.5664,2102.1094 Q55,2102.8906 55,2103.9648 L55,2105.1172 Q55,2106.4063 56.0547,2107.2656 Q57.1094,2108.125 58.9844,2108.125 Q60.0977,2108.125 60.8789,2107.8711 Q61.3281,2107.7344 61.8359,2107.2852 Q62.168,2107.0313 62.3438,2106.9531 Q62.5195,2106.875 62.7344,2106.875 Q63.1445,2106.875 63.4375,2107.207 Q63.75,2107.5195 63.75,2107.9688 Q63.75,2108.3984 63.3203,2108.9063 Q62.6953,2109.6484 61.6992,2110.0586 Q60.3906,2110.625 58.7891,2110.625 Q56.9141,2110.625 55.4102,2109.8828 Q54.1992,2109.2969 53.3398,2108.0273 Q52.5,2106.7578 52.5,2105.2539 L52.5,2103.8867 Q52.5,2102.3242 53.2422,2100.957 Q54.0039,2099.5898 55.3125,2098.8672 Q56.6406,2098.125 58.125,2098.125 Q59.0234,2098.125 59.8047,2098.4375 Q60.5859,2098.75 61.25,2099.375 Z " fill="#000000"/><text fill="#000000" font-family="sans-serif" font-size="15" lengthAdjust="spacing" textLength="91.25" x="76.25" y="2109.8877">CreateTestUI</text><line style="stroke:#A80036;stroke-width:1.875;" x1="41.25" x2="170" y1="2123.75" y2="2123.75"/><line style="stroke:#A80036;stroke-width:1.875;" x1="41.25" x2="170" y1="2133.75" y2="2133.75"/><!--MD5=[aeb3272166074d8737a70b61b1e71682]
class TestType--><rect codeLine="14" fill="#FEFECE" filter="url(#f3hcefzubxhh6)" height="111.8848" id="TestType" style="stroke:#A80036;stroke-width:1.875;" width="166.25" x="2154.375" y="905"/><ellipse cx="2201.8125" cy="925" fill="#ADD1B2" rx="13.75" ry="13.75" style="stroke:#A80036;stroke-width:1.25;"/><path d="M2204.3125,920.625 Q2204.5664,920 2204.8594,919.6875 Q2205.1523,919.375 2205.4844,919.375 Q2206.0703,919.375 2206.4414,919.7266 Q2206.8125,920.0781 2206.8125,920.8984 L2206.8125,922.8516 Q2206.8125,923.6719 2206.4609,924.0234 Q2206.1094,924.375 2205.5625,924.375 Q2205.0742,924.375 2204.7617,924.1602 Q2204.4492,923.9453 2204.3125,923.3789 Q2204.2539,922.9883 2204.0391,922.7734 Q2203.6484,922.3633 2202.9453,922.1289 Q2202.2422,921.875 2201.5391,921.875 Q2200.6602,921.875 2199.918,922.2266 Q2199.1953,922.5781 2198.6289,923.3594 Q2198.0625,924.1406 2198.0625,925.2148 L2198.0625,926.3672 Q2198.0625,927.6563 2199.1172,928.5156 Q2200.1719,929.375 2202.0469,929.375 Q2203.1602,929.375 2203.9414,929.1211 Q2204.3906,928.9844 2204.8984,928.5352 Q2205.2305,928.2813 2205.4063,928.2031 Q2205.582,928.125 2205.7969,928.125 Q2206.207,928.125 2206.5,928.457 Q2206.8125,928.7695 2206.8125,929.2188 Q2206.8125,929.6484 2206.3828,930.1563 Q2205.7578,930.8984 2204.7617,931.3086 Q2203.4531,931.875 2201.8516,931.875 Q2199.9766,931.875 2198.4727,931.1328 Q2197.2617,930.5469 2196.4023,929.2773 Q2195.5625,928.0078 2195.5625,926.5039 L2195.5625,925.1367 Q2195.5625,923.5742 2196.3047,922.207 Q2197.0664,920.8398 2198.375,920.1172 Q2199.7031,919.375 2201.1875,919.375 Q2202.0859,919.375 2202.8672,919.6875 Q2203.6484,920 2204.3125,920.625 Z " fill="#000000"/><text fill="#000000" font-family="sans-serif" font-size="15" lengthAdjust="spacing" textLength="62.5" x="2225.6875" y="931.1377">TestType</text><line style="stroke:#A80036;stroke-width:1.875;" x1="2155.625" x2="2319.375" y1="945" y2="945"/><text fill="#000000" font-family="sans-serif" font-size="13.75" lengthAdjust="spacing" textLength="81.25" x="2161.875" y="964.2737">-code : String</text><text fill="#000000" font-family="sans-serif" font-size="13.75" lengthAdjust="spacing" textLength="117.5" x="2161.875" y="981.5686">-description : String</text><text fill="#000000" font-family="sans-serif" font-size="13.75" lengthAdjust="spacing" textLength="151.25" x="2161.875" y="998.8635">-collectingMethod : String</text><line style="stroke:#A80036;stroke-width:1.875;" x1="2155.625" x2="2319.375" y1="1006.8848" y2="1006.8848"/><!--MD5=[df38be88ccee13e832d6fafd6288a4ca]
class Test--><rect codeLine="20" fill="#FEFECE" filter="url(#f3hcefzubxhh6)" height="94.5898" id="Test" style="stroke:#A80036;stroke-width:1.875;" width="120" x="1622.5" y="716.25"/><ellipse cx="1663.75" cy="736.25" fill="#ADD1B2" rx="13.75" ry="13.75" style="stroke:#A80036;stroke-width:1.25;"/><path d="M1666.25,731.875 Q1666.5039,731.25 1666.7969,730.9375 Q1667.0898,730.625 1667.4219,730.625 Q1668.0078,730.625 1668.3789,730.9766 Q1668.75,731.3281 1668.75,732.1484 L1668.75,734.1016 Q1668.75,734.9219 1668.3984,735.2734 Q1668.0469,735.625 1667.5,735.625 Q1667.0117,735.625 1666.6992,735.4102 Q1666.3867,735.1953 1666.25,734.6289 Q1666.1914,734.2383 1665.9766,734.0234 Q1665.5859,733.6133 1664.8828,733.3789 Q1664.1797,733.125 1663.4766,733.125 Q1662.5977,733.125 1661.8555,733.4766 Q1661.1328,733.8281 1660.5664,734.6094 Q1660,735.3906 1660,736.4648 L1660,737.6172 Q1660,738.9063 1661.0547,739.7656 Q1662.1094,740.625 1663.9844,740.625 Q1665.0977,740.625 1665.8789,740.3711 Q1666.3281,740.2344 1666.8359,739.7852 Q1667.168,739.5313 1667.3438,739.4531 Q1667.5195,739.375 1667.7344,739.375 Q1668.1445,739.375 1668.4375,739.707 Q1668.75,740.0195 1668.75,740.4688 Q1668.75,740.8984 1668.3203,741.4063 Q1667.6953,742.1484 1666.6992,742.5586 Q1665.3906,743.125 1663.7891,743.125 Q1661.9141,743.125 1660.4102,742.3828 Q1659.1992,741.7969 1658.3398,740.5273 Q1657.5,739.2578 1657.5,737.7539 L1657.5,736.3867 Q1657.5,734.8242 1658.2422,733.457 Q1659.0039,732.0898 1660.3125,731.3672 Q1661.6406,730.625 1663.125,730.625 Q1664.0234,730.625 1664.8047,730.9375 Q1665.5859,731.25 1666.25,731.875 Z " fill="#000000"/><text fill="#000000" font-family="sans-serif" font-size="15" lengthAdjust="spacing" textLength="30" x="1686.25" y="742.3877">Test</text><line style="stroke:#A80036;stroke-width:1.875;" x1="1623.75" x2="1741.25" y1="756.25" y2="756.25"/><text fill="#000000" font-family="sans-serif" font-size="13.75" lengthAdjust="spacing" textLength="105" x="1630" y="775.5237">-NHSCode: String</text><text fill="#000000" font-family="sans-serif" font-size="13.75" lengthAdjust="spacing" textLength="77.5" x="1630" y="792.8186">-code: String</text><line style="stroke:#A80036;stroke-width:1.875;" x1="1623.75" x2="1741.25" y1="800.8398" y2="800.8398"/><!--MD5=[9681492165142af2a4a3a169d90ee8d4]
class Sample--><rect codeLine="25" fill="#FEFECE" filter="url(#f3hcefzubxhh6)" height="77.2949" id="Sample" style="stroke:#A80036;stroke-width:1.875;" width="93.75" x="2190.625" y="673.75"/><ellipse cx="2209.375" cy="693.75" fill="#ADD1B2" rx="13.75" ry="13.75" style="stroke:#A80036;stroke-width:1.25;"/><path d="M2211.875,689.375 Q2212.1289,688.75 2212.4219,688.4375 Q2212.7148,688.125 2213.0469,688.125 Q2213.6328,688.125 2214.0039,688.4766 Q2214.375,688.8281 2214.375,689.6484 L2214.375,691.6016 Q2214.375,692.4219 2214.0234,692.7734 Q2213.6719,693.125 2213.125,693.125 Q2212.6367,693.125 2212.3242,692.9102 Q2212.0117,692.6953 2211.875,692.1289 Q2211.8164,691.7383 2211.6016,691.5234 Q2211.2109,691.1133 2210.5078,690.8789 Q2209.8047,690.625 2209.1016,690.625 Q2208.2227,690.625 2207.4805,690.9766 Q2206.7578,691.3281 2206.1914,692.1094 Q2205.625,692.8906 2205.625,693.9648 L2205.625,695.1172 Q2205.625,696.4063 2206.6797,697.2656 Q2207.7344,698.125 2209.6094,698.125 Q2210.7227,698.125 2211.5039,697.8711 Q2211.9531,697.7344 2212.4609,697.2852 Q2212.793,697.0313 2212.9688,696.9531 Q2213.1445,696.875 2213.3594,696.875 Q2213.7695,696.875 2214.0625,697.207 Q2214.375,697.5195 2214.375,697.9688 Q2214.375,698.3984 2213.9453,698.9063 Q2213.3203,699.6484 2212.3242,700.0586 Q2211.0156,700.625 2209.4141,700.625 Q2207.5391,700.625 2206.0352,699.8828 Q2204.8242,699.2969 2203.9648,698.0273 Q2203.125,696.7578 2203.125,695.2539 L2203.125,693.8867 Q2203.125,692.3242 2203.8672,690.957 Q2204.6289,689.5898 2205.9375,688.8672 Q2207.2656,688.125 2208.75,688.125 Q2209.6484,688.125 2210.4297,688.4375 Q2211.2109,688.75 2211.875,689.375 Z " fill="#000000"/><text fill="#000000" font-family="sans-serif" font-size="15" lengthAdjust="spacing" textLength="53.75" x="2226.875" y="699.8877">Sample</text><line style="stroke:#A80036;stroke-width:1.875;" x1="2191.875" x2="2283.125" y1="713.75" y2="713.75"/><text fill="#000000" font-family="sans-serif" font-size="13.75" lengthAdjust="spacing" textLength="56.25" x="2198.125" y="733.0237">-barCode</text><line style="stroke:#A80036;stroke-width:1.875;" x1="2191.875" x2="2283.125" y1="741.0449" y2="741.0449"/><!--MD5=[1f6362a5c8f21d8d6a0fce68f3a92a4e]
class Parameter--><rect codeLine="29" fill="#FEFECE" filter="url(#f3hcefzubxhh6)" height="111.8848" id="Parameter" style="stroke:#A80036;stroke-width:1.875;" width="112.5" x="2550.625" y="771.25"/><ellipse cx="2569.375" cy="791.25" fill="#ADD1B2" rx="13.75" ry="13.75" style="stroke:#A80036;stroke-width:1.25;"/><path d="M2571.875,786.875 Q2572.1289,786.25 2572.4219,785.9375 Q2572.7148,785.625 2573.0469,785.625 Q2573.6328,785.625 2574.0039,785.9766 Q2574.375,786.3281 2574.375,787.1484 L2574.375,789.1016 Q2574.375,789.9219 2574.0234,790.2734 Q2573.6719,790.625 2573.125,790.625 Q2572.6367,790.625 2572.3242,790.4102 Q2572.0117,790.1953 2571.875,789.6289 Q2571.8164,789.2383 2571.6016,789.0234 Q2571.2109,788.6133 2570.5078,788.3789 Q2569.8047,788.125 2569.1016,788.125 Q2568.2227,788.125 2567.4805,788.4766 Q2566.7578,788.8281 2566.1914,789.6094 Q2565.625,790.3906 2565.625,791.4648 L2565.625,792.6172 Q2565.625,793.9063 2566.6797,794.7656 Q2567.7344,795.625 2569.6094,795.625 Q2570.7227,795.625 2571.5039,795.3711 Q2571.9531,795.2344 2572.4609,794.7852 Q2572.793,794.5313 2572.9688,794.4531 Q2573.1445,794.375 2573.3594,794.375 Q2573.7695,794.375 2574.0625,794.707 Q2574.375,795.0195 2574.375,795.4688 Q2574.375,795.8984 2573.9453,796.4063 Q2573.3203,797.1484 2572.3242,797.5586 Q2571.0156,798.125 2569.4141,798.125 Q2567.5391,798.125 2566.0352,797.3828 Q2564.8242,796.7969 2563.9648,795.5273 Q2563.125,794.2578 2563.125,792.7539 L2563.125,791.3867 Q2563.125,789.8242 2563.8672,788.457 Q2564.6289,787.0898 2565.9375,786.3672 Q2567.2656,785.625 2568.75,785.625 Q2569.6484,785.625 2570.4297,785.9375 Q2571.2109,786.25 2571.875,786.875 Z " fill="#000000"/><text fill="#000000" font-family="sans-serif" font-size="15" lengthAdjust="spacing" textLength="72.5" x="2586.875" y="797.3877">Parameter</text><line style="stroke:#A80036;stroke-width:1.875;" x1="2551.875" x2="2661.875" y1="811.25" y2="811.25"/><text fill="#000000" font-family="sans-serif" font-size="13.75" lengthAdjust="spacing" textLength="35" x="2558.125" y="830.5237">-code</text><text fill="#000000" font-family="sans-serif" font-size="13.75" lengthAdjust="spacing" textLength="70" x="2558.125" y="847.8186">-shortName</text><text fill="#000000" font-family="sans-serif" font-size="13.75" lengthAdjust="spacing" textLength="71.25" x="2558.125" y="865.1135">-description</text><line style="stroke:#A80036;stroke-width:1.875;" x1="2551.875" x2="2661.875" y1="873.1348" y2="873.1348"/><!--MD5=[02e4b9b7573f1156f41e60aa5b4e25a4]
class Company--><rect codeLine="35" fill="#FEFECE" filter="url(#f3hcefzubxhh6)" height="129.1797" id="Company" style="stroke:#A80036;stroke-width:1.875;" width="145" x="1016.875" y="628.125"/><ellipse cx="1053.0625" cy="648.125" fill="#ADD1B2" rx="13.75" ry="13.75" style="stroke:#A80036;stroke-width:1.25;"/><path d="M1055.5625,643.75 Q1055.8164,643.125 1056.1094,642.8125 Q1056.4023,642.5 1056.7344,642.5 Q1057.3203,642.5 1057.6914,642.8516 Q1058.0625,643.2031 1058.0625,644.0234 L1058.0625,645.9766 Q1058.0625,646.7969 1057.7109,647.1484 Q1057.3594,647.5 1056.8125,647.5 Q1056.3242,647.5 1056.0117,647.2852 Q1055.6992,647.0703 1055.5625,646.5039 Q1055.5039,646.1133 1055.2891,645.8984 Q1054.8984,645.4883 1054.1953,645.2539 Q1053.4922,645 1052.7891,645 Q1051.9102,645 1051.168,645.3516 Q1050.4453,645.7031 1049.8789,646.4844 Q1049.3125,647.2656 1049.3125,648.3398 L1049.3125,649.4922 Q1049.3125,650.7813 1050.3672,651.6406 Q1051.4219,652.5 1053.2969,652.5 Q1054.4102,652.5 1055.1914,652.2461 Q1055.6406,652.1094 1056.1484,651.6602 Q1056.4805,651.4063 1056.6563,651.3281 Q1056.832,651.25 1057.0469,651.25 Q1057.457,651.25 1057.75,651.582 Q1058.0625,651.8945 1058.0625,652.3438 Q1058.0625,652.7734 1057.6328,653.2813 Q1057.0078,654.0234 1056.0117,654.4336 Q1054.7031,655 1053.1016,655 Q1051.2266,655 1049.7227,654.2578 Q1048.5117,653.6719 1047.6523,652.4023 Q1046.8125,651.1328 1046.8125,649.6289 L1046.8125,648.2617 Q1046.8125,646.6992 1047.5547,645.332 Q1048.3164,643.9648 1049.625,643.2422 Q1050.9531,642.5 1052.4375,642.5 Q1053.3359,642.5 1054.1172,642.8125 Q1054.8984,643.125 1055.5625,643.75 Z " fill="#000000"/><text fill="#000000" font-family="sans-serif" font-size="15" lengthAdjust="spacing" textLength="66.25" x="1074.4375" y="654.2627">Company</text><line style="stroke:#A80036;stroke-width:1.875;" x1="1018.125" x2="1160.625" y1="668.125" y2="668.125"/><text fill="#000000" font-family="sans-serif" font-size="13.75" lengthAdjust="spacing" textLength="120" x="1024.375" y="687.3987">-designation : String</text><line style="stroke:#A80036;stroke-width:1.875;" x1="1018.125" x2="1160.625" y1="695.4199" y2="695.4199"/><text fill="#000000" font-family="sans-serif" font-size="13.75" lengthAdjust="spacing" textLength="125" x="1024.375" y="714.6936">+getTestTypeStore()</text><text fill="#000000" font-family="sans-serif" font-size="13.75" lengthAdjust="spacing" textLength="130" x="1024.375" y="731.9885">+getParameterStore()</text><text fill="#000000" font-family="sans-serif" font-size="13.75" lengthAdjust="spacing" textLength="95" x="1024.375" y="749.2834">+getTestStore()</text><!--MD5=[36afb6bbd95a8ac778c4537c55a683d5]
class ParameterCategory--><rect codeLine="42" fill="#FEFECE" filter="url(#f3hcefzubxhh6)" height="94.5898" id="ParameterCategory" style="stroke:#A80036;stroke-width:1.875;" width="173.75" x="2886.25" y="913.75"/><ellipse cx="2905" cy="933.75" fill="#ADD1B2" rx="13.75" ry="13.75" style="stroke:#A80036;stroke-width:1.25;"/><path d="M2907.5,929.375 Q2907.7539,928.75 2908.0469,928.4375 Q2908.3398,928.125 2908.6719,928.125 Q2909.2578,928.125 2909.6289,928.4766 Q2910,928.8281 2910,929.6484 L2910,931.6016 Q2910,932.4219 2909.6484,932.7734 Q2909.2969,933.125 2908.75,933.125 Q2908.2617,933.125 2907.9492,932.9102 Q2907.6367,932.6953 2907.5,932.1289 Q2907.4414,931.7383 2907.2266,931.5234 Q2906.8359,931.1133 2906.1328,930.8789 Q2905.4297,930.625 2904.7266,930.625 Q2903.8477,930.625 2903.1055,930.9766 Q2902.3828,931.3281 2901.8164,932.1094 Q2901.25,932.8906 2901.25,933.9648 L2901.25,935.1172 Q2901.25,936.4063 2902.3047,937.2656 Q2903.3594,938.125 2905.2344,938.125 Q2906.3477,938.125 2907.1289,937.8711 Q2907.5781,937.7344 2908.0859,937.2852 Q2908.418,937.0313 2908.5938,936.9531 Q2908.7695,936.875 2908.9844,936.875 Q2909.3945,936.875 2909.6875,937.207 Q2910,937.5195 2910,937.9688 Q2910,938.3984 2909.5703,938.9063 Q2908.9453,939.6484 2907.9492,940.0586 Q2906.6406,940.625 2905.0391,940.625 Q2903.1641,940.625 2901.6602,939.8828 Q2900.4492,939.2969 2899.5898,938.0273 Q2898.75,936.7578 2898.75,935.2539 L2898.75,933.8867 Q2898.75,932.3242 2899.4922,930.957 Q2900.2539,929.5898 2901.5625,928.8672 Q2902.8906,928.125 2904.375,928.125 Q2905.2734,928.125 2906.0547,928.4375 Q2906.8359,928.75 2907.5,929.375 Z " fill="#000000"/><text fill="#000000" font-family="sans-serif" font-size="15" lengthAdjust="spacing" textLength="133.75" x="2922.5" y="939.8877">ParameterCategory</text><line style="stroke:#A80036;stroke-width:1.875;" x1="2887.5" x2="3058.75" y1="953.75" y2="953.75"/><text fill="#000000" font-family="sans-serif" font-size="13.75" lengthAdjust="spacing" textLength="35" x="2893.75" y="973.0237">-code</text><text fill="#000000" font-family="sans-serif" font-size="13.75" lengthAdjust="spacing" textLength="37.5" x="2893.75" y="990.3186">-name</text><line style="stroke:#A80036;stroke-width:1.875;" x1="2887.5" x2="3058.75" y1="998.3398" y2="998.3398"/><!--MD5=[be7802b157a16874d39c59ca0e2b25be]
class ParameterStore--><rect codeLine="49" fill="#FEFECE" filter="url(#f3hcefzubxhh6)" height="94.5898" id="ParameterStore" style="stroke:#A80036;stroke-width:1.875;" width="407.5" x="1478.75" y="107.5"/><ellipse cx="1622.8125" cy="127.5" fill="#ADD1B2" rx="13.75" ry="13.75" style="stroke:#A80036;stroke-width:1.25;"/><path d="M1625.3125,123.125 Q1625.5664,122.5 1625.8594,122.1875 Q1626.1523,121.875 1626.4844,121.875 Q1627.0703,121.875 1627.4414,122.2266 Q1627.8125,122.5781 1627.8125,123.3984 L1627.8125,125.3516 Q1627.8125,126.1719 1627.4609,126.5234 Q1627.1094,126.875 1626.5625,126.875 Q1626.0742,126.875 1625.7617,126.6602 Q1625.4492,126.4453 1625.3125,125.8789 Q1625.2539,125.4883 1625.0391,125.2734 Q1624.6484,124.8633 1623.9453,124.6289 Q1623.2422,124.375 1622.5391,124.375 Q1621.6602,124.375 1620.918,124.7266 Q1620.1953,125.0781 1619.6289,125.8594 Q1619.0625,126.6406 1619.0625,127.7148 L1619.0625,128.8672 Q1619.0625,130.1563 1620.1172,131.0156 Q1621.1719,131.875 1623.0469,131.875 Q1624.1602,131.875 1624.9414,131.6211 Q1625.3906,131.4844 1625.8984,131.0352 Q1626.2305,130.7813 1626.4063,130.7031 Q1626.582,130.625 1626.7969,130.625 Q1627.207,130.625 1627.5,130.957 Q1627.8125,131.2695 1627.8125,131.7188 Q1627.8125,132.1484 1627.3828,132.6563 Q1626.7578,133.3984 1625.7617,133.8086 Q1624.4531,134.375 1622.8516,134.375 Q1620.9766,134.375 1619.4727,133.6328 Q1618.2617,133.0469 1617.4023,131.7773 Q1616.5625,130.5078 1616.5625,129.0039 L1616.5625,127.6367 Q1616.5625,126.0742 1617.3047,124.707 Q1618.0664,123.3398 1619.375,122.6172 Q1620.7031,121.875 1622.1875,121.875 Q1623.0859,121.875 1623.8672,122.1875 Q1624.6484,122.5 1625.3125,123.125 Z " fill="#000000"/><text fill="#000000" font-family="sans-serif" font-size="15" lengthAdjust="spacing" textLength="108.75" x="1648.4375" y="133.6377">ParameterStore</text><line style="stroke:#A80036;stroke-width:1.875;" x1="1480" x2="1885" y1="147.5" y2="147.5"/><line style="stroke:#A80036;stroke-width:1.875;" x1="1480" x2="1885" y1="157.5" y2="157.5"/><text fill="#000000" font-family="sans-serif" font-size="13.75" lengthAdjust="spacing" textLength="392.5" x="1486.25" y="176.7737">+getParamsByCategories(List&lt;String&gt; selectedCategoriesCodes)</text><text fill="#000000" font-family="sans-serif" font-size="13.75" lengthAdjust="spacing" textLength="245" x="1486.25" y="194.0686">+getParamsByCategory(String category)</text><!--MD5=[6ba72ddf03822b91e8d41ca71de58ed3]
class TestTypeStore--><rect codeLine="54" fill="#FEFECE" filter="url(#f3hcefzubxhh6)" height="111.8848" id="TestTypeStore" style="stroke:#A80036;stroke-width:1.875;" width="397.5" x="1483.75" y="246.25"/><ellipse cx="1627.8125" cy="266.25" fill="#ADD1B2" rx="13.75" ry="13.75" style="stroke:#A80036;stroke-width:1.25;"/><path d="M1630.3125,261.875 Q1630.5664,261.25 1630.8594,260.9375 Q1631.1523,260.625 1631.4844,260.625 Q1632.0703,260.625 1632.4414,260.9766 Q1632.8125,261.3281 1632.8125,262.1484 L1632.8125,264.1016 Q1632.8125,264.9219 1632.4609,265.2734 Q1632.1094,265.625 1631.5625,265.625 Q1631.0742,265.625 1630.7617,265.4102 Q1630.4492,265.1953 1630.3125,264.6289 Q1630.2539,264.2383 1630.0391,264.0234 Q1629.6484,263.6133 1628.9453,263.3789 Q1628.2422,263.125 1627.5391,263.125 Q1626.6602,263.125 1625.918,263.4766 Q1625.1953,263.8281 1624.6289,264.6094 Q1624.0625,265.3906 1624.0625,266.4648 L1624.0625,267.6172 Q1624.0625,268.9063 1625.1172,269.7656 Q1626.1719,270.625 1628.0469,270.625 Q1629.1602,270.625 1629.9414,270.3711 Q1630.3906,270.2344 1630.8984,269.7852 Q1631.2305,269.5313 1631.4063,269.4531 Q1631.582,269.375 1631.7969,269.375 Q1632.207,269.375 1632.5,269.707 Q1632.8125,270.0195 1632.8125,270.4688 Q1632.8125,270.8984 1632.3828,271.4063 Q1631.7578,272.1484 1630.7617,272.5586 Q1629.4531,273.125 1627.8516,273.125 Q1625.9766,273.125 1624.4727,272.3828 Q1623.2617,271.7969 1622.4023,270.5273 Q1621.5625,269.2578 1621.5625,267.7539 L1621.5625,266.3867 Q1621.5625,264.8242 1622.3047,263.457 Q1623.0664,262.0898 1624.375,261.3672 Q1625.7031,260.625 1627.1875,260.625 Q1628.0859,260.625 1628.8672,260.9375 Q1629.6484,261.25 1630.3125,261.875 Z " fill="#000000"/><text fill="#000000" font-family="sans-serif" font-size="15" lengthAdjust="spacing" textLength="98.75" x="1653.4375" y="272.3877">TestTypeStore</text><line style="stroke:#A80036;stroke-width:1.875;" x1="1485" x2="1880" y1="286.25" y2="286.25"/><line style="stroke:#A80036;stroke-width:1.875;" x1="1485" x2="1880" y1="296.25" y2="296.25"/><text fill="#000000" font-family="sans-serif" font-size="13.75" lengthAdjust="spacing" textLength="100" x="1491.25" y="315.5237">+getTestTypes()</text><text fill="#000000" font-family="sans-serif" font-size="13.75" lengthAdjust="spacing" textLength="208.75" x="1491.25" y="332.8186">+getTestTypeByCode(String code)</text><text fill="#000000" font-family="sans-serif" font-size="13.75" lengthAdjust="spacing" textLength="382.5" x="1491.25" y="350.1135">+getCategoriesByTestTypeCode(String selectedTestTypeCode)</text><!--MD5=[0f6f7964b844a64b0496af0dda7914bd]
class TestStore--><rect codeLine="60" fill="#FEFECE" filter="url(#f3hcefzubxhh6)" height="129.1797" id="TestStore" style="stroke:#A80036;stroke-width:1.875;" width="413.75" x="1475.625" y="403.125"/><ellipse cx="1644.0625" cy="423.125" fill="#ADD1B2" rx="13.75" ry="13.75" style="stroke:#A80036;stroke-width:1.25;"/><path d="M1646.5625,418.75 Q1646.8164,418.125 1647.1094,417.8125 Q1647.4023,417.5 1647.7344,417.5 Q1648.3203,417.5 1648.6914,417.8516 Q1649.0625,418.2031 1649.0625,419.0234 L1649.0625,420.9766 Q1649.0625,421.7969 1648.7109,422.1484 Q1648.3594,422.5 1647.8125,422.5 Q1647.3242,422.5 1647.0117,422.2852 Q1646.6992,422.0703 1646.5625,421.5039 Q1646.5039,421.1133 1646.2891,420.8984 Q1645.8984,420.4883 1645.1953,420.2539 Q1644.4922,420 1643.7891,420 Q1642.9102,420 1642.168,420.3516 Q1641.4453,420.7031 1640.8789,421.4844 Q1640.3125,422.2656 1640.3125,423.3398 L1640.3125,424.4922 Q1640.3125,425.7813 1641.3672,426.6406 Q1642.4219,427.5 1644.2969,427.5 Q1645.4102,427.5 1646.1914,427.2461 Q1646.6406,427.1094 1647.1484,426.6602 Q1647.4805,426.4063 1647.6563,426.3281 Q1647.832,426.25 1648.0469,426.25 Q1648.457,426.25 1648.75,426.582 Q1649.0625,426.8945 1649.0625,427.3438 Q1649.0625,427.7734 1648.6328,428.2813 Q1648.0078,429.0234 1647.0117,429.4336 Q1645.7031,430 1644.1016,430 Q1642.2266,430 1640.7227,429.2578 Q1639.5117,428.6719 1638.6523,427.4023 Q1637.8125,426.1328 1637.8125,424.6289 L1637.8125,423.2617 Q1637.8125,421.6992 1638.5547,420.332 Q1639.3164,418.9648 1640.625,418.2422 Q1641.9531,417.5 1643.4375,417.5 Q1644.3359,417.5 1645.1172,417.8125 Q1645.8984,418.125 1646.5625,418.75 Z " fill="#000000"/><text fill="#000000" font-family="sans-serif" font-size="15" lengthAdjust="spacing" textLength="66.25" x="1669.6875" y="429.2627">TestStore</text><line style="stroke:#A80036;stroke-width:1.875;" x1="1476.875" x2="1888.125" y1="443.125" y2="443.125"/><line style="stroke:#A80036;stroke-width:1.875;" x1="1476.875" x2="1888.125" y1="453.125" y2="453.125"/><text fill="#000000" font-family="sans-serif" font-size="13.75" lengthAdjust="spacing" textLength="318.75" x="1483.125" y="472.3987">+createTest(String NHScode, Client associatedClient,</text><text fill="#000000" font-family="sans-serif" font-size="13.75" lengthAdjust="spacing" textLength="395" x="1486.875" y="489.6936">TestType selectedTestType, List&lt;Parameter&gt;selectedParamsList)</text><text fill="#000000" font-family="sans-serif" font-size="13.75" lengthAdjust="spacing" textLength="112.5" x="1483.125" y="506.9885">+validateTest(test)</text><text fill="#000000" font-family="sans-serif" font-size="13.75" lengthAdjust="spacing" textLength="96.25" x="1483.125" y="524.2834">+saveTest(test)</text><!--MD5=[9d781343e96e75b44552b4e167cedac1]
class CreateTestControler--><rect codeLine="70" fill="#FEFECE" filter="url(#f3hcefzubxhh6)" height="146.4746" id="CreateTestControler" style="stroke:#A80036;stroke-width:1.875;" width="552.5" x="252.5" y="1458.125"/><ellipse cx="453.4375" cy="1478.125" fill="#ADD1B2" rx="13.75" ry="13.75" style="stroke:#A80036;stroke-width:1.25;"/><path d="M455.9375,1473.75 Q456.1914,1473.125 456.4844,1472.8125 Q456.7773,1472.5 457.1094,1472.5 Q457.6953,1472.5 458.0664,1472.8516 Q458.4375,1473.2031 458.4375,1474.0234 L458.4375,1475.9766 Q458.4375,1476.7969 458.0859,1477.1484 Q457.7344,1477.5 457.1875,1477.5 Q456.6992,1477.5 456.3867,1477.2852 Q456.0742,1477.0703 455.9375,1476.5039 Q455.8789,1476.1133 455.6641,1475.8984 Q455.2734,1475.4883 454.5703,1475.2539 Q453.8672,1475 453.1641,1475 Q452.2852,1475 451.543,1475.3516 Q450.8203,1475.7031 450.2539,1476.4844 Q449.6875,1477.2656 449.6875,1478.3398 L449.6875,1479.4922 Q449.6875,1480.7813 450.7422,1481.6406 Q451.7969,1482.5 453.6719,1482.5 Q454.7852,1482.5 455.5664,1482.2461 Q456.0156,1482.1094 456.5234,1481.6602 Q456.8555,1481.4063 457.0313,1481.3281 Q457.207,1481.25 457.4219,1481.25 Q457.832,1481.25 458.125,1481.582 Q458.4375,1481.8945 458.4375,1482.3438 Q458.4375,1482.7734 458.0078,1483.2813 Q457.3828,1484.0234 456.3867,1484.4336 Q455.0781,1485 453.4766,1485 Q451.6016,1485 450.0977,1484.2578 Q448.8867,1483.6719 448.0273,1482.4023 Q447.1875,1481.1328 447.1875,1479.6289 L447.1875,1478.2617 Q447.1875,1476.6992 447.9297,1475.332 Q448.6914,1473.9648 450,1473.2422 Q451.3281,1472.5 452.8125,1472.5 Q453.7109,1472.5 454.4922,1472.8125 Q455.2734,1473.125 455.9375,1473.75 Z " fill="#000000"/><text fill="#000000" font-family="sans-serif" font-size="15" lengthAdjust="spacing" textLength="140" x="479.0625" y="1484.2627">CreateTestControler</text><line style="stroke:#A80036;stroke-width:1.875;" x1="253.75" x2="803.75" y1="1498.125" y2="1498.125"/><line style="stroke:#A80036;stroke-width:1.875;" x1="253.75" x2="803.75" y1="1508.125" y2="1508.125"/><text fill="#000000" font-family="sans-serif" font-size="13.75" lengthAdjust="spacing" textLength="537.5" x="260" y="1527.3987">+createTest(NHScode, citizenCardNumber,selectedTestTypeCode, selectedParamCodes)</text><text fill="#000000" font-family="sans-serif" font-size="13.75" lengthAdjust="spacing" textLength="96.25" x="260" y="1544.6936">+saveTest(test)</text><text fill="#000000" font-family="sans-serif" font-size="13.75" lengthAdjust="spacing" textLength="193.75" x="260" y="1561.9885">+getTestTypes() : TestTypeDTO</text><text fill="#000000" font-family="sans-serif" font-size="13.75" lengthAdjust="spacing" textLength="431.25" x="260" y="1579.2834">+getCategoriesListOfTestType(selectedTestTypeCode): CategoriesDTO</text><text fill="#000000" font-family="sans-serif" font-size="13.75" lengthAdjust="spacing" textLength="442.5" x="260" y="1596.5784">+getParametersOfCategories(selectedCategoriesCodes): ParametersDTO</text><!--MD5=[d0024740988d3925690046e9afae9c9c]
class TestTypeDTO--><rect codeLine="80" fill="#FEFECE" filter="url(#f3hcefzubxhh6)" height="146.4746" id="TestTypeDTO" style="stroke:#A80036;stroke-width:1.875;" width="450" x="1457.5" y="1663.125"/><ellipse cx="1630.3125" cy="1683.125" fill="#ADD1B2" rx="13.75" ry="13.75" style="stroke:#A80036;stroke-width:1.25;"/><path d="M1632.8125,1678.75 Q1633.0664,1678.125 1633.3594,1677.8125 Q1633.6523,1677.5 1633.9844,1677.5 Q1634.5703,1677.5 1634.9414,1677.8516 Q1635.3125,1678.2031 1635.3125,1679.0234 L1635.3125,1680.9766 Q1635.3125,1681.7969 1634.9609,1682.1484 Q1634.6094,1682.5 1634.0625,1682.5 Q1633.5742,1682.5 1633.2617,1682.2852 Q1632.9492,1682.0703 1632.8125,1681.5039 Q1632.7539,1681.1133 1632.5391,1680.8984 Q1632.1484,1680.4883 1631.4453,1680.2539 Q1630.7422,1680 1630.0391,1680 Q1629.1602,1680 1628.418,1680.3516 Q1627.6953,1680.7031 1627.1289,1681.4844 Q1626.5625,1682.2656 1626.5625,1683.3398 L1626.5625,1684.4922 Q1626.5625,1685.7813 1627.6172,1686.6406 Q1628.6719,1687.5 1630.5469,1687.5 Q1631.6602,1687.5 1632.4414,1687.2461 Q1632.8906,1687.1094 1633.3984,1686.6602 Q1633.7305,1686.4063 1633.9063,1686.3281 Q1634.082,1686.25 1634.2969,1686.25 Q1634.707,1686.25 1635,1686.582 Q1635.3125,1686.8945 1635.3125,1687.3438 Q1635.3125,1687.7734 1634.8828,1688.2813 Q1634.2578,1689.0234 1633.2617,1689.4336 Q1631.9531,1690 1630.3516,1690 Q1628.4766,1690 1626.9727,1689.2578 Q1625.7617,1688.6719 1624.9023,1687.4023 Q1624.0625,1686.1328 1624.0625,1684.6289 L1624.0625,1683.2617 Q1624.0625,1681.6992 1624.8047,1680.332 Q1625.5664,1678.9648 1626.875,1678.2422 Q1628.2031,1677.5 1629.6875,1677.5 Q1630.5859,1677.5 1631.3672,1677.8125 Q1632.1484,1678.125 1632.8125,1678.75 Z " fill="#000000"/><text fill="#000000" font-family="sans-serif" font-size="15" lengthAdjust="spacing" textLength="93.75" x="1655.9375" y="1689.2627">TestTypeDTO</text><line style="stroke:#A80036;stroke-width:1.875;" x1="1458.75" x2="1906.25" y1="1703.125" y2="1703.125"/><text fill="#000000" font-family="sans-serif" font-size="13.75" lengthAdjust="spacing" textLength="35" x="1465" y="1722.3987">-code</text><text fill="#000000" font-family="sans-serif" font-size="13.75" lengthAdjust="spacing" textLength="71.25" x="1465" y="1739.6936">-description</text><text fill="#000000" font-family="sans-serif" font-size="13.75" lengthAdjust="spacing" textLength="105" x="1465" y="1756.9885">-collectingMethod</text><text fill="#000000" font-family="sans-serif" font-size="13.75" lengthAdjust="spacing" textLength="216.25" x="1465" y="1774.2834">-List&lt;Category&gt; selectedCategories</text><line style="stroke:#A80036;stroke-width:1.875;" x1="1458.75" x2="1906.25" y1="1782.3047" y2="1782.3047"/><text fill="#000000" font-family="sans-serif" font-size="13.75" lengthAdjust="spacing" textLength="435" x="1465" y="1801.5784">+TestTypeDTO(code, description, collectingMethod, selectedCategories)</text><!--MD5=[6ca282d596ffdf8981b3c7f53e037f13]
class CategoryDto--><rect codeLine="88" fill="#FEFECE" filter="url(#f3hcefzubxhh6)" height="111.8848" id="CategoryDto" style="stroke:#A80036;stroke-width:1.875;" width="177.5" x="1593.75" y="1853.75"/><ellipse cx="1636.125" cy="1873.75" fill="#ADD1B2" rx="13.75" ry="13.75" style="stroke:#A80036;stroke-width:1.25;"/><path d="M1638.625,1869.375 Q1638.8789,1868.75 1639.1719,1868.4375 Q1639.4648,1868.125 1639.7969,1868.125 Q1640.3828,1868.125 1640.7539,1868.4766 Q1641.125,1868.8281 1641.125,1869.6484 L1641.125,1871.6016 Q1641.125,1872.4219 1640.7734,1872.7734 Q1640.4219,1873.125 1639.875,1873.125 Q1639.3867,1873.125 1639.0742,1872.9102 Q1638.7617,1872.6953 1638.625,1872.1289 Q1638.5664,1871.7383 1638.3516,1871.5234 Q1637.9609,1871.1133 1637.2578,1870.8789 Q1636.5547,1870.625 1635.8516,1870.625 Q1634.9727,1870.625 1634.2305,1870.9766 Q1633.5078,1871.3281 1632.9414,1872.1094 Q1632.375,1872.8906 1632.375,1873.9648 L1632.375,1875.1172 Q1632.375,1876.4063 1633.4297,1877.2656 Q1634.4844,1878.125 1636.3594,1878.125 Q1637.4727,1878.125 1638.2539,1877.8711 Q1638.7031,1877.7344 1639.2109,1877.2852 Q1639.543,1877.0313 1639.7188,1876.9531 Q1639.8945,1876.875 1640.1094,1876.875 Q1640.5195,1876.875 1640.8125,1877.207 Q1641.125,1877.5195 1641.125,1877.9688 Q1641.125,1878.3984 1640.6953,1878.9063 Q1640.0703,1879.6484 1639.0742,1880.0586 Q1637.7656,1880.625 1636.1641,1880.625 Q1634.2891,1880.625 1632.7852,1879.8828 Q1631.5742,1879.2969 1630.7148,1878.0273 Q1629.875,1876.7578 1629.875,1875.2539 L1629.875,1873.8867 Q1629.875,1872.3242 1630.6172,1870.957 Q1631.3789,1869.5898 1632.6875,1868.8672 Q1634.0156,1868.125 1635.5,1868.125 Q1636.3984,1868.125 1637.1797,1868.4375 Q1637.9609,1868.75 1638.625,1869.375 Z " fill="#000000"/><text fill="#000000" font-family="sans-serif" font-size="15" lengthAdjust="spacing" textLength="85" x="1658.875" y="1879.8877">CategoryDto</text><line style="stroke:#A80036;stroke-width:1.875;" x1="1595" x2="1770" y1="1893.75" y2="1893.75"/><text fill="#000000" font-family="sans-serif" font-size="13.75" lengthAdjust="spacing" textLength="35" x="1601.25" y="1913.0237">-code</text><text fill="#000000" font-family="sans-serif" font-size="13.75" lengthAdjust="spacing" textLength="37.5" x="1601.25" y="1930.3186">-name</text><line style="stroke:#A80036;stroke-width:1.875;" x1="1595" x2="1770" y1="1938.3398" y2="1938.3398"/><text fill="#000000" font-family="sans-serif" font-size="13.75" lengthAdjust="spacing" textLength="162.5" x="1601.25" y="1957.6135">+CategoryDto(code, name)</text><!--MD5=[e82331375a7233007428e4f15d504621]
class ParameterDTO--><rect codeLine="94" fill="#FEFECE" filter="url(#f3hcefzubxhh6)" height="146.4746" id="ParameterDTO" style="stroke:#A80036;stroke-width:1.875;" width="422.5" x="1471.25" y="2010.625"/><ellipse cx="1625.3125" cy="2030.625" fill="#ADD1B2" rx="13.75" ry="13.75" style="stroke:#A80036;stroke-width:1.25;"/><path d="M1627.8125,2026.25 Q1628.0664,2025.625 1628.3594,2025.3125 Q1628.6523,2025 1628.9844,2025 Q1629.5703,2025 1629.9414,2025.3516 Q1630.3125,2025.7031 1630.3125,2026.5234 L1630.3125,2028.4766 Q1630.3125,2029.2969 1629.9609,2029.6484 Q1629.6094,2030 1629.0625,2030 Q1628.5742,2030 1628.2617,2029.7852 Q1627.9492,2029.5703 1627.8125,2029.0039 Q1627.7539,2028.6133 1627.5391,2028.3984 Q1627.1484,2027.9883 1626.4453,2027.7539 Q1625.7422,2027.5 1625.0391,2027.5 Q1624.1602,2027.5 1623.418,2027.8516 Q1622.6953,2028.2031 1622.1289,2028.9844 Q1621.5625,2029.7656 1621.5625,2030.8398 L1621.5625,2031.9922 Q1621.5625,2033.2813 1622.6172,2034.1406 Q1623.6719,2035 1625.5469,2035 Q1626.6602,2035 1627.4414,2034.7461 Q1627.8906,2034.6094 1628.3984,2034.1602 Q1628.7305,2033.9063 1628.9063,2033.8281 Q1629.082,2033.75 1629.2969,2033.75 Q1629.707,2033.75 1630,2034.082 Q1630.3125,2034.3945 1630.3125,2034.8438 Q1630.3125,2035.2734 1629.8828,2035.7813 Q1629.2578,2036.5234 1628.2617,2036.9336 Q1626.9531,2037.5 1625.3516,2037.5 Q1623.4766,2037.5 1621.9727,2036.7578 Q1620.7617,2036.1719 1619.9023,2034.9023 Q1619.0625,2033.6328 1619.0625,2032.1289 L1619.0625,2030.7617 Q1619.0625,2029.1992 1619.8047,2027.832 Q1620.5664,2026.4648 1621.875,2025.7422 Q1623.2031,2025 1624.6875,2025 Q1625.5859,2025 1626.3672,2025.3125 Q1627.1484,2025.625 1627.8125,2026.25 Z " fill="#000000"/><text fill="#000000" font-family="sans-serif" font-size="15" lengthAdjust="spacing" textLength="103.75" x="1650.9375" y="2036.7627">ParameterDTO</text><line style="stroke:#A80036;stroke-width:1.875;" x1="1472.5" x2="1892.5" y1="2050.625" y2="2050.625"/><text fill="#000000" font-family="sans-serif" font-size="13.75" lengthAdjust="spacing" textLength="35" x="1478.75" y="2069.8987">-code</text><text fill="#000000" font-family="sans-serif" font-size="13.75" lengthAdjust="spacing" textLength="70" x="1478.75" y="2087.1936">-shortName</text><text fill="#000000" font-family="sans-serif" font-size="13.75" lengthAdjust="spacing" textLength="71.25" x="1478.75" y="2104.4885">-description</text><text fill="#000000" font-family="sans-serif" font-size="13.75" lengthAdjust="spacing" textLength="121.25" x="1478.75" y="2121.7834">-ParameterCategory</text><line style="stroke:#A80036;stroke-width:1.875;" x1="1472.5" x2="1892.5" y1="2129.8047" y2="2129.8047"/><text fill="#000000" font-family="sans-serif" font-size="13.75" lengthAdjust="spacing" textLength="407.5" x="1478.75" y="2149.0784">+ParameterDTO(code, shortName, description, ParameterCategory)'</text><!--MD5=[724ead17d3ca940995455a91cefd1e12]
class TestTypeMapper--><rect codeLine="105" fill="#FEFECE" filter="url(#f3hcefzubxhh6)" height="94.5898" id="TestTypeMapper" style="stroke:#A80036;stroke-width:1.875;" width="348.75" x="915" y="1345"/><ellipse cx="1027.1875" cy="1365" fill="#ADD1B2" rx="13.75" ry="13.75" style="stroke:#A80036;stroke-width:1.25;"/><path d="M1029.6875,1360.625 Q1029.9414,1360 1030.2344,1359.6875 Q1030.5273,1359.375 1030.8594,1359.375 Q1031.4453,1359.375 1031.8164,1359.7266 Q1032.1875,1360.0781 1032.1875,1360.8984 L1032.1875,1362.8516 Q1032.1875,1363.6719 1031.8359,1364.0234 Q1031.4844,1364.375 1030.9375,1364.375 Q1030.4492,1364.375 1030.1367,1364.1602 Q1029.8242,1363.9453 1029.6875,1363.3789 Q1029.6289,1362.9883 1029.4141,1362.7734 Q1029.0234,1362.3633 1028.3203,1362.1289 Q1027.6172,1361.875 1026.9141,1361.875 Q1026.0352,1361.875 1025.293,1362.2266 Q1024.5703,1362.5781 1024.0039,1363.3594 Q1023.4375,1364.1406 1023.4375,1365.2148 L1023.4375,1366.3672 Q1023.4375,1367.6563 1024.4922,1368.5156 Q1025.5469,1369.375 1027.4219,1369.375 Q1028.5352,1369.375 1029.3164,1369.1211 Q1029.7656,1368.9844 1030.2734,1368.5352 Q1030.6055,1368.2813 1030.7813,1368.2031 Q1030.957,1368.125 1031.1719,1368.125 Q1031.582,1368.125 1031.875,1368.457 Q1032.1875,1368.7695 1032.1875,1369.2188 Q1032.1875,1369.6484 1031.7578,1370.1563 Q1031.1328,1370.8984 1030.1367,1371.3086 Q1028.8281,1371.875 1027.2266,1371.875 Q1025.3516,1371.875 1023.8477,1371.1328 Q1022.6367,1370.5469 1021.7773,1369.2773 Q1020.9375,1368.0078 1020.9375,1366.5039 L1020.9375,1365.1367 Q1020.9375,1363.5742 1021.6797,1362.207 Q1022.4414,1360.8398 1023.75,1360.1172 Q1025.0781,1359.375 1026.5625,1359.375 Q1027.4609,1359.375 1028.2422,1359.6875 Q1029.0234,1360 1029.6875,1360.625 Z " fill="#000000"/><text fill="#000000" font-family="sans-serif" font-size="15" lengthAdjust="spacing" textLength="113.75" x="1052.8125" y="1371.1377">TestTypeMapper</text><line style="stroke:#A80036;stroke-width:1.875;" x1="916.25" x2="1262.5" y1="1385" y2="1385"/><line style="stroke:#A80036;stroke-width:1.875;" x1="916.25" x2="1262.5" y1="1395" y2="1395"/><text fill="#000000" font-family="sans-serif" font-size="13.75" lengthAdjust="spacing" textLength="333.75" x="922.5" y="1414.2737">+List&lt;TestTypeDTO&gt; toDTO(List&lt;TestType&gt; testTypes)</text><text fill="#000000" font-family="sans-serif" font-size="13.75" lengthAdjust="spacing" textLength="208.75" x="922.5" y="1431.5686">+TestTypeDTO toDTO(TestType tt)</text><!--MD5=[867476cd2a5db62f3ac412e45787ce2b]
class CategoryMapper--><rect codeLine="109" fill="#FEFECE" filter="url(#f3hcefzubxhh6)" height="94.5898" id="CategoryMapper" style="stroke:#A80036;stroke-width:1.875;" width="406.25" x="886.25" y="1483.75"/><ellipse cx="1027.8125" cy="1503.75" fill="#ADD1B2" rx="13.75" ry="13.75" style="stroke:#A80036;stroke-width:1.25;"/><path d="M1030.3125,1499.375 Q1030.5664,1498.75 1030.8594,1498.4375 Q1031.1523,1498.125 1031.4844,1498.125 Q1032.0703,1498.125 1032.4414,1498.4766 Q1032.8125,1498.8281 1032.8125,1499.6484 L1032.8125,1501.6016 Q1032.8125,1502.4219 1032.4609,1502.7734 Q1032.1094,1503.125 1031.5625,1503.125 Q1031.0742,1503.125 1030.7617,1502.9102 Q1030.4492,1502.6953 1030.3125,1502.1289 Q1030.2539,1501.7383 1030.0391,1501.5234 Q1029.6484,1501.1133 1028.9453,1500.8789 Q1028.2422,1500.625 1027.5391,1500.625 Q1026.6602,1500.625 1025.918,1500.9766 Q1025.1953,1501.3281 1024.6289,1502.1094 Q1024.0625,1502.8906 1024.0625,1503.9648 L1024.0625,1505.1172 Q1024.0625,1506.4063 1025.1172,1507.2656 Q1026.1719,1508.125 1028.0469,1508.125 Q1029.1602,1508.125 1029.9414,1507.8711 Q1030.3906,1507.7344 1030.8984,1507.2852 Q1031.2305,1507.0313 1031.4063,1506.9531 Q1031.582,1506.875 1031.7969,1506.875 Q1032.207,1506.875 1032.5,1507.207 Q1032.8125,1507.5195 1032.8125,1507.9688 Q1032.8125,1508.3984 1032.3828,1508.9063 Q1031.7578,1509.6484 1030.7617,1510.0586 Q1029.4531,1510.625 1027.8516,1510.625 Q1025.9766,1510.625 1024.4727,1509.8828 Q1023.2617,1509.2969 1022.4023,1508.0273 Q1021.5625,1506.7578 1021.5625,1505.2539 L1021.5625,1503.8867 Q1021.5625,1502.3242 1022.3047,1500.957 Q1023.0664,1499.5898 1024.375,1498.8672 Q1025.7031,1498.125 1027.1875,1498.125 Q1028.0859,1498.125 1028.8672,1498.4375 Q1029.6484,1498.75 1030.3125,1499.375 Z " fill="#000000"/><text fill="#000000" font-family="sans-serif" font-size="15" lengthAdjust="spacing" textLength="112.5" x="1053.4375" y="1509.8877">CategoryMapper</text><line style="stroke:#A80036;stroke-width:1.875;" x1="887.5" x2="1291.25" y1="1523.75" y2="1523.75"/><line style="stroke:#A80036;stroke-width:1.875;" x1="887.5" x2="1291.25" y1="1533.75" y2="1533.75"/><text fill="#000000" font-family="sans-serif" font-size="13.75" lengthAdjust="spacing" textLength="391.25" x="893.75" y="1553.0237">+List&lt;CategoryDto&gt; toDTO(List&lt;Category&gt; parameterCategories)</text><text fill="#000000" font-family="sans-serif" font-size="13.75" lengthAdjust="spacing" textLength="246.25" x="893.75" y="1570.3186">+CategoryDto toDTO(Category category)</text><!--MD5=[e0569d1bc34b9d21face98cd33d75fba]
class ParameterMapper--><rect codeLine="113" fill="#FEFECE" filter="url(#f3hcefzubxhh6)" height="94.5898" id="ParameterMapper" style="stroke:#A80036;stroke-width:1.875;" width="367.5" x="905.625" y="1622.5"/><ellipse cx="1022.1875" cy="1642.5" fill="#ADD1B2" rx="13.75" ry="13.75" style="stroke:#A80036;stroke-width:1.25;"/><path d="M1024.6875,1638.125 Q1024.9414,1637.5 1025.2344,1637.1875 Q1025.5273,1636.875 1025.8594,1636.875 Q1026.4453,1636.875 1026.8164,1637.2266 Q1027.1875,1637.5781 1027.1875,1638.3984 L1027.1875,1640.3516 Q1027.1875,1641.1719 1026.8359,1641.5234 Q1026.4844,1641.875 1025.9375,1641.875 Q1025.4492,1641.875 1025.1367,1641.6602 Q1024.8242,1641.4453 1024.6875,1640.8789 Q1024.6289,1640.4883 1024.4141,1640.2734 Q1024.0234,1639.8633 1023.3203,1639.6289 Q1022.6172,1639.375 1021.9141,1639.375 Q1021.0352,1639.375 1020.293,1639.7266 Q1019.5703,1640.0781 1019.0039,1640.8594 Q1018.4375,1641.6406 1018.4375,1642.7148 L1018.4375,1643.8672 Q1018.4375,1645.1563 1019.4922,1646.0156 Q1020.5469,1646.875 1022.4219,1646.875 Q1023.5352,1646.875 1024.3164,1646.6211 Q1024.7656,1646.4844 1025.2734,1646.0352 Q1025.6055,1645.7813 1025.7813,1645.7031 Q1025.957,1645.625 1026.1719,1645.625 Q1026.582,1645.625 1026.875,1645.957 Q1027.1875,1646.2695 1027.1875,1646.7188 Q1027.1875,1647.1484 1026.7578,1647.6563 Q1026.1328,1648.3984 1025.1367,1648.8086 Q1023.8281,1649.375 1022.2266,1649.375 Q1020.3516,1649.375 1018.8477,1648.6328 Q1017.6367,1648.0469 1016.7773,1646.7773 Q1015.9375,1645.5078 1015.9375,1644.0039 L1015.9375,1642.6367 Q1015.9375,1641.0742 1016.6797,1639.707 Q1017.4414,1638.3398 1018.75,1637.6172 Q1020.0781,1636.875 1021.5625,1636.875 Q1022.4609,1636.875 1023.2422,1637.1875 Q1024.0234,1637.5 1024.6875,1638.125 Z " fill="#000000"/><text fill="#000000" font-family="sans-serif" font-size="15" lengthAdjust="spacing" textLength="123.75" x="1047.8125" y="1648.6377">ParameterMapper</text><line style="stroke:#A80036;stroke-width:1.875;" x1="906.875" x2="1271.875" y1="1662.5" y2="1662.5"/><line style="stroke:#A80036;stroke-width:1.875;" x1="906.875" x2="1271.875" y1="1672.5" y2="1672.5"/><text fill="#000000" font-family="sans-serif" font-size="13.75" lengthAdjust="spacing" textLength="352.5" x="913.125" y="1691.7737">+List&lt;ParameterDTO&gt; toDTO(List&lt;Parameter&gt; parameters)</text><text fill="#000000" font-family="sans-serif" font-size="13.75" lengthAdjust="spacing" textLength="272.5" x="913.125" y="1709.0686">+ParameterDTO toDTO(Parameter parameter)</text><!--MD5=[a87ca41b19769012ec630dbc141b1436]
link CreateTestUI to CreateTestControler--><path codeLine="122" d="M128.6,2083.6625 C191.65,1996.35 376.1625,1740.8375 470.5125,1610.175 " fill="none" id="CreateTestUI-to-CreateTestControler" style="stroke:#A80036;stroke-width:1.25;stroke-dasharray:7.0,7.0;"/><polygon fill="#A80036" points="474.375,1604.825,463.7404,1611.0273,470.7203,1609.8951,471.8525,1616.8749,474.375,1604.825" style="stroke:#A80036;stroke-width:1.25;"/><!--MD5=[3d5f36034bd05a68f42d063684fd8cdc]
link CreateTestUI to CategoryDto--><path codeLine="123" d="M171.2625,2127.0375 C357.6875,2162.425 910.825,2245.6375 1322.5,2082.5 C1380.6625,2059.4625 1373.05,2019.5625 1427.5,1988.75 C1476.875,1960.825 1537.3625,1941.55 1586.9,1929.0625 " fill="none" id="CreateTestUI-to-CategoryDto" style="stroke:#A80036;stroke-width:1.25;stroke-dasharray:7.0,7.0;"/><polygon fill="#A80036" points="1593.5125,1927.425,1581.3857,1925.3028,1587.4491,1928.9408,1583.8111,1935.0042,1593.5125,1927.425" style="stroke:#A80036;stroke-width:1.25;"/><!--MD5=[4623db2661f880c526208cfcca0131e5]
link CreateTestUI to ParameterDTO--><path codeLine="124" d="M150,2143.9125 C168.0625,2154.7875 189.8125,2165.7375 211.25,2171.25 C730.4625,2304.8125 888.25,2256.75 1417.5,2171.25 C1437.025,2168.1 1457.075,2163.7125 1476.9625,2158.5625 " fill="none" id="CreateTestUI-to-ParameterDTO" style="stroke:#A80036;stroke-width:1.25;stroke-dasharray:7.0,7.0;"/><polygon fill="#A80036" points="1483.125,2156.9375,1470.9741,2154.9581,1477.0799,2158.5246,1473.5134,2164.6303,1483.125,2156.9375" style="stroke:#A80036;stroke-width:1.25;"/><!--MD5=[b119393afdc8554af40a71e4d23c569f]
link CreateTestUI to TestTypeDTO--><path codeLine="125" d="M171.525,2098.25 C386.45,2046.7125 1084.0875,1879.4375 1450.95,1791.475 " fill="none" id="CreateTestUI-to-TestTypeDTO" style="stroke:#A80036;stroke-width:1.25;stroke-dasharray:7.0,7.0;"/><polygon fill="#A80036" points="1457.4125,1789.925,1445.31,1787.6683,1451.3327,1791.3734,1447.6275,1797.3961,1457.4125,1789.925" style="stroke:#A80036;stroke-width:1.25;"/><!--MD5=[3d90787a6c4fcaaaef3316a8b7a2a1cb]
link CategoryMapper to CategoryDto--><path codeLine="126" d="M1290.8125,1578.85 C1302.0375,1585.0625 1312.7125,1592.075 1322.5,1600 C1391.2625,1655.7125 1388.2625,1691.475 1417.5,1775 C1425.8875,1798.975 1410.7,1812.2125 1427.5,1831.25 C1467.4625,1876.55 1532.9375,1896.1125 1587.375,1904.4125 " fill="none" id="CategoryMapper-to-CategoryDto" style="stroke:#A80036;stroke-width:1.25;stroke-dasharray:7.0,7.0;"/><polygon fill="#A80036" points="1593.6125,1905.325,1583.1933,1898.7674,1587.4268,1904.4311,1581.763,1908.6646,1593.6125,1905.325" style="stroke:#A80036;stroke-width:1.25;"/><!--MD5=[5f4198d269e8e237122a004a01e5b057]
link CategoryMapper to ParameterCategory--><path codeLine="127" d="M1292.525,1494.7375 C1406.2875,1477.225 1551.2375,1460 1681.25,1460 C1681.25,1460 1681.25,1460 2608.125,1460 C2826.2875,1460 2927.5,1144.65 2959.8,1015.4625 " fill="none" id="CategoryMapper-to-ParameterCategory" style="stroke:#A80036;stroke-width:1.25;stroke-dasharray:7.0,7.0;"/><polygon fill="#A80036" points="2961.375,1009.075,2953.8227,1018.7974,2959.876,1015.1426,2963.5308,1021.1959,2961.375,1009.075" style="stroke:#A80036;stroke-width:1.25;"/><!--MD5=[bcaa6a39389c8cb768501da2b7549a8d]
link ParameterMapper to ParameterDTO--><path codeLine="128" d="M1182.75,1717.65 C1258.4125,1761.85 1361.8875,1834.8875 1417.5,1928.75 C1431,1951.5375 1410.675,1967.05 1427.5,1987.5 C1438.425,2000.7875 1451.4,2012.25 1465.625,2022.125 " fill="none" id="ParameterMapper-to-ParameterDTO" style="stroke:#A80036;stroke-width:1.25;stroke-dasharray:7.0,7.0;"/><polygon fill="#A80036" points="1470.9125,2025.6875,1464.3748,2015.2557,1465.7287,2022.196,1458.7884,2023.5498,1470.9125,2025.6875" style="stroke:#A80036;stroke-width:1.25;"/><!--MD5=[6a9c25a7b7cd4f2505d061be4a34119e]
link ParameterMapper to Parameter--><path codeLine="129" d="M1273.2,1644.1875 C1486.5625,1611.8625 1824.8,1553.325 1937.5,1492.5 C2223.75,1338.05 2468.225,1022.6125 2563.2625,889.2375 " fill="none" id="ParameterMapper-to-Parameter" style="stroke:#A80036;stroke-width:1.25;stroke-dasharray:7.0,7.0;"/><polygon fill="#A80036" points="2567.1375,883.8,2556.5486,890.0799,2563.5199,888.8966,2564.7032,895.868,2567.1375,883.8" style="stroke:#A80036;stroke-width:1.25;"/><!--MD5=[a866f4e758874d18eed8ecae1602bb43]
link TestTypeMapper to TestTypeDTO--><path codeLine="130" d="M1264.3125,1436.35 C1284.3625,1443.6375 1304.1625,1451.9125 1322.5,1461.25 C1425.7875,1513.8625 1529.3125,1597.3125 1598.4125,1658.5 " fill="none" id="TestTypeMapper-to-TestTypeDTO" style="stroke:#A80036;stroke-width:1.25;stroke-dasharray:7.0,7.0;"/><polygon fill="#A80036" points="1603.3375,1662.8625,1598.2297,1651.661,1598.6583,1658.7191,1591.6003,1659.1477,1603.3375,1662.8625" style="stroke:#A80036;stroke-width:1.25;"/><!--MD5=[a3b705e4e3f391aa28b18ef9a5fd28a9]
link TestTypeMapper to TestType--><path codeLine="131" d="M1251.0625,1344.925 C1304.3125,1328.4125 1363.725,1309.2 1417.5,1290 C1686.775,1193.8875 1998.6625,1063.15 2147.8625,999.3875 " fill="none" id="TestTypeMapper-to-TestType" style="stroke:#A80036;stroke-width:1.25;stroke-dasharray:7.0,7.0;"/><polygon fill="#A80036" points="2153.975,996.775,2141.6648,996.6247,2148.2331,999.2435,2145.6144,1005.8117,2153.975,996.775" style="stroke:#A80036;stroke-width:1.25;"/><!--MD5=[8f55894bbc012aa6e8bd0f9e9c1fa823]
link CreateTestControler to Company--><path codeLine="132" d="M576.9625,1457.9625 C638.0625,1362.9 748.425,1192.1 845,1047.5 C911.5125,947.9125 990.075,833.825 1039.5,762.4625 " fill="none" id="CreateTestControler-to-Company" style="stroke:#A80036;stroke-width:1.25;stroke-dasharray:7.0,7.0;"/><polygon fill="#A80036" points="1043.3,756.975,1032.7762,763.3634,1039.735,762.1086,1040.9899,769.0674,1043.3,756.975" style="stroke:#A80036;stroke-width:1.25;"/><!--MD5=[75f1b5762c49b994a7e3ff994124fe26]
link CreateTestControler to CategoryMapper--><path codeLine="133" d="M805.3875,1531.25 C830.2625,1531.25 855.175,1531.25 879.3375,1531.25 " fill="none" id="CreateTestControler-to-CategoryMapper" style="stroke:#A80036;stroke-width:1.25;stroke-dasharray:7.0,7.0;"/><polygon fill="#A80036" points="886.1375,1531.25,874.8875,1526.25,879.8875,1531.25,874.8875,1536.25,886.1375,1531.25" style="stroke:#A80036;stroke-width:1.25;"/><!--MD5=[08b46ea753435d83600a12592d428521]
link CreateTestControler to CategoryDto--><path codeLine="134" d="M598.1875,1604.875 C659.475,1666.075 755.1875,1749.975 856.25,1793.75 C1104,1901.075 1429.075,1913.6875 1587,1912.6625 " fill="none" id="CreateTestControler-to-CategoryDto" style="stroke:#A80036;stroke-width:1.25;stroke-dasharray:7.0,7.0;"/><polygon fill="#A80036" points="1593.4625,1912.6125,1582.1701,1907.7091,1587.2127,1912.6661,1582.2558,1917.7087,1593.4625,1912.6125" style="stroke:#A80036;stroke-width:1.25;"/><!--MD5=[4e2eaaaa924769a5915195a82e4b50b3]
link CreateTestControler to ParameterMapper--><path codeLine="135" d="M805.3875,1599.7125 C837.075,1607.5875 868.8375,1615.4875 899.025,1622.9875 " fill="none" id="CreateTestControler-to-ParameterMapper" style="stroke:#A80036;stroke-width:1.25;stroke-dasharray:7.0,7.0;"/><polygon fill="#A80036" points="905.4375,1624.5875,895.7203,1617.0285,899.371,1623.0843,893.3152,1626.7349,905.4375,1624.5875" style="stroke:#A80036;stroke-width:1.25;"/><!--MD5=[5198f3041045b9988aed843607ceac3f]
link CreateTestControler to ParameterDTO--><path codeLine="136" d="M571.925,1604.475 C625.975,1691.8875 728.4375,1835.725 856.25,1911.25 C1042.8125,2021.5 1289.6125,2061.925 1464.525,2076.4125 " fill="none" id="CreateTestControler-to-ParameterDTO" style="stroke:#A80036;stroke-width:1.25;stroke-dasharray:7.0,7.0;"/><polygon fill="#A80036" points="1471.2375,2076.95,1460.4247,2071.0638,1465.0076,2076.4487,1459.6227,2081.0316,1471.2375,2076.95" style="stroke:#A80036;stroke-width:1.25;"/><!--MD5=[d436aa16cf3879d6ad396285eddf41c1]
link CreateTestControler to TestTypeMapper--><path codeLine="137" d="M805.3875,1462.7875 C840.45,1454.075 875.5875,1445.3375 908.6,1437.1375 " fill="none" id="CreateTestControler-to-TestTypeMapper" style="stroke:#A80036;stroke-width:1.25;stroke-dasharray:7.0,7.0;"/><polygon fill="#A80036" points="914.7375,1435.6125,902.6107,1433.4903,908.6741,1437.1283,905.0361,1443.1917,914.7375,1435.6125" style="stroke:#A80036;stroke-width:1.25;"/><!--MD5=[a728a1c0b6f50bd0e8c130b0563a2e8d]
link CreateTestControler to TestTypeDTO--><path codeLine="138" d="M615.75,1604.625 C677.975,1652.8 766.625,1711.55 856.25,1737.5 C1051,1793.9 1282.625,1787.55 1450.7875,1770.5875 " fill="none" id="CreateTestControler-to-TestTypeDTO" style="stroke:#A80036;stroke-width:1.25;stroke-dasharray:7.0,7.0;"/><polygon fill="#A80036" points="1457.25,1769.9375,1445.5572,1766.085,1451.0312,1770.5612,1446.5551,1776.0351,1457.25,1769.9375" style="stroke:#A80036;stroke-width:1.25;"/><!--MD5=[b89d522ccf9caf95dbbde9769ba39561]
link CreateTestControler to ParameterStore--><path codeLine="139" d="M584.4,1457.8125 C643.4375,1383.1375 744.3625,1269.2 856.25,1202.5 C1079.575,1069.375 1260.45,1244.7125 1417.5,1037.5 C1444.8125,1001.475 1399.8125,259.4875 1427.5,223.75 C1439.8125,207.875 1455.3875,195.4125 1472.75,185.6875 " fill="none" id="CreateTestControler-to-ParameterStore" style="stroke:#A80036;stroke-width:1.25;stroke-dasharray:7.0,7.0;"/><polygon fill="#A80036" points="1478.7,182.4875,1466.421,183.376,1473.1868,185.4315,1471.1314,192.1972,1478.7,182.4875" style="stroke:#A80036;stroke-width:1.25;"/><!--MD5=[3bbb6c5b03dfc4e682128937e80c1ca1]
link CreateTestControler to TestTypeStore--><path codeLine="140" d="M603.975,1457.9125 C666.425,1399.725 760.725,1320.2875 856.25,1271.25 C1086.875,1152.8625 1259.7125,1318.175 1417.5,1112.5 C1442.225,1080.2625 1403.175,413.8 1427.5,381.25 C1440.875,363.35 1458.275,349.4125 1477.7,338.5625 " fill="none" id="CreateTestControler-to-TestTypeStore" style="stroke:#A80036;stroke-width:1.25;stroke-dasharray:7.0,7.0;"/><polygon fill="#A80036" points="1483.2375,335.5875,1470.9621,336.5235,1477.7357,338.5528,1475.7065,345.3264,1483.2375,335.5875" style="stroke:#A80036;stroke-width:1.25;"/><!--MD5=[0a261a9b138dfe2e0bcc9eaa6466be5e]
link CreateTestControler to TestStore--><path codeLine="141" d="M626.1375,1457.9125 C688.675,1413.4625 773.675,1358.9875 856.25,1325 C1092.4625,1227.8 1255.8375,1399.0125 1417.5,1201.25 C1438.375,1175.7125 1410.4875,635.775 1427.5,607.5 C1445.2125,578.075 1471.5125,554.4 1500.5625,535.475 " fill="none" id="CreateTestControler-to-TestStore" style="stroke:#A80036;stroke-width:1.25;stroke-dasharray:7.0,7.0;"/><polygon fill="#A80036" points="1506.025,532,1493.8506,533.8295,1500.7543,535.3589,1499.2249,542.2626,1506.025,532" style="stroke:#A80036;stroke-width:1.25;"/><!--MD5=[3eebf0e5f359806b77b30e9524c37676]
link TestTypeStore to TestType--><path codeLine="142" d="M1881.425,339.125 C1902.5625,349.825 1921.975,363.5875 1937.5,381.25 C1954.625,400.7375 1935.9625,415.5125 1947.5,438.75 C1995.7375,535.9375 2066.7625,519.7125 2113.75,617.5 C2163.125,720.2625 2101.475,768.6875 2151.25,871.25 C2156.975,883.05 2164.8,894.3375 2173.3875,904.675 " fill="none" id="TestTypeStore-TestType" style="stroke:#A80036;stroke-width:1.25;"/><polygon fill="#000000" points="2007.867,433.2733,2005.9449,421.5416,1999.4162,424.912,2007.867,433.2733" style="stroke:#000000;stroke-width:1.25;"/><text fill="#000000" font-family="sans-serif" font-size="16.25" lengthAdjust="spacing" textLength="45" x="2016.25" y="434.3689">stores</text><text fill="#000000" font-family="sans-serif" font-size="16.25" lengthAdjust="spacing" textLength="8.75" x="1891.2723" y="358.2778">1</text><text fill="#000000" font-family="sans-serif" font-size="16.25" lengthAdjust="spacing" textLength="6.25" x="2156.8418" y="891.4303">*</text><!--MD5=[b0f4f6db8206580012ef9cd998ed01c5]
link TestStore to Test--><path codeLine="143" d="M1682.5,532.1125 C1682.5,587.575 1682.5,666.275 1682.5,716.15 " fill="none" id="TestStore-Test" style="stroke:#A80036;stroke-width:1.25;"/><polygon fill="#000000" points="1641.875,630.5322,1645.5487,619.2259,1638.2013,619.2259,1641.875,630.5322" style="stroke:#000000;stroke-width:1.25;"/><text fill="#000000" font-family="sans-serif" font-size="16.25" lengthAdjust="spacing" textLength="45" x="1653.125" y="630.9314">stores</text><text fill="#000000" font-family="sans-serif" font-size="16.25" lengthAdjust="spacing" textLength="8.75" x="1673.1621" y="559.0081">1</text><text fill="#000000" font-family="sans-serif" font-size="16.25" lengthAdjust="spacing" textLength="6.25" x="1675.6934" y="702.8346">*</text><!--MD5=[a0992dda039fed1bb57aff5aacace800]
link ParameterStore to Parameter--><path codeLine="144" d="M1885.2,202.6 C1903.175,208.925 1920.8625,215.9625 1937.5,223.75 C2213.9,353.0875 2300.375,386.6875 2500,617.5 C2539.375,663.0375 2568.4375,725.8125 2586.0125,770.85 " fill="none" id="ParameterStore-Parameter" style="stroke:#A80036;stroke-width:1.25;"/><polygon fill="#000000" points="2216.7296,322.9061,2210.2612,312.9317,2205.6338,318.6386,2216.7296,322.9061" style="stroke:#000000;stroke-width:1.25;"/><text fill="#000000" font-family="sans-serif" font-size="16.25" lengthAdjust="spacing" textLength="45" x="2223.125" y="325.6189">stores</text><text fill="#000000" font-family="sans-serif" font-size="16.25" lengthAdjust="spacing" textLength="8.75" x="1895.9726" y="225.1807">1</text><text fill="#000000" font-family="sans-serif" font-size="16.25" lengthAdjust="spacing" textLength="6.25" x="2576.0894" y="757.5939">*</text><!--MD5=[daf3d7412afa2c7651483be0b6e971d1]
link Company to ParameterStore--><path codeLine="145" d="M1119.175,627.825 C1167.5375,525.925 1275.3625,328.825 1427.5,223.75 C1443.175,212.925 1460.4875,203.8 1478.4875,196.1125 " fill="none" id="Company-ParameterStore" style="stroke:#A80036;stroke-width:1.25;"/><polygon fill="#000000" points="1358.3732,217.9159,1348.3168,224.256,1353.964,228.9562,1358.3732,217.9159" style="stroke:#000000;stroke-width:1.25;"/><text fill="#000000" font-family="sans-serif" font-size="16.25" lengthAdjust="spacing" textLength="35" x="1365.625" y="229.3689">uses</text><text fill="#000000" font-family="sans-serif" font-size="16.25" lengthAdjust="spacing" textLength="8.75" x="1113.8415" y="614.6601">1</text><text fill="#000000" font-family="sans-serif" font-size="16.25" lengthAdjust="spacing" textLength="8.75" x="1460.2949" y="215.3167">1</text><!--MD5=[141c3afa12b2b3c0a39ffce56dbd5f19]
link Company to TestTypeStore--><path codeLine="146" d="M1144.3625,628.0125 C1206,557.9125 1313.3625,447.125 1427.5,381.25 C1445.075,371.1125 1464.1125,362.125 1483.575,354.2 " fill="none" id="Company-TestTypeStore" style="stroke:#A80036;stroke-width:1.25;"/><polygon fill="#000000" points="1359.2383,372.5441,1348.1331,376.7871,1352.748,382.5042,1359.2383,372.5441" style="stroke:#000000;stroke-width:1.25;"/><text fill="#000000" font-family="sans-serif" font-size="16.25" lengthAdjust="spacing" textLength="35" x="1365.625" y="383.1189">uses</text><text fill="#000000" font-family="sans-serif" font-size="16.25" lengthAdjust="spacing" textLength="8.75" x="1142.7299" y="614.4073">1</text><text fill="#000000" font-family="sans-serif" font-size="16.25" lengthAdjust="spacing" textLength="8.75" x="1464.9777" y="374.083">1</text><!--MD5=[7f6cf7f175eae0af66201860de5de971]
link Company to TestStore--><path codeLine="147" d="M1162.4625,665.1375 C1248.6875,632.2875 1396.15,576.1125 1511.8625,532.025 " fill="none" id="Company-TestStore" style="stroke:#A80036;stroke-width:1.25;"/><polygon fill="#000000" points="1360.2155,556.7446,1348.3421,557.3369,1350.9578,564.2028,1360.2155,556.7446" style="stroke:#000000;stroke-width:1.25;"/><text fill="#000000" font-family="sans-serif" font-size="16.25" lengthAdjust="spacing" textLength="35" x="1365.625" y="565.6189">uses</text><text fill="#000000" font-family="sans-serif" font-size="16.25" lengthAdjust="spacing" textLength="8.75" x="1171.9032" y="657.4534">1</text><text fill="#000000" font-family="sans-serif" font-size="16.25" lengthAdjust="spacing" textLength="8.75" x="1478.5014" y="559.3747">1</text><!--MD5=[5b7a9ded131023be416e27d15bcd6d77]
link TestType to Parameter--><path codeLine="148" d="M2320.625,931.4 C2390.525,905.925 2489.1625,869.9625 2550.1625,847.725 " fill="none" id="TestType-Parameter" style="stroke:#A80036;stroke-width:1.25;"/><polygon fill="#000000" points="2373.372,854.3292,2361.4913,854.75,2364.0076,861.653,2373.372,854.3292" style="stroke:#000000;stroke-width:1.25;"/><text fill="#000000" font-family="sans-serif" font-size="16.25" lengthAdjust="spacing" textLength="120" x="2378.75" y="863.1189">characterized by</text><text fill="#000000" font-family="sans-serif" font-size="16.25" lengthAdjust="spacing" textLength="8.75" x="2330.7422" y="946.0347">1</text><text fill="#000000" font-family="sans-serif" font-size="16.25" lengthAdjust="spacing" textLength="25" x="2515.4295" y="868.9184">1..*</text><!--MD5=[742a261f27a3dcd734c626287d811acd]
link Company to TestType--><path codeLine="149" d="M1162.175,735.3375 C1228.575,773.0375 1331.375,826.275 1427.5,855 C1685.3,932.0625 2005.925,953.2625 2154.1125,959.075 " fill="none" id="Company-TestType" style="stroke:#A80036;stroke-width:1.25;"/><polygon fill="#000000" points="1652.3468,845.3449,1642.1259,839.2736,1640.5092,846.4408,1652.3468,845.3449" style="stroke:#000000;stroke-width:1.25;"/><text fill="#000000" font-family="sans-serif" font-size="16.25" lengthAdjust="spacing" textLength="66.25" x="1657.5" y="850.6189">conducts</text><text fill="#000000" font-family="sans-serif" font-size="16.25" lengthAdjust="spacing" textLength="8.75" x="1172.063" y="758.9768">1</text><text fill="#000000" font-family="sans-serif" font-size="16.25" lengthAdjust="spacing" textLength="6.25" x="2137.8595" y="976.9096">*</text><!--MD5=[7e4bc624457760b649895ff2ead938fa]
link Company to Test--><path codeLine="150" d="M1162.4625,701.175 C1280.5125,715.4125 1513.3,743.4875 1622.325,756.65 " fill="none" id="Company-Test" style="stroke:#A80036;stroke-width:1.25;"/><polygon fill="#000000" points="1344.955,712.2183,1334.17,707.2169,1333.2901,714.5114,1344.955,712.2183" style="stroke:#000000;stroke-width:1.25;"/><text fill="#000000" font-family="sans-serif" font-size="16.25" lengthAdjust="spacing" textLength="66.25" x="1350" y="718.1189">conducts</text><text fill="#000000" font-family="sans-serif" font-size="16.25" lengthAdjust="spacing" textLength="8.75" x="1171.9032" y="720.3205">1</text><text fill="#000000" font-family="sans-serif" font-size="16.25" lengthAdjust="spacing" textLength="6.25" x="1606.3822" y="774.028">*</text><!--MD5=[12d76240d3c3c66074d4ec2ea8bf469c]
link Company to Parameter--><path codeLine="151" d="M1161.975,688.775 C1332.775,680.0375 1778.625,658.5 2151.25,651.25 C2227.9,649.7625 2250.0625,630.1125 2323.75,651.25 C2410.575,676.1625 2496.5875,736.4875 2550.325,779.6125 " fill="none" id="Company-Parameter" style="stroke:#A80036;stroke-width:1.25;"/><polygon fill="#000000" points="1959.9867,641.8778,1948.9443,637.4738,1948.4646,644.8054,1959.9867,641.8778" style="stroke:#000000;stroke-width:1.25;"/><text fill="#000000" font-family="sans-serif" font-size="16.25" lengthAdjust="spacing" textLength="147.5" x="1965" y="648.1189">capable of analysing</text><text fill="#000000" font-family="sans-serif" font-size="16.25" lengthAdjust="spacing" textLength="8.75" x="1171.8374" y="683.886">1</text><text fill="#000000" font-family="sans-serif" font-size="16.25" lengthAdjust="spacing" textLength="6.25" x="2534.1913" y="790.2936">*</text><!--MD5=[e981d4f96c4342412d1e68160b30cf70]
link Test to TestType--><path codeLine="152" d="M1742.875,784.8875 C1841.975,820.3125 2041.7875,891.7375 2154.35,931.975 " fill="none" id="Test-TestType" style="stroke:#A80036;stroke-width:1.25;"/><polygon fill="#000000" points="1988.3853,853.5735,1978.9753,846.3084,1976.5021,853.227,1988.3853,853.5735" style="stroke:#000000;stroke-width:1.25;"/><text fill="#000000" font-family="sans-serif" font-size="16.25" lengthAdjust="spacing" textLength="90" x="1993.75" y="858.1189">classified as</text><text fill="#000000" font-family="sans-serif" font-size="16.25" lengthAdjust="spacing" textLength="6.25" x="1752.5984" y="806.5894">*</text><text fill="#000000" font-family="sans-serif" font-size="16.25" lengthAdjust="spacing" textLength="8.75" x="2135.4799" y="946.6762">1</text><!--MD5=[c23963f6e403fc3ebec8dae22c30ade6]
link Test to Parameter--><path codeLine="153" d="M1742.825,767.8375 C1910.525,779.4375 2387.9125,812.45 2550.5625,823.7 " fill="none" id="Test-Parameter" style="stroke:#A80036;stroke-width:1.25;"/><polygon fill="#000000" points="2163.7351,785.6509,2152.7092,781.206,2152.2022,788.5358,2163.7351,785.6509" style="stroke:#000000;stroke-width:1.25;"/><text fill="#000000" font-family="sans-serif" font-size="16.25" lengthAdjust="spacing" textLength="153.75" x="2168.75" y="791.8689">requested analysis of</text><text fill="#000000" font-family="sans-serif" font-size="16.25" lengthAdjust="spacing" textLength="6.25" x="1752.5408" y="781.163">*</text><text fill="#000000" font-family="sans-serif" font-size="16.25" lengthAdjust="spacing" textLength="25" x="2515.4557" y="841.557">1..*</text><!--MD5=[b72ac8ab7fb5921fceb5036a3902baea]
link Test to Sample--><path codeLine="154" d="M1742.5625,759.0875 C1825.425,752.4125 1981.2125,739.475 2113.75,726.25 C2139.0875,723.725 2167.3375,720.575 2190.325,717.9375 " fill="none" id="Test-Sample" style="stroke:#A80036;stroke-width:1.25;"/><polygon fill="#000000" points="2005.5988,714.6478,1994.0037,712.0242,1994.6761,719.3407,2005.5988,714.6478" style="stroke:#000000;stroke-width:1.25;"/><text fill="#000000" font-family="sans-serif" font-size="16.25" lengthAdjust="spacing" textLength="56.25" x="2010.625" y="721.8689">collects</text><text fill="#000000" font-family="sans-serif" font-size="16.25" lengthAdjust="spacing" textLength="8.75" x="1752.4295" y="753.7762">1</text><text fill="#000000" font-family="sans-serif" font-size="16.25" lengthAdjust="spacing" textLength="25" x="2155.4413" y="737.4166">1..*</text><!--MD5=[6df8849671cb880f6936e94aa30db6f9]
link Parameter to ParameterCategory--><path codeLine="155" d="M2663.375,847.8125 C2722.5,869.5625 2817.075,904.3375 2885.9375,929.65 " fill="none" id="Parameter-ParameterCategory" style="stroke:#A80036;stroke-width:1.25;"/><polygon fill="#000000" points="2725.866,858.6267,2716.5221,851.2768,2713.9865,858.1727,2725.866,858.6267" style="stroke:#000000;stroke-width:1.25;"/><text fill="#000000" font-family="sans-serif" font-size="16.25" lengthAdjust="spacing" textLength="116.25" x="2731.25" y="863.1189">presented under</text><text fill="#000000" font-family="sans-serif" font-size="16.25" lengthAdjust="spacing" textLength="6.25" x="2673.2504" y="869.7892">*</text><text fill="#000000" font-family="sans-serif" font-size="16.25" lengthAdjust="spacing" textLength="8.75" x="2867.7451" y="944.3352">1</text><!--MD5=[8aaf0efd5e2f3824be7ea3e488dcc283]
link TestType to ParameterCategory--><path codeLine="156" d="M2320.7125,961.25 C2460.4625,961.25 2743.5,961.25 2885.9125,961.25 " fill="none" id="TestType-ParameterCategory" style="stroke:#A80036;stroke-width:1.25;"/><polygon fill="#000000" points="2550,950.2197,2538.6936,946.5461,2538.6936,953.8934,2550,950.2197" style="stroke:#000000;stroke-width:1.25;"/><text fill="#000000" font-family="sans-serif" font-size="16.25" lengthAdjust="spacing" textLength="120" x="2555" y="956.8689">characterized by</text><text fill="#000000" font-family="sans-serif" font-size="16.25" lengthAdjust="spacing" textLength="8.75" x="2330.8398" y="979.3361">1</text><text fill="#000000" font-family="sans-serif" font-size="16.25" lengthAdjust="spacing" textLength="25" x="2851.0971" y="979.1451">1..*</text><!--MD5=[7a8c15574cfa34ac6b508b895f9b366a]
@startuml
skinparam classAttributeIconSize 0
left to right direction


package UI <<Folder>> {
  class CreateTestUI{
  }
}


package Domain <<Folder>> {
    package Model <<Folder>> {

        class TestType {
        - code : String
        - description : String
        - collectingMethod : String
        }

        class Test{
            - NHSCode: String
            - code: String
        }

        class Sample{
            - barCode
        }

        class Parameter {
          -code
          -shortName
          -description
        }

        class Company {
            -designation : String
            +getTestTypeStore()
            +getParameterStore()
            +getTestStore()
        }

        class ParameterCategory{
            -code
            -name
        }

    }
    package Stores <<Folder>> {
        class ParameterStore {
            +getParamsByCategories(List<String> selectedCategoriesCodes)
            +getParamsByCategory(String category)
        }

        class TestTypeStore {
               +getTestTypes()
               +getTestTypeByCode(String code)
               +getCategoriesByTestTypeCode(String selectedTestTypeCode)
            }

        class TestStore {
            +createTest(String NHScode, Client associatedClient,\n TestType selectedTestType, List<Parameter>selectedParamsList)
            +validateTest(test)
            +saveTest(test)
        }

    }
}

package Controller <<Folder>>{
    class CreateTestControler{
    +createTest(NHScode, citizenCardNumber,selectedTestTypeCode, selectedParamCodes)
    +saveTest(test)
    +getTestTypes() : TestTypeDTO
    +getCategoriesListOfTestType(selectedTestTypeCode): CategoriesDTO
    +getParametersOfCategories(selectedCategoriesCodes): ParametersDTO
    }
}

package DTO <<Folder>>{
    class TestTypeDTO {
    -code
    -description
    -collectingMethod
    -List<Category> selectedCategories
    +TestTypeDTO(code, description, collectingMethod, selectedCategories)
    }

    class CategoryDto {
    -code
    -name
    +CategoryDto(code, name)
    }

    class ParameterDTO {
    -code
    -shortName
    -description
    -ParameterCategory
    +ParameterDTO(code, shortName, description, ParameterCategory)'
    }

}

package Mappers <<Folder>>{
    class TestTypeMapper {
        +List<TestTypeDTO> toDTO(List<TestType> testTypes)
        +TestTypeDTO toDTO(TestType tt)
    }
    class CategoryMapper{
        +List<CategoryDto> toDTO(List<Category> parameterCategories)
        +CategoryDto toDTO(Category category)
    }
    class ParameterMapper {
        +List<ParameterDTO> toDTO(List<Parameter> parameters)
        +ParameterDTO toDTO(Parameter parameter)
    }

}



CreateTestUI ..> CreateTestControler
CreateTestUI ..> CategoryDto
CreateTestUI ..> ParameterDTO
CreateTestUI ..> TestTypeDTO
CategoryMapper ..> CategoryDto
CategoryMapper ..> ParameterCategory
ParameterMapper ..> ParameterDTO
ParameterMapper ..> Parameter
TestTypeMapper ..> TestTypeDTO
TestTypeMapper ..> TestType
CreateTestControler ..> Company
CreateTestControler ..> CategoryMapper
CreateTestControler ..> CategoryDto
CreateTestControler ..> ParameterMapper
CreateTestControler ..> ParameterDTO
CreateTestControler ..> TestTypeMapper
CreateTestControler ..> TestTypeDTO
CreateTestControler ..> ParameterStore
CreateTestControler ..> TestTypeStore
CreateTestControler ..> TestStore
TestTypeStore "1" - - "*" TestType : stores >
TestStore "1" - - "*" Test : stores >
ParameterStore "1" - - "*" Parameter : stores >
Company "1" - - "1" ParameterStore : uses >
Company "1" - - "1" TestTypeStore : uses >
Company "1" - - "1" TestStore : uses >
TestType "1" - - "1..*" Parameter : characterized by >
Company "1" - - "*" TestType : conducts >
Company "1" - - "*" Test : conducts >
Company "1" - - "*" Parameter : capable of analysing >
Test "*" - - "1" TestType : classified as >
Test "*" - - "1..*" Parameter : requested analysis of >
Test "1" - - "1..*" Sample : collects >
Parameter "*" - - "1" ParameterCategory: presented under >
TestType "1" - - "1..*" ParameterCategory : characterized by >


@enduml

PlantUML version 1.2021.00(Sun Jan 10 10:25:05 GMT 2021)
(GPL source distribution)
Java Runtime: OpenJDK Runtime Environment
JVM: OpenJDK 64-Bit Server VM
Default Encoding: Cp1252
Language: pt
Country: BR
--></g></svg>