<?xml version="1.0" encoding="UTF-8" standalone="no"?><svg xmlns="http://www.w3.org/2000/svg" xmlns:xlink="http://www.w3.org/1999/xlink" contentScriptType="application/ecmascript" contentStyleType="text/css" height="331.08px" preserveAspectRatio="none" style="width:848px;height:331px;" version="1.1" viewBox="0 0 848 331" width="848.78px" zoomAndPan="magnify"><defs><filter height="300%" id="f1lc2bfqdifdt8" width="300%" x="-1" y="-1"><feGaussianBlur result="blurOut" stdDeviation="1.24"/><feColorMatrix in="blurOut" result="blurOut2" type="matrix" values="0 0 0 0 0 0 0 0 0 0 0 0 0 0 0 0 0 0 .4 0"/><feOffset dx="2.48" dy="2.48" in="blurOut2" result="blurOut3"/><feBlend in="SourceGraphic" in2="blurOut3" mode="normal"/></filter></defs><g><!--MD5=[df38be88ccee13e832d6fafd6288a4ca]
class Test--><rect codeLine="7" fill="#FEFECE" filter="url(#f1lc2bfqdifdt8)" height="76.2697" id="Test" style="stroke:#A80036;stroke-width:0.9299999999999999;" width="84.32" x="191.58" y="117.49"/><ellipse cx="223.665" cy="127.41" fill="#ADD1B2" rx="6.82" ry="6.82" style="stroke:#A80036;stroke-width:0.62;"/><path d="M224.905,125.24 Q225.0309,124.93 225.1763,124.775 Q225.3216,124.62 225.4863,124.62 Q225.7769,124.62 225.9609,124.7944 Q226.145,124.9688 226.145,125.3756 L226.145,126.3444 Q226.145,126.7513 225.9706,126.9256 Q225.7963,127.1 225.525,127.1 Q225.2828,127.1 225.1278,126.9934 Q224.9728,126.8869 224.905,126.6059 Q224.8759,126.4122 224.7694,126.3056 Q224.5756,126.1022 224.2269,125.9859 Q223.8781,125.86 223.5294,125.86 Q223.0934,125.86 222.7253,126.0344 Q222.3669,126.2088 222.0859,126.5963 Q221.805,126.9838 221.805,127.5166 L221.805,128.0881 Q221.805,128.7275 222.3281,129.1538 Q222.8513,129.58 223.7813,129.58 Q224.3334,129.58 224.7209,129.4541 Q224.9438,129.3863 225.1956,129.1634 Q225.3603,129.0375 225.4475,128.9988 Q225.5347,128.96 225.6412,128.96 Q225.8447,128.96 225.99,129.1247 Q226.145,129.2797 226.145,129.5025 Q226.145,129.7156 225.9319,129.9675 Q225.6219,130.3356 225.1278,130.5391 Q224.4788,130.82 223.6844,130.82 Q222.7544,130.82 222.0084,130.4519 Q221.4078,130.1613 220.9816,129.5316 Q220.565,128.9019 220.565,128.1559 L220.565,127.4778 Q220.565,126.7028 220.9331,126.0247 Q221.3109,125.3466 221.96,124.9881 Q222.6188,124.62 223.355,124.62 Q223.8006,124.62 224.1881,124.775 Q224.5756,124.93 224.905,125.24 Z " fill="#000000"/><text fill="#000000" font-family="sans-serif" font-size="7.44" lengthAdjust="spacing" textLength="14.88" x="236.375" y="130.4543">Test</text><line style="stroke:#A80036;stroke-width:0.9299999999999999;" x1="192.2" x2="275.28" y1="137.33" y2="137.33"/><text fill="#000000" font-family="sans-serif" font-size="6.82" lengthAdjust="spacing" textLength="17.36" x="195.3" y="146.8897">-code</text><text fill="#000000" font-family="sans-serif" font-size="6.82" lengthAdjust="spacing" textLength="29.76" x="195.3" y="155.468">-NhsCode</text><text fill="#000000" font-family="sans-serif" font-size="6.82" lengthAdjust="spacing" textLength="71.3" x="195.3" y="164.0463">-dateOfTestRegistration</text><text fill="#000000" font-family="sans-serif" font-size="6.82" lengthAdjust="spacing" textLength="76.88" x="195.3" y="172.6246">-dateOfSamplesCollection</text><text fill="#000000" font-family="sans-serif" font-size="6.82" lengthAdjust="spacing" textLength="75.64" x="195.3" y="181.2029">-dateOfChemicalAnalysis</text><text fill="#000000" font-family="sans-serif" font-size="6.82" lengthAdjust="spacing" textLength="52.08" x="195.3" y="189.7812">-dateOfDiagnosis</text><!--MD5=[36afb6bbd95a8ac778c4537c55a683d5]
class ParameterCategory--><rect codeLine="16" fill="#FEFECE" filter="url(#f1lc2bfqdifdt8)" height="41.9566" id="ParameterCategory" style="stroke:#A80036;stroke-width:0.9299999999999999;" width="86.18" x="753.92" y="142.6"/><ellipse cx="763.22" cy="152.52" fill="#ADD1B2" rx="6.82" ry="6.82" style="stroke:#A80036;stroke-width:0.62;"/><path d="M764.46,150.35 Q764.5859,150.04 764.7313,149.885 Q764.8766,149.73 765.0413,149.73 Q765.3319,149.73 765.5159,149.9044 Q765.7,150.0787 765.7,150.4856 L765.7,151.4544 Q765.7,151.8613 765.5256,152.0356 Q765.3513,152.21 765.08,152.21 Q764.8378,152.21 764.6828,152.1034 Q764.5278,151.9969 764.46,151.7159 Q764.4309,151.5222 764.3244,151.4156 Q764.1306,151.2122 763.7819,151.0959 Q763.4331,150.97 763.0844,150.97 Q762.6484,150.97 762.2803,151.1444 Q761.9219,151.3188 761.6409,151.7063 Q761.36,152.0938 761.36,152.6266 L761.36,153.1981 Q761.36,153.8375 761.8831,154.2638 Q762.4063,154.69 763.3363,154.69 Q763.8884,154.69 764.2759,154.5641 Q764.4988,154.4963 764.7506,154.2734 Q764.9153,154.1475 765.0025,154.1088 Q765.0897,154.07 765.1963,154.07 Q765.3997,154.07 765.545,154.2347 Q765.7,154.3897 765.7,154.6125 Q765.7,154.8256 765.4869,155.0775 Q765.1769,155.4456 764.6828,155.6491 Q764.0337,155.93 763.2394,155.93 Q762.3094,155.93 761.5634,155.5619 Q760.9628,155.2713 760.5366,154.6416 Q760.12,154.0119 760.12,153.2659 L760.12,152.5878 Q760.12,151.8128 760.4881,151.1347 Q760.8659,150.4566 761.515,150.0981 Q762.1738,149.73 762.91,149.73 Q763.3556,149.73 763.7431,149.885 Q764.1306,150.04 764.46,150.35 Z " fill="#000000"/><text fill="#000000" font-family="sans-serif" font-size="7.44" lengthAdjust="spacing" textLength="66.34" x="771.9" y="155.5643">ParameterCategory</text><line style="stroke:#A80036;stroke-width:0.9299999999999999;" x1="754.54" x2="839.48" y1="162.44" y2="162.44"/><text fill="#000000" font-family="sans-serif" font-size="6.82" lengthAdjust="spacing" textLength="17.36" x="757.64" y="171.9997">-code</text><text fill="#000000" font-family="sans-serif" font-size="6.82" lengthAdjust="spacing" textLength="18.6" x="757.64" y="180.578">-name</text><!--MD5=[03960189e81aa2c066c762ffabbee709]
class Receptionist--><rect codeLine="21" fill="#FEFECE" filter="url(#f1lc2bfqdifdt8)" height="19.84" id="Receptionist" style="stroke:#A80036;stroke-width:0.9299999999999999;" width="62.62" x="27.9" y="156.24"/><ellipse cx="37.2" cy="166.16" fill="#ADD1B2" rx="6.82" ry="6.82" style="stroke:#A80036;stroke-width:0.62;"/><path d="M38.44,163.99 Q38.5659,163.68 38.7113,163.525 Q38.8566,163.37 39.0213,163.37 Q39.3119,163.37 39.4959,163.5444 Q39.68,163.7188 39.68,164.1256 L39.68,165.0944 Q39.68,165.5013 39.5056,165.6756 Q39.3313,165.85 39.06,165.85 Q38.8178,165.85 38.6628,165.7434 Q38.5078,165.6369 38.44,165.3559 Q38.4109,165.1622 38.3044,165.0556 Q38.1106,164.8522 37.7619,164.7359 Q37.4131,164.61 37.0644,164.61 Q36.6284,164.61 36.2603,164.7844 Q35.9019,164.9588 35.6209,165.3463 Q35.34,165.7338 35.34,166.2666 L35.34,166.8381 Q35.34,167.4775 35.8631,167.9038 Q36.3863,168.33 37.3163,168.33 Q37.8684,168.33 38.2559,168.2041 Q38.4788,168.1363 38.7306,167.9134 Q38.8953,167.7875 38.9825,167.7488 Q39.0697,167.71 39.1763,167.71 Q39.3797,167.71 39.525,167.8747 Q39.68,168.0297 39.68,168.2525 Q39.68,168.4656 39.4669,168.7175 Q39.1569,169.0856 38.6628,169.2891 Q38.0138,169.57 37.2194,169.57 Q36.2894,169.57 35.5434,169.2019 Q34.9428,168.9113 34.5166,168.2816 Q34.1,167.6519 34.1,166.9059 L34.1,166.2278 Q34.1,165.4528 34.4681,164.7747 Q34.8459,164.0966 35.495,163.7381 Q36.1538,163.37 36.89,163.37 Q37.3356,163.37 37.7231,163.525 Q38.1106,163.68 38.44,163.99 Z " fill="#000000"/><text fill="#000000" font-family="sans-serif" font-size="7.44" lengthAdjust="spacing" textLength="42.78" x="45.88" y="169.2043">Receptionist</text><!--MD5=[9681492165142af2a4a3a169d90ee8d4]
class Sample--><rect codeLine="23" fill="#FEFECE" filter="url(#f1lc2bfqdifdt8)" height="33.3783" id="Sample" style="stroke:#A80036;stroke-width:0.9299999999999999;" width="46.5" x="413.85" y="76.88"/><ellipse cx="423.15" cy="86.8" fill="#ADD1B2" rx="6.82" ry="6.82" style="stroke:#A80036;stroke-width:0.62;"/><path d="M424.39,84.63 Q424.5159,84.32 424.6613,84.165 Q424.8066,84.01 424.9713,84.01 Q425.2619,84.01 425.4459,84.1844 Q425.63,84.3588 425.63,84.7656 L425.63,85.7344 Q425.63,86.1413 425.4556,86.3156 Q425.2813,86.49 425.01,86.49 Q424.7678,86.49 424.6128,86.3834 Q424.4578,86.2769 424.39,85.9959 Q424.3609,85.8022 424.2544,85.6956 Q424.0606,85.4922 423.7119,85.3759 Q423.3631,85.25 423.0144,85.25 Q422.5784,85.25 422.2103,85.4244 Q421.8519,85.5988 421.5709,85.9863 Q421.29,86.3738 421.29,86.9066 L421.29,87.4781 Q421.29,88.1175 421.8131,88.5438 Q422.3363,88.97 423.2663,88.97 Q423.8184,88.97 424.2059,88.8441 Q424.4288,88.7763 424.6806,88.5534 Q424.8453,88.4275 424.9325,88.3888 Q425.0197,88.35 425.1262,88.35 Q425.3297,88.35 425.475,88.5147 Q425.63,88.6697 425.63,88.8925 Q425.63,89.1056 425.4169,89.3575 Q425.1069,89.7256 424.6128,89.9291 Q423.9638,90.21 423.1694,90.21 Q422.2394,90.21 421.4934,89.8419 Q420.8928,89.5513 420.4666,88.9216 Q420.05,88.2919 420.05,87.5459 L420.05,86.8678 Q420.05,86.0928 420.4181,85.4147 Q420.7959,84.7366 421.445,84.3781 Q422.1038,84.01 422.84,84.01 Q423.2856,84.01 423.6731,84.165 Q424.0606,84.32 424.39,84.63 Z " fill="#000000"/><text fill="#000000" font-family="sans-serif" font-size="7.44" lengthAdjust="spacing" textLength="26.66" x="431.83" y="89.8443">Sample</text><line style="stroke:#A80036;stroke-width:0.9299999999999999;" x1="414.47" x2="459.73" y1="96.72" y2="96.72"/><text fill="#000000" font-family="sans-serif" font-size="6.82" lengthAdjust="spacing" textLength="27.9" x="417.57" y="106.2797">-barCode</text><!--MD5=[ed6624c6556d5e7b1bd23032162d20b7]
class Client--><rect codeLine="27" fill="#FEFECE" filter="url(#f1lc2bfqdifdt8)" height="93.4263" id="Client" style="stroke:#A80036;stroke-width:0.9299999999999999;" width="56.42" x="408.89" y="132.37"/><ellipse cx="425.723" cy="142.29" fill="#ADD1B2" rx="6.82" ry="6.82" style="stroke:#A80036;stroke-width:0.62;"/><path d="M426.963,140.12 Q427.0889,139.81 427.2343,139.655 Q427.3796,139.5 427.5443,139.5 Q427.8349,139.5 428.0189,139.6744 Q428.203,139.8488 428.203,140.2556 L428.203,141.2244 Q428.203,141.6313 428.0286,141.8056 Q427.8543,141.98 427.583,141.98 Q427.3408,141.98 427.1858,141.8734 Q427.0308,141.7669 426.963,141.4859 Q426.9339,141.2922 426.8274,141.1856 Q426.6336,140.9822 426.2849,140.8659 Q425.9361,140.74 425.5874,140.74 Q425.1514,140.74 424.7833,140.9144 Q424.4249,141.0888 424.1439,141.4763 Q423.863,141.8638 423.863,142.3966 L423.863,142.9681 Q423.863,143.6075 424.3861,144.0338 Q424.9093,144.46 425.8393,144.46 Q426.3914,144.46 426.7789,144.3341 Q427.0017,144.2662 427.2536,144.0434 Q427.4183,143.9175 427.5055,143.8788 Q427.5927,143.84 427.6993,143.84 Q427.9027,143.84 428.048,144.0047 Q428.203,144.1597 428.203,144.3825 Q428.203,144.5956 427.9899,144.8475 Q427.6799,145.2156 427.1858,145.4191 Q426.5368,145.7 425.7424,145.7 Q424.8124,145.7 424.0664,145.3319 Q423.4658,145.0413 423.0396,144.4116 Q422.623,143.7819 422.623,143.0359 L422.623,142.3578 Q422.623,141.5828 422.9911,140.9047 Q423.3689,140.2266 424.018,139.8681 Q424.6767,139.5 425.413,139.5 Q425.8586,139.5 426.2461,139.655 Q426.6336,139.81 426.963,140.12 Z " fill="#000000"/><text fill="#000000" font-family="sans-serif" font-size="7.44" lengthAdjust="spacing" textLength="19.84" x="436.077" y="145.3343">Client</text><line style="stroke:#A80036;stroke-width:0.9299999999999999;" x1="409.51" x2="464.69" y1="152.21" y2="152.21"/><text fill="#000000" font-family="sans-serif" font-size="6.82" lengthAdjust="spacing" textLength="18.6" x="412.61" y="161.7697">-name</text><text fill="#000000" font-family="sans-serif" font-size="6.82" lengthAdjust="spacing" textLength="48.98" x="412.61" y="170.348">-citizenCardNum</text><text fill="#000000" font-family="sans-serif" font-size="6.82" lengthAdjust="spacing" textLength="26.66" x="412.61" y="178.9263">-nhsNum</text><text fill="#000000" font-family="sans-serif" font-size="6.82" lengthAdjust="spacing" textLength="29.14" x="412.61" y="187.5046">-birthDate</text><text fill="#000000" font-family="sans-serif" font-size="6.82" lengthAdjust="spacing" textLength="13.64" x="412.61" y="196.0829">-sex</text><text fill="#000000" font-family="sans-serif" font-size="6.82" lengthAdjust="spacing" textLength="29.76" x="412.61" y="204.6612">-taxIdNum</text><text fill="#000000" font-family="sans-serif" font-size="6.82" lengthAdjust="spacing" textLength="34.1" x="412.61" y="213.2394">-phoneNum</text><text fill="#000000" font-family="sans-serif" font-size="6.82" lengthAdjust="spacing" textLength="17.36" x="412.61" y="221.8177">-email</text><!--MD5=[0f07739f46effee96e095e9c408da841]
class TestParameter--><rect codeLine="37" fill="#FEFECE" filter="url(#f1lc2bfqdifdt8)" height="19.84" id="TestParameter" style="stroke:#A80036;stroke-width:0.9299999999999999;" width="70.68" x="401.76" y="248"/><ellipse cx="411.06" cy="257.92" fill="#ADD1B2" rx="6.82" ry="6.82" style="stroke:#A80036;stroke-width:0.62;"/><path d="M412.3,255.75 Q412.4259,255.44 412.5713,255.285 Q412.7166,255.13 412.8813,255.13 Q413.1719,255.13 413.3559,255.3044 Q413.54,255.4788 413.54,255.8856 L413.54,256.8544 Q413.54,257.2613 413.3656,257.4356 Q413.1913,257.61 412.92,257.61 Q412.6778,257.61 412.5228,257.5034 Q412.3678,257.3969 412.3,257.1159 Q412.2709,256.9222 412.1644,256.8156 Q411.9706,256.6122 411.6219,256.4959 Q411.2731,256.37 410.9244,256.37 Q410.4884,256.37 410.1203,256.5444 Q409.7619,256.7188 409.4809,257.1063 Q409.2,257.4938 409.2,258.0266 L409.2,258.5981 Q409.2,259.2375 409.7231,259.6638 Q410.2463,260.09 411.1763,260.09 Q411.7284,260.09 412.1159,259.9641 Q412.3388,259.8963 412.5906,259.6734 Q412.7553,259.5475 412.8425,259.5088 Q412.9297,259.47 413.0363,259.47 Q413.2397,259.47 413.385,259.6347 Q413.54,259.7897 413.54,260.0125 Q413.54,260.2256 413.3269,260.4775 Q413.0169,260.8456 412.5228,261.0491 Q411.8738,261.33 411.0794,261.33 Q410.1494,261.33 409.4034,260.9619 Q408.8028,260.6713 408.3766,260.0416 Q407.96,259.4119 407.96,258.6659 L407.96,257.9878 Q407.96,257.2128 408.3281,256.5347 Q408.7059,255.8566 409.355,255.4981 Q410.0138,255.13 410.75,255.13 Q411.1956,255.13 411.5831,255.285 Q411.9706,255.44 412.3,255.75 Z " fill="#000000"/><text fill="#000000" font-family="sans-serif" font-size="7.44" lengthAdjust="spacing" textLength="50.84" x="419.74" y="260.9643">TestParameter</text><!--MD5=[4e608140b854dae633589343bce77383]
class TestParameterResult--><rect codeLine="38" fill="#FEFECE" filter="url(#f1lc2bfqdifdt8)" height="50.5348" id="TestParameterResult" style="stroke:#A80036;stroke-width:0.9299999999999999;" width="93" x="556.76" y="199.64"/><ellipse cx="566.06" cy="209.56" fill="#ADD1B2" rx="6.82" ry="6.82" style="stroke:#A80036;stroke-width:0.62;"/><path d="M567.3,207.39 Q567.4259,207.08 567.5713,206.925 Q567.7166,206.77 567.8813,206.77 Q568.1719,206.77 568.3559,206.9444 Q568.54,207.1188 568.54,207.5256 L568.54,208.4944 Q568.54,208.9013 568.3656,209.0756 Q568.1913,209.25 567.92,209.25 Q567.6778,209.25 567.5228,209.1434 Q567.3678,209.0369 567.3,208.7559 Q567.2709,208.5622 567.1644,208.4556 Q566.9706,208.2522 566.6219,208.1359 Q566.2731,208.01 565.9244,208.01 Q565.4884,208.01 565.1203,208.1844 Q564.7619,208.3588 564.4809,208.7463 Q564.2,209.1338 564.2,209.6666 L564.2,210.2381 Q564.2,210.8775 564.7231,211.3038 Q565.2463,211.73 566.1763,211.73 Q566.7284,211.73 567.1159,211.6041 Q567.3388,211.5363 567.5906,211.3134 Q567.7553,211.1875 567.8425,211.1488 Q567.9297,211.11 568.0363,211.11 Q568.2397,211.11 568.385,211.2747 Q568.54,211.4297 568.54,211.6525 Q568.54,211.8656 568.3269,212.1175 Q568.0169,212.4856 567.5228,212.6891 Q566.8738,212.97 566.0794,212.97 Q565.1494,212.97 564.4034,212.6019 Q563.8028,212.3113 563.3766,211.6816 Q562.96,211.0519 562.96,210.3059 L562.96,209.6278 Q562.96,208.8528 563.3281,208.1747 Q563.7059,207.4966 564.355,207.1381 Q565.0138,206.77 565.75,206.77 Q566.1956,206.77 566.5831,206.925 Q566.9706,207.08 567.3,207.39 Z " fill="#000000"/><text fill="#000000" font-family="sans-serif" font-size="7.44" lengthAdjust="spacing" textLength="73.16" x="574.74" y="212.6043">TestParameterResult</text><line style="stroke:#A80036;stroke-width:0.9299999999999999;" x1="557.38" x2="649.14" y1="219.48" y2="219.48"/><text fill="#000000" font-family="sans-serif" font-size="6.82" lengthAdjust="spacing" textLength="32.24" x="560.48" y="229.0397">-createdAt</text><text fill="#000000" font-family="sans-serif" font-size="6.82" lengthAdjust="spacing" textLength="18.6" x="560.48" y="237.618">-value</text><text fill="#000000" font-family="sans-serif" font-size="6.82" lengthAdjust="spacing" textLength="20.46" x="560.48" y="246.1963">-metric</text><!--MD5=[aeb3272166074d8737a70b61b1e71682]
class TestType--><rect codeLine="43" fill="#FEFECE" filter="url(#f1lc2bfqdifdt8)" height="50.5348" id="TestType" style="stroke:#A80036;stroke-width:0.9299999999999999;" width="65.72" x="404.24" y="4.34"/><ellipse cx="420.236" cy="14.26" fill="#ADD1B2" rx="6.82" ry="6.82" style="stroke:#A80036;stroke-width:0.62;"/><path d="M421.476,12.09 Q421.6019,11.78 421.7472,11.625 Q421.8926,11.47 422.0572,11.47 Q422.3479,11.47 422.5319,11.6444 Q422.716,11.8188 422.716,12.2256 L422.716,13.1944 Q422.716,13.6013 422.5416,13.7756 Q422.3672,13.95 422.096,13.95 Q421.8538,13.95 421.6988,13.8434 Q421.5438,13.7369 421.476,13.4559 Q421.4469,13.2622 421.3404,13.1556 Q421.1466,12.9522 420.7979,12.8359 Q420.4491,12.71 420.1004,12.71 Q419.6644,12.71 419.2963,12.8844 Q418.9379,13.0588 418.6569,13.4463 Q418.376,13.8338 418.376,14.3666 L418.376,14.9381 Q418.376,15.5775 418.8991,16.0038 Q419.4222,16.43 420.3522,16.43 Q420.9044,16.43 421.2919,16.3041 Q421.5148,16.2363 421.7666,16.0134 Q421.9313,15.8875 422.0185,15.8487 Q422.1057,15.81 422.2123,15.81 Q422.4157,15.81 422.561,15.9747 Q422.716,16.1297 422.716,16.3525 Q422.716,16.5656 422.5029,16.8175 Q422.1929,17.1856 421.6988,17.3891 Q421.0497,17.67 420.2554,17.67 Q419.3254,17.67 418.5794,17.3019 Q417.9788,17.0113 417.5526,16.3816 Q417.136,15.7519 417.136,15.0059 L417.136,14.3278 Q417.136,13.5528 417.5041,12.8747 Q417.8819,12.1966 418.531,11.8381 Q419.1897,11.47 419.926,11.47 Q420.3716,11.47 420.7591,11.625 Q421.1466,11.78 421.476,12.09 Z " fill="#000000"/><text fill="#000000" font-family="sans-serif" font-size="7.44" lengthAdjust="spacing" textLength="31" x="430.404" y="17.3043">TestType</text><line style="stroke:#A80036;stroke-width:0.9299999999999999;" x1="404.86" x2="469.34" y1="24.18" y2="24.18"/><text fill="#000000" font-family="sans-serif" font-size="6.82" lengthAdjust="spacing" textLength="17.98" x="407.96" y="33.7397">-Code</text><text fill="#000000" font-family="sans-serif" font-size="6.82" lengthAdjust="spacing" textLength="35.96" x="407.96" y="42.318">-Description</text><text fill="#000000" font-family="sans-serif" font-size="6.82" lengthAdjust="spacing" textLength="58.28" x="407.96" y="50.8963">-Collecting methods</text><!--MD5=[1f6362a5c8f21d8d6a0fce68f3a92a4e]
class Parameter--><rect codeLine="49" fill="#FEFECE" filter="url(#f1lc2bfqdifdt8)" height="50.5348" id="Parameter" style="stroke:#A80036;stroke-width:0.9299999999999999;" width="55.8" x="575.36" y="272.18"/><ellipse cx="584.66" cy="282.1" fill="#ADD1B2" rx="6.82" ry="6.82" style="stroke:#A80036;stroke-width:0.62;"/><path d="M585.9,279.93 Q586.0259,279.62 586.1713,279.465 Q586.3166,279.31 586.4813,279.31 Q586.7719,279.31 586.9559,279.4844 Q587.14,279.6588 587.14,280.0656 L587.14,281.0344 Q587.14,281.4413 586.9656,281.6156 Q586.7913,281.79 586.52,281.79 Q586.2778,281.79 586.1228,281.6834 Q585.9678,281.5769 585.9,281.2959 Q585.8709,281.1022 585.7644,280.9956 Q585.5706,280.7922 585.2219,280.6759 Q584.8731,280.55 584.5244,280.55 Q584.0884,280.55 583.7203,280.7244 Q583.3619,280.8988 583.0809,281.2863 Q582.8,281.6738 582.8,282.2066 L582.8,282.7781 Q582.8,283.4175 583.3231,283.8438 Q583.8462,284.27 584.7763,284.27 Q585.3284,284.27 585.7159,284.1441 Q585.9388,284.0763 586.1906,283.8534 Q586.3553,283.7275 586.4425,283.6887 Q586.5297,283.65 586.6363,283.65 Q586.8397,283.65 586.985,283.8147 Q587.14,283.9697 587.14,284.1925 Q587.14,284.4056 586.9269,284.6575 Q586.6169,285.0256 586.1228,285.2291 Q585.4738,285.51 584.6794,285.51 Q583.7494,285.51 583.0034,285.1419 Q582.4028,284.8513 581.9766,284.2216 Q581.56,283.5919 581.56,282.8459 L581.56,282.1678 Q581.56,281.3928 581.9281,280.7147 Q582.3059,280.0366 582.955,279.6781 Q583.6138,279.31 584.35,279.31 Q584.7956,279.31 585.1831,279.465 Q585.5706,279.62 585.9,279.93 Z " fill="#000000"/><text fill="#000000" font-family="sans-serif" font-size="7.44" lengthAdjust="spacing" textLength="35.96" x="593.34" y="285.1443">Parameter</text><line style="stroke:#A80036;stroke-width:0.9299999999999999;" x1="575.98" x2="630.54" y1="292.02" y2="292.02"/><text fill="#000000" font-family="sans-serif" font-size="6.82" lengthAdjust="spacing" textLength="17.36" x="579.08" y="301.5797">-code</text><text fill="#000000" font-family="sans-serif" font-size="6.82" lengthAdjust="spacing" textLength="34.72" x="579.08" y="310.158">-shortName</text><text fill="#000000" font-family="sans-serif" font-size="6.82" lengthAdjust="spacing" textLength="35.34" x="579.08" y="318.7363">-description</text><!--MD5=[1934a092c0e7d4da7dc7075b6f4b6b03]
class ClinicalAnalysisLaboratory--><rect codeLine="55" fill="#FEFECE" filter="url(#f1lc2bfqdifdt8)" height="33.3783" id="ClinicalAnalysisLaboratory" style="stroke:#A80036;stroke-width:0.9299999999999999;" width="109.74" x="4.34" y="53.32"/><ellipse cx="13.64" cy="63.24" fill="#ADD1B2" rx="6.82" ry="6.82" style="stroke:#A80036;stroke-width:0.62;"/><path d="M14.88,61.07 Q15.0059,60.76 15.1513,60.605 Q15.2966,60.45 15.4613,60.45 Q15.7519,60.45 15.9359,60.6244 Q16.12,60.7988 16.12,61.2056 L16.12,62.1744 Q16.12,62.5813 15.9456,62.7556 Q15.7713,62.93 15.5,62.93 Q15.2578,62.93 15.1028,62.8234 Q14.9478,62.7169 14.88,62.4359 Q14.8509,62.2422 14.7444,62.1356 Q14.5506,61.9322 14.2019,61.8159 Q13.8531,61.69 13.5044,61.69 Q13.0684,61.69 12.7003,61.8644 Q12.3419,62.0388 12.0609,62.4262 Q11.78,62.8138 11.78,63.3466 L11.78,63.9181 Q11.78,64.5575 12.3031,64.9838 Q12.8263,65.41 13.7563,65.41 Q14.3084,65.41 14.6959,65.2841 Q14.9188,65.2163 15.1706,64.9934 Q15.3353,64.8675 15.4225,64.8288 Q15.5097,64.79 15.6162,64.79 Q15.8197,64.79 15.965,64.9547 Q16.12,65.1097 16.12,65.3325 Q16.12,65.5456 15.9069,65.7975 Q15.5969,66.1656 15.1028,66.3691 Q14.4538,66.65 13.6594,66.65 Q12.7294,66.65 11.9834,66.2819 Q11.3828,65.9913 10.9566,65.3616 Q10.54,64.7319 10.54,63.9859 L10.54,63.3078 Q10.54,62.5328 10.9081,61.8547 Q11.2859,61.1766 11.935,60.8181 Q12.5938,60.45 13.33,60.45 Q13.7756,60.45 14.1631,60.605 Q14.5506,60.76 14.88,61.07 Z " fill="#000000"/><text fill="#000000" font-family="sans-serif" font-size="7.44" lengthAdjust="spacing" textLength="89.9" x="22.32" y="66.2843">ClinicalAnalysisLaboratory</text><line style="stroke:#A80036;stroke-width:0.9299999999999999;" x1="4.96" x2="113.46" y1="73.16" y2="73.16"/><text fill="#000000" font-family="sans-serif" font-size="6.82" lengthAdjust="spacing" textLength="38.44" x="8.06" y="82.7197">-laboratoryID</text><!--MD5=[f00dbe8c0302c6aec2cb26b3c659c8fc]
class Report--><rect fill="#FEFECE" filter="url(#f1lc2bfqdifdt8)" height="19.84" id="Report" style="stroke:#A80036;stroke-width:0.9299999999999999;" width="42.78" x="37.82" y="114.7"/><ellipse cx="47.12" cy="124.62" fill="#ADD1B2" rx="6.82" ry="6.82" style="stroke:#A80036;stroke-width:0.62;"/><path d="M48.36,122.45 Q48.4859,122.14 48.6313,121.985 Q48.7766,121.83 48.9413,121.83 Q49.2319,121.83 49.4159,122.0044 Q49.6,122.1788 49.6,122.5856 L49.6,123.5544 Q49.6,123.9612 49.4256,124.1356 Q49.2513,124.31 48.98,124.31 Q48.7378,124.31 48.5828,124.2034 Q48.4278,124.0969 48.36,123.8159 Q48.3309,123.6222 48.2244,123.5156 Q48.0306,123.3122 47.6819,123.1959 Q47.3331,123.07 46.9844,123.07 Q46.5484,123.07 46.1803,123.2444 Q45.8219,123.4188 45.5409,123.8063 Q45.26,124.1938 45.26,124.7266 L45.26,125.2981 Q45.26,125.9375 45.7831,126.3638 Q46.3063,126.79 47.2363,126.79 Q47.7884,126.79 48.1759,126.6641 Q48.3988,126.5963 48.6506,126.3734 Q48.8153,126.2475 48.9025,126.2088 Q48.9897,126.17 49.0963,126.17 Q49.2997,126.17 49.445,126.3347 Q49.6,126.4897 49.6,126.7125 Q49.6,126.9256 49.3869,127.1775 Q49.0769,127.5456 48.5828,127.7491 Q47.9337,128.03 47.1394,128.03 Q46.2094,128.03 45.4634,127.6619 Q44.8628,127.3713 44.4366,126.7416 Q44.02,126.1119 44.02,125.3659 L44.02,124.6878 Q44.02,123.9128 44.3881,123.2347 Q44.7659,122.5566 45.415,122.1981 Q46.0738,121.83 46.81,121.83 Q47.2556,121.83 47.6431,121.985 Q48.0306,122.14 48.36,122.45 Z " fill="#000000"/><text fill="#000000" font-family="sans-serif" font-size="7.44" lengthAdjust="spacing" textLength="22.94" x="55.8" y="127.6643">Report</text><!--MD5=[e981d4f96c4342412d1e68160b30cf70]
link Test to TestType--><path codeLine="59" d="M270.6176,117.3722 C278.1444,110.453 286.2974,103.6454 294.5,97.96 C304.1906,91.2392 365.2854,62.6138 404.1098,44.6524 " fill="none" id="Test-TestType" style="stroke:#A80036;stroke-width:0.62;"/><polygon fill="#000000" points="313.9623,51.326,308.166,52.4086,309.9093,55.6088,313.9623,51.326" style="stroke:#000000;stroke-width:0.62;"/><text fill="#000000" font-family="sans-serif" font-size="8.06" lengthAdjust="spacing" textLength="44.64" x="316.82" y="56.107">classified as</text><text fill="#000000" font-family="sans-serif" font-size="8.06" lengthAdjust="spacing" textLength="3.1" x="271.6024" y="110.8353">*</text><text fill="#000000" font-family="sans-serif" font-size="8.06" lengthAdjust="spacing" textLength="4.34" x="395.0451" y="55.7222">1</text><!--MD5=[63d25d625ab355317a074a623d33bba8]
link Report to Test--><path codeLine="60" d="M80.7302,128.3586 C108.0536,133.2442 156.5314,141.918 191.4808,148.1738 " fill="none" id="Report-Test" style="stroke:#A80036;stroke-width:0.62;"/><polygon fill="#000000" points="146.8915,133.955,141.6922,131.1736,141.0503,134.7609,146.8915,133.955" style="stroke:#000000;stroke-width:0.62;"/><text fill="#000000" font-family="sans-serif" font-size="8.06" lengthAdjust="spacing" textLength="14.88" x="149.42" y="136.707">is of</text><text fill="#000000" font-family="sans-serif" font-size="8.06" lengthAdjust="spacing" textLength="4.34" x="85.6163" y="138.5421">1</text><text fill="#000000" font-family="sans-serif" font-size="8.06" lengthAdjust="spacing" textLength="4.34" x="182.2814" y="156.2802">1</text><!--MD5=[3994f36c72829dbcddd1cf7021dddf61]
link Test to Client--><path codeLine="61" d="M275.993,160.4746 C315.7474,165.106 374.5296,171.957 408.8218,175.956 " fill="none" id="Test-Client" style="stroke:#A80036;stroke-width:0.62;"/><polygon fill="#000000" points="313.3892,157.9479,308.0299,155.4888,307.608,159.1085,313.3892,157.9479" style="stroke:#000000;stroke-width:0.62;"/><text fill="#000000" font-family="sans-serif" font-size="8.06" lengthAdjust="spacing" textLength="46.5" x="315.89" y="160.887">requested by</text><text fill="#000000" font-family="sans-serif" font-size="8.06" lengthAdjust="spacing" textLength="3.1" x="280.784" y="169.9264">*</text><text fill="#000000" font-family="sans-serif" font-size="8.06" lengthAdjust="spacing" textLength="4.34" x="399.6291" y="184.6325">1</text><!--MD5=[c23963f6e403fc3ebec8dae22c30ade6]
link Test to Parameter--><path codeLine="62" d="M259.7428,193.8926 C269.6132,207.08 281.6474,221.3276 294.5,232.5 C333.1756,266.104 345.0796,276.0116 394.32,290.16 C457.1012,308.1958 534.9174,304.5006 575.3538,300.7496 " fill="none" id="Test-Parameter" style="stroke:#A80036;stroke-width:0.62;"/><polygon fill="#000000" points="400.3563,285.6831,395.6288,282.1588,394.4602,285.6106,400.3563,285.6831" style="stroke:#000000;stroke-width:0.62;"/><text fill="#000000" font-family="sans-serif" font-size="8.06" lengthAdjust="spacing" textLength="76.26" x="403" y="287.987">requested analysis of</text><text fill="#000000" font-family="sans-serif" font-size="8.06" lengthAdjust="spacing" textLength="3.1" x="259.3173" y="206.9995">*</text><text fill="#000000" font-family="sans-serif" font-size="8.06" lengthAdjust="spacing" textLength="12.4" x="557.9445" y="310.3461">1..*</text><!--MD5=[e8b34c2e6517a986175307f5599f058a]
link Receptionist to Test--><path codeLine="63" d="M90.6006,165.8128 C113.3732,165.3974 145.142,164.4736 172.98,162.44 C178.9506,162.006 185.2498,161.4232 191.425,160.7846 " fill="none" id="Receptionist-Test" style="stroke:#A80036;stroke-width:0.62;"/><polygon fill="#000000" points="138.8762,156.8146,133.1844,155.274,133.3659,158.9138,138.8762,156.8146" style="stroke:#000000;stroke-width:0.62;"/><text fill="#000000" font-family="sans-serif" font-size="8.06" lengthAdjust="spacing" textLength="31" x="141.36" y="160.267">registers</text><text fill="#000000" font-family="sans-serif" font-size="8.06" lengthAdjust="spacing" textLength="4.34" x="95.5298" y="174.8733">1</text><text fill="#000000" font-family="sans-serif" font-size="8.06" lengthAdjust="spacing" textLength="3.1" x="183.5273" y="170.2703">*</text><!--MD5=[6df8849671cb880f6936e94aa30db6f9]
link Parameter to ParameterCategory--><path codeLine="64" d="M631.2592,278.5536 C666.8658,253.7846 728.872,210.6512 765.9294,184.8716 " fill="none" id="Parameter-ParameterCategory" style="stroke:#A80036;stroke-width:0.62;"/><polygon fill="#000000" points="674.0048,199.2187,668.3607,200.9254,670.4417,203.917,674.0048,199.2187" style="stroke:#000000;stroke-width:0.62;"/><text fill="#000000" font-family="sans-serif" font-size="8.06" lengthAdjust="spacing" textLength="57.66" x="677.04" y="204.287">presented under</text><text fill="#000000" font-family="sans-serif" font-size="8.06" lengthAdjust="spacing" textLength="3.1" x="636.1533" y="284.6308">*</text><text fill="#000000" font-family="sans-serif" font-size="8.06" lengthAdjust="spacing" textLength="4.34" x="755.6666" y="197.9344">1</text><!--MD5=[8aaf0efd5e2f3824be7ea3e488dcc283]
link TestType to ParameterCategory--><path codeLine="65" d="M470.022,41.819 C534.9422,66.061 681.2064,120.6706 753.827,147.7894 " fill="none" id="TestType-ParameterCategory" style="stroke:#A80036;stroke-width:0.62;"/><polygon fill="#000000" points="574.8542,70.6334,570.2379,66.9647,568.9631,70.3787,574.8542,70.6334" style="stroke:#000000;stroke-width:0.62;"/><text fill="#000000" font-family="sans-serif" font-size="8.06" lengthAdjust="spacing" textLength="59.52" x="577.53" y="72.847">characterized by</text><text fill="#000000" font-family="sans-serif" font-size="8.06" lengthAdjust="spacing" textLength="4.34" x="474.9568" y="52.6161">1</text><text fill="#000000" font-family="sans-serif" font-size="8.06" lengthAdjust="spacing" textLength="12.4" x="736.5659" y="155.1011">1..*</text><!--MD5=[b72ac8ab7fb5921fceb5036a3902baea]
link Test to Sample--><path codeLine="66" d="M275.993,142.848 C317.7128,130.0512 380.3824,110.825 413.7198,100.6012 " fill="none" id="Test-Sample" style="stroke:#A80036;stroke-width:0.62;"/><polygon fill="#000000" points="322.5737,107.6999,316.678,107.6024,317.7467,111.0865,322.5737,107.6999" style="stroke:#000000;stroke-width:0.62;"/><text fill="#000000" font-family="sans-serif" font-size="8.06" lengthAdjust="spacing" textLength="27.9" x="325.19" y="111.907">collects</text><text fill="#000000" font-family="sans-serif" font-size="8.06" lengthAdjust="spacing" textLength="4.34" x="280.8518" y="150.3719">1</text><text fill="#000000" font-family="sans-serif" font-size="8.06" lengthAdjust="spacing" textLength="12.4" x="396.4206" y="110.9724">1..*</text><!--MD5=[f24c888dadeb846430474fe80a58922b]
link Test to TestParameter--><path codeLine="67" d="M276.0302,177.6858 C282.2116,180.9098 288.517,184.1772 294.5,187.24 C337.6396,209.3182 388.5726,234.4468 416.1874,247.9938 " fill="none" id="Test-TestParameter" style="stroke:#A80036;stroke-width:0.62;"/><polygon fill="#000000" points="300.3709,183.159,296.1753,179.0158,294.5413,182.2732,300.3709,183.159" style="stroke:#000000;stroke-width:0.62;"/><text fill="#000000" font-family="sans-serif" font-size="8.06" lengthAdjust="spacing" textLength="71.92" x="303.18" y="185.067">requests analysis of</text><text fill="#000000" font-family="sans-serif" font-size="8.06" lengthAdjust="spacing" textLength="4.34" x="280.893" y="189.0201">1</text><text fill="#000000" font-family="sans-serif" font-size="8.06" lengthAdjust="spacing" textLength="12.4" x="394.4674" y="241.3611">1..*</text><!--MD5=[92e8e476cc9e9004a7125f53a120ec97]
link TestParameter to Parameter--><path codeLine="68" d="M472.4958,266.2838 C503.1114,273.6556 547.0942,284.239 575.267,291.0156 " fill="none" id="TestParameter-Parameter" style="stroke:#A80036;stroke-width:0.62;"/><polygon fill="#000000" points="505.214,268.0543,500.188,264.9706,499.3353,268.5138,505.214,268.0543" style="stroke:#000000;stroke-width:0.62;"/><text fill="#000000" font-family="sans-serif" font-size="8.06" lengthAdjust="spacing" textLength="29.14" x="507.78" y="270.627">refers to</text><text fill="#000000" font-family="sans-serif" font-size="8.06" lengthAdjust="spacing" textLength="3.1" x="477.4604" y="276.4558">*</text><text fill="#000000" font-family="sans-serif" font-size="8.06" lengthAdjust="spacing" textLength="4.34" x="566.1198" y="299.1654">1</text><!--MD5=[0e00e25ac6b8c14659aaff2cf7e5df08]
link TestParameter to TestParameterResult--><path codeLine="69" d="M472.4958,250.9884 C496.9672,246.1152 529.9884,239.537 556.6422,234.2236 " fill="none" id="TestParameter-TestParameterResult" style="stroke:#A80036;stroke-width:0.62;"/><polygon fill="#000000" points="504.6202,232.0033,498.7644,231.312,499.4764,234.886,504.6202,232.0033" style="stroke:#000000;stroke-width:0.62;"/><text fill="#000000" font-family="sans-serif" font-size="8.06" lengthAdjust="spacing" textLength="30.38" x="507.16" y="235.907">contains</text><text fill="#000000" font-family="sans-serif" font-size="8.06" lengthAdjust="spacing" textLength="4.34" x="477.3089" y="259.1167">1</text><text fill="#000000" font-family="sans-serif" font-size="8.06" lengthAdjust="spacing" textLength="13.64" x="538.2429" y="243.8718">0..1</text><!--MD5=[2eb961b30663a01bbfd8b4b9b8950031]
link ClinicalAnalysisLaboratory to TestType--><path codeLine="70" d="M114.1048,63.8724 C161.6588,58.497 232.6426,50.561 294.5,44.02 C332.072,40.052 375.2612,35.7492 404.0478,32.922 " fill="none" id="ClinicalAnalysisLaboratory-TestType" style="stroke:#A80036;stroke-width:0.62;"/><polygon fill="#000000" points="219.7725,40.6999,214.0028,39.4833,214.3896,43.107,219.7725,40.6999" style="stroke:#000000;stroke-width:0.62;"/><text fill="#000000" font-family="sans-serif" font-size="8.06" lengthAdjust="spacing" textLength="31" x="222.27" y="44.327">operates</text><text fill="#000000" font-family="sans-serif" font-size="8.06" lengthAdjust="spacing" textLength="4.34" x="119.0088" y="72.1476">1</text><text fill="#000000" font-family="sans-serif" font-size="8.06" lengthAdjust="spacing" textLength="12.4" x="386.8639" y="42.3107">1..*</text><!--MD5=[d480452e7d21fe720ba0207568bc7434]
link ClinicalAnalysisLaboratory to Test--><path codeLine="71" d="M97.5818,86.9054 C119.7158,96.968 148.1304,110.1988 172.98,122.76 C179.0312,125.8166 185.3738,129.146 191.5676,132.4692 " fill="none" id="ClinicalAnalysisLaboratory-Test" style="stroke:#A80036;stroke-width:0.62;"/><polygon fill="#000000" points="138.5695,99.4213,134.3181,95.3353,132.7284,98.6145,138.5695,99.4213" style="stroke:#000000;stroke-width:0.62;"/><text fill="#000000" font-family="sans-serif" font-size="8.06" lengthAdjust="spacing" textLength="31" x="141.36" y="101.367">performs</text><text fill="#000000" font-family="sans-serif" font-size="8.06" lengthAdjust="spacing" textLength="4.34" x="101.1609" y="100.0773">1</text><text fill="#000000" font-family="sans-serif" font-size="8.06" lengthAdjust="spacing" textLength="12.4" x="174.1792" y="138.971">1..*</text><!--MD5=[bedbb43e86820c93660f1407316f6425]
@startuml

left to right direction
skinparam classAttributeIconSize 0
hide empty methods
hide empty attributes

class Test{
- code
- NhsCode
- dateOfTestRegistration
- dateOfSamplesCollection
- dateOfChemicalAnalysis
- dateOfDiagnosis
}

class ParameterCategory{
  -code
  -name
}

class Receptionist{}

class Sample{
- barCode
}

class Client{
- name
- citizenCardNum
- nhsNum
- birthDate
- sex
- taxIdNum
- phoneNum
- email
}
class TestParameter{}
class TestParameterResult{
- createdAt
- value
- metric
}
class TestType{
- Code
- Description
- Collecting methods
}

class Parameter{
- code
- shortName
- description
}

class ClinicalAnalysisLaboratory{
- laboratoryID
}

Test "*" - - "1" TestType : classified as >
Report "1" - - "1" Test : is of >
Test "*" - - "1" Client : requested by >
Test "*" - - "1..*" Parameter : requested analysis of >
Receptionist "1" - - "*" Test : registers >
Parameter "*" - - "1" ParameterCategory: presented under >
TestType "1" - - "1..*" ParameterCategory : characterized by >
Test "1" - - "1..*" Sample : collects >
Test "1" - - "1..*" TestParameter : requests analysis of >
TestParameter "*" - - "1" Parameter : refers to >
TestParameter "1" - - "0..1" TestParameterResult : contains >
ClinicalAnalysisLaboratory "1" - - "1..*" TestType : operates >
ClinicalAnalysisLaboratory "1" - - "1..*" Test : performs >

@enduml

PlantUML version 1.2021.00(Sun Jan 10 10:25:05 GMT 2021)
(GPL source distribution)
Java Runtime: OpenJDK Runtime Environment
JVM: OpenJDK 64-Bit Server VM
Default Encoding: Cp1252
Language: pt
Country: BR
--></g></svg>