<?xml version="1.0" encoding="UTF-8" standalone="no"?><svg xmlns="http://www.w3.org/2000/svg" xmlns:xlink="http://www.w3.org/1999/xlink" contentScriptType="application/ecmascript" contentStyleType="text/css" height="449.79px" preserveAspectRatio="none" style="width:1161px;height:449px;" version="1.1" viewBox="0 0 1161 449" width="1161.45px" zoomAndPan="magnify"><defs><filter height="300%" id="f1wg27vm3h2oep" width="300%" x="-1" y="-1"><feGaussianBlur result="blurOut" stdDeviation="1.74"/><feColorMatrix in="blurOut" result="blurOut2" type="matrix" values="0 0 0 0 0 0 0 0 0 0 0 0 0 0 0 0 0 0 .4 0"/><feOffset dx="3.48" dy="3.48" in="blurOut2" result="blurOut3"/><feBlend in="SourceGraphic" in2="blurOut3" mode="normal"/></filter></defs><g><!--MD5=[df38be88ccee13e832d6fafd6288a4ca]
class Test--><rect codeLine="7" fill="#FEFECE" filter="url(#f1wg27vm3h2oep)" height="107.0236" id="Test" style="stroke:#A80036;stroke-width:1.305;" width="118.32" x="202.71" y="208.365"/><ellipse cx="247.7325" cy="222.285" fill="#ADD1B2" rx="9.57" ry="9.57" style="stroke:#A80036;stroke-width:0.87;"/><path d="M249.4725,219.24 Q249.6492,218.805 249.8531,218.5875 Q250.057,218.37 250.2881,218.37 Q250.6959,218.37 250.9542,218.6147 Q251.2125,218.8594 251.2125,219.4303 L251.2125,220.7897 Q251.2125,221.3606 250.9678,221.6053 Q250.7231,221.85 250.3425,221.85 Q250.0027,221.85 249.7852,221.7005 Q249.5677,221.5509 249.4725,221.1567 Q249.4317,220.8848 249.2822,220.7353 Q249.0103,220.4498 248.5209,220.2867 Q248.0316,220.11 247.5422,220.11 Q246.9305,220.11 246.4139,220.3547 Q245.9109,220.5994 245.5167,221.1431 Q245.1225,221.6869 245.1225,222.4345 L245.1225,223.2366 Q245.1225,224.1338 245.8566,224.7319 Q246.5906,225.33 247.8956,225.33 Q248.6705,225.33 249.2142,225.1533 Q249.5269,225.0581 249.8803,224.7455 Q250.1114,224.5688 250.2338,224.5144 Q250.3561,224.46 250.5056,224.46 Q250.7911,224.46 250.995,224.6911 Q251.2125,224.9086 251.2125,225.2213 Q251.2125,225.5203 250.9134,225.8738 Q250.4784,226.3903 249.7852,226.6758 Q248.8744,227.07 247.7597,227.07 Q246.4547,227.07 245.408,226.5534 Q244.5652,226.1456 243.967,225.262 Q243.3825,224.3784 243.3825,223.3317 L243.3825,222.3802 Q243.3825,221.2927 243.8991,220.3411 Q244.4292,219.3895 245.34,218.8866 Q246.2644,218.37 247.2975,218.37 Q247.9228,218.37 248.4666,218.5875 Q249.0103,218.805 249.4725,219.24 Z " fill="#000000"/><text fill="#000000" font-family="sans-serif" font-size="10.44" lengthAdjust="spacing" textLength="20.88" x="265.5675" y="226.5568">Test</text><line style="stroke:#A80036;stroke-width:1.305;" x1="203.58" x2="320.16" y1="236.205" y2="236.205"/><text fill="#000000" font-family="sans-serif" font-size="9.57" lengthAdjust="spacing" textLength="24.36" x="207.93" y="249.6195">-code</text><text fill="#000000" font-family="sans-serif" font-size="9.57" lengthAdjust="spacing" textLength="41.76" x="207.93" y="261.6567">-NhsCode</text><text fill="#000000" font-family="sans-serif" font-size="9.57" lengthAdjust="spacing" textLength="100.05" x="207.93" y="273.694">-dateOfTestRegistration</text><text fill="#000000" font-family="sans-serif" font-size="9.57" lengthAdjust="spacing" textLength="107.88" x="207.93" y="285.7313">-dateOfSamplesCollection</text><text fill="#000000" font-family="sans-serif" font-size="9.57" lengthAdjust="spacing" textLength="106.14" x="207.93" y="297.7685">-dateOfChemicalAnalysis</text><text fill="#000000" font-family="sans-serif" font-size="9.57" lengthAdjust="spacing" textLength="73.08" x="207.93" y="309.8058">-dateOfDiagnosis</text><!--MD5=[36afb6bbd95a8ac778c4537c55a683d5]
class ParameterCategory--><rect codeLine="16" fill="#FEFECE" filter="url(#f1wg27vm3h2oep)" height="58.8745" id="ParameterCategory" style="stroke:#A80036;stroke-width:1.305;" width="120.93" x="1028.34" y="274.05"/><ellipse cx="1041.39" cy="287.97" fill="#ADD1B2" rx="9.57" ry="9.57" style="stroke:#A80036;stroke-width:0.87;"/><path d="M1043.13,284.925 Q1043.3067,284.49 1043.5106,284.2725 Q1043.7145,284.055 1043.9456,284.055 Q1044.3534,284.055 1044.6117,284.2997 Q1044.87,284.5444 1044.87,285.1153 L1044.87,286.4747 Q1044.87,287.0456 1044.6253,287.2903 Q1044.3806,287.535 1044,287.535 Q1043.6602,287.535 1043.4427,287.3855 Q1043.2252,287.2359 1043.13,286.8417 Q1043.0892,286.5698 1042.9397,286.4203 Q1042.6678,286.1348 1042.1784,285.9717 Q1041.6891,285.795 1041.1997,285.795 Q1040.588,285.795 1040.0714,286.0397 Q1039.5684,286.2844 1039.1742,286.8281 Q1038.78,287.3719 1038.78,288.1195 L1038.78,288.9216 Q1038.78,289.8188 1039.5141,290.4169 Q1040.2481,291.015 1041.5531,291.015 Q1042.328,291.015 1042.8717,290.8383 Q1043.1844,290.7431 1043.5378,290.4305 Q1043.7689,290.2538 1043.8913,290.1994 Q1044.0136,290.145 1044.1631,290.145 Q1044.4486,290.145 1044.6525,290.3761 Q1044.87,290.5936 1044.87,290.9063 Q1044.87,291.2053 1044.5709,291.5588 Q1044.1359,292.0753 1043.4427,292.3608 Q1042.5319,292.755 1041.4172,292.755 Q1040.1122,292.755 1039.0655,292.2384 Q1038.2227,291.8306 1037.6245,290.947 Q1037.04,290.0634 1037.04,289.0167 L1037.04,288.0652 Q1037.04,286.9777 1037.5566,286.0261 Q1038.0867,285.0745 1038.9975,284.5716 Q1039.9219,284.055 1040.955,284.055 Q1041.5803,284.055 1042.1241,284.2725 Q1042.6678,284.49 1043.13,284.925 Z " fill="#000000"/><text fill="#000000" font-family="sans-serif" font-size="10.44" lengthAdjust="spacing" textLength="93.09" x="1053.57" y="292.2418">ParameterCategory</text><line style="stroke:#A80036;stroke-width:1.305;" x1="1029.21" x2="1148.4" y1="301.89" y2="301.89"/><text fill="#000000" font-family="sans-serif" font-size="9.57" lengthAdjust="spacing" textLength="24.36" x="1033.56" y="315.3045">-code</text><text fill="#000000" font-family="sans-serif" font-size="9.57" lengthAdjust="spacing" textLength="26.1" x="1033.56" y="327.3417">-name</text><!--MD5=[03960189e81aa2c066c762ffabbee709]
class Receptionist--><rect codeLine="21" fill="#FEFECE" filter="url(#f1wg27vm3h2oep)" height="27.84" id="Receptionist" style="stroke:#A80036;stroke-width:1.305;" width="87.87" x="6.09" y="218.37"/><ellipse cx="19.14" cy="232.29" fill="#ADD1B2" rx="9.57" ry="9.57" style="stroke:#A80036;stroke-width:0.87;"/><path d="M20.88,229.245 Q21.0567,228.81 21.2606,228.5925 Q21.4645,228.375 21.6956,228.375 Q22.1034,228.375 22.3617,228.6197 Q22.62,228.8644 22.62,229.4353 L22.62,230.7947 Q22.62,231.3656 22.3753,231.6103 Q22.1306,231.855 21.75,231.855 Q21.4102,231.855 21.1927,231.7055 Q20.9752,231.5559 20.88,231.1617 Q20.8392,230.8898 20.6897,230.7403 Q20.4178,230.4548 19.9284,230.2917 Q19.4391,230.115 18.9497,230.115 Q18.338,230.115 17.8214,230.3597 Q17.3184,230.6044 16.9242,231.1481 Q16.53,231.6919 16.53,232.4395 L16.53,233.2416 Q16.53,234.1388 17.2641,234.7369 Q17.9981,235.335 19.3031,235.335 Q20.078,235.335 20.6217,235.1583 Q20.9344,235.0631 21.2878,234.7505 Q21.5189,234.5738 21.6413,234.5194 Q21.7636,234.465 21.9131,234.465 Q22.1986,234.465 22.4025,234.6961 Q22.62,234.9136 22.62,235.2263 Q22.62,235.5253 22.3209,235.8788 Q21.8859,236.3953 21.1927,236.6808 Q20.2819,237.075 19.1672,237.075 Q17.8622,237.075 16.8155,236.5584 Q15.9727,236.1506 15.3745,235.267 Q14.79,234.3834 14.79,233.3367 L14.79,232.3852 Q14.79,231.2977 15.3066,230.3461 Q15.8367,229.3945 16.7475,228.8916 Q17.6719,228.375 18.705,228.375 Q19.3303,228.375 19.8741,228.5925 Q20.4178,228.81 20.88,229.245 Z " fill="#000000"/><text fill="#000000" font-family="sans-serif" font-size="10.44" lengthAdjust="spacing" textLength="60.03" x="31.32" y="236.5618">Receptionist</text><!--MD5=[9681492165142af2a4a3a169d90ee8d4]
class Sample--><rect codeLine="23" fill="#FEFECE" filter="url(#f1wg27vm3h2oep)" height="46.8373" id="Sample" style="stroke:#A80036;stroke-width:1.305;" width="65.25" x="514.605" y="6.09"/><ellipse cx="527.655" cy="20.01" fill="#ADD1B2" rx="9.57" ry="9.57" style="stroke:#A80036;stroke-width:0.87;"/><path d="M529.395,16.965 Q529.5717,16.53 529.7756,16.3125 Q529.9795,16.095 530.2106,16.095 Q530.6184,16.095 530.8767,16.3397 Q531.135,16.5844 531.135,17.1553 L531.135,18.5147 Q531.135,19.0856 530.8903,19.3303 Q530.6456,19.575 530.265,19.575 Q529.9252,19.575 529.7077,19.4255 Q529.4902,19.2759 529.395,18.8817 Q529.3542,18.6098 529.2047,18.4603 Q528.9328,18.1748 528.4434,18.0117 Q527.9541,17.835 527.4647,17.835 Q526.853,17.835 526.3364,18.0797 Q525.8334,18.3244 525.4392,18.8681 Q525.045,19.4119 525.045,20.1595 L525.045,20.9616 Q525.045,21.8588 525.7791,22.4569 Q526.5131,23.055 527.8181,23.055 Q528.593,23.055 529.1367,22.8783 Q529.4494,22.7831 529.8028,22.4705 Q530.0339,22.2938 530.1563,22.2394 Q530.2786,22.185 530.4281,22.185 Q530.7136,22.185 530.9175,22.4161 Q531.135,22.6336 531.135,22.9463 Q531.135,23.2453 530.8359,23.5988 Q530.4009,24.1153 529.7077,24.4008 Q528.7969,24.795 527.6822,24.795 Q526.3772,24.795 525.3305,24.2784 Q524.4877,23.8706 523.8895,22.987 Q523.305,22.1034 523.305,21.0567 L523.305,20.1052 Q523.305,19.0177 523.8216,18.0661 Q524.3517,17.1145 525.2625,16.6116 Q526.1869,16.095 527.22,16.095 Q527.8453,16.095 528.3891,16.3125 Q528.9328,16.53 529.395,16.965 Z " fill="#000000"/><text fill="#000000" font-family="sans-serif" font-size="10.44" lengthAdjust="spacing" textLength="37.41" x="539.835" y="24.2818">Sample</text><line style="stroke:#A80036;stroke-width:1.305;" x1="515.475" x2="578.985" y1="33.93" y2="33.93"/><text fill="#000000" font-family="sans-serif" font-size="9.57" lengthAdjust="spacing" textLength="39.15" x="519.825" y="47.3445">-barCode</text><!--MD5=[ed6624c6556d5e7b1bd23032162d20b7]
class Client--><rect codeLine="27" fill="#FEFECE" filter="url(#f1wg27vm3h2oep)" height="131.0981" id="Client" style="stroke:#A80036;stroke-width:1.305;" width="79.17" x="507.645" y="83.955"/><ellipse cx="531.2655" cy="97.875" fill="#ADD1B2" rx="9.57" ry="9.57" style="stroke:#A80036;stroke-width:0.87;"/><path d="M533.0055,94.83 Q533.1822,94.395 533.3861,94.1775 Q533.59,93.96 533.8211,93.96 Q534.2289,93.96 534.4872,94.2047 Q534.7455,94.4494 534.7455,95.0203 L534.7455,96.3797 Q534.7455,96.9506 534.5008,97.1953 Q534.2561,97.44 533.8755,97.44 Q533.5357,97.44 533.3182,97.2905 Q533.1007,97.1409 533.0055,96.7467 Q532.9647,96.4748 532.8152,96.3253 Q532.5433,96.0398 532.0539,95.8767 Q531.5646,95.7 531.0752,95.7 Q530.4635,95.7 529.9469,95.9447 Q529.4439,96.1894 529.0497,96.7331 Q528.6555,97.2769 528.6555,98.0245 L528.6555,98.8266 Q528.6555,99.7238 529.3896,100.3219 Q530.1236,100.92 531.4286,100.92 Q532.2035,100.92 532.7472,100.7433 Q533.0599,100.6481 533.4133,100.3355 Q533.6444,100.1588 533.7668,100.1044 Q533.8891,100.05 534.0386,100.05 Q534.3241,100.05 534.528,100.2811 Q534.7455,100.4986 534.7455,100.8113 Q534.7455,101.1103 534.4464,101.4638 Q534.0114,101.9803 533.3182,102.2658 Q532.4074,102.66 531.2927,102.66 Q529.9877,102.66 528.941,102.1434 Q528.0982,101.7356 527.5,100.852 Q526.9155,99.9684 526.9155,98.9217 L526.9155,97.9702 Q526.9155,96.8827 527.4321,95.9311 Q527.9622,94.9795 528.873,94.4766 Q529.7974,93.96 530.8305,93.96 Q531.4558,93.96 531.9996,94.1775 Q532.5433,94.395 533.0055,94.83 Z " fill="#000000"/><text fill="#000000" font-family="sans-serif" font-size="10.44" lengthAdjust="spacing" textLength="27.84" x="545.7945" y="102.1468">Client</text><line style="stroke:#A80036;stroke-width:1.305;" x1="508.515" x2="585.945" y1="111.795" y2="111.795"/><text fill="#000000" font-family="sans-serif" font-size="9.57" lengthAdjust="spacing" textLength="26.1" x="512.865" y="125.2095">-name</text><text fill="#000000" font-family="sans-serif" font-size="9.57" lengthAdjust="spacing" textLength="68.73" x="512.865" y="137.2467">-citizenCardNum</text><text fill="#000000" font-family="sans-serif" font-size="9.57" lengthAdjust="spacing" textLength="37.41" x="512.865" y="149.284">-nhsNum</text><text fill="#000000" font-family="sans-serif" font-size="9.57" lengthAdjust="spacing" textLength="40.89" x="512.865" y="161.3213">-birthDate</text><text fill="#000000" font-family="sans-serif" font-size="9.57" lengthAdjust="spacing" textLength="19.14" x="512.865" y="173.3585">-sex</text><text fill="#000000" font-family="sans-serif" font-size="9.57" lengthAdjust="spacing" textLength="41.76" x="512.865" y="185.3958">-taxIdNum</text><text fill="#000000" font-family="sans-serif" font-size="9.57" lengthAdjust="spacing" textLength="47.85" x="512.865" y="197.4331">-phoneNum</text><text fill="#000000" font-family="sans-serif" font-size="9.57" lengthAdjust="spacing" textLength="24.36" x="512.865" y="209.4703">-email</text><!--MD5=[0f07739f46effee96e095e9c408da841]
class TestParameter--><rect codeLine="37" fill="#FEFECE" filter="url(#f1wg27vm3h2oep)" height="27.84" id="TestParameter" style="stroke:#A80036;stroke-width:1.305;" width="99.18" x="497.64" y="307.98"/><ellipse cx="510.69" cy="321.9" fill="#ADD1B2" rx="9.57" ry="9.57" style="stroke:#A80036;stroke-width:0.87;"/><path d="M512.43,318.855 Q512.6067,318.42 512.8106,318.2025 Q513.0145,317.985 513.2456,317.985 Q513.6534,317.985 513.9117,318.2297 Q514.17,318.4744 514.17,319.0453 L514.17,320.4047 Q514.17,320.9756 513.9253,321.2203 Q513.6806,321.465 513.3,321.465 Q512.9602,321.465 512.7427,321.3155 Q512.5252,321.1659 512.43,320.7717 Q512.3892,320.4998 512.2397,320.3503 Q511.9678,320.0648 511.4784,319.9017 Q510.9891,319.725 510.4997,319.725 Q509.888,319.725 509.3714,319.9697 Q508.8684,320.2144 508.4742,320.7581 Q508.08,321.3019 508.08,322.0495 L508.08,322.8516 Q508.08,323.7488 508.8141,324.3469 Q509.5481,324.945 510.8531,324.945 Q511.628,324.945 512.1717,324.7683 Q512.4844,324.6731 512.8378,324.3605 Q513.0689,324.1838 513.1913,324.1294 Q513.3136,324.075 513.4631,324.075 Q513.7486,324.075 513.9525,324.3061 Q514.17,324.5236 514.17,324.8363 Q514.17,325.1353 513.8709,325.4888 Q513.4359,326.0053 512.7427,326.2908 Q511.8319,326.685 510.7172,326.685 Q509.4122,326.685 508.3655,326.1684 Q507.5227,325.7606 506.9245,324.877 Q506.34,323.9934 506.34,322.9467 L506.34,321.9952 Q506.34,320.9077 506.8566,319.9561 Q507.3867,319.0045 508.2975,318.5016 Q509.2219,317.985 510.255,317.985 Q510.8803,317.985 511.4241,318.2025 Q511.9678,318.42 512.43,318.855 Z " fill="#000000"/><text fill="#000000" font-family="sans-serif" font-size="10.44" lengthAdjust="spacing" textLength="71.34" x="522.87" y="326.1718">TestParameter</text><!--MD5=[4e608140b854dae633589343bce77383]
class TestParameterResult--><rect codeLine="38" fill="#FEFECE" filter="url(#f1wg27vm3h2oep)" height="70.9118" id="TestParameterResult" style="stroke:#A80036;stroke-width:1.305;" width="130.5" x="751.68" y="265.35"/><ellipse cx="764.73" cy="279.27" fill="#ADD1B2" rx="9.57" ry="9.57" style="stroke:#A80036;stroke-width:0.87;"/><path d="M766.47,276.225 Q766.6467,275.79 766.8506,275.5725 Q767.0545,275.355 767.2856,275.355 Q767.6934,275.355 767.9517,275.5997 Q768.21,275.8444 768.21,276.4153 L768.21,277.7747 Q768.21,278.3456 767.9653,278.5903 Q767.7206,278.835 767.34,278.835 Q767.0002,278.835 766.7827,278.6855 Q766.5652,278.5359 766.47,278.1417 Q766.4292,277.8698 766.2797,277.7203 Q766.0078,277.4348 765.5184,277.2717 Q765.0291,277.095 764.5397,277.095 Q763.928,277.095 763.4114,277.3397 Q762.9084,277.5844 762.5142,278.1281 Q762.12,278.6719 762.12,279.4195 L762.12,280.2216 Q762.12,281.1188 762.8541,281.7169 Q763.5881,282.315 764.8931,282.315 Q765.668,282.315 766.2117,282.1383 Q766.5244,282.0431 766.8778,281.7305 Q767.1089,281.5538 767.2313,281.4994 Q767.3536,281.445 767.5031,281.445 Q767.7886,281.445 767.9925,281.6761 Q768.21,281.8936 768.21,282.2063 Q768.21,282.5053 767.9109,282.8588 Q767.4759,283.3753 766.7827,283.6608 Q765.8719,284.055 764.7572,284.055 Q763.4522,284.055 762.4055,283.5384 Q761.5627,283.1306 760.9645,282.247 Q760.38,281.3634 760.38,280.3167 L760.38,279.3652 Q760.38,278.2777 760.8966,277.3261 Q761.4267,276.3745 762.3375,275.8716 Q763.2619,275.355 764.295,275.355 Q764.9203,275.355 765.4641,275.5725 Q766.0078,275.79 766.47,276.225 Z " fill="#000000"/><text fill="#000000" font-family="sans-serif" font-size="10.44" lengthAdjust="spacing" textLength="102.66" x="776.91" y="283.5418">TestParameterResult</text><line style="stroke:#A80036;stroke-width:1.305;" x1="752.55" x2="881.31" y1="293.19" y2="293.19"/><text fill="#000000" font-family="sans-serif" font-size="9.57" lengthAdjust="spacing" textLength="45.24" x="756.9" y="306.6045">-createdAt</text><text fill="#000000" font-family="sans-serif" font-size="9.57" lengthAdjust="spacing" textLength="26.1" x="756.9" y="318.6417">-value</text><text fill="#000000" font-family="sans-serif" font-size="9.57" lengthAdjust="spacing" textLength="28.71" x="756.9" y="330.679">-metric</text><!--MD5=[aeb3272166074d8737a70b61b1e71682]
class TestType--><rect codeLine="43" fill="#FEFECE" filter="url(#f1wg27vm3h2oep)" height="70.9118" id="TestType" style="stroke:#A80036;stroke-width:1.305;" width="92.22" x="633.36" y="189.66"/><ellipse cx="655.806" cy="203.58" fill="#ADD1B2" rx="9.57" ry="9.57" style="stroke:#A80036;stroke-width:0.87;"/><path d="M657.546,200.535 Q657.7227,200.1 657.9266,199.8825 Q658.1305,199.665 658.3616,199.665 Q658.7694,199.665 659.0277,199.9097 Q659.286,200.1544 659.286,200.7253 L659.286,202.0847 Q659.286,202.6556 659.0413,202.9003 Q658.7966,203.145 658.416,203.145 Q658.0762,203.145 657.8587,202.9955 Q657.6412,202.8459 657.546,202.4517 Q657.5052,202.1798 657.3557,202.0303 Q657.0838,201.7448 656.5944,201.5817 Q656.1051,201.405 655.6157,201.405 Q655.004,201.405 654.4874,201.6497 Q653.9844,201.8944 653.5902,202.4381 Q653.196,202.9819 653.196,203.7295 L653.196,204.5316 Q653.196,205.4288 653.9301,206.0269 Q654.6641,206.625 655.9691,206.625 Q656.744,206.625 657.2877,206.4483 Q657.6004,206.3531 657.9538,206.0405 Q658.1849,205.8638 658.3073,205.8094 Q658.4296,205.755 658.5791,205.755 Q658.8646,205.755 659.0685,205.9861 Q659.286,206.2036 659.286,206.5162 Q659.286,206.8153 658.9869,207.1688 Q658.5519,207.6853 657.8587,207.9708 Q656.9479,208.365 655.8332,208.365 Q654.5282,208.365 653.4815,207.8484 Q652.6387,207.4406 652.0405,206.557 Q651.456,205.6734 651.456,204.6267 L651.456,203.6752 Q651.456,202.5877 651.9726,201.6361 Q652.5027,200.6845 653.4135,200.1816 Q654.3379,199.665 655.371,199.665 Q655.9963,199.665 656.5401,199.8825 Q657.0838,200.1 657.546,200.535 Z " fill="#000000"/><text fill="#000000" font-family="sans-serif" font-size="10.44" lengthAdjust="spacing" textLength="43.5" x="670.074" y="207.8518">TestType</text><line style="stroke:#A80036;stroke-width:1.305;" x1="634.23" x2="724.71" y1="217.5" y2="217.5"/><text fill="#000000" font-family="sans-serif" font-size="9.57" lengthAdjust="spacing" textLength="25.23" x="638.58" y="230.9145">-Code</text><text fill="#000000" font-family="sans-serif" font-size="9.57" lengthAdjust="spacing" textLength="50.46" x="638.58" y="242.9517">-Description</text><text fill="#000000" font-family="sans-serif" font-size="9.57" lengthAdjust="spacing" textLength="81.78" x="638.58" y="254.989">-Collecting methods</text><!--MD5=[1f6362a5c8f21d8d6a0fce68f3a92a4e]
class Parameter--><rect codeLine="49" fill="#FEFECE" filter="url(#f1wg27vm3h2oep)" height="70.9118" id="Parameter" style="stroke:#A80036;stroke-width:1.305;" width="78.3" x="777.78" y="367.14"/><ellipse cx="790.83" cy="381.06" fill="#ADD1B2" rx="9.57" ry="9.57" style="stroke:#A80036;stroke-width:0.87;"/><path d="M792.57,378.015 Q792.7467,377.58 792.9506,377.3625 Q793.1545,377.145 793.3856,377.145 Q793.7934,377.145 794.0517,377.3897 Q794.31,377.6344 794.31,378.2053 L794.31,379.5647 Q794.31,380.1356 794.0653,380.3803 Q793.8206,380.625 793.44,380.625 Q793.1002,380.625 792.8827,380.4755 Q792.6652,380.3259 792.57,379.9317 Q792.5292,379.6598 792.3797,379.5103 Q792.1078,379.2248 791.6184,379.0617 Q791.1291,378.885 790.6397,378.885 Q790.028,378.885 789.5114,379.1297 Q789.0084,379.3744 788.6142,379.9181 Q788.22,380.4619 788.22,381.2095 L788.22,382.0116 Q788.22,382.9088 788.9541,383.5069 Q789.6881,384.105 790.9931,384.105 Q791.768,384.105 792.3117,383.9283 Q792.6244,383.8331 792.9778,383.5205 Q793.2089,383.3438 793.3313,383.2894 Q793.4536,383.235 793.6031,383.235 Q793.8886,383.235 794.0925,383.4661 Q794.31,383.6836 794.31,383.9963 Q794.31,384.2953 794.0109,384.6488 Q793.5759,385.1653 792.8827,385.4508 Q791.9719,385.845 790.8572,385.845 Q789.5522,385.845 788.5055,385.3284 Q787.6627,384.9206 787.0645,384.037 Q786.48,383.1534 786.48,382.1067 L786.48,381.1552 Q786.48,380.0677 786.9966,379.1161 Q787.5267,378.1645 788.4375,377.6616 Q789.3619,377.145 790.395,377.145 Q791.0203,377.145 791.5641,377.3625 Q792.1078,377.58 792.57,378.015 Z " fill="#000000"/><text fill="#000000" font-family="sans-serif" font-size="10.44" lengthAdjust="spacing" textLength="50.46" x="803.01" y="385.3318">Parameter</text><line style="stroke:#A80036;stroke-width:1.305;" x1="778.65" x2="855.21" y1="394.98" y2="394.98"/><text fill="#000000" font-family="sans-serif" font-size="9.57" lengthAdjust="spacing" textLength="24.36" x="783" y="408.3945">-code</text><text fill="#000000" font-family="sans-serif" font-size="9.57" lengthAdjust="spacing" textLength="48.72" x="783" y="420.4317">-shortName</text><text fill="#000000" font-family="sans-serif" font-size="9.57" lengthAdjust="spacing" textLength="49.59" x="783" y="432.469">-description</text><!--MD5=[f00dbe8c0302c6aec2cb26b3c659c8fc]
class Report--><rect fill="#FEFECE" filter="url(#f1wg27vm3h2oep)" height="27.84" id="Report" style="stroke:#A80036;stroke-width:1.305;" width="60.03" x="20.01" y="276.66"/><ellipse cx="33.06" cy="290.58" fill="#ADD1B2" rx="9.57" ry="9.57" style="stroke:#A80036;stroke-width:0.87;"/><path d="M34.8,287.535 Q34.9767,287.1 35.1806,286.8825 Q35.3845,286.665 35.6156,286.665 Q36.0234,286.665 36.2817,286.9097 Q36.54,287.1544 36.54,287.7253 L36.54,289.0847 Q36.54,289.6556 36.2953,289.9003 Q36.0506,290.145 35.67,290.145 Q35.3302,290.145 35.1127,289.9955 Q34.8952,289.8459 34.8,289.4517 Q34.7592,289.1798 34.6097,289.0303 Q34.3378,288.7448 33.8484,288.5817 Q33.3591,288.405 32.8697,288.405 Q32.258,288.405 31.7414,288.6497 Q31.2384,288.8944 30.8442,289.4381 Q30.45,289.9819 30.45,290.7295 L30.45,291.5316 Q30.45,292.4288 31.1841,293.0269 Q31.9181,293.625 33.2231,293.625 Q33.998,293.625 34.5417,293.4483 Q34.8544,293.3531 35.2078,293.0405 Q35.4389,292.8638 35.5613,292.8094 Q35.6836,292.755 35.8331,292.755 Q36.1186,292.755 36.3225,292.9861 Q36.54,293.2036 36.54,293.5163 Q36.54,293.8153 36.2409,294.1688 Q35.8059,294.6853 35.1127,294.9708 Q34.2019,295.365 33.0872,295.365 Q31.7822,295.365 30.7355,294.8484 Q29.8927,294.4406 29.2945,293.557 Q28.71,292.6734 28.71,291.6267 L28.71,290.6752 Q28.71,289.5877 29.2266,288.6361 Q29.7567,287.6845 30.6675,287.1816 Q31.5919,286.665 32.625,286.665 Q33.2503,286.665 33.7941,286.8825 Q34.3378,287.1 34.8,287.535 Z " fill="#000000"/><text fill="#000000" font-family="sans-serif" font-size="10.44" lengthAdjust="spacing" textLength="32.19" x="45.24" y="294.8518">Report</text><!--MD5=[e981d4f96c4342412d1e68160b30cf70]
link Test to TestType--><path codeLine="55" d="M321.378,258.6597 C360.8934,256.3368 414.1722,252.9003 461.1,248.82 C520.695,243.6435 589.2858,235.944 633.2469,230.7849 " fill="none" id="Test-TestType" style="stroke:#A80036;stroke-width:0.87;"/><polygon fill="#000000" points="374.9527,240.7557,366.8871,238.9095,367.3424,244.0029,374.9527,240.7557" style="stroke:#000000;stroke-width:0.87;"/><text fill="#000000" font-family="sans-serif" font-size="11.31" lengthAdjust="spacing" textLength="62.64" x="378.45" y="245.7708">classified as</text><text fill="#000000" font-family="sans-serif" font-size="11.31" lengthAdjust="spacing" textLength="4.35" x="328.1246" y="270.8266">*</text><text fill="#000000" font-family="sans-serif" font-size="11.31" lengthAdjust="spacing" textLength="6.09" x="620.2286" y="244.3231">1</text><!--MD5=[63d25d625ab355317a074a623d33bba8]
link Report to Test--><path codeLine="56" d="M80.04,291.2586 C105.6441,291.4065 143.811,290.5365 176.61,285.36 C185.1012,284.0202 193.9491,282.1323 202.5882,279.9921 " fill="none" id="Report-Test" style="stroke:#A80036;stroke-width:0.87;"/><polygon fill="#000000" points="140.0517,277.2847,131.9815,275.459,132.4496,280.5512,140.0517,277.2847" style="stroke:#000000;stroke-width:0.87;"/><text fill="#000000" font-family="sans-serif" font-size="11.31" lengthAdjust="spacing" textLength="20.88" x="143.55" y="282.3108">is of</text><text fill="#000000" font-family="sans-serif" font-size="11.31" lengthAdjust="spacing" textLength="6.09" x="86.8586" y="304.6064">1</text><text fill="#000000" font-family="sans-serif" font-size="11.31" lengthAdjust="spacing" textLength="6.09" x="189.6812" y="294.4922">1</text><!--MD5=[3994f36c72829dbcddd1cf7021dddf61]
link Test to Client--><path codeLine="57" d="M321.1605,238.7541 C376.9449,216.6822 459.4296,184.0398 507.5493,164.9955 " fill="none" id="Test-Client" style="stroke:#A80036;stroke-width:0.87;"/><polygon fill="#000000" points="373.3598,176.9023,365.1019,177.4204,366.9835,182.1753,373.3598,176.9023" style="stroke:#000000;stroke-width:0.87;"/><text fill="#000000" font-family="sans-serif" font-size="11.31" lengthAdjust="spacing" textLength="65.25" x="377.145" y="183.1308">requested by</text><text fill="#000000" font-family="sans-serif" font-size="11.31" lengthAdjust="spacing" textLength="4.35" x="327.8833" y="248.7438">*</text><text fill="#000000" font-family="sans-serif" font-size="11.31" lengthAdjust="spacing" textLength="6.09" x="494.6499" y="180.3388">1</text><!--MD5=[c23963f6e403fc3ebec8dae22c30ade6]
link Test to Parameter--><path codeLine="58" d="M317.1585,315.5316 C326.6154,322.8744 336.7596,329.6865 347.13,334.95 C492.7245,408.8739 694.4688,408.9522 777.7539,405.2634 " fill="none" id="Test-Parameter" style="stroke:#A80036;stroke-width:0.87;"/><polygon fill="#000000" points="495.8197,375.9547,488.5846,371.9403,487.6068,376.9597,495.8197,375.9547" style="stroke:#000000;stroke-width:0.87;"/><text fill="#000000" font-family="sans-serif" font-size="11.31" lengthAdjust="spacing" textLength="107.01" x="499.38" y="379.7508">requested analysis of</text><text fill="#000000" font-family="sans-serif" font-size="11.31" lengthAdjust="spacing" textLength="4.35" x="318.6178" y="333.9188">*</text><text fill="#000000" font-family="sans-serif" font-size="11.31" lengthAdjust="spacing" textLength="17.4" x="753.3221" y="418.4407">1..*</text><!--MD5=[e8b34c2e6517a986175307f5599f058a]
link Receptionist to Test--><path codeLine="59" d="M94.1775,238.38 C125.5236,242.7996 168.2667,248.8113 202.6317,253.6572 " fill="none" id="Receptionist-Test" style="stroke:#A80036;stroke-width:0.87;"/><polygon fill="#000000" points="128.7175,234.7897,121.2818,231.1602,120.5685,236.2239,128.7175,234.7897" style="stroke:#000000;stroke-width:0.87;"/><text fill="#000000" font-family="sans-serif" font-size="11.31" lengthAdjust="spacing" textLength="43.5" x="132.24" y="238.8108">registers</text><text fill="#000000" font-family="sans-serif" font-size="11.31" lengthAdjust="spacing" textLength="6.09" x="100.8146" y="251.9774">1</text><text fill="#000000" font-family="sans-serif" font-size="11.31" lengthAdjust="spacing" textLength="4.35" x="191.5646" y="265.2769">*</text><!--MD5=[6df8849671cb880f6936e94aa30db6f9]
link Parameter to ParameterCategory--><path codeLine="60" d="M856.2192,388.7073 C901.0851,372.2295 975.8181,344.7897 1028.2617,325.5366 " fill="none" id="Parameter-ParameterCategory" style="stroke:#A80036;stroke-width:0.87;"/><polygon fill="#000000" points="916.7134,325.7736,908.4451,326.0858,910.2077,330.8861,916.7134,325.7736" style="stroke:#000000;stroke-width:0.87;"/><text fill="#000000" font-family="sans-serif" font-size="11.31" lengthAdjust="spacing" textLength="80.91" x="920.46" y="331.9008">presented under</text><text fill="#000000" font-family="sans-serif" font-size="11.31" lengthAdjust="spacing" textLength="4.35" x="863.0867" y="399.3258">*</text><text fill="#000000" font-family="sans-serif" font-size="11.31" lengthAdjust="spacing" textLength="6.09" x="1015.2167" y="340.467">1</text><!--MD5=[8aaf0efd5e2f3824be7ea3e488dcc283]
link TestType to ParameterCategory--><path codeLine="61" d="M725.8932,229.3407 C766.9746,233.3601 828.9273,240.4071 882.18,250.56 C931.9179,260.043 987.4674,274.6155 1028.2965,286.0908 " fill="none" id="TestType-ParameterCategory" style="stroke:#A80036;stroke-width:0.87;"/><polygon fill="#000000" points="777.2704,226.2853,770.0078,222.3208,769.0646,227.3468,777.2704,226.2853" style="stroke:#000000;stroke-width:0.87;"/><text fill="#000000" font-family="sans-serif" font-size="11.31" lengthAdjust="spacing" textLength="83.52" x="780.825" y="230.1108">characterized by</text><text fill="#000000" font-family="sans-serif" font-size="11.31" lengthAdjust="spacing" textLength="6.09" x="732.5405" y="242.605">1</text><text fill="#000000" font-family="sans-serif" font-size="11.31" lengthAdjust="spacing" textLength="17.4" x="1004.0838" y="296.8193">1..*</text><!--MD5=[b72ac8ab7fb5921fceb5036a3902baea]
link Test to Sample--><path codeLine="62" d="M304.3347,208.2084 C317.2716,193.0095 332.1051,176.958 347.13,163.56 C403.2363,113.5176 424.7253,110.5509 487.2,68.73 C496.0044,62.8401 505.5657,56.4891 514.3875,50.6514 " fill="none" id="Test-Sample" style="stroke:#A80036;stroke-width:0.87;"/><polygon fill="#000000" points="385.8449,76.7127,378.0155,79.3892,381.084,83.48,385.8449,76.7127" style="stroke:#000000;stroke-width:0.87;"/><text fill="#000000" font-family="sans-serif" font-size="11.31" lengthAdjust="spacing" textLength="39.15" x="390.195" y="83.9508">collects</text><text fill="#000000" font-family="sans-serif" font-size="11.31" lengthAdjust="spacing" textLength="6.09" x="302.8026" y="199.0367">1</text><text fill="#000000" font-family="sans-serif" font-size="11.31" lengthAdjust="spacing" textLength="17.4" x="490.3667" y="66.8954">1..*</text><!--MD5=[f24c888dadeb846430474fe80a58922b]
link Test to TestParameter--><path codeLine="63" d="M321.2388,303.978 C329.6082,308.3889 338.3604,312.243 347.13,314.94 C396.5895,330.1389 456.228,329.9562 497.2833,327.1809 " fill="none" id="Test-TestParameter" style="stroke:#A80036;stroke-width:0.87;"/><polygon fill="#000000" points="355.7927,307.8313,348.3251,304.2681,347.6568,309.338,355.7927,307.8313" style="stroke:#000000;stroke-width:0.87;"/><text fill="#000000" font-family="sans-serif" font-size="11.31" lengthAdjust="spacing" textLength="100.92" x="359.31" y="311.8908">requests analysis of</text><text fill="#000000" font-family="sans-serif" font-size="11.31" lengthAdjust="spacing" textLength="6.09" x="328.0653" y="321.1015">1</text><text fill="#000000" font-family="sans-serif" font-size="11.31" lengthAdjust="spacing" textLength="17.4" x="473.1023" y="340.3547">1..*</text><!--MD5=[92e8e476cc9e9004a7125f53a120ec97]
link TestParameter to Parameter--><path codeLine="64" d="M594.471,335.8983 C646.2969,351.5496 729.2688,376.6056 777.6321,391.2042 " fill="none" id="TestParameter-Parameter" style="stroke:#A80036;stroke-width:0.87;"/><polygon fill="#000000" points="661.0143,341.5803,654.2201,336.8579,652.7419,341.7534,661.0143,341.5803" style="stroke:#000000;stroke-width:0.87;"/><text fill="#000000" font-family="sans-serif" font-size="11.31" lengthAdjust="spacing" textLength="40.89" x="664.68" y="344.9508">refers to</text><text fill="#000000" font-family="sans-serif" font-size="11.31" lengthAdjust="spacing" textLength="4.35" x="603.9225" y="354.1044">*</text><text fill="#000000" font-family="sans-serif" font-size="11.31" lengthAdjust="spacing" textLength="6.09" x="764.7937" y="402.263">1</text><!--MD5=[0e00e25ac6b8c14659aaff2cf7e5df08]
link TestParameter to TestParameterResult--><path codeLine="65" d="M596.9331,318.0981 C640.3374,314.7138 704.091,309.7461 751.6539,306.0399 " fill="none" id="TestParameter-TestParameterResult" style="stroke:#A80036;stroke-width:0.87;"/><polygon fill="#000000" points="660.3168,299.9649,652.2727,298.0272,652.6701,303.1255,660.3168,299.9649" style="stroke:#000000;stroke-width:0.87;"/><text fill="#000000" font-family="sans-serif" font-size="11.31" lengthAdjust="spacing" textLength="42.63" x="663.81" y="304.9308">contains</text><text fill="#000000" font-family="sans-serif" font-size="11.31" lengthAdjust="spacing" textLength="6.09" x="603.6915" y="330.2631">1</text><text fill="#000000" font-family="sans-serif" font-size="11.31" lengthAdjust="spacing" textLength="19.14" x="725.614" y="318.9189">0..1</text><!--MD5=[6e8fdde3a3ae7e367241195170d75156]
@startuml

left to right direction
skinparam classAttributeIconSize 0
hide empty methods
hide empty attributes

class Test{
- code
- NhsCode
- dateOfTestRegistration
- dateOfSamplesCollection
- dateOfChemicalAnalysis
- dateOfDiagnosis
}

class ParameterCategory{
  -code
  -name
}

class Receptionist{}

class Sample{
- barCode
}

class Client{
- name
- citizenCardNum
- nhsNum
- birthDate
- sex
- taxIdNum
- phoneNum
- email
}
class TestParameter{}
class TestParameterResult{
- createdAt
- value
- metric
}
class TestType{
- Code
- Description
- Collecting methods
}

class Parameter{
- code
- shortName
- description
}

Test "*" - - "1" TestType : classified as >
Report "1" - - "1" Test : is of >
Test "*" - - "1" Client : requested by >
Test "*" - - "1..*" Parameter : requested analysis of >
Receptionist "1" - - "*" Test : registers >
Parameter "*" - - "1" ParameterCategory: presented under >
TestType "1" - - "1..*" ParameterCategory : characterized by >
Test "1" - - "1..*" Sample : collects >
Test "1" - - "1..*" TestParameter : requests analysis of >
TestParameter "*" - - "1" Parameter : refers to >
TestParameter "1" - - "0..1" TestParameterResult : contains >
@enduml

PlantUML version 1.2021.00(Sun Jan 10 10:25:05 GMT 2021)
(GPL source distribution)
Java Runtime: OpenJDK Runtime Environment
JVM: OpenJDK 64-Bit Server VM
Default Encoding: Cp1252
Language: pt
Country: BR
--></g></svg>