<?xml version="1.0" encoding="UTF-8" standalone="no"?><svg xmlns="http://www.w3.org/2000/svg" xmlns:xlink="http://www.w3.org/1999/xlink" contentScriptType="application/ecmascript" contentStyleType="text/css" height="323.19px" preserveAspectRatio="none" style="width:954px;height:323px;" version="1.1" viewBox="0 0 954 323" width="954.45px" zoomAndPan="magnify"><defs><filter height="300%" id="fu2qfh6vultwr" width="300%" x="-1" y="-1"><feGaussianBlur result="blurOut" stdDeviation="1.26"/><feColorMatrix in="blurOut" result="blurOut2" type="matrix" values="0 0 0 0 0 0 0 0 0 0 0 0 0 0 0 0 0 0 .4 0"/><feOffset dx="2.52" dy="2.52" in="blurOut2" result="blurOut3"/><feBlend in="SourceGraphic" in2="blurOut3" mode="normal"/></filter></defs><g><!--MD5=[df38be88ccee13e832d6fafd6288a4ca]
class Test--><rect codeLine="7" fill="#FEFECE" filter="url(#fu2qfh6vultwr)" height="77.4998" id="Test" style="stroke:#A80036;stroke-width:0.9450000000000001;" width="85.68" x="286.65" y="114.3891"/><ellipse cx="319.2525" cy="124.4691" fill="#ADD1B2" rx="6.93" ry="6.93" style="stroke:#A80036;stroke-width:0.63;"/><path d="M320.5125,122.2641 Q320.6405,121.9491 320.7881,121.7916 Q320.9358,121.6341 321.1031,121.6341 Q321.3984,121.6341 321.5855,121.8113 Q321.7725,121.9885 321.7725,122.4019 L321.7725,123.3863 Q321.7725,123.7997 321.5953,123.9769 Q321.4181,124.1541 321.1425,124.1541 Q320.8964,124.1541 320.7389,124.0458 Q320.5814,123.9375 320.5125,123.6521 Q320.483,123.4552 320.3747,123.3469 Q320.1778,123.1402 319.8234,123.0221 Q319.4691,122.8941 319.1147,122.8941 Q318.6717,122.8941 318.2977,123.0713 Q317.9334,123.2485 317.648,123.6422 Q317.3625,124.036 317.3625,124.5774 L317.3625,125.1582 Q317.3625,125.8079 317.8941,126.241 Q318.4256,126.6741 319.3706,126.6741 Q319.9317,126.6741 320.3255,126.5461 Q320.5519,126.4772 320.8078,126.2508 Q320.9752,126.1229 321.0638,126.0835 Q321.1523,126.0441 321.2606,126.0441 Q321.4673,126.0441 321.615,126.2114 Q321.7725,126.3689 321.7725,126.5954 Q321.7725,126.8119 321.5559,127.0678 Q321.2409,127.4419 320.7389,127.6486 Q320.0794,127.9341 319.2722,127.9341 Q318.3272,127.9341 317.5692,127.56 Q316.9589,127.2647 316.5258,126.6249 Q316.1025,125.985 316.1025,125.2271 L316.1025,124.538 Q316.1025,123.7505 316.4766,123.0614 Q316.8605,122.3724 317.52,122.0082 Q318.1894,121.6341 318.9375,121.6341 Q319.3903,121.6341 319.7841,121.7916 Q320.1778,121.9491 320.5125,122.2641 Z " fill="#000000"/><text fill="#000000" font-family="sans-serif" font-size="7.56" lengthAdjust="spacing" textLength="15.12" x="332.1675" y="127.5625">Test</text><line style="stroke:#A80036;stroke-width:0.9450000000000001;" x1="287.28" x2="371.7" y1="134.5491" y2="134.5491"/><text fill="#000000" font-family="sans-serif" font-size="6.93" lengthAdjust="spacing" textLength="17.64" x="290.43" y="144.263">-code</text><text fill="#000000" font-family="sans-serif" font-size="6.93" lengthAdjust="spacing" textLength="30.24" x="290.43" y="152.9797">-NhsCode</text><text fill="#000000" font-family="sans-serif" font-size="6.93" lengthAdjust="spacing" textLength="72.45" x="290.43" y="161.6963">-dateOfTestRegistration</text><text fill="#000000" font-family="sans-serif" font-size="6.93" lengthAdjust="spacing" textLength="78.12" x="290.43" y="170.413">-dateOfSamplesCollection</text><text fill="#000000" font-family="sans-serif" font-size="6.93" lengthAdjust="spacing" textLength="76.86" x="290.43" y="179.1296">-dateOfChemicalAnalysis</text><text fill="#000000" font-family="sans-serif" font-size="6.93" lengthAdjust="spacing" textLength="52.92" x="290.43" y="187.8462">-dateOfDiagnosis</text><!--MD5=[02e4b9b7573f1156f41e60aa5b4e25a4]
class Company--><rect codeLine="16" fill="#FEFECE" filter="url(#fu2qfh6vultwr)" height="33.9166" id="Company" style="stroke:#A80036;stroke-width:0.9450000000000001;" width="53.55" x="4.41" y="136.1241"/><ellipse cx="13.86" cy="146.2041" fill="#ADD1B2" rx="6.93" ry="6.93" style="stroke:#A80036;stroke-width:0.63;"/><path d="M15.12,143.9991 Q15.248,143.6841 15.3956,143.5266 Q15.5433,143.3691 15.7106,143.3691 Q16.0059,143.3691 16.193,143.5463 Q16.38,143.7235 16.38,144.1369 L16.38,145.1213 Q16.38,145.5347 16.2028,145.7119 Q16.0256,145.8891 15.75,145.8891 Q15.5039,145.8891 15.3464,145.7808 Q15.1889,145.6725 15.12,145.3871 Q15.0905,145.1902 14.9822,145.0819 Q14.7853,144.8752 14.4309,144.7571 Q14.0766,144.6291 13.7222,144.6291 Q13.2792,144.6291 12.9052,144.8063 Q12.5409,144.9835 12.2555,145.3772 Q11.97,145.771 11.97,146.3124 L11.97,146.8932 Q11.97,147.5429 12.5016,147.976 Q13.0331,148.4091 13.9781,148.4091 Q14.5392,148.4091 14.933,148.2811 Q15.1594,148.2122 15.4153,147.9858 Q15.5827,147.8578 15.6713,147.8185 Q15.7598,147.7791 15.8681,147.7791 Q16.0748,147.7791 16.2225,147.9464 Q16.38,148.1039 16.38,148.3304 Q16.38,148.5469 16.1634,148.8029 Q15.8484,149.1769 15.3464,149.3836 Q14.6869,149.6691 13.8797,149.6691 Q12.9347,149.6691 12.1767,149.295 Q11.5664,148.9997 11.1333,148.3599 Q10.71,147.72 10.71,146.9621 L10.71,146.273 Q10.71,145.4855 11.0841,144.7964 Q11.468,144.1074 12.1275,143.7432 Q12.7969,143.3691 13.545,143.3691 Q13.9978,143.3691 14.3916,143.5266 Q14.7853,143.6841 15.12,143.9991 Z " fill="#000000"/><text fill="#000000" font-family="sans-serif" font-size="7.56" lengthAdjust="spacing" textLength="33.39" x="22.68" y="149.2975">Company</text><line style="stroke:#A80036;stroke-width:0.9450000000000001;" x1="5.04" x2="57.33" y1="156.2841" y2="156.2841"/><text fill="#000000" font-family="sans-serif" font-size="6.93" lengthAdjust="spacing" textLength="37.17" x="8.19" y="165.998">-designation</text><!--MD5=[36afb6bbd95a8ac778c4537c55a683d5]
class ParameterCategory--><rect codeLine="20" fill="#FEFECE" filter="url(#fu2qfh6vultwr)" height="42.6333" id="ParameterCategory" style="stroke:#A80036;stroke-width:0.9450000000000001;" width="87.57" x="858.06" y="250.1541"/><ellipse cx="867.51" cy="260.2341" fill="#ADD1B2" rx="6.93" ry="6.93" style="stroke:#A80036;stroke-width:0.63;"/><path d="M868.77,258.0291 Q868.898,257.7141 869.0456,257.5566 Q869.1933,257.3991 869.3606,257.3991 Q869.6559,257.3991 869.843,257.5763 Q870.03,257.7535 870.03,258.1669 L870.03,259.1513 Q870.03,259.5647 869.8528,259.7419 Q869.6756,259.9191 869.4,259.9191 Q869.1539,259.9191 868.9964,259.8108 Q868.8389,259.7025 868.77,259.4171 Q868.7405,259.2202 868.6322,259.1119 Q868.4353,258.9052 868.0809,258.7871 Q867.7266,258.6591 867.3722,258.6591 Q866.9292,258.6591 866.5552,258.8363 Q866.1909,259.0135 865.9055,259.4072 Q865.62,259.801 865.62,260.3424 L865.62,260.9232 Q865.62,261.5729 866.1516,262.006 Q866.6831,262.4391 867.6281,262.4391 Q868.1892,262.4391 868.583,262.3111 Q868.8094,262.2422 869.0653,262.0158 Q869.2327,261.8879 869.3213,261.8485 Q869.4098,261.8091 869.5181,261.8091 Q869.7248,261.8091 869.8725,261.9764 Q870.03,262.1339 870.03,262.3604 Q870.03,262.5769 869.8134,262.8329 Q869.4984,263.2069 868.9964,263.4136 Q868.3369,263.6991 867.5297,263.6991 Q866.5847,263.6991 865.8267,263.325 Q865.2164,263.0297 864.7833,262.3899 Q864.36,261.75 864.36,260.9921 L864.36,260.303 Q864.36,259.5155 864.7341,258.8264 Q865.118,258.1374 865.7775,257.7732 Q866.4469,257.3991 867.195,257.3991 Q867.6478,257.3991 868.0416,257.5566 Q868.4353,257.7141 868.77,258.0291 Z " fill="#000000"/><text fill="#000000" font-family="sans-serif" font-size="7.56" lengthAdjust="spacing" textLength="67.41" x="876.33" y="263.3275">ParameterCategory</text><line style="stroke:#A80036;stroke-width:0.9450000000000001;" x1="858.69" x2="945" y1="270.3141" y2="270.3141"/><text fill="#000000" font-family="sans-serif" font-size="6.93" lengthAdjust="spacing" textLength="17.64" x="861.84" y="280.028">-code</text><text fill="#000000" font-family="sans-serif" font-size="6.93" lengthAdjust="spacing" textLength="18.9" x="861.84" y="288.7447">-name</text><!--MD5=[03960189e81aa2c066c762ffabbee709]
class Receptionist--><rect codeLine="25" fill="#FEFECE" filter="url(#fu2qfh6vultwr)" height="20.16" id="Receptionist" style="stroke:#A80036;stroke-width:0.9450000000000001;" width="63.63" x="120.33" y="197.2341"/><ellipse cx="129.78" cy="207.3141" fill="#ADD1B2" rx="6.93" ry="6.93" style="stroke:#A80036;stroke-width:0.63;"/><path d="M131.04,205.1091 Q131.168,204.7941 131.3156,204.6366 Q131.4633,204.4791 131.6306,204.4791 Q131.9259,204.4791 132.113,204.6563 Q132.3,204.8335 132.3,205.2469 L132.3,206.2313 Q132.3,206.6447 132.1228,206.8219 Q131.9456,206.9991 131.67,206.9991 Q131.4239,206.9991 131.2664,206.8908 Q131.1089,206.7825 131.04,206.4971 Q131.0105,206.3002 130.9022,206.1919 Q130.7053,205.9852 130.3509,205.8671 Q129.9966,205.7391 129.6422,205.7391 Q129.1992,205.7391 128.8252,205.9163 Q128.4609,206.0935 128.1755,206.4872 Q127.89,206.881 127.89,207.4224 L127.89,208.0032 Q127.89,208.6529 128.4216,209.086 Q128.9531,209.5191 129.8981,209.5191 Q130.4592,209.5191 130.853,209.3911 Q131.0794,209.3222 131.3353,209.0958 Q131.5027,208.9679 131.5913,208.9285 Q131.6798,208.8891 131.7881,208.8891 Q131.9948,208.8891 132.1425,209.0564 Q132.3,209.2139 132.3,209.4404 Q132.3,209.6569 132.0834,209.9129 Q131.7684,210.2869 131.2664,210.4936 Q130.6069,210.7791 129.7997,210.7791 Q128.8547,210.7791 128.0967,210.405 Q127.4864,210.1097 127.0533,209.4699 Q126.63,208.83 126.63,208.0721 L126.63,207.383 Q126.63,206.5955 127.0041,205.9064 Q127.388,205.2174 128.0475,204.8532 Q128.7169,204.4791 129.465,204.4791 Q129.9178,204.4791 130.3116,204.6366 Q130.7053,204.7941 131.04,205.1091 Z " fill="#000000"/><text fill="#000000" font-family="sans-serif" font-size="7.56" lengthAdjust="spacing" textLength="43.47" x="138.6" y="210.4075">Receptionist</text><!--MD5=[9681492165142af2a4a3a169d90ee8d4]
class Sample--><rect codeLine="27" fill="#FEFECE" filter="url(#fu2qfh6vultwr)" height="33.9166" id="Sample" style="stroke:#A80036;stroke-width:0.9450000000000001;" width="47.25" x="512.505" y="47.2941"/><ellipse cx="521.955" cy="57.3741" fill="#ADD1B2" rx="6.93" ry="6.93" style="stroke:#A80036;stroke-width:0.63;"/><path d="M523.215,55.1691 Q523.343,54.8541 523.4906,54.6966 Q523.6383,54.5391 523.8056,54.5391 Q524.1009,54.5391 524.288,54.7163 Q524.475,54.8935 524.475,55.3069 L524.475,56.2913 Q524.475,56.7047 524.2978,56.8819 Q524.1206,57.0591 523.845,57.0591 Q523.5989,57.0591 523.4414,56.9508 Q523.2839,56.8425 523.215,56.5571 Q523.1855,56.3602 523.0772,56.2519 Q522.8803,56.0452 522.5259,55.9271 Q522.1716,55.7991 521.8172,55.7991 Q521.3742,55.7991 521.0002,55.9763 Q520.6359,56.1535 520.3505,56.5472 Q520.065,56.941 520.065,57.4824 L520.065,58.0632 Q520.065,58.7128 520.5966,59.146 Q521.1281,59.5791 522.0731,59.5791 Q522.6342,59.5791 523.028,59.4511 Q523.2544,59.3822 523.5103,59.1558 Q523.6777,59.0278 523.7663,58.9885 Q523.8548,58.9491 523.9631,58.9491 Q524.1698,58.9491 524.3175,59.1164 Q524.475,59.2739 524.475,59.5004 Q524.475,59.7169 524.2584,59.9728 Q523.9434,60.3469 523.4414,60.5536 Q522.7819,60.8391 521.9747,60.8391 Q521.0297,60.8391 520.2717,60.465 Q519.6614,60.1697 519.2283,59.5299 Q518.805,58.89 518.805,58.1321 L518.805,57.443 Q518.805,56.6555 519.1791,55.9664 Q519.563,55.2774 520.2225,54.9132 Q520.8919,54.5391 521.64,54.5391 Q522.0928,54.5391 522.4866,54.6966 Q522.8803,54.8541 523.215,55.1691 Z " fill="#000000"/><text fill="#000000" font-family="sans-serif" font-size="7.56" lengthAdjust="spacing" textLength="27.09" x="530.775" y="60.4675">Sample</text><line style="stroke:#A80036;stroke-width:0.9450000000000001;" x1="513.135" x2="559.125" y1="67.4541" y2="67.4541"/><text fill="#000000" font-family="sans-serif" font-size="6.93" lengthAdjust="spacing" textLength="28.35" x="516.285" y="77.168">-barCode</text><!--MD5=[ed6624c6556d5e7b1bd23032162d20b7]
class Client--><rect codeLine="31" fill="#FEFECE" filter="url(#fu2qfh6vultwr)" height="94.9331" id="Client" style="stroke:#A80036;stroke-width:0.9450000000000001;" width="57.33" x="507.465" y="103.6791"/><ellipse cx="524.5695" cy="113.7591" fill="#ADD1B2" rx="6.93" ry="6.93" style="stroke:#A80036;stroke-width:0.63;"/><path d="M525.8295,111.5541 Q525.9575,111.2391 526.1051,111.0816 Q526.2528,110.9241 526.4201,110.9241 Q526.7154,110.9241 526.9025,111.1013 Q527.0895,111.2785 527.0895,111.6919 L527.0895,112.6763 Q527.0895,113.0897 526.9123,113.2669 Q526.7351,113.4441 526.4595,113.4441 Q526.2134,113.4441 526.0559,113.3358 Q525.8984,113.2275 525.8295,112.9421 Q525.8,112.7452 525.6917,112.6369 Q525.4948,112.4302 525.1404,112.3121 Q524.7861,112.1841 524.4317,112.1841 Q523.9887,112.1841 523.6147,112.3613 Q523.2504,112.5385 522.965,112.9322 Q522.6795,113.326 522.6795,113.8674 L522.6795,114.4482 Q522.6795,115.0979 523.2111,115.531 Q523.7426,115.9641 524.6876,115.9641 Q525.2487,115.9641 525.6425,115.8361 Q525.8689,115.7672 526.1248,115.5408 Q526.2922,115.4128 526.3808,115.3735 Q526.4693,115.3341 526.5776,115.3341 Q526.7843,115.3341 526.932,115.5014 Q527.0895,115.6589 527.0895,115.8854 Q527.0895,116.1019 526.8729,116.3579 Q526.5579,116.7319 526.0559,116.9386 Q525.3964,117.2241 524.5892,117.2241 Q523.6442,117.2241 522.8862,116.85 Q522.2759,116.5547 521.8428,115.9149 Q521.4195,115.275 521.4195,114.5171 L521.4195,113.828 Q521.4195,113.0405 521.7936,112.3514 Q522.1775,111.6624 522.837,111.2982 Q523.5064,110.9241 524.2545,110.9241 Q524.7073,110.9241 525.1011,111.0816 Q525.4948,111.2391 525.8295,111.5541 Z " fill="#000000"/><text fill="#000000" font-family="sans-serif" font-size="7.56" lengthAdjust="spacing" textLength="20.16" x="535.0905" y="116.8525">Client</text><line style="stroke:#A80036;stroke-width:0.9450000000000001;" x1="508.095" x2="564.165" y1="123.8391" y2="123.8391"/><text fill="#000000" font-family="sans-serif" font-size="6.93" lengthAdjust="spacing" textLength="18.9" x="511.245" y="133.553">-name</text><text fill="#000000" font-family="sans-serif" font-size="6.93" lengthAdjust="spacing" textLength="49.77" x="511.245" y="142.2697">-citizenCardNum</text><text fill="#000000" font-family="sans-serif" font-size="6.93" lengthAdjust="spacing" textLength="27.09" x="511.245" y="150.9863">-nhsNum</text><text fill="#000000" font-family="sans-serif" font-size="6.93" lengthAdjust="spacing" textLength="29.61" x="511.245" y="159.703">-birthDate</text><text fill="#000000" font-family="sans-serif" font-size="6.93" lengthAdjust="spacing" textLength="13.86" x="511.245" y="168.4196">-sex</text><text fill="#000000" font-family="sans-serif" font-size="6.93" lengthAdjust="spacing" textLength="30.24" x="511.245" y="177.1362">-taxIdNum</text><text fill="#000000" font-family="sans-serif" font-size="6.93" lengthAdjust="spacing" textLength="34.65" x="511.245" y="185.8529">-phoneNum</text><text fill="#000000" font-family="sans-serif" font-size="6.93" lengthAdjust="spacing" textLength="17.64" x="511.245" y="194.5695">-email</text><!--MD5=[0f07739f46effee96e095e9c408da841]
class TestParameter--><rect codeLine="41" fill="#FEFECE" filter="url(#fu2qfh6vultwr)" height="20.16" id="TestParameter" style="stroke:#A80036;stroke-width:0.9450000000000001;" width="71.82" x="500.22" y="221.1741"/><ellipse cx="509.67" cy="231.2541" fill="#ADD1B2" rx="6.93" ry="6.93" style="stroke:#A80036;stroke-width:0.63;"/><path d="M510.93,229.0491 Q511.058,228.7341 511.2056,228.5766 Q511.3533,228.4191 511.5206,228.4191 Q511.8159,228.4191 512.003,228.5963 Q512.19,228.7735 512.19,229.1869 L512.19,230.1713 Q512.19,230.5847 512.0128,230.7619 Q511.8356,230.9391 511.56,230.9391 Q511.3139,230.9391 511.1564,230.8308 Q510.9989,230.7225 510.93,230.4371 Q510.9005,230.2402 510.7922,230.1319 Q510.5953,229.9252 510.2409,229.8071 Q509.8866,229.6791 509.5322,229.6791 Q509.0892,229.6791 508.7152,229.8563 Q508.3509,230.0335 508.0655,230.4272 Q507.78,230.821 507.78,231.3624 L507.78,231.9432 Q507.78,232.5929 508.3116,233.026 Q508.8431,233.4591 509.7881,233.4591 Q510.3492,233.4591 510.743,233.3311 Q510.9694,233.2622 511.2253,233.0358 Q511.3927,232.9079 511.4813,232.8685 Q511.5698,232.8291 511.6781,232.8291 Q511.8848,232.8291 512.0325,232.9964 Q512.19,233.1539 512.19,233.3804 Q512.19,233.5969 511.9734,233.8529 Q511.6584,234.2269 511.1564,234.4336 Q510.4969,234.7191 509.6897,234.7191 Q508.7447,234.7191 507.9867,234.345 Q507.3764,234.0497 506.9433,233.4099 Q506.52,232.77 506.52,232.0121 L506.52,231.323 Q506.52,230.5355 506.8941,229.8464 Q507.278,229.1574 507.9375,228.7932 Q508.6069,228.4191 509.355,228.4191 Q509.8078,228.4191 510.2016,228.5766 Q510.5953,228.7341 510.93,229.0491 Z " fill="#000000"/><text fill="#000000" font-family="sans-serif" font-size="7.56" lengthAdjust="spacing" textLength="51.66" x="518.49" y="234.3475">TestParameter</text><!--MD5=[4e608140b854dae633589343bce77383]
class TestParameterResult--><rect codeLine="42" fill="#FEFECE" filter="url(#fu2qfh6vultwr)" height="51.3499" id="TestParameterResult" style="stroke:#A80036;stroke-width:0.9450000000000001;" width="94.5" x="657.72" y="204.7941"/><ellipse cx="667.17" cy="214.8741" fill="#ADD1B2" rx="6.93" ry="6.93" style="stroke:#A80036;stroke-width:0.63;"/><path d="M668.43,212.6691 Q668.558,212.3541 668.7056,212.1966 Q668.8533,212.0391 669.0206,212.0391 Q669.3159,212.0391 669.503,212.2163 Q669.69,212.3935 669.69,212.8069 L669.69,213.7913 Q669.69,214.2047 669.5128,214.3819 Q669.3356,214.5591 669.06,214.5591 Q668.8139,214.5591 668.6564,214.4508 Q668.4989,214.3425 668.43,214.0571 Q668.4005,213.8602 668.2922,213.7519 Q668.0953,213.5452 667.7409,213.4271 Q667.3866,213.2991 667.0322,213.2991 Q666.5892,213.2991 666.2152,213.4763 Q665.8509,213.6535 665.5655,214.0472 Q665.28,214.441 665.28,214.9824 L665.28,215.5632 Q665.28,216.2129 665.8116,216.646 Q666.3431,217.0791 667.2881,217.0791 Q667.8492,217.0791 668.243,216.9511 Q668.4694,216.8822 668.7253,216.6558 Q668.8927,216.5279 668.9813,216.4885 Q669.0698,216.4491 669.1781,216.4491 Q669.3848,216.4491 669.5325,216.6164 Q669.69,216.7739 669.69,217.0004 Q669.69,217.2169 669.4734,217.4729 Q669.1584,217.8469 668.6564,218.0536 Q667.9969,218.3391 667.1897,218.3391 Q666.2447,218.3391 665.4867,217.965 Q664.8764,217.6697 664.4433,217.0299 Q664.02,216.39 664.02,215.6321 L664.02,214.943 Q664.02,214.1555 664.3941,213.4664 Q664.778,212.7774 665.4375,212.4132 Q666.1069,212.0391 666.855,212.0391 Q667.3078,212.0391 667.7016,212.1966 Q668.0953,212.3541 668.43,212.6691 Z " fill="#000000"/><text fill="#000000" font-family="sans-serif" font-size="7.56" lengthAdjust="spacing" textLength="74.34" x="675.99" y="217.9675">TestParameterResult</text><line style="stroke:#A80036;stroke-width:0.9450000000000001;" x1="658.35" x2="751.59" y1="224.9541" y2="224.9541"/><text fill="#000000" font-family="sans-serif" font-size="6.93" lengthAdjust="spacing" textLength="32.76" x="661.5" y="234.668">-createdAt</text><text fill="#000000" font-family="sans-serif" font-size="6.93" lengthAdjust="spacing" textLength="18.9" x="661.5" y="243.3847">-value</text><text fill="#000000" font-family="sans-serif" font-size="6.93" lengthAdjust="spacing" textLength="20.79" x="661.5" y="252.1013">-metric</text><!--MD5=[aeb3272166074d8737a70b61b1e71682]
class TestType--><rect codeLine="47" fill="#FEFECE" filter="url(#fu2qfh6vultwr)" height="51.3499" id="TestType" style="stroke:#A80036;stroke-width:0.9450000000000001;" width="66.78" x="502.74" y="263.3841"/><ellipse cx="518.994" cy="273.4641" fill="#ADD1B2" rx="6.93" ry="6.93" style="stroke:#A80036;stroke-width:0.63;"/><path d="M520.254,271.2591 Q520.382,270.9441 520.5296,270.7866 Q520.6773,270.6291 520.8446,270.6291 Q521.1399,270.6291 521.327,270.8063 Q521.514,270.9835 521.514,271.3969 L521.514,272.3813 Q521.514,272.7947 521.3368,272.9719 Q521.1596,273.1491 520.884,273.1491 Q520.6379,273.1491 520.4804,273.0408 Q520.3229,272.9325 520.254,272.6471 Q520.2245,272.4502 520.1162,272.3419 Q519.9193,272.1352 519.5649,272.0171 Q519.2106,271.8891 518.8562,271.8891 Q518.4132,271.8891 518.0392,272.0663 Q517.6749,272.2435 517.3895,272.6372 Q517.104,273.031 517.104,273.5724 L517.104,274.1532 Q517.104,274.8029 517.6356,275.236 Q518.1671,275.6691 519.1121,275.6691 Q519.6732,275.6691 520.067,275.5411 Q520.2934,275.4722 520.5493,275.2458 Q520.7167,275.1179 520.8053,275.0785 Q520.8938,275.0391 521.0021,275.0391 Q521.2088,275.0391 521.3565,275.2064 Q521.514,275.3639 521.514,275.5904 Q521.514,275.8069 521.2974,276.0629 Q520.9824,276.4369 520.4804,276.6436 Q519.8209,276.9291 519.0137,276.9291 Q518.0687,276.9291 517.3107,276.555 Q516.7004,276.2597 516.2673,275.6199 Q515.844,274.98 515.844,274.2221 L515.844,273.533 Q515.844,272.7455 516.2181,272.0564 Q516.602,271.3674 517.2615,271.0032 Q517.9309,270.6291 518.679,270.6291 Q519.1318,270.6291 519.5256,270.7866 Q519.9193,270.9441 520.254,271.2591 Z " fill="#000000"/><text fill="#000000" font-family="sans-serif" font-size="7.56" lengthAdjust="spacing" textLength="31.5" x="529.326" y="276.5575">TestType</text><line style="stroke:#A80036;stroke-width:0.9450000000000001;" x1="503.37" x2="568.89" y1="283.5441" y2="283.5441"/><text fill="#000000" font-family="sans-serif" font-size="6.93" lengthAdjust="spacing" textLength="18.27" x="506.52" y="293.258">-Code</text><text fill="#000000" font-family="sans-serif" font-size="6.93" lengthAdjust="spacing" textLength="36.54" x="506.52" y="301.9747">-Description</text><text fill="#000000" font-family="sans-serif" font-size="6.93" lengthAdjust="spacing" textLength="59.22" x="506.52" y="310.6913">-Collecting methods</text><!--MD5=[1f6362a5c8f21d8d6a0fce68f3a92a4e]
class Parameter--><rect codeLine="53" fill="#FEFECE" filter="url(#fu2qfh6vultwr)" height="51.3499" id="Parameter" style="stroke:#A80036;stroke-width:0.9450000000000001;" width="56.7" x="676.62" y="131.0841"/><ellipse cx="686.07" cy="141.1641" fill="#ADD1B2" rx="6.93" ry="6.93" style="stroke:#A80036;stroke-width:0.63;"/><path d="M687.33,138.9591 Q687.458,138.6441 687.6056,138.4866 Q687.7533,138.3291 687.9206,138.3291 Q688.2159,138.3291 688.403,138.5063 Q688.59,138.6835 688.59,139.0969 L688.59,140.0813 Q688.59,140.4947 688.4128,140.6719 Q688.2356,140.8491 687.96,140.8491 Q687.7139,140.8491 687.5564,140.7408 Q687.3989,140.6325 687.33,140.3471 Q687.3005,140.1502 687.1922,140.0419 Q686.9953,139.8352 686.6409,139.7171 Q686.2866,139.5891 685.9322,139.5891 Q685.4892,139.5891 685.1152,139.7663 Q684.7509,139.9435 684.4655,140.3372 Q684.18,140.731 684.18,141.2724 L684.18,141.8532 Q684.18,142.5029 684.7116,142.936 Q685.2431,143.3691 686.1881,143.3691 Q686.7492,143.3691 687.143,143.2411 Q687.3694,143.1722 687.6253,142.9458 Q687.7927,142.8179 687.8813,142.7785 Q687.9698,142.7391 688.0781,142.7391 Q688.2848,142.7391 688.4325,142.9064 Q688.59,143.0639 688.59,143.2904 Q688.59,143.5069 688.3734,143.7629 Q688.0584,144.1369 687.5564,144.3436 Q686.8969,144.6291 686.0897,144.6291 Q685.1447,144.6291 684.3867,144.255 Q683.7764,143.9597 683.3433,143.3199 Q682.92,142.68 682.92,141.9221 L682.92,141.233 Q682.92,140.4455 683.2941,139.7564 Q683.678,139.0674 684.3375,138.7032 Q685.0069,138.3291 685.755,138.3291 Q686.2078,138.3291 686.6016,138.4866 Q686.9953,138.6441 687.33,138.9591 Z " fill="#000000"/><text fill="#000000" font-family="sans-serif" font-size="7.56" lengthAdjust="spacing" textLength="36.54" x="694.89" y="144.2575">Parameter</text><line style="stroke:#A80036;stroke-width:0.9450000000000001;" x1="677.25" x2="732.69" y1="151.2441" y2="151.2441"/><text fill="#000000" font-family="sans-serif" font-size="6.93" lengthAdjust="spacing" textLength="17.64" x="680.4" y="160.958">-code</text><text fill="#000000" font-family="sans-serif" font-size="6.93" lengthAdjust="spacing" textLength="35.28" x="680.4" y="169.6747">-shortName</text><text fill="#000000" font-family="sans-serif" font-size="6.93" lengthAdjust="spacing" textLength="35.91" x="680.4" y="178.3913">-description</text><!--MD5=[1934a092c0e7d4da7dc7075b6f4b6b03]
class ClinicalAnalysisLaboratory--><rect codeLine="59" fill="#FEFECE" filter="url(#fu2qfh6vultwr)" height="33.9166" id="ClinicalAnalysisLaboratory" style="stroke:#A80036;stroke-width:0.9450000000000001;" width="111.51" x="96.39" y="251.4141"/><ellipse cx="105.84" cy="261.4941" fill="#ADD1B2" rx="6.93" ry="6.93" style="stroke:#A80036;stroke-width:0.63;"/><path d="M107.1,259.2891 Q107.228,258.9741 107.3756,258.8166 Q107.5233,258.6591 107.6906,258.6591 Q107.9859,258.6591 108.173,258.8363 Q108.36,259.0135 108.36,259.4269 L108.36,260.4113 Q108.36,260.8247 108.1828,261.0019 Q108.0056,261.1791 107.73,261.1791 Q107.4839,261.1791 107.3264,261.0708 Q107.1689,260.9625 107.1,260.6771 Q107.0705,260.4802 106.9622,260.3719 Q106.7653,260.1652 106.4109,260.0471 Q106.0566,259.9191 105.7022,259.9191 Q105.2592,259.9191 104.8852,260.0963 Q104.5209,260.2735 104.2355,260.6672 Q103.95,261.061 103.95,261.6024 L103.95,262.1832 Q103.95,262.8329 104.4816,263.266 Q105.0131,263.6991 105.9581,263.6991 Q106.5192,263.6991 106.913,263.5711 Q107.1394,263.5022 107.3953,263.2758 Q107.5627,263.1479 107.6513,263.1085 Q107.7398,263.0691 107.8481,263.0691 Q108.0548,263.0691 108.2025,263.2364 Q108.36,263.3939 108.36,263.6204 Q108.36,263.8369 108.1434,264.0929 Q107.8284,264.4669 107.3264,264.6736 Q106.6669,264.9591 105.8597,264.9591 Q104.9147,264.9591 104.1567,264.585 Q103.5464,264.2897 103.1133,263.6499 Q102.69,263.01 102.69,262.2521 L102.69,261.563 Q102.69,260.7755 103.0641,260.0864 Q103.448,259.3974 104.1075,259.0332 Q104.7769,258.6591 105.525,258.6591 Q105.9778,258.6591 106.3716,258.8166 Q106.7653,258.9741 107.1,259.2891 Z " fill="#000000"/><text fill="#000000" font-family="sans-serif" font-size="7.56" lengthAdjust="spacing" textLength="91.35" x="114.66" y="264.5875">ClinicalAnalysisLaboratory</text><line style="stroke:#A80036;stroke-width:0.9450000000000001;" x1="97.02" x2="207.27" y1="271.5741" y2="271.5741"/><text fill="#000000" font-family="sans-serif" font-size="6.93" lengthAdjust="spacing" textLength="39.06" x="100.17" y="281.288">-laboratoryID</text><!--MD5=[f00dbe8c0302c6aec2cb26b3c659c8fc]
class Report--><rect fill="#FEFECE" filter="url(#fu2qfh6vultwr)" height="20.16" id="Report" style="stroke:#A80036;stroke-width:0.9450000000000001;" width="43.47" x="130.41" y="99.5841"/><ellipse cx="139.86" cy="109.6641" fill="#ADD1B2" rx="6.93" ry="6.93" style="stroke:#A80036;stroke-width:0.63;"/><path d="M141.12,107.4591 Q141.248,107.1441 141.3956,106.9866 Q141.5433,106.8291 141.7106,106.8291 Q142.0059,106.8291 142.193,107.0063 Q142.38,107.1835 142.38,107.5969 L142.38,108.5813 Q142.38,108.9947 142.2028,109.1719 Q142.0256,109.3491 141.75,109.3491 Q141.5039,109.3491 141.3464,109.2408 Q141.1889,109.1325 141.12,108.8471 Q141.0905,108.6502 140.9822,108.5419 Q140.7853,108.3352 140.4309,108.2171 Q140.0766,108.0891 139.7222,108.0891 Q139.2792,108.0891 138.9052,108.2663 Q138.5409,108.4435 138.2555,108.8372 Q137.97,109.231 137.97,109.7724 L137.97,110.3532 Q137.97,111.0029 138.5016,111.436 Q139.0331,111.8691 139.9781,111.8691 Q140.5392,111.8691 140.933,111.7411 Q141.1594,111.6722 141.4153,111.4458 Q141.5827,111.3178 141.6713,111.2785 Q141.7598,111.2391 141.8681,111.2391 Q142.0748,111.2391 142.2225,111.4064 Q142.38,111.5639 142.38,111.7903 Q142.38,112.0069 142.1634,112.2629 Q141.8484,112.6369 141.3464,112.8436 Q140.6869,113.1291 139.8797,113.1291 Q138.9347,113.1291 138.1767,112.755 Q137.5664,112.4597 137.1333,111.8199 Q136.71,111.18 136.71,110.4221 L136.71,109.733 Q136.71,108.9455 137.0841,108.2564 Q137.468,107.5674 138.1275,107.2032 Q138.7969,106.8291 139.545,106.8291 Q139.9978,106.8291 140.3916,106.9866 Q140.7853,107.1441 141.12,107.4591 Z " fill="#000000"/><text fill="#000000" font-family="sans-serif" font-size="7.56" lengthAdjust="spacing" textLength="23.31" x="148.68" y="112.7575">Report</text><!--MD5=[e981d4f96c4342412d1e68160b30cf70]
link Test to TestType--><path codeLine="63" d="M359.8245,192.0177 C369.1044,202.5576 379.9026,213.3684 391.23,221.8041 C425.817,247.5711 471.8196,266.9688 502.488,278.1891 " fill="none" id="Test-TestType" style="stroke:#A80036;stroke-width:0.63;"/><polygon fill="#000000" points="410.9363,217.8735,407.0159,213.3424,405.1014,216.5121,410.9363,217.8735" style="stroke:#000000;stroke-width:0.63;"/><text fill="#000000" font-family="sans-serif" font-size="8.19" lengthAdjust="spacing" textLength="45.36" x="413.91" y="219.596">classified as</text><text fill="#000000" font-family="sans-serif" font-size="8.19" lengthAdjust="spacing" textLength="3.15" x="359.8201" y="205.3353">*</text><text fill="#000000" font-family="sans-serif" font-size="8.19" lengthAdjust="spacing" textLength="4.41" x="493.2611" y="285.9225">1</text><!--MD5=[63d25d625ab355317a074a623d33bba8]
link Report to Test--><path codeLine="64" d="M174.0123,114.4647 C197.1207,119.7315 235.1349,128.5452 267.75,136.7541 C273.8232,138.285 280.2177,139.9419 286.4988,141.5988 " fill="none" id="Report-Test" style="stroke:#A80036;stroke-width:0.63;"/><polygon fill="#000000" points="241.2022,123.1135,236.0968,119.9774,235.2285,123.5772,241.2022,123.1135" style="stroke:#000000;stroke-width:0.63;"/><text fill="#000000" font-family="sans-serif" font-size="8.19" lengthAdjust="spacing" textLength="15.12" x="243.81" y="125.726">is of</text><text fill="#000000" font-family="sans-serif" font-size="8.19" lengthAdjust="spacing" textLength="4.41" x="178.9772" y="125.0191">1</text><text fill="#000000" font-family="sans-serif" font-size="8.19" lengthAdjust="spacing" textLength="4.41" x="277.1455" y="149.4019">1</text><!--MD5=[3994f36c72829dbcddd1cf7021dddf61]
link Test to Client--><path codeLine="65" d="M372.4245,152.7435 C412.8201,152.3718 472.5504,151.8237 507.3957,151.5024 " fill="none" id="Test-Client" style="stroke:#A80036;stroke-width:0.63;"/><polygon fill="#000000" points="410.4449,146.2859,404.7297,144.4868,404.7637,148.1897,410.4449,146.2859" style="stroke:#000000;stroke-width:0.63;"/><text fill="#000000" font-family="sans-serif" font-size="8.19" lengthAdjust="spacing" textLength="47.25" x="412.965" y="149.666">requested by</text><text fill="#000000" font-family="sans-serif" font-size="8.19" lengthAdjust="spacing" textLength="3.15" x="377.2927" y="161.7655">*</text><text fill="#000000" font-family="sans-serif" font-size="8.19" lengthAdjust="spacing" textLength="4.41" x="498.0547" y="160.8821">1</text><!--MD5=[c23963f6e403fc3ebec8dae22c30ade6]
link Test to Parameter--><path codeLine="66" d="M355.0806,114.3828 C365.0724,101.1465 377.4834,87.129 391.23,76.9041 C459.9819,25.7796 500.1948,3.78 579.6,35.9541 C626.7114,55.0431 665.847,101.4048 687.0969,130.8699 " fill="none" id="Test-Parameter" style="stroke:#A80036;stroke-width:0.63;"/><polygon fill="#000000" points="498.9561,16.0611,493.3566,13.9292,493.1729,17.6277,498.9561,16.0611" style="stroke:#000000;stroke-width:0.63;"/><text fill="#000000" font-family="sans-serif" font-size="8.19" lengthAdjust="spacing" textLength="77.49" x="501.48" y="19.256">requested analysis of</text><text fill="#000000" font-family="sans-serif" font-size="8.19" lengthAdjust="spacing" textLength="3.15" x="354.8575" y="107.4806">*</text><text fill="#000000" font-family="sans-serif" font-size="8.19" lengthAdjust="spacing" textLength="12.6" x="670.4932" y="124.1875">1..*</text><!--MD5=[e8b34c2e6517a986175307f5599f058a]
link Receptionist to Test--><path codeLine="67" d="M183.9852,201.8835 C207.3771,197.3916 240.0048,190.2348 267.75,180.8541 C273.9303,178.7625 280.3311,176.2614 286.5618,173.628 " fill="none" id="Receptionist-Test" style="stroke:#A80036;stroke-width:0.63;"/><polygon fill="#000000" points="232.9869,174.4583,227.0014,174.1866,227.9848,177.7567,232.9869,174.4583" style="stroke:#000000;stroke-width:0.63;"/><text fill="#000000" font-family="sans-serif" font-size="8.19" lengthAdjust="spacing" textLength="31.5" x="235.62" y="178.646">registers</text><text fill="#000000" font-family="sans-serif" font-size="8.19" lengthAdjust="spacing" textLength="4.41" x="188.9856" y="210.3443">1</text><text fill="#000000" font-family="sans-serif" font-size="8.19" lengthAdjust="spacing" textLength="3.15" x="278.5443" y="184.9343">*</text><!--MD5=[6df8849671cb880f6936e94aa30db6f9]
link Parameter to ParameterCategory--><path codeLine="68" d="M733.4208,173.2185 C767.8566,193.41 826.6104,227.8458 864.6624,250.1478 " fill="none" id="Parameter-ParameterCategory" style="stroke:#A80036;stroke-width:0.63;"/><polygon fill="#000000" points="776.9875,193.2678,773.0078,188.7888,771.1352,191.9835,776.9875,193.2678" style="stroke:#000000;stroke-width:0.63;"/><text fill="#000000" font-family="sans-serif" font-size="8.19" lengthAdjust="spacing" textLength="58.59" x="779.94" y="195.026">presented under</text><text fill="#000000" font-family="sans-serif" font-size="8.19" lengthAdjust="spacing" textLength="3.15" x="738.3938" y="185.2996">*</text><text fill="#000000" font-family="sans-serif" font-size="8.19" lengthAdjust="spacing" textLength="4.41" x="852.1287" y="243.1552">1</text><!--MD5=[8aaf0efd5e2f3824be7ea3e488dcc283]
link TestType to ParameterCategory--><path codeLine="69" d="M569.6145,287.7147 C611.8623,285.7806 687.5127,282.2904 752.22,279.1341 C787.8528,277.3953 828.2799,275.3415 858.0222,273.8106 " fill="none" id="TestType-ParameterCategory" style="stroke:#A80036;stroke-width:0.63;"/><polygon fill="#000000" points="676.3013,273.4232,670.5204,271.8482,670.6987,275.5469,676.3013,273.4232" style="stroke:#000000;stroke-width:0.63;"/><text fill="#000000" font-family="sans-serif" font-size="8.19" lengthAdjust="spacing" textLength="60.48" x="678.825" y="276.926">characterized by</text><text fill="#000000" font-family="sans-serif" font-size="8.19" lengthAdjust="spacing" textLength="4.41" x="574.6333" y="296.7519">1</text><text fill="#000000" font-family="sans-serif" font-size="8.19" lengthAdjust="spacing" textLength="12.6" x="840.4882" y="283.0499">1..*</text><!--MD5=[b72ac8ab7fb5921fceb5036a3902baea]
link Test to Sample--><path codeLine="70" d="M372.4245,134.8389 C414.8172,116.4996 478.4976,88.956 512.3727,74.3085 " fill="none" id="Test-Sample" style="stroke:#A80036;stroke-width:0.63;"/><polygon fill="#000000" points="419.6362,86.4744,413.671,87.0371,415.141,90.4359,419.6362,86.4744" style="stroke:#000000;stroke-width:0.63;"/><text fill="#000000" font-family="sans-serif" font-size="8.19" lengthAdjust="spacing" textLength="28.35" x="422.415" y="91.076">collects</text><text fill="#000000" font-family="sans-serif" font-size="8.19" lengthAdjust="spacing" textLength="4.41" x="377.3616" y="141.9026">1</text><text fill="#000000" font-family="sans-serif" font-size="8.19" lengthAdjust="spacing" textLength="12.6" x="494.7945" y="85.3291">1..*</text><!--MD5=[f24c888dadeb846430474fe80a58922b]
link Test to TestParameter--><path codeLine="71" d="M372.4245,169.2243 C413.406,184.8168 474.2892,207.9693 508.9014,221.1363 " fill="none" id="Test-TestParameter" style="stroke:#A80036;stroke-width:0.63;"/><polygon fill="#000000" points="397.3242,173.8947,392.6563,170.1383,391.3398,173.5994,397.3242,173.8947" style="stroke:#000000;stroke-width:0.63;"/><text fill="#000000" font-family="sans-serif" font-size="8.19" lengthAdjust="spacing" textLength="73.08" x="400.05" y="176.126">requests analysis of</text><text fill="#000000" font-family="sans-serif" font-size="8.19" lengthAdjust="spacing" textLength="4.41" x="377.3616" y="180.0489">1</text><text fill="#000000" font-family="sans-serif" font-size="8.19" lengthAdjust="spacing" textLength="12.6" x="484.7759" y="214.3858">1..*</text><!--MD5=[92e8e476cc9e9004a7125f53a120ec97]
link TestParameter to Parameter--><path codeLine="72" d="M559.5345,221.1489 C589.9635,207.6543 643.8348,183.7521 676.5948,169.2243 " fill="none" id="TestParameter-Parameter" style="stroke:#A80036;stroke-width:0.63;"/><polygon fill="#000000" points="605.1594,180.3176,599.1997,180.9357,600.7012,184.3206,605.1594,180.3176" style="stroke:#000000;stroke-width:0.63;"/><text fill="#000000" font-family="sans-serif" font-size="8.19" lengthAdjust="spacing" textLength="29.61" x="607.95" y="184.946">refers to</text><text fill="#000000" font-family="sans-serif" font-size="8.19" lengthAdjust="spacing" textLength="3.15" x="563.8884" y="214.4027">*</text><text fill="#000000" font-family="sans-serif" font-size="8.19" lengthAdjust="spacing" textLength="4.41" x="667.12" y="180.6439">1</text><!--MD5=[0e00e25ac6b8c14659aaff2cf7e5df08]
link TestParameter to TestParameterResult--><path codeLine="73" d="M572.0967,231.1218 C596.9628,231.0273 630.5166,230.9013 657.6003,230.8005 " fill="none" id="TestParameter-TestParameterResult" style="stroke:#A80036;stroke-width:0.63;"/><polygon fill="#000000" points="604.8,225.053,599.0947,223.2229,599.1086,226.9259,604.8,225.053" style="stroke:#000000;stroke-width:0.63;"/><text fill="#000000" font-family="sans-serif" font-size="8.19" lengthAdjust="spacing" textLength="30.87" x="607.32" y="228.416">contains</text><text fill="#000000" font-family="sans-serif" font-size="8.19" lengthAdjust="spacing" textLength="4.41" x="576.9874" y="240.2667">1</text><text fill="#000000" font-family="sans-serif" font-size="8.19" lengthAdjust="spacing" textLength="13.86" x="638.9042" y="239.7907">0..1</text><!--MD5=[2eb961b30663a01bbfd8b4b9b8950031]
link ClinicalAnalysisLaboratory to TestType--><path codeLine="74" d="M208.0197,271.4229 C288.855,275.814 436.8798,283.8591 502.5825,287.4249 " fill="none" id="ClinicalAnalysisLaboratory-TestType" style="stroke:#A80036;stroke-width:0.63;"/><polygon fill="#000000" points="315.3104,269.9657,309.7208,267.8078,309.5199,271.5054,315.3104,269.9657" style="stroke:#000000;stroke-width:0.63;"/><text fill="#000000" font-family="sans-serif" font-size="8.19" lengthAdjust="spacing" textLength="31.5" x="317.835" y="273.146">operates</text><text fill="#000000" font-family="sans-serif" font-size="8.19" lengthAdjust="spacing" textLength="4.41" x="213.0109" y="280.6296">1</text><text fill="#000000" font-family="sans-serif" font-size="8.19" lengthAdjust="spacing" textLength="12.6" x="485.1261" y="296.3554">1..*</text><!--MD5=[d480452e7d21fe720ba0207568bc7434]
link ClinicalAnalysisLaboratory to Test--><path codeLine="75" d="M191.4696,251.3511 C214.4709,240.4647 243.747,225.2943 267.75,208.5741 C274.9194,203.5782 282.1455,197.82 288.9873,191.9358 " fill="none" id="ClinicalAnalysisLaboratory-Test" style="stroke:#A80036;stroke-width:0.63;"/><polygon fill="#000000" points="232.64,201.3759,226.8104,202.7596,228.7371,205.922,232.64,201.3759" style="stroke:#000000;stroke-width:0.63;"/><text fill="#000000" font-family="sans-serif" font-size="8.19" lengthAdjust="spacing" textLength="31.5" x="235.62" y="206.366">performs</text><text fill="#000000" font-family="sans-serif" font-size="8.19" lengthAdjust="spacing" textLength="4.41" x="195.6435" y="244.697">1</text><text fill="#000000" font-family="sans-serif" font-size="8.19" lengthAdjust="spacing" textLength="12.6" x="270.9757" y="205.5192">1..*</text><!--MD5=[7e4bc624457760b649895ff2ead938fa]
link Company to Test--><path codeLine="76" d="M58.1742,153.1341 C109.7145,153.1341 224.2359,153.1341 286.524,153.1341 " fill="none" id="Company-Test" style="stroke:#A80036;stroke-width:0.63;"/><polygon fill="#000000" points="137.025,147.5748,131.3266,145.7233,131.3266,149.4264,137.025,147.5748" style="stroke:#000000;stroke-width:0.63;"/><text fill="#000000" font-family="sans-serif" font-size="8.19" lengthAdjust="spacing" textLength="33.39" x="139.545" y="150.926">conducts</text><text fill="#000000" font-family="sans-serif" font-size="8.19" lengthAdjust="spacing" textLength="4.41" x="63.0095" y="162.4977">1</text><text fill="#000000" font-family="sans-serif" font-size="8.19" lengthAdjust="spacing" textLength="3.15" x="278.5023" y="162.1988">*</text><!--MD5=[31482731562c0ed9c5653f34f7babef7]
@startuml

left to right direction
skinparam classAttributeIconSize 0
hide empty methods
hide empty attributes

class Test{
- code
- NhsCode
- dateOfTestRegistration
- dateOfSamplesCollection
- dateOfChemicalAnalysis
- dateOfDiagnosis
}

class Company {
-designation
}

class ParameterCategory{
  -code
  -name
}

class Receptionist{}

class Sample{
- barCode
}

class Client{
- name
- citizenCardNum
- nhsNum
- birthDate
- sex
- taxIdNum
- phoneNum
- email
}
class TestParameter{}
class TestParameterResult{
- createdAt
- value
- metric
}
class TestType{
- Code
- Description
- Collecting methods
}

class Parameter{
- code
- shortName
- description
}

class ClinicalAnalysisLaboratory{
- laboratoryID
}

Test "*" - - "1" TestType : classified as >
Report "1" - - "1" Test : is of >
Test "*" - - "1" Client : requested by >
Test "*" - - "1..*" Parameter : requested analysis of >
Receptionist "1" - - "*" Test : registers >
Parameter "*" - - "1" ParameterCategory: presented under >
TestType "1" - - "1..*" ParameterCategory : characterized by >
Test "1" - - "1..*" Sample : collects >
Test "1" - - "1..*" TestParameter : requests analysis of >
TestParameter "*" - - "1" Parameter : refers to >
TestParameter "1" - - "0..1" TestParameterResult : contains >
ClinicalAnalysisLaboratory "1" - - "1..*" TestType : operates >
ClinicalAnalysisLaboratory "1" - - "1..*" Test : performs >
Company "1" - - - "*" Test : conducts >
@enduml

PlantUML version 1.2021.00(Sun Jan 10 10:25:05 GMT 2021)
(GPL source distribution)
Java Runtime: OpenJDK Runtime Environment
JVM: OpenJDK 64-Bit Server VM
Default Encoding: Cp1252
Language: pt
Country: BR
--></g></svg>