<?xml version="1.0" encoding="UTF-8" standalone="no"?><svg xmlns="http://www.w3.org/2000/svg" xmlns:xlink="http://www.w3.org/1999/xlink" contentScriptType="application/ecmascript" contentStyleType="text/css" height="1143.9px" preserveAspectRatio="none" style="width:1629px;height:1143px;" version="1.1" viewBox="0 0 1629 1143" width="1629.36px" zoomAndPan="magnify"><defs><filter height="300%" id="f1q2knfwonbz7q" width="300%" x="-1" y="-1"><feGaussianBlur result="blurOut" stdDeviation="1.24"/><feColorMatrix in="blurOut" result="blurOut2" type="matrix" values="0 0 0 0 0 0 0 0 0 0 0 0 0 0 0 0 0 0 .4 0"/><feOffset dx="2.48" dy="2.48" in="blurOut2" result="blurOut3"/><feBlend in="SourceGraphic" in2="blurOut3" mode="normal"/></filter></defs><g><!--MD5=[9681dc6e01e10c6b4fe06895ae94f592]
cluster UI--><polygon fill="#FFFFFF" filter="url(#f1q2knfwonbz7q)" points="9.92,987.04,22.32,987.04,26.66,1001.6778,94.86,1001.6778,94.86,1049.04,9.92,1049.04,9.92,987.04" style="stroke:#000000;stroke-width:0.9299999999999999;"/><line style="stroke:#000000;stroke-width:0.9299999999999999;" x1="9.92" x2="26.66" y1="1001.6778" y2="1001.6778"/><text fill="#000000" font-family="sans-serif" font-size="8.68" font-weight="bold" lengthAdjust="spacing" textLength="8.68" x="12.4" y="997.2906">UI</text><!--MD5=[121a8bf1197281ab89ed693fab589f94]
cluster Domain--><polygon fill="#FFFFFF" filter="url(#f1q2knfwonbz7q)" points="479.57,3.72,515.53,3.72,519.87,18.3578,1618.82,18.3578,1618.82,632.4,479.57,632.4,479.57,3.72" style="stroke:#000000;stroke-width:0.9299999999999999;"/><line style="stroke:#000000;stroke-width:0.9299999999999999;" x1="479.57" x2="519.87" y1="18.3578" y2="18.3578"/><text fill="#000000" font-family="sans-serif" font-size="8.68" font-weight="bold" lengthAdjust="spacing" textLength="32.24" x="482.05" y="13.9706">Domain</text><!--MD5=[15636c1ca4a123c16a2a1a8e90aca7a9]
cluster Model--><polygon fill="#FFFFFF" filter="url(#f1q2knfwonbz7q)" points="494.45,349.06,525.45,349.06,529.79,363.6978,1603.94,363.6978,1603.94,617.52,494.45,617.52,494.45,349.06" style="stroke:#000000;stroke-width:0.9299999999999999;"/><line style="stroke:#000000;stroke-width:0.9299999999999999;" x1="494.45" x2="529.79" y1="363.6978" y2="363.6978"/><text fill="#000000" font-family="sans-serif" font-size="8.68" font-weight="bold" lengthAdjust="spacing" textLength="27.28" x="496.93" y="359.3106">Model</text><!--MD5=[8dd535d56cd4cf7faf64fdd082ba836e]
cluster Stores--><polygon fill="#FFFFFF" filter="url(#f1q2knfwonbz7q)" points="735.63,31,767.87,31,772.21,45.6378,960.69,45.6378,960.69,334.18,735.63,334.18,735.63,31" style="stroke:#000000;stroke-width:0.9299999999999999;"/><line style="stroke:#000000;stroke-width:0.9299999999999999;" x1="735.63" x2="772.21" y1="45.6378" y2="45.6378"/><text fill="#000000" font-family="sans-serif" font-size="8.68" font-weight="bold" lengthAdjust="spacing" textLength="28.52" x="738.11" y="41.2506">Stores</text><!--MD5=[1f2cfc53d9d308f53762fd0fcbaa4873]
cluster Controller--><polygon fill="#FFFFFF" filter="url(#f1q2knfwonbz7q)" points="115.32,616.9,163.06,616.9,167.4,631.5378,409.2,631.5378,409.2,722.3,115.32,722.3,115.32,616.9" style="stroke:#000000;stroke-width:0.9299999999999999;"/><line style="stroke:#000000;stroke-width:0.9299999999999999;" x1="115.32" x2="167.4" y1="631.5378" y2="631.5378"/><text fill="#000000" font-family="sans-serif" font-size="8.68" font-weight="bold" lengthAdjust="spacing" textLength="44.02" x="117.8" y="627.1506">Controller</text><!--MD5=[7b8bc9ee8bb84b99fb3a3f9477c19238]
cluster DTO--><polygon fill="#FFFFFF" filter="url(#f1q2knfwonbz7q)" points="726.64,741.52,748.34,741.52,752.68,756.1578,969.68,756.1578,969.68,1018.66,726.64,1018.66,726.64,741.52" style="stroke:#000000;stroke-width:0.9299999999999999;"/><line style="stroke:#000000;stroke-width:0.9299999999999999;" x1="726.64" x2="752.68" y1="756.1578" y2="756.1578"/><text fill="#000000" font-family="sans-serif" font-size="8.68" font-weight="bold" lengthAdjust="spacing" textLength="17.98" x="729.12" y="751.7706">DTO</text><!--MD5=[701152d03fbf85133a1de050cfdbc7fd]
cluster Mappers--><polygon fill="#FFFFFF" filter="url(#f1q2knfwonbz7q)" points="429.66,762.6,471.82,762.6,476.16,777.2378,651,777.2378,651,979.6,429.66,979.6,429.66,762.6" style="stroke:#000000;stroke-width:0.9299999999999999;"/><line style="stroke:#000000;stroke-width:0.9299999999999999;" x1="429.66" x2="476.16" y1="777.2378" y2="777.2378"/><text fill="#000000" font-family="sans-serif" font-size="8.68" font-weight="bold" lengthAdjust="spacing" textLength="38.44" x="432.14" y="772.8506">Mappers</text><!--MD5=[92f70f89e9f3cc4b172fe964212d1829]
class CreateTestUI--><rect codeLine="6" fill="#FEFECE" filter="url(#f1q2knfwonbz7q)" height="29.76" id="CreateTestUI" style="stroke:#A80036;stroke-width:0.9299999999999999;" width="65.1" x="19.84" y="1009.36"/><ellipse cx="29.14" cy="1019.28" fill="#ADD1B2" rx="6.82" ry="6.82" style="stroke:#A80036;stroke-width:0.62;"/><path d="M30.38,1017.11 Q30.5059,1016.8 30.6513,1016.645 Q30.7966,1016.49 30.9613,1016.49 Q31.2519,1016.49 31.4359,1016.6644 Q31.62,1016.8388 31.62,1017.2456 L31.62,1018.2144 Q31.62,1018.6213 31.4456,1018.7956 Q31.2713,1018.97 31,1018.97 Q30.7578,1018.97 30.6028,1018.8634 Q30.4478,1018.7569 30.38,1018.4759 Q30.3509,1018.2822 30.2444,1018.1756 Q30.0506,1017.9722 29.7019,1017.8559 Q29.3531,1017.73 29.0044,1017.73 Q28.5684,1017.73 28.2003,1017.9044 Q27.8419,1018.0788 27.5609,1018.4663 Q27.28,1018.8538 27.28,1019.3866 L27.28,1019.9581 Q27.28,1020.5975 27.8031,1021.0238 Q28.3262,1021.45 29.2563,1021.45 Q29.8084,1021.45 30.1959,1021.3241 Q30.4188,1021.2563 30.6706,1021.0334 Q30.8353,1020.9075 30.9225,1020.8688 Q31.0097,1020.83 31.1163,1020.83 Q31.3197,1020.83 31.465,1020.9947 Q31.62,1021.1497 31.62,1021.3725 Q31.62,1021.5856 31.4069,1021.8375 Q31.0969,1022.2056 30.6028,1022.4091 Q29.9538,1022.69 29.1594,1022.69 Q28.2294,1022.69 27.4834,1022.3219 Q26.8828,1022.0313 26.4566,1021.4016 Q26.04,1020.7719 26.04,1020.0259 L26.04,1019.3478 Q26.04,1018.5728 26.4081,1017.8947 Q26.7859,1017.2166 27.435,1016.8581 Q28.0938,1016.49 28.83,1016.49 Q29.2756,1016.49 29.6631,1016.645 Q30.0506,1016.8 30.38,1017.11 Z " fill="#000000"/><text fill="#000000" font-family="sans-serif" font-size="7.44" lengthAdjust="spacing" textLength="45.26" x="37.82" y="1022.3243">CreateTestUI</text><line style="stroke:#A80036;stroke-width:0.9299999999999999;" x1="20.46" x2="84.32" y1="1029.2" y2="1029.2"/><line style="stroke:#A80036;stroke-width:0.9299999999999999;" x1="20.46" x2="84.32" y1="1034.16" y2="1034.16"/><!--MD5=[f00dbe8c0302c6aec2cb26b3c659c8fc]
class Report--><rect codeLine="13" fill="#FEFECE" filter="url(#f1q2knfwonbz7q)" height="29.76" id="Report" style="stroke:#A80036;stroke-width:0.9299999999999999;" width="42.78" x="518.94" y="577.84"/><ellipse cx="528.24" cy="587.76" fill="#ADD1B2" rx="6.82" ry="6.82" style="stroke:#A80036;stroke-width:0.62;"/><path d="M529.48,585.59 Q529.6059,585.28 529.7513,585.125 Q529.8966,584.97 530.0613,584.97 Q530.3519,584.97 530.5359,585.1444 Q530.72,585.3187 530.72,585.7256 L530.72,586.6944 Q530.72,587.1012 530.5456,587.2756 Q530.3713,587.45 530.1,587.45 Q529.8578,587.45 529.7028,587.3434 Q529.5478,587.2369 529.48,586.9559 Q529.4509,586.7622 529.3444,586.6556 Q529.1506,586.4522 528.8019,586.3359 Q528.4531,586.21 528.1044,586.21 Q527.6684,586.21 527.3003,586.3844 Q526.9419,586.5587 526.6609,586.9463 Q526.38,587.3337 526.38,587.8666 L526.38,588.4381 Q526.38,589.0775 526.9031,589.5038 Q527.4263,589.93 528.3563,589.93 Q528.9084,589.93 529.2959,589.8041 Q529.5188,589.7362 529.7706,589.5134 Q529.9353,589.3875 530.0225,589.3487 Q530.1097,589.31 530.2163,589.31 Q530.4197,589.31 530.565,589.4747 Q530.72,589.6297 530.72,589.8525 Q530.72,590.0656 530.5069,590.3175 Q530.1969,590.6856 529.7028,590.8891 Q529.0538,591.17 528.2594,591.17 Q527.3294,591.17 526.5834,590.8019 Q525.9828,590.5112 525.5566,589.8816 Q525.14,589.2519 525.14,588.5059 L525.14,587.8278 Q525.14,587.0528 525.5081,586.3747 Q525.8859,585.6966 526.535,585.3381 Q527.1938,584.97 527.93,584.97 Q528.3756,584.97 528.7631,585.125 Q529.1506,585.28 529.48,585.59 Z " fill="#000000"/><text fill="#000000" font-family="sans-serif" font-size="7.44" lengthAdjust="spacing" textLength="22.94" x="536.92" y="590.8043">Report</text><line style="stroke:#A80036;stroke-width:0.9299999999999999;" x1="519.56" x2="561.1" y1="597.68" y2="597.68"/><line style="stroke:#A80036;stroke-width:0.9299999999999999;" x1="519.56" x2="561.1" y1="602.64" y2="602.64"/><!--MD5=[1934a092c0e7d4da7dc7075b6f4b6b03]
class ClinicalAnalysisLaboratory--><rect codeLine="15" fill="#FEFECE" filter="url(#f1q2knfwonbz7q)" height="38.3383" id="ClinicalAnalysisLaboratory" style="stroke:#A80036;stroke-width:0.9299999999999999;" width="109.74" x="793.29" y="425.94"/><ellipse cx="802.59" cy="435.86" fill="#ADD1B2" rx="6.82" ry="6.82" style="stroke:#A80036;stroke-width:0.62;"/><path d="M803.83,433.69 Q803.9559,433.38 804.1013,433.225 Q804.2466,433.07 804.4113,433.07 Q804.7019,433.07 804.8859,433.2444 Q805.07,433.4188 805.07,433.8256 L805.07,434.7944 Q805.07,435.2013 804.8956,435.3756 Q804.7212,435.55 804.45,435.55 Q804.2078,435.55 804.0528,435.4434 Q803.8978,435.3369 803.83,435.0559 Q803.8009,434.8622 803.6944,434.7556 Q803.5006,434.5522 803.1519,434.4359 Q802.8031,434.31 802.4544,434.31 Q802.0184,434.31 801.6503,434.4844 Q801.2919,434.6588 801.0109,435.0463 Q800.73,435.4338 800.73,435.9666 L800.73,436.5381 Q800.73,437.1775 801.2531,437.6038 Q801.7763,438.03 802.7063,438.03 Q803.2584,438.03 803.6459,437.9041 Q803.8688,437.8363 804.1206,437.6134 Q804.2853,437.4875 804.3725,437.4488 Q804.4597,437.41 804.5663,437.41 Q804.7697,437.41 804.915,437.5747 Q805.07,437.7297 805.07,437.9525 Q805.07,438.1656 804.8569,438.4175 Q804.5469,438.7856 804.0528,438.9891 Q803.4038,439.27 802.6094,439.27 Q801.6794,439.27 800.9334,438.9019 Q800.3328,438.6113 799.9066,437.9816 Q799.49,437.3519 799.49,436.6059 L799.49,435.9278 Q799.49,435.1528 799.8581,434.4747 Q800.2359,433.7966 800.885,433.4381 Q801.5438,433.07 802.28,433.07 Q802.7256,433.07 803.1131,433.225 Q803.5006,433.38 803.83,433.69 Z " fill="#000000"/><text fill="#000000" font-family="sans-serif" font-size="7.44" lengthAdjust="spacing" textLength="89.9" x="811.27" y="438.9043">ClinicalAnalysisLaboratory</text><line style="stroke:#A80036;stroke-width:0.9299999999999999;" x1="793.91" x2="902.41" y1="445.78" y2="445.78"/><text fill="#000000" font-family="sans-serif" font-size="6.82" lengthAdjust="spacing" textLength="38.44" x="797.01" y="455.3397">-laboratoryID</text><line style="stroke:#A80036;stroke-width:0.9299999999999999;" x1="793.91" x2="902.41" y1="459.3183" y2="459.3183"/><!--MD5=[0f07739f46effee96e095e9c408da841]
class TestParameter--><rect codeLine="19" fill="#FEFECE" filter="url(#f1q2knfwonbz7q)" height="38.3383" id="TestParameter" style="stroke:#A80036;stroke-width:0.9299999999999999;" width="124" x="1080.66" y="565.44"/><ellipse cx="1114.605" cy="575.36" fill="#ADD1B2" rx="6.82" ry="6.82" style="stroke:#A80036;stroke-width:0.62;"/><path d="M1115.845,573.19 Q1115.9709,572.88 1116.1163,572.725 Q1116.2616,572.57 1116.4263,572.57 Q1116.7169,572.57 1116.9009,572.7444 Q1117.085,572.9187 1117.085,573.3256 L1117.085,574.2944 Q1117.085,574.7013 1116.9106,574.8756 Q1116.7363,575.05 1116.465,575.05 Q1116.2228,575.05 1116.0678,574.9434 Q1115.9128,574.8369 1115.845,574.5559 Q1115.8159,574.3622 1115.7094,574.2556 Q1115.5156,574.0522 1115.1669,573.9359 Q1114.8181,573.81 1114.4694,573.81 Q1114.0334,573.81 1113.6653,573.9844 Q1113.3069,574.1587 1113.0259,574.5462 Q1112.745,574.9337 1112.745,575.4666 L1112.745,576.0381 Q1112.745,576.6775 1113.2681,577.1037 Q1113.7913,577.53 1114.7213,577.53 Q1115.2734,577.53 1115.6609,577.4041 Q1115.8838,577.3363 1116.1356,577.1134 Q1116.3003,576.9875 1116.3875,576.9487 Q1116.4747,576.91 1116.5813,576.91 Q1116.7847,576.91 1116.93,577.0747 Q1117.085,577.2297 1117.085,577.4525 Q1117.085,577.6656 1116.8719,577.9175 Q1116.5619,578.2856 1116.0678,578.4891 Q1115.4188,578.77 1114.6244,578.77 Q1113.6944,578.77 1112.9484,578.4019 Q1112.3478,578.1112 1111.9216,577.4816 Q1111.505,576.8519 1111.505,576.1059 L1111.505,575.4278 Q1111.505,574.6528 1111.8731,573.9747 Q1112.2509,573.2966 1112.9,572.9381 Q1113.5588,572.57 1114.295,572.57 Q1114.7406,572.57 1115.1281,572.725 Q1115.5156,572.88 1115.845,573.19 Z " fill="#000000"/><text fill="#000000" font-family="sans-serif" font-size="7.44" lengthAdjust="spacing" textLength="50.84" x="1127.315" y="578.4043">TestParameter</text><line style="stroke:#A80036;stroke-width:0.9299999999999999;" x1="1081.28" x2="1204.04" y1="585.28" y2="585.28"/><line style="stroke:#A80036;stroke-width:0.9299999999999999;" x1="1081.28" x2="1204.04" y1="590.24" y2="590.24"/><text fill="#000000" font-family="sans-serif" font-size="6.82" lengthAdjust="spacing" textLength="116.56" x="1084.38" y="599.7997">+TestParameter(parameter: Parameter)</text><!--MD5=[4e608140b854dae633589343bce77383]
class TestParameterResult--><rect codeLine="22" fill="#FEFECE" filter="url(#f1q2knfwonbz7q)" height="55.4948" id="TestParameterResult" style="stroke:#A80036;stroke-width:0.9299999999999999;" width="93" x="1310.68" y="551.8"/><ellipse cx="1319.98" cy="561.72" fill="#ADD1B2" rx="6.82" ry="6.82" style="stroke:#A80036;stroke-width:0.62;"/><path d="M1321.22,559.55 Q1321.3459,559.24 1321.4913,559.085 Q1321.6366,558.93 1321.8013,558.93 Q1322.0919,558.93 1322.2759,559.1044 Q1322.46,559.2788 1322.46,559.6856 L1322.46,560.6544 Q1322.46,561.0613 1322.2856,561.2356 Q1322.1113,561.41 1321.84,561.41 Q1321.5978,561.41 1321.4428,561.3034 Q1321.2878,561.1969 1321.22,560.9159 Q1321.1909,560.7222 1321.0844,560.6156 Q1320.8906,560.4122 1320.5419,560.2959 Q1320.1931,560.17 1319.8444,560.17 Q1319.4084,560.17 1319.0403,560.3444 Q1318.6819,560.5188 1318.4009,560.9062 Q1318.12,561.2937 1318.12,561.8266 L1318.12,562.3981 Q1318.12,563.0375 1318.6431,563.4637 Q1319.1663,563.89 1320.0963,563.89 Q1320.6484,563.89 1321.0359,563.7641 Q1321.2588,563.6963 1321.5106,563.4734 Q1321.6753,563.3475 1321.7625,563.3087 Q1321.8497,563.27 1321.9563,563.27 Q1322.1597,563.27 1322.305,563.4347 Q1322.46,563.5897 1322.46,563.8125 Q1322.46,564.0256 1322.2469,564.2775 Q1321.9369,564.6456 1321.4428,564.8491 Q1320.7938,565.13 1319.9994,565.13 Q1319.0694,565.13 1318.3234,564.7619 Q1317.7228,564.4712 1317.2966,563.8416 Q1316.88,563.2119 1316.88,562.4659 L1316.88,561.7878 Q1316.88,561.0128 1317.2481,560.3347 Q1317.6259,559.6566 1318.275,559.2981 Q1318.9338,558.93 1319.67,558.93 Q1320.1156,558.93 1320.5031,559.085 Q1320.8906,559.24 1321.22,559.55 Z " fill="#000000"/><text fill="#000000" font-family="sans-serif" font-size="7.44" lengthAdjust="spacing" textLength="73.16" x="1328.66" y="564.7643">TestParameterResult</text><line style="stroke:#A80036;stroke-width:0.9299999999999999;" x1="1311.3" x2="1403.06" y1="571.64" y2="571.64"/><text fill="#000000" font-family="sans-serif" font-size="6.82" lengthAdjust="spacing" textLength="32.24" x="1314.4" y="581.1997">-createdAt</text><text fill="#000000" font-family="sans-serif" font-size="6.82" lengthAdjust="spacing" textLength="18.6" x="1314.4" y="589.778">-value</text><text fill="#000000" font-family="sans-serif" font-size="6.82" lengthAdjust="spacing" textLength="20.46" x="1314.4" y="598.3563">-metric</text><line style="stroke:#A80036;stroke-width:0.9299999999999999;" x1="1311.3" x2="1403.06" y1="602.3348" y2="602.3348"/><!--MD5=[aeb3272166074d8737a70b61b1e71682]
class TestType--><rect codeLine="27" fill="#FEFECE" filter="url(#f1q2knfwonbz7q)" height="55.4948" id="TestType" style="stroke:#A80036;stroke-width:0.9299999999999999;" width="82.46" x="1101.43" y="399.9"/><ellipse cx="1124.959" cy="409.82" fill="#ADD1B2" rx="6.82" ry="6.82" style="stroke:#A80036;stroke-width:0.62;"/><path d="M1126.199,407.65 Q1126.3249,407.34 1126.4703,407.185 Q1126.6156,407.03 1126.7803,407.03 Q1127.0709,407.03 1127.2549,407.2044 Q1127.439,407.3788 1127.439,407.7856 L1127.439,408.7544 Q1127.439,409.1613 1127.2646,409.3356 Q1127.0903,409.51 1126.819,409.51 Q1126.5768,409.51 1126.4218,409.4034 Q1126.2668,409.2969 1126.199,409.0159 Q1126.1699,408.8222 1126.0634,408.7156 Q1125.8696,408.5122 1125.5209,408.3959 Q1125.1721,408.27 1124.8234,408.27 Q1124.3874,408.27 1124.0193,408.4444 Q1123.6609,408.6188 1123.3799,409.0063 Q1123.099,409.3938 1123.099,409.9266 L1123.099,410.4981 Q1123.099,411.1375 1123.6221,411.5637 Q1124.1453,411.99 1125.0753,411.99 Q1125.6274,411.99 1126.0149,411.8641 Q1126.2378,411.7963 1126.4896,411.5734 Q1126.6543,411.4475 1126.7415,411.4088 Q1126.8287,411.37 1126.9353,411.37 Q1127.1387,411.37 1127.284,411.5347 Q1127.439,411.6897 1127.439,411.9125 Q1127.439,412.1256 1127.2259,412.3775 Q1126.9159,412.7456 1126.4218,412.9491 Q1125.7728,413.23 1124.9784,413.23 Q1124.0484,413.23 1123.3024,412.8619 Q1122.7018,412.5713 1122.2756,411.9416 Q1121.859,411.3119 1121.859,410.5659 L1121.859,409.8878 Q1121.859,409.1128 1122.2271,408.4347 Q1122.6049,407.7566 1123.254,407.3981 Q1123.9128,407.03 1124.649,407.03 Q1125.0946,407.03 1125.4821,407.185 Q1125.8696,407.34 1126.199,407.65 Z " fill="#000000"/><text fill="#000000" font-family="sans-serif" font-size="7.44" lengthAdjust="spacing" textLength="31" x="1136.801" y="412.8643">TestType</text><line style="stroke:#A80036;stroke-width:0.9299999999999999;" x1="1102.05" x2="1183.27" y1="419.74" y2="419.74"/><text fill="#000000" font-family="sans-serif" font-size="6.82" lengthAdjust="spacing" textLength="40.3" x="1105.15" y="429.2997">-code : String</text><text fill="#000000" font-family="sans-serif" font-size="6.82" lengthAdjust="spacing" textLength="58.28" x="1105.15" y="437.878">-description : String</text><text fill="#000000" font-family="sans-serif" font-size="6.82" lengthAdjust="spacing" textLength="75.02" x="1105.15" y="446.4563">-collectingMethod : String</text><line style="stroke:#A80036;stroke-width:0.9299999999999999;" x1="1102.05" x2="1183.27" y1="450.4348" y2="450.4348"/><!--MD5=[df38be88ccee13e832d6fafd6288a4ca]
class Test--><rect codeLine="33" fill="#FEFECE" filter="url(#f1q2knfwonbz7q)" height="81.2297" id="Test" style="stroke:#A80036;stroke-width:0.9299999999999999;" width="84.32" x="806" y="526.07"/><ellipse cx="838.085" cy="535.99" fill="#ADD1B2" rx="6.82" ry="6.82" style="stroke:#A80036;stroke-width:0.62;"/><path d="M839.325,533.82 Q839.4509,533.51 839.5962,533.355 Q839.7416,533.2 839.9063,533.2 Q840.1969,533.2 840.3809,533.3744 Q840.565,533.5487 840.565,533.9556 L840.565,534.9244 Q840.565,535.3313 840.3906,535.5056 Q840.2163,535.68 839.945,535.68 Q839.7028,535.68 839.5478,535.5734 Q839.3928,535.4669 839.325,535.1859 Q839.2959,534.9922 839.1894,534.8856 Q838.9956,534.6822 838.6469,534.5659 Q838.2981,534.44 837.9494,534.44 Q837.5134,534.44 837.1453,534.6144 Q836.7869,534.7887 836.5059,535.1763 Q836.225,535.5637 836.225,536.0966 L836.225,536.6681 Q836.225,537.3075 836.7481,537.7337 Q837.2713,538.16 838.2013,538.16 Q838.7534,538.16 839.1409,538.0341 Q839.3638,537.9663 839.6156,537.7434 Q839.7803,537.6175 839.8675,537.5787 Q839.9547,537.54 840.0613,537.54 Q840.2647,537.54 840.41,537.7047 Q840.565,537.8597 840.565,538.0825 Q840.565,538.2956 840.3519,538.5475 Q840.0419,538.9156 839.5478,539.1191 Q838.8988,539.4 838.1044,539.4 Q837.1744,539.4 836.4284,539.0319 Q835.8278,538.7412 835.4016,538.1116 Q834.985,537.4819 834.985,536.7359 L834.985,536.0578 Q834.985,535.2828 835.3531,534.6047 Q835.7309,533.9266 836.38,533.5681 Q837.0388,533.2 837.775,533.2 Q838.2206,533.2 838.6081,533.355 Q838.9956,533.51 839.325,533.82 Z " fill="#000000"/><text fill="#000000" font-family="sans-serif" font-size="7.44" lengthAdjust="spacing" textLength="14.88" x="850.795" y="539.0343">Test</text><line style="stroke:#A80036;stroke-width:0.9299999999999999;" x1="806.62" x2="889.7" y1="545.91" y2="545.91"/><text fill="#000000" font-family="sans-serif" font-size="6.82" lengthAdjust="spacing" textLength="17.36" x="809.72" y="555.4697">-code</text><text fill="#000000" font-family="sans-serif" font-size="6.82" lengthAdjust="spacing" textLength="29.76" x="809.72" y="564.048">-NhsCode</text><text fill="#000000" font-family="sans-serif" font-size="6.82" lengthAdjust="spacing" textLength="71.3" x="809.72" y="572.6263">-dateOfTestRegistration</text><text fill="#000000" font-family="sans-serif" font-size="6.82" lengthAdjust="spacing" textLength="76.88" x="809.72" y="581.2046">-dateOfSamplesCollection</text><text fill="#000000" font-family="sans-serif" font-size="6.82" lengthAdjust="spacing" textLength="75.64" x="809.72" y="589.7829">-dateOfChemicalAnalysis</text><text fill="#000000" font-family="sans-serif" font-size="6.82" lengthAdjust="spacing" textLength="52.08" x="809.72" y="598.3612">-dateOfDiagnosis</text><line style="stroke:#A80036;stroke-width:0.9299999999999999;" x1="806.62" x2="889.7" y1="602.3397" y2="602.3397"/><!--MD5=[9681492165142af2a4a3a169d90ee8d4]
class Sample--><rect codeLine="42" fill="#FEFECE" filter="url(#f1q2knfwonbz7q)" height="38.3383" id="Sample" style="stroke:#A80036;stroke-width:0.9299999999999999;" width="46.5" x="1119.41" y="505.3"/><ellipse cx="1128.71" cy="515.22" fill="#ADD1B2" rx="6.82" ry="6.82" style="stroke:#A80036;stroke-width:0.62;"/><path d="M1129.95,513.05 Q1130.0759,512.74 1130.2213,512.585 Q1130.3666,512.43 1130.5313,512.43 Q1130.8219,512.43 1131.0059,512.6044 Q1131.19,512.7788 1131.19,513.1856 L1131.19,514.1544 Q1131.19,514.5613 1131.0156,514.7356 Q1130.8413,514.91 1130.57,514.91 Q1130.3278,514.91 1130.1728,514.8034 Q1130.0178,514.6969 1129.95,514.4159 Q1129.9209,514.2222 1129.8144,514.1156 Q1129.6206,513.9122 1129.2719,513.7959 Q1128.9231,513.67 1128.5744,513.67 Q1128.1384,513.67 1127.7703,513.8444 Q1127.4119,514.0188 1127.1309,514.4062 Q1126.85,514.7937 1126.85,515.3266 L1126.85,515.8981 Q1126.85,516.5375 1127.3731,516.9637 Q1127.8963,517.39 1128.8263,517.39 Q1129.3784,517.39 1129.7659,517.2641 Q1129.9888,517.1963 1130.2406,516.9734 Q1130.4053,516.8475 1130.4925,516.8087 Q1130.5797,516.77 1130.6863,516.77 Q1130.8897,516.77 1131.035,516.9347 Q1131.19,517.0897 1131.19,517.3125 Q1131.19,517.5256 1130.9769,517.7775 Q1130.6669,518.1456 1130.1728,518.3491 Q1129.5238,518.63 1128.7294,518.63 Q1127.7994,518.63 1127.0534,518.2619 Q1126.4528,517.9712 1126.0266,517.3416 Q1125.61,516.7119 1125.61,515.9659 L1125.61,515.2878 Q1125.61,514.5128 1125.9781,513.8347 Q1126.3559,513.1566 1127.005,512.7981 Q1127.6638,512.43 1128.4,512.43 Q1128.8456,512.43 1129.2331,512.585 Q1129.6206,512.74 1129.95,513.05 Z " fill="#000000"/><text fill="#000000" font-family="sans-serif" font-size="7.44" lengthAdjust="spacing" textLength="26.66" x="1137.39" y="518.2643">Sample</text><line style="stroke:#A80036;stroke-width:0.9299999999999999;" x1="1120.03" x2="1165.29" y1="525.14" y2="525.14"/><text fill="#000000" font-family="sans-serif" font-size="6.82" lengthAdjust="spacing" textLength="27.9" x="1123.13" y="534.6997">-barCode</text><line style="stroke:#A80036;stroke-width:0.9299999999999999;" x1="1120.03" x2="1165.29" y1="538.6783" y2="538.6783"/><!--MD5=[1f6362a5c8f21d8d6a0fce68f3a92a4e]
class Parameter--><rect codeLine="46" fill="#FEFECE" filter="url(#f1q2knfwonbz7q)" height="55.4948" id="Parameter" style="stroke:#A80036;stroke-width:0.9299999999999999;" width="55.8" x="1329.28" y="471.2"/><ellipse cx="1338.58" cy="481.12" fill="#ADD1B2" rx="6.82" ry="6.82" style="stroke:#A80036;stroke-width:0.62;"/><path d="M1339.82,478.95 Q1339.9459,478.64 1340.0913,478.485 Q1340.2366,478.33 1340.4013,478.33 Q1340.6919,478.33 1340.8759,478.5044 Q1341.06,478.6788 1341.06,479.0856 L1341.06,480.0544 Q1341.06,480.4613 1340.8856,480.6356 Q1340.7113,480.81 1340.44,480.81 Q1340.1978,480.81 1340.0428,480.7034 Q1339.8878,480.5969 1339.82,480.3159 Q1339.7909,480.1222 1339.6844,480.0156 Q1339.4906,479.8122 1339.1419,479.6959 Q1338.7931,479.57 1338.4444,479.57 Q1338.0084,479.57 1337.6403,479.7444 Q1337.2819,479.9188 1337.0009,480.3063 Q1336.72,480.6938 1336.72,481.2266 L1336.72,481.7981 Q1336.72,482.4375 1337.2431,482.8638 Q1337.7663,483.29 1338.6963,483.29 Q1339.2484,483.29 1339.6359,483.1641 Q1339.8588,483.0963 1340.1106,482.8734 Q1340.2753,482.7475 1340.3625,482.7088 Q1340.4497,482.67 1340.5563,482.67 Q1340.7597,482.67 1340.905,482.8347 Q1341.06,482.9897 1341.06,483.2125 Q1341.06,483.4256 1340.8469,483.6775 Q1340.5369,484.0456 1340.0428,484.2491 Q1339.3938,484.53 1338.5994,484.53 Q1337.6694,484.53 1336.9234,484.1619 Q1336.3228,483.8713 1335.8966,483.2416 Q1335.48,482.6119 1335.48,481.8659 L1335.48,481.1878 Q1335.48,480.4128 1335.8481,479.7347 Q1336.2259,479.0566 1336.875,478.6981 Q1337.5338,478.33 1338.27,478.33 Q1338.7156,478.33 1339.1031,478.485 Q1339.4906,478.64 1339.82,478.95 Z " fill="#000000"/><text fill="#000000" font-family="sans-serif" font-size="7.44" lengthAdjust="spacing" textLength="35.96" x="1347.26" y="484.1643">Parameter</text><line style="stroke:#A80036;stroke-width:0.9299999999999999;" x1="1329.9" x2="1384.46" y1="491.04" y2="491.04"/><text fill="#000000" font-family="sans-serif" font-size="6.82" lengthAdjust="spacing" textLength="17.36" x="1333" y="500.5997">-code</text><text fill="#000000" font-family="sans-serif" font-size="6.82" lengthAdjust="spacing" textLength="34.72" x="1333" y="509.178">-shortName</text><text fill="#000000" font-family="sans-serif" font-size="6.82" lengthAdjust="spacing" textLength="35.34" x="1333" y="517.7563">-description</text><line style="stroke:#A80036;stroke-width:0.9299999999999999;" x1="1329.9" x2="1384.46" y1="521.7348" y2="521.7348"/><!--MD5=[02e4b9b7573f1156f41e60aa5b4e25a4]
class Company--><rect codeLine="52" fill="#FEFECE" filter="url(#f1q2knfwonbz7q)" height="64.0731" id="Company" style="stroke:#A80036;stroke-width:0.9299999999999999;" width="71.92" x="504.37" y="371.69"/><ellipse cx="522.319" cy="381.61" fill="#ADD1B2" rx="6.82" ry="6.82" style="stroke:#A80036;stroke-width:0.62;"/><path d="M523.559,379.44 Q523.6849,379.13 523.8303,378.975 Q523.9756,378.82 524.1403,378.82 Q524.4309,378.82 524.6149,378.9944 Q524.799,379.1688 524.799,379.5756 L524.799,380.5444 Q524.799,380.9513 524.6246,381.1256 Q524.4503,381.3 524.179,381.3 Q523.9368,381.3 523.7818,381.1934 Q523.6268,381.0869 523.559,380.8059 Q523.5299,380.6122 523.4234,380.5056 Q523.2296,380.3022 522.8809,380.1859 Q522.5321,380.06 522.1834,380.06 Q521.7474,380.06 521.3793,380.2344 Q521.0209,380.4088 520.7399,380.7963 Q520.459,381.1838 520.459,381.7166 L520.459,382.2881 Q520.459,382.9275 520.9821,383.3538 Q521.5053,383.78 522.4353,383.78 Q522.9874,383.78 523.3749,383.6541 Q523.5978,383.5863 523.8496,383.3634 Q524.0143,383.2375 524.1015,383.1988 Q524.1887,383.16 524.2953,383.16 Q524.4987,383.16 524.644,383.3247 Q524.799,383.4797 524.799,383.7025 Q524.799,383.9156 524.5859,384.1675 Q524.2759,384.5356 523.7818,384.7391 Q523.1328,385.02 522.3384,385.02 Q521.4084,385.02 520.6624,384.6519 Q520.0618,384.3613 519.6356,383.7316 Q519.219,383.1019 519.219,382.3559 L519.219,381.6778 Q519.219,380.9028 519.5871,380.2247 Q519.9649,379.5466 520.614,379.1881 Q521.2728,378.82 522.009,378.82 Q522.4546,378.82 522.8421,378.975 Q523.2296,379.13 523.559,379.44 Z " fill="#000000"/><text fill="#000000" font-family="sans-serif" font-size="7.44" lengthAdjust="spacing" textLength="32.86" x="532.921" y="384.6543">Company</text><line style="stroke:#A80036;stroke-width:0.9299999999999999;" x1="504.99" x2="575.67" y1="391.53" y2="391.53"/><text fill="#000000" font-family="sans-serif" font-size="6.82" lengthAdjust="spacing" textLength="59.52" x="508.09" y="401.0897">-designation : String</text><line style="stroke:#A80036;stroke-width:0.9299999999999999;" x1="504.99" x2="575.67" y1="405.0683" y2="405.0683"/><text fill="#000000" font-family="sans-serif" font-size="6.82" lengthAdjust="spacing" textLength="62" x="508.09" y="414.628">+getTestTypeStore()</text><text fill="#000000" font-family="sans-serif" font-size="6.82" lengthAdjust="spacing" textLength="64.48" x="508.09" y="423.2063">+getParameterStore()</text><text fill="#000000" font-family="sans-serif" font-size="6.82" lengthAdjust="spacing" textLength="47.12" x="508.09" y="431.7846">+getTestStore()</text><!--MD5=[36afb6bbd95a8ac778c4537c55a683d5]
class ParameterCategory--><rect codeLine="59" fill="#FEFECE" filter="url(#f1q2knfwonbz7q)" height="46.9166" id="ParameterCategory" style="stroke:#A80036;stroke-width:0.9299999999999999;" width="86.18" x="1507.84" y="475.54"/><ellipse cx="1517.14" cy="485.46" fill="#ADD1B2" rx="6.82" ry="6.82" style="stroke:#A80036;stroke-width:0.62;"/><path d="M1518.38,483.29 Q1518.5059,482.98 1518.6513,482.825 Q1518.7966,482.67 1518.9613,482.67 Q1519.2519,482.67 1519.4359,482.8444 Q1519.62,483.0188 1519.62,483.4256 L1519.62,484.3944 Q1519.62,484.8013 1519.4456,484.9756 Q1519.2713,485.15 1519,485.15 Q1518.7578,485.15 1518.6028,485.0434 Q1518.4478,484.9369 1518.38,484.6559 Q1518.3509,484.4622 1518.2444,484.3556 Q1518.0506,484.1522 1517.7019,484.0359 Q1517.3531,483.91 1517.0044,483.91 Q1516.5684,483.91 1516.2003,484.0844 Q1515.8419,484.2588 1515.5609,484.6463 Q1515.28,485.0338 1515.28,485.5666 L1515.28,486.1381 Q1515.28,486.7775 1515.8031,487.2038 Q1516.3263,487.63 1517.2563,487.63 Q1517.8084,487.63 1518.1959,487.5041 Q1518.4188,487.4363 1518.6706,487.2134 Q1518.8353,487.0875 1518.9225,487.0488 Q1519.0097,487.01 1519.1163,487.01 Q1519.3197,487.01 1519.465,487.1747 Q1519.62,487.3297 1519.62,487.5525 Q1519.62,487.7656 1519.4069,488.0175 Q1519.0969,488.3856 1518.6028,488.5891 Q1517.9538,488.87 1517.1594,488.87 Q1516.2294,488.87 1515.4834,488.5019 Q1514.8828,488.2113 1514.4566,487.5816 Q1514.04,486.9519 1514.04,486.2059 L1514.04,485.5278 Q1514.04,484.7528 1514.4081,484.0747 Q1514.7859,483.3966 1515.435,483.0381 Q1516.0938,482.67 1516.83,482.67 Q1517.2756,482.67 1517.6631,482.825 Q1518.0506,482.98 1518.38,483.29 Z " fill="#000000"/><text fill="#000000" font-family="sans-serif" font-size="7.44" lengthAdjust="spacing" textLength="66.34" x="1525.82" y="488.5043">ParameterCategory</text><line style="stroke:#A80036;stroke-width:0.9299999999999999;" x1="1508.46" x2="1593.4" y1="495.38" y2="495.38"/><text fill="#000000" font-family="sans-serif" font-size="6.82" lengthAdjust="spacing" textLength="17.36" x="1511.56" y="504.9397">-code</text><text fill="#000000" font-family="sans-serif" font-size="6.82" lengthAdjust="spacing" textLength="18.6" x="1511.56" y="513.518">-name</text><line style="stroke:#A80036;stroke-width:0.9299999999999999;" x1="1508.46" x2="1593.4" y1="517.4966" y2="517.4966"/><!--MD5=[ed6624c6556d5e7b1bd23032162d20b7]
class Client--><rect codeLine="63" fill="#FEFECE" filter="url(#f1q2knfwonbz7q)" height="98.3863" id="Client" style="stroke:#A80036;stroke-width:0.9299999999999999;" width="56.42" x="512.12" y="457.25"/><ellipse cx="528.953" cy="467.17" fill="#ADD1B2" rx="6.82" ry="6.82" style="stroke:#A80036;stroke-width:0.62;"/><path d="M530.193,465 Q530.3189,464.69 530.4643,464.535 Q530.6096,464.38 530.7742,464.38 Q531.0649,464.38 531.2489,464.5544 Q531.433,464.7288 531.433,465.1356 L531.433,466.1044 Q531.433,466.5113 531.2586,466.6856 Q531.0843,466.86 530.813,466.86 Q530.5708,466.86 530.4158,466.7534 Q530.2608,466.6469 530.193,466.3659 Q530.1639,466.1722 530.0574,466.0656 Q529.8636,465.8622 529.5149,465.7459 Q529.1661,465.62 528.8174,465.62 Q528.3814,465.62 528.0133,465.7944 Q527.6549,465.9688 527.3739,466.3563 Q527.093,466.7438 527.093,467.2766 L527.093,467.8481 Q527.093,468.4875 527.6161,468.9138 Q528.1393,469.34 529.0693,469.34 Q529.6214,469.34 530.0089,469.2141 Q530.2318,469.1463 530.4836,468.9234 Q530.6483,468.7975 530.7355,468.7588 Q530.8227,468.72 530.9293,468.72 Q531.1327,468.72 531.278,468.8847 Q531.433,469.0397 531.433,469.2625 Q531.433,469.4756 531.2199,469.7275 Q530.9099,470.0956 530.4158,470.2991 Q529.7668,470.58 528.9724,470.58 Q528.0424,470.58 527.2964,470.2119 Q526.6958,469.9213 526.2696,469.2916 Q525.853,468.6619 525.853,467.9159 L525.853,467.2378 Q525.853,466.4628 526.2211,465.7847 Q526.5989,465.1066 527.248,464.7481 Q527.9068,464.38 528.643,464.38 Q529.0886,464.38 529.4761,464.535 Q529.8636,464.69 530.193,465 Z " fill="#000000"/><text fill="#000000" font-family="sans-serif" font-size="7.44" lengthAdjust="spacing" textLength="19.84" x="539.307" y="470.2143">Client</text><line style="stroke:#A80036;stroke-width:0.9299999999999999;" x1="512.74" x2="567.92" y1="477.09" y2="477.09"/><text fill="#000000" font-family="sans-serif" font-size="6.82" lengthAdjust="spacing" textLength="18.6" x="515.84" y="486.6497">-name</text><text fill="#000000" font-family="sans-serif" font-size="6.82" lengthAdjust="spacing" textLength="48.98" x="515.84" y="495.228">-citizenCardNum</text><text fill="#000000" font-family="sans-serif" font-size="6.82" lengthAdjust="spacing" textLength="26.66" x="515.84" y="503.8063">-nhsNum</text><text fill="#000000" font-family="sans-serif" font-size="6.82" lengthAdjust="spacing" textLength="29.14" x="515.84" y="512.3846">-birthDate</text><text fill="#000000" font-family="sans-serif" font-size="6.82" lengthAdjust="spacing" textLength="13.64" x="515.84" y="520.9629">-sex</text><text fill="#000000" font-family="sans-serif" font-size="6.82" lengthAdjust="spacing" textLength="29.76" x="515.84" y="529.5412">-taxIdNum</text><text fill="#000000" font-family="sans-serif" font-size="6.82" lengthAdjust="spacing" textLength="34.1" x="515.84" y="538.1194">-phoneNum</text><text fill="#000000" font-family="sans-serif" font-size="6.82" lengthAdjust="spacing" textLength="17.36" x="515.84" y="546.6977">-email</text><line style="stroke:#A80036;stroke-width:0.9299999999999999;" x1="512.74" x2="567.92" y1="550.6763" y2="550.6763"/><!--MD5=[be7802b157a16874d39c59ca0e2b25be]
class ParameterStore--><rect codeLine="76" fill="#FEFECE" filter="url(#f1q2knfwonbz7q)" height="46.9166" id="ParameterStore" style="stroke:#A80036;stroke-width:0.9299999999999999;" width="202.12" x="747.1" y="53.32"/><ellipse cx="818.555" cy="63.24" fill="#ADD1B2" rx="6.82" ry="6.82" style="stroke:#A80036;stroke-width:0.62;"/><path d="M819.795,61.07 Q819.9209,60.76 820.0663,60.605 Q820.2116,60.45 820.3763,60.45 Q820.6669,60.45 820.8509,60.6244 Q821.035,60.7988 821.035,61.2056 L821.035,62.1744 Q821.035,62.5813 820.8606,62.7556 Q820.6863,62.93 820.415,62.93 Q820.1728,62.93 820.0178,62.8234 Q819.8628,62.7169 819.795,62.4359 Q819.7659,62.2422 819.6594,62.1356 Q819.4656,61.9322 819.1169,61.8159 Q818.7681,61.69 818.4194,61.69 Q817.9834,61.69 817.6153,61.8644 Q817.2569,62.0388 816.9759,62.4262 Q816.695,62.8138 816.695,63.3466 L816.695,63.9181 Q816.695,64.5575 817.2181,64.9838 Q817.7413,65.41 818.6713,65.41 Q819.2234,65.41 819.6109,65.2841 Q819.8338,65.2163 820.0856,64.9934 Q820.2503,64.8675 820.3375,64.8288 Q820.4247,64.79 820.5313,64.79 Q820.7347,64.79 820.88,64.9547 Q821.035,65.1097 821.035,65.3325 Q821.035,65.5456 820.8219,65.7975 Q820.5119,66.1656 820.0178,66.3691 Q819.3688,66.65 818.5744,66.65 Q817.6444,66.65 816.8984,66.2819 Q816.2978,65.9913 815.8716,65.3616 Q815.455,64.7319 815.455,63.9859 L815.455,63.3078 Q815.455,62.5328 815.8231,61.8547 Q816.2009,61.1766 816.85,60.8181 Q817.5088,60.45 818.245,60.45 Q818.6906,60.45 819.0781,60.605 Q819.4656,60.76 819.795,61.07 Z " fill="#000000"/><text fill="#000000" font-family="sans-serif" font-size="7.44" lengthAdjust="spacing" textLength="53.94" x="831.265" y="66.2843">ParameterStore</text><line style="stroke:#A80036;stroke-width:0.9299999999999999;" x1="747.72" x2="948.6" y1="73.16" y2="73.16"/><line style="stroke:#A80036;stroke-width:0.9299999999999999;" x1="747.72" x2="948.6" y1="78.12" y2="78.12"/><text fill="#000000" font-family="sans-serif" font-size="6.82" lengthAdjust="spacing" textLength="194.68" x="750.82" y="87.6797">+getParamsByCategories(List&lt;String&gt; selectedCategoriesCodes)</text><text fill="#000000" font-family="sans-serif" font-size="6.82" lengthAdjust="spacing" textLength="121.52" x="750.82" y="96.258">+getParamsByCategory(String category)</text><!--MD5=[6ba72ddf03822b91e8d41ca71de58ed3]
class TestTypeStore--><rect codeLine="81" fill="#FEFECE" filter="url(#f1q2knfwonbz7q)" height="55.4948" id="TestTypeStore" style="stroke:#A80036;stroke-width:0.9299999999999999;" width="197.16" x="749.58" y="122.14"/><ellipse cx="821.035" cy="132.06" fill="#ADD1B2" rx="6.82" ry="6.82" style="stroke:#A80036;stroke-width:0.62;"/><path d="M822.275,129.89 Q822.4009,129.58 822.5463,129.425 Q822.6916,129.27 822.8563,129.27 Q823.1469,129.27 823.3309,129.4444 Q823.515,129.6188 823.515,130.0256 L823.515,130.9944 Q823.515,131.4013 823.3406,131.5756 Q823.1663,131.75 822.895,131.75 Q822.6528,131.75 822.4978,131.6434 Q822.3428,131.5369 822.275,131.2559 Q822.2459,131.0622 822.1394,130.9556 Q821.9456,130.7522 821.5969,130.6359 Q821.2481,130.51 820.8994,130.51 Q820.4634,130.51 820.0953,130.6844 Q819.7369,130.8588 819.4559,131.2463 Q819.175,131.6338 819.175,132.1666 L819.175,132.7381 Q819.175,133.3775 819.6981,133.8038 Q820.2212,134.23 821.1513,134.23 Q821.7034,134.23 822.0909,134.1041 Q822.3138,134.0363 822.5656,133.8134 Q822.7303,133.6875 822.8175,133.6488 Q822.9047,133.61 823.0113,133.61 Q823.2147,133.61 823.36,133.7747 Q823.515,133.9297 823.515,134.1525 Q823.515,134.3656 823.3019,134.6175 Q822.9919,134.9856 822.4978,135.1891 Q821.8488,135.47 821.0544,135.47 Q820.1244,135.47 819.3784,135.1019 Q818.7778,134.8113 818.3516,134.1816 Q817.935,133.5519 817.935,132.8059 L817.935,132.1278 Q817.935,131.3528 818.3031,130.6747 Q818.6809,129.9966 819.33,129.6381 Q819.9888,129.27 820.725,129.27 Q821.1706,129.27 821.5581,129.425 Q821.9456,129.58 822.275,129.89 Z " fill="#000000"/><text fill="#000000" font-family="sans-serif" font-size="7.44" lengthAdjust="spacing" textLength="48.98" x="833.745" y="135.1043">TestTypeStore</text><line style="stroke:#A80036;stroke-width:0.9299999999999999;" x1="750.2" x2="946.12" y1="141.98" y2="141.98"/><line style="stroke:#A80036;stroke-width:0.9299999999999999;" x1="750.2" x2="946.12" y1="146.94" y2="146.94"/><text fill="#000000" font-family="sans-serif" font-size="6.82" lengthAdjust="spacing" textLength="49.6" x="753.3" y="156.4997">+getTestTypes()</text><text fill="#000000" font-family="sans-serif" font-size="6.82" lengthAdjust="spacing" textLength="103.54" x="753.3" y="165.078">+getTestTypeByCode(String code)</text><text fill="#000000" font-family="sans-serif" font-size="6.82" lengthAdjust="spacing" textLength="189.72" x="753.3" y="173.6563">+getCategoriesByTestTypeCode(String selectedTestTypeCode)</text><!--MD5=[55cb992be19579b505cea3c5691093cb]
class ClientStore--><rect codeLine="87" fill="#FEFECE" filter="url(#f1q2knfwonbz7q)" height="38.3383" id="ClientStore" style="stroke:#A80036;stroke-width:0.9299999999999999;" width="110.98" x="792.67" y="285.82"/><ellipse cx="826.615" cy="295.74" fill="#ADD1B2" rx="6.82" ry="6.82" style="stroke:#A80036;stroke-width:0.62;"/><path d="M827.855,293.57 Q827.9809,293.26 828.1263,293.105 Q828.2716,292.95 828.4363,292.95 Q828.7269,292.95 828.9109,293.1244 Q829.095,293.2988 829.095,293.7056 L829.095,294.6744 Q829.095,295.0813 828.9206,295.2556 Q828.7463,295.43 828.475,295.43 Q828.2328,295.43 828.0778,295.3234 Q827.9228,295.2169 827.855,294.9359 Q827.8259,294.7422 827.7194,294.6356 Q827.5256,294.4322 827.1769,294.3159 Q826.8281,294.19 826.4794,294.19 Q826.0434,294.19 825.6753,294.3644 Q825.3169,294.5388 825.0359,294.9263 Q824.755,295.3137 824.755,295.8466 L824.755,296.4181 Q824.755,297.0575 825.2781,297.4838 Q825.8013,297.91 826.7313,297.91 Q827.2834,297.91 827.6709,297.7841 Q827.8938,297.7163 828.1456,297.4934 Q828.3103,297.3675 828.3975,297.3288 Q828.4847,297.29 828.5913,297.29 Q828.7947,297.29 828.94,297.4547 Q829.095,297.6097 829.095,297.8325 Q829.095,298.0456 828.8819,298.2975 Q828.5719,298.6656 828.0778,298.8691 Q827.4288,299.15 826.6344,299.15 Q825.7044,299.15 824.9584,298.7819 Q824.3578,298.4913 823.9316,297.8616 Q823.515,297.2319 823.515,296.4859 L823.515,295.8078 Q823.515,295.0328 823.8831,294.3547 Q824.2609,293.6766 824.91,293.3181 Q825.5688,292.95 826.305,292.95 Q826.7506,292.95 827.1381,293.105 Q827.5256,293.26 827.855,293.57 Z " fill="#000000"/><text fill="#000000" font-family="sans-serif" font-size="7.44" lengthAdjust="spacing" textLength="37.82" x="839.325" y="298.7843">ClientStore</text><line style="stroke:#A80036;stroke-width:0.9299999999999999;" x1="793.29" x2="903.03" y1="305.66" y2="305.66"/><line style="stroke:#A80036;stroke-width:0.9299999999999999;" x1="793.29" x2="903.03" y1="310.62" y2="310.62"/><text fill="#000000" font-family="sans-serif" font-size="6.82" lengthAdjust="spacing" textLength="103.54" x="796.39" y="320.1797">+getClientByTinNumber(tinNumber)</text><!--MD5=[0f6f7964b844a64b0496af0dda7914bd]
class TestStore--><rect codeLine="92" fill="#FEFECE" filter="url(#f1q2knfwonbz7q)" height="64.0731" id="TestStore" style="stroke:#A80036;stroke-width:0.9299999999999999;" width="205.22" x="745.55" y="199.95"/><ellipse cx="829.095" cy="209.87" fill="#ADD1B2" rx="6.82" ry="6.82" style="stroke:#A80036;stroke-width:0.62;"/><path d="M830.335,207.7 Q830.4609,207.39 830.6063,207.235 Q830.7516,207.08 830.9163,207.08 Q831.2069,207.08 831.3909,207.2544 Q831.575,207.4288 831.575,207.8356 L831.575,208.8044 Q831.575,209.2113 831.4006,209.3856 Q831.2263,209.56 830.955,209.56 Q830.7128,209.56 830.5578,209.4534 Q830.4028,209.3469 830.335,209.0659 Q830.3059,208.8722 830.1994,208.7656 Q830.0056,208.5622 829.6569,208.4459 Q829.3081,208.32 828.9594,208.32 Q828.5234,208.32 828.1553,208.4944 Q827.7969,208.6688 827.5159,209.0563 Q827.235,209.4438 827.235,209.9766 L827.235,210.5481 Q827.235,211.1875 827.7581,211.6138 Q828.2813,212.04 829.2113,212.04 Q829.7634,212.04 830.1509,211.9141 Q830.3738,211.8463 830.6256,211.6234 Q830.7903,211.4975 830.8775,211.4588 Q830.9647,211.42 831.0713,211.42 Q831.2747,211.42 831.42,211.5847 Q831.575,211.7397 831.575,211.9625 Q831.575,212.1756 831.3619,212.4275 Q831.0519,212.7956 830.5578,212.9991 Q829.9087,213.28 829.1144,213.28 Q828.1844,213.28 827.4384,212.9119 Q826.8378,212.6213 826.4116,211.9916 Q825.995,211.3619 825.995,210.6159 L825.995,209.9378 Q825.995,209.1628 826.3631,208.4847 Q826.7409,207.8066 827.39,207.4481 Q828.0488,207.08 828.785,207.08 Q829.2306,207.08 829.6181,207.235 Q830.0056,207.39 830.335,207.7 Z " fill="#000000"/><text fill="#000000" font-family="sans-serif" font-size="7.44" lengthAdjust="spacing" textLength="32.86" x="841.805" y="212.9143">TestStore</text><line style="stroke:#A80036;stroke-width:0.9299999999999999;" x1="746.17" x2="950.15" y1="219.79" y2="219.79"/><line style="stroke:#A80036;stroke-width:0.9299999999999999;" x1="746.17" x2="950.15" y1="224.75" y2="224.75"/><text fill="#000000" font-family="sans-serif" font-size="6.82" lengthAdjust="spacing" textLength="158.1" x="749.27" y="234.3097">+createTest(String NHScode, Client associatedClient,</text><text fill="#000000" font-family="sans-serif" font-size="6.82" lengthAdjust="spacing" textLength="195.92" x="751.13" y="242.888">TestType selectedTestType, List&lt;Parameter&gt;selectedParamsList)</text><text fill="#000000" font-family="sans-serif" font-size="6.82" lengthAdjust="spacing" textLength="55.8" x="749.27" y="251.4663">+validateTest(test)</text><text fill="#000000" font-family="sans-serif" font-size="6.82" lengthAdjust="spacing" textLength="47.74" x="749.27" y="260.0446">+saveTest(test)</text><!--MD5=[9d781343e96e75b44552b4e167cedac1]
class CreateTestControler--><rect codeLine="102" fill="#FEFECE" filter="url(#f1q2knfwonbz7q)" height="72.6514" id="CreateTestControler" style="stroke:#A80036;stroke-width:0.9299999999999999;" width="274.04" x="125.24" y="639.53"/><ellipse cx="224.905" cy="649.45" fill="#ADD1B2" rx="6.82" ry="6.82" style="stroke:#A80036;stroke-width:0.62;"/><path d="M226.145,647.28 Q226.2709,646.97 226.4163,646.815 Q226.5616,646.66 226.7263,646.66 Q227.0169,646.66 227.2009,646.8344 Q227.385,647.0088 227.385,647.4156 L227.385,648.3844 Q227.385,648.7913 227.2106,648.9656 Q227.0363,649.14 226.765,649.14 Q226.5228,649.14 226.3678,649.0334 Q226.2128,648.9269 226.145,648.6459 Q226.1159,648.4522 226.0094,648.3456 Q225.8156,648.1422 225.4669,648.0259 Q225.1181,647.9 224.7694,647.9 Q224.3334,647.9 223.9653,648.0744 Q223.6069,648.2488 223.3259,648.6363 Q223.045,649.0238 223.045,649.5566 L223.045,650.1281 Q223.045,650.7675 223.5681,651.1938 Q224.0913,651.62 225.0213,651.62 Q225.5734,651.62 225.9609,651.4941 Q226.1838,651.4263 226.4356,651.2034 Q226.6003,651.0775 226.6875,651.0388 Q226.7747,651 226.8813,651 Q227.0847,651 227.23,651.1647 Q227.385,651.3197 227.385,651.5425 Q227.385,651.7556 227.1719,652.0075 Q226.8619,652.3756 226.3678,652.5791 Q225.7188,652.86 224.9244,652.86 Q223.9944,652.86 223.2484,652.4919 Q222.6478,652.2013 222.2216,651.5716 Q221.805,650.9419 221.805,650.1959 L221.805,649.5178 Q221.805,648.7428 222.1731,648.0647 Q222.5509,647.3866 223.2,647.0281 Q223.8588,646.66 224.595,646.66 Q225.0406,646.66 225.4281,646.815 Q225.8156,646.97 226.145,647.28 Z " fill="#000000"/><text fill="#000000" font-family="sans-serif" font-size="7.44" lengthAdjust="spacing" textLength="69.44" x="237.615" y="652.4943">CreateTestControler</text><line style="stroke:#A80036;stroke-width:0.9299999999999999;" x1="125.86" x2="398.66" y1="659.37" y2="659.37"/><line style="stroke:#A80036;stroke-width:0.9299999999999999;" x1="125.86" x2="398.66" y1="664.33" y2="664.33"/><text fill="#000000" font-family="sans-serif" font-size="6.82" lengthAdjust="spacing" textLength="266.6" x="128.96" y="673.8897">+createTest(NHScode, citizenCardNumber,selectedTestTypeCode, selectedParamCodes)</text><text fill="#000000" font-family="sans-serif" font-size="6.82" lengthAdjust="spacing" textLength="47.74" x="128.96" y="682.468">+saveTest(test)</text><text fill="#000000" font-family="sans-serif" font-size="6.82" lengthAdjust="spacing" textLength="96.1" x="128.96" y="691.0463">+getTestTypes() : TestTypeDTO</text><text fill="#000000" font-family="sans-serif" font-size="6.82" lengthAdjust="spacing" textLength="213.9" x="128.96" y="699.6246">+getCategoriesListOfTestType(selectedTestTypeCode): CategoriesDTO</text><text fill="#000000" font-family="sans-serif" font-size="6.82" lengthAdjust="spacing" textLength="219.48" x="128.96" y="708.2029">+getParametersOfCategories(selectedCategoriesCodes): ParametersDTO</text><!--MD5=[d0024740988d3925690046e9afae9c9c]
class TestTypeDTO--><rect codeLine="112" fill="#FEFECE" filter="url(#f1q2knfwonbz7q)" height="72.6514" id="TestTypeDTO" style="stroke:#A80036;stroke-width:0.9299999999999999;" width="223.2" x="736.56" y="858.39"/><ellipse cx="822.275" cy="868.31" fill="#ADD1B2" rx="6.82" ry="6.82" style="stroke:#A80036;stroke-width:0.62;"/><path d="M823.515,866.14 Q823.6409,865.83 823.7863,865.675 Q823.9316,865.52 824.0962,865.52 Q824.3869,865.52 824.5709,865.6944 Q824.755,865.8688 824.755,866.2756 L824.755,867.2444 Q824.755,867.6513 824.5806,867.8256 Q824.4063,868 824.135,868 Q823.8928,868 823.7378,867.8934 Q823.5828,867.7869 823.515,867.5059 Q823.4859,867.3122 823.3794,867.2056 Q823.1856,867.0022 822.8369,866.8859 Q822.4881,866.76 822.1394,866.76 Q821.7034,866.76 821.3353,866.9344 Q820.9769,867.1088 820.6959,867.4963 Q820.415,867.8838 820.415,868.4166 L820.415,868.9881 Q820.415,869.6275 820.9381,870.0538 Q821.4613,870.48 822.3913,870.48 Q822.9434,870.48 823.3309,870.3541 Q823.5538,870.2863 823.8056,870.0634 Q823.9703,869.9375 824.0575,869.8988 Q824.1447,869.86 824.2513,869.86 Q824.4547,869.86 824.6,870.0247 Q824.755,870.1797 824.755,870.4025 Q824.755,870.6156 824.5419,870.8675 Q824.2319,871.2356 823.7378,871.4391 Q823.0888,871.72 822.2944,871.72 Q821.3644,871.72 820.6184,871.3519 Q820.0178,871.0613 819.5916,870.4316 Q819.175,869.8019 819.175,869.0559 L819.175,868.3778 Q819.175,867.6028 819.5431,866.9247 Q819.9209,866.2466 820.57,865.8881 Q821.2288,865.52 821.965,865.52 Q822.4106,865.52 822.7981,865.675 Q823.1856,865.83 823.515,866.14 Z " fill="#000000"/><text fill="#000000" font-family="sans-serif" font-size="7.44" lengthAdjust="spacing" textLength="46.5" x="834.985" y="871.3543">TestTypeDTO</text><line style="stroke:#A80036;stroke-width:0.9299999999999999;" x1="737.18" x2="959.14" y1="878.23" y2="878.23"/><text fill="#000000" font-family="sans-serif" font-size="6.82" lengthAdjust="spacing" textLength="17.36" x="740.28" y="887.7897">-code</text><text fill="#000000" font-family="sans-serif" font-size="6.82" lengthAdjust="spacing" textLength="35.34" x="740.28" y="896.368">-description</text><text fill="#000000" font-family="sans-serif" font-size="6.82" lengthAdjust="spacing" textLength="52.08" x="740.28" y="904.9463">-collectingMethod</text><text fill="#000000" font-family="sans-serif" font-size="6.82" lengthAdjust="spacing" textLength="107.26" x="740.28" y="913.5246">-List&lt;Category&gt; selectedCategories</text><line style="stroke:#A80036;stroke-width:0.9299999999999999;" x1="737.18" x2="959.14" y1="917.5031" y2="917.5031"/><text fill="#000000" font-family="sans-serif" font-size="6.82" lengthAdjust="spacing" textLength="215.76" x="740.28" y="927.0629">+TestTypeDTO(code, description, collectingMethod, selectedCategories)</text><!--MD5=[6ca282d596ffdf8981b3c7f53e037f13]
class CategoryDto--><rect codeLine="120" fill="#FEFECE" filter="url(#f1q2knfwonbz7q)" height="55.4948" id="CategoryDto" style="stroke:#A80036;stroke-width:0.9299999999999999;" width="88.04" x="804.14" y="952.94"/><ellipse cx="825.158" cy="962.86" fill="#ADD1B2" rx="6.82" ry="6.82" style="stroke:#A80036;stroke-width:0.62;"/><path d="M826.398,960.69 Q826.5239,960.38 826.6693,960.225 Q826.8146,960.07 826.9793,960.07 Q827.2699,960.07 827.4539,960.2444 Q827.638,960.4188 827.638,960.8256 L827.638,961.7944 Q827.638,962.2013 827.4636,962.3756 Q827.2893,962.55 827.018,962.55 Q826.7758,962.55 826.6208,962.4434 Q826.4658,962.3369 826.398,962.0559 Q826.3689,961.8622 826.2624,961.7556 Q826.0686,961.5522 825.7199,961.4359 Q825.3711,961.31 825.0224,961.31 Q824.5864,961.31 824.2183,961.4844 Q823.8599,961.6587 823.5789,962.0463 Q823.298,962.4338 823.298,962.9666 L823.298,963.5381 Q823.298,964.1775 823.8211,964.6038 Q824.3443,965.03 825.2743,965.03 Q825.8264,965.03 826.2139,964.9041 Q826.4368,964.8363 826.6886,964.6134 Q826.8533,964.4875 826.9405,964.4488 Q827.0277,964.41 827.1343,964.41 Q827.3377,964.41 827.483,964.5747 Q827.638,964.7297 827.638,964.9525 Q827.638,965.1656 827.4249,965.4175 Q827.1149,965.7856 826.6208,965.9891 Q825.9718,966.27 825.1774,966.27 Q824.2474,966.27 823.5014,965.9019 Q822.9008,965.6113 822.4746,964.9816 Q822.058,964.3519 822.058,963.6059 L822.058,962.9278 Q822.058,962.1528 822.4261,961.4747 Q822.8039,960.7966 823.453,960.4381 Q824.1118,960.07 824.848,960.07 Q825.2936,960.07 825.6811,960.225 Q826.0686,960.38 826.398,960.69 Z " fill="#000000"/><text fill="#000000" font-family="sans-serif" font-size="7.44" lengthAdjust="spacing" textLength="42.16" x="836.442" y="965.9043">CategoryDto</text><line style="stroke:#A80036;stroke-width:0.9299999999999999;" x1="804.76" x2="891.56" y1="972.78" y2="972.78"/><text fill="#000000" font-family="sans-serif" font-size="6.82" lengthAdjust="spacing" textLength="17.36" x="807.86" y="982.3397">-code</text><text fill="#000000" font-family="sans-serif" font-size="6.82" lengthAdjust="spacing" textLength="18.6" x="807.86" y="990.918">-name</text><line style="stroke:#A80036;stroke-width:0.9299999999999999;" x1="804.76" x2="891.56" y1="994.8966" y2="994.8966"/><text fill="#000000" font-family="sans-serif" font-size="6.82" lengthAdjust="spacing" textLength="80.6" x="807.86" y="1004.4563">+CategoryDto(code, name)</text><!--MD5=[e82331375a7233007428e4f15d504621]
class ParameterDTO--><rect codeLine="126" fill="#FEFECE" filter="url(#f1q2knfwonbz7q)" height="72.6514" id="ParameterDTO" style="stroke:#A80036;stroke-width:0.9299999999999999;" width="209.56" x="743.38" y="764.15"/><ellipse cx="819.795" cy="774.07" fill="#ADD1B2" rx="6.82" ry="6.82" style="stroke:#A80036;stroke-width:0.62;"/><path d="M821.035,771.9 Q821.1609,771.59 821.3063,771.435 Q821.4516,771.28 821.6163,771.28 Q821.9069,771.28 822.0909,771.4544 Q822.275,771.6288 822.275,772.0356 L822.275,773.0044 Q822.275,773.4113 822.1006,773.5856 Q821.9263,773.76 821.655,773.76 Q821.4128,773.76 821.2578,773.6534 Q821.1028,773.5469 821.035,773.2659 Q821.0059,773.0722 820.8994,772.9656 Q820.7056,772.7622 820.3569,772.6459 Q820.0081,772.52 819.6594,772.52 Q819.2234,772.52 818.8553,772.6944 Q818.4969,772.8688 818.2159,773.2563 Q817.935,773.6438 817.935,774.1766 L817.935,774.7481 Q817.935,775.3875 818.4581,775.8138 Q818.9813,776.24 819.9113,776.24 Q820.4634,776.24 820.8509,776.1141 Q821.0738,776.0463 821.3256,775.8234 Q821.4903,775.6975 821.5775,775.6587 Q821.6647,775.62 821.7713,775.62 Q821.9747,775.62 822.12,775.7847 Q822.275,775.9397 822.275,776.1625 Q822.275,776.3756 822.0619,776.6275 Q821.7519,776.9956 821.2578,777.1991 Q820.6088,777.48 819.8144,777.48 Q818.8844,777.48 818.1384,777.1119 Q817.5378,776.8213 817.1116,776.1916 Q816.695,775.5619 816.695,774.8159 L816.695,774.1378 Q816.695,773.3628 817.0631,772.6847 Q817.4409,772.0066 818.09,771.6481 Q818.7488,771.28 819.485,771.28 Q819.9306,771.28 820.3181,771.435 Q820.7056,771.59 821.035,771.9 Z " fill="#000000"/><text fill="#000000" font-family="sans-serif" font-size="7.44" lengthAdjust="spacing" textLength="51.46" x="832.505" y="777.1143">ParameterDTO</text><line style="stroke:#A80036;stroke-width:0.9299999999999999;" x1="744" x2="952.32" y1="783.99" y2="783.99"/><text fill="#000000" font-family="sans-serif" font-size="6.82" lengthAdjust="spacing" textLength="17.36" x="747.1" y="793.5497">-code</text><text fill="#000000" font-family="sans-serif" font-size="6.82" lengthAdjust="spacing" textLength="34.72" x="747.1" y="802.128">-shortName</text><text fill="#000000" font-family="sans-serif" font-size="6.82" lengthAdjust="spacing" textLength="35.34" x="747.1" y="810.7063">-description</text><text fill="#000000" font-family="sans-serif" font-size="6.82" lengthAdjust="spacing" textLength="60.14" x="747.1" y="819.2846">-ParameterCategory</text><line style="stroke:#A80036;stroke-width:0.9299999999999999;" x1="744" x2="952.32" y1="823.2631" y2="823.2631"/><text fill="#000000" font-family="sans-serif" font-size="6.82" lengthAdjust="spacing" textLength="202.12" x="747.1" y="832.8229">+ParameterDTO(code, shortName, description, ParameterCategory)'</text><!--MD5=[724ead17d3ca940995455a91cefd1e12]
class TestTypeMapper--><rect codeLine="137" fill="#FEFECE" filter="url(#f1q2knfwonbz7q)" height="46.9166" id="TestTypeMapper" style="stroke:#A80036;stroke-width:0.9299999999999999;" width="172.98" x="453.84" y="853.74"/><ellipse cx="509.485" cy="863.66" fill="#ADD1B2" rx="6.82" ry="6.82" style="stroke:#A80036;stroke-width:0.62;"/><path d="M510.725,861.49 Q510.8509,861.18 510.9963,861.025 Q511.1416,860.87 511.3063,860.87 Q511.5969,860.87 511.7809,861.0444 Q511.965,861.2188 511.965,861.6256 L511.965,862.5944 Q511.965,863.0013 511.7906,863.1756 Q511.6163,863.35 511.345,863.35 Q511.1028,863.35 510.9478,863.2434 Q510.7928,863.1369 510.725,862.8559 Q510.6959,862.6622 510.5894,862.5556 Q510.3956,862.3522 510.0469,862.2359 Q509.6981,862.11 509.3494,862.11 Q508.9134,862.11 508.5453,862.2844 Q508.1869,862.4588 507.9059,862.8462 Q507.625,863.2338 507.625,863.7666 L507.625,864.3381 Q507.625,864.9775 508.1481,865.4038 Q508.6713,865.83 509.6013,865.83 Q510.1534,865.83 510.5409,865.7041 Q510.7638,865.6363 511.0156,865.4134 Q511.1803,865.2875 511.2675,865.2488 Q511.3547,865.21 511.4613,865.21 Q511.6647,865.21 511.81,865.3747 Q511.965,865.5297 511.965,865.7525 Q511.965,865.9656 511.7519,866.2175 Q511.4419,866.5856 510.9478,866.7891 Q510.2988,867.07 509.5044,867.07 Q508.5744,867.07 507.8284,866.7019 Q507.2278,866.4113 506.8016,865.7816 Q506.385,865.1519 506.385,864.4059 L506.385,863.7278 Q506.385,862.9528 506.7531,862.2747 Q507.1309,861.5966 507.78,861.2381 Q508.4387,860.87 509.175,860.87 Q509.6206,860.87 510.0081,861.025 Q510.3956,861.18 510.725,861.49 Z " fill="#000000"/><text fill="#000000" font-family="sans-serif" font-size="7.44" lengthAdjust="spacing" textLength="56.42" x="522.195" y="866.7043">TestTypeMapper</text><line style="stroke:#A80036;stroke-width:0.9299999999999999;" x1="454.46" x2="626.2" y1="873.58" y2="873.58"/><line style="stroke:#A80036;stroke-width:0.9299999999999999;" x1="454.46" x2="626.2" y1="878.54" y2="878.54"/><text fill="#000000" font-family="sans-serif" font-size="6.82" lengthAdjust="spacing" textLength="165.54" x="457.56" y="888.0997">+List&lt;TestTypeDTO&gt; toDTO(List&lt;TestType&gt; testTypes)</text><text fill="#000000" font-family="sans-serif" font-size="6.82" lengthAdjust="spacing" textLength="103.54" x="457.56" y="896.678">+TestTypeDTO toDTO(TestType tt)</text><!--MD5=[867476cd2a5db62f3ac412e45787ce2b]
class CategoryMapper--><rect codeLine="141" fill="#FEFECE" filter="url(#f1q2knfwonbz7q)" height="46.9166" id="CategoryMapper" style="stroke:#A80036;stroke-width:0.9299999999999999;" width="201.5" x="439.58" y="922.56"/><ellipse cx="509.795" cy="932.48" fill="#ADD1B2" rx="6.82" ry="6.82" style="stroke:#A80036;stroke-width:0.62;"/><path d="M511.035,930.31 Q511.1609,930 511.3063,929.845 Q511.4516,929.69 511.6163,929.69 Q511.9069,929.69 512.0909,929.8644 Q512.275,930.0388 512.275,930.4456 L512.275,931.4144 Q512.275,931.8213 512.1006,931.9956 Q511.9263,932.17 511.655,932.17 Q511.4128,932.17 511.2578,932.0634 Q511.1028,931.9569 511.035,931.6759 Q511.0059,931.4822 510.8994,931.3756 Q510.7056,931.1722 510.3569,931.0559 Q510.0081,930.93 509.6594,930.93 Q509.2234,930.93 508.8553,931.1044 Q508.4969,931.2788 508.2159,931.6663 Q507.935,932.0538 507.935,932.5866 L507.935,933.1581 Q507.935,933.7975 508.4581,934.2238 Q508.9813,934.65 509.9113,934.65 Q510.4634,934.65 510.8509,934.5241 Q511.0738,934.4563 511.3256,934.2334 Q511.4903,934.1075 511.5775,934.0688 Q511.6647,934.03 511.7713,934.03 Q511.9747,934.03 512.12,934.1947 Q512.275,934.3497 512.275,934.5725 Q512.275,934.7856 512.0619,935.0375 Q511.7519,935.4056 511.2578,935.6091 Q510.6088,935.89 509.8144,935.89 Q508.8844,935.89 508.1384,935.5219 Q507.5378,935.2313 507.1116,934.6016 Q506.695,933.9719 506.695,933.2259 L506.695,932.5478 Q506.695,931.7728 507.0631,931.0947 Q507.4409,930.4166 508.09,930.0581 Q508.7488,929.69 509.485,929.69 Q509.9306,929.69 510.3181,929.845 Q510.7056,930 511.035,930.31 Z " fill="#000000"/><text fill="#000000" font-family="sans-serif" font-size="7.44" lengthAdjust="spacing" textLength="55.8" x="522.505" y="935.5243">CategoryMapper</text><line style="stroke:#A80036;stroke-width:0.9299999999999999;" x1="440.2" x2="640.46" y1="942.4" y2="942.4"/><line style="stroke:#A80036;stroke-width:0.9299999999999999;" x1="440.2" x2="640.46" y1="947.36" y2="947.36"/><text fill="#000000" font-family="sans-serif" font-size="6.82" lengthAdjust="spacing" textLength="194.06" x="443.3" y="956.9197">+List&lt;CategoryDto&gt; toDTO(List&lt;Category&gt; parameterCategories)</text><text fill="#000000" font-family="sans-serif" font-size="6.82" lengthAdjust="spacing" textLength="122.14" x="443.3" y="965.498">+CategoryDto toDTO(Category category)</text><!--MD5=[e0569d1bc34b9d21face98cd33d75fba]
class ParameterMapper--><rect codeLine="145" fill="#FEFECE" filter="url(#f1q2knfwonbz7q)" height="46.9166" id="ParameterMapper" style="stroke:#A80036;stroke-width:0.9299999999999999;" width="182.28" x="449.19" y="784.92"/><ellipse cx="507.005" cy="794.84" fill="#ADD1B2" rx="6.82" ry="6.82" style="stroke:#A80036;stroke-width:0.62;"/><path d="M508.245,792.67 Q508.3709,792.36 508.5163,792.205 Q508.6616,792.05 508.8263,792.05 Q509.1169,792.05 509.3009,792.2244 Q509.485,792.3988 509.485,792.8056 L509.485,793.7744 Q509.485,794.1813 509.3106,794.3556 Q509.1363,794.53 508.865,794.53 Q508.6228,794.53 508.4678,794.4234 Q508.3128,794.3169 508.245,794.0359 Q508.2159,793.8422 508.1094,793.7356 Q507.9156,793.5322 507.5669,793.4159 Q507.2181,793.29 506.8694,793.29 Q506.4334,793.29 506.0653,793.4644 Q505.7069,793.6388 505.4259,794.0263 Q505.145,794.4138 505.145,794.9466 L505.145,795.5181 Q505.145,796.1575 505.6681,796.5838 Q506.1912,797.01 507.1213,797.01 Q507.6734,797.01 508.0609,796.8841 Q508.2838,796.8163 508.5356,796.5934 Q508.7003,796.4675 508.7875,796.4288 Q508.8747,796.39 508.9813,796.39 Q509.1847,796.39 509.33,796.5547 Q509.485,796.7097 509.485,796.9325 Q509.485,797.1456 509.2719,797.3975 Q508.9619,797.7656 508.4678,797.9691 Q507.8188,798.25 507.0244,798.25 Q506.0944,798.25 505.3484,797.8819 Q504.7478,797.5913 504.3216,796.9616 Q503.905,796.3319 503.905,795.5859 L503.905,794.9078 Q503.905,794.1328 504.2731,793.4547 Q504.6509,792.7766 505.3,792.4181 Q505.9588,792.05 506.695,792.05 Q507.1406,792.05 507.5281,792.205 Q507.9156,792.36 508.245,792.67 Z " fill="#000000"/><text fill="#000000" font-family="sans-serif" font-size="7.44" lengthAdjust="spacing" textLength="61.38" x="519.715" y="797.8843">ParameterMapper</text><line style="stroke:#A80036;stroke-width:0.9299999999999999;" x1="449.81" x2="630.85" y1="804.76" y2="804.76"/><line style="stroke:#A80036;stroke-width:0.9299999999999999;" x1="449.81" x2="630.85" y1="809.72" y2="809.72"/><text fill="#000000" font-family="sans-serif" font-size="6.82" lengthAdjust="spacing" textLength="174.84" x="452.91" y="819.2797">+List&lt;ParameterDTO&gt; toDTO(List&lt;Parameter&gt; parameters)</text><text fill="#000000" font-family="sans-serif" font-size="6.82" lengthAdjust="spacing" textLength="135.16" x="452.91" y="827.858">+ParameterDTO toDTO(Parameter parameter)</text><!--MD5=[502b51bc079239060389dab43b7d3470]
link Client to Test--><!--MD5=[502b51bc079239060389dab43b7d3470]
link Client to Test--><path codeLine="193" d="M568.8314,496.7068 C604.1652,485.8072 666.5186,471.8262 716.72,488.56 C719.3364,489.428 719.386,490.7486 721.68,492.28 C749.0158,510.5328 780.9024,529.356 805.7396,543.5044 " fill="none" id="Client-Test" style="stroke:#A80036;stroke-width:0.62;"/><polygon fill="#000000" points="660.9788,475.0482,666.1273,477.9226,666.8335,474.3474,660.9788,475.0482" style="stroke:#000000;stroke-width:0.62;"/><text fill="#000000" font-family="sans-serif" font-size="8.06" lengthAdjust="spacing" textLength="46.5" x="669.6" y="478.947">requested by</text><text fill="#000000" font-family="sans-serif" font-size="8.06" lengthAdjust="spacing" textLength="4.34" x="573.528" y="504.3591">1</text><text fill="#000000" font-family="sans-serif" font-size="8.06" lengthAdjust="spacing" textLength="4.34" x="796.8012" y="539.0606">1</text><!--MD5=[67861e1df2b601228742d9f0ac7fe341]
link CreateTestControler to Test--><!--MD5=[d480452e7d21fe720ba0207568bc7434]
link ClinicalAnalysisLaboratory to Test--><!--MD5=[d480452e7d21fe720ba0207568bc7434]
link ClinicalAnalysisLaboratory to Test--><path codeLine="198" d="M848.16,464.4668 C848.16,480.9712 848.16,505.2752 848.16,526.0452 " fill="none" id="ClinicalAnalysisLaboratory-Test" style="stroke:#A80036;stroke-width:0.62;"/><polygon fill="#000000" points="823.67,498.434,825.4921,492.826,821.8479,492.826,823.67,498.434" style="stroke:#000000;stroke-width:0.62;"/><text fill="#000000" font-family="sans-serif" font-size="8.06" lengthAdjust="spacing" textLength="31" x="829.25" y="498.632">performs</text><text fill="#000000" font-family="sans-serif" font-size="8.06" lengthAdjust="spacing" textLength="4.34" x="843.3928" y="477.6428">1</text><text fill="#000000" font-family="sans-serif" font-size="8.06" lengthAdjust="spacing" textLength="12.4" x="835.0431" y="519.2323">1..*</text><!--MD5=[a87ca41b19769012ec630dbc141b1436]
link CreateTestUI to CreateTestControler--><path codeLine="156" d="M61.9752,1009.267 C92.38,958.4828 192.2558,791.678 238.173,714.9964 " fill="none" id="CreateTestUI-to-CreateTestControler" style="stroke:#A80036;stroke-width:0.62;stroke-dasharray:7.0,7.0;"/><polygon fill="#A80036" points="239.7788,712.3056,234.7865,715.8218,238.1878,714.9662,239.0434,718.3674,239.7788,712.3056" style="stroke:#A80036;stroke-width:0.62;"/><!--MD5=[3d5f36034bd05a68f42d063684fd8cdc]
link CreateTestUI to CategoryDto--><path codeLine="157" d="M67.8094,1039.2936 C77.4256,1047.9612 90.7494,1058.0362 104.78,1062.68 C337.3606,1139.5848 415.9642,1111.7902 655.96,1062.68 C708.0214,1052.0222 763.4246,1026.6456 801.1888,1006.9482 " fill="none" id="CreateTestUI-to-CategoryDto" style="stroke:#A80036;stroke-width:0.62;stroke-dasharray:7.0,7.0;"/><polygon fill="#A80036" points="804.1028,1005.423,798.0097,1005.8248,801.359,1006.8657,800.3181,1010.215,804.1028,1005.423" style="stroke:#A80036;stroke-width:0.62;"/><!--MD5=[4623db2661f880c526208cfcca0131e5]
link CreateTestUI to ParameterDTO--><path codeLine="158" d="M84.9834,1018.8088 C91.5182,1017.823 98.363,1016.8868 104.78,1016.18 C165.7818,1009.4158 607.383,1017.1162 655.96,979.6 C661.478,975.3344 658.2044,971.137 660.92,964.72 C683.767,910.687 677.784,886.4574 721.68,847.54 C727.4584,842.4126 733.8506,837.8246 740.5962,833.7264 " fill="none" id="CreateTestUI-to-ParameterDTO" style="stroke:#A80036;stroke-width:0.62;stroke-dasharray:7.0,7.0;"/><polygon fill="#A80036" points="743.2994,832.1144,737.2358,832.835,740.6349,833.6989,739.771,837.0981,743.2994,832.1144" style="stroke:#A80036;stroke-width:0.62;"/><!--MD5=[b119393afdc8554af40a71e4d23c569f]
link CreateTestUI to TestTypeDTO--><path codeLine="159" d="M85.064,1027.371 C194.6924,1037.5638 553.4988,1066.4434 655.96,1018.66 C696.7002,999.657 684.8582,967.5596 721.68,941.78 C726.3548,938.5064 731.29,935.425 736.3864,932.5358 " fill="none" id="CreateTestUI-to-TestTypeDTO" style="stroke:#A80036;stroke-width:0.62;stroke-dasharray:7.0,7.0;"/><polygon fill="#A80036" points="739.2322,930.9486,733.1514,931.5057,736.5261,932.4608,735.571,935.8355,739.2322,930.9486" style="stroke:#A80036;stroke-width:0.62;"/><!--MD5=[3d90787a6c4fcaaaef3316a8b7a2a1cb]
link CategoryMapper to CategoryDto--><path codeLine="160" d="M641.1296,957.4598 C694.8402,963.5482 758.4894,970.7526 800.761,975.539 " fill="none" id="CategoryMapper-to-CategoryDto" style="stroke:#A80036;stroke-width:0.62;stroke-dasharray:7.0,7.0;"/><polygon fill="#A80036" points="804.0222,975.911,798.7629,972.8083,800.9426,975.556,798.1949,977.7357,804.0222,975.911" style="stroke:#A80036;stroke-width:0.62;"/><!--MD5=[5f4198d269e8e237122a004a01e5b057]
link CategoryMapper to ParameterCategory--><path codeLine="161" d="M586.3216,969.7172 C644.986,997.9954 751.0928,1041.6 847.54,1041.6 C847.54,1041.6 847.54,1041.6 1357.8,1041.6 C1468.5134,1041.6 1531.7906,635.2272 1546.807,525.9026 " fill="none" id="CategoryMapper-to-ParameterCategory" style="stroke:#A80036;stroke-width:0.62;stroke-dasharray:7.0,7.0;"/><polygon fill="#A80036" points="1547.2348,522.7592,1544.0136,527.9467,1546.81,525.83,1548.9268,528.6264,1547.2348,522.7592" style="stroke:#A80036;stroke-width:0.62;"/><!--MD5=[bcaa6a39389c8cb768501da2b7549a8d]
link ParameterMapper to ParameterDTO--><path codeLine="162" d="M631.4886,806.0992 C665.5142,805.2002 704.5308,804.1772 739.9576,803.2472 " fill="none" id="ParameterMapper-to-ParameterDTO" style="stroke:#A80036;stroke-width:0.62;stroke-dasharray:7.0,7.0;"/><polygon fill="#A80036" points="743.1568,803.1604,737.5149,800.8247,740.0578,803.2401,737.6424,805.783,743.1568,803.1604" style="stroke:#A80036;stroke-width:0.62;"/><!--MD5=[6a9c25a7b7cd4f2505d061be4a34119e]
link ParameterMapper to Parameter--><path codeLine="163" d="M616.1064,784.8642 C648.4828,774.9318 686.836,763.4866 721.68,753.92 C976.3016,683.9964 1102.2112,771.2552 1292.08,587.76 C1308.2682,572.1112 1297.8646,559.1532 1310.68,540.64 C1315.2122,534.0866 1320.972,527.8432 1326.862,522.2818 " fill="none" id="ParameterMapper-to-Parameter" style="stroke:#A80036;stroke-width:0.62;stroke-dasharray:7.0,7.0;"/><polygon fill="#A80036" points="1329.2118,520.1056,1323.4326,522.0774,1326.9373,522.2119,1326.8028,525.7166,1329.2118,520.1056" style="stroke:#A80036;stroke-width:0.62;"/><!--MD5=[a866f4e758874d18eed8ecae1602bb43]
link TestTypeMapper to TestTypeDTO--><path codeLine="164" d="M626.9626,882.167 C659.8908,884.0332 697.9836,886.1908 733.15,888.181 " fill="none" id="TestTypeMapper-to-TestTypeDTO" style="stroke:#A80036;stroke-width:0.62;stroke-dasharray:7.0,7.0;"/><polygon fill="#A80036" points="736.3306,888.3608,730.9016,885.5656,733.2357,888.1834,730.6179,890.5175,736.3306,888.3608" style="stroke:#A80036;stroke-width:0.62;"/><!--MD5=[a3b705e4e3f391aa28b18ef9a5fd28a9]
link TestTypeMapper to TestType--><path codeLine="165" d="M626.9378,862.9594 C637.8622,858.0056 647.9868,851.3964 655.96,842.58 C663.679,834.0426 655.6128,827.3714 660.92,817.16 C678.8876,782.5702 689.9918,776.6182 721.68,753.92 C857.4724,656.6482 959.9088,726.733 1062.06,594.58 C1089.8236,558.6572 1060.3054,534.719 1080.66,494.14 C1087.263,480.965 1097.2822,468.534 1107.32,458.0684 " fill="none" id="TestTypeMapper-to-TestType" style="stroke:#A80036;stroke-width:0.62;stroke-dasharray:7.0,7.0;"/><polygon fill="#A80036" points="1109.5954,455.7248,1103.9277,457.9972,1107.4346,457.9476,1107.4842,461.4545,1109.5954,455.7248" style="stroke:#A80036;stroke-width:0.62;"/><!--MD5=[8f55894bbc012aa6e8bd0f9e9c1fa823]
link CreateTestControler to Company--><path codeLine="166" d="M279.7564,639.4184 C304.73,589.31 356.066,499.2612 424.7,446.4 C447.1502,429.1082 477.3256,418.2334 501.1336,411.7792 " fill="none" id="CreateTestControler-to-Company" style="stroke:#A80036;stroke-width:0.62;stroke-dasharray:7.0,7.0;"/><polygon fill="#A80036" points="504.3018,410.936,498.2723,409.9709,501.3056,411.7315,499.545,414.7648,504.3018,410.936" style="stroke:#A80036;stroke-width:0.62;"/><!--MD5=[75f1b5762c49b994a7e3ff994124fe26]
link CreateTestControler to CategoryMapper--><path codeLine="167" d="M278.3304,712.2622 C302.1632,764.1562 352.7862,858.8426 424.7,911.4 C429.5298,914.9278 434.7254,918.1022 440.138,920.9604 " fill="none" id="CreateTestControler-to-CategoryMapper" style="stroke:#A80036;stroke-width:0.62;stroke-dasharray:7.0,7.0;"/><polygon fill="#A80036" points="443.1636,922.5104,439.3301,917.7574,440.4052,921.0958,437.0668,922.1709,443.1636,922.5104" style="stroke:#A80036;stroke-width:0.62;"/><!--MD5=[08b46ea753435d83600a12592d428521]
link CreateTestControler to CategoryDto--><path codeLine="168" d="M369.892,712.07 C388.0828,717.7058 406.8564,723.2052 424.7,727.88 C526.1692,754.4594 586.7742,696.1546 655.96,775 C666.252,786.7304 656.0716,830.2234 660.92,845.06 C676.6866,893.3146 681.4358,910.8358 721.68,941.78 C744.6014,959.4004 775.558,969.1406 801.0338,974.4912 " fill="none" id="CreateTestControler-to-CategoryDto" style="stroke:#A80036;stroke-width:0.62;stroke-dasharray:7.0,7.0;"/><polygon fill="#A80036" points="804.1152,975.1174,799.1458,971.5689,801.0782,974.4958,798.1512,976.4281,804.1152,975.1174" style="stroke:#A80036;stroke-width:0.62;"/><!--MD5=[4e2eaaaa924769a5915195a82e4b50b3]
link CreateTestControler to ParameterMapper--><path codeLine="169" d="M329.1704,712.0824 C356.7294,726.7578 389.2112,743.5288 419.12,757.64 C438.0424,766.5618 458.9488,775.6448 477.9704,783.618 " fill="none" id="CreateTestControler-to-ParameterMapper" style="stroke:#A80036;stroke-width:0.62;stroke-dasharray:7.0,7.0;"/><polygon fill="#A80036" points="481.0084,784.8828,476.8164,780.4428,478.1482,783.6873,474.9036,785.0192,481.0084,784.8828" style="stroke:#A80036;stroke-width:0.62;"/><!--MD5=[5198f3041045b9988aed843607ceac3f]
link CreateTestControler to ParameterDTO--><path codeLine="170" d="M399.497,659.9838 C476.346,655.4516 573.19,657.1194 655.96,681.38 C710.6378,697.4008 765.0552,733.6708 801.8398,761.9862 " fill="none" id="CreateTestControler-to-ParameterDTO" style="stroke:#A80036;stroke-width:0.62;stroke-dasharray:7.0,7.0;"/><polygon fill="#A80036" points="804.4562,764.0136,801.5688,758.6331,802.0073,762.1128,798.5276,762.5513,804.4562,764.0136" style="stroke:#A80036;stroke-width:0.62;"/><!--MD5=[d436aa16cf3879d6ad396285eddf41c1]
link CreateTestControler to TestTypeMapper--><path codeLine="171" d="M289.0564,712.1258 C318.1282,749.9396 368.4412,808.3312 424.7,842.58 C432.7848,847.4966 441.6136,851.7684 450.6718,855.4574 " fill="none" id="CreateTestControler-to-TestTypeMapper" style="stroke:#A80036;stroke-width:0.62;stroke-dasharray:7.0,7.0;"/><polygon fill="#A80036" points="453.7532,856.685,449.4817,852.3213,450.8719,855.5413,447.6519,856.9315,453.7532,856.685" style="stroke:#A80036;stroke-width:0.62;"/><!--MD5=[a728a1c0b6f50bd0e8c130b0563a2e8d]
link CreateTestControler to TestTypeDTO--><path codeLine="172" d="M399.3606,686.8546 C504.2646,696.384 634.7622,710.8548 655.96,725.4 C681.3738,742.8344 698.461,827.266 721.68,847.54 C725.462,850.8446 729.5044,853.926 733.7266,856.7966 " fill="none" id="CreateTestControler-to-TestTypeDTO" style="stroke:#A80036;stroke-width:0.62;stroke-dasharray:7.0,7.0;"/><polygon fill="#A80036" points="736.3802,858.5574,733.113,853.3987,733.8008,856.8378,730.3617,857.5257,736.3802,858.5574" style="stroke:#A80036;stroke-width:0.62;"/><!--MD5=[b89d522ccf9caf95dbbde9769ba39561]
link CreateTestControler to ParameterStore--><path codeLine="173" d="M262.849,639.406 C264.8702,545.9596 283.8546,295.9198 424.7,168.02 C511.3016,89.373 649.078,72.695 743.6776,71.6844 " fill="none" id="CreateTestControler-to-ParameterStore" style="stroke:#A80036;stroke-width:0.62;stroke-dasharray:7.0,7.0;"/><polygon fill="#A80036" points="747.0256,71.6534,741.4245,69.2213,743.9257,71.68,741.4671,74.1811,747.0256,71.6534" style="stroke:#A80036;stroke-width:0.62;"/><!--MD5=[3bbb6c5b03dfc4e682128937e80c1ca1]
link CreateTestControler to TestTypeStore--><path codeLine="174" d="M264.2192,639.4556 C269.514,552.8044 295.647,333.2128 424.7,224.44 C513.9738,149.1906 652.3082,138.1732 746.2444,140.957 " fill="none" id="CreateTestControler-to-TestTypeStore" style="stroke:#A80036;stroke-width:0.62;stroke-dasharray:7.0,7.0;"/><polygon fill="#A80036" points="749.5676,141.0624,744.0683,138.4083,746.4691,140.965,743.9124,143.3659,749.5676,141.0624" style="stroke:#A80036;stroke-width:0.62;"/><!--MD5=[0a261a9b138dfe2e0bcc9eaa6466be5e]
link CreateTestControler to TestStore--><path codeLine="175" d="M267.2944,639.2696 C278.6404,561.5278 315.9954,378.7332 424.7,279.62 C523.4722,189.5588 583.6122,195.4984 716.72,207.7 C725.0652,208.4626 733.677,209.498 742.3074,210.707 " fill="none" id="CreateTestControler-to-TestStore" style="stroke:#A80036;stroke-width:0.62;stroke-dasharray:7.0,7.0;"/><polygon fill="#A80036" points="745.488,211.1596,740.3201,207.907,742.4199,210.7162,739.6107,212.816,745.488,211.1596" style="stroke:#A80036;stroke-width:0.62;"/><!--MD5=[3eebf0e5f359806b77b30e9524c37676]
link TestTypeStore to TestType--><path codeLine="176" d="M946.74,173.2528 C956.6228,177.661 966.1336,182.9 974.64,189.1 C1052.45,245.8362 1107.0596,350.0768 1129.981,399.8752 " fill="none" id="TestTypeStore-TestType" style="stroke:#A80036;stroke-width:0.62;"/><polygon fill="#000000" points="1010.0691,190.9996,1007.96,185.4931,1005.1262,187.7845,1010.0691,190.9996" style="stroke:#000000;stroke-width:0.62;"/><text fill="#000000" font-family="sans-serif" font-size="8.06" lengthAdjust="spacing" textLength="22.32" x="1013.7" y="191.887">stores</text><text fill="#000000" font-family="sans-serif" font-size="8.06" lengthAdjust="spacing" textLength="4.34" x="951.6201" y="182.9971">1</text><text fill="#000000" font-family="sans-serif" font-size="8.06" lengthAdjust="spacing" textLength="3.1" x="1124.6133" y="393.1228">*</text><!--MD5=[1d934105a045dbf126514c6917bd5072]
link ClientStore to Client--><path codeLine="177" d="M792.5522,317.6074 C767.5042,326.0332 739.5236,339.7042 721.68,361.46 C715.4056,369.1046 722.3372,375.0132 716.72,383.16 C699.8002,407.6934 677.3934,395.5166 660.92,420.36 C654.41,430.1746 662.9846,436.9388 655.96,446.4 C634.6072,475.1618 595.4108,491.3934 568.7756,499.565 " fill="none" id="ClientStore-Client" style="stroke:#A80036;stroke-width:0.62;"/><polygon fill="#000000" points="673.7048,379.6447,679.2054,377.5205,676.9063,374.693,673.7048,379.6447" style="stroke:#000000;stroke-width:0.62;"/><text fill="#000000" font-family="sans-serif" font-size="8.06" lengthAdjust="spacing" textLength="22.32" x="681.69" y="380.987">stores</text><text fill="#000000" font-family="sans-serif" font-size="8.06" lengthAdjust="spacing" textLength="4.34" x="783.4275" y="316.6976">1</text><text fill="#000000" font-family="sans-serif" font-size="8.06" lengthAdjust="spacing" textLength="3.1" x="573.5561" y="496.1426">*</text><!--MD5=[b0f4f6db8206580012ef9cd998ed01c5]
link TestStore to Test--><path codeLine="178" d="M745.2958,254.5472 C736.3182,259.8978 728.19,266.507 721.68,274.66 C689.6322,314.7926 670.5424,461.9496 699.05,504.68 C722.6596,540.0696 770.6786,555.2844 805.8636,561.813 " fill="none" id="TestStore-Test" style="stroke:#A80036;stroke-width:0.62;"/><polygon fill="#000000" points="676.7095,502.2505,677.4127,496.396,673.8372,497.1008,676.7095,502.2505" style="stroke:#000000;stroke-width:0.62;"/><text fill="#000000" font-family="sans-serif" font-size="8.06" lengthAdjust="spacing" textLength="22.32" x="681.69" y="502.507">stores</text><text fill="#000000" font-family="sans-serif" font-size="8.06" lengthAdjust="spacing" textLength="4.34" x="736.1964" y="253.7966">1</text><text fill="#000000" font-family="sans-serif" font-size="8.06" lengthAdjust="spacing" textLength="3.1" x="797.9679" y="570.2015">*</text><!--MD5=[a0992dda039fed1bb57aff5aacace800]
link ParameterStore to Parameter--><path codeLine="179" d="M949.375,100.2912 C958.086,103.4656 966.6234,107.0182 974.64,110.98 C1155.2584,200.2662 1167.8258,276.0116 1292.08,434.62 C1301.132,446.1706 1300.7414,451.0996 1310.68,461.9 C1316.2352,467.9326 1322.801,473.8288 1329.1994,479.0864 " fill="none" id="ParameterStore-Parameter" style="stroke:#A80036;stroke-width:0.62;"/><polygon fill="#000000" points="1132.145,172.178,1129.4609,166.9278,1126.8875,169.5082,1132.145,172.178" style="stroke:#000000;stroke-width:0.62;"/><text fill="#000000" font-family="sans-serif" font-size="8.06" lengthAdjust="spacing" textLength="22.32" x="1135.53" y="173.287">stores</text><text fill="#000000" font-family="sans-serif" font-size="8.06" lengthAdjust="spacing" textLength="4.34" x="954.1657" y="111.2931">1</text><text fill="#000000" font-family="sans-serif" font-size="8.06" lengthAdjust="spacing" textLength="3.1" x="1321.2084" y="473.4404">*</text><!--MD5=[daf3d7412afa2c7651483be0b6e971d1]
link Company to ParameterStore--><path codeLine="180" d="M559.9034,371.5288 C603.7932,297.4264 709.5838,120.0072 721.68,110.98 C729.3928,105.2264 738.0108,100.44 747.0256,96.4658 " fill="none" id="Company-ParameterStore" style="stroke:#A80036;stroke-width:0.62;"/><polygon fill="#000000" points="680.3337,111.0059,675.6728,114.6177,678.6859,116.6675,680.3337,111.0059" style="stroke:#000000;stroke-width:0.62;"/><text fill="#000000" font-family="sans-serif" font-size="8.06" lengthAdjust="spacing" textLength="17.36" x="684.17" y="116.867">uses</text><text fill="#000000" font-family="sans-serif" font-size="8.06" lengthAdjust="spacing" textLength="4.34" x="557.902" y="364.9973">1</text><text fill="#000000" font-family="sans-serif" font-size="8.06" lengthAdjust="spacing" textLength="4.34" x="737.6818" y="106.0319">1</text><!--MD5=[141c3afa12b2b3c0a39ffce56dbd5f19]
link Company to TestTypeStore--><path codeLine="181" d="M572.0058,371.6714 C594.9768,349.3886 627.8926,320.1618 660.92,300.08 C683.7422,286.2044 701.1332,299.4476 716.72,277.76 C728.2334,261.733 709.5342,204.6496 721.68,189.1 C729.0704,179.6326 738.7238,172.4034 749.4002,166.8978 " fill="none" id="Company-TestTypeStore" style="stroke:#A80036;stroke-width:0.62;"/><polygon fill="#000000" points="680.6198,269.9459,675.5706,272.9915,678.3251,275.3776,680.6198,269.9459" style="stroke:#000000;stroke-width:0.62;"/><text fill="#000000" font-family="sans-serif" font-size="8.06" lengthAdjust="spacing" textLength="17.36" x="684.17" y="275.587">uses</text><text fill="#000000" font-family="sans-serif" font-size="8.06" lengthAdjust="spacing" textLength="4.34" x="571.8151" y="364.9284">1</text><text fill="#000000" font-family="sans-serif" font-size="8.06" lengthAdjust="spacing" textLength="4.34" x="740.1714" y="176.3342">1</text><!--MD5=[7f6cf7f175eae0af66201860de5de971]
link Company to TestStore--><path codeLine="182" d="M576.5132,381.9386 C600.0422,368.0134 631.8172,349.9838 660.92,336.04 C685.007,324.4956 700.3768,334.8496 716.72,313.72 C727.4274,299.8754 710.613,288.2132 721.68,274.66 C728.2458,266.6124 736.3988,260.0776 745.364,254.7642 " fill="none" id="Company-TestStore" style="stroke:#A80036;stroke-width:0.62;"/><polygon fill="#000000" points="681.0662,306.384,675.4905,308.3023,677.6829,311.2133,681.0662,306.384" style="stroke:#000000;stroke-width:0.62;"/><text fill="#000000" font-family="sans-serif" font-size="8.06" lengthAdjust="spacing" textLength="17.36" x="684.17" y="311.547">uses</text><text fill="#000000" font-family="sans-serif" font-size="8.06" lengthAdjust="spacing" textLength="4.34" x="581.1875" y="377.1389">1</text><text fill="#000000" font-family="sans-serif" font-size="8.06" lengthAdjust="spacing" textLength="4.34" x="736.2677" y="264.393">1</text><!--MD5=[a11230341c8e65219708844feaa40162]
link Company to ClientStore--><path codeLine="183" d="M576.4016,393.0924 C611.971,382.447 668.2856,365.3722 716.72,349.68 C741.7184,341.5766 769.265,332.2394 792.608,324.2042 " fill="none" id="Company-ClientStore" style="stroke:#A80036;stroke-width:0.62;"/><polygon fill="#000000" points="681.5437,343.2679,675.6472,343.2342,676.7536,346.7065,681.5437,343.2679" style="stroke:#000000;stroke-width:0.62;"/><text fill="#000000" font-family="sans-serif" font-size="8.06" lengthAdjust="spacing" textLength="17.36" x="684.17" y="347.507">uses</text><text fill="#000000" font-family="sans-serif" font-size="8.06" lengthAdjust="spacing" textLength="4.34" x="581.3013" y="389.5553">1</text><text fill="#000000" font-family="sans-serif" font-size="8.06" lengthAdjust="spacing" textLength="4.34" x="783.3075" y="334.6581">1</text><!--MD5=[5b7a9ded131023be416e27d15bcd6d77]
link TestType to Parameter--><path codeLine="184" d="M1183.8962,438.7926 C1214.0158,447.2308 1255.934,459.5812 1292.08,472.44 C1304.4056,476.8234 1317.81,482.2546 1329.187,487.0658 " fill="none" id="TestType-Parameter" style="stroke:#A80036;stroke-width:0.62;"/><polygon fill="#000000" points="1229.3019,446.2464,1224.5545,442.749,1223.4054,446.2074,1229.3019,446.2464" style="stroke:#000000;stroke-width:0.62;"/><text fill="#000000" font-family="sans-serif" font-size="8.06" lengthAdjust="spacing" textLength="59.52" x="1231.94" y="448.567">characterized by</text><text fill="#000000" font-family="sans-serif" font-size="8.06" lengthAdjust="spacing" textLength="4.34" x="1188.915" y="449.0343">1</text><text fill="#000000" font-family="sans-serif" font-size="8.06" lengthAdjust="spacing" textLength="12.4" x="1311.9786" y="494.4747">1..*</text><!--MD5=[742a261f27a3dcd734c626287d811acd]
link Company to TestType--><path codeLine="185" d="M576.3644,404.5004 C650.349,406.3418 826.6956,410.7748 974.64,414.78 C1013.4954,415.8278 1023.3162,414.1662 1062.06,417.26 C1074.832,418.2768 1088.6952,419.9136 1101.2316,421.6 " fill="none" id="Company-TestType" style="stroke:#A80036;stroke-width:0.62;"/><polygon fill="#000000" points="833.2784,403.2099,827.7327,401.2062,827.614,404.8485,833.2784,403.2099" style="stroke:#000000;stroke-width:0.62;"/><text fill="#000000" font-family="sans-serif" font-size="8.06" lengthAdjust="spacing" textLength="32.86" x="835.76" y="406.407">conducts</text><text fill="#000000" font-family="sans-serif" font-size="8.06" lengthAdjust="spacing" textLength="4.34" x="581.2593" y="402.425">1</text><text fill="#000000" font-family="sans-serif" font-size="8.06" lengthAdjust="spacing" textLength="3.1" x="1093.4308" y="418.855">*</text><!--MD5=[7e4bc624457760b649895ff2ead938fa]
link Company to Test--><path codeLine="186" d="M576.3024,411.5188 C622.0894,422.4742 698.2378,443.3806 716.72,465 C724.7304,474.362 714.6368,482.1678 721.68,492.28 C741.9912,521.4386 777.728,540.9562 805.9442,552.6556 " fill="none" id="Company-Test" style="stroke:#A80036;stroke-width:0.62;"/><polygon fill="#000000" points="673.4811,432.6322,669.6574,428.1434,667.7492,431.2482,673.4811,432.6322" style="stroke:#000000;stroke-width:0.62;"/><text fill="#000000" font-family="sans-serif" font-size="8.06" lengthAdjust="spacing" textLength="32.86" x="676.42" y="434.307">conducts</text><text fill="#000000" font-family="sans-serif" font-size="8.06" lengthAdjust="spacing" textLength="4.34" x="581.1894" y="421.5336">1</text><text fill="#000000" font-family="sans-serif" font-size="8.06" lengthAdjust="spacing" textLength="3.1" x="798.0573" y="560.0425">*</text><!--MD5=[12d76240d3c3c66074d4ec2ea8bf469c]
link Company to Parameter--><path codeLine="187" d="M576.3148,405.8334 C626.2248,409.1256 711.8344,415.4496 716.72,420.36 C725.3132,428.9842 712.845,466.5376 721.68,474.92 C724.4762,477.5736 1207.9212,494.078 1329.2056,498.1762 " fill="none" id="Company-Parameter" style="stroke:#A80036;stroke-width:0.62;"/><polygon fill="#000000" points="985.7769,480.9864,980.4325,478.4951,979.9889,482.1123,985.7769,480.9864" style="stroke:#000000;stroke-width:0.62;"/><text fill="#000000" font-family="sans-serif" font-size="8.06" lengthAdjust="spacing" textLength="73.16" x="988.28" y="483.907">capable of analysing</text><text fill="#000000" font-family="sans-serif" font-size="8.06" lengthAdjust="spacing" textLength="4.34" x="581.2034" y="409.5243">1</text><text fill="#000000" font-family="sans-serif" font-size="8.06" lengthAdjust="spacing" textLength="3.1" x="1321.2156" y="507.255">*</text><!--MD5=[e981d4f96c4342412d1e68160b30cf70]
link Test to TestType--><path codeLine="188" d="M890.3324,557.4668 C950.274,544.0748 1054.6758,520.3412 1062.06,515.84 C1072.9038,509.2184 1072.2094,503.626 1080.66,494.14 C1091.9812,481.4238 1104.7346,467.573 1115.6652,455.8302 " fill="none" id="Test-TestType" style="stroke:#A80036;stroke-width:0.62;"/><polygon fill="#000000" points="999.7858,509.0944,993.9247,509.7392,995.423,513.0611,999.7858,509.0944" style="stroke:#000000;stroke-width:0.62;"/><text fill="#000000" font-family="sans-serif" font-size="8.06" lengthAdjust="spacing" textLength="44.64" x="1002.54" y="513.667">classified as</text><text fill="#000000" font-family="sans-serif" font-size="8.06" lengthAdjust="spacing" textLength="3.1" x="895.3878" y="554.287">*</text><text fill="#000000" font-family="sans-serif" font-size="8.06" lengthAdjust="spacing" textLength="4.34" x="1107.4062" y="468.6654">1</text><!--MD5=[f24c888dadeb846430474fe80a58922b]
link Test to TestParameter--><path codeLine="189" d="M890.4068,575.1244 C916.0066,579.8922 949.561,585.3544 979.6,587.76 C1016.1304,590.6802 1025.418,588.4668 1062.06,587.76 C1068.0368,587.6422 1074.2554,587.4748 1080.4802,587.2826 " fill="none" id="Test-TestParameter" style="stroke:#A80036;stroke-width:0.62;"/><polygon fill="#000000" points="986.4137,582.4869,980.9335,580.3105,980.7008,583.9473,986.4137,582.4869" style="stroke:#000000;stroke-width:0.62;"/><text fill="#000000" font-family="sans-serif" font-size="8.06" lengthAdjust="spacing" textLength="71.92" x="988.9" y="585.587">requests analysis of</text><text fill="#000000" font-family="sans-serif" font-size="8.06" lengthAdjust="spacing" textLength="4.34" x="895.2649" y="584.9689">1</text><text fill="#000000" font-family="sans-serif" font-size="8.06" lengthAdjust="spacing" textLength="12.4" x="1063.2722" y="596.194">1..*</text><!--MD5=[92e8e476cc9e9004a7125f53a120ec97]
link TestParameter to Parameter--><path codeLine="190" d="M1191.4106,565.347 C1233.9178,548.297 1294.3988,524.0364 1329.1436,510.0988 " fill="none" id="TestParameter-Parameter" style="stroke:#A80036;stroke-width:0.62;"/><polygon fill="#000000" points="1244.4272,520.3749,1238.544,520.7715,1239.9007,524.1538,1244.4272,520.3749" style="stroke:#000000;stroke-width:0.62;"/><text fill="#000000" font-family="sans-serif" font-size="8.06" lengthAdjust="spacing" textLength="29.14" x="1247.13" y="524.827">refers to</text><text fill="#000000" font-family="sans-serif" font-size="8.06" lengthAdjust="spacing" textLength="3.1" x="1198.0457" y="558.8206">*</text><text fill="#000000" font-family="sans-serif" font-size="8.06" lengthAdjust="spacing" textLength="4.34" x="1319.9895" y="521.0509">1</text><!--MD5=[0e00e25ac6b8c14659aaff2cf7e5df08]
link TestParameter to TestParameterResult--><path codeLine="191" d="M1204.6848,583.2278 C1238.4624,582.4466 1279.68,581.4856 1310.6428,580.7664 " fill="none" id="TestParameter-TestParameterResult" style="stroke:#A80036;stroke-width:0.62;"/><polygon fill="#000000" points="1244.0292,576.017,1238.3804,574.3256,1238.465,577.9689,1244.0292,576.017" style="stroke:#000000;stroke-width:0.62;"/><text fill="#000000" font-family="sans-serif" font-size="8.06" lengthAdjust="spacing" textLength="30.38" x="1246.51" y="579.387">contains</text><text fill="#000000" font-family="sans-serif" font-size="8.06" lengthAdjust="spacing" textLength="4.34" x="1209.5997" y="591.8771">1</text><text fill="#000000" font-family="sans-serif" font-size="8.06" lengthAdjust="spacing" textLength="13.64" x="1292.0839" y="589.713">0..1</text><!--MD5=[b72ac8ab7fb5921fceb5036a3902baea]
link Test to Sample--><path codeLine="192" d="M890.4936,566.9404 C933.7944,566.4754 1003.3026,563.6606 1062.06,551.8 C1081.9062,547.7948 1103.5938,540.175 1119.379,534.0122 " fill="none" id="Test-Sample" style="stroke:#A80036;stroke-width:0.62;"/><polygon fill="#000000" points="1008.3984,545.8876,1002.5881,544.8825,1003.1071,548.4897,1008.3984,545.8876" style="stroke:#000000;stroke-width:0.62;"/><text fill="#000000" font-family="sans-serif" font-size="8.06" lengthAdjust="spacing" textLength="27.9" x="1010.91" y="549.627">collects</text><text fill="#000000" font-family="sans-serif" font-size="8.06" lengthAdjust="spacing" textLength="4.34" x="895.3612" y="567.636">1</text><text fill="#000000" font-family="sans-serif" font-size="8.06" lengthAdjust="spacing" textLength="12.4" x="1102.0962" y="544.7993">1..*</text><!--MD5=[6df8849671cb880f6936e94aa30db6f9]
link Parameter to ParameterCategory--><path codeLine="194" d="M1385.1792,499.1 C1417.1526,499.1 1470.4106,499.1 1507.7842,499.1 " fill="none" id="Parameter-ParameterCategory" style="stroke:#A80036;stroke-width:0.62;"/><polygon fill="#000000" points="1428.48,493.629,1422.872,491.8069,1422.872,495.4511,1428.48,493.629" style="stroke:#000000;stroke-width:0.62;"/><text fill="#000000" font-family="sans-serif" font-size="8.06" lengthAdjust="spacing" textLength="57.66" x="1430.96" y="496.927">presented under</text><text fill="#000000" font-family="sans-serif" font-size="8.06" lengthAdjust="spacing" textLength="3.1" x="1390.0733" y="508.3318">*</text><text fill="#000000" font-family="sans-serif" font-size="8.06" lengthAdjust="spacing" textLength="4.34" x="1498.4878" y="508.0325">1</text><!--MD5=[8aaf0efd5e2f3824be7ea3e488dcc283]
link TestType to ParameterCategory--><path codeLine="195" d="M1184.0326,427.7132 C1214.0344,428.1286 1255.7542,429.691 1292.08,434.62 C1369.3506,445.1042 1456.9566,469.7802 1507.6974,485.3856 " fill="none" id="TestType-ParameterCategory" style="stroke:#A80036;stroke-width:0.62;"/><polygon fill="#000000" points="1328.9219,432.7928,1323.7206,430.0152,1323.0813,433.6029,1328.9219,432.7928" style="stroke:#000000;stroke-width:0.62;"/><text fill="#000000" font-family="sans-serif" font-size="8.06" lengthAdjust="spacing" textLength="59.52" x="1331.45" y="435.547">characterized by</text><text fill="#000000" font-family="sans-serif" font-size="8.06" lengthAdjust="spacing" textLength="4.34" x="1188.7951" y="436.6418">1</text><text fill="#000000" font-family="sans-serif" font-size="8.06" lengthAdjust="spacing" textLength="12.4" x="1490.4314" y="492.9116">1..*</text><!--MD5=[63d25d625ab355317a074a623d33bba8]
link Report to Test--><path codeLine="196" d="M561.782,590.9468 C611.785,586.6998 739.3624,575.8684 805.8388,570.2202 " fill="none" id="Report-Test" style="stroke:#A80036;stroke-width:0.62;"/><polygon fill="#000000" points="682.9189,572.7267,677.1769,571.3856,677.4852,575.0168,682.9189,572.7267" style="stroke:#000000;stroke-width:0.62;"/><text fill="#000000" font-family="sans-serif" font-size="8.06" lengthAdjust="spacing" textLength="14.88" x="685.41" y="576.287">is of</text><text fill="#000000" font-family="sans-serif" font-size="8.06" lengthAdjust="spacing" textLength="4.34" x="566.654" y="599.9935">1</text><text fill="#000000" font-family="sans-serif" font-size="8.06" lengthAdjust="spacing" textLength="4.34" x="796.6326" y="579.5283">1</text><!--MD5=[2eb961b30663a01bbfd8b4b9b8950031]
link ClinicalAnalysisLaboratory to TestType--><path codeLine="197" d="M903.0796,441.9422 C960.4544,438.5446 1049.6166,433.2684 1101.2626,430.2118 " fill="none" id="ClinicalAnalysisLaboratory-TestType" style="stroke:#A80036;stroke-width:0.62;"/><polygon fill="#000000" points="1006.8746,427.7258,1001.1688,426.2382,1001.3841,429.8761,1006.8746,427.7258" style="stroke:#000000;stroke-width:0.62;"/><text fill="#000000" font-family="sans-serif" font-size="8.06" lengthAdjust="spacing" textLength="31" x="1009.36" y="431.207">operates</text><text fill="#000000" font-family="sans-serif" font-size="8.06" lengthAdjust="spacing" textLength="4.34" x="907.9857" y="450.4726">1</text><text fill="#000000" font-family="sans-serif" font-size="8.06" lengthAdjust="spacing" textLength="12.4" x="1083.9541" y="439.366">1..*</text><!--MD5=[f1ce0d3e80ffafd9eea6d82373c24c8b]
@startuml
skinparam classAttributeIconSize 0
left to right direction


package UI <<Folder>> {
  class CreateTestUI{
  }
}


package Domain <<Folder>> {
    package Model <<Folder>> {
        class Report{}

        class ClinicalAnalysisLaboratory{
        - laboratoryID
        }

        class TestParameter{
            +TestParameter(parameter: Parameter)
        }
        class TestParameterResult{
        - createdAt
        - value
        - metric
        }
        class TestType {
        - code : String
        - description : String
        - collectingMethod : String
        }

        class Test{
            - code
            - NhsCode
            - dateOfTestRegistration
            - dateOfSamplesCollection
            - dateOfChemicalAnalysis
            - dateOfDiagnosis
        }

        class Sample{
            - barCode
        }

        class Parameter {
          -code
          -shortName
          -description
        }

        class Company {
            -designation : String
            +getTestTypeStore()
            +getParameterStore()
            +getTestStore()
        }

        class ParameterCategory{
            -code
            -name
        }
        class Client{
        - name
        - citizenCardNum
        - nhsNum
        - birthDate
        - sex
        - taxIdNum
        - phoneNum
        - email
        }

    }
    package Stores <<Folder>> {
        class ParameterStore {
            +getParamsByCategories(List<String> selectedCategoriesCodes)
            +getParamsByCategory(String category)
        }

        class TestTypeStore {
               +getTestTypes()
               +getTestTypeByCode(String code)
               +getCategoriesByTestTypeCode(String selectedTestTypeCode)
            }

    class ClientStore {
       +getClientByTinNumber(tinNumber)
    }


        class TestStore {
            +createTest(String NHScode, Client associatedClient,\n TestType selectedTestType, List<Parameter>selectedParamsList)
            +validateTest(test)
            +saveTest(test)
        }

    }
}

package Controller <<Folder>>{
    class CreateTestControler{
    +createTest(NHScode, citizenCardNumber,selectedTestTypeCode, selectedParamCodes)
    +saveTest(test)
    +getTestTypes() : TestTypeDTO
    +getCategoriesListOfTestType(selectedTestTypeCode): CategoriesDTO
    +getParametersOfCategories(selectedCategoriesCodes): ParametersDTO
    }
}

package DTO <<Folder>>{
    class TestTypeDTO {
    -code
    -description
    -collectingMethod
    -List<Category> selectedCategories
    +TestTypeDTO(code, description, collectingMethod, selectedCategories)
    }

    class CategoryDto {
    -code
    -name
    +CategoryDto(code, name)
    }

    class ParameterDTO {
    -code
    -shortName
    -description
    -ParameterCategory
    +ParameterDTO(code, shortName, description, ParameterCategory)'
    }

}

package Mappers <<Folder>>{
    class TestTypeMapper {
        +List<TestTypeDTO> toDTO(List<TestType> testTypes)
        +TestTypeDTO toDTO(TestType tt)
    }
    class CategoryMapper{
        +List<CategoryDto> toDTO(List<Category> parameterCategories)
        +CategoryDto toDTO(Category category)
    }
    class ParameterMapper {
        +List<ParameterDTO> toDTO(List<Parameter> parameters)
        +ParameterDTO toDTO(Parameter parameter)
    }

}

Client -[hidden]-|> Test
CreateTestControler -[hidden]-|> Test
ClinicalAnalysisLaboratory -[hidden]-|> Test

CreateTestUI ..> CreateTestControler
CreateTestUI ..> CategoryDto
CreateTestUI ..> ParameterDTO
CreateTestUI ..> TestTypeDTO
CategoryMapper ..> CategoryDto
CategoryMapper ..> ParameterCategory
ParameterMapper ..> ParameterDTO
ParameterMapper ..> Parameter
TestTypeMapper ..> TestTypeDTO
TestTypeMapper ..> TestType
CreateTestControler ..> Company
CreateTestControler ..> CategoryMapper
CreateTestControler ..> CategoryDto
CreateTestControler ..> ParameterMapper
CreateTestControler ..> ParameterDTO
CreateTestControler ..> TestTypeMapper
CreateTestControler ..> TestTypeDTO
CreateTestControler ..> ParameterStore
CreateTestControler ..> TestTypeStore
CreateTestControler ..> TestStore
TestTypeStore "1" - - "*" TestType : stores >
ClientStore "1" - - "*" Client : stores >
TestStore "1" - - "*" Test : stores >
ParameterStore "1" - - "*" Parameter : stores >
Company "1" - - "1" ParameterStore : uses >
Company "1" - - "1" TestTypeStore : uses >
Company "1" - - "1" TestStore : uses >
Company "1" - - "1" ClientStore : uses >
TestType "1" - - "1..*" Parameter : characterized by >
Company "1" - - "*" TestType : conducts >
Company "1" - - "*" Test : conducts >
Company "1" - - "*" Parameter : capable of analysing >
Test "*" - - "1" TestType : classified as >
Test "1" - - "1..*" TestParameter : requests analysis of >
TestParameter "*" - - "1" Parameter : refers to >
TestParameter "1" - - "0..1" TestParameterResult : contains >
Test "1" - - "1..*" Sample : collects >
Client "1" - - "1" Test : requested by <
Parameter "*" - - "1" ParameterCategory: presented under >
TestType "1" - - "1..*" ParameterCategory : characterized by >
Report "1" - - "1" Test : is of >
ClinicalAnalysisLaboratory "1" - "1..*" TestType : operates >
ClinicalAnalysisLaboratory "1" - "1..*" Test : performs >

@enduml

PlantUML version 1.2021.00(Sun Jan 10 10:25:05 GMT 2021)
(GPL source distribution)
Java Runtime: OpenJDK Runtime Environment
JVM: OpenJDK 64-Bit Server VM
Default Encoding: Cp1252
Language: pt
Country: BR
--></g></svg>