<?xml version="1.0" encoding="UTF-8" standalone="no"?><svg xmlns="http://www.w3.org/2000/svg" xmlns:xlink="http://www.w3.org/1999/xlink" contentScriptType="application/ecmascript" contentStyleType="text/css" height="507.5px" preserveAspectRatio="none" style="width:1415px;height:507px;" version="1.1" viewBox="0 0 1415 507" width="1415px" zoomAndPan="magnify"><defs><filter height="300%" id="f1oz06zeq14o22" width="300%" x="-1" y="-1"><feGaussianBlur result="blurOut" stdDeviation="2.5"/><feColorMatrix in="blurOut" result="blurOut2" type="matrix" values="0 0 0 0 0 0 0 0 0 0 0 0 0 0 0 0 0 0 .4 0"/><feOffset dx="5.0" dy="5.0" in="blurOut2" result="blurOut3"/><feBlend in="SourceGraphic" in2="blurOut3" mode="normal"/></filter></defs><g><!--MD5=[d8d925ad186e7c5129475d84e6fdc606]
class FinalResult--><rect codeLine="7" fill="#FEFECE" filter="url(#f1oz06zeq14o22)" height="40" id="FinalResult" style="stroke:#A80036;stroke-width:1.875;" width="118.75" x="247.5" y="8.75"/><ellipse cx="266.25" cy="28.75" fill="#ADD1B2" rx="13.75" ry="13.75" style="stroke:#A80036;stroke-width:1.25;"/><path d="M268.75,24.375 Q269.0039,23.75 269.2969,23.4375 Q269.5898,23.125 269.9219,23.125 Q270.5078,23.125 270.8789,23.4766 Q271.25,23.8281 271.25,24.6484 L271.25,26.6016 Q271.25,27.4219 270.8984,27.7734 Q270.5469,28.125 270,28.125 Q269.5117,28.125 269.1992,27.9102 Q268.8867,27.6953 268.75,27.1289 Q268.6914,26.7383 268.4766,26.5234 Q268.0859,26.1133 267.3828,25.8789 Q266.6797,25.625 265.9766,25.625 Q265.0977,25.625 264.3555,25.9766 Q263.6328,26.3281 263.0664,27.1094 Q262.5,27.8906 262.5,28.9648 L262.5,30.1172 Q262.5,31.4063 263.5547,32.2656 Q264.6094,33.125 266.4844,33.125 Q267.5977,33.125 268.3789,32.8711 Q268.8281,32.7344 269.3359,32.2852 Q269.668,32.0313 269.8438,31.9531 Q270.0195,31.875 270.2344,31.875 Q270.6445,31.875 270.9375,32.207 Q271.25,32.5195 271.25,32.9688 Q271.25,33.3984 270.8203,33.9063 Q270.1953,34.6484 269.1992,35.0586 Q267.8906,35.625 266.2891,35.625 Q264.4141,35.625 262.9102,34.8828 Q261.6992,34.2969 260.8398,33.0273 Q260,31.7578 260,30.2539 L260,28.8867 Q260,27.3242 260.7422,25.957 Q261.5039,24.5898 262.8125,23.8672 Q264.1406,23.125 265.625,23.125 Q266.5234,23.125 267.3047,23.4375 Q268.0859,23.75 268.75,24.375 Z " fill="#000000"/><text fill="#000000" font-family="sans-serif" font-size="15" lengthAdjust="spacing" textLength="78.75" x="283.75" y="34.8877">FinalResult</text><!--MD5=[f00dbe8c0302c6aec2cb26b3c659c8fc]
class Report--><rect codeLine="13" fill="#FEFECE" filter="url(#f1oz06zeq14o22)" height="40" id="Report" style="stroke:#A80036;stroke-width:1.875;" width="86.25" x="8.75" y="95"/><ellipse cx="27.5" cy="115" fill="#ADD1B2" rx="13.75" ry="13.75" style="stroke:#A80036;stroke-width:1.25;"/><path d="M30,110.625 Q30.2539,110 30.5469,109.6875 Q30.8398,109.375 31.1719,109.375 Q31.7578,109.375 32.1289,109.7266 Q32.5,110.0781 32.5,110.8984 L32.5,112.8516 Q32.5,113.6719 32.1484,114.0234 Q31.7969,114.375 31.25,114.375 Q30.7617,114.375 30.4492,114.1602 Q30.1367,113.9453 30,113.3789 Q29.9414,112.9883 29.7266,112.7734 Q29.3359,112.3633 28.6328,112.1289 Q27.9297,111.875 27.2266,111.875 Q26.3477,111.875 25.6055,112.2266 Q24.8828,112.5781 24.3164,113.3594 Q23.75,114.1406 23.75,115.2148 L23.75,116.3672 Q23.75,117.6563 24.8047,118.5156 Q25.8594,119.375 27.7344,119.375 Q28.8477,119.375 29.6289,119.1211 Q30.0781,118.9844 30.5859,118.5352 Q30.918,118.2813 31.0938,118.2031 Q31.2695,118.125 31.4844,118.125 Q31.8945,118.125 32.1875,118.457 Q32.5,118.7695 32.5,119.2188 Q32.5,119.6484 32.0703,120.1563 Q31.4453,120.8984 30.4492,121.3086 Q29.1406,121.875 27.5391,121.875 Q25.6641,121.875 24.1602,121.1328 Q22.9492,120.5469 22.0898,119.2773 Q21.25,118.0078 21.25,116.5039 L21.25,115.1367 Q21.25,113.5742 21.9922,112.207 Q22.7539,110.8398 24.0625,110.1172 Q25.3906,109.375 26.875,109.375 Q27.7734,109.375 28.5547,109.6875 Q29.3359,110 30,110.625 Z " fill="#000000"/><text fill="#000000" font-family="sans-serif" font-size="15" lengthAdjust="spacing" textLength="46.25" x="45" y="121.1377">Report</text><!--MD5=[7d96fd15f3014691d2fcaf89c5791e2a]
class SpecialistDoctor--><rect codeLine="15" fill="#FEFECE" filter="url(#f1oz06zeq14o22)" height="67.2949" id="SpecialistDoctor" style="stroke:#A80036;stroke-width:1.875;" width="152.5" x="605" y="86.25"/><ellipse cx="623.75" cy="106.25" fill="#ADD1B2" rx="13.75" ry="13.75" style="stroke:#A80036;stroke-width:1.25;"/><path d="M626.25,101.875 Q626.5039,101.25 626.7969,100.9375 Q627.0898,100.625 627.4219,100.625 Q628.0078,100.625 628.3789,100.9766 Q628.75,101.3281 628.75,102.1484 L628.75,104.1016 Q628.75,104.9219 628.3984,105.2734 Q628.0469,105.625 627.5,105.625 Q627.0117,105.625 626.6992,105.4102 Q626.3867,105.1953 626.25,104.6289 Q626.1914,104.2383 625.9766,104.0234 Q625.5859,103.6133 624.8828,103.3789 Q624.1797,103.125 623.4766,103.125 Q622.5977,103.125 621.8555,103.4766 Q621.1328,103.8281 620.5664,104.6094 Q620,105.3906 620,106.4648 L620,107.6172 Q620,108.9063 621.0547,109.7656 Q622.1094,110.625 623.9844,110.625 Q625.0977,110.625 625.8789,110.3711 Q626.3281,110.2344 626.8359,109.7852 Q627.168,109.5313 627.3438,109.4531 Q627.5195,109.375 627.7344,109.375 Q628.1445,109.375 628.4375,109.707 Q628.75,110.0195 628.75,110.4688 Q628.75,110.8984 628.3203,111.4063 Q627.6953,112.1484 626.6992,112.5586 Q625.3906,113.125 623.7891,113.125 Q621.9141,113.125 620.4102,112.3828 Q619.1992,111.7969 618.3398,110.5273 Q617.5,109.2578 617.5,107.7539 L617.5,106.3867 Q617.5,104.8242 618.2422,103.457 Q619.0039,102.0898 620.3125,101.3672 Q621.6406,100.625 623.125,100.625 Q624.0234,100.625 624.8047,100.9375 Q625.5859,101.25 626.25,101.875 Z " fill="#000000"/><text fill="#000000" font-family="sans-serif" font-size="15" lengthAdjust="spacing" textLength="112.5" x="641.25" y="112.3877">SpecialistDoctor</text><line style="stroke:#A80036;stroke-width:1.875;" x1="606.25" x2="756.25" y1="126.25" y2="126.25"/><text fill="#000000" font-family="sans-serif" font-size="13.75" lengthAdjust="spacing" textLength="122.5" x="612.5" y="145.5237">-doctorIndexNumber</text><!--MD5=[df38be88ccee13e832d6fafd6288a4ca]
class Test--><rect codeLine="19" fill="#FEFECE" filter="url(#f1oz06zeq14o22)" height="101.8848" id="Test" style="stroke:#A80036;stroke-width:1.875;" width="80" x="266.875" y="202.5"/><ellipse cx="290.125" cy="222.5" fill="#ADD1B2" rx="13.75" ry="13.75" style="stroke:#A80036;stroke-width:1.25;"/><path d="M292.625,218.125 Q292.8789,217.5 293.1719,217.1875 Q293.4648,216.875 293.7969,216.875 Q294.3828,216.875 294.7539,217.2266 Q295.125,217.5781 295.125,218.3984 L295.125,220.3516 Q295.125,221.1719 294.7734,221.5234 Q294.4219,221.875 293.875,221.875 Q293.3867,221.875 293.0742,221.6602 Q292.7617,221.4453 292.625,220.8789 Q292.5664,220.4883 292.3516,220.2734 Q291.9609,219.8633 291.2578,219.6289 Q290.5547,219.375 289.8516,219.375 Q288.9727,219.375 288.2305,219.7266 Q287.5078,220.0781 286.9414,220.8594 Q286.375,221.6406 286.375,222.7148 L286.375,223.8672 Q286.375,225.1563 287.4297,226.0156 Q288.4844,226.875 290.3594,226.875 Q291.4727,226.875 292.2539,226.6211 Q292.7031,226.4844 293.2109,226.0352 Q293.543,225.7813 293.7188,225.7031 Q293.8945,225.625 294.1094,225.625 Q294.5195,225.625 294.8125,225.957 Q295.125,226.2695 295.125,226.7188 Q295.125,227.1484 294.6953,227.6563 Q294.0703,228.3984 293.0742,228.8086 Q291.7656,229.375 290.1641,229.375 Q288.2891,229.375 286.7852,228.6328 Q285.5742,228.0469 284.7148,226.7773 Q283.875,225.5078 283.875,224.0039 L283.875,222.6367 Q283.875,221.0742 284.6172,219.707 Q285.3789,218.3398 286.6875,217.6172 Q288.0156,216.875 289.5,216.875 Q290.3984,216.875 291.1797,217.1875 Q291.9609,217.5 292.625,218.125 Z " fill="#000000"/><text fill="#000000" font-family="sans-serif" font-size="15" lengthAdjust="spacing" textLength="30" x="308.625" y="228.6377">Test</text><line style="stroke:#A80036;stroke-width:1.875;" x1="268.125" x2="345.625" y1="242.5" y2="242.5"/><text fill="#000000" font-family="sans-serif" font-size="13.75" lengthAdjust="spacing" textLength="35" x="274.375" y="261.7737">-code</text><text fill="#000000" font-family="sans-serif" font-size="13.75" lengthAdjust="spacing" textLength="60" x="274.375" y="279.0686">-NhsCode</text><text fill="#000000" font-family="sans-serif" font-size="13.75" lengthAdjust="spacing" textLength="65" x="274.375" y="296.3635">-createdAt</text><!--MD5=[aeb3272166074d8737a70b61b1e71682]
class TestType--><rect codeLine="25" fill="#FEFECE" filter="url(#f1oz06zeq14o22)" height="101.8848" id="TestType" style="stroke:#A80036;stroke-width:1.875;" width="120" x="621.25" y="200"/><ellipse cx="647.875" cy="220" fill="#ADD1B2" rx="13.75" ry="13.75" style="stroke:#A80036;stroke-width:1.25;"/><path d="M650.375,215.625 Q650.6289,215 650.9219,214.6875 Q651.2148,214.375 651.5469,214.375 Q652.1328,214.375 652.5039,214.7266 Q652.875,215.0781 652.875,215.8984 L652.875,217.8516 Q652.875,218.6719 652.5234,219.0234 Q652.1719,219.375 651.625,219.375 Q651.1367,219.375 650.8242,219.1602 Q650.5117,218.9453 650.375,218.3789 Q650.3164,217.9883 650.1016,217.7734 Q649.7109,217.3633 649.0078,217.1289 Q648.3047,216.875 647.6016,216.875 Q646.7227,216.875 645.9805,217.2266 Q645.2578,217.5781 644.6914,218.3594 Q644.125,219.1406 644.125,220.2148 L644.125,221.3672 Q644.125,222.6563 645.1797,223.5156 Q646.2344,224.375 648.1094,224.375 Q649.2227,224.375 650.0039,224.1211 Q650.4531,223.9844 650.9609,223.5352 Q651.293,223.2813 651.4688,223.2031 Q651.6445,223.125 651.8594,223.125 Q652.2695,223.125 652.5625,223.457 Q652.875,223.7695 652.875,224.2188 Q652.875,224.6484 652.4453,225.1563 Q651.8203,225.8984 650.8242,226.3086 Q649.5156,226.875 647.9141,226.875 Q646.0391,226.875 644.5352,226.1328 Q643.3242,225.5469 642.4648,224.2773 Q641.625,223.0078 641.625,221.5039 L641.625,220.1367 Q641.625,218.5742 642.3672,217.207 Q643.1289,215.8398 644.4375,215.1172 Q645.7656,214.375 647.25,214.375 Q648.1484,214.375 648.9297,214.6875 Q649.7109,215 650.375,215.625 Z " fill="#000000"/><text fill="#000000" font-family="sans-serif" font-size="15" lengthAdjust="spacing" textLength="62.5" x="667.125" y="226.1377">TestType</text><line style="stroke:#A80036;stroke-width:1.875;" x1="622.5" x2="740" y1="240" y2="240"/><text fill="#000000" font-family="sans-serif" font-size="13.75" lengthAdjust="spacing" textLength="35" x="628.75" y="259.2737">-code</text><text fill="#000000" font-family="sans-serif" font-size="13.75" lengthAdjust="spacing" textLength="71.25" x="628.75" y="276.5686">-description</text><text fill="#000000" font-family="sans-serif" font-size="13.75" lengthAdjust="spacing" textLength="105" x="628.75" y="293.8635">-collectingMethod</text><!--MD5=[0f07739f46effee96e095e9c408da841]
class TestParameter--><rect codeLine="31" fill="#FEFECE" filter="url(#f1oz06zeq14o22)" height="40" id="TestParameter" style="stroke:#A80036;stroke-width:1.875;" width="142.5" x="610" y="346.25"/><ellipse cx="628.75" cy="366.25" fill="#ADD1B2" rx="13.75" ry="13.75" style="stroke:#A80036;stroke-width:1.25;"/><path d="M631.25,361.875 Q631.5039,361.25 631.7969,360.9375 Q632.0898,360.625 632.4219,360.625 Q633.0078,360.625 633.3789,360.9766 Q633.75,361.3281 633.75,362.1484 L633.75,364.1016 Q633.75,364.9219 633.3984,365.2734 Q633.0469,365.625 632.5,365.625 Q632.0117,365.625 631.6992,365.4102 Q631.3867,365.1953 631.25,364.6289 Q631.1914,364.2383 630.9766,364.0234 Q630.5859,363.6133 629.8828,363.3789 Q629.1797,363.125 628.4766,363.125 Q627.5977,363.125 626.8555,363.4766 Q626.1328,363.8281 625.5664,364.6094 Q625,365.3906 625,366.4648 L625,367.6172 Q625,368.9063 626.0547,369.7656 Q627.1094,370.625 628.9844,370.625 Q630.0977,370.625 630.8789,370.3711 Q631.3281,370.2344 631.8359,369.7852 Q632.168,369.5313 632.3438,369.4531 Q632.5195,369.375 632.7344,369.375 Q633.1445,369.375 633.4375,369.707 Q633.75,370.0195 633.75,370.4688 Q633.75,370.8984 633.3203,371.4063 Q632.6953,372.1484 631.6992,372.5586 Q630.3906,373.125 628.7891,373.125 Q626.9141,373.125 625.4102,372.3828 Q624.1992,371.7969 623.3398,370.5273 Q622.5,369.2578 622.5,367.7539 L622.5,366.3867 Q622.5,364.8242 623.2422,363.457 Q624.0039,362.0898 625.3125,361.3672 Q626.6406,360.625 628.125,360.625 Q629.0234,360.625 629.8047,360.9375 Q630.5859,361.25 631.25,361.875 Z " fill="#000000"/><text fill="#000000" font-family="sans-serif" font-size="15" lengthAdjust="spacing" textLength="102.5" x="646.25" y="372.3877">TestParameter</text><!--MD5=[1f6362a5c8f21d8d6a0fce68f3a92a4e]
class Parameter--><rect codeLine="33" fill="#FEFECE" filter="url(#f1oz06zeq14o22)" height="101.8848" id="Parameter" style="stroke:#A80036;stroke-width:1.875;" width="112.5" x="950" y="242.5"/><ellipse cx="968.75" cy="262.5" fill="#ADD1B2" rx="13.75" ry="13.75" style="stroke:#A80036;stroke-width:1.25;"/><path d="M971.25,258.125 Q971.5039,257.5 971.7969,257.1875 Q972.0898,256.875 972.4219,256.875 Q973.0078,256.875 973.3789,257.2266 Q973.75,257.5781 973.75,258.3984 L973.75,260.3516 Q973.75,261.1719 973.3984,261.5234 Q973.0469,261.875 972.5,261.875 Q972.0117,261.875 971.6992,261.6602 Q971.3867,261.4453 971.25,260.8789 Q971.1914,260.4883 970.9766,260.2734 Q970.5859,259.8633 969.8828,259.6289 Q969.1797,259.375 968.4766,259.375 Q967.5977,259.375 966.8555,259.7266 Q966.1328,260.0781 965.5664,260.8594 Q965,261.6406 965,262.7148 L965,263.8672 Q965,265.1563 966.0547,266.0156 Q967.1094,266.875 968.9844,266.875 Q970.0977,266.875 970.8789,266.6211 Q971.3281,266.4844 971.8359,266.0352 Q972.168,265.7813 972.3438,265.7031 Q972.5195,265.625 972.7344,265.625 Q973.1445,265.625 973.4375,265.957 Q973.75,266.2695 973.75,266.7188 Q973.75,267.1484 973.3203,267.6563 Q972.6953,268.3984 971.6992,268.8086 Q970.3906,269.375 968.7891,269.375 Q966.9141,269.375 965.4102,268.6328 Q964.1992,268.0469 963.3398,266.7773 Q962.5,265.5078 962.5,264.0039 L962.5,262.6367 Q962.5,261.0742 963.2422,259.707 Q964.0039,258.3398 965.3125,257.6172 Q966.6406,256.875 968.125,256.875 Q969.0234,256.875 969.8047,257.1875 Q970.5859,257.5 971.25,258.125 Z " fill="#000000"/><text fill="#000000" font-family="sans-serif" font-size="15" lengthAdjust="spacing" textLength="72.5" x="986.25" y="268.6377">Parameter</text><line style="stroke:#A80036;stroke-width:1.875;" x1="951.25" x2="1061.25" y1="282.5" y2="282.5"/><text fill="#000000" font-family="sans-serif" font-size="13.75" lengthAdjust="spacing" textLength="35" x="957.5" y="301.7737">-code</text><text fill="#000000" font-family="sans-serif" font-size="13.75" lengthAdjust="spacing" textLength="70" x="957.5" y="319.0686">-shortName</text><text fill="#000000" font-family="sans-serif" font-size="13.75" lengthAdjust="spacing" textLength="71.25" x="957.5" y="336.3635">-description</text><!--MD5=[4e608140b854dae633589343bce77383]
class TestParameterResult--><rect codeLine="39" fill="#FEFECE" filter="url(#f1oz06zeq14o22)" height="101.8848" id="TestParameterResult" style="stroke:#A80036;stroke-width:1.875;" width="187.5" x="912.5" y="388.75"/><ellipse cx="931.25" cy="408.75" fill="#ADD1B2" rx="13.75" ry="13.75" style="stroke:#A80036;stroke-width:1.25;"/><path d="M933.75,404.375 Q934.0039,403.75 934.2969,403.4375 Q934.5898,403.125 934.9219,403.125 Q935.5078,403.125 935.8789,403.4766 Q936.25,403.8281 936.25,404.6484 L936.25,406.6016 Q936.25,407.4219 935.8984,407.7734 Q935.5469,408.125 935,408.125 Q934.5117,408.125 934.1992,407.9102 Q933.8867,407.6953 933.75,407.1289 Q933.6914,406.7383 933.4766,406.5234 Q933.0859,406.1133 932.3828,405.8789 Q931.6797,405.625 930.9766,405.625 Q930.0977,405.625 929.3555,405.9766 Q928.6328,406.3281 928.0664,407.1094 Q927.5,407.8906 927.5,408.9648 L927.5,410.1172 Q927.5,411.4063 928.5547,412.2656 Q929.6094,413.125 931.4844,413.125 Q932.5977,413.125 933.3789,412.8711 Q933.8281,412.7344 934.3359,412.2852 Q934.668,412.0313 934.8438,411.9531 Q935.0195,411.875 935.2344,411.875 Q935.6445,411.875 935.9375,412.207 Q936.25,412.5195 936.25,412.9688 Q936.25,413.3984 935.8203,413.9063 Q935.1953,414.6484 934.1992,415.0586 Q932.8906,415.625 931.2891,415.625 Q929.4141,415.625 927.9102,414.8828 Q926.6992,414.2969 925.8398,413.0273 Q925,411.7578 925,410.2539 L925,408.8867 Q925,407.3242 925.7422,405.957 Q926.5039,404.5898 927.8125,403.8672 Q929.1406,403.125 930.625,403.125 Q931.5234,403.125 932.3047,403.4375 Q933.0859,403.75 933.75,404.375 Z " fill="#000000"/><text fill="#000000" font-family="sans-serif" font-size="15" lengthAdjust="spacing" textLength="147.5" x="948.75" y="414.8877">TestParameterResult</text><line style="stroke:#A80036;stroke-width:1.875;" x1="913.75" x2="1098.75" y1="428.75" y2="428.75"/><text fill="#000000" font-family="sans-serif" font-size="13.75" lengthAdjust="spacing" textLength="65" x="920" y="448.0237">-createdAt</text><text fill="#000000" font-family="sans-serif" font-size="13.75" lengthAdjust="spacing" textLength="37.5" x="920" y="465.3186">-value</text><text fill="#000000" font-family="sans-serif" font-size="13.75" lengthAdjust="spacing" textLength="41.25" x="920" y="482.6135">-metric</text><!--MD5=[1c357e7e7fdba398bcadd6e61afe49f5]
class ReferenceValue--><rect codeLine="45" fill="#FEFECE" filter="url(#f1oz06zeq14o22)" height="40" id="ReferenceValue" style="stroke:#A80036;stroke-width:1.875;" width="150" x="1247.5" y="420"/><ellipse cx="1266.25" cy="440" fill="#ADD1B2" rx="13.75" ry="13.75" style="stroke:#A80036;stroke-width:1.25;"/><path d="M1268.75,435.625 Q1269.0039,435 1269.2969,434.6875 Q1269.5898,434.375 1269.9219,434.375 Q1270.5078,434.375 1270.8789,434.7266 Q1271.25,435.0781 1271.25,435.8984 L1271.25,437.8516 Q1271.25,438.6719 1270.8984,439.0234 Q1270.5469,439.375 1270,439.375 Q1269.5117,439.375 1269.1992,439.1602 Q1268.8867,438.9453 1268.75,438.3789 Q1268.6914,437.9883 1268.4766,437.7734 Q1268.0859,437.3633 1267.3828,437.1289 Q1266.6797,436.875 1265.9766,436.875 Q1265.0977,436.875 1264.3555,437.2266 Q1263.6328,437.5781 1263.0664,438.3594 Q1262.5,439.1406 1262.5,440.2148 L1262.5,441.3672 Q1262.5,442.6563 1263.5547,443.5156 Q1264.6094,444.375 1266.4844,444.375 Q1267.5977,444.375 1268.3789,444.1211 Q1268.8281,443.9844 1269.3359,443.5352 Q1269.668,443.2813 1269.8438,443.2031 Q1270.0195,443.125 1270.2344,443.125 Q1270.6445,443.125 1270.9375,443.457 Q1271.25,443.7695 1271.25,444.2188 Q1271.25,444.6484 1270.8203,445.1563 Q1270.1953,445.8984 1269.1992,446.3086 Q1267.8906,446.875 1266.2891,446.875 Q1264.4141,446.875 1262.9102,446.1328 Q1261.6992,445.5469 1260.8398,444.2773 Q1260,443.0078 1260,441.5039 L1260,440.1367 Q1260,438.5742 1260.7422,437.207 Q1261.5039,435.8398 1262.8125,435.1172 Q1264.1406,434.375 1265.625,434.375 Q1266.5234,434.375 1267.3047,434.6875 Q1268.0859,435 1268.75,435.625 Z " fill="#000000"/><text fill="#000000" font-family="sans-serif" font-size="15" lengthAdjust="spacing" textLength="110" x="1283.75" y="446.1377">ReferenceValue</text><!--MD5=[8d0bccfbae9ec22455d5aa0bc41dfc57]
link Test to SpecialistDoctor--><path codeLine="48" d="M347.075,239.575 C364.375,233.3875 385.025,226.1625 403.75,220 C476.0375,196.225 496.2125,196.6125 567.5,170 C580.5125,165.1375 594.175,159.525 607.3125,153.85 " fill="none" id="Test-SpecialistDoctor" style="stroke:#A80036;stroke-width:1.25;"/><polygon fill="#000000" points="444.6862,157.0143,432.7981,157.0625,435.0969,164.0409,444.6862,157.0143" style="stroke:#000000;stroke-width:1.25;"/><text fill="#000000" font-family="sans-serif" font-size="16.25" lengthAdjust="spacing" textLength="87.5" x="450" y="165.6189">analysed by</text><text fill="#000000" font-family="sans-serif" font-size="16.25" lengthAdjust="spacing" textLength="6.25" x="357.0939" y="230.9754">*</text><text fill="#000000" font-family="sans-serif" font-size="16.25" lengthAdjust="spacing" textLength="8.75" x="586.0814" y="177.7589">1</text><!--MD5=[35c5d5b78cc27fdb07caaeeaa436e174]
link SpecialistDoctor to Report--><path codeLine="50" d="M604.7625,119.4 C471.85,118.3375 199.6875,116.175 95.225,115.3375 " fill="none" id="SpecialistDoctor-Report" style="stroke:#A80036;stroke-width:1.25;"/><polygon fill="#000000" points="276.2502,106.4199,287.5269,110.1836,287.5855,102.8365,276.2502,106.4199" style="stroke:#000000;stroke-width:1.25;"/><text fill="#000000" font-family="sans-serif" font-size="16.25" lengthAdjust="spacing" textLength="42.5" x="293.75" y="113.1189">writes</text><text fill="#000000" font-family="sans-serif" font-size="16.25" lengthAdjust="spacing" textLength="8.75" x="586.1574" y="137.4538">1</text><text fill="#000000" font-family="sans-serif" font-size="16.25" lengthAdjust="spacing" textLength="6.25" x="104.8105" y="134.3838">*</text><!--MD5=[0746d1252defb59e00c29915806bd0ce]
link Report to FinalResult--><path codeLine="52" d="M95.2875,96.9375 C107.2375,92.0375 120.3125,86.875 132.5,82.5 C170.4125,68.8875 213.6875,55.45 247.5,45.4125 " fill="none" id="Report-FinalResult" style="stroke:#A80036;stroke-width:1.25;"/><polygon fill="#000000" points="132.83,48.4737,144.7173,48.3282,142.3615,41.3688,132.83,48.4737" style="stroke:#000000;stroke-width:1.25;"/><text fill="#000000" font-family="sans-serif" font-size="16.25" lengthAdjust="spacing" textLength="58.75" x="150" y="53.1189">receives</text><text fill="#000000" font-family="sans-serif" font-size="16.25" lengthAdjust="spacing" textLength="8.75" x="105.1437" y="112.1888">1</text><text fill="#000000" font-family="sans-serif" font-size="16.25" lengthAdjust="spacing" textLength="8.75" x="228.5898" y="66.5658">1</text><!--MD5=[63d25d625ab355317a074a623d33bba8]
link Report to Test--><path codeLine="53" d="M79.9875,135.175 C95.05,146.075 114.4,159.4375 132.5,170 C177.05,196 230.8875,221.125 266.575,236.95 " fill="none" id="Report-Test" style="stroke:#A80036;stroke-width:1.25;"/><polygon fill="#000000" points="158.6118,161.9626,150.4452,153.3234,146.9269,159.7736,158.6118,161.9626" style="stroke:#000000;stroke-width:1.25;"/><text fill="#000000" font-family="sans-serif" font-size="16.25" lengthAdjust="spacing" textLength="30" x="164.375" y="165.6189">is of</text><text fill="#000000" font-family="sans-serif" font-size="16.25" lengthAdjust="spacing" textLength="8.75" x="78.8038" y="161.7322">1</text><text fill="#000000" font-family="sans-serif" font-size="16.25" lengthAdjust="spacing" textLength="8.75" x="248.0523" y="252.4468">1</text><!--MD5=[e981d4f96c4342412d1e68160b30cf70]
link Test to TestType--><path codeLine="54" d="M347.225,253.4875 C412.575,253.05 544.4,252.1625 621.0625,251.65 " fill="none" id="Test-TestType" style="stroke:#A80036;stroke-width:1.25;"/><polygon fill="#000000" points="473.7499,241.4278,462.4191,237.8301,462.4684,245.1772,473.7499,241.4278" style="stroke:#000000;stroke-width:1.25;"/><text fill="#000000" font-family="sans-serif" font-size="16.25" lengthAdjust="spacing" textLength="30" x="478.75" y="248.1189">is of</text><text fill="#000000" font-family="sans-serif" font-size="16.25" lengthAdjust="spacing" textLength="6.25" x="356.7352" y="272.6018">*</text><text fill="#000000" font-family="sans-serif" font-size="16.25" lengthAdjust="spacing" textLength="8.75" x="602.4264" y="270.1921">1</text><!--MD5=[f24c888dadeb846430474fe80a58922b]
link Test to TestParameter--><path codeLine="55" d="M347.075,267.4375 C364.375,273.4 385.0125,280.3625 403.75,286.25 C473.525,308.2 553.9125,331.225 609.9125,346.9125 " fill="none" id="Test-TestParameter" style="stroke:#A80036;stroke-width:1.25;"/><polygon fill="#000000" points="415.9825,277.0287,406.2233,270.2398,404.0968,277.2727,415.9825,277.0287" style="stroke:#000000;stroke-width:1.25;"/><text fill="#000000" font-family="sans-serif" font-size="16.25" lengthAdjust="spacing" textLength="145" x="421.25" y="281.8689">requests analysis of</text><text fill="#000000" font-family="sans-serif" font-size="16.25" lengthAdjust="spacing" textLength="8.75" x="356.8258" y="289.6034">1</text><text fill="#000000" font-family="sans-serif" font-size="16.25" lengthAdjust="spacing" textLength="25" x="575.2188" y="362.7272">1..*</text><!--MD5=[92e8e476cc9e9004a7125f53a120ec97]
link TestParameter to Parameter--><path codeLine="56" d="M752.875,350.425 C812,337.1375 895.325,318.4125 949.7375,306.175 " fill="none" id="TestParameter-Parameter" style="stroke:#A80036;stroke-width:1.25;"/><polygon fill="#000000" points="808.5979,311.3491,796.7611,310.2444,798.3724,317.4128,808.5979,311.3491" style="stroke:#000000;stroke-width:1.25;"/><text fill="#000000" font-family="sans-serif" font-size="16.25" lengthAdjust="spacing" textLength="58.75" x="813.75" y="319.3689">refers to</text><text fill="#000000" font-family="sans-serif" font-size="16.25" lengthAdjust="spacing" textLength="6.25" x="762.4523" y="366.5757">*</text><text fill="#000000" font-family="sans-serif" font-size="16.25" lengthAdjust="spacing" textLength="8.75" x="931.2836" y="326.7019">1</text><!--MD5=[0e00e25ac6b8c14659aaff2cf7e5df08]
link TestParameter to TestParameterResult--><path codeLine="57" d="M752.875,382.3375 C799.575,393.025 861.3875,407.1625 912.1125,418.7625 " fill="none" id="TestParameter-TestParameterResult" style="stroke:#A80036;stroke-width:1.25;"/><polygon fill="#000000" points="807.3426,382.8634,797.1401,376.7611,795.5018,383.9234,807.3426,382.8634" style="stroke:#000000;stroke-width:1.25;"/><text fill="#000000" font-family="sans-serif" font-size="16.25" lengthAdjust="spacing" textLength="61.25" x="812.5" y="388.1189">contains</text><text fill="#000000" font-family="sans-serif" font-size="16.25" lengthAdjust="spacing" textLength="8.75" x="762.6125" y="402.577">1</text><text fill="#000000" font-family="sans-serif" font-size="16.25" lengthAdjust="spacing" textLength="27.5" x="875.0038" y="434.6775">0..1</text><!--MD5=[52200cc2361fa0ac0481dd6ffcdb824b]
link TestParameterResult to ReferenceValue--><path codeLine="58" d="M1100.3625,440 C1147.1625,440 1203.1375,440 1247.025,440 " fill="none" id="TestParameterResult-ReferenceValue" style="stroke:#A80036;stroke-width:1.25;"/><polygon fill="#000000" points="1150,428.9697,1138.6936,425.2961,1138.6936,432.6434,1150,428.9697" style="stroke:#000000;stroke-width:1.25;"/><text fill="#000000" font-family="sans-serif" font-size="16.25" lengthAdjust="spacing" textLength="53.75" x="1155" y="435.6189">records</text><text fill="#000000" font-family="sans-serif" font-size="16.25" lengthAdjust="spacing" textLength="8.75" x="1110.0574" y="457.9052">1</text><text fill="#000000" font-family="sans-serif" font-size="16.25" lengthAdjust="spacing" textLength="8.75" x="1228.5433" y="458.1144">1</text><!--MD5=[9f31480d46a880f371eb15c45e3d9e89]
@startuml

skinparam classAttributeIconSize 0
hide empty methods
hide empty attributes
left to right direction

class FinalResult{}

'class ChemicalResult{}

'class Diagnosis{}

class Report{}

class SpecialistDoctor{
- doctorIndexNumber
}

class Test{
- code
- NhsCode
- createdAt
}

class TestType{
- code
- description
- collectingMethod
}

class TestParameter{}

class Parameter{
- code
- shortName
- description
}

class TestParameterResult{
- createdAt
- value
- metric
}

class ReferenceValue{}

'ChemicalResult "1" - - "1" Test : presented under >
Test "*" - - "1" SpecialistDoctor : analysed by >
'SpecialistDoctor "1" - - "*" Diagnosis : makes >
SpecialistDoctor "1" - - "*" Report : writes >
'Diagnosis "1" - - "1" FinalResult : receives <
Report "1" - - "1" FinalResult : receives <
Report "1" - - "1" Test : is of >
Test "*" - - "1" TestType : is of >
Test "1" - - "1..*" TestParameter : requests analysis of >
TestParameter "*" - - "1" Parameter : refers to >
TestParameter "1" - - "0..1" TestParameterResult : contains >
TestParameterResult "1" - - "1" ReferenceValue : records >


@enduml

@startuml

skinparam classAttributeIconSize 0
hide empty methods
hide empty attributes
left to right direction

class FinalResult{}



class Report{}

class SpecialistDoctor{
- doctorIndexNumber
}

class Test{
- code
- NhsCode
- createdAt
}

class TestType{
- code
- description
- collectingMethod
}

class TestParameter{}

class Parameter{
- code
- shortName
- description
}

class TestParameterResult{
- createdAt
- value
- metric
}

class ReferenceValue{}

Test "*" - - "1" SpecialistDoctor : analysed by >
SpecialistDoctor "1" - - "*" Report : writes >
Report "1" - - "1" FinalResult : receives <
Report "1" - - "1" Test : is of >
Test "*" - - "1" TestType : is of >
Test "1" - - "1..*" TestParameter : requests analysis of >
TestParameter "*" - - "1" Parameter : refers to >
TestParameter "1" - - "0..1" TestParameterResult : contains >
TestParameterResult "1" - - "1" ReferenceValue : records >


@enduml

PlantUML version 1.2021.5(Sun Apr 25 12:20:28 BST 2021)
(GPL source distribution)
Java Runtime: OpenJDK Runtime Environment
JVM: Dynamic Code Evolution 64-Bit Server VM
Default Encoding: Cp1252
Language: pt
Country: PT
--></g></svg>