<?xml version="1.0" encoding="UTF-8" standalone="no"?><svg xmlns="http://www.w3.org/2000/svg" xmlns:xlink="http://www.w3.org/1999/xlink" contentScriptType="application/ecmascript" contentStyleType="text/css" height="381.25px" preserveAspectRatio="none" style="width:1403px;height:381px;" version="1.1" viewBox="0 0 1403 381" width="1403.75px" zoomAndPan="magnify"><defs><filter height="300%" id="f1el29fs2wnd2m" width="300%" x="-1" y="-1"><feGaussianBlur result="blurOut" stdDeviation="2.5"/><feColorMatrix in="blurOut" result="blurOut2" type="matrix" values="0 0 0 0 0 0 0 0 0 0 0 0 0 0 0 0 0 0 .4 0"/><feOffset dx="5.0" dy="5.0" in="blurOut2" result="blurOut3"/><feBlend in="SourceGraphic" in2="blurOut3" mode="normal"/></filter></defs><g><!--MD5=[02e4b9b7573f1156f41e60aa5b4e25a4]
class Company--><rect codeLine="7" fill="#FEFECE" filter="url(#f1el29fs2wnd2m)" height="67.2949" id="Company" style="stroke:#A80036;stroke-width:1.875;" width="106.25" x="8.75" y="96.9501"/><ellipse cx="27.5" cy="116.9501" fill="#ADD1B2" rx="13.75" ry="13.75" style="stroke:#A80036;stroke-width:1.25;"/><path d="M30,112.5751 Q30.2539,111.9501 30.5469,111.6376 Q30.8398,111.3251 31.1719,111.3251 Q31.7578,111.3251 32.1289,111.6766 Q32.5,112.0282 32.5,112.8485 L32.5,114.8016 Q32.5,115.622 32.1484,115.9735 Q31.7969,116.3251 31.25,116.3251 Q30.7617,116.3251 30.4492,116.1102 Q30.1367,115.8954 30,115.329 Q29.9414,114.9384 29.7266,114.7235 Q29.3359,114.3134 28.6328,114.079 Q27.9297,113.8251 27.2266,113.8251 Q26.3477,113.8251 25.6055,114.1766 Q24.8828,114.5282 24.3164,115.3095 Q23.75,116.0907 23.75,117.1649 L23.75,118.3173 Q23.75,119.6063 24.8047,120.4657 Q25.8594,121.3251 27.7344,121.3251 Q28.8477,121.3251 29.6289,121.0712 Q30.0781,120.9345 30.5859,120.4852 Q30.918,120.2313 31.0938,120.1532 Q31.2695,120.0751 31.4844,120.0751 Q31.8945,120.0751 32.1875,120.4071 Q32.5,120.7196 32.5,121.1688 Q32.5,121.5985 32.0703,122.1063 Q31.4453,122.8485 30.4492,123.2587 Q29.1406,123.8251 27.5391,123.8251 Q25.6641,123.8251 24.1602,123.0829 Q22.9492,122.497 22.0898,121.2274 Q21.25,119.9579 21.25,118.454 L21.25,117.0868 Q21.25,115.5243 21.9922,114.1571 Q22.7539,112.7899 24.0625,112.0673 Q25.3906,111.3251 26.875,111.3251 Q27.7734,111.3251 28.5547,111.6376 Q29.3359,111.9501 30,112.5751 Z " fill="#000000"/><text fill="#000000" font-family="sans-serif" font-size="15" lengthAdjust="spacing" textLength="66.25" x="45" y="123.0878">Company</text><line style="stroke:#A80036;stroke-width:1.875;" x1="10" x2="113.75" y1="136.9501" y2="136.9501"/><text fill="#000000" font-family="sans-serif" font-size="13.75" lengthAdjust="spacing" textLength="73.75" x="16.25" y="156.2238">-designation</text><!--MD5=[f00dbe8c0302c6aec2cb26b3c659c8fc]
class Report--><rect codeLine="17" fill="#FEFECE" filter="url(#f1el29fs2wnd2m)" height="40" id="Report" style="stroke:#A80036;stroke-width:1.875;" width="86.25" x="951.875" y="10.7001"/><ellipse cx="970.625" cy="30.7001" fill="#ADD1B2" rx="13.75" ry="13.75" style="stroke:#A80036;stroke-width:1.25;"/><path d="M973.125,26.3251 Q973.3789,25.7001 973.6719,25.3876 Q973.9648,25.0751 974.2969,25.0751 Q974.8828,25.0751 975.2539,25.4266 Q975.625,25.7782 975.625,26.5985 L975.625,28.5516 Q975.625,29.372 975.2734,29.7235 Q974.9219,30.0751 974.375,30.0751 Q973.8867,30.0751 973.5742,29.8602 Q973.2617,29.6454 973.125,29.079 Q973.0664,28.6884 972.8516,28.4735 Q972.4609,28.0634 971.7578,27.829 Q971.0547,27.5751 970.3516,27.5751 Q969.4727,27.5751 968.7305,27.9266 Q968.0078,28.2782 967.4414,29.0595 Q966.875,29.8407 966.875,30.9149 L966.875,32.0673 Q966.875,33.3563 967.9297,34.2157 Q968.9844,35.0751 970.8594,35.0751 Q971.9727,35.0751 972.7539,34.8212 Q973.2031,34.6845 973.7109,34.2352 Q974.043,33.9813 974.2188,33.9032 Q974.3945,33.8251 974.6094,33.8251 Q975.0195,33.8251 975.3125,34.1571 Q975.625,34.4696 975.625,34.9188 Q975.625,35.3485 975.1953,35.8563 Q974.5703,36.5985 973.5742,37.0087 Q972.2656,37.5751 970.6641,37.5751 Q968.7891,37.5751 967.2852,36.8329 Q966.0742,36.247 965.2148,34.9774 Q964.375,33.7079 964.375,32.204 L964.375,30.8368 Q964.375,29.2743 965.1172,27.9071 Q965.8789,26.5399 967.1875,25.8173 Q968.5156,25.0751 970,25.0751 Q970.8984,25.0751 971.6797,25.3876 Q972.4609,25.7001 973.125,26.3251 Z " fill="#000000"/><text fill="#000000" font-family="sans-serif" font-size="15" lengthAdjust="spacing" textLength="46.25" x="988.125" y="36.8378">Report</text><!--MD5=[7d96fd15f3014691d2fcaf89c5791e2a]
class SpecialistDoctor--><rect codeLine="19" fill="#FEFECE" filter="url(#f1el29fs2wnd2m)" height="67.2949" id="SpecialistDoctor" style="stroke:#A80036;stroke-width:1.875;" width="152.5" x="593.75" y="96.9501"/><ellipse cx="612.5" cy="116.9501" fill="#ADD1B2" rx="13.75" ry="13.75" style="stroke:#A80036;stroke-width:1.25;"/><path d="M615,112.5751 Q615.2539,111.9501 615.5469,111.6376 Q615.8398,111.3251 616.1719,111.3251 Q616.7578,111.3251 617.1289,111.6766 Q617.5,112.0282 617.5,112.8485 L617.5,114.8016 Q617.5,115.622 617.1484,115.9735 Q616.7969,116.3251 616.25,116.3251 Q615.7617,116.3251 615.4492,116.1102 Q615.1367,115.8954 615,115.329 Q614.9414,114.9384 614.7266,114.7235 Q614.3359,114.3134 613.6328,114.079 Q612.9297,113.8251 612.2266,113.8251 Q611.3477,113.8251 610.6055,114.1766 Q609.8828,114.5282 609.3164,115.3095 Q608.75,116.0907 608.75,117.1649 L608.75,118.3173 Q608.75,119.6063 609.8047,120.4657 Q610.8594,121.3251 612.7344,121.3251 Q613.8477,121.3251 614.6289,121.0712 Q615.0781,120.9345 615.5859,120.4852 Q615.918,120.2313 616.0938,120.1532 Q616.2695,120.0751 616.4844,120.0751 Q616.8945,120.0751 617.1875,120.4071 Q617.5,120.7196 617.5,121.1688 Q617.5,121.5985 617.0703,122.1063 Q616.4453,122.8485 615.4492,123.2587 Q614.1406,123.8251 612.5391,123.8251 Q610.6641,123.8251 609.1602,123.0829 Q607.9492,122.497 607.0898,121.2274 Q606.25,119.9579 606.25,118.454 L606.25,117.0868 Q606.25,115.5243 606.9922,114.1571 Q607.7539,112.7899 609.0625,112.0673 Q610.3906,111.3251 611.875,111.3251 Q612.7734,111.3251 613.5547,111.6376 Q614.3359,111.9501 615,112.5751 Z " fill="#000000"/><text fill="#000000" font-family="sans-serif" font-size="15" lengthAdjust="spacing" textLength="112.5" x="630" y="123.0878">SpecialistDoctor</text><line style="stroke:#A80036;stroke-width:1.875;" x1="595" x2="745" y1="136.9501" y2="136.9501"/><text fill="#000000" font-family="sans-serif" font-size="13.75" lengthAdjust="spacing" textLength="122.5" x="601.25" y="156.2238">-doctorIndexNumber</text><!--MD5=[df38be88ccee13e832d6fafd6288a4ca]
class Test--><rect codeLine="23" fill="#FEFECE" filter="url(#f1el29fs2wnd2m)" height="101.8848" id="Test" style="stroke:#A80036;stroke-width:1.875;" width="80" x="275" y="79.4501"/><ellipse cx="298.25" cy="99.4501" fill="#ADD1B2" rx="13.75" ry="13.75" style="stroke:#A80036;stroke-width:1.25;"/><path d="M300.75,95.0751 Q301.0039,94.4501 301.2969,94.1376 Q301.5898,93.8251 301.9219,93.8251 Q302.5078,93.8251 302.8789,94.1766 Q303.25,94.5282 303.25,95.3485 L303.25,97.3016 Q303.25,98.122 302.8984,98.4735 Q302.5469,98.8251 302,98.8251 Q301.5117,98.8251 301.1992,98.6102 Q300.8867,98.3954 300.75,97.829 Q300.6914,97.4384 300.4766,97.2235 Q300.0859,96.8134 299.3828,96.579 Q298.6797,96.3251 297.9766,96.3251 Q297.0977,96.3251 296.3555,96.6766 Q295.6328,97.0282 295.0664,97.8095 Q294.5,98.5907 294.5,99.6649 L294.5,100.8173 Q294.5,102.1063 295.5547,102.9657 Q296.6094,103.8251 298.4844,103.8251 Q299.5977,103.8251 300.3789,103.5712 Q300.8281,103.4345 301.3359,102.9852 Q301.668,102.7313 301.8438,102.6532 Q302.0195,102.5751 302.2344,102.5751 Q302.6445,102.5751 302.9375,102.9071 Q303.25,103.2196 303.25,103.6688 Q303.25,104.0985 302.8203,104.6063 Q302.1953,105.3485 301.1992,105.7587 Q299.8906,106.3251 298.2891,106.3251 Q296.4141,106.3251 294.9102,105.5829 Q293.6992,104.997 292.8398,103.7274 Q292,102.4579 292,100.954 L292,99.5868 Q292,98.0243 292.7422,96.6571 Q293.5039,95.2899 294.8125,94.5673 Q296.1406,93.8251 297.625,93.8251 Q298.5234,93.8251 299.3047,94.1376 Q300.0859,94.4501 300.75,95.0751 Z " fill="#000000"/><text fill="#000000" font-family="sans-serif" font-size="15" lengthAdjust="spacing" textLength="30" x="316.75" y="105.5878">Test</text><line style="stroke:#A80036;stroke-width:1.875;" x1="276.25" x2="353.75" y1="119.4501" y2="119.4501"/><text fill="#000000" font-family="sans-serif" font-size="13.75" lengthAdjust="spacing" textLength="35" x="282.5" y="138.7238">-code</text><text fill="#000000" font-family="sans-serif" font-size="13.75" lengthAdjust="spacing" textLength="60" x="282.5" y="156.0187">-NhsCode</text><text fill="#000000" font-family="sans-serif" font-size="13.75" lengthAdjust="spacing" textLength="65" x="282.5" y="173.3136">-createdAt</text><!--MD5=[0f07739f46effee96e095e9c408da841]
class TestParameter--><rect codeLine="35" fill="#FEFECE" filter="url(#f1el29fs2wnd2m)" height="40" id="TestParameter" style="stroke:#A80036;stroke-width:1.875;" width="142.5" x="598.75" y="208.2001"/><ellipse cx="617.5" cy="228.2001" fill="#ADD1B2" rx="13.75" ry="13.75" style="stroke:#A80036;stroke-width:1.25;"/><path d="M620,223.8251 Q620.2539,223.2001 620.5469,222.8876 Q620.8398,222.5751 621.1719,222.5751 Q621.7578,222.5751 622.1289,222.9266 Q622.5,223.2782 622.5,224.0985 L622.5,226.0516 Q622.5,226.872 622.1484,227.2235 Q621.7969,227.5751 621.25,227.5751 Q620.7617,227.5751 620.4492,227.3602 Q620.1367,227.1454 620,226.579 Q619.9414,226.1884 619.7266,225.9735 Q619.3359,225.5634 618.6328,225.329 Q617.9297,225.0751 617.2266,225.0751 Q616.3477,225.0751 615.6055,225.4266 Q614.8828,225.7782 614.3164,226.5595 Q613.75,227.3407 613.75,228.4149 L613.75,229.5673 Q613.75,230.8563 614.8047,231.7157 Q615.8594,232.5751 617.7344,232.5751 Q618.8477,232.5751 619.6289,232.3212 Q620.0781,232.1845 620.5859,231.7352 Q620.918,231.4813 621.0938,231.4032 Q621.2695,231.3251 621.4844,231.3251 Q621.8945,231.3251 622.1875,231.6571 Q622.5,231.9696 622.5,232.4188 Q622.5,232.8485 622.0703,233.3563 Q621.4453,234.0985 620.4492,234.5087 Q619.1406,235.0751 617.5391,235.0751 Q615.6641,235.0751 614.1602,234.3329 Q612.9492,233.747 612.0898,232.4774 Q611.25,231.2079 611.25,229.704 L611.25,228.3368 Q611.25,226.7743 611.9922,225.4071 Q612.7539,224.0399 614.0625,223.3173 Q615.3906,222.5751 616.875,222.5751 Q617.7734,222.5751 618.5547,222.8876 Q619.3359,223.2001 620,223.8251 Z " fill="#000000"/><text fill="#000000" font-family="sans-serif" font-size="15" lengthAdjust="spacing" textLength="102.5" x="635" y="234.3378">TestParameter</text><!--MD5=[1f6362a5c8f21d8d6a0fce68f3a92a4e]
class Parameter--><rect codeLine="37" fill="#FEFECE" filter="url(#f1el29fs2wnd2m)" height="101.8848" id="Parameter" style="stroke:#A80036;stroke-width:1.875;" width="112.5" x="938.75" y="115.7001"/><ellipse cx="957.5" cy="135.7001" fill="#ADD1B2" rx="13.75" ry="13.75" style="stroke:#A80036;stroke-width:1.25;"/><path d="M960,131.3251 Q960.2539,130.7001 960.5469,130.3876 Q960.8398,130.0751 961.1719,130.0751 Q961.7578,130.0751 962.1289,130.4266 Q962.5,130.7782 962.5,131.5985 L962.5,133.5516 Q962.5,134.372 962.1484,134.7235 Q961.7969,135.0751 961.25,135.0751 Q960.7617,135.0751 960.4492,134.8602 Q960.1367,134.6454 960,134.079 Q959.9414,133.6884 959.7266,133.4735 Q959.3359,133.0634 958.6328,132.829 Q957.9297,132.5751 957.2266,132.5751 Q956.3477,132.5751 955.6055,132.9266 Q954.8828,133.2782 954.3164,134.0595 Q953.75,134.8407 953.75,135.9149 L953.75,137.0673 Q953.75,138.3563 954.8047,139.2157 Q955.8594,140.0751 957.7344,140.0751 Q958.8477,140.0751 959.6289,139.8212 Q960.0781,139.6845 960.5859,139.2352 Q960.918,138.9813 961.0938,138.9032 Q961.2695,138.8251 961.4844,138.8251 Q961.8945,138.8251 962.1875,139.1571 Q962.5,139.4696 962.5,139.9188 Q962.5,140.3485 962.0703,140.8563 Q961.4453,141.5985 960.4492,142.0087 Q959.1406,142.5751 957.5391,142.5751 Q955.6641,142.5751 954.1602,141.8329 Q952.9492,141.247 952.0898,139.9774 Q951.25,138.7079 951.25,137.204 L951.25,135.8368 Q951.25,134.2743 951.9922,132.9071 Q952.7539,131.5399 954.0625,130.8173 Q955.3906,130.0751 956.875,130.0751 Q957.7734,130.0751 958.5547,130.3876 Q959.3359,130.7001 960,131.3251 Z " fill="#000000"/><text fill="#000000" font-family="sans-serif" font-size="15" lengthAdjust="spacing" textLength="72.5" x="975" y="141.8378">Parameter</text><line style="stroke:#A80036;stroke-width:1.875;" x1="940" x2="1050" y1="155.7001" y2="155.7001"/><text fill="#000000" font-family="sans-serif" font-size="13.75" lengthAdjust="spacing" textLength="35" x="946.25" y="174.9738">-code</text><text fill="#000000" font-family="sans-serif" font-size="13.75" lengthAdjust="spacing" textLength="70" x="946.25" y="192.2687">-shortName</text><text fill="#000000" font-family="sans-serif" font-size="13.75" lengthAdjust="spacing" textLength="71.25" x="946.25" y="209.5636">-description</text><!--MD5=[4e608140b854dae633589343bce77383]
class TestParameterResult--><rect codeLine="43" fill="#FEFECE" filter="url(#f1el29fs2wnd2m)" height="101.8848" id="TestParameterResult" style="stroke:#A80036;stroke-width:1.875;" width="187.5" x="901.25" y="261.9501"/><ellipse cx="920" cy="281.9501" fill="#ADD1B2" rx="13.75" ry="13.75" style="stroke:#A80036;stroke-width:1.25;"/><path d="M922.5,277.5751 Q922.7539,276.9501 923.0469,276.6376 Q923.3398,276.3251 923.6719,276.3251 Q924.2578,276.3251 924.6289,276.6766 Q925,277.0282 925,277.8485 L925,279.8016 Q925,280.622 924.6484,280.9735 Q924.2969,281.3251 923.75,281.3251 Q923.2617,281.3251 922.9492,281.1102 Q922.6367,280.8954 922.5,280.329 Q922.4414,279.9384 922.2266,279.7235 Q921.8359,279.3134 921.1328,279.079 Q920.4297,278.8251 919.7266,278.8251 Q918.8477,278.8251 918.1055,279.1766 Q917.3828,279.5282 916.8164,280.3095 Q916.25,281.0907 916.25,282.1649 L916.25,283.3173 Q916.25,284.6063 917.3047,285.4657 Q918.3594,286.3251 920.2344,286.3251 Q921.3477,286.3251 922.1289,286.0712 Q922.5781,285.9345 923.0859,285.4852 Q923.418,285.2313 923.5938,285.1532 Q923.7695,285.0751 923.9844,285.0751 Q924.3945,285.0751 924.6875,285.4071 Q925,285.7196 925,286.1688 Q925,286.5985 924.5703,287.1063 Q923.9453,287.8485 922.9492,288.2587 Q921.6406,288.8251 920.0391,288.8251 Q918.1641,288.8251 916.6602,288.0829 Q915.4492,287.497 914.5898,286.2274 Q913.75,284.9579 913.75,283.454 L913.75,282.0868 Q913.75,280.5243 914.4922,279.1571 Q915.2539,277.7899 916.5625,277.0673 Q917.8906,276.3251 919.375,276.3251 Q920.2734,276.3251 921.0547,276.6376 Q921.8359,276.9501 922.5,277.5751 Z " fill="#000000"/><text fill="#000000" font-family="sans-serif" font-size="15" lengthAdjust="spacing" textLength="147.5" x="937.5" y="288.0878">TestParameterResult</text><line style="stroke:#A80036;stroke-width:1.875;" x1="902.5" x2="1087.5" y1="301.9501" y2="301.9501"/><text fill="#000000" font-family="sans-serif" font-size="13.75" lengthAdjust="spacing" textLength="65" x="908.75" y="321.2238">-createdAt</text><text fill="#000000" font-family="sans-serif" font-size="13.75" lengthAdjust="spacing" textLength="37.5" x="908.75" y="338.5187">-value</text><text fill="#000000" font-family="sans-serif" font-size="13.75" lengthAdjust="spacing" textLength="41.25" x="908.75" y="355.8136">-metric</text><!--MD5=[1c357e7e7fdba398bcadd6e61afe49f5]
class MyReferenceValue--><rect codeLine="49" fill="#FEFECE" filter="url(#f1el29fs2wnd2m)" height="40" id="ReferenceValue" style="stroke:#A80036;stroke-width:1.875;" width="150" x="1236.25" y="293.2001"/><ellipse cx="1255" cy="313.2001" fill="#ADD1B2" rx="13.75" ry="13.75" style="stroke:#A80036;stroke-width:1.25;"/><path d="M1257.5,308.8251 Q1257.7539,308.2001 1258.0469,307.8876 Q1258.3398,307.5751 1258.6719,307.5751 Q1259.2578,307.5751 1259.6289,307.9266 Q1260,308.2782 1260,309.0985 L1260,311.0516 Q1260,311.872 1259.6484,312.2235 Q1259.2969,312.5751 1258.75,312.5751 Q1258.2617,312.5751 1257.9492,312.3602 Q1257.6367,312.1454 1257.5,311.579 Q1257.4414,311.1884 1257.2266,310.9735 Q1256.8359,310.5634 1256.1328,310.329 Q1255.4297,310.0751 1254.7266,310.0751 Q1253.8477,310.0751 1253.1055,310.4266 Q1252.3828,310.7782 1251.8164,311.5595 Q1251.25,312.3407 1251.25,313.4149 L1251.25,314.5673 Q1251.25,315.8563 1252.3047,316.7157 Q1253.3594,317.5751 1255.2344,317.5751 Q1256.3477,317.5751 1257.1289,317.3212 Q1257.5781,317.1845 1258.0859,316.7352 Q1258.418,316.4813 1258.5938,316.4032 Q1258.7695,316.3251 1258.9844,316.3251 Q1259.3945,316.3251 1259.6875,316.6571 Q1260,316.9696 1260,317.4188 Q1260,317.8485 1259.5703,318.3563 Q1258.9453,319.0985 1257.9492,319.5087 Q1256.6406,320.0751 1255.0391,320.0751 Q1253.1641,320.0751 1251.6602,319.3329 Q1250.4492,318.747 1249.5898,317.4774 Q1248.75,316.2079 1248.75,314.704 L1248.75,313.3368 Q1248.75,311.7743 1249.4922,310.4071 Q1250.2539,309.0399 1251.5625,308.3173 Q1252.8906,307.5751 1254.375,307.5751 Q1255.2734,307.5751 1256.0547,307.8876 Q1256.8359,308.2001 1257.5,308.8251 Z " fill="#000000"/><text fill="#000000" font-family="sans-serif" font-size="15" lengthAdjust="spacing" textLength="110" x="1272.5" y="319.3378">ReferenceValue</text><!--MD5=[7e4bc624457760b649895ff2ead938fa]
link Company to Test--><path codeLine="51" d="M115.05,130.7001 C162.65,130.7001 232.075,130.7001 274.9875,130.7001 " fill="none" id="Company-Test" style="stroke:#A80036;stroke-width:1.25;"/><polygon fill="#000000" points="165,119.6698,153.6936,115.9962,153.6936,123.3435,165,119.6698" style="stroke:#000000;stroke-width:1.25;"/><text fill="#000000" font-family="sans-serif" font-size="16.25" lengthAdjust="spacing" textLength="66.25" x="170" y="126.319">conducts</text><text fill="#000000" font-family="sans-serif" font-size="16.25" lengthAdjust="spacing" textLength="8.75" x="124.9414" y="149.3431">1</text><text fill="#000000" font-family="sans-serif" font-size="16.25" lengthAdjust="spacing" textLength="6.25" x="258.762" y="150.0034">*</text><!--MD5=[8d0bccfbae9ec22455d5aa0bc41dfc57]
link Test to SpecialistDoctor--><path codeLine="53" d="M355.325,130.7001 C412.5875,130.7001 520.4375,130.7001 593.4375,130.7001 " fill="none" id="Test-SpecialistDoctor" style="stroke:#A80036;stroke-width:1.25;"/><polygon fill="#000000" points="433.75,119.6698,422.4436,115.9962,422.4436,123.3435,433.75,119.6698" style="stroke:#000000;stroke-width:1.25;"/><text fill="#000000" font-family="sans-serif" font-size="16.25" lengthAdjust="spacing" textLength="87.5" x="438.75" y="126.319">analysed by</text><text fill="#000000" font-family="sans-serif" font-size="16.25" lengthAdjust="spacing" textLength="6.25" x="364.8297" y="131.5906">*</text><text fill="#000000" font-family="sans-serif" font-size="16.25" lengthAdjust="spacing" textLength="8.75" x="574.8232" y="148.827">1</text><!--MD5=[35c5d5b78cc27fdb07caaeeaa436e174]
link SpecialistDoctor to Report--><path codeLine="55" d="M746.45,107.3751 C810.3,87.5876 899.5875,59.9001 951.575,43.7751 " fill="none" id="SpecialistDoctor-Report" style="stroke:#A80036;stroke-width:1.25;"/><polygon fill="#000000" points="805.3446,59.0689,793.4575,58.9084,795.6334,65.9261,805.3446,59.0689" style="stroke:#000000;stroke-width:1.25;"/><text fill="#000000" font-family="sans-serif" font-size="16.25" lengthAdjust="spacing" textLength="42.5" x="810.625" y="67.569">writes</text><text fill="#000000" font-family="sans-serif" font-size="16.25" lengthAdjust="spacing" textLength="8.75" x="756.3005" y="122.6593">1</text><text fill="#000000" font-family="sans-serif" font-size="16.25" lengthAdjust="spacing" textLength="6.25" x="935.7241" y="65.4485">*</text><!--MD5=[63d25d625ab355317a074a623d33bba8]
link Report to Test--><path codeLine="58" d="M951.825,31.1251 C909.375,31.8626 841.875,33.8876 783.75,39.4501 C608.7125,56.1876 561.6875,50.2876 392.5,98.2001 C380.0375,101.7251 366.9125,106.7876 355.1375,111.8751 " fill="none" id="Report-Test" style="stroke:#A80036;stroke-width:1.25;"/><polygon fill="#000000" points="645.6815,33.008,657.3783,35.1322,656.393,27.8512,645.6815,33.008" style="stroke:#000000;stroke-width:1.25;"/><text fill="#000000" font-family="sans-serif" font-size="16.25" lengthAdjust="spacing" textLength="30" x="663.125" y="38.819">is of</text><text fill="#000000" font-family="sans-serif" font-size="16.25" lengthAdjust="spacing" textLength="8.75" x="933.2678" y="26.0645">1</text><text fill="#000000" font-family="sans-serif" font-size="16.25" lengthAdjust="spacing" textLength="8.75" x="364.8746" y="102.5539">1</text><!--MD5=[f24c888dadeb846430474fe80a58922b]
link Test to TestParameter--><path codeLine="60" d="M355.325,148.8876 C367.1125,153.9501 380.2,159.1626 392.5,163.2001 C461.3125,185.7751 542.1875,203.8626 598.5875,215.1626 " fill="none" id="Test-TestParameter" style="stroke:#A80036;stroke-width:1.25;"/><polygon fill="#000000" points="404.7802,153.8127,394.8371,147.2962,392.9058,154.3852,404.7802,153.8127" style="stroke:#000000;stroke-width:1.25;"/><text fill="#000000" font-family="sans-serif" font-size="16.25" lengthAdjust="spacing" textLength="145" x="410" y="158.819">requests analysis of</text><text fill="#000000" font-family="sans-serif" font-size="16.25" lengthAdjust="spacing" textLength="8.75" x="365.1031" y="172.0379">1</text><text fill="#000000" font-family="sans-serif" font-size="16.25" lengthAdjust="spacing" textLength="25" x="563.8851" y="231.7057">1..*</text><!--MD5=[92e8e476cc9e9004a7125f53a120ec97]
link TestParameter to Parameter--><path codeLine="61" d="M741.625,214.8376 C800.75,203.6001 884.075,187.7751 938.4875,177.4501 " fill="none" id="TestParameter-Parameter" style="stroke:#A80036;stroke-width:1.25;"/><polygon fill="#000000" points="797.3902,181.0037,785.597,179.5041,786.9679,186.7224,797.3902,181.0037" style="stroke:#000000;stroke-width:1.25;"/><text fill="#000000" font-family="sans-serif" font-size="16.25" lengthAdjust="spacing" textLength="58.75" x="802.5" y="188.819">refers to</text><text fill="#000000" font-family="sans-serif" font-size="16.25" lengthAdjust="spacing" textLength="6.25" x="751.2023" y="231.3038">*</text><text fill="#000000" font-family="sans-serif" font-size="16.25" lengthAdjust="spacing" textLength="8.75" x="920.0336" y="197.6702">1</text><!--MD5=[0e00e25ac6b8c14659aaff2cf7e5df08]
link TestParameter to TestParameterResult--><path codeLine="62" d="M741.625,246.7501 C788.325,259.0626 850.1375,275.3501 900.8625,288.7126 " fill="none" id="TestParameter-TestParameterResult" style="stroke:#A80036;stroke-width:1.25;"/><polygon fill="#000000" points="796.0437,248.7624,786.0467,242.329,784.1744,249.4337,796.0437,248.7624" style="stroke:#000000;stroke-width:1.25;"/><text fill="#000000" font-family="sans-serif" font-size="16.25" lengthAdjust="spacing" textLength="61.25" x="801.25" y="253.819">contains</text><text fill="#000000" font-family="sans-serif" font-size="16.25" lengthAdjust="spacing" textLength="8.75" x="751.3625" y="267.3051">1</text><text fill="#000000" font-family="sans-serif" font-size="16.25" lengthAdjust="spacing" textLength="27.5" x="863.7538" y="304.3382">0..1</text><!--MD5=[52200cc2361fa0ac0481dd6ffcdb824b]
link TestParameterResult to MyReferenceValue--><path codeLine="63" d="M1089.1125,313.2001 C1135.9125,313.2001 1191.8875,313.2001 1235.775,313.2001 " fill="none" id="TestParameterResult-ReferenceValue" style="stroke:#A80036;stroke-width:1.25;"/><polygon fill="#000000" points="1138.75,302.1698,1127.4436,298.4962,1127.4436,305.8435,1138.75,302.1698" style="stroke:#000000;stroke-width:1.25;"/><text fill="#000000" font-family="sans-serif" font-size="16.25" lengthAdjust="spacing" textLength="53.75" x="1143.75" y="308.819">records</text><text fill="#000000" font-family="sans-serif" font-size="16.25" lengthAdjust="spacing" textLength="8.75" x="1098.8074" y="331.1053">1</text><text fill="#000000" font-family="sans-serif" font-size="16.25" lengthAdjust="spacing" textLength="8.75" x="1217.2933" y="331.3145">1</text><!--MD5=[798693751e21f817db161f404ec8bfc2]
@startuml

skinparam classAttributeIconSize 0
hide empty methods
hide empty attributes
left to right direction

class Company{
- designation
}

'class FinalResult{}

'class ChemicalResult{}

'class Diagnosis{}

class Report{}

class SpecialistDoctor{
- doctorIndexNumber
}

class Test{
- code
- NhsCode
- createdAt
}

/'class TestType{
- code
- description
- collectingMethod
}'/

class TestParameter{}

class Parameter{
- code
- shortName
- description
}

class TestParameterResult{
- createdAt
- value
- metric
}

class MyReferenceValue{}

Company "1" - - "*" Test : conducts >
'ChemicalResult "1" - - "1" Test : presented under >
Test "*" - - "1" SpecialistDoctor : analysed by >
'SpecialistDoctor "1" - - "*" Diagnosis : makes >
SpecialistDoctor "1" - - "*" Report : writes >
'Diagnosis "1" - - "1" FinalResult : receives <
'Report "1" - - "1" FinalResult : receives <
Report "1" - - "1" Test : is of >
'Test "*" - - "1" TestType : is of >
Test "1" - - "1..*" TestParameter : requests analysis of >
TestParameter "*" - - "1" Parameter : refers to >
TestParameter "1" - - "0..1" TestParameterResult : contains >
TestParameterResult "1" - - "1" MyReferenceValue : records >


@enduml

@startuml

skinparam classAttributeIconSize 0
hide empty methods
hide empty attributes
left to right direction

class Company{
- designation
}




class Report{}

class SpecialistDoctor{
- doctorIndexNumber
}

class Test{
- code
- NhsCode
- createdAt
}


class TestParameter{}

class Parameter{
- code
- shortName
- description
}

class TestParameterResult{
- createdAt
- value
- metric
}

class MyReferenceValue{}

Company "1" - - "*" Test : conducts >
Test "*" - - "1" SpecialistDoctor : analysed by >
SpecialistDoctor "1" - - "*" Report : writes >
Report "1" - - "1" Test : is of >
Test "1" - - "1..*" TestParameter : requests analysis of >
TestParameter "*" - - "1" Parameter : refers to >
TestParameter "1" - - "0..1" TestParameterResult : contains >
TestParameterResult "1" - - "1" MyReferenceValue : records >


@enduml

PlantUML version 1.2021.5(Sun Apr 25 12:20:28 BST 2021)
(GPL source distribution)
Java Runtime: OpenJDK Runtime Environment
JVM: Dynamic Code Evolution 64-Bit Server VM
Default Encoding: Cp1252
Language: pt
Country: PT
--></g></svg>