<?xml version="1.0" encoding="UTF-8" standalone="no"?><svg xmlns="http://www.w3.org/2000/svg" xmlns:xlink="http://www.w3.org/1999/xlink" contentScriptType="application/ecmascript" contentStyleType="text/css" height="1013.75px" preserveAspectRatio="none" style="width:1643px;height:1013px;" version="1.1" viewBox="0 0 1643 1013" width="1643.75px" zoomAndPan="magnify"><defs><filter height="300%" id="fd0kz91t360yq" width="300%" x="-1" y="-1"><feGaussianBlur result="blurOut" stdDeviation="2.5"/><feColorMatrix in="blurOut" result="blurOut2" type="matrix" values="0 0 0 0 0 0 0 0 0 0 0 0 0 0 0 0 0 0 .4 0"/><feOffset dx="5.0" dy="5.0" in="blurOut2" result="blurOut3"/><feBlend in="SourceGraphic" in2="blurOut3" mode="normal"/></filter></defs><g><!--MD5=[2c2e2644034c00788261e03c85b06837]
cluster Core--><polygon fill="#FFFFFF" filter="url(#fd0kz91t360yq)" points="297.5,106.25,347.5,106.25,356.25,135.7617,1622.5,135.7617,1622.5,1005,297.5,1005,297.5,106.25" style="stroke:#000000;stroke-width:1.875;"/><line style="stroke:#000000;stroke-width:1.875;" x1="297.5" x2="356.25" y1="135.7617" y2="135.7617"/><text fill="#000000" font-family="sans-serif" font-size="17.5" font-weight="bold" lengthAdjust="spacing" textLength="42.5" x="302.5" y="126.9165">Core</text><!--MD5=[121a8bf1197281ab89ed693fab589f94]
cluster Domain--><polygon fill="#FFFFFF" filter="url(#fd0kz91t360yq)" points="600,341.25,672.5,341.25,681.25,370.7617,1592.5,370.7617,1592.5,975,600,975,600,341.25" style="stroke:#000000;stroke-width:1.875;"/><line style="stroke:#000000;stroke-width:1.875;" x1="600" x2="681.25" y1="370.7617" y2="370.7617"/><text fill="#000000" font-family="sans-serif" font-size="17.5" font-weight="bold" lengthAdjust="spacing" textLength="65" x="605" y="361.9165">Domain</text><!--MD5=[15636c1ca4a123c16a2a1a8e90aca7a9]
cluster Model--><polygon fill="#FFFFFF" filter="url(#fd0kz91t360yq)" points="630,396.25,692.5,396.25,701.25,425.7617,1510,425.7617,1510,702.5,630,702.5,630,396.25" style="stroke:#000000;stroke-width:1.875;"/><line style="stroke:#000000;stroke-width:1.875;" x1="630" x2="701.25" y1="425.7617" y2="425.7617"/><text fill="#000000" font-family="sans-serif" font-size="17.5" font-weight="bold" lengthAdjust="spacing" textLength="55" x="635" y="416.9165">Model</text><!--MD5=[8dd535d56cd4cf7faf64fdd082ba836e]
cluster Stores--><polygon fill="#FFFFFF" filter="url(#fd0kz91t360yq)" points="1301.25,732.5,1366.25,732.5,1375,762.0117,1562.5,762.0117,1562.5,945,1301.25,945,1301.25,732.5" style="stroke:#000000;stroke-width:1.875;"/><line style="stroke:#000000;stroke-width:1.875;" x1="1301.25" x2="1375" y1="762.0117" y2="762.0117"/><text fill="#000000" font-family="sans-serif" font-size="17.5" font-weight="bold" lengthAdjust="spacing" textLength="57.5" x="1306.25" y="753.1665">Stores</text><!--MD5=[701152d03fbf85133a1de050cfdbc7fd]
cluster Mappers--><polygon fill="#FFFFFF" filter="url(#fd0kz91t360yq)" points="963.75,161.25,1048.75,161.25,1057.5,190.7617,1195,190.7617,1195,311.25,963.75,311.25,963.75,161.25" style="stroke:#000000;stroke-width:1.875;"/><line style="stroke:#000000;stroke-width:1.875;" x1="963.75" x2="1057.5" y1="190.7617" y2="190.7617"/><text fill="#000000" font-family="sans-serif" font-size="17.5" font-weight="bold" lengthAdjust="spacing" textLength="77.5" x="968.75" y="181.9165">Mappers</text><!--MD5=[7b8bc9ee8bb84b99fb3a3f9477c19238]
cluster DTO--><polygon fill="#FFFFFF" filter="url(#fd0kz91t360yq)" points="340,161.25,383.75,161.25,392.5,190.7617,546.25,190.7617,546.25,356.25,340,356.25,340,161.25" style="stroke:#000000;stroke-width:1.875;"/><line style="stroke:#000000;stroke-width:1.875;" x1="340" x2="392.5" y1="190.7617" y2="190.7617"/><text fill="#000000" font-family="sans-serif" font-size="17.5" font-weight="bold" lengthAdjust="spacing" textLength="36.25" x="345" y="181.9165">DTO</text><!--MD5=[ed1d20ea533a2a0e7df5ba3c35e56ced]
cluster Controllers--><polygon fill="#FFFFFF" filter="url(#fd0kz91t360yq)" points="327.5,386.25,433.75,386.25,442.5,415.7617,558.75,415.7617,558.75,616.25,327.5,616.25,327.5,386.25" style="stroke:#000000;stroke-width:1.875;"/><line style="stroke:#000000;stroke-width:1.875;" x1="327.5" x2="442.5" y1="415.7617" y2="415.7617"/><text fill="#000000" font-family="sans-serif" font-size="17.5" font-weight="bold" lengthAdjust="spacing" textLength="98.75" x="332.5" y="406.9165">Controllers</text><!--MD5=[9681dc6e01e10c6b4fe06895ae94f592]
cluster UI--><polygon fill="#FFFFFF" filter="url(#fd0kz91t360yq)" points="20,7.5,45,7.5,53.75,37.0117,256.25,37.0117,256.25,197.5,20,197.5,20,7.5" style="stroke:#000000;stroke-width:1.875;"/><line style="stroke:#000000;stroke-width:1.875;" x1="20" x2="53.75" y1="37.0117" y2="37.0117"/><text fill="#000000" font-family="sans-serif" font-size="17.5" font-weight="bold" lengthAdjust="spacing" textLength="17.5" x="25" y="28.1665">UI</text><!--MD5=[4851e5193cf5e7abdec7b18b3bca50f8]
cluster Console--><polygon fill="#FFFFFF" filter="url(#fd0kz91t360yq)" points="50,62.5,130,62.5,138.75,92.0117,226.25,92.0117,226.25,167.5,50,167.5,50,62.5" style="stroke:#000000;stroke-width:1.875;"/><line style="stroke:#000000;stroke-width:1.875;" x1="50" x2="138.75" y1="92.0117" y2="92.0117"/><text fill="#000000" font-family="sans-serif" font-size="17.5" font-weight="bold" lengthAdjust="spacing" textLength="72.5" x="55" y="83.1665">Console</text><!--MD5=[02e4b9b7573f1156f41e60aa5b4e25a4]
class Company--><rect codeLine="12" fill="#FEFECE" filter="url(#fd0kz91t360yq)" height="129.1797" id="Company" style="stroke:#A80036;stroke-width:1.875;" width="173.75" x="650" y="441.875"/><ellipse cx="699.125" cy="461.875" fill="#ADD1B2" rx="13.75" ry="13.75" style="stroke:#A80036;stroke-width:1.25;"/><path d="M701.625,457.5 Q701.8789,456.875 702.1719,456.5625 Q702.4648,456.25 702.7969,456.25 Q703.3828,456.25 703.7539,456.6016 Q704.125,456.9531 704.125,457.7734 L704.125,459.7266 Q704.125,460.5469 703.7734,460.8984 Q703.4219,461.25 702.875,461.25 Q702.3867,461.25 702.0742,461.0352 Q701.7617,460.8203 701.625,460.2539 Q701.5664,459.8633 701.3516,459.6484 Q700.9609,459.2383 700.2578,459.0039 Q699.5547,458.75 698.8516,458.75 Q697.9727,458.75 697.2305,459.1016 Q696.5078,459.4531 695.9414,460.2344 Q695.375,461.0156 695.375,462.0898 L695.375,463.2422 Q695.375,464.5313 696.4297,465.3906 Q697.4844,466.25 699.3594,466.25 Q700.4727,466.25 701.2539,465.9961 Q701.7031,465.8594 702.2109,465.4102 Q702.543,465.1563 702.7188,465.0781 Q702.8945,465 703.1094,465 Q703.5195,465 703.8125,465.332 Q704.125,465.6445 704.125,466.0938 Q704.125,466.5234 703.6953,467.0313 Q703.0703,467.7734 702.0742,468.1836 Q700.7656,468.75 699.1641,468.75 Q697.2891,468.75 695.7852,468.0078 Q694.5742,467.4219 693.7148,466.1523 Q692.875,464.8828 692.875,463.3789 L692.875,462.0117 Q692.875,460.4492 693.6172,459.082 Q694.3789,457.7148 695.6875,456.9922 Q697.0156,456.25 698.5,456.25 Q699.3984,456.25 700.1797,456.5625 Q700.9609,456.875 701.625,457.5 Z " fill="#000000"/><text fill="#000000" font-family="sans-serif" font-size="15" lengthAdjust="spacing" textLength="66.25" x="723.375" y="468.0127">Company</text><line style="stroke:#A80036;stroke-width:1.875;" x1="651.25" x2="822.5" y1="481.875" y2="481.875"/><text fill="#000000" font-family="sans-serif" font-size="13.75" lengthAdjust="spacing" textLength="112.5" x="657.5" y="501.1487">-String designation</text><text fill="#000000" font-family="sans-serif" font-size="13.75" lengthAdjust="spacing" textLength="122.5" x="657.5" y="518.4436">-TestStore testStore</text><line style="stroke:#A80036;stroke-width:1.875;" x1="651.25" x2="822.5" y1="526.4648" y2="526.4648"/><text fill="#000000" font-family="sans-serif" font-size="13.75" lengthAdjust="spacing" textLength="95" x="657.5" y="545.7385">+getTestStore()</text><text fill="#000000" font-family="sans-serif" font-size="13.75" lengthAdjust="spacing" textLength="158.75" x="657.5" y="563.0334">+createReport(reportText)</text><!--MD5=[f00dbe8c0302c6aec2cb26b3c659c8fc]
class Report--><rect codeLine="19" fill="#FEFECE" filter="url(#fd0kz91t360yq)" height="198.3594" id="Report" style="stroke:#A80036;stroke-width:1.875;" width="231.25" x="963.75" y="441.875"/><ellipse cx="1050.9375" cy="461.875" fill="#ADD1B2" rx="13.75" ry="13.75" style="stroke:#A80036;stroke-width:1.25;"/><path d="M1053.4375,457.5 Q1053.6914,456.875 1053.9844,456.5625 Q1054.2773,456.25 1054.6094,456.25 Q1055.1953,456.25 1055.5664,456.6016 Q1055.9375,456.9531 1055.9375,457.7734 L1055.9375,459.7266 Q1055.9375,460.5469 1055.5859,460.8984 Q1055.2344,461.25 1054.6875,461.25 Q1054.1992,461.25 1053.8867,461.0352 Q1053.5742,460.8203 1053.4375,460.2539 Q1053.3789,459.8633 1053.1641,459.6484 Q1052.7734,459.2383 1052.0703,459.0039 Q1051.3672,458.75 1050.6641,458.75 Q1049.7852,458.75 1049.043,459.1016 Q1048.3203,459.4531 1047.7539,460.2344 Q1047.1875,461.0156 1047.1875,462.0898 L1047.1875,463.2422 Q1047.1875,464.5313 1048.2422,465.3906 Q1049.2969,466.25 1051.1719,466.25 Q1052.2852,466.25 1053.0664,465.9961 Q1053.5156,465.8594 1054.0234,465.4102 Q1054.3555,465.1563 1054.5313,465.0781 Q1054.707,465 1054.9219,465 Q1055.332,465 1055.625,465.332 Q1055.9375,465.6445 1055.9375,466.0938 Q1055.9375,466.5234 1055.5078,467.0313 Q1054.8828,467.7734 1053.8867,468.1836 Q1052.5781,468.75 1050.9766,468.75 Q1049.1016,468.75 1047.5977,468.0078 Q1046.3867,467.4219 1045.5273,466.1523 Q1044.6875,464.8828 1044.6875,463.3789 L1044.6875,462.0117 Q1044.6875,460.4492 1045.4297,459.082 Q1046.1914,457.7148 1047.5,456.9922 Q1048.8281,456.25 1050.3125,456.25 Q1051.2109,456.25 1051.9922,456.5625 Q1052.7734,456.875 1053.4375,457.5 Z " fill="#000000"/><text fill="#000000" font-family="sans-serif" font-size="15" lengthAdjust="spacing" textLength="46.25" x="1076.5625" y="468.0127">Report</text><line style="stroke:#A80036;stroke-width:1.875;" x1="965" x2="1193.75" y1="481.875" y2="481.875"/><text fill="#000000" font-family="sans-serif" font-size="13.75" lengthAdjust="spacing" textLength="197.5" x="971.25" y="501.1487">-int REPORTTEXT_MAX_LENGTH</text><text fill="#000000" font-family="sans-serif" font-size="13.75" lengthAdjust="spacing" textLength="106.25" x="971.25" y="518.4436">-String reportText</text><text fill="#000000" font-family="sans-serif" font-size="13.75" lengthAdjust="spacing" textLength="85" x="971.25" y="535.7385">-Report report</text><line style="stroke:#A80036;stroke-width:1.875;" x1="965" x2="1193.75" y1="543.7598" y2="543.7598"/><text fill="#000000" font-family="sans-serif" font-size="13.75" lengthAdjust="spacing" textLength="120" x="971.25" y="563.0334">+Report(reportText)</text><text fill="#000000" font-family="sans-serif" font-size="13.75" lengthAdjust="spacing" textLength="216.25" x="971.25" y="580.3284">+checkReportTextRules(reportText)</text><text fill="#000000" font-family="sans-serif" font-size="13.75" lengthAdjust="spacing" textLength="153.75" x="971.25" y="597.6233">+countWords(reportText)</text><text fill="#000000" font-family="sans-serif" font-size="13.75" lengthAdjust="spacing" textLength="132.5" x="971.25" y="614.9182">+equals(reportObject)</text><text fill="#000000" font-family="sans-serif" font-size="13.75" lengthAdjust="spacing" textLength="118.75" x="971.25" y="632.2131">+create(reportText)</text><!--MD5=[df38be88ccee13e832d6fafd6288a4ca]
class Test--><rect codeLine="30" fill="#FEFECE" filter="url(#fd0kz91t360yq)" height="111.8848" id="Test" style="stroke:#A80036;stroke-width:1.875;" width="116.25" x="1373.75" y="485"/><ellipse cx="1413.3125" cy="505" fill="#ADD1B2" rx="13.75" ry="13.75" style="stroke:#A80036;stroke-width:1.25;"/><path d="M1415.8125,500.625 Q1416.0664,500 1416.3594,499.6875 Q1416.6523,499.375 1416.9844,499.375 Q1417.5703,499.375 1417.9414,499.7266 Q1418.3125,500.0781 1418.3125,500.8984 L1418.3125,502.8516 Q1418.3125,503.6719 1417.9609,504.0234 Q1417.6094,504.375 1417.0625,504.375 Q1416.5742,504.375 1416.2617,504.1602 Q1415.9492,503.9453 1415.8125,503.3789 Q1415.7539,502.9883 1415.5391,502.7734 Q1415.1484,502.3633 1414.4453,502.1289 Q1413.7422,501.875 1413.0391,501.875 Q1412.1602,501.875 1411.418,502.2266 Q1410.6953,502.5781 1410.1289,503.3594 Q1409.5625,504.1406 1409.5625,505.2148 L1409.5625,506.3672 Q1409.5625,507.6563 1410.6172,508.5156 Q1411.6719,509.375 1413.5469,509.375 Q1414.6602,509.375 1415.4414,509.1211 Q1415.8906,508.9844 1416.3984,508.5352 Q1416.7305,508.2813 1416.9063,508.2031 Q1417.082,508.125 1417.2969,508.125 Q1417.707,508.125 1418,508.457 Q1418.3125,508.7695 1418.3125,509.2188 Q1418.3125,509.6484 1417.8828,510.1563 Q1417.2578,510.8984 1416.2617,511.3086 Q1414.9531,511.875 1413.3516,511.875 Q1411.4766,511.875 1409.9727,511.1328 Q1408.7617,510.5469 1407.9023,509.2773 Q1407.0625,508.0078 1407.0625,506.5039 L1407.0625,505.1367 Q1407.0625,503.5742 1407.8047,502.207 Q1408.5664,500.8398 1409.875,500.1172 Q1411.2031,499.375 1412.6875,499.375 Q1413.5859,499.375 1414.3672,499.6875 Q1415.1484,500 1415.8125,500.625 Z " fill="#000000"/><text fill="#000000" font-family="sans-serif" font-size="15" lengthAdjust="spacing" textLength="30" x="1435.4375" y="511.1377">Test</text><line style="stroke:#A80036;stroke-width:1.875;" x1="1375" x2="1488.75" y1="525" y2="525"/><text fill="#000000" font-family="sans-serif" font-size="13.75" lengthAdjust="spacing" textLength="101.25" x="1381.25" y="544.2737">-String NHSCode</text><text fill="#000000" font-family="sans-serif" font-size="13.75" lengthAdjust="spacing" textLength="73.75" x="1381.25" y="561.5686">-String code</text><line style="stroke:#A80036;stroke-width:1.875;" x1="1375" x2="1488.75" y1="569.5898" y2="569.5898"/><text fill="#000000" font-family="sans-serif" font-size="13.75" lengthAdjust="spacing" textLength="67.5" x="1381.25" y="588.8635">+getCode()</text><!--MD5=[0f07739f46effee96e095e9c408da841]
class TestParameter--><rect codeLine="36" fill="#FEFECE" filter="url(#fd0kz91t360yq)" height="67.2949" id="TestParameter" style="stroke:#A80036;stroke-width:1.875;" width="165" x="654.375" y="615"/><ellipse cx="683.25" cy="635" fill="#ADD1B2" rx="13.75" ry="13.75" style="stroke:#A80036;stroke-width:1.25;"/><path d="M685.75,630.625 Q686.0039,630 686.2969,629.6875 Q686.5898,629.375 686.9219,629.375 Q687.5078,629.375 687.8789,629.7266 Q688.25,630.0781 688.25,630.8984 L688.25,632.8516 Q688.25,633.6719 687.8984,634.0234 Q687.5469,634.375 687,634.375 Q686.5117,634.375 686.1992,634.1602 Q685.8867,633.9453 685.75,633.3789 Q685.6914,632.9883 685.4766,632.7734 Q685.0859,632.3633 684.3828,632.1289 Q683.6797,631.875 682.9766,631.875 Q682.0977,631.875 681.3555,632.2266 Q680.6328,632.5781 680.0664,633.3594 Q679.5,634.1406 679.5,635.2148 L679.5,636.3672 Q679.5,637.6563 680.5547,638.5156 Q681.6094,639.375 683.4844,639.375 Q684.5977,639.375 685.3789,639.1211 Q685.8281,638.9844 686.3359,638.5352 Q686.668,638.2813 686.8438,638.2031 Q687.0195,638.125 687.2344,638.125 Q687.6445,638.125 687.9375,638.457 Q688.25,638.7695 688.25,639.2188 Q688.25,639.6484 687.8203,640.1563 Q687.1953,640.8984 686.1992,641.3086 Q684.8906,641.875 683.2891,641.875 Q681.4141,641.875 679.9102,641.1328 Q678.6992,640.5469 677.8398,639.2773 Q677,638.0078 677,636.5039 L677,635.1367 Q677,633.5742 677.7422,632.207 Q678.5039,630.8398 679.8125,630.1172 Q681.1406,629.375 682.625,629.375 Q683.5234,629.375 684.3047,629.6875 Q685.0859,630 685.75,630.625 Z " fill="#000000"/><text fill="#000000" font-family="sans-serif" font-size="15" lengthAdjust="spacing" textLength="102.5" x="703" y="641.1377">TestParameter</text><line style="stroke:#A80036;stroke-width:1.875;" x1="655.625" x2="818.125" y1="655" y2="655"/><text fill="#000000" font-family="sans-serif" font-size="13.75" lengthAdjust="spacing" textLength="150" x="661.875" y="674.2737">+getParametersResults()</text><!--MD5=[0f6f7964b844a64b0496af0dda7914bd]
class TestStore--><rect codeLine="44" fill="#FEFECE" filter="url(#fd0kz91t360yq)" height="146.4746" id="TestStore" style="stroke:#A80036;stroke-width:1.875;" width="221.25" x="1321.25" y="778.125"/><ellipse cx="1393.4375" cy="798.125" fill="#ADD1B2" rx="13.75" ry="13.75" style="stroke:#A80036;stroke-width:1.25;"/><path d="M1395.9375,793.75 Q1396.1914,793.125 1396.4844,792.8125 Q1396.7773,792.5 1397.1094,792.5 Q1397.6953,792.5 1398.0664,792.8516 Q1398.4375,793.2031 1398.4375,794.0234 L1398.4375,795.9766 Q1398.4375,796.7969 1398.0859,797.1484 Q1397.7344,797.5 1397.1875,797.5 Q1396.6992,797.5 1396.3867,797.2852 Q1396.0742,797.0703 1395.9375,796.5039 Q1395.8789,796.1133 1395.6641,795.8984 Q1395.2734,795.4883 1394.5703,795.2539 Q1393.8672,795 1393.1641,795 Q1392.2852,795 1391.543,795.3516 Q1390.8203,795.7031 1390.2539,796.4844 Q1389.6875,797.2656 1389.6875,798.3398 L1389.6875,799.4922 Q1389.6875,800.7813 1390.7422,801.6406 Q1391.7969,802.5 1393.6719,802.5 Q1394.7852,802.5 1395.5664,802.2461 Q1396.0156,802.1094 1396.5234,801.6602 Q1396.8555,801.4063 1397.0313,801.3281 Q1397.207,801.25 1397.4219,801.25 Q1397.832,801.25 1398.125,801.582 Q1398.4375,801.8945 1398.4375,802.3438 Q1398.4375,802.7734 1398.0078,803.2813 Q1397.3828,804.0234 1396.3867,804.4336 Q1395.0781,805 1393.4766,805 Q1391.6016,805 1390.0977,804.2578 Q1388.8867,803.6719 1388.0273,802.4023 Q1387.1875,801.1328 1387.1875,799.6289 L1387.1875,798.2617 Q1387.1875,796.6992 1387.9297,795.332 Q1388.6914,793.9648 1390,793.2422 Q1391.3281,792.5 1392.8125,792.5 Q1393.7109,792.5 1394.4922,792.8125 Q1395.2734,793.125 1395.9375,793.75 Z " fill="#000000"/><text fill="#000000" font-family="sans-serif" font-size="15" lengthAdjust="spacing" textLength="66.25" x="1419.0625" y="804.2627">TestStore</text><line style="stroke:#A80036;stroke-width:1.875;" x1="1322.5" x2="1541.25" y1="818.125" y2="818.125"/><text fill="#000000" font-family="sans-serif" font-size="13.75" lengthAdjust="spacing" textLength="206.25" x="1328.75" y="837.3987">-list&lt;Test&gt; testsReadyToDiagnose</text><line style="stroke:#A80036;stroke-width:1.875;" x1="1322.5" x2="1541.25" y1="845.4199" y2="845.4199"/><text fill="#000000" font-family="sans-serif" font-size="13.75" lengthAdjust="spacing" textLength="180" x="1328.75" y="864.6936">+getTestsReadyToDiagnose()</text><text fill="#000000" font-family="sans-serif" font-size="13.75" lengthAdjust="spacing" textLength="140" x="1328.75" y="881.9885">+getTestByCode(code)</text><text fill="#000000" font-family="sans-serif" font-size="13.75" lengthAdjust="spacing" textLength="131.25" x="1328.75" y="899.2834">+getTestParameters()</text><text fill="#000000" font-family="sans-serif" font-size="13.75" lengthAdjust="spacing" textLength="198.75" x="1328.75" y="916.5784">+addReportToTest(selectedTest)</text><!--MD5=[144698ec4d0188f6929a3b58a3eeb1f6]
class TestMapper--><rect codeLine="58" fill="#FEFECE" filter="url(#fd0kz91t360yq)" height="84.5898" id="TestMapper" style="stroke:#A80036;stroke-width:1.875;" width="191.25" x="983.75" y="206.25"/><ellipse cx="1034" cy="226.25" fill="#ADD1B2" rx="13.75" ry="13.75" style="stroke:#A80036;stroke-width:1.25;"/><path d="M1036.5,221.875 Q1036.7539,221.25 1037.0469,220.9375 Q1037.3398,220.625 1037.6719,220.625 Q1038.2578,220.625 1038.6289,220.9766 Q1039,221.3281 1039,222.1484 L1039,224.1016 Q1039,224.9219 1038.6484,225.2734 Q1038.2969,225.625 1037.75,225.625 Q1037.2617,225.625 1036.9492,225.4102 Q1036.6367,225.1953 1036.5,224.6289 Q1036.4414,224.2383 1036.2266,224.0234 Q1035.8359,223.6133 1035.1328,223.3789 Q1034.4297,223.125 1033.7266,223.125 Q1032.8477,223.125 1032.1055,223.4766 Q1031.3828,223.8281 1030.8164,224.6094 Q1030.25,225.3906 1030.25,226.4648 L1030.25,227.6172 Q1030.25,228.9063 1031.3047,229.7656 Q1032.3594,230.625 1034.2344,230.625 Q1035.3477,230.625 1036.1289,230.3711 Q1036.5781,230.2344 1037.0859,229.7852 Q1037.418,229.5313 1037.5938,229.4531 Q1037.7695,229.375 1037.9844,229.375 Q1038.3945,229.375 1038.6875,229.707 Q1039,230.0195 1039,230.4688 Q1039,230.8984 1038.5703,231.4063 Q1037.9453,232.1484 1036.9492,232.5586 Q1035.6406,233.125 1034.0391,233.125 Q1032.1641,233.125 1030.6602,232.3828 Q1029.4492,231.7969 1028.5898,230.5273 Q1027.75,229.2578 1027.75,227.7539 L1027.75,226.3867 Q1027.75,224.8242 1028.4922,223.457 Q1029.2539,222.0898 1030.5625,221.3672 Q1031.8906,220.625 1033.375,220.625 Q1034.2734,220.625 1035.0547,220.9375 Q1035.8359,221.25 1036.5,221.875 Z " fill="#000000"/><text fill="#000000" font-family="sans-serif" font-size="15" lengthAdjust="spacing" textLength="81.25" x="1058.5" y="232.3877">TestMapper</text><line style="stroke:#A80036;stroke-width:1.875;" x1="985" x2="1173.75" y1="246.25" y2="246.25"/><text fill="#000000" font-family="sans-serif" font-size="13.75" lengthAdjust="spacing" textLength="176.25" x="991.25" y="265.5237">+toDTO(listTestsToDiagnose)</text><text fill="#000000" font-family="sans-serif" font-size="13.75" lengthAdjust="spacing" textLength="72.5" x="991.25" y="282.8186">+toDTO(obj)</text><!--MD5=[73f7d5e6c8b5bf65b57f35b14c30896f]
class TestsDTO--><rect codeLine="67" fill="#FEFECE" filter="url(#fd0kz91t360yq)" height="129.1797" id="TestsDTO" style="stroke:#A80036;stroke-width:1.875;" width="166.25" x="360" y="206.875"/><ellipse cx="404.0625" cy="226.875" fill="#ADD1B2" rx="13.75" ry="13.75" style="stroke:#A80036;stroke-width:1.25;"/><path d="M406.5625,222.5 Q406.8164,221.875 407.1094,221.5625 Q407.4023,221.25 407.7344,221.25 Q408.3203,221.25 408.6914,221.6016 Q409.0625,221.9531 409.0625,222.7734 L409.0625,224.7266 Q409.0625,225.5469 408.7109,225.8984 Q408.3594,226.25 407.8125,226.25 Q407.3242,226.25 407.0117,226.0352 Q406.6992,225.8203 406.5625,225.2539 Q406.5039,224.8633 406.2891,224.6484 Q405.8984,224.2383 405.1953,224.0039 Q404.4922,223.75 403.7891,223.75 Q402.9102,223.75 402.168,224.1016 Q401.4453,224.4531 400.8789,225.2344 Q400.3125,226.0156 400.3125,227.0898 L400.3125,228.2422 Q400.3125,229.5313 401.3672,230.3906 Q402.4219,231.25 404.2969,231.25 Q405.4102,231.25 406.1914,230.9961 Q406.6406,230.8594 407.1484,230.4102 Q407.4805,230.1563 407.6563,230.0781 Q407.832,230 408.0469,230 Q408.457,230 408.75,230.332 Q409.0625,230.6445 409.0625,231.0938 Q409.0625,231.5234 408.6328,232.0313 Q408.0078,232.7734 407.0117,233.1836 Q405.7031,233.75 404.1016,233.75 Q402.2266,233.75 400.7227,233.0078 Q399.5117,232.4219 398.6523,231.1523 Q397.8125,229.8828 397.8125,228.3789 L397.8125,227.0117 Q397.8125,225.4492 398.5547,224.082 Q399.3164,222.7148 400.625,221.9922 Q401.9531,221.25 403.4375,221.25 Q404.3359,221.25 405.1172,221.5625 Q405.8984,221.875 406.5625,222.5 Z " fill="#000000"/><text fill="#000000" font-family="sans-serif" font-size="15" lengthAdjust="spacing" textLength="70" x="427.1875" y="233.0127">TestsDTO</text><line style="stroke:#A80036;stroke-width:1.875;" x1="361.25" x2="525" y1="246.875" y2="246.875"/><text fill="#000000" font-family="sans-serif" font-size="13.75" lengthAdjust="spacing" textLength="101.25" x="367.5" y="266.1487">-String NHSCode</text><text fill="#000000" font-family="sans-serif" font-size="13.75" lengthAdjust="spacing" textLength="73.75" x="367.5" y="283.4436">-String code</text><line style="stroke:#A80036;stroke-width:1.875;" x1="361.25" x2="525" y1="291.4648" y2="291.4648"/><text fill="#000000" font-family="sans-serif" font-size="13.75" lengthAdjust="spacing" textLength="151.25" x="367.5" y="310.7385">+create(NHSCode, code)</text><text fill="#000000" font-family="sans-serif" font-size="13.75" lengthAdjust="spacing" textLength="67.5" x="367.5" y="328.0334">+getCode()</text><!--MD5=[d7b8916e3117ca4a3ffdab4f31ea783a]
class WriteReportController--><rect codeLine="78" fill="#FEFECE" filter="url(#fd0kz91t360yq)" height="163.7695" id="WriteReportController" style="stroke:#A80036;stroke-width:1.875;" width="191.25" x="347.5" y="431.875"/><ellipse cx="367.375" cy="451.875" fill="#ADD1B2" rx="13.75" ry="13.75" style="stroke:#A80036;stroke-width:1.25;"/><path d="M369.875,447.5 Q370.1289,446.875 370.4219,446.5625 Q370.7148,446.25 371.0469,446.25 Q371.6328,446.25 372.0039,446.6016 Q372.375,446.9531 372.375,447.7734 L372.375,449.7266 Q372.375,450.5469 372.0234,450.8984 Q371.6719,451.25 371.125,451.25 Q370.6367,451.25 370.3242,451.0352 Q370.0117,450.8203 369.875,450.2539 Q369.8164,449.8633 369.6016,449.6484 Q369.2109,449.2383 368.5078,449.0039 Q367.8047,448.75 367.1016,448.75 Q366.2227,448.75 365.4805,449.1016 Q364.7578,449.4531 364.1914,450.2344 Q363.625,451.0156 363.625,452.0898 L363.625,453.2422 Q363.625,454.5313 364.6797,455.3906 Q365.7344,456.25 367.6094,456.25 Q368.7227,456.25 369.5039,455.9961 Q369.9531,455.8594 370.4609,455.4102 Q370.793,455.1563 370.9688,455.0781 Q371.1445,455 371.3594,455 Q371.7695,455 372.0625,455.332 Q372.375,455.6445 372.375,456.0938 Q372.375,456.5234 371.9453,457.0313 Q371.3203,457.7734 370.3242,458.1836 Q369.0156,458.75 367.4141,458.75 Q365.5391,458.75 364.0352,458.0078 Q362.8242,457.4219 361.9648,456.1523 Q361.125,454.8828 361.125,453.3789 L361.125,452.0117 Q361.125,450.4492 361.8672,449.082 Q362.6289,447.7148 363.9375,446.9922 Q365.2656,446.25 366.75,446.25 Q367.6484,446.25 368.4297,446.5625 Q369.2109,446.875 369.875,447.5 Z " fill="#000000"/><text fill="#000000" font-family="sans-serif" font-size="15" lengthAdjust="spacing" textLength="148.75" x="385.125" y="458.0127">WriteReportController</text><line style="stroke:#A80036;stroke-width:1.875;" x1="348.75" x2="537.5" y1="471.875" y2="471.875"/><text fill="#000000" font-family="sans-serif" font-size="13.75" lengthAdjust="spacing" textLength="120" x="355" y="491.1487">-Company company</text><text fill="#000000" font-family="sans-serif" font-size="13.75" lengthAdjust="spacing" textLength="85" x="355" y="508.4436">-Report report</text><line style="stroke:#A80036;stroke-width:1.875;" x1="348.75" x2="537.5" y1="516.4648" y2="516.4648"/><text fill="#000000" font-family="sans-serif" font-size="13.75" lengthAdjust="spacing" textLength="137.5" x="355" y="535.7385">+getTeststoDiagnose()</text><text fill="#000000" font-family="sans-serif" font-size="13.75" lengthAdjust="spacing" textLength="176.25" x="355" y="553.0334">+getTestParametersResults()</text><text fill="#000000" font-family="sans-serif" font-size="13.75" lengthAdjust="spacing" textLength="158.75" x="355" y="570.3284">+createReport(reportText)</text><text fill="#000000" font-family="sans-serif" font-size="13.75" lengthAdjust="spacing" textLength="151.25" x="355" y="587.6233">+addReportToTest(code)</text><!--MD5=[71fba8c2abd557a2f7006580273aba3e]
class WriteReportUI--><rect codeLine="95" fill="#FEFECE" filter="url(#fd0kz91t360yq)" height="40" id="WriteReportUI" style="stroke:#A80036;stroke-width:1.875;" width="136.25" x="70" y="107.5"/><ellipse cx="88.75" cy="127.5" fill="#ADD1B2" rx="13.75" ry="13.75" style="stroke:#A80036;stroke-width:1.25;"/><path d="M91.25,123.125 Q91.5039,122.5 91.7969,122.1875 Q92.0898,121.875 92.4219,121.875 Q93.0078,121.875 93.3789,122.2266 Q93.75,122.5781 93.75,123.3984 L93.75,125.3516 Q93.75,126.1719 93.3984,126.5234 Q93.0469,126.875 92.5,126.875 Q92.0117,126.875 91.6992,126.6602 Q91.3867,126.4453 91.25,125.8789 Q91.1914,125.4883 90.9766,125.2734 Q90.5859,124.8633 89.8828,124.6289 Q89.1797,124.375 88.4766,124.375 Q87.5977,124.375 86.8555,124.7266 Q86.1328,125.0781 85.5664,125.8594 Q85,126.6406 85,127.7148 L85,128.8672 Q85,130.1563 86.0547,131.0156 Q87.1094,131.875 88.9844,131.875 Q90.0977,131.875 90.8789,131.6211 Q91.3281,131.4844 91.8359,131.0352 Q92.168,130.7813 92.3438,130.7031 Q92.5195,130.625 92.7344,130.625 Q93.1445,130.625 93.4375,130.957 Q93.75,131.2695 93.75,131.7188 Q93.75,132.1484 93.3203,132.6563 Q92.6953,133.3984 91.6992,133.8086 Q90.3906,134.375 88.7891,134.375 Q86.9141,134.375 85.4102,133.6328 Q84.1992,133.0469 83.3398,131.7773 Q82.5,130.5078 82.5,129.0039 L82.5,127.6367 Q82.5,126.0742 83.2422,124.707 Q84.0039,123.3398 85.3125,122.6172 Q86.6406,121.875 88.125,121.875 Q89.0234,121.875 89.8047,122.1875 Q90.5859,122.5 91.25,123.125 Z " fill="#000000"/><text fill="#000000" font-family="sans-serif" font-size="15" lengthAdjust="spacing" textLength="96.25" x="106.25" y="133.6377">WriteReportUI</text><!--MD5=[9fb704ffefcaf68bf1a361787afa998b]
class TestDTO--><rect fill="#FEFECE" filter="url(#fd0kz91t360yq)" height="40" id="TestDTO" style="stroke:#A80036;stroke-width:1.875;" width="101.25" x="1381.25" y="46.25"/><ellipse cx="1400" cy="66.25" fill="#ADD1B2" rx="13.75" ry="13.75" style="stroke:#A80036;stroke-width:1.25;"/><path d="M1402.5,61.875 Q1402.7539,61.25 1403.0469,60.9375 Q1403.3398,60.625 1403.6719,60.625 Q1404.2578,60.625 1404.6289,60.9766 Q1405,61.3281 1405,62.1484 L1405,64.1016 Q1405,64.9219 1404.6484,65.2734 Q1404.2969,65.625 1403.75,65.625 Q1403.2617,65.625 1402.9492,65.4102 Q1402.6367,65.1953 1402.5,64.6289 Q1402.4414,64.2383 1402.2266,64.0234 Q1401.8359,63.6133 1401.1328,63.3789 Q1400.4297,63.125 1399.7266,63.125 Q1398.8477,63.125 1398.1055,63.4766 Q1397.3828,63.8281 1396.8164,64.6094 Q1396.25,65.3906 1396.25,66.4648 L1396.25,67.6172 Q1396.25,68.9063 1397.3047,69.7656 Q1398.3594,70.625 1400.2344,70.625 Q1401.3477,70.625 1402.1289,70.3711 Q1402.5781,70.2344 1403.0859,69.7852 Q1403.418,69.5313 1403.5938,69.4531 Q1403.7695,69.375 1403.9844,69.375 Q1404.3945,69.375 1404.6875,69.707 Q1405,70.0195 1405,70.4688 Q1405,70.8984 1404.5703,71.4063 Q1403.9453,72.1484 1402.9492,72.5586 Q1401.6406,73.125 1400.0391,73.125 Q1398.1641,73.125 1396.6602,72.3828 Q1395.4492,71.7969 1394.5898,70.5273 Q1393.75,69.2578 1393.75,67.7539 L1393.75,66.3867 Q1393.75,64.8242 1394.4922,63.457 Q1395.2539,62.0898 1396.5625,61.3672 Q1397.8906,60.625 1399.375,60.625 Q1400.2734,60.625 1401.0547,60.9375 Q1401.8359,61.25 1402.5,61.875 Z " fill="#000000"/><text fill="#000000" font-family="sans-serif" font-size="15" lengthAdjust="spacing" textLength="61.25" x="1417.5" y="72.3877">TestDTO</text><!--MD5=[4ff913b72b026e4c95390310e4df5ddd]
link WriteReportUI to WriteReportController--><path codeLine="102" d="M150.6,147.6875 C173.8,188.7125 229.7,284.0375 287.5,356.25 C306.625,380.15 328.875,404.4875 350.4125,426.65 " fill="none" id="WriteReportUI-to-WriteReportController" style="stroke:#A80036;stroke-width:1.25;stroke-dasharray:7.0,7.0;"/><polygon fill="#A80036" points="355.2875,431.6375,350.9844,420.103,350.9129,427.1737,343.8422,427.1022,355.2875,431.6375" style="stroke:#A80036;stroke-width:1.25;"/><!--MD5=[b14f4b55bc9aa939c7cd06f1c0b56da5]
link WriteReportUI to TestDTO--><path codeLine="103" d="M176.3375,107.3 C232.1375,78.7375 342,30 441.875,30 C441.875,30 441.875,30 1080.625,30 C1184.7875,30 1305.45,46.075 1374.4375,56.825 " fill="none" id="WriteReportUI-to-TestDTO" style="stroke:#A80036;stroke-width:1.25;stroke-dasharray:7.0,7.0;"/><polygon fill="#A80036" points="1380.95,57.8375,1370.6056,51.1625,1374.7748,56.8737,1369.0635,61.0429,1380.95,57.8375" style="stroke:#A80036;stroke-width:1.25;"/><!--MD5=[f27b4a25a5b059d18ef9f1b16d7419ab]
link WriteReportController to TestMapper--><path codeLine="104" d="M538.95,449.375 C555.6,439.3 573.0375,429.5 590,421.25 C718.7125,358.625 876.1875,307.1625 976.825,277.2125 " fill="none" id="WriteReportController-to-TestMapper" style="stroke:#A80036;stroke-width:1.25;stroke-dasharray:7.0,7.0;"/><polygon fill="#A80036" points="983.3625,275.2625,971.1524,273.6893,977.3736,277.0502,974.0127,283.2715,983.3625,275.2625" style="stroke:#A80036;stroke-width:1.25;"/><!--MD5=[a3405a5a29c0a1359ce5b85a18cd6043]
link WriteReportController to Company--><path codeLine="105" d="M538.9375,511.3125 C572.4125,510.45 610.0125,509.4875 643.3125,508.625 " fill="none" id="WriteReportController-to-Company" style="stroke:#A80036;stroke-width:1.25;stroke-dasharray:7.0,7.0;"/><polygon fill="#A80036" points="649.9,508.4625,638.5248,503.7542,643.6521,508.6236,638.7826,513.7509,649.9,508.4625" style="stroke:#A80036;stroke-width:1.25;"/><!--MD5=[aa4aa685cc8a1bee089823f9a2dac854]
link WriteReportController to TestStore--><path codeLine="106" d="M488.3375,595.6625 C513.15,634.05 547.6875,676.8875 590,702.5 C819.0625,841.1875 1143.525,858.2 1314.625,856.2125 " fill="none" id="WriteReportController-to-TestStore" style="stroke:#A80036;stroke-width:1.25;stroke-dasharray:7.0,7.0;"/><polygon fill="#A80036" points="1321.1375,856.125,1309.8172,851.2862,1314.8881,856.2143,1309.9601,861.2852,1321.1375,856.125" style="stroke:#A80036;stroke-width:1.25;"/><!--MD5=[d2c887862af794255aa293b427ffc580]
link WriteReportController to TestDTO--><path codeLine="107" d="M513.3125,431.7 C536.125,407.5375 562.7125,382.3 590,362.5 C846.9875,176 1232.0875,98.1375 1374.8125,74.5875 " fill="none" id="WriteReportController-to-TestDTO" style="stroke:#A80036;stroke-width:1.25;stroke-dasharray:7.0,7.0;"/><polygon fill="#A80036" points="1381.0125,73.575,1369.1067,70.4421,1374.8432,74.5764,1370.7089,80.3129,1381.0125,73.575" style="stroke:#A80036;stroke-width:1.25;"/><!--MD5=[b0f4f6db8206580012ef9cd998ed01c5]
link TestStore to Test--><path codeLine="108" d="M1431.875,777.7875 C1431.875,725.0125 1431.875,654.6 1431.875,604.3625 " fill="none" id="TestStore-to-Test" style="stroke:#A80036;stroke-width:1.25;"/><polygon fill="#A80036" points="1431.875,597.7125,1426.875,608.9625,1431.875,603.9625,1436.875,608.9625,1431.875,597.7125" style="stroke:#A80036;stroke-width:1.25;"/><polygon fill="#000000" points="1389.375,681.7822,1385.7013,693.0886,1393.0487,693.0886,1389.375,681.7822" style="stroke:#000000;stroke-width:1.25;"/><text fill="#000000" font-family="sans-serif" font-size="16.25" lengthAdjust="spacing" textLength="48.75" x="1400.625" y="694.6814">adopts</text><text fill="#000000" font-family="sans-serif" font-size="16.25" lengthAdjust="spacing" textLength="8.75" x="1422.5918" y="764.4975">1</text><text fill="#000000" font-family="sans-serif" font-size="16.25" lengthAdjust="spacing" textLength="6.25" x="1425.2051" y="623.5832">*</text><!--MD5=[670dbdf7395d3fcbb40104f0a070263e]
link Company to Report--><path codeLine="109" d="M823.925,515.0875 C864.2375,519.2375 913,524.25 956.9875,528.775 " fill="none" id="Company-to-Report" style="stroke:#A80036;stroke-width:1.25;"/><polygon fill="#A80036" points="963.45,529.45,952.7742,523.3189,957.2332,528.8069,951.7452,533.2658,963.45,529.45" style="stroke:#A80036;stroke-width:1.25;"/><polygon fill="#000000" points="873.7172,508.3593,862.8461,503.548,862.0943,510.8567,873.7172,508.3593" style="stroke:#000000;stroke-width:1.25;"/><text fill="#000000" font-family="sans-serif" font-size="16.25" lengthAdjust="spacing" textLength="46.25" x="878.75" y="514.3689">knows</text><text fill="#000000" font-family="sans-serif" font-size="16.25" lengthAdjust="spacing" textLength="8.75" x="833.9246" y="534.0173">1</text><text fill="#000000" font-family="sans-serif" font-size="16.25" lengthAdjust="spacing" textLength="6.25" x="947.3412" y="546.2042">*</text><!--MD5=[63d25d625ab355317a074a623d33bba8]
link Report to Test--><path codeLine="110" d="M1195.225,541.25 C1252.4625,541.25 1319.5375,541.25 1367.4,541.25 " fill="none" id="Report-to-Test" style="stroke:#A80036;stroke-width:1.25;"/><polygon fill="#A80036" points="1373.7375,541.25,1362.4875,536.25,1367.4875,541.25,1362.4875,546.25,1373.7375,541.25" style="stroke:#A80036;stroke-width:1.25;"/><polygon fill="#000000" points="1245,530.2197,1233.6936,526.5461,1233.6936,533.8934,1245,530.2197" style="stroke:#000000;stroke-width:1.25;"/><text fill="#000000" font-family="sans-serif" font-size="16.25" lengthAdjust="spacing" textLength="30" x="1250" y="536.8689">is of</text><text fill="#000000" font-family="sans-serif" font-size="16.25" lengthAdjust="spacing" textLength="8.75" x="1205.1811" y="558.9814">1</text><text fill="#000000" font-family="sans-serif" font-size="16.25" lengthAdjust="spacing" textLength="8.75" x="1355.0246" y="559.7967">1</text><!--MD5=[8d9a2c3ea1bf73d8d45b939465e53fff]
link TestMapper to Test--><path codeLine="111" d="M1131.5125,291.2875 C1194.1625,343.6375 1300.5,432.5125 1368.075,488.975 " fill="none" id="TestMapper-to-Test" style="stroke:#A80036;stroke-width:1.25;stroke-dasharray:7.0,7.0;"/><polygon fill="#A80036" points="1373.275,493.3125,1367.8294,482.2713,1368.4722,489.3131,1361.4304,489.9559,1373.275,493.3125" style="stroke:#A80036;stroke-width:1.25;"/><!--MD5=[f6fda4afaf882dd39139bcbf06c50c8c]
link TestMapper to TestDTO--><path codeLine="112" d="M1171.6375,206.0625 C1206.2125,189.45 1245.7875,169.925 1281.25,151.25 C1319.025,131.35 1361.2375,107.1375 1391.125,89.65 " fill="none" id="TestMapper-to-TestDTO" style="stroke:#A80036;stroke-width:1.25;stroke-dasharray:7.0,7.0;"/><polygon fill="#A80036" points="1396.5625,86.475,1384.3284,87.8498,1391.1704,89.6353,1389.3849,96.4772,1396.5625,86.475" style="stroke:#A80036;stroke-width:1.25;"/><!--MD5=[868740e1dc35bbf49136052bc83f6d34]
@startuml
hide empty methods
hide empty attributes
left to right direction
skinparam classAttributeIconSize 0

package Core {

package Domain {

package Model {

class Company {
    -String designation
    -TestStore testStore
    +getTestStore()
    +createReport(reportText)
}

class Report {
    - int REPORTTEXT_MAX_LENGTH
    - String reportText
    - Report report
    + Report(reportText)
    + checkReportTextRules(reportText)
    + countWords(reportText)
    + equals(reportObject)
    + create(reportText)
}

class Test {
    -String NHSCode
    -String code
    +getCode()
}

class TestParameter {
    +getParametersResults()
}

}

package Stores {

class TestStore {
    -list<Test> testsReadyToDiagnose
    +getTestsReadyToDiagnose()
    +getTestByCode(code)
    +getTestParameters()
    +addReportToTest(selectedTest)
}

}

}

package Mappers {

class TestMapper {
    +toDTO(listTestsToDiagnose)
    +toDTO(obj)
}

}

package DTO {

class TestsDTO {
    -String NHSCode
    -String code
    +create(NHSCode, code)
    +getCode()
}

}

package Controllers {

class WriteReportController {
    -Company company
    -Report report
    +getTeststoDiagnose()
    +getTestParametersResults()
    +createReport(reportText)
    +addReportToTest(code)
}

}

}

package UI {

package Console {

class WriteReportUI {
}

}

}

WriteReportUI ..> WriteReportController
WriteReportUI ..> TestDTO
WriteReportController ..> TestMapper
WriteReportController ..> Company
WriteReportController ..> TestStore
WriteReportController ..> TestDTO
TestStore "1" -> "*" Test : adopts >
Company "1" - -> "*" Report : knows >
Report "1" - -> "1" Test : is of >
TestMapper ..> Test
TestMapper ..> TestDTO

@enduml

PlantUML version 1.2021.5(Sun Apr 25 12:20:28 BST 2021)
(GPL source distribution)
Java Runtime: OpenJDK Runtime Environment
JVM: Dynamic Code Evolution 64-Bit Server VM
Default Encoding: Cp1252
Language: pt
Country: PT
--></g></svg>