<?xml version="1.0" encoding="UTF-8" standalone="no"?><svg xmlns="http://www.w3.org/2000/svg" xmlns:xlink="http://www.w3.org/1999/xlink" contentScriptType="application/ecmascript" contentStyleType="text/css" height="1218.75px" preserveAspectRatio="none" style="width:1475px;height:1218px;" version="1.1" viewBox="0 0 1475 1218" width="1475px" zoomAndPan="magnify"><defs><filter height="300%" id="fmmpzx2qwe0ib" width="300%" x="-1" y="-1"><feGaussianBlur result="blurOut" stdDeviation="2.5"/><feColorMatrix in="blurOut" result="blurOut2" type="matrix" values="0 0 0 0 0 0 0 0 0 0 0 0 0 0 0 0 0 0 .4 0"/><feOffset dx="5.0" dy="5.0" in="blurOut2" result="blurOut3"/><feBlend in="SourceGraphic" in2="blurOut3" mode="normal"/></filter></defs><g><!--MD5=[121a8bf1197281ab89ed693fab589f94]
cluster Domain--><polygon fill="#FFFFFF" filter="url(#fmmpzx2qwe0ib)" points="762.5,423.75,835,423.75,843.75,453.2617,1377.5,453.2617,1377.5,1210,762.5,1210,762.5,423.75" style="stroke:#000000;stroke-width:1.875;"/><line style="stroke:#000000;stroke-width:1.875;" x1="762.5" x2="843.75" y1="453.2617" y2="453.2617"/><text fill="#000000" font-family="sans-serif" font-size="17.5" font-weight="bold" lengthAdjust="spacing" textLength="65" x="767.5" y="444.4165">Domain</text><!--MD5=[8dd535d56cd4cf7faf64fdd082ba836e]
cluster Stores--><polygon fill="#FFFFFF" filter="url(#fmmpzx2qwe0ib)" points="1112.5,986.25,1177.5,986.25,1186.25,1015.7617,1347.5,1015.7617,1347.5,1180,1112.5,1180,1112.5,986.25" style="stroke:#000000;stroke-width:1.875;"/><line style="stroke:#000000;stroke-width:1.875;" x1="1112.5" x2="1186.25" y1="1015.7617" y2="1015.7617"/><text fill="#000000" font-family="sans-serif" font-size="17.5" font-weight="bold" lengthAdjust="spacing" textLength="57.5" x="1117.5" y="1006.9165">Stores</text><!--MD5=[701152d03fbf85133a1de050cfdbc7fd]
cluster Mappers--><polygon fill="#FFFFFF" filter="url(#fmmpzx2qwe0ib)" points="332.5,445.625,417.5,445.625,426.25,475.1367,732.5,475.1367,732.5,595.625,332.5,595.625,332.5,445.625" style="stroke:#000000;stroke-width:1.875;"/><line style="stroke:#000000;stroke-width:1.875;" x1="332.5" x2="426.25" y1="475.1367" y2="475.1367"/><text fill="#000000" font-family="sans-serif" font-size="17.5" font-weight="bold" lengthAdjust="spacing" textLength="77.5" x="337.5" y="466.2915">Mappers</text><!--MD5=[79f6d8311de756be0abfe06353b7a6cc]
cluster DTOs--><polygon fill="#FFFFFF" filter="url(#fmmpzx2qwe0ib)" points="27.5,677.5,81.25,677.5,90,707.0117,422.5,707.0117,422.5,923.75,27.5,923.75,27.5,677.5" style="stroke:#000000;stroke-width:1.875;"/><line style="stroke:#000000;stroke-width:1.875;" x1="27.5" x2="90" y1="707.0117" y2="707.0117"/><text fill="#000000" font-family="sans-serif" font-size="17.5" font-weight="bold" lengthAdjust="spacing" textLength="46.25" x="32.5" y="698.1665">DTOs</text><!--MD5=[ed1d20ea533a2a0e7df5ba3c35e56ced]
cluster Controllers--><polygon fill="#FFFFFF" filter="url(#fmmpzx2qwe0ib)" points="298.75,153.75,405,153.75,413.75,183.2617,528.75,183.2617,528.75,382.5,298.75,382.5,298.75,153.75" style="stroke:#000000;stroke-width:1.875;"/><line style="stroke:#000000;stroke-width:1.875;" x1="298.75" x2="413.75" y1="183.2617" y2="183.2617"/><text fill="#000000" font-family="sans-serif" font-size="17.5" font-weight="bold" lengthAdjust="spacing" textLength="98.75" x="303.75" y="174.4165">Controllers</text><!--MD5=[9681dc6e01e10c6b4fe06895ae94f592]
cluster UI--><polygon fill="#FFFFFF" filter="url(#fmmpzx2qwe0ib)" points="20,7.5,45,7.5,53.75,37.0117,197.5,37.0117,197.5,112.5,20,112.5,20,7.5" style="stroke:#000000;stroke-width:1.875;"/><line style="stroke:#000000;stroke-width:1.875;" x1="20" x2="53.75" y1="37.0117" y2="37.0117"/><text fill="#000000" font-family="sans-serif" font-size="17.5" font-weight="bold" lengthAdjust="spacing" textLength="17.5" x="25" y="28.1665">UI</text><!--MD5=[02e4b9b7573f1156f41e60aa5b4e25a4]
class Company--><rect codeLine="8" fill="#FEFECE" filter="url(#fmmpzx2qwe0ib)" height="129.1797" id="Company" style="stroke:#A80036;stroke-width:1.875;" width="173.75" x="854.375" y="468.75"/><ellipse cx="903.5" cy="488.75" fill="#ADD1B2" rx="13.75" ry="13.75" style="stroke:#A80036;stroke-width:1.25;"/><path d="M906,484.375 Q906.2539,483.75 906.5469,483.4375 Q906.8398,483.125 907.1719,483.125 Q907.7578,483.125 908.1289,483.4766 Q908.5,483.8281 908.5,484.6484 L908.5,486.6016 Q908.5,487.4219 908.1484,487.7734 Q907.7969,488.125 907.25,488.125 Q906.7617,488.125 906.4492,487.9102 Q906.1367,487.6953 906,487.1289 Q905.9414,486.7383 905.7266,486.5234 Q905.3359,486.1133 904.6328,485.8789 Q903.9297,485.625 903.2266,485.625 Q902.3477,485.625 901.6055,485.9766 Q900.8828,486.3281 900.3164,487.1094 Q899.75,487.8906 899.75,488.9648 L899.75,490.1172 Q899.75,491.4063 900.8047,492.2656 Q901.8594,493.125 903.7344,493.125 Q904.8477,493.125 905.6289,492.8711 Q906.0781,492.7344 906.5859,492.2852 Q906.918,492.0313 907.0938,491.9531 Q907.2695,491.875 907.4844,491.875 Q907.8945,491.875 908.1875,492.207 Q908.5,492.5195 908.5,492.9688 Q908.5,493.3984 908.0703,493.9063 Q907.4453,494.6484 906.4492,495.0586 Q905.1406,495.625 903.5391,495.625 Q901.6641,495.625 900.1602,494.8828 Q898.9492,494.2969 898.0898,493.0273 Q897.25,491.7578 897.25,490.2539 L897.25,488.8867 Q897.25,487.3242 897.9922,485.957 Q898.7539,484.5898 900.0625,483.8672 Q901.3906,483.125 902.875,483.125 Q903.7734,483.125 904.5547,483.4375 Q905.3359,483.75 906,484.375 Z " fill="#000000"/><text fill="#000000" font-family="sans-serif" font-size="15" lengthAdjust="spacing" textLength="66.25" x="927.75" y="494.8877">Company</text><line style="stroke:#A80036;stroke-width:1.875;" x1="855.625" x2="1026.875" y1="508.75" y2="508.75"/><text fill="#000000" font-family="sans-serif" font-size="13.75" lengthAdjust="spacing" textLength="112.5" x="861.875" y="528.0237">-String designation</text><text fill="#000000" font-family="sans-serif" font-size="13.75" lengthAdjust="spacing" textLength="122.5" x="861.875" y="545.3186">-TestStore testStore</text><line style="stroke:#A80036;stroke-width:1.875;" x1="855.625" x2="1026.875" y1="553.3398" y2="553.3398"/><text fill="#000000" font-family="sans-serif" font-size="13.75" lengthAdjust="spacing" textLength="95" x="861.875" y="572.6135">+getTestStore()</text><text fill="#000000" font-family="sans-serif" font-size="13.75" lengthAdjust="spacing" textLength="158.75" x="861.875" y="589.9084">+createReport(reportText)</text><!--MD5=[f00dbe8c0302c6aec2cb26b3c659c8fc]
class Report--><rect codeLine="15" fill="#FEFECE" filter="url(#fmmpzx2qwe0ib)" height="146.4746" id="Report" style="stroke:#A80036;stroke-width:1.875;" width="231.25" x="1035.625" y="740"/><ellipse cx="1122.8125" cy="760" fill="#ADD1B2" rx="13.75" ry="13.75" style="stroke:#A80036;stroke-width:1.25;"/><path d="M1125.3125,755.625 Q1125.5664,755 1125.8594,754.6875 Q1126.1523,754.375 1126.4844,754.375 Q1127.0703,754.375 1127.4414,754.7266 Q1127.8125,755.0781 1127.8125,755.8984 L1127.8125,757.8516 Q1127.8125,758.6719 1127.4609,759.0234 Q1127.1094,759.375 1126.5625,759.375 Q1126.0742,759.375 1125.7617,759.1602 Q1125.4492,758.9453 1125.3125,758.3789 Q1125.2539,757.9883 1125.0391,757.7734 Q1124.6484,757.3633 1123.9453,757.1289 Q1123.2422,756.875 1122.5391,756.875 Q1121.6602,756.875 1120.918,757.2266 Q1120.1953,757.5781 1119.6289,758.3594 Q1119.0625,759.1406 1119.0625,760.2148 L1119.0625,761.3672 Q1119.0625,762.6563 1120.1172,763.5156 Q1121.1719,764.375 1123.0469,764.375 Q1124.1602,764.375 1124.9414,764.1211 Q1125.3906,763.9844 1125.8984,763.5352 Q1126.2305,763.2813 1126.4063,763.2031 Q1126.582,763.125 1126.7969,763.125 Q1127.207,763.125 1127.5,763.457 Q1127.8125,763.7695 1127.8125,764.2188 Q1127.8125,764.6484 1127.3828,765.1563 Q1126.7578,765.8984 1125.7617,766.3086 Q1124.4531,766.875 1122.8516,766.875 Q1120.9766,766.875 1119.4727,766.1328 Q1118.2617,765.5469 1117.4023,764.2773 Q1116.5625,763.0078 1116.5625,761.5039 L1116.5625,760.1367 Q1116.5625,758.5742 1117.3047,757.207 Q1118.0664,755.8398 1119.375,755.1172 Q1120.7031,754.375 1122.1875,754.375 Q1123.0859,754.375 1123.8672,754.6875 Q1124.6484,755 1125.3125,755.625 Z " fill="#000000"/><text fill="#000000" font-family="sans-serif" font-size="15" lengthAdjust="spacing" textLength="46.25" x="1148.4375" y="766.1377">Report</text><line style="stroke:#A80036;stroke-width:1.875;" x1="1036.875" x2="1265.625" y1="780" y2="780"/><text fill="#000000" font-family="sans-serif" font-size="13.75" lengthAdjust="spacing" textLength="106.25" x="1043.125" y="799.2737">-String reportText</text><line style="stroke:#A80036;stroke-width:1.875;" x1="1036.875" x2="1265.625" y1="807.2949" y2="807.2949"/><text fill="#000000" font-family="sans-serif" font-size="13.75" lengthAdjust="spacing" textLength="120" x="1043.125" y="826.5686">+Report(reportText)</text><text fill="#000000" font-family="sans-serif" font-size="13.75" lengthAdjust="spacing" textLength="216.25" x="1043.125" y="843.8635">+checkReportTextRules(reportText)</text><text fill="#000000" font-family="sans-serif" font-size="13.75" lengthAdjust="spacing" textLength="153.75" x="1043.125" y="861.1584">+countWords(reportText)</text><text fill="#000000" font-family="sans-serif" font-size="13.75" lengthAdjust="spacing" textLength="63.75" x="1043.125" y="878.4534">+toString()</text><!--MD5=[df38be88ccee13e832d6fafd6288a4ca]
class Test--><rect codeLine="23" fill="#FEFECE" filter="url(#fmmpzx2qwe0ib)" height="163.7695" id="Test" style="stroke:#A80036;stroke-width:1.875;" width="238.75" x="783.125" y="1013.75"/><ellipse cx="882.1875" cy="1033.75" fill="#ADD1B2" rx="13.75" ry="13.75" style="stroke:#A80036;stroke-width:1.25;"/><path d="M884.6875,1029.375 Q884.9414,1028.75 885.2344,1028.4375 Q885.5273,1028.125 885.8594,1028.125 Q886.4453,1028.125 886.8164,1028.4766 Q887.1875,1028.8281 887.1875,1029.6484 L887.1875,1031.6016 Q887.1875,1032.4219 886.8359,1032.7734 Q886.4844,1033.125 885.9375,1033.125 Q885.4492,1033.125 885.1367,1032.9102 Q884.8242,1032.6953 884.6875,1032.1289 Q884.6289,1031.7383 884.4141,1031.5234 Q884.0234,1031.1133 883.3203,1030.8789 Q882.6172,1030.625 881.9141,1030.625 Q881.0352,1030.625 880.293,1030.9766 Q879.5703,1031.3281 879.0039,1032.1094 Q878.4375,1032.8906 878.4375,1033.9648 L878.4375,1035.1172 Q878.4375,1036.4063 879.4922,1037.2656 Q880.5469,1038.125 882.4219,1038.125 Q883.5352,1038.125 884.3164,1037.8711 Q884.7656,1037.7344 885.2734,1037.2852 Q885.6055,1037.0313 885.7813,1036.9531 Q885.957,1036.875 886.1719,1036.875 Q886.582,1036.875 886.875,1037.207 Q887.1875,1037.5195 887.1875,1037.9688 Q887.1875,1038.3984 886.7578,1038.9063 Q886.1328,1039.6484 885.1367,1040.0586 Q883.8281,1040.625 882.2266,1040.625 Q880.3516,1040.625 878.8477,1039.8828 Q877.6367,1039.2969 876.7773,1038.0273 Q875.9375,1036.7578 875.9375,1035.2539 L875.9375,1033.8867 Q875.9375,1032.3242 876.6797,1030.957 Q877.4414,1029.5898 878.75,1028.8672 Q880.0781,1028.125 881.5625,1028.125 Q882.4609,1028.125 883.2422,1028.4375 Q884.0234,1028.75 884.6875,1029.375 Z " fill="#000000"/><text fill="#000000" font-family="sans-serif" font-size="15" lengthAdjust="spacing" textLength="30" x="907.8125" y="1039.8877">Test</text><line style="stroke:#A80036;stroke-width:1.875;" x1="784.375" x2="1020.625" y1="1053.75" y2="1053.75"/><text fill="#000000" font-family="sans-serif" font-size="13.75" lengthAdjust="spacing" textLength="73.75" x="790.625" y="1073.0237">-String code</text><text fill="#000000" font-family="sans-serif" font-size="13.75" lengthAdjust="spacing" textLength="146.25" x="790.625" y="1090.3186">-Report diagnosisReport</text><text fill="#000000" font-family="sans-serif" font-size="13.75" lengthAdjust="spacing" textLength="223.75" x="790.625" y="1107.6135">-List&lt;TestParameter&gt; testParameters</text><line style="stroke:#A80036;stroke-width:1.875;" x1="784.375" x2="1020.625" y1="1115.6348" y2="1115.6348"/><text fill="#000000" font-family="sans-serif" font-size="13.75" lengthAdjust="spacing" textLength="105" x="790.625" y="1134.9084">+getParameters()</text><text fill="#000000" font-family="sans-serif" font-size="13.75" lengthAdjust="spacing" textLength="148.75" x="790.625" y="1152.2034">+hasSamplesAnalysed()</text><text fill="#000000" font-family="sans-serif" font-size="13.75" lengthAdjust="spacing" textLength="116.25" x="790.625" y="1169.4983">+addReport(report)</text><!--MD5=[0f07739f46effee96e095e9c408da841]
class TestParameter--><rect codeLine="32" fill="#FEFECE" filter="url(#fmmpzx2qwe0ib)" height="129.1797" id="TestParameter" style="stroke:#A80036;stroke-width:1.875;" width="208.75" x="783.125" y="748.75"/><ellipse cx="831.6875" cy="768.75" fill="#ADD1B2" rx="13.75" ry="13.75" style="stroke:#A80036;stroke-width:1.25;"/><path d="M834.1875,764.375 Q834.4414,763.75 834.7344,763.4375 Q835.0273,763.125 835.3594,763.125 Q835.9453,763.125 836.3164,763.4766 Q836.6875,763.8281 836.6875,764.6484 L836.6875,766.6016 Q836.6875,767.4219 836.3359,767.7734 Q835.9844,768.125 835.4375,768.125 Q834.9492,768.125 834.6367,767.9102 Q834.3242,767.6953 834.1875,767.1289 Q834.1289,766.7383 833.9141,766.5234 Q833.5234,766.1133 832.8203,765.8789 Q832.1172,765.625 831.4141,765.625 Q830.5352,765.625 829.793,765.9766 Q829.0703,766.3281 828.5039,767.1094 Q827.9375,767.8906 827.9375,768.9648 L827.9375,770.1172 Q827.9375,771.4063 828.9922,772.2656 Q830.0469,773.125 831.9219,773.125 Q833.0352,773.125 833.8164,772.8711 Q834.2656,772.7344 834.7734,772.2852 Q835.1055,772.0313 835.2813,771.9531 Q835.457,771.875 835.6719,771.875 Q836.082,771.875 836.375,772.207 Q836.6875,772.5195 836.6875,772.9688 Q836.6875,773.3984 836.2578,773.9063 Q835.6328,774.6484 834.6367,775.0586 Q833.3281,775.625 831.7266,775.625 Q829.8516,775.625 828.3477,774.8828 Q827.1367,774.2969 826.2773,773.0273 Q825.4375,771.7578 825.4375,770.2539 L825.4375,768.8867 Q825.4375,767.3242 826.1797,765.957 Q826.9414,764.5898 828.25,763.8672 Q829.5781,763.125 831.0625,763.125 Q831.9609,763.125 832.7422,763.4375 Q833.5234,763.75 834.1875,764.375 Z " fill="#000000"/><text fill="#000000" font-family="sans-serif" font-size="15" lengthAdjust="spacing" textLength="102.5" x="855.8125" y="774.8877">TestParameter</text><line style="stroke:#A80036;stroke-width:1.875;" x1="784.375" x2="990.625" y1="788.75" y2="788.75"/><text fill="#000000" font-family="sans-serif" font-size="13.75" lengthAdjust="spacing" textLength="131.25" x="790.625" y="808.0237">-Parameter parameter</text><text fill="#000000" font-family="sans-serif" font-size="13.75" lengthAdjust="spacing" textLength="193.75" x="790.625" y="825.3186">-TestParameterResult testResult</text><line style="stroke:#A80036;stroke-width:1.875;" x1="784.375" x2="990.625" y1="833.3398" y2="833.3398"/><text fill="#000000" font-family="sans-serif" font-size="13.75" lengthAdjust="spacing" textLength="97.5" x="790.625" y="852.6135">+getParameter()</text><text fill="#000000" font-family="sans-serif" font-size="13.75" lengthAdjust="spacing" textLength="135" x="790.625" y="869.9084">+getParameterResult()</text><!--MD5=[0f6f7964b844a64b0496af0dda7914bd]
class TestStore--><rect codeLine="41" fill="#FEFECE" filter="url(#fmmpzx2qwe0ib)" height="129.1797" id="TestStore" style="stroke:#A80036;stroke-width:1.875;" width="195" x="1132.5" y="1031.25"/><ellipse cx="1191.5625" cy="1051.25" fill="#ADD1B2" rx="13.75" ry="13.75" style="stroke:#A80036;stroke-width:1.25;"/><path d="M1194.0625,1046.875 Q1194.3164,1046.25 1194.6094,1045.9375 Q1194.9023,1045.625 1195.2344,1045.625 Q1195.8203,1045.625 1196.1914,1045.9766 Q1196.5625,1046.3281 1196.5625,1047.1484 L1196.5625,1049.1016 Q1196.5625,1049.9219 1196.2109,1050.2734 Q1195.8594,1050.625 1195.3125,1050.625 Q1194.8242,1050.625 1194.5117,1050.4102 Q1194.1992,1050.1953 1194.0625,1049.6289 Q1194.0039,1049.2383 1193.7891,1049.0234 Q1193.3984,1048.6133 1192.6953,1048.3789 Q1191.9922,1048.125 1191.2891,1048.125 Q1190.4102,1048.125 1189.668,1048.4766 Q1188.9453,1048.8281 1188.3789,1049.6094 Q1187.8125,1050.3906 1187.8125,1051.4648 L1187.8125,1052.6172 Q1187.8125,1053.9063 1188.8672,1054.7656 Q1189.9219,1055.625 1191.7969,1055.625 Q1192.9102,1055.625 1193.6914,1055.3711 Q1194.1406,1055.2344 1194.6484,1054.7852 Q1194.9805,1054.5313 1195.1563,1054.4531 Q1195.332,1054.375 1195.5469,1054.375 Q1195.957,1054.375 1196.25,1054.707 Q1196.5625,1055.0195 1196.5625,1055.4688 Q1196.5625,1055.8984 1196.1328,1056.4063 Q1195.5078,1057.1484 1194.5117,1057.5586 Q1193.2031,1058.125 1191.6016,1058.125 Q1189.7266,1058.125 1188.2227,1057.3828 Q1187.0117,1056.7969 1186.1523,1055.5273 Q1185.3125,1054.2578 1185.3125,1052.7539 L1185.3125,1051.3867 Q1185.3125,1049.8242 1186.0547,1048.457 Q1186.8164,1047.0898 1188.125,1046.3672 Q1189.4531,1045.625 1190.9375,1045.625 Q1191.8359,1045.625 1192.6172,1045.9375 Q1193.3984,1046.25 1194.0625,1046.875 Z " fill="#000000"/><text fill="#000000" font-family="sans-serif" font-size="15" lengthAdjust="spacing" textLength="66.25" x="1217.1875" y="1057.3877">TestStore</text><line style="stroke:#A80036;stroke-width:1.875;" x1="1133.75" x2="1326.25" y1="1071.25" y2="1071.25"/><text fill="#000000" font-family="sans-serif" font-size="13.75" lengthAdjust="spacing" textLength="110" x="1140" y="1090.5237">-list&lt;Test&gt; testList</text><line style="stroke:#A80036;stroke-width:1.875;" x1="1133.75" x2="1326.25" y1="1098.5449" y2="1098.5449"/><text fill="#000000" font-family="sans-serif" font-size="13.75" lengthAdjust="spacing" textLength="180" x="1140" y="1117.8186">+getTestsReadyToDiagnose()</text><text fill="#000000" font-family="sans-serif" font-size="13.75" lengthAdjust="spacing" textLength="140" x="1140" y="1135.1135">+getTestByCode(code)</text><text fill="#000000" font-family="sans-serif" font-size="13.75" lengthAdjust="spacing" textLength="146.25" x="1140" y="1152.4084">+getTestParameters(tst)</text><!--MD5=[144698ec4d0188f6929a3b58a3eeb1f6]
class TestMapper--><rect codeLine="54" fill="#FEFECE" filter="url(#fmmpzx2qwe0ib)" height="84.5898" id="TestMapper" style="stroke:#A80036;stroke-width:1.875;" width="121.25" x="353.125" y="490.625"/><ellipse cx="371.875" cy="510.625" fill="#ADD1B2" rx="13.75" ry="13.75" style="stroke:#A80036;stroke-width:1.25;"/><path d="M374.375,506.25 Q374.6289,505.625 374.9219,505.3125 Q375.2148,505 375.5469,505 Q376.1328,505 376.5039,505.3516 Q376.875,505.7031 376.875,506.5234 L376.875,508.4766 Q376.875,509.2969 376.5234,509.6484 Q376.1719,510 375.625,510 Q375.1367,510 374.8242,509.7852 Q374.5117,509.5703 374.375,509.0039 Q374.3164,508.6133 374.1016,508.3984 Q373.7109,507.9883 373.0078,507.7539 Q372.3047,507.5 371.6016,507.5 Q370.7227,507.5 369.9805,507.8516 Q369.2578,508.2031 368.6914,508.9844 Q368.125,509.7656 368.125,510.8398 L368.125,511.9922 Q368.125,513.2813 369.1797,514.1406 Q370.2344,515 372.1094,515 Q373.2227,515 374.0039,514.7461 Q374.4531,514.6094 374.9609,514.1602 Q375.293,513.9063 375.4688,513.8281 Q375.6445,513.75 375.8594,513.75 Q376.2695,513.75 376.5625,514.082 Q376.875,514.3945 376.875,514.8438 Q376.875,515.2734 376.4453,515.7813 Q375.8203,516.5234 374.8242,516.9336 Q373.5156,517.5 371.9141,517.5 Q370.0391,517.5 368.5352,516.7578 Q367.3242,516.1719 366.4648,514.9023 Q365.625,513.6328 365.625,512.1289 L365.625,510.7617 Q365.625,509.1992 366.3672,507.832 Q367.1289,506.4648 368.4375,505.7422 Q369.7656,505 371.25,505 Q372.1484,505 372.9297,505.3125 Q373.7109,505.625 374.375,506.25 Z " fill="#000000"/><text fill="#000000" font-family="sans-serif" font-size="15" lengthAdjust="spacing" textLength="81.25" x="389.375" y="516.7627">TestMapper</text><line style="stroke:#A80036;stroke-width:1.875;" x1="354.375" x2="473.125" y1="530.625" y2="530.625"/><text fill="#000000" font-family="sans-serif" font-size="13.75" lengthAdjust="spacing" textLength="85" x="360.625" y="549.8987">+toDTO(tests)</text><text fill="#000000" font-family="sans-serif" font-size="13.75" lengthAdjust="spacing" textLength="77.5" x="360.625" y="567.1936">+toDTO(test)</text><!--MD5=[a82d32c079496d6dca2681dc0633feb0]
class TestParameterMapper--><rect codeLine="59" fill="#FEFECE" filter="url(#fmmpzx2qwe0ib)" height="84.5898" id="TestParameterMapper" style="stroke:#A80036;stroke-width:1.875;" width="193.75" x="518.125" y="490.625"/><ellipse cx="536.875" cy="510.625" fill="#ADD1B2" rx="13.75" ry="13.75" style="stroke:#A80036;stroke-width:1.25;"/><path d="M539.375,506.25 Q539.6289,505.625 539.9219,505.3125 Q540.2148,505 540.5469,505 Q541.1328,505 541.5039,505.3516 Q541.875,505.7031 541.875,506.5234 L541.875,508.4766 Q541.875,509.2969 541.5234,509.6484 Q541.1719,510 540.625,510 Q540.1367,510 539.8242,509.7852 Q539.5117,509.5703 539.375,509.0039 Q539.3164,508.6133 539.1016,508.3984 Q538.7109,507.9883 538.0078,507.7539 Q537.3047,507.5 536.6016,507.5 Q535.7227,507.5 534.9805,507.8516 Q534.2578,508.2031 533.6914,508.9844 Q533.125,509.7656 533.125,510.8398 L533.125,511.9922 Q533.125,513.2813 534.1797,514.1406 Q535.2344,515 537.1094,515 Q538.2227,515 539.0039,514.7461 Q539.4531,514.6094 539.9609,514.1602 Q540.293,513.9063 540.4688,513.8281 Q540.6445,513.75 540.8594,513.75 Q541.2695,513.75 541.5625,514.082 Q541.875,514.3945 541.875,514.8438 Q541.875,515.2734 541.4453,515.7813 Q540.8203,516.5234 539.8242,516.9336 Q538.5156,517.5 536.9141,517.5 Q535.0391,517.5 533.5352,516.7578 Q532.3242,516.1719 531.4648,514.9023 Q530.625,513.6328 530.625,512.1289 L530.625,510.7617 Q530.625,509.1992 531.3672,507.832 Q532.1289,506.4648 533.4375,505.7422 Q534.7656,505 536.25,505 Q537.1484,505 537.9297,505.3125 Q538.7109,505.625 539.375,506.25 Z " fill="#000000"/><text fill="#000000" font-family="sans-serif" font-size="15" lengthAdjust="spacing" textLength="153.75" x="554.375" y="516.7627">TestParameterMapper</text><line style="stroke:#A80036;stroke-width:1.875;" x1="519.375" x2="710.625" y1="530.625" y2="530.625"/><text fill="#000000" font-family="sans-serif" font-size="13.75" lengthAdjust="spacing" textLength="138.75" x="525.625" y="549.8987">+toDTO(testParameter)</text><text fill="#000000" font-family="sans-serif" font-size="13.75" lengthAdjust="spacing" textLength="146.25" x="525.625" y="567.1936">+toDTO(testParameters)</text><!--MD5=[9fb704ffefcaf68bf1a361787afa998b]
class TestDTO--><rect codeLine="68" fill="#FEFECE" filter="url(#fmmpzx2qwe0ib)" height="94.5898" id="TestDTO" style="stroke:#A80036;stroke-width:1.875;" width="101.25" x="48.125" y="765.625"/><ellipse cx="66.875" cy="785.625" fill="#ADD1B2" rx="13.75" ry="13.75" style="stroke:#A80036;stroke-width:1.25;"/><path d="M69.375,781.25 Q69.6289,780.625 69.9219,780.3125 Q70.2148,780 70.5469,780 Q71.1328,780 71.5039,780.3516 Q71.875,780.7031 71.875,781.5234 L71.875,783.4766 Q71.875,784.2969 71.5234,784.6484 Q71.1719,785 70.625,785 Q70.1367,785 69.8242,784.7852 Q69.5117,784.5703 69.375,784.0039 Q69.3164,783.6133 69.1016,783.3984 Q68.7109,782.9883 68.0078,782.7539 Q67.3047,782.5 66.6016,782.5 Q65.7227,782.5 64.9805,782.8516 Q64.2578,783.2031 63.6914,783.9844 Q63.125,784.7656 63.125,785.8398 L63.125,786.9922 Q63.125,788.2813 64.1797,789.1406 Q65.2344,790 67.1094,790 Q68.2227,790 69.0039,789.7461 Q69.4531,789.6094 69.9609,789.1602 Q70.293,788.9063 70.4688,788.8281 Q70.6445,788.75 70.8594,788.75 Q71.2695,788.75 71.5625,789.082 Q71.875,789.3945 71.875,789.8438 Q71.875,790.2734 71.4453,790.7813 Q70.8203,791.5234 69.8242,791.9336 Q68.5156,792.5 66.9141,792.5 Q65.0391,792.5 63.5352,791.7578 Q62.3242,791.1719 61.4648,789.9023 Q60.625,788.6328 60.625,787.1289 L60.625,785.7617 Q60.625,784.1992 61.3672,782.832 Q62.1289,781.4648 63.4375,780.7422 Q64.7656,780 66.25,780 Q67.1484,780 67.9297,780.3125 Q68.7109,780.625 69.375,781.25 Z " fill="#000000"/><text fill="#000000" font-family="sans-serif" font-size="15" lengthAdjust="spacing" textLength="61.25" x="84.375" y="791.7627">TestDTO</text><line style="stroke:#A80036;stroke-width:1.875;" x1="49.375" x2="148.125" y1="805.625" y2="805.625"/><text fill="#000000" font-family="sans-serif" font-size="13.75" lengthAdjust="spacing" textLength="73.75" x="55.625" y="824.8987">-String code</text><line style="stroke:#A80036;stroke-width:1.875;" x1="49.375" x2="148.125" y1="832.9199" y2="832.9199"/><text fill="#000000" font-family="sans-serif" font-size="13.75" lengthAdjust="spacing" textLength="67.5" x="55.625" y="852.1936">+getCode()</text><!--MD5=[77cd0d232cb0916388eba2b410e3de64]
class TestParametersDTO--><rect codeLine="73" fill="#FEFECE" filter="url(#fmmpzx2qwe0ib)" height="181.0645" id="TestParametersDTO" style="stroke:#A80036;stroke-width:1.875;" width="208.75" x="193.125" y="722.5"/><ellipse cx="223.6875" cy="742.5" fill="#ADD1B2" rx="13.75" ry="13.75" style="stroke:#A80036;stroke-width:1.25;"/><path d="M226.1875,738.125 Q226.4414,737.5 226.7344,737.1875 Q227.0273,736.875 227.3594,736.875 Q227.9453,736.875 228.3164,737.2266 Q228.6875,737.5781 228.6875,738.3984 L228.6875,740.3516 Q228.6875,741.1719 228.3359,741.5234 Q227.9844,741.875 227.4375,741.875 Q226.9492,741.875 226.6367,741.6602 Q226.3242,741.4453 226.1875,740.8789 Q226.1289,740.4883 225.9141,740.2734 Q225.5234,739.8633 224.8203,739.6289 Q224.1172,739.375 223.4141,739.375 Q222.5352,739.375 221.793,739.7266 Q221.0703,740.0781 220.5039,740.8594 Q219.9375,741.6406 219.9375,742.7148 L219.9375,743.8672 Q219.9375,745.1563 220.9922,746.0156 Q222.0469,746.875 223.9219,746.875 Q225.0352,746.875 225.8164,746.6211 Q226.2656,746.4844 226.7734,746.0352 Q227.1055,745.7813 227.2813,745.7031 Q227.457,745.625 227.6719,745.625 Q228.082,745.625 228.375,745.957 Q228.6875,746.2695 228.6875,746.7188 Q228.6875,747.1484 228.2578,747.6563 Q227.6328,748.3984 226.6367,748.8086 Q225.3281,749.375 223.7266,749.375 Q221.8516,749.375 220.3477,748.6328 Q219.1367,748.0469 218.2773,746.7773 Q217.4375,745.5078 217.4375,744.0039 L217.4375,742.6367 Q217.4375,741.0742 218.1797,739.707 Q218.9414,738.3398 220.25,737.6172 Q221.5781,736.875 223.0625,736.875 Q223.9609,736.875 224.7422,737.1875 Q225.5234,737.5 226.1875,738.125 Z " fill="#000000"/><text fill="#000000" font-family="sans-serif" font-size="15" lengthAdjust="spacing" textLength="142.5" x="243.8125" y="748.6377">TestParametersDTO</text><line style="stroke:#A80036;stroke-width:1.875;" x1="194.375" x2="400.625" y1="762.5" y2="762.5"/><text fill="#000000" font-family="sans-serif" font-size="13.75" lengthAdjust="spacing" textLength="131.25" x="200.625" y="781.7737">-Parameter parameter</text><text fill="#000000" font-family="sans-serif" font-size="13.75" lengthAdjust="spacing" textLength="193.75" x="200.625" y="799.0686">-TestParameterResult testResult</text><line style="stroke:#A80036;stroke-width:1.875;" x1="194.375" x2="400.625" y1="807.0898" y2="807.0898"/><text fill="#000000" font-family="sans-serif" font-size="13.75" lengthAdjust="spacing" textLength="97.5" x="200.625" y="826.3635">+getParameter()</text><text fill="#000000" font-family="sans-serif" font-size="13.75" lengthAdjust="spacing" textLength="161.25" x="200.625" y="843.6584">+getTestParameterResult()</text><text fill="#000000" font-family="sans-serif" font-size="13.75" lengthAdjust="spacing" textLength="108.75" x="200.625" y="860.9534">+getResultValue()</text><text fill="#000000" font-family="sans-serif" font-size="13.75" lengthAdjust="spacing" textLength="110" x="200.625" y="878.2483">+getResultMetric()</text><text fill="#000000" font-family="sans-serif" font-size="13.75" lengthAdjust="spacing" textLength="172.5" x="200.625" y="895.5432">+getResultReferenceValue()</text><!--MD5=[d7b8916e3117ca4a3ffdab4f31ea783a]
class WriteReportController--><rect codeLine="87" fill="#FEFECE" filter="url(#fmmpzx2qwe0ib)" height="163.7695" id="WriteReportController" style="stroke:#A80036;stroke-width:1.875;" width="188.75" x="319.375" y="198.75"/><ellipse cx="338.125" cy="218.75" fill="#ADD1B2" rx="13.75" ry="13.75" style="stroke:#A80036;stroke-width:1.25;"/><path d="M340.625,214.375 Q340.8789,213.75 341.1719,213.4375 Q341.4648,213.125 341.7969,213.125 Q342.3828,213.125 342.7539,213.4766 Q343.125,213.8281 343.125,214.6484 L343.125,216.6016 Q343.125,217.4219 342.7734,217.7734 Q342.4219,218.125 341.875,218.125 Q341.3867,218.125 341.0742,217.9102 Q340.7617,217.6953 340.625,217.1289 Q340.5664,216.7383 340.3516,216.5234 Q339.9609,216.1133 339.2578,215.8789 Q338.5547,215.625 337.8516,215.625 Q336.9727,215.625 336.2305,215.9766 Q335.5078,216.3281 334.9414,217.1094 Q334.375,217.8906 334.375,218.9648 L334.375,220.1172 Q334.375,221.4063 335.4297,222.2656 Q336.4844,223.125 338.3594,223.125 Q339.4727,223.125 340.2539,222.8711 Q340.7031,222.7344 341.2109,222.2852 Q341.543,222.0313 341.7188,221.9531 Q341.8945,221.875 342.1094,221.875 Q342.5195,221.875 342.8125,222.207 Q343.125,222.5195 343.125,222.9688 Q343.125,223.3984 342.6953,223.9063 Q342.0703,224.6484 341.0742,225.0586 Q339.7656,225.625 338.1641,225.625 Q336.2891,225.625 334.7852,224.8828 Q333.5742,224.2969 332.7148,223.0273 Q331.875,221.7578 331.875,220.2539 L331.875,218.8867 Q331.875,217.3242 332.6172,215.957 Q333.3789,214.5898 334.6875,213.8672 Q336.0156,213.125 337.5,213.125 Q338.3984,213.125 339.1797,213.4375 Q339.9609,213.75 340.625,214.375 Z " fill="#000000"/><text fill="#000000" font-family="sans-serif" font-size="15" lengthAdjust="spacing" textLength="148.75" x="355.625" y="224.8877">WriteReportController</text><line style="stroke:#A80036;stroke-width:1.875;" x1="320.625" x2="506.875" y1="238.75" y2="238.75"/><text fill="#000000" font-family="sans-serif" font-size="13.75" lengthAdjust="spacing" textLength="120" x="326.875" y="258.0237">-Company company</text><text fill="#000000" font-family="sans-serif" font-size="13.75" lengthAdjust="spacing" textLength="85" x="326.875" y="275.3186">-Report report</text><line style="stroke:#A80036;stroke-width:1.875;" x1="320.625" x2="506.875" y1="283.3398" y2="283.3398"/><text fill="#000000" font-family="sans-serif" font-size="13.75" lengthAdjust="spacing" textLength="158.75" x="326.875" y="302.6135">+createReport(reportText)</text><text fill="#000000" font-family="sans-serif" font-size="13.75" lengthAdjust="spacing" textLength="151.25" x="326.875" y="319.9084">+addReportToTest(code)</text><text fill="#000000" font-family="sans-serif" font-size="13.75" lengthAdjust="spacing" textLength="141.25" x="326.875" y="337.2034">+getTestsToDiagnose()</text><text fill="#000000" font-family="sans-serif" font-size="13.75" lengthAdjust="spacing" textLength="161.25" x="326.875" y="354.4983">+getTestParameters(code)</text><!--MD5=[71fba8c2abd557a2f7006580273aba3e]
class WriteReportUI--><rect codeLine="100" fill="#FEFECE" filter="url(#fmmpzx2qwe0ib)" height="40" id="WriteReportUI" style="stroke:#A80036;stroke-width:1.875;" width="136.25" x="40.625" y="52.5"/><ellipse cx="59.375" cy="72.5" fill="#ADD1B2" rx="13.75" ry="13.75" style="stroke:#A80036;stroke-width:1.25;"/><path d="M61.875,68.125 Q62.1289,67.5 62.4219,67.1875 Q62.7148,66.875 63.0469,66.875 Q63.6328,66.875 64.0039,67.2266 Q64.375,67.5781 64.375,68.3984 L64.375,70.3516 Q64.375,71.1719 64.0234,71.5234 Q63.6719,71.875 63.125,71.875 Q62.6367,71.875 62.3242,71.6602 Q62.0117,71.4453 61.875,70.8789 Q61.8164,70.4883 61.6016,70.2734 Q61.2109,69.8633 60.5078,69.6289 Q59.8047,69.375 59.1016,69.375 Q58.2227,69.375 57.4805,69.7266 Q56.7578,70.0781 56.1914,70.8594 Q55.625,71.6406 55.625,72.7148 L55.625,73.8672 Q55.625,75.1563 56.6797,76.0156 Q57.7344,76.875 59.6094,76.875 Q60.7227,76.875 61.5039,76.6211 Q61.9531,76.4844 62.4609,76.0352 Q62.793,75.7813 62.9688,75.7031 Q63.1445,75.625 63.3594,75.625 Q63.7695,75.625 64.0625,75.957 Q64.375,76.2695 64.375,76.7188 Q64.375,77.1484 63.9453,77.6563 Q63.3203,78.3984 62.3242,78.8086 Q61.0156,79.375 59.4141,79.375 Q57.5391,79.375 56.0352,78.6328 Q54.8242,78.0469 53.9648,76.7773 Q53.125,75.5078 53.125,74.0039 L53.125,72.6367 Q53.125,71.0742 53.8672,69.707 Q54.6289,68.3398 55.9375,67.6172 Q57.2656,66.875 58.75,66.875 Q59.6484,66.875 60.4297,67.1875 Q61.2109,67.5 61.875,68.125 Z " fill="#000000"/><text fill="#000000" font-family="sans-serif" font-size="15" lengthAdjust="spacing" textLength="96.25" x="76.875" y="78.6377">WriteReportUI</text><!--MD5=[4ff913b72b026e4c95390310e4df5ddd]
link WriteReportUI to WriteReportController--><path codeLine="105" d="M136.9,92.725 C176.85,119.6625 252.0125,170.3375 313.9625,212.1 " fill="none" id="WriteReportUI-to-WriteReportController" style="stroke:#A80036;stroke-width:1.25;stroke-dasharray:7.0,7.0;"/><polygon fill="#A80036" points="319.15,215.6,312.5877,205.1838,313.9579,212.1208,307.0209,213.4911,319.15,215.6" style="stroke:#A80036;stroke-width:1.25;"/><!--MD5=[b14f4b55bc9aa939c7cd06f1c0b56da5]
link WriteReportUI to TestDTO--><path codeLine="106" d="M94.9625,92.8125 C87.85,103.825 79.925,118.275 76.25,132.5 C23.6875,336.1 64.825,395.6625 76.25,605.625 C79.0875,657.8625 85.95,717.2125 91.35,758.7875 " fill="none" id="WriteReportUI-to-TestDTO" style="stroke:#A80036;stroke-width:1.25;stroke-dasharray:7.0,7.0;"/><polygon fill="#A80036" points="92.2125,765.3,95.7242,753.5004,91.4087,759.1019,85.8072,754.7865,92.2125,765.3" style="stroke:#A80036;stroke-width:1.25;"/><!--MD5=[8952b7c69889eb72cb6c7fe0a635c82b]
link WriteReportUI to TestParametersDTO--><path codeLine="107" d="M113.6,92.7375 C135.775,179.4375 228.2125,540.9375 272.9875,716.025 " fill="none" id="WriteReportUI-to-TestParametersDTO" style="stroke:#A80036;stroke-width:1.25;stroke-dasharray:7.0,7.0;"/><polygon fill="#A80036" points="274.5625,722.175,276.6176,710.0367,273.0132,716.1201,266.9297,712.5156,274.5625,722.175" style="stroke:#A80036;stroke-width:1.25;"/><!--MD5=[f27b4a25a5b059d18ef9f1b16d7419ab]
link WriteReportController to TestMapper--><path codeLine="108" d="M413.75,362.7 C413.75,402.85 413.75,449.9875 413.75,484.2875 " fill="none" id="WriteReportController-to-TestMapper" style="stroke:#A80036;stroke-width:1.25;stroke-dasharray:7.0,7.0;"/><polygon fill="#A80036" points="413.75,490.55,418.75,479.3,413.75,484.3,408.75,479.3,413.75,490.55" style="stroke:#A80036;stroke-width:1.25;"/><!--MD5=[2a13b80ffc8ef808da3a7bc0ac83e972]
link WriteReportController to TestParameterMapper--><path codeLine="109" d="M478.8125,362.7 C511.5375,403.35 550.025,451.1625 577.725,485.5625 " fill="none" id="WriteReportController-to-TestParameterMapper" style="stroke:#A80036;stroke-width:1.25;stroke-dasharray:7.0,7.0;"/><polygon fill="#A80036" points="581.725,490.55,578.5591,478.653,577.8033,485.6835,570.7727,484.9277,581.725,490.55" style="stroke:#A80036;stroke-width:1.25;"/><!--MD5=[a3405a5a29c0a1359ce5b85a18cd6043]
link WriteReportController to Company--><path codeLine="110" d="M508.1875,317.425 C572.3375,342.425 658.6125,377.725 732.5,413.75 C771.225,432.625 812.75,455.55 848.475,476.15 " fill="none" id="WriteReportController-to-Company" style="stroke:#A80036;stroke-width:1.25;stroke-dasharray:7.0,7.0;"/><polygon fill="#A80036" points="854.1625,479.4375,846.9213,469.4812,848.7503,476.3117,841.9199,478.1407,854.1625,479.4375" style="stroke:#A80036;stroke-width:1.25;"/><!--MD5=[aa4aa685cc8a1bee089823f9a2dac854]
link WriteReportController to TestStore--><path codeLine="111" d="M508.5,281.025 C716.7375,281.3875 1203.9125,295.175 1306.25,413.75 C1466.6875,599.6375 1371.375,729.4875 1306.25,966.25 C1300.65,986.6125 1290.875,1007 1280.1625,1025.3375 " fill="none" id="WriteReportController-to-TestStore" style="stroke:#A80036;stroke-width:1.25;stroke-dasharray:7.0,7.0;"/><polygon fill="#A80036" points="1276.8125,1030.9625,1286.888,1023.8882,1280.0281,1025.6032,1278.3131,1018.7432,1276.8125,1030.9625" style="stroke:#A80036;stroke-width:1.25;"/><!--MD5=[d2c887862af794255aa293b427ffc580]
link WriteReportController to TestDTO--><path codeLine="112" d="M328.6125,362.7875 C313.9375,378.9 299.55,396.2625 287.5,413.75 C208.8375,527.95 146.9375,680.05 117.5,759.1125 " fill="none" id="WriteReportController-to-TestDTO" style="stroke:#A80036;stroke-width:1.25;stroke-dasharray:7.0,7.0;"/><polygon fill="#A80036" points="115.2625,765.1375,123.8708,756.3364,117.4414,759.2796,114.4981,752.8502,115.2625,765.1375" style="stroke:#A80036;stroke-width:1.25;"/><!--MD5=[dbb0252714d08a11ef8d6a3e51fdcca3]
link WriteReportController to TestParametersDTO--><path codeLine="113" d="M355.9625,362.7 C346.675,378.95 338.25,396.3875 332.5,413.75 C299.5875,513.0875 293.3125,633.5625 293.7,715.7875 " fill="none" id="WriteReportController-to-TestParametersDTO" style="stroke:#A80036;stroke-width:1.25;stroke-dasharray:7.0,7.0;"/><polygon fill="#A80036" points="293.75,722.1375,298.6856,710.8591,293.7143,715.8876,288.6858,710.9163,293.75,722.1375" style="stroke:#A80036;stroke-width:1.25;"/><!--MD5=[b0f4f6db8206580012ef9cd998ed01c5]
link TestStore to Test--><path codeLine="114" d="M1132.1625,1095.625 C1099.6125,1095.625 1062.8875,1095.625 1028.5125,1095.625 " fill="none" id="TestStore-to-Test" style="stroke:#A80036;stroke-width:1.25;"/><polygon fill="#A80036" points="1022.125,1095.625,1033.375,1100.625,1028.375,1095.625,1033.375,1090.625,1022.125,1095.625" style="stroke:#A80036;stroke-width:1.25;"/><polygon fill="#000000" points="1043.4375,1080.8447,1054.7439,1084.5184,1054.7439,1077.1711,1043.4375,1080.8447" style="stroke:#000000;stroke-width:1.25;"/><text fill="#000000" font-family="sans-serif" font-size="16.25" lengthAdjust="spacing" textLength="48.75" x="1060.9375" y="1087.4939">adopts</text><text fill="#000000" font-family="sans-serif" font-size="16.25" lengthAdjust="spacing" textLength="8.75" x="1113.6704" y="1091.5412">1</text><text fill="#000000" font-family="sans-serif" font-size="16.25" lengthAdjust="spacing" textLength="6.25" x="1031.9066" y="1091.7138">*</text><!--MD5=[670dbdf7395d3fcbb40104f0a070263e]
link Company to Report--><path codeLine="115" d="M989.1625,597.6875 C1019.875,638.275 1059.95,691.225 1092.5625,734.325 " fill="none" id="Company-to-Report" style="stroke:#A80036;stroke-width:1.25;"/><polygon fill="#A80036" points="1096.5,739.525,1093.702,727.5361,1092.73,734.54,1085.7261,733.5681,1096.5,739.525" style="stroke:#A80036;stroke-width:1.25;"/><polygon fill="#000000" points="1042.5215,651.4535,1038.6282,640.2209,1032.7694,644.6546,1042.5215,651.4535" style="stroke:#000000;stroke-width:1.25;"/><text fill="#000000" font-family="sans-serif" font-size="16.25" lengthAdjust="spacing" textLength="46.25" x="1050" y="653.1189">knows</text><text fill="#000000" font-family="sans-serif" font-size="16.25" lengthAdjust="spacing" textLength="8.75" x="986.2629" y="624.5764">1</text><text fill="#000000" font-family="sans-serif" font-size="16.25" lengthAdjust="spacing" textLength="6.25" x="1083.1965" y="726.2182">*</text><!--MD5=[63d25d625ab355317a074a623d33bba8]
link Report to Test--><path codeLine="116" d="M1087.1875,886.4875 C1053.9875,923.85 1013.225,969.7375 978.45,1008.8875 " fill="none" id="Report-to-Test" style="stroke:#A80036;stroke-width:1.25;"/><polygon fill="#A80036" points="974.2375,1013.625,985.439,1008.5172,978.3809,1008.9458,977.9523,1001.8878,974.2375,1013.625" style="stroke:#A80036;stroke-width:1.25;"/><polygon fill="#000000" points="1035.8491,959.8922,1046.1046,953.8795,1040.6118,948.9997,1035.8491,959.8922" style="stroke:#000000;stroke-width:1.25;"/><text fill="#000000" font-family="sans-serif" font-size="16.25" lengthAdjust="spacing" textLength="30" x="1051.25" y="961.8689">is of</text><text fill="#000000" font-family="sans-serif" font-size="16.25" lengthAdjust="spacing" textLength="8.75" x="1070.0967" y="913.5293">1</text><text fill="#000000" font-family="sans-serif" font-size="16.25" lengthAdjust="spacing" textLength="8.75" x="972.8553" y="1000.4544">1</text><!--MD5=[7d615427424eb1e9d8965c4eb17ecbf5]
link TestParameter to Test--><path codeLine="117" d="M890.8875,877.5625 C892.925,915.6875 895.5625,964.8125 897.8,1006.6625 " fill="none" id="TestParameter-to-Test" style="stroke:#A80036;stroke-width:1.25;"/><polygon fill="#A80036" points="898.1625,1013.3125,902.5781,1001.8205,897.8415,1007.0707,892.5913,1002.3342,898.1625,1013.3125" style="stroke:#A80036;stroke-width:1.25;"/><polygon fill="#000000" points="901.5842,961.4608,904.6481,949.9742,897.3112,950.367,901.5842,961.4608" style="stroke:#000000;stroke-width:1.25;"/><text fill="#000000" font-family="sans-serif" font-size="16.25" lengthAdjust="spacing" textLength="30" x="912.5" y="961.8689">is of</text><text fill="#000000" font-family="sans-serif" font-size="16.25" lengthAdjust="spacing" textLength="25" x="864.6061" y="904.8999">1..*</text><text fill="#000000" font-family="sans-serif" font-size="16.25" lengthAdjust="spacing" textLength="8.75" x="888.4596" y="1000.1077">1</text><!--MD5=[8d9a2c3ea1bf73d8d45b939465e53fff]
link TestMapper to Test--><path codeLine="118" d="M449.7,575.8375 C512.6875,648.45 647.1875,803.35 761.25,933.75 C782.5625,958.125 805.75,984.525 827.05,1008.7375 " fill="none" id="TestMapper-to-Test" style="stroke:#A80036;stroke-width:1.25;stroke-dasharray:7.0,7.0;"/><polygon fill="#A80036" points="831.2875,1013.5625,827.6201,1001.8104,827.163,1008.8666,820.1067,1008.4096,831.2875,1013.5625" style="stroke:#A80036;stroke-width:1.25;"/><!--MD5=[886f81fd36c1ffd754dcf922ff388f49]
link TestParameterMapper to TestParameter--><path codeLine="119" d="M655.8,575.925 C699.325,620.2375 768.9625,691.1625 820.55,743.6875 " fill="none" id="TestParameterMapper-to-TestParameter" style="stroke:#A80036;stroke-width:1.25;stroke-dasharray:7.0,7.0;"/><polygon fill="#A80036" points="825.1625,748.4,820.8594,736.8655,820.7879,743.9362,813.7172,743.8647,825.1625,748.4" style="stroke:#A80036;stroke-width:1.25;"/><!--MD5=[f6fda4afaf882dd39139bcbf06c50c8c]
link TestMapper to TestDTO--><path codeLine="120" d="M352.8625,555.7875 C299.4125,577.1375 222.4125,614.425 171.25,667.5 C146.1625,693.525 127.95,729.95 116.0625,759.7 " fill="none" id="TestMapper-to-TestDTO" style="stroke:#A80036;stroke-width:1.25;stroke-dasharray:7.0,7.0;"/><polygon fill="#A80036" points="113.7625,765.5625,122.5282,756.9181,116.0467,759.7449,113.22,753.2634,113.7625,765.5625" style="stroke:#A80036;stroke-width:1.25;"/><!--MD5=[18ed76bd549b5ebe2e3f9be67ba1c205]
link TestParameterMapper to TestParametersDTO--><path codeLine="121" d="M567.4625,575.925 C524.65,613.35 460.125,669.7375 404.9,718 " fill="none" id="TestParameterMapper-to-TestParametersDTO" style="stroke:#A80036;stroke-width:1.25;stroke-dasharray:7.0,7.0;"/><polygon fill="#A80036" points="399.925,722.35,411.6918,718.73,404.6374,718.2445,405.123,711.1901,399.925,722.35" style="stroke:#A80036;stroke-width:1.25;"/><!--MD5=[b426add769330006db1825d1a6f4cd5f]
@startuml
hide empty methods
hide empty attributes
'left to right direction
skinparam classAttributeIconSize 0

package Domain {

class Company {
    -String designation
    -TestStore testStore
    +getTestStore()
    +createReport(reportText)
}

class Report {
    - String reportText
    + Report(reportText)
    + checkReportTextRules(reportText)
    + countWords(reportText)
    + toString()
}

class Test {
    -String code
    -Report diagnosisReport
    -List<TestParameter> testParameters
    +getParameters()
    +hasSamplesAnalysed()
    +addReport(report)
}

class TestParameter {
    -Parameter parameter
    -TestParameterResult testResult
    +getParameter()
    +getParameterResult()
}

package Stores {

class TestStore {
    -list<Test> testList
    +getTestsReadyToDiagnose()
    +getTestByCode(code)
    +getTestParameters(tst)
}

}

}

package Mappers {

class TestMapper {
    +toDTO(tests)
    +toDTO(test)
}

class TestParameterMapper {
    +toDTO(testParameter)
    +toDTO(testParameters)
}

}

package DTOs {

class TestDTO {
    -String code
    +getCode()
}

class TestParametersDTO {
    -Parameter parameter
    -TestParameterResult testResult
    +getParameter()
    +getTestParameterResult()
    +getResultValue()
    +getResultMetric()
    +getResultReferenceValue()
}

}

package Controllers {

class WriteReportController {
    -Company company
    -Report report
    +createReport(reportText)
    +addReportToTest(code)
    +getTestsToDiagnose()
    +getTestParameters(code)
}

}

package UI {

class WriteReportUI {
}

}

WriteReportUI ..> WriteReportController
WriteReportUI ..> TestDTO
WriteReportUI ..> TestParametersDTO
WriteReportController ..> TestMapper
WriteReportController ..> TestParameterMapper
WriteReportController ..> Company
WriteReportController ..> TestStore
WriteReportController ..> TestDTO
WriteReportController ..> TestParametersDTO
TestStore "1" -> "*" Test : adopts >
Company "1" - -> "*" Report : knows >
Report "1" - -> "1" Test : is of >
TestParameter "1..*" - -> "1" Test : is of >
TestMapper ..> Test
TestParameterMapper ..> TestParameter
TestMapper ..> TestDTO
TestParameterMapper ..> TestParametersDTO

@enduml

@startuml
hide empty methods
hide empty attributes
skinparam classAttributeIconSize 0

package Domain {

class Company {
    -String designation
    -TestStore testStore
    +getTestStore()
    +createReport(reportText)
}

class Report {
    - String reportText
    + Report(reportText)
    + checkReportTextRules(reportText)
    + countWords(reportText)
    + toString()
}

class Test {
    -String code
    -Report diagnosisReport
    -List<TestParameter> testParameters
    +getParameters()
    +hasSamplesAnalysed()
    +addReport(report)
}

class TestParameter {
    -Parameter parameter
    -TestParameterResult testResult
    +getParameter()
    +getParameterResult()
}

package Stores {

class TestStore {
    -list<Test> testList
    +getTestsReadyToDiagnose()
    +getTestByCode(code)
    +getTestParameters(tst)
}

}

}

package Mappers {

class TestMapper {
    +toDTO(tests)
    +toDTO(test)
}

class TestParameterMapper {
    +toDTO(testParameter)
    +toDTO(testParameters)
}

}

package DTOs {

class TestDTO {
    -String code
    +getCode()
}

class TestParametersDTO {
    -Parameter parameter
    -TestParameterResult testResult
    +getParameter()
    +getTestParameterResult()
    +getResultValue()
    +getResultMetric()
    +getResultReferenceValue()
}

}

package Controllers {

class WriteReportController {
    -Company company
    -Report report
    +createReport(reportText)
    +addReportToTest(code)
    +getTestsToDiagnose()
    +getTestParameters(code)
}

}

package UI {

class WriteReportUI {
}

}

WriteReportUI ..> WriteReportController
WriteReportUI ..> TestDTO
WriteReportUI ..> TestParametersDTO
WriteReportController ..> TestMapper
WriteReportController ..> TestParameterMapper
WriteReportController ..> Company
WriteReportController ..> TestStore
WriteReportController ..> TestDTO
WriteReportController ..> TestParametersDTO
TestStore "1" -> "*" Test : adopts >
Company "1" - -> "*" Report : knows >
Report "1" - -> "1" Test : is of >
TestParameter "1..*" - -> "1" Test : is of >
TestMapper ..> Test
TestParameterMapper ..> TestParameter
TestMapper ..> TestDTO
TestParameterMapper ..> TestParametersDTO

@enduml

PlantUML version 1.2021.5(Sun Apr 25 12:20:28 BST 2021)
(GPL source distribution)
Java Runtime: OpenJDK Runtime Environment
JVM: Dynamic Code Evolution 64-Bit Server VM
Default Encoding: Cp1252
Language: pt
Country: PT
--></g></svg>