<?xml version="1.0" encoding="UTF-8" standalone="no"?><svg xmlns="http://www.w3.org/2000/svg" xmlns:xlink="http://www.w3.org/1999/xlink" contentScriptType="application/ecmascript" contentStyleType="text/css" height="1013.75px" preserveAspectRatio="none" style="width:1752px;height:1013px;" version="1.1" viewBox="0 0 1752 1013" width="1752.5px" zoomAndPan="magnify"><defs><filter height="300%" id="f16cpd3k5d3ehe" width="300%" x="-1" y="-1"><feGaussianBlur result="blurOut" stdDeviation="2.5"/><feColorMatrix in="blurOut" result="blurOut2" type="matrix" values="0 0 0 0 0 0 0 0 0 0 0 0 0 0 0 0 0 0 .4 0"/><feOffset dx="5.0" dy="5.0" in="blurOut2" result="blurOut3"/><feBlend in="SourceGraphic" in2="blurOut3" mode="normal"/></filter></defs><g><!--MD5=[2c2e2644034c00788261e03c85b06837]
cluster Core--><polygon fill="#FFFFFF" filter="url(#f16cpd3k5d3ehe)" points="297.5,106.25,347.5,106.25,356.25,135.7617,1731.25,135.7617,1731.25,1005,297.5,1005,297.5,106.25" style="stroke:#000000;stroke-width:1.875;"/><line style="stroke:#000000;stroke-width:1.875;" x1="297.5" x2="356.25" y1="135.7617" y2="135.7617"/><text fill="#000000" font-family="sans-serif" font-size="17.5" font-weight="bold" lengthAdjust="spacing" textLength="42.5" x="302.5" y="126.9165">Core</text><!--MD5=[121a8bf1197281ab89ed693fab589f94]
cluster Domain--><polygon fill="#FFFFFF" filter="url(#f16cpd3k5d3ehe)" points="630,341.25,702.5,341.25,711.25,370.7617,1701.25,370.7617,1701.25,975,630,975,630,341.25" style="stroke:#000000;stroke-width:1.875;"/><line style="stroke:#000000;stroke-width:1.875;" x1="630" x2="711.25" y1="370.7617" y2="370.7617"/><text fill="#000000" font-family="sans-serif" font-size="17.5" font-weight="bold" lengthAdjust="spacing" textLength="65" x="635" y="361.9165">Domain</text><!--MD5=[15636c1ca4a123c16a2a1a8e90aca7a9]
cluster Model--><polygon fill="#FFFFFF" filter="url(#f16cpd3k5d3ehe)" points="660,396.25,722.5,396.25,731.25,425.7617,1618.75,425.7617,1618.75,702.5,660,702.5,660,396.25" style="stroke:#000000;stroke-width:1.875;"/><line style="stroke:#000000;stroke-width:1.875;" x1="660" x2="731.25" y1="425.7617" y2="425.7617"/><text fill="#000000" font-family="sans-serif" font-size="17.5" font-weight="bold" lengthAdjust="spacing" textLength="55" x="665" y="416.9165">Model</text><!--MD5=[8dd535d56cd4cf7faf64fdd082ba836e]
cluster Stores--><polygon fill="#FFFFFF" filter="url(#f16cpd3k5d3ehe)" points="1410,732.5,1475,732.5,1483.75,762.0117,1671.25,762.0117,1671.25,945,1410,945,1410,732.5" style="stroke:#000000;stroke-width:1.875;"/><line style="stroke:#000000;stroke-width:1.875;" x1="1410" x2="1483.75" y1="762.0117" y2="762.0117"/><text fill="#000000" font-family="sans-serif" font-size="17.5" font-weight="bold" lengthAdjust="spacing" textLength="57.5" x="1415" y="753.1665">Stores</text><!--MD5=[701152d03fbf85133a1de050cfdbc7fd]
cluster Mappers--><polygon fill="#FFFFFF" filter="url(#f16cpd3k5d3ehe)" points="1072.5,161.25,1157.5,161.25,1166.25,190.7617,1303.75,190.7617,1303.75,311.25,1072.5,311.25,1072.5,161.25" style="stroke:#000000;stroke-width:1.875;"/><line style="stroke:#000000;stroke-width:1.875;" x1="1072.5" x2="1166.25" y1="190.7617" y2="190.7617"/><text fill="#000000" font-family="sans-serif" font-size="17.5" font-weight="bold" lengthAdjust="spacing" textLength="77.5" x="1077.5" y="181.9165">Mappers</text><!--MD5=[7b8bc9ee8bb84b99fb3a3f9477c19238]
cluster DTO--><polygon fill="#FFFFFF" filter="url(#f16cpd3k5d3ehe)" points="355,161.25,398.75,161.25,407.5,190.7617,561.25,190.7617,561.25,356.25,355,356.25,355,161.25" style="stroke:#000000;stroke-width:1.875;"/><line style="stroke:#000000;stroke-width:1.875;" x1="355" x2="407.5" y1="190.7617" y2="190.7617"/><text fill="#000000" font-family="sans-serif" font-size="17.5" font-weight="bold" lengthAdjust="spacing" textLength="36.25" x="360" y="181.9165">DTO</text><!--MD5=[ed1d20ea533a2a0e7df5ba3c35e56ced]
cluster Controllers--><polygon fill="#FFFFFF" filter="url(#f16cpd3k5d3ehe)" points="327.5,386.25,433.75,386.25,442.5,415.7617,588.75,415.7617,588.75,616.25,327.5,616.25,327.5,386.25" style="stroke:#000000;stroke-width:1.875;"/><line style="stroke:#000000;stroke-width:1.875;" x1="327.5" x2="442.5" y1="415.7617" y2="415.7617"/><text fill="#000000" font-family="sans-serif" font-size="17.5" font-weight="bold" lengthAdjust="spacing" textLength="98.75" x="332.5" y="406.9165">Controllers</text><!--MD5=[9681dc6e01e10c6b4fe06895ae94f592]
cluster UI--><polygon fill="#FFFFFF" filter="url(#f16cpd3k5d3ehe)" points="20,7.5,45,7.5,53.75,37.0117,256.25,37.0117,256.25,197.5,20,197.5,20,7.5" style="stroke:#000000;stroke-width:1.875;"/><line style="stroke:#000000;stroke-width:1.875;" x1="20" x2="53.75" y1="37.0117" y2="37.0117"/><text fill="#000000" font-family="sans-serif" font-size="17.5" font-weight="bold" lengthAdjust="spacing" textLength="17.5" x="25" y="28.1665">UI</text><!--MD5=[4851e5193cf5e7abdec7b18b3bca50f8]
cluster Console--><polygon fill="#FFFFFF" filter="url(#f16cpd3k5d3ehe)" points="50,62.5,130,62.5,138.75,92.0117,226.25,92.0117,226.25,167.5,50,167.5,50,62.5" style="stroke:#000000;stroke-width:1.875;"/><line style="stroke:#000000;stroke-width:1.875;" x1="50" x2="138.75" y1="92.0117" y2="92.0117"/><text fill="#000000" font-family="sans-serif" font-size="17.5" font-weight="bold" lengthAdjust="spacing" textLength="72.5" x="55" y="83.1665">Console</text><!--MD5=[02e4b9b7573f1156f41e60aa5b4e25a4]
class Company--><rect codeLine="12" fill="#FEFECE" filter="url(#f16cpd3k5d3ehe)" height="129.1797" id="Company" style="stroke:#A80036;stroke-width:1.875;" width="173.75" x="719.375" y="441.875"/><ellipse cx="768.5" cy="461.875" fill="#ADD1B2" rx="13.75" ry="13.75" style="stroke:#A80036;stroke-width:1.25;"/><path d="M771,457.5 Q771.2539,456.875 771.5469,456.5625 Q771.8398,456.25 772.1719,456.25 Q772.7578,456.25 773.1289,456.6016 Q773.5,456.9531 773.5,457.7734 L773.5,459.7266 Q773.5,460.5469 773.1484,460.8984 Q772.7969,461.25 772.25,461.25 Q771.7617,461.25 771.4492,461.0352 Q771.1367,460.8203 771,460.2539 Q770.9414,459.8633 770.7266,459.6484 Q770.3359,459.2383 769.6328,459.0039 Q768.9297,458.75 768.2266,458.75 Q767.3477,458.75 766.6055,459.1016 Q765.8828,459.4531 765.3164,460.2344 Q764.75,461.0156 764.75,462.0898 L764.75,463.2422 Q764.75,464.5313 765.8047,465.3906 Q766.8594,466.25 768.7344,466.25 Q769.8477,466.25 770.6289,465.9961 Q771.0781,465.8594 771.5859,465.4102 Q771.918,465.1563 772.0938,465.0781 Q772.2695,465 772.4844,465 Q772.8945,465 773.1875,465.332 Q773.5,465.6445 773.5,466.0938 Q773.5,466.5234 773.0703,467.0313 Q772.4453,467.7734 771.4492,468.1836 Q770.1406,468.75 768.5391,468.75 Q766.6641,468.75 765.1602,468.0078 Q763.9492,467.4219 763.0898,466.1523 Q762.25,464.8828 762.25,463.3789 L762.25,462.0117 Q762.25,460.4492 762.9922,459.082 Q763.7539,457.7148 765.0625,456.9922 Q766.3906,456.25 767.875,456.25 Q768.7734,456.25 769.5547,456.5625 Q770.3359,456.875 771,457.5 Z " fill="#000000"/><text fill="#000000" font-family="sans-serif" font-size="15" lengthAdjust="spacing" textLength="66.25" x="792.75" y="468.0127">Company</text><line style="stroke:#A80036;stroke-width:1.875;" x1="720.625" x2="891.875" y1="481.875" y2="481.875"/><text fill="#000000" font-family="sans-serif" font-size="13.75" lengthAdjust="spacing" textLength="112.5" x="726.875" y="501.1487">-String designation</text><text fill="#000000" font-family="sans-serif" font-size="13.75" lengthAdjust="spacing" textLength="122.5" x="726.875" y="518.4436">-TestStore testStore</text><line style="stroke:#A80036;stroke-width:1.875;" x1="720.625" x2="891.875" y1="526.4648" y2="526.4648"/><text fill="#000000" font-family="sans-serif" font-size="13.75" lengthAdjust="spacing" textLength="95" x="726.875" y="545.7385">+getTestStore()</text><text fill="#000000" font-family="sans-serif" font-size="13.75" lengthAdjust="spacing" textLength="158.75" x="726.875" y="563.0334">+createReport(reportText)</text><!--MD5=[f00dbe8c0302c6aec2cb26b3c659c8fc]
class Report--><rect codeLine="19" fill="#FEFECE" filter="url(#f16cpd3k5d3ehe)" height="198.3594" id="Report" style="stroke:#A80036;stroke-width:1.875;" width="231.25" x="1072.5" y="441.875"/><ellipse cx="1159.6875" cy="461.875" fill="#ADD1B2" rx="13.75" ry="13.75" style="stroke:#A80036;stroke-width:1.25;"/><path d="M1162.1875,457.5 Q1162.4414,456.875 1162.7344,456.5625 Q1163.0273,456.25 1163.3594,456.25 Q1163.9453,456.25 1164.3164,456.6016 Q1164.6875,456.9531 1164.6875,457.7734 L1164.6875,459.7266 Q1164.6875,460.5469 1164.3359,460.8984 Q1163.9844,461.25 1163.4375,461.25 Q1162.9492,461.25 1162.6367,461.0352 Q1162.3242,460.8203 1162.1875,460.2539 Q1162.1289,459.8633 1161.9141,459.6484 Q1161.5234,459.2383 1160.8203,459.0039 Q1160.1172,458.75 1159.4141,458.75 Q1158.5352,458.75 1157.793,459.1016 Q1157.0703,459.4531 1156.5039,460.2344 Q1155.9375,461.0156 1155.9375,462.0898 L1155.9375,463.2422 Q1155.9375,464.5313 1156.9922,465.3906 Q1158.0469,466.25 1159.9219,466.25 Q1161.0352,466.25 1161.8164,465.9961 Q1162.2656,465.8594 1162.7734,465.4102 Q1163.1055,465.1563 1163.2813,465.0781 Q1163.457,465 1163.6719,465 Q1164.082,465 1164.375,465.332 Q1164.6875,465.6445 1164.6875,466.0938 Q1164.6875,466.5234 1164.2578,467.0313 Q1163.6328,467.7734 1162.6367,468.1836 Q1161.3281,468.75 1159.7266,468.75 Q1157.8516,468.75 1156.3477,468.0078 Q1155.1367,467.4219 1154.2773,466.1523 Q1153.4375,464.8828 1153.4375,463.3789 L1153.4375,462.0117 Q1153.4375,460.4492 1154.1797,459.082 Q1154.9414,457.7148 1156.25,456.9922 Q1157.5781,456.25 1159.0625,456.25 Q1159.9609,456.25 1160.7422,456.5625 Q1161.5234,456.875 1162.1875,457.5 Z " fill="#000000"/><text fill="#000000" font-family="sans-serif" font-size="15" lengthAdjust="spacing" textLength="46.25" x="1185.3125" y="468.0127">Report</text><line style="stroke:#A80036;stroke-width:1.875;" x1="1073.75" x2="1302.5" y1="481.875" y2="481.875"/><text fill="#000000" font-family="sans-serif" font-size="13.75" lengthAdjust="spacing" textLength="197.5" x="1080" y="501.1487">-int REPORTTEXT_MAX_LENGTH</text><text fill="#000000" font-family="sans-serif" font-size="13.75" lengthAdjust="spacing" textLength="106.25" x="1080" y="518.4436">-String reportText</text><text fill="#000000" font-family="sans-serif" font-size="13.75" lengthAdjust="spacing" textLength="85" x="1080" y="535.7385">-Report report</text><line style="stroke:#A80036;stroke-width:1.875;" x1="1073.75" x2="1302.5" y1="543.7598" y2="543.7598"/><text fill="#000000" font-family="sans-serif" font-size="13.75" lengthAdjust="spacing" textLength="120" x="1080" y="563.0334">+Report(reportText)</text><text fill="#000000" font-family="sans-serif" font-size="13.75" lengthAdjust="spacing" textLength="216.25" x="1080" y="580.3284">+checkReportTextRules(reportText)</text><text fill="#000000" font-family="sans-serif" font-size="13.75" lengthAdjust="spacing" textLength="153.75" x="1080" y="597.6233">+countWords(reportText)</text><text fill="#000000" font-family="sans-serif" font-size="13.75" lengthAdjust="spacing" textLength="132.5" x="1080" y="614.9182">+equals(reportObject)</text><text fill="#000000" font-family="sans-serif" font-size="13.75" lengthAdjust="spacing" textLength="118.75" x="1080" y="632.2131">+create(reportText)</text><!--MD5=[df38be88ccee13e832d6fafd6288a4ca]
class Test--><rect codeLine="30" fill="#FEFECE" filter="url(#f16cpd3k5d3ehe)" height="111.8848" id="Test" style="stroke:#A80036;stroke-width:1.875;" width="116.25" x="1482.5" y="485"/><ellipse cx="1522.0625" cy="505" fill="#ADD1B2" rx="13.75" ry="13.75" style="stroke:#A80036;stroke-width:1.25;"/><path d="M1524.5625,500.625 Q1524.8164,500 1525.1094,499.6875 Q1525.4023,499.375 1525.7344,499.375 Q1526.3203,499.375 1526.6914,499.7266 Q1527.0625,500.0781 1527.0625,500.8984 L1527.0625,502.8516 Q1527.0625,503.6719 1526.7109,504.0234 Q1526.3594,504.375 1525.8125,504.375 Q1525.3242,504.375 1525.0117,504.1602 Q1524.6992,503.9453 1524.5625,503.3789 Q1524.5039,502.9883 1524.2891,502.7734 Q1523.8984,502.3633 1523.1953,502.1289 Q1522.4922,501.875 1521.7891,501.875 Q1520.9102,501.875 1520.168,502.2266 Q1519.4453,502.5781 1518.8789,503.3594 Q1518.3125,504.1406 1518.3125,505.2148 L1518.3125,506.3672 Q1518.3125,507.6563 1519.3672,508.5156 Q1520.4219,509.375 1522.2969,509.375 Q1523.4102,509.375 1524.1914,509.1211 Q1524.6406,508.9844 1525.1484,508.5352 Q1525.4805,508.2813 1525.6563,508.2031 Q1525.832,508.125 1526.0469,508.125 Q1526.457,508.125 1526.75,508.457 Q1527.0625,508.7695 1527.0625,509.2188 Q1527.0625,509.6484 1526.6328,510.1563 Q1526.0078,510.8984 1525.0117,511.3086 Q1523.7031,511.875 1522.1016,511.875 Q1520.2266,511.875 1518.7227,511.1328 Q1517.5117,510.5469 1516.6523,509.2773 Q1515.8125,508.0078 1515.8125,506.5039 L1515.8125,505.1367 Q1515.8125,503.5742 1516.5547,502.207 Q1517.3164,500.8398 1518.625,500.1172 Q1519.9531,499.375 1521.4375,499.375 Q1522.3359,499.375 1523.1172,499.6875 Q1523.8984,500 1524.5625,500.625 Z " fill="#000000"/><text fill="#000000" font-family="sans-serif" font-size="15" lengthAdjust="spacing" textLength="30" x="1544.1875" y="511.1377">Test</text><line style="stroke:#A80036;stroke-width:1.875;" x1="1483.75" x2="1597.5" y1="525" y2="525"/><text fill="#000000" font-family="sans-serif" font-size="13.75" lengthAdjust="spacing" textLength="101.25" x="1490" y="544.2737">-String NHSCode</text><text fill="#000000" font-family="sans-serif" font-size="13.75" lengthAdjust="spacing" textLength="73.75" x="1490" y="561.5686">-String code</text><line style="stroke:#A80036;stroke-width:1.875;" x1="1483.75" x2="1597.5" y1="569.5898" y2="569.5898"/><text fill="#000000" font-family="sans-serif" font-size="13.75" lengthAdjust="spacing" textLength="67.5" x="1490" y="588.8635">+getCode()</text><!--MD5=[0f07739f46effee96e095e9c408da841]
class TestParameter--><rect codeLine="36" fill="#FEFECE" filter="url(#f16cpd3k5d3ehe)" height="67.2949" id="TestParameter" style="stroke:#A80036;stroke-width:1.875;" width="252.5" x="680" y="615"/><ellipse cx="749.6875" cy="635" fill="#ADD1B2" rx="13.75" ry="13.75" style="stroke:#A80036;stroke-width:1.25;"/><path d="M752.1875,630.625 Q752.4414,630 752.7344,629.6875 Q753.0273,629.375 753.3594,629.375 Q753.9453,629.375 754.3164,629.7266 Q754.6875,630.0781 754.6875,630.8984 L754.6875,632.8516 Q754.6875,633.6719 754.3359,634.0234 Q753.9844,634.375 753.4375,634.375 Q752.9492,634.375 752.6367,634.1602 Q752.3242,633.9453 752.1875,633.3789 Q752.1289,632.9883 751.9141,632.7734 Q751.5234,632.3633 750.8203,632.1289 Q750.1172,631.875 749.4141,631.875 Q748.5352,631.875 747.793,632.2266 Q747.0703,632.5781 746.5039,633.3594 Q745.9375,634.1406 745.9375,635.2148 L745.9375,636.3672 Q745.9375,637.6563 746.9922,638.5156 Q748.0469,639.375 749.9219,639.375 Q751.0352,639.375 751.8164,639.1211 Q752.2656,638.9844 752.7734,638.5352 Q753.1055,638.2813 753.2813,638.2031 Q753.457,638.125 753.6719,638.125 Q754.082,638.125 754.375,638.457 Q754.6875,638.7695 754.6875,639.2188 Q754.6875,639.6484 754.2578,640.1563 Q753.6328,640.8984 752.6367,641.3086 Q751.3281,641.875 749.7266,641.875 Q747.8516,641.875 746.3477,641.1328 Q745.1367,640.5469 744.2773,639.2773 Q743.4375,638.0078 743.4375,636.5039 L743.4375,635.1367 Q743.4375,633.5742 744.1797,632.207 Q744.9414,630.8398 746.25,630.1172 Q747.5781,629.375 749.0625,629.375 Q749.9609,629.375 750.7422,629.6875 Q751.5234,630 752.1875,630.625 Z " fill="#000000"/><text fill="#000000" font-family="sans-serif" font-size="15" lengthAdjust="spacing" textLength="102.5" x="775.3125" y="641.1377">TestParameter</text><line style="stroke:#A80036;stroke-width:1.875;" x1="681.25" x2="931.25" y1="655" y2="655"/><text fill="#000000" font-family="sans-serif" font-size="13.75" lengthAdjust="spacing" textLength="237.5" x="687.5" y="674.2737">+getParametersResults(listTestParams)</text><!--MD5=[0f6f7964b844a64b0496af0dda7914bd]
class TestStore--><rect codeLine="44" fill="#FEFECE" filter="url(#f16cpd3k5d3ehe)" height="146.4746" id="TestStore" style="stroke:#A80036;stroke-width:1.875;" width="221.25" x="1430" y="778.125"/><ellipse cx="1502.1875" cy="798.125" fill="#ADD1B2" rx="13.75" ry="13.75" style="stroke:#A80036;stroke-width:1.25;"/><path d="M1504.6875,793.75 Q1504.9414,793.125 1505.2344,792.8125 Q1505.5273,792.5 1505.8594,792.5 Q1506.4453,792.5 1506.8164,792.8516 Q1507.1875,793.2031 1507.1875,794.0234 L1507.1875,795.9766 Q1507.1875,796.7969 1506.8359,797.1484 Q1506.4844,797.5 1505.9375,797.5 Q1505.4492,797.5 1505.1367,797.2852 Q1504.8242,797.0703 1504.6875,796.5039 Q1504.6289,796.1133 1504.4141,795.8984 Q1504.0234,795.4883 1503.3203,795.2539 Q1502.6172,795 1501.9141,795 Q1501.0352,795 1500.293,795.3516 Q1499.5703,795.7031 1499.0039,796.4844 Q1498.4375,797.2656 1498.4375,798.3398 L1498.4375,799.4922 Q1498.4375,800.7813 1499.4922,801.6406 Q1500.5469,802.5 1502.4219,802.5 Q1503.5352,802.5 1504.3164,802.2461 Q1504.7656,802.1094 1505.2734,801.6602 Q1505.6055,801.4063 1505.7813,801.3281 Q1505.957,801.25 1506.1719,801.25 Q1506.582,801.25 1506.875,801.582 Q1507.1875,801.8945 1507.1875,802.3438 Q1507.1875,802.7734 1506.7578,803.2813 Q1506.1328,804.0234 1505.1367,804.4336 Q1503.8281,805 1502.2266,805 Q1500.3516,805 1498.8477,804.2578 Q1497.6367,803.6719 1496.7773,802.4023 Q1495.9375,801.1328 1495.9375,799.6289 L1495.9375,798.2617 Q1495.9375,796.6992 1496.6797,795.332 Q1497.4414,793.9648 1498.75,793.2422 Q1500.0781,792.5 1501.5625,792.5 Q1502.4609,792.5 1503.2422,792.8125 Q1504.0234,793.125 1504.6875,793.75 Z " fill="#000000"/><text fill="#000000" font-family="sans-serif" font-size="15" lengthAdjust="spacing" textLength="66.25" x="1527.8125" y="804.2627">TestStore</text><line style="stroke:#A80036;stroke-width:1.875;" x1="1431.25" x2="1650" y1="818.125" y2="818.125"/><text fill="#000000" font-family="sans-serif" font-size="13.75" lengthAdjust="spacing" textLength="206.25" x="1437.5" y="837.3987">-list&lt;Test&gt; testsReadyToDiagnose</text><line style="stroke:#A80036;stroke-width:1.875;" x1="1431.25" x2="1650" y1="845.4199" y2="845.4199"/><text fill="#000000" font-family="sans-serif" font-size="13.75" lengthAdjust="spacing" textLength="180" x="1437.5" y="864.6936">+getTestsReadyToDiagnose()</text><text fill="#000000" font-family="sans-serif" font-size="13.75" lengthAdjust="spacing" textLength="140" x="1437.5" y="881.9885">+getTestByCode(code)</text><text fill="#000000" font-family="sans-serif" font-size="13.75" lengthAdjust="spacing" textLength="146.25" x="1437.5" y="899.2834">+getTestParameters(tst)</text><text fill="#000000" font-family="sans-serif" font-size="13.75" lengthAdjust="spacing" textLength="198.75" x="1437.5" y="916.5784">+addReportToTest(selectedTest)</text><!--MD5=[144698ec4d0188f6929a3b58a3eeb1f6]
class TestMapper--><rect codeLine="58" fill="#FEFECE" filter="url(#f16cpd3k5d3ehe)" height="84.5898" id="TestMapper" style="stroke:#A80036;stroke-width:1.875;" width="191.25" x="1092.5" y="206.25"/><ellipse cx="1142.75" cy="226.25" fill="#ADD1B2" rx="13.75" ry="13.75" style="stroke:#A80036;stroke-width:1.25;"/><path d="M1145.25,221.875 Q1145.5039,221.25 1145.7969,220.9375 Q1146.0898,220.625 1146.4219,220.625 Q1147.0078,220.625 1147.3789,220.9766 Q1147.75,221.3281 1147.75,222.1484 L1147.75,224.1016 Q1147.75,224.9219 1147.3984,225.2734 Q1147.0469,225.625 1146.5,225.625 Q1146.0117,225.625 1145.6992,225.4102 Q1145.3867,225.1953 1145.25,224.6289 Q1145.1914,224.2383 1144.9766,224.0234 Q1144.5859,223.6133 1143.8828,223.3789 Q1143.1797,223.125 1142.4766,223.125 Q1141.5977,223.125 1140.8555,223.4766 Q1140.1328,223.8281 1139.5664,224.6094 Q1139,225.3906 1139,226.4648 L1139,227.6172 Q1139,228.9063 1140.0547,229.7656 Q1141.1094,230.625 1142.9844,230.625 Q1144.0977,230.625 1144.8789,230.3711 Q1145.3281,230.2344 1145.8359,229.7852 Q1146.168,229.5313 1146.3438,229.4531 Q1146.5195,229.375 1146.7344,229.375 Q1147.1445,229.375 1147.4375,229.707 Q1147.75,230.0195 1147.75,230.4688 Q1147.75,230.8984 1147.3203,231.4063 Q1146.6953,232.1484 1145.6992,232.5586 Q1144.3906,233.125 1142.7891,233.125 Q1140.9141,233.125 1139.4102,232.3828 Q1138.1992,231.7969 1137.3398,230.5273 Q1136.5,229.2578 1136.5,227.7539 L1136.5,226.3867 Q1136.5,224.8242 1137.2422,223.457 Q1138.0039,222.0898 1139.3125,221.3672 Q1140.6406,220.625 1142.125,220.625 Q1143.0234,220.625 1143.8047,220.9375 Q1144.5859,221.25 1145.25,221.875 Z " fill="#000000"/><text fill="#000000" font-family="sans-serif" font-size="15" lengthAdjust="spacing" textLength="81.25" x="1167.25" y="232.3877">TestMapper</text><line style="stroke:#A80036;stroke-width:1.875;" x1="1093.75" x2="1282.5" y1="246.25" y2="246.25"/><text fill="#000000" font-family="sans-serif" font-size="13.75" lengthAdjust="spacing" textLength="176.25" x="1100" y="265.5237">+toDTO(listTestsToDiagnose)</text><text fill="#000000" font-family="sans-serif" font-size="13.75" lengthAdjust="spacing" textLength="72.5" x="1100" y="282.8186">+toDTO(obj)</text><!--MD5=[73f7d5e6c8b5bf65b57f35b14c30896f]
class TestsDTO--><rect codeLine="67" fill="#FEFECE" filter="url(#f16cpd3k5d3ehe)" height="129.1797" id="TestsDTO" style="stroke:#A80036;stroke-width:1.875;" width="166.25" x="375" y="206.875"/><ellipse cx="419.0625" cy="226.875" fill="#ADD1B2" rx="13.75" ry="13.75" style="stroke:#A80036;stroke-width:1.25;"/><path d="M421.5625,222.5 Q421.8164,221.875 422.1094,221.5625 Q422.4023,221.25 422.7344,221.25 Q423.3203,221.25 423.6914,221.6016 Q424.0625,221.9531 424.0625,222.7734 L424.0625,224.7266 Q424.0625,225.5469 423.7109,225.8984 Q423.3594,226.25 422.8125,226.25 Q422.3242,226.25 422.0117,226.0352 Q421.6992,225.8203 421.5625,225.2539 Q421.5039,224.8633 421.2891,224.6484 Q420.8984,224.2383 420.1953,224.0039 Q419.4922,223.75 418.7891,223.75 Q417.9102,223.75 417.168,224.1016 Q416.4453,224.4531 415.8789,225.2344 Q415.3125,226.0156 415.3125,227.0898 L415.3125,228.2422 Q415.3125,229.5313 416.3672,230.3906 Q417.4219,231.25 419.2969,231.25 Q420.4102,231.25 421.1914,230.9961 Q421.6406,230.8594 422.1484,230.4102 Q422.4805,230.1563 422.6563,230.0781 Q422.832,230 423.0469,230 Q423.457,230 423.75,230.332 Q424.0625,230.6445 424.0625,231.0938 Q424.0625,231.5234 423.6328,232.0313 Q423.0078,232.7734 422.0117,233.1836 Q420.7031,233.75 419.1016,233.75 Q417.2266,233.75 415.7227,233.0078 Q414.5117,232.4219 413.6523,231.1523 Q412.8125,229.8828 412.8125,228.3789 L412.8125,227.0117 Q412.8125,225.4492 413.5547,224.082 Q414.3164,222.7148 415.625,221.9922 Q416.9531,221.25 418.4375,221.25 Q419.3359,221.25 420.1172,221.5625 Q420.8984,221.875 421.5625,222.5 Z " fill="#000000"/><text fill="#000000" font-family="sans-serif" font-size="15" lengthAdjust="spacing" textLength="70" x="442.1875" y="233.0127">TestsDTO</text><line style="stroke:#A80036;stroke-width:1.875;" x1="376.25" x2="540" y1="246.875" y2="246.875"/><text fill="#000000" font-family="sans-serif" font-size="13.75" lengthAdjust="spacing" textLength="101.25" x="382.5" y="266.1487">-String NHSCode</text><text fill="#000000" font-family="sans-serif" font-size="13.75" lengthAdjust="spacing" textLength="73.75" x="382.5" y="283.4436">-String code</text><line style="stroke:#A80036;stroke-width:1.875;" x1="376.25" x2="540" y1="291.4648" y2="291.4648"/><text fill="#000000" font-family="sans-serif" font-size="13.75" lengthAdjust="spacing" textLength="151.25" x="382.5" y="310.7385">+create(NHSCode, code)</text><text fill="#000000" font-family="sans-serif" font-size="13.75" lengthAdjust="spacing" textLength="67.5" x="382.5" y="328.0334">+getCode()</text><!--MD5=[d7b8916e3117ca4a3ffdab4f31ea783a]
class WriteReportController--><rect codeLine="78" fill="#FEFECE" filter="url(#f16cpd3k5d3ehe)" height="163.7695" id="WriteReportController" style="stroke:#A80036;stroke-width:1.875;" width="221.25" x="347.5" y="431.875"/><ellipse cx="380.875" cy="451.875" fill="#ADD1B2" rx="13.75" ry="13.75" style="stroke:#A80036;stroke-width:1.25;"/><path d="M383.375,447.5 Q383.6289,446.875 383.9219,446.5625 Q384.2148,446.25 384.5469,446.25 Q385.1328,446.25 385.5039,446.6016 Q385.875,446.9531 385.875,447.7734 L385.875,449.7266 Q385.875,450.5469 385.5234,450.8984 Q385.1719,451.25 384.625,451.25 Q384.1367,451.25 383.8242,451.0352 Q383.5117,450.8203 383.375,450.2539 Q383.3164,449.8633 383.1016,449.6484 Q382.7109,449.2383 382.0078,449.0039 Q381.3047,448.75 380.6016,448.75 Q379.7227,448.75 378.9805,449.1016 Q378.2578,449.4531 377.6914,450.2344 Q377.125,451.0156 377.125,452.0898 L377.125,453.2422 Q377.125,454.5313 378.1797,455.3906 Q379.2344,456.25 381.1094,456.25 Q382.2227,456.25 383.0039,455.9961 Q383.4531,455.8594 383.9609,455.4102 Q384.293,455.1563 384.4688,455.0781 Q384.6445,455 384.8594,455 Q385.2695,455 385.5625,455.332 Q385.875,455.6445 385.875,456.0938 Q385.875,456.5234 385.4453,457.0313 Q384.8203,457.7734 383.8242,458.1836 Q382.5156,458.75 380.9141,458.75 Q379.0391,458.75 377.5352,458.0078 Q376.3242,457.4219 375.4648,456.1523 Q374.625,454.8828 374.625,453.3789 L374.625,452.0117 Q374.625,450.4492 375.3672,449.082 Q376.1289,447.7148 377.4375,446.9922 Q378.7656,446.25 380.25,446.25 Q381.1484,446.25 381.9297,446.5625 Q382.7109,446.875 383.375,447.5 Z " fill="#000000"/><text fill="#000000" font-family="sans-serif" font-size="15" lengthAdjust="spacing" textLength="148.75" x="401.625" y="458.0127">WriteReportController</text><line style="stroke:#A80036;stroke-width:1.875;" x1="348.75" x2="567.5" y1="471.875" y2="471.875"/><text fill="#000000" font-family="sans-serif" font-size="13.75" lengthAdjust="spacing" textLength="120" x="355" y="491.1487">-Company company</text><text fill="#000000" font-family="sans-serif" font-size="13.75" lengthAdjust="spacing" textLength="85" x="355" y="508.4436">-Report report</text><line style="stroke:#A80036;stroke-width:1.875;" x1="348.75" x2="567.5" y1="516.4648" y2="516.4648"/><text fill="#000000" font-family="sans-serif" font-size="13.75" lengthAdjust="spacing" textLength="137.5" x="355" y="535.7385">+getTeststoDiagnose()</text><text fill="#000000" font-family="sans-serif" font-size="13.75" lengthAdjust="spacing" textLength="206.25" x="355" y="553.0334">+getTestParametersResults(code)</text><text fill="#000000" font-family="sans-serif" font-size="13.75" lengthAdjust="spacing" textLength="158.75" x="355" y="570.3284">+createReport(reportText)</text><text fill="#000000" font-family="sans-serif" font-size="13.75" lengthAdjust="spacing" textLength="151.25" x="355" y="587.6233">+addReportToTest(code)</text><!--MD5=[71fba8c2abd557a2f7006580273aba3e]
class WriteReportUI--><rect codeLine="95" fill="#FEFECE" filter="url(#f16cpd3k5d3ehe)" height="40" id="WriteReportUI" style="stroke:#A80036;stroke-width:1.875;" width="136.25" x="70" y="107.5"/><ellipse cx="88.75" cy="127.5" fill="#ADD1B2" rx="13.75" ry="13.75" style="stroke:#A80036;stroke-width:1.25;"/><path d="M91.25,123.125 Q91.5039,122.5 91.7969,122.1875 Q92.0898,121.875 92.4219,121.875 Q93.0078,121.875 93.3789,122.2266 Q93.75,122.5781 93.75,123.3984 L93.75,125.3516 Q93.75,126.1719 93.3984,126.5234 Q93.0469,126.875 92.5,126.875 Q92.0117,126.875 91.6992,126.6602 Q91.3867,126.4453 91.25,125.8789 Q91.1914,125.4883 90.9766,125.2734 Q90.5859,124.8633 89.8828,124.6289 Q89.1797,124.375 88.4766,124.375 Q87.5977,124.375 86.8555,124.7266 Q86.1328,125.0781 85.5664,125.8594 Q85,126.6406 85,127.7148 L85,128.8672 Q85,130.1563 86.0547,131.0156 Q87.1094,131.875 88.9844,131.875 Q90.0977,131.875 90.8789,131.6211 Q91.3281,131.4844 91.8359,131.0352 Q92.168,130.7813 92.3438,130.7031 Q92.5195,130.625 92.7344,130.625 Q93.1445,130.625 93.4375,130.957 Q93.75,131.2695 93.75,131.7188 Q93.75,132.1484 93.3203,132.6563 Q92.6953,133.3984 91.6992,133.8086 Q90.3906,134.375 88.7891,134.375 Q86.9141,134.375 85.4102,133.6328 Q84.1992,133.0469 83.3398,131.7773 Q82.5,130.5078 82.5,129.0039 L82.5,127.6367 Q82.5,126.0742 83.2422,124.707 Q84.0039,123.3398 85.3125,122.6172 Q86.6406,121.875 88.125,121.875 Q89.0234,121.875 89.8047,122.1875 Q90.5859,122.5 91.25,123.125 Z " fill="#000000"/><text fill="#000000" font-family="sans-serif" font-size="15" lengthAdjust="spacing" textLength="96.25" x="106.25" y="133.6377">WriteReportUI</text><!--MD5=[9fb704ffefcaf68bf1a361787afa998b]
class TestDTO--><rect fill="#FEFECE" filter="url(#f16cpd3k5d3ehe)" height="40" id="TestDTO" style="stroke:#A80036;stroke-width:1.875;" width="101.25" x="1490" y="46.25"/><ellipse cx="1508.75" cy="66.25" fill="#ADD1B2" rx="13.75" ry="13.75" style="stroke:#A80036;stroke-width:1.25;"/><path d="M1511.25,61.875 Q1511.5039,61.25 1511.7969,60.9375 Q1512.0898,60.625 1512.4219,60.625 Q1513.0078,60.625 1513.3789,60.9766 Q1513.75,61.3281 1513.75,62.1484 L1513.75,64.1016 Q1513.75,64.9219 1513.3984,65.2734 Q1513.0469,65.625 1512.5,65.625 Q1512.0117,65.625 1511.6992,65.4102 Q1511.3867,65.1953 1511.25,64.6289 Q1511.1914,64.2383 1510.9766,64.0234 Q1510.5859,63.6133 1509.8828,63.3789 Q1509.1797,63.125 1508.4766,63.125 Q1507.5977,63.125 1506.8555,63.4766 Q1506.1328,63.8281 1505.5664,64.6094 Q1505,65.3906 1505,66.4648 L1505,67.6172 Q1505,68.9063 1506.0547,69.7656 Q1507.1094,70.625 1508.9844,70.625 Q1510.0977,70.625 1510.8789,70.3711 Q1511.3281,70.2344 1511.8359,69.7852 Q1512.168,69.5313 1512.3438,69.4531 Q1512.5195,69.375 1512.7344,69.375 Q1513.1445,69.375 1513.4375,69.707 Q1513.75,70.0195 1513.75,70.4688 Q1513.75,70.8984 1513.3203,71.4063 Q1512.6953,72.1484 1511.6992,72.5586 Q1510.3906,73.125 1508.7891,73.125 Q1506.9141,73.125 1505.4102,72.3828 Q1504.1992,71.7969 1503.3398,70.5273 Q1502.5,69.2578 1502.5,67.7539 L1502.5,66.3867 Q1502.5,64.8242 1503.2422,63.457 Q1504.0039,62.0898 1505.3125,61.3672 Q1506.6406,60.625 1508.125,60.625 Q1509.0234,60.625 1509.8047,60.9375 Q1510.5859,61.25 1511.25,61.875 Z " fill="#000000"/><text fill="#000000" font-family="sans-serif" font-size="15" lengthAdjust="spacing" textLength="61.25" x="1526.25" y="72.3877">TestDTO</text><!--MD5=[4ff913b72b026e4c95390310e4df5ddd]
link WriteReportUI to WriteReportController--><path codeLine="102" d="M150.15,147.6 C172.725,188.8625 227.8875,285.2125 287.5,356.25 C308.075,380.7625 332.25,405.275 355.7875,427.4125 " fill="none" id="WriteReportUI-to-WriteReportController" style="stroke:#A80036;stroke-width:1.25;stroke-dasharray:7.0,7.0;"/><polygon fill="#A80036" points="360.4875,431.8125,355.6763,420.4805,355.919,427.5474,348.8521,427.7901,360.4875,431.8125" style="stroke:#A80036;stroke-width:1.25;"/><!--MD5=[b14f4b55bc9aa939c7cd06f1c0b56da5]
link WriteReportUI to TestDTO--><path codeLine="103" d="M178.2875,107.3 C237,78.7375 352.5125,30 456.875,30 C456.875,30 456.875,30 1189.375,30 C1293.5375,30 1414.2,46.075 1483.1875,56.825 " fill="none" id="WriteReportUI-to-TestDTO" style="stroke:#A80036;stroke-width:1.25;stroke-dasharray:7.0,7.0;"/><polygon fill="#A80036" points="1489.7,57.8375,1479.3556,51.1625,1483.5248,56.8737,1477.8135,61.0429,1489.7,57.8375" style="stroke:#A80036;stroke-width:1.25;"/><!--MD5=[f27b4a25a5b059d18ef9f1b16d7419ab]
link WriteReportController to TestMapper--><path codeLine="104" d="M569.15,446.1875 C585.875,437.175 603.175,428.5375 620,421.25 C777.6375,352.9375 970.8625,300.3375 1086.15,272.025 " fill="none" id="WriteReportController-to-TestMapper" style="stroke:#A80036;stroke-width:1.25;stroke-dasharray:7.0,7.0;"/><polygon fill="#A80036" points="1092.2625,270.525,1080.1477,268.3356,1086.1908,272.0072,1082.5192,278.0503,1092.2625,270.525" style="stroke:#A80036;stroke-width:1.25;"/><!--MD5=[a3405a5a29c0a1359ce5b85a18cd6043]
link WriteReportController to Company--><path codeLine="105" d="M569.2125,511.3625 C615.3625,510.3625 668.4625,509.2125 712.575,508.25 " fill="none" id="WriteReportController-to-Company" style="stroke:#A80036;stroke-width:1.25;stroke-dasharray:7.0,7.0;"/><polygon fill="#A80036" points="719.025,508.1125,707.6773,503.3385,712.7762,508.2375,707.8772,513.3365,719.025,508.1125" style="stroke:#A80036;stroke-width:1.25;"/><!--MD5=[aa4aa685cc8a1bee089823f9a2dac854]
link WriteReportController to TestStore--><path codeLine="106" d="M509.4625,595.9875 C537.225,634.4625 575.2,677.2625 620,702.5 C879.125,848.4875 1240.5375,861.475 1423.45,857.225 " fill="none" id="WriteReportController-to-TestStore" style="stroke:#A80036;stroke-width:1.25;stroke-dasharray:7.0,7.0;"/><polygon fill="#A80036" points="1429.8875,857.075,1418.5262,852.3334,1423.6391,857.2178,1418.7547,862.3308,1429.8875,857.075" style="stroke:#A80036;stroke-width:1.25;"/><!--MD5=[d2c887862af794255aa293b427ffc580]
link WriteReportController to TestDTO--><path codeLine="107" d="M529.6875,431.5625 C555.95,404.5125 587.3625,376.0125 620,355 C911.0875,167.625 1332.275,94.5125 1483.0625,73.3625 " fill="none" id="WriteReportController-to-TestDTO" style="stroke:#A80036;stroke-width:1.25;stroke-dasharray:7.0,7.0;"/><polygon fill="#A80036" points="1489.6,72.45,1477.771,69.0387,1483.409,73.3064,1479.1412,78.9444,1489.6,72.45" style="stroke:#A80036;stroke-width:1.25;"/><!--MD5=[b0f4f6db8206580012ef9cd998ed01c5]
link TestStore to Test--><path codeLine="108" d="M1540.625,777.7875 C1540.625,725.0125 1540.625,654.6 1540.625,604.3625 " fill="none" id="TestStore-to-Test" style="stroke:#A80036;stroke-width:1.25;"/><polygon fill="#A80036" points="1540.625,597.7125,1535.625,608.9625,1540.625,603.9625,1545.625,608.9625,1540.625,597.7125" style="stroke:#A80036;stroke-width:1.25;"/><polygon fill="#000000" points="1498.125,681.7822,1494.4513,693.0886,1501.7987,693.0886,1498.125,681.7822" style="stroke:#000000;stroke-width:1.25;"/><text fill="#000000" font-family="sans-serif" font-size="16.25" lengthAdjust="spacing" textLength="48.75" x="1509.375" y="694.6814">adopts</text><text fill="#000000" font-family="sans-serif" font-size="16.25" lengthAdjust="spacing" textLength="8.75" x="1531.3418" y="764.4975">1</text><text fill="#000000" font-family="sans-serif" font-size="16.25" lengthAdjust="spacing" textLength="6.25" x="1533.9551" y="623.5832">*</text><!--MD5=[670dbdf7395d3fcbb40104f0a070263e]
link Company to Report--><path codeLine="109" d="M893.5875,514.1875 C944.525,518.8875 1009.85,524.9125 1065.9125,530.0875 " fill="none" id="Company-to-Report" style="stroke:#A80036;stroke-width:1.25;"/><polygon fill="#A80036" points="1072.35,530.6875,1061.6051,524.6784,1066.1263,530.1152,1060.6894,534.6364,1072.35,530.6875" style="stroke:#A80036;stroke-width:1.25;"/><polygon fill="#000000" points="982.4736,510.794,971.5526,506.097,970.8775,513.4133,982.4736,510.794" style="stroke:#000000;stroke-width:1.25;"/><text fill="#000000" font-family="sans-serif" font-size="16.25" lengthAdjust="spacing" textLength="46.25" x="987.5" y="516.8689">knows</text><text fill="#000000" font-family="sans-serif" font-size="16.25" lengthAdjust="spacing" textLength="8.75" x="903.0454" y="532.9067">1</text><text fill="#000000" font-family="sans-serif" font-size="16.25" lengthAdjust="spacing" textLength="6.25" x="1056.2536" y="547.5442">*</text><!--MD5=[63d25d625ab355317a074a623d33bba8]
link Report to Test--><path codeLine="110" d="M1303.975,541.25 C1361.2125,541.25 1428.2875,541.25 1476.15,541.25 " fill="none" id="Report-to-Test" style="stroke:#A80036;stroke-width:1.25;"/><polygon fill="#A80036" points="1482.4875,541.25,1471.2375,536.25,1476.2375,541.25,1471.2375,546.25,1482.4875,541.25" style="stroke:#A80036;stroke-width:1.25;"/><polygon fill="#000000" points="1353.75,530.2197,1342.4436,526.5461,1342.4436,533.8934,1353.75,530.2197" style="stroke:#000000;stroke-width:1.25;"/><text fill="#000000" font-family="sans-serif" font-size="16.25" lengthAdjust="spacing" textLength="30" x="1358.75" y="536.8689">is of</text><text fill="#000000" font-family="sans-serif" font-size="16.25" lengthAdjust="spacing" textLength="8.75" x="1313.9311" y="558.9814">1</text><text fill="#000000" font-family="sans-serif" font-size="16.25" lengthAdjust="spacing" textLength="8.75" x="1463.7746" y="559.7967">1</text><!--MD5=[8d9a2c3ea1bf73d8d45b939465e53fff]
link TestMapper to Test--><path codeLine="111" d="M1240.2625,291.2875 C1302.9125,343.6375 1409.25,432.5125 1476.825,488.975 " fill="none" id="TestMapper-to-Test" style="stroke:#A80036;stroke-width:1.25;stroke-dasharray:7.0,7.0;"/><polygon fill="#A80036" points="1482.025,493.3125,1476.5794,482.2713,1477.2222,489.3131,1470.1804,489.9559,1482.025,493.3125" style="stroke:#A80036;stroke-width:1.25;"/><!--MD5=[f6fda4afaf882dd39139bcbf06c50c8c]
link TestMapper to TestDTO--><path codeLine="112" d="M1280.3875,206.0625 C1314.9625,189.45 1354.5375,169.925 1390,151.25 C1427.775,131.35 1469.9875,107.1375 1499.875,89.65 " fill="none" id="TestMapper-to-TestDTO" style="stroke:#A80036;stroke-width:1.25;stroke-dasharray:7.0,7.0;"/><polygon fill="#A80036" points="1505.3125,86.475,1493.0784,87.8498,1499.9204,89.6353,1498.1349,96.4772,1505.3125,86.475" style="stroke:#A80036;stroke-width:1.25;"/><!--MD5=[5c2bdfb8291b150199b455b4bdf8b718]
@startuml
hide empty methods
hide empty attributes
left to right direction
skinparam classAttributeIconSize 0

package Core {

package Domain {

package Model {

class Company {
    -String designation
    -TestStore testStore
    +getTestStore()
    +createReport(reportText)
}

class Report {
    - int REPORTTEXT_MAX_LENGTH
    - String reportText
    - Report report
    + Report(reportText)
    + checkReportTextRules(reportText)
    + countWords(reportText)
    + equals(reportObject)
    + create(reportText)
}

class Test {
    -String NHSCode
    -String code
    +getCode()
}

class TestParameter {
    +getParametersResults(listTestParams)
}

}

package Stores {

class TestStore {
    -list<Test> testsReadyToDiagnose
    +getTestsReadyToDiagnose()
    +getTestByCode(code)
    +getTestParameters(tst)
    +addReportToTest(selectedTest)
}

}

}

package Mappers {

class TestMapper {
    +toDTO(listTestsToDiagnose)
    +toDTO(obj)
}

}

package DTO {

class TestsDTO {
    -String NHSCode
    -String code
    +create(NHSCode, code)
    +getCode()
}

}

package Controllers {

class WriteReportController {
    -Company company
    -Report report
    +getTeststoDiagnose()
    +getTestParametersResults(code)
    +createReport(reportText)
    +addReportToTest(code)
}

}

}

package UI {

package Console {

class WriteReportUI {
}

}

}

WriteReportUI ..> WriteReportController
WriteReportUI ..> TestDTO
WriteReportController ..> TestMapper
WriteReportController ..> Company
WriteReportController ..> TestStore
WriteReportController ..> TestDTO
TestStore "1" -> "*" Test : adopts >
Company "1" - -> "*" Report : knows >
Report "1" - -> "1" Test : is of >
TestMapper ..> Test
TestMapper ..> TestDTO

@enduml

PlantUML version 1.2021.5(Sun Apr 25 12:20:28 BST 2021)
(GPL source distribution)
Java Runtime: OpenJDK Runtime Environment
JVM: Dynamic Code Evolution 64-Bit Server VM
Default Encoding: Cp1252
Language: pt
Country: PT
--></g></svg>