<?xml version="1.0" encoding="UTF-8" standalone="no"?><svg xmlns="http://www.w3.org/2000/svg" xmlns:xlink="http://www.w3.org/1999/xlink" contentScriptType="application/ecmascript" contentStyleType="text/css" height="922.5px" preserveAspectRatio="none" style="width:1573px;height:922px;" version="1.1" viewBox="0 0 1573 922" width="1573.75px" zoomAndPan="magnify"><defs><filter height="300%" id="f44ewbiu1q6g4" width="300%" x="-1" y="-1"><feGaussianBlur result="blurOut" stdDeviation="2.5"/><feColorMatrix in="blurOut" result="blurOut2" type="matrix" values="0 0 0 0 0 0 0 0 0 0 0 0 0 0 0 0 0 0 .4 0"/><feOffset dx="5.0" dy="5.0" in="blurOut2" result="blurOut3"/><feBlend in="SourceGraphic" in2="blurOut3" mode="normal"/></filter></defs><g><!--MD5=[2c2e2644034c00788261e03c85b06837]
cluster Core--><polygon fill="#FFFFFF" filter="url(#f44ewbiu1q6g4)" points="237.5,7.5,287.5,7.5,296.25,37.0117,1553.125,37.0117,1553.125,887.5,237.5,887.5,237.5,7.5" style="stroke:#000000;stroke-width:1.875;"/><line style="stroke:#000000;stroke-width:1.875;" x1="237.5" x2="296.25" y1="37.0117" y2="37.0117"/><text fill="#000000" font-family="sans-serif" font-size="17.5" font-weight="bold" lengthAdjust="spacing" textLength="42.5" x="242.5" y="28.1665">Core</text><!--MD5=[121a8bf1197281ab89ed693fab589f94]
cluster Domain--><polygon fill="#FFFFFF" filter="url(#f44ewbiu1q6g4)" points="537.5,300,610,300,618.75,329.5117,1523.125,329.5117,1523.125,857.5,537.5,857.5,537.5,300" style="stroke:#000000;stroke-width:1.875;"/><line style="stroke:#000000;stroke-width:1.875;" x1="537.5" x2="618.75" y1="329.5117" y2="329.5117"/><text fill="#000000" font-family="sans-serif" font-size="17.5" font-weight="bold" lengthAdjust="spacing" textLength="65" x="542.5" y="320.6665">Domain</text><!--MD5=[15636c1ca4a123c16a2a1a8e90aca7a9]
cluster Model--><polygon fill="#FFFFFF" filter="url(#f44ewbiu1q6g4)" points="567.5,355,630,355,638.75,384.5117,1440.625,384.5117,1440.625,602.5,567.5,602.5,567.5,355" style="stroke:#000000;stroke-width:1.875;"/><line style="stroke:#000000;stroke-width:1.875;" x1="567.5" x2="638.75" y1="384.5117" y2="384.5117"/><text fill="#000000" font-family="sans-serif" font-size="17.5" font-weight="bold" lengthAdjust="spacing" textLength="55" x="572.5" y="375.6665">Model</text><!--MD5=[8dd535d56cd4cf7faf64fdd082ba836e]
cluster Stores--><polygon fill="#FFFFFF" filter="url(#f44ewbiu1q6g4)" points="1231.875,632.5,1296.875,632.5,1305.625,662.0117,1493.125,662.0117,1493.125,827.5,1231.875,827.5,1231.875,632.5" style="stroke:#000000;stroke-width:1.875;"/><line style="stroke:#000000;stroke-width:1.875;" x1="1231.875" x2="1305.625" y1="662.0117" y2="662.0117"/><text fill="#000000" font-family="sans-serif" font-size="17.5" font-weight="bold" lengthAdjust="spacing" textLength="57.5" x="1236.875" y="653.1665">Stores</text><!--MD5=[701152d03fbf85133a1de050cfdbc7fd]
cluster Mappers--><polygon fill="#FFFFFF" filter="url(#f44ewbiu1q6g4)" points="540.625,97.5,625.625,97.5,634.375,127.0117,771.875,127.0117,771.875,247.5,540.625,247.5,540.625,97.5" style="stroke:#000000;stroke-width:1.875;"/><line style="stroke:#000000;stroke-width:1.875;" x1="540.625" x2="634.375" y1="127.0117" y2="127.0117"/><text fill="#000000" font-family="sans-serif" font-size="17.5" font-weight="bold" lengthAdjust="spacing" textLength="77.5" x="545.625" y="118.1665">Mappers</text><!--MD5=[7b8bc9ee8bb84b99fb3a3f9477c19238]
cluster DTO--><polygon fill="#FFFFFF" filter="url(#f44ewbiu1q6g4)" points="906.875,75,950.625,75,959.375,104.5117,1113.125,104.5117,1113.125,270,906.875,270,906.875,75" style="stroke:#000000;stroke-width:1.875;"/><line style="stroke:#000000;stroke-width:1.875;" x1="906.875" x2="959.375" y1="104.5117" y2="104.5117"/><text fill="#000000" font-family="sans-serif" font-size="17.5" font-weight="bold" lengthAdjust="spacing" textLength="36.25" x="911.875" y="95.6665">DTO</text><!--MD5=[ed1d20ea533a2a0e7df5ba3c35e56ced]
cluster Controllers--><polygon fill="#FFFFFF" filter="url(#f44ewbiu1q6g4)" points="267.5,372.5,373.75,372.5,382.5,402.0117,496.25,402.0117,496.25,585,267.5,585,267.5,372.5" style="stroke:#000000;stroke-width:1.875;"/><line style="stroke:#000000;stroke-width:1.875;" x1="267.5" x2="382.5" y1="402.0117" y2="402.0117"/><text fill="#000000" font-family="sans-serif" font-size="17.5" font-weight="bold" lengthAdjust="spacing" textLength="98.75" x="272.5" y="393.1665">Controllers</text><!--MD5=[9681dc6e01e10c6b4fe06895ae94f592]
cluster UI--><polygon fill="#FFFFFF" filter="url(#f44ewbiu1q6g4)" points="20,808.75,45,808.75,53.75,838.2617,196.25,838.2617,196.25,913.75,20,913.75,20,808.75" style="stroke:#000000;stroke-width:1.875;"/><line style="stroke:#000000;stroke-width:1.875;" x1="20" x2="53.75" y1="838.2617" y2="838.2617"/><text fill="#000000" font-family="sans-serif" font-size="17.5" font-weight="bold" lengthAdjust="spacing" textLength="17.5" x="25" y="829.4165">UI</text><!--MD5=[02e4b9b7573f1156f41e60aa5b4e25a4]
class Company--><rect codeLine="12" fill="#FEFECE" filter="url(#f44ewbiu1q6g4)" height="129.1797" id="Company" style="stroke:#A80036;stroke-width:1.875;" width="137.5" x="587.5" y="426.875"/><ellipse cx="620.3125" cy="446.875" fill="#ADD1B2" rx="13.75" ry="13.75" style="stroke:#A80036;stroke-width:1.25;"/><path d="M622.8125,442.5 Q623.0664,441.875 623.3594,441.5625 Q623.6523,441.25 623.9844,441.25 Q624.5703,441.25 624.9414,441.6016 Q625.3125,441.9531 625.3125,442.7734 L625.3125,444.7266 Q625.3125,445.5469 624.9609,445.8984 Q624.6094,446.25 624.0625,446.25 Q623.5742,446.25 623.2617,446.0352 Q622.9492,445.8203 622.8125,445.2539 Q622.7539,444.8633 622.5391,444.6484 Q622.1484,444.2383 621.4453,444.0039 Q620.7422,443.75 620.0391,443.75 Q619.1602,443.75 618.418,444.1016 Q617.6953,444.4531 617.1289,445.2344 Q616.5625,446.0156 616.5625,447.0898 L616.5625,448.2422 Q616.5625,449.5313 617.6172,450.3906 Q618.6719,451.25 620.5469,451.25 Q621.6602,451.25 622.4414,450.9961 Q622.8906,450.8594 623.3984,450.4102 Q623.7305,450.1563 623.9063,450.0781 Q624.082,450 624.2969,450 Q624.707,450 625,450.332 Q625.3125,450.6445 625.3125,451.0938 Q625.3125,451.5234 624.8828,452.0313 Q624.2578,452.7734 623.2617,453.1836 Q621.9531,453.75 620.3516,453.75 Q618.4766,453.75 616.9727,453.0078 Q615.7617,452.4219 614.9023,451.1523 Q614.0625,449.8828 614.0625,448.3789 L614.0625,447.0117 Q614.0625,445.4492 614.8047,444.082 Q615.5664,442.7148 616.875,441.9922 Q618.2031,441.25 619.6875,441.25 Q620.5859,441.25 621.3672,441.5625 Q622.1484,441.875 622.8125,442.5 Z " fill="#000000"/><text fill="#000000" font-family="sans-serif" font-size="15" lengthAdjust="spacing" textLength="66.25" x="640.9375" y="453.0127">Company</text><line style="stroke:#A80036;stroke-width:1.875;" x1="588.75" x2="723.75" y1="466.875" y2="466.875"/><text fill="#000000" font-family="sans-serif" font-size="13.75" lengthAdjust="spacing" textLength="112.5" x="595" y="486.1487">-String designation</text><text fill="#000000" font-family="sans-serif" font-size="13.75" lengthAdjust="spacing" textLength="122.5" x="595" y="503.4436">-TestStore testStore</text><line style="stroke:#A80036;stroke-width:1.875;" x1="588.75" x2="723.75" y1="511.4648" y2="511.4648"/><text fill="#000000" font-family="sans-serif" font-size="13.75" lengthAdjust="spacing" textLength="95" x="595" y="530.7385">+getTestStore()</text><text fill="#000000" font-family="sans-serif" font-size="13.75" lengthAdjust="spacing" textLength="96.25" x="595" y="548.0334">+createReport()</text><!--MD5=[f00dbe8c0302c6aec2cb26b3c659c8fc]
class Report--><rect codeLine="19" fill="#FEFECE" filter="url(#f44ewbiu1q6g4)" height="181.0645" id="Report" style="stroke:#A80036;stroke-width:1.875;" width="231.25" x="894.375" y="400.625"/><ellipse cx="981.5625" cy="420.625" fill="#ADD1B2" rx="13.75" ry="13.75" style="stroke:#A80036;stroke-width:1.25;"/><path d="M984.0625,416.25 Q984.3164,415.625 984.6094,415.3125 Q984.9023,415 985.2344,415 Q985.8203,415 986.1914,415.3516 Q986.5625,415.7031 986.5625,416.5234 L986.5625,418.4766 Q986.5625,419.2969 986.2109,419.6484 Q985.8594,420 985.3125,420 Q984.8242,420 984.5117,419.7852 Q984.1992,419.5703 984.0625,419.0039 Q984.0039,418.6133 983.7891,418.3984 Q983.3984,417.9883 982.6953,417.7539 Q981.9922,417.5 981.2891,417.5 Q980.4102,417.5 979.668,417.8516 Q978.9453,418.2031 978.3789,418.9844 Q977.8125,419.7656 977.8125,420.8398 L977.8125,421.9922 Q977.8125,423.2813 978.8672,424.1406 Q979.9219,425 981.7969,425 Q982.9102,425 983.6914,424.7461 Q984.1406,424.6094 984.6484,424.1602 Q984.9805,423.9063 985.1563,423.8281 Q985.332,423.75 985.5469,423.75 Q985.957,423.75 986.25,424.082 Q986.5625,424.3945 986.5625,424.8438 Q986.5625,425.2734 986.1328,425.7813 Q985.5078,426.5234 984.5117,426.9336 Q983.2031,427.5 981.6016,427.5 Q979.7266,427.5 978.2227,426.7578 Q977.0117,426.1719 976.1523,424.9023 Q975.3125,423.6328 975.3125,422.1289 L975.3125,420.7617 Q975.3125,419.1992 976.0547,417.832 Q976.8164,416.4648 978.125,415.7422 Q979.4531,415 980.9375,415 Q981.8359,415 982.6172,415.3125 Q983.3984,415.625 984.0625,416.25 Z " fill="#000000"/><text fill="#000000" font-family="sans-serif" font-size="15" lengthAdjust="spacing" textLength="46.25" x="1007.1875" y="426.7627">Report</text><line style="stroke:#A80036;stroke-width:1.875;" x1="895.625" x2="1124.375" y1="440.625" y2="440.625"/><text fill="#000000" font-family="sans-serif" font-size="13.75" lengthAdjust="spacing" textLength="197.5" x="901.875" y="459.8987">-int REPORTTEXT_MAX_LENGTH</text><text fill="#000000" font-family="sans-serif" font-size="13.75" lengthAdjust="spacing" textLength="106.25" x="901.875" y="477.1936">-String reportText</text><text fill="#000000" font-family="sans-serif" font-size="13.75" lengthAdjust="spacing" textLength="85" x="901.875" y="494.4885">-Report report</text><line style="stroke:#A80036;stroke-width:1.875;" x1="895.625" x2="1124.375" y1="502.5098" y2="502.5098"/><text fill="#000000" font-family="sans-serif" font-size="13.75" lengthAdjust="spacing" textLength="120" x="901.875" y="521.7834">+Report(reportText)</text><text fill="#000000" font-family="sans-serif" font-size="13.75" lengthAdjust="spacing" textLength="216.25" x="901.875" y="539.0784">+checkReportTextRules(reportText)</text><text fill="#000000" font-family="sans-serif" font-size="13.75" lengthAdjust="spacing" textLength="132.5" x="901.875" y="556.3733">+equals(reportObject)</text><text fill="#000000" font-family="sans-serif" font-size="13.75" lengthAdjust="spacing" textLength="56.25" x="901.875" y="573.6682">+create()</text><!--MD5=[df38be88ccee13e832d6fafd6288a4ca]
class Test--><rect codeLine="29" fill="#FEFECE" filter="url(#f44ewbiu1q6g4)" height="111.8848" id="Test" style="stroke:#A80036;stroke-width:1.875;" width="116.25" x="1304.375" y="435"/><ellipse cx="1343.9375" cy="455" fill="#ADD1B2" rx="13.75" ry="13.75" style="stroke:#A80036;stroke-width:1.25;"/><path d="M1346.4375,450.625 Q1346.6914,450 1346.9844,449.6875 Q1347.2773,449.375 1347.6094,449.375 Q1348.1953,449.375 1348.5664,449.7266 Q1348.9375,450.0781 1348.9375,450.8984 L1348.9375,452.8516 Q1348.9375,453.6719 1348.5859,454.0234 Q1348.2344,454.375 1347.6875,454.375 Q1347.1992,454.375 1346.8867,454.1602 Q1346.5742,453.9453 1346.4375,453.3789 Q1346.3789,452.9883 1346.1641,452.7734 Q1345.7734,452.3633 1345.0703,452.1289 Q1344.3672,451.875 1343.6641,451.875 Q1342.7852,451.875 1342.043,452.2266 Q1341.3203,452.5781 1340.7539,453.3594 Q1340.1875,454.1406 1340.1875,455.2148 L1340.1875,456.3672 Q1340.1875,457.6563 1341.2422,458.5156 Q1342.2969,459.375 1344.1719,459.375 Q1345.2852,459.375 1346.0664,459.1211 Q1346.5156,458.9844 1347.0234,458.5352 Q1347.3555,458.2813 1347.5313,458.2031 Q1347.707,458.125 1347.9219,458.125 Q1348.332,458.125 1348.625,458.457 Q1348.9375,458.7695 1348.9375,459.2188 Q1348.9375,459.6484 1348.5078,460.1563 Q1347.8828,460.8984 1346.8867,461.3086 Q1345.5781,461.875 1343.9766,461.875 Q1342.1016,461.875 1340.5977,461.1328 Q1339.3867,460.5469 1338.5273,459.2773 Q1337.6875,458.0078 1337.6875,456.5039 L1337.6875,455.1367 Q1337.6875,453.5742 1338.4297,452.207 Q1339.1914,450.8398 1340.5,450.1172 Q1341.8281,449.375 1343.3125,449.375 Q1344.2109,449.375 1344.9922,449.6875 Q1345.7734,450 1346.4375,450.625 Z " fill="#000000"/><text fill="#000000" font-family="sans-serif" font-size="15" lengthAdjust="spacing" textLength="30" x="1366.0625" y="461.1377">Test</text><line style="stroke:#A80036;stroke-width:1.875;" x1="1305.625" x2="1419.375" y1="475" y2="475"/><text fill="#000000" font-family="sans-serif" font-size="13.75" lengthAdjust="spacing" textLength="101.25" x="1311.875" y="494.2737">-String NHSCode</text><text fill="#000000" font-family="sans-serif" font-size="13.75" lengthAdjust="spacing" textLength="73.75" x="1311.875" y="511.5686">-String code</text><line style="stroke:#A80036;stroke-width:1.875;" x1="1305.625" x2="1419.375" y1="519.5898" y2="519.5898"/><text fill="#000000" font-family="sans-serif" font-size="13.75" lengthAdjust="spacing" textLength="67.5" x="1311.875" y="538.8635">+getCode()</text><!--MD5=[0f6f7964b844a64b0496af0dda7914bd]
class TestStore--><rect codeLine="39" fill="#FEFECE" filter="url(#f44ewbiu1q6g4)" height="129.1797" id="TestStore" style="stroke:#A80036;stroke-width:1.875;" width="221.25" x="1251.875" y="678.125"/><ellipse cx="1324.0625" cy="698.125" fill="#ADD1B2" rx="13.75" ry="13.75" style="stroke:#A80036;stroke-width:1.25;"/><path d="M1326.5625,693.75 Q1326.8164,693.125 1327.1094,692.8125 Q1327.4023,692.5 1327.7344,692.5 Q1328.3203,692.5 1328.6914,692.8516 Q1329.0625,693.2031 1329.0625,694.0234 L1329.0625,695.9766 Q1329.0625,696.7969 1328.7109,697.1484 Q1328.3594,697.5 1327.8125,697.5 Q1327.3242,697.5 1327.0117,697.2852 Q1326.6992,697.0703 1326.5625,696.5039 Q1326.5039,696.1133 1326.2891,695.8984 Q1325.8984,695.4883 1325.1953,695.2539 Q1324.4922,695 1323.7891,695 Q1322.9102,695 1322.168,695.3516 Q1321.4453,695.7031 1320.8789,696.4844 Q1320.3125,697.2656 1320.3125,698.3398 L1320.3125,699.4922 Q1320.3125,700.7813 1321.3672,701.6406 Q1322.4219,702.5 1324.2969,702.5 Q1325.4102,702.5 1326.1914,702.2461 Q1326.6406,702.1094 1327.1484,701.6602 Q1327.4805,701.4063 1327.6563,701.3281 Q1327.832,701.25 1328.0469,701.25 Q1328.457,701.25 1328.75,701.582 Q1329.0625,701.8945 1329.0625,702.3438 Q1329.0625,702.7734 1328.6328,703.2813 Q1328.0078,704.0234 1327.0117,704.4336 Q1325.7031,705 1324.1016,705 Q1322.2266,705 1320.7227,704.2578 Q1319.5117,703.6719 1318.6523,702.4023 Q1317.8125,701.1328 1317.8125,699.6289 L1317.8125,698.2617 Q1317.8125,696.6992 1318.5547,695.332 Q1319.3164,693.9648 1320.625,693.2422 Q1321.9531,692.5 1323.4375,692.5 Q1324.3359,692.5 1325.1172,692.8125 Q1325.8984,693.125 1326.5625,693.75 Z " fill="#000000"/><text fill="#000000" font-family="sans-serif" font-size="15" lengthAdjust="spacing" textLength="66.25" x="1349.6875" y="704.2627">TestStore</text><line style="stroke:#A80036;stroke-width:1.875;" x1="1253.125" x2="1471.875" y1="718.125" y2="718.125"/><text fill="#000000" font-family="sans-serif" font-size="13.75" lengthAdjust="spacing" textLength="206.25" x="1259.375" y="737.3987">-list&lt;Test&gt; testsReadyToDiagnose</text><line style="stroke:#A80036;stroke-width:1.875;" x1="1253.125" x2="1471.875" y1="745.4199" y2="745.4199"/><text fill="#000000" font-family="sans-serif" font-size="13.75" lengthAdjust="spacing" textLength="180" x="1259.375" y="764.6936">+getTestsReadyToDiagnose()</text><text fill="#000000" font-family="sans-serif" font-size="13.75" lengthAdjust="spacing" textLength="140" x="1259.375" y="781.9885">+getTestByCode(code)</text><text fill="#000000" font-family="sans-serif" font-size="13.75" lengthAdjust="spacing" textLength="157.5" x="1259.375" y="799.2834">+addReport(selectedTest)</text><!--MD5=[144698ec4d0188f6929a3b58a3eeb1f6]
class TestMapper--><rect codeLine="52" fill="#FEFECE" filter="url(#f44ewbiu1q6g4)" height="84.5898" id="TestMapper" style="stroke:#A80036;stroke-width:1.875;" width="191.25" x="560.625" y="142.5"/><ellipse cx="610.875" cy="162.5" fill="#ADD1B2" rx="13.75" ry="13.75" style="stroke:#A80036;stroke-width:1.25;"/><path d="M613.375,158.125 Q613.6289,157.5 613.9219,157.1875 Q614.2148,156.875 614.5469,156.875 Q615.1328,156.875 615.5039,157.2266 Q615.875,157.5781 615.875,158.3984 L615.875,160.3516 Q615.875,161.1719 615.5234,161.5234 Q615.1719,161.875 614.625,161.875 Q614.1367,161.875 613.8242,161.6602 Q613.5117,161.4453 613.375,160.8789 Q613.3164,160.4883 613.1016,160.2734 Q612.7109,159.8633 612.0078,159.6289 Q611.3047,159.375 610.6016,159.375 Q609.7227,159.375 608.9805,159.7266 Q608.2578,160.0781 607.6914,160.8594 Q607.125,161.6406 607.125,162.7148 L607.125,163.8672 Q607.125,165.1563 608.1797,166.0156 Q609.2344,166.875 611.1094,166.875 Q612.2227,166.875 613.0039,166.6211 Q613.4531,166.4844 613.9609,166.0352 Q614.293,165.7813 614.4688,165.7031 Q614.6445,165.625 614.8594,165.625 Q615.2695,165.625 615.5625,165.957 Q615.875,166.2695 615.875,166.7188 Q615.875,167.1484 615.4453,167.6563 Q614.8203,168.3984 613.8242,168.8086 Q612.5156,169.375 610.9141,169.375 Q609.0391,169.375 607.5352,168.6328 Q606.3242,168.0469 605.4648,166.7773 Q604.625,165.5078 604.625,164.0039 L604.625,162.6367 Q604.625,161.0742 605.3672,159.707 Q606.1289,158.3398 607.4375,157.6172 Q608.7656,156.875 610.25,156.875 Q611.1484,156.875 611.9297,157.1875 Q612.7109,157.5 613.375,158.125 Z " fill="#000000"/><text fill="#000000" font-family="sans-serif" font-size="15" lengthAdjust="spacing" textLength="81.25" x="635.375" y="168.6377">TestMapper</text><line style="stroke:#A80036;stroke-width:1.875;" x1="561.875" x2="750.625" y1="182.5" y2="182.5"/><text fill="#000000" font-family="sans-serif" font-size="13.75" lengthAdjust="spacing" textLength="176.25" x="568.125" y="201.7737">+toDTO(listTestsToDiagnose)</text><text fill="#000000" font-family="sans-serif" font-size="13.75" lengthAdjust="spacing" textLength="72.5" x="568.125" y="219.0686">+toDTO(obj)</text><!--MD5=[9fb704ffefcaf68bf1a361787afa998b]
class TestDTO--><rect codeLine="61" fill="#FEFECE" filter="url(#f44ewbiu1q6g4)" height="129.1797" id="TestDTO" style="stroke:#A80036;stroke-width:1.875;" width="166.25" x="926.875" y="120.625"/><ellipse cx="974.875" cy="140.625" fill="#ADD1B2" rx="13.75" ry="13.75" style="stroke:#A80036;stroke-width:1.25;"/><path d="M977.375,136.25 Q977.6289,135.625 977.9219,135.3125 Q978.2148,135 978.5469,135 Q979.1328,135 979.5039,135.3516 Q979.875,135.7031 979.875,136.5234 L979.875,138.4766 Q979.875,139.2969 979.5234,139.6484 Q979.1719,140 978.625,140 Q978.1367,140 977.8242,139.7852 Q977.5117,139.5703 977.375,139.0039 Q977.3164,138.6133 977.1016,138.3984 Q976.7109,137.9883 976.0078,137.7539 Q975.3047,137.5 974.6016,137.5 Q973.7227,137.5 972.9805,137.8516 Q972.2578,138.2031 971.6914,138.9844 Q971.125,139.7656 971.125,140.8398 L971.125,141.9922 Q971.125,143.2813 972.1797,144.1406 Q973.2344,145 975.1094,145 Q976.2227,145 977.0039,144.7461 Q977.4531,144.6094 977.9609,144.1602 Q978.293,143.9063 978.4688,143.8281 Q978.6445,143.75 978.8594,143.75 Q979.2695,143.75 979.5625,144.082 Q979.875,144.3945 979.875,144.8438 Q979.875,145.2734 979.4453,145.7813 Q978.8203,146.5234 977.8242,146.9336 Q976.5156,147.5 974.9141,147.5 Q973.0391,147.5 971.5352,146.7578 Q970.3242,146.1719 969.4648,144.9023 Q968.625,143.6328 968.625,142.1289 L968.625,140.7617 Q968.625,139.1992 969.3672,137.832 Q970.1289,136.4648 971.4375,135.7422 Q972.7656,135 974.25,135 Q975.1484,135 975.9297,135.3125 Q976.7109,135.625 977.375,136.25 Z " fill="#000000"/><text fill="#000000" font-family="sans-serif" font-size="15" lengthAdjust="spacing" textLength="61.25" x="998.875" y="146.7627">TestDTO</text><line style="stroke:#A80036;stroke-width:1.875;" x1="928.125" x2="1091.875" y1="160.625" y2="160.625"/><text fill="#000000" font-family="sans-serif" font-size="13.75" lengthAdjust="spacing" textLength="101.25" x="934.375" y="179.8987">-String NHSCode</text><text fill="#000000" font-family="sans-serif" font-size="13.75" lengthAdjust="spacing" textLength="73.75" x="934.375" y="197.1936">-String code</text><line style="stroke:#A80036;stroke-width:1.875;" x1="928.125" x2="1091.875" y1="205.2148" y2="205.2148"/><text fill="#000000" font-family="sans-serif" font-size="13.75" lengthAdjust="spacing" textLength="151.25" x="934.375" y="224.4885">+create(NHSCode, code)</text><text fill="#000000" font-family="sans-serif" font-size="13.75" lengthAdjust="spacing" textLength="67.5" x="934.375" y="241.7834">+getCode()</text><!--MD5=[d7b8916e3117ca4a3ffdab4f31ea783a]
class WriteReportController--><rect codeLine="72" fill="#FEFECE" filter="url(#f44ewbiu1q6g4)" height="146.4746" id="WriteReportController" style="stroke:#A80036;stroke-width:1.875;" width="188.75" x="287.5" y="418.125"/><ellipse cx="306.25" cy="438.125" fill="#ADD1B2" rx="13.75" ry="13.75" style="stroke:#A80036;stroke-width:1.25;"/><path d="M308.75,433.75 Q309.0039,433.125 309.2969,432.8125 Q309.5898,432.5 309.9219,432.5 Q310.5078,432.5 310.8789,432.8516 Q311.25,433.2031 311.25,434.0234 L311.25,435.9766 Q311.25,436.7969 310.8984,437.1484 Q310.5469,437.5 310,437.5 Q309.5117,437.5 309.1992,437.2852 Q308.8867,437.0703 308.75,436.5039 Q308.6914,436.1133 308.4766,435.8984 Q308.0859,435.4883 307.3828,435.2539 Q306.6797,435 305.9766,435 Q305.0977,435 304.3555,435.3516 Q303.6328,435.7031 303.0664,436.4844 Q302.5,437.2656 302.5,438.3398 L302.5,439.4922 Q302.5,440.7813 303.5547,441.6406 Q304.6094,442.5 306.4844,442.5 Q307.5977,442.5 308.3789,442.2461 Q308.8281,442.1094 309.3359,441.6602 Q309.668,441.4063 309.8438,441.3281 Q310.0195,441.25 310.2344,441.25 Q310.6445,441.25 310.9375,441.582 Q311.25,441.8945 311.25,442.3438 Q311.25,442.7734 310.8203,443.2813 Q310.1953,444.0234 309.1992,444.4336 Q307.8906,445 306.2891,445 Q304.4141,445 302.9102,444.2578 Q301.6992,443.6719 300.8398,442.4023 Q300,441.1328 300,439.6289 L300,438.2617 Q300,436.6992 300.7422,435.332 Q301.5039,433.9648 302.8125,433.2422 Q304.1406,432.5 305.625,432.5 Q306.5234,432.5 307.3047,432.8125 Q308.0859,433.125 308.75,433.75 Z " fill="#000000"/><text fill="#000000" font-family="sans-serif" font-size="15" lengthAdjust="spacing" textLength="148.75" x="323.75" y="444.2627">WriteReportController</text><line style="stroke:#A80036;stroke-width:1.875;" x1="288.75" x2="475" y1="458.125" y2="458.125"/><text fill="#000000" font-family="sans-serif" font-size="13.75" lengthAdjust="spacing" textLength="120" x="295" y="477.3987">-Company company</text><text fill="#000000" font-family="sans-serif" font-size="13.75" lengthAdjust="spacing" textLength="85" x="295" y="494.6936">-Report report</text><line style="stroke:#A80036;stroke-width:1.875;" x1="288.75" x2="475" y1="502.7148" y2="502.7148"/><text fill="#000000" font-family="sans-serif" font-size="13.75" lengthAdjust="spacing" textLength="137.5" x="295" y="521.9885">+getTeststoDiagnose()</text><text fill="#000000" font-family="sans-serif" font-size="13.75" lengthAdjust="spacing" textLength="96.25" x="295" y="539.2834">+createReport()</text><text fill="#000000" font-family="sans-serif" font-size="13.75" lengthAdjust="spacing" textLength="133.75" x="295" y="556.5784">+addReport(testCode)</text><!--MD5=[71fba8c2abd557a2f7006580273aba3e]
class WriteReportUI--><rect codeLine="86" fill="#FEFECE" filter="url(#f44ewbiu1q6g4)" height="40" id="WriteReportUI" style="stroke:#A80036;stroke-width:1.875;" width="136.25" x="40" y="853.75"/><ellipse cx="58.75" cy="873.75" fill="#ADD1B2" rx="13.75" ry="13.75" style="stroke:#A80036;stroke-width:1.25;"/><path d="M61.25,869.375 Q61.5039,868.75 61.7969,868.4375 Q62.0898,868.125 62.4219,868.125 Q63.0078,868.125 63.3789,868.4766 Q63.75,868.8281 63.75,869.6484 L63.75,871.6016 Q63.75,872.4219 63.3984,872.7734 Q63.0469,873.125 62.5,873.125 Q62.0117,873.125 61.6992,872.9102 Q61.3867,872.6953 61.25,872.1289 Q61.1914,871.7383 60.9766,871.5234 Q60.5859,871.1133 59.8828,870.8789 Q59.1797,870.625 58.4766,870.625 Q57.5977,870.625 56.8555,870.9766 Q56.1328,871.3281 55.5664,872.1094 Q55,872.8906 55,873.9648 L55,875.1172 Q55,876.4063 56.0547,877.2656 Q57.1094,878.125 58.9844,878.125 Q60.0977,878.125 60.8789,877.8711 Q61.3281,877.7344 61.8359,877.2852 Q62.168,877.0313 62.3438,876.9531 Q62.5195,876.875 62.7344,876.875 Q63.1445,876.875 63.4375,877.207 Q63.75,877.5195 63.75,877.9688 Q63.75,878.3984 63.3203,878.9063 Q62.6953,879.6484 61.6992,880.0586 Q60.3906,880.625 58.7891,880.625 Q56.9141,880.625 55.4102,879.8828 Q54.1992,879.2969 53.3398,878.0273 Q52.5,876.7578 52.5,875.2539 L52.5,873.8867 Q52.5,872.3242 53.2422,870.957 Q54.0039,869.5898 55.3125,868.8672 Q56.6406,868.125 58.125,868.125 Q59.0234,868.125 59.8047,868.4375 Q60.5859,868.75 61.25,869.375 Z " fill="#000000"/><text fill="#000000" font-family="sans-serif" font-size="15" lengthAdjust="spacing" textLength="96.25" x="76.25" y="879.8877">WriteReportUI</text><!--MD5=[4ff913b72b026e4c95390310e4df5ddd]
link WriteReportUI to WriteReportController--><path codeLine="91" d="M123.575,853.725 C160.5,801.65 261.0875,659.8125 324.9375,569.7875 " fill="none" id="WriteReportUI-to-WriteReportController" style="stroke:#A80036;stroke-width:1.25;stroke-dasharray:7.0,7.0;"/><polygon fill="#A80036" points="328.7,564.4625,318.1257,570.7671,325.0943,569.5676,326.2938,576.5361,328.7,564.4625" style="stroke:#A80036;stroke-width:1.25;"/><!--MD5=[b14f4b55bc9aa939c7cd06f1c0b56da5]
link WriteReportUI to TestDTO--><path codeLine="92" d="M176.7625,870.8625 C325.075,860.6125 680.5375,814.0625 856.875,602.5 C921.0875,525.4625 860.1125,474.25 894.375,380 C910.2875,336.2375 936.025,291.15 959.05,255.3625 " fill="none" id="WriteReportUI-to-TestDTO" style="stroke:#A80036;stroke-width:1.25;stroke-dasharray:7.0,7.0;"/><polygon fill="#A80036" points="962.725,249.7125,952.4089,256.4312,959.3245,254.9564,960.7992,261.872,962.725,249.7125" style="stroke:#A80036;stroke-width:1.25;"/><!--MD5=[f27b4a25a5b059d18ef9f1b16d7419ab]
link WriteReportController to TestMapper--><path codeLine="93" d="M448.25,417.9 C499.375,360.3 569.0625,281.8 613.0375,232.2625 " fill="none" id="WriteReportController-to-TestMapper" style="stroke:#A80036;stroke-width:1.25;stroke-dasharray:7.0,7.0;"/><polygon fill="#A80036" points="617.2125,227.5625,606.011,232.6703,613.0691,232.2417,613.4977,239.2997,617.2125,227.5625" style="stroke:#A80036;stroke-width:1.25;"/><!--MD5=[a3405a5a29c0a1359ce5b85a18cd6043]
link WriteReportController to Company--><path codeLine="94" d="M476.3125,491.25 C510.4625,491.25 548.625,491.25 580.8875,491.25 " fill="none" id="WriteReportController-to-Company" style="stroke:#A80036;stroke-width:1.25;stroke-dasharray:7.0,7.0;"/><polygon fill="#A80036" points="587.25,491.25,576,486.25,581,491.25,576,496.25,587.25,491.25" style="stroke:#A80036;stroke-width:1.25;"/><!--MD5=[aa4aa685cc8a1bee089823f9a2dac854]
link WriteReportController to TestStore--><path codeLine="95" d="M464.1875,564.6375 C483.775,579.175 505.4625,592.8875 527.5,602.5 C768.2375,707.55 1079.8,734.1375 1245.55,740.6375 " fill="none" id="WriteReportController-to-TestStore" style="stroke:#A80036;stroke-width:1.25;stroke-dasharray:7.0,7.0;"/><polygon fill="#A80036" points="1251.875,740.875,1240.8183,735.4609,1245.6293,740.643,1240.4472,745.454,1251.875,740.875" style="stroke:#A80036;stroke-width:1.25;"/><!--MD5=[d2c887862af794255aa293b427ffc580]
link WriteReportController to TestDTO--><path codeLine="96" d="M388.2375,417.825 C398.6875,330.6125 430.5375,188.675 527.5,122.5 C645.2,42.175 817.4375,95.275 920.775,140.55 " fill="none" id="WriteReportController-to-TestDTO" style="stroke:#A80036;stroke-width:1.25;stroke-dasharray:7.0,7.0;"/><polygon fill="#A80036" points="926.8625,143.25,918.6075,134.1167,921.1497,140.7149,914.5514,143.2571,926.8625,143.25" style="stroke:#A80036;stroke-width:1.25;"/><!--MD5=[b0f4f6db8206580012ef9cd998ed01c5]
link TestStore to Test--><path codeLine="97" d="M1362.5,678.125 C1362.5,640.05 1362.5,592.0375 1362.5,554.225 " fill="none" id="TestStore-to-Test" style="stroke:#A80036;stroke-width:1.25;"/><polygon fill="#A80036" points="1362.5,547.7625,1357.5,559.0125,1362.5,554.0125,1367.5,559.0125,1362.5,547.7625" style="stroke:#A80036;stroke-width:1.25;"/><polygon fill="#000000" points="1320,606.7822,1316.3263,618.0886,1323.6737,618.0886,1320,606.7822" style="stroke:#000000;stroke-width:1.25;"/><text fill="#000000" font-family="sans-serif" font-size="16.25" lengthAdjust="spacing" textLength="48.75" x="1331.25" y="619.6814">adopts</text><text fill="#000000" font-family="sans-serif" font-size="16.25" lengthAdjust="spacing" textLength="8.75" x="1353.1348" y="664.5356">1</text><text fill="#000000" font-family="sans-serif" font-size="16.25" lengthAdjust="spacing" textLength="6.25" x="1355.8301" y="573.6399">*</text><!--MD5=[670dbdf7395d3fcbb40104f0a070263e]
link Company to Report--><path codeLine="98" d="M725.225,491.25 C771.3,491.25 833.5375,491.25 887.9625,491.25 " fill="none" id="Company-to-Report" style="stroke:#A80036;stroke-width:1.25;"/><polygon fill="#A80036" points="894.225,491.25,882.975,486.25,887.975,491.25,882.975,496.25,894.225,491.25" style="stroke:#A80036;stroke-width:1.25;"/><polygon fill="#000000" points="804.375,480.2197,793.0686,476.5461,793.0686,483.8934,804.375,480.2197" style="stroke:#000000;stroke-width:1.25;"/><text fill="#000000" font-family="sans-serif" font-size="16.25" lengthAdjust="spacing" textLength="46.25" x="809.375" y="486.8689">knows</text><text fill="#000000" font-family="sans-serif" font-size="16.25" lengthAdjust="spacing" textLength="8.75" x="735.0814" y="509.4633">1</text><text fill="#000000" font-family="sans-serif" font-size="16.25" lengthAdjust="spacing" textLength="6.25" x="878.1286" y="508.9729">*</text><!--MD5=[63d25d625ab355317a074a623d33bba8]
link Report to Test--><path codeLine="99" d="M1125.85,491.25 C1183.0875,491.25 1250.1625,491.25 1298.025,491.25 " fill="none" id="Report-to-Test" style="stroke:#A80036;stroke-width:1.25;"/><polygon fill="#A80036" points="1304.3625,491.25,1293.1125,486.25,1298.1125,491.25,1293.1125,496.25,1304.3625,491.25" style="stroke:#A80036;stroke-width:1.25;"/><polygon fill="#000000" points="1175.625,480.2197,1164.3186,476.5461,1164.3186,483.8934,1175.625,480.2197" style="stroke:#000000;stroke-width:1.25;"/><text fill="#000000" font-family="sans-serif" font-size="16.25" lengthAdjust="spacing" textLength="30" x="1180.625" y="486.8689">is of</text><text fill="#000000" font-family="sans-serif" font-size="16.25" lengthAdjust="spacing" textLength="8.75" x="1135.8061" y="508.9729">1</text><text fill="#000000" font-family="sans-serif" font-size="16.25" lengthAdjust="spacing" textLength="8.75" x="1285.6496" y="509.7967">1</text><!--MD5=[8d9a2c3ea1bf73d8d45b939465e53fff]
link TestMapper to Test--><path codeLine="100" d="M732.725,142.45 C829.7,93.7875 1000.675,29.3875 1125.625,100 C1250.5125,170.575 1316.5625,336.7875 1344.5625,428.225 " fill="none" id="TestMapper-to-Test" style="stroke:#A80036;stroke-width:1.25;stroke-dasharray:7.0,7.0;"/><polygon fill="#A80036" points="1346.5125,434.675,1348.0523,422.4606,1344.7084,428.691,1338.4779,425.3472,1346.5125,434.675" style="stroke:#A80036;stroke-width:1.25;"/><!--MD5=[f6fda4afaf882dd39139bcbf06c50c8c]
link TestMapper to TestDTO--><path codeLine="101" d="M752.0875,185 C804.3125,185 868.775,185 920.0375,185 " fill="none" id="TestMapper-to-TestDTO" style="stroke:#A80036;stroke-width:1.25;stroke-dasharray:7.0,7.0;"/><polygon fill="#A80036" points="926.5375,185,915.2875,180,920.2875,185,915.2875,190,926.5375,185" style="stroke:#A80036;stroke-width:1.25;"/><!--MD5=[ba98c426d655457b5d4daffec7f3344b]
@startuml
hide empty methods
hide empty attributes
left to right direction
skinparam classAttributeIconSize 0

package Core {

package Domain {

package Model {

class Company {
    -String designation
    -TestStore testStore
    +getTestStore()
    +createReport()
}

class Report {
    - int REPORTTEXT_MAX_LENGTH
    - String reportText
    - Report report
    + Report(reportText)
    + checkReportTextRules(reportText)
    + equals(reportObject)
    + create()
}

class Test {
    -String NHSCode
    -String code
    +getCode()
}

}

package Stores {

class TestStore {
    -list<Test> testsReadyToDiagnose
    +getTestsReadyToDiagnose()
    +getTestByCode(code)
    +addReport(selectedTest)
}

}

}

package Mappers {

class TestMapper {
    +toDTO(listTestsToDiagnose)
    +toDTO(obj)
}

}

package DTO {

class TestDTO {
    -String NHSCode
    -String code
    +create(NHSCode, code)
    +getCode()
}

}

package Controllers {

class WriteReportController {
    -Company company
    -Report report
    +getTeststoDiagnose()
    +createReport()
    +addReport(testCode)
}

}

}

package UI {

class WriteReportUI {
}

}

WriteReportUI ..> WriteReportController
WriteReportUI ..> TestDTO
WriteReportController ..> TestMapper
WriteReportController ..> Company
WriteReportController ..> TestStore
WriteReportController ..> TestDTO
TestStore "1" -> "*" Test : adopts >
Company "1" - -> "*" Report : knows >
Report "1" - -> "1" Test : is of >
TestMapper ..> Test
TestMapper ..> TestDTO

@enduml

PlantUML version 1.2021.5(Sun Apr 25 12:20:28 BST 2021)
(GPL source distribution)
Java Runtime: OpenJDK Runtime Environment
JVM: Dynamic Code Evolution 64-Bit Server VM
Default Encoding: Cp1252
Language: pt
Country: PT
--></g></svg>