<?xml version="1.0" encoding="UTF-8" standalone="no"?><svg xmlns="http://www.w3.org/2000/svg" xmlns:xlink="http://www.w3.org/1999/xlink" contentScriptType="application/ecmascript" contentStyleType="text/css" height="962.5px" preserveAspectRatio="none" style="width:1652px;height:962px;" version="1.1" viewBox="0 0 1652 962" width="1652.5px" zoomAndPan="magnify"><defs><filter height="300%" id="f11ya9zvxbe8co" width="300%" x="-1" y="-1"><feGaussianBlur result="blurOut" stdDeviation="2.5"/><feColorMatrix in="blurOut" result="blurOut2" type="matrix" values="0 0 0 0 0 0 0 0 0 0 0 0 0 0 0 0 0 0 .4 0"/><feOffset dx="5.0" dy="5.0" in="blurOut2" result="blurOut3"/><feBlend in="SourceGraphic" in2="blurOut3" mode="normal"/></filter></defs><g><!--MD5=[2c2e2644034c00788261e03c85b06837]
cluster Core--><polygon fill="#FFFFFF" filter="url(#f11ya9zvxbe8co)" points="297.5,7.5,347.5,7.5,356.25,37.0117,1631.25,37.0117,1631.25,905,297.5,905,297.5,7.5" style="stroke:#000000;stroke-width:1.875;"/><line style="stroke:#000000;stroke-width:1.875;" x1="297.5" x2="356.25" y1="37.0117" y2="37.0117"/><text fill="#000000" font-family="sans-serif" font-size="17.5" font-weight="bold" lengthAdjust="spacing" textLength="42.5" x="302.5" y="28.1665">Core</text><!--MD5=[121a8bf1197281ab89ed693fab589f94]
cluster Domain--><polygon fill="#FFFFFF" filter="url(#f11ya9zvxbe8co)" points="597.5,300,670,300,678.75,329.5117,1601.25,329.5117,1601.25,875,597.5,875,597.5,300" style="stroke:#000000;stroke-width:1.875;"/><line style="stroke:#000000;stroke-width:1.875;" x1="597.5" x2="678.75" y1="329.5117" y2="329.5117"/><text fill="#000000" font-family="sans-serif" font-size="17.5" font-weight="bold" lengthAdjust="spacing" textLength="65" x="602.5" y="320.6665">Domain</text><!--MD5=[15636c1ca4a123c16a2a1a8e90aca7a9]
cluster Model--><polygon fill="#FFFFFF" filter="url(#f11ya9zvxbe8co)" points="627.5,355,690,355,698.75,384.5117,1518.75,384.5117,1518.75,620,627.5,620,627.5,355" style="stroke:#000000;stroke-width:1.875;"/><line style="stroke:#000000;stroke-width:1.875;" x1="627.5" x2="698.75" y1="384.5117" y2="384.5117"/><text fill="#000000" font-family="sans-serif" font-size="17.5" font-weight="bold" lengthAdjust="spacing" textLength="55" x="632.5" y="375.6665">Model</text><!--MD5=[8dd535d56cd4cf7faf64fdd082ba836e]
cluster Stores--><polygon fill="#FFFFFF" filter="url(#f11ya9zvxbe8co)" points="1310,650,1375,650,1383.75,679.5117,1571.25,679.5117,1571.25,845,1310,845,1310,650" style="stroke:#000000;stroke-width:1.875;"/><line style="stroke:#000000;stroke-width:1.875;" x1="1310" x2="1383.75" y1="679.5117" y2="679.5117"/><text fill="#000000" font-family="sans-serif" font-size="17.5" font-weight="bold" lengthAdjust="spacing" textLength="57.5" x="1315" y="670.6665">Stores</text><!--MD5=[701152d03fbf85133a1de050cfdbc7fd]
cluster Mappers--><polygon fill="#FFFFFF" filter="url(#f11ya9zvxbe8co)" points="618.75,97.5,703.75,97.5,712.5,127.0117,850,127.0117,850,247.5,618.75,247.5,618.75,97.5" style="stroke:#000000;stroke-width:1.875;"/><line style="stroke:#000000;stroke-width:1.875;" x1="618.75" x2="712.5" y1="127.0117" y2="127.0117"/><text fill="#000000" font-family="sans-serif" font-size="17.5" font-weight="bold" lengthAdjust="spacing" textLength="77.5" x="623.75" y="118.1665">Mappers</text><!--MD5=[7b8bc9ee8bb84b99fb3a3f9477c19238]
cluster DTO--><polygon fill="#FFFFFF" filter="url(#f11ya9zvxbe8co)" points="985,75,1028.75,75,1037.5,104.5117,1191.25,104.5117,1191.25,270,985,270,985,75" style="stroke:#000000;stroke-width:1.875;"/><line style="stroke:#000000;stroke-width:1.875;" x1="985" x2="1037.5" y1="104.5117" y2="104.5117"/><text fill="#000000" font-family="sans-serif" font-size="17.5" font-weight="bold" lengthAdjust="spacing" textLength="36.25" x="990" y="95.6665">DTO</text><!--MD5=[ed1d20ea533a2a0e7df5ba3c35e56ced]
cluster Controllers--><polygon fill="#FFFFFF" filter="url(#f11ya9zvxbe8co)" points="327.5,381.25,433.75,381.25,442.5,410.7617,556.25,410.7617,556.25,593.75,327.5,593.75,327.5,381.25" style="stroke:#000000;stroke-width:1.875;"/><line style="stroke:#000000;stroke-width:1.875;" x1="327.5" x2="442.5" y1="410.7617" y2="410.7617"/><text fill="#000000" font-family="sans-serif" font-size="17.5" font-weight="bold" lengthAdjust="spacing" textLength="98.75" x="332.5" y="401.9165">Controllers</text><!--MD5=[9681dc6e01e10c6b4fe06895ae94f592]
cluster UI--><polygon fill="#FFFFFF" filter="url(#f11ya9zvxbe8co)" points="20,763.75,45,763.75,53.75,793.2617,256.25,793.2617,256.25,953.75,20,953.75,20,763.75" style="stroke:#000000;stroke-width:1.875;"/><line style="stroke:#000000;stroke-width:1.875;" x1="20" x2="53.75" y1="793.2617" y2="793.2617"/><text fill="#000000" font-family="sans-serif" font-size="17.5" font-weight="bold" lengthAdjust="spacing" textLength="17.5" x="25" y="784.4165">UI</text><!--MD5=[4851e5193cf5e7abdec7b18b3bca50f8]
cluster Console--><polygon fill="#FFFFFF" filter="url(#f11ya9zvxbe8co)" points="50,818.75,130,818.75,138.75,848.2617,226.25,848.2617,226.25,923.75,50,923.75,50,818.75" style="stroke:#000000;stroke-width:1.875;"/><line style="stroke:#000000;stroke-width:1.875;" x1="50" x2="138.75" y1="848.2617" y2="848.2617"/><text fill="#000000" font-family="sans-serif" font-size="17.5" font-weight="bold" lengthAdjust="spacing" textLength="72.5" x="55" y="839.4165">Console</text><!--MD5=[02e4b9b7573f1156f41e60aa5b4e25a4]
class Company--><rect codeLine="12" fill="#FEFECE" filter="url(#f11ya9zvxbe8co)" height="129.1797" id="Company" style="stroke:#A80036;stroke-width:1.875;" width="173.75" x="647.5" y="435.625"/><ellipse cx="696.625" cy="455.625" fill="#ADD1B2" rx="13.75" ry="13.75" style="stroke:#A80036;stroke-width:1.25;"/><path d="M699.125,451.25 Q699.3789,450.625 699.6719,450.3125 Q699.9648,450 700.2969,450 Q700.8828,450 701.2539,450.3516 Q701.625,450.7031 701.625,451.5234 L701.625,453.4766 Q701.625,454.2969 701.2734,454.6484 Q700.9219,455 700.375,455 Q699.8867,455 699.5742,454.7852 Q699.2617,454.5703 699.125,454.0039 Q699.0664,453.6133 698.8516,453.3984 Q698.4609,452.9883 697.7578,452.7539 Q697.0547,452.5 696.3516,452.5 Q695.4727,452.5 694.7305,452.8516 Q694.0078,453.2031 693.4414,453.9844 Q692.875,454.7656 692.875,455.8398 L692.875,456.9922 Q692.875,458.2813 693.9297,459.1406 Q694.9844,460 696.8594,460 Q697.9727,460 698.7539,459.7461 Q699.2031,459.6094 699.7109,459.1602 Q700.043,458.9063 700.2188,458.8281 Q700.3945,458.75 700.6094,458.75 Q701.0195,458.75 701.3125,459.082 Q701.625,459.3945 701.625,459.8438 Q701.625,460.2734 701.1953,460.7813 Q700.5703,461.5234 699.5742,461.9336 Q698.2656,462.5 696.6641,462.5 Q694.7891,462.5 693.2852,461.7578 Q692.0742,461.1719 691.2148,459.9023 Q690.375,458.6328 690.375,457.1289 L690.375,455.7617 Q690.375,454.1992 691.1172,452.832 Q691.8789,451.4648 693.1875,450.7422 Q694.5156,450 696,450 Q696.8984,450 697.6797,450.3125 Q698.4609,450.625 699.125,451.25 Z " fill="#000000"/><text fill="#000000" font-family="sans-serif" font-size="15" lengthAdjust="spacing" textLength="66.25" x="720.875" y="461.7627">Company</text><line style="stroke:#A80036;stroke-width:1.875;" x1="648.75" x2="820" y1="475.625" y2="475.625"/><text fill="#000000" font-family="sans-serif" font-size="13.75" lengthAdjust="spacing" textLength="112.5" x="655" y="494.8987">-String designation</text><text fill="#000000" font-family="sans-serif" font-size="13.75" lengthAdjust="spacing" textLength="122.5" x="655" y="512.1936">-TestStore testStore</text><line style="stroke:#A80036;stroke-width:1.875;" x1="648.75" x2="820" y1="520.2148" y2="520.2148"/><text fill="#000000" font-family="sans-serif" font-size="13.75" lengthAdjust="spacing" textLength="95" x="655" y="539.4885">+getTestStore()</text><text fill="#000000" font-family="sans-serif" font-size="13.75" lengthAdjust="spacing" textLength="158.75" x="655" y="556.7834">+createReport(reportText)</text><!--MD5=[f00dbe8c0302c6aec2cb26b3c659c8fc]
class Report--><rect codeLine="19" fill="#FEFECE" filter="url(#f11ya9zvxbe8co)" height="198.3594" id="Report" style="stroke:#A80036;stroke-width:1.875;" width="231.25" x="972.5" y="400.625"/><ellipse cx="1059.6875" cy="420.625" fill="#ADD1B2" rx="13.75" ry="13.75" style="stroke:#A80036;stroke-width:1.25;"/><path d="M1062.1875,416.25 Q1062.4414,415.625 1062.7344,415.3125 Q1063.0273,415 1063.3594,415 Q1063.9453,415 1064.3164,415.3516 Q1064.6875,415.7031 1064.6875,416.5234 L1064.6875,418.4766 Q1064.6875,419.2969 1064.3359,419.6484 Q1063.9844,420 1063.4375,420 Q1062.9492,420 1062.6367,419.7852 Q1062.3242,419.5703 1062.1875,419.0039 Q1062.1289,418.6133 1061.9141,418.3984 Q1061.5234,417.9883 1060.8203,417.7539 Q1060.1172,417.5 1059.4141,417.5 Q1058.5352,417.5 1057.793,417.8516 Q1057.0703,418.2031 1056.5039,418.9844 Q1055.9375,419.7656 1055.9375,420.8398 L1055.9375,421.9922 Q1055.9375,423.2813 1056.9922,424.1406 Q1058.0469,425 1059.9219,425 Q1061.0352,425 1061.8164,424.7461 Q1062.2656,424.6094 1062.7734,424.1602 Q1063.1055,423.9063 1063.2813,423.8281 Q1063.457,423.75 1063.6719,423.75 Q1064.082,423.75 1064.375,424.082 Q1064.6875,424.3945 1064.6875,424.8438 Q1064.6875,425.2734 1064.2578,425.7813 Q1063.6328,426.5234 1062.6367,426.9336 Q1061.3281,427.5 1059.7266,427.5 Q1057.8516,427.5 1056.3477,426.7578 Q1055.1367,426.1719 1054.2773,424.9023 Q1053.4375,423.6328 1053.4375,422.1289 L1053.4375,420.7617 Q1053.4375,419.1992 1054.1797,417.832 Q1054.9414,416.4648 1056.25,415.7422 Q1057.5781,415 1059.0625,415 Q1059.9609,415 1060.7422,415.3125 Q1061.5234,415.625 1062.1875,416.25 Z " fill="#000000"/><text fill="#000000" font-family="sans-serif" font-size="15" lengthAdjust="spacing" textLength="46.25" x="1085.3125" y="426.7627">Report</text><line style="stroke:#A80036;stroke-width:1.875;" x1="973.75" x2="1202.5" y1="440.625" y2="440.625"/><text fill="#000000" font-family="sans-serif" font-size="13.75" lengthAdjust="spacing" textLength="197.5" x="980" y="459.8987">-int REPORTTEXT_MAX_LENGTH</text><text fill="#000000" font-family="sans-serif" font-size="13.75" lengthAdjust="spacing" textLength="106.25" x="980" y="477.1936">-String reportText</text><text fill="#000000" font-family="sans-serif" font-size="13.75" lengthAdjust="spacing" textLength="85" x="980" y="494.4885">-Report report</text><line style="stroke:#A80036;stroke-width:1.875;" x1="973.75" x2="1202.5" y1="502.5098" y2="502.5098"/><text fill="#000000" font-family="sans-serif" font-size="13.75" lengthAdjust="spacing" textLength="120" x="980" y="521.7834">+Report(reportText)</text><text fill="#000000" font-family="sans-serif" font-size="13.75" lengthAdjust="spacing" textLength="216.25" x="980" y="539.0784">+checkReportTextRules(reportText)</text><text fill="#000000" font-family="sans-serif" font-size="13.75" lengthAdjust="spacing" textLength="153.75" x="980" y="556.3733">+countWords(reportText)</text><text fill="#000000" font-family="sans-serif" font-size="13.75" lengthAdjust="spacing" textLength="132.5" x="980" y="573.6682">+equals(reportObject)</text><text fill="#000000" font-family="sans-serif" font-size="13.75" lengthAdjust="spacing" textLength="118.75" x="980" y="590.9631">+create(reportText)</text><!--MD5=[df38be88ccee13e832d6fafd6288a4ca]
class Test--><rect codeLine="30" fill="#FEFECE" filter="url(#f11ya9zvxbe8co)" height="111.8848" id="Test" style="stroke:#A80036;stroke-width:1.875;" width="116.25" x="1382.5" y="443.75"/><ellipse cx="1422.0625" cy="463.75" fill="#ADD1B2" rx="13.75" ry="13.75" style="stroke:#A80036;stroke-width:1.25;"/><path d="M1424.5625,459.375 Q1424.8164,458.75 1425.1094,458.4375 Q1425.4023,458.125 1425.7344,458.125 Q1426.3203,458.125 1426.6914,458.4766 Q1427.0625,458.8281 1427.0625,459.6484 L1427.0625,461.6016 Q1427.0625,462.4219 1426.7109,462.7734 Q1426.3594,463.125 1425.8125,463.125 Q1425.3242,463.125 1425.0117,462.9102 Q1424.6992,462.6953 1424.5625,462.1289 Q1424.5039,461.7383 1424.2891,461.5234 Q1423.8984,461.1133 1423.1953,460.8789 Q1422.4922,460.625 1421.7891,460.625 Q1420.9102,460.625 1420.168,460.9766 Q1419.4453,461.3281 1418.8789,462.1094 Q1418.3125,462.8906 1418.3125,463.9648 L1418.3125,465.1172 Q1418.3125,466.4063 1419.3672,467.2656 Q1420.4219,468.125 1422.2969,468.125 Q1423.4102,468.125 1424.1914,467.8711 Q1424.6406,467.7344 1425.1484,467.2852 Q1425.4805,467.0313 1425.6563,466.9531 Q1425.832,466.875 1426.0469,466.875 Q1426.457,466.875 1426.75,467.207 Q1427.0625,467.5195 1427.0625,467.9688 Q1427.0625,468.3984 1426.6328,468.9063 Q1426.0078,469.6484 1425.0117,470.0586 Q1423.7031,470.625 1422.1016,470.625 Q1420.2266,470.625 1418.7227,469.8828 Q1417.5117,469.2969 1416.6523,468.0273 Q1415.8125,466.7578 1415.8125,465.2539 L1415.8125,463.8867 Q1415.8125,462.3242 1416.5547,460.957 Q1417.3164,459.5898 1418.625,458.8672 Q1419.9531,458.125 1421.4375,458.125 Q1422.3359,458.125 1423.1172,458.4375 Q1423.8984,458.75 1424.5625,459.375 Z " fill="#000000"/><text fill="#000000" font-family="sans-serif" font-size="15" lengthAdjust="spacing" textLength="30" x="1444.1875" y="469.8877">Test</text><line style="stroke:#A80036;stroke-width:1.875;" x1="1383.75" x2="1497.5" y1="483.75" y2="483.75"/><text fill="#000000" font-family="sans-serif" font-size="13.75" lengthAdjust="spacing" textLength="101.25" x="1390" y="503.0237">-String NHSCode</text><text fill="#000000" font-family="sans-serif" font-size="13.75" lengthAdjust="spacing" textLength="73.75" x="1390" y="520.3186">-String code</text><line style="stroke:#A80036;stroke-width:1.875;" x1="1383.75" x2="1497.5" y1="528.3398" y2="528.3398"/><text fill="#000000" font-family="sans-serif" font-size="13.75" lengthAdjust="spacing" textLength="67.5" x="1390" y="547.6135">+getCode()</text><!--MD5=[0f6f7964b844a64b0496af0dda7914bd]
class TestStore--><rect codeLine="40" fill="#FEFECE" filter="url(#f11ya9zvxbe8co)" height="129.1797" id="TestStore" style="stroke:#A80036;stroke-width:1.875;" width="221.25" x="1330" y="695.625"/><ellipse cx="1402.1875" cy="715.625" fill="#ADD1B2" rx="13.75" ry="13.75" style="stroke:#A80036;stroke-width:1.25;"/><path d="M1404.6875,711.25 Q1404.9414,710.625 1405.2344,710.3125 Q1405.5273,710 1405.8594,710 Q1406.4453,710 1406.8164,710.3516 Q1407.1875,710.7031 1407.1875,711.5234 L1407.1875,713.4766 Q1407.1875,714.2969 1406.8359,714.6484 Q1406.4844,715 1405.9375,715 Q1405.4492,715 1405.1367,714.7852 Q1404.8242,714.5703 1404.6875,714.0039 Q1404.6289,713.6133 1404.4141,713.3984 Q1404.0234,712.9883 1403.3203,712.7539 Q1402.6172,712.5 1401.9141,712.5 Q1401.0352,712.5 1400.293,712.8516 Q1399.5703,713.2031 1399.0039,713.9844 Q1398.4375,714.7656 1398.4375,715.8398 L1398.4375,716.9922 Q1398.4375,718.2813 1399.4922,719.1406 Q1400.5469,720 1402.4219,720 Q1403.5352,720 1404.3164,719.7461 Q1404.7656,719.6094 1405.2734,719.1602 Q1405.6055,718.9063 1405.7813,718.8281 Q1405.957,718.75 1406.1719,718.75 Q1406.582,718.75 1406.875,719.082 Q1407.1875,719.3945 1407.1875,719.8438 Q1407.1875,720.2734 1406.7578,720.7813 Q1406.1328,721.5234 1405.1367,721.9336 Q1403.8281,722.5 1402.2266,722.5 Q1400.3516,722.5 1398.8477,721.7578 Q1397.6367,721.1719 1396.7773,719.9023 Q1395.9375,718.6328 1395.9375,717.1289 L1395.9375,715.7617 Q1395.9375,714.1992 1396.6797,712.832 Q1397.4414,711.4648 1398.75,710.7422 Q1400.0781,710 1401.5625,710 Q1402.4609,710 1403.2422,710.3125 Q1404.0234,710.625 1404.6875,711.25 Z " fill="#000000"/><text fill="#000000" font-family="sans-serif" font-size="15" lengthAdjust="spacing" textLength="66.25" x="1427.8125" y="721.7627">TestStore</text><line style="stroke:#A80036;stroke-width:1.875;" x1="1331.25" x2="1550" y1="735.625" y2="735.625"/><text fill="#000000" font-family="sans-serif" font-size="13.75" lengthAdjust="spacing" textLength="206.25" x="1337.5" y="754.8987">-list&lt;Test&gt; testsReadyToDiagnose</text><line style="stroke:#A80036;stroke-width:1.875;" x1="1331.25" x2="1550" y1="762.9199" y2="762.9199"/><text fill="#000000" font-family="sans-serif" font-size="13.75" lengthAdjust="spacing" textLength="180" x="1337.5" y="782.1936">+getTestsReadyToDiagnose()</text><text fill="#000000" font-family="sans-serif" font-size="13.75" lengthAdjust="spacing" textLength="140" x="1337.5" y="799.4885">+getTestByCode(code)</text><text fill="#000000" font-family="sans-serif" font-size="13.75" lengthAdjust="spacing" textLength="157.5" x="1337.5" y="816.7834">+addReport(selectedTest)</text><!--MD5=[144698ec4d0188f6929a3b58a3eeb1f6]
class TestMapper--><rect codeLine="53" fill="#FEFECE" filter="url(#f11ya9zvxbe8co)" height="84.5898" id="TestMapper" style="stroke:#A80036;stroke-width:1.875;" width="191.25" x="638.75" y="142.5"/><ellipse cx="689" cy="162.5" fill="#ADD1B2" rx="13.75" ry="13.75" style="stroke:#A80036;stroke-width:1.25;"/><path d="M691.5,158.125 Q691.7539,157.5 692.0469,157.1875 Q692.3398,156.875 692.6719,156.875 Q693.2578,156.875 693.6289,157.2266 Q694,157.5781 694,158.3984 L694,160.3516 Q694,161.1719 693.6484,161.5234 Q693.2969,161.875 692.75,161.875 Q692.2617,161.875 691.9492,161.6602 Q691.6367,161.4453 691.5,160.8789 Q691.4414,160.4883 691.2266,160.2734 Q690.8359,159.8633 690.1328,159.6289 Q689.4297,159.375 688.7266,159.375 Q687.8477,159.375 687.1055,159.7266 Q686.3828,160.0781 685.8164,160.8594 Q685.25,161.6406 685.25,162.7148 L685.25,163.8672 Q685.25,165.1563 686.3047,166.0156 Q687.3594,166.875 689.2344,166.875 Q690.3477,166.875 691.1289,166.6211 Q691.5781,166.4844 692.0859,166.0352 Q692.418,165.7813 692.5938,165.7031 Q692.7695,165.625 692.9844,165.625 Q693.3945,165.625 693.6875,165.957 Q694,166.2695 694,166.7188 Q694,167.1484 693.5703,167.6563 Q692.9453,168.3984 691.9492,168.8086 Q690.6406,169.375 689.0391,169.375 Q687.1641,169.375 685.6602,168.6328 Q684.4492,168.0469 683.5898,166.7773 Q682.75,165.5078 682.75,164.0039 L682.75,162.6367 Q682.75,161.0742 683.4922,159.707 Q684.2539,158.3398 685.5625,157.6172 Q686.8906,156.875 688.375,156.875 Q689.2734,156.875 690.0547,157.1875 Q690.8359,157.5 691.5,158.125 Z " fill="#000000"/><text fill="#000000" font-family="sans-serif" font-size="15" lengthAdjust="spacing" textLength="81.25" x="713.5" y="168.6377">TestMapper</text><line style="stroke:#A80036;stroke-width:1.875;" x1="640" x2="828.75" y1="182.5" y2="182.5"/><text fill="#000000" font-family="sans-serif" font-size="13.75" lengthAdjust="spacing" textLength="176.25" x="646.25" y="201.7737">+toDTO(listTestsToDiagnose)</text><text fill="#000000" font-family="sans-serif" font-size="13.75" lengthAdjust="spacing" textLength="72.5" x="646.25" y="219.0686">+toDTO(obj)</text><!--MD5=[9fb704ffefcaf68bf1a361787afa998b]
class TestDTO--><rect codeLine="62" fill="#FEFECE" filter="url(#f11ya9zvxbe8co)" height="129.1797" id="TestDTO" style="stroke:#A80036;stroke-width:1.875;" width="166.25" x="1005" y="120.625"/><ellipse cx="1053" cy="140.625" fill="#ADD1B2" rx="13.75" ry="13.75" style="stroke:#A80036;stroke-width:1.25;"/><path d="M1055.5,136.25 Q1055.7539,135.625 1056.0469,135.3125 Q1056.3398,135 1056.6719,135 Q1057.2578,135 1057.6289,135.3516 Q1058,135.7031 1058,136.5234 L1058,138.4766 Q1058,139.2969 1057.6484,139.6484 Q1057.2969,140 1056.75,140 Q1056.2617,140 1055.9492,139.7852 Q1055.6367,139.5703 1055.5,139.0039 Q1055.4414,138.6133 1055.2266,138.3984 Q1054.8359,137.9883 1054.1328,137.7539 Q1053.4297,137.5 1052.7266,137.5 Q1051.8477,137.5 1051.1055,137.8516 Q1050.3828,138.2031 1049.8164,138.9844 Q1049.25,139.7656 1049.25,140.8398 L1049.25,141.9922 Q1049.25,143.2813 1050.3047,144.1406 Q1051.3594,145 1053.2344,145 Q1054.3477,145 1055.1289,144.7461 Q1055.5781,144.6094 1056.0859,144.1602 Q1056.418,143.9063 1056.5938,143.8281 Q1056.7695,143.75 1056.9844,143.75 Q1057.3945,143.75 1057.6875,144.082 Q1058,144.3945 1058,144.8438 Q1058,145.2734 1057.5703,145.7813 Q1056.9453,146.5234 1055.9492,146.9336 Q1054.6406,147.5 1053.0391,147.5 Q1051.1641,147.5 1049.6602,146.7578 Q1048.4492,146.1719 1047.5898,144.9023 Q1046.75,143.6328 1046.75,142.1289 L1046.75,140.7617 Q1046.75,139.1992 1047.4922,137.832 Q1048.2539,136.4648 1049.5625,135.7422 Q1050.8906,135 1052.375,135 Q1053.2734,135 1054.0547,135.3125 Q1054.8359,135.625 1055.5,136.25 Z " fill="#000000"/><text fill="#000000" font-family="sans-serif" font-size="15" lengthAdjust="spacing" textLength="61.25" x="1077" y="146.7627">TestDTO</text><line style="stroke:#A80036;stroke-width:1.875;" x1="1006.25" x2="1170" y1="160.625" y2="160.625"/><text fill="#000000" font-family="sans-serif" font-size="13.75" lengthAdjust="spacing" textLength="101.25" x="1012.5" y="179.8987">-String NHSCode</text><text fill="#000000" font-family="sans-serif" font-size="13.75" lengthAdjust="spacing" textLength="73.75" x="1012.5" y="197.1936">-String code</text><line style="stroke:#A80036;stroke-width:1.875;" x1="1006.25" x2="1170" y1="205.2148" y2="205.2148"/><text fill="#000000" font-family="sans-serif" font-size="13.75" lengthAdjust="spacing" textLength="151.25" x="1012.5" y="224.4885">+create(NHSCode, code)</text><text fill="#000000" font-family="sans-serif" font-size="13.75" lengthAdjust="spacing" textLength="67.5" x="1012.5" y="241.7834">+getCode()</text><!--MD5=[d7b8916e3117ca4a3ffdab4f31ea783a]
class WriteReportController--><rect codeLine="73" fill="#FEFECE" filter="url(#f11ya9zvxbe8co)" height="146.4746" id="WriteReportController" style="stroke:#A80036;stroke-width:1.875;" width="188.75" x="347.5" y="426.875"/><ellipse cx="366.25" cy="446.875" fill="#ADD1B2" rx="13.75" ry="13.75" style="stroke:#A80036;stroke-width:1.25;"/><path d="M368.75,442.5 Q369.0039,441.875 369.2969,441.5625 Q369.5898,441.25 369.9219,441.25 Q370.5078,441.25 370.8789,441.6016 Q371.25,441.9531 371.25,442.7734 L371.25,444.7266 Q371.25,445.5469 370.8984,445.8984 Q370.5469,446.25 370,446.25 Q369.5117,446.25 369.1992,446.0352 Q368.8867,445.8203 368.75,445.2539 Q368.6914,444.8633 368.4766,444.6484 Q368.0859,444.2383 367.3828,444.0039 Q366.6797,443.75 365.9766,443.75 Q365.0977,443.75 364.3555,444.1016 Q363.6328,444.4531 363.0664,445.2344 Q362.5,446.0156 362.5,447.0898 L362.5,448.2422 Q362.5,449.5313 363.5547,450.3906 Q364.6094,451.25 366.4844,451.25 Q367.5977,451.25 368.3789,450.9961 Q368.8281,450.8594 369.3359,450.4102 Q369.668,450.1563 369.8438,450.0781 Q370.0195,450 370.2344,450 Q370.6445,450 370.9375,450.332 Q371.25,450.6445 371.25,451.0938 Q371.25,451.5234 370.8203,452.0313 Q370.1953,452.7734 369.1992,453.1836 Q367.8906,453.75 366.2891,453.75 Q364.4141,453.75 362.9102,453.0078 Q361.6992,452.4219 360.8398,451.1523 Q360,449.8828 360,448.3789 L360,447.0117 Q360,445.4492 360.7422,444.082 Q361.5039,442.7148 362.8125,441.9922 Q364.1406,441.25 365.625,441.25 Q366.5234,441.25 367.3047,441.5625 Q368.0859,441.875 368.75,442.5 Z " fill="#000000"/><text fill="#000000" font-family="sans-serif" font-size="15" lengthAdjust="spacing" textLength="148.75" x="383.75" y="453.0127">WriteReportController</text><line style="stroke:#A80036;stroke-width:1.875;" x1="348.75" x2="535" y1="466.875" y2="466.875"/><text fill="#000000" font-family="sans-serif" font-size="13.75" lengthAdjust="spacing" textLength="120" x="355" y="486.1487">-Company company</text><text fill="#000000" font-family="sans-serif" font-size="13.75" lengthAdjust="spacing" textLength="85" x="355" y="503.4436">-Report report</text><line style="stroke:#A80036;stroke-width:1.875;" x1="348.75" x2="535" y1="511.4648" y2="511.4648"/><text fill="#000000" font-family="sans-serif" font-size="13.75" lengthAdjust="spacing" textLength="137.5" x="355" y="530.7385">+getTeststoDiagnose()</text><text fill="#000000" font-family="sans-serif" font-size="13.75" lengthAdjust="spacing" textLength="158.75" x="355" y="548.0334">+createReport(reportText)</text><text fill="#000000" font-family="sans-serif" font-size="13.75" lengthAdjust="spacing" textLength="133.75" x="355" y="565.3284">+addReport(testCode)</text><!--MD5=[71fba8c2abd557a2f7006580273aba3e]
class WriteReportUI--><rect codeLine="89" fill="#FEFECE" filter="url(#f11ya9zvxbe8co)" height="40" id="WriteReportUI" style="stroke:#A80036;stroke-width:1.875;" width="136.25" x="70" y="863.75"/><ellipse cx="88.75" cy="883.75" fill="#ADD1B2" rx="13.75" ry="13.75" style="stroke:#A80036;stroke-width:1.25;"/><path d="M91.25,879.375 Q91.5039,878.75 91.7969,878.4375 Q92.0898,878.125 92.4219,878.125 Q93.0078,878.125 93.3789,878.4766 Q93.75,878.8281 93.75,879.6484 L93.75,881.6016 Q93.75,882.4219 93.3984,882.7734 Q93.0469,883.125 92.5,883.125 Q92.0117,883.125 91.6992,882.9102 Q91.3867,882.6953 91.25,882.1289 Q91.1914,881.7383 90.9766,881.5234 Q90.5859,881.1133 89.8828,880.8789 Q89.1797,880.625 88.4766,880.625 Q87.5977,880.625 86.8555,880.9766 Q86.1328,881.3281 85.5664,882.1094 Q85,882.8906 85,883.9648 L85,885.1172 Q85,886.4063 86.0547,887.2656 Q87.1094,888.125 88.9844,888.125 Q90.0977,888.125 90.8789,887.8711 Q91.3281,887.7344 91.8359,887.2852 Q92.168,887.0313 92.3438,886.9531 Q92.5195,886.875 92.7344,886.875 Q93.1445,886.875 93.4375,887.207 Q93.75,887.5195 93.75,887.9688 Q93.75,888.3984 93.3203,888.9063 Q92.6953,889.6484 91.6992,890.0586 Q90.3906,890.625 88.7891,890.625 Q86.9141,890.625 85.4102,889.8828 Q84.1992,889.2969 83.3398,888.0273 Q82.5,886.7578 82.5,885.2539 L82.5,883.8867 Q82.5,882.3242 83.2422,880.957 Q84.0039,879.5898 85.3125,878.8672 Q86.6406,878.125 88.125,878.125 Q89.0234,878.125 89.8047,878.4375 Q90.5859,878.75 91.25,879.375 Z " fill="#000000"/><text fill="#000000" font-family="sans-serif" font-size="15" lengthAdjust="spacing" textLength="96.25" x="106.25" y="889.8877">WriteReportUI</text><!--MD5=[4ff913b72b026e4c95390310e4df5ddd]
link WriteReportUI to WriteReportController--><path codeLine="96" d="M155.15,863.6625 C196.1625,811.4125 307.8625,669.1125 378.775,578.7875 " fill="none" id="WriteReportUI-to-WriteReportController" style="stroke:#A80036;stroke-width:1.25;stroke-dasharray:7.0,7.0;"/><polygon fill="#A80036" points="382.9625,573.45,372.0915,579.2279,379.1106,578.3719,379.9666,585.391,382.9625,573.45" style="stroke:#A80036;stroke-width:1.25;"/><!--MD5=[b14f4b55bc9aa939c7cd06f1c0b56da5]
link WriteReportUI to TestDTO--><path codeLine="97" d="M206.425,883.4 C361.375,878.6625 745.4625,843.7375 935,620 C1004.7875,537.625 936.2125,481.6875 972.5,380 C988.15,336.1375 1013.8625,291.05 1036.95,255.2875 " fill="none" id="WriteReportUI-to-TestDTO" style="stroke:#A80036;stroke-width:1.25;stroke-dasharray:7.0,7.0;"/><polygon fill="#A80036" points="1040.625,249.625,1030.2928,256.3189,1037.2119,254.8608,1038.6701,261.7799,1040.625,249.625" style="stroke:#A80036;stroke-width:1.25;"/><!--MD5=[f27b4a25a5b059d18ef9f1b16d7419ab]
link WriteReportController to TestMapper--><path codeLine="98" d="M510.75,426.55 C565.875,366.6625 642.1125,283.8625 689.475,232.4125 " fill="none" id="WriteReportController-to-TestMapper" style="stroke:#A80036;stroke-width:1.25;stroke-dasharray:7.0,7.0;"/><polygon fill="#A80036" points="693.9625,227.5375,682.6602,232.4181,689.7255,232.1321,690.0115,239.1974,693.9625,227.5375" style="stroke:#A80036;stroke-width:1.25;"/><!--MD5=[a3405a5a29c0a1359ce5b85a18cd6043]
link WriteReportController to Company--><path codeLine="99" d="M536.475,500 C569.85,500 607.425,500 640.725,500 " fill="none" id="WriteReportController-to-Company" style="stroke:#A80036;stroke-width:1.25;stroke-dasharray:7.0,7.0;"/><polygon fill="#A80036" points="647.325,500,636.075,495,641.075,500,636.075,505,647.325,500" style="stroke:#A80036;stroke-width:1.25;"/><!--MD5=[aa4aa685cc8a1bee089823f9a2dac854]
link WriteReportController to TestStore--><path codeLine="100" d="M516.2125,573.3875 C537.625,591.2 562.15,608.425 587.5,620 C832.8375,731.975 1154.15,755.7125 1323.425,759.925 " fill="none" id="WriteReportController-to-TestStore" style="stroke:#A80036;stroke-width:1.25;stroke-dasharray:7.0,7.0;"/><polygon fill="#A80036" points="1329.875,760.075,1318.7572,754.7875,1323.6271,759.9143,1318.5002,764.7842,1329.875,760.075" style="stroke:#A80036;stroke-width:1.25;"/><!--MD5=[d2c887862af794255aa293b427ffc580]
link WriteReportController to TestDTO--><path codeLine="101" d="M447.45,426.8375 C457.0875,337.8125 488.075,190.925 587.5,122.5 C710.5875,37.7875 892.075,94.15 999.0125,140.9 " fill="none" id="WriteReportController-to-TestDTO" style="stroke:#A80036;stroke-width:1.25;stroke-dasharray:7.0,7.0;"/><polygon fill="#A80036" points="1005,143.55,996.7212,134.4383,999.2806,141.0299,992.689,143.5893,1005,143.55" style="stroke:#A80036;stroke-width:1.25;"/><!--MD5=[b0f4f6db8206580012ef9cd998ed01c5]
link TestStore to Test--><path codeLine="102" d="M1440.625,695.4 C1440.625,654.85 1440.625,602.8375 1440.625,562.6625 " fill="none" id="TestStore-to-Test" style="stroke:#A80036;stroke-width:1.25;"/><polygon fill="#A80036" points="1440.625,556.325,1435.625,567.575,1440.625,562.575,1445.625,567.575,1440.625,556.325" style="stroke:#A80036;stroke-width:1.25;"/><polygon fill="#000000" points="1398.125,619.9072,1394.4513,631.2136,1401.7987,631.2136,1398.125,619.9072" style="stroke:#000000;stroke-width:1.25;"/><text fill="#000000" font-family="sans-serif" font-size="16.25" lengthAdjust="spacing" textLength="48.75" x="1409.375" y="632.8064">adopts</text><text fill="#000000" font-family="sans-serif" font-size="16.25" lengthAdjust="spacing" textLength="8.75" x="1431.2871" y="682.2452">1</text><text fill="#000000" font-family="sans-serif" font-size="16.25" lengthAdjust="spacing" textLength="6.25" x="1433.9355" y="582.595">*</text><!--MD5=[670dbdf7395d3fcbb40104f0a070263e]
link Company to Report--><path codeLine="103" d="M821.55,500 C864.9875,500 918.45,500 965.9625,500 " fill="none" id="Company-to-Report" style="stroke:#A80036;stroke-width:1.25;"/><polygon fill="#A80036" points="972.325,500,961.075,495,966.075,500,961.075,505,972.325,500" style="stroke:#A80036;stroke-width:1.25;"/><polygon fill="#000000" points="882.5,488.9697,871.1936,485.2961,871.1936,492.6434,882.5,488.9697" style="stroke:#000000;stroke-width:1.25;"/><text fill="#000000" font-family="sans-serif" font-size="16.25" lengthAdjust="spacing" textLength="46.25" x="887.5" y="495.6189">knows</text><text fill="#000000" font-family="sans-serif" font-size="16.25" lengthAdjust="spacing" textLength="8.75" x="830.9911" y="517.9007">1</text><text fill="#000000" font-family="sans-serif" font-size="16.25" lengthAdjust="spacing" textLength="6.25" x="956.2265" y="517.7314">*</text><!--MD5=[63d25d625ab355317a074a623d33bba8]
link Report to Test--><path codeLine="104" d="M1203.975,500 C1261.2125,500 1328.2875,500 1376.15,500 " fill="none" id="Report-to-Test" style="stroke:#A80036;stroke-width:1.25;"/><polygon fill="#A80036" points="1382.4875,500,1371.2375,495,1376.2375,500,1371.2375,505,1382.4875,500" style="stroke:#A80036;stroke-width:1.25;"/><polygon fill="#000000" points="1253.75,488.9697,1242.4436,485.2961,1242.4436,492.6434,1253.75,488.9697" style="stroke:#000000;stroke-width:1.25;"/><text fill="#000000" font-family="sans-serif" font-size="16.25" lengthAdjust="spacing" textLength="30" x="1258.75" y="495.6189">is of</text><text fill="#000000" font-family="sans-serif" font-size="16.25" lengthAdjust="spacing" textLength="8.75" x="1213.9311" y="517.7314">1</text><text fill="#000000" font-family="sans-serif" font-size="16.25" lengthAdjust="spacing" textLength="8.75" x="1363.7746" y="518.5467">1</text><!--MD5=[8d9a2c3ea1bf73d8d45b939465e53fff]
link TestMapper to Test--><path codeLine="105" d="M810.5375,142.475 C907.55,93.575 1078.9625,28.6875 1203.75,100 C1331.275,172.8875 1396.65,344.725 1423.725,437.675 " fill="none" id="TestMapper-to-Test" style="stroke:#A80036;stroke-width:1.25;stroke-dasharray:7.0,7.0;"/><polygon fill="#A80036" points="1425.4625,443.6875,1427.146,431.4921,1423.729,437.6827,1417.5383,434.2657,1425.4625,443.6875" style="stroke:#A80036;stroke-width:1.25;"/><!--MD5=[f6fda4afaf882dd39139bcbf06c50c8c]
link TestMapper to TestDTO--><path codeLine="106" d="M830.2125,185 C882.4375,185 946.9,185 998.1625,185 " fill="none" id="TestMapper-to-TestDTO" style="stroke:#A80036;stroke-width:1.25;stroke-dasharray:7.0,7.0;"/><polygon fill="#A80036" points="1004.6625,185,993.4125,180,998.4125,185,993.4125,190,1004.6625,185" style="stroke:#A80036;stroke-width:1.25;"/><!--MD5=[270c5d72c5814efda54a4e3efecd028b]
@startuml
hide empty methods
hide empty attributes
left to right direction
skinparam classAttributeIconSize 0

package Core {

package Domain {

package Model {

class Company {
    -String designation
    -TestStore testStore
    +getTestStore()
    +createReport(reportText)
}

class Report {
    - int REPORTTEXT_MAX_LENGTH
    - String reportText
    - Report report
    + Report(reportText)
    + checkReportTextRules(reportText)
    + countWords(reportText)
    + equals(reportObject)
    + create(reportText)
}

class Test {
    -String NHSCode
    -String code
    +getCode()
}

}

package Stores {

class TestStore {
    -list<Test> testsReadyToDiagnose
    +getTestsReadyToDiagnose()
    +getTestByCode(code)
    +addReport(selectedTest)
}

}

}

package Mappers {

class TestMapper {
    +toDTO(listTestsToDiagnose)
    +toDTO(obj)
}

}

package DTO {

class TestDTO {
    -String NHSCode
    -String code
    +create(NHSCode, code)
    +getCode()
}

}

package Controllers {

class WriteReportController {
    -Company company
    -Report report
    +getTeststoDiagnose()
    +createReport(reportText)
    +addReport(testCode)
}

}

}

package UI {

package Console {

class WriteReportUI {
}

}

}

WriteReportUI ..> WriteReportController
WriteReportUI ..> TestDTO
WriteReportController ..> TestMapper
WriteReportController ..> Company
WriteReportController ..> TestStore
WriteReportController ..> TestDTO
TestStore "1" -> "*" Test : adopts >
Company "1" - -> "*" Report : knows >
Report "1" - -> "1" Test : is of >
TestMapper ..> Test
TestMapper ..> TestDTO

@enduml

PlantUML version 1.2021.5(Sun Apr 25 12:20:28 BST 2021)
(GPL source distribution)
Java Runtime: OpenJDK Runtime Environment
JVM: Dynamic Code Evolution 64-Bit Server VM
Default Encoding: Cp1252
Language: pt
Country: PT
--></g></svg>