<?xml version="1.0" encoding="UTF-8" standalone="no"?><svg xmlns="http://www.w3.org/2000/svg" xmlns:xlink="http://www.w3.org/1999/xlink" contentScriptType="application/ecmascript" contentStyleType="text/css" height="480px" preserveAspectRatio="none" style="width:1153px;height:480px;" version="1.1" viewBox="0 0 1153 480" width="1153.75px" zoomAndPan="magnify"><defs><filter height="300%" id="fz27a5ulo2dtz" width="300%" x="-1" y="-1"><feGaussianBlur result="blurOut" stdDeviation="2.5"/><feColorMatrix in="blurOut" result="blurOut2" type="matrix" values="0 0 0 0 0 0 0 0 0 0 0 0 0 0 0 0 0 0 .4 0"/><feOffset dx="5.0" dy="5.0" in="blurOut2" result="blurOut3"/><feBlend in="SourceGraphic" in2="blurOut3" mode="normal"/></filter></defs><g><!--MD5=[d8d925ad186e7c5129475d84e6fdc606]
class FinalResult--><rect codeLine="7" fill="#FEFECE" filter="url(#fz27a5ulo2dtz)" height="40" id="FinalResult" style="stroke:#A80036;stroke-width:1.875;" width="118.75" x="1001.875" y="51.25"/><ellipse cx="1020.625" cy="71.25" fill="#ADD1B2" rx="13.75" ry="13.75" style="stroke:#A80036;stroke-width:1.25;"/><path d="M1023.125,66.875 Q1023.3789,66.25 1023.6719,65.9375 Q1023.9648,65.625 1024.2969,65.625 Q1024.8828,65.625 1025.2539,65.9766 Q1025.625,66.3281 1025.625,67.1484 L1025.625,69.1016 Q1025.625,69.9219 1025.2734,70.2734 Q1024.9219,70.625 1024.375,70.625 Q1023.8867,70.625 1023.5742,70.4102 Q1023.2617,70.1953 1023.125,69.6289 Q1023.0664,69.2383 1022.8516,69.0234 Q1022.4609,68.6133 1021.7578,68.3789 Q1021.0547,68.125 1020.3516,68.125 Q1019.4727,68.125 1018.7305,68.4766 Q1018.0078,68.8281 1017.4414,69.6094 Q1016.875,70.3906 1016.875,71.4648 L1016.875,72.6172 Q1016.875,73.9063 1017.9297,74.7656 Q1018.9844,75.625 1020.8594,75.625 Q1021.9727,75.625 1022.7539,75.3711 Q1023.2031,75.2344 1023.7109,74.7852 Q1024.043,74.5313 1024.2188,74.4531 Q1024.3945,74.375 1024.6094,74.375 Q1025.0195,74.375 1025.3125,74.707 Q1025.625,75.0195 1025.625,75.4688 Q1025.625,75.8984 1025.1953,76.4063 Q1024.5703,77.1484 1023.5742,77.5586 Q1022.2656,78.125 1020.6641,78.125 Q1018.7891,78.125 1017.2852,77.3828 Q1016.0742,76.7969 1015.2148,75.5273 Q1014.375,74.2578 1014.375,72.7539 L1014.375,71.3867 Q1014.375,69.8242 1015.1172,68.457 Q1015.8789,67.0898 1017.1875,66.3672 Q1018.5156,65.625 1020,65.625 Q1020.8984,65.625 1021.6797,65.9375 Q1022.4609,66.25 1023.125,66.875 Z " fill="#000000"/><text fill="#000000" font-family="sans-serif" font-size="15" lengthAdjust="spacing" textLength="78.75" x="1038.125" y="77.3877">FinalResult</text><!--MD5=[10d06bcee75aaf74ab8f6040820ceef2]
class Diagnosis--><rect codeLine="11" fill="#FEFECE" filter="url(#fz27a5ulo2dtz)" height="40" id="Diagnosis" style="stroke:#A80036;stroke-width:1.875;" width="111.25" x="678.75" y="8.75"/><ellipse cx="697.5" cy="28.75" fill="#ADD1B2" rx="13.75" ry="13.75" style="stroke:#A80036;stroke-width:1.25;"/><path d="M700,24.375 Q700.2539,23.75 700.5469,23.4375 Q700.8398,23.125 701.1719,23.125 Q701.7578,23.125 702.1289,23.4766 Q702.5,23.8281 702.5,24.6484 L702.5,26.6016 Q702.5,27.4219 702.1484,27.7734 Q701.7969,28.125 701.25,28.125 Q700.7617,28.125 700.4492,27.9102 Q700.1367,27.6953 700,27.1289 Q699.9414,26.7383 699.7266,26.5234 Q699.3359,26.1133 698.6328,25.8789 Q697.9297,25.625 697.2266,25.625 Q696.3477,25.625 695.6055,25.9766 Q694.8828,26.3281 694.3164,27.1094 Q693.75,27.8906 693.75,28.9648 L693.75,30.1172 Q693.75,31.4063 694.8047,32.2656 Q695.8594,33.125 697.7344,33.125 Q698.8477,33.125 699.6289,32.8711 Q700.0781,32.7344 700.5859,32.2852 Q700.918,32.0313 701.0938,31.9531 Q701.2695,31.875 701.4844,31.875 Q701.8945,31.875 702.1875,32.207 Q702.5,32.5195 702.5,32.9688 Q702.5,33.3984 702.0703,33.9063 Q701.4453,34.6484 700.4492,35.0586 Q699.1406,35.625 697.5391,35.625 Q695.6641,35.625 694.1602,34.8828 Q692.9492,34.2969 692.0898,33.0273 Q691.25,31.7578 691.25,30.2539 L691.25,28.8867 Q691.25,27.3242 691.9922,25.957 Q692.7539,24.5898 694.0625,23.8672 Q695.3906,23.125 696.875,23.125 Q697.7734,23.125 698.5547,23.4375 Q699.3359,23.75 700,24.375 Z " fill="#000000"/><text fill="#000000" font-family="sans-serif" font-size="15" lengthAdjust="spacing" textLength="71.25" x="715" y="34.8877">Diagnosis</text><!--MD5=[b1f626e62ef7c02e0d9397301ead3d95]
class SpecialistDoctorReport--><rect codeLine="13" fill="#FEFECE" filter="url(#fz27a5ulo2dtz)" height="40" id="SpecialistDoctorReport" style="stroke:#A80036;stroke-width:1.875;" width="198.75" x="635" y="92.5"/><ellipse cx="653.75" cy="112.5" fill="#ADD1B2" rx="13.75" ry="13.75" style="stroke:#A80036;stroke-width:1.25;"/><path d="M656.25,108.125 Q656.5039,107.5 656.7969,107.1875 Q657.0898,106.875 657.4219,106.875 Q658.0078,106.875 658.3789,107.2266 Q658.75,107.5781 658.75,108.3984 L658.75,110.3516 Q658.75,111.1719 658.3984,111.5234 Q658.0469,111.875 657.5,111.875 Q657.0117,111.875 656.6992,111.6602 Q656.3867,111.4453 656.25,110.8789 Q656.1914,110.4883 655.9766,110.2734 Q655.5859,109.8633 654.8828,109.6289 Q654.1797,109.375 653.4766,109.375 Q652.5977,109.375 651.8555,109.7266 Q651.1328,110.0781 650.5664,110.8594 Q650,111.6406 650,112.7148 L650,113.8672 Q650,115.1563 651.0547,116.0156 Q652.1094,116.875 653.9844,116.875 Q655.0977,116.875 655.8789,116.6211 Q656.3281,116.4844 656.8359,116.0352 Q657.168,115.7813 657.3438,115.7031 Q657.5195,115.625 657.7344,115.625 Q658.1445,115.625 658.4375,115.957 Q658.75,116.2695 658.75,116.7188 Q658.75,117.1484 658.3203,117.6563 Q657.6953,118.3984 656.6992,118.8086 Q655.3906,119.375 653.7891,119.375 Q651.9141,119.375 650.4102,118.6328 Q649.1992,118.0469 648.3398,116.7773 Q647.5,115.5078 647.5,114.0039 L647.5,112.6367 Q647.5,111.0742 648.2422,109.707 Q649.0039,108.3398 650.3125,107.6172 Q651.6406,106.875 653.125,106.875 Q654.0234,106.875 654.8047,107.1875 Q655.5859,107.5 656.25,108.125 Z " fill="#000000"/><text fill="#000000" font-family="sans-serif" font-size="15" lengthAdjust="spacing" textLength="158.75" x="671.25" y="118.6377">SpecialistDoctorReport</text><!--MD5=[7d96fd15f3014691d2fcaf89c5791e2a]
class SpecialistDoctor--><rect codeLine="15" fill="#FEFECE" filter="url(#fz27a5ulo2dtz)" height="67.2949" id="SpecialistDoctor" style="stroke:#A80036;stroke-width:1.875;" width="152.5" x="327.5" y="28.75"/><ellipse cx="346.25" cy="48.75" fill="#ADD1B2" rx="13.75" ry="13.75" style="stroke:#A80036;stroke-width:1.25;"/><path d="M348.75,44.375 Q349.0039,43.75 349.2969,43.4375 Q349.5898,43.125 349.9219,43.125 Q350.5078,43.125 350.8789,43.4766 Q351.25,43.8281 351.25,44.6484 L351.25,46.6016 Q351.25,47.4219 350.8984,47.7734 Q350.5469,48.125 350,48.125 Q349.5117,48.125 349.1992,47.9102 Q348.8867,47.6953 348.75,47.1289 Q348.6914,46.7383 348.4766,46.5234 Q348.0859,46.1133 347.3828,45.8789 Q346.6797,45.625 345.9766,45.625 Q345.0977,45.625 344.3555,45.9766 Q343.6328,46.3281 343.0664,47.1094 Q342.5,47.8906 342.5,48.9648 L342.5,50.1172 Q342.5,51.4063 343.5547,52.2656 Q344.6094,53.125 346.4844,53.125 Q347.5977,53.125 348.3789,52.8711 Q348.8281,52.7344 349.3359,52.2852 Q349.668,52.0313 349.8438,51.9531 Q350.0195,51.875 350.2344,51.875 Q350.6445,51.875 350.9375,52.207 Q351.25,52.5195 351.25,52.9688 Q351.25,53.3984 350.8203,53.9063 Q350.1953,54.6484 349.1992,55.0586 Q347.8906,55.625 346.2891,55.625 Q344.4141,55.625 342.9102,54.8828 Q341.6992,54.2969 340.8398,53.0273 Q340,51.7578 340,50.2539 L340,48.8867 Q340,47.3242 340.7422,45.957 Q341.5039,44.5898 342.8125,43.8672 Q344.1406,43.125 345.625,43.125 Q346.5234,43.125 347.3047,43.4375 Q348.0859,43.75 348.75,44.375 Z " fill="#000000"/><text fill="#000000" font-family="sans-serif" font-size="15" lengthAdjust="spacing" textLength="112.5" x="363.75" y="54.8877">SpecialistDoctor</text><line style="stroke:#A80036;stroke-width:1.875;" x1="328.75" x2="478.75" y1="68.75" y2="68.75"/><text fill="#000000" font-family="sans-serif" font-size="13.75" lengthAdjust="spacing" textLength="122.5" x="335" y="88.0237">-doctorIndexNumber</text><!--MD5=[df38be88ccee13e832d6fafd6288a4ca]
class Test--><rect codeLine="19" fill="#FEFECE" filter="url(#fz27a5ulo2dtz)" height="101.8848" id="Test" style="stroke:#A80036;stroke-width:1.875;" width="80" x="8.75" y="140"/><ellipse cx="32" cy="160" fill="#ADD1B2" rx="13.75" ry="13.75" style="stroke:#A80036;stroke-width:1.25;"/><path d="M34.5,155.625 Q34.7539,155 35.0469,154.6875 Q35.3398,154.375 35.6719,154.375 Q36.2578,154.375 36.6289,154.7266 Q37,155.0781 37,155.8984 L37,157.8516 Q37,158.6719 36.6484,159.0234 Q36.2969,159.375 35.75,159.375 Q35.2617,159.375 34.9492,159.1602 Q34.6367,158.9453 34.5,158.3789 Q34.4414,157.9883 34.2266,157.7734 Q33.8359,157.3633 33.1328,157.1289 Q32.4297,156.875 31.7266,156.875 Q30.8477,156.875 30.1055,157.2266 Q29.3828,157.5781 28.8164,158.3594 Q28.25,159.1406 28.25,160.2148 L28.25,161.3672 Q28.25,162.6563 29.3047,163.5156 Q30.3594,164.375 32.2344,164.375 Q33.3477,164.375 34.1289,164.1211 Q34.5781,163.9844 35.0859,163.5352 Q35.418,163.2813 35.5938,163.2031 Q35.7695,163.125 35.9844,163.125 Q36.3945,163.125 36.6875,163.457 Q37,163.7695 37,164.2188 Q37,164.6484 36.5703,165.1563 Q35.9453,165.8984 34.9492,166.3086 Q33.6406,166.875 32.0391,166.875 Q30.1641,166.875 28.6602,166.1328 Q27.4492,165.5469 26.5898,164.2773 Q25.75,163.0078 25.75,161.5039 L25.75,160.1367 Q25.75,158.5742 26.4922,157.207 Q27.2539,155.8398 28.5625,155.1172 Q29.8906,154.375 31.375,154.375 Q32.2734,154.375 33.0547,154.6875 Q33.8359,155 34.5,155.625 Z " fill="#000000"/><text fill="#000000" font-family="sans-serif" font-size="15" lengthAdjust="spacing" textLength="30" x="50.5" y="166.1377">Test</text><line style="stroke:#A80036;stroke-width:1.875;" x1="10" x2="87.5" y1="180" y2="180"/><text fill="#000000" font-family="sans-serif" font-size="13.75" lengthAdjust="spacing" textLength="35" x="16.25" y="199.2737">-code</text><text fill="#000000" font-family="sans-serif" font-size="13.75" lengthAdjust="spacing" textLength="60" x="16.25" y="216.5686">-NhsCode</text><text fill="#000000" font-family="sans-serif" font-size="13.75" lengthAdjust="spacing" textLength="65" x="16.25" y="233.8635">-createdAt</text><!--MD5=[aeb3272166074d8737a70b61b1e71682]
class TestType--><rect codeLine="25" fill="#FEFECE" filter="url(#fz27a5ulo2dtz)" height="101.8848" id="TestType" style="stroke:#A80036;stroke-width:1.875;" width="120" x="343.75" y="140"/><ellipse cx="370.375" cy="160" fill="#ADD1B2" rx="13.75" ry="13.75" style="stroke:#A80036;stroke-width:1.25;"/><path d="M372.875,155.625 Q373.1289,155 373.4219,154.6875 Q373.7148,154.375 374.0469,154.375 Q374.6328,154.375 375.0039,154.7266 Q375.375,155.0781 375.375,155.8984 L375.375,157.8516 Q375.375,158.6719 375.0234,159.0234 Q374.6719,159.375 374.125,159.375 Q373.6367,159.375 373.3242,159.1602 Q373.0117,158.9453 372.875,158.3789 Q372.8164,157.9883 372.6016,157.7734 Q372.2109,157.3633 371.5078,157.1289 Q370.8047,156.875 370.1016,156.875 Q369.2227,156.875 368.4805,157.2266 Q367.7578,157.5781 367.1914,158.3594 Q366.625,159.1406 366.625,160.2148 L366.625,161.3672 Q366.625,162.6563 367.6797,163.5156 Q368.7344,164.375 370.6094,164.375 Q371.7227,164.375 372.5039,164.1211 Q372.9531,163.9844 373.4609,163.5352 Q373.793,163.2813 373.9688,163.2031 Q374.1445,163.125 374.3594,163.125 Q374.7695,163.125 375.0625,163.457 Q375.375,163.7695 375.375,164.2188 Q375.375,164.6484 374.9453,165.1563 Q374.3203,165.8984 373.3242,166.3086 Q372.0156,166.875 370.4141,166.875 Q368.5391,166.875 367.0352,166.1328 Q365.8242,165.5469 364.9648,164.2773 Q364.125,163.0078 364.125,161.5039 L364.125,160.1367 Q364.125,158.5742 364.8672,157.207 Q365.6289,155.8398 366.9375,155.1172 Q368.2656,154.375 369.75,154.375 Q370.6484,154.375 371.4297,154.6875 Q372.2109,155 372.875,155.625 Z " fill="#000000"/><text fill="#000000" font-family="sans-serif" font-size="15" lengthAdjust="spacing" textLength="62.5" x="389.625" y="166.1377">TestType</text><line style="stroke:#A80036;stroke-width:1.875;" x1="345" x2="462.5" y1="180" y2="180"/><text fill="#000000" font-family="sans-serif" font-size="13.75" lengthAdjust="spacing" textLength="35" x="351.25" y="199.2737">-code</text><text fill="#000000" font-family="sans-serif" font-size="13.75" lengthAdjust="spacing" textLength="71.25" x="351.25" y="216.5686">-description</text><text fill="#000000" font-family="sans-serif" font-size="13.75" lengthAdjust="spacing" textLength="105" x="351.25" y="233.8635">-collectingMethod</text><!--MD5=[0f07739f46effee96e095e9c408da841]
class TestParameter--><rect codeLine="31" fill="#FEFECE" filter="url(#fz27a5ulo2dtz)" height="40" id="TestParameter" style="stroke:#A80036;stroke-width:1.875;" width="142.5" x="332.5" y="286.25"/><ellipse cx="351.25" cy="306.25" fill="#ADD1B2" rx="13.75" ry="13.75" style="stroke:#A80036;stroke-width:1.25;"/><path d="M353.75,301.875 Q354.0039,301.25 354.2969,300.9375 Q354.5898,300.625 354.9219,300.625 Q355.5078,300.625 355.8789,300.9766 Q356.25,301.3281 356.25,302.1484 L356.25,304.1016 Q356.25,304.9219 355.8984,305.2734 Q355.5469,305.625 355,305.625 Q354.5117,305.625 354.1992,305.4102 Q353.8867,305.1953 353.75,304.6289 Q353.6914,304.2383 353.4766,304.0234 Q353.0859,303.6133 352.3828,303.3789 Q351.6797,303.125 350.9766,303.125 Q350.0977,303.125 349.3555,303.4766 Q348.6328,303.8281 348.0664,304.6094 Q347.5,305.3906 347.5,306.4648 L347.5,307.6172 Q347.5,308.9063 348.5547,309.7656 Q349.6094,310.625 351.4844,310.625 Q352.5977,310.625 353.3789,310.3711 Q353.8281,310.2344 354.3359,309.7852 Q354.668,309.5313 354.8438,309.4531 Q355.0195,309.375 355.2344,309.375 Q355.6445,309.375 355.9375,309.707 Q356.25,310.0195 356.25,310.4688 Q356.25,310.8984 355.8203,311.4063 Q355.1953,312.1484 354.1992,312.5586 Q352.8906,313.125 351.2891,313.125 Q349.4141,313.125 347.9102,312.3828 Q346.6992,311.7969 345.8398,310.5273 Q345,309.2578 345,307.7539 L345,306.3867 Q345,304.8242 345.7422,303.457 Q346.5039,302.0898 347.8125,301.3672 Q349.1406,300.625 350.625,300.625 Q351.5234,300.625 352.3047,300.9375 Q353.0859,301.25 353.75,301.875 Z " fill="#000000"/><text fill="#000000" font-family="sans-serif" font-size="15" lengthAdjust="spacing" textLength="102.5" x="368.75" y="312.3877">TestParameter</text><!--MD5=[1f6362a5c8f21d8d6a0fce68f3a92a4e]
class Parameter--><rect codeLine="33" fill="#FEFECE" filter="url(#fz27a5ulo2dtz)" height="101.8848" id="Parameter" style="stroke:#A80036;stroke-width:1.875;" width="112.5" x="678.125" y="215"/><ellipse cx="696.875" cy="235" fill="#ADD1B2" rx="13.75" ry="13.75" style="stroke:#A80036;stroke-width:1.25;"/><path d="M699.375,230.625 Q699.6289,230 699.9219,229.6875 Q700.2148,229.375 700.5469,229.375 Q701.1328,229.375 701.5039,229.7266 Q701.875,230.0781 701.875,230.8984 L701.875,232.8516 Q701.875,233.6719 701.5234,234.0234 Q701.1719,234.375 700.625,234.375 Q700.1367,234.375 699.8242,234.1602 Q699.5117,233.9453 699.375,233.3789 Q699.3164,232.9883 699.1016,232.7734 Q698.7109,232.3633 698.0078,232.1289 Q697.3047,231.875 696.6016,231.875 Q695.7227,231.875 694.9805,232.2266 Q694.2578,232.5781 693.6914,233.3594 Q693.125,234.1406 693.125,235.2148 L693.125,236.3672 Q693.125,237.6563 694.1797,238.5156 Q695.2344,239.375 697.1094,239.375 Q698.2227,239.375 699.0039,239.1211 Q699.4531,238.9844 699.9609,238.5352 Q700.293,238.2813 700.4688,238.2031 Q700.6445,238.125 700.8594,238.125 Q701.2695,238.125 701.5625,238.457 Q701.875,238.7695 701.875,239.2188 Q701.875,239.6484 701.4453,240.1563 Q700.8203,240.8984 699.8242,241.3086 Q698.5156,241.875 696.9141,241.875 Q695.0391,241.875 693.5352,241.1328 Q692.3242,240.5469 691.4648,239.2773 Q690.625,238.0078 690.625,236.5039 L690.625,235.1367 Q690.625,233.5742 691.3672,232.207 Q692.1289,230.8398 693.4375,230.1172 Q694.7656,229.375 696.25,229.375 Q697.1484,229.375 697.9297,229.6875 Q698.7109,230 699.375,230.625 Z " fill="#000000"/><text fill="#000000" font-family="sans-serif" font-size="15" lengthAdjust="spacing" textLength="72.5" x="714.375" y="241.1377">Parameter</text><line style="stroke:#A80036;stroke-width:1.875;" x1="679.375" x2="789.375" y1="255" y2="255"/><text fill="#000000" font-family="sans-serif" font-size="13.75" lengthAdjust="spacing" textLength="35" x="685.625" y="274.2737">-code</text><text fill="#000000" font-family="sans-serif" font-size="13.75" lengthAdjust="spacing" textLength="70" x="685.625" y="291.5686">-shortName</text><text fill="#000000" font-family="sans-serif" font-size="13.75" lengthAdjust="spacing" textLength="71.25" x="685.625" y="308.8635">-description</text><!--MD5=[4e608140b854dae633589343bce77383]
class TestParameterResult--><rect codeLine="39" fill="#FEFECE" filter="url(#fz27a5ulo2dtz)" height="101.8848" id="TestParameterResult" style="stroke:#A80036;stroke-width:1.875;" width="187.5" x="640.625" y="361.25"/><ellipse cx="659.375" cy="381.25" fill="#ADD1B2" rx="13.75" ry="13.75" style="stroke:#A80036;stroke-width:1.25;"/><path d="M661.875,376.875 Q662.1289,376.25 662.4219,375.9375 Q662.7148,375.625 663.0469,375.625 Q663.6328,375.625 664.0039,375.9766 Q664.375,376.3281 664.375,377.1484 L664.375,379.1016 Q664.375,379.9219 664.0234,380.2734 Q663.6719,380.625 663.125,380.625 Q662.6367,380.625 662.3242,380.4102 Q662.0117,380.1953 661.875,379.6289 Q661.8164,379.2383 661.6016,379.0234 Q661.2109,378.6133 660.5078,378.3789 Q659.8047,378.125 659.1016,378.125 Q658.2227,378.125 657.4805,378.4766 Q656.7578,378.8281 656.1914,379.6094 Q655.625,380.3906 655.625,381.4648 L655.625,382.6172 Q655.625,383.9063 656.6797,384.7656 Q657.7344,385.625 659.6094,385.625 Q660.7227,385.625 661.5039,385.3711 Q661.9531,385.2344 662.4609,384.7852 Q662.793,384.5313 662.9688,384.4531 Q663.1445,384.375 663.3594,384.375 Q663.7695,384.375 664.0625,384.707 Q664.375,385.0195 664.375,385.4688 Q664.375,385.8984 663.9453,386.4063 Q663.3203,387.1484 662.3242,387.5586 Q661.0156,388.125 659.4141,388.125 Q657.5391,388.125 656.0352,387.3828 Q654.8242,386.7969 653.9648,385.5273 Q653.125,384.2578 653.125,382.7539 L653.125,381.3867 Q653.125,379.8242 653.8672,378.457 Q654.6289,377.0898 655.9375,376.3672 Q657.2656,375.625 658.75,375.625 Q659.6484,375.625 660.4297,375.9375 Q661.2109,376.25 661.875,376.875 Z " fill="#000000"/><text fill="#000000" font-family="sans-serif" font-size="15" lengthAdjust="spacing" textLength="147.5" x="676.875" y="387.3877">TestParameterResult</text><line style="stroke:#A80036;stroke-width:1.875;" x1="641.875" x2="826.875" y1="401.25" y2="401.25"/><text fill="#000000" font-family="sans-serif" font-size="13.75" lengthAdjust="spacing" textLength="65" x="648.125" y="420.5237">-createdAt</text><text fill="#000000" font-family="sans-serif" font-size="13.75" lengthAdjust="spacing" textLength="37.5" x="648.125" y="437.8186">-value</text><text fill="#000000" font-family="sans-serif" font-size="13.75" lengthAdjust="spacing" textLength="41.25" x="648.125" y="455.1135">-metric</text><!--MD5=[1c357e7e7fdba398bcadd6e61afe49f5]
class ReferenceValue--><rect codeLine="45" fill="#FEFECE" filter="url(#fz27a5ulo2dtz)" height="40" id="ReferenceValue" style="stroke:#A80036;stroke-width:1.875;" width="150" x="986.25" y="392.5"/><ellipse cx="1005" cy="412.5" fill="#ADD1B2" rx="13.75" ry="13.75" style="stroke:#A80036;stroke-width:1.25;"/><path d="M1007.5,408.125 Q1007.7539,407.5 1008.0469,407.1875 Q1008.3398,406.875 1008.6719,406.875 Q1009.2578,406.875 1009.6289,407.2266 Q1010,407.5781 1010,408.3984 L1010,410.3516 Q1010,411.1719 1009.6484,411.5234 Q1009.2969,411.875 1008.75,411.875 Q1008.2617,411.875 1007.9492,411.6602 Q1007.6367,411.4453 1007.5,410.8789 Q1007.4414,410.4883 1007.2266,410.2734 Q1006.8359,409.8633 1006.1328,409.6289 Q1005.4297,409.375 1004.7266,409.375 Q1003.8477,409.375 1003.1055,409.7266 Q1002.3828,410.0781 1001.8164,410.8594 Q1001.25,411.6406 1001.25,412.7148 L1001.25,413.8672 Q1001.25,415.1563 1002.3047,416.0156 Q1003.3594,416.875 1005.2344,416.875 Q1006.3477,416.875 1007.1289,416.6211 Q1007.5781,416.4844 1008.0859,416.0352 Q1008.418,415.7813 1008.5938,415.7031 Q1008.7695,415.625 1008.9844,415.625 Q1009.3945,415.625 1009.6875,415.957 Q1010,416.2695 1010,416.7188 Q1010,417.1484 1009.5703,417.6563 Q1008.9453,418.3984 1007.9492,418.8086 Q1006.6406,419.375 1005.0391,419.375 Q1003.1641,419.375 1001.6602,418.6328 Q1000.4492,418.0469 999.5898,416.7773 Q998.75,415.5078 998.75,414.0039 L998.75,412.6367 Q998.75,411.0742 999.4922,409.707 Q1000.2539,408.3398 1001.5625,407.6172 Q1002.8906,406.875 1004.375,406.875 Q1005.2734,406.875 1006.0547,407.1875 Q1006.8359,407.5 1007.5,408.125 Z " fill="#000000"/><text fill="#000000" font-family="sans-serif" font-size="15" lengthAdjust="spacing" textLength="110" x="1022.5" y="418.6377">ReferenceValue</text><!--MD5=[8d0bccfbae9ec22455d5aa0bc41dfc57]
link Test to SpecialistDoctor--><path codeLine="48" d="M88.975,174.0375 C100.875,168.95 114.0375,163.475 126.25,158.75 C193.5125,132.7375 271.15,105.9625 326.9625,87.2875 " fill="none" id="Test-SpecialistDoctor" style="stroke:#A80036;stroke-width:1.25;"/><polygon fill="#000000" points="167.1221,86.8293,155.2413,87.2499,157.7575,94.1529,167.1221,86.8293" style="stroke:#000000;stroke-width:1.25;"/><text fill="#000000" font-family="sans-serif" font-size="16.25" lengthAdjust="spacing" textLength="87.5" x="172.5" y="95.6189">analysed by</text><text fill="#000000" font-family="sans-serif" font-size="16.25" lengthAdjust="spacing" textLength="6.25" x="98.9997" y="164.7355">*</text><text fill="#000000" font-family="sans-serif" font-size="16.25" lengthAdjust="spacing" textLength="8.75" x="308.8281" y="108.216">1</text><!--MD5=[ea4a37a070b547a484eb1acc58a2b0bb]
link SpecialistDoctor to Diagnosis--><path codeLine="49" d="M480.275,54.7625 C540.825,48.525 624.45,39.925 678.6625,34.35 " fill="none" id="SpecialistDoctor-Diagnosis" style="stroke:#A80036;stroke-width:1.25;"/><polygon fill="#000000" points="536.2172,32.08,524.5942,29.5829,525.3462,36.8916,536.2172,32.08" style="stroke:#000000;stroke-width:1.25;"/><text fill="#000000" font-family="sans-serif" font-size="16.25" lengthAdjust="spacing" textLength="48.75" x="541.25" y="39.3689">makes</text><text fill="#000000" font-family="sans-serif" font-size="16.25" lengthAdjust="spacing" textLength="8.75" x="490.1347" y="71.9464">1</text><text fill="#000000" font-family="sans-serif" font-size="16.25" lengthAdjust="spacing" textLength="6.25" x="662.6675" y="53.839">*</text><!--MD5=[b417c27d93000ee9d5c7d7cc5dfbe89a]
link SpecialistDoctor to SpecialistDoctorReport--><path codeLine="50" d="M480.55,77.35 C492.875,79.6125 505.525,81.825 517.5,83.75 C555.7125,89.9 597.9,95.7375 634.7375,100.525 " fill="none" id="SpecialistDoctor-SpecialistDoctorReport" style="stroke:#A80036;stroke-width:1.25;"/><polygon fill="#000000" points="539.3056,73.6487,528.6708,68.3353,527.5788,75.601,539.3056,73.6487" style="stroke:#000000;stroke-width:1.25;"/><text fill="#000000" font-family="sans-serif" font-size="16.25" lengthAdjust="spacing" textLength="42.5" x="544.375" y="79.3689">writes</text><text fill="#000000" font-family="sans-serif" font-size="16.25" lengthAdjust="spacing" textLength="8.75" x="489.9359" y="97.1294">1</text><text fill="#000000" font-family="sans-serif" font-size="16.25" lengthAdjust="spacing" textLength="6.25" x="618.6929" y="117.2266">*</text><!--MD5=[6ce3eb4ef4ccbd75390f7d8c7afb209f]
link Diagnosis to FinalResult--><path codeLine="51" d="M790.2875,35.9125 C848.9625,43.6 941.825,55.7625 1001.825,63.625 " fill="none" id="Diagnosis-FinalResult" style="stroke:#A80036;stroke-width:1.25;"/><polygon fill="#000000" points="871.303,35.6579,882.0363,40.7691,882.9907,33.484,871.303,35.6579" style="stroke:#000000;stroke-width:1.25;"/><text fill="#000000" font-family="sans-serif" font-size="16.25" lengthAdjust="spacing" textLength="58.75" x="888.75" y="43.1189">receives</text><text fill="#000000" font-family="sans-serif" font-size="16.25" lengthAdjust="spacing" textLength="8.75" x="799.8958" y="55.5517">1</text><text fill="#000000" font-family="sans-serif" font-size="16.25" lengthAdjust="spacing" textLength="8.75" x="983.3056" y="80.8912">1</text><!--MD5=[84414906ba3427346febc54a4b597d88]
link SpecialistDoctorReport to FinalResult--><path codeLine="52" d="M833.825,117.05 C870.1625,117.0875 911.55,115.1875 948.75,108.75 C969.6375,105.1375 991.9125,98.275 1011,91.3875 " fill="none" id="SpecialistDoctorReport-FinalResult" style="stroke:#A80036;stroke-width:1.25;"/><polygon fill="#000000" points="871.3145,98.6156,883.0307,100.6306,881.9775,93.3592,871.3145,98.6156" style="stroke:#000000;stroke-width:1.25;"/><text fill="#000000" font-family="sans-serif" font-size="16.25" lengthAdjust="spacing" textLength="58.75" x="888.75" y="104.3689">receives</text><text fill="#000000" font-family="sans-serif" font-size="16.25" lengthAdjust="spacing" textLength="8.75" x="843.7208" y="135.3266">1</text><text fill="#000000" font-family="sans-serif" font-size="16.25" lengthAdjust="spacing" textLength="8.75" x="984.8383" y="117.9328">1</text><!--MD5=[e981d4f96c4342412d1e68160b30cf70]
link Test to TestType--><path codeLine="53" d="M89.075,191.25 C150.825,191.25 271.375,191.25 343.6375,191.25 " fill="none" id="Test-TestType" style="stroke:#A80036;stroke-width:1.25;"/><polygon fill="#000000" points="196.25,180.2197,184.9436,176.5461,184.9436,183.8934,196.25,180.2197" style="stroke:#000000;stroke-width:1.25;"/><text fill="#000000" font-family="sans-serif" font-size="16.25" lengthAdjust="spacing" textLength="30" x="201.25" y="186.8689">is of</text><text fill="#000000" font-family="sans-serif" font-size="16.25" lengthAdjust="spacing" textLength="6.25" x="98.5797" y="210.4218">*</text><text fill="#000000" font-family="sans-serif" font-size="16.25" lengthAdjust="spacing" textLength="8.75" x="325.0129" y="209.7309">1</text><!--MD5=[f24c888dadeb846430474fe80a58922b]
link Test to TestParameter--><path codeLine="54" d="M88.85,208.8125 C100.7375,213.9125 113.9375,219.3 126.25,223.75 C195.2125,248.6625 275.7125,272.075 331.9625,287.55 " fill="none" id="Test-TestParameter" style="stroke:#A80036;stroke-width:1.25;"/><polygon fill="#000000" points="138.4459,214.6455,128.8216,207.6669,126.5577,214.6567,138.4459,214.6455" style="stroke:#000000;stroke-width:1.25;"/><text fill="#000000" font-family="sans-serif" font-size="16.25" lengthAdjust="spacing" textLength="145" x="143.75" y="219.3689">requests analysis of</text><text fill="#000000" font-family="sans-serif" font-size="16.25" lengthAdjust="spacing" textLength="8.75" x="98.5789" y="231.826">1</text><text fill="#000000" font-family="sans-serif" font-size="16.25" lengthAdjust="spacing" textLength="25" x="297.7436" y="303.4914">1..*</text><!--MD5=[92e8e476cc9e9004a7125f53a120ec97]
link TestParameter to Parameter--><path codeLine="55" d="M475.3875,297.675 C536.025,290.275 622.3375,279.75 678.0375,272.9625 " fill="none" id="TestParameter-Parameter" style="stroke:#A80036;stroke-width:1.25;"/><polygon fill="#000000" points="531.204,273.2132,519.5361,270.9352,520.4255,278.2284,531.204,273.2132" style="stroke:#000000;stroke-width:1.25;"/><text fill="#000000" font-family="sans-serif" font-size="16.25" lengthAdjust="spacing" textLength="58.75" x="536.25" y="280.6189">refers to</text><text fill="#000000" font-family="sans-serif" font-size="16.25" lengthAdjust="spacing" textLength="6.25" x="484.9664" y="314.7546">*</text><text fill="#000000" font-family="sans-serif" font-size="16.25" lengthAdjust="spacing" textLength="8.75" x="659.232" y="292.6867">1</text><!--MD5=[0e00e25ac6b8c14659aaff2cf7e5df08]
link TestParameter to TestParameterResult--><path codeLine="56" d="M467.1,326.3625 C516.0625,342.2125 585.0875,364.5625 640.55,382.525 " fill="none" id="TestParameter-TestParameterResult" style="stroke:#A80036;stroke-width:1.25;"/><polygon fill="#000000" points="529.6961,334.645,520.0712,327.6671,517.8079,334.6571,529.6961,334.645" style="stroke:#000000;stroke-width:1.25;"/><text fill="#000000" font-family="sans-serif" font-size="16.25" lengthAdjust="spacing" textLength="61.25" x="535" y="339.3689">contains</text><text fill="#000000" font-family="sans-serif" font-size="16.25" lengthAdjust="spacing" textLength="8.75" x="477.8855" y="353.2789">1</text><text fill="#000000" font-family="sans-serif" font-size="16.25" lengthAdjust="spacing" textLength="27.5" x="603.1329" y="397.6011">0..1</text><!--MD5=[52200cc2361fa0ac0481dd6ffcdb824b]
link TestParameterResult to ReferenceValue--><path codeLine="57" d="M828.15,412.5 C878.1375,412.5 939.05,412.5 985.8875,412.5 " fill="none" id="TestParameterResult-ReferenceValue" style="stroke:#A80036;stroke-width:1.25;"/><polygon fill="#000000" points="886.25,401.4697,874.9436,397.7961,874.9436,405.1434,886.25,401.4697" style="stroke:#000000;stroke-width:1.25;"/><text fill="#000000" font-family="sans-serif" font-size="16.25" lengthAdjust="spacing" textLength="53.75" x="891.25" y="408.1189">records</text><text fill="#000000" font-family="sans-serif" font-size="16.25" lengthAdjust="spacing" textLength="8.75" x="838.2717" y="430.4545">1</text><text fill="#000000" font-family="sans-serif" font-size="16.25" lengthAdjust="spacing" textLength="8.75" x="967.4195" y="430.6144">1</text><!--MD5=[655929a3cca987f2205c12a4704603d1]
@startuml

skinparam classAttributeIconSize 0
hide empty methods
hide empty attributes
left to right direction

class FinalResult{}

'class ChemicalResult{}

class Diagnosis{}

class SpecialistDoctorReport{}

class SpecialistDoctor{
- doctorIndexNumber
}

class Test{
- code
- NhsCode
- createdAt
}

class TestType{
- code
- description
- collectingMethod
}

class TestParameter{}

class Parameter{
- code
- shortName
- description
}

class TestParameterResult{
- createdAt
- value
- metric
}

class ReferenceValue{}

'ChemicalResult "1" - - "1" Test : presented under >
Test "*" - - "1" SpecialistDoctor : analysed by >
SpecialistDoctor "1" - - "*" Diagnosis : makes >
SpecialistDoctor "1" - - "*" SpecialistDoctorReport : writes >
Diagnosis "1" - - "1" FinalResult : receives <
SpecialistDoctorReport "1" - - "1" FinalResult : receives <
Test "*" - - "1" TestType : is of >
Test "1" - - "1..*" TestParameter : requests analysis of >
TestParameter "*" - - "1" Parameter : refers to >
TestParameter "1" - - "0..1" TestParameterResult : contains >
TestParameterResult "1" - - "1" ReferenceValue : records >


@enduml

@startuml

skinparam classAttributeIconSize 0
hide empty methods
hide empty attributes
left to right direction

class FinalResult{}


class Diagnosis{}

class SpecialistDoctorReport{}

class SpecialistDoctor{
- doctorIndexNumber
}

class Test{
- code
- NhsCode
- createdAt
}

class TestType{
- code
- description
- collectingMethod
}

class TestParameter{}

class Parameter{
- code
- shortName
- description
}

class TestParameterResult{
- createdAt
- value
- metric
}

class ReferenceValue{}

Test "*" - - "1" SpecialistDoctor : analysed by >
SpecialistDoctor "1" - - "*" Diagnosis : makes >
SpecialistDoctor "1" - - "*" SpecialistDoctorReport : writes >
Diagnosis "1" - - "1" FinalResult : receives <
SpecialistDoctorReport "1" - - "1" FinalResult : receives <
Test "*" - - "1" TestType : is of >
Test "1" - - "1..*" TestParameter : requests analysis of >
TestParameter "*" - - "1" Parameter : refers to >
TestParameter "1" - - "0..1" TestParameterResult : contains >
TestParameterResult "1" - - "1" ReferenceValue : records >


@enduml

PlantUML version 1.2021.5(Sun Apr 25 12:20:28 BST 2021)
(GPL source distribution)
Java Runtime: OpenJDK Runtime Environment
JVM: Dynamic Code Evolution 64-Bit Server VM
Default Encoding: Cp1252
Language: pt
Country: PT
--></g></svg>