<?xml version="1.0" encoding="UTF-8" standalone="no"?><svg xmlns="http://www.w3.org/2000/svg" xmlns:xlink="http://www.w3.org/1999/xlink" contentScriptType="application/ecmascript" contentStyleType="text/css" height="610px" preserveAspectRatio="none" style="width:1462px;height:610px;" version="1.1" viewBox="0 0 1462 610" width="1462.5px" zoomAndPan="magnify"><defs><filter height="300%" id="f4xyozb0rmpce" width="300%" x="-1" y="-1"><feGaussianBlur result="blurOut" stdDeviation="2.5"/><feColorMatrix in="blurOut" result="blurOut2" type="matrix" values="0 0 0 0 0 0 0 0 0 0 0 0 0 0 0 0 0 0 .4 0"/><feOffset dx="5.0" dy="5.0" in="blurOut2" result="blurOut3"/><feBlend in="SourceGraphic" in2="blurOut3" mode="normal"/></filter></defs><g><!--MD5=[f00dbe8c0302c6aec2cb26b3c659c8fc]
class Report--><rect codeLine="6" fill="#FEFECE" filter="url(#f4xyozb0rmpce)" height="181.0645" id="Report" style="stroke:#A80036;stroke-width:1.875;" width="231.25" x="973.75" y="148.75"/><ellipse cx="1060.9375" cy="168.75" fill="#ADD1B2" rx="13.75" ry="13.75" style="stroke:#A80036;stroke-width:1.25;"/><path d="M1063.4375,164.375 Q1063.6914,163.75 1063.9844,163.4375 Q1064.2773,163.125 1064.6094,163.125 Q1065.1953,163.125 1065.5664,163.4766 Q1065.9375,163.8281 1065.9375,164.6484 L1065.9375,166.6016 Q1065.9375,167.4219 1065.5859,167.7734 Q1065.2344,168.125 1064.6875,168.125 Q1064.1992,168.125 1063.8867,167.9102 Q1063.5742,167.6953 1063.4375,167.1289 Q1063.3789,166.7383 1063.1641,166.5234 Q1062.7734,166.1133 1062.0703,165.8789 Q1061.3672,165.625 1060.6641,165.625 Q1059.7852,165.625 1059.043,165.9766 Q1058.3203,166.3281 1057.7539,167.1094 Q1057.1875,167.8906 1057.1875,168.9648 L1057.1875,170.1172 Q1057.1875,171.4063 1058.2422,172.2656 Q1059.2969,173.125 1061.1719,173.125 Q1062.2852,173.125 1063.0664,172.8711 Q1063.5156,172.7344 1064.0234,172.2852 Q1064.3555,172.0313 1064.5313,171.9531 Q1064.707,171.875 1064.9219,171.875 Q1065.332,171.875 1065.625,172.207 Q1065.9375,172.5195 1065.9375,172.9688 Q1065.9375,173.3984 1065.5078,173.9063 Q1064.8828,174.6484 1063.8867,175.0586 Q1062.5781,175.625 1060.9766,175.625 Q1059.1016,175.625 1057.5977,174.8828 Q1056.3867,174.2969 1055.5273,173.0273 Q1054.6875,171.7578 1054.6875,170.2539 L1054.6875,168.8867 Q1054.6875,167.3242 1055.4297,165.957 Q1056.1914,164.5898 1057.5,163.8672 Q1058.8281,163.125 1060.3125,163.125 Q1061.2109,163.125 1061.9922,163.4375 Q1062.7734,163.75 1063.4375,164.375 Z " fill="#000000"/><text fill="#000000" font-family="sans-serif" font-size="15" lengthAdjust="spacing" textLength="46.25" x="1086.5625" y="174.8877">Report</text><line style="stroke:#A80036;stroke-width:1.875;" x1="975" x2="1203.75" y1="188.75" y2="188.75"/><text fill="#000000" font-family="sans-serif" font-size="13.75" lengthAdjust="spacing" textLength="197.5" x="981.25" y="208.0237">-int REPORTTEXT_MAX_LENGTH</text><text fill="#000000" font-family="sans-serif" font-size="13.75" lengthAdjust="spacing" textLength="106.25" x="981.25" y="225.3186">-String reportText</text><text fill="#000000" font-family="sans-serif" font-size="13.75" lengthAdjust="spacing" textLength="85" x="981.25" y="242.6135">-Report report</text><line style="stroke:#A80036;stroke-width:1.875;" x1="975" x2="1203.75" y1="250.6348" y2="250.6348"/><text fill="#000000" font-family="sans-serif" font-size="13.75" lengthAdjust="spacing" textLength="120" x="981.25" y="269.9084">+Report(reportText)</text><text fill="#000000" font-family="sans-serif" font-size="13.75" lengthAdjust="spacing" textLength="216.25" x="981.25" y="287.2034">+checkReportTextRules(reportText)</text><text fill="#000000" font-family="sans-serif" font-size="13.75" lengthAdjust="spacing" textLength="132.5" x="981.25" y="304.4983">+equals(reportObject)</text><text fill="#000000" font-family="sans-serif" font-size="13.75" lengthAdjust="spacing" textLength="56.25" x="981.25" y="321.7932">+create()</text><!--MD5=[0f6f7964b844a64b0496af0dda7914bd]
class TestStore--><rect codeLine="16" fill="#FEFECE" filter="url(#f4xyozb0rmpce)" height="129.1797" id="TestStore" style="stroke:#A80036;stroke-width:1.875;" width="221.25" x="715" y="8.75"/><ellipse cx="787.1875" cy="28.75" fill="#ADD1B2" rx="13.75" ry="13.75" style="stroke:#A80036;stroke-width:1.25;"/><path d="M789.6875,24.375 Q789.9414,23.75 790.2344,23.4375 Q790.5273,23.125 790.8594,23.125 Q791.4453,23.125 791.8164,23.4766 Q792.1875,23.8281 792.1875,24.6484 L792.1875,26.6016 Q792.1875,27.4219 791.8359,27.7734 Q791.4844,28.125 790.9375,28.125 Q790.4492,28.125 790.1367,27.9102 Q789.8242,27.6953 789.6875,27.1289 Q789.6289,26.7383 789.4141,26.5234 Q789.0234,26.1133 788.3203,25.8789 Q787.6172,25.625 786.9141,25.625 Q786.0352,25.625 785.293,25.9766 Q784.5703,26.3281 784.0039,27.1094 Q783.4375,27.8906 783.4375,28.9648 L783.4375,30.1172 Q783.4375,31.4063 784.4922,32.2656 Q785.5469,33.125 787.4219,33.125 Q788.5352,33.125 789.3164,32.8711 Q789.7656,32.7344 790.2734,32.2852 Q790.6055,32.0313 790.7813,31.9531 Q790.957,31.875 791.1719,31.875 Q791.582,31.875 791.875,32.207 Q792.1875,32.5195 792.1875,32.9688 Q792.1875,33.3984 791.7578,33.9063 Q791.1328,34.6484 790.1367,35.0586 Q788.8281,35.625 787.2266,35.625 Q785.3516,35.625 783.8477,34.8828 Q782.6367,34.2969 781.7773,33.0273 Q780.9375,31.7578 780.9375,30.2539 L780.9375,28.8867 Q780.9375,27.3242 781.6797,25.957 Q782.4414,24.5898 783.75,23.8672 Q785.0781,23.125 786.5625,23.125 Q787.4609,23.125 788.2422,23.4375 Q789.0234,23.75 789.6875,24.375 Z " fill="#000000"/><text fill="#000000" font-family="sans-serif" font-size="15" lengthAdjust="spacing" textLength="66.25" x="812.8125" y="34.8877">TestStore</text><line style="stroke:#A80036;stroke-width:1.875;" x1="716.25" x2="935" y1="48.75" y2="48.75"/><text fill="#000000" font-family="sans-serif" font-size="13.75" lengthAdjust="spacing" textLength="206.25" x="722.5" y="68.0237">-list&lt;Test&gt; testsReadyToDiagnose</text><line style="stroke:#A80036;stroke-width:1.875;" x1="716.25" x2="935" y1="76.0449" y2="76.0449"/><text fill="#000000" font-family="sans-serif" font-size="13.75" lengthAdjust="spacing" textLength="180" x="722.5" y="95.3186">+getTestsReadyToDiagnose()</text><text fill="#000000" font-family="sans-serif" font-size="13.75" lengthAdjust="spacing" textLength="140" x="722.5" y="112.6135">+getTestByCode(code)</text><text fill="#000000" font-family="sans-serif" font-size="13.75" lengthAdjust="spacing" textLength="157.5" x="722.5" y="129.9084">+addReport(selectedTest)</text><!--MD5=[df38be88ccee13e832d6fafd6288a4ca]
class Test--><rect codeLine="23" fill="#FEFECE" filter="url(#f4xyozb0rmpce)" height="111.8848" id="Test" style="stroke:#A80036;stroke-width:1.875;" width="116.25" x="1328.75" y="183.125"/><ellipse cx="1368.3125" cy="203.125" fill="#ADD1B2" rx="13.75" ry="13.75" style="stroke:#A80036;stroke-width:1.25;"/><path d="M1370.8125,198.75 Q1371.0664,198.125 1371.3594,197.8125 Q1371.6523,197.5 1371.9844,197.5 Q1372.5703,197.5 1372.9414,197.8516 Q1373.3125,198.2031 1373.3125,199.0234 L1373.3125,200.9766 Q1373.3125,201.7969 1372.9609,202.1484 Q1372.6094,202.5 1372.0625,202.5 Q1371.5742,202.5 1371.2617,202.2852 Q1370.9492,202.0703 1370.8125,201.5039 Q1370.7539,201.1133 1370.5391,200.8984 Q1370.1484,200.4883 1369.4453,200.2539 Q1368.7422,200 1368.0391,200 Q1367.1602,200 1366.418,200.3516 Q1365.6953,200.7031 1365.1289,201.4844 Q1364.5625,202.2656 1364.5625,203.3398 L1364.5625,204.4922 Q1364.5625,205.7813 1365.6172,206.6406 Q1366.6719,207.5 1368.5469,207.5 Q1369.6602,207.5 1370.4414,207.2461 Q1370.8906,207.1094 1371.3984,206.6602 Q1371.7305,206.4063 1371.9063,206.3281 Q1372.082,206.25 1372.2969,206.25 Q1372.707,206.25 1373,206.582 Q1373.3125,206.8945 1373.3125,207.3438 Q1373.3125,207.7734 1372.8828,208.2813 Q1372.2578,209.0234 1371.2617,209.4336 Q1369.9531,210 1368.3516,210 Q1366.4766,210 1364.9727,209.2578 Q1363.7617,208.6719 1362.9023,207.4023 Q1362.0625,206.1328 1362.0625,204.6289 L1362.0625,203.2617 Q1362.0625,201.6992 1362.8047,200.332 Q1363.5664,198.9648 1364.875,198.2422 Q1366.2031,197.5 1367.6875,197.5 Q1368.5859,197.5 1369.3672,197.8125 Q1370.1484,198.125 1370.8125,198.75 Z " fill="#000000"/><text fill="#000000" font-family="sans-serif" font-size="15" lengthAdjust="spacing" textLength="30" x="1390.4375" y="209.2627">Test</text><line style="stroke:#A80036;stroke-width:1.875;" x1="1330" x2="1443.75" y1="223.125" y2="223.125"/><text fill="#000000" font-family="sans-serif" font-size="13.75" lengthAdjust="spacing" textLength="101.25" x="1336.25" y="242.3987">-String NHSCode</text><text fill="#000000" font-family="sans-serif" font-size="13.75" lengthAdjust="spacing" textLength="73.75" x="1336.25" y="259.6936">-String code</text><line style="stroke:#A80036;stroke-width:1.875;" x1="1330" x2="1443.75" y1="267.7148" y2="267.7148"/><text fill="#000000" font-family="sans-serif" font-size="13.75" lengthAdjust="spacing" textLength="67.5" x="1336.25" y="286.9885">+getCode()</text><!--MD5=[144698ec4d0188f6929a3b58a3eeb1f6]
class TestMapper--><rect codeLine="29" fill="#FEFECE" filter="url(#f4xyozb0rmpce)" height="84.5898" id="TestMapper" style="stroke:#A80036;stroke-width:1.875;" width="191.25" x="486.25" y="351.875"/><ellipse cx="536.5" cy="371.875" fill="#ADD1B2" rx="13.75" ry="13.75" style="stroke:#A80036;stroke-width:1.25;"/><path d="M539,367.5 Q539.2539,366.875 539.5469,366.5625 Q539.8398,366.25 540.1719,366.25 Q540.7578,366.25 541.1289,366.6016 Q541.5,366.9531 541.5,367.7734 L541.5,369.7266 Q541.5,370.5469 541.1484,370.8984 Q540.7969,371.25 540.25,371.25 Q539.7617,371.25 539.4492,371.0352 Q539.1367,370.8203 539,370.2539 Q538.9414,369.8633 538.7266,369.6484 Q538.3359,369.2383 537.6328,369.0039 Q536.9297,368.75 536.2266,368.75 Q535.3477,368.75 534.6055,369.1016 Q533.8828,369.4531 533.3164,370.2344 Q532.75,371.0156 532.75,372.0898 L532.75,373.2422 Q532.75,374.5313 533.8047,375.3906 Q534.8594,376.25 536.7344,376.25 Q537.8477,376.25 538.6289,375.9961 Q539.0781,375.8594 539.5859,375.4102 Q539.918,375.1563 540.0938,375.0781 Q540.2695,375 540.4844,375 Q540.8945,375 541.1875,375.332 Q541.5,375.6445 541.5,376.0938 Q541.5,376.5234 541.0703,377.0313 Q540.4453,377.7734 539.4492,378.1836 Q538.1406,378.75 536.5391,378.75 Q534.6641,378.75 533.1602,378.0078 Q531.9492,377.4219 531.0898,376.1523 Q530.25,374.8828 530.25,373.3789 L530.25,372.0117 Q530.25,370.4492 530.9922,369.082 Q531.7539,367.7148 533.0625,366.9922 Q534.3906,366.25 535.875,366.25 Q536.7734,366.25 537.5547,366.5625 Q538.3359,366.875 539,367.5 Z " fill="#000000"/><text fill="#000000" font-family="sans-serif" font-size="15" lengthAdjust="spacing" textLength="81.25" x="561" y="378.0127">TestMapper</text><line style="stroke:#A80036;stroke-width:1.875;" x1="487.5" x2="676.25" y1="391.875" y2="391.875"/><text fill="#000000" font-family="sans-serif" font-size="13.75" lengthAdjust="spacing" textLength="176.25" x="493.75" y="411.1487">+toDTO(listTestsToDiagnose)</text><text fill="#000000" font-family="sans-serif" font-size="13.75" lengthAdjust="spacing" textLength="72.5" x="493.75" y="428.4436">+toDTO(obj)</text><!--MD5=[9fb704ffefcaf68bf1a361787afa998b]
class TestDTO--><rect codeLine="34" fill="#FEFECE" filter="url(#f4xyozb0rmpce)" height="129.1797" id="TestDTO" style="stroke:#A80036;stroke-width:1.875;" width="166.25" x="1006.25" y="463.75"/><ellipse cx="1054.25" cy="483.75" fill="#ADD1B2" rx="13.75" ry="13.75" style="stroke:#A80036;stroke-width:1.25;"/><path d="M1056.75,479.375 Q1057.0039,478.75 1057.2969,478.4375 Q1057.5898,478.125 1057.9219,478.125 Q1058.5078,478.125 1058.8789,478.4766 Q1059.25,478.8281 1059.25,479.6484 L1059.25,481.6016 Q1059.25,482.4219 1058.8984,482.7734 Q1058.5469,483.125 1058,483.125 Q1057.5117,483.125 1057.1992,482.9102 Q1056.8867,482.6953 1056.75,482.1289 Q1056.6914,481.7383 1056.4766,481.5234 Q1056.0859,481.1133 1055.3828,480.8789 Q1054.6797,480.625 1053.9766,480.625 Q1053.0977,480.625 1052.3555,480.9766 Q1051.6328,481.3281 1051.0664,482.1094 Q1050.5,482.8906 1050.5,483.9648 L1050.5,485.1172 Q1050.5,486.4063 1051.5547,487.2656 Q1052.6094,488.125 1054.4844,488.125 Q1055.5977,488.125 1056.3789,487.8711 Q1056.8281,487.7344 1057.3359,487.2852 Q1057.668,487.0313 1057.8438,486.9531 Q1058.0195,486.875 1058.2344,486.875 Q1058.6445,486.875 1058.9375,487.207 Q1059.25,487.5195 1059.25,487.9688 Q1059.25,488.3984 1058.8203,488.9063 Q1058.1953,489.6484 1057.1992,490.0586 Q1055.8906,490.625 1054.2891,490.625 Q1052.4141,490.625 1050.9102,489.8828 Q1049.6992,489.2969 1048.8398,488.0273 Q1048,486.7578 1048,485.2539 L1048,483.8867 Q1048,482.3242 1048.7422,480.957 Q1049.5039,479.5898 1050.8125,478.8672 Q1052.1406,478.125 1053.625,478.125 Q1054.5234,478.125 1055.3047,478.4375 Q1056.0859,478.75 1056.75,479.375 Z " fill="#000000"/><text fill="#000000" font-family="sans-serif" font-size="15" lengthAdjust="spacing" textLength="61.25" x="1078.25" y="489.8877">TestDTO</text><line style="stroke:#A80036;stroke-width:1.875;" x1="1007.5" x2="1171.25" y1="503.75" y2="503.75"/><text fill="#000000" font-family="sans-serif" font-size="13.75" lengthAdjust="spacing" textLength="101.25" x="1013.75" y="523.0237">-String NHSCode</text><text fill="#000000" font-family="sans-serif" font-size="13.75" lengthAdjust="spacing" textLength="73.75" x="1013.75" y="540.3186">-String code</text><line style="stroke:#A80036;stroke-width:1.875;" x1="1007.5" x2="1171.25" y1="548.3398" y2="548.3398"/><text fill="#000000" font-family="sans-serif" font-size="13.75" lengthAdjust="spacing" textLength="151.25" x="1013.75" y="567.6135">+create(NHSCode, code)</text><text fill="#000000" font-family="sans-serif" font-size="13.75" lengthAdjust="spacing" textLength="67.5" x="1013.75" y="584.9084">+getCode()</text><!--MD5=[02e4b9b7573f1156f41e60aa5b4e25a4]
class Company--><rect codeLine="41" fill="#FEFECE" filter="url(#f4xyozb0rmpce)" height="129.1797" id="Company" style="stroke:#A80036;stroke-width:1.875;" width="137.5" x="513.125" y="177.5"/><ellipse cx="545.9375" cy="197.5" fill="#ADD1B2" rx="13.75" ry="13.75" style="stroke:#A80036;stroke-width:1.25;"/><path d="M548.4375,193.125 Q548.6914,192.5 548.9844,192.1875 Q549.2773,191.875 549.6094,191.875 Q550.1953,191.875 550.5664,192.2266 Q550.9375,192.5781 550.9375,193.3984 L550.9375,195.3516 Q550.9375,196.1719 550.5859,196.5234 Q550.2344,196.875 549.6875,196.875 Q549.1992,196.875 548.8867,196.6602 Q548.5742,196.4453 548.4375,195.8789 Q548.3789,195.4883 548.1641,195.2734 Q547.7734,194.8633 547.0703,194.6289 Q546.3672,194.375 545.6641,194.375 Q544.7852,194.375 544.043,194.7266 Q543.3203,195.0781 542.7539,195.8594 Q542.1875,196.6406 542.1875,197.7148 L542.1875,198.8672 Q542.1875,200.1563 543.2422,201.0156 Q544.2969,201.875 546.1719,201.875 Q547.2852,201.875 548.0664,201.6211 Q548.5156,201.4844 549.0234,201.0352 Q549.3555,200.7813 549.5313,200.7031 Q549.707,200.625 549.9219,200.625 Q550.332,200.625 550.625,200.957 Q550.9375,201.2695 550.9375,201.7188 Q550.9375,202.1484 550.5078,202.6563 Q549.8828,203.3984 548.8867,203.8086 Q547.5781,204.375 545.9766,204.375 Q544.1016,204.375 542.5977,203.6328 Q541.3867,203.0469 540.5273,201.7773 Q539.6875,200.5078 539.6875,199.0039 L539.6875,197.6367 Q539.6875,196.0742 540.4297,194.707 Q541.1914,193.3398 542.5,192.6172 Q543.8281,191.875 545.3125,191.875 Q546.2109,191.875 546.9922,192.1875 Q547.7734,192.5 548.4375,193.125 Z " fill="#000000"/><text fill="#000000" font-family="sans-serif" font-size="15" lengthAdjust="spacing" textLength="66.25" x="566.5625" y="203.6377">Company</text><line style="stroke:#A80036;stroke-width:1.875;" x1="514.375" x2="649.375" y1="217.5" y2="217.5"/><text fill="#000000" font-family="sans-serif" font-size="13.75" lengthAdjust="spacing" textLength="112.5" x="520.625" y="236.7737">-String designation</text><text fill="#000000" font-family="sans-serif" font-size="13.75" lengthAdjust="spacing" textLength="122.5" x="520.625" y="254.0686">-TestStore testStore</text><line style="stroke:#A80036;stroke-width:1.875;" x1="514.375" x2="649.375" y1="262.0898" y2="262.0898"/><text fill="#000000" font-family="sans-serif" font-size="13.75" lengthAdjust="spacing" textLength="95" x="520.625" y="281.3635">+getTestStore()</text><text fill="#000000" font-family="sans-serif" font-size="13.75" lengthAdjust="spacing" textLength="96.25" x="520.625" y="298.6584">+createReport()</text><!--MD5=[d7b8916e3117ca4a3ffdab4f31ea783a]
class WriteReportController--><rect codeLine="48" fill="#FEFECE" filter="url(#f4xyozb0rmpce)" height="146.4746" id="WriteReportController" style="stroke:#A80036;stroke-width:1.875;" width="188.75" x="221.25" y="321.25"/><ellipse cx="240" cy="341.25" fill="#ADD1B2" rx="13.75" ry="13.75" style="stroke:#A80036;stroke-width:1.25;"/><path d="M242.5,336.875 Q242.7539,336.25 243.0469,335.9375 Q243.3398,335.625 243.6719,335.625 Q244.2578,335.625 244.6289,335.9766 Q245,336.3281 245,337.1484 L245,339.1016 Q245,339.9219 244.6484,340.2734 Q244.2969,340.625 243.75,340.625 Q243.2617,340.625 242.9492,340.4102 Q242.6367,340.1953 242.5,339.6289 Q242.4414,339.2383 242.2266,339.0234 Q241.8359,338.6133 241.1328,338.3789 Q240.4297,338.125 239.7266,338.125 Q238.8477,338.125 238.1055,338.4766 Q237.3828,338.8281 236.8164,339.6094 Q236.25,340.3906 236.25,341.4648 L236.25,342.6172 Q236.25,343.9063 237.3047,344.7656 Q238.3594,345.625 240.2344,345.625 Q241.3477,345.625 242.1289,345.3711 Q242.5781,345.2344 243.0859,344.7852 Q243.418,344.5313 243.5938,344.4531 Q243.7695,344.375 243.9844,344.375 Q244.3945,344.375 244.6875,344.707 Q245,345.0195 245,345.4688 Q245,345.8984 244.5703,346.4063 Q243.9453,347.1484 242.9492,347.5586 Q241.6406,348.125 240.0391,348.125 Q238.1641,348.125 236.6602,347.3828 Q235.4492,346.7969 234.5898,345.5273 Q233.75,344.2578 233.75,342.7539 L233.75,341.3867 Q233.75,339.8242 234.4922,338.457 Q235.2539,337.0898 236.5625,336.3672 Q237.8906,335.625 239.375,335.625 Q240.2734,335.625 241.0547,335.9375 Q241.8359,336.25 242.5,336.875 Z " fill="#000000"/><text fill="#000000" font-family="sans-serif" font-size="15" lengthAdjust="spacing" textLength="148.75" x="257.5" y="347.3877">WriteReportController</text><line style="stroke:#A80036;stroke-width:1.875;" x1="222.5" x2="408.75" y1="361.25" y2="361.25"/><text fill="#000000" font-family="sans-serif" font-size="13.75" lengthAdjust="spacing" textLength="120" x="228.75" y="380.5237">-Company company</text><text fill="#000000" font-family="sans-serif" font-size="13.75" lengthAdjust="spacing" textLength="85" x="228.75" y="397.8186">-Report report</text><line style="stroke:#A80036;stroke-width:1.875;" x1="222.5" x2="408.75" y1="405.8398" y2="405.8398"/><text fill="#000000" font-family="sans-serif" font-size="13.75" lengthAdjust="spacing" textLength="137.5" x="228.75" y="425.1135">+getTeststoDiagnose()</text><text fill="#000000" font-family="sans-serif" font-size="13.75" lengthAdjust="spacing" textLength="96.25" x="228.75" y="442.4084">+createReport()</text><text fill="#000000" font-family="sans-serif" font-size="13.75" lengthAdjust="spacing" textLength="133.75" x="228.75" y="459.7034">+addReport(testCode)</text><!--MD5=[71fba8c2abd557a2f7006580273aba3e]
class WriteReportUI--><rect codeLine="56" fill="#FEFECE" filter="url(#f4xyozb0rmpce)" height="40" id="WriteReportUI" style="stroke:#A80036;stroke-width:1.875;" width="136.25" x="8.75" y="546.875"/><ellipse cx="27.5" cy="566.875" fill="#ADD1B2" rx="13.75" ry="13.75" style="stroke:#A80036;stroke-width:1.25;"/><path d="M30,562.5 Q30.2539,561.875 30.5469,561.5625 Q30.8398,561.25 31.1719,561.25 Q31.7578,561.25 32.1289,561.6016 Q32.5,561.9531 32.5,562.7734 L32.5,564.7266 Q32.5,565.5469 32.1484,565.8984 Q31.7969,566.25 31.25,566.25 Q30.7617,566.25 30.4492,566.0352 Q30.1367,565.8203 30,565.2539 Q29.9414,564.8633 29.7266,564.6484 Q29.3359,564.2383 28.6328,564.0039 Q27.9297,563.75 27.2266,563.75 Q26.3477,563.75 25.6055,564.1016 Q24.8828,564.4531 24.3164,565.2344 Q23.75,566.0156 23.75,567.0898 L23.75,568.2422 Q23.75,569.5313 24.8047,570.3906 Q25.8594,571.25 27.7344,571.25 Q28.8477,571.25 29.6289,570.9961 Q30.0781,570.8594 30.5859,570.4102 Q30.918,570.1563 31.0938,570.0781 Q31.2695,570 31.4844,570 Q31.8945,570 32.1875,570.332 Q32.5,570.6445 32.5,571.0938 Q32.5,571.5234 32.0703,572.0313 Q31.4453,572.7734 30.4492,573.1836 Q29.1406,573.75 27.5391,573.75 Q25.6641,573.75 24.1602,573.0078 Q22.9492,572.4219 22.0898,571.1523 Q21.25,569.8828 21.25,568.3789 L21.25,567.0117 Q21.25,565.4492 21.9922,564.082 Q22.7539,562.7148 24.0625,561.9922 Q25.3906,561.25 26.875,561.25 Q27.7734,561.25 28.5547,561.5625 Q29.3359,561.875 30,562.5 Z " fill="#000000"/><text fill="#000000" font-family="sans-serif" font-size="15" lengthAdjust="spacing" textLength="96.25" x="45" y="573.0127">WriteReportUI</text><!--MD5=[4ff913b72b026e4c95390310e4df5ddd]
link WriteReportUI to WriteReportController--><path codeLine="59" d="M105.6875,546.75 C132.7125,527.0125 175.55,495.7375 215.3875,466.65 " fill="none" id="WriteReportUI-to-WriteReportController" style="stroke:#A80036;stroke-width:1.25;stroke-dasharray:7.0,7.0;"/><polygon fill="#A80036" points="220.7375,462.75,208.6994,465.3283,215.6844,466.4282,214.5846,473.4132,220.7375,462.75" style="stroke:#A80036;stroke-width:1.25;"/><!--MD5=[b14f4b55bc9aa939c7cd06f1c0b56da5]
link WriteReportUI to TestDTO--><path codeLine="60" d="M145.175,564.3 C321.9125,557.525 800.5375,539.1625 999.5125,531.525 " fill="none" id="WriteReportUI-to-TestDTO" style="stroke:#A80036;stroke-width:1.25;stroke-dasharray:7.0,7.0;"/><polygon fill="#A80036" points="1005.8875,531.275,994.4592,526.6972,999.6418,531.5076,994.8314,536.6903,1005.8875,531.275" style="stroke:#A80036;stroke-width:1.25;"/><!--MD5=[f27b4a25a5b059d18ef9f1b16d7419ab]
link WriteReportController to TestMapper--><path codeLine="61" d="M410.2375,394.375 C432.725,394.375 456.8375,394.375 479.6625,394.375 " fill="none" id="WriteReportController-to-TestMapper" style="stroke:#A80036;stroke-width:1.25;stroke-dasharray:7.0,7.0;"/><polygon fill="#A80036" points="486.05,394.375,474.8,389.375,479.8,394.375,474.8,399.375,486.05,394.375" style="stroke:#A80036;stroke-width:1.25;"/><!--MD5=[a3405a5a29c0a1359ce5b85a18cd6043]
link WriteReportController to Company--><path codeLine="62" d="M410.2375,340.4 C442.1875,321.925 477.4375,301.5375 507.55,284.125 " fill="none" id="WriteReportController-to-Company" style="stroke:#A80036;stroke-width:1.25;stroke-dasharray:7.0,7.0;"/><polygon fill="#A80036" points="513.1,280.9125,500.8574,282.2093,507.6878,284.0383,505.8588,290.8688,513.1,280.9125" style="stroke:#A80036;stroke-width:1.25;"/><!--MD5=[aa4aa685cc8a1bee089823f9a2dac854]
link WriteReportController to TestStore--><path codeLine="63" d="M351,320.875 C379.6875,267.1375 425.7125,196.7375 486.25,155.625 C551.875,111.0625 639.125,90.5 708.55,81.0625 " fill="none" id="WriteReportController-to-TestStore" style="stroke:#A80036;stroke-width:1.25;stroke-dasharray:7.0,7.0;"/><polygon fill="#A80036" points="714.7875,80.225,702.978,76.7468,708.5917,81.0463,704.2921,86.6601,714.7875,80.225" style="stroke:#A80036;stroke-width:1.25;"/><!--MD5=[d2c887862af794255aa293b427ffc580]
link WriteReportController to TestDTO--><path codeLine="64" d="M410.1,434.1125 C434.5125,443.225 461.0625,452.0125 486.25,458.125 C665.525,501.6 881.6125,518.3625 999.9625,524.6 " fill="none" id="WriteReportController-to-TestDTO" style="stroke:#A80036;stroke-width:1.25;stroke-dasharray:7.0,7.0;"/><polygon fill="#A80036" points="1006.2125,524.925,995.235,519.3522,999.9708,524.6031,994.7199,529.3389,1006.2125,524.925" style="stroke:#A80036;stroke-width:1.25;"/><!--MD5=[b0f4f6db8206580012ef9cd998ed01c5]
link TestStore to Test--><path codeLine="65" d="M936.525,76.725 C1013.6125,82.1125 1118.0875,95.2375 1205,126.875 C1247.175,142.225 1290.0125,168.35 1323.3625,191.5625 " fill="none" id="TestStore-to-Test" style="stroke:#A80036;stroke-width:1.25;"/><polygon fill="#A80036" points="1328.6375,195.2625,1322.2909,184.7134,1323.5181,191.6772,1316.5544,192.9044,1328.6375,195.2625" style="stroke:#A80036;stroke-width:1.25;"/><polygon fill="#000000" points="1067.8666,71.3734,1058.0732,64.634,1055.9822,71.6775,1067.8666,71.3734" style="stroke:#000000;stroke-width:1.25;"/><text fill="#000000" font-family="sans-serif" font-size="16.25" lengthAdjust="spacing" textLength="48.75" x="1073.125" y="76.2439">adopts</text><text fill="#000000" font-family="sans-serif" font-size="16.25" lengthAdjust="spacing" textLength="8.75" x="946.0712" y="94.7206">1</text><text fill="#000000" font-family="sans-serif" font-size="16.25" lengthAdjust="spacing" textLength="6.25" x="1312.6079" y="206.7788">*</text><!--MD5=[670dbdf7395d3fcbb40104f0a070263e]
link Company to Report--><path codeLine="66" d="M650.7125,241.5375 C731.45,241.1375 868.025,240.4625 967.1125,239.975 " fill="none" id="Company-to-Report" style="stroke:#A80036;stroke-width:1.25;"/><polygon fill="#A80036" points="973.5875,239.9375,962.3091,235.0019,967.3376,239.9732,962.3663,245.0017,973.5875,239.9375" style="stroke:#A80036;stroke-width:1.25;"/><polygon fill="#000000" points="805.6249,229.5639,794.3006,225.9461,794.3368,233.2933,805.6249,229.5639" style="stroke:#000000;stroke-width:1.25;"/><text fill="#000000" font-family="sans-serif" font-size="16.25" lengthAdjust="spacing" textLength="46.25" x="810.625" y="236.2439">knows</text><text fill="#000000" font-family="sans-serif" font-size="16.25" lengthAdjust="spacing" textLength="8.75" x="660.5504" y="259.7055">1</text><text fill="#000000" font-family="sans-serif" font-size="16.25" lengthAdjust="spacing" textLength="6.25" x="957.4901" y="257.707">*</text><!--MD5=[63d25d625ab355317a074a623d33bba8]
link Report to Test--><path codeLine="67" d="M1205.1,239.375 C1244.9,239.375 1288.075,239.375 1322.2125,239.375 " fill="none" id="Report-to-Test" style="stroke:#A80036;stroke-width:1.25;"/><polygon fill="#A80036" points="1328.4875,239.375,1317.2375,234.375,1322.2375,239.375,1317.2375,244.375,1328.4875,239.375" style="stroke:#A80036;stroke-width:1.25;"/><polygon fill="#000000" points="1255,228.3447,1243.6936,224.6711,1243.6936,232.0184,1255,228.3447" style="stroke:#000000;stroke-width:1.25;"/><text fill="#000000" font-family="sans-serif" font-size="16.25" lengthAdjust="spacing" textLength="30" x="1260" y="234.9939">is of</text><text fill="#000000" font-family="sans-serif" font-size="16.25" lengthAdjust="spacing" textLength="8.75" x="1215.0458" y="257.0979">1</text><text fill="#000000" font-family="sans-serif" font-size="16.25" lengthAdjust="spacing" textLength="8.75" x="1310.127" y="257.8559">1</text><!--MD5=[8d9a2c3ea1bf73d8d45b939465e53fff]
link TestMapper to Test--><path codeLine="68" d="M677.975,401.8875 C802.2875,408.6125 1025.575,409.875 1205,351.875 C1247.5375,338.125 1290.225,312.225 1323.4125,288.75 " fill="none" id="TestMapper-to-Test" style="stroke:#A80036;stroke-width:1.25;stroke-dasharray:7.0,7.0;"/><polygon fill="#A80036" points="1328.6625,285,1316.6084,287.5023,1323.5863,288.6463,1322.4424,295.6242,1328.6625,285" style="stroke:#A80036;stroke-width:1.25;"/><!--MD5=[f6fda4afaf882dd39139bcbf06c50c8c]
link TestMapper to TestDTO--><path codeLine="69" d="M677.8125,413.9125 C749.275,429.275 849.5125,452.175 936.25,476.875 C956.9875,482.7875 979.0875,489.8125 999.825,496.7375 " fill="none" id="TestMapper-to-TestDTO" style="stroke:#A80036;stroke-width:1.25;stroke-dasharray:7.0,7.0;"/><polygon fill="#A80036" points="1006.2125,498.875,997.1285,490.5658,1000.285,496.8932,993.9576,500.0498,1006.2125,498.875" style="stroke:#A80036;stroke-width:1.25;"/><!--MD5=[741526d1d5165aac01d2f6301a339057]
@startuml
hide empty methods
hide empty attributes
left to right direction
skinparam classAttributeIconSize 0

class Report {
    - int REPORTTEXT_MAX_LENGTH
    - String reportText
    - Report report
    + Report(reportText)
    + checkReportTextRules(reportText)
    + equals(reportObject)
    + create()
}

class TestStore {
    -list<Test> testsReadyToDiagnose
    +getTestsReadyToDiagnose()
    +getTestByCode(code)
    +addReport(selectedTest)
}

class Test {
    -String NHSCode
    -String code
    +getCode()
}

class TestMapper {
    +toDTO(listTestsToDiagnose)
    +toDTO(obj)
}

class TestDTO {
    -String NHSCode
    -String code
    +create(NHSCode, code)
    +getCode()
}

class Company {
    -String designation
    -TestStore testStore
    +getTestStore()
    +createReport()
}

class WriteReportController {
    -Company company
    -Report report
    +getTeststoDiagnose()
    +createReport()
    +addReport(testCode)
}

class WriteReportUI {
}

WriteReportUI ..> WriteReportController
WriteReportUI ..> TestDTO
WriteReportController ..> TestMapper
WriteReportController ..> Company
WriteReportController ..> TestStore
WriteReportController ..> TestDTO
TestStore "1" -> "*" Test : adopts >
Company "1" - -> "*" Report : knows >
Report "1" - -> "1" Test : is of >
TestMapper ..> Test
TestMapper ..> TestDTO

@enduml

PlantUML version 1.2021.5(Sun Apr 25 12:20:28 BST 2021)
(GPL source distribution)
Java Runtime: OpenJDK Runtime Environment
JVM: Dynamic Code Evolution 64-Bit Server VM
Default Encoding: Cp1252
Language: pt
Country: PT
--></g></svg>