<?xml version="1.0" encoding="UTF-8" standalone="no"?><svg xmlns="http://www.w3.org/2000/svg" xmlns:xlink="http://www.w3.org/1999/xlink" contentScriptType="application/ecmascript" contentStyleType="text/css" height="653.75px" preserveAspectRatio="none" style="width:2341px;height:653px;" version="1.1" viewBox="0 0 2341 653" width="2341.25px" zoomAndPan="magnify"><defs><filter height="300%" id="f5oe9518sf7dc" width="300%" x="-1" y="-1"><feGaussianBlur result="blurOut" stdDeviation="2.5"/><feColorMatrix in="blurOut" result="blurOut2" type="matrix" values="0 0 0 0 0 0 0 0 0 0 0 0 0 0 0 0 0 0 .4 0"/><feOffset dx="5.0" dy="5.0" in="blurOut2" result="blurOut3"/><feBlend in="SourceGraphic" in2="blurOut3" mode="normal"/></filter></defs><g><!--MD5=[2c2e2644034c00788261e03c85b06837]
cluster Core--><polygon fill="#FFFFFF" filter="url(#f5oe9518sf7dc)" points="20,7.5,70,7.5,78.75,37.0117,2052.5,37.0117,2052.5,645,20,645,20,7.5" style="stroke:#000000;stroke-width:1.875;"/><line style="stroke:#000000;stroke-width:1.875;" x1="20" x2="78.75" y1="37.0117" y2="37.0117"/><text fill="#000000" font-family="sans-serif" font-size="17.5" font-weight="bold" lengthAdjust="spacing" textLength="42.5" x="25" y="28.1665">Core</text><!--MD5=[121a8bf1197281ab89ed693fab589f94]
cluster Domain--><polygon fill="#FFFFFF" filter="url(#f5oe9518sf7dc)" points="1165,62.5,1237.5,62.5,1246.25,92.0117,2022.5,92.0117,2022.5,615,1165,615,1165,62.5" style="stroke:#000000;stroke-width:1.875;"/><line style="stroke:#000000;stroke-width:1.875;" x1="1165" x2="1246.25" y1="92.0117" y2="92.0117"/><text fill="#000000" font-family="sans-serif" font-size="17.5" font-weight="bold" lengthAdjust="spacing" textLength="65" x="1170" y="83.1665">Domain</text><!--MD5=[15636c1ca4a123c16a2a1a8e90aca7a9]
cluster Model--><polygon fill="#FFFFFF" filter="url(#f5oe9518sf7dc)" points="1460,117.5,1522.5,117.5,1531.25,147.0117,1992.5,147.0117,1992.5,585,1460,585,1460,117.5" style="stroke:#000000;stroke-width:1.875;"/><line style="stroke:#000000;stroke-width:1.875;" x1="1460" x2="1531.25" y1="147.0117" y2="147.0117"/><text fill="#000000" font-family="sans-serif" font-size="17.5" font-weight="bold" lengthAdjust="spacing" textLength="55" x="1465" y="138.1665">Model</text><!--MD5=[8dd535d56cd4cf7faf64fdd082ba836e]
cluster Stores--><polygon fill="#FFFFFF" filter="url(#f5oe9518sf7dc)" points="1195,126.25,1260,126.25,1268.75,155.7617,1430,155.7617,1430,320,1195,320,1195,126.25" style="stroke:#000000;stroke-width:1.875;"/><line style="stroke:#000000;stroke-width:1.875;" x1="1195" x2="1268.75" y1="155.7617" y2="155.7617"/><text fill="#000000" font-family="sans-serif" font-size="17.5" font-weight="bold" lengthAdjust="spacing" textLength="57.5" x="1200" y="146.9165">Stores</text><!--MD5=[701152d03fbf85133a1de050cfdbc7fd]
cluster Mappers--><polygon fill="#FFFFFF" filter="url(#f5oe9518sf7dc)" points="310,148.125,395,148.125,403.75,177.6367,710,177.6367,710,298.125,310,298.125,310,148.125" style="stroke:#000000;stroke-width:1.875;"/><line style="stroke:#000000;stroke-width:1.875;" x1="310" x2="403.75" y1="177.6367" y2="177.6367"/><text fill="#000000" font-family="sans-serif" font-size="17.5" font-weight="bold" lengthAdjust="spacing" textLength="77.5" x="315" y="168.7915">Mappers</text><!--MD5=[7b8bc9ee8bb84b99fb3a3f9477c19238]
cluster DTO--><polygon fill="#FFFFFF" filter="url(#f5oe9518sf7dc)" points="740,100,783.75,100,792.5,129.5117,1135,129.5117,1135,346.25,740,346.25,740,100" style="stroke:#000000;stroke-width:1.875;"/><line style="stroke:#000000;stroke-width:1.875;" x1="740" x2="792.5" y1="129.5117" y2="129.5117"/><text fill="#000000" font-family="sans-serif" font-size="17.5" font-weight="bold" lengthAdjust="spacing" textLength="36.25" x="745" y="120.6665">DTO</text><!--MD5=[ed1d20ea533a2a0e7df5ba3c35e56ced]
cluster Controllers--><polygon fill="#FFFFFF" filter="url(#f5oe9518sf7dc)" points="50,108.75,156.25,108.75,165,138.2617,280,138.2617,280,337.5,50,337.5,50,108.75" style="stroke:#000000;stroke-width:1.875;"/><line style="stroke:#000000;stroke-width:1.875;" x1="50" x2="165" y1="138.2617" y2="138.2617"/><text fill="#000000" font-family="sans-serif" font-size="17.5" font-weight="bold" lengthAdjust="spacing" textLength="98.75" x="55" y="129.4165">Controllers</text><!--MD5=[9681dc6e01e10c6b4fe06895ae94f592]
cluster UI--><polygon fill="#FFFFFF" filter="url(#f5oe9518sf7dc)" points="2082.5,115.625,2107.5,115.625,2116.25,145.1367,2320,145.1367,2320,305.625,2082.5,305.625,2082.5,115.625" style="stroke:#000000;stroke-width:1.875;"/><line style="stroke:#000000;stroke-width:1.875;" x1="2082.5" x2="2116.25" y1="145.1367" y2="145.1367"/><text fill="#000000" font-family="sans-serif" font-size="17.5" font-weight="bold" lengthAdjust="spacing" textLength="17.5" x="2087.5" y="136.2915">UI</text><!--MD5=[4851e5193cf5e7abdec7b18b3bca50f8]
cluster Console--><polygon fill="#FFFFFF" filter="url(#f5oe9518sf7dc)" points="2112.5,170.625,2192.5,170.625,2201.25,200.1367,2290,200.1367,2290,275.625,2112.5,275.625,2112.5,170.625" style="stroke:#000000;stroke-width:1.875;"/><line style="stroke:#000000;stroke-width:1.875;" x1="2112.5" x2="2201.25" y1="200.1367" y2="200.1367"/><text fill="#000000" font-family="sans-serif" font-size="17.5" font-weight="bold" lengthAdjust="spacing" textLength="72.5" x="2117.5" y="191.2915">Console</text><!--MD5=[02e4b9b7573f1156f41e60aa5b4e25a4]
class Company--><rect codeLine="12" fill="#FEFECE" filter="url(#f5oe9518sf7dc)" height="129.1797" id="Company" style="stroke:#A80036;stroke-width:1.875;" width="173.75" x="1513.125" y="171.25"/><ellipse cx="1562.25" cy="191.25" fill="#ADD1B2" rx="13.75" ry="13.75" style="stroke:#A80036;stroke-width:1.25;"/><path d="M1564.75,186.875 Q1565.0039,186.25 1565.2969,185.9375 Q1565.5898,185.625 1565.9219,185.625 Q1566.5078,185.625 1566.8789,185.9766 Q1567.25,186.3281 1567.25,187.1484 L1567.25,189.1016 Q1567.25,189.9219 1566.8984,190.2734 Q1566.5469,190.625 1566,190.625 Q1565.5117,190.625 1565.1992,190.4102 Q1564.8867,190.1953 1564.75,189.6289 Q1564.6914,189.2383 1564.4766,189.0234 Q1564.0859,188.6133 1563.3828,188.3789 Q1562.6797,188.125 1561.9766,188.125 Q1561.0977,188.125 1560.3555,188.4766 Q1559.6328,188.8281 1559.0664,189.6094 Q1558.5,190.3906 1558.5,191.4648 L1558.5,192.6172 Q1558.5,193.9063 1559.5547,194.7656 Q1560.6094,195.625 1562.4844,195.625 Q1563.5977,195.625 1564.3789,195.3711 Q1564.8281,195.2344 1565.3359,194.7852 Q1565.668,194.5313 1565.8438,194.4531 Q1566.0195,194.375 1566.2344,194.375 Q1566.6445,194.375 1566.9375,194.707 Q1567.25,195.0195 1567.25,195.4688 Q1567.25,195.8984 1566.8203,196.4063 Q1566.1953,197.1484 1565.1992,197.5586 Q1563.8906,198.125 1562.2891,198.125 Q1560.4141,198.125 1558.9102,197.3828 Q1557.6992,196.7969 1556.8398,195.5273 Q1556,194.2578 1556,192.7539 L1556,191.3867 Q1556,189.8242 1556.7422,188.457 Q1557.5039,187.0898 1558.8125,186.3672 Q1560.1406,185.625 1561.625,185.625 Q1562.5234,185.625 1563.3047,185.9375 Q1564.0859,186.25 1564.75,186.875 Z " fill="#000000"/><text fill="#000000" font-family="sans-serif" font-size="15" lengthAdjust="spacing" textLength="66.25" x="1586.5" y="197.3877">Company</text><line style="stroke:#A80036;stroke-width:1.875;" x1="1514.375" x2="1685.625" y1="211.25" y2="211.25"/><text fill="#000000" font-family="sans-serif" font-size="13.75" lengthAdjust="spacing" textLength="112.5" x="1520.625" y="230.5237">-String designation</text><text fill="#000000" font-family="sans-serif" font-size="13.75" lengthAdjust="spacing" textLength="122.5" x="1520.625" y="247.8186">-TestStore testStore</text><line style="stroke:#A80036;stroke-width:1.875;" x1="1514.375" x2="1685.625" y1="255.8398" y2="255.8398"/><text fill="#000000" font-family="sans-serif" font-size="13.75" lengthAdjust="spacing" textLength="95" x="1520.625" y="275.1135">+getTestStore()</text><text fill="#000000" font-family="sans-serif" font-size="13.75" lengthAdjust="spacing" textLength="158.75" x="1520.625" y="292.4084">+createReport(reportText)</text><!--MD5=[f00dbe8c0302c6aec2cb26b3c659c8fc]
class Report--><rect codeLine="19" fill="#FEFECE" filter="url(#f5oe9518sf7dc)" height="146.4746" id="Report" style="stroke:#A80036;stroke-width:1.875;" width="231.25" x="1730.625" y="162.5"/><ellipse cx="1817.8125" cy="182.5" fill="#ADD1B2" rx="13.75" ry="13.75" style="stroke:#A80036;stroke-width:1.25;"/><path d="M1820.3125,178.125 Q1820.5664,177.5 1820.8594,177.1875 Q1821.1523,176.875 1821.4844,176.875 Q1822.0703,176.875 1822.4414,177.2266 Q1822.8125,177.5781 1822.8125,178.3984 L1822.8125,180.3516 Q1822.8125,181.1719 1822.4609,181.5234 Q1822.1094,181.875 1821.5625,181.875 Q1821.0742,181.875 1820.7617,181.6602 Q1820.4492,181.4453 1820.3125,180.8789 Q1820.2539,180.4883 1820.0391,180.2734 Q1819.6484,179.8633 1818.9453,179.6289 Q1818.2422,179.375 1817.5391,179.375 Q1816.6602,179.375 1815.918,179.7266 Q1815.1953,180.0781 1814.6289,180.8594 Q1814.0625,181.6406 1814.0625,182.7148 L1814.0625,183.8672 Q1814.0625,185.1563 1815.1172,186.0156 Q1816.1719,186.875 1818.0469,186.875 Q1819.1602,186.875 1819.9414,186.6211 Q1820.3906,186.4844 1820.8984,186.0352 Q1821.2305,185.7813 1821.4063,185.7031 Q1821.582,185.625 1821.7969,185.625 Q1822.207,185.625 1822.5,185.957 Q1822.8125,186.2695 1822.8125,186.7188 Q1822.8125,187.1484 1822.3828,187.6563 Q1821.7578,188.3984 1820.7617,188.8086 Q1819.4531,189.375 1817.8516,189.375 Q1815.9766,189.375 1814.4727,188.6328 Q1813.2617,188.0469 1812.4023,186.7773 Q1811.5625,185.5078 1811.5625,184.0039 L1811.5625,182.6367 Q1811.5625,181.0742 1812.3047,179.707 Q1813.0664,178.3398 1814.375,177.6172 Q1815.7031,176.875 1817.1875,176.875 Q1818.0859,176.875 1818.8672,177.1875 Q1819.6484,177.5 1820.3125,178.125 Z " fill="#000000"/><text fill="#000000" font-family="sans-serif" font-size="15" lengthAdjust="spacing" textLength="46.25" x="1843.4375" y="188.6377">Report</text><line style="stroke:#A80036;stroke-width:1.875;" x1="1731.875" x2="1960.625" y1="202.5" y2="202.5"/><text fill="#000000" font-family="sans-serif" font-size="13.75" lengthAdjust="spacing" textLength="106.25" x="1738.125" y="221.7737">-String reportText</text><line style="stroke:#A80036;stroke-width:1.875;" x1="1731.875" x2="1960.625" y1="229.7949" y2="229.7949"/><text fill="#000000" font-family="sans-serif" font-size="13.75" lengthAdjust="spacing" textLength="120" x="1738.125" y="249.0686">+Report(reportText)</text><text fill="#000000" font-family="sans-serif" font-size="13.75" lengthAdjust="spacing" textLength="216.25" x="1738.125" y="266.3635">+checkReportTextRules(reportText)</text><text fill="#000000" font-family="sans-serif" font-size="13.75" lengthAdjust="spacing" textLength="153.75" x="1738.125" y="283.6584">+countWords(reportText)</text><text fill="#000000" font-family="sans-serif" font-size="13.75" lengthAdjust="spacing" textLength="63.75" x="1738.125" y="300.9534">+toString()</text><!--MD5=[df38be88ccee13e832d6fafd6288a4ca]
class Test--><rect codeLine="27" fill="#FEFECE" filter="url(#f5oe9518sf7dc)" height="163.7695" id="Test" style="stroke:#A80036;stroke-width:1.875;" width="238.75" x="1480.625" y="401.25"/><ellipse cx="1579.6875" cy="421.25" fill="#ADD1B2" rx="13.75" ry="13.75" style="stroke:#A80036;stroke-width:1.25;"/><path d="M1582.1875,416.875 Q1582.4414,416.25 1582.7344,415.9375 Q1583.0273,415.625 1583.3594,415.625 Q1583.9453,415.625 1584.3164,415.9766 Q1584.6875,416.3281 1584.6875,417.1484 L1584.6875,419.1016 Q1584.6875,419.9219 1584.3359,420.2734 Q1583.9844,420.625 1583.4375,420.625 Q1582.9492,420.625 1582.6367,420.4102 Q1582.3242,420.1953 1582.1875,419.6289 Q1582.1289,419.2383 1581.9141,419.0234 Q1581.5234,418.6133 1580.8203,418.3789 Q1580.1172,418.125 1579.4141,418.125 Q1578.5352,418.125 1577.793,418.4766 Q1577.0703,418.8281 1576.5039,419.6094 Q1575.9375,420.3906 1575.9375,421.4648 L1575.9375,422.6172 Q1575.9375,423.9063 1576.9922,424.7656 Q1578.0469,425.625 1579.9219,425.625 Q1581.0352,425.625 1581.8164,425.3711 Q1582.2656,425.2344 1582.7734,424.7852 Q1583.1055,424.5313 1583.2813,424.4531 Q1583.457,424.375 1583.6719,424.375 Q1584.082,424.375 1584.375,424.707 Q1584.6875,425.0195 1584.6875,425.4688 Q1584.6875,425.8984 1584.2578,426.4063 Q1583.6328,427.1484 1582.6367,427.5586 Q1581.3281,428.125 1579.7266,428.125 Q1577.8516,428.125 1576.3477,427.3828 Q1575.1367,426.7969 1574.2773,425.5273 Q1573.4375,424.2578 1573.4375,422.7539 L1573.4375,421.3867 Q1573.4375,419.8242 1574.1797,418.457 Q1574.9414,417.0898 1576.25,416.3672 Q1577.5781,415.625 1579.0625,415.625 Q1579.9609,415.625 1580.7422,415.9375 Q1581.5234,416.25 1582.1875,416.875 Z " fill="#000000"/><text fill="#000000" font-family="sans-serif" font-size="15" lengthAdjust="spacing" textLength="30" x="1605.3125" y="427.3877">Test</text><line style="stroke:#A80036;stroke-width:1.875;" x1="1481.875" x2="1718.125" y1="441.25" y2="441.25"/><text fill="#000000" font-family="sans-serif" font-size="13.75" lengthAdjust="spacing" textLength="73.75" x="1488.125" y="460.5237">-String code</text><text fill="#000000" font-family="sans-serif" font-size="13.75" lengthAdjust="spacing" textLength="146.25" x="1488.125" y="477.8186">-Report diagnosisReport</text><text fill="#000000" font-family="sans-serif" font-size="13.75" lengthAdjust="spacing" textLength="223.75" x="1488.125" y="495.1135">-List&lt;TestParameter&gt; testParameters</text><line style="stroke:#A80036;stroke-width:1.875;" x1="1481.875" x2="1718.125" y1="503.1348" y2="503.1348"/><text fill="#000000" font-family="sans-serif" font-size="13.75" lengthAdjust="spacing" textLength="105" x="1488.125" y="522.4084">+getParameters()</text><text fill="#000000" font-family="sans-serif" font-size="13.75" lengthAdjust="spacing" textLength="148.75" x="1488.125" y="539.7034">+hasSamplesAnalysed()</text><text fill="#000000" font-family="sans-serif" font-size="13.75" lengthAdjust="spacing" textLength="116.25" x="1488.125" y="556.9983">+addReport(report)</text><!--MD5=[0f07739f46effee96e095e9c408da841]
class TestParameter--><rect codeLine="36" fill="#FEFECE" filter="url(#f5oe9518sf7dc)" height="129.1797" id="TestParameter" style="stroke:#A80036;stroke-width:1.875;" width="208.75" x="1763.125" y="418.75"/><ellipse cx="1811.6875" cy="438.75" fill="#ADD1B2" rx="13.75" ry="13.75" style="stroke:#A80036;stroke-width:1.25;"/><path d="M1814.1875,434.375 Q1814.4414,433.75 1814.7344,433.4375 Q1815.0273,433.125 1815.3594,433.125 Q1815.9453,433.125 1816.3164,433.4766 Q1816.6875,433.8281 1816.6875,434.6484 L1816.6875,436.6016 Q1816.6875,437.4219 1816.3359,437.7734 Q1815.9844,438.125 1815.4375,438.125 Q1814.9492,438.125 1814.6367,437.9102 Q1814.3242,437.6953 1814.1875,437.1289 Q1814.1289,436.7383 1813.9141,436.5234 Q1813.5234,436.1133 1812.8203,435.8789 Q1812.1172,435.625 1811.4141,435.625 Q1810.5352,435.625 1809.793,435.9766 Q1809.0703,436.3281 1808.5039,437.1094 Q1807.9375,437.8906 1807.9375,438.9648 L1807.9375,440.1172 Q1807.9375,441.4063 1808.9922,442.2656 Q1810.0469,443.125 1811.9219,443.125 Q1813.0352,443.125 1813.8164,442.8711 Q1814.2656,442.7344 1814.7734,442.2852 Q1815.1055,442.0313 1815.2813,441.9531 Q1815.457,441.875 1815.6719,441.875 Q1816.082,441.875 1816.375,442.207 Q1816.6875,442.5195 1816.6875,442.9688 Q1816.6875,443.3984 1816.2578,443.9063 Q1815.6328,444.6484 1814.6367,445.0586 Q1813.3281,445.625 1811.7266,445.625 Q1809.8516,445.625 1808.3477,444.8828 Q1807.1367,444.2969 1806.2773,443.0273 Q1805.4375,441.7578 1805.4375,440.2539 L1805.4375,438.8867 Q1805.4375,437.3242 1806.1797,435.957 Q1806.9414,434.5898 1808.25,433.8672 Q1809.5781,433.125 1811.0625,433.125 Q1811.9609,433.125 1812.7422,433.4375 Q1813.5234,433.75 1814.1875,434.375 Z " fill="#000000"/><text fill="#000000" font-family="sans-serif" font-size="15" lengthAdjust="spacing" textLength="102.5" x="1835.8125" y="444.8877">TestParameter</text><line style="stroke:#A80036;stroke-width:1.875;" x1="1764.375" x2="1970.625" y1="458.75" y2="458.75"/><text fill="#000000" font-family="sans-serif" font-size="13.75" lengthAdjust="spacing" textLength="131.25" x="1770.625" y="478.0237">-Parameter parameter</text><text fill="#000000" font-family="sans-serif" font-size="13.75" lengthAdjust="spacing" textLength="193.75" x="1770.625" y="495.3186">-TestParameterResult testResult</text><line style="stroke:#A80036;stroke-width:1.875;" x1="1764.375" x2="1970.625" y1="503.3398" y2="503.3398"/><text fill="#000000" font-family="sans-serif" font-size="13.75" lengthAdjust="spacing" textLength="97.5" x="1770.625" y="522.6135">+getParameter()</text><text fill="#000000" font-family="sans-serif" font-size="13.75" lengthAdjust="spacing" textLength="135" x="1770.625" y="539.9084">+getParameterResult()</text><!--MD5=[0f6f7964b844a64b0496af0dda7914bd]
class TestStore--><rect codeLine="47" fill="#FEFECE" filter="url(#f5oe9518sf7dc)" height="129.1797" id="TestStore" style="stroke:#A80036;stroke-width:1.875;" width="195" x="1215" y="171.25"/><ellipse cx="1274.0625" cy="191.25" fill="#ADD1B2" rx="13.75" ry="13.75" style="stroke:#A80036;stroke-width:1.25;"/><path d="M1276.5625,186.875 Q1276.8164,186.25 1277.1094,185.9375 Q1277.4023,185.625 1277.7344,185.625 Q1278.3203,185.625 1278.6914,185.9766 Q1279.0625,186.3281 1279.0625,187.1484 L1279.0625,189.1016 Q1279.0625,189.9219 1278.7109,190.2734 Q1278.3594,190.625 1277.8125,190.625 Q1277.3242,190.625 1277.0117,190.4102 Q1276.6992,190.1953 1276.5625,189.6289 Q1276.5039,189.2383 1276.2891,189.0234 Q1275.8984,188.6133 1275.1953,188.3789 Q1274.4922,188.125 1273.7891,188.125 Q1272.9102,188.125 1272.168,188.4766 Q1271.4453,188.8281 1270.8789,189.6094 Q1270.3125,190.3906 1270.3125,191.4648 L1270.3125,192.6172 Q1270.3125,193.9063 1271.3672,194.7656 Q1272.4219,195.625 1274.2969,195.625 Q1275.4102,195.625 1276.1914,195.3711 Q1276.6406,195.2344 1277.1484,194.7852 Q1277.4805,194.5313 1277.6563,194.4531 Q1277.832,194.375 1278.0469,194.375 Q1278.457,194.375 1278.75,194.707 Q1279.0625,195.0195 1279.0625,195.4688 Q1279.0625,195.8984 1278.6328,196.4063 Q1278.0078,197.1484 1277.0117,197.5586 Q1275.7031,198.125 1274.1016,198.125 Q1272.2266,198.125 1270.7227,197.3828 Q1269.5117,196.7969 1268.6523,195.5273 Q1267.8125,194.2578 1267.8125,192.7539 L1267.8125,191.3867 Q1267.8125,189.8242 1268.5547,188.457 Q1269.3164,187.0898 1270.625,186.3672 Q1271.9531,185.625 1273.4375,185.625 Q1274.3359,185.625 1275.1172,185.9375 Q1275.8984,186.25 1276.5625,186.875 Z " fill="#000000"/><text fill="#000000" font-family="sans-serif" font-size="15" lengthAdjust="spacing" textLength="66.25" x="1299.6875" y="197.3877">TestStore</text><line style="stroke:#A80036;stroke-width:1.875;" x1="1216.25" x2="1408.75" y1="211.25" y2="211.25"/><text fill="#000000" font-family="sans-serif" font-size="13.75" lengthAdjust="spacing" textLength="110" x="1222.5" y="230.5237">-list&lt;Test&gt; testList</text><line style="stroke:#A80036;stroke-width:1.875;" x1="1216.25" x2="1408.75" y1="238.5449" y2="238.5449"/><text fill="#000000" font-family="sans-serif" font-size="13.75" lengthAdjust="spacing" textLength="180" x="1222.5" y="257.8186">+getTestsReadyToDiagnose()</text><text fill="#000000" font-family="sans-serif" font-size="13.75" lengthAdjust="spacing" textLength="140" x="1222.5" y="275.1135">+getTestByCode(code)</text><text fill="#000000" font-family="sans-serif" font-size="13.75" lengthAdjust="spacing" textLength="146.25" x="1222.5" y="292.4084">+getTestParameters(tst)</text><!--MD5=[144698ec4d0188f6929a3b58a3eeb1f6]
class TestMapper--><rect codeLine="60" fill="#FEFECE" filter="url(#f5oe9518sf7dc)" height="84.5898" id="TestMapper" style="stroke:#A80036;stroke-width:1.875;" width="121.25" x="568.125" y="193.125"/><ellipse cx="586.875" cy="213.125" fill="#ADD1B2" rx="13.75" ry="13.75" style="stroke:#A80036;stroke-width:1.25;"/><path d="M589.375,208.75 Q589.6289,208.125 589.9219,207.8125 Q590.2148,207.5 590.5469,207.5 Q591.1328,207.5 591.5039,207.8516 Q591.875,208.2031 591.875,209.0234 L591.875,210.9766 Q591.875,211.7969 591.5234,212.1484 Q591.1719,212.5 590.625,212.5 Q590.1367,212.5 589.8242,212.2852 Q589.5117,212.0703 589.375,211.5039 Q589.3164,211.1133 589.1016,210.8984 Q588.7109,210.4883 588.0078,210.2539 Q587.3047,210 586.6016,210 Q585.7227,210 584.9805,210.3516 Q584.2578,210.7031 583.6914,211.4844 Q583.125,212.2656 583.125,213.3398 L583.125,214.4922 Q583.125,215.7813 584.1797,216.6406 Q585.2344,217.5 587.1094,217.5 Q588.2227,217.5 589.0039,217.2461 Q589.4531,217.1094 589.9609,216.6602 Q590.293,216.4063 590.4688,216.3281 Q590.6445,216.25 590.8594,216.25 Q591.2695,216.25 591.5625,216.582 Q591.875,216.8945 591.875,217.3438 Q591.875,217.7734 591.4453,218.2813 Q590.8203,219.0234 589.8242,219.4336 Q588.5156,220 586.9141,220 Q585.0391,220 583.5352,219.2578 Q582.3242,218.6719 581.4648,217.4023 Q580.625,216.1328 580.625,214.6289 L580.625,213.2617 Q580.625,211.6992 581.3672,210.332 Q582.1289,208.9648 583.4375,208.2422 Q584.7656,207.5 586.25,207.5 Q587.1484,207.5 587.9297,207.8125 Q588.7109,208.125 589.375,208.75 Z " fill="#000000"/><text fill="#000000" font-family="sans-serif" font-size="15" lengthAdjust="spacing" textLength="81.25" x="604.375" y="219.2627">TestMapper</text><line style="stroke:#A80036;stroke-width:1.875;" x1="569.375" x2="688.125" y1="233.125" y2="233.125"/><text fill="#000000" font-family="sans-serif" font-size="13.75" lengthAdjust="spacing" textLength="85" x="575.625" y="252.3987">+toDTO(tests)</text><text fill="#000000" font-family="sans-serif" font-size="13.75" lengthAdjust="spacing" textLength="77.5" x="575.625" y="269.6936">+toDTO(test)</text><!--MD5=[a82d32c079496d6dca2681dc0633feb0]
class TestParameterMapper--><rect codeLine="65" fill="#FEFECE" filter="url(#f5oe9518sf7dc)" height="84.5898" id="TestParameterMapper" style="stroke:#A80036;stroke-width:1.875;" width="193.75" x="330.625" y="193.125"/><ellipse cx="349.375" cy="213.125" fill="#ADD1B2" rx="13.75" ry="13.75" style="stroke:#A80036;stroke-width:1.25;"/><path d="M351.875,208.75 Q352.1289,208.125 352.4219,207.8125 Q352.7148,207.5 353.0469,207.5 Q353.6328,207.5 354.0039,207.8516 Q354.375,208.2031 354.375,209.0234 L354.375,210.9766 Q354.375,211.7969 354.0234,212.1484 Q353.6719,212.5 353.125,212.5 Q352.6367,212.5 352.3242,212.2852 Q352.0117,212.0703 351.875,211.5039 Q351.8164,211.1133 351.6016,210.8984 Q351.2109,210.4883 350.5078,210.2539 Q349.8047,210 349.1016,210 Q348.2227,210 347.4805,210.3516 Q346.7578,210.7031 346.1914,211.4844 Q345.625,212.2656 345.625,213.3398 L345.625,214.4922 Q345.625,215.7813 346.6797,216.6406 Q347.7344,217.5 349.6094,217.5 Q350.7227,217.5 351.5039,217.2461 Q351.9531,217.1094 352.4609,216.6602 Q352.793,216.4063 352.9688,216.3281 Q353.1445,216.25 353.3594,216.25 Q353.7695,216.25 354.0625,216.582 Q354.375,216.8945 354.375,217.3438 Q354.375,217.7734 353.9453,218.2813 Q353.3203,219.0234 352.3242,219.4336 Q351.0156,220 349.4141,220 Q347.5391,220 346.0352,219.2578 Q344.8242,218.6719 343.9648,217.4023 Q343.125,216.1328 343.125,214.6289 L343.125,213.2617 Q343.125,211.6992 343.8672,210.332 Q344.6289,208.9648 345.9375,208.2422 Q347.2656,207.5 348.75,207.5 Q349.6484,207.5 350.4297,207.8125 Q351.2109,208.125 351.875,208.75 Z " fill="#000000"/><text fill="#000000" font-family="sans-serif" font-size="15" lengthAdjust="spacing" textLength="153.75" x="366.875" y="219.2627">TestParameterMapper</text><line style="stroke:#A80036;stroke-width:1.875;" x1="331.875" x2="523.125" y1="233.125" y2="233.125"/><text fill="#000000" font-family="sans-serif" font-size="13.75" lengthAdjust="spacing" textLength="138.75" x="338.125" y="252.3987">+toDTO(testParameter)</text><text fill="#000000" font-family="sans-serif" font-size="13.75" lengthAdjust="spacing" textLength="146.25" x="338.125" y="269.6936">+toDTO(testParameters)</text><!--MD5=[9fb704ffefcaf68bf1a361787afa998b]
class TestDTO--><rect codeLine="74" fill="#FEFECE" filter="url(#f5oe9518sf7dc)" height="94.5898" id="TestDTO" style="stroke:#A80036;stroke-width:1.875;" width="101.25" x="1013.125" y="188.125"/><ellipse cx="1031.875" cy="208.125" fill="#ADD1B2" rx="13.75" ry="13.75" style="stroke:#A80036;stroke-width:1.25;"/><path d="M1034.375,203.75 Q1034.6289,203.125 1034.9219,202.8125 Q1035.2148,202.5 1035.5469,202.5 Q1036.1328,202.5 1036.5039,202.8516 Q1036.875,203.2031 1036.875,204.0234 L1036.875,205.9766 Q1036.875,206.7969 1036.5234,207.1484 Q1036.1719,207.5 1035.625,207.5 Q1035.1367,207.5 1034.8242,207.2852 Q1034.5117,207.0703 1034.375,206.5039 Q1034.3164,206.1133 1034.1016,205.8984 Q1033.7109,205.4883 1033.0078,205.2539 Q1032.3047,205 1031.6016,205 Q1030.7227,205 1029.9805,205.3516 Q1029.2578,205.7031 1028.6914,206.4844 Q1028.125,207.2656 1028.125,208.3398 L1028.125,209.4922 Q1028.125,210.7813 1029.1797,211.6406 Q1030.2344,212.5 1032.1094,212.5 Q1033.2227,212.5 1034.0039,212.2461 Q1034.4531,212.1094 1034.9609,211.6602 Q1035.293,211.4063 1035.4688,211.3281 Q1035.6445,211.25 1035.8594,211.25 Q1036.2695,211.25 1036.5625,211.582 Q1036.875,211.8945 1036.875,212.3438 Q1036.875,212.7734 1036.4453,213.2813 Q1035.8203,214.0234 1034.8242,214.4336 Q1033.5156,215 1031.9141,215 Q1030.0391,215 1028.5352,214.2578 Q1027.3242,213.6719 1026.4648,212.4023 Q1025.625,211.1328 1025.625,209.6289 L1025.625,208.2617 Q1025.625,206.6992 1026.3672,205.332 Q1027.1289,203.9648 1028.4375,203.2422 Q1029.7656,202.5 1031.25,202.5 Q1032.1484,202.5 1032.9297,202.8125 Q1033.7109,203.125 1034.375,203.75 Z " fill="#000000"/><text fill="#000000" font-family="sans-serif" font-size="15" lengthAdjust="spacing" textLength="61.25" x="1049.375" y="214.2627">TestDTO</text><line style="stroke:#A80036;stroke-width:1.875;" x1="1014.375" x2="1113.125" y1="228.125" y2="228.125"/><text fill="#000000" font-family="sans-serif" font-size="13.75" lengthAdjust="spacing" textLength="73.75" x="1020.625" y="247.3987">-String code</text><line style="stroke:#A80036;stroke-width:1.875;" x1="1014.375" x2="1113.125" y1="255.4199" y2="255.4199"/><text fill="#000000" font-family="sans-serif" font-size="13.75" lengthAdjust="spacing" textLength="67.5" x="1020.625" y="274.6936">+getCode()</text><!--MD5=[77cd0d232cb0916388eba2b410e3de64]
class TestParametersDTO--><rect codeLine="79" fill="#FEFECE" filter="url(#f5oe9518sf7dc)" height="181.0645" id="TestParametersDTO" style="stroke:#A80036;stroke-width:1.875;" width="208.75" x="760.625" y="145"/><ellipse cx="791.1875" cy="165" fill="#ADD1B2" rx="13.75" ry="13.75" style="stroke:#A80036;stroke-width:1.25;"/><path d="M793.6875,160.625 Q793.9414,160 794.2344,159.6875 Q794.5273,159.375 794.8594,159.375 Q795.4453,159.375 795.8164,159.7266 Q796.1875,160.0781 796.1875,160.8984 L796.1875,162.8516 Q796.1875,163.6719 795.8359,164.0234 Q795.4844,164.375 794.9375,164.375 Q794.4492,164.375 794.1367,164.1602 Q793.8242,163.9453 793.6875,163.3789 Q793.6289,162.9883 793.4141,162.7734 Q793.0234,162.3633 792.3203,162.1289 Q791.6172,161.875 790.9141,161.875 Q790.0352,161.875 789.293,162.2266 Q788.5703,162.5781 788.0039,163.3594 Q787.4375,164.1406 787.4375,165.2148 L787.4375,166.3672 Q787.4375,167.6563 788.4922,168.5156 Q789.5469,169.375 791.4219,169.375 Q792.5352,169.375 793.3164,169.1211 Q793.7656,168.9844 794.2734,168.5352 Q794.6055,168.2813 794.7813,168.2031 Q794.957,168.125 795.1719,168.125 Q795.582,168.125 795.875,168.457 Q796.1875,168.7695 796.1875,169.2188 Q796.1875,169.6484 795.7578,170.1563 Q795.1328,170.8984 794.1367,171.3086 Q792.8281,171.875 791.2266,171.875 Q789.3516,171.875 787.8477,171.1328 Q786.6367,170.5469 785.7773,169.2773 Q784.9375,168.0078 784.9375,166.5039 L784.9375,165.1367 Q784.9375,163.5742 785.6797,162.207 Q786.4414,160.8398 787.75,160.1172 Q789.0781,159.375 790.5625,159.375 Q791.4609,159.375 792.2422,159.6875 Q793.0234,160 793.6875,160.625 Z " fill="#000000"/><text fill="#000000" font-family="sans-serif" font-size="15" lengthAdjust="spacing" textLength="142.5" x="811.3125" y="171.1377">TestParametersDTO</text><line style="stroke:#A80036;stroke-width:1.875;" x1="761.875" x2="968.125" y1="185" y2="185"/><text fill="#000000" font-family="sans-serif" font-size="13.75" lengthAdjust="spacing" textLength="131.25" x="768.125" y="204.2737">-Parameter parameter</text><text fill="#000000" font-family="sans-serif" font-size="13.75" lengthAdjust="spacing" textLength="193.75" x="768.125" y="221.5686">-TestParameterResult testResult</text><line style="stroke:#A80036;stroke-width:1.875;" x1="761.875" x2="968.125" y1="229.5898" y2="229.5898"/><text fill="#000000" font-family="sans-serif" font-size="13.75" lengthAdjust="spacing" textLength="97.5" x="768.125" y="248.8635">+getParameter()</text><text fill="#000000" font-family="sans-serif" font-size="13.75" lengthAdjust="spacing" textLength="161.25" x="768.125" y="266.1584">+getTestParameterResult()</text><text fill="#000000" font-family="sans-serif" font-size="13.75" lengthAdjust="spacing" textLength="108.75" x="768.125" y="283.4534">+getResultValue()</text><text fill="#000000" font-family="sans-serif" font-size="13.75" lengthAdjust="spacing" textLength="110" x="768.125" y="300.7483">+getResultMetric()</text><text fill="#000000" font-family="sans-serif" font-size="13.75" lengthAdjust="spacing" textLength="172.5" x="768.125" y="318.0432">+getResultReferenceValue()</text><!--MD5=[d7b8916e3117ca4a3ffdab4f31ea783a]
class WriteReportController--><rect codeLine="93" fill="#FEFECE" filter="url(#f5oe9518sf7dc)" height="163.7695" id="WriteReportController" style="stroke:#A80036;stroke-width:1.875;" width="188.75" x="70.625" y="153.75"/><ellipse cx="89.375" cy="173.75" fill="#ADD1B2" rx="13.75" ry="13.75" style="stroke:#A80036;stroke-width:1.25;"/><path d="M91.875,169.375 Q92.1289,168.75 92.4219,168.4375 Q92.7148,168.125 93.0469,168.125 Q93.6328,168.125 94.0039,168.4766 Q94.375,168.8281 94.375,169.6484 L94.375,171.6016 Q94.375,172.4219 94.0234,172.7734 Q93.6719,173.125 93.125,173.125 Q92.6367,173.125 92.3242,172.9102 Q92.0117,172.6953 91.875,172.1289 Q91.8164,171.7383 91.6016,171.5234 Q91.2109,171.1133 90.5078,170.8789 Q89.8047,170.625 89.1016,170.625 Q88.2227,170.625 87.4805,170.9766 Q86.7578,171.3281 86.1914,172.1094 Q85.625,172.8906 85.625,173.9648 L85.625,175.1172 Q85.625,176.4063 86.6797,177.2656 Q87.7344,178.125 89.6094,178.125 Q90.7227,178.125 91.5039,177.8711 Q91.9531,177.7344 92.4609,177.2852 Q92.793,177.0313 92.9688,176.9531 Q93.1445,176.875 93.3594,176.875 Q93.7695,176.875 94.0625,177.207 Q94.375,177.5195 94.375,177.9688 Q94.375,178.3984 93.9453,178.9063 Q93.3203,179.6484 92.3242,180.0586 Q91.0156,180.625 89.4141,180.625 Q87.5391,180.625 86.0352,179.8828 Q84.8242,179.2969 83.9648,178.0273 Q83.125,176.7578 83.125,175.2539 L83.125,173.8867 Q83.125,172.3242 83.8672,170.957 Q84.6289,169.5898 85.9375,168.8672 Q87.2656,168.125 88.75,168.125 Q89.6484,168.125 90.4297,168.4375 Q91.2109,168.75 91.875,169.375 Z " fill="#000000"/><text fill="#000000" font-family="sans-serif" font-size="15" lengthAdjust="spacing" textLength="148.75" x="106.875" y="179.8877">WriteReportController</text><line style="stroke:#A80036;stroke-width:1.875;" x1="71.875" x2="258.125" y1="193.75" y2="193.75"/><text fill="#000000" font-family="sans-serif" font-size="13.75" lengthAdjust="spacing" textLength="120" x="78.125" y="213.0237">-Company company</text><text fill="#000000" font-family="sans-serif" font-size="13.75" lengthAdjust="spacing" textLength="85" x="78.125" y="230.3186">-Report report</text><line style="stroke:#A80036;stroke-width:1.875;" x1="71.875" x2="258.125" y1="238.3398" y2="238.3398"/><text fill="#000000" font-family="sans-serif" font-size="13.75" lengthAdjust="spacing" textLength="158.75" x="78.125" y="257.6135">+createReport(reportText)</text><text fill="#000000" font-family="sans-serif" font-size="13.75" lengthAdjust="spacing" textLength="151.25" x="78.125" y="274.9084">+addReportToTest(code)</text><text fill="#000000" font-family="sans-serif" font-size="13.75" lengthAdjust="spacing" textLength="141.25" x="78.125" y="292.2034">+getTestsToDiagnose()</text><text fill="#000000" font-family="sans-serif" font-size="13.75" lengthAdjust="spacing" textLength="161.25" x="78.125" y="309.4983">+getTestParameters(code)</text><!--MD5=[71fba8c2abd557a2f7006580273aba3e]
class WriteReportUI--><rect codeLine="110" fill="#FEFECE" filter="url(#f5oe9518sf7dc)" height="40" id="WriteReportUI" style="stroke:#A80036;stroke-width:1.875;" width="136.25" x="2133.125" y="215.625"/><ellipse cx="2151.875" cy="235.625" fill="#ADD1B2" rx="13.75" ry="13.75" style="stroke:#A80036;stroke-width:1.25;"/><path d="M2154.375,231.25 Q2154.6289,230.625 2154.9219,230.3125 Q2155.2148,230 2155.5469,230 Q2156.1328,230 2156.5039,230.3516 Q2156.875,230.7031 2156.875,231.5234 L2156.875,233.4766 Q2156.875,234.2969 2156.5234,234.6484 Q2156.1719,235 2155.625,235 Q2155.1367,235 2154.8242,234.7852 Q2154.5117,234.5703 2154.375,234.0039 Q2154.3164,233.6133 2154.1016,233.3984 Q2153.7109,232.9883 2153.0078,232.7539 Q2152.3047,232.5 2151.6016,232.5 Q2150.7227,232.5 2149.9805,232.8516 Q2149.2578,233.2031 2148.6914,233.9844 Q2148.125,234.7656 2148.125,235.8398 L2148.125,236.9922 Q2148.125,238.2813 2149.1797,239.1406 Q2150.2344,240 2152.1094,240 Q2153.2227,240 2154.0039,239.7461 Q2154.4531,239.6094 2154.9609,239.1602 Q2155.293,238.9063 2155.4688,238.8281 Q2155.6445,238.75 2155.8594,238.75 Q2156.2695,238.75 2156.5625,239.082 Q2156.875,239.3945 2156.875,239.8438 Q2156.875,240.2734 2156.4453,240.7813 Q2155.8203,241.5234 2154.8242,241.9336 Q2153.5156,242.5 2151.9141,242.5 Q2150.0391,242.5 2148.5352,241.7578 Q2147.3242,241.1719 2146.4648,239.9023 Q2145.625,238.6328 2145.625,237.1289 L2145.625,235.7617 Q2145.625,234.1992 2146.3672,232.832 Q2147.1289,231.4648 2148.4375,230.7422 Q2149.7656,230 2151.25,230 Q2152.1484,230 2152.9297,230.3125 Q2153.7109,230.625 2154.375,231.25 Z " fill="#000000"/><text fill="#000000" font-family="sans-serif" font-size="15" lengthAdjust="spacing" textLength="96.25" x="2169.375" y="241.7627">WriteReportUI</text><!--MD5=[670dbdf7395d3fcbb40104f0a070263e]
link Company to Report--><!--MD5=[7e4bc624457760b649895ff2ead938fa]
link Company to Test--><!--MD5=[f24c888dadeb846430474fe80a58922b]
link Test to TestParameter--><!--MD5=[c7a289fcb9fc78e003ad0f6a7c2dc515]
@startuml
hide empty methods
hide empty attributes
'left to right direction
skinparam classAttributeIconSize 0

package Core {

package Domain {

package Model {

class Company {
    -String designation
    -TestStore testStore
    +getTestStore()
    +createReport(reportText)
}

class Report {
    - String reportText
    + Report(reportText)
    + checkReportTextRules(reportText)
    + countWords(reportText)
    + toString()
}

class Test {
    -String code
    -Report diagnosisReport
    -List<TestParameter> testParameters
    +getParameters()
    +hasSamplesAnalysed()
    +addReport(report)
}

class TestParameter {
    -Parameter parameter
    -TestParameterResult testResult
    +getParameter()
    +getParameterResult()
}

}

package Stores {

class TestStore {
    -list<Test> testList
    +getTestsReadyToDiagnose()
    +getTestByCode(code)
    +getTestParameters(tst)
}

}

}

package Mappers {

class TestMapper {
    +toDTO(tests)
    +toDTO(test)
}

class TestParameterMapper {
    +toDTO(testParameter)
    +toDTO(testParameters)
}

}

package DTO {

class TestDTO {
    -String code
    +getCode()
}

class TestParametersDTO {
    -Parameter parameter
    -TestParameterResult testResult
    +getParameter()
    +getTestParameterResult()
    +getResultValue()
    +getResultMetric()
    +getResultReferenceValue()
}

}

package Controllers {

class WriteReportController {
    -Company company
    -Report report
    +createReport(reportText)
    +addReportToTest(code)
    +getTestsToDiagnose()
    +getTestParameters(code)
}

}

}

package UI {

package Console {

class WriteReportUI {
}

}

}

@enduml

@startuml
hide empty methods
hide empty attributes
skinparam classAttributeIconSize 0

package Core {

package Domain {

package Model {

class Company {
    -String designation
    -TestStore testStore
    +getTestStore()
    +createReport(reportText)
}

class Report {
    - String reportText
    + Report(reportText)
    + checkReportTextRules(reportText)
    + countWords(reportText)
    + toString()
}

class Test {
    -String code
    -Report diagnosisReport
    -List<TestParameter> testParameters
    +getParameters()
    +hasSamplesAnalysed()
    +addReport(report)
}

class TestParameter {
    -Parameter parameter
    -TestParameterResult testResult
    +getParameter()
    +getParameterResult()
}

}

package Stores {

class TestStore {
    -list<Test> testList
    +getTestsReadyToDiagnose()
    +getTestByCode(code)
    +getTestParameters(tst)
}

}

}

package Mappers {

class TestMapper {
    +toDTO(tests)
    +toDTO(test)
}

class TestParameterMapper {
    +toDTO(testParameter)
    +toDTO(testParameters)
}

}

package DTO {

class TestDTO {
    -String code
    +getCode()
}

class TestParametersDTO {
    -Parameter parameter
    -TestParameterResult testResult
    +getParameter()
    +getTestParameterResult()
    +getResultValue()
    +getResultMetric()
    +getResultReferenceValue()
}

}

package Controllers {

class WriteReportController {
    -Company company
    -Report report
    +createReport(reportText)
    +addReportToTest(code)
    +getTestsToDiagnose()
    +getTestParameters(code)
}

}

}

package UI {

package Console {

class WriteReportUI {
}

}

}

@enduml

PlantUML version 1.2021.5(Sun Apr 25 12:20:28 BST 2021)
(GPL source distribution)
Java Runtime: OpenJDK Runtime Environment
JVM: Dynamic Code Evolution 64-Bit Server VM
Default Encoding: Cp1252
Language: pt
Country: PT
--></g></svg>