<?xml version="1.0" encoding="UTF-8" standalone="no"?><svg xmlns="http://www.w3.org/2000/svg" xmlns:xlink="http://www.w3.org/1999/xlink" contentScriptType="application/ecmascript" contentStyleType="text/css" height="547.5px" preserveAspectRatio="none" style="width:693px;height:547px;" version="1.1" viewBox="0 0 693 547" width="693.75px" zoomAndPan="magnify"><defs><filter height="300%" id="f1rname034uv1f" width="300%" x="-1" y="-1"><feGaussianBlur result="blurOut" stdDeviation="2.5"/><feColorMatrix in="blurOut" result="blurOut2" type="matrix" values="0 0 0 0 0 0 0 0 0 0 0 0 0 0 0 0 0 0 .4 0"/><feOffset dx="5.0" dy="5.0" in="blurOut2" result="blurOut3"/><feBlend in="SourceGraphic" in2="blurOut3" mode="normal"/></filter></defs><g><rect fill="#FFFFFF" filter="url(#f1rname034uv1f)" height="293.5156" style="stroke:#A80036;stroke-width:1.25;" width="12.5" x="70" y="124.5117"/><rect fill="#FFFFFF" filter="url(#f1rname034uv1f)" height="37.9395" style="stroke:#A80036;stroke-width:1.25;" width="12.5" x="632.5" y="152.4512"/><rect fill="#FFFFFF" filter="url(#f1rname034uv1f)" height="37.9395" style="stroke:#A80036;stroke-width:1.25;" width="12.5" x="632.5" y="228.3301"/><rect fill="#FFFFFF" filter="url(#f1rname034uv1f)" height="37.9395" style="stroke:#A80036;stroke-width:1.25;" width="12.5" x="632.5" y="304.209"/><rect fill="#FFFFFF" filter="url(#f1rname034uv1f)" height="37.9395" style="stroke:#A80036;stroke-width:1.25;" width="12.5" x="632.5" y="380.0879"/><line style="stroke:#A80036;stroke-width:1.25;stroke-dasharray:5.0,5.0;" x1="76.25" x2="76.25" y1="112.0117" y2="440.5273"/><line style="stroke:#A80036;stroke-width:1.25;stroke-dasharray:5.0,5.0;" x1="638.75" x2="638.75" y1="112.0117" y2="440.5273"/><text fill="#000000" font-family="sans-serif" font-size="17.5" lengthAdjust="spacing" textLength="132.5" x="6.25" y="108.1665">Specialist Doctor</text><ellipse cx="76.25" cy="18.75" fill="#FEFECE" filter="url(#f1rname034uv1f)" rx="10" ry="10" style="stroke:#A80036;stroke-width:2.5;"/><path d="M76.25,28.75 L76.25,62.5 M60,38.75 L92.5,38.75 M76.25,62.5 L60,81.25 M76.25,62.5 L92.5,81.25 " fill="none" filter="url(#f1rname034uv1f)" style="stroke:#A80036;stroke-width:2.5;"/><text fill="#000000" font-family="sans-serif" font-size="17.5" lengthAdjust="spacing" textLength="132.5" x="6.25" y="457.4438">Specialist Doctor</text><ellipse cx="76.25" cy="473.7891" fill="#FEFECE" filter="url(#f1rname034uv1f)" rx="10" ry="10" style="stroke:#A80036;stroke-width:2.5;"/><path d="M76.25,483.7891 L76.25,517.5391 M60,493.7891 L92.5,493.7891 M76.25,517.5391 L60,536.2891 M76.25,517.5391 L92.5,536.2891 " fill="none" filter="url(#f1rname034uv1f)" style="stroke:#A80036;stroke-width:2.5;"/><rect fill="#FEFECE" filter="url(#f1rname034uv1f)" height="39.5117" style="stroke:#A80036;stroke-width:1.875;" width="80" x="596.25" y="66.25"/><text fill="#000000" font-family="sans-serif" font-size="17.5" lengthAdjust="spacing" textLength="62.5" x="605" y="93.1665">:System</text><rect fill="#FEFECE" filter="url(#f1rname034uv1f)" height="39.5117" style="stroke:#A80036;stroke-width:1.875;" width="80" x="596.25" y="439.2773"/><text fill="#000000" font-family="sans-serif" font-size="17.5" lengthAdjust="spacing" textLength="62.5" x="605" y="466.1938">:System</text><rect fill="#FFFFFF" filter="url(#f1rname034uv1f)" height="293.5156" style="stroke:#A80036;stroke-width:1.25;" width="12.5" x="70" y="124.5117"/><rect fill="#FFFFFF" filter="url(#f1rname034uv1f)" height="37.9395" style="stroke:#A80036;stroke-width:1.25;" width="12.5" x="632.5" y="152.4512"/><rect fill="#FFFFFF" filter="url(#f1rname034uv1f)" height="37.9395" style="stroke:#A80036;stroke-width:1.25;" width="12.5" x="632.5" y="228.3301"/><rect fill="#FFFFFF" filter="url(#f1rname034uv1f)" height="37.9395" style="stroke:#A80036;stroke-width:1.25;" width="12.5" x="632.5" y="304.209"/><rect fill="#FFFFFF" filter="url(#f1rname034uv1f)" height="37.9395" style="stroke:#A80036;stroke-width:1.25;" width="12.5" x="632.5" y="380.0879"/><polygon fill="#A80036" points="617.5,147.4512,630,152.4512,617.5,157.4512,622.5,152.4512" style="stroke:#A80036;stroke-width:1.25;"/><line style="stroke:#A80036;stroke-width:1.25;" x1="82.5" x2="625" y1="152.4512" y2="152.4512"/><text fill="#000000" font-family="sans-serif" font-size="16.25" font-weight="bold" lengthAdjust="spacing" textLength="8.75" x="91.25" y="146.3806">1</text><text fill="#000000" font-family="sans-serif" font-size="16.25" lengthAdjust="spacing" textLength="316.25" x="105" y="146.3806">asks to make a diagnosis and write a report</text><polygon fill="#A80036" points="96.25,185.3906,83.75,190.3906,96.25,195.3906,91.25,190.3906" style="stroke:#A80036;stroke-width:1.25;"/><line style="stroke:#A80036;stroke-width:1.25;stroke-dasharray:2.0,2.0;" x1="88.75" x2="637.5" y1="190.3906" y2="190.3906"/><text fill="#000000" font-family="sans-serif" font-size="16.25" font-weight="bold" lengthAdjust="spacing" textLength="8.75" x="103.75" y="184.3201">2</text><text fill="#000000" font-family="sans-serif" font-size="16.25" lengthAdjust="spacing" textLength="506.25" x="117.5" y="184.3201">shows list of tests ready to make a diagnosis and asks to selects one</text><polygon fill="#A80036" points="617.5,223.3301,630,228.3301,617.5,233.3301,622.5,228.3301" style="stroke:#A80036;stroke-width:1.25;"/><line style="stroke:#A80036;stroke-width:1.25;" x1="82.5" x2="625" y1="228.3301" y2="228.3301"/><text fill="#000000" font-family="sans-serif" font-size="16.25" font-weight="bold" lengthAdjust="spacing" textLength="8.75" x="91.25" y="222.2595">3</text><text fill="#000000" font-family="sans-serif" font-size="16.25" lengthAdjust="spacing" textLength="98.75" x="105" y="222.2595">selects a test</text><polygon fill="#A80036" points="96.25,261.2695,83.75,266.2695,96.25,271.2695,91.25,266.2695" style="stroke:#A80036;stroke-width:1.25;"/><line style="stroke:#A80036;stroke-width:1.25;stroke-dasharray:2.0,2.0;" x1="88.75" x2="637.5" y1="266.2695" y2="266.2695"/><text fill="#000000" font-family="sans-serif" font-size="16.25" font-weight="bold" lengthAdjust="spacing" textLength="8.75" x="103.75" y="260.199">4</text><text fill="#000000" font-family="sans-serif" font-size="16.25" lengthAdjust="spacing" textLength="182.5" x="117.5" y="260.199">requests data(i.e., report)</text><polygon fill="#A80036" points="617.5,299.209,630,304.209,617.5,309.209,622.5,304.209" style="stroke:#A80036;stroke-width:1.25;"/><line style="stroke:#A80036;stroke-width:1.25;" x1="82.5" x2="625" y1="304.209" y2="304.209"/><text fill="#000000" font-family="sans-serif" font-size="16.25" font-weight="bold" lengthAdjust="spacing" textLength="8.75" x="91.25" y="298.1384">5</text><text fill="#000000" font-family="sans-serif" font-size="16.25" lengthAdjust="spacing" textLength="152.5" x="105" y="298.1384">types requested data</text><polygon fill="#A80036" points="96.25,337.1484,83.75,342.1484,96.25,347.1484,91.25,342.1484" style="stroke:#A80036;stroke-width:1.25;"/><line style="stroke:#A80036;stroke-width:1.25;stroke-dasharray:2.0,2.0;" x1="88.75" x2="637.5" y1="342.1484" y2="342.1484"/><text fill="#000000" font-family="sans-serif" font-size="16.25" font-weight="bold" lengthAdjust="spacing" textLength="8.75" x="103.75" y="336.0779">6</text><text fill="#000000" font-family="sans-serif" font-size="16.25" lengthAdjust="spacing" textLength="315" x="117.5" y="336.0779">shows the data and requests a confirmation</text><polygon fill="#A80036" points="617.5,375.0879,630,380.0879,617.5,385.0879,622.5,380.0879" style="stroke:#A80036;stroke-width:1.25;"/><line style="stroke:#A80036;stroke-width:1.25;" x1="82.5" x2="625" y1="380.0879" y2="380.0879"/><text fill="#000000" font-family="sans-serif" font-size="16.25" font-weight="bold" lengthAdjust="spacing" textLength="8.75" x="91.25" y="374.0173">7</text><text fill="#000000" font-family="sans-serif" font-size="16.25" lengthAdjust="spacing" textLength="125" x="105" y="374.0173">confirms the data</text><polygon fill="#A80036" points="90,413.0273,77.5,418.0273,90,423.0273,85,418.0273" style="stroke:#A80036;stroke-width:1.25;"/><line style="stroke:#A80036;stroke-width:1.25;stroke-dasharray:2.0,2.0;" x1="82.5" x2="637.5" y1="418.0273" y2="418.0273"/><text fill="#000000" font-family="sans-serif" font-size="16.25" font-weight="bold" lengthAdjust="spacing" textLength="8.75" x="97.5" y="411.9568">8</text><text fill="#000000" font-family="sans-serif" font-size="16.25" lengthAdjust="spacing" textLength="190" x="111.25" y="411.9568">informs operation success</text><!--MD5=[cb1f88edaaf715f688e19224031638fb]
@startuml
autonumber
actor "Specialist Doctor" as SpDt

activate SpDt
SpDt-> ":System" : asks to make a diagnosis and write a report
activate ":System"
":System" - -> SpDt : shows list of tests ready to make a diagnosis and asks to selects one
deactivate ":System"

SpDt-> ":System" : selects a test
activate ":System"
":System" - -> SpDt : requests data(i.e., report)
deactivate ":System"

SpDt-> ":System" : types requested data
activate ":System"
":System" - -> SpDt : shows the data and requests a confirmation
deactivate ":System"

SpDt-> ":System" : confirms the data
activate ":System"
":System" - -> SpDt : informs operation success
deactivate ":System"
deactivate SpDt

@enduml

PlantUML version 1.2021.5(Sun Apr 25 12:20:28 BST 2021)
(GPL source distribution)
Java Runtime: OpenJDK Runtime Environment
JVM: Dynamic Code Evolution 64-Bit Server VM
Default Encoding: Cp1252
Language: pt
Country: PT
--></g></svg>