<?xml version="1.0" encoding="UTF-8" standalone="no"?><svg xmlns="http://www.w3.org/2000/svg" xmlns:xlink="http://www.w3.org/1999/xlink" contentScriptType="application/ecmascript" contentStyleType="text/css" height="770px" preserveAspectRatio="none" style="width:1323px;height:770px;" version="1.1" viewBox="0 0 1323 770" width="1323px" zoomAndPan="magnify"><defs><filter height="300%" id="f1wsb53w2htq1k" width="300%" x="-1" y="-1"><feGaussianBlur result="blurOut" stdDeviation="2.0"/><feColorMatrix in="blurOut" result="blurOut2" type="matrix" values="0 0 0 0 0 0 0 0 0 0 0 0 0 0 0 0 0 0 .4 0"/><feOffset dx="4.0" dy="4.0" in="blurOut2" result="blurOut3"/><feBlend in="SourceGraphic" in2="blurOut3" mode="normal"/></filter></defs><g><!--MD5=[2c2e2644034c00788261e03c85b06837]
cluster Core--><polygon fill="#FFFFFF" filter="url(#f1wsb53w2htq1k)" points="238,6,278,6,285,29.6094,1306,29.6094,1306,724,238,724,238,6" style="stroke:#000000;stroke-width:1.5;"/><line style="stroke:#000000;stroke-width:1.5;" x1="238" x2="285" y1="29.6094" y2="29.6094"/><text fill="#000000" font-family="sans-serif" font-size="14" font-weight="bold" lengthAdjust="spacing" textLength="34" x="242" y="22.5332">Core</text><!--MD5=[121a8bf1197281ab89ed693fab589f94]
cluster Domain--><polygon fill="#FFFFFF" filter="url(#f1wsb53w2htq1k)" points="479,240,537,240,544,263.6094,1282,263.6094,1282,700,479,700,479,240" style="stroke:#000000;stroke-width:1.5;"/><line style="stroke:#000000;stroke-width:1.5;" x1="479" x2="544" y1="263.6094" y2="263.6094"/><text fill="#000000" font-family="sans-serif" font-size="14" font-weight="bold" lengthAdjust="spacing" textLength="52" x="483" y="256.5332">Domain</text><!--MD5=[15636c1ca4a123c16a2a1a8e90aca7a9]
cluster Model--><polygon fill="#FFFFFF" filter="url(#f1wsb53w2htq1k)" points="503,284,553,284,560,307.6094,1216,307.6094,1216,496,503,496,503,284" style="stroke:#000000;stroke-width:1.5;"/><line style="stroke:#000000;stroke-width:1.5;" x1="503" x2="560" y1="307.6094" y2="307.6094"/><text fill="#000000" font-family="sans-serif" font-size="14" font-weight="bold" lengthAdjust="spacing" textLength="44" x="507" y="300.5332">Model</text><!--MD5=[8dd535d56cd4cf7faf64fdd082ba836e]
cluster Stores--><polygon fill="#FFFFFF" filter="url(#f1wsb53w2htq1k)" points="1049,520,1101,520,1108,543.6094,1258,543.6094,1258,676,1049,676,1049,520" style="stroke:#000000;stroke-width:1.5;"/><line style="stroke:#000000;stroke-width:1.5;" x1="1049" x2="1108" y1="543.6094" y2="543.6094"/><text fill="#000000" font-family="sans-serif" font-size="14" font-weight="bold" lengthAdjust="spacing" textLength="46" x="1053" y="536.5332">Stores</text><!--MD5=[701152d03fbf85133a1de050cfdbc7fd]
cluster Mappers--><polygon fill="#FFFFFF" filter="url(#f1wsb53w2htq1k)" points="496,78,564,78,571,101.6094,681,101.6094,681,198,496,198,496,78" style="stroke:#000000;stroke-width:1.5;"/><line style="stroke:#000000;stroke-width:1.5;" x1="496" x2="571" y1="101.6094" y2="101.6094"/><text fill="#000000" font-family="sans-serif" font-size="14" font-weight="bold" lengthAdjust="spacing" textLength="62" x="500" y="94.5332">Mappers</text><!--MD5=[7b8bc9ee8bb84b99fb3a3f9477c19238]
cluster DTO--><polygon fill="#FFFFFF" filter="url(#f1wsb53w2htq1k)" points="789,60,824,60,831,83.6094,954,83.6094,954,216,789,216,789,60" style="stroke:#000000;stroke-width:1.5;"/><line style="stroke:#000000;stroke-width:1.5;" x1="789" x2="831" y1="83.6094" y2="83.6094"/><text fill="#000000" font-family="sans-serif" font-size="14" font-weight="bold" lengthAdjust="spacing" textLength="29" x="793" y="76.5332">DTO</text><!--MD5=[ed1d20ea533a2a0e7df5ba3c35e56ced]
cluster Controllers--><polygon fill="#FFFFFF" filter="url(#f1wsb53w2htq1k)" points="262,305,347,305,354,328.6094,446,328.6094,446,475,262,475,262,305" style="stroke:#000000;stroke-width:1.5;"/><line style="stroke:#000000;stroke-width:1.5;" x1="262" x2="354" y1="328.6094" y2="328.6094"/><text fill="#000000" font-family="sans-serif" font-size="14" font-weight="bold" lengthAdjust="spacing" textLength="79" x="266" y="321.5332">Controllers</text><!--MD5=[9681dc6e01e10c6b4fe06895ae94f592]
cluster UI--><polygon fill="#FFFFFF" filter="url(#f1wsb53w2htq1k)" points="16,611,36,611,43,634.6094,205,634.6094,205,763,16,763,16,611" style="stroke:#000000;stroke-width:1.5;"/><line style="stroke:#000000;stroke-width:1.5;" x1="16" x2="43" y1="634.6094" y2="634.6094"/><text fill="#000000" font-family="sans-serif" font-size="14" font-weight="bold" lengthAdjust="spacing" textLength="14" x="20" y="627.5332">UI</text><!--MD5=[4851e5193cf5e7abdec7b18b3bca50f8]
cluster Console--><polygon fill="#FFFFFF" filter="url(#f1wsb53w2htq1k)" points="40,655,104,655,111,678.6094,181,678.6094,181,739,40,739,40,655" style="stroke:#000000;stroke-width:1.5;"/><line style="stroke:#000000;stroke-width:1.5;" x1="40" x2="111" y1="678.6094" y2="678.6094"/><text fill="#000000" font-family="sans-serif" font-size="14" font-weight="bold" lengthAdjust="spacing" textLength="58" x="44" y="671.5332">Console</text><!--MD5=[02e4b9b7573f1156f41e60aa5b4e25a4]
class Company--><rect codeLine="12" fill="#FEFECE" filter="url(#f1wsb53w2htq1k)" height="103.3438" id="Company" style="stroke:#A80036;stroke-width:1.5;" width="139" x="519" y="348.5"/><ellipse cx="558.3" cy="364.5" fill="#ADD1B2" rx="11" ry="11" style="stroke:#A80036;stroke-width:1.0;"/><path d="M560.3,361 Q560.5031,360.5 560.7375,360.25 Q560.9719,360 561.2375,360 Q561.7063,360 562.0031,360.2813 Q562.3,360.5625 562.3,361.2188 L562.3,362.7813 Q562.3,363.4375 562.0188,363.7188 Q561.7375,364 561.3,364 Q560.9094,364 560.6594,363.8281 Q560.4094,363.6563 560.3,363.2031 Q560.2531,362.8906 560.0813,362.7188 Q559.7688,362.3906 559.2063,362.2031 Q558.6438,362 558.0813,362 Q557.3781,362 556.7844,362.2813 Q556.2063,362.5625 555.7531,363.1875 Q555.3,363.8125 555.3,364.6719 L555.3,365.5938 Q555.3,366.625 556.1438,367.3125 Q556.9875,368 558.4875,368 Q559.3781,368 560.0031,367.7969 Q560.3625,367.6875 560.7688,367.3281 Q561.0344,367.125 561.175,367.0625 Q561.3156,367 561.4875,367 Q561.8156,367 562.05,367.2656 Q562.3,367.5156 562.3,367.875 Q562.3,368.2188 561.9563,368.625 Q561.4563,369.2188 560.6594,369.5469 Q559.6125,370 558.3313,370 Q556.8313,370 555.6281,369.4063 Q554.6594,368.9375 553.9719,367.9219 Q553.3,366.9063 553.3,365.7031 L553.3,364.6094 Q553.3,363.3594 553.8938,362.2656 Q554.5031,361.1719 555.55,360.5938 Q556.6125,360 557.8,360 Q558.5188,360 559.1438,360.25 Q559.7688,360.5 560.3,361 Z " fill="#000000"/><text fill="#000000" font-family="sans-serif" font-size="12" lengthAdjust="spacing" textLength="53" x="577.7" y="369.4102">Company</text><line style="stroke:#A80036;stroke-width:1.5;" x1="520" x2="657" y1="380.5" y2="380.5"/><text fill="#000000" font-family="sans-serif" font-size="11" lengthAdjust="spacing" textLength="90" x="525" y="395.9189">-String designation</text><text fill="#000000" font-family="sans-serif" font-size="11" lengthAdjust="spacing" textLength="98" x="525" y="409.7549">-TestStore testStore</text><line style="stroke:#A80036;stroke-width:1.5;" x1="520" x2="657" y1="416.1719" y2="416.1719"/><text fill="#000000" font-family="sans-serif" font-size="11" lengthAdjust="spacing" textLength="76" x="525" y="431.5908">+getTestStore()</text><text fill="#000000" font-family="sans-serif" font-size="11" lengthAdjust="spacing" textLength="127" x="525" y="445.4268">+createReport(reportText)</text><!--MD5=[f00dbe8c0302c6aec2cb26b3c659c8fc]
class Report--><rect codeLine="19" fill="#FEFECE" filter="url(#f1wsb53w2htq1k)" height="158.6875" id="Report" style="stroke:#A80036;stroke-width:1.5;" width="185" x="779" y="320.5"/><ellipse cx="848.75" cy="336.5" fill="#ADD1B2" rx="11" ry="11" style="stroke:#A80036;stroke-width:1.0;"/><path d="M850.75,333 Q850.9531,332.5 851.1875,332.25 Q851.4219,332 851.6875,332 Q852.1563,332 852.4531,332.2813 Q852.75,332.5625 852.75,333.2188 L852.75,334.7813 Q852.75,335.4375 852.4688,335.7188 Q852.1875,336 851.75,336 Q851.3594,336 851.1094,335.8281 Q850.8594,335.6563 850.75,335.2031 Q850.7031,334.8906 850.5313,334.7188 Q850.2188,334.3906 849.6563,334.2031 Q849.0938,334 848.5313,334 Q847.8281,334 847.2344,334.2813 Q846.6563,334.5625 846.2031,335.1875 Q845.75,335.8125 845.75,336.6719 L845.75,337.5938 Q845.75,338.625 846.5938,339.3125 Q847.4375,340 848.9375,340 Q849.8281,340 850.4531,339.7969 Q850.8125,339.6875 851.2188,339.3281 Q851.4844,339.125 851.625,339.0625 Q851.7656,339 851.9375,339 Q852.2656,339 852.5,339.2656 Q852.75,339.5156 852.75,339.875 Q852.75,340.2188 852.4063,340.625 Q851.9063,341.2188 851.1094,341.5469 Q850.0625,342 848.7813,342 Q847.2813,342 846.0781,341.4063 Q845.1094,340.9375 844.4219,339.9219 Q843.75,338.9063 843.75,337.7031 L843.75,336.6094 Q843.75,335.3594 844.3438,334.2656 Q844.9531,333.1719 846,332.5938 Q847.0625,332 848.25,332 Q848.9688,332 849.5938,332.25 Q850.2188,332.5 850.75,333 Z " fill="#000000"/><text fill="#000000" font-family="sans-serif" font-size="12" lengthAdjust="spacing" textLength="37" x="869.25" y="341.4102">Report</text><line style="stroke:#A80036;stroke-width:1.5;" x1="780" x2="963" y1="352.5" y2="352.5"/><text fill="#000000" font-family="sans-serif" font-size="11" lengthAdjust="spacing" textLength="158" x="785" y="367.9189">-int REPORTTEXT_MAX_LENGTH</text><text fill="#000000" font-family="sans-serif" font-size="11" lengthAdjust="spacing" textLength="85" x="785" y="381.7549">-String reportText</text><text fill="#000000" font-family="sans-serif" font-size="11" lengthAdjust="spacing" textLength="68" x="785" y="395.5908">-Report report</text><line style="stroke:#A80036;stroke-width:1.5;" x1="780" x2="963" y1="402.0078" y2="402.0078"/><text fill="#000000" font-family="sans-serif" font-size="11" lengthAdjust="spacing" textLength="96" x="785" y="417.4268">+Report(reportText)</text><text fill="#000000" font-family="sans-serif" font-size="11" lengthAdjust="spacing" textLength="173" x="785" y="431.2627">+checkReportTextRules(reportText)</text><text fill="#000000" font-family="sans-serif" font-size="11" lengthAdjust="spacing" textLength="123" x="785" y="445.0986">+countWords(reportText)</text><text fill="#000000" font-family="sans-serif" font-size="11" lengthAdjust="spacing" textLength="106" x="785" y="458.9346">+equals(reportObject)</text><text fill="#000000" font-family="sans-serif" font-size="11" lengthAdjust="spacing" textLength="95" x="785" y="472.7705">+create(reportText)</text><!--MD5=[df38be88ccee13e832d6fafd6288a4ca]
class Test--><rect codeLine="30" fill="#FEFECE" filter="url(#f1wsb53w2htq1k)" height="89.5078" id="Test" style="stroke:#A80036;stroke-width:1.5;" width="93" x="1107" y="355"/><ellipse cx="1138.65" cy="371" fill="#ADD1B2" rx="11" ry="11" style="stroke:#A80036;stroke-width:1.0;"/><path d="M1140.65,367.5 Q1140.8531,367 1141.0875,366.75 Q1141.3219,366.5 1141.5875,366.5 Q1142.0563,366.5 1142.3531,366.7813 Q1142.65,367.0625 1142.65,367.7188 L1142.65,369.2813 Q1142.65,369.9375 1142.3688,370.2188 Q1142.0875,370.5 1141.65,370.5 Q1141.2594,370.5 1141.0094,370.3281 Q1140.7594,370.1563 1140.65,369.7031 Q1140.6031,369.3906 1140.4313,369.2188 Q1140.1188,368.8906 1139.5563,368.7031 Q1138.9938,368.5 1138.4313,368.5 Q1137.7281,368.5 1137.1344,368.7813 Q1136.5563,369.0625 1136.1031,369.6875 Q1135.65,370.3125 1135.65,371.1719 L1135.65,372.0938 Q1135.65,373.125 1136.4938,373.8125 Q1137.3375,374.5 1138.8375,374.5 Q1139.7281,374.5 1140.3531,374.2969 Q1140.7125,374.1875 1141.1188,373.8281 Q1141.3844,373.625 1141.525,373.5625 Q1141.6656,373.5 1141.8375,373.5 Q1142.1656,373.5 1142.4,373.7656 Q1142.65,374.0156 1142.65,374.375 Q1142.65,374.7188 1142.3063,375.125 Q1141.8063,375.7188 1141.0094,376.0469 Q1139.9625,376.5 1138.6813,376.5 Q1137.1813,376.5 1135.9781,375.9063 Q1135.0094,375.4375 1134.3219,374.4219 Q1133.65,373.4063 1133.65,372.2031 L1133.65,371.1094 Q1133.65,369.8594 1134.2438,368.7656 Q1134.8531,367.6719 1135.9,367.0938 Q1136.9625,366.5 1138.15,366.5 Q1138.8688,366.5 1139.4938,366.75 Q1140.1188,367 1140.65,367.5 Z " fill="#000000"/><text fill="#000000" font-family="sans-serif" font-size="12" lengthAdjust="spacing" textLength="24" x="1156.35" y="375.9102">Test</text><line style="stroke:#A80036;stroke-width:1.5;" x1="1108" x2="1199" y1="387" y2="387"/><text fill="#000000" font-family="sans-serif" font-size="11" lengthAdjust="spacing" textLength="81" x="1113" y="402.4189">-String NHSCode</text><text fill="#000000" font-family="sans-serif" font-size="11" lengthAdjust="spacing" textLength="59" x="1113" y="416.2549">-String code</text><line style="stroke:#A80036;stroke-width:1.5;" x1="1108" x2="1199" y1="422.6719" y2="422.6719"/><text fill="#000000" font-family="sans-serif" font-size="11" lengthAdjust="spacing" textLength="54" x="1113" y="438.0908">+getCode()</text><!--MD5=[0f6f7964b844a64b0496af0dda7914bd]
class TestStore--><rect codeLine="40" fill="#FEFECE" filter="url(#f1wsb53w2htq1k)" height="103.3438" id="TestStore" style="stroke:#A80036;stroke-width:1.5;" width="177" x="1065" y="556.5"/><ellipse cx="1122.75" cy="572.5" fill="#ADD1B2" rx="11" ry="11" style="stroke:#A80036;stroke-width:1.0;"/><path d="M1124.75,569 Q1124.9531,568.5 1125.1875,568.25 Q1125.4219,568 1125.6875,568 Q1126.1563,568 1126.4531,568.2813 Q1126.75,568.5625 1126.75,569.2188 L1126.75,570.7813 Q1126.75,571.4375 1126.4688,571.7188 Q1126.1875,572 1125.75,572 Q1125.3594,572 1125.1094,571.8281 Q1124.8594,571.6563 1124.75,571.2031 Q1124.7031,570.8906 1124.5313,570.7188 Q1124.2188,570.3906 1123.6563,570.2031 Q1123.0938,570 1122.5313,570 Q1121.8281,570 1121.2344,570.2813 Q1120.6563,570.5625 1120.2031,571.1875 Q1119.75,571.8125 1119.75,572.6719 L1119.75,573.5938 Q1119.75,574.625 1120.5938,575.3125 Q1121.4375,576 1122.9375,576 Q1123.8281,576 1124.4531,575.7969 Q1124.8125,575.6875 1125.2188,575.3281 Q1125.4844,575.125 1125.625,575.0625 Q1125.7656,575 1125.9375,575 Q1126.2656,575 1126.5,575.2656 Q1126.75,575.5156 1126.75,575.875 Q1126.75,576.2188 1126.4063,576.625 Q1125.9063,577.2188 1125.1094,577.5469 Q1124.0625,578 1122.7813,578 Q1121.2813,578 1120.0781,577.4063 Q1119.1094,576.9375 1118.4219,575.9219 Q1117.75,574.9063 1117.75,573.7031 L1117.75,572.6094 Q1117.75,571.3594 1118.3438,570.2656 Q1118.9531,569.1719 1120,568.5938 Q1121.0625,568 1122.25,568 Q1122.9688,568 1123.5938,568.25 Q1124.2188,568.5 1124.75,569 Z " fill="#000000"/><text fill="#000000" font-family="sans-serif" font-size="12" lengthAdjust="spacing" textLength="53" x="1143.25" y="577.4102">TestStore</text><line style="stroke:#A80036;stroke-width:1.5;" x1="1066" x2="1241" y1="588.5" y2="588.5"/><text fill="#000000" font-family="sans-serif" font-size="11" lengthAdjust="spacing" textLength="165" x="1071" y="603.9189">-list&lt;Test&gt; testsReadyToDiagnose</text><line style="stroke:#A80036;stroke-width:1.5;" x1="1066" x2="1241" y1="610.3359" y2="610.3359"/><text fill="#000000" font-family="sans-serif" font-size="11" lengthAdjust="spacing" textLength="144" x="1071" y="625.7549">+getTestsReadyToDiagnose()</text><text fill="#000000" font-family="sans-serif" font-size="11" lengthAdjust="spacing" textLength="112" x="1071" y="639.5908">+getTestByCode(code)</text><text fill="#000000" font-family="sans-serif" font-size="11" lengthAdjust="spacing" textLength="159" x="1071" y="653.4268">+addReportToTest(selectedTest)</text><!--MD5=[144698ec4d0188f6929a3b58a3eeb1f6]
class TestMapper--><rect codeLine="53" fill="#FEFECE" filter="url(#f1wsb53w2htq1k)" height="67.6719" id="TestMapper" style="stroke:#A80036;stroke-width:1.5;" width="153" x="512" y="114"/><ellipse cx="552.2" cy="130" fill="#ADD1B2" rx="11" ry="11" style="stroke:#A80036;stroke-width:1.0;"/><path d="M554.2,126.5 Q554.4031,126 554.6375,125.75 Q554.8719,125.5 555.1375,125.5 Q555.6063,125.5 555.9031,125.7813 Q556.2,126.0625 556.2,126.7188 L556.2,128.2813 Q556.2,128.9375 555.9188,129.2188 Q555.6375,129.5 555.2,129.5 Q554.8094,129.5 554.5594,129.3281 Q554.3094,129.1563 554.2,128.7031 Q554.1531,128.3906 553.9813,128.2188 Q553.6688,127.8906 553.1063,127.7031 Q552.5438,127.5 551.9813,127.5 Q551.2781,127.5 550.6844,127.7813 Q550.1063,128.0625 549.6531,128.6875 Q549.2,129.3125 549.2,130.1719 L549.2,131.0938 Q549.2,132.125 550.0438,132.8125 Q550.8875,133.5 552.3875,133.5 Q553.2781,133.5 553.9031,133.2969 Q554.2625,133.1875 554.6688,132.8281 Q554.9344,132.625 555.075,132.5625 Q555.2156,132.5 555.3875,132.5 Q555.7156,132.5 555.95,132.7656 Q556.2,133.0156 556.2,133.375 Q556.2,133.7188 555.8563,134.125 Q555.3563,134.7188 554.5594,135.0469 Q553.5125,135.5 552.2313,135.5 Q550.7313,135.5 549.5281,134.9063 Q548.5594,134.4375 547.8719,133.4219 Q547.2,132.4063 547.2,131.2031 L547.2,130.1094 Q547.2,128.8594 547.7938,127.7656 Q548.4031,126.6719 549.45,126.0938 Q550.5125,125.5 551.7,125.5 Q552.4188,125.5 553.0438,125.75 Q553.6688,126 554.2,126.5 Z " fill="#000000"/><text fill="#000000" font-family="sans-serif" font-size="12" lengthAdjust="spacing" textLength="65" x="571.8" y="134.9102">TestMapper</text><line style="stroke:#A80036;stroke-width:1.5;" x1="513" x2="664" y1="146" y2="146"/><text fill="#000000" font-family="sans-serif" font-size="11" lengthAdjust="spacing" textLength="141" x="518" y="161.4189">+toDTO(listTestsToDiagnose)</text><text fill="#000000" font-family="sans-serif" font-size="11" lengthAdjust="spacing" textLength="58" x="518" y="175.2549">+toDTO(obj)</text><!--MD5=[9fb704ffefcaf68bf1a361787afa998b]
class TestDTO--><rect codeLine="62" fill="#FEFECE" filter="url(#f1wsb53w2htq1k)" height="103.3438" id="TestDTO" style="stroke:#A80036;stroke-width:1.5;" width="133" x="805" y="96.5"/><ellipse cx="843.4" cy="112.5" fill="#ADD1B2" rx="11" ry="11" style="stroke:#A80036;stroke-width:1.0;"/><path d="M845.4,109 Q845.6031,108.5 845.8375,108.25 Q846.0719,108 846.3375,108 Q846.8063,108 847.1031,108.2813 Q847.4,108.5625 847.4,109.2188 L847.4,110.7813 Q847.4,111.4375 847.1188,111.7188 Q846.8375,112 846.4,112 Q846.0094,112 845.7594,111.8281 Q845.5094,111.6563 845.4,111.2031 Q845.3531,110.8906 845.1813,110.7188 Q844.8688,110.3906 844.3063,110.2031 Q843.7438,110 843.1813,110 Q842.4781,110 841.8844,110.2813 Q841.3063,110.5625 840.8531,111.1875 Q840.4,111.8125 840.4,112.6719 L840.4,113.5938 Q840.4,114.625 841.2438,115.3125 Q842.0875,116 843.5875,116 Q844.4781,116 845.1031,115.7969 Q845.4625,115.6875 845.8688,115.3281 Q846.1344,115.125 846.275,115.0625 Q846.4156,115 846.5875,115 Q846.9156,115 847.15,115.2656 Q847.4,115.5156 847.4,115.875 Q847.4,116.2188 847.0563,116.625 Q846.5563,117.2188 845.7594,117.5469 Q844.7125,118 843.4313,118 Q841.9313,118 840.7281,117.4063 Q839.7594,116.9375 839.0719,115.9219 Q838.4,114.9063 838.4,113.7031 L838.4,112.6094 Q838.4,111.3594 838.9938,110.2656 Q839.6031,109.1719 840.65,108.5938 Q841.7125,108 842.9,108 Q843.6188,108 844.2438,108.25 Q844.8688,108.5 845.4,109 Z " fill="#000000"/><text fill="#000000" font-family="sans-serif" font-size="12" lengthAdjust="spacing" textLength="49" x="862.6" y="117.4102">TestDTO</text><line style="stroke:#A80036;stroke-width:1.5;" x1="806" x2="937" y1="128.5" y2="128.5"/><text fill="#000000" font-family="sans-serif" font-size="11" lengthAdjust="spacing" textLength="81" x="811" y="143.9189">-String NHSCode</text><text fill="#000000" font-family="sans-serif" font-size="11" lengthAdjust="spacing" textLength="59" x="811" y="157.7549">-String code</text><line style="stroke:#A80036;stroke-width:1.5;" x1="806" x2="937" y1="164.1719" y2="164.1719"/><text fill="#000000" font-family="sans-serif" font-size="11" lengthAdjust="spacing" textLength="121" x="811" y="179.5908">+create(NHSCode, code)</text><text fill="#000000" font-family="sans-serif" font-size="11" lengthAdjust="spacing" textLength="54" x="811" y="193.4268">+getCode()</text><!--MD5=[d7b8916e3117ca4a3ffdab4f31ea783a]
class WriteReportController--><rect codeLine="73" fill="#FEFECE" filter="url(#f1wsb53w2htq1k)" height="117.1797" id="WriteReportController" style="stroke:#A80036;stroke-width:1.5;" width="152" x="278" y="341.5"/><ellipse cx="293.45" cy="357.5" fill="#ADD1B2" rx="11" ry="11" style="stroke:#A80036;stroke-width:1.0;"/><path d="M295.45,354 Q295.6531,353.5 295.8875,353.25 Q296.1219,353 296.3875,353 Q296.8563,353 297.1531,353.2813 Q297.45,353.5625 297.45,354.2188 L297.45,355.7813 Q297.45,356.4375 297.1688,356.7188 Q296.8875,357 296.45,357 Q296.0594,357 295.8094,356.8281 Q295.5594,356.6563 295.45,356.2031 Q295.4031,355.8906 295.2313,355.7188 Q294.9188,355.3906 294.3563,355.2031 Q293.7938,355 293.2313,355 Q292.5281,355 291.9344,355.2813 Q291.3563,355.5625 290.9031,356.1875 Q290.45,356.8125 290.45,357.6719 L290.45,358.5938 Q290.45,359.625 291.2938,360.3125 Q292.1375,361 293.6375,361 Q294.5281,361 295.1531,360.7969 Q295.5125,360.6875 295.9188,360.3281 Q296.1844,360.125 296.325,360.0625 Q296.4656,360 296.6375,360 Q296.9656,360 297.2,360.2656 Q297.45,360.5156 297.45,360.875 Q297.45,361.2188 297.1063,361.625 Q296.6063,362.2188 295.8094,362.5469 Q294.7625,363 293.4813,363 Q291.9813,363 290.7781,362.4063 Q289.8094,361.9375 289.1219,360.9219 Q288.45,359.9063 288.45,358.7031 L288.45,357.6094 Q288.45,356.3594 289.0438,355.2656 Q289.6531,354.1719 290.7,353.5938 Q291.7625,353 292.95,353 Q293.6688,353 294.2938,353.25 Q294.9188,353.5 295.45,354 Z " fill="#000000"/><text fill="#000000" font-family="sans-serif" font-size="12" lengthAdjust="spacing" textLength="119" x="307.55" y="362.4102">WriteReportController</text><line style="stroke:#A80036;stroke-width:1.5;" x1="279" x2="429" y1="373.5" y2="373.5"/><text fill="#000000" font-family="sans-serif" font-size="11" lengthAdjust="spacing" textLength="96" x="284" y="388.9189">-Company company</text><text fill="#000000" font-family="sans-serif" font-size="11" lengthAdjust="spacing" textLength="68" x="284" y="402.7549">-Report report</text><line style="stroke:#A80036;stroke-width:1.5;" x1="279" x2="429" y1="409.1719" y2="409.1719"/><text fill="#000000" font-family="sans-serif" font-size="11" lengthAdjust="spacing" textLength="110" x="284" y="424.5908">+getTeststoDiagnose()</text><text fill="#000000" font-family="sans-serif" font-size="11" lengthAdjust="spacing" textLength="127" x="284" y="438.4268">+createReport(reportText)</text><text fill="#000000" font-family="sans-serif" font-size="11" lengthAdjust="spacing" textLength="140" x="284" y="452.2627">+addReportToTest(testCode)</text><!--MD5=[71fba8c2abd557a2f7006580273aba3e]
class WriteReportUI--><rect codeLine="89" fill="#FEFECE" filter="url(#f1wsb53w2htq1k)" height="32" id="WriteReportUI" style="stroke:#A80036;stroke-width:1.5;" width="109" x="56" y="691"/><ellipse cx="71" cy="707" fill="#ADD1B2" rx="11" ry="11" style="stroke:#A80036;stroke-width:1.0;"/><path d="M73,703.5 Q73.2031,703 73.4375,702.75 Q73.6719,702.5 73.9375,702.5 Q74.4063,702.5 74.7031,702.7813 Q75,703.0625 75,703.7188 L75,705.2813 Q75,705.9375 74.7188,706.2188 Q74.4375,706.5 74,706.5 Q73.6094,706.5 73.3594,706.3281 Q73.1094,706.1563 73,705.7031 Q72.9531,705.3906 72.7813,705.2188 Q72.4688,704.8906 71.9063,704.7031 Q71.3438,704.5 70.7813,704.5 Q70.0781,704.5 69.4844,704.7813 Q68.9063,705.0625 68.4531,705.6875 Q68,706.3125 68,707.1719 L68,708.0938 Q68,709.125 68.8438,709.8125 Q69.6875,710.5 71.1875,710.5 Q72.0781,710.5 72.7031,710.2969 Q73.0625,710.1875 73.4688,709.8281 Q73.7344,709.625 73.875,709.5625 Q74.0156,709.5 74.1875,709.5 Q74.5156,709.5 74.75,709.7656 Q75,710.0156 75,710.375 Q75,710.7188 74.6563,711.125 Q74.1563,711.7188 73.3594,712.0469 Q72.3125,712.5 71.0313,712.5 Q69.5313,712.5 68.3281,711.9063 Q67.3594,711.4375 66.6719,710.4219 Q66,709.4063 66,708.2031 L66,707.1094 Q66,705.8594 66.5938,704.7656 Q67.2031,703.6719 68.25,703.0938 Q69.3125,702.5 70.5,702.5 Q71.2188,702.5 71.8438,702.75 Q72.4688,703 73,703.5 Z " fill="#000000"/><text fill="#000000" font-family="sans-serif" font-size="12" lengthAdjust="spacing" textLength="77" x="85" y="711.9102">WriteReportUI</text><!--MD5=[4ff913b72b026e4c95390310e4df5ddd]
link WriteReportUI to WriteReportController--><path codeLine="96" d="M124.14,690.93 C157.02,649.13 246.57,535.29 303.42,463.03 " fill="none" id="WriteReportUI-to-WriteReportController" style="stroke:#A80036;stroke-width:1.0;stroke-dasharray:7.0,7.0;"/><polygon fill="#A80036" points="306.77,458.76,298.0548,463.3474,303.6727,462.6851,304.335,468.3031,306.77,458.76" style="stroke:#A80036;stroke-width:1.0;"/><!--MD5=[b14f4b55bc9aa939c7cd06f1c0b56da5]
link WriteReportUI to TestDTO--><path codeLine="97" d="M165.23,706.75 C289.37,703.02 597.11,675.2 749,496 C804.84,430.11 749.97,385.35 779,304 C791.52,268.91 812.09,232.84 830.56,204.23 " fill="none" id="WriteReportUI-to-TestDTO" style="stroke:#A80036;stroke-width:1.0;stroke-dasharray:7.0,7.0;"/><polygon fill="#A80036" points="833.5,199.7,825.2343,205.0551,830.7695,203.8886,831.9361,209.4239,833.5,199.7" style="stroke:#A80036;stroke-width:1.0;"/><!--MD5=[f27b4a25a5b059d18ef9f1b16d7419ab]
link WriteReportController to TestMapper--><path codeLine="98" d="M409.22,341.24 C453.41,293.33 514.53,227.09 552.5,185.93 " fill="none" id="WriteReportController-to-TestMapper" style="stroke:#A80036;stroke-width:1.0;stroke-dasharray:7.0,7.0;"/><polygon fill="#A80036" points="556.1,182.03,547.0582,185.9345,552.7104,185.7057,552.9392,191.3579,556.1,182.03" style="stroke:#A80036;stroke-width:1.0;"/><!--MD5=[a3405a5a29c0a1359ce5b85a18cd6043]
link WriteReportController to Company--><path codeLine="99" d="M430.17,400 C456.91,400 486.98,400 513.61,400 " fill="none" id="WriteReportController-to-Company" style="stroke:#A80036;stroke-width:1.0;stroke-dasharray:7.0,7.0;"/><polygon fill="#A80036" points="518.89,400,509.89,396,513.89,400,509.89,404,518.89,400" style="stroke:#A80036;stroke-width:1.0;"/><!--MD5=[aa4aa685cc8a1bee089823f9a2dac854]
link WriteReportController to TestStore--><path codeLine="100" d="M413.75,458.71 C430.96,472.96 450.66,486.74 471,496 C667.37,585.37 924.38,604.44 1059.77,607.88 " fill="none" id="WriteReportController-to-TestStore" style="stroke:#A80036;stroke-width:1.0;stroke-dasharray:7.0,7.0;"/><polygon fill="#A80036" points="1064.93,608.01,1056.0238,603.8054,1059.9313,607.8957,1055.8409,611.8033,1064.93,608.01" style="stroke:#A80036;stroke-width:1.0;"/><!--MD5=[d2c887862af794255aa293b427ffc580]
link WriteReportController to TestDTO--><path codeLine="101" d="M358.55,341.46 C366.39,270.23 391.38,152.71 471,98 C569.38,30.4 714.28,75.24 799.86,112.59 " fill="none" id="WriteReportController-to-TestDTO" style="stroke:#A80036;stroke-width:1.0;stroke-dasharray:7.0,7.0;"/><polygon fill="#A80036" points="804.65,114.7,798.0269,107.4106,800.0745,112.6839,794.8012,114.7315,804.65,114.7" style="stroke:#A80036;stroke-width:1.0;"/><!--MD5=[b0f4f6db8206580012ef9cd998ed01c5]
link TestStore to Test--><path codeLine="102" d="M1153.5,556.32 C1153.5,523.88 1153.5,482.27 1153.5,450.13 " fill="none" id="TestStore-to-Test" style="stroke:#A80036;stroke-width:1.0;"/><polygon fill="#A80036" points="1153.5,445.06,1149.5,454.06,1153.5,450.06,1157.5,454.06,1153.5,445.06" style="stroke:#A80036;stroke-width:1.0;"/><polygon fill="#000000" points="1119.5,495.9258,1116.5611,504.9709,1122.4389,504.9709,1119.5,495.9258" style="stroke:#000000;stroke-width:1.0;"/><text fill="#000000" font-family="sans-serif" font-size="13" lengthAdjust="spacing" textLength="39" x="1128.5" y="506.2451">adopts</text><text fill="#000000" font-family="sans-serif" font-size="13" lengthAdjust="spacing" textLength="7" x="1146.0297" y="545.7961">1</text><text fill="#000000" font-family="sans-serif" font-size="13" lengthAdjust="spacing" textLength="5" x="1148.1484" y="466.076">*</text><!--MD5=[670dbdf7395d3fcbb40104f0a070263e]
link Company to Report--><path codeLine="103" d="M658.24,400 C692.99,400 735.76,400 773.77,400 " fill="none" id="Company-to-Report" style="stroke:#A80036;stroke-width:1.0;"/><polygon fill="#A80036" points="778.86,400,769.86,396,773.86,400,769.86,404,778.86,400" style="stroke:#A80036;stroke-width:1.0;"/><polygon fill="#000000" points="707,391.1758,697.9549,388.2369,697.9549,394.1147,707,391.1758" style="stroke:#000000;stroke-width:1.0;"/><text fill="#000000" font-family="sans-serif" font-size="13" lengthAdjust="spacing" textLength="37" x="711" y="396.4951">knows</text><text fill="#000000" font-family="sans-serif" font-size="13" lengthAdjust="spacing" textLength="7" x="665.7929" y="414.3205">1</text><text fill="#000000" font-family="sans-serif" font-size="13" lengthAdjust="spacing" textLength="5" x="765.9812" y="414.1851">*</text><!--MD5=[63d25d625ab355317a074a623d33bba8]
link Report to Test--><path codeLine="104" d="M964.18,400 C1009.97,400 1063.63,400 1101.92,400 " fill="none" id="Report-to-Test" style="stroke:#A80036;stroke-width:1.0;"/><polygon fill="#A80036" points="1106.99,400,1097.99,396,1101.99,400,1097.99,404,1106.99,400" style="stroke:#A80036;stroke-width:1.0;"/><polygon fill="#000000" points="1004,391.1758,994.9549,388.2369,994.9549,394.1147,1004,391.1758" style="stroke:#000000;stroke-width:1.0;"/><text fill="#000000" font-family="sans-serif" font-size="13" lengthAdjust="spacing" textLength="24" x="1008" y="396.4951">is of</text><text fill="#000000" font-family="sans-serif" font-size="13" lengthAdjust="spacing" textLength="7" x="972.1449" y="414.1851">1</text><text fill="#000000" font-family="sans-serif" font-size="13" lengthAdjust="spacing" textLength="7" x="1092.0197" y="414.8374">1</text><!--MD5=[8d9a2c3ea1bf73d8d45b939465e53fff]
link TestMapper to Test--><path codeLine="105" d="M649.43,113.98 C727.04,74.86 864.17,22.95 964,80 C1066.02,138.31 1118.32,275.78 1139.98,350.14 " fill="none" id="TestMapper-to-Test" style="stroke:#A80036;stroke-width:1.0;stroke-dasharray:7.0,7.0;"/><polygon fill="#A80036" points="1141.37,354.95,1142.7168,345.1937,1139.9832,350.1462,1135.0307,347.4126,1141.37,354.95" style="stroke:#A80036;stroke-width:1.0;"/><!--MD5=[f6fda4afaf882dd39139bcbf06c50c8c]
link TestMapper to TestDTO--><path codeLine="106" d="M665.17,148 C706.95,148 758.52,148 799.53,148 " fill="none" id="TestMapper-to-TestDTO" style="stroke:#A80036;stroke-width:1.0;stroke-dasharray:7.0,7.0;"/><polygon fill="#A80036" points="804.73,148,795.73,144,799.73,148,795.73,152,804.73,148" style="stroke:#A80036;stroke-width:1.0;"/><!--MD5=[a331d565d1b36f4ec524a35514a00aa0]
@startuml
hide empty methods
hide empty attributes
left to right direction
skinparam classAttributeIconSize 0

package Core {

package Domain {

package Model {

class Company {
    -String designation
    -TestStore testStore
    +getTestStore()
    +createReport(reportText)
}

class Report {
    - int REPORTTEXT_MAX_LENGTH
    - String reportText
    - Report report
    + Report(reportText)
    + checkReportTextRules(reportText)
    + countWords(reportText)
    + equals(reportObject)
    + create(reportText)
}

class Test {
    -String NHSCode
    -String code
    +getCode()
}

}

package Stores {

class TestStore {
    -list<Test> testsReadyToDiagnose
    +getTestsReadyToDiagnose()
    +getTestByCode(code)
    +addReportToTest(selectedTest)
}

}

}

package Mappers {

class TestMapper {
    +toDTO(listTestsToDiagnose)
    +toDTO(obj)
}

}

package DTO {

class TestDTO {
    -String NHSCode
    -String code
    +create(NHSCode, code)
    +getCode()
}

}

package Controllers {

class WriteReportController {
    -Company company
    -Report report
    +getTeststoDiagnose()
    +createReport(reportText)
    +addReportToTest(testCode)
}

}

}

package UI {

package Console {

class WriteReportUI {
}

}

}

WriteReportUI ..> WriteReportController
WriteReportUI ..> TestDTO
WriteReportController ..> TestMapper
WriteReportController ..> Company
WriteReportController ..> TestStore
WriteReportController ..> TestDTO
TestStore "1" -> "*" Test : adopts >
Company "1" - -> "*" Report : knows >
Report "1" - -> "1" Test : is of >
TestMapper ..> Test
TestMapper ..> TestDTO

@enduml

PlantUML version 1.2021.5(Sun Apr 25 12:20:28 BST 2021)
(GPL source distribution)
Java Runtime: OpenJDK Runtime Environment
JVM: Dynamic Code Evolution 64-Bit Server VM
Default Encoding: Cp1252
Language: pt
Country: PT
--></g></svg>