<?xml version="1.0" encoding="UTF-8" standalone="no"?><svg xmlns="http://www.w3.org/2000/svg" xmlns:xlink="http://www.w3.org/1999/xlink" contentScriptType="application/ecmascript" contentStyleType="text/css" height="1021.25px" preserveAspectRatio="none" style="width:1655px;height:1021px;" version="1.1" viewBox="0 0 1655 1021" width="1655px" zoomAndPan="magnify"><defs><filter height="300%" id="f1u5c2fy672h4b" width="300%" x="-1" y="-1"><feGaussianBlur result="blurOut" stdDeviation="2.5"/><feColorMatrix in="blurOut" result="blurOut2" type="matrix" values="0 0 0 0 0 0 0 0 0 0 0 0 0 0 0 0 0 0 .4 0"/><feOffset dx="5.0" dy="5.0" in="blurOut2" result="blurOut3"/><feBlend in="SourceGraphic" in2="blurOut3" mode="normal"/></filter></defs><g><!--MD5=[2c2e2644034c00788261e03c85b06837]
cluster Core--><polygon fill="#FFFFFF" filter="url(#f1u5c2fy672h4b)" points="297.5,7.5,347.5,7.5,356.25,37.0117,1633.75,37.0117,1633.75,963.75,297.5,963.75,297.5,7.5" style="stroke:#000000;stroke-width:1.875;"/><line style="stroke:#000000;stroke-width:1.875;" x1="297.5" x2="356.25" y1="37.0117" y2="37.0117"/><text fill="#000000" font-family="sans-serif" font-size="17.5" font-weight="bold" lengthAdjust="spacing" textLength="42.5" x="302.5" y="28.1665">Core</text><!--MD5=[121a8bf1197281ab89ed693fab589f94]
cluster Domain--><polygon fill="#FFFFFF" filter="url(#f1u5c2fy672h4b)" points="600,300,672.5,300,681.25,329.5117,1603.75,329.5117,1603.75,933.75,600,933.75,600,300" style="stroke:#000000;stroke-width:1.875;"/><line style="stroke:#000000;stroke-width:1.875;" x1="600" x2="681.25" y1="329.5117" y2="329.5117"/><text fill="#000000" font-family="sans-serif" font-size="17.5" font-weight="bold" lengthAdjust="spacing" textLength="65" x="605" y="320.6665">Domain</text><!--MD5=[15636c1ca4a123c16a2a1a8e90aca7a9]
cluster Model--><polygon fill="#FFFFFF" filter="url(#f1u5c2fy672h4b)" points="630,355,692.5,355,701.25,384.5117,1521.25,384.5117,1521.25,661.25,630,661.25,630,355" style="stroke:#000000;stroke-width:1.875;"/><line style="stroke:#000000;stroke-width:1.875;" x1="630" x2="701.25" y1="384.5117" y2="384.5117"/><text fill="#000000" font-family="sans-serif" font-size="17.5" font-weight="bold" lengthAdjust="spacing" textLength="55" x="635" y="375.6665">Model</text><!--MD5=[8dd535d56cd4cf7faf64fdd082ba836e]
cluster Stores--><polygon fill="#FFFFFF" filter="url(#f1u5c2fy672h4b)" points="1312.5,691.25,1377.5,691.25,1386.25,720.7617,1573.75,720.7617,1573.75,903.75,1312.5,903.75,1312.5,691.25" style="stroke:#000000;stroke-width:1.875;"/><line style="stroke:#000000;stroke-width:1.875;" x1="1312.5" x2="1386.25" y1="720.7617" y2="720.7617"/><text fill="#000000" font-family="sans-serif" font-size="17.5" font-weight="bold" lengthAdjust="spacing" textLength="57.5" x="1317.5" y="711.9165">Stores</text><!--MD5=[701152d03fbf85133a1de050cfdbc7fd]
cluster Mappers--><polygon fill="#FFFFFF" filter="url(#f1u5c2fy672h4b)" points="621.25,106.25,706.25,106.25,715,135.7617,852.5,135.7617,852.5,238.75,621.25,238.75,621.25,106.25" style="stroke:#000000;stroke-width:1.875;"/><line style="stroke:#000000;stroke-width:1.875;" x1="621.25" x2="715" y1="135.7617" y2="135.7617"/><text fill="#000000" font-family="sans-serif" font-size="17.5" font-weight="bold" lengthAdjust="spacing" textLength="77.5" x="626.25" y="126.9165">Mappers</text><!--MD5=[7b8bc9ee8bb84b99fb3a3f9477c19238]
cluster DTO--><polygon fill="#FFFFFF" filter="url(#f1u5c2fy672h4b)" points="987.5,75,1031.25,75,1040,104.5117,1193.75,104.5117,1193.75,270,987.5,270,987.5,75" style="stroke:#000000;stroke-width:1.875;"/><line style="stroke:#000000;stroke-width:1.875;" x1="987.5" x2="1040" y1="104.5117" y2="104.5117"/><text fill="#000000" font-family="sans-serif" font-size="17.5" font-weight="bold" lengthAdjust="spacing" textLength="36.25" x="992.5" y="95.6665">DTO</text><!--MD5=[ed1d20ea533a2a0e7df5ba3c35e56ced]
cluster Controllers--><polygon fill="#FFFFFF" filter="url(#f1u5c2fy672h4b)" points="327.5,337.5,433.75,337.5,442.5,367.0117,558.75,367.0117,558.75,567.5,327.5,567.5,327.5,337.5" style="stroke:#000000;stroke-width:1.875;"/><line style="stroke:#000000;stroke-width:1.875;" x1="327.5" x2="442.5" y1="367.0117" y2="367.0117"/><text fill="#000000" font-family="sans-serif" font-size="17.5" font-weight="bold" lengthAdjust="spacing" textLength="98.75" x="332.5" y="358.1665">Controllers</text><!--MD5=[9681dc6e01e10c6b4fe06895ae94f592]
cluster UI--><polygon fill="#FFFFFF" filter="url(#f1u5c2fy672h4b)" points="20,822.5,45,822.5,53.75,852.0117,256.25,852.0117,256.25,1012.5,20,1012.5,20,822.5" style="stroke:#000000;stroke-width:1.875;"/><line style="stroke:#000000;stroke-width:1.875;" x1="20" x2="53.75" y1="852.0117" y2="852.0117"/><text fill="#000000" font-family="sans-serif" font-size="17.5" font-weight="bold" lengthAdjust="spacing" textLength="17.5" x="25" y="843.1665">UI</text><!--MD5=[4851e5193cf5e7abdec7b18b3bca50f8]
cluster Console--><polygon fill="#FFFFFF" filter="url(#f1u5c2fy672h4b)" points="50,877.5,130,877.5,138.75,907.0117,226.25,907.0117,226.25,982.5,50,982.5,50,877.5" style="stroke:#000000;stroke-width:1.875;"/><line style="stroke:#000000;stroke-width:1.875;" x1="50" x2="138.75" y1="907.0117" y2="907.0117"/><text fill="#000000" font-family="sans-serif" font-size="17.5" font-weight="bold" lengthAdjust="spacing" textLength="72.5" x="55" y="898.1665">Console</text><!--MD5=[02e4b9b7573f1156f41e60aa5b4e25a4]
class Company--><rect codeLine="12" fill="#FEFECE" filter="url(#f1u5c2fy672h4b)" height="129.1797" id="Company" style="stroke:#A80036;stroke-width:1.875;" width="173.75" x="650" y="400.625"/><ellipse cx="699.125" cy="420.625" fill="#ADD1B2" rx="13.75" ry="13.75" style="stroke:#A80036;stroke-width:1.25;"/><path d="M701.625,416.25 Q701.8789,415.625 702.1719,415.3125 Q702.4648,415 702.7969,415 Q703.3828,415 703.7539,415.3516 Q704.125,415.7031 704.125,416.5234 L704.125,418.4766 Q704.125,419.2969 703.7734,419.6484 Q703.4219,420 702.875,420 Q702.3867,420 702.0742,419.7852 Q701.7617,419.5703 701.625,419.0039 Q701.5664,418.6133 701.3516,418.3984 Q700.9609,417.9883 700.2578,417.7539 Q699.5547,417.5 698.8516,417.5 Q697.9727,417.5 697.2305,417.8516 Q696.5078,418.2031 695.9414,418.9844 Q695.375,419.7656 695.375,420.8398 L695.375,421.9922 Q695.375,423.2813 696.4297,424.1406 Q697.4844,425 699.3594,425 Q700.4727,425 701.2539,424.7461 Q701.7031,424.6094 702.2109,424.1602 Q702.543,423.9063 702.7188,423.8281 Q702.8945,423.75 703.1094,423.75 Q703.5195,423.75 703.8125,424.082 Q704.125,424.3945 704.125,424.8438 Q704.125,425.2734 703.6953,425.7813 Q703.0703,426.5234 702.0742,426.9336 Q700.7656,427.5 699.1641,427.5 Q697.2891,427.5 695.7852,426.7578 Q694.5742,426.1719 693.7148,424.9023 Q692.875,423.6328 692.875,422.1289 L692.875,420.7617 Q692.875,419.1992 693.6172,417.832 Q694.3789,416.4648 695.6875,415.7422 Q697.0156,415 698.5,415 Q699.3984,415 700.1797,415.3125 Q700.9609,415.625 701.625,416.25 Z " fill="#000000"/><text fill="#000000" font-family="sans-serif" font-size="15" lengthAdjust="spacing" textLength="66.25" x="723.375" y="426.7627">Company</text><line style="stroke:#A80036;stroke-width:1.875;" x1="651.25" x2="822.5" y1="440.625" y2="440.625"/><text fill="#000000" font-family="sans-serif" font-size="13.75" lengthAdjust="spacing" textLength="112.5" x="657.5" y="459.8987">-String designation</text><text fill="#000000" font-family="sans-serif" font-size="13.75" lengthAdjust="spacing" textLength="122.5" x="657.5" y="477.1936">-TestStore testStore</text><line style="stroke:#A80036;stroke-width:1.875;" x1="651.25" x2="822.5" y1="485.2148" y2="485.2148"/><text fill="#000000" font-family="sans-serif" font-size="13.75" lengthAdjust="spacing" textLength="95" x="657.5" y="504.4885">+getTestStore()</text><text fill="#000000" font-family="sans-serif" font-size="13.75" lengthAdjust="spacing" textLength="158.75" x="657.5" y="521.7834">+createReport(reportText)</text><!--MD5=[f00dbe8c0302c6aec2cb26b3c659c8fc]
class Report--><rect codeLine="19" fill="#FEFECE" filter="url(#f1u5c2fy672h4b)" height="198.3594" id="Report" style="stroke:#A80036;stroke-width:1.875;" width="231.25" x="975" y="400.625"/><ellipse cx="1062.1875" cy="420.625" fill="#ADD1B2" rx="13.75" ry="13.75" style="stroke:#A80036;stroke-width:1.25;"/><path d="M1064.6875,416.25 Q1064.9414,415.625 1065.2344,415.3125 Q1065.5273,415 1065.8594,415 Q1066.4453,415 1066.8164,415.3516 Q1067.1875,415.7031 1067.1875,416.5234 L1067.1875,418.4766 Q1067.1875,419.2969 1066.8359,419.6484 Q1066.4844,420 1065.9375,420 Q1065.4492,420 1065.1367,419.7852 Q1064.8242,419.5703 1064.6875,419.0039 Q1064.6289,418.6133 1064.4141,418.3984 Q1064.0234,417.9883 1063.3203,417.7539 Q1062.6172,417.5 1061.9141,417.5 Q1061.0352,417.5 1060.293,417.8516 Q1059.5703,418.2031 1059.0039,418.9844 Q1058.4375,419.7656 1058.4375,420.8398 L1058.4375,421.9922 Q1058.4375,423.2813 1059.4922,424.1406 Q1060.5469,425 1062.4219,425 Q1063.5352,425 1064.3164,424.7461 Q1064.7656,424.6094 1065.2734,424.1602 Q1065.6055,423.9063 1065.7813,423.8281 Q1065.957,423.75 1066.1719,423.75 Q1066.582,423.75 1066.875,424.082 Q1067.1875,424.3945 1067.1875,424.8438 Q1067.1875,425.2734 1066.7578,425.7813 Q1066.1328,426.5234 1065.1367,426.9336 Q1063.8281,427.5 1062.2266,427.5 Q1060.3516,427.5 1058.8477,426.7578 Q1057.6367,426.1719 1056.7773,424.9023 Q1055.9375,423.6328 1055.9375,422.1289 L1055.9375,420.7617 Q1055.9375,419.1992 1056.6797,417.832 Q1057.4414,416.4648 1058.75,415.7422 Q1060.0781,415 1061.5625,415 Q1062.4609,415 1063.2422,415.3125 Q1064.0234,415.625 1064.6875,416.25 Z " fill="#000000"/><text fill="#000000" font-family="sans-serif" font-size="15" lengthAdjust="spacing" textLength="46.25" x="1087.8125" y="426.7627">Report</text><line style="stroke:#A80036;stroke-width:1.875;" x1="976.25" x2="1205" y1="440.625" y2="440.625"/><text fill="#000000" font-family="sans-serif" font-size="13.75" lengthAdjust="spacing" textLength="197.5" x="982.5" y="459.8987">-int REPORTTEXT_MAX_LENGTH</text><text fill="#000000" font-family="sans-serif" font-size="13.75" lengthAdjust="spacing" textLength="106.25" x="982.5" y="477.1936">-String reportText</text><text fill="#000000" font-family="sans-serif" font-size="13.75" lengthAdjust="spacing" textLength="85" x="982.5" y="494.4885">-Report report</text><line style="stroke:#A80036;stroke-width:1.875;" x1="976.25" x2="1205" y1="502.5098" y2="502.5098"/><text fill="#000000" font-family="sans-serif" font-size="13.75" lengthAdjust="spacing" textLength="120" x="982.5" y="521.7834">+Report(reportText)</text><text fill="#000000" font-family="sans-serif" font-size="13.75" lengthAdjust="spacing" textLength="216.25" x="982.5" y="539.0784">+checkReportTextRules(reportText)</text><text fill="#000000" font-family="sans-serif" font-size="13.75" lengthAdjust="spacing" textLength="153.75" x="982.5" y="556.3733">+countWords(reportText)</text><text fill="#000000" font-family="sans-serif" font-size="13.75" lengthAdjust="spacing" textLength="132.5" x="982.5" y="573.6682">+equals(reportObject)</text><text fill="#000000" font-family="sans-serif" font-size="13.75" lengthAdjust="spacing" textLength="118.75" x="982.5" y="590.9631">+create(reportText)</text><!--MD5=[df38be88ccee13e832d6fafd6288a4ca]
class Test--><rect codeLine="30" fill="#FEFECE" filter="url(#f1u5c2fy672h4b)" height="111.8848" id="Test" style="stroke:#A80036;stroke-width:1.875;" width="116.25" x="1385" y="443.75"/><ellipse cx="1424.5625" cy="463.75" fill="#ADD1B2" rx="13.75" ry="13.75" style="stroke:#A80036;stroke-width:1.25;"/><path d="M1427.0625,459.375 Q1427.3164,458.75 1427.6094,458.4375 Q1427.9023,458.125 1428.2344,458.125 Q1428.8203,458.125 1429.1914,458.4766 Q1429.5625,458.8281 1429.5625,459.6484 L1429.5625,461.6016 Q1429.5625,462.4219 1429.2109,462.7734 Q1428.8594,463.125 1428.3125,463.125 Q1427.8242,463.125 1427.5117,462.9102 Q1427.1992,462.6953 1427.0625,462.1289 Q1427.0039,461.7383 1426.7891,461.5234 Q1426.3984,461.1133 1425.6953,460.8789 Q1424.9922,460.625 1424.2891,460.625 Q1423.4102,460.625 1422.668,460.9766 Q1421.9453,461.3281 1421.3789,462.1094 Q1420.8125,462.8906 1420.8125,463.9648 L1420.8125,465.1172 Q1420.8125,466.4063 1421.8672,467.2656 Q1422.9219,468.125 1424.7969,468.125 Q1425.9102,468.125 1426.6914,467.8711 Q1427.1406,467.7344 1427.6484,467.2852 Q1427.9805,467.0313 1428.1563,466.9531 Q1428.332,466.875 1428.5469,466.875 Q1428.957,466.875 1429.25,467.207 Q1429.5625,467.5195 1429.5625,467.9688 Q1429.5625,468.3984 1429.1328,468.9063 Q1428.5078,469.6484 1427.5117,470.0586 Q1426.2031,470.625 1424.6016,470.625 Q1422.7266,470.625 1421.2227,469.8828 Q1420.0117,469.2969 1419.1523,468.0273 Q1418.3125,466.7578 1418.3125,465.2539 L1418.3125,463.8867 Q1418.3125,462.3242 1419.0547,460.957 Q1419.8164,459.5898 1421.125,458.8672 Q1422.4531,458.125 1423.9375,458.125 Q1424.8359,458.125 1425.6172,458.4375 Q1426.3984,458.75 1427.0625,459.375 Z " fill="#000000"/><text fill="#000000" font-family="sans-serif" font-size="15" lengthAdjust="spacing" textLength="30" x="1446.6875" y="469.8877">Test</text><line style="stroke:#A80036;stroke-width:1.875;" x1="1386.25" x2="1500" y1="483.75" y2="483.75"/><text fill="#000000" font-family="sans-serif" font-size="13.75" lengthAdjust="spacing" textLength="101.25" x="1392.5" y="503.0237">-String NHSCode</text><text fill="#000000" font-family="sans-serif" font-size="13.75" lengthAdjust="spacing" textLength="73.75" x="1392.5" y="520.3186">-String code</text><line style="stroke:#A80036;stroke-width:1.875;" x1="1386.25" x2="1500" y1="528.3398" y2="528.3398"/><text fill="#000000" font-family="sans-serif" font-size="13.75" lengthAdjust="spacing" textLength="67.5" x="1392.5" y="547.6135">+getCode()</text><!--MD5=[0f07739f46effee96e095e9c408da841]
class TestParameter--><rect codeLine="36" fill="#FEFECE" filter="url(#f1u5c2fy672h4b)" height="67.2949" id="TestParameter" style="stroke:#A80036;stroke-width:1.875;" width="165" x="654.375" y="573.75"/><ellipse cx="683.25" cy="593.75" fill="#ADD1B2" rx="13.75" ry="13.75" style="stroke:#A80036;stroke-width:1.25;"/><path d="M685.75,589.375 Q686.0039,588.75 686.2969,588.4375 Q686.5898,588.125 686.9219,588.125 Q687.5078,588.125 687.8789,588.4766 Q688.25,588.8281 688.25,589.6484 L688.25,591.6016 Q688.25,592.4219 687.8984,592.7734 Q687.5469,593.125 687,593.125 Q686.5117,593.125 686.1992,592.9102 Q685.8867,592.6953 685.75,592.1289 Q685.6914,591.7383 685.4766,591.5234 Q685.0859,591.1133 684.3828,590.8789 Q683.6797,590.625 682.9766,590.625 Q682.0977,590.625 681.3555,590.9766 Q680.6328,591.3281 680.0664,592.1094 Q679.5,592.8906 679.5,593.9648 L679.5,595.1172 Q679.5,596.4063 680.5547,597.2656 Q681.6094,598.125 683.4844,598.125 Q684.5977,598.125 685.3789,597.8711 Q685.8281,597.7344 686.3359,597.2852 Q686.668,597.0313 686.8438,596.9531 Q687.0195,596.875 687.2344,596.875 Q687.6445,596.875 687.9375,597.207 Q688.25,597.5195 688.25,597.9688 Q688.25,598.3984 687.8203,598.9063 Q687.1953,599.6484 686.1992,600.0586 Q684.8906,600.625 683.2891,600.625 Q681.4141,600.625 679.9102,599.8828 Q678.6992,599.2969 677.8398,598.0273 Q677,596.7578 677,595.2539 L677,593.8867 Q677,592.3242 677.7422,590.957 Q678.5039,589.5898 679.8125,588.8672 Q681.1406,588.125 682.625,588.125 Q683.5234,588.125 684.3047,588.4375 Q685.0859,588.75 685.75,589.375 Z " fill="#000000"/><text fill="#000000" font-family="sans-serif" font-size="15" lengthAdjust="spacing" textLength="102.5" x="703" y="599.8877">TestParameter</text><line style="stroke:#A80036;stroke-width:1.875;" x1="655.625" x2="818.125" y1="613.75" y2="613.75"/><text fill="#000000" font-family="sans-serif" font-size="13.75" lengthAdjust="spacing" textLength="150" x="661.875" y="633.0237">+getParametersResults()</text><!--MD5=[0f6f7964b844a64b0496af0dda7914bd]
class TestStore--><rect codeLine="44" fill="#FEFECE" filter="url(#f1u5c2fy672h4b)" height="146.4746" id="TestStore" style="stroke:#A80036;stroke-width:1.875;" width="221.25" x="1332.5" y="736.875"/><ellipse cx="1404.6875" cy="756.875" fill="#ADD1B2" rx="13.75" ry="13.75" style="stroke:#A80036;stroke-width:1.25;"/><path d="M1407.1875,752.5 Q1407.4414,751.875 1407.7344,751.5625 Q1408.0273,751.25 1408.3594,751.25 Q1408.9453,751.25 1409.3164,751.6016 Q1409.6875,751.9531 1409.6875,752.7734 L1409.6875,754.7266 Q1409.6875,755.5469 1409.3359,755.8984 Q1408.9844,756.25 1408.4375,756.25 Q1407.9492,756.25 1407.6367,756.0352 Q1407.3242,755.8203 1407.1875,755.2539 Q1407.1289,754.8633 1406.9141,754.6484 Q1406.5234,754.2383 1405.8203,754.0039 Q1405.1172,753.75 1404.4141,753.75 Q1403.5352,753.75 1402.793,754.1016 Q1402.0703,754.4531 1401.5039,755.2344 Q1400.9375,756.0156 1400.9375,757.0898 L1400.9375,758.2422 Q1400.9375,759.5313 1401.9922,760.3906 Q1403.0469,761.25 1404.9219,761.25 Q1406.0352,761.25 1406.8164,760.9961 Q1407.2656,760.8594 1407.7734,760.4102 Q1408.1055,760.1563 1408.2813,760.0781 Q1408.457,760 1408.6719,760 Q1409.082,760 1409.375,760.332 Q1409.6875,760.6445 1409.6875,761.0938 Q1409.6875,761.5234 1409.2578,762.0313 Q1408.6328,762.7734 1407.6367,763.1836 Q1406.3281,763.75 1404.7266,763.75 Q1402.8516,763.75 1401.3477,763.0078 Q1400.1367,762.4219 1399.2773,761.1523 Q1398.4375,759.8828 1398.4375,758.3789 L1398.4375,757.0117 Q1398.4375,755.4492 1399.1797,754.082 Q1399.9414,752.7148 1401.25,751.9922 Q1402.5781,751.25 1404.0625,751.25 Q1404.9609,751.25 1405.7422,751.5625 Q1406.5234,751.875 1407.1875,752.5 Z " fill="#000000"/><text fill="#000000" font-family="sans-serif" font-size="15" lengthAdjust="spacing" textLength="66.25" x="1430.3125" y="763.0127">TestStore</text><line style="stroke:#A80036;stroke-width:1.875;" x1="1333.75" x2="1552.5" y1="776.875" y2="776.875"/><text fill="#000000" font-family="sans-serif" font-size="13.75" lengthAdjust="spacing" textLength="206.25" x="1340" y="796.1487">-list&lt;Test&gt; testsReadyToDiagnose</text><line style="stroke:#A80036;stroke-width:1.875;" x1="1333.75" x2="1552.5" y1="804.1699" y2="804.1699"/><text fill="#000000" font-family="sans-serif" font-size="13.75" lengthAdjust="spacing" textLength="180" x="1340" y="823.4436">+getTestsReadyToDiagnose()</text><text fill="#000000" font-family="sans-serif" font-size="13.75" lengthAdjust="spacing" textLength="140" x="1340" y="840.7385">+getTestByCode(code)</text><text fill="#000000" font-family="sans-serif" font-size="13.75" lengthAdjust="spacing" textLength="131.25" x="1340" y="858.0334">+getTestParameters()</text><text fill="#000000" font-family="sans-serif" font-size="13.75" lengthAdjust="spacing" textLength="198.75" x="1340" y="875.3284">+addReportToTest(selectedTest)</text><!--MD5=[144698ec4d0188f6929a3b58a3eeb1f6]
class TestMapper--><rect codeLine="58" fill="#FEFECE" filter="url(#f1u5c2fy672h4b)" height="67.2949" id="TestMapper" style="stroke:#A80036;stroke-width:1.875;" width="191.25" x="641.25" y="151.25"/><ellipse cx="691.5" cy="171.25" fill="#ADD1B2" rx="13.75" ry="13.75" style="stroke:#A80036;stroke-width:1.25;"/><path d="M694,166.875 Q694.2539,166.25 694.5469,165.9375 Q694.8398,165.625 695.1719,165.625 Q695.7578,165.625 696.1289,165.9766 Q696.5,166.3281 696.5,167.1484 L696.5,169.1016 Q696.5,169.9219 696.1484,170.2734 Q695.7969,170.625 695.25,170.625 Q694.7617,170.625 694.4492,170.4102 Q694.1367,170.1953 694,169.6289 Q693.9414,169.2383 693.7266,169.0234 Q693.3359,168.6133 692.6328,168.3789 Q691.9297,168.125 691.2266,168.125 Q690.3477,168.125 689.6055,168.4766 Q688.8828,168.8281 688.3164,169.6094 Q687.75,170.3906 687.75,171.4648 L687.75,172.6172 Q687.75,173.9063 688.8047,174.7656 Q689.8594,175.625 691.7344,175.625 Q692.8477,175.625 693.6289,175.3711 Q694.0781,175.2344 694.5859,174.7852 Q694.918,174.5313 695.0938,174.4531 Q695.2695,174.375 695.4844,174.375 Q695.8945,174.375 696.1875,174.707 Q696.5,175.0195 696.5,175.4688 Q696.5,175.8984 696.0703,176.4063 Q695.4453,177.1484 694.4492,177.5586 Q693.1406,178.125 691.5391,178.125 Q689.6641,178.125 688.1602,177.3828 Q686.9492,176.7969 686.0898,175.5273 Q685.25,174.2578 685.25,172.7539 L685.25,171.3867 Q685.25,169.8242 685.9922,168.457 Q686.7539,167.0898 688.0625,166.3672 Q689.3906,165.625 690.875,165.625 Q691.7734,165.625 692.5547,165.9375 Q693.3359,166.25 694,166.875 Z " fill="#000000"/><text fill="#000000" font-family="sans-serif" font-size="15" lengthAdjust="spacing" textLength="81.25" x="716" y="177.3877">TestMapper</text><line style="stroke:#A80036;stroke-width:1.875;" x1="642.5" x2="831.25" y1="191.25" y2="191.25"/><text fill="#000000" font-family="sans-serif" font-size="13.75" lengthAdjust="spacing" textLength="176.25" x="648.75" y="210.5237">+toDTO(listTestsToDiagnose)</text><!--MD5=[9fb704ffefcaf68bf1a361787afa998b]
class TestDTO--><rect codeLine="66" fill="#FEFECE" filter="url(#f1u5c2fy672h4b)" height="129.1797" id="TestDTO" style="stroke:#A80036;stroke-width:1.875;" width="166.25" x="1007.5" y="120.625"/><ellipse cx="1055.5" cy="140.625" fill="#ADD1B2" rx="13.75" ry="13.75" style="stroke:#A80036;stroke-width:1.25;"/><path d="M1058,136.25 Q1058.2539,135.625 1058.5469,135.3125 Q1058.8398,135 1059.1719,135 Q1059.7578,135 1060.1289,135.3516 Q1060.5,135.7031 1060.5,136.5234 L1060.5,138.4766 Q1060.5,139.2969 1060.1484,139.6484 Q1059.7969,140 1059.25,140 Q1058.7617,140 1058.4492,139.7852 Q1058.1367,139.5703 1058,139.0039 Q1057.9414,138.6133 1057.7266,138.3984 Q1057.3359,137.9883 1056.6328,137.7539 Q1055.9297,137.5 1055.2266,137.5 Q1054.3477,137.5 1053.6055,137.8516 Q1052.8828,138.2031 1052.3164,138.9844 Q1051.75,139.7656 1051.75,140.8398 L1051.75,141.9922 Q1051.75,143.2813 1052.8047,144.1406 Q1053.8594,145 1055.7344,145 Q1056.8477,145 1057.6289,144.7461 Q1058.0781,144.6094 1058.5859,144.1602 Q1058.918,143.9063 1059.0938,143.8281 Q1059.2695,143.75 1059.4844,143.75 Q1059.8945,143.75 1060.1875,144.082 Q1060.5,144.3945 1060.5,144.8438 Q1060.5,145.2734 1060.0703,145.7813 Q1059.4453,146.5234 1058.4492,146.9336 Q1057.1406,147.5 1055.5391,147.5 Q1053.6641,147.5 1052.1602,146.7578 Q1050.9492,146.1719 1050.0898,144.9023 Q1049.25,143.6328 1049.25,142.1289 L1049.25,140.7617 Q1049.25,139.1992 1049.9922,137.832 Q1050.7539,136.4648 1052.0625,135.7422 Q1053.3906,135 1054.875,135 Q1055.7734,135 1056.5547,135.3125 Q1057.3359,135.625 1058,136.25 Z " fill="#000000"/><text fill="#000000" font-family="sans-serif" font-size="15" lengthAdjust="spacing" textLength="61.25" x="1079.5" y="146.7627">TestDTO</text><line style="stroke:#A80036;stroke-width:1.875;" x1="1008.75" x2="1172.5" y1="160.625" y2="160.625"/><text fill="#000000" font-family="sans-serif" font-size="13.75" lengthAdjust="spacing" textLength="101.25" x="1015" y="179.8987">-String NHSCode</text><text fill="#000000" font-family="sans-serif" font-size="13.75" lengthAdjust="spacing" textLength="73.75" x="1015" y="197.1936">-String code</text><line style="stroke:#A80036;stroke-width:1.875;" x1="1008.75" x2="1172.5" y1="205.2148" y2="205.2148"/><text fill="#000000" font-family="sans-serif" font-size="13.75" lengthAdjust="spacing" textLength="151.25" x="1015" y="224.4885">+create(NHSCode, code)</text><text fill="#000000" font-family="sans-serif" font-size="13.75" lengthAdjust="spacing" textLength="67.5" x="1015" y="241.7834">+getCode()</text><!--MD5=[d7b8916e3117ca4a3ffdab4f31ea783a]
class WriteReportController--><rect codeLine="77" fill="#FEFECE" filter="url(#f1u5c2fy672h4b)" height="163.7695" id="WriteReportController" style="stroke:#A80036;stroke-width:1.875;" width="191.25" x="347.5" y="383.125"/><ellipse cx="367.375" cy="403.125" fill="#ADD1B2" rx="13.75" ry="13.75" style="stroke:#A80036;stroke-width:1.25;"/><path d="M369.875,398.75 Q370.1289,398.125 370.4219,397.8125 Q370.7148,397.5 371.0469,397.5 Q371.6328,397.5 372.0039,397.8516 Q372.375,398.2031 372.375,399.0234 L372.375,400.9766 Q372.375,401.7969 372.0234,402.1484 Q371.6719,402.5 371.125,402.5 Q370.6367,402.5 370.3242,402.2852 Q370.0117,402.0703 369.875,401.5039 Q369.8164,401.1133 369.6016,400.8984 Q369.2109,400.4883 368.5078,400.2539 Q367.8047,400 367.1016,400 Q366.2227,400 365.4805,400.3516 Q364.7578,400.7031 364.1914,401.4844 Q363.625,402.2656 363.625,403.3398 L363.625,404.4922 Q363.625,405.7813 364.6797,406.6406 Q365.7344,407.5 367.6094,407.5 Q368.7227,407.5 369.5039,407.2461 Q369.9531,407.1094 370.4609,406.6602 Q370.793,406.4063 370.9688,406.3281 Q371.1445,406.25 371.3594,406.25 Q371.7695,406.25 372.0625,406.582 Q372.375,406.8945 372.375,407.3438 Q372.375,407.7734 371.9453,408.2813 Q371.3203,409.0234 370.3242,409.4336 Q369.0156,410 367.4141,410 Q365.5391,410 364.0352,409.2578 Q362.8242,408.6719 361.9648,407.4023 Q361.125,406.1328 361.125,404.6289 L361.125,403.2617 Q361.125,401.6992 361.8672,400.332 Q362.6289,398.9648 363.9375,398.2422 Q365.2656,397.5 366.75,397.5 Q367.6484,397.5 368.4297,397.8125 Q369.2109,398.125 369.875,398.75 Z " fill="#000000"/><text fill="#000000" font-family="sans-serif" font-size="15" lengthAdjust="spacing" textLength="148.75" x="385.125" y="409.2627">WriteReportController</text><line style="stroke:#A80036;stroke-width:1.875;" x1="348.75" x2="537.5" y1="423.125" y2="423.125"/><text fill="#000000" font-family="sans-serif" font-size="13.75" lengthAdjust="spacing" textLength="120" x="355" y="442.3987">-Company company</text><text fill="#000000" font-family="sans-serif" font-size="13.75" lengthAdjust="spacing" textLength="85" x="355" y="459.6936">-Report report</text><line style="stroke:#A80036;stroke-width:1.875;" x1="348.75" x2="537.5" y1="467.7148" y2="467.7148"/><text fill="#000000" font-family="sans-serif" font-size="13.75" lengthAdjust="spacing" textLength="137.5" x="355" y="486.9885">+getTeststoDiagnose()</text><text fill="#000000" font-family="sans-serif" font-size="13.75" lengthAdjust="spacing" textLength="176.25" x="355" y="504.2834">+getTestParametersResults()</text><text fill="#000000" font-family="sans-serif" font-size="13.75" lengthAdjust="spacing" textLength="158.75" x="355" y="521.5784">+createReport(reportText)</text><text fill="#000000" font-family="sans-serif" font-size="13.75" lengthAdjust="spacing" textLength="151.25" x="355" y="538.8733">+addReportToTest(code)</text><!--MD5=[71fba8c2abd557a2f7006580273aba3e]
class WriteReportUI--><rect codeLine="94" fill="#FEFECE" filter="url(#f1u5c2fy672h4b)" height="40" id="WriteReportUI" style="stroke:#A80036;stroke-width:1.875;" width="136.25" x="70" y="922.5"/><ellipse cx="88.75" cy="942.5" fill="#ADD1B2" rx="13.75" ry="13.75" style="stroke:#A80036;stroke-width:1.25;"/><path d="M91.25,938.125 Q91.5039,937.5 91.7969,937.1875 Q92.0898,936.875 92.4219,936.875 Q93.0078,936.875 93.3789,937.2266 Q93.75,937.5781 93.75,938.3984 L93.75,940.3516 Q93.75,941.1719 93.3984,941.5234 Q93.0469,941.875 92.5,941.875 Q92.0117,941.875 91.6992,941.6602 Q91.3867,941.4453 91.25,940.8789 Q91.1914,940.4883 90.9766,940.2734 Q90.5859,939.8633 89.8828,939.6289 Q89.1797,939.375 88.4766,939.375 Q87.5977,939.375 86.8555,939.7266 Q86.1328,940.0781 85.5664,940.8594 Q85,941.6406 85,942.7148 L85,943.8672 Q85,945.1563 86.0547,946.0156 Q87.1094,946.875 88.9844,946.875 Q90.0977,946.875 90.8789,946.6211 Q91.3281,946.4844 91.8359,946.0352 Q92.168,945.7813 92.3438,945.7031 Q92.5195,945.625 92.7344,945.625 Q93.1445,945.625 93.4375,945.957 Q93.75,946.2695 93.75,946.7188 Q93.75,947.1484 93.3203,947.6563 Q92.6953,948.3984 91.6992,948.8086 Q90.3906,949.375 88.7891,949.375 Q86.9141,949.375 85.4102,948.6328 Q84.1992,948.0469 83.3398,946.7773 Q82.5,945.5078 82.5,944.0039 L82.5,942.6367 Q82.5,941.0742 83.2422,939.707 Q84.0039,938.3398 85.3125,937.6172 Q86.6406,936.875 88.125,936.875 Q89.0234,936.875 89.8047,937.1875 Q90.5859,937.5 91.25,938.125 Z " fill="#000000"/><text fill="#000000" font-family="sans-serif" font-size="15" lengthAdjust="spacing" textLength="96.25" x="106.25" y="948.6377">WriteReportUI</text><!--MD5=[4ff913b72b026e4c95390310e4df5ddd]
link WriteReportUI to WriteReportController--><path codeLine="101" d="M152.375,921.9875 C192.175,859.1625 314.025,666.8125 386.3375,552.6625 " fill="none" id="WriteReportUI-to-WriteReportController" style="stroke:#A80036;stroke-width:1.25;stroke-dasharray:7.0,7.0;"/><polygon fill="#A80036" points="389.75,547.2875,379.5143,554.128,386.4119,552.5714,387.9685,559.469,389.75,547.2875" style="stroke:#A80036;stroke-width:1.25;"/><!--MD5=[b14f4b55bc9aa939c7cd06f1c0b56da5]
link WriteReportUI to TestDTO--><path codeLine="102" d="M206.525,940.95 C362.5875,933.425 750.6,891.3 937.5,661.25 C1017.0125,563.375 933.9625,499.2375 975,380 C990.1625,335.9625 1015.8375,290.8625 1039.025,255.1375 " fill="none" id="WriteReportUI-to-TestDTO" style="stroke:#A80036;stroke-width:1.25;stroke-dasharray:7.0,7.0;"/><polygon fill="#A80036" points="1042.725,249.4875,1032.3768,256.1567,1039.2994,254.7151,1040.741,261.6377,1042.725,249.4875" style="stroke:#A80036;stroke-width:1.25;"/><!--MD5=[f27b4a25a5b059d18ef9f1b16d7419ab]
link WriteReportController to TestMapper--><path codeLine="103" d="M529.7875,382.8875 C584.6875,330.1 653.45,264 695.95,223.1375 " fill="none" id="WriteReportController-to-TestMapper" style="stroke:#A80036;stroke-width:1.25;stroke-dasharray:7.0,7.0;"/><polygon fill="#A80036" points="700.5,218.775,688.9142,222.938,695.9835,223.0951,695.8264,230.1645,700.5,218.775" style="stroke:#A80036;stroke-width:1.25;"/><!--MD5=[a3405a5a29c0a1359ce5b85a18cd6043]
link WriteReportController to Company--><path codeLine="104" d="M538.9375,465 C572.4125,465 610.0125,465 643.3125,465 " fill="none" id="WriteReportController-to-Company" style="stroke:#A80036;stroke-width:1.25;stroke-dasharray:7.0,7.0;"/><polygon fill="#A80036" points="649.9,465,638.65,460,643.65,465,638.65,470,649.9,465" style="stroke:#A80036;stroke-width:1.25;"/><!--MD5=[aa4aa685cc8a1bee089823f9a2dac854]
link WriteReportController to TestStore--><path codeLine="105" d="M485.7875,547.1875 C510.5125,587.8625 545.7625,633.9625 590,661.25 C821.6625,804.125 1152.4375,819.2375 1325.7625,815.8875 " fill="none" id="WriteReportController-to-TestStore" style="stroke:#A80036;stroke-width:1.25;stroke-dasharray:7.0,7.0;"/><polygon fill="#A80036" points="1332.375,815.75,1321.0137,811.0084,1326.1266,815.8928,1321.2422,821.0058,1332.375,815.75" style="stroke:#A80036;stroke-width:1.25;"/><!--MD5=[d2c887862af794255aa293b427ffc580]
link WriteReportController to TestDTO--><path codeLine="106" d="M454.75,382.775 C469.65,303.175 505.375,186.65 590,131.25 C714.4,49.8 894.65,100.7125 1001.15,143.7875 " fill="none" id="WriteReportController-to-TestDTO" style="stroke:#A80036;stroke-width:1.25;stroke-dasharray:7.0,7.0;"/><polygon fill="#A80036" points="1007.1125,146.225,998.6039,137.3274,1001.3307,143.8516,994.8065,146.5783,1007.1125,146.225" style="stroke:#A80036;stroke-width:1.25;"/><!--MD5=[b0f4f6db8206580012ef9cd998ed01c5]
link TestStore to Test--><path codeLine="107" d="M1443.125,736.5375 C1443.125,683.7625 1443.125,613.35 1443.125,563.1125 " fill="none" id="TestStore-to-Test" style="stroke:#A80036;stroke-width:1.25;"/><polygon fill="#A80036" points="1443.125,556.4625,1438.125,567.7125,1443.125,562.7125,1448.125,567.7125,1443.125,556.4625" style="stroke:#A80036;stroke-width:1.25;"/><polygon fill="#000000" points="1400.625,640.5322,1396.9513,651.8386,1404.2987,651.8386,1400.625,640.5322" style="stroke:#000000;stroke-width:1.25;"/><text fill="#000000" font-family="sans-serif" font-size="16.25" lengthAdjust="spacing" textLength="48.75" x="1411.875" y="653.4314">adopts</text><text fill="#000000" font-family="sans-serif" font-size="16.25" lengthAdjust="spacing" textLength="8.75" x="1433.8418" y="723.2475">1</text><text fill="#000000" font-family="sans-serif" font-size="16.25" lengthAdjust="spacing" textLength="6.25" x="1436.4551" y="582.3332">*</text><!--MD5=[670dbdf7395d3fcbb40104f0a070263e]
link Company to Report--><path codeLine="108" d="M824.05,473.5625 C867.4875,477.8875 920.95,483.2125 968.4625,487.95 " fill="none" id="Company-to-Report" style="stroke:#A80036;stroke-width:1.25;"/><polygon fill="#A80036" points="974.825,488.5875,964.1318,482.4868,968.6064,487.9621,963.1311,492.4366,974.825,488.5875" style="stroke:#A80036;stroke-width:1.25;"/><polygon fill="#000000" points="884.9692,469.5893,874.0827,464.8129,873.3544,472.124,884.9692,469.5893" style="stroke:#000000;stroke-width:1.25;"/><text fill="#000000" font-family="sans-serif" font-size="16.25" lengthAdjust="spacing" textLength="46.25" x="890" y="475.6189">knows</text><text fill="#000000" font-family="sans-serif" font-size="16.25" lengthAdjust="spacing" textLength="8.75" x="833.4911" y="492.3462">1</text><text fill="#000000" font-family="sans-serif" font-size="16.25" lengthAdjust="spacing" textLength="6.25" x="958.7265" y="505.3738">*</text><!--MD5=[63d25d625ab355317a074a623d33bba8]
link Report to Test--><path codeLine="109" d="M1206.475,500 C1263.7125,500 1330.7875,500 1378.65,500 " fill="none" id="Report-to-Test" style="stroke:#A80036;stroke-width:1.25;"/><polygon fill="#A80036" points="1384.9875,500,1373.7375,495,1378.7375,500,1373.7375,505,1384.9875,500" style="stroke:#A80036;stroke-width:1.25;"/><polygon fill="#000000" points="1256.25,488.9697,1244.9436,485.2961,1244.9436,492.6434,1256.25,488.9697" style="stroke:#000000;stroke-width:1.25;"/><text fill="#000000" font-family="sans-serif" font-size="16.25" lengthAdjust="spacing" textLength="30" x="1261.25" y="495.6189">is of</text><text fill="#000000" font-family="sans-serif" font-size="16.25" lengthAdjust="spacing" textLength="8.75" x="1216.4311" y="517.7314">1</text><text fill="#000000" font-family="sans-serif" font-size="16.25" lengthAdjust="spacing" textLength="8.75" x="1366.2746" y="518.5467">1</text><!--MD5=[8d9a2c3ea1bf73d8d45b939465e53fff]
link TestMapper to Test--><path codeLine="110" d="M796.3125,151.1125 C889.1875,101.9125 1073.9375,24.375 1206.25,100 C1333.775,172.8875 1399.15,344.725 1426.225,437.675 " fill="none" id="TestMapper-to-Test" style="stroke:#A80036;stroke-width:1.25;stroke-dasharray:7.0,7.0;"/><polygon fill="#A80036" points="1427.9625,443.6875,1429.646,431.4921,1426.229,437.6827,1420.0383,434.2657,1427.9625,443.6875" style="stroke:#A80036;stroke-width:1.25;"/><!--MD5=[f6fda4afaf882dd39139bcbf06c50c8c]
link TestMapper to TestDTO--><path codeLine="111" d="M832.7125,185 C884.9375,185 949.4,185 1000.6625,185 " fill="none" id="TestMapper-to-TestDTO" style="stroke:#A80036;stroke-width:1.25;stroke-dasharray:7.0,7.0;"/><polygon fill="#A80036" points="1007.1625,185,995.9125,180,1000.9125,185,995.9125,190,1007.1625,185" style="stroke:#A80036;stroke-width:1.25;"/><!--MD5=[1f481e981d6113cd0cdf89a2be54823a]
@startuml
hide empty methods
hide empty attributes
left to right direction
skinparam classAttributeIconSize 0

package Core {

package Domain {

package Model {

class Company {
    -String designation
    -TestStore testStore
    +getTestStore()
    +createReport(reportText)
}

class Report {
    - int REPORTTEXT_MAX_LENGTH
    - String reportText
    - Report report
    + Report(reportText)
    + checkReportTextRules(reportText)
    + countWords(reportText)
    + equals(reportObject)
    + create(reportText)
}

class Test {
    -String NHSCode
    -String code
    +getCode()
}

class TestParameter {
    +getParametersResults()
}

}

package Stores {

class TestStore {
    -list<Test> testsReadyToDiagnose
    +getTestsReadyToDiagnose()
    +getTestByCode(code)
    +getTestParameters()
    +addReportToTest(selectedTest)
}

}

}

package Mappers {

class TestMapper {
    +toDTO(listTestsToDiagnose)
}

}

package DTO {

class TestDTO {
    -String NHSCode
    -String code
    +create(NHSCode, code)
    +getCode()
}

}

package Controllers {

class WriteReportController {
    -Company company
    -Report report
    +getTeststoDiagnose()
    +getTestParametersResults()
    +createReport(reportText)
    +addReportToTest(code)
}

}

}

package UI {

package Console {

class WriteReportUI {
}

}

}

WriteReportUI ..> WriteReportController
WriteReportUI ..> TestDTO
WriteReportController ..> TestMapper
WriteReportController ..> Company
WriteReportController ..> TestStore
WriteReportController ..> TestDTO
TestStore "1" -> "*" Test : adopts >
Company "1" - -> "*" Report : knows >
Report "1" - -> "1" Test : is of >
TestMapper ..> Test
TestMapper ..> TestDTO

@enduml

PlantUML version 1.2021.5(Sun Apr 25 12:20:28 BST 2021)
(GPL source distribution)
Java Runtime: OpenJDK Runtime Environment
JVM: Dynamic Code Evolution 64-Bit Server VM
Default Encoding: Cp1252
Language: pt
Country: PT
--></g></svg>