<?xml version="1.0" encoding="UTF-8" standalone="no"?><svg xmlns="http://www.w3.org/2000/svg" xmlns:xlink="http://www.w3.org/1999/xlink" contentScriptType="application/ecmascript" contentStyleType="text/css" height="1231.25px" preserveAspectRatio="none" style="width:1446px;height:1231px;" version="1.1" viewBox="0 0 1446 1231" width="1446.25px" zoomAndPan="magnify"><defs><filter height="300%" id="f1xxarmn3kgn85" width="300%" x="-1" y="-1"><feGaussianBlur result="blurOut" stdDeviation="2.5"/><feColorMatrix in="blurOut" result="blurOut2" type="matrix" values="0 0 0 0 0 0 0 0 0 0 0 0 0 0 0 0 0 0 .4 0"/><feOffset dx="5.0" dy="5.0" in="blurOut2" result="blurOut3"/><feBlend in="SourceGraphic" in2="blurOut3" mode="normal"/></filter></defs><g><!--MD5=[121a8bf1197281ab89ed693fab589f94]
cluster Domain--><polygon fill="#FFFFFF" filter="url(#f1xxarmn3kgn85)" points="762.5,423.75,835,423.75,843.75,453.2617,1347.5,453.2617,1347.5,1222.5,762.5,1222.5,762.5,423.75" style="stroke:#000000;stroke-width:1.875;"/><line style="stroke:#000000;stroke-width:1.875;" x1="762.5" x2="843.75" y1="453.2617" y2="453.2617"/><text fill="#000000" font-family="sans-serif" font-size="17.5" font-weight="bold" lengthAdjust="spacing" textLength="65" x="767.5" y="444.4165">Domain</text><!--MD5=[701152d03fbf85133a1de050cfdbc7fd]
cluster Mappers--><polygon fill="#FFFFFF" filter="url(#f1xxarmn3kgn85)" points="332.5,463.125,417.5,463.125,426.25,492.6367,732.5,492.6367,732.5,613.125,332.5,613.125,332.5,463.125" style="stroke:#000000;stroke-width:1.875;"/><line style="stroke:#000000;stroke-width:1.875;" x1="332.5" x2="426.25" y1="492.6367" y2="492.6367"/><text fill="#000000" font-family="sans-serif" font-size="17.5" font-weight="bold" lengthAdjust="spacing" textLength="77.5" x="337.5" y="483.7915">Mappers</text><!--MD5=[79f6d8311de756be0abfe06353b7a6cc]
cluster DTOs--><polygon fill="#FFFFFF" filter="url(#f1xxarmn3kgn85)" points="27.5,712.5,81.25,712.5,90,742.0117,422.5,742.0117,422.5,958.75,27.5,958.75,27.5,712.5" style="stroke:#000000;stroke-width:1.875;"/><line style="stroke:#000000;stroke-width:1.875;" x1="27.5" x2="90" y1="742.0117" y2="742.0117"/><text fill="#000000" font-family="sans-serif" font-size="17.5" font-weight="bold" lengthAdjust="spacing" textLength="46.25" x="32.5" y="733.1665">DTOs</text><!--MD5=[ed1d20ea533a2a0e7df5ba3c35e56ced]
cluster Controllers--><polygon fill="#FFFFFF" filter="url(#f1xxarmn3kgn85)" points="298.75,153.75,405,153.75,413.75,183.2617,528.75,183.2617,528.75,382.5,298.75,382.5,298.75,153.75" style="stroke:#000000;stroke-width:1.875;"/><line style="stroke:#000000;stroke-width:1.875;" x1="298.75" x2="413.75" y1="183.2617" y2="183.2617"/><text fill="#000000" font-family="sans-serif" font-size="17.5" font-weight="bold" lengthAdjust="spacing" textLength="98.75" x="303.75" y="174.4165">Controllers</text><!--MD5=[9681dc6e01e10c6b4fe06895ae94f592]
cluster UI--><polygon fill="#FFFFFF" filter="url(#f1xxarmn3kgn85)" points="20,7.5,45,7.5,53.75,37.0117,197.5,37.0117,197.5,112.5,20,112.5,20,7.5" style="stroke:#000000;stroke-width:1.875;"/><line style="stroke:#000000;stroke-width:1.875;" x1="20" x2="53.75" y1="37.0117" y2="37.0117"/><text fill="#000000" font-family="sans-serif" font-size="17.5" font-weight="bold" lengthAdjust="spacing" textLength="17.5" x="25" y="28.1665">UI</text><!--MD5=[02e4b9b7573f1156f41e60aa5b4e25a4]
class Company--><rect codeLine="8" fill="#FEFECE" filter="url(#f1xxarmn3kgn85)" height="129.1797" id="Company" style="stroke:#A80036;stroke-width:1.875;" width="173.75" x="1083.125" y="486.25"/><ellipse cx="1132.25" cy="506.25" fill="#ADD1B2" rx="13.75" ry="13.75" style="stroke:#A80036;stroke-width:1.25;"/><path d="M1134.75,501.875 Q1135.0039,501.25 1135.2969,500.9375 Q1135.5898,500.625 1135.9219,500.625 Q1136.5078,500.625 1136.8789,500.9766 Q1137.25,501.3281 1137.25,502.1484 L1137.25,504.1016 Q1137.25,504.9219 1136.8984,505.2734 Q1136.5469,505.625 1136,505.625 Q1135.5117,505.625 1135.1992,505.4102 Q1134.8867,505.1953 1134.75,504.6289 Q1134.6914,504.2383 1134.4766,504.0234 Q1134.0859,503.6133 1133.3828,503.3789 Q1132.6797,503.125 1131.9766,503.125 Q1131.0977,503.125 1130.3555,503.4766 Q1129.6328,503.8281 1129.0664,504.6094 Q1128.5,505.3906 1128.5,506.4648 L1128.5,507.6172 Q1128.5,508.9063 1129.5547,509.7656 Q1130.6094,510.625 1132.4844,510.625 Q1133.5977,510.625 1134.3789,510.3711 Q1134.8281,510.2344 1135.3359,509.7852 Q1135.668,509.5313 1135.8438,509.4531 Q1136.0195,509.375 1136.2344,509.375 Q1136.6445,509.375 1136.9375,509.707 Q1137.25,510.0195 1137.25,510.4688 Q1137.25,510.8984 1136.8203,511.4063 Q1136.1953,512.1484 1135.1992,512.5586 Q1133.8906,513.125 1132.2891,513.125 Q1130.4141,513.125 1128.9102,512.3828 Q1127.6992,511.7969 1126.8398,510.5273 Q1126,509.2578 1126,507.7539 L1126,506.3867 Q1126,504.8242 1126.7422,503.457 Q1127.5039,502.0898 1128.8125,501.3672 Q1130.1406,500.625 1131.625,500.625 Q1132.5234,500.625 1133.3047,500.9375 Q1134.0859,501.25 1134.75,501.875 Z " fill="#000000"/><text fill="#000000" font-family="sans-serif" font-size="15" lengthAdjust="spacing" textLength="66.25" x="1156.5" y="512.3877">Company</text><line style="stroke:#A80036;stroke-width:1.875;" x1="1084.375" x2="1255.625" y1="526.25" y2="526.25"/><text fill="#000000" font-family="sans-serif" font-size="13.75" lengthAdjust="spacing" textLength="112.5" x="1090.625" y="545.5237">-String designation</text><text fill="#000000" font-family="sans-serif" font-size="13.75" lengthAdjust="spacing" textLength="122.5" x="1090.625" y="562.8186">-TestStore testStore</text><line style="stroke:#A80036;stroke-width:1.875;" x1="1084.375" x2="1255.625" y1="570.8398" y2="570.8398"/><text fill="#000000" font-family="sans-serif" font-size="13.75" lengthAdjust="spacing" textLength="95" x="1090.625" y="590.1135">+getTestStore()</text><text fill="#000000" font-family="sans-serif" font-size="13.75" lengthAdjust="spacing" textLength="158.75" x="1090.625" y="607.4084">+createReport(reportText)</text><!--MD5=[f00dbe8c0302c6aec2cb26b3c659c8fc]
class Report--><rect codeLine="15" fill="#FEFECE" filter="url(#f1xxarmn3kgn85)" height="146.4746" id="Report" style="stroke:#A80036;stroke-width:1.875;" width="231.25" x="1035.625" y="775"/><ellipse cx="1122.8125" cy="795" fill="#ADD1B2" rx="13.75" ry="13.75" style="stroke:#A80036;stroke-width:1.25;"/><path d="M1125.3125,790.625 Q1125.5664,790 1125.8594,789.6875 Q1126.1523,789.375 1126.4844,789.375 Q1127.0703,789.375 1127.4414,789.7266 Q1127.8125,790.0781 1127.8125,790.8984 L1127.8125,792.8516 Q1127.8125,793.6719 1127.4609,794.0234 Q1127.1094,794.375 1126.5625,794.375 Q1126.0742,794.375 1125.7617,794.1602 Q1125.4492,793.9453 1125.3125,793.3789 Q1125.2539,792.9883 1125.0391,792.7734 Q1124.6484,792.3633 1123.9453,792.1289 Q1123.2422,791.875 1122.5391,791.875 Q1121.6602,791.875 1120.918,792.2266 Q1120.1953,792.5781 1119.6289,793.3594 Q1119.0625,794.1406 1119.0625,795.2148 L1119.0625,796.3672 Q1119.0625,797.6563 1120.1172,798.5156 Q1121.1719,799.375 1123.0469,799.375 Q1124.1602,799.375 1124.9414,799.1211 Q1125.3906,798.9844 1125.8984,798.5352 Q1126.2305,798.2813 1126.4063,798.2031 Q1126.582,798.125 1126.7969,798.125 Q1127.207,798.125 1127.5,798.457 Q1127.8125,798.7695 1127.8125,799.2188 Q1127.8125,799.6484 1127.3828,800.1563 Q1126.7578,800.8984 1125.7617,801.3086 Q1124.4531,801.875 1122.8516,801.875 Q1120.9766,801.875 1119.4727,801.1328 Q1118.2617,800.5469 1117.4023,799.2773 Q1116.5625,798.0078 1116.5625,796.5039 L1116.5625,795.1367 Q1116.5625,793.5742 1117.3047,792.207 Q1118.0664,790.8398 1119.375,790.1172 Q1120.7031,789.375 1122.1875,789.375 Q1123.0859,789.375 1123.8672,789.6875 Q1124.6484,790 1125.3125,790.625 Z " fill="#000000"/><text fill="#000000" font-family="sans-serif" font-size="15" lengthAdjust="spacing" textLength="46.25" x="1148.4375" y="801.1377">Report</text><line style="stroke:#A80036;stroke-width:1.875;" x1="1036.875" x2="1265.625" y1="815" y2="815"/><text fill="#000000" font-family="sans-serif" font-size="13.75" lengthAdjust="spacing" textLength="106.25" x="1043.125" y="834.2737">-String reportText</text><line style="stroke:#A80036;stroke-width:1.875;" x1="1036.875" x2="1265.625" y1="842.2949" y2="842.2949"/><text fill="#000000" font-family="sans-serif" font-size="13.75" lengthAdjust="spacing" textLength="120" x="1043.125" y="861.5686">+Report(reportText)</text><text fill="#000000" font-family="sans-serif" font-size="13.75" lengthAdjust="spacing" textLength="216.25" x="1043.125" y="878.8635">+checkReportTextRules(reportText)</text><text fill="#000000" font-family="sans-serif" font-size="13.75" lengthAdjust="spacing" textLength="153.75" x="1043.125" y="896.1584">+countWords(reportText)</text><text fill="#000000" font-family="sans-serif" font-size="13.75" lengthAdjust="spacing" textLength="63.75" x="1043.125" y="913.4534">+toString()</text><!--MD5=[df38be88ccee13e832d6fafd6288a4ca]
class Test--><rect codeLine="23" fill="#FEFECE" filter="url(#f1xxarmn3kgn85)" height="163.7695" id="Test" style="stroke:#A80036;stroke-width:1.875;" width="238.75" x="783.125" y="1038.75"/><ellipse cx="882.1875" cy="1058.75" fill="#ADD1B2" rx="13.75" ry="13.75" style="stroke:#A80036;stroke-width:1.25;"/><path d="M884.6875,1054.375 Q884.9414,1053.75 885.2344,1053.4375 Q885.5273,1053.125 885.8594,1053.125 Q886.4453,1053.125 886.8164,1053.4766 Q887.1875,1053.8281 887.1875,1054.6484 L887.1875,1056.6016 Q887.1875,1057.4219 886.8359,1057.7734 Q886.4844,1058.125 885.9375,1058.125 Q885.4492,1058.125 885.1367,1057.9102 Q884.8242,1057.6953 884.6875,1057.1289 Q884.6289,1056.7383 884.4141,1056.5234 Q884.0234,1056.1133 883.3203,1055.8789 Q882.6172,1055.625 881.9141,1055.625 Q881.0352,1055.625 880.293,1055.9766 Q879.5703,1056.3281 879.0039,1057.1094 Q878.4375,1057.8906 878.4375,1058.9648 L878.4375,1060.1172 Q878.4375,1061.4063 879.4922,1062.2656 Q880.5469,1063.125 882.4219,1063.125 Q883.5352,1063.125 884.3164,1062.8711 Q884.7656,1062.7344 885.2734,1062.2852 Q885.6055,1062.0313 885.7813,1061.9531 Q885.957,1061.875 886.1719,1061.875 Q886.582,1061.875 886.875,1062.207 Q887.1875,1062.5195 887.1875,1062.9688 Q887.1875,1063.3984 886.7578,1063.9063 Q886.1328,1064.6484 885.1367,1065.0586 Q883.8281,1065.625 882.2266,1065.625 Q880.3516,1065.625 878.8477,1064.8828 Q877.6367,1064.2969 876.7773,1063.0273 Q875.9375,1061.7578 875.9375,1060.2539 L875.9375,1058.8867 Q875.9375,1057.3242 876.6797,1055.957 Q877.4414,1054.5898 878.75,1053.8672 Q880.0781,1053.125 881.5625,1053.125 Q882.4609,1053.125 883.2422,1053.4375 Q884.0234,1053.75 884.6875,1054.375 Z " fill="#000000"/><text fill="#000000" font-family="sans-serif" font-size="15" lengthAdjust="spacing" textLength="30" x="907.8125" y="1064.8877">Test</text><line style="stroke:#A80036;stroke-width:1.875;" x1="784.375" x2="1020.625" y1="1078.75" y2="1078.75"/><text fill="#000000" font-family="sans-serif" font-size="13.75" lengthAdjust="spacing" textLength="73.75" x="790.625" y="1098.0237">-String code</text><text fill="#000000" font-family="sans-serif" font-size="13.75" lengthAdjust="spacing" textLength="146.25" x="790.625" y="1115.3186">-Report diagnosisReport</text><text fill="#000000" font-family="sans-serif" font-size="13.75" lengthAdjust="spacing" textLength="223.75" x="790.625" y="1132.6135">-List&lt;TestParameter&gt; testParameters</text><line style="stroke:#A80036;stroke-width:1.875;" x1="784.375" x2="1020.625" y1="1140.6348" y2="1140.6348"/><text fill="#000000" font-family="sans-serif" font-size="13.75" lengthAdjust="spacing" textLength="105" x="790.625" y="1159.9084">+getParameters()</text><text fill="#000000" font-family="sans-serif" font-size="13.75" lengthAdjust="spacing" textLength="148.75" x="790.625" y="1177.2034">+hasSamplesAnalysed()</text><text fill="#000000" font-family="sans-serif" font-size="13.75" lengthAdjust="spacing" textLength="116.25" x="790.625" y="1194.4983">+addReport(report)</text><!--MD5=[0f07739f46effee96e095e9c408da841]
class TestParameter--><rect codeLine="32" fill="#FEFECE" filter="url(#f1xxarmn3kgn85)" height="129.1797" id="TestParameter" style="stroke:#A80036;stroke-width:1.875;" width="208.75" x="783.125" y="783.75"/><ellipse cx="831.6875" cy="803.75" fill="#ADD1B2" rx="13.75" ry="13.75" style="stroke:#A80036;stroke-width:1.25;"/><path d="M834.1875,799.375 Q834.4414,798.75 834.7344,798.4375 Q835.0273,798.125 835.3594,798.125 Q835.9453,798.125 836.3164,798.4766 Q836.6875,798.8281 836.6875,799.6484 L836.6875,801.6016 Q836.6875,802.4219 836.3359,802.7734 Q835.9844,803.125 835.4375,803.125 Q834.9492,803.125 834.6367,802.9102 Q834.3242,802.6953 834.1875,802.1289 Q834.1289,801.7383 833.9141,801.5234 Q833.5234,801.1133 832.8203,800.8789 Q832.1172,800.625 831.4141,800.625 Q830.5352,800.625 829.793,800.9766 Q829.0703,801.3281 828.5039,802.1094 Q827.9375,802.8906 827.9375,803.9648 L827.9375,805.1172 Q827.9375,806.4063 828.9922,807.2656 Q830.0469,808.125 831.9219,808.125 Q833.0352,808.125 833.8164,807.8711 Q834.2656,807.7344 834.7734,807.2852 Q835.1055,807.0313 835.2813,806.9531 Q835.457,806.875 835.6719,806.875 Q836.082,806.875 836.375,807.207 Q836.6875,807.5195 836.6875,807.9688 Q836.6875,808.3984 836.2578,808.9063 Q835.6328,809.6484 834.6367,810.0586 Q833.3281,810.625 831.7266,810.625 Q829.8516,810.625 828.3477,809.8828 Q827.1367,809.2969 826.2773,808.0273 Q825.4375,806.7578 825.4375,805.2539 L825.4375,803.8867 Q825.4375,802.3242 826.1797,800.957 Q826.9414,799.5898 828.25,798.8672 Q829.5781,798.125 831.0625,798.125 Q831.9609,798.125 832.7422,798.4375 Q833.5234,798.75 834.1875,799.375 Z " fill="#000000"/><text fill="#000000" font-family="sans-serif" font-size="15" lengthAdjust="spacing" textLength="102.5" x="855.8125" y="809.8877">TestParameter</text><line style="stroke:#A80036;stroke-width:1.875;" x1="784.375" x2="990.625" y1="823.75" y2="823.75"/><text fill="#000000" font-family="sans-serif" font-size="13.75" lengthAdjust="spacing" textLength="131.25" x="790.625" y="843.0237">-Parameter parameter</text><text fill="#000000" font-family="sans-serif" font-size="13.75" lengthAdjust="spacing" textLength="193.75" x="790.625" y="860.3186">-TestParameterResult testResult</text><line style="stroke:#A80036;stroke-width:1.875;" x1="784.375" x2="990.625" y1="868.3398" y2="868.3398"/><text fill="#000000" font-family="sans-serif" font-size="13.75" lengthAdjust="spacing" textLength="97.5" x="790.625" y="887.6135">+getParameter()</text><text fill="#000000" font-family="sans-serif" font-size="13.75" lengthAdjust="spacing" textLength="135" x="790.625" y="904.9084">+getParameterResult()</text><!--MD5=[4e608140b854dae633589343bce77383]
class TestParameterResult--><rect codeLine="39" fill="#FEFECE" filter="url(#f1xxarmn3kgn85)" height="163.7695" id="TestParameterResult" style="stroke:#A80036;stroke-width:1.875;" width="256.25" x="783.125" y="468.75"/><ellipse cx="832.8125" cy="488.75" fill="#ADD1B2" rx="13.75" ry="13.75" style="stroke:#A80036;stroke-width:1.25;"/><path d="M835.3125,484.375 Q835.5664,483.75 835.8594,483.4375 Q836.1523,483.125 836.4844,483.125 Q837.0703,483.125 837.4414,483.4766 Q837.8125,483.8281 837.8125,484.6484 L837.8125,486.6016 Q837.8125,487.4219 837.4609,487.7734 Q837.1094,488.125 836.5625,488.125 Q836.0742,488.125 835.7617,487.9102 Q835.4492,487.6953 835.3125,487.1289 Q835.2539,486.7383 835.0391,486.5234 Q834.6484,486.1133 833.9453,485.8789 Q833.2422,485.625 832.5391,485.625 Q831.6602,485.625 830.918,485.9766 Q830.1953,486.3281 829.6289,487.1094 Q829.0625,487.8906 829.0625,488.9648 L829.0625,490.1172 Q829.0625,491.4063 830.1172,492.2656 Q831.1719,493.125 833.0469,493.125 Q834.1602,493.125 834.9414,492.8711 Q835.3906,492.7344 835.8984,492.2852 Q836.2305,492.0313 836.4063,491.9531 Q836.582,491.875 836.7969,491.875 Q837.207,491.875 837.5,492.207 Q837.8125,492.5195 837.8125,492.9688 Q837.8125,493.3984 837.3828,493.9063 Q836.7578,494.6484 835.7617,495.0586 Q834.4531,495.625 832.8516,495.625 Q830.9766,495.625 829.4727,494.8828 Q828.2617,494.2969 827.4023,493.0273 Q826.5625,491.7578 826.5625,490.2539 L826.5625,488.8867 Q826.5625,487.3242 827.3047,485.957 Q828.0664,484.5898 829.375,483.8672 Q830.7031,483.125 832.1875,483.125 Q833.0859,483.125 833.8672,483.4375 Q834.6484,483.75 835.3125,484.375 Z " fill="#000000"/><text fill="#000000" font-family="sans-serif" font-size="15" lengthAdjust="spacing" textLength="147.5" x="857.1875" y="494.8877">TestParameterResult</text><line style="stroke:#A80036;stroke-width:1.875;" x1="784.375" x2="1038.125" y1="508.75" y2="508.75"/><text fill="#000000" font-family="sans-serif" font-size="13.75" lengthAdjust="spacing" textLength="82.5" x="790.625" y="528.0237">-Double value</text><text fill="#000000" font-family="sans-serif" font-size="13.75" lengthAdjust="spacing" textLength="80" x="790.625" y="545.3186">-String metric</text><text fill="#000000" font-family="sans-serif" font-size="13.75" lengthAdjust="spacing" textLength="241.25" x="790.625" y="562.6135">-MyReferenceValue myReferenceValue</text><line style="stroke:#A80036;stroke-width:1.875;" x1="784.375" x2="1038.125" y1="570.6348" y2="570.6348"/><text fill="#000000" font-family="sans-serif" font-size="13.75" lengthAdjust="spacing" textLength="108.75" x="790.625" y="589.9084">+getResultValue()</text><text fill="#000000" font-family="sans-serif" font-size="13.75" lengthAdjust="spacing" textLength="110" x="790.625" y="607.2034">+getResultMetric()</text><text fill="#000000" font-family="sans-serif" font-size="13.75" lengthAdjust="spacing" textLength="172.5" x="790.625" y="624.4983">+getResultReferenceValue()</text><!--MD5=[0f6f7964b844a64b0496af0dda7914bd]
class TestStore--><rect codeLine="48" fill="#FEFECE" filter="url(#f1xxarmn3kgn85)" height="129.1797" id="TestStore" style="stroke:#A80036;stroke-width:1.875;" width="195" x="1132.5" y="1056.25"/><ellipse cx="1191.5625" cy="1076.25" fill="#ADD1B2" rx="13.75" ry="13.75" style="stroke:#A80036;stroke-width:1.25;"/><path d="M1194.0625,1071.875 Q1194.3164,1071.25 1194.6094,1070.9375 Q1194.9023,1070.625 1195.2344,1070.625 Q1195.8203,1070.625 1196.1914,1070.9766 Q1196.5625,1071.3281 1196.5625,1072.1484 L1196.5625,1074.1016 Q1196.5625,1074.9219 1196.2109,1075.2734 Q1195.8594,1075.625 1195.3125,1075.625 Q1194.8242,1075.625 1194.5117,1075.4102 Q1194.1992,1075.1953 1194.0625,1074.6289 Q1194.0039,1074.2383 1193.7891,1074.0234 Q1193.3984,1073.6133 1192.6953,1073.3789 Q1191.9922,1073.125 1191.2891,1073.125 Q1190.4102,1073.125 1189.668,1073.4766 Q1188.9453,1073.8281 1188.3789,1074.6094 Q1187.8125,1075.3906 1187.8125,1076.4648 L1187.8125,1077.6172 Q1187.8125,1078.9063 1188.8672,1079.7656 Q1189.9219,1080.625 1191.7969,1080.625 Q1192.9102,1080.625 1193.6914,1080.3711 Q1194.1406,1080.2344 1194.6484,1079.7852 Q1194.9805,1079.5313 1195.1563,1079.4531 Q1195.332,1079.375 1195.5469,1079.375 Q1195.957,1079.375 1196.25,1079.707 Q1196.5625,1080.0195 1196.5625,1080.4688 Q1196.5625,1080.8984 1196.1328,1081.4063 Q1195.5078,1082.1484 1194.5117,1082.5586 Q1193.2031,1083.125 1191.6016,1083.125 Q1189.7266,1083.125 1188.2227,1082.3828 Q1187.0117,1081.7969 1186.1523,1080.5273 Q1185.3125,1079.2578 1185.3125,1077.7539 L1185.3125,1076.3867 Q1185.3125,1074.8242 1186.0547,1073.457 Q1186.8164,1072.0898 1188.125,1071.3672 Q1189.4531,1070.625 1190.9375,1070.625 Q1191.8359,1070.625 1192.6172,1070.9375 Q1193.3984,1071.25 1194.0625,1071.875 Z " fill="#000000"/><text fill="#000000" font-family="sans-serif" font-size="15" lengthAdjust="spacing" textLength="66.25" x="1217.1875" y="1082.3877">TestStore</text><line style="stroke:#A80036;stroke-width:1.875;" x1="1133.75" x2="1326.25" y1="1096.25" y2="1096.25"/><text fill="#000000" font-family="sans-serif" font-size="13.75" lengthAdjust="spacing" textLength="110" x="1140" y="1115.5237">-list&lt;Test&gt; testList</text><line style="stroke:#A80036;stroke-width:1.875;" x1="1133.75" x2="1326.25" y1="1123.5449" y2="1123.5449"/><text fill="#000000" font-family="sans-serif" font-size="13.75" lengthAdjust="spacing" textLength="180" x="1140" y="1142.8186">+getTestsReadyToDiagnose()</text><text fill="#000000" font-family="sans-serif" font-size="13.75" lengthAdjust="spacing" textLength="140" x="1140" y="1160.1135">+getTestByCode(code)</text><text fill="#000000" font-family="sans-serif" font-size="13.75" lengthAdjust="spacing" textLength="146.25" x="1140" y="1177.4084">+getTestParameters(tst)</text><!--MD5=[144698ec4d0188f6929a3b58a3eeb1f6]
class TestMapper--><rect codeLine="59" fill="#FEFECE" filter="url(#f1xxarmn3kgn85)" height="84.5898" id="TestMapper" style="stroke:#A80036;stroke-width:1.875;" width="121.25" x="353.125" y="508.125"/><ellipse cx="371.875" cy="528.125" fill="#ADD1B2" rx="13.75" ry="13.75" style="stroke:#A80036;stroke-width:1.25;"/><path d="M374.375,523.75 Q374.6289,523.125 374.9219,522.8125 Q375.2148,522.5 375.5469,522.5 Q376.1328,522.5 376.5039,522.8516 Q376.875,523.2031 376.875,524.0234 L376.875,525.9766 Q376.875,526.7969 376.5234,527.1484 Q376.1719,527.5 375.625,527.5 Q375.1367,527.5 374.8242,527.2852 Q374.5117,527.0703 374.375,526.5039 Q374.3164,526.1133 374.1016,525.8984 Q373.7109,525.4883 373.0078,525.2539 Q372.3047,525 371.6016,525 Q370.7227,525 369.9805,525.3516 Q369.2578,525.7031 368.6914,526.4844 Q368.125,527.2656 368.125,528.3398 L368.125,529.4922 Q368.125,530.7813 369.1797,531.6406 Q370.2344,532.5 372.1094,532.5 Q373.2227,532.5 374.0039,532.2461 Q374.4531,532.1094 374.9609,531.6602 Q375.293,531.4063 375.4688,531.3281 Q375.6445,531.25 375.8594,531.25 Q376.2695,531.25 376.5625,531.582 Q376.875,531.8945 376.875,532.3438 Q376.875,532.7734 376.4453,533.2813 Q375.8203,534.0234 374.8242,534.4336 Q373.5156,535 371.9141,535 Q370.0391,535 368.5352,534.2578 Q367.3242,533.6719 366.4648,532.4023 Q365.625,531.1328 365.625,529.6289 L365.625,528.2617 Q365.625,526.6992 366.3672,525.332 Q367.1289,523.9648 368.4375,523.2422 Q369.7656,522.5 371.25,522.5 Q372.1484,522.5 372.9297,522.8125 Q373.7109,523.125 374.375,523.75 Z " fill="#000000"/><text fill="#000000" font-family="sans-serif" font-size="15" lengthAdjust="spacing" textLength="81.25" x="389.375" y="534.2627">TestMapper</text><line style="stroke:#A80036;stroke-width:1.875;" x1="354.375" x2="473.125" y1="548.125" y2="548.125"/><text fill="#000000" font-family="sans-serif" font-size="13.75" lengthAdjust="spacing" textLength="85" x="360.625" y="567.3987">+toDTO(tests)</text><text fill="#000000" font-family="sans-serif" font-size="13.75" lengthAdjust="spacing" textLength="77.5" x="360.625" y="584.6936">+toDTO(test)</text><!--MD5=[a82d32c079496d6dca2681dc0633feb0]
class TestParameterMapper--><rect codeLine="64" fill="#FEFECE" filter="url(#f1xxarmn3kgn85)" height="84.5898" id="TestParameterMapper" style="stroke:#A80036;stroke-width:1.875;" width="193.75" x="518.125" y="508.125"/><ellipse cx="536.875" cy="528.125" fill="#ADD1B2" rx="13.75" ry="13.75" style="stroke:#A80036;stroke-width:1.25;"/><path d="M539.375,523.75 Q539.6289,523.125 539.9219,522.8125 Q540.2148,522.5 540.5469,522.5 Q541.1328,522.5 541.5039,522.8516 Q541.875,523.2031 541.875,524.0234 L541.875,525.9766 Q541.875,526.7969 541.5234,527.1484 Q541.1719,527.5 540.625,527.5 Q540.1367,527.5 539.8242,527.2852 Q539.5117,527.0703 539.375,526.5039 Q539.3164,526.1133 539.1016,525.8984 Q538.7109,525.4883 538.0078,525.2539 Q537.3047,525 536.6016,525 Q535.7227,525 534.9805,525.3516 Q534.2578,525.7031 533.6914,526.4844 Q533.125,527.2656 533.125,528.3398 L533.125,529.4922 Q533.125,530.7813 534.1797,531.6406 Q535.2344,532.5 537.1094,532.5 Q538.2227,532.5 539.0039,532.2461 Q539.4531,532.1094 539.9609,531.6602 Q540.293,531.4063 540.4688,531.3281 Q540.6445,531.25 540.8594,531.25 Q541.2695,531.25 541.5625,531.582 Q541.875,531.8945 541.875,532.3438 Q541.875,532.7734 541.4453,533.2813 Q540.8203,534.0234 539.8242,534.4336 Q538.5156,535 536.9141,535 Q535.0391,535 533.5352,534.2578 Q532.3242,533.6719 531.4648,532.4023 Q530.625,531.1328 530.625,529.6289 L530.625,528.2617 Q530.625,526.6992 531.3672,525.332 Q532.1289,523.9648 533.4375,523.2422 Q534.7656,522.5 536.25,522.5 Q537.1484,522.5 537.9297,522.8125 Q538.7109,523.125 539.375,523.75 Z " fill="#000000"/><text fill="#000000" font-family="sans-serif" font-size="15" lengthAdjust="spacing" textLength="153.75" x="554.375" y="534.2627">TestParameterMapper</text><line style="stroke:#A80036;stroke-width:1.875;" x1="519.375" x2="710.625" y1="548.125" y2="548.125"/><text fill="#000000" font-family="sans-serif" font-size="13.75" lengthAdjust="spacing" textLength="138.75" x="525.625" y="567.3987">+toDTO(testParameter)</text><text fill="#000000" font-family="sans-serif" font-size="13.75" lengthAdjust="spacing" textLength="146.25" x="525.625" y="584.6936">+toDTO(testParameters)</text><!--MD5=[9fb704ffefcaf68bf1a361787afa998b]
class TestDTO--><rect codeLine="73" fill="#FEFECE" filter="url(#f1xxarmn3kgn85)" height="94.5898" id="TestDTO" style="stroke:#A80036;stroke-width:1.875;" width="101.25" x="48.125" y="800.625"/><ellipse cx="66.875" cy="820.625" fill="#ADD1B2" rx="13.75" ry="13.75" style="stroke:#A80036;stroke-width:1.25;"/><path d="M69.375,816.25 Q69.6289,815.625 69.9219,815.3125 Q70.2148,815 70.5469,815 Q71.1328,815 71.5039,815.3516 Q71.875,815.7031 71.875,816.5234 L71.875,818.4766 Q71.875,819.2969 71.5234,819.6484 Q71.1719,820 70.625,820 Q70.1367,820 69.8242,819.7852 Q69.5117,819.5703 69.375,819.0039 Q69.3164,818.6133 69.1016,818.3984 Q68.7109,817.9883 68.0078,817.7539 Q67.3047,817.5 66.6016,817.5 Q65.7227,817.5 64.9805,817.8516 Q64.2578,818.2031 63.6914,818.9844 Q63.125,819.7656 63.125,820.8398 L63.125,821.9922 Q63.125,823.2813 64.1797,824.1406 Q65.2344,825 67.1094,825 Q68.2227,825 69.0039,824.7461 Q69.4531,824.6094 69.9609,824.1602 Q70.293,823.9063 70.4688,823.8281 Q70.6445,823.75 70.8594,823.75 Q71.2695,823.75 71.5625,824.082 Q71.875,824.3945 71.875,824.8438 Q71.875,825.2734 71.4453,825.7813 Q70.8203,826.5234 69.8242,826.9336 Q68.5156,827.5 66.9141,827.5 Q65.0391,827.5 63.5352,826.7578 Q62.3242,826.1719 61.4648,824.9023 Q60.625,823.6328 60.625,822.1289 L60.625,820.7617 Q60.625,819.1992 61.3672,817.832 Q62.1289,816.4648 63.4375,815.7422 Q64.7656,815 66.25,815 Q67.1484,815 67.9297,815.3125 Q68.7109,815.625 69.375,816.25 Z " fill="#000000"/><text fill="#000000" font-family="sans-serif" font-size="15" lengthAdjust="spacing" textLength="61.25" x="84.375" y="826.7627">TestDTO</text><line style="stroke:#A80036;stroke-width:1.875;" x1="49.375" x2="148.125" y1="840.625" y2="840.625"/><text fill="#000000" font-family="sans-serif" font-size="13.75" lengthAdjust="spacing" textLength="73.75" x="55.625" y="859.8987">-String code</text><line style="stroke:#A80036;stroke-width:1.875;" x1="49.375" x2="148.125" y1="867.9199" y2="867.9199"/><text fill="#000000" font-family="sans-serif" font-size="13.75" lengthAdjust="spacing" textLength="67.5" x="55.625" y="887.1936">+getCode()</text><!--MD5=[77cd0d232cb0916388eba2b410e3de64]
class TestParametersDTO--><rect codeLine="78" fill="#FEFECE" filter="url(#f1xxarmn3kgn85)" height="181.0645" id="TestParametersDTO" style="stroke:#A80036;stroke-width:1.875;" width="208.75" x="193.125" y="757.5"/><ellipse cx="223.6875" cy="777.5" fill="#ADD1B2" rx="13.75" ry="13.75" style="stroke:#A80036;stroke-width:1.25;"/><path d="M226.1875,773.125 Q226.4414,772.5 226.7344,772.1875 Q227.0273,771.875 227.3594,771.875 Q227.9453,771.875 228.3164,772.2266 Q228.6875,772.5781 228.6875,773.3984 L228.6875,775.3516 Q228.6875,776.1719 228.3359,776.5234 Q227.9844,776.875 227.4375,776.875 Q226.9492,776.875 226.6367,776.6602 Q226.3242,776.4453 226.1875,775.8789 Q226.1289,775.4883 225.9141,775.2734 Q225.5234,774.8633 224.8203,774.6289 Q224.1172,774.375 223.4141,774.375 Q222.5352,774.375 221.793,774.7266 Q221.0703,775.0781 220.5039,775.8594 Q219.9375,776.6406 219.9375,777.7148 L219.9375,778.8672 Q219.9375,780.1563 220.9922,781.0156 Q222.0469,781.875 223.9219,781.875 Q225.0352,781.875 225.8164,781.6211 Q226.2656,781.4844 226.7734,781.0352 Q227.1055,780.7813 227.2813,780.7031 Q227.457,780.625 227.6719,780.625 Q228.082,780.625 228.375,780.957 Q228.6875,781.2695 228.6875,781.7188 Q228.6875,782.1484 228.2578,782.6563 Q227.6328,783.3984 226.6367,783.8086 Q225.3281,784.375 223.7266,784.375 Q221.8516,784.375 220.3477,783.6328 Q219.1367,783.0469 218.2773,781.7773 Q217.4375,780.5078 217.4375,779.0039 L217.4375,777.6367 Q217.4375,776.0742 218.1797,774.707 Q218.9414,773.3398 220.25,772.6172 Q221.5781,771.875 223.0625,771.875 Q223.9609,771.875 224.7422,772.1875 Q225.5234,772.5 226.1875,773.125 Z " fill="#000000"/><text fill="#000000" font-family="sans-serif" font-size="15" lengthAdjust="spacing" textLength="142.5" x="243.8125" y="783.6377">TestParametersDTO</text><line style="stroke:#A80036;stroke-width:1.875;" x1="194.375" x2="400.625" y1="797.5" y2="797.5"/><text fill="#000000" font-family="sans-serif" font-size="13.75" lengthAdjust="spacing" textLength="131.25" x="200.625" y="816.7737">-Parameter parameter</text><text fill="#000000" font-family="sans-serif" font-size="13.75" lengthAdjust="spacing" textLength="193.75" x="200.625" y="834.0686">-TestParameterResult testResult</text><line style="stroke:#A80036;stroke-width:1.875;" x1="194.375" x2="400.625" y1="842.0898" y2="842.0898"/><text fill="#000000" font-family="sans-serif" font-size="13.75" lengthAdjust="spacing" textLength="97.5" x="200.625" y="861.3635">+getParameter()</text><text fill="#000000" font-family="sans-serif" font-size="13.75" lengthAdjust="spacing" textLength="161.25" x="200.625" y="878.6584">+getTestParameterResult()</text><text fill="#000000" font-family="sans-serif" font-size="13.75" lengthAdjust="spacing" textLength="108.75" x="200.625" y="895.9534">+getResultValue()</text><text fill="#000000" font-family="sans-serif" font-size="13.75" lengthAdjust="spacing" textLength="110" x="200.625" y="913.2483">+getResultMetric()</text><text fill="#000000" font-family="sans-serif" font-size="13.75" lengthAdjust="spacing" textLength="172.5" x="200.625" y="930.5432">+getResultReferenceValue()</text><!--MD5=[d7b8916e3117ca4a3ffdab4f31ea783a]
class WriteReportController--><rect codeLine="92" fill="#FEFECE" filter="url(#f1xxarmn3kgn85)" height="163.7695" id="WriteReportController" style="stroke:#A80036;stroke-width:1.875;" width="188.75" x="319.375" y="198.75"/><ellipse cx="338.125" cy="218.75" fill="#ADD1B2" rx="13.75" ry="13.75" style="stroke:#A80036;stroke-width:1.25;"/><path d="M340.625,214.375 Q340.8789,213.75 341.1719,213.4375 Q341.4648,213.125 341.7969,213.125 Q342.3828,213.125 342.7539,213.4766 Q343.125,213.8281 343.125,214.6484 L343.125,216.6016 Q343.125,217.4219 342.7734,217.7734 Q342.4219,218.125 341.875,218.125 Q341.3867,218.125 341.0742,217.9102 Q340.7617,217.6953 340.625,217.1289 Q340.5664,216.7383 340.3516,216.5234 Q339.9609,216.1133 339.2578,215.8789 Q338.5547,215.625 337.8516,215.625 Q336.9727,215.625 336.2305,215.9766 Q335.5078,216.3281 334.9414,217.1094 Q334.375,217.8906 334.375,218.9648 L334.375,220.1172 Q334.375,221.4063 335.4297,222.2656 Q336.4844,223.125 338.3594,223.125 Q339.4727,223.125 340.2539,222.8711 Q340.7031,222.7344 341.2109,222.2852 Q341.543,222.0313 341.7188,221.9531 Q341.8945,221.875 342.1094,221.875 Q342.5195,221.875 342.8125,222.207 Q343.125,222.5195 343.125,222.9688 Q343.125,223.3984 342.6953,223.9063 Q342.0703,224.6484 341.0742,225.0586 Q339.7656,225.625 338.1641,225.625 Q336.2891,225.625 334.7852,224.8828 Q333.5742,224.2969 332.7148,223.0273 Q331.875,221.7578 331.875,220.2539 L331.875,218.8867 Q331.875,217.3242 332.6172,215.957 Q333.3789,214.5898 334.6875,213.8672 Q336.0156,213.125 337.5,213.125 Q338.3984,213.125 339.1797,213.4375 Q339.9609,213.75 340.625,214.375 Z " fill="#000000"/><text fill="#000000" font-family="sans-serif" font-size="15" lengthAdjust="spacing" textLength="148.75" x="355.625" y="224.8877">WriteReportController</text><line style="stroke:#A80036;stroke-width:1.875;" x1="320.625" x2="506.875" y1="238.75" y2="238.75"/><text fill="#000000" font-family="sans-serif" font-size="13.75" lengthAdjust="spacing" textLength="120" x="326.875" y="258.0237">-Company company</text><text fill="#000000" font-family="sans-serif" font-size="13.75" lengthAdjust="spacing" textLength="85" x="326.875" y="275.3186">-Report report</text><line style="stroke:#A80036;stroke-width:1.875;" x1="320.625" x2="506.875" y1="283.3398" y2="283.3398"/><text fill="#000000" font-family="sans-serif" font-size="13.75" lengthAdjust="spacing" textLength="158.75" x="326.875" y="302.6135">+createReport(reportText)</text><text fill="#000000" font-family="sans-serif" font-size="13.75" lengthAdjust="spacing" textLength="151.25" x="326.875" y="319.9084">+addReportToTest(code)</text><text fill="#000000" font-family="sans-serif" font-size="13.75" lengthAdjust="spacing" textLength="141.25" x="326.875" y="337.2034">+getTestsToDiagnose()</text><text fill="#000000" font-family="sans-serif" font-size="13.75" lengthAdjust="spacing" textLength="161.25" x="326.875" y="354.4983">+getTestParameters(code)</text><!--MD5=[71fba8c2abd557a2f7006580273aba3e]
class WriteReportUI--><rect codeLine="105" fill="#FEFECE" filter="url(#f1xxarmn3kgn85)" height="40" id="WriteReportUI" style="stroke:#A80036;stroke-width:1.875;" width="136.25" x="40.625" y="52.5"/><ellipse cx="59.375" cy="72.5" fill="#ADD1B2" rx="13.75" ry="13.75" style="stroke:#A80036;stroke-width:1.25;"/><path d="M61.875,68.125 Q62.1289,67.5 62.4219,67.1875 Q62.7148,66.875 63.0469,66.875 Q63.6328,66.875 64.0039,67.2266 Q64.375,67.5781 64.375,68.3984 L64.375,70.3516 Q64.375,71.1719 64.0234,71.5234 Q63.6719,71.875 63.125,71.875 Q62.6367,71.875 62.3242,71.6602 Q62.0117,71.4453 61.875,70.8789 Q61.8164,70.4883 61.6016,70.2734 Q61.2109,69.8633 60.5078,69.6289 Q59.8047,69.375 59.1016,69.375 Q58.2227,69.375 57.4805,69.7266 Q56.7578,70.0781 56.1914,70.8594 Q55.625,71.6406 55.625,72.7148 L55.625,73.8672 Q55.625,75.1563 56.6797,76.0156 Q57.7344,76.875 59.6094,76.875 Q60.7227,76.875 61.5039,76.6211 Q61.9531,76.4844 62.4609,76.0352 Q62.793,75.7813 62.9688,75.7031 Q63.1445,75.625 63.3594,75.625 Q63.7695,75.625 64.0625,75.957 Q64.375,76.2695 64.375,76.7188 Q64.375,77.1484 63.9453,77.6563 Q63.3203,78.3984 62.3242,78.8086 Q61.0156,79.375 59.4141,79.375 Q57.5391,79.375 56.0352,78.6328 Q54.8242,78.0469 53.9648,76.7773 Q53.125,75.5078 53.125,74.0039 L53.125,72.6367 Q53.125,71.0742 53.8672,69.707 Q54.6289,68.3398 55.9375,67.6172 Q57.2656,66.875 58.75,66.875 Q59.6484,66.875 60.4297,67.1875 Q61.2109,67.5 61.875,68.125 Z " fill="#000000"/><text fill="#000000" font-family="sans-serif" font-size="15" lengthAdjust="spacing" textLength="96.25" x="76.875" y="78.6377">WriteReportUI</text><!--MD5=[4ff913b72b026e4c95390310e4df5ddd]
link WriteReportUI to WriteReportController--><path codeLine="110" d="M136.9,92.725 C176.85,119.6625 252.0125,170.3375 313.9625,212.1 " fill="none" id="WriteReportUI-to-WriteReportController" style="stroke:#A80036;stroke-width:1.25;stroke-dasharray:7.0,7.0;"/><polygon fill="#A80036" points="319.15,215.6,312.5877,205.1838,313.9579,212.1208,307.0209,213.4911,319.15,215.6" style="stroke:#A80036;stroke-width:1.25;"/><!--MD5=[b14f4b55bc9aa939c7cd06f1c0b56da5]
link WriteReportUI to TestDTO--><path codeLine="111" d="M94.9625,92.8125 C87.85,103.825 79.925,118.275 76.25,132.5 C14.0375,373.4875 58.25,444.2625 76.25,692.5 C78.7125,726.55 84.2125,764.4875 89.15,794.2375 " fill="none" id="WriteReportUI-to-TestDTO" style="stroke:#A80036;stroke-width:1.25;stroke-dasharray:7.0,7.0;"/><polygon fill="#A80036" points="90.1875,800.45,93.2532,788.5267,89.1513,794.2865,83.3916,790.1846,90.1875,800.45" style="stroke:#A80036;stroke-width:1.25;"/><!--MD5=[8952b7c69889eb72cb6c7fe0a635c82b]
link WriteReportUI to TestParametersDTO--><path codeLine="112" d="M113.4125,92.8625 C135.425,183 229.6375,568.8875 274.1,751 " fill="none" id="WriteReportUI-to-TestParametersDTO" style="stroke:#A80036;stroke-width:1.25;stroke-dasharray:7.0,7.0;"/><polygon fill="#A80036" points="275.65,757.4,277.8394,745.2852,274.1678,751.3283,268.1247,747.6567,275.65,757.4" style="stroke:#A80036;stroke-width:1.25;"/><!--MD5=[f27b4a25a5b059d18ef9f1b16d7419ab]
link WriteReportController to TestMapper--><path codeLine="113" d="M413.75,362.8625 C413.75,408.0625 413.75,462.85 413.75,501.3125 " fill="none" id="WriteReportController-to-TestMapper" style="stroke:#A80036;stroke-width:1.25;stroke-dasharray:7.0,7.0;"/><polygon fill="#A80036" points="413.75,507.825,418.75,496.575,413.75,501.575,408.75,496.575,413.75,507.825" style="stroke:#A80036;stroke-width:1.25;"/><!--MD5=[2a13b80ffc8ef808da3a7bc0ac83e972]
link WriteReportController to TestParameterMapper--><path codeLine="114" d="M474.675,362.8625 C509.1125,408.625 550.925,464.2125 579.9125,502.7375 " fill="none" id="WriteReportController-to-TestParameterMapper" style="stroke:#A80036;stroke-width:1.25;stroke-dasharray:7.0,7.0;"/><polygon fill="#A80036" points="583.7375,507.825,580.9875,495.825,579.9875,502.825,572.9875,501.825,583.7375,507.825" style="stroke:#A80036;stroke-width:1.25;"/><!--MD5=[a3405a5a29c0a1359ce5b85a18cd6043]
link WriteReportController to Company--><path codeLine="115" d="M508.35,281.5 C641.3,285.1125 886.7,307.225 1061.25,413.75 C1088.2,430.1875 1111.275,455.8375 1129.15,480.425 " fill="none" id="WriteReportController-to-Company" style="stroke:#A80036;stroke-width:1.25;stroke-dasharray:7.0,7.0;"/><polygon fill="#A80036" points="1133.1125,485.975,1130.6583,473.911,1129.4865,480.8843,1122.5132,479.7126,1133.1125,485.975" style="stroke:#A80036;stroke-width:1.25;"/><!--MD5=[aa4aa685cc8a1bee089823f9a2dac854]
link WriteReportController to TestStore--><path codeLine="116" d="M508.3625,281.7875 C711.325,283.775 1178.2875,300.825 1278.75,413.75 C1438.3875,593.2 1325.6375,910.3375 1263.525,1050.025 " fill="none" id="WriteReportController-to-TestStore" style="stroke:#A80036;stroke-width:1.25;stroke-dasharray:7.0,7.0;"/><polygon fill="#A80036" points="1260.8,1056.1375,1269.9548,1047.9064,1263.3499,1050.4313,1260.825,1043.8265,1260.8,1056.1375" style="stroke:#A80036;stroke-width:1.25;"/><!--MD5=[d2c887862af794255aa293b427ffc580]
link WriteReportController to TestDTO--><path codeLine="117" d="M326,362.6125 C311.2125,378.675 296.8375,396.0625 285,413.75 C200.925,539.3875 141.225,709.175 114.4875,794.025 " fill="none" id="WriteReportController-to-TestDTO" style="stroke:#A80036;stroke-width:1.25;stroke-dasharray:7.0,7.0;"/><polygon fill="#A80036" points="112.4625,800.475,120.581,791.2202,114.3206,794.5076,111.0332,788.2472,112.4625,800.475" style="stroke:#A80036;stroke-width:1.25;"/><!--MD5=[dbb0252714d08a11ef8d6a3e51fdcca3]
link WriteReportController to TestParametersDTO--><path codeLine="118" d="M355.8625,362.6625 C346.5875,378.925 338.1875,396.375 332.5,413.75 C295.9375,525.425 290.9125,661.55 292.575,751.025 " fill="none" id="WriteReportController-to-TestParametersDTO" style="stroke:#A80036;stroke-width:1.25;stroke-dasharray:7.0,7.0;"/><polygon fill="#A80036" points="292.7125,757.3875,297.4859,746.0395,292.5872,751.1388,287.4879,746.24,292.7125,757.3875" style="stroke:#A80036;stroke-width:1.25;"/><!--MD5=[b0f4f6db8206580012ef9cd998ed01c5]
link TestStore to Test--><path codeLine="119" d="M1132.1625,1120.625 C1099.6125,1120.625 1062.8875,1120.625 1028.5125,1120.625 " fill="none" id="TestStore-to-Test" style="stroke:#A80036;stroke-width:1.25;"/><polygon fill="#A80036" points="1022.125,1120.625,1033.375,1125.625,1028.375,1120.625,1033.375,1115.625,1022.125,1120.625" style="stroke:#A80036;stroke-width:1.25;"/><polygon fill="#000000" points="1043.4375,1105.8447,1054.7439,1109.5184,1054.7439,1102.1711,1043.4375,1105.8447" style="stroke:#000000;stroke-width:1.25;"/><text fill="#000000" font-family="sans-serif" font-size="16.25" lengthAdjust="spacing" textLength="48.75" x="1060.9375" y="1112.4939">adopts</text><text fill="#000000" font-family="sans-serif" font-size="16.25" lengthAdjust="spacing" textLength="8.75" x="1113.6704" y="1116.5412">1</text><text fill="#000000" font-family="sans-serif" font-size="16.25" lengthAdjust="spacing" textLength="6.25" x="1031.9066" y="1116.7138">*</text><!--MD5=[670dbdf7395d3fcbb40104f0a070263e]
link Company to Report--><path codeLine="120" d="M1165.975,615.1625 C1163.125,660.0375 1159.275,720.5625 1156.2375,768.5 " fill="none" id="Company-to-Report" style="stroke:#A80036;stroke-width:1.25;"/><polygon fill="#A80036" points="1155.825,774.875,1161.5229,763.9618,1156.2182,768.6374,1151.5427,763.3327,1155.825,774.875" style="stroke:#A80036;stroke-width:1.25;"/><polygon fill="#000000" points="1167.1039,687.7072,1171.4867,676.6564,1164.1542,676.1907,1167.1039,687.7072" style="stroke:#000000;stroke-width:1.25;"/><text fill="#000000" font-family="sans-serif" font-size="16.25" lengthAdjust="spacing" textLength="46.25" x="1178.75" y="688.1189">knows</text><text fill="#000000" font-family="sans-serif" font-size="16.25" lengthAdjust="spacing" textLength="8.75" x="1156.0437" y="642.5139">1</text><text fill="#000000" font-family="sans-serif" font-size="16.25" lengthAdjust="spacing" textLength="6.25" x="1149.7517" y="761.6109">*</text><!--MD5=[63d25d625ab355317a074a623d33bba8]
link Report to Test--><path codeLine="121" d="M1084.9125,921.375 C1053.1,955.9125 1014.75,997.5375 981.4375,1033.6875 " fill="none" id="Report-to-Test" style="stroke:#A80036;stroke-width:1.25;"/><polygon fill="#A80036" points="976.9875,1038.525,988.2898,1033.6444,981.2245,1033.9304,980.9385,1026.8651,976.9875,1038.525" style="stroke:#A80036;stroke-width:1.25;"/><polygon fill="#000000" points="1028.2651,994.8163,1038.6279,988.9902,1033.2243,984.0118,1028.2651,994.8163" style="stroke:#000000;stroke-width:1.25;"/><text fill="#000000" font-family="sans-serif" font-size="16.25" lengthAdjust="spacing" textLength="30" x="1043.75" y="996.8689">is of</text><text fill="#000000" font-family="sans-serif" font-size="16.25" lengthAdjust="spacing" textLength="8.75" x="1067.5444" y="948.4031">1</text><text fill="#000000" font-family="sans-serif" font-size="16.25" lengthAdjust="spacing" textLength="8.75" x="975.9061" y="1025.3434">1</text><!--MD5=[7d615427424eb1e9d8965c4eb17ecbf5]
link TestParameter to Test--><path codeLine="122" d="M891.0125,912.675 C892.9875,948.1875 895.475,993.025 897.6375,1031.85 " fill="none" id="TestParameter-to-Test" style="stroke:#A80036;stroke-width:1.25;"/><polygon fill="#A80036" points="898.0125,1038.525,902.3953,1027.0205,897.6737,1032.2842,892.41,1027.5626,898.0125,1038.525" style="stroke:#A80036;stroke-width:1.25;"/><polygon fill="#000000" points="901.5969,996.4601,904.6373,984.9673,897.3014,985.3751,901.5969,996.4601" style="stroke:#000000;stroke-width:1.25;"/><text fill="#000000" font-family="sans-serif" font-size="16.25" lengthAdjust="spacing" textLength="30" x="912.5" y="996.8689">is of</text><text fill="#000000" font-family="sans-serif" font-size="16.25" lengthAdjust="spacing" textLength="25" x="864.7486" y="940.0282">1..*</text><text fill="#000000" font-family="sans-serif" font-size="16.25" lengthAdjust="spacing" textLength="8.75" x="888.2932" y="1025.3434">1</text><!--MD5=[166b32c017035243ed8780a05e3f542e]
link TestParameterResult to TestParameter--><path codeLine="123" d="M904.725,632.875 C901.0875,678.075 896.6,733.8 893.125,777.0625 " fill="none" id="TestParameterResult-to-TestParameter" style="stroke:#A80036;stroke-width:1.25;"/><polygon fill="#A80036" points="892.6125,783.35,898.5269,772.5527,893.1301,777.1215,888.5613,771.7246,892.6125,783.35" style="stroke:#A80036;stroke-width:1.25;"/><polygon fill="#000000" points="906.9988,687.6996,911.5673,676.7243,904.2437,676.1351,906.9988,687.6996" style="stroke:#000000;stroke-width:1.25;"/><text fill="#000000" font-family="sans-serif" font-size="16.25" lengthAdjust="spacing" textLength="30" x="918.75" y="688.1189">is of</text><text fill="#000000" font-family="sans-serif" font-size="16.25" lengthAdjust="spacing" textLength="8.75" x="894.8509" y="659.2788">1</text><text fill="#000000" font-family="sans-serif" font-size="16.25" lengthAdjust="spacing" textLength="8.75" x="883.9616" y="770.1717">1</text><!--MD5=[8d9a2c3ea1bf73d8d45b939465e53fff]
link TestMapper to Test--><path codeLine="124" d="M447,593.375 C507.975,669.1 642.35,834.2875 761.25,968.75 C780.125,990.1 800.9,1012.7125 820.575,1033.7375 " fill="none" id="TestMapper-to-Test" style="stroke:#A80036;stroke-width:1.25;stroke-dasharray:7.0,7.0;"/><polygon fill="#A80036" points="825.0125,1038.4875,820.9431,1026.8684,820.729,1033.9363,813.6611,1033.7221,825.0125,1038.4875" style="stroke:#A80036;stroke-width:1.25;"/><!--MD5=[886f81fd36c1ffd754dcf922ff388f49]
link TestParameterMapper to TestParameter--><path codeLine="125" d="M653.175,593.2 C697.625,641.325 771.7,721.525 824.675,778.8625 " fill="none" id="TestParameterMapper-to-TestParameter" style="stroke:#A80036;stroke-width:1.25;stroke-dasharray:7.0,7.0;"/><polygon fill="#A80036" points="829.0875,783.6375,825.1121,771.986,824.8408,779.0518,817.775,778.7806,829.0875,783.6375" style="stroke:#A80036;stroke-width:1.25;"/><!--MD5=[f6fda4afaf882dd39139bcbf06c50c8c]
link TestMapper to TestDTO--><path codeLine="126" d="M372.3375,593.1625 C337.4,625.4625 284.5,668.75 230,692.5 C205.7125,703.075 192.5375,686.75 171.25,702.5 C141.2375,724.7125 122.825,762.8625 112.075,794.375 " fill="none" id="TestMapper-to-TestDTO" style="stroke:#A80036;stroke-width:1.25;stroke-dasharray:7.0,7.0;"/><polygon fill="#A80036" points="110.025,800.575,118.3095,791.4685,111.9907,794.6422,108.817,788.3233,110.025,800.575" style="stroke:#A80036;stroke-width:1.25;"/><!--MD5=[18ed76bd549b5ebe2e3f9be67ba1c205]
link TestParameterMapper to TestParametersDTO--><path codeLine="127" d="M570.5125,593.2 C526.2,634.3875 456.6,699.05 398.7625,752.7875 " fill="none" id="TestParameterMapper-to-TestParametersDTO" style="stroke:#A80036;stroke-width:1.25;stroke-dasharray:7.0,7.0;"/><polygon fill="#A80036" points="393.9125,757.2875,405.5479,753.2651,398.481,753.0224,398.7237,745.9555,393.9125,757.2875" style="stroke:#A80036;stroke-width:1.25;"/><!--MD5=[8b95431a86801a34ce2f3f04e043a5c7]
@startuml
hide empty methods
hide empty attributes
'left to right direction
skinparam classAttributeIconSize 0

package Domain {

class Company {
    -String designation
    -TestStore testStore
    +getTestStore()
    +createReport(reportText)
}

class Report {
    - String reportText
    + Report(reportText)
    + checkReportTextRules(reportText)
    + countWords(reportText)
    + toString()
}

class Test {
    -String code
    -Report diagnosisReport
    -List<TestParameter> testParameters
    +getParameters()
    +hasSamplesAnalysed()
    +addReport(report)
}

class TestParameter {
    -Parameter parameter
    -TestParameterResult testResult
    +getParameter()
    +getParameterResult()
}

class TestParameterResult {
    -Double value
    -String metric
    -MyReferenceValue myReferenceValue
    +getResultValue()
    +getResultMetric()
    +getResultReferenceValue()
}

class TestStore {
    -list<Test> testList
    +getTestsReadyToDiagnose()
    +getTestByCode(code)
    +getTestParameters(tst)
}

}

package Mappers {

class TestMapper {
    +toDTO(tests)
    +toDTO(test)
}

class TestParameterMapper {
    +toDTO(testParameter)
    +toDTO(testParameters)
}

}

package DTOs {

class TestDTO {
    -String code
    +getCode()
}

class TestParametersDTO {
    -Parameter parameter
    -TestParameterResult testResult
    +getParameter()
    +getTestParameterResult()
    +getResultValue()
    +getResultMetric()
    +getResultReferenceValue()
}

}

package Controllers {

class WriteReportController {
    -Company company
    -Report report
    +createReport(reportText)
    +addReportToTest(code)
    +getTestsToDiagnose()
    +getTestParameters(code)
}

}

package UI {

class WriteReportUI {
}

}

WriteReportUI ..> WriteReportController
WriteReportUI ..> TestDTO
WriteReportUI ..> TestParametersDTO
WriteReportController ..> TestMapper
WriteReportController ..> TestParameterMapper
WriteReportController ..> Company
WriteReportController ..> TestStore
WriteReportController ..> TestDTO
WriteReportController ..> TestParametersDTO
TestStore "1" -> "*" Test : adopts >
Company "1" - -> "*" Report : knows >
Report "1" - -> "1" Test : is of >
TestParameter "1..*" - -> "1" Test : is of >
TestParameterResult "1" - -> "1" TestParameter : is of >
TestMapper ..> Test
TestParameterMapper ..> TestParameter
TestMapper ..> TestDTO
TestParameterMapper ..> TestParametersDTO

@enduml

@startuml
hide empty methods
hide empty attributes
skinparam classAttributeIconSize 0

package Domain {

class Company {
    -String designation
    -TestStore testStore
    +getTestStore()
    +createReport(reportText)
}

class Report {
    - String reportText
    + Report(reportText)
    + checkReportTextRules(reportText)
    + countWords(reportText)
    + toString()
}

class Test {
    -String code
    -Report diagnosisReport
    -List<TestParameter> testParameters
    +getParameters()
    +hasSamplesAnalysed()
    +addReport(report)
}

class TestParameter {
    -Parameter parameter
    -TestParameterResult testResult
    +getParameter()
    +getParameterResult()
}

class TestParameterResult {
    -Double value
    -String metric
    -MyReferenceValue myReferenceValue
    +getResultValue()
    +getResultMetric()
    +getResultReferenceValue()
}

class TestStore {
    -list<Test> testList
    +getTestsReadyToDiagnose()
    +getTestByCode(code)
    +getTestParameters(tst)
}

}

package Mappers {

class TestMapper {
    +toDTO(tests)
    +toDTO(test)
}

class TestParameterMapper {
    +toDTO(testParameter)
    +toDTO(testParameters)
}

}

package DTOs {

class TestDTO {
    -String code
    +getCode()
}

class TestParametersDTO {
    -Parameter parameter
    -TestParameterResult testResult
    +getParameter()
    +getTestParameterResult()
    +getResultValue()
    +getResultMetric()
    +getResultReferenceValue()
}

}

package Controllers {

class WriteReportController {
    -Company company
    -Report report
    +createReport(reportText)
    +addReportToTest(code)
    +getTestsToDiagnose()
    +getTestParameters(code)
}

}

package UI {

class WriteReportUI {
}

}

WriteReportUI ..> WriteReportController
WriteReportUI ..> TestDTO
WriteReportUI ..> TestParametersDTO
WriteReportController ..> TestMapper
WriteReportController ..> TestParameterMapper
WriteReportController ..> Company
WriteReportController ..> TestStore
WriteReportController ..> TestDTO
WriteReportController ..> TestParametersDTO
TestStore "1" -> "*" Test : adopts >
Company "1" - -> "*" Report : knows >
Report "1" - -> "1" Test : is of >
TestParameter "1..*" - -> "1" Test : is of >
TestParameterResult "1" - -> "1" TestParameter : is of >
TestMapper ..> Test
TestParameterMapper ..> TestParameter
TestMapper ..> TestDTO
TestParameterMapper ..> TestParametersDTO

@enduml

PlantUML version 1.2021.5(Sun Apr 25 12:20:28 BST 2021)
(GPL source distribution)
Java Runtime: OpenJDK Runtime Environment
JVM: Dynamic Code Evolution 64-Bit Server VM
Default Encoding: Cp1252
Language: pt
Country: PT
--></g></svg>