<?xml version="1.0" encoding="UTF-8" standalone="no"?><svg xmlns="http://www.w3.org/2000/svg" xmlns:xlink="http://www.w3.org/1999/xlink" contentScriptType="application/ecmascript" contentStyleType="text/css" height="342.5px" preserveAspectRatio="none" style="width:877px;height:342px;" version="1.1" viewBox="0 0 877 342" width="877.5px" zoomAndPan="magnify"><defs><filter height="300%" id="f1pz6jbjgn2qnz" width="300%" x="-1" y="-1"><feGaussianBlur result="blurOut" stdDeviation="2.5"/><feColorMatrix in="blurOut" result="blurOut2" type="matrix" values="0 0 0 0 0 0 0 0 0 0 0 0 0 0 0 0 0 0 .4 0"/><feOffset dx="5.0" dy="5.0" in="blurOut2" result="blurOut3"/><feBlend in="SourceGraphic" in2="blurOut3" mode="normal"/></filter></defs><g><!--MD5=[02e4b9b7573f1156f41e60aa5b4e25a4]
class Company--><rect codeLine="7" fill="#FEFECE" filter="url(#f1pz6jbjgn2qnz)" height="67.2949" id="Company" style="stroke:#A80036;stroke-width:1.875;" width="106.25" x="305.625" y="177.5"/><ellipse cx="324.375" cy="197.5" fill="#ADD1B2" rx="13.75" ry="13.75" style="stroke:#A80036;stroke-width:1.25;"/><path d="M326.875,193.125 Q327.1289,192.5 327.4219,192.1875 Q327.7148,191.875 328.0469,191.875 Q328.6328,191.875 329.0039,192.2266 Q329.375,192.5781 329.375,193.3984 L329.375,195.3516 Q329.375,196.1719 329.0234,196.5234 Q328.6719,196.875 328.125,196.875 Q327.6367,196.875 327.3242,196.6602 Q327.0117,196.4453 326.875,195.8789 Q326.8164,195.4883 326.6016,195.2734 Q326.2109,194.8633 325.5078,194.6289 Q324.8047,194.375 324.1016,194.375 Q323.2227,194.375 322.4805,194.7266 Q321.7578,195.0781 321.1914,195.8594 Q320.625,196.6406 320.625,197.7148 L320.625,198.8672 Q320.625,200.1563 321.6797,201.0156 Q322.7344,201.875 324.6094,201.875 Q325.7227,201.875 326.5039,201.6211 Q326.9531,201.4844 327.4609,201.0352 Q327.793,200.7813 327.9688,200.7031 Q328.1445,200.625 328.3594,200.625 Q328.7695,200.625 329.0625,200.957 Q329.375,201.2695 329.375,201.7188 Q329.375,202.1484 328.9453,202.6563 Q328.3203,203.3984 327.3242,203.8086 Q326.0156,204.375 324.4141,204.375 Q322.5391,204.375 321.0352,203.6328 Q319.8242,203.0469 318.9648,201.7773 Q318.125,200.5078 318.125,199.0039 L318.125,197.6367 Q318.125,196.0742 318.8672,194.707 Q319.6289,193.3398 320.9375,192.6172 Q322.2656,191.875 323.75,191.875 Q324.6484,191.875 325.4297,192.1875 Q326.2109,192.5 326.875,193.125 Z " fill="#000000"/><text fill="#000000" font-family="sans-serif" font-size="15" lengthAdjust="spacing" textLength="66.25" x="341.875" y="203.6377">Company</text><line style="stroke:#A80036;stroke-width:1.875;" x1="306.875" x2="410.625" y1="217.5" y2="217.5"/><text fill="#000000" font-family="sans-serif" font-size="13.75" lengthAdjust="spacing" textLength="73.75" x="313.125" y="236.7737">-designation</text><!--MD5=[36afb6bbd95a8ac778c4537c55a683d5]
class ParameterCategory--><rect codeLine="10" fill="#FEFECE" filter="url(#f1pz6jbjgn2qnz)" height="84.5898" id="ParameterCategory" style="stroke:#A80036;stroke-width:1.875;" width="173.75" x="686.25" y="196.25"/><ellipse cx="705" cy="216.25" fill="#ADD1B2" rx="13.75" ry="13.75" style="stroke:#A80036;stroke-width:1.25;"/><path d="M707.5,211.875 Q707.7539,211.25 708.0469,210.9375 Q708.3398,210.625 708.6719,210.625 Q709.2578,210.625 709.6289,210.9766 Q710,211.3281 710,212.1484 L710,214.1016 Q710,214.9219 709.6484,215.2734 Q709.2969,215.625 708.75,215.625 Q708.2617,215.625 707.9492,215.4102 Q707.6367,215.1953 707.5,214.6289 Q707.4414,214.2383 707.2266,214.0234 Q706.8359,213.6133 706.1328,213.3789 Q705.4297,213.125 704.7266,213.125 Q703.8477,213.125 703.1055,213.4766 Q702.3828,213.8281 701.8164,214.6094 Q701.25,215.3906 701.25,216.4648 L701.25,217.6172 Q701.25,218.9063 702.3047,219.7656 Q703.3594,220.625 705.2344,220.625 Q706.3477,220.625 707.1289,220.3711 Q707.5781,220.2344 708.0859,219.7852 Q708.418,219.5313 708.5938,219.4531 Q708.7695,219.375 708.9844,219.375 Q709.3945,219.375 709.6875,219.707 Q710,220.0195 710,220.4688 Q710,220.8984 709.5703,221.4063 Q708.9453,222.1484 707.9492,222.5586 Q706.6406,223.125 705.0391,223.125 Q703.1641,223.125 701.6602,222.3828 Q700.4492,221.7969 699.5898,220.5273 Q698.75,219.2578 698.75,217.7539 L698.75,216.3867 Q698.75,214.8242 699.4922,213.457 Q700.2539,212.0898 701.5625,211.3672 Q702.8906,210.625 704.375,210.625 Q705.2734,210.625 706.0547,210.9375 Q706.8359,211.25 707.5,211.875 Z " fill="#000000"/><text fill="#000000" font-family="sans-serif" font-size="15" lengthAdjust="spacing" textLength="133.75" x="722.5" y="222.3877">ParameterCategory</text><line style="stroke:#A80036;stroke-width:1.875;" x1="687.5" x2="858.75" y1="236.25" y2="236.25"/><text fill="#000000" font-family="sans-serif" font-size="13.75" lengthAdjust="spacing" textLength="35" x="693.75" y="255.5237">-code</text><text fill="#000000" font-family="sans-serif" font-size="13.75" lengthAdjust="spacing" textLength="37.5" x="693.75" y="272.8186">-name</text><!--MD5=[aeb3272166074d8737a70b61b1e71682]
class TestType--><rect codeLine="14" fill="#FEFECE" filter="url(#f1pz6jbjgn2qnz)" height="101.8848" id="TestType" style="stroke:#A80036;stroke-width:1.875;" width="125" x="296.25" y="8.75"/><ellipse cx="325.125" cy="28.75" fill="#ADD1B2" rx="13.75" ry="13.75" style="stroke:#A80036;stroke-width:1.25;"/><path d="M327.625,24.375 Q327.8789,23.75 328.1719,23.4375 Q328.4648,23.125 328.7969,23.125 Q329.3828,23.125 329.7539,23.4766 Q330.125,23.8281 330.125,24.6484 L330.125,26.6016 Q330.125,27.4219 329.7734,27.7734 Q329.4219,28.125 328.875,28.125 Q328.3867,28.125 328.0742,27.9102 Q327.7617,27.6953 327.625,27.1289 Q327.5664,26.7383 327.3516,26.5234 Q326.9609,26.1133 326.2578,25.8789 Q325.5547,25.625 324.8516,25.625 Q323.9727,25.625 323.2305,25.9766 Q322.5078,26.3281 321.9414,27.1094 Q321.375,27.8906 321.375,28.9648 L321.375,30.1172 Q321.375,31.4063 322.4297,32.2656 Q323.4844,33.125 325.3594,33.125 Q326.4727,33.125 327.2539,32.8711 Q327.7031,32.7344 328.2109,32.2852 Q328.543,32.0313 328.7188,31.9531 Q328.8945,31.875 329.1094,31.875 Q329.5195,31.875 329.8125,32.207 Q330.125,32.5195 330.125,32.9688 Q330.125,33.3984 329.6953,33.9063 Q329.0703,34.6484 328.0742,35.0586 Q326.7656,35.625 325.1641,35.625 Q323.2891,35.625 321.7852,34.8828 Q320.5742,34.2969 319.7148,33.0273 Q318.875,31.7578 318.875,30.2539 L318.875,28.8867 Q318.875,27.3242 319.6172,25.957 Q320.3789,24.5898 321.6875,23.8672 Q323.0156,23.125 324.5,23.125 Q325.3984,23.125 326.1797,23.4375 Q326.9609,23.75 327.625,24.375 Z " fill="#000000"/><text fill="#000000" font-family="sans-serif" font-size="15" lengthAdjust="spacing" textLength="62.5" x="344.875" y="34.8877">TestType</text><line style="stroke:#A80036;stroke-width:1.875;" x1="297.5" x2="420" y1="48.75" y2="48.75"/><text fill="#000000" font-family="sans-serif" font-size="13.75" lengthAdjust="spacing" textLength="36.25" x="303.75" y="68.0237">-Code</text><text fill="#000000" font-family="sans-serif" font-size="13.75" lengthAdjust="spacing" textLength="72.5" x="303.75" y="85.3186">-Description</text><text fill="#000000" font-family="sans-serif" font-size="13.75" lengthAdjust="spacing" textLength="110" x="303.75" y="102.6135">-Collecting method</text><!--MD5=[df38be88ccee13e832d6fafd6288a4ca]
class Test--><rect codeLine="19" fill="#FEFECE" filter="url(#f1pz6jbjgn2qnz)" height="101.8848" id="Test" style="stroke:#A80036;stroke-width:1.875;" width="80" x="8.75" y="223.75"/><ellipse cx="32" cy="243.75" fill="#ADD1B2" rx="13.75" ry="13.75" style="stroke:#A80036;stroke-width:1.25;"/><path d="M34.5,239.375 Q34.7539,238.75 35.0469,238.4375 Q35.3398,238.125 35.6719,238.125 Q36.2578,238.125 36.6289,238.4766 Q37,238.8281 37,239.6484 L37,241.6016 Q37,242.4219 36.6484,242.7734 Q36.2969,243.125 35.75,243.125 Q35.2617,243.125 34.9492,242.9102 Q34.6367,242.6953 34.5,242.1289 Q34.4414,241.7383 34.2266,241.5234 Q33.8359,241.1133 33.1328,240.8789 Q32.4297,240.625 31.7266,240.625 Q30.8477,240.625 30.1055,240.9766 Q29.3828,241.3281 28.8164,242.1094 Q28.25,242.8906 28.25,243.9648 L28.25,245.1172 Q28.25,246.4063 29.3047,247.2656 Q30.3594,248.125 32.2344,248.125 Q33.3477,248.125 34.1289,247.8711 Q34.5781,247.7344 35.0859,247.2852 Q35.418,247.0313 35.5938,246.9531 Q35.7695,246.875 35.9844,246.875 Q36.3945,246.875 36.6875,247.207 Q37,247.5195 37,247.9688 Q37,248.3984 36.5703,248.9063 Q35.9453,249.6484 34.9492,250.0586 Q33.6406,250.625 32.0391,250.625 Q30.1641,250.625 28.6602,249.8828 Q27.4492,249.2969 26.5898,248.0273 Q25.75,246.7578 25.75,245.2539 L25.75,243.8867 Q25.75,242.3242 26.4922,240.957 Q27.2539,239.5898 28.5625,238.8672 Q29.8906,238.125 31.375,238.125 Q32.2734,238.125 33.0547,238.4375 Q33.8359,238.75 34.5,239.375 Z " fill="#000000"/><text fill="#000000" font-family="sans-serif" font-size="15" lengthAdjust="spacing" textLength="30" x="50.5" y="249.8877">Test</text><line style="stroke:#A80036;stroke-width:1.875;" x1="10" x2="87.5" y1="263.75" y2="263.75"/><text fill="#000000" font-family="sans-serif" font-size="13.75" lengthAdjust="spacing" textLength="35" x="16.25" y="283.0237">-code</text><text fill="#000000" font-family="sans-serif" font-size="13.75" lengthAdjust="spacing" textLength="60" x="16.25" y="300.3186">-NhsCode</text><text fill="#000000" font-family="sans-serif" font-size="13.75" lengthAdjust="spacing" textLength="65" x="16.25" y="317.6135">-createdAt</text><!--MD5=[da547346deef918ea16944ba046651ef]
class Administrator--><rect fill="#FEFECE" filter="url(#f1pz6jbjgn2qnz)" height="40" id="Administrator" style="stroke:#A80036;stroke-width:1.875;" width="131.25" x="707.5" y="57.5"/><ellipse cx="726.25" cy="77.5" fill="#ADD1B2" rx="13.75" ry="13.75" style="stroke:#A80036;stroke-width:1.25;"/><path d="M728.75,73.125 Q729.0039,72.5 729.2969,72.1875 Q729.5898,71.875 729.9219,71.875 Q730.5078,71.875 730.8789,72.2266 Q731.25,72.5781 731.25,73.3984 L731.25,75.3516 Q731.25,76.1719 730.8984,76.5234 Q730.5469,76.875 730,76.875 Q729.5117,76.875 729.1992,76.6602 Q728.8867,76.4453 728.75,75.8789 Q728.6914,75.4883 728.4766,75.2734 Q728.0859,74.8633 727.3828,74.6289 Q726.6797,74.375 725.9766,74.375 Q725.0977,74.375 724.3555,74.7266 Q723.6328,75.0781 723.0664,75.8594 Q722.5,76.6406 722.5,77.7148 L722.5,78.8672 Q722.5,80.1563 723.5547,81.0156 Q724.6094,81.875 726.4844,81.875 Q727.5977,81.875 728.3789,81.6211 Q728.8281,81.4844 729.3359,81.0352 Q729.668,80.7813 729.8438,80.7031 Q730.0195,80.625 730.2344,80.625 Q730.6445,80.625 730.9375,80.957 Q731.25,81.2695 731.25,81.7188 Q731.25,82.1484 730.8203,82.6563 Q730.1953,83.3984 729.1992,83.8086 Q727.8906,84.375 726.2891,84.375 Q724.4141,84.375 722.9102,83.6328 Q721.6992,83.0469 720.8398,81.7773 Q720,80.5078 720,79.0039 L720,77.6367 Q720,76.0742 720.7422,74.707 Q721.5039,73.3398 722.8125,72.6172 Q724.1406,71.875 725.625,71.875 Q726.5234,71.875 727.3047,72.1875 Q728.0859,72.5 728.75,73.125 Z " fill="#000000"/><text fill="#000000" font-family="sans-serif" font-size="15" lengthAdjust="spacing" textLength="91.25" x="743.75" y="83.6377">Administrator</text><!--MD5=[6d9eb9a083ac0654c8b63743033752d3]
link TestType to Company--><!--MD5=[742a261f27a3dcd734c626287d811acd]
link Company to TestType--><path codeLine="29" d="M358.75,177.3125 C358.75,157.975 358.75,133.35 358.75,111.6625 " fill="none" id="Company-TestType" style="stroke:#A80036;stroke-width:1.25;"/><polygon fill="#000000" points="307.5,138.3447,303.8263,149.6511,311.1737,149.6511,307.5,138.3447" style="stroke:#000000;stroke-width:1.25;"/><text fill="#000000" font-family="sans-serif" font-size="16.25" lengthAdjust="spacing" textLength="66.25" x="318.75" y="151.2439">conducts</text><text fill="#000000" font-family="sans-serif" font-size="16.25" lengthAdjust="spacing" textLength="8.75" x="348.9883" y="164.0954">1</text><text fill="#000000" font-family="sans-serif" font-size="16.25" lengthAdjust="spacing" textLength="6.25" x="352.041" y="137.6655">*</text><!--MD5=[e981d4f96c4342412d1e68160b30cf70]
link Test to TestType--><path codeLine="27" d="M88.95,247.775 C141.15,211.275 234.3625,146.1 296.075,102.95 " fill="none" id="Test-TestType" style="stroke:#A80036;stroke-width:1.25;"/><polygon fill="#000000" points="137.6221,134.1383,126.251,137.6065,130.4613,143.6279,137.6221,134.1383" style="stroke:#000000;stroke-width:1.25;"/><text fill="#000000" font-family="sans-serif" font-size="16.25" lengthAdjust="spacing" textLength="90" x="143.75" y="144.3689">classified as</text><text fill="#000000" font-family="sans-serif" font-size="16.25" lengthAdjust="spacing" textLength="6.25" x="98.9689" y="260.7826">*</text><text fill="#000000" font-family="sans-serif" font-size="16.25" lengthAdjust="spacing" textLength="8.75" x="277.477" y="127.6734">1</text><!--MD5=[8742b9b07f4ff1e96b776c10733812b1]
link Test to ParameterCategory--><path codeLine="28" d="M88.95,278.425 C133.3375,282.1375 208.075,287.825 272.5,290 C349.125,292.575 368.55,295.825 445,290 C536.35,283.0375 558.2625,273.0375 648.75,258.75 C660.8375,256.8375 673.5875,254.8 686.1125,252.775 " fill="none" id="Test-ParameterCategory" style="stroke:#A80036;stroke-width:1.25;"/><polygon fill="#000000" points="284.9942,278.7015,273.5407,275.5164,273.856,282.857,284.9942,278.7015" style="stroke:#000000;stroke-width:1.25;"/><text fill="#000000" font-family="sans-serif" font-size="16.25" lengthAdjust="spacing" textLength="153.75" x="290" y="285.6189">requested analysis of</text><text fill="#000000" font-family="sans-serif" font-size="16.25" lengthAdjust="spacing" textLength="6.25" x="98.9689" y="298.5204">*</text><text fill="#000000" font-family="sans-serif" font-size="16.25" lengthAdjust="spacing" textLength="25" x="651.3167" y="250.0819">1..*</text><!--MD5=[93b4f25fb503a8e0e9a46b1d30ff3f44]
link Company to ParameterCategory--><path codeLine="30" d="M411.9,227.55 C433.5,233.525 458.975,239.55 482.5,242.5 C550.55,251.0375 628.3,249.4125 686.0625,246.025 " fill="none" id="Company-ParameterCategory" style="stroke:#A80036;stroke-width:1.25;"/><polygon fill="#000000" points="494.9859,231.8899,483.9521,227.4644,483.4581,234.7951,494.9859,231.8899" style="stroke:#000000;stroke-width:1.25;"/><text fill="#000000" font-family="sans-serif" font-size="16.25" lengthAdjust="spacing" textLength="147.5" x="500" y="238.1189">capable of analysing</text><text fill="#000000" font-family="sans-serif" font-size="16.25" lengthAdjust="spacing" textLength="8.75" x="421.7871" y="248.9946">1</text><text fill="#000000" font-family="sans-serif" font-size="16.25" lengthAdjust="spacing" textLength="6.25" x="669.9482" y="264.8298">*</text><!--MD5=[eaea43e34e45c5b9d20b595fc78f1f20]
link Company to Administrator--><path codeLine="31" d="M412.1125,211.5 C471.55,210.075 570.6375,202.4 648.75,170 C689.5,153.1 728.875,119.5625 751.7125,97.85 " fill="none" id="Company-Administrator" style="stroke:#A80036;stroke-width:1.25;"/><polygon fill="#000000" points="549.6769,156.9862,537.7892,157.0907,540.1209,164.0582,549.6769,156.9862" style="stroke:#000000;stroke-width:1.25;"/><text fill="#000000" font-family="sans-serif" font-size="16.25" lengthAdjust="spacing" textLength="37.5" x="555" y="165.6189">know</text><text fill="#000000" font-family="sans-serif" font-size="16.25" lengthAdjust="spacing" textLength="8.75" x="422.0361" y="206.7485">1</text><text fill="#000000" font-family="sans-serif" font-size="16.25" lengthAdjust="spacing" textLength="6.25" x="737.6412" y="124.463">*</text><!--MD5=[8aaf0efd5e2f3824be7ea3e488dcc283]
link TestType to ParameterCategory--><path codeLine="32" d="M421.3125,82.5875 C440.75,89.4 462.4125,96.6125 482.5,102.5 C555.425,123.875 580.3125,109.4625 648.75,142.5 C677.0875,156.1875 705.025,177.225 727.1125,196.15 " fill="none" id="TestType-ParameterCategory" style="stroke:#A80036;stroke-width:1.25;"/><polygon fill="#000000" points="508.359,93.6455,499.0389,86.2656,496.481,93.1533,508.359,93.6455" style="stroke:#000000;stroke-width:1.25;"/><text fill="#000000" font-family="sans-serif" font-size="16.25" lengthAdjust="spacing" textLength="120" x="513.75" y="98.1189">characterized by</text><text fill="#000000" font-family="sans-serif" font-size="16.25" lengthAdjust="spacing" textLength="8.75" x="431.1439" y="104.3201">1</text><text fill="#000000" font-family="sans-serif" font-size="16.25" lengthAdjust="spacing" textLength="25" x="690.5929" y="182.7469">1..*</text><!--MD5=[0985ee834cc881275852ed47ce1e01f6]
link TestType to Administrator--><path codeLine="33" d="M421.4125,61.6625 C479.8875,63.35 570.3375,66.25 648.75,70 C667.7875,70.9125 688.475,72.0875 707.35,73.25 " fill="none" id="TestType-Administrator" style="stroke:#A80036;stroke-width:1.25;"/><polygon fill="#000000" points="530.6199,52.9728,519.4715,48.8443,519.174,56.1856,530.6199,52.9728" style="stroke:#000000;stroke-width:1.25;"/><text fill="#000000" font-family="sans-serif" font-size="16.25" lengthAdjust="spacing" textLength="76.25" x="535.625" y="59.3689">created by</text><text fill="#000000" font-family="sans-serif" font-size="16.25" lengthAdjust="spacing" textLength="6.25" x="431.075" y="80.3218">*</text><text fill="#000000" font-family="sans-serif" font-size="16.25" lengthAdjust="spacing" textLength="8.75" x="688.7352" y="90.9584">1</text><!--MD5=[bf579ce5efd5932c40cc35d446292ce3]
@startuml

skinparam classAttributeIconSize 0
hide empty methods
hide empty attributes
left to right direction

class Company{
- designation
}
class ParameterCategory{
  -code
  -name
}
class TestType{
- Code
- Description
- Collecting method
}
class Test{
- code
- NhsCode
- createdAt
}

 TestType -[hidden]right-|> Company

Test "*" - - "1" TestType : classified as >
Test "*" - - "1..*" ParameterCategory : requested analysis of >
Company "1" - - "*" TestType : conducts >
Company "1" - - "*" ParameterCategory : capable of analysing >
Company "1" - - "*" Administrator : know >
TestType "1" - - "1..*" ParameterCategory : characterized by >
TestType "*" - - "1" Administrator : created by >

@enduml

PlantUML version 1.2021.00(Sun Jan 10 10:25:05 GMT 2021)
(GPL source distribution)
Java Runtime: OpenJDK Runtime Environment
JVM: OpenJDK 64-Bit Server VM
Default Encoding: Cp1252
Language: pt
Country: BR
--></g></svg>