<?xml version="1.0" encoding="UTF-8" standalone="no"?><svg xmlns="http://www.w3.org/2000/svg" xmlns:xlink="http://www.w3.org/1999/xlink" contentScriptType="application/ecmascript" contentStyleType="text/css" height="274px" preserveAspectRatio="none" style="width:702px;height:274px;" version="1.1" viewBox="0 0 702 274" width="702px" zoomAndPan="magnify"><defs><filter height="300%" id="f1njxs16tkklf2" width="300%" x="-1" y="-1"><feGaussianBlur result="blurOut" stdDeviation="2.0"/><feColorMatrix in="blurOut" result="blurOut2" type="matrix" values="0 0 0 0 0 0 0 0 0 0 0 0 0 0 0 0 0 0 .4 0"/><feOffset dx="4.0" dy="4.0" in="blurOut2" result="blurOut3"/><feBlend in="SourceGraphic" in2="blurOut3" mode="normal"/></filter></defs><g><!--MD5=[02e4b9b7573f1156f41e60aa5b4e25a4]
class Company--><rect codeLine="7" fill="#FEFECE" filter="url(#f1njxs16tkklf2)" height="53.8359" id="Company" style="stroke:#A80036;stroke-width:1.5;" width="85" x="244.5" y="142"/><ellipse cx="259.5" cy="158" fill="#ADD1B2" rx="11" ry="11" style="stroke:#A80036;stroke-width:1.0;"/><path d="M261.5,154.5 Q261.7031,154 261.9375,153.75 Q262.1719,153.5 262.4375,153.5 Q262.9063,153.5 263.2031,153.7813 Q263.5,154.0625 263.5,154.7188 L263.5,156.2813 Q263.5,156.9375 263.2188,157.2188 Q262.9375,157.5 262.5,157.5 Q262.1094,157.5 261.8594,157.3281 Q261.6094,157.1563 261.5,156.7031 Q261.4531,156.3906 261.2813,156.2188 Q260.9688,155.8906 260.4063,155.7031 Q259.8438,155.5 259.2813,155.5 Q258.5781,155.5 257.9844,155.7813 Q257.4063,156.0625 256.9531,156.6875 Q256.5,157.3125 256.5,158.1719 L256.5,159.0938 Q256.5,160.125 257.3438,160.8125 Q258.1875,161.5 259.6875,161.5 Q260.5781,161.5 261.2031,161.2969 Q261.5625,161.1875 261.9688,160.8281 Q262.2344,160.625 262.375,160.5625 Q262.5156,160.5 262.6875,160.5 Q263.0156,160.5 263.25,160.7656 Q263.5,161.0156 263.5,161.375 Q263.5,161.7188 263.1563,162.125 Q262.6563,162.7188 261.8594,163.0469 Q260.8125,163.5 259.5313,163.5 Q258.0313,163.5 256.8281,162.9063 Q255.8594,162.4375 255.1719,161.4219 Q254.5,160.4063 254.5,159.2031 L254.5,158.1094 Q254.5,156.8594 255.0938,155.7656 Q255.7031,154.6719 256.75,154.0938 Q257.8125,153.5 259,153.5 Q259.7188,153.5 260.3438,153.75 Q260.9688,154 261.5,154.5 Z " fill="#000000"/><text fill="#000000" font-family="sans-serif" font-size="12" lengthAdjust="spacing" textLength="53" x="273.5" y="162.9102">Company</text><line style="stroke:#A80036;stroke-width:1.5;" x1="245.5" x2="328.5" y1="174" y2="174"/><text fill="#000000" font-family="sans-serif" font-size="11" lengthAdjust="spacing" textLength="59" x="250.5" y="189.4189">-designation</text><!--MD5=[36afb6bbd95a8ac778c4537c55a683d5]
class ParameterCategory--><rect codeLine="10" fill="#FEFECE" filter="url(#f1njxs16tkklf2)" height="95.3438" id="ParameterCategory" style="stroke:#A80036;stroke-width:1.5;" width="139" x="549" y="143.5"/><ellipse cx="564" cy="159.5" fill="#ADD1B2" rx="11" ry="11" style="stroke:#A80036;stroke-width:1.0;"/><path d="M566,156 Q566.2031,155.5 566.4375,155.25 Q566.6719,155 566.9375,155 Q567.4063,155 567.7031,155.2813 Q568,155.5625 568,156.2188 L568,157.7813 Q568,158.4375 567.7188,158.7188 Q567.4375,159 567,159 Q566.6094,159 566.3594,158.8281 Q566.1094,158.6563 566,158.2031 Q565.9531,157.8906 565.7813,157.7188 Q565.4688,157.3906 564.9063,157.2031 Q564.3438,157 563.7813,157 Q563.0781,157 562.4844,157.2813 Q561.9063,157.5625 561.4531,158.1875 Q561,158.8125 561,159.6719 L561,160.5938 Q561,161.625 561.8438,162.3125 Q562.6875,163 564.1875,163 Q565.0781,163 565.7031,162.7969 Q566.0625,162.6875 566.4688,162.3281 Q566.7344,162.125 566.875,162.0625 Q567.0156,162 567.1875,162 Q567.5156,162 567.75,162.2656 Q568,162.5156 568,162.875 Q568,163.2188 567.6563,163.625 Q567.1563,164.2188 566.3594,164.5469 Q565.3125,165 564.0313,165 Q562.5313,165 561.3281,164.4063 Q560.3594,163.9375 559.6719,162.9219 Q559,161.9063 559,160.7031 L559,159.6094 Q559,158.3594 559.5938,157.2656 Q560.2031,156.1719 561.25,155.5938 Q562.3125,155 563.5,155 Q564.2188,155 564.8438,155.25 Q565.4688,155.5 566,156 Z " fill="#000000"/><text fill="#000000" font-family="sans-serif" font-size="12" lengthAdjust="spacing" textLength="107" x="578" y="164.4102">ParameterCategory</text><line style="stroke:#A80036;stroke-width:1.5;" x1="550" x2="687" y1="175.5" y2="175.5"/><text fill="#000000" font-family="sans-serif" font-size="11" lengthAdjust="spacing" textLength="30" x="555" y="190.9189">-name</text><text fill="#000000" font-family="sans-serif" font-size="11" lengthAdjust="spacing" textLength="28" x="555" y="204.7549">-code</text><text fill="#000000" font-family="sans-serif" font-size="11" lengthAdjust="spacing" textLength="57" x="555" y="218.5908">-description</text><text fill="#000000" font-family="sans-serif" font-size="11" lengthAdjust="spacing" textLength="30" x="555" y="232.4268">-nhsId</text><!--MD5=[aeb3272166074d8737a70b61b1e71682]
class TestType--><rect codeLine="16" fill="#FEFECE" filter="url(#f1njxs16tkklf2)" height="81.5078" id="TestType" style="stroke:#A80036;stroke-width:1.5;" width="100" x="237" y="7"/><ellipse cx="260.1" cy="23" fill="#ADD1B2" rx="11" ry="11" style="stroke:#A80036;stroke-width:1.0;"/><path d="M262.1,19.5 Q262.3031,19 262.5375,18.75 Q262.7719,18.5 263.0375,18.5 Q263.5063,18.5 263.8031,18.7813 Q264.1,19.0625 264.1,19.7188 L264.1,21.2813 Q264.1,21.9375 263.8188,22.2188 Q263.5375,22.5 263.1,22.5 Q262.7094,22.5 262.4594,22.3281 Q262.2094,22.1563 262.1,21.7031 Q262.0531,21.3906 261.8813,21.2188 Q261.5688,20.8906 261.0063,20.7031 Q260.4438,20.5 259.8813,20.5 Q259.1781,20.5 258.5844,20.7813 Q258.0063,21.0625 257.5531,21.6875 Q257.1,22.3125 257.1,23.1719 L257.1,24.0938 Q257.1,25.125 257.9438,25.8125 Q258.7875,26.5 260.2875,26.5 Q261.1781,26.5 261.8031,26.2969 Q262.1625,26.1875 262.5688,25.8281 Q262.8344,25.625 262.975,25.5625 Q263.1156,25.5 263.2875,25.5 Q263.6156,25.5 263.85,25.7656 Q264.1,26.0156 264.1,26.375 Q264.1,26.7188 263.7563,27.125 Q263.2563,27.7188 262.4594,28.0469 Q261.4125,28.5 260.1313,28.5 Q258.6313,28.5 257.4281,27.9063 Q256.4594,27.4375 255.7719,26.4219 Q255.1,25.4063 255.1,24.2031 L255.1,23.1094 Q255.1,21.8594 255.6938,20.7656 Q256.3031,19.6719 257.35,19.0938 Q258.4125,18.5 259.6,18.5 Q260.3188,18.5 260.9438,18.75 Q261.5688,19 262.1,19.5 Z " fill="#000000"/><text fill="#000000" font-family="sans-serif" font-size="12" lengthAdjust="spacing" textLength="50" x="275.9" y="27.9102">TestType</text><line style="stroke:#A80036;stroke-width:1.5;" x1="238" x2="336" y1="39" y2="39"/><text fill="#000000" font-family="sans-serif" font-size="11" lengthAdjust="spacing" textLength="29" x="243" y="54.4189">-Code</text><text fill="#000000" font-family="sans-serif" font-size="11" lengthAdjust="spacing" textLength="58" x="243" y="68.2549">-Description</text><text fill="#000000" font-family="sans-serif" font-size="11" lengthAdjust="spacing" textLength="88" x="243" y="82.0908">-Collecting method</text><!--MD5=[df38be88ccee13e832d6fafd6288a4ca]
class Test--><rect codeLine="21" fill="#FEFECE" filter="url(#f1njxs16tkklf2)" height="81.5078" id="Test" style="stroke:#A80036;stroke-width:1.5;" width="64" x="7" y="179"/><ellipse cx="25.6" cy="195" fill="#ADD1B2" rx="11" ry="11" style="stroke:#A80036;stroke-width:1.0;"/><path d="M27.6,191.5 Q27.8031,191 28.0375,190.75 Q28.2719,190.5 28.5375,190.5 Q29.0063,190.5 29.3031,190.7813 Q29.6,191.0625 29.6,191.7188 L29.6,193.2813 Q29.6,193.9375 29.3188,194.2188 Q29.0375,194.5 28.6,194.5 Q28.2094,194.5 27.9594,194.3281 Q27.7094,194.1563 27.6,193.7031 Q27.5531,193.3906 27.3813,193.2188 Q27.0688,192.8906 26.5063,192.7031 Q25.9438,192.5 25.3813,192.5 Q24.6781,192.5 24.0844,192.7813 Q23.5063,193.0625 23.0531,193.6875 Q22.6,194.3125 22.6,195.1719 L22.6,196.0938 Q22.6,197.125 23.4438,197.8125 Q24.2875,198.5 25.7875,198.5 Q26.6781,198.5 27.3031,198.2969 Q27.6625,198.1875 28.0688,197.8281 Q28.3344,197.625 28.475,197.5625 Q28.6156,197.5 28.7875,197.5 Q29.1156,197.5 29.35,197.7656 Q29.6,198.0156 29.6,198.375 Q29.6,198.7188 29.2563,199.125 Q28.7563,199.7188 27.9594,200.0469 Q26.9125,200.5 25.6313,200.5 Q24.1313,200.5 22.9281,199.9063 Q21.9594,199.4375 21.2719,198.4219 Q20.6,197.4063 20.6,196.2031 L20.6,195.1094 Q20.6,193.8594 21.1938,192.7656 Q21.8031,191.6719 22.85,191.0938 Q23.9125,190.5 25.1,190.5 Q25.8188,190.5 26.4438,190.75 Q27.0688,191 27.6,191.5 Z " fill="#000000"/><text fill="#000000" font-family="sans-serif" font-size="12" lengthAdjust="spacing" textLength="24" x="40.4" y="199.9102">Test</text><line style="stroke:#A80036;stroke-width:1.5;" x1="8" x2="70" y1="211" y2="211"/><text fill="#000000" font-family="sans-serif" font-size="11" lengthAdjust="spacing" textLength="28" x="13" y="226.4189">-code</text><text fill="#000000" font-family="sans-serif" font-size="11" lengthAdjust="spacing" textLength="48" x="13" y="240.2549">-NhsCode</text><text fill="#000000" font-family="sans-serif" font-size="11" lengthAdjust="spacing" textLength="52" x="13" y="254.0908">-createdAt</text><!--MD5=[da547346deef918ea16944ba046651ef]
class Administrator--><rect fill="#FEFECE" filter="url(#f1njxs16tkklf2)" height="32" id="Administrator" style="stroke:#A80036;stroke-width:1.5;" width="105" x="566" y="39"/><ellipse cx="581" cy="55" fill="#ADD1B2" rx="11" ry="11" style="stroke:#A80036;stroke-width:1.0;"/><path d="M583,51.5 Q583.2031,51 583.4375,50.75 Q583.6719,50.5 583.9375,50.5 Q584.4063,50.5 584.7031,50.7813 Q585,51.0625 585,51.7188 L585,53.2813 Q585,53.9375 584.7188,54.2188 Q584.4375,54.5 584,54.5 Q583.6094,54.5 583.3594,54.3281 Q583.1094,54.1563 583,53.7031 Q582.9531,53.3906 582.7813,53.2188 Q582.4688,52.8906 581.9063,52.7031 Q581.3438,52.5 580.7813,52.5 Q580.0781,52.5 579.4844,52.7813 Q578.9063,53.0625 578.4531,53.6875 Q578,54.3125 578,55.1719 L578,56.0938 Q578,57.125 578.8438,57.8125 Q579.6875,58.5 581.1875,58.5 Q582.0781,58.5 582.7031,58.2969 Q583.0625,58.1875 583.4688,57.8281 Q583.7344,57.625 583.875,57.5625 Q584.0156,57.5 584.1875,57.5 Q584.5156,57.5 584.75,57.7656 Q585,58.0156 585,58.375 Q585,58.7188 584.6563,59.125 Q584.1563,59.7188 583.3594,60.0469 Q582.3125,60.5 581.0313,60.5 Q579.5313,60.5 578.3281,59.9063 Q577.3594,59.4375 576.6719,58.4219 Q576,57.4063 576,56.2031 L576,55.1094 Q576,53.8594 576.5938,52.7656 Q577.2031,51.6719 578.25,51.0938 Q579.3125,50.5 580.5,50.5 Q581.2188,50.5 581.8438,50.75 Q582.4688,51 583,51.5 Z " fill="#000000"/><text fill="#000000" font-family="sans-serif" font-size="12" lengthAdjust="spacing" textLength="73" x="595" y="59.9102">Administrator</text><!--MD5=[6d9eb9a083ac0654c8b63743033752d3]
link TestType to Company--><!--MD5=[742a261f27a3dcd734c626287d811acd]
link Company to TestType--><path codeLine="32" d="M287,141.85 C287,126.38 287,106.68 287,89.33 " fill="none" id="Company-TestType" style="stroke:#A80036;stroke-width:1.0;"/><polygon fill="#000000" points="246,110.6758,243.0611,119.7209,248.9389,119.7209,246,110.6758" style="stroke:#000000;stroke-width:1.0;"/><text fill="#000000" font-family="sans-serif" font-size="13" lengthAdjust="spacing" textLength="53" x="255" y="120.9951">conducts</text><text fill="#000000" font-family="sans-serif" font-size="13" lengthAdjust="spacing" textLength="7" x="279.1906" y="131.2763">1</text><text fill="#000000" font-family="sans-serif" font-size="13" lengthAdjust="spacing" textLength="5" x="281.6328" y="110.1324">*</text><!--MD5=[e981d4f96c4342412d1e68160b30cf70]
link Test to TestType--><path codeLine="30" d="M71.16,198.22 C112.92,169.02 187.49,116.88 236.86,82.36 " fill="none" id="Test-TestType" style="stroke:#A80036;stroke-width:1.0;"/><polygon fill="#000000" points="110.0977,107.3106,101.0008,110.0852,104.369,114.9023,110.0977,107.3106" style="stroke:#000000;stroke-width:1.0;"/><text fill="#000000" font-family="sans-serif" font-size="13" lengthAdjust="spacing" textLength="72" x="115" y="115.4951">classified as</text><text fill="#000000" font-family="sans-serif" font-size="13" lengthAdjust="spacing" textLength="5" x="79.1751" y="208.6261">*</text><text fill="#000000" font-family="sans-serif" font-size="13" lengthAdjust="spacing" textLength="7" x="221.9816" y="102.1387">1</text><!--MD5=[8742b9b07f4ff1e96b776c10733812b1]
link Test to ParameterCategory--><path codeLine="31" d="M71.16,222.74 C106.67,225.71 166.46,230.26 218,232 C279.3,234.06 294.84,236.66 356,232 C429.08,226.43 446.61,218.43 519,207 C528.67,205.47 538.87,203.84 548.89,202.22 " fill="none" id="Test-ParameterCategory" style="stroke:#A80036;stroke-width:1.0;"/><polygon fill="#000000" points="227.9954,222.9612,218.8325,220.4132,219.0848,226.2856,227.9954,222.9612" style="stroke:#000000;stroke-width:1.0;"/><text fill="#000000" font-family="sans-serif" font-size="13" lengthAdjust="spacing" textLength="123" x="232" y="228.4951">requested analysis of</text><text fill="#000000" font-family="sans-serif" font-size="13" lengthAdjust="spacing" textLength="5" x="79.1751" y="238.8163">*</text><text fill="#000000" font-family="sans-serif" font-size="13" lengthAdjust="spacing" textLength="20" x="521.0534" y="200.0325">1..*</text><!--MD5=[93b4f25fb503a8e0e9a46b1d30ff3f44]
link Company to ParameterCategory--><path codeLine="33" d="M329.52,182.04 C346.8,186.82 367.18,191.64 386,194 C440.44,200.83 502.64,199.53 548.85,196.82 " fill="none" id="Company-ParameterCategory" style="stroke:#A80036;stroke-width:1.0;"/><polygon fill="#000000" points="395.9887,185.512,387.1617,181.9715,386.7665,187.8361,395.9887,185.512" style="stroke:#000000;stroke-width:1.0;"/><text fill="#000000" font-family="sans-serif" font-size="13" lengthAdjust="spacing" textLength="118" x="400" y="190.4951">capable of analysing</text><text fill="#000000" font-family="sans-serif" font-size="13" lengthAdjust="spacing" textLength="7" x="337.4297" y="199.1957">1</text><text fill="#000000" font-family="sans-serif" font-size="13" lengthAdjust="spacing" textLength="5" x="535.9586" y="211.8271">*</text><!--MD5=[eaea43e34e45c5b9d20b595fc78f1f20]
link Company to Administrator--><path codeLine="34" d="M329.9,169.7 C377.65,169.01 457.09,163.28 519,136 C553.44,120.82 585.58,90.08 603.28,71.14 " fill="none" id="Company-Administrator" style="stroke:#A80036;stroke-width:1.0;"/><polygon fill="#000000" points="439.7037,125.48,430.1979,125.783,432.1914,131.3124,439.7037,125.48" style="stroke:#000000;stroke-width:1.0;"/><text fill="#000000" font-family="sans-serif" font-size="13" lengthAdjust="spacing" textLength="30" x="444" y="132.4951">know</text><text fill="#000000" font-family="sans-serif" font-size="13" lengthAdjust="spacing" textLength="7" x="337.585" y="166.0288">1</text><text fill="#000000" font-family="sans-serif" font-size="13" lengthAdjust="spacing" textLength="5" x="592.6318" y="92.3858">*</text><!--MD5=[8aaf0efd5e2f3824be7ea3e488dcc283]
link TestType to ParameterCategory--><path codeLine="35" d="M337.21,64.09 C352.77,69.03 370.06,74.38 386,79 C444.71,96 464.24,86.84 519,114 C534.85,121.86 550.59,132.52 564.68,143.4 " fill="none" id="TestType-ParameterCategory" style="stroke:#A80036;stroke-width:1.0;"/><polygon fill="#000000" points="406.7213,71.8219,399.148,66.069,397.2129,71.6191,406.7213,71.8219" style="stroke:#000000;stroke-width:1.0;"/><text fill="#000000" font-family="sans-serif" font-size="13" lengthAdjust="spacing" textLength="96" x="411" y="75.4951">characterized by</text><text fill="#000000" font-family="sans-serif" font-size="13" lengthAdjust="spacing" textLength="7" x="345.0987" y="81.1853">1</text><text fill="#000000" font-family="sans-serif" font-size="13" lengthAdjust="spacing" textLength="20" x="535.3064" y="132.7294">1..*</text><!--MD5=[0985ee834cc881275852ed47ce1e01f6]
link TestType to Administrator--><path codeLine="36" d="M337.33,49.05 C398.82,50.35 503.41,52.58 565.93,53.9 " fill="none" id="TestType-Administrator" style="stroke:#A80036;stroke-width:1.0;"/><polygon fill="#000000" points="424.4989,42.2818,415.5182,39.1517,415.3935,45.0282,424.4989,42.2818" style="stroke:#000000;stroke-width:1.0;"/><text fill="#000000" font-family="sans-serif" font-size="13" lengthAdjust="spacing" textLength="61" x="428.5" y="47.4951">created by</text><text fill="#000000" font-family="sans-serif" font-size="13" lengthAdjust="spacing" textLength="5" x="345.0894" y="45.5863">*</text><text fill="#000000" font-family="sans-serif" font-size="13" lengthAdjust="spacing" textLength="7" x="551.0452" y="68.3901">1</text><!--MD5=[ccf67eeb7f3a6cf9dca9a4fc043af7db]
@startuml

skinparam classAttributeIconSize 0
hide empty methods
hide empty attributes
left to right direction

class Company{
- designation
}
class ParameterCategory{
- name
- code
- description
- nhsId
}
class TestType{
- Code
- Description
- Collecting method
}
class Test{
- code
- NhsCode
- createdAt

}

 TestType -[hidden]right-|> Company

Test "*" - - "1" TestType : classified as >
Test "*" - - "1..*" ParameterCategory : requested analysis of >
Company "1" - - "*" TestType : conducts >
Company "1" - - "*" ParameterCategory : capable of analysing >
Company "1" - - "*" Administrator : know >
TestType "1" - - "1..*" ParameterCategory : characterized by >
TestType "*" - - "1" Administrator : created by >

@enduml

PlantUML version 1.2021.00(Sun Jan 10 10:25:05 GMT 2021)
(GPL source distribution)
Java Runtime: OpenJDK Runtime Environment
JVM: OpenJDK 64-Bit Server VM
Default Encoding: Cp1252
Language: pt
Country: BR
--></g></svg>