<?xml version="1.0" encoding="UTF-8" standalone="no"?><svg xmlns="http://www.w3.org/2000/svg" xmlns:xlink="http://www.w3.org/1999/xlink" contentScriptType="application/ecmascript" contentStyleType="text/css" height="388px" preserveAspectRatio="none" style="width:2212px;height:388px;" version="1.1" viewBox="0 0 2212 388" width="2212px" zoomAndPan="magnify"><defs><filter height="300%" id="f1myw3ol39z7xk" width="300%" x="-1" y="-1"><feGaussianBlur result="blurOut" stdDeviation="2.0"/><feColorMatrix in="blurOut" result="blurOut2" type="matrix" values="0 0 0 0 0 0 0 0 0 0 0 0 0 0 0 0 0 0 .4 0"/><feOffset dx="4.0" dy="4.0" in="blurOut2" result="blurOut3"/><feBlend in="SourceGraphic" in2="blurOut3" mode="normal"/></filter></defs><g><!--MD5=[bebdcc43ebcb1534ee764d1f430c03ae]
class CreateTestTypeUI--><rect codeLine="3" fill="#FEFECE" filter="url(#f1myw3ol39z7xk)" height="48" id="CreateTestTypeUI" style="stroke:#A80036;stroke-width:1.5;" width="131" x="7" y="164"/><ellipse cx="22" cy="180" fill="#ADD1B2" rx="11" ry="11" style="stroke:#A80036;stroke-width:1.0;"/><path d="M24,176.5 Q24.2031,176 24.4375,175.75 Q24.6719,175.5 24.9375,175.5 Q25.4063,175.5 25.7031,175.7813 Q26,176.0625 26,176.7188 L26,178.2813 Q26,178.9375 25.7188,179.2188 Q25.4375,179.5 25,179.5 Q24.6094,179.5 24.3594,179.3281 Q24.1094,179.1563 24,178.7031 Q23.9531,178.3906 23.7813,178.2188 Q23.4688,177.8906 22.9063,177.7031 Q22.3438,177.5 21.7813,177.5 Q21.0781,177.5 20.4844,177.7813 Q19.9063,178.0625 19.4531,178.6875 Q19,179.3125 19,180.1719 L19,181.0938 Q19,182.125 19.8438,182.8125 Q20.6875,183.5 22.1875,183.5 Q23.0781,183.5 23.7031,183.2969 Q24.0625,183.1875 24.4688,182.8281 Q24.7344,182.625 24.875,182.5625 Q25.0156,182.5 25.1875,182.5 Q25.5156,182.5 25.75,182.7656 Q26,183.0156 26,183.375 Q26,183.7188 25.6563,184.125 Q25.1563,184.7188 24.3594,185.0469 Q23.3125,185.5 22.0313,185.5 Q20.5313,185.5 19.3281,184.9063 Q18.3594,184.4375 17.6719,183.4219 Q17,182.4063 17,181.2031 L17,180.1094 Q17,178.8594 17.5938,177.7656 Q18.2031,176.6719 19.25,176.0938 Q20.3125,175.5 21.5,175.5 Q22.2188,175.5 22.8438,175.75 Q23.4688,176 24,176.5 Z " fill="#000000"/><text fill="#000000" font-family="sans-serif" font-size="12" lengthAdjust="spacing" textLength="99" x="36" y="184.9102">CreateTestTypeUI</text><line style="stroke:#A80036;stroke-width:1.5;" x1="8" x2="137" y1="196" y2="196"/><line style="stroke:#A80036;stroke-width:1.5;" x1="8" x2="137" y1="204" y2="204"/><!--MD5=[2c845ebea24388d268f5a9acbeca4fd9]
class CreateTestTypeController--><rect codeLine="6" fill="#FEFECE" filter="url(#f1myw3ol39z7xk)" height="89.5078" id="CreateTestTypeController" style="stroke:#A80036;stroke-width:1.5;" width="401" x="199" y="143"/><ellipse cx="324.75" cy="159" fill="#ADD1B2" rx="11" ry="11" style="stroke:#A80036;stroke-width:1.0;"/><path d="M326.75,155.5 Q326.9531,155 327.1875,154.75 Q327.4219,154.5 327.6875,154.5 Q328.1563,154.5 328.4531,154.7813 Q328.75,155.0625 328.75,155.7188 L328.75,157.2813 Q328.75,157.9375 328.4688,158.2188 Q328.1875,158.5 327.75,158.5 Q327.3594,158.5 327.1094,158.3281 Q326.8594,158.1563 326.75,157.7031 Q326.7031,157.3906 326.5313,157.2188 Q326.2188,156.8906 325.6563,156.7031 Q325.0938,156.5 324.5313,156.5 Q323.8281,156.5 323.2344,156.7813 Q322.6563,157.0625 322.2031,157.6875 Q321.75,158.3125 321.75,159.1719 L321.75,160.0938 Q321.75,161.125 322.5938,161.8125 Q323.4375,162.5 324.9375,162.5 Q325.8281,162.5 326.4531,162.2969 Q326.8125,162.1875 327.2188,161.8281 Q327.4844,161.625 327.625,161.5625 Q327.7656,161.5 327.9375,161.5 Q328.2656,161.5 328.5,161.7656 Q328.75,162.0156 328.75,162.375 Q328.75,162.7188 328.4063,163.125 Q327.9063,163.7188 327.1094,164.0469 Q326.0625,164.5 324.7813,164.5 Q323.2813,164.5 322.0781,163.9063 Q321.1094,163.4375 320.4219,162.4219 Q319.75,161.4063 319.75,160.2031 L319.75,159.1094 Q319.75,157.8594 320.3438,156.7656 Q320.9531,155.6719 322,155.0938 Q323.0625,154.5 324.25,154.5 Q324.9688,154.5 325.5938,154.75 Q326.2188,155 326.75,155.5 Z " fill="#000000"/><text fill="#000000" font-family="sans-serif" font-size="12" lengthAdjust="spacing" textLength="141" x="345.25" y="163.9102">CreateTestTypeController</text><line style="stroke:#A80036;stroke-width:1.5;" x1="200" x2="599" y1="175" y2="175"/><line style="stroke:#A80036;stroke-width:1.5;" x1="200" x2="599" y1="183" y2="183"/><text fill="#000000" font-family="sans-serif" font-size="11" lengthAdjust="spacing" textLength="389" x="205" y="198.4189">+createTestType(code, description, collectingMethod, selectedCategoriesCodes)</text><text fill="#000000" font-family="sans-serif" font-size="11" lengthAdjust="spacing" textLength="89" x="205" y="212.2549">+saveTestType(tt)</text><text fill="#000000" font-family="sans-serif" font-size="11" lengthAdjust="spacing" textLength="81" x="205" y="226.0908">+getCategories()</text><!--MD5=[aeb3272166074d8737a70b61b1e71682]
class TestType--><rect codeLine="12" fill="#FEFECE" filter="url(#f1myw3ol39z7xk)" height="103.3438" id="TestType" style="stroke:#A80036;stroke-width:1.5;" width="370" x="1518" y="75.5"/><ellipse cx="1673.75" cy="91.5" fill="#ADD1B2" rx="11" ry="11" style="stroke:#A80036;stroke-width:1.0;"/><path d="M1675.75,88 Q1675.9531,87.5 1676.1875,87.25 Q1676.4219,87 1676.6875,87 Q1677.1563,87 1677.4531,87.2813 Q1677.75,87.5625 1677.75,88.2188 L1677.75,89.7813 Q1677.75,90.4375 1677.4688,90.7188 Q1677.1875,91 1676.75,91 Q1676.3594,91 1676.1094,90.8281 Q1675.8594,90.6563 1675.75,90.2031 Q1675.7031,89.8906 1675.5313,89.7188 Q1675.2188,89.3906 1674.6563,89.2031 Q1674.0938,89 1673.5313,89 Q1672.8281,89 1672.2344,89.2813 Q1671.6563,89.5625 1671.2031,90.1875 Q1670.75,90.8125 1670.75,91.6719 L1670.75,92.5938 Q1670.75,93.625 1671.5938,94.3125 Q1672.4375,95 1673.9375,95 Q1674.8281,95 1675.4531,94.7969 Q1675.8125,94.6875 1676.2188,94.3281 Q1676.4844,94.125 1676.625,94.0625 Q1676.7656,94 1676.9375,94 Q1677.2656,94 1677.5,94.2656 Q1677.75,94.5156 1677.75,94.875 Q1677.75,95.2188 1677.4063,95.625 Q1676.9063,96.2188 1676.1094,96.5469 Q1675.0625,97 1673.7813,97 Q1672.2813,97 1671.0781,96.4063 Q1670.1094,95.9375 1669.4219,94.9219 Q1668.75,93.9063 1668.75,92.7031 L1668.75,91.6094 Q1668.75,90.3594 1669.3438,89.2656 Q1669.9531,88.1719 1671,87.5938 Q1672.0625,87 1673.25,87 Q1673.9688,87 1674.5938,87.25 Q1675.2188,87.5 1675.75,88 Z " fill="#000000"/><text fill="#000000" font-family="sans-serif" font-size="12" lengthAdjust="spacing" textLength="50" x="1694.25" y="96.4102">TestType</text><line style="stroke:#A80036;stroke-width:1.5;" x1="1519" x2="1887" y1="107.5" y2="107.5"/><text fill="#000000" font-family="sans-serif" font-size="11" lengthAdjust="spacing" textLength="65" x="1524" y="122.9189">-code : String</text><text fill="#000000" font-family="sans-serif" font-size="11" lengthAdjust="spacing" textLength="94" x="1524" y="136.7549">-description : String</text><text fill="#000000" font-family="sans-serif" font-size="11" lengthAdjust="spacing" textLength="121" x="1524" y="150.5908">-collectingMethod : String</text><line style="stroke:#A80036;stroke-width:1.5;" x1="1519" x2="1887" y1="157.0078" y2="157.0078"/><text fill="#000000" font-family="sans-serif" font-size="11" lengthAdjust="spacing" textLength="358" x="1524" y="172.4268">+TestType(code, description, collectingMethod, selectedCategoriesCodes)</text><!--MD5=[d802db621b5b215a6f0466f93cefcb42]
class ParameterCategoryStore--><rect codeLine="19" fill="#FEFECE" filter="url(#f1myw3ol39z7xk)" height="75.6719" id="ParameterCategoryStore" style="stroke:#A80036;stroke-width:1.5;" width="168" x="1040.5" y="7"/><ellipse cx="1055.5" cy="23" fill="#ADD1B2" rx="11" ry="11" style="stroke:#A80036;stroke-width:1.0;"/><path d="M1057.5,19.5 Q1057.7031,19 1057.9375,18.75 Q1058.1719,18.5 1058.4375,18.5 Q1058.9063,18.5 1059.2031,18.7813 Q1059.5,19.0625 1059.5,19.7188 L1059.5,21.2813 Q1059.5,21.9375 1059.2188,22.2188 Q1058.9375,22.5 1058.5,22.5 Q1058.1094,22.5 1057.8594,22.3281 Q1057.6094,22.1563 1057.5,21.7031 Q1057.4531,21.3906 1057.2813,21.2188 Q1056.9688,20.8906 1056.4063,20.7031 Q1055.8438,20.5 1055.2813,20.5 Q1054.5781,20.5 1053.9844,20.7813 Q1053.4063,21.0625 1052.9531,21.6875 Q1052.5,22.3125 1052.5,23.1719 L1052.5,24.0938 Q1052.5,25.125 1053.3438,25.8125 Q1054.1875,26.5 1055.6875,26.5 Q1056.5781,26.5 1057.2031,26.2969 Q1057.5625,26.1875 1057.9688,25.8281 Q1058.2344,25.625 1058.375,25.5625 Q1058.5156,25.5 1058.6875,25.5 Q1059.0156,25.5 1059.25,25.7656 Q1059.5,26.0156 1059.5,26.375 Q1059.5,26.7188 1059.1563,27.125 Q1058.6563,27.7188 1057.8594,28.0469 Q1056.8125,28.5 1055.5313,28.5 Q1054.0313,28.5 1052.8281,27.9063 Q1051.8594,27.4375 1051.1719,26.4219 Q1050.5,25.4063 1050.5,24.2031 L1050.5,23.1094 Q1050.5,21.8594 1051.0938,20.7656 Q1051.7031,19.6719 1052.75,19.0938 Q1053.8125,18.5 1055,18.5 Q1055.7188,18.5 1056.3438,18.75 Q1056.9688,19 1057.5,19.5 Z " fill="#000000"/><text fill="#000000" font-family="sans-serif" font-size="12" lengthAdjust="spacing" textLength="136" x="1069.5" y="27.9102">ParameterCategoryStore</text><line style="stroke:#A80036;stroke-width:1.5;" x1="1041.5" x2="1207.5" y1="39" y2="39"/><line style="stroke:#A80036;stroke-width:1.5;" x1="1041.5" x2="1207.5" y1="47" y2="47"/><text fill="#000000" font-family="sans-serif" font-size="11" lengthAdjust="spacing" textLength="98" x="1046.5" y="62.4189">+getCategoriesList()</text><text fill="#000000" font-family="sans-serif" font-size="11" lengthAdjust="spacing" textLength="143" x="1046.5" y="76.2549">+getCategoriesByCode(code)</text><!--MD5=[36afb6bbd95a8ac778c4537c55a683d5]
class ParameterCategory--><rect codeLine="24" fill="#FEFECE" filter="url(#f1myw3ol39z7xk)" height="103.3438" id="ParameterCategory" style="stroke:#A80036;stroke-width:1.5;" width="139" x="2059" y="75.5"/><ellipse cx="2074" cy="91.5" fill="#ADD1B2" rx="11" ry="11" style="stroke:#A80036;stroke-width:1.0;"/><path d="M2076,88 Q2076.2031,87.5 2076.4375,87.25 Q2076.6719,87 2076.9375,87 Q2077.4063,87 2077.7031,87.2813 Q2078,87.5625 2078,88.2188 L2078,89.7813 Q2078,90.4375 2077.7188,90.7188 Q2077.4375,91 2077,91 Q2076.6094,91 2076.3594,90.8281 Q2076.1094,90.6563 2076,90.2031 Q2075.9531,89.8906 2075.7813,89.7188 Q2075.4688,89.3906 2074.9063,89.2031 Q2074.3438,89 2073.7813,89 Q2073.0781,89 2072.4844,89.2813 Q2071.9063,89.5625 2071.4531,90.1875 Q2071,90.8125 2071,91.6719 L2071,92.5938 Q2071,93.625 2071.8438,94.3125 Q2072.6875,95 2074.1875,95 Q2075.0781,95 2075.7031,94.7969 Q2076.0625,94.6875 2076.4688,94.3281 Q2076.7344,94.125 2076.875,94.0625 Q2077.0156,94 2077.1875,94 Q2077.5156,94 2077.75,94.2656 Q2078,94.5156 2078,94.875 Q2078,95.2188 2077.6563,95.625 Q2077.1563,96.2188 2076.3594,96.5469 Q2075.3125,97 2074.0313,97 Q2072.5313,97 2071.3281,96.4063 Q2070.3594,95.9375 2069.6719,94.9219 Q2069,93.9063 2069,92.7031 L2069,91.6094 Q2069,90.3594 2069.5938,89.2656 Q2070.2031,88.1719 2071.25,87.5938 Q2072.3125,87 2073.5,87 Q2074.2188,87 2074.8438,87.25 Q2075.4688,87.5 2076,88 Z " fill="#000000"/><text fill="#000000" font-family="sans-serif" font-size="12" lengthAdjust="spacing" textLength="107" x="2088" y="96.4102">ParameterCategory</text><line style="stroke:#A80036;stroke-width:1.5;" x1="2060" x2="2197" y1="107.5" y2="107.5"/><text fill="#000000" font-family="sans-serif" font-size="11" lengthAdjust="spacing" textLength="30" x="2065" y="122.9189">-name</text><text fill="#000000" font-family="sans-serif" font-size="11" lengthAdjust="spacing" textLength="28" x="2065" y="136.7549">-code</text><text fill="#000000" font-family="sans-serif" font-size="11" lengthAdjust="spacing" textLength="57" x="2065" y="150.5908">-description</text><text fill="#000000" font-family="sans-serif" font-size="11" lengthAdjust="spacing" textLength="30" x="2065" y="164.4268">-nhsId</text><line style="stroke:#A80036;stroke-width:1.5;" x1="2060" x2="2197" y1="170.8438" y2="170.8438"/><!--MD5=[02e4b9b7573f1156f41e60aa5b4e25a4]
class Company--><rect codeLine="31" fill="#FEFECE" filter="url(#f1myw3ol39z7xk)" height="89.5078" id="Company" style="stroke:#A80036;stroke-width:1.5;" width="160" x="661" y="143"/><ellipse cx="710.25" cy="159" fill="#ADD1B2" rx="11" ry="11" style="stroke:#A80036;stroke-width:1.0;"/><path d="M712.25,155.5 Q712.4531,155 712.6875,154.75 Q712.9219,154.5 713.1875,154.5 Q713.6563,154.5 713.9531,154.7813 Q714.25,155.0625 714.25,155.7188 L714.25,157.2813 Q714.25,157.9375 713.9688,158.2188 Q713.6875,158.5 713.25,158.5 Q712.8594,158.5 712.6094,158.3281 Q712.3594,158.1563 712.25,157.7031 Q712.2031,157.3906 712.0313,157.2188 Q711.7188,156.8906 711.1563,156.7031 Q710.5938,156.5 710.0313,156.5 Q709.3281,156.5 708.7344,156.7813 Q708.1563,157.0625 707.7031,157.6875 Q707.25,158.3125 707.25,159.1719 L707.25,160.0938 Q707.25,161.125 708.0938,161.8125 Q708.9375,162.5 710.4375,162.5 Q711.3281,162.5 711.9531,162.2969 Q712.3125,162.1875 712.7188,161.8281 Q712.9844,161.625 713.125,161.5625 Q713.2656,161.5 713.4375,161.5 Q713.7656,161.5 714,161.7656 Q714.25,162.0156 714.25,162.375 Q714.25,162.7188 713.9063,163.125 Q713.4063,163.7188 712.6094,164.0469 Q711.5625,164.5 710.2813,164.5 Q708.7813,164.5 707.5781,163.9063 Q706.6094,163.4375 705.9219,162.4219 Q705.25,161.4063 705.25,160.2031 L705.25,159.1094 Q705.25,157.8594 705.8438,156.7656 Q706.4531,155.6719 707.5,155.0938 Q708.5625,154.5 709.75,154.5 Q710.4688,154.5 711.0938,154.75 Q711.7188,155 712.25,155.5 Z " fill="#000000"/><text fill="#000000" font-family="sans-serif" font-size="12" lengthAdjust="spacing" textLength="53" x="730.75" y="163.9102">Company</text><line style="stroke:#A80036;stroke-width:1.5;" x1="662" x2="820" y1="175" y2="175"/><text fill="#000000" font-family="sans-serif" font-size="11" lengthAdjust="spacing" textLength="96" x="667" y="190.4189">-designation : String</text><line style="stroke:#A80036;stroke-width:1.5;" x1="662" x2="820" y1="196.8359" y2="196.8359"/><text fill="#000000" font-family="sans-serif" font-size="11" lengthAdjust="spacing" textLength="100" x="667" y="212.2549">+getTestTypeStore()</text><text fill="#000000" font-family="sans-serif" font-size="11" lengthAdjust="spacing" textLength="148" x="667" y="226.0908">+getParameterCategoryStore()</text><!--MD5=[6ba72ddf03822b91e8d41ca71de58ed3]
class TestTypeStore--><rect codeLine="37" fill="#FEFECE" filter="url(#f1myw3ol39z7xk)" height="89.5078" id="TestTypeStore" style="stroke:#A80036;stroke-width:1.5;" width="401" x="924" y="285"/><ellipse cx="1080.75" cy="301" fill="#ADD1B2" rx="11" ry="11" style="stroke:#A80036;stroke-width:1.0;"/><path d="M1082.75,297.5 Q1082.9531,297 1083.1875,296.75 Q1083.4219,296.5 1083.6875,296.5 Q1084.1563,296.5 1084.4531,296.7813 Q1084.75,297.0625 1084.75,297.7188 L1084.75,299.2813 Q1084.75,299.9375 1084.4688,300.2188 Q1084.1875,300.5 1083.75,300.5 Q1083.3594,300.5 1083.1094,300.3281 Q1082.8594,300.1563 1082.75,299.7031 Q1082.7031,299.3906 1082.5313,299.2188 Q1082.2188,298.8906 1081.6563,298.7031 Q1081.0938,298.5 1080.5313,298.5 Q1079.8281,298.5 1079.2344,298.7813 Q1078.6563,299.0625 1078.2031,299.6875 Q1077.75,300.3125 1077.75,301.1719 L1077.75,302.0938 Q1077.75,303.125 1078.5938,303.8125 Q1079.4375,304.5 1080.9375,304.5 Q1081.8281,304.5 1082.4531,304.2969 Q1082.8125,304.1875 1083.2188,303.8281 Q1083.4844,303.625 1083.625,303.5625 Q1083.7656,303.5 1083.9375,303.5 Q1084.2656,303.5 1084.5,303.7656 Q1084.75,304.0156 1084.75,304.375 Q1084.75,304.7188 1084.4063,305.125 Q1083.9063,305.7188 1083.1094,306.0469 Q1082.0625,306.5 1080.7813,306.5 Q1079.2813,306.5 1078.0781,305.9063 Q1077.1094,305.4375 1076.4219,304.4219 Q1075.75,303.4063 1075.75,302.2031 L1075.75,301.1094 Q1075.75,299.8594 1076.3438,298.7656 Q1076.9531,297.6719 1078,297.0938 Q1079.0625,296.5 1080.25,296.5 Q1080.9688,296.5 1081.5938,296.75 Q1082.2188,297 1082.75,297.5 Z " fill="#000000"/><text fill="#000000" font-family="sans-serif" font-size="12" lengthAdjust="spacing" textLength="79" x="1101.25" y="305.9102">TestTypeStore</text><line style="stroke:#A80036;stroke-width:1.5;" x1="925" x2="1324" y1="317" y2="317"/><line style="stroke:#A80036;stroke-width:1.5;" x1="925" x2="1324" y1="325" y2="325"/><text fill="#000000" font-family="sans-serif" font-size="11" lengthAdjust="spacing" textLength="389" x="930" y="340.4189">+createTestType(code, description, collectingMethod, selectedCategoriesCodes)</text><text fill="#000000" font-family="sans-serif" font-size="11" lengthAdjust="spacing" textLength="102" x="930" y="354.2549">+validateTestType(tt)</text><text fill="#000000" font-family="sans-serif" font-size="11" lengthAdjust="spacing" textLength="89" x="930" y="368.0908">+saveTestType(tt)</text><!--MD5=[69134a8957932d955e1f822b15ec4b1c]
link CreateTestTypeUI to CreateTestTypeController--><path codeLine="44" d="M138.1,188 C154.91,188 173.95,188 193.89,188 " fill="none" id="CreateTestTypeUI-to-CreateTestTypeController" style="stroke:#A80036;stroke-width:1.0;stroke-dasharray:7.0,7.0;"/><polygon fill="#A80036" points="198.98,188,189.98,184,193.98,188,189.98,192,198.98,188" style="stroke:#A80036;stroke-width:1.0;"/><!--MD5=[812ef8251b528d1a64980212cceda9f5]
link CreateTestTypeController to Company--><path codeLine="45" d="M600.44,188 C619.75,188 638.52,188 655.71,188 " fill="none" id="CreateTestTypeController-to-Company" style="stroke:#A80036;stroke-width:1.0;stroke-dasharray:7.0,7.0;"/><polygon fill="#A80036" points="660.99,188,651.99,184,655.99,188,651.99,192,660.99,188" style="stroke:#A80036;stroke-width:1.0;"/><!--MD5=[f4bf28669fe4ba1101395c8fda9b28f2]
link CreateTestTypeController to ParameterCategoryStore--><path codeLine="46" d="M583.58,143 C609.54,136.83 635.93,130.67 661,125 C745.17,105.97 766.05,100.16 851,85 C912.33,74.05 981.82,63.89 1035.28,56.54 " fill="none" id="CreateTestTypeController-to-ParameterCategoryStore" style="stroke:#A80036;stroke-width:1.0;stroke-dasharray:7.0,7.0;"/><polygon fill="#A80036" points="1040.4,55.84,1030.9357,53.1147,1035.4474,56.5271,1032.035,61.0388,1040.4,55.84" style="stroke:#A80036;stroke-width:1.0;"/><!--MD5=[97f86ea091f10acfb6befc2251259947]
link CreateTestTypeController to TestTypeStore--><path codeLine="47" d="M559.4,233.03 C645.17,255.94 753.22,282.54 851,300 C872.78,303.89 895.63,307.35 918.46,310.42 " fill="none" id="CreateTestTypeController-to-TestTypeStore" style="stroke:#A80036;stroke-width:1.0;stroke-dasharray:7.0,7.0;"/><polygon fill="#A80036" points="923.63,311.11,915.2337,305.962,918.6734,310.4529,914.1824,313.8926,923.63,311.11" style="stroke:#A80036;stroke-width:1.0;"/><!--MD5=[3eebf0e5f359806b77b30e9524c37676]
link TestTypeStore to TestType--><path codeLine="48" d="M1325.44,316.17 C1379.51,308.03 1437.12,295.19 1488,275 C1543.3,253.05 1598.34,214.52 1638.75,182.27 " fill="none" id="TestTypeStore-to-TestType" style="stroke:#A80036;stroke-width:1.0;stroke-dasharray:7.0,7.0;"/><polygon fill="#A80036" points="1643.11,178.77,1633.5868,181.2815,1639.2098,181.8987,1638.5927,187.5218,1643.11,178.77" style="stroke:#A80036;stroke-width:1.0;"/><!--MD5=[d6274e3b73b5bc8f467c6cfbf5bf003e]
link ParameterCategoryStore to ParameterCategory--><path codeLine="49" d="M1208.74,39.31 C1349.55,31.27 1643.31,21.33 1888,58 C1944.89,66.53 2007.27,84.8 2054.11,100.41 " fill="none" id="ParameterCategoryStore-to-ParameterCategory" style="stroke:#A80036;stroke-width:1.0;stroke-dasharray:7.0,7.0;"/><polygon fill="#A80036" points="2058.88,102,2051.6188,95.3461,2054.1395,100.4103,2049.0752,102.9309,2058.88,102" style="stroke:#A80036;stroke-width:1.0;"/><!--MD5=[d53d7490e5836ca5709858d7326f212b]
link Company to ParameterCategoryStore--><path codeLine="50" d="M814.65,142.84 C826.55,136.37 838.95,130.17 851,125 C912.52,98.64 985.42,77.74 1040.33,63.92 " fill="none" id="Company-ParameterCategoryStore" style="stroke:#A80036;stroke-width:1.0;"/><polygon fill="#000000" points="860.7197,100.5253,851.2115,100.7369,853.1518,106.2852,860.7197,100.5253" style="stroke:#000000;stroke-width:1.0;"/><text fill="#000000" font-family="sans-serif" font-size="13" lengthAdjust="spacing" textLength="28" x="865" y="107.4951">uses</text><text fill="#000000" font-family="sans-serif" font-size="13" lengthAdjust="spacing" textLength="7" x="818.3917" y="132.2596">1</text><text fill="#000000" font-family="sans-serif" font-size="13" lengthAdjust="spacing" textLength="7" x="1025.5219" y="79.8429">1</text><!--MD5=[141c3afa12b2b3c0a39ffce56dbd5f19]
link Company to TestTypeStore--><path codeLine="51" d="M787.68,233.13 C806.02,248.91 828.2,265.34 851,276 C873.83,286.67 898.69,295.24 923.8,302.12 " fill="none" id="Company-TestTypeStore" style="stroke:#A80036;stroke-width:1.0;"/><polygon fill="#000000" points="860.4599,269.4362,853.7205,262.7256,851.0632,267.9685,860.4599,269.4362" style="stroke:#000000;stroke-width:1.0;"/><text fill="#000000" font-family="sans-serif" font-size="13" lengthAdjust="spacing" textLength="28" x="865" y="272.4951">uses</text><text fill="#000000" font-family="sans-serif" font-size="13" lengthAdjust="spacing" textLength="7" x="786.7522" y="254.1558">1</text><text fill="#000000" font-family="sans-serif" font-size="13" lengthAdjust="spacing" textLength="7" x="908.8234" y="314.855">1</text><!--MD5=[8aaf0efd5e2f3824be7ea3e488dcc283]
link TestType to ParameterCategory--><path codeLine="52" d="M1888.21,127 C1948.77,127 2012.39,127 2058.8,127 " fill="none" id="TestType-ParameterCategory" style="stroke:#A80036;stroke-width:1.0;"/><polygon fill="#000000" points="1928,118.1758,1918.9549,115.2369,1918.9549,121.1147,1928,118.1758" style="stroke:#000000;stroke-width:1.0;"/><text fill="#000000" font-family="sans-serif" font-size="13" lengthAdjust="spacing" textLength="96" x="1932" y="123.4951">characterized by</text><text fill="#000000" font-family="sans-serif" font-size="13" lengthAdjust="spacing" textLength="7" x="1896.1712" y="140.8328">1</text><text fill="#000000" font-family="sans-serif" font-size="13" lengthAdjust="spacing" textLength="20" x="2030.9545" y="141.283">1..*</text><!--MD5=[742a261f27a3dcd734c626287d811acd]
link Company to TestType--><path codeLine="53" d="M821.38,182.96 C972.99,173.32 1307.37,152.08 1517.68,138.71 " fill="none" id="Company-TestType" style="stroke:#A80036;stroke-width:1.0;"/><polygon fill="#000000" points="1100.4899,142.8587,1091.2767,140.4993,1091.6495,146.3653,1100.4899,142.8587" style="stroke:#000000;stroke-width:1.0;"/><text fill="#000000" font-family="sans-serif" font-size="13" lengthAdjust="spacing" textLength="53" x="1104.5" y="148.4951">conducts</text><text fill="#000000" font-family="sans-serif" font-size="13" lengthAdjust="spacing" textLength="7" x="829.1127" y="196.7669">1</text><text fill="#000000" font-family="sans-serif" font-size="13" lengthAdjust="spacing" textLength="5" x="1504.7563" y="153.0368">*</text><!--MD5=[93b4f25fb503a8e0e9a46b1d30ff3f44]
link Company to ParameterCategory--><path codeLine="54" d="M821.03,196.49 C1007.79,214.81 1490.53,252.11 1888,196 C1946.91,187.68 2011.63,168.39 2058.93,152.32 " fill="none" id="Company-ParameterCategory" style="stroke:#A80036;stroke-width:1.0;"/><polygon fill="#000000" points="1364.9968,216.9975,1355.8527,214.383,1356.0623,220.2571,1364.9968,216.9975" style="stroke:#000000;stroke-width:1.0;"/><text fill="#000000" font-family="sans-serif" font-size="13" lengthAdjust="spacing" textLength="118" x="1369" y="222.4951">capable of analysing</text><text fill="#000000" font-family="sans-serif" font-size="13" lengthAdjust="spacing" textLength="7" x="828.9915" y="211.597">1</text><text fill="#000000" font-family="sans-serif" font-size="13" lengthAdjust="spacing" textLength="5" x="2046.0473" y="169.4599">*</text><!--MD5=[eecc5ef22652c2413c834256258378e0]
@startuml
skinparam classAttributeIconSize 0
left to right direction
class CreateTestTypeUI{
}

class CreateTestTypeController{
+createTestType(code, description, collectingMethod, selectedCategoriesCodes)
+saveTestType(tt)
+getCategories()
}

class TestType {
- code : String
- description : String
- collectingMethod : String
+TestType(code, description, collectingMethod, selectedCategoriesCodes)
}

class ParameterCategoryStore {
+getCategoriesList()
+getCategoriesByCode(code)
}

class ParameterCategory{
- name
- code
- description
- nhsId
}

class Company {
-designation : String
+getTestTypeStore()
+getParameterCategoryStore()
}

class TestTypeStore {
+createTestType(code, description, collectingMethod, selectedCategoriesCodes)
+validateTestType(tt)
+saveTestType(tt)
}


CreateTestTypeUI ..> CreateTestTypeController
CreateTestTypeController ..> Company
CreateTestTypeController ..> ParameterCategoryStore
CreateTestTypeController ..> TestTypeStore
TestTypeStore ..> TestType
ParameterCategoryStore ..> ParameterCategory
Company "1" - - "1" ParameterCategoryStore : uses >
Company "1" - - "1" TestTypeStore : uses >
TestType "1" - - "1..*" ParameterCategory : characterized by >
Company "1" - - "*" TestType : conducts >
Company "1" - - "*" ParameterCategory : capable of analysing >





@enduml

PlantUML version 1.2021.00(Sun Jan 10 10:25:05 GMT 2021)
(GPL source distribution)
Java Runtime: OpenJDK Runtime Environment
JVM: OpenJDK 64-Bit Server VM
Default Encoding: Cp1252
Language: pt
Country: BR
--></g></svg>