<?xml version="1.0" encoding="UTF-8" standalone="no"?><svg xmlns="http://www.w3.org/2000/svg" xmlns:xlink="http://www.w3.org/1999/xlink" contentScriptType="application/ecmascript" contentStyleType="text/css" height="493.75px" preserveAspectRatio="none" style="width:2765px;height:493px;" version="1.1" viewBox="0 0 2765 493" width="2765px" zoomAndPan="magnify"><defs><filter height="300%" id="f15tvyxw4b6igo" width="300%" x="-1" y="-1"><feGaussianBlur result="blurOut" stdDeviation="2.5"/><feColorMatrix in="blurOut" result="blurOut2" type="matrix" values="0 0 0 0 0 0 0 0 0 0 0 0 0 0 0 0 0 0 .4 0"/><feOffset dx="5.0" dy="5.0" in="blurOut2" result="blurOut3"/><feBlend in="SourceGraphic" in2="blurOut3" mode="normal"/></filter></defs><g><!--MD5=[bebdcc43ebcb1534ee764d1f430c03ae]
class CreateTestTypeUI--><rect codeLine="3" fill="#FEFECE" filter="url(#f15tvyxw4b6igo)" height="60" id="CreateTestTypeUI" style="stroke:#A80036;stroke-width:1.875;" width="163.75" x="8.75" y="213.75"/><ellipse cx="27.5" cy="233.75" fill="#ADD1B2" rx="13.75" ry="13.75" style="stroke:#A80036;stroke-width:1.25;"/><path d="M30,229.375 Q30.2539,228.75 30.5469,228.4375 Q30.8398,228.125 31.1719,228.125 Q31.7578,228.125 32.1289,228.4766 Q32.5,228.8281 32.5,229.6484 L32.5,231.6016 Q32.5,232.4219 32.1484,232.7734 Q31.7969,233.125 31.25,233.125 Q30.7617,233.125 30.4492,232.9102 Q30.1367,232.6953 30,232.1289 Q29.9414,231.7383 29.7266,231.5234 Q29.3359,231.1133 28.6328,230.8789 Q27.9297,230.625 27.2266,230.625 Q26.3477,230.625 25.6055,230.9766 Q24.8828,231.3281 24.3164,232.1094 Q23.75,232.8906 23.75,233.9648 L23.75,235.1172 Q23.75,236.4063 24.8047,237.2656 Q25.8594,238.125 27.7344,238.125 Q28.8477,238.125 29.6289,237.8711 Q30.0781,237.7344 30.5859,237.2852 Q30.918,237.0313 31.0938,236.9531 Q31.2695,236.875 31.4844,236.875 Q31.8945,236.875 32.1875,237.207 Q32.5,237.5195 32.5,237.9688 Q32.5,238.3984 32.0703,238.9063 Q31.4453,239.6484 30.4492,240.0586 Q29.1406,240.625 27.5391,240.625 Q25.6641,240.625 24.1602,239.8828 Q22.9492,239.2969 22.0898,238.0273 Q21.25,236.7578 21.25,235.2539 L21.25,233.8867 Q21.25,232.3242 21.9922,230.957 Q22.7539,229.5898 24.0625,228.8672 Q25.3906,228.125 26.875,228.125 Q27.7734,228.125 28.5547,228.4375 Q29.3359,228.75 30,229.375 Z " fill="#000000"/><text fill="#000000" font-family="sans-serif" font-size="15" lengthAdjust="spacing" textLength="123.75" x="45" y="239.8877">CreateTestTypeUI</text><line style="stroke:#A80036;stroke-width:1.875;" x1="10" x2="171.25" y1="253.75" y2="253.75"/><line style="stroke:#A80036;stroke-width:1.875;" x1="10" x2="171.25" y1="263.75" y2="263.75"/><!--MD5=[2c845ebea24388d268f5a9acbeca4fd9]
class CreateTestTypeController--><rect codeLine="6" fill="#FEFECE" filter="url(#f15tvyxw4b6igo)" height="111.8848" id="CreateTestTypeController" style="stroke:#A80036;stroke-width:1.875;" width="501.25" x="248.75" y="187.5"/><ellipse cx="405.9375" cy="207.5" fill="#ADD1B2" rx="13.75" ry="13.75" style="stroke:#A80036;stroke-width:1.25;"/><path d="M408.4375,203.125 Q408.6914,202.5 408.9844,202.1875 Q409.2773,201.875 409.6094,201.875 Q410.1953,201.875 410.5664,202.2266 Q410.9375,202.5781 410.9375,203.3984 L410.9375,205.3516 Q410.9375,206.1719 410.5859,206.5234 Q410.2344,206.875 409.6875,206.875 Q409.1992,206.875 408.8867,206.6602 Q408.5742,206.4453 408.4375,205.8789 Q408.3789,205.4883 408.1641,205.2734 Q407.7734,204.8633 407.0703,204.6289 Q406.3672,204.375 405.6641,204.375 Q404.7852,204.375 404.043,204.7266 Q403.3203,205.0781 402.7539,205.8594 Q402.1875,206.6406 402.1875,207.7148 L402.1875,208.8672 Q402.1875,210.1563 403.2422,211.0156 Q404.2969,211.875 406.1719,211.875 Q407.2852,211.875 408.0664,211.6211 Q408.5156,211.4844 409.0234,211.0352 Q409.3555,210.7813 409.5313,210.7031 Q409.707,210.625 409.9219,210.625 Q410.332,210.625 410.625,210.957 Q410.9375,211.2695 410.9375,211.7188 Q410.9375,212.1484 410.5078,212.6563 Q409.8828,213.3984 408.8867,213.8086 Q407.5781,214.375 405.9766,214.375 Q404.1016,214.375 402.5977,213.6328 Q401.3867,213.0469 400.5273,211.7773 Q399.6875,210.5078 399.6875,209.0039 L399.6875,207.6367 Q399.6875,206.0742 400.4297,204.707 Q401.1914,203.3398 402.5,202.6172 Q403.8281,201.875 405.3125,201.875 Q406.2109,201.875 406.9922,202.1875 Q407.7734,202.5 408.4375,203.125 Z " fill="#000000"/><text fill="#000000" font-family="sans-serif" font-size="15" lengthAdjust="spacing" textLength="176.25" x="431.5625" y="213.6377">CreateTestTypeController</text><line style="stroke:#A80036;stroke-width:1.875;" x1="250" x2="748.75" y1="227.5" y2="227.5"/><line style="stroke:#A80036;stroke-width:1.875;" x1="250" x2="748.75" y1="237.5" y2="237.5"/><text fill="#000000" font-family="sans-serif" font-size="13.75" lengthAdjust="spacing" textLength="486.25" x="256.25" y="256.7737">+createTestType(code, description, collectingMethod, selectedCategoriesCodes)</text><text fill="#000000" font-family="sans-serif" font-size="13.75" lengthAdjust="spacing" textLength="111.25" x="256.25" y="274.0686">+saveTestType(tt)</text><text fill="#000000" font-family="sans-serif" font-size="13.75" lengthAdjust="spacing" textLength="101.25" x="256.25" y="291.3635">+getCategories()</text><!--MD5=[aeb3272166074d8737a70b61b1e71682]
class TestType--><rect codeLine="12" fill="#FEFECE" filter="url(#f15tvyxw4b6igo)" height="129.1797" id="TestType" style="stroke:#A80036;stroke-width:1.875;" width="462.5" x="1897.5" y="103.125"/><ellipse cx="2092.1875" cy="123.125" fill="#ADD1B2" rx="13.75" ry="13.75" style="stroke:#A80036;stroke-width:1.25;"/><path d="M2094.6875,118.75 Q2094.9414,118.125 2095.2344,117.8125 Q2095.5273,117.5 2095.8594,117.5 Q2096.4453,117.5 2096.8164,117.8516 Q2097.1875,118.2031 2097.1875,119.0234 L2097.1875,120.9766 Q2097.1875,121.7969 2096.8359,122.1484 Q2096.4844,122.5 2095.9375,122.5 Q2095.4492,122.5 2095.1367,122.2852 Q2094.8242,122.0703 2094.6875,121.5039 Q2094.6289,121.1133 2094.4141,120.8984 Q2094.0234,120.4883 2093.3203,120.2539 Q2092.6172,120 2091.9141,120 Q2091.0352,120 2090.293,120.3516 Q2089.5703,120.7031 2089.0039,121.4844 Q2088.4375,122.2656 2088.4375,123.3398 L2088.4375,124.4922 Q2088.4375,125.7813 2089.4922,126.6406 Q2090.5469,127.5 2092.4219,127.5 Q2093.5352,127.5 2094.3164,127.2461 Q2094.7656,127.1094 2095.2734,126.6602 Q2095.6055,126.4063 2095.7813,126.3281 Q2095.957,126.25 2096.1719,126.25 Q2096.582,126.25 2096.875,126.582 Q2097.1875,126.8945 2097.1875,127.3438 Q2097.1875,127.7734 2096.7578,128.2813 Q2096.1328,129.0234 2095.1367,129.4336 Q2093.8281,130 2092.2266,130 Q2090.3516,130 2088.8477,129.2578 Q2087.6367,128.6719 2086.7773,127.4023 Q2085.9375,126.1328 2085.9375,124.6289 L2085.9375,123.2617 Q2085.9375,121.6992 2086.6797,120.332 Q2087.4414,118.9648 2088.75,118.2422 Q2090.0781,117.5 2091.5625,117.5 Q2092.4609,117.5 2093.2422,117.8125 Q2094.0234,118.125 2094.6875,118.75 Z " fill="#000000"/><text fill="#000000" font-family="sans-serif" font-size="15" lengthAdjust="spacing" textLength="62.5" x="2117.8125" y="129.2627">TestType</text><line style="stroke:#A80036;stroke-width:1.875;" x1="1898.75" x2="2358.75" y1="143.125" y2="143.125"/><text fill="#000000" font-family="sans-serif" font-size="13.75" lengthAdjust="spacing" textLength="81.25" x="1905" y="162.3987">-code : String</text><text fill="#000000" font-family="sans-serif" font-size="13.75" lengthAdjust="spacing" textLength="117.5" x="1905" y="179.6936">-description : String</text><text fill="#000000" font-family="sans-serif" font-size="13.75" lengthAdjust="spacing" textLength="151.25" x="1905" y="196.9885">-collectingMethod : String</text><line style="stroke:#A80036;stroke-width:1.875;" x1="1898.75" x2="2358.75" y1="205.0098" y2="205.0098"/><text fill="#000000" font-family="sans-serif" font-size="13.75" lengthAdjust="spacing" textLength="447.5" x="1905" y="224.2834">+TestType(code, description, collectingMethod, selectedCategoriesCodes)</text><!--MD5=[d802db621b5b215a6f0466f93cefcb42]
class ParameterCategoryStore--><rect codeLine="19" fill="#FEFECE" filter="url(#f15tvyxw4b6igo)" height="111.8848" id="ParameterCategoryStore" style="stroke:#A80036;stroke-width:1.875;" width="393.75" x="1208.75" y="8.75"/><ellipse cx="1315.3125" cy="28.75" fill="#ADD1B2" rx="13.75" ry="13.75" style="stroke:#A80036;stroke-width:1.25;"/><path d="M1317.8125,24.375 Q1318.0664,23.75 1318.3594,23.4375 Q1318.6523,23.125 1318.9844,23.125 Q1319.5703,23.125 1319.9414,23.4766 Q1320.3125,23.8281 1320.3125,24.6484 L1320.3125,26.6016 Q1320.3125,27.4219 1319.9609,27.7734 Q1319.6094,28.125 1319.0625,28.125 Q1318.5742,28.125 1318.2617,27.9102 Q1317.9492,27.6953 1317.8125,27.1289 Q1317.7539,26.7383 1317.5391,26.5234 Q1317.1484,26.1133 1316.4453,25.8789 Q1315.7422,25.625 1315.0391,25.625 Q1314.1602,25.625 1313.418,25.9766 Q1312.6953,26.3281 1312.1289,27.1094 Q1311.5625,27.8906 1311.5625,28.9648 L1311.5625,30.1172 Q1311.5625,31.4063 1312.6172,32.2656 Q1313.6719,33.125 1315.5469,33.125 Q1316.6602,33.125 1317.4414,32.8711 Q1317.8906,32.7344 1318.3984,32.2852 Q1318.7305,32.0313 1318.9063,31.9531 Q1319.082,31.875 1319.2969,31.875 Q1319.707,31.875 1320,32.207 Q1320.3125,32.5195 1320.3125,32.9688 Q1320.3125,33.3984 1319.8828,33.9063 Q1319.2578,34.6484 1318.2617,35.0586 Q1316.9531,35.625 1315.3516,35.625 Q1313.4766,35.625 1311.9727,34.8828 Q1310.7617,34.2969 1309.9023,33.0273 Q1309.0625,31.7578 1309.0625,30.2539 L1309.0625,28.8867 Q1309.0625,27.3242 1309.8047,25.957 Q1310.5664,24.5898 1311.875,23.8672 Q1313.2031,23.125 1314.6875,23.125 Q1315.5859,23.125 1316.3672,23.4375 Q1317.1484,23.75 1317.8125,24.375 Z " fill="#000000"/><text fill="#000000" font-family="sans-serif" font-size="15" lengthAdjust="spacing" textLength="170" x="1340.9375" y="34.8877">ParameterCategoryStore</text><line style="stroke:#A80036;stroke-width:1.875;" x1="1210" x2="1601.25" y1="48.75" y2="48.75"/><line style="stroke:#A80036;stroke-width:1.875;" x1="1210" x2="1601.25" y1="58.75" y2="58.75"/><text fill="#000000" font-family="sans-serif" font-size="13.75" lengthAdjust="spacing" textLength="195" x="1216.25" y="78.0237">+getParameterCategoriesStore()</text><text fill="#000000" font-family="sans-serif" font-size="13.75" lengthAdjust="spacing" textLength="378.75" x="1216.25" y="95.3186">+getCategoriesByCode(List&lt;String&gt; parameterCategoryCodes)</text><text fill="#000000" font-family="sans-serif" font-size="13.75" lengthAdjust="spacing" textLength="207.5" x="1216.25" y="112.6135">+getCategoryByCode(String code)</text><!--MD5=[36afb6bbd95a8ac778c4537c55a683d5]
class ParameterCategory--><rect codeLine="25" fill="#FEFECE" filter="url(#f15tvyxw4b6igo)" height="94.5898" id="ParameterCategory" style="stroke:#A80036;stroke-width:1.875;" width="173.75" x="2573.75" y="120"/><ellipse cx="2592.5" cy="140" fill="#ADD1B2" rx="13.75" ry="13.75" style="stroke:#A80036;stroke-width:1.25;"/><path d="M2595,135.625 Q2595.2539,135 2595.5469,134.6875 Q2595.8398,134.375 2596.1719,134.375 Q2596.7578,134.375 2597.1289,134.7266 Q2597.5,135.0781 2597.5,135.8984 L2597.5,137.8516 Q2597.5,138.6719 2597.1484,139.0234 Q2596.7969,139.375 2596.25,139.375 Q2595.7617,139.375 2595.4492,139.1602 Q2595.1367,138.9453 2595,138.3789 Q2594.9414,137.9883 2594.7266,137.7734 Q2594.3359,137.3633 2593.6328,137.1289 Q2592.9297,136.875 2592.2266,136.875 Q2591.3477,136.875 2590.6055,137.2266 Q2589.8828,137.5781 2589.3164,138.3594 Q2588.75,139.1406 2588.75,140.2148 L2588.75,141.3672 Q2588.75,142.6563 2589.8047,143.5156 Q2590.8594,144.375 2592.7344,144.375 Q2593.8477,144.375 2594.6289,144.1211 Q2595.0781,143.9844 2595.5859,143.5352 Q2595.918,143.2813 2596.0938,143.2031 Q2596.2695,143.125 2596.4844,143.125 Q2596.8945,143.125 2597.1875,143.457 Q2597.5,143.7695 2597.5,144.2188 Q2597.5,144.6484 2597.0703,145.1563 Q2596.4453,145.8984 2595.4492,146.3086 Q2594.1406,146.875 2592.5391,146.875 Q2590.6641,146.875 2589.1602,146.1328 Q2587.9492,145.5469 2587.0898,144.2773 Q2586.25,143.0078 2586.25,141.5039 L2586.25,140.1367 Q2586.25,138.5742 2586.9922,137.207 Q2587.7539,135.8398 2589.0625,135.1172 Q2590.3906,134.375 2591.875,134.375 Q2592.7734,134.375 2593.5547,134.6875 Q2594.3359,135 2595,135.625 Z " fill="#000000"/><text fill="#000000" font-family="sans-serif" font-size="15" lengthAdjust="spacing" textLength="133.75" x="2610" y="146.1377">ParameterCategory</text><line style="stroke:#A80036;stroke-width:1.875;" x1="2575" x2="2746.25" y1="160" y2="160"/><text fill="#000000" font-family="sans-serif" font-size="13.75" lengthAdjust="spacing" textLength="37.5" x="2581.25" y="179.2737">-name</text><text fill="#000000" font-family="sans-serif" font-size="13.75" lengthAdjust="spacing" textLength="35" x="2581.25" y="196.5686">-code</text><line style="stroke:#A80036;stroke-width:1.875;" x1="2575" x2="2746.25" y1="204.5898" y2="204.5898"/><!--MD5=[02e4b9b7573f1156f41e60aa5b4e25a4]
class Company--><rect codeLine="30" fill="#FEFECE" filter="url(#f15tvyxw4b6igo)" height="111.8848" id="Company" style="stroke:#A80036;stroke-width:1.875;" width="200" x="826.25" y="187.5"/><ellipse cx="887.8125" cy="207.5" fill="#ADD1B2" rx="13.75" ry="13.75" style="stroke:#A80036;stroke-width:1.25;"/><path d="M890.3125,203.125 Q890.5664,202.5 890.8594,202.1875 Q891.1523,201.875 891.4844,201.875 Q892.0703,201.875 892.4414,202.2266 Q892.8125,202.5781 892.8125,203.3984 L892.8125,205.3516 Q892.8125,206.1719 892.4609,206.5234 Q892.1094,206.875 891.5625,206.875 Q891.0742,206.875 890.7617,206.6602 Q890.4492,206.4453 890.3125,205.8789 Q890.2539,205.4883 890.0391,205.2734 Q889.6484,204.8633 888.9453,204.6289 Q888.2422,204.375 887.5391,204.375 Q886.6602,204.375 885.918,204.7266 Q885.1953,205.0781 884.6289,205.8594 Q884.0625,206.6406 884.0625,207.7148 L884.0625,208.8672 Q884.0625,210.1563 885.1172,211.0156 Q886.1719,211.875 888.0469,211.875 Q889.1602,211.875 889.9414,211.6211 Q890.3906,211.4844 890.8984,211.0352 Q891.2305,210.7813 891.4063,210.7031 Q891.582,210.625 891.7969,210.625 Q892.207,210.625 892.5,210.957 Q892.8125,211.2695 892.8125,211.7188 Q892.8125,212.1484 892.3828,212.6563 Q891.7578,213.3984 890.7617,213.8086 Q889.4531,214.375 887.8516,214.375 Q885.9766,214.375 884.4727,213.6328 Q883.2617,213.0469 882.4023,211.7773 Q881.5625,210.5078 881.5625,209.0039 L881.5625,207.6367 Q881.5625,206.0742 882.3047,204.707 Q883.0664,203.3398 884.375,202.6172 Q885.7031,201.875 887.1875,201.875 Q888.0859,201.875 888.8672,202.1875 Q889.6484,202.5 890.3125,203.125 Z " fill="#000000"/><text fill="#000000" font-family="sans-serif" font-size="15" lengthAdjust="spacing" textLength="66.25" x="913.4375" y="213.6377">Company</text><line style="stroke:#A80036;stroke-width:1.875;" x1="827.5" x2="1025" y1="227.5" y2="227.5"/><text fill="#000000" font-family="sans-serif" font-size="13.75" lengthAdjust="spacing" textLength="120" x="833.75" y="246.7737">-designation : String</text><line style="stroke:#A80036;stroke-width:1.875;" x1="827.5" x2="1025" y1="254.7949" y2="254.7949"/><text fill="#000000" font-family="sans-serif" font-size="13.75" lengthAdjust="spacing" textLength="125" x="833.75" y="274.0686">+getTestTypeStore()</text><text fill="#000000" font-family="sans-serif" font-size="13.75" lengthAdjust="spacing" textLength="185" x="833.75" y="291.3635">+getParameterCategoryStore()</text><!--MD5=[6ba72ddf03822b91e8d41ca71de58ed3]
class TestTypeStore--><rect codeLine="36" fill="#FEFECE" filter="url(#f15tvyxw4b6igo)" height="111.8848" id="TestTypeStore" style="stroke:#A80036;stroke-width:1.875;" width="501.25" x="1155" y="365"/><ellipse cx="1350.9375" cy="385" fill="#ADD1B2" rx="13.75" ry="13.75" style="stroke:#A80036;stroke-width:1.25;"/><path d="M1353.4375,380.625 Q1353.6914,380 1353.9844,379.6875 Q1354.2773,379.375 1354.6094,379.375 Q1355.1953,379.375 1355.5664,379.7266 Q1355.9375,380.0781 1355.9375,380.8984 L1355.9375,382.8516 Q1355.9375,383.6719 1355.5859,384.0234 Q1355.2344,384.375 1354.6875,384.375 Q1354.1992,384.375 1353.8867,384.1602 Q1353.5742,383.9453 1353.4375,383.3789 Q1353.3789,382.9883 1353.1641,382.7734 Q1352.7734,382.3633 1352.0703,382.1289 Q1351.3672,381.875 1350.6641,381.875 Q1349.7852,381.875 1349.043,382.2266 Q1348.3203,382.5781 1347.7539,383.3594 Q1347.1875,384.1406 1347.1875,385.2148 L1347.1875,386.3672 Q1347.1875,387.6563 1348.2422,388.5156 Q1349.2969,389.375 1351.1719,389.375 Q1352.2852,389.375 1353.0664,389.1211 Q1353.5156,388.9844 1354.0234,388.5352 Q1354.3555,388.2813 1354.5313,388.2031 Q1354.707,388.125 1354.9219,388.125 Q1355.332,388.125 1355.625,388.457 Q1355.9375,388.7695 1355.9375,389.2188 Q1355.9375,389.6484 1355.5078,390.1563 Q1354.8828,390.8984 1353.8867,391.3086 Q1352.5781,391.875 1350.9766,391.875 Q1349.1016,391.875 1347.5977,391.1328 Q1346.3867,390.5469 1345.5273,389.2773 Q1344.6875,388.0078 1344.6875,386.5039 L1344.6875,385.1367 Q1344.6875,383.5742 1345.4297,382.207 Q1346.1914,380.8398 1347.5,380.1172 Q1348.8281,379.375 1350.3125,379.375 Q1351.2109,379.375 1351.9922,379.6875 Q1352.7734,380 1353.4375,380.625 Z " fill="#000000"/><text fill="#000000" font-family="sans-serif" font-size="15" lengthAdjust="spacing" textLength="98.75" x="1376.5625" y="391.1377">TestTypeStore</text><line style="stroke:#A80036;stroke-width:1.875;" x1="1156.25" x2="1655" y1="405" y2="405"/><line style="stroke:#A80036;stroke-width:1.875;" x1="1156.25" x2="1655" y1="415" y2="415"/><text fill="#000000" font-family="sans-serif" font-size="13.75" lengthAdjust="spacing" textLength="486.25" x="1162.5" y="434.2737">+createTestType(code, description, collectingMethod, selectedCategoriesCodes)</text><text fill="#000000" font-family="sans-serif" font-size="13.75" lengthAdjust="spacing" textLength="127.5" x="1162.5" y="451.5686">+validateTestType(tt)</text><text fill="#000000" font-family="sans-serif" font-size="13.75" lengthAdjust="spacing" textLength="111.25" x="1162.5" y="468.8635">+saveTestType(tt)</text><!--MD5=[69134a8957932d955e1f822b15ec4b1c]
link CreateTestTypeUI to CreateTestTypeController--><path codeLine="43" d="M172.625,243.75 C193.6375,243.75 217.4375,243.75 242.3625,243.75 " fill="none" id="CreateTestTypeUI-to-CreateTestTypeController" style="stroke:#A80036;stroke-width:1.25;stroke-dasharray:7.0,7.0;"/><polygon fill="#A80036" points="248.725,243.75,237.475,238.75,242.475,243.75,237.475,248.75,248.725,243.75" style="stroke:#A80036;stroke-width:1.25;"/><!--MD5=[812ef8251b528d1a64980212cceda9f5]
link CreateTestTypeController to Company--><path codeLine="44" d="M750.55,243.75 C774.6875,243.75 798.15,243.75 819.6375,243.75 " fill="none" id="CreateTestTypeController-to-Company" style="stroke:#A80036;stroke-width:1.25;stroke-dasharray:7.0,7.0;"/><polygon fill="#A80036" points="826.2375,243.75,814.9875,238.75,819.9875,243.75,814.9875,248.75,826.2375,243.75" style="stroke:#A80036;stroke-width:1.25;"/><!--MD5=[f4bf28669fe4ba1101395c8fda9b28f2]
link CreateTestTypeController to ParameterCategoryStore--><path codeLine="45" d="M729.475,187.5 C761.925,179.7875 794.9125,172.0875 826.25,165 C931.4625,141.2125 957.5625,133.95 1063.75,115 C1108.3375,107.0375 1156.375,99.4125 1201.9,92.625 " fill="none" id="CreateTestTypeController-to-ParameterCategoryStore" style="stroke:#A80036;stroke-width:1.25;stroke-dasharray:7.0,7.0;"/><polygon fill="#A80036" points="1208.6,91.625,1196.7425,88.314,1202.4164,92.5338,1198.1966,98.2077,1208.6,91.625" style="stroke:#A80036;stroke-width:1.25;"/><!--MD5=[97f86ea091f10acfb6befc2251259947]
link CreateTestTypeController to TestTypeStore--><path codeLine="46" d="M699.25,300.0375 C806.4625,328.675 941.525,361.925 1063.75,383.75 C1090.975,388.6125 1119.5375,392.9375 1148.075,396.775 " fill="none" id="CreateTestTypeController-to-TestTypeStore" style="stroke:#A80036;stroke-width:1.25;stroke-dasharray:7.0,7.0;"/><polygon fill="#A80036" points="1154.5375,397.6375,1144.0421,391.2024,1148.3417,396.8162,1142.728,401.1157,1154.5375,397.6375" style="stroke:#A80036;stroke-width:1.25;"/><!--MD5=[3eebf0e5f359806b77b30e9524c37676]
link TestTypeStore to TestType--><path codeLine="47" d="M1656.8,403.9625 C1724.3875,393.7875 1796.4,377.7375 1860,352.5 C1929.125,325.0625 1997.925,276.9 2048.4375,236.5875 " fill="none" id="TestTypeStore-to-TestType" style="stroke:#A80036;stroke-width:1.25;stroke-dasharray:7.0,7.0;"/><polygon fill="#A80036" points="2053.8875,232.2125,2041.9834,235.3519,2049.0123,236.1234,2048.2408,243.1522,2053.8875,232.2125" style="stroke:#A80036;stroke-width:1.25;"/><!--MD5=[d6274e3b73b5bc8f467c6cfbf5bf003e]
link ParameterCategoryStore to ParameterCategory--><path codeLine="48" d="M1602.525,53.3875 C1796.075,45.4125 2100.175,42.3125 2360,81.25 C2431.1125,91.9125 2509.0875,114.75 2567.6375,134.2625 " fill="none" id="ParameterCategoryStore-to-ParameterCategory" style="stroke:#A80036;stroke-width:1.25;stroke-dasharray:7.0,7.0;"/><polygon fill="#A80036" points="2573.6,136.25,2564.5235,127.9326,2567.6743,134.2628,2561.344,137.4137,2573.6,136.25" style="stroke:#A80036;stroke-width:1.25;"/><!--MD5=[d53d7490e5836ca5709858d7326f212b]
link Company to ParameterCategoryStore--><path codeLine="49" d="M1018.3125,187.3 C1033.1875,179.2125 1048.6875,171.4625 1063.75,165 C1109.5,145.4 1160.275,128.2125 1208.35,113.875 " fill="none" id="Company-ParameterCategoryStore" style="stroke:#A80036;stroke-width:1.25;"/><polygon fill="#000000" points="1075.83,134.2172,1063.9594,134.8653,1066.6075,141.7188,1075.83,134.2172" style="stroke:#000000;stroke-width:1.25;"/><text fill="#000000" font-family="sans-serif" font-size="16.25" lengthAdjust="spacing" textLength="35" x="1081.25" y="143.1189">uses</text><text fill="#000000" font-family="sans-serif" font-size="16.25" lengthAdjust="spacing" textLength="8.75" x="1022.9896" y="174.0745">1</text><text fill="#000000" font-family="sans-serif" font-size="16.25" lengthAdjust="spacing" textLength="8.75" x="1189.8326" y="133.6212">1</text><!--MD5=[141c3afa12b2b3c0a39ffce56dbd5f19]
link Company to TestTypeStore--><path codeLine="50" d="M984.6,300.1625 C1007.525,319.8875 1035.25,340.425 1063.75,353.75 C1092.2875,367.0875 1123.3625,377.8 1154.75,386.4 " fill="none" id="Company-TestTypeStore" style="stroke:#A80036;stroke-width:1.25;"/><polygon fill="#000000" points="1075.5749,345.5452,1067.1506,337.157,1063.8291,343.7107,1075.5749,345.5452" style="stroke:#000000;stroke-width:1.25;"/><text fill="#000000" font-family="sans-serif" font-size="16.25" lengthAdjust="spacing" textLength="35" x="1081.25" y="349.3689">uses</text><text fill="#000000" font-family="sans-serif" font-size="16.25" lengthAdjust="spacing" textLength="8.75" x="983.4402" y="326.4448">1</text><text fill="#000000" font-family="sans-serif" font-size="16.25" lengthAdjust="spacing" textLength="8.75" x="1136.0293" y="402.3188">1</text><!--MD5=[8aaf0efd5e2f3824be7ea3e488dcc283]
link TestType to ParameterCategory--><path codeLine="51" d="M2360.2625,167.5 C2435.9625,167.5 2515.4875,167.5 2573.5,167.5 " fill="none" id="TestType-ParameterCategory" style="stroke:#A80036;stroke-width:1.25;"/><polygon fill="#000000" points="2410,156.4697,2398.6936,152.7961,2398.6936,160.1434,2410,156.4697" style="stroke:#000000;stroke-width:1.25;"/><text fill="#000000" font-family="sans-serif" font-size="16.25" lengthAdjust="spacing" textLength="120" x="2415" y="163.1189">characterized by</text><text fill="#000000" font-family="sans-serif" font-size="16.25" lengthAdjust="spacing" textLength="8.75" x="2370.214" y="184.791">1</text><text fill="#000000" font-family="sans-serif" font-size="16.25" lengthAdjust="spacing" textLength="25" x="2538.6932" y="185.3951">1..*</text><!--MD5=[742a261f27a3dcd734c626287d811acd]
link Company to TestType--><path codeLine="52" d="M1026.725,237.45 C1216.2375,225.4 1634.2125,198.85 1897.1,182.1375 " fill="none" id="Company-TestType" style="stroke:#A80036;stroke-width:1.25;"/><polygon fill="#000000" points="1375.6124,187.3233,1364.0958,184.3742,1364.5618,191.7067,1375.6124,187.3233" style="stroke:#000000;stroke-width:1.25;"/><text fill="#000000" font-family="sans-serif" font-size="16.25" lengthAdjust="spacing" textLength="66.25" x="1380.625" y="194.3689">conducts</text><text fill="#000000" font-family="sans-serif" font-size="16.25" lengthAdjust="spacing" textLength="8.75" x="1036.3909" y="254.7086">1</text><text fill="#000000" font-family="sans-serif" font-size="16.25" lengthAdjust="spacing" textLength="6.25" x="1880.9454" y="200.046">*</text><!--MD5=[93b4f25fb503a8e0e9a46b1d30ff3f44]
link Company to ParameterCategory--><path codeLine="53" d="M1026.2875,254.3625 C1259.7375,277.2625 1863.1625,323.8875 2360,253.75 C2433.6375,243.35 2514.5375,219.2375 2573.6625,199.15 " fill="none" id="Company-ParameterCategory" style="stroke:#A80036;stroke-width:1.25;"/><polygon fill="#000000" points="1706.246,279.9969,1694.8159,276.7287,1695.0779,284.0714,1706.246,279.9969" style="stroke:#000000;stroke-width:1.25;"/><text fill="#000000" font-family="sans-serif" font-size="16.25" lengthAdjust="spacing" textLength="147.5" x="1711.25" y="286.8689">capable of analysing</text><text fill="#000000" font-family="sans-serif" font-size="16.25" lengthAdjust="spacing" textLength="8.75" x="1036.2393" y="273.2463">1</text><text fill="#000000" font-family="sans-serif" font-size="16.25" lengthAdjust="spacing" textLength="6.25" x="2557.5592" y="220.6208">*</text><!--MD5=[3a4188a8753429972971d5eeb690d18b]
@startuml
skinparam classAttributeIconSize 0
left to right direction
class CreateTestTypeUI{
}

class CreateTestTypeController{
+createTestType(code, description, collectingMethod, selectedCategoriesCodes)
+saveTestType(tt)
+getCategories()
}

class TestType {
- code : String
- description : String
- collectingMethod : String
+TestType(code, description, collectingMethod, selectedCategoriesCodes)
}

class ParameterCategoryStore {
+getParameterCategoriesStore()
+getCategoriesByCode(List<String> parameterCategoryCodes)
+getCategoryByCode(String code)
}

class ParameterCategory{
- name
- code
}

class Company {
-designation : String
+getTestTypeStore()
+getParameterCategoryStore()
}

class TestTypeStore {
+createTestType(code, description, collectingMethod, selectedCategoriesCodes)
+validateTestType(tt)
+saveTestType(tt)
}


CreateTestTypeUI ..> CreateTestTypeController
CreateTestTypeController ..> Company
CreateTestTypeController ..> ParameterCategoryStore
CreateTestTypeController ..> TestTypeStore
TestTypeStore ..> TestType
ParameterCategoryStore ..> ParameterCategory
Company "1" - - "1" ParameterCategoryStore : uses >
Company "1" - - "1" TestTypeStore : uses >
TestType "1" - - "1..*" ParameterCategory : characterized by >
Company "1" - - "*" TestType : conducts >
Company "1" - - "*" ParameterCategory : capable of analysing >





@enduml

PlantUML version 1.2021.00(Sun Jan 10 10:25:05 GMT 2021)
(GPL source distribution)
Java Runtime: OpenJDK Runtime Environment
JVM: OpenJDK 64-Bit Server VM
Default Encoding: Cp1252
Language: pt
Country: BR
--></g></svg>