<?xml version="1.0" encoding="UTF-8" standalone="no"?><svg xmlns="http://www.w3.org/2000/svg" xmlns:xlink="http://www.w3.org/1999/xlink" contentScriptType="application/ecmascript" contentStyleType="text/css" height="1292px" preserveAspectRatio="none" style="width:760px;height:1292px;" version="1.1" viewBox="0 0 760 1292" width="760px" zoomAndPan="magnify"><defs><filter height="300%" id="f1tc4cvye7jixi" width="300%" x="-1" y="-1"><feGaussianBlur result="blurOut" stdDeviation="2.0"/><feColorMatrix in="blurOut" result="blurOut2" type="matrix" values="0 0 0 0 0 0 0 0 0 0 0 0 0 0 0 0 0 0 .4 0"/><feOffset dx="4.0" dy="4.0" in="blurOut2" result="blurOut3"/><feBlend in="SourceGraphic" in2="blurOut3" mode="normal"/></filter></defs><g><!--MD5=[02e4b9b7573f1156f41e60aa5b4e25a4]
class Company--><rect codeLine="6" fill="#FEFECE" filter="url(#f1tc4cvye7jixi)" height="150.6875" id="Company" style="stroke:#A80036;stroke-width:1.5;" width="150" x="500" y="7"/><ellipse cx="544.25" cy="23" fill="#ADD1B2" rx="11" ry="11" style="stroke:#A80036;stroke-width:1.0;"/><path d="M546.25,19.5 Q546.4531,19 546.6875,18.75 Q546.9219,18.5 547.1875,18.5 Q547.6563,18.5 547.9531,18.7813 Q548.25,19.0625 548.25,19.7188 L548.25,21.2813 Q548.25,21.9375 547.9688,22.2188 Q547.6875,22.5 547.25,22.5 Q546.8594,22.5 546.6094,22.3281 Q546.3594,22.1563 546.25,21.7031 Q546.2031,21.3906 546.0313,21.2188 Q545.7188,20.8906 545.1563,20.7031 Q544.5938,20.5 544.0313,20.5 Q543.3281,20.5 542.7344,20.7813 Q542.1563,21.0625 541.7031,21.6875 Q541.25,22.3125 541.25,23.1719 L541.25,24.0938 Q541.25,25.125 542.0938,25.8125 Q542.9375,26.5 544.4375,26.5 Q545.3281,26.5 545.9531,26.2969 Q546.3125,26.1875 546.7188,25.8281 Q546.9844,25.625 547.125,25.5625 Q547.2656,25.5 547.4375,25.5 Q547.7656,25.5 548,25.7656 Q548.25,26.0156 548.25,26.375 Q548.25,26.7188 547.9063,27.125 Q547.4063,27.7188 546.6094,28.0469 Q545.5625,28.5 544.2813,28.5 Q542.7813,28.5 541.5781,27.9063 Q540.6094,27.4375 539.9219,26.4219 Q539.25,25.4063 539.25,24.2031 L539.25,23.1094 Q539.25,21.8594 539.8438,20.7656 Q540.4531,19.6719 541.5,19.0938 Q542.5625,18.5 543.75,18.5 Q544.4688,18.5 545.0938,18.75 Q545.7188,19 546.25,19.5 Z " fill="#000000"/><text fill="#000000" font-family="sans-serif" font-size="12" lengthAdjust="spacing" textLength="53" x="564.75" y="27.9102">Company</text><line style="stroke:#A80036;stroke-width:1.5;" x1="501" x2="649" y1="39" y2="39"/><text fill="#000000" font-family="sans-serif" font-size="11" lengthAdjust="spacing" textLength="59" x="506" y="54.4189">-designation</text><text fill="#000000" font-family="sans-serif" font-size="11" lengthAdjust="spacing" textLength="130" x="506" y="68.2549">-classNameForBarcodeApi</text><text fill="#000000" font-family="sans-serif" font-size="11" lengthAdjust="spacing" textLength="138" x="506" y="82.0908">-classNameForSortAlgorithm</text><text fill="#000000" font-family="sans-serif" font-size="11" lengthAdjust="spacing" textLength="115" x="506" y="95.9268">-regressionModelCLass</text><text fill="#000000" font-family="sans-serif" font-size="11" lengthAdjust="spacing" textLength="60" x="506" y="109.7627">-dateInterval</text><text fill="#000000" font-family="sans-serif" font-size="11" lengthAdjust="spacing" textLength="76" x="506" y="123.5986">-historicalPoints</text><text fill="#000000" font-family="sans-serif" font-size="11" lengthAdjust="spacing" textLength="84" x="506" y="137.4346">-confidenceLevel</text><text fill="#000000" font-family="sans-serif" font-size="11" lengthAdjust="spacing" textLength="88" x="506" y="151.2705">-significanceLevel</text><!--MD5=[1b844c90688aafb95cd8c95626c3b83a]
class Timer--><rect codeLine="17" fill="#FEFECE" filter="url(#f1tc4cvye7jixi)" height="32" id="Timer" style="stroke:#A80036;stroke-width:1.5;" width="64" x="543" y="236"/><ellipse cx="558" cy="252" fill="#ADD1B2" rx="11" ry="11" style="stroke:#A80036;stroke-width:1.0;"/><path d="M560,248.5 Q560.2031,248 560.4375,247.75 Q560.6719,247.5 560.9375,247.5 Q561.4063,247.5 561.7031,247.7813 Q562,248.0625 562,248.7188 L562,250.2813 Q562,250.9375 561.7188,251.2188 Q561.4375,251.5 561,251.5 Q560.6094,251.5 560.3594,251.3281 Q560.1094,251.1563 560,250.7031 Q559.9531,250.3906 559.7813,250.2188 Q559.4688,249.8906 558.9063,249.7031 Q558.3438,249.5 557.7813,249.5 Q557.0781,249.5 556.4844,249.7813 Q555.9063,250.0625 555.4531,250.6875 Q555,251.3125 555,252.1719 L555,253.0938 Q555,254.125 555.8438,254.8125 Q556.6875,255.5 558.1875,255.5 Q559.0781,255.5 559.7031,255.2969 Q560.0625,255.1875 560.4688,254.8281 Q560.7344,254.625 560.875,254.5625 Q561.0156,254.5 561.1875,254.5 Q561.5156,254.5 561.75,254.7656 Q562,255.0156 562,255.375 Q562,255.7188 561.6563,256.125 Q561.1563,256.7188 560.3594,257.0469 Q559.3125,257.5 558.0313,257.5 Q556.5313,257.5 555.3281,256.9063 Q554.3594,256.4375 553.6719,255.4219 Q553,254.4063 553,253.2031 L553,252.1094 Q553,250.8594 553.5938,249.7656 Q554.2031,248.6719 555.25,248.0938 Q556.3125,247.5 557.5,247.5 Q558.2188,247.5 558.8438,247.75 Q559.4688,248 560,248.5 Z " fill="#000000"/><text fill="#000000" font-family="sans-serif" font-size="12" lengthAdjust="spacing" textLength="32" x="572" y="256.9102">Timer</text><!--MD5=[db86e106e83ea9efd94d1461be461932]
class NhsAPI--><rect codeLine="19" fill="#FEFECE" filter="url(#f1tc4cvye7jixi)" height="32" id="NhsAPI" style="stroke:#A80036;stroke-width:1.5;" width="73" x="503.5" y="533"/><ellipse cx="518.5" cy="549" fill="#ADD1B2" rx="11" ry="11" style="stroke:#A80036;stroke-width:1.0;"/><path d="M520.5,545.5 Q520.7031,545 520.9375,544.75 Q521.1719,544.5 521.4375,544.5 Q521.9063,544.5 522.2031,544.7813 Q522.5,545.0625 522.5,545.7188 L522.5,547.2813 Q522.5,547.9375 522.2188,548.2188 Q521.9375,548.5 521.5,548.5 Q521.1094,548.5 520.8594,548.3281 Q520.6094,548.1563 520.5,547.7031 Q520.4531,547.3906 520.2813,547.2188 Q519.9688,546.8906 519.4063,546.7031 Q518.8438,546.5 518.2813,546.5 Q517.5781,546.5 516.9844,546.7813 Q516.4063,547.0625 515.9531,547.6875 Q515.5,548.3125 515.5,549.1719 L515.5,550.0938 Q515.5,551.125 516.3438,551.8125 Q517.1875,552.5 518.6875,552.5 Q519.5781,552.5 520.2031,552.2969 Q520.5625,552.1875 520.9688,551.8281 Q521.2344,551.625 521.375,551.5625 Q521.5156,551.5 521.6875,551.5 Q522.0156,551.5 522.25,551.7656 Q522.5,552.0156 522.5,552.375 Q522.5,552.7188 522.1563,553.125 Q521.6563,553.7188 520.8594,554.0469 Q519.8125,554.5 518.5313,554.5 Q517.0313,554.5 515.8281,553.9063 Q514.8594,553.4375 514.1719,552.4219 Q513.5,551.4063 513.5,550.2031 L513.5,549.1094 Q513.5,547.8594 514.0938,546.7656 Q514.7031,545.6719 515.75,545.0938 Q516.8125,544.5 518,544.5 Q518.7188,544.5 519.3438,544.75 Q519.9688,545 520.5,545.5 Z " fill="#000000"/><text fill="#000000" font-family="sans-serif" font-size="12" lengthAdjust="spacing" textLength="41" x="532.5" y="553.9102">NhsAPI</text><!--MD5=[74783ec010d186752c4ffd5c6de5633a]
class NHSReport--><rect codeLine="21" fill="#FEFECE" filter="url(#f1tc4cvye7jixi)" height="32" id="NHSReport" style="stroke:#A80036;stroke-width:1.5;" width="95" x="315.5" y="533"/><ellipse cx="330.5" cy="549" fill="#ADD1B2" rx="11" ry="11" style="stroke:#A80036;stroke-width:1.0;"/><path d="M332.5,545.5 Q332.7031,545 332.9375,544.75 Q333.1719,544.5 333.4375,544.5 Q333.9063,544.5 334.2031,544.7813 Q334.5,545.0625 334.5,545.7188 L334.5,547.2813 Q334.5,547.9375 334.2188,548.2188 Q333.9375,548.5 333.5,548.5 Q333.1094,548.5 332.8594,548.3281 Q332.6094,548.1563 332.5,547.7031 Q332.4531,547.3906 332.2813,547.2188 Q331.9688,546.8906 331.4063,546.7031 Q330.8438,546.5 330.2813,546.5 Q329.5781,546.5 328.9844,546.7813 Q328.4063,547.0625 327.9531,547.6875 Q327.5,548.3125 327.5,549.1719 L327.5,550.0938 Q327.5,551.125 328.3438,551.8125 Q329.1875,552.5 330.6875,552.5 Q331.5781,552.5 332.2031,552.2969 Q332.5625,552.1875 332.9688,551.8281 Q333.2344,551.625 333.375,551.5625 Q333.5156,551.5 333.6875,551.5 Q334.0156,551.5 334.25,551.7656 Q334.5,552.0156 334.5,552.375 Q334.5,552.7188 334.1563,553.125 Q333.6563,553.7188 332.8594,554.0469 Q331.8125,554.5 330.5313,554.5 Q329.0313,554.5 327.8281,553.9063 Q326.8594,553.4375 326.1719,552.4219 Q325.5,551.4063 325.5,550.2031 L325.5,549.1094 Q325.5,547.8594 326.0938,546.7656 Q326.7031,545.6719 327.75,545.0938 Q328.8125,544.5 330,544.5 Q330.7188,544.5 331.3438,544.75 Q331.9688,545 332.5,545.5 Z " fill="#000000"/><text fill="#000000" font-family="sans-serif" font-size="12" lengthAdjust="spacing" textLength="63" x="344.5" y="553.9102">NHSReport</text><!--MD5=[f9bf174dd5fcee0192f6251129b9c376]
class RegressionModel--><rect codeLine="23" fill="#FEFECE" filter="url(#f1tc4cvye7jixi)" height="136.8516" id="RegressionModel" style="stroke:#A80036;stroke-width:1.5;" width="130" x="340" y="1142"/><ellipse cx="355" cy="1158" fill="#ADD1B2" rx="11" ry="11" style="stroke:#A80036;stroke-width:1.0;"/><path d="M357,1154.5 Q357.2031,1154 357.4375,1153.75 Q357.6719,1153.5 357.9375,1153.5 Q358.4063,1153.5 358.7031,1153.7813 Q359,1154.0625 359,1154.7188 L359,1156.2813 Q359,1156.9375 358.7188,1157.2188 Q358.4375,1157.5 358,1157.5 Q357.6094,1157.5 357.3594,1157.3281 Q357.1094,1157.1563 357,1156.7031 Q356.9531,1156.3906 356.7813,1156.2188 Q356.4688,1155.8906 355.9063,1155.7031 Q355.3438,1155.5 354.7813,1155.5 Q354.0781,1155.5 353.4844,1155.7813 Q352.9063,1156.0625 352.4531,1156.6875 Q352,1157.3125 352,1158.1719 L352,1159.0938 Q352,1160.125 352.8438,1160.8125 Q353.6875,1161.5 355.1875,1161.5 Q356.0781,1161.5 356.7031,1161.2969 Q357.0625,1161.1875 357.4688,1160.8281 Q357.7344,1160.625 357.875,1160.5625 Q358.0156,1160.5 358.1875,1160.5 Q358.5156,1160.5 358.75,1160.7656 Q359,1161.0156 359,1161.375 Q359,1161.7188 358.6563,1162.125 Q358.1563,1162.7188 357.3594,1163.0469 Q356.3125,1163.5 355.0313,1163.5 Q353.5313,1163.5 352.3281,1162.9063 Q351.3594,1162.4375 350.6719,1161.4219 Q350,1160.4063 350,1159.2031 L350,1158.1094 Q350,1156.8594 350.5938,1155.7656 Q351.2031,1154.6719 352.25,1154.0938 Q353.3125,1153.5 354.5,1153.5 Q355.2188,1153.5 355.8438,1153.75 Q356.4688,1154 357,1154.5 Z " fill="#000000"/><text fill="#000000" font-family="sans-serif" font-size="12" lengthAdjust="spacing" textLength="98" x="369" y="1162.9102">RegressionModel</text><line style="stroke:#A80036;stroke-width:1.5;" x1="341" x2="469" y1="1174" y2="1174"/><text fill="#000000" font-family="sans-serif" font-size="11" lengthAdjust="spacing" textLength="46" x="346" y="1189.4189">-intercept</text><text fill="#000000" font-family="sans-serif" font-size="11" lengthAdjust="spacing" textLength="30" x="346" y="1203.2549">-slope</text><text fill="#000000" font-family="sans-serif" font-size="11" lengthAdjust="spacing" textLength="94" x="346" y="1217.0908">-secondIndVariable</text><text fill="#000000" font-family="sans-serif" font-size="11" lengthAdjust="spacing" textLength="8" x="346" y="1230.9268">-r</text><text fill="#000000" font-family="sans-serif" font-size="11" lengthAdjust="spacing" textLength="14" x="346" y="1244.7627">-r2</text><text fill="#000000" font-family="sans-serif" font-size="11" lengthAdjust="spacing" textLength="57" x="346" y="1258.5986">-r2Adjusted</text><text fill="#000000" font-family="sans-serif" font-size="11" lengthAdjust="spacing" textLength="117" x="346" y="1272.4346">-numberOfObservations</text><!--MD5=[dfe7672a7c242e7ff03cfd775649b5cb]
class HypothesisTest--><rect codeLine="42" fill="#FEFECE" filter="url(#f1tc4cvye7jixi)" height="164.5234" id="HypothesisTest" style="stroke:#A80036;stroke-width:1.5;" width="170" x="7" y="899"/><ellipse cx="45.4" cy="915" fill="#ADD1B2" rx="11" ry="11" style="stroke:#A80036;stroke-width:1.0;"/><path d="M47.4,911.5 Q47.6031,911 47.8375,910.75 Q48.0719,910.5 48.3375,910.5 Q48.8063,910.5 49.1031,910.7813 Q49.4,911.0625 49.4,911.7188 L49.4,913.2813 Q49.4,913.9375 49.1188,914.2188 Q48.8375,914.5 48.4,914.5 Q48.0094,914.5 47.7594,914.3281 Q47.5094,914.1563 47.4,913.7031 Q47.3531,913.3906 47.1813,913.2188 Q46.8688,912.8906 46.3063,912.7031 Q45.7438,912.5 45.1813,912.5 Q44.4781,912.5 43.8844,912.7813 Q43.3063,913.0625 42.8531,913.6875 Q42.4,914.3125 42.4,915.1719 L42.4,916.0938 Q42.4,917.125 43.2438,917.8125 Q44.0875,918.5 45.5875,918.5 Q46.4781,918.5 47.1031,918.2969 Q47.4625,918.1875 47.8688,917.8281 Q48.1344,917.625 48.275,917.5625 Q48.4156,917.5 48.5875,917.5 Q48.9156,917.5 49.15,917.7656 Q49.4,918.0156 49.4,918.375 Q49.4,918.7188 49.0563,919.125 Q48.5563,919.7188 47.7594,920.0469 Q46.7125,920.5 45.4313,920.5 Q43.9313,920.5 42.7281,919.9063 Q41.7594,919.4375 41.0719,918.4219 Q40.4,917.4063 40.4,916.2031 L40.4,915.1094 Q40.4,913.8594 40.9938,912.7656 Q41.6031,911.6719 42.65,911.0938 Q43.7125,910.5 44.9,910.5 Q45.6188,910.5 46.2438,910.75 Q46.8688,911 47.4,911.5 Z " fill="#000000"/><text fill="#000000" font-family="sans-serif" font-size="12" lengthAdjust="spacing" textLength="86" x="64.6" y="919.9102">HypothesisTest</text><line style="stroke:#A80036;stroke-width:1.5;" x1="8" x2="176" y1="931" y2="931"/><text fill="#000000" font-family="sans-serif" font-size="11" lengthAdjust="spacing" textLength="35" x="13" y="946.4189">-tObsA</text><text fill="#000000" font-family="sans-serif" font-size="11" lengthAdjust="spacing" textLength="34" x="13" y="960.2549">-tObsB</text><text fill="#000000" font-family="sans-serif" font-size="11" lengthAdjust="spacing" textLength="34" x="13" y="974.0908">-tObsC</text><text fill="#000000" font-family="sans-serif" font-size="11" lengthAdjust="spacing" textLength="88" x="13" y="987.9268">-significanceLevel</text><text fill="#000000" font-family="sans-serif" font-size="11" lengthAdjust="spacing" textLength="32" x="13" y="1001.7627">-critTD</text><text fill="#000000" font-family="sans-serif" font-size="11" lengthAdjust="spacing" textLength="8" x="13" y="1015.5986">-f</text><text fill="#000000" font-family="sans-serif" font-size="11" lengthAdjust="spacing" textLength="32" x="13" y="1029.4346">-critFD</text><text fill="#000000" font-family="sans-serif" font-size="11" lengthAdjust="spacing" textLength="148" x="13" y="1043.2705">-numeratorDegreesOfFreedom</text><text fill="#000000" font-family="sans-serif" font-size="11" lengthAdjust="spacing" textLength="158" x="13" y="1057.1064">-denominatorDegreesOfFreedom</text><!--MD5=[39ee656b41ae4892150ca74368648c0e]
class SignificanceModelAnova--><rect codeLine="55" fill="#FEFECE" filter="url(#f1tc4cvye7jixi)" height="178.3594" id="SignificanceModelAnova" style="stroke:#A80036;stroke-width:1.5;" width="165" x="178.5" y="643"/><ellipse cx="193.5" cy="659" fill="#ADD1B2" rx="11" ry="11" style="stroke:#A80036;stroke-width:1.0;"/><path d="M195.5,655.5 Q195.7031,655 195.9375,654.75 Q196.1719,654.5 196.4375,654.5 Q196.9063,654.5 197.2031,654.7813 Q197.5,655.0625 197.5,655.7188 L197.5,657.2813 Q197.5,657.9375 197.2188,658.2188 Q196.9375,658.5 196.5,658.5 Q196.1094,658.5 195.8594,658.3281 Q195.6094,658.1563 195.5,657.7031 Q195.4531,657.3906 195.2813,657.2188 Q194.9688,656.8906 194.4063,656.7031 Q193.8438,656.5 193.2813,656.5 Q192.5781,656.5 191.9844,656.7813 Q191.4063,657.0625 190.9531,657.6875 Q190.5,658.3125 190.5,659.1719 L190.5,660.0938 Q190.5,661.125 191.3438,661.8125 Q192.1875,662.5 193.6875,662.5 Q194.5781,662.5 195.2031,662.2969 Q195.5625,662.1875 195.9688,661.8281 Q196.2344,661.625 196.375,661.5625 Q196.5156,661.5 196.6875,661.5 Q197.0156,661.5 197.25,661.7656 Q197.5,662.0156 197.5,662.375 Q197.5,662.7188 197.1563,663.125 Q196.6563,663.7188 195.8594,664.0469 Q194.8125,664.5 193.5313,664.5 Q192.0313,664.5 190.8281,663.9063 Q189.8594,663.4375 189.1719,662.4219 Q188.5,661.4063 188.5,660.2031 L188.5,659.1094 Q188.5,657.8594 189.0938,656.7656 Q189.7031,655.6719 190.75,655.0938 Q191.8125,654.5 193,654.5 Q193.7188,654.5 194.3438,654.75 Q194.9688,655 195.5,655.5 Z " fill="#000000"/><text fill="#000000" font-family="sans-serif" font-size="12" lengthAdjust="spacing" textLength="133" x="207.5" y="663.9102">SignificanceModelAnova</text><line style="stroke:#A80036;stroke-width:1.5;" x1="179.5" x2="342.5" y1="675" y2="675"/><text fill="#000000" font-family="sans-serif" font-size="11" lengthAdjust="spacing" textLength="88" x="184.5" y="690.4189">-significanceLevel</text><text fill="#000000" font-family="sans-serif" font-size="11" lengthAdjust="spacing" textLength="14" x="184.5" y="704.2549">-sr</text><text fill="#000000" font-family="sans-serif" font-size="11" lengthAdjust="spacing" textLength="16" x="184.5" y="718.0908">-se</text><text fill="#000000" font-family="sans-serif" font-size="11" lengthAdjust="spacing" textLength="13" x="184.5" y="731.9268">-st</text><text fill="#000000" font-family="sans-serif" font-size="11" lengthAdjust="spacing" textLength="16" x="184.5" y="745.7627">-mr</text><text fill="#000000" font-family="sans-serif" font-size="11" lengthAdjust="spacing" textLength="18" x="184.5" y="759.5986">-me</text><text fill="#000000" font-family="sans-serif" font-size="11" lengthAdjust="spacing" textLength="8" x="184.5" y="773.4346">-f</text><text fill="#000000" font-family="sans-serif" font-size="11" lengthAdjust="spacing" textLength="75" x="184.5" y="787.2705">-degFreedomSr</text><text fill="#000000" font-family="sans-serif" font-size="11" lengthAdjust="spacing" textLength="77" x="184.5" y="801.1064">-degFreedomSe</text><text fill="#000000" font-family="sans-serif" font-size="11" lengthAdjust="spacing" textLength="74" x="184.5" y="814.9424">-degFreedomSt</text><!--MD5=[2326f07dd74de3a812ad289cd3fa63bf]
class TableOfValues--><rect codeLine="68" fill="#FEFECE" filter="url(#f1tc4cvye7jixi)" height="81.5078" id="TableOfValues" style="stroke:#A80036;stroke-width:1.5;" width="113" x="378.5" y="691"/><ellipse cx="393.5" cy="707" fill="#ADD1B2" rx="11" ry="11" style="stroke:#A80036;stroke-width:1.0;"/><path d="M395.5,703.5 Q395.7031,703 395.9375,702.75 Q396.1719,702.5 396.4375,702.5 Q396.9063,702.5 397.2031,702.7813 Q397.5,703.0625 397.5,703.7188 L397.5,705.2813 Q397.5,705.9375 397.2188,706.2188 Q396.9375,706.5 396.5,706.5 Q396.1094,706.5 395.8594,706.3281 Q395.6094,706.1563 395.5,705.7031 Q395.4531,705.3906 395.2813,705.2188 Q394.9688,704.8906 394.4063,704.7031 Q393.8438,704.5 393.2813,704.5 Q392.5781,704.5 391.9844,704.7813 Q391.4063,705.0625 390.9531,705.6875 Q390.5,706.3125 390.5,707.1719 L390.5,708.0938 Q390.5,709.125 391.3438,709.8125 Q392.1875,710.5 393.6875,710.5 Q394.5781,710.5 395.2031,710.2969 Q395.5625,710.1875 395.9688,709.8281 Q396.2344,709.625 396.375,709.5625 Q396.5156,709.5 396.6875,709.5 Q397.0156,709.5 397.25,709.7656 Q397.5,710.0156 397.5,710.375 Q397.5,710.7188 397.1563,711.125 Q396.6563,711.7188 395.8594,712.0469 Q394.8125,712.5 393.5313,712.5 Q392.0313,712.5 390.8281,711.9063 Q389.8594,711.4375 389.1719,710.4219 Q388.5,709.4063 388.5,708.2031 L388.5,707.1094 Q388.5,705.8594 389.0938,704.7656 Q389.7031,703.6719 390.75,703.0938 Q391.8125,702.5 393,702.5 Q393.7188,702.5 394.3438,702.75 Q394.9688,703 395.5,703.5 Z " fill="#000000"/><text fill="#000000" font-family="sans-serif" font-size="12" lengthAdjust="spacing" textLength="81" x="407.5" y="711.9102">TableOfValues</text><line style="stroke:#A80036;stroke-width:1.5;" x1="379.5" x2="490.5" y1="723" y2="723"/><text fill="#000000" font-family="sans-serif" font-size="11" lengthAdjust="spacing" textLength="31" x="384.5" y="738.4189">-dates</text><text fill="#000000" font-family="sans-serif" font-size="11" lengthAdjust="spacing" textLength="93" x="384.5" y="752.2549">-observedPositives</text><text fill="#000000" font-family="sans-serif" font-size="11" lengthAdjust="spacing" textLength="93" x="384.5" y="766.0908">-estimatedPositives</text><!--MD5=[fe0bb2d390fc5dca74774fa5d2975c11]
class ConfidenceInterval--><rect codeLine="74" fill="#FEFECE" filter="url(#f1tc4cvye7jixi)" height="123.0156" id="ConfidenceInterval" style="stroke:#A80036;stroke-width:1.5;" width="134" x="402" y="920"/><ellipse cx="417" cy="936" fill="#ADD1B2" rx="11" ry="11" style="stroke:#A80036;stroke-width:1.0;"/><path d="M419,932.5 Q419.2031,932 419.4375,931.75 Q419.6719,931.5 419.9375,931.5 Q420.4063,931.5 420.7031,931.7813 Q421,932.0625 421,932.7188 L421,934.2813 Q421,934.9375 420.7188,935.2188 Q420.4375,935.5 420,935.5 Q419.6094,935.5 419.3594,935.3281 Q419.1094,935.1563 419,934.7031 Q418.9531,934.3906 418.7813,934.2188 Q418.4688,933.8906 417.9063,933.7031 Q417.3438,933.5 416.7813,933.5 Q416.0781,933.5 415.4844,933.7813 Q414.9063,934.0625 414.4531,934.6875 Q414,935.3125 414,936.1719 L414,937.0938 Q414,938.125 414.8438,938.8125 Q415.6875,939.5 417.1875,939.5 Q418.0781,939.5 418.7031,939.2969 Q419.0625,939.1875 419.4688,938.8281 Q419.7344,938.625 419.875,938.5625 Q420.0156,938.5 420.1875,938.5 Q420.5156,938.5 420.75,938.7656 Q421,939.0156 421,939.375 Q421,939.7188 420.6563,940.125 Q420.1563,940.7188 419.3594,941.0469 Q418.3125,941.5 417.0313,941.5 Q415.5313,941.5 414.3281,940.9063 Q413.3594,940.4375 412.6719,939.4219 Q412,938.4063 412,937.2031 L412,936.1094 Q412,934.8594 412.5938,933.7656 Q413.2031,932.6719 414.25,932.0938 Q415.3125,931.5 416.5,931.5 Q417.2188,931.5 417.8438,931.75 Q418.4688,932 419,932.5 Z " fill="#000000"/><text fill="#000000" font-family="sans-serif" font-size="12" lengthAdjust="spacing" textLength="102" x="431" y="940.9102">ConfidenceInterval</text><line style="stroke:#A80036;stroke-width:1.5;" x1="403" x2="535" y1="952" y2="952"/><text fill="#000000" font-family="sans-serif" font-size="11" lengthAdjust="spacing" textLength="16" x="408" y="967.4189">-y0</text><text fill="#000000" font-family="sans-serif" font-size="11" lengthAdjust="spacing" textLength="46" x="408" y="981.2549">-auxDelta</text><text fill="#000000" font-family="sans-serif" font-size="11" lengthAdjust="spacing" textLength="84" x="408" y="995.0908">-confidenceLevel</text><text fill="#000000" font-family="sans-serif" font-size="11" lengthAdjust="spacing" textLength="27" x="408" y="1008.9268">-delta</text><text fill="#000000" font-family="sans-serif" font-size="11" lengthAdjust="spacing" textLength="28" x="408" y="1022.7627">-limInf</text><text fill="#000000" font-family="sans-serif" font-size="11" lengthAdjust="spacing" textLength="35" x="408" y="1036.5986">-limSup</text><!--MD5=[679f3b7d58d6042ffd323d827f6737cf]
class NHSReportTask--><rect codeLine="83" fill="#FEFECE" filter="url(#f1tc4cvye7jixi)" height="109.1797" id="NHSReportTask" style="stroke:#A80036;stroke-width:1.5;" width="123" x="438.5" y="346"/><ellipse cx="453.95" cy="362" fill="#ADD1B2" rx="11" ry="11" style="stroke:#A80036;stroke-width:1.0;"/><path d="M455.95,358.5 Q456.1531,358 456.3875,357.75 Q456.6219,357.5 456.8875,357.5 Q457.3563,357.5 457.6531,357.7813 Q457.95,358.0625 457.95,358.7188 L457.95,360.2813 Q457.95,360.9375 457.6688,361.2188 Q457.3875,361.5 456.95,361.5 Q456.5594,361.5 456.3094,361.3281 Q456.0594,361.1563 455.95,360.7031 Q455.9031,360.3906 455.7313,360.2188 Q455.4188,359.8906 454.8563,359.7031 Q454.2938,359.5 453.7313,359.5 Q453.0281,359.5 452.4344,359.7813 Q451.8563,360.0625 451.4031,360.6875 Q450.95,361.3125 450.95,362.1719 L450.95,363.0938 Q450.95,364.125 451.7938,364.8125 Q452.6375,365.5 454.1375,365.5 Q455.0281,365.5 455.6531,365.2969 Q456.0125,365.1875 456.4188,364.8281 Q456.6844,364.625 456.825,364.5625 Q456.9656,364.5 457.1375,364.5 Q457.4656,364.5 457.7,364.7656 Q457.95,365.0156 457.95,365.375 Q457.95,365.7188 457.6063,366.125 Q457.1063,366.7188 456.3094,367.0469 Q455.2625,367.5 453.9813,367.5 Q452.4813,367.5 451.2781,366.9063 Q450.3094,366.4375 449.6219,365.4219 Q448.95,364.4063 448.95,363.2031 L448.95,362.1094 Q448.95,360.8594 449.5438,359.7656 Q450.1531,358.6719 451.2,358.0938 Q452.2625,357.5 453.45,357.5 Q454.1688,357.5 454.7938,357.75 Q455.4188,358 455.95,358.5 Z " fill="#000000"/><text fill="#000000" font-family="sans-serif" font-size="12" lengthAdjust="spacing" textLength="90" x="468.05" y="366.9102">NHSReportTask</text><line style="stroke:#A80036;stroke-width:1.5;" x1="439.5" x2="560.5" y1="378" y2="378"/><text fill="#000000" font-family="sans-serif" font-size="11" lengthAdjust="spacing" textLength="111" x="444.5" y="393.4189">-regressionModelClass</text><text fill="#000000" font-family="sans-serif" font-size="11" lengthAdjust="spacing" textLength="76" x="444.5" y="407.2549">-historicalPoints</text><text fill="#000000" font-family="sans-serif" font-size="11" lengthAdjust="spacing" textLength="88" x="444.5" y="421.0908">-significanceLevel</text><text fill="#000000" font-family="sans-serif" font-size="11" lengthAdjust="spacing" textLength="84" x="444.5" y="434.9268">-confidenceLevel</text><text fill="#000000" font-family="sans-serif" font-size="11" lengthAdjust="spacing" textLength="60" x="444.5" y="448.7627">-dateInterval</text><!--MD5=[4e966c963453e3c35798fd39e036e3d7]
link NHSReportTask to NHSReport--><path codeLine="91" d="M449.76,455.22 C423.95,482.82 394.41,514.41 377.31,532.7 " fill="none" id="NHSReportTask-NHSReport" style="stroke:#A80036;stroke-width:1.0;"/><polygon fill="#000000" points="421.585,497.8279,429.9094,493.2285,425.6161,489.2139,421.585,497.8279" style="stroke:#000000;stroke-width:1.0;"/><text fill="#000000" font-family="sans-serif" font-size="13" lengthAdjust="spacing" textLength="40" x="434" y="499.4951">reports</text><text fill="#000000" font-family="sans-serif" font-size="13" lengthAdjust="spacing" textLength="7" x="435.8746" y="476.7621">1</text><text fill="#000000" font-family="sans-serif" font-size="13" lengthAdjust="spacing" textLength="20" x="358.7377" y="522.204">1..*</text><!--MD5=[01558f40b86ad3407c4a50a817100da8]
link Company to Timer--><path codeLine="92" d="M575,158.43 C575,187.52 575,218.05 575,235.76 " fill="none" id="Company-Timer" style="stroke:#A80036;stroke-width:1.0;"/><polygon fill="#000000" points="580,202.1758,582.9389,193.1307,577.0611,193.1307,580,202.1758" style="stroke:#000000;stroke-width:1.0;"/><text fill="#000000" font-family="sans-serif" font-size="13" lengthAdjust="spacing" textLength="37" x="589" y="202.4951">knows</text><text fill="#000000" font-family="sans-serif" font-size="13" lengthAdjust="spacing" textLength="7" x="567.6992" y="179.1664">1</text><text fill="#000000" font-family="sans-serif" font-size="13" lengthAdjust="spacing" textLength="7" x="566.8406" y="225.2838">1</text><!--MD5=[9b1add272859679d873a209b9b5f7c6a]
link Company to NHSReportTask--><path codeLine="93" d="M513.07,158.19 C497.17,181.66 482.24,208.63 474,236 C463.23,271.78 470.1,313.38 479.48,345.67 " fill="none" id="Company-NHSReportTask" style="stroke:#A80036;stroke-width:1.0;"/><polygon fill="#000000" points="478.1182,257.0974,482.6062,248.7124,476.8205,247.6758,478.1182,257.0974" style="stroke:#000000;stroke-width:1.0;"/><text fill="#000000" font-family="sans-serif" font-size="13" lengthAdjust="spacing" textLength="37" x="488" y="257.4951">knows</text><text fill="#000000" font-family="sans-serif" font-size="13" lengthAdjust="spacing" textLength="7" x="500.2426" y="179.1683">1</text><text fill="#000000" font-family="sans-serif" font-size="13" lengthAdjust="spacing" textLength="7" x="469.4024" y="335.126">1</text><!--MD5=[07a118b43d6a8ebecb40df72c7866273]
link NHSReportTask to NhsAPI--><path codeLine="95" d="M514.67,455.22 C522.2,482.82 530.83,514.41 535.82,532.7 " fill="none" id="NHSReportTask-NhsAPI" style="stroke:#A80036;stroke-width:1.0;"/><polygon fill="#000000" points="533.3167,498.9993,533.77,489.4995,528.0996,491.0474,533.3167,498.9993" style="stroke:#000000;stroke-width:1.0;"/><text fill="#000000" font-family="sans-serif" font-size="13" lengthAdjust="spacing" textLength="78" x="541" y="499.4951">makes use of</text><text fill="#000000" font-family="sans-serif" font-size="13" lengthAdjust="spacing" textLength="5" x="511.2293" y="476.7621">*</text><text fill="#000000" font-family="sans-serif" font-size="13" lengthAdjust="spacing" textLength="7" x="526.276" y="522.204">1</text><!--MD5=[e0d1e07505e582841357f2ac6b32b3f0]
link NHSReport to NhsAPI--><path codeLine="96" d="M410.9,549 C439.98,549 476.52,549 503.3,549 " fill="none" id="NHSReport-NhsAPI" style="stroke:#A80036;stroke-width:1.0;"/><polygon fill="#000000" points="438,537.1758,428.9549,534.2369,428.9549,540.1147,438,537.1758" style="stroke:#000000;stroke-width:1.0;"/><text fill="#000000" font-family="sans-serif" font-size="13" lengthAdjust="spacing" textLength="43" x="442" y="542.4951">sent by</text><text fill="#000000" font-family="sans-serif" font-size="13" lengthAdjust="spacing" textLength="5" x="418.6175" y="545.297">*</text><text fill="#000000" font-family="sans-serif" font-size="13" lengthAdjust="spacing" textLength="7" x="488.3856" y="544.9547">1</text><!--MD5=[1e1bea86187fd5c0a36de60e63fbe61a]
link NHSReport to RegressionModel--><path codeLine="97" d="M408.56,565.02 C443.16,579.14 488.21,604.02 509,643 C563.36,744.93 543.96,783.91 554,899 C560.37,972.06 582.47,996.42 554,1064 C536.81,1104.82 501.95,1139.89 470.27,1165.36 " fill="none" id="NHSReport-RegressionModel" style="stroke:#A80036;stroke-width:1.0;"/><polygon fill="#000000" points="556.5113,865.1496,558.5099,855.8514,552.6629,856.4524,556.5113,865.1496" style="stroke:#000000;stroke-width:1.0;"/><text fill="#000000" font-family="sans-serif" font-size="13" lengthAdjust="spacing" textLength="21" x="565" y="865.4951">has</text><text fill="#000000" font-family="sans-serif" font-size="13" lengthAdjust="spacing" textLength="5" x="417.8236" y="586.53">*</text><text fill="#000000" font-family="sans-serif" font-size="13" lengthAdjust="spacing" textLength="7" x="477.7917" y="1157.0703">1</text><!--MD5=[8b5211240efe264c13d5ef595a4d03bb]
link NHSReport to HypothesisTest--><path codeLine="98" d="M315.26,551.16 C253.29,555.54 147.14,573.45 97,643 C43.88,716.68 53.25,824.86 68.92,898.76 " fill="none" id="NHSReport-HypothesisTest" style="stroke:#A80036;stroke-width:1.0;"/><polygon fill="#000000" points="99.1089,736.2552,106.7367,730.5748,101.9411,727.1761,99.1089,736.2552" style="stroke:#000000;stroke-width:1.0;"/><text fill="#000000" font-family="sans-serif" font-size="13" lengthAdjust="spacing" textLength="49" x="111" y="737.4951">contains</text><text fill="#000000" font-family="sans-serif" font-size="13" lengthAdjust="spacing" textLength="7" x="300.4139" y="547.7878">1</text><text fill="#000000" font-family="sans-serif" font-size="13" lengthAdjust="spacing" textLength="7" x="59.5527" y="888.2105">1</text><!--MD5=[547d65f66fccba149814dbcd0a782d42]
link NHSReport to SignificanceModelAnova--><path codeLine="99" d="M340.94,565.03 C330.69,572.95 319.01,583.41 311,595 C300.99,609.49 292.71,626.22 285.97,642.88 " fill="none" id="NHSReport-SignificanceModelAnova" style="stroke:#A80036;stroke-width:1.0;"/><polygon fill="#000000" points="313.116,608.2602,320.734,602.5666,315.9325,599.1762,313.116,608.2602" style="stroke:#000000;stroke-width:1.0;"/><text fill="#000000" font-family="sans-serif" font-size="13" lengthAdjust="spacing" textLength="49" x="325" y="609.4951">contains</text><text fill="#000000" font-family="sans-serif" font-size="13" lengthAdjust="spacing" textLength="7" x="325.4733" y="586.5433">1</text><text fill="#000000" font-family="sans-serif" font-size="13" lengthAdjust="spacing" textLength="7" x="280.8151" y="632.0285">1</text><!--MD5=[306e6753dd5938314f2cd068130fe945]
link Company to RegressionModel--><path codeLine="100" d="M631.46,158.38 C647.16,186.03 660,218.55 660,251 C660,251 660,251 660,982.5 C660,1084.15 545.56,1151.48 470.01,1184.86 " fill="none" id="Company-RegressionModel" style="stroke:#A80036;stroke-width:1.0;"/><polygon fill="#000000" points="664.2231,554.1151,668.5317,545.6365,662.7253,544.7232,664.2231,554.1151" style="stroke:#000000;stroke-width:1.0;"/><text fill="#000000" font-family="sans-serif" font-size="13" lengthAdjust="spacing" textLength="78" x="674" y="554.4951">makes use of</text><text fill="#000000" font-family="sans-serif" font-size="13" lengthAdjust="spacing" textLength="5" x="631.0972" y="179.1121">*</text><text fill="#000000" font-family="sans-serif" font-size="13" lengthAdjust="spacing" textLength="7" x="477.9315" y="1178.4944">1</text><!--MD5=[3613c24fd87214899814450dc04493e5]
link HypothesisTest to RegressionModel--><path codeLine="101" d="M148.09,1064.13 C162.38,1081.34 178.65,1098.38 196,1112 C239.31,1145.99 296.39,1171.59 339.95,1188.01 " fill="none" id="HypothesisTest-RegressionModel" style="stroke:#A80036;stroke-width:1.0;"/><polygon fill="#000000" points="205.2005,1105.888,199.1959,1098.5126,196.0076,1103.4506,205.2005,1105.888" style="stroke:#000000;stroke-width:1.0;"/><text fill="#000000" font-family="sans-serif" font-size="13" lengthAdjust="spacing" textLength="10" x="210" y="1108.4951">of</text><text fill="#000000" font-family="sans-serif" font-size="13" lengthAdjust="spacing" textLength="5" x="147.3605" y="1084.8802">*</text><text fill="#000000" font-family="sans-serif" font-size="13" lengthAdjust="spacing" textLength="7" x="325.0239" y="1182.0086">1</text><!--MD5=[2924ce52b3cd3a70f6e893e26caf63a8]
link SignificanceModelAnova to RegressionModel--><path codeLine="102" d="M266.41,821.08 C272.77,889.17 286.5,984.85 316,1064 C326.03,1090.91 341.24,1118.32 356.26,1141.98 " fill="none" id="SignificanceModelAnova-RegressionModel" style="stroke:#A80036;stroke-width:1.0;"/><polygon fill="#000000" points="322.3481,986.4906,322.7394,976.9881,317.0793,978.5729,322.3481,986.4906" style="stroke:#000000;stroke-width:1.0;"/><text fill="#000000" font-family="sans-serif" font-size="13" lengthAdjust="spacing" textLength="10" x="330" y="986.9951">of</text><text fill="#000000" font-family="sans-serif" font-size="13" lengthAdjust="spacing" textLength="7" x="259.5741" y="842.9176">1</text><text fill="#000000" font-family="sans-serif" font-size="13" lengthAdjust="spacing" textLength="7" x="343.5463" y="1131.1331">1</text><!--MD5=[c6acbac970cf27bd6d16a5c7db39602e]
link SignificanceModelAnova to HypothesisTest--><path codeLine="103" d="M178.99,821.25 C171.21,831.02 163.72,841.04 157,851 C146.94,865.91 137.42,882.59 128.94,898.89 " fill="none" id="SignificanceModelAnova-HypothesisTest" style="stroke:#A80036;stroke-width:1.0;"/><polygon fill="#000000" points="159.2909,864.3783,166.6619,858.3683,161.7215,855.1835,159.2909,864.3783" style="stroke:#000000;stroke-width:1.0;"/><text fill="#000000" font-family="sans-serif" font-size="13" lengthAdjust="spacing" textLength="49" x="171" y="865.4951">contains</text><text fill="#000000" font-family="sans-serif" font-size="13" lengthAdjust="spacing" textLength="7" x="163.5726" y="826.7428">1</text><text fill="#000000" font-family="sans-serif" font-size="13" lengthAdjust="spacing" textLength="7" x="125.0228" y="888.0702">1</text><!--MD5=[0dcaa8173aedfc40b07273db6fb5ce96]
link NHSReport to TableOfValues--><path codeLine="104" d="M369.01,565.12 C379.9,592.48 403.19,651.03 418.98,690.73 " fill="none" id="NHSReport-TableOfValues" style="stroke:#A80036;stroke-width:1.0;"/><polygon fill="#000000" points="393.8482,608.8217,393.2355,599.3308,387.774,601.5035,393.8482,608.8217" style="stroke:#000000;stroke-width:1.0;"/><text fill="#000000" font-family="sans-serif" font-size="13" lengthAdjust="spacing" textLength="49" x="401" y="609.4951">contains</text><text fill="#000000" font-family="sans-serif" font-size="13" lengthAdjust="spacing" textLength="7" x="362.8101" y="586.3594">1</text><text fill="#000000" font-family="sans-serif" font-size="13" lengthAdjust="spacing" textLength="7" x="408.747" y="680.1346">1</text><!--MD5=[60801c19033a4adc54741325ca863d30]
link TableOfValues to RegressionModel--><path codeLine="105" d="M410.61,773.23 C392.35,805.83 368.89,853.63 359,899 C343.38,970.65 347.82,991.52 359,1064 C363,1089.92 370.79,1117.55 378.83,1141.7 " fill="none" id="TableOfValues-RegressionModel" style="stroke:#A80036;stroke-width:1.0;"/><polygon fill="#000000" points="363.5704,986.6573,367.2756,977.8982,361.4195,977.3931,363.5704,986.6573" style="stroke:#000000;stroke-width:1.0;"/><text fill="#000000" font-family="sans-serif" font-size="13" lengthAdjust="spacing" textLength="10" x="373" y="986.9951">of</text><text fill="#000000" font-family="sans-serif" font-size="13" lengthAdjust="spacing" textLength="7" x="399.5137" y="794.0177">1</text><text fill="#000000" font-family="sans-serif" font-size="13" lengthAdjust="spacing" textLength="7" x="368.7703" y="1131.3009">1</text><!--MD5=[fbf6af04bdbd2e53a8939c56935774d0]
link TableOfValues to ConfidenceInterval--><path codeLine="106" d="M440.5,773.04 C445.95,812.72 454.37,874 460.65,919.69 " fill="none" id="TableOfValues-ConfidenceInterval" style="stroke:#A80036;stroke-width:1.0;"/><polygon fill="#000000" points="459.6806,865.1292,461.3609,855.7683,455.5378,856.5684,459.6806,865.1292" style="stroke:#000000;stroke-width:1.0;"/><text fill="#000000" font-family="sans-serif" font-size="13" lengthAdjust="spacing" textLength="49" x="468" y="865.4951">contains</text><text fill="#000000" font-family="sans-serif" font-size="13" lengthAdjust="spacing" textLength="7" x="433.8063" y="794.109">1</text><text fill="#000000" font-family="sans-serif" font-size="13" lengthAdjust="spacing" textLength="5" x="454.3955" y="909.1328">*</text><!--MD5=[e9ea997fd01ddd5be83691ad6dfc4b93]
link ConfidenceInterval to RegressionModel--><path codeLine="107" d="M451.93,1043.03 C443.34,1073.5 432.9,1110.54 424.05,1141.94 " fill="none" id="ConfidenceInterval-RegressionModel" style="stroke:#A80036;stroke-width:1.0;"/><polygon fill="#000000" points="440.6435,1107.9883,445.9261,1100.0797,440.2687,1098.4851,440.6435,1107.9883" style="stroke:#000000;stroke-width:1.0;"/><text fill="#000000" font-family="sans-serif" font-size="13" lengthAdjust="spacing" textLength="10" x="451" y="1108.4951">of</text><text fill="#000000" font-family="sans-serif" font-size="13" lengthAdjust="spacing" textLength="5" x="444.6672" y="1064.5839">*</text><text fill="#000000" font-family="sans-serif" font-size="13" lengthAdjust="spacing" textLength="7" x="418.7508" y="1131.0887">1</text><!--MD5=[2d6e9e001c0bf2f7f3a5c6201f06070c]
link Timer to NHSReportTask--><path codeLine="108" d="M567.26,268.13 C557.9,286.4 541.65,318.15 527.46,345.86 " fill="none" id="Timer-NHSReportTask" style="stroke:#A80036;stroke-width:1.0;"/><polygon fill="#000000" points="552.7212,311.6263,559.4595,304.9147,554.2276,302.2358,552.7212,311.6263" style="stroke:#000000;stroke-width:1.0;"/><text fill="#000000" font-family="sans-serif" font-size="13" lengthAdjust="spacing" textLength="59" x="564" y="312.4951">schedules</text><text fill="#000000" font-family="sans-serif" font-size="13" lengthAdjust="spacing" textLength="7" x="556.6773" y="289.3726">1</text><text fill="#000000" font-family="sans-serif" font-size="13" lengthAdjust="spacing" textLength="5" x="525.814" y="334.9494">*</text><!--MD5=[e28c60e8d0e4e492b93cde701a1154f4]
@startuml

skinparam classAttributeIconSize 0
hide empty methods
hide empty attributes

class Company {
-designation
-classNameForBarcodeApi
-classNameForSortAlgorithm
-regressionModelCLass
-dateInterval
-historicalPoints
-confidenceLevel
-significanceLevel
}

class Timer {}

class NhsAPI{}

class NHSReport {}

class RegressionModel {
-intercept
-slope
-secondIndVariable
-r
-r2
-r2Adjusted
-numberOfObservations
}

/'class ConfigFile {}'/

'The interval of dates to fit the regression model
/'class IntervalOfDates {}'/

'Number of days and number of weeks
/'class NumberOfHistoricalPoints {}'/

'hypothesis tests for regression coefficients
class HypothesisTest {
-tObsA
-tObsB
-tObsC
-significanceLevel
-critTD
-f
-critFD
-numeratorDegreesOfFreedom
-denominatorDegreesOfFreedom
}

'significance model with Anova.
class SignificanceModelAnova {
-significanceLevel
-sr
-se
-st
-mr
-me
-f
-degFreedomSr
-degFreedomSe
-degFreedomSt
}

class TableOfValues {
-dates
-observedPositives
-estimatedPositives
}

class ConfidenceInterval {
-y0
-auxDelta
-confidenceLevel
-delta
-limInf
-limSup
}

class NHSReportTask {
-regressionModelClass
-historicalPoints
-significanceLevel
-confidenceLevel
-dateInterval
}

NHSReportTask "1" - - "1..*" NHSReport : reports >
Company "1" - - "1" Timer : knows >
Company "1" - - "1" NHSReportTask : knows >
/'Company "*" - "1" NhsAPI : makes use of >'/
NHSReportTask "*" - "1" NhsAPI : makes use of >
NHSReport "*" - "1" NhsAPI : sent by >
NHSReport "*" - - "1" RegressionModel : has >
NHSReport "1" - - "1" HypothesisTest : contains >
NHSReport "1" - - "1" SignificanceModelAnova : contains >
Company "*" - - "1" RegressionModel : makes use of >
HypothesisTest "*" - - "1" RegressionModel : of >
SignificanceModelAnova "1" - - "1" RegressionModel : of >
SignificanceModelAnova "1" - - "1" HypothesisTest : contains >
NHSReport "1" - - "1" TableOfValues : contains >
TableOfValues "1" - - "1" RegressionModel : of >
TableOfValues "1" - - "*" ConfidenceInterval : contains >
ConfidenceInterval "*" - - "1" RegressionModel : of >
Timer "1" - - "*" NHSReportTask : schedules >
/'NHSReportTask "1" - - "1" RegressionModel : makes use of >'/
/'NHSReportTask "*" - - "1" RegressionModel : makes use of >'/


'ANTIGO
/'NHSReportTask "1" - - "1..*" NHSReport : reports >
Company "1" - - "1" Timer : knows >
Company "*" - "1" NhsAPI : makes use of >'/
/'NHSReportTask "*" - - "1" NhsAPI : makes use of >'/
/'NHSReport "*" - - "1" NhsAPI : sent by >
NHSReport "*" - - "1" RegressionModel : has >
NHSReport "1" - - "1" HypothesisTest : contains >
NHSReport "1" - - "1" SignificanceModelAnova : contains >
Company "*" - - "1" RegressionModel : makes use of >
HypothesisTest "*" - - "1" RegressionModel : of >
SignificanceModelAnova "1" - - "1" RegressionModel : of >
SignificanceModelAnova "1" - - "1" HypothesisTest : contains >
NHSReport "1" - - "1" TableOfValues : contains >
TableOfValues "1" - - "1" RegressionModel : of >
TableOfValues "1" - - "*" ConfidenceInterval : contains >
ConfidenceInterval "*" - - "1" RegressionModel : of >
Timer "1" - "*" NHSReportTask : schedules >
NHSReportTask "1" - - "1" RegressionModel : makes use of >'/
/'NHSReportTask "*" - - "1" RegressionModel : makes use of >'/

'Apagar posteriormente
/'RegressionModel "1" - - "1" ConfigFile : defined by >
IntervalOfDates "1" - - "1" ConfigFile : defined by >
NumberOfHistoricalPoints "1" - - "1" ConfigFile : defined by >'/



@enduml

@startuml

skinparam classAttributeIconSize 0
hide empty methods
hide empty attributes

class Company {
-designation
-classNameForBarcodeApi
-classNameForSortAlgorithm
-regressionModelCLass
-dateInterval
-historicalPoints
-confidenceLevel
-significanceLevel
}

class Timer {}

class NhsAPI{}

class NHSReport {}

class RegressionModel {
-intercept
-slope
-secondIndVariable
-r
-r2
-r2Adjusted
-numberOfObservations
}




class HypothesisTest {
-tObsA
-tObsB
-tObsC
-significanceLevel
-critTD
-f
-critFD
-numeratorDegreesOfFreedom
-denominatorDegreesOfFreedom
}

class SignificanceModelAnova {
-significanceLevel
-sr
-se
-st
-mr
-me
-f
-degFreedomSr
-degFreedomSe
-degFreedomSt
}

class TableOfValues {
-dates
-observedPositives
-estimatedPositives
}

class ConfidenceInterval {
-y0
-auxDelta
-confidenceLevel
-delta
-limInf
-limSup
}

class NHSReportTask {
-regressionModelClass
-historicalPoints
-significanceLevel
-confidenceLevel
-dateInterval
}

NHSReportTask "1" - - "1..*" NHSReport : reports >
Company "1" - - "1" Timer : knows >
Company "1" - - "1" NHSReportTask : knows >
NHSReportTask "*" - "1" NhsAPI : makes use of >
NHSReport "*" - "1" NhsAPI : sent by >
NHSReport "*" - - "1" RegressionModel : has >
NHSReport "1" - - "1" HypothesisTest : contains >
NHSReport "1" - - "1" SignificanceModelAnova : contains >
Company "*" - - "1" RegressionModel : makes use of >
HypothesisTest "*" - - "1" RegressionModel : of >
SignificanceModelAnova "1" - - "1" RegressionModel : of >
SignificanceModelAnova "1" - - "1" HypothesisTest : contains >
NHSReport "1" - - "1" TableOfValues : contains >
TableOfValues "1" - - "1" RegressionModel : of >
TableOfValues "1" - - "*" ConfidenceInterval : contains >
ConfidenceInterval "*" - - "1" RegressionModel : of >
Timer "1" - - "*" NHSReportTask : schedules >






@enduml

PlantUML version 1.2021.4(Sun Apr 04 09:49:39 BST 2021)
(GPL source distribution)
Java Runtime: OpenJDK Runtime Environment
JVM: OpenJDK 64-Bit Server VM
Default Encoding: Cp1252
Language: pt
Country: PT
--></g></svg>