<?xml version="1.0" encoding="UTF-8" standalone="no"?><svg xmlns="http://www.w3.org/2000/svg" xmlns:xlink="http://www.w3.org/1999/xlink" contentScriptType="application/ecmascript" contentStyleType="text/css" height="775.2px" preserveAspectRatio="none" style="width:456px;height:775px;" version="1.1" viewBox="0 0 456 775" width="456px" zoomAndPan="magnify"><defs><filter height="300%" id="f13hk0jam74ghw" width="300%" x="-1" y="-1"><feGaussianBlur result="blurOut" stdDeviation="1.2"/><feColorMatrix in="blurOut" result="blurOut2" type="matrix" values="0 0 0 0 0 0 0 0 0 0 0 0 0 0 0 0 0 0 .4 0"/><feOffset dx="2.4" dy="2.4" in="blurOut2" result="blurOut3"/><feBlend in="SourceGraphic" in2="blurOut3" mode="normal"/></filter></defs><g><!--MD5=[02e4b9b7573f1156f41e60aa5b4e25a4]
class Company--><rect codeLine="6" fill="#FEFECE" filter="url(#f13hk0jam74ghw)" height="90.4125" id="Company" style="stroke:#A80036;stroke-width:0.8999999999999999;" width="90" x="325.2" y="4.2"/><ellipse cx="351.75" cy="13.8" fill="#ADD1B2" rx="6.6" ry="6.6" style="stroke:#A80036;stroke-width:0.6;"/><path d="M352.95,11.7 Q353.0719,11.4 353.2125,11.25 Q353.3531,11.1 353.5125,11.1 Q353.7938,11.1 353.9719,11.2687 Q354.15,11.4375 354.15,11.8312 L354.15,12.7687 Q354.15,13.1625 353.9813,13.3312 Q353.8125,13.5 353.55,13.5 Q353.3156,13.5 353.1656,13.3969 Q353.0156,13.2938 352.95,13.0219 Q352.9219,12.8344 352.8187,12.7313 Q352.6312,12.5344 352.2938,12.4219 Q351.9563,12.3 351.6188,12.3 Q351.1969,12.3 350.8406,12.4688 Q350.4938,12.6375 350.2219,13.0125 Q349.95,13.3875 349.95,13.9031 L349.95,14.4562 Q349.95,15.075 350.4563,15.4875 Q350.9625,15.9 351.8625,15.9 Q352.3969,15.9 352.7719,15.7781 Q352.9875,15.7125 353.2313,15.4969 Q353.3906,15.375 353.475,15.3375 Q353.5594,15.3 353.6625,15.3 Q353.8594,15.3 354,15.4594 Q354.15,15.6094 354.15,15.825 Q354.15,16.0313 353.9437,16.275 Q353.6438,16.6312 353.1656,16.8281 Q352.5375,17.1 351.7688,17.1 Q350.8688,17.1 350.1469,16.7438 Q349.5656,16.4625 349.1531,15.8531 Q348.75,15.2437 348.75,14.5219 L348.75,13.8656 Q348.75,13.1156 349.1063,12.4594 Q349.4719,11.8031 350.1,11.4562 Q350.7375,11.1 351.45,11.1 Q351.8812,11.1 352.2562,11.25 Q352.6312,11.4 352.95,11.7 Z " fill="#000000"/><text fill="#000000" font-family="sans-serif" font-size="7.2" lengthAdjust="spacing" textLength="31.8" x="364.05" y="16.7461">Company</text><line style="stroke:#A80036;stroke-width:0.8999999999999999;" x1="325.8" x2="414.6" y1="23.4" y2="23.4"/><text fill="#000000" font-family="sans-serif" font-size="6.6" lengthAdjust="spacing" textLength="35.4" x="328.8" y="32.6514">-designation</text><text fill="#000000" font-family="sans-serif" font-size="6.6" lengthAdjust="spacing" textLength="78" x="328.8" y="40.9529">-classNameForBarcodeApi</text><text fill="#000000" font-family="sans-serif" font-size="6.6" lengthAdjust="spacing" textLength="82.8" x="328.8" y="49.2545">-classNameForSortAlgorithm</text><text fill="#000000" font-family="sans-serif" font-size="6.6" lengthAdjust="spacing" textLength="69" x="328.8" y="57.5561">-regressionModelCLass</text><text fill="#000000" font-family="sans-serif" font-size="6.6" lengthAdjust="spacing" textLength="36" x="328.8" y="65.8576">-dateInterval</text><text fill="#000000" font-family="sans-serif" font-size="6.6" lengthAdjust="spacing" textLength="45.6" x="328.8" y="74.1592">-historicalPoints</text><text fill="#000000" font-family="sans-serif" font-size="6.6" lengthAdjust="spacing" textLength="50.4" x="328.8" y="82.4607">-confidenceLevel</text><text fill="#000000" font-family="sans-serif" font-size="6.6" lengthAdjust="spacing" textLength="52.8" x="328.8" y="90.7623">-significanceLevel</text><!--MD5=[1b844c90688aafb95cd8c95626c3b83a]
class Timer--><rect codeLine="17" fill="#FEFECE" filter="url(#f13hk0jam74ghw)" height="19.2" id="Timer" style="stroke:#A80036;stroke-width:0.8999999999999999;" width="38.4" x="322.2" y="141.6"/><ellipse cx="331.2" cy="151.2" fill="#ADD1B2" rx="6.6" ry="6.6" style="stroke:#A80036;stroke-width:0.6;"/><path d="M332.4,149.1 Q332.5219,148.8 332.6625,148.65 Q332.8031,148.5 332.9625,148.5 Q333.2438,148.5 333.4219,148.6688 Q333.6,148.8375 333.6,149.2313 L333.6,150.1688 Q333.6,150.5625 333.4313,150.7313 Q333.2625,150.9 333,150.9 Q332.7656,150.9 332.6156,150.7969 Q332.4656,150.6938 332.4,150.4219 Q332.3719,150.2344 332.2688,150.1313 Q332.0813,149.9344 331.7438,149.8219 Q331.4063,149.7 331.0687,149.7 Q330.6469,149.7 330.2906,149.8688 Q329.9437,150.0375 329.6719,150.4125 Q329.4,150.7875 329.4,151.3031 L329.4,151.8563 Q329.4,152.475 329.9063,152.8875 Q330.4125,153.3 331.3125,153.3 Q331.8469,153.3 332.2219,153.1781 Q332.4375,153.1125 332.6813,152.8969 Q332.8406,152.775 332.925,152.7375 Q333.0094,152.7 333.1125,152.7 Q333.3094,152.7 333.45,152.8594 Q333.6,153.0094 333.6,153.225 Q333.6,153.4313 333.3938,153.675 Q333.0938,154.0313 332.6156,154.2281 Q331.9875,154.5 331.2188,154.5 Q330.3187,154.5 329.5969,154.1437 Q329.0156,153.8625 328.6031,153.2531 Q328.2,152.6437 328.2,151.9219 L328.2,151.2656 Q328.2,150.5156 328.5563,149.8594 Q328.9219,149.2031 329.55,148.8563 Q330.1875,148.5 330.9,148.5 Q331.3313,148.5 331.7063,148.65 Q332.0813,148.8 332.4,149.1 Z " fill="#000000"/><text fill="#000000" font-family="sans-serif" font-size="7.2" lengthAdjust="spacing" textLength="19.2" x="339.6" y="154.1461">Timer</text><!--MD5=[db86e106e83ea9efd94d1461be461932]
class NhsAPI--><rect codeLine="19" fill="#FEFECE" filter="url(#f13hk0jam74ghw)" height="19.2" id="NhsAPI" style="stroke:#A80036;stroke-width:0.8999999999999999;" width="43.8" x="307.5" y="319.8"/><ellipse cx="316.5" cy="329.4" fill="#ADD1B2" rx="6.6" ry="6.6" style="stroke:#A80036;stroke-width:0.6;"/><path d="M317.7,327.3 Q317.8219,327 317.9625,326.85 Q318.1031,326.7 318.2625,326.7 Q318.5438,326.7 318.7219,326.8688 Q318.9,327.0375 318.9,327.4313 L318.9,328.3688 Q318.9,328.7625 318.7313,328.9313 Q318.5625,329.1 318.3,329.1 Q318.0656,329.1 317.9156,328.9969 Q317.7656,328.8938 317.7,328.6219 Q317.6719,328.4344 317.5687,328.3313 Q317.3812,328.1344 317.0438,328.0219 Q316.7063,327.9 316.3688,327.9 Q315.9469,327.9 315.5906,328.0687 Q315.2438,328.2375 314.9719,328.6125 Q314.7,328.9875 314.7,329.5031 L314.7,330.0563 Q314.7,330.675 315.2063,331.0875 Q315.7125,331.5 316.6125,331.5 Q317.1469,331.5 317.5219,331.3781 Q317.7375,331.3125 317.9813,331.0969 Q318.1406,330.975 318.225,330.9375 Q318.3094,330.9 318.4125,330.9 Q318.6094,330.9 318.75,331.0594 Q318.9,331.2094 318.9,331.425 Q318.9,331.6312 318.6937,331.875 Q318.3938,332.2313 317.9156,332.4281 Q317.2875,332.7 316.5188,332.7 Q315.6188,332.7 314.8969,332.3438 Q314.3156,332.0625 313.9031,331.4531 Q313.5,330.8438 313.5,330.1219 L313.5,329.4656 Q313.5,328.7156 313.8563,328.0594 Q314.2219,327.4031 314.85,327.0563 Q315.4875,326.7 316.2,326.7 Q316.6312,326.7 317.0062,326.85 Q317.3812,327 317.7,327.3 Z " fill="#000000"/><text fill="#000000" font-family="sans-serif" font-size="7.2" lengthAdjust="spacing" textLength="24.6" x="324.9" y="332.3461">NhsAPI</text><!--MD5=[74783ec010d186752c4ffd5c6de5633a]
class NHSReport--><rect codeLine="21" fill="#FEFECE" filter="url(#f13hk0jam74ghw)" height="19.2" id="NHSReport" style="stroke:#A80036;stroke-width:0.8999999999999999;" width="57" x="194.7" y="319.8"/><ellipse cx="203.7" cy="329.4" fill="#ADD1B2" rx="6.6" ry="6.6" style="stroke:#A80036;stroke-width:0.6;"/><path d="M204.9,327.3 Q205.0219,327 205.1625,326.85 Q205.3031,326.7 205.4625,326.7 Q205.7438,326.7 205.9219,326.8688 Q206.1,327.0375 206.1,327.4313 L206.1,328.3688 Q206.1,328.7625 205.9313,328.9313 Q205.7625,329.1 205.5,329.1 Q205.2656,329.1 205.1156,328.9969 Q204.9656,328.8938 204.9,328.6219 Q204.8719,328.4344 204.7687,328.3313 Q204.5812,328.1344 204.2438,328.0219 Q203.9063,327.9 203.5688,327.9 Q203.1469,327.9 202.7906,328.0687 Q202.4438,328.2375 202.1719,328.6125 Q201.9,328.9875 201.9,329.5031 L201.9,330.0563 Q201.9,330.675 202.4063,331.0875 Q202.9125,331.5 203.8125,331.5 Q204.3469,331.5 204.7219,331.3781 Q204.9375,331.3125 205.1813,331.0969 Q205.3406,330.975 205.425,330.9375 Q205.5094,330.9 205.6125,330.9 Q205.8094,330.9 205.95,331.0594 Q206.1,331.2094 206.1,331.425 Q206.1,331.6312 205.8937,331.875 Q205.5938,332.2313 205.1156,332.4281 Q204.4875,332.7 203.7188,332.7 Q202.8188,332.7 202.0969,332.3438 Q201.5156,332.0625 201.1031,331.4531 Q200.7,330.8438 200.7,330.1219 L200.7,329.4656 Q200.7,328.7156 201.0563,328.0594 Q201.4219,327.4031 202.05,327.0563 Q202.6875,326.7 203.4,326.7 Q203.8312,326.7 204.2062,326.85 Q204.5812,327 204.9,327.3 Z " fill="#000000"/><text fill="#000000" font-family="sans-serif" font-size="7.2" lengthAdjust="spacing" textLength="37.8" x="212.1" y="332.3461">NHSReport</text><!--MD5=[f9bf174dd5fcee0192f6251129b9c376]
class RegressionModel--><rect codeLine="23" fill="#FEFECE" filter="url(#f13hk0jam74ghw)" height="82.1109" id="RegressionModel" style="stroke:#A80036;stroke-width:0.8999999999999999;" width="78" x="204" y="685.2"/><ellipse cx="213" cy="694.8" fill="#ADD1B2" rx="6.6" ry="6.6" style="stroke:#A80036;stroke-width:0.6;"/><path d="M214.2,692.7 Q214.3219,692.4 214.4625,692.25 Q214.6031,692.1 214.7625,692.1 Q215.0438,692.1 215.2219,692.2688 Q215.4,692.4375 215.4,692.8313 L215.4,693.7688 Q215.4,694.1625 215.2313,694.3313 Q215.0625,694.5 214.8,694.5 Q214.5656,694.5 214.4156,694.3969 Q214.2656,694.2937 214.2,694.0219 Q214.1719,693.8344 214.0688,693.7312 Q213.8813,693.5344 213.5438,693.4219 Q213.2062,693.3 212.8688,693.3 Q212.4469,693.3 212.0906,693.4688 Q211.7438,693.6375 211.4719,694.0125 Q211.2,694.3875 211.2,694.9031 L211.2,695.4563 Q211.2,696.075 211.7062,696.4875 Q212.2125,696.9 213.1125,696.9 Q213.6469,696.9 214.0219,696.7781 Q214.2375,696.7125 214.4813,696.4969 Q214.6406,696.375 214.725,696.3375 Q214.8094,696.3 214.9125,696.3 Q215.1094,696.3 215.25,696.4594 Q215.4,696.6094 215.4,696.825 Q215.4,697.0313 215.1938,697.275 Q214.8937,697.6313 214.4156,697.8281 Q213.7875,698.1 213.0187,698.1 Q212.1188,698.1 211.3969,697.7438 Q210.8156,697.4625 210.4031,696.8531 Q210,696.2438 210,695.5219 L210,694.8656 Q210,694.1156 210.3563,693.4594 Q210.7219,692.8031 211.35,692.4563 Q211.9875,692.1 212.7,692.1 Q213.1313,692.1 213.5063,692.25 Q213.8813,692.4 214.2,692.7 Z " fill="#000000"/><text fill="#000000" font-family="sans-serif" font-size="7.2" lengthAdjust="spacing" textLength="58.8" x="221.4" y="697.7461">RegressionModel</text><line style="stroke:#A80036;stroke-width:0.8999999999999999;" x1="204.6" x2="281.4" y1="704.4" y2="704.4"/><text fill="#000000" font-family="sans-serif" font-size="6.6" lengthAdjust="spacing" textLength="27.6" x="207.6" y="713.6514">-intercept</text><text fill="#000000" font-family="sans-serif" font-size="6.6" lengthAdjust="spacing" textLength="18" x="207.6" y="721.9529">-slope</text><text fill="#000000" font-family="sans-serif" font-size="6.6" lengthAdjust="spacing" textLength="56.4" x="207.6" y="730.2545">-secondIndVariable</text><text fill="#000000" font-family="sans-serif" font-size="6.6" lengthAdjust="spacing" textLength="4.8" x="207.6" y="738.5561">-r</text><text fill="#000000" font-family="sans-serif" font-size="6.6" lengthAdjust="spacing" textLength="8.4" x="207.6" y="746.8576">-r2</text><text fill="#000000" font-family="sans-serif" font-size="6.6" lengthAdjust="spacing" textLength="34.2" x="207.6" y="755.1592">-r2Adjusted</text><text fill="#000000" font-family="sans-serif" font-size="6.6" lengthAdjust="spacing" textLength="70.2" x="207.6" y="763.4607">-numberOfObservations</text><!--MD5=[dfe7672a7c242e7ff03cfd775649b5cb]
class HypothesisTest--><rect codeLine="42" fill="#FEFECE" filter="url(#f13hk0jam74ghw)" height="98.7141" id="HypothesisTest" style="stroke:#A80036;stroke-width:0.8999999999999999;" width="102" x="4.2" y="539.4"/><ellipse cx="27.24" cy="549" fill="#ADD1B2" rx="6.6" ry="6.6" style="stroke:#A80036;stroke-width:0.6;"/><path d="M28.44,546.9 Q28.5619,546.6 28.7025,546.45 Q28.8431,546.3 29.0025,546.3 Q29.2837,546.3 29.4619,546.4688 Q29.64,546.6375 29.64,547.0313 L29.64,547.9688 Q29.64,548.3625 29.4712,548.5313 Q29.3025,548.7 29.04,548.7 Q28.8056,548.7 28.6556,548.5969 Q28.5056,548.4938 28.44,548.2219 Q28.4119,548.0344 28.3088,547.9313 Q28.1213,547.7344 27.7837,547.6219 Q27.4463,547.5 27.1087,547.5 Q26.6869,547.5 26.3306,547.6687 Q25.9837,547.8375 25.7119,548.2125 Q25.44,548.5875 25.44,549.1031 L25.44,549.6563 Q25.44,550.275 25.9463,550.6875 Q26.4525,551.1 27.3525,551.1 Q27.8869,551.1 28.2619,550.9781 Q28.4775,550.9125 28.7212,550.6969 Q28.8806,550.575 28.965,550.5375 Q29.0494,550.5 29.1525,550.5 Q29.3494,550.5 29.49,550.6594 Q29.64,550.8094 29.64,551.025 Q29.64,551.2312 29.4337,551.475 Q29.1338,551.8313 28.6556,552.0281 Q28.0275,552.3 27.2588,552.3 Q26.3587,552.3 25.6369,551.9438 Q25.0556,551.6625 24.6431,551.0531 Q24.24,550.4438 24.24,549.7219 L24.24,549.0656 Q24.24,548.3156 24.5962,547.6594 Q24.9619,547.0031 25.59,546.6563 Q26.2275,546.3 26.94,546.3 Q27.3713,546.3 27.7463,546.45 Q28.1213,546.6 28.44,546.9 Z " fill="#000000"/><text fill="#000000" font-family="sans-serif" font-size="7.2" lengthAdjust="spacing" textLength="51.6" x="38.76" y="551.9461">HypothesisTest</text><line style="stroke:#A80036;stroke-width:0.8999999999999999;" x1="4.8" x2="105.6" y1="558.6" y2="558.6"/><text fill="#000000" font-family="sans-serif" font-size="6.6" lengthAdjust="spacing" textLength="21" x="7.8" y="567.8514">-tObsA</text><text fill="#000000" font-family="sans-serif" font-size="6.6" lengthAdjust="spacing" textLength="20.4" x="7.8" y="576.1529">-tObsB</text><text fill="#000000" font-family="sans-serif" font-size="6.6" lengthAdjust="spacing" textLength="20.4" x="7.8" y="584.4545">-tObsC</text><text fill="#000000" font-family="sans-serif" font-size="6.6" lengthAdjust="spacing" textLength="52.8" x="7.8" y="592.7561">-significanceLevel</text><text fill="#000000" font-family="sans-serif" font-size="6.6" lengthAdjust="spacing" textLength="19.2" x="7.8" y="601.0576">-critTD</text><text fill="#000000" font-family="sans-serif" font-size="6.6" lengthAdjust="spacing" textLength="4.8" x="7.8" y="609.3592">-f</text><text fill="#000000" font-family="sans-serif" font-size="6.6" lengthAdjust="spacing" textLength="19.2" x="7.8" y="617.6607">-critFD</text><text fill="#000000" font-family="sans-serif" font-size="6.6" lengthAdjust="spacing" textLength="88.8" x="7.8" y="625.9623">-numeratorDegreesOfFreedom</text><text fill="#000000" font-family="sans-serif" font-size="6.6" lengthAdjust="spacing" textLength="94.8" x="7.8" y="634.2639">-denominatorDegreesOfFreedom</text><!--MD5=[39ee656b41ae4892150ca74368648c0e]
class SignificanceModelAnova--><rect codeLine="55" fill="#FEFECE" filter="url(#f13hk0jam74ghw)" height="107.0156" id="SignificanceModelAnova" style="stroke:#A80036;stroke-width:0.8999999999999999;" width="99" x="107.1" y="385.8"/><ellipse cx="116.1" cy="395.4" fill="#ADD1B2" rx="6.6" ry="6.6" style="stroke:#A80036;stroke-width:0.6;"/><path d="M117.3,393.3 Q117.4219,393 117.5625,392.85 Q117.7031,392.7 117.8625,392.7 Q118.1438,392.7 118.3219,392.8688 Q118.5,393.0375 118.5,393.4313 L118.5,394.3688 Q118.5,394.7625 118.3313,394.9313 Q118.1625,395.1 117.9,395.1 Q117.6656,395.1 117.5156,394.9969 Q117.3656,394.8938 117.3,394.6219 Q117.2719,394.4344 117.1687,394.3313 Q116.9812,394.1344 116.6438,394.0219 Q116.3062,393.9 115.9688,393.9 Q115.5469,393.9 115.1906,394.0687 Q114.8438,394.2375 114.5719,394.6125 Q114.3,394.9875 114.3,395.5031 L114.3,396.0563 Q114.3,396.675 114.8062,397.0875 Q115.3125,397.5 116.2125,397.5 Q116.7469,397.5 117.1219,397.3781 Q117.3375,397.3125 117.5813,397.0969 Q117.7406,396.975 117.825,396.9375 Q117.9094,396.9 118.0125,396.9 Q118.2094,396.9 118.35,397.0594 Q118.5,397.2094 118.5,397.425 Q118.5,397.6312 118.2937,397.875 Q117.9937,398.2313 117.5156,398.4281 Q116.8875,398.7 116.1187,398.7 Q115.2188,398.7 114.4969,398.3438 Q113.9156,398.0625 113.5031,397.4531 Q113.1,396.8438 113.1,396.1219 L113.1,395.4656 Q113.1,394.7156 113.4563,394.0594 Q113.8219,393.4031 114.45,393.0563 Q115.0875,392.7 115.8,392.7 Q116.2312,392.7 116.6062,392.85 Q116.9812,393 117.3,393.3 Z " fill="#000000"/><text fill="#000000" font-family="sans-serif" font-size="7.2" lengthAdjust="spacing" textLength="79.8" x="124.5" y="398.3461">SignificanceModelAnova</text><line style="stroke:#A80036;stroke-width:0.8999999999999999;" x1="107.7" x2="205.5" y1="405" y2="405"/><text fill="#000000" font-family="sans-serif" font-size="6.6" lengthAdjust="spacing" textLength="52.8" x="110.7" y="414.2514">-significanceLevel</text><text fill="#000000" font-family="sans-serif" font-size="6.6" lengthAdjust="spacing" textLength="8.4" x="110.7" y="422.5529">-sr</text><text fill="#000000" font-family="sans-serif" font-size="6.6" lengthAdjust="spacing" textLength="9.6" x="110.7" y="430.8545">-se</text><text fill="#000000" font-family="sans-serif" font-size="6.6" lengthAdjust="spacing" textLength="7.8" x="110.7" y="439.1561">-st</text><text fill="#000000" font-family="sans-serif" font-size="6.6" lengthAdjust="spacing" textLength="9.6" x="110.7" y="447.4576">-mr</text><text fill="#000000" font-family="sans-serif" font-size="6.6" lengthAdjust="spacing" textLength="10.8" x="110.7" y="455.7592">-me</text><text fill="#000000" font-family="sans-serif" font-size="6.6" lengthAdjust="spacing" textLength="4.8" x="110.7" y="464.0607">-f</text><text fill="#000000" font-family="sans-serif" font-size="6.6" lengthAdjust="spacing" textLength="45" x="110.7" y="472.3623">-degFreedomSr</text><text fill="#000000" font-family="sans-serif" font-size="6.6" lengthAdjust="spacing" textLength="46.2" x="110.7" y="480.6639">-degFreedomSe</text><text fill="#000000" font-family="sans-serif" font-size="6.6" lengthAdjust="spacing" textLength="44.4" x="110.7" y="488.9654">-degFreedomSt</text><!--MD5=[2326f07dd74de3a812ad289cd3fa63bf]
class TableOfValues--><rect codeLine="68" fill="#FEFECE" filter="url(#f13hk0jam74ghw)" height="48.9047" id="TableOfValues" style="stroke:#A80036;stroke-width:0.8999999999999999;" width="67.8" x="227.1" y="414.6"/><ellipse cx="236.1" cy="424.2" fill="#ADD1B2" rx="6.6" ry="6.6" style="stroke:#A80036;stroke-width:0.6;"/><path d="M237.3,422.1 Q237.4219,421.8 237.5625,421.65 Q237.7031,421.5 237.8625,421.5 Q238.1437,421.5 238.3219,421.6688 Q238.5,421.8375 238.5,422.2313 L238.5,423.1688 Q238.5,423.5625 238.3312,423.7313 Q238.1625,423.9 237.9,423.9 Q237.6656,423.9 237.5156,423.7969 Q237.3656,423.6937 237.3,423.4219 Q237.2719,423.2344 237.1688,423.1312 Q236.9813,422.9344 236.6437,422.8219 Q236.3062,422.7 235.9688,422.7 Q235.5469,422.7 235.1906,422.8688 Q234.8438,423.0375 234.5719,423.4125 Q234.3,423.7875 234.3,424.3031 L234.3,424.8563 Q234.3,425.475 234.8062,425.8875 Q235.3125,426.3 236.2125,426.3 Q236.7469,426.3 237.1219,426.1781 Q237.3375,426.1125 237.5812,425.8969 Q237.7406,425.775 237.825,425.7375 Q237.9094,425.7 238.0125,425.7 Q238.2094,425.7 238.35,425.8594 Q238.5,426.0094 238.5,426.225 Q238.5,426.4313 238.2938,426.675 Q237.9937,427.0313 237.5156,427.2281 Q236.8875,427.5 236.1187,427.5 Q235.2188,427.5 234.4969,427.1438 Q233.9156,426.8625 233.5031,426.2531 Q233.1,425.6438 233.1,424.9219 L233.1,424.2656 Q233.1,423.5156 233.4562,422.8594 Q233.8219,422.2031 234.45,421.8563 Q235.0875,421.5 235.8,421.5 Q236.2313,421.5 236.6063,421.65 Q236.9813,421.8 237.3,422.1 Z " fill="#000000"/><text fill="#000000" font-family="sans-serif" font-size="7.2" lengthAdjust="spacing" textLength="48.6" x="244.5" y="427.1461">TableOfValues</text><line style="stroke:#A80036;stroke-width:0.8999999999999999;" x1="227.7" x2="294.3" y1="433.8" y2="433.8"/><text fill="#000000" font-family="sans-serif" font-size="6.6" lengthAdjust="spacing" textLength="18.6" x="230.7" y="443.0514">-dates</text><text fill="#000000" font-family="sans-serif" font-size="6.6" lengthAdjust="spacing" textLength="55.8" x="230.7" y="451.3529">-observedPositives</text><text fill="#000000" font-family="sans-serif" font-size="6.6" lengthAdjust="spacing" textLength="55.8" x="230.7" y="459.6545">-estimatedPositives</text><!--MD5=[fe0bb2d390fc5dca74774fa5d2975c11]
class ConfidenceInterval--><rect codeLine="74" fill="#FEFECE" filter="url(#f13hk0jam74ghw)" height="73.8094" id="ConfidenceInterval" style="stroke:#A80036;stroke-width:0.8999999999999999;" width="80.4" x="241.2" y="552"/><ellipse cx="250.2" cy="561.6" fill="#ADD1B2" rx="6.6" ry="6.6" style="stroke:#A80036;stroke-width:0.6;"/><path d="M251.4,559.5 Q251.5219,559.2 251.6625,559.05 Q251.8031,558.9 251.9625,558.9 Q252.2437,558.9 252.4219,559.0688 Q252.6,559.2375 252.6,559.6313 L252.6,560.5688 Q252.6,560.9625 252.4312,561.1313 Q252.2625,561.3 252,561.3 Q251.7656,561.3 251.6156,561.1969 Q251.4656,561.0938 251.4,560.8219 Q251.3719,560.6344 251.2687,560.5313 Q251.0812,560.3344 250.7437,560.2219 Q250.4063,560.1 250.0688,560.1 Q249.6469,560.1 249.2906,560.2688 Q248.9438,560.4375 248.6719,560.8125 Q248.4,561.1875 248.4,561.7031 L248.4,562.2563 Q248.4,562.875 248.9063,563.2875 Q249.4125,563.7 250.3125,563.7 Q250.8469,563.7 251.2219,563.5781 Q251.4375,563.5125 251.6812,563.2969 Q251.8406,563.175 251.925,563.1375 Q252.0094,563.1 252.1125,563.1 Q252.3094,563.1 252.45,563.2594 Q252.6,563.4094 252.6,563.625 Q252.6,563.8313 252.3937,564.075 Q252.0938,564.4313 251.6156,564.6281 Q250.9875,564.9 250.2188,564.9 Q249.3188,564.9 248.5969,564.5437 Q248.0156,564.2625 247.6031,563.6531 Q247.2,563.0437 247.2,562.3219 L247.2,561.6656 Q247.2,560.9156 247.5562,560.2594 Q247.9219,559.6031 248.55,559.2563 Q249.1875,558.9 249.9,558.9 Q250.3312,558.9 250.7062,559.05 Q251.0812,559.2 251.4,559.5 Z " fill="#000000"/><text fill="#000000" font-family="sans-serif" font-size="7.2" lengthAdjust="spacing" textLength="61.2" x="258.6" y="564.5461">ConfidenceInterval</text><line style="stroke:#A80036;stroke-width:0.8999999999999999;" x1="241.8" x2="321" y1="571.2" y2="571.2"/><text fill="#000000" font-family="sans-serif" font-size="6.6" lengthAdjust="spacing" textLength="9.6" x="244.8" y="580.4514">-y0</text><text fill="#000000" font-family="sans-serif" font-size="6.6" lengthAdjust="spacing" textLength="27.6" x="244.8" y="588.7529">-auxDelta</text><text fill="#000000" font-family="sans-serif" font-size="6.6" lengthAdjust="spacing" textLength="50.4" x="244.8" y="597.0545">-confidenceLevel</text><text fill="#000000" font-family="sans-serif" font-size="6.6" lengthAdjust="spacing" textLength="16.2" x="244.8" y="605.3561">-delta</text><text fill="#000000" font-family="sans-serif" font-size="6.6" lengthAdjust="spacing" textLength="16.8" x="244.8" y="613.6576">-limInf</text><text fill="#000000" font-family="sans-serif" font-size="6.6" lengthAdjust="spacing" textLength="21" x="244.8" y="621.9592">-limSup</text><!--MD5=[679f3b7d58d6042ffd323d827f6737cf]
class NHSReportTask--><rect codeLine="83" fill="#FEFECE" filter="url(#f13hk0jam74ghw)" height="65.5078" id="NHSReportTask" style="stroke:#A80036;stroke-width:0.8999999999999999;" width="73.8" x="289.5" y="207.6"/><ellipse cx="298.77" cy="217.2" fill="#ADD1B2" rx="6.6" ry="6.6" style="stroke:#A80036;stroke-width:0.6;"/><path d="M299.97,215.1 Q300.0919,214.8 300.2325,214.65 Q300.3731,214.5 300.5325,214.5 Q300.8137,214.5 300.9919,214.6688 Q301.17,214.8375 301.17,215.2313 L301.17,216.1688 Q301.17,216.5625 301.0012,216.7313 Q300.8325,216.9 300.57,216.9 Q300.3356,216.9 300.1856,216.7969 Q300.0356,216.6938 299.97,216.4219 Q299.9419,216.2344 299.8388,216.1313 Q299.6513,215.9344 299.3137,215.8219 Q298.9763,215.7 298.6387,215.7 Q298.2169,215.7 297.8606,215.8688 Q297.5137,216.0375 297.2419,216.4125 Q296.97,216.7875 296.97,217.3031 L296.97,217.8563 Q296.97,218.475 297.4763,218.8875 Q297.9825,219.3 298.8825,219.3 Q299.4169,219.3 299.7919,219.1781 Q300.0075,219.1125 300.2512,218.8969 Q300.4106,218.775 300.495,218.7375 Q300.5794,218.7 300.6825,218.7 Q300.8794,218.7 301.02,218.8594 Q301.17,219.0094 301.17,219.225 Q301.17,219.4313 300.9638,219.675 Q300.6638,220.0313 300.1856,220.2281 Q299.5575,220.5 298.7888,220.5 Q297.8887,220.5 297.1669,220.1437 Q296.5856,219.8625 296.1731,219.2531 Q295.77,218.6437 295.77,217.9219 L295.77,217.2656 Q295.77,216.5156 296.1262,215.8594 Q296.4919,215.2031 297.12,214.8563 Q297.7575,214.5 298.47,214.5 Q298.9013,214.5 299.2763,214.65 Q299.6513,214.8 299.97,215.1 Z " fill="#000000"/><text fill="#000000" font-family="sans-serif" font-size="7.2" lengthAdjust="spacing" textLength="54" x="307.23" y="220.1461">NHSReportTask</text><line style="stroke:#A80036;stroke-width:0.8999999999999999;" x1="290.1" x2="362.7" y1="226.8" y2="226.8"/><text fill="#000000" font-family="sans-serif" font-size="6.6" lengthAdjust="spacing" textLength="66.6" x="293.1" y="236.0514">-regressionModelClass</text><text fill="#000000" font-family="sans-serif" font-size="6.6" lengthAdjust="spacing" textLength="45.6" x="293.1" y="244.3529">-historicalPoints</text><text fill="#000000" font-family="sans-serif" font-size="6.6" lengthAdjust="spacing" textLength="52.8" x="293.1" y="252.6545">-significanceLevel</text><text fill="#000000" font-family="sans-serif" font-size="6.6" lengthAdjust="spacing" textLength="50.4" x="293.1" y="260.9561">-confidenceLevel</text><text fill="#000000" font-family="sans-serif" font-size="6.6" lengthAdjust="spacing" textLength="36" x="293.1" y="269.2576">-dateInterval</text><!--MD5=[4e966c963453e3c35798fd39e036e3d7]
link NHSReportTask to NHSReport--><path codeLine="91" d="M289.434,272.388 C269.772,289.134 247.014,308.514 233.946,319.65 " fill="none" id="NHSReportTask-NHSReport" style="stroke:#A80036;stroke-width:0.6;"/><polygon fill="#000000" points="266.5162,298.4507,271.7911,296.2741,269.5043,293.5893,266.5162,298.4507" style="stroke:#000000;stroke-width:0.6;"/><text fill="#000000" font-family="sans-serif" font-size="7.8" lengthAdjust="spacing" textLength="24" x="274.2" y="299.6971">reports</text><text fill="#000000" font-family="sans-serif" font-size="7.8" lengthAdjust="spacing" textLength="4.2" x="280.4728" y="274.2171">1</text><text fill="#000000" font-family="sans-serif" font-size="7.8" lengthAdjust="spacing" textLength="12" x="223.5181" y="313.3623">1..*</text><!--MD5=[01558f40b86ad3407c4a50a817100da8]
link Company to Timer--><path codeLine="92" d="M354.462,94.938 C352.578,100.914 350.766,106.98 349.2,112.8 C346.584,122.502 344.358,133.812 342.96,141.516 " fill="none" id="Company-Timer" style="stroke:#A80036;stroke-width:0.6;"/><polygon fill="#000000" points="351.4808,121.218,354.4938,116.3719,351.0699,115.5265,351.4808,121.218" style="stroke:#000000;stroke-width:0.6;"/><text fill="#000000" font-family="sans-serif" font-size="7.8" lengthAdjust="spacing" textLength="22.2" x="357.6" y="121.4971">knows</text><text fill="#000000" font-family="sans-serif" font-size="7.8" lengthAdjust="spacing" textLength="4.2" x="348.6733" y="107.5271">1</text><text fill="#000000" font-family="sans-serif" font-size="7.8" lengthAdjust="spacing" textLength="4.2" x="338.5744" y="135.0705">1</text><!--MD5=[07a118b43d6a8ebecb40df72c7866273]
link NHSReportTask to NhsAPI--><path codeLine="94" d="M324.042,273.024 C323.736,282.318 323.778,292.476 324.6,301.8 C325.128,307.776 326.298,314.412 327.354,319.608 " fill="none" id="NHSReportTask-NhsAPI" style="stroke:#A80036;stroke-width:0.6;"/><polygon fill="#000000" points="327.8128,299.4979,329.1868,293.9595,325.669,294.2096,327.8128,299.4979" style="stroke:#000000;stroke-width:0.6;"/><text fill="#000000" font-family="sans-serif" font-size="7.8" lengthAdjust="spacing" textLength="46.8" x="333" y="299.6971">makes use of</text><text fill="#000000" font-family="sans-serif" font-size="7.8" lengthAdjust="spacing" textLength="3" x="320.5477" y="285.9354">*</text><text fill="#000000" font-family="sans-serif" font-size="7.8" lengthAdjust="spacing" textLength="4.2" x="321.7806" y="313.3064">1</text><!--MD5=[e0d1e07505e582841357f2ac6b32b3f0]
link NHSReport to NhsAPI--><path codeLine="95" d="M251.94,329.4 C269.388,329.4 291.312,329.4 307.38,329.4 " fill="none" id="NHSReport-NhsAPI" style="stroke:#A80036;stroke-width:0.6;"/><polygon fill="#000000" points="268.2,322.3055,262.7729,320.5421,262.7729,324.0688,268.2,322.3055" style="stroke:#000000;stroke-width:0.6;"/><text fill="#000000" font-family="sans-serif" font-size="7.8" lengthAdjust="spacing" textLength="25.8" x="270.6" y="325.4971">sent by</text><text fill="#000000" font-family="sans-serif" font-size="7.8" lengthAdjust="spacing" textLength="3" x="256.5705" y="327.1782">*</text><text fill="#000000" font-family="sans-serif" font-size="7.8" lengthAdjust="spacing" textLength="4.2" x="298.4314" y="326.9728">1</text><!--MD5=[1e1bea86187fd5c0a36de60e63fbe61a]
link NHSReport to RegressionModel--><path codeLine="96" d="M248.322,339.012 C268.056,347.628 294.036,362.748 305.4,385.8 C336.048,447.972 326.376,470.346 332.4,539.4 C336.222,583.236 349.482,597.852 332.4,638.4 C322.086,662.892 301.17,683.934 282.162,699.216 " fill="none" id="NHSReport-RegressionModel" style="stroke:#A80036;stroke-width:0.6;"/><polygon fill="#000000" points="333.8806,519.0923,335.1286,513.5241,331.6174,513.854,333.8806,519.0923" style="stroke:#000000;stroke-width:0.6;"/><text fill="#000000" font-family="sans-serif" font-size="7.8" lengthAdjust="spacing" textLength="12.6" x="339" y="519.2971">has</text><text fill="#000000" font-family="sans-serif" font-size="7.8" lengthAdjust="spacing" textLength="3" x="253.1468" y="351.918">*</text><text fill="#000000" font-family="sans-serif" font-size="7.8" lengthAdjust="spacing" textLength="4.2" x="286.675" y="694.2422">1</text><!--MD5=[8b5211240efe264c13d5ef595a4d03bb]
link NHSReport to HypothesisTest--><path codeLine="97" d="M194.604,330.312 C156.342,332.454 89.676,342.606 58.2,385.8 C26.052,429.918 31.794,495 41.292,539.394 " fill="none" id="NHSReport-HypothesisTest" style="stroke:#A80036;stroke-width:0.6;"/><polygon fill="#000000" points="59.426,441.7248,64.0572,438.3909,61.2132,436.3055,59.426,441.7248" style="stroke:#000000;stroke-width:0.6;"/><text fill="#000000" font-family="sans-serif" font-size="7.8" lengthAdjust="spacing" textLength="29.4" x="66.6" y="442.4971">contains</text><text fill="#000000" font-family="sans-serif" font-size="7.8" lengthAdjust="spacing" textLength="4.2" x="185.7037" y="328.2299">1</text><text fill="#000000" font-family="sans-serif" font-size="7.8" lengthAdjust="spacing" textLength="4.2" x="35.6163" y="532.9076">1</text><!--MD5=[547d65f66fccba149814dbcd0a782d42]
link NHSReport to SignificanceModelAnova--><path codeLine="98" d="M209.142,339.084 C202.692,343.806 195.36,350.04 190.2,357 C183.816,365.616 178.41,375.624 173.922,385.614 " fill="none" id="NHSReport-SignificanceModelAnova" style="stroke:#A80036;stroke-width:0.6;"/><polygon fill="#000000" points="191.3894,364.8975,196.0708,361.6345,193.2588,359.506,191.3894,364.8975" style="stroke:#000000;stroke-width:0.6;"/><text fill="#000000" font-family="sans-serif" font-size="7.8" lengthAdjust="spacing" textLength="29.4" x="198.6" y="365.6971">contains</text><text fill="#000000" font-family="sans-serif" font-size="7.8" lengthAdjust="spacing" textLength="4.2" x="199.7916" y="351.8315">1</text><text fill="#000000" font-family="sans-serif" font-size="7.8" lengthAdjust="spacing" textLength="4.2" x="170.9826" y="379.2758">1</text><!--MD5=[306e6753dd5938314f2cd068130fe945]
link Company to RegressionModel--><path codeLine="99" d="M386.832,95.004 C391.824,112.152 396,132.048 396,150.6 C396,150.6 396,150.6 396,589.5 C396,650.49 327.336,690.888 282.006,710.916 " fill="none" id="Company-RegressionModel" style="stroke:#A80036;stroke-width:0.6;"/><polygon fill="#000000" points="398.4966,332.4629,401.1456,327.4087,397.6689,326.817,398.4966,332.4629" style="stroke:#000000;stroke-width:0.6;"/><text fill="#000000" font-family="sans-serif" font-size="7.8" lengthAdjust="spacing" textLength="46.8" x="404.4" y="332.6971">makes use of</text><text fill="#000000" font-family="sans-serif" font-size="7.8" lengthAdjust="spacing" textLength="3" x="385.1324" y="107.4412">*</text><text fill="#000000" font-family="sans-serif" font-size="7.8" lengthAdjust="spacing" textLength="4.2" x="286.7589" y="707.0966">1</text><!--MD5=[3613c24fd87214899814450dc04493e5]
link HypothesisTest to RegressionModel--><path codeLine="100" d="M88.854,638.478 C97.428,648.804 107.19,659.028 117.6,667.2 C143.586,687.594 177.834,702.954 203.97,712.806 " fill="none" id="HypothesisTest-RegressionModel" style="stroke:#A80036;stroke-width:0.6;"/><polygon fill="#000000" points="123.1203,663.5328,119.5175,659.1076,117.6045,662.0703,123.1203,663.5328" style="stroke:#000000;stroke-width:0.6;"/><text fill="#000000" font-family="sans-serif" font-size="7.8" lengthAdjust="spacing" textLength="6" x="126" y="665.0971">of</text><text fill="#000000" font-family="sans-serif" font-size="7.8" lengthAdjust="spacing" textLength="3" x="88.4163" y="650.9281">*</text><text fill="#000000" font-family="sans-serif" font-size="7.8" lengthAdjust="spacing" textLength="4.2" x="195.0143" y="709.2052">1</text><!--MD5=[2924ce52b3cd3a70f6e893e26caf63a8]
link SignificanceModelAnova to RegressionModel--><path codeLine="101" d="M159.846,492.648 C163.662,533.502 171.9,590.91 189.6,638.4 C195.618,654.546 204.744,670.992 213.756,685.188 " fill="none" id="SignificanceModelAnova-RegressionModel" style="stroke:#A80036;stroke-width:0.6;"/><polygon fill="#000000" points="193.4089,591.8944,193.6437,586.1929,190.2476,587.1437,193.4089,591.8944" style="stroke:#000000;stroke-width:0.6;"/><text fill="#000000" font-family="sans-serif" font-size="7.8" lengthAdjust="spacing" textLength="6" x="198" y="592.1971">of</text><text fill="#000000" font-family="sans-serif" font-size="7.8" lengthAdjust="spacing" textLength="4.2" x="155.7445" y="505.7506">1</text><text fill="#000000" font-family="sans-serif" font-size="7.8" lengthAdjust="spacing" textLength="4.2" x="206.1278" y="678.6799">1</text><!--MD5=[c6acbac970cf27bd6d16a5c7db39602e]
link SignificanceModelAnova to HypothesisTest--><path codeLine="102" d="M107.394,492.75 C102.726,498.612 98.232,504.624 94.2,510.6 C88.164,519.546 82.452,529.554 77.364,539.334 " fill="none" id="SignificanceModelAnova-HypothesisTest" style="stroke:#A80036;stroke-width:0.6;"/><polygon fill="#000000" points="95.5745,518.627,99.9971,515.021,97.0329,513.1101,95.5745,518.627" style="stroke:#000000;stroke-width:0.6;"/><text fill="#000000" font-family="sans-serif" font-size="7.8" lengthAdjust="spacing" textLength="29.4" x="102.6" y="519.2971">contains</text><text fill="#000000" font-family="sans-serif" font-size="7.8" lengthAdjust="spacing" textLength="4.2" x="98.1436" y="496.0457">1</text><text fill="#000000" font-family="sans-serif" font-size="7.8" lengthAdjust="spacing" textLength="4.2" x="75.0137" y="532.8421">1</text><!--MD5=[0dcaa8173aedfc40b07273db6fb5ce96]
link NHSReport to TableOfValues--><path codeLine="103" d="M226.356,339.072 C232.074,355.488 244.302,390.618 252.588,414.438 " fill="none" id="NHSReport-TableOfValues" style="stroke:#A80036;stroke-width:0.6;"/><polygon fill="#000000" points="239.7862,365.3388,239.6675,359.6336,236.3368,360.7929,239.7862,365.3388" style="stroke:#000000;stroke-width:0.6;"/><text fill="#000000" font-family="sans-serif" font-size="7.8" lengthAdjust="spacing" textLength="29.4" x="244.2" y="365.6971">contains</text><text fill="#000000" font-family="sans-serif" font-size="7.8" lengthAdjust="spacing" textLength="4.2" x="222.4926" y="351.8156">1</text><text fill="#000000" font-family="sans-serif" font-size="7.8" lengthAdjust="spacing" textLength="4.2" x="246.647" y="408.0808">1</text><!--MD5=[60801c19033a4adc54741325ca863d30]
link TableOfValues to RegressionModel--><path codeLine="104" d="M246.366,463.938 C235.41,483.498 221.334,512.178 215.4,539.4 C206.028,582.39 208.692,594.912 215.4,638.4 C217.8,653.952 222.474,670.53 227.298,685.02 " fill="none" id="TableOfValues-RegressionModel" style="stroke:#A80036;stroke-width:0.6;"/><polygon fill="#000000" points="218.1422,591.9944,220.3654,586.7389,216.8517,586.4359,218.1422,591.9944" style="stroke:#000000;stroke-width:0.6;"/><text fill="#000000" font-family="sans-serif" font-size="7.8" lengthAdjust="spacing" textLength="6" x="223.8" y="592.1971">of</text><text fill="#000000" font-family="sans-serif" font-size="7.8" lengthAdjust="spacing" textLength="4.2" x="239.7082" y="476.4106">1</text><text fill="#000000" font-family="sans-serif" font-size="7.8" lengthAdjust="spacing" textLength="4.2" x="221.2622" y="678.7805">1</text><!--MD5=[fbf6af04bdbd2e53a8939c56935774d0]
link TableOfValues to ConfidenceInterval--><path codeLine="105" d="M264.3,463.824 C267.57,487.632 272.622,524.4 276.39,551.814 " fill="none" id="TableOfValues-ConfidenceInterval" style="stroke:#A80036;stroke-width:0.6;"/><polygon fill="#000000" points="275.8084,519.0775,276.8166,513.461,273.3227,513.941,275.8084,519.0775" style="stroke:#000000;stroke-width:0.6;"/><text fill="#000000" font-family="sans-serif" font-size="7.8" lengthAdjust="spacing" textLength="29.4" x="280.8" y="519.2971">contains</text><text fill="#000000" font-family="sans-serif" font-size="7.8" lengthAdjust="spacing" textLength="4.2" x="260.2838" y="476.4654">1</text><text fill="#000000" font-family="sans-serif" font-size="7.8" lengthAdjust="spacing" textLength="3" x="272.6373" y="545.4797">*</text><!--MD5=[e9ea997fd01ddd5be83691ad6dfc4b93]
link ConfidenceInterval to RegressionModel--><path codeLine="106" d="M271.158,625.818 C266.004,644.1 259.74,666.324 254.43,685.164 " fill="none" id="ConfidenceInterval-RegressionModel" style="stroke:#A80036;stroke-width:0.6;"/><polygon fill="#000000" points="264.3861,664.793,267.5557,660.0478,264.1612,659.091,264.3861,664.793" style="stroke:#000000;stroke-width:0.6;"/><text fill="#000000" font-family="sans-serif" font-size="7.8" lengthAdjust="spacing" textLength="6" x="270.6" y="665.0971">of</text><text fill="#000000" font-family="sans-serif" font-size="7.8" lengthAdjust="spacing" textLength="3" x="266.8003" y="638.7504">*</text><text fill="#000000" font-family="sans-serif" font-size="7.8" lengthAdjust="spacing" textLength="4.2" x="251.2505" y="678.6532">1</text><!--MD5=[2d6e9e001c0bf2f7f3a5c6201f06070c]
link Timer to NHSReportTask--><path codeLine="107" d="M339.456,161.028 C338.382,166.236 337.062,172.872 336,178.8 C334.332,188.124 332.67,198.282 331.212,207.576 " fill="none" id="Timer-NHSReportTask" style="stroke:#A80036;stroke-width:0.6;"/><polygon fill="#000000" points="338.4768,187.2595,341.1596,182.2231,337.6869,181.6081,338.4768,187.2595" style="stroke:#000000;stroke-width:0.6;"/><text fill="#000000" font-family="sans-serif" font-size="7.8" lengthAdjust="spacing" textLength="35.4" x="344.4" y="187.4971">schedules</text><text fill="#000000" font-family="sans-serif" font-size="7.8" lengthAdjust="spacing" textLength="4.2" x="334.0175" y="173.6372">1</text><text fill="#000000" font-family="sans-serif" font-size="7.8" lengthAdjust="spacing" textLength="3" x="328.657" y="201.0377">*</text><!--MD5=[92bc4b3f76584b025e56a507d792495f]
@startuml

skinparam classAttributeIconSize 0
hide empty methods
hide empty attributes

class Company {
-designation
-classNameForBarcodeApi
-classNameForSortAlgorithm
-regressionModelCLass
-dateInterval
-historicalPoints
-confidenceLevel
-significanceLevel
}

class Timer {}

class NhsAPI{}

class NHSReport {}

class RegressionModel {
-intercept
-slope
-secondIndVariable
-r
-r2
-r2Adjusted
-numberOfObservations
}

/'class ConfigFile {}'/

'The interval of dates to fit the regression model
/'class IntervalOfDates {}'/

'Number of days and number of weeks
/'class NumberOfHistoricalPoints {}'/

'hypothesis tests for regression coefficients
class HypothesisTest {
-tObsA
-tObsB
-tObsC
-significanceLevel
-critTD
-f
-critFD
-numeratorDegreesOfFreedom
-denominatorDegreesOfFreedom
}

'significance model with Anova.
class SignificanceModelAnova {
-significanceLevel
-sr
-se
-st
-mr
-me
-f
-degFreedomSr
-degFreedomSe
-degFreedomSt
}

class TableOfValues {
-dates
-observedPositives
-estimatedPositives
}

class ConfidenceInterval {
-y0
-auxDelta
-confidenceLevel
-delta
-limInf
-limSup
}

class NHSReportTask {
-regressionModelClass
-historicalPoints
-significanceLevel
-confidenceLevel
-dateInterval
}

NHSReportTask "1" - - "1..*" NHSReport : reports >
Company "1" - - "1" Timer : knows >
/'Company "*" - "1" NhsAPI : makes use of >'/
NHSReportTask "*" - "1" NhsAPI : makes use of >
NHSReport "*" - "1" NhsAPI : sent by >
NHSReport "*" - - "1" RegressionModel : has >
NHSReport "1" - - "1" HypothesisTest : contains >
NHSReport "1" - - "1" SignificanceModelAnova : contains >
Company "*" - - "1" RegressionModel : makes use of >
HypothesisTest "*" - - "1" RegressionModel : of >
SignificanceModelAnova "1" - - "1" RegressionModel : of >
SignificanceModelAnova "1" - - "1" HypothesisTest : contains >
NHSReport "1" - - "1" TableOfValues : contains >
TableOfValues "1" - - "1" RegressionModel : of >
TableOfValues "1" - - "*" ConfidenceInterval : contains >
ConfidenceInterval "*" - - "1" RegressionModel : of >
Timer "1" - - "*" NHSReportTask : schedules >
/'NHSReportTask "1" - - "1" RegressionModel : makes use of >'/
/'NHSReportTask "*" - - "1" RegressionModel : makes use of >'/


'ANTIGO
/'NHSReportTask "1" - - "1..*" NHSReport : reports >
Company "1" - - "1" Timer : knows >
Company "*" - "1" NhsAPI : makes use of >'/
/'NHSReportTask "*" - - "1" NhsAPI : makes use of >'/
/'NHSReport "*" - - "1" NhsAPI : sent by >
NHSReport "*" - - "1" RegressionModel : has >
NHSReport "1" - - "1" HypothesisTest : contains >
NHSReport "1" - - "1" SignificanceModelAnova : contains >
Company "*" - - "1" RegressionModel : makes use of >
HypothesisTest "*" - - "1" RegressionModel : of >
SignificanceModelAnova "1" - - "1" RegressionModel : of >
SignificanceModelAnova "1" - - "1" HypothesisTest : contains >
NHSReport "1" - - "1" TableOfValues : contains >
TableOfValues "1" - - "1" RegressionModel : of >
TableOfValues "1" - - "*" ConfidenceInterval : contains >
ConfidenceInterval "*" - - "1" RegressionModel : of >
Timer "1" - "*" NHSReportTask : schedules >
NHSReportTask "1" - - "1" RegressionModel : makes use of >'/
/'NHSReportTask "*" - - "1" RegressionModel : makes use of >'/

'Apagar posteriormente
/'RegressionModel "1" - - "1" ConfigFile : defined by >
IntervalOfDates "1" - - "1" ConfigFile : defined by >
NumberOfHistoricalPoints "1" - - "1" ConfigFile : defined by >'/



@enduml

@startuml

skinparam classAttributeIconSize 0
hide empty methods
hide empty attributes

class Company {
-designation
-classNameForBarcodeApi
-classNameForSortAlgorithm
-regressionModelCLass
-dateInterval
-historicalPoints
-confidenceLevel
-significanceLevel
}

class Timer {}

class NhsAPI{}

class NHSReport {}

class RegressionModel {
-intercept
-slope
-secondIndVariable
-r
-r2
-r2Adjusted
-numberOfObservations
}




class HypothesisTest {
-tObsA
-tObsB
-tObsC
-significanceLevel
-critTD
-f
-critFD
-numeratorDegreesOfFreedom
-denominatorDegreesOfFreedom
}

class SignificanceModelAnova {
-significanceLevel
-sr
-se
-st
-mr
-me
-f
-degFreedomSr
-degFreedomSe
-degFreedomSt
}

class TableOfValues {
-dates
-observedPositives
-estimatedPositives
}

class ConfidenceInterval {
-y0
-auxDelta
-confidenceLevel
-delta
-limInf
-limSup
}

class NHSReportTask {
-regressionModelClass
-historicalPoints
-significanceLevel
-confidenceLevel
-dateInterval
}

NHSReportTask "1" - - "1..*" NHSReport : reports >
Company "1" - - "1" Timer : knows >
NHSReportTask "*" - "1" NhsAPI : makes use of >
NHSReport "*" - "1" NhsAPI : sent by >
NHSReport "*" - - "1" RegressionModel : has >
NHSReport "1" - - "1" HypothesisTest : contains >
NHSReport "1" - - "1" SignificanceModelAnova : contains >
Company "*" - - "1" RegressionModel : makes use of >
HypothesisTest "*" - - "1" RegressionModel : of >
SignificanceModelAnova "1" - - "1" RegressionModel : of >
SignificanceModelAnova "1" - - "1" HypothesisTest : contains >
NHSReport "1" - - "1" TableOfValues : contains >
TableOfValues "1" - - "1" RegressionModel : of >
TableOfValues "1" - - "*" ConfidenceInterval : contains >
ConfidenceInterval "*" - - "1" RegressionModel : of >
Timer "1" - - "*" NHSReportTask : schedules >






@enduml

PlantUML version 1.2021.4(Sun Apr 04 09:49:39 BST 2021)
(GPL source distribution)
Java Runtime: OpenJDK Runtime Environment
JVM: OpenJDK 64-Bit Server VM
Default Encoding: Cp1252
Language: pt
Country: PT
--></g></svg>