<?xml version="1.0" encoding="UTF-8" standalone="no"?><svg xmlns="http://www.w3.org/2000/svg" xmlns:xlink="http://www.w3.org/1999/xlink" contentScriptType="application/ecmascript" contentStyleType="text/css" height="709.2px" preserveAspectRatio="none" style="width:498px;height:709px;" version="1.1" viewBox="0 0 498 709" width="498.6px" zoomAndPan="magnify"><defs><filter height="300%" id="fziojaqm46m" width="300%" x="-1" y="-1"><feGaussianBlur result="blurOut" stdDeviation="1.2"/><feColorMatrix in="blurOut" result="blurOut2" type="matrix" values="0 0 0 0 0 0 0 0 0 0 0 0 0 0 0 0 0 0 .4 0"/><feOffset dx="2.4" dy="2.4" in="blurOut2" result="blurOut3"/><feBlend in="SourceGraphic" in2="blurOut3" mode="normal"/></filter></defs><g><!--MD5=[02e4b9b7573f1156f41e60aa5b4e25a4]
class Company--><rect codeLine="6" fill="#FEFECE" filter="url(#fziojaqm46m)" height="90.4125" id="Company" style="stroke:#A80036;stroke-width:0.8999999999999999;" width="90" x="33.5268" y="4.2"/><ellipse cx="60.0768" cy="13.8" fill="#ADD1B2" rx="6.6" ry="6.6" style="stroke:#A80036;stroke-width:0.6;"/><path d="M61.2768,11.7 Q61.3987,11.4 61.5393,11.25 Q61.68,11.1 61.8393,11.1 Q62.1206,11.1 62.2987,11.2687 Q62.4768,11.4375 62.4768,11.8312 L62.4768,12.7687 Q62.4768,13.1625 62.3081,13.3312 Q62.1393,13.5 61.8768,13.5 Q61.6425,13.5 61.4925,13.3969 Q61.3425,13.2938 61.2768,13.0219 Q61.2487,12.8344 61.1456,12.7313 Q60.9581,12.5344 60.6206,12.4219 Q60.2831,12.3 59.9456,12.3 Q59.5237,12.3 59.1675,12.4688 Q58.8206,12.6375 58.5487,13.0125 Q58.2768,13.3875 58.2768,13.9031 L58.2768,14.4562 Q58.2768,15.075 58.7831,15.4875 Q59.2893,15.9 60.1893,15.9 Q60.7237,15.9 61.0987,15.7781 Q61.3143,15.7125 61.5581,15.4969 Q61.7175,15.375 61.8018,15.3375 Q61.8862,15.3 61.9893,15.3 Q62.1862,15.3 62.3268,15.4594 Q62.4768,15.6094 62.4768,15.825 Q62.4768,16.0313 62.2706,16.275 Q61.9706,16.6312 61.4925,16.8281 Q60.8643,17.1 60.0956,17.1 Q59.1956,17.1 58.4737,16.7438 Q57.8925,16.4625 57.48,15.8531 Q57.0768,15.2437 57.0768,14.5219 L57.0768,13.8656 Q57.0768,13.1156 57.4331,12.4594 Q57.7987,11.8031 58.4268,11.4562 Q59.0643,11.1 59.7768,11.1 Q60.2081,11.1 60.5831,11.25 Q60.9581,11.4 61.2768,11.7 Z " fill="#000000"/><text fill="#000000" font-family="sans-serif" font-size="7.2" lengthAdjust="spacing" textLength="31.8" x="72.3768" y="16.7461">Company</text><line style="stroke:#A80036;stroke-width:0.8999999999999999;" x1="34.1268" x2="122.9268" y1="23.4" y2="23.4"/><text fill="#000000" font-family="sans-serif" font-size="6.6" lengthAdjust="spacing" textLength="35.4" x="37.1268" y="32.6514">-designation</text><text fill="#000000" font-family="sans-serif" font-size="6.6" lengthAdjust="spacing" textLength="78" x="37.1268" y="40.9529">-classNameForBarcodeApi</text><text fill="#000000" font-family="sans-serif" font-size="6.6" lengthAdjust="spacing" textLength="82.8" x="37.1268" y="49.2545">-classNameForSortAlgorithm</text><text fill="#000000" font-family="sans-serif" font-size="6.6" lengthAdjust="spacing" textLength="69" x="37.1268" y="57.5561">-regressionModelCLass</text><text fill="#000000" font-family="sans-serif" font-size="6.6" lengthAdjust="spacing" textLength="36" x="37.1268" y="65.8576">-dateInterval</text><text fill="#000000" font-family="sans-serif" font-size="6.6" lengthAdjust="spacing" textLength="45.6" x="37.1268" y="74.1592">-historicalPoints</text><text fill="#000000" font-family="sans-serif" font-size="6.6" lengthAdjust="spacing" textLength="50.4" x="37.1268" y="82.4607">-confidenceLevel</text><text fill="#000000" font-family="sans-serif" font-size="6.6" lengthAdjust="spacing" textLength="52.8" x="37.1268" y="90.7623">-significanceLevel</text><!--MD5=[1b844c90688aafb95cd8c95626c3b83a]
class Timer--><rect codeLine="17" fill="#FEFECE" filter="url(#fziojaqm46m)" height="19.2" id="Timer" style="stroke:#A80036;stroke-width:0.8999999999999999;" width="38.4" x="110.3268" y="164.7"/><ellipse cx="119.3268" cy="174.3" fill="#ADD1B2" rx="6.6" ry="6.6" style="stroke:#A80036;stroke-width:0.6;"/><path d="M120.5268,172.2 Q120.6487,171.9 120.7893,171.75 Q120.93,171.6 121.0893,171.6 Q121.3706,171.6 121.5487,171.7687 Q121.7268,171.9375 121.7268,172.3312 L121.7268,173.2687 Q121.7268,173.6625 121.5581,173.8312 Q121.3893,174 121.1268,174 Q120.8925,174 120.7425,173.8969 Q120.5925,173.7938 120.5268,173.5219 Q120.4987,173.3344 120.3956,173.2313 Q120.2081,173.0344 119.8706,172.9219 Q119.5331,172.8 119.1956,172.8 Q118.7737,172.8 118.4175,172.9688 Q118.0706,173.1375 117.7987,173.5125 Q117.5268,173.8875 117.5268,174.4031 L117.5268,174.9562 Q117.5268,175.575 118.0331,175.9875 Q118.5393,176.4 119.4393,176.4 Q119.9737,176.4 120.3487,176.2781 Q120.5643,176.2125 120.8081,175.9969 Q120.9675,175.875 121.0518,175.8375 Q121.1362,175.8 121.2393,175.8 Q121.4362,175.8 121.5768,175.9594 Q121.7268,176.1094 121.7268,176.325 Q121.7268,176.5313 121.5206,176.775 Q121.2206,177.1313 120.7425,177.3281 Q120.1143,177.6 119.3456,177.6 Q118.4456,177.6 117.7237,177.2438 Q117.1425,176.9625 116.73,176.3531 Q116.3268,175.7438 116.3268,175.0219 L116.3268,174.3656 Q116.3268,173.6156 116.6831,172.9594 Q117.0487,172.3031 117.6768,171.9562 Q118.3143,171.6 119.0268,171.6 Q119.4581,171.6 119.8331,171.75 Q120.2081,171.9 120.5268,172.2 Z " fill="#000000"/><text fill="#000000" font-family="sans-serif" font-size="7.2" lengthAdjust="spacing" textLength="19.2" x="127.7268" y="177.2461">Timer</text><!--MD5=[db86e106e83ea9efd94d1461be461932]
class NhsAPI--><rect codeLine="19" fill="#FEFECE" filter="url(#fziojaqm46m)" height="19.2" id="NhsAPI" style="stroke:#A80036;stroke-width:0.8999999999999999;" width="43.8" x="59.0268" y="363.6"/><ellipse cx="68.0268" cy="373.2" fill="#ADD1B2" rx="6.6" ry="6.6" style="stroke:#A80036;stroke-width:0.6;"/><path d="M69.2268,371.1 Q69.3487,370.8 69.4893,370.65 Q69.63,370.5 69.7893,370.5 Q70.0706,370.5 70.2487,370.6688 Q70.4268,370.8375 70.4268,371.2313 L70.4268,372.1688 Q70.4268,372.5625 70.2581,372.7313 Q70.0893,372.9 69.8268,372.9 Q69.5925,372.9 69.4425,372.7969 Q69.2925,372.6937 69.2268,372.4219 Q69.1987,372.2344 69.0956,372.1312 Q68.9081,371.9344 68.5706,371.8219 Q68.2331,371.7 67.8956,371.7 Q67.4737,371.7 67.1175,371.8688 Q66.7706,372.0375 66.4987,372.4125 Q66.2268,372.7875 66.2268,373.3031 L66.2268,373.8563 Q66.2268,374.475 66.7331,374.8875 Q67.2393,375.3 68.1393,375.3 Q68.6737,375.3 69.0487,375.1781 Q69.2643,375.1125 69.5081,374.8969 Q69.6675,374.775 69.7518,374.7375 Q69.8362,374.7 69.9393,374.7 Q70.1362,374.7 70.2768,374.8594 Q70.4268,375.0094 70.4268,375.225 Q70.4268,375.4313 70.2206,375.675 Q69.9206,376.0313 69.4425,376.2281 Q68.8143,376.5 68.0456,376.5 Q67.1456,376.5 66.4237,376.1438 Q65.8425,375.8625 65.43,375.2531 Q65.0268,374.6438 65.0268,373.9219 L65.0268,373.2656 Q65.0268,372.5156 65.3831,371.8594 Q65.7487,371.2031 66.3768,370.8563 Q67.0143,370.5 67.7268,370.5 Q68.1581,370.5 68.5331,370.65 Q68.9081,370.8 69.2268,371.1 Z " fill="#000000"/><text fill="#000000" font-family="sans-serif" font-size="7.2" lengthAdjust="spacing" textLength="24.6" x="76.4268" y="376.1461">NhsAPI</text><!--MD5=[74783ec010d186752c4ffd5c6de5633a]
class NHSReport--><rect codeLine="21" fill="#FEFECE" filter="url(#fziojaqm46m)" height="19.2" id="NHSReport" style="stroke:#A80036;stroke-width:0.8999999999999999;" width="57" x="203.6268" y="253.8"/><ellipse cx="212.6268" cy="263.4" fill="#ADD1B2" rx="6.6" ry="6.6" style="stroke:#A80036;stroke-width:0.6;"/><path d="M213.8268,261.3 Q213.9487,261 214.0893,260.85 Q214.23,260.7 214.3893,260.7 Q214.6706,260.7 214.8487,260.8688 Q215.0268,261.0375 215.0268,261.4313 L215.0268,262.3688 Q215.0268,262.7625 214.8581,262.9313 Q214.6893,263.1 214.4268,263.1 Q214.1925,263.1 214.0425,262.9969 Q213.8925,262.8938 213.8268,262.6219 Q213.7987,262.4344 213.6956,262.3313 Q213.5081,262.1344 213.1706,262.0219 Q212.8331,261.9 212.4956,261.9 Q212.0737,261.9 211.7175,262.0687 Q211.3706,262.2375 211.0987,262.6125 Q210.8268,262.9875 210.8268,263.5031 L210.8268,264.0563 Q210.8268,264.675 211.3331,265.0875 Q211.8393,265.5 212.7393,265.5 Q213.2737,265.5 213.6487,265.3781 Q213.8643,265.3125 214.1081,265.0969 Q214.2675,264.975 214.3518,264.9375 Q214.4362,264.9 214.5393,264.9 Q214.7362,264.9 214.8768,265.0594 Q215.0268,265.2094 215.0268,265.425 Q215.0268,265.6312 214.8206,265.875 Q214.5206,266.2313 214.0425,266.4281 Q213.4143,266.7 212.6456,266.7 Q211.7456,266.7 211.0237,266.3438 Q210.4425,266.0625 210.03,265.4531 Q209.6268,264.8438 209.6268,264.1219 L209.6268,263.4656 Q209.6268,262.7156 209.9831,262.0594 Q210.3487,261.4031 210.9768,261.0563 Q211.6143,260.7 212.3268,260.7 Q212.7581,260.7 213.1331,260.85 Q213.5081,261 213.8268,261.3 Z " fill="#000000"/><text fill="#000000" font-family="sans-serif" font-size="7.2" lengthAdjust="spacing" textLength="37.8" x="221.0268" y="266.3461">NHSReport</text><!--MD5=[f9bf174dd5fcee0192f6251129b9c376]
class RegressionModel--><rect codeLine="23" fill="#FEFECE" filter="url(#fziojaqm46m)" height="82.1109" id="RegressionModel" style="stroke:#A80036;stroke-width:0.8999999999999999;" width="78" x="187.1268" y="619.2"/><ellipse cx="196.1268" cy="628.8" fill="#ADD1B2" rx="6.6" ry="6.6" style="stroke:#A80036;stroke-width:0.6;"/><path d="M197.3268,626.7 Q197.4487,626.4 197.5893,626.25 Q197.73,626.1 197.8893,626.1 Q198.1706,626.1 198.3487,626.2688 Q198.5268,626.4375 198.5268,626.8313 L198.5268,627.7688 Q198.5268,628.1625 198.3581,628.3313 Q198.1893,628.5 197.9268,628.5 Q197.6925,628.5 197.5425,628.3969 Q197.3925,628.2937 197.3268,628.0219 Q197.2987,627.8344 197.1956,627.7312 Q197.0081,627.5344 196.6706,627.4219 Q196.3331,627.3 195.9956,627.3 Q195.5737,627.3 195.2175,627.4688 Q194.8706,627.6375 194.5987,628.0125 Q194.3268,628.3875 194.3268,628.9031 L194.3268,629.4563 Q194.3268,630.075 194.8331,630.4875 Q195.3393,630.9 196.2393,630.9 Q196.7737,630.9 197.1487,630.7781 Q197.3643,630.7125 197.6081,630.4969 Q197.7675,630.375 197.8518,630.3375 Q197.9362,630.3 198.0393,630.3 Q198.2362,630.3 198.3768,630.4594 Q198.5268,630.6094 198.5268,630.825 Q198.5268,631.0313 198.3206,631.275 Q198.0206,631.6313 197.5425,631.8281 Q196.9143,632.1 196.1456,632.1 Q195.2456,632.1 194.5237,631.7438 Q193.9425,631.4625 193.53,630.8531 Q193.1268,630.2438 193.1268,629.5219 L193.1268,628.8656 Q193.1268,628.1156 193.4831,627.4594 Q193.8487,626.8031 194.4768,626.4563 Q195.1143,626.1 195.8268,626.1 Q196.2581,626.1 196.6331,626.25 Q197.0081,626.4 197.3268,626.7 Z " fill="#000000"/><text fill="#000000" font-family="sans-serif" font-size="7.2" lengthAdjust="spacing" textLength="58.8" x="204.5268" y="631.7461">RegressionModel</text><line style="stroke:#A80036;stroke-width:0.8999999999999999;" x1="187.7268" x2="264.5268" y1="638.4" y2="638.4"/><text fill="#000000" font-family="sans-serif" font-size="6.6" lengthAdjust="spacing" textLength="27.6" x="190.7268" y="647.6514">-intercept</text><text fill="#000000" font-family="sans-serif" font-size="6.6" lengthAdjust="spacing" textLength="18" x="190.7268" y="655.9529">-slope</text><text fill="#000000" font-family="sans-serif" font-size="6.6" lengthAdjust="spacing" textLength="56.4" x="190.7268" y="664.2545">-secondIndVariable</text><text fill="#000000" font-family="sans-serif" font-size="6.6" lengthAdjust="spacing" textLength="4.8" x="190.7268" y="672.5561">-r</text><text fill="#000000" font-family="sans-serif" font-size="6.6" lengthAdjust="spacing" textLength="8.4" x="190.7268" y="680.8576">-r2</text><text fill="#000000" font-family="sans-serif" font-size="6.6" lengthAdjust="spacing" textLength="34.2" x="190.7268" y="689.1592">-r2Adjusted</text><text fill="#000000" font-family="sans-serif" font-size="6.6" lengthAdjust="spacing" textLength="70.2" x="190.7268" y="697.4607">-numberOfObservations</text><!--MD5=[dfe7672a7c242e7ff03cfd775649b5cb]
class HypothesisTest--><rect codeLine="42" fill="#FEFECE" filter="url(#fziojaqm46m)" height="98.7141" id="HypothesisTest" style="stroke:#A80036;stroke-width:0.8999999999999999;" width="102" x="257.9268" y="473.4"/><ellipse cx="280.9668" cy="483" fill="#ADD1B2" rx="6.6" ry="6.6" style="stroke:#A80036;stroke-width:0.6;"/><path d="M282.1668,480.9 Q282.2887,480.6 282.4293,480.45 Q282.57,480.3 282.7293,480.3 Q283.0106,480.3 283.1887,480.4688 Q283.3668,480.6375 283.3668,481.0313 L283.3668,481.9688 Q283.3668,482.3625 283.1981,482.5313 Q283.0293,482.7 282.7668,482.7 Q282.5325,482.7 282.3825,482.5969 Q282.2325,482.4938 282.1668,482.2219 Q282.1387,482.0344 282.0356,481.9313 Q281.8481,481.7344 281.5106,481.6219 Q281.1731,481.5 280.8356,481.5 Q280.4137,481.5 280.0575,481.6688 Q279.7106,481.8375 279.4387,482.2125 Q279.1668,482.5875 279.1668,483.1031 L279.1668,483.6563 Q279.1668,484.275 279.6731,484.6875 Q280.1793,485.1 281.0793,485.1 Q281.6137,485.1 281.9887,484.9781 Q282.2043,484.9125 282.4481,484.6969 Q282.6075,484.575 282.6918,484.5375 Q282.7762,484.5 282.8793,484.5 Q283.0762,484.5 283.2168,484.6594 Q283.3668,484.8094 283.3668,485.025 Q283.3668,485.2313 283.1606,485.475 Q282.8606,485.8312 282.3825,486.0281 Q281.7543,486.3 280.9856,486.3 Q280.0856,486.3 279.3637,485.9437 Q278.7825,485.6625 278.37,485.0531 Q277.9668,484.4437 277.9668,483.7219 L277.9668,483.0656 Q277.9668,482.3156 278.3231,481.6594 Q278.6887,481.0031 279.3168,480.6563 Q279.9543,480.3 280.6668,480.3 Q281.0981,480.3 281.4731,480.45 Q281.8481,480.6 282.1668,480.9 Z " fill="#000000"/><text fill="#000000" font-family="sans-serif" font-size="7.2" lengthAdjust="spacing" textLength="51.6" x="292.4868" y="485.9461">HypothesisTest</text><line style="stroke:#A80036;stroke-width:0.8999999999999999;" x1="258.5268" x2="359.3268" y1="492.6" y2="492.6"/><text fill="#000000" font-family="sans-serif" font-size="6.6" lengthAdjust="spacing" textLength="21" x="261.5268" y="501.8514">-tObsA</text><text fill="#000000" font-family="sans-serif" font-size="6.6" lengthAdjust="spacing" textLength="20.4" x="261.5268" y="510.1529">-tObsB</text><text fill="#000000" font-family="sans-serif" font-size="6.6" lengthAdjust="spacing" textLength="20.4" x="261.5268" y="518.4545">-tObsC</text><text fill="#000000" font-family="sans-serif" font-size="6.6" lengthAdjust="spacing" textLength="52.8" x="261.5268" y="526.7561">-significanceLevel</text><text fill="#000000" font-family="sans-serif" font-size="6.6" lengthAdjust="spacing" textLength="19.2" x="261.5268" y="535.0576">-critTD</text><text fill="#000000" font-family="sans-serif" font-size="6.6" lengthAdjust="spacing" textLength="4.8" x="261.5268" y="543.3592">-f</text><text fill="#000000" font-family="sans-serif" font-size="6.6" lengthAdjust="spacing" textLength="19.2" x="261.5268" y="551.6607">-critFD</text><text fill="#000000" font-family="sans-serif" font-size="6.6" lengthAdjust="spacing" textLength="88.8" x="261.5268" y="559.9623">-numeratorDegreesOfFreedom</text><text fill="#000000" font-family="sans-serif" font-size="6.6" lengthAdjust="spacing" textLength="94.8" x="261.5268" y="568.2639">-denominatorDegreesOfFreedom</text><!--MD5=[39ee656b41ae4892150ca74368648c0e]
class SignificanceModelAnova--><rect codeLine="55" fill="#FEFECE" filter="url(#fziojaqm46m)" height="107.0156" id="SignificanceModelAnova" style="stroke:#A80036;stroke-width:0.8999999999999999;" width="99" x="338.6268" y="319.8"/><ellipse cx="347.6268" cy="329.4" fill="#ADD1B2" rx="6.6" ry="6.6" style="stroke:#A80036;stroke-width:0.6;"/><path d="M348.8268,327.3 Q348.9487,327 349.0893,326.85 Q349.23,326.7 349.3893,326.7 Q349.6706,326.7 349.8487,326.8688 Q350.0268,327.0375 350.0268,327.4313 L350.0268,328.3688 Q350.0268,328.7625 349.8581,328.9313 Q349.6893,329.1 349.4268,329.1 Q349.1925,329.1 349.0425,328.9969 Q348.8925,328.8938 348.8268,328.6219 Q348.7987,328.4344 348.6956,328.3313 Q348.5081,328.1344 348.1706,328.0219 Q347.8331,327.9 347.4956,327.9 Q347.0737,327.9 346.7175,328.0687 Q346.3706,328.2375 346.0987,328.6125 Q345.8268,328.9875 345.8268,329.5031 L345.8268,330.0563 Q345.8268,330.675 346.3331,331.0875 Q346.8393,331.5 347.7393,331.5 Q348.2737,331.5 348.6487,331.3781 Q348.8643,331.3125 349.1081,331.0969 Q349.2675,330.975 349.3518,330.9375 Q349.4362,330.9 349.5393,330.9 Q349.7362,330.9 349.8768,331.0594 Q350.0268,331.2094 350.0268,331.425 Q350.0268,331.6312 349.8206,331.875 Q349.5206,332.2313 349.0425,332.4281 Q348.4143,332.7 347.6456,332.7 Q346.7456,332.7 346.0237,332.3438 Q345.4425,332.0625 345.03,331.4531 Q344.6268,330.8438 344.6268,330.1219 L344.6268,329.4656 Q344.6268,328.7156 344.9831,328.0594 Q345.3487,327.4031 345.9768,327.0563 Q346.6143,326.7 347.3268,326.7 Q347.7581,326.7 348.1331,326.85 Q348.5081,327 348.8268,327.3 Z " fill="#000000"/><text fill="#000000" font-family="sans-serif" font-size="7.2" lengthAdjust="spacing" textLength="79.8" x="356.0268" y="332.3461">SignificanceModelAnova</text><line style="stroke:#A80036;stroke-width:0.8999999999999999;" x1="339.2268" x2="437.0268" y1="339" y2="339"/><text fill="#000000" font-family="sans-serif" font-size="6.6" lengthAdjust="spacing" textLength="52.8" x="342.2268" y="348.2514">-significanceLevel</text><text fill="#000000" font-family="sans-serif" font-size="6.6" lengthAdjust="spacing" textLength="8.4" x="342.2268" y="356.5529">-sr</text><text fill="#000000" font-family="sans-serif" font-size="6.6" lengthAdjust="spacing" textLength="9.6" x="342.2268" y="364.8545">-se</text><text fill="#000000" font-family="sans-serif" font-size="6.6" lengthAdjust="spacing" textLength="7.8" x="342.2268" y="373.1561">-st</text><text fill="#000000" font-family="sans-serif" font-size="6.6" lengthAdjust="spacing" textLength="9.6" x="342.2268" y="381.4576">-mr</text><text fill="#000000" font-family="sans-serif" font-size="6.6" lengthAdjust="spacing" textLength="10.8" x="342.2268" y="389.7592">-me</text><text fill="#000000" font-family="sans-serif" font-size="6.6" lengthAdjust="spacing" textLength="4.8" x="342.2268" y="398.0607">-f</text><text fill="#000000" font-family="sans-serif" font-size="6.6" lengthAdjust="spacing" textLength="45" x="342.2268" y="406.3623">-degFreedomSr</text><text fill="#000000" font-family="sans-serif" font-size="6.6" lengthAdjust="spacing" textLength="46.2" x="342.2268" y="414.6639">-degFreedomSe</text><text fill="#000000" font-family="sans-serif" font-size="6.6" lengthAdjust="spacing" textLength="44.4" x="342.2268" y="422.9654">-degFreedomSt</text><!--MD5=[2326f07dd74de3a812ad289cd3fa63bf]
class TableOfValues--><rect codeLine="68" fill="#FEFECE" filter="url(#fziojaqm46m)" height="48.9047" id="TableOfValues" style="stroke:#A80036;stroke-width:0.8999999999999999;" width="67.8" x="126.2268" y="348.6"/><ellipse cx="135.2268" cy="358.2" fill="#ADD1B2" rx="6.6" ry="6.6" style="stroke:#A80036;stroke-width:0.6;"/><path d="M136.4268,356.1 Q136.5487,355.8 136.6893,355.65 Q136.83,355.5 136.9893,355.5 Q137.2706,355.5 137.4487,355.6688 Q137.6268,355.8375 137.6268,356.2313 L137.6268,357.1688 Q137.6268,357.5625 137.4581,357.7313 Q137.2893,357.9 137.0268,357.9 Q136.7925,357.9 136.6425,357.7969 Q136.4925,357.6937 136.4268,357.4219 Q136.3987,357.2344 136.2956,357.1312 Q136.1081,356.9344 135.7706,356.8219 Q135.4331,356.7 135.0956,356.7 Q134.6737,356.7 134.3175,356.8688 Q133.9706,357.0375 133.6987,357.4125 Q133.4268,357.7875 133.4268,358.3031 L133.4268,358.8563 Q133.4268,359.475 133.9331,359.8875 Q134.4393,360.3 135.3393,360.3 Q135.8737,360.3 136.2487,360.1781 Q136.4643,360.1125 136.7081,359.8969 Q136.8675,359.775 136.9518,359.7375 Q137.0362,359.7 137.1393,359.7 Q137.3362,359.7 137.4768,359.8594 Q137.6268,360.0094 137.6268,360.225 Q137.6268,360.4313 137.4206,360.675 Q137.1206,361.0313 136.6425,361.2281 Q136.0143,361.5 135.2456,361.5 Q134.3456,361.5 133.6237,361.1438 Q133.0425,360.8625 132.63,360.2531 Q132.2268,359.6438 132.2268,358.9219 L132.2268,358.2656 Q132.2268,357.5156 132.5831,356.8594 Q132.9487,356.2031 133.5768,355.8563 Q134.2143,355.5 134.9268,355.5 Q135.3581,355.5 135.7331,355.65 Q136.1081,355.8 136.4268,356.1 Z " fill="#000000"/><text fill="#000000" font-family="sans-serif" font-size="7.2" lengthAdjust="spacing" textLength="48.6" x="143.6268" y="361.1461">TableOfValues</text><line style="stroke:#A80036;stroke-width:0.8999999999999999;" x1="126.8268" x2="193.4268" y1="367.8" y2="367.8"/><text fill="#000000" font-family="sans-serif" font-size="6.6" lengthAdjust="spacing" textLength="18.6" x="129.8268" y="377.0514">-dates</text><text fill="#000000" font-family="sans-serif" font-size="6.6" lengthAdjust="spacing" textLength="55.8" x="129.8268" y="385.3529">-observedPositives</text><text fill="#000000" font-family="sans-serif" font-size="6.6" lengthAdjust="spacing" textLength="55.8" x="129.8268" y="393.6545">-estimatedPositives</text><!--MD5=[fe0bb2d390fc5dca74774fa5d2975c11]
class ConfidenceInterval--><rect codeLine="74" fill="#FEFECE" filter="url(#fziojaqm46m)" height="73.8094" id="ConfidenceInterval" style="stroke:#A80036;stroke-width:0.8999999999999999;" width="80.4" x="56.9268" y="486"/><ellipse cx="65.9268" cy="495.6" fill="#ADD1B2" rx="6.6" ry="6.6" style="stroke:#A80036;stroke-width:0.6;"/><path d="M67.1268,493.5 Q67.2487,493.2 67.3893,493.05 Q67.53,492.9 67.6893,492.9 Q67.9706,492.9 68.1487,493.0687 Q68.3268,493.2375 68.3268,493.6312 L68.3268,494.5687 Q68.3268,494.9625 68.1581,495.1312 Q67.9893,495.3 67.7268,495.3 Q67.4925,495.3 67.3425,495.1969 Q67.1925,495.0938 67.1268,494.8219 Q67.0987,494.6344 66.9956,494.5313 Q66.8081,494.3344 66.4706,494.2219 Q66.1331,494.1 65.7956,494.1 Q65.3737,494.1 65.0175,494.2687 Q64.6706,494.4375 64.3987,494.8125 Q64.1268,495.1875 64.1268,495.7031 L64.1268,496.2562 Q64.1268,496.875 64.6331,497.2875 Q65.1393,497.7 66.0393,497.7 Q66.5737,497.7 66.9487,497.5781 Q67.1643,497.5125 67.4081,497.2969 Q67.5675,497.175 67.6518,497.1375 Q67.7362,497.1 67.8393,497.1 Q68.0362,497.1 68.1768,497.2594 Q68.3268,497.4094 68.3268,497.625 Q68.3268,497.8312 68.1206,498.075 Q67.8206,498.4313 67.3425,498.6281 Q66.7143,498.9 65.9456,498.9 Q65.0456,498.9 64.3237,498.5438 Q63.7425,498.2625 63.33,497.6531 Q62.9268,497.0438 62.9268,496.3219 L62.9268,495.6656 Q62.9268,494.9156 63.2831,494.2594 Q63.6487,493.6031 64.2768,493.2562 Q64.9143,492.9 65.6268,492.9 Q66.0581,492.9 66.4331,493.05 Q66.8081,493.2 67.1268,493.5 Z " fill="#000000"/><text fill="#000000" font-family="sans-serif" font-size="7.2" lengthAdjust="spacing" textLength="61.2" x="74.3268" y="498.5461">ConfidenceInterval</text><line style="stroke:#A80036;stroke-width:0.8999999999999999;" x1="57.5268" x2="136.7268" y1="505.2" y2="505.2"/><text fill="#000000" font-family="sans-serif" font-size="6.6" lengthAdjust="spacing" textLength="9.6" x="60.5268" y="514.4514">-y0</text><text fill="#000000" font-family="sans-serif" font-size="6.6" lengthAdjust="spacing" textLength="27.6" x="60.5268" y="522.7529">-auxDelta</text><text fill="#000000" font-family="sans-serif" font-size="6.6" lengthAdjust="spacing" textLength="50.4" x="60.5268" y="531.0545">-confidenceLevel</text><text fill="#000000" font-family="sans-serif" font-size="6.6" lengthAdjust="spacing" textLength="16.2" x="60.5268" y="539.3561">-delta</text><text fill="#000000" font-family="sans-serif" font-size="6.6" lengthAdjust="spacing" textLength="16.8" x="60.5268" y="547.6576">-limInf</text><text fill="#000000" font-family="sans-serif" font-size="6.6" lengthAdjust="spacing" textLength="21" x="60.5268" y="555.9592">-limSup</text><!--MD5=[679f3b7d58d6042ffd323d827f6737cf]
class NHSReportTask--><rect codeLine="83" fill="#FEFECE" filter="url(#fziojaqm46m)" height="65.5078" id="NHSReportTask" style="stroke:#A80036;stroke-width:0.8999999999999999;" width="73.8" x="213.8268" y="141.6"/><ellipse cx="223.0968" cy="151.2" fill="#ADD1B2" rx="6.6" ry="6.6" style="stroke:#A80036;stroke-width:0.6;"/><path d="M224.2968,149.1 Q224.4187,148.8 224.5593,148.65 Q224.7,148.5 224.8593,148.5 Q225.1406,148.5 225.3187,148.6688 Q225.4968,148.8375 225.4968,149.2313 L225.4968,150.1688 Q225.4968,150.5625 225.3281,150.7313 Q225.1593,150.9 224.8968,150.9 Q224.6625,150.9 224.5125,150.7969 Q224.3625,150.6938 224.2968,150.4219 Q224.2687,150.2344 224.1656,150.1313 Q223.9781,149.9344 223.6406,149.8219 Q223.3031,149.7 222.9656,149.7 Q222.5437,149.7 222.1875,149.8688 Q221.8406,150.0375 221.5687,150.4125 Q221.2968,150.7875 221.2968,151.3031 L221.2968,151.8563 Q221.2968,152.475 221.8031,152.8875 Q222.3093,153.3 223.2093,153.3 Q223.7437,153.3 224.1187,153.1781 Q224.3343,153.1125 224.5781,152.8969 Q224.7375,152.775 224.8218,152.7375 Q224.9062,152.7 225.0093,152.7 Q225.2062,152.7 225.3468,152.8594 Q225.4968,153.0094 225.4968,153.225 Q225.4968,153.4313 225.2906,153.675 Q224.9906,154.0313 224.5125,154.2281 Q223.8843,154.5 223.1156,154.5 Q222.2156,154.5 221.4937,154.1437 Q220.9125,153.8625 220.5,153.2531 Q220.0968,152.6437 220.0968,151.9219 L220.0968,151.2656 Q220.0968,150.5156 220.4531,149.8594 Q220.8187,149.2031 221.4468,148.8563 Q222.0843,148.5 222.7968,148.5 Q223.2281,148.5 223.6031,148.65 Q223.9781,148.8 224.2968,149.1 Z " fill="#000000"/><text fill="#000000" font-family="sans-serif" font-size="7.2" lengthAdjust="spacing" textLength="54" x="231.5568" y="154.1461">NHSReportTask</text><line style="stroke:#A80036;stroke-width:0.8999999999999999;" x1="214.4268" x2="287.0268" y1="160.8" y2="160.8"/><text fill="#000000" font-family="sans-serif" font-size="6.6" lengthAdjust="spacing" textLength="66.6" x="217.4268" y="170.0514">-regressionModelClass</text><text fill="#000000" font-family="sans-serif" font-size="6.6" lengthAdjust="spacing" textLength="45.6" x="217.4268" y="178.3529">-historicalPoints</text><text fill="#000000" font-family="sans-serif" font-size="6.6" lengthAdjust="spacing" textLength="52.8" x="217.4268" y="186.6545">-significanceLevel</text><text fill="#000000" font-family="sans-serif" font-size="6.6" lengthAdjust="spacing" textLength="50.4" x="217.4268" y="194.9561">-confidenceLevel</text><text fill="#000000" font-family="sans-serif" font-size="6.6" lengthAdjust="spacing" textLength="36" x="217.4268" y="203.2576">-dateInterval</text><!--MD5=[4e966c963453e3c35798fd39e036e3d7]
link NHSReportTask to NHSReport--><path codeLine="91" d="M243.9048,207.132 C240.4008,223.692 236.3928,242.646 234.0708,253.62 " fill="none" id="NHSReportTask-NHSReport" style="stroke:#A80036;stroke-width:0.6;"/><polygon fill="#000000" points="241.706,233.4405,244.5543,228.4959,241.1039,227.766,241.706,233.4405" style="stroke:#000000;stroke-width:0.6;"/><text fill="#000000" font-family="sans-serif" font-size="7.8" lengthAdjust="spacing" textLength="24" x="247.7268" y="233.6971">reports</text><text fill="#000000" font-family="sans-serif" font-size="7.8" lengthAdjust="spacing" textLength="4.2" x="238.5617" y="220.0573">1</text><text fill="#000000" font-family="sans-serif" font-size="7.8" lengthAdjust="spacing" textLength="12" x="220.7273" y="247.3224">1..*</text><!--MD5=[01558f40b86ad3407c4a50a817100da8]
link Company to Timer--><path codeLine="92" d="M97.0128,94.896 C107.5008,120.318 119.7108,149.91 125.7468,164.538 " fill="none" id="Company-Timer" style="stroke:#A80036;stroke-width:0.6;"/><polygon fill="#000000" points="112.671,121.0787,112.2312,115.3893,108.9711,116.7344,112.671,121.0787" style="stroke:#000000;stroke-width:0.6;"/><text fill="#000000" font-family="sans-serif" font-size="7.8" lengthAdjust="spacing" textLength="22.2" x="116.9268" y="121.4971">knows</text><text fill="#000000" font-family="sans-serif" font-size="7.8" lengthAdjust="spacing" textLength="4.2" x="94.2722" y="107.4814">1</text><text fill="#000000" font-family="sans-serif" font-size="7.8" lengthAdjust="spacing" textLength="4.2" x="119.5991" y="158.2463">1</text><!--MD5=[cdd11370488bf2667b85afc1097a0f02]
link Company to NhsAPI--><path codeLine="93" d="M78.8628,94.944 C79.4328,171.96 80.5728,324.846 80.8608,363.54 " fill="none" id="Company-NhsAPI" style="stroke:#A80036;stroke-width:0.6;"/><polygon fill="#000000" points="82.7491,233.5054,84.4721,228.0654,80.9455,228.0916,82.7491,233.5054" style="stroke:#000000;stroke-width:0.6;"/><text fill="#000000" font-family="sans-serif" font-size="7.8" lengthAdjust="spacing" textLength="46.8" x="88.1268" y="233.6971">makes use of</text><text fill="#000000" font-family="sans-serif" font-size="7.8" lengthAdjust="spacing" textLength="3" x="75.7592" y="107.5337">*</text><text fill="#000000" font-family="sans-serif" font-size="7.8" lengthAdjust="spacing" textLength="4.2" x="75.9163" y="357.1027">1</text><!--MD5=[e0d1e07505e582841357f2ac6b32b3f0]
link NHSReport to NhsAPI--><path codeLine="94" d="M203.5968,264.954 C180.2148,267.09 147.3948,273.324 124.7268,291 C100.3788,309.984 87.9168,346.392 83.2068,363.408 " fill="none" id="NHSReport-NhsAPI" style="stroke:#A80036;stroke-width:0.6;"/><polygon fill="#000000" points="125.4045,298.4046,130.7219,296.334,128.4893,293.604,125.4045,298.4046" style="stroke:#000000;stroke-width:0.6;"/><text fill="#000000" font-family="sans-serif" font-size="7.8" lengthAdjust="spacing" textLength="27.6" x="133.1268" y="299.6971">send by</text><text fill="#000000" font-family="sans-serif" font-size="7.8" lengthAdjust="spacing" textLength="3" x="195.8108" y="262.9505">*</text><text fill="#000000" font-family="sans-serif" font-size="7.8" lengthAdjust="spacing" textLength="4.2" x="84.6577" y="357.1064">1</text><!--MD5=[1e1bea86187fd5c0a36de60e63fbe61a]
link NHSReport to RegressionModel--><path codeLine="95" d="M231.9888,273.006 C231.2928,319.05 228.1008,529.422 226.7448,619.056 " fill="none" id="NHSReport-RegressionModel" style="stroke:#A80036;stroke-width:0.6;"/><polygon fill="#000000" points="232.0814,453.1051,233.9268,447.7054,230.4005,447.652,232.0814,453.1051" style="stroke:#000000;stroke-width:0.6;"/><text fill="#000000" font-family="sans-serif" font-size="7.8" lengthAdjust="spacing" textLength="12.6" x="237.5268" y="453.2971">has</text><text fill="#000000" font-family="sans-serif" font-size="7.8" lengthAdjust="spacing" textLength="3" x="228.4462" y="285.91">*</text><text fill="#000000" font-family="sans-serif" font-size="7.8" lengthAdjust="spacing" textLength="4.2" x="222.392" y="612.8203">1</text><!--MD5=[8b5211240efe264c13d5ef595a4d03bb]
link NHSReport to HypothesisTest--><path codeLine="96" d="M235.5528,273.204 C237.4488,278.4 239.8008,285.036 241.7268,291 C261.8928,353.478 282.5988,426.318 295.5948,473.31 " fill="none" id="NHSReport-HypothesisTest" style="stroke:#A80036;stroke-width:0.6;"/><polygon fill="#000000" points="285.789,376.1789,285.9183,370.474,282.5403,371.4876,285.789,376.1789" style="stroke:#000000;stroke-width:0.6;"/><text fill="#000000" font-family="sans-serif" font-size="7.8" lengthAdjust="spacing" textLength="29.4" x="290.3268" y="376.4971">contains</text><text fill="#000000" font-family="sans-serif" font-size="7.8" lengthAdjust="spacing" textLength="4.2" x="237.2452" y="285.8058">1</text><text fill="#000000" font-family="sans-serif" font-size="7.8" lengthAdjust="spacing" textLength="4.2" x="289.9722" y="466.8159">1</text><!--MD5=[547d65f66fccba149814dbcd0a782d42]
link NHSReport to SignificanceModelAnova--><path codeLine="97" d="M257.7648,273.018 C269.4048,277.626 283.0968,283.788 294.5268,291 C309.6588,300.546 324.8208,312.48 338.3988,324.246 " fill="none" id="NHSReport-SignificanceModelAnova" style="stroke:#A80036;stroke-width:0.6;"/><polygon fill="#000000" points="313.859,298.1142,310.2238,293.7156,308.3327,296.6924,313.859,298.1142" style="stroke:#000000;stroke-width:0.6;"/><text fill="#000000" font-family="sans-serif" font-size="7.8" lengthAdjust="spacing" textLength="29.4" x="316.7268" y="299.6971">contains</text><text fill="#000000" font-family="sans-serif" font-size="7.8" lengthAdjust="spacing" textLength="4.2" x="261.3618" y="285.926">1</text><text fill="#000000" font-family="sans-serif" font-size="7.8" lengthAdjust="spacing" textLength="4.2" x="329.5829" y="317.9554">1</text><!--MD5=[306e6753dd5938314f2cd068130fe945]
link Company to RegressionModel--><path codeLine="98" d="M38.8488,94.932 C23.2188,117.078 8.9268,145.134 8.9268,173.7 C8.9268,173.7 8.9268,173.7 8.9268,523.5 C8.9268,606.618 124.5108,640.95 187.0428,653.442 " fill="none" id="Company-RegressionModel" style="stroke:#A80036;stroke-width:0.6;"/><polygon fill="#000000" points="12.6962,299.4051,13.0088,293.7074,9.6,294.6118,12.6962,299.4051" style="stroke:#000000;stroke-width:0.6;"/><text fill="#000000" font-family="sans-serif" font-size="7.8" lengthAdjust="spacing" textLength="46.8" x="17.3268" y="299.6971">makes use of</text><text fill="#000000" font-family="sans-serif" font-size="7.8" lengthAdjust="spacing" textLength="3" x="32.1814" y="107.5206">*</text><text fill="#000000" font-family="sans-serif" font-size="7.8" lengthAdjust="spacing" textLength="4.2" x="178.0809" y="650.6085">1</text><!--MD5=[3613c24fd87214899814450dc04493e5]
link HypothesisTest to RegressionModel--><path codeLine="99" d="M279.1488,572.478 C269.8788,587.73 259.7568,604.38 250.8708,619.002 " fill="none" id="HypothesisTest-RegressionModel" style="stroke:#A80036;stroke-width:0.6;"/><polygon fill="#000000" points="268.9686,598.4691,273.2943,594.7474,270.2806,592.9156,268.9686,598.4691" style="stroke:#000000;stroke-width:0.6;"/><text fill="#000000" font-family="sans-serif" font-size="7.8" lengthAdjust="spacing" textLength="6" x="275.9268" y="599.0971">of</text><text fill="#000000" font-family="sans-serif" font-size="7.8" lengthAdjust="spacing" textLength="3" x="273.6564" y="584.9281">*</text><text fill="#000000" font-family="sans-serif" font-size="7.8" lengthAdjust="spacing" textLength="4.2" x="249.006" y="612.7607">1</text><!--MD5=[2924ce52b3cd3a70f6e893e26caf63a8]
link SignificanceModelAnova to RegressionModel--><path codeLine="100" d="M396.6108,426.642 C400.6068,469.506 399.3768,529.626 370.7268,572.4 C345.7188,609.738 298.8348,633.66 265.2228,646.842 " fill="none" id="SignificanceModelAnova-RegressionModel" style="stroke:#A80036;stroke-width:0.6;"/><polygon fill="#000000" points="399.1896,525.5817,403.4847,521.8248,400.4562,520.0177,399.1896,525.5817" style="stroke:#000000;stroke-width:0.6;"/><text fill="#000000" font-family="sans-serif" font-size="7.8" lengthAdjust="spacing" textLength="6" x="406.1268" y="526.1971">of</text><text fill="#000000" font-family="sans-serif" font-size="7.8" lengthAdjust="spacing" textLength="4.2" x="392.9595" y="439.744">1</text><text fill="#000000" font-family="sans-serif" font-size="7.8" lengthAdjust="spacing" textLength="4.2" x="269.9861" y="643.2453">1</text><!--MD5=[c6acbac970cf27bd6d16a5c7db39602e]
link SignificanceModelAnova to HypothesisTest--><path codeLine="101" d="M357.7548,426.6 C354.3948,432.648 351.0588,438.738 347.9268,444.6 C343.0188,453.786 337.9248,463.662 333.0948,473.196 " fill="none" id="SignificanceModelAnova-HypothesisTest" style="stroke:#A80036;stroke-width:0.6;"/><polygon fill="#000000" points="349.5235,452.757,353.6207,448.7851,350.5036,447.1355,349.5235,452.757" style="stroke:#000000;stroke-width:0.6;"/><text fill="#000000" font-family="sans-serif" font-size="7.8" lengthAdjust="spacing" textLength="29.4" x="356.3268" y="453.2971">contains</text><text fill="#000000" font-family="sans-serif" font-size="7.8" lengthAdjust="spacing" textLength="4.2" x="350.7643" y="439.6984">1</text><text fill="#000000" font-family="sans-serif" font-size="7.8" lengthAdjust="spacing" textLength="4.2" x="330.8603" y="466.8609">1</text><!--MD5=[0dcaa8173aedfc40b07273db6fb5ce96]
link NHSReport to TableOfValues--><path codeLine="102" d="M203.5428,270.438 C192.0648,274.464 179.7708,280.884 172.1268,291 C159.7848,307.338 157.4868,330.882 157.8648,348.492 " fill="none" id="NHSReport-TableOfValues" style="stroke:#A80036;stroke-width:0.6;"/><polygon fill="#000000" points="173.6116,299.0947,177.8746,295.3014,174.8308,293.5201,173.6116,299.0947" style="stroke:#000000;stroke-width:0.6;"/><text fill="#000000" font-family="sans-serif" font-size="7.8" lengthAdjust="spacing" textLength="29.4" x="180.5268" y="299.6971">contains</text><text fill="#000000" font-family="sans-serif" font-size="7.8" lengthAdjust="spacing" textLength="4.2" x="194.6443" y="280.3639">1</text><text fill="#000000" font-family="sans-serif" font-size="7.8" lengthAdjust="spacing" textLength="4.2" x="152.9424" y="342.1437">1</text><!--MD5=[60801c19033a4adc54741325ca863d30]
link TableOfValues to RegressionModel--><path codeLine="103" d="M163.1508,397.914 C168.1548,435.564 179.2488,510.408 195.5268,572.4 C199.5828,587.856 205.1088,604.488 210.3528,619.044 " fill="none" id="TableOfValues-RegressionModel" style="stroke:#A80036;stroke-width:0.6;"/><polygon fill="#000000" points="199.1531,525.9394,199.7447,520.2638,196.2957,521,199.1531,525.9394" style="stroke:#000000;stroke-width:0.6;"/><text fill="#000000" font-family="sans-serif" font-size="7.8" lengthAdjust="spacing" textLength="6" x="203.9268" y="526.1971">of</text><text fill="#000000" font-family="sans-serif" font-size="7.8" lengthAdjust="spacing" textLength="4.2" x="159.0865" y="410.3831">1</text><text fill="#000000" font-family="sans-serif" font-size="7.8" lengthAdjust="spacing" textLength="4.2" x="204.3096" y="612.807">1</text><!--MD5=[fbf6af04bdbd2e53a8939c56935774d0]
link TableOfValues to ConfidenceInterval--><path codeLine="104" d="M147.4668,397.908 C140.5548,411.462 132.0588,428.784 125.3268,444.6 C119.6748,457.872 114.1188,472.698 109.4448,485.808 " fill="none" id="TableOfValues-ConfidenceInterval" style="stroke:#A80036;stroke-width:0.6;"/><polygon fill="#000000" points="127.1358,452.8589,130.9088,448.578,127.672,447.1778,127.1358,452.8589" style="stroke:#000000;stroke-width:0.6;"/><text fill="#000000" font-family="sans-serif" font-size="7.8" lengthAdjust="spacing" textLength="29.4" x="133.7268" y="453.2971">contains</text><text fill="#000000" font-family="sans-serif" font-size="7.8" lengthAdjust="spacing" textLength="4.2" x="141.099" y="410.3762">1</text><text fill="#000000" font-family="sans-serif" font-size="7.8" lengthAdjust="spacing" textLength="3" x="107.6957" y="479.473">*</text><!--MD5=[e9ea997fd01ddd5be83691ad6dfc4b93]
link ConfidenceInterval to RegressionModel--><path codeLine="105" d="M117.7668,559.98 C126.4068,573.666 137.1288,588.876 148.7268,601.2 C160.0368,613.224 174.0288,624.612 186.9948,634.092 " fill="none" id="ConfidenceInterval-RegressionModel" style="stroke:#A80036;stroke-width:0.6;"/><polygon fill="#000000" points="153.7747,598.0978,151.3587,592.9281,148.7815,595.3355,153.7747,598.0978" style="stroke:#000000;stroke-width:0.6;"/><text fill="#000000" font-family="sans-serif" font-size="7.8" lengthAdjust="spacing" textLength="6" x="157.1268" y="599.0971">of</text><text fill="#000000" font-family="sans-serif" font-size="7.8" lengthAdjust="spacing" textLength="3" x="116.8603" y="572.6687">*</text><text fill="#000000" font-family="sans-serif" font-size="7.8" lengthAdjust="spacing" textLength="4.2" x="178.0274" y="629.0211">1</text><!--MD5=[2d6e9e001c0bf2f7f3a5c6201f06070c]
link Timer to NHSReportTask--><path codeLine="106" d="M148.7328,174.3 C166.1508,174.3 192.3168,174.3 213.7848,174.3 " fill="none" id="Timer-NHSReportTask" style="stroke:#A80036;stroke-width:0.6;"/><polygon fill="#000000" points="165.0768,167.2055,159.6498,165.4421,159.6498,168.9688,165.0768,167.2055" style="stroke:#000000;stroke-width:0.6;"/><text fill="#000000" font-family="sans-serif" font-size="7.8" lengthAdjust="spacing" textLength="35.4" x="167.4768" y="170.3971">schedules</text><!--MD5=[d0f5dc663090e5e289913afcb5ea6564]
link NHSReportTask to RegressionModel--><path codeLine="107" d="M287.8068,181.2 C352.6728,193.278 479.9268,222.156 479.9268,262.8 C479.9268,262.8 479.9268,262.8 479.9268,523.5 C479.9268,619.764 336.4188,648.27 265.2288,656.484 " fill="none" id="NHSReportTask-RegressionModel" style="stroke:#A80036;stroke-width:0.6;"/><polygon fill="#000000" points="482.7845,376.3021,484.8034,370.9648,481.2806,370.7975,482.7845,376.3021" style="stroke:#000000;stroke-width:0.6;"/><text fill="#000000" font-family="sans-serif" font-size="7.8" lengthAdjust="spacing" textLength="6" x="488.3268" y="376.4971">of</text><text fill="#000000" font-family="sans-serif" font-size="7.8" lengthAdjust="spacing" textLength="4.2" x="292.337" y="179.9458">1</text><text fill="#000000" font-family="sans-serif" font-size="7.8" lengthAdjust="spacing" textLength="4.2" x="269.9928" y="654.0022">1</text><!--MD5=[e1c1ad9defbfab63b8a89416dfa466f7]
@startuml

skinparam classAttributeIconSize 0
hide empty methods
hide empty attributes

class Company {
-designation
-classNameForBarcodeApi
-classNameForSortAlgorithm
-regressionModelCLass
-dateInterval
-historicalPoints
-confidenceLevel
-significanceLevel
}

class Timer {}

class NhsAPI{}

class NHSReport {}

class RegressionModel {
-intercept
-slope
-secondIndVariable
-r
-r2
-r2Adjusted
-numberOfObservations
}

/'class ConfigFile {}'/

'The interval of dates to fit the regression model
/'class IntervalOfDates {}'/

'Number of days and number of weeks
/'class NumberOfHistoricalPoints {}'/

'hypothesis tests for regression coefficients
class HypothesisTest {
-tObsA
-tObsB
-tObsC
-significanceLevel
-critTD
-f
-critFD
-numeratorDegreesOfFreedom
-denominatorDegreesOfFreedom
}

'significance model with Anova.
class SignificanceModelAnova {
-significanceLevel
-sr
-se
-st
-mr
-me
-f
-degFreedomSr
-degFreedomSe
-degFreedomSt
}

class TableOfValues {
-dates
-observedPositives
-estimatedPositives
}

class ConfidenceInterval {
-y0
-auxDelta
-confidenceLevel
-delta
-limInf
-limSup
}

class NHSReportTask {
-regressionModelClass
-historicalPoints
-significanceLevel
-confidenceLevel
-dateInterval
}

NHSReportTask "1" - - "1..*" NHSReport : reports >
Company "1" - - "1" Timer : knows >
Company "*" - "1" NhsAPI : makes use of >
NHSReport "*" - - "1" NhsAPI : send by >
NHSReport "*" - - "1" RegressionModel : has >
NHSReport "1" - - "1" HypothesisTest : contains >
NHSReport "1" - - "1" SignificanceModelAnova : contains >
Company "*" - - "1" RegressionModel : makes use of >
HypothesisTest "*" - - "1" RegressionModel : of >
SignificanceModelAnova "1" - - "1" RegressionModel : of >
SignificanceModelAnova "1" - - "1" HypothesisTest : contains >
NHSReport "1" - - "1" TableOfValues : contains >
TableOfValues "1" - - "1" RegressionModel : of >
TableOfValues "1" - - "*" ConfidenceInterval : contains >
ConfidenceInterval "*" - - "1" RegressionModel : of >
Timer - NHSReportTask : schedules >
NHSReportTask "1" - - "1" RegressionModel : of >

'Apagar posteriormente
/'RegressionModel "1" - - "1" ConfigFile : defined by >
IntervalOfDates "1" - - "1" ConfigFile : defined by >
NumberOfHistoricalPoints "1" - - "1" ConfigFile : defined by >'/



@enduml

@startuml

skinparam classAttributeIconSize 0
hide empty methods
hide empty attributes

class Company {
-designation
-classNameForBarcodeApi
-classNameForSortAlgorithm
-regressionModelCLass
-dateInterval
-historicalPoints
-confidenceLevel
-significanceLevel
}

class Timer {}

class NhsAPI{}

class NHSReport {}

class RegressionModel {
-intercept
-slope
-secondIndVariable
-r
-r2
-r2Adjusted
-numberOfObservations
}




class HypothesisTest {
-tObsA
-tObsB
-tObsC
-significanceLevel
-critTD
-f
-critFD
-numeratorDegreesOfFreedom
-denominatorDegreesOfFreedom
}

class SignificanceModelAnova {
-significanceLevel
-sr
-se
-st
-mr
-me
-f
-degFreedomSr
-degFreedomSe
-degFreedomSt
}

class TableOfValues {
-dates
-observedPositives
-estimatedPositives
}

class ConfidenceInterval {
-y0
-auxDelta
-confidenceLevel
-delta
-limInf
-limSup
}

class NHSReportTask {
-regressionModelClass
-historicalPoints
-significanceLevel
-confidenceLevel
-dateInterval
}

NHSReportTask "1" - - "1..*" NHSReport : reports >
Company "1" - - "1" Timer : knows >
Company "*" - "1" NhsAPI : makes use of >
NHSReport "*" - - "1" NhsAPI : send by >
NHSReport "*" - - "1" RegressionModel : has >
NHSReport "1" - - "1" HypothesisTest : contains >
NHSReport "1" - - "1" SignificanceModelAnova : contains >
Company "*" - - "1" RegressionModel : makes use of >
HypothesisTest "*" - - "1" RegressionModel : of >
SignificanceModelAnova "1" - - "1" RegressionModel : of >
SignificanceModelAnova "1" - - "1" HypothesisTest : contains >
NHSReport "1" - - "1" TableOfValues : contains >
TableOfValues "1" - - "1" RegressionModel : of >
TableOfValues "1" - - "*" ConfidenceInterval : contains >
ConfidenceInterval "*" - - "1" RegressionModel : of >
Timer - NHSReportTask : schedules >
NHSReportTask "1" - - "1" RegressionModel : of >




@enduml

PlantUML version 1.2021.4(Sun Apr 04 09:49:39 BST 2021)
(GPL source distribution)
Java Runtime: OpenJDK Runtime Environment
JVM: OpenJDK 64-Bit Server VM
Default Encoding: Cp1252
Language: pt
Country: PT
--></g></svg>