<?xml version="1.0" encoding="UTF-8" standalone="no"?><svg xmlns="http://www.w3.org/2000/svg" xmlns:xlink="http://www.w3.org/1999/xlink" contentScriptType="application/ecmascript" contentStyleType="text/css" height="884px" preserveAspectRatio="none" style="width:572px;height:884px;" version="1.1" viewBox="0 0 572 884" width="572.8px" zoomAndPan="magnify"><defs><filter height="300%" id="fueneg9jr2r6x" width="300%" x="-1" y="-1"><feGaussianBlur result="blurOut" stdDeviation="1.6000000000000003"/><feColorMatrix in="blurOut" result="blurOut2" type="matrix" values="0 0 0 0 0 0 0 0 0 0 0 0 0 0 0 0 0 0 .4 0"/><feOffset dx="3.2000000000000006" dy="3.2000000000000006" in="blurOut2" result="blurOut3"/><feBlend in="SourceGraphic" in2="blurOut3" mode="normal"/></filter></defs><g><!--MD5=[02e4b9b7573f1156f41e60aa5b4e25a4]
class Company--><rect codeLine="6" fill="#FEFECE" filter="url(#fueneg9jr2r6x)" height="120.55" id="Company" style="stroke:#A80036;stroke-width:1.2000000000000002;" width="120" x="162.7433" y="5.6"/><ellipse cx="198.1433" cy="18.4" fill="#ADD1B2" rx="8.8" ry="8.8" style="stroke:#A80036;stroke-width:0.8000000000000002;"/><path d="M199.7433,15.6 Q199.9058,15.2 200.0933,15 Q200.2808,14.8 200.4933,14.8 Q200.8683,14.8 201.1058,15.025 Q201.3433,15.25 201.3433,15.775 L201.3433,17.025 Q201.3433,17.55 201.1183,17.775 Q200.8933,18 200.5433,18 Q200.2308,18 200.0308,17.8625 Q199.8308,17.725 199.7433,17.3625 Q199.7058,17.1125 199.5683,16.975 Q199.3183,16.7125 198.8683,16.5625 Q198.4183,16.4 197.9683,16.4 Q197.4058,16.4 196.9308,16.625 Q196.4683,16.85 196.1058,17.35 Q195.7433,17.85 195.7433,18.5375 L195.7433,19.275 Q195.7433,20.1 196.4183,20.65 Q197.0933,21.2 198.2933,21.2 Q199.0058,21.2 199.5058,21.0375 Q199.7933,20.95 200.1183,20.6625 Q200.3308,20.5 200.4433,20.45 Q200.5558,20.4 200.6933,20.4 Q200.9558,20.4 201.1433,20.6125 Q201.3433,20.8125 201.3433,21.1 Q201.3433,21.375 201.0683,21.7 Q200.6683,22.175 200.0308,22.4375 Q199.1933,22.8 198.1683,22.8 Q196.9683,22.8 196.0058,22.325 Q195.2308,21.95 194.6808,21.1375 Q194.1433,20.325 194.1433,19.3625 L194.1433,18.4875 Q194.1433,17.4875 194.6183,16.6125 Q195.1058,15.7375 195.9433,15.275 Q196.7933,14.8 197.7433,14.8 Q198.3183,14.8 198.8183,15 Q199.3183,15.2 199.7433,15.6 Z " fill="#000000"/><text fill="#000000" font-family="sans-serif" font-size="9.6" lengthAdjust="spacing" textLength="42.4" x="214.5433" y="22.3281">Company</text><line style="stroke:#A80036;stroke-width:1.2000000000000002;" x1="163.5433" x2="281.9433" y1="31.2" y2="31.2"/><text fill="#000000" font-family="sans-serif" font-size="8.8" lengthAdjust="spacing" textLength="47.2" x="167.5433" y="43.5352">-designation</text><text fill="#000000" font-family="sans-serif" font-size="8.8" lengthAdjust="spacing" textLength="104" x="167.5433" y="54.6039">-classNameForBarcodeApi</text><text fill="#000000" font-family="sans-serif" font-size="8.8" lengthAdjust="spacing" textLength="110.4" x="167.5433" y="65.6727">-classNameForSortAlgorithm</text><text fill="#000000" font-family="sans-serif" font-size="8.8" lengthAdjust="spacing" textLength="92" x="167.5433" y="76.7414">-regressionModelCLass</text><text fill="#000000" font-family="sans-serif" font-size="8.8" lengthAdjust="spacing" textLength="48" x="167.5433" y="87.8102">-dateInterval</text><text fill="#000000" font-family="sans-serif" font-size="8.8" lengthAdjust="spacing" textLength="60.8" x="167.5433" y="98.8789">-historicalPoints</text><text fill="#000000" font-family="sans-serif" font-size="8.8" lengthAdjust="spacing" textLength="67.2" x="167.5433" y="109.9477">-confidenceLevel</text><text fill="#000000" font-family="sans-serif" font-size="8.8" lengthAdjust="spacing" textLength="70.4" x="167.5433" y="121.0164">-significanceLevel</text><!--MD5=[1b844c90688aafb95cd8c95626c3b83a]
class Timer--><rect codeLine="17" fill="#FEFECE" filter="url(#fueneg9jr2r6x)" height="25.6" id="Timer" style="stroke:#A80036;stroke-width:1.2000000000000002;" width="51.2" x="145.9433" y="188.8"/><ellipse cx="157.9433" cy="201.6" fill="#ADD1B2" rx="8.8" ry="8.8" style="stroke:#A80036;stroke-width:0.8000000000000002;"/><path d="M159.5433,198.8 Q159.7058,198.4 159.8933,198.2 Q160.0808,198 160.2933,198 Q160.6683,198 160.9058,198.225 Q161.1433,198.45 161.1433,198.975 L161.1433,200.225 Q161.1433,200.75 160.9183,200.975 Q160.6933,201.2 160.3433,201.2 Q160.0308,201.2 159.8308,201.0625 Q159.6308,200.925 159.5433,200.5625 Q159.5058,200.3125 159.3683,200.175 Q159.1183,199.9125 158.6683,199.7625 Q158.2183,199.6 157.7683,199.6 Q157.2058,199.6 156.7308,199.825 Q156.2683,200.05 155.9058,200.55 Q155.5433,201.05 155.5433,201.7375 L155.5433,202.475 Q155.5433,203.3 156.2183,203.85 Q156.8933,204.4 158.0933,204.4 Q158.8058,204.4 159.3058,204.2375 Q159.5933,204.15 159.9183,203.8625 Q160.1308,203.7 160.2433,203.65 Q160.3558,203.6 160.4933,203.6 Q160.7558,203.6 160.9433,203.8125 Q161.1433,204.0125 161.1433,204.3 Q161.1433,204.575 160.8683,204.9 Q160.4683,205.375 159.8308,205.6375 Q158.9933,206 157.9683,206 Q156.7683,206 155.8058,205.525 Q155.0308,205.15 154.4808,204.3375 Q153.9433,203.525 153.9433,202.5625 L153.9433,201.6875 Q153.9433,200.6875 154.4183,199.8125 Q154.9058,198.9375 155.7433,198.475 Q156.5933,198 157.5433,198 Q158.1183,198 158.6183,198.2 Q159.1183,198.4 159.5433,198.8 Z " fill="#000000"/><text fill="#000000" font-family="sans-serif" font-size="9.6" lengthAdjust="spacing" textLength="25.6" x="169.1433" y="205.5281">Timer</text><!--MD5=[db86e106e83ea9efd94d1461be461932]
class NhsAPI--><rect codeLine="19" fill="#FEFECE" filter="url(#fueneg9jr2r6x)" height="25.6" id="NhsAPI" style="stroke:#A80036;stroke-width:1.2000000000000002;" width="58.4" x="355.1433" y="276.8"/><ellipse cx="367.1433" cy="289.6" fill="#ADD1B2" rx="8.8" ry="8.8" style="stroke:#A80036;stroke-width:0.8000000000000002;"/><path d="M368.7433,286.8 Q368.9058,286.4 369.0933,286.2 Q369.2808,286 369.4933,286 Q369.8683,286 370.1058,286.225 Q370.3433,286.45 370.3433,286.975 L370.3433,288.225 Q370.3433,288.75 370.1183,288.975 Q369.8933,289.2 369.5433,289.2 Q369.2308,289.2 369.0308,289.0625 Q368.8308,288.925 368.7433,288.5625 Q368.7058,288.3125 368.5683,288.175 Q368.3183,287.9125 367.8683,287.7625 Q367.4183,287.6 366.9683,287.6 Q366.4058,287.6 365.9308,287.825 Q365.4683,288.05 365.1058,288.55 Q364.7433,289.05 364.7433,289.7375 L364.7433,290.475 Q364.7433,291.3 365.4183,291.85 Q366.0933,292.4 367.2933,292.4 Q368.0058,292.4 368.5058,292.2375 Q368.7933,292.15 369.1183,291.8625 Q369.3308,291.7 369.4433,291.65 Q369.5558,291.6 369.6933,291.6 Q369.9558,291.6 370.1433,291.8125 Q370.3433,292.0125 370.3433,292.3 Q370.3433,292.575 370.0683,292.9 Q369.6683,293.375 369.0308,293.6375 Q368.1933,294 367.1683,294 Q365.9683,294 365.0058,293.525 Q364.2308,293.15 363.6808,292.3375 Q363.1433,291.525 363.1433,290.5625 L363.1433,289.6875 Q363.1433,288.6875 363.6183,287.8125 Q364.1058,286.9375 364.9433,286.475 Q365.7933,286 366.7433,286 Q367.3183,286 367.8183,286.2 Q368.3183,286.4 368.7433,286.8 Z " fill="#000000"/><text fill="#000000" font-family="sans-serif" font-size="9.6" lengthAdjust="spacing" textLength="32.8" x="378.3433" y="293.5281">NhsAPI</text><!--MD5=[74783ec010d186752c4ffd5c6de5633a]
class NHSReport--><rect codeLine="21" fill="#FEFECE" filter="url(#fueneg9jr2r6x)" height="25.6" id="NHSReport" style="stroke:#A80036;stroke-width:1.2000000000000002;" width="76" x="204.7433" y="276.8"/><ellipse cx="216.7433" cy="289.6" fill="#ADD1B2" rx="8.8" ry="8.8" style="stroke:#A80036;stroke-width:0.8000000000000002;"/><path d="M218.3433,286.8 Q218.5058,286.4 218.6933,286.2 Q218.8808,286 219.0933,286 Q219.4683,286 219.7058,286.225 Q219.9433,286.45 219.9433,286.975 L219.9433,288.225 Q219.9433,288.75 219.7183,288.975 Q219.4933,289.2 219.1433,289.2 Q218.8308,289.2 218.6308,289.0625 Q218.4308,288.925 218.3433,288.5625 Q218.3058,288.3125 218.1683,288.175 Q217.9183,287.9125 217.4683,287.7625 Q217.0183,287.6 216.5683,287.6 Q216.0058,287.6 215.5308,287.825 Q215.0683,288.05 214.7058,288.55 Q214.3433,289.05 214.3433,289.7375 L214.3433,290.475 Q214.3433,291.3 215.0183,291.85 Q215.6933,292.4 216.8933,292.4 Q217.6058,292.4 218.1058,292.2375 Q218.3933,292.15 218.7183,291.8625 Q218.9308,291.7 219.0433,291.65 Q219.1558,291.6 219.2933,291.6 Q219.5558,291.6 219.7433,291.8125 Q219.9433,292.0125 219.9433,292.3 Q219.9433,292.575 219.6683,292.9 Q219.2683,293.375 218.6308,293.6375 Q217.7933,294 216.7683,294 Q215.5683,294 214.6058,293.525 Q213.8308,293.15 213.2808,292.3375 Q212.7433,291.525 212.7433,290.5625 L212.7433,289.6875 Q212.7433,288.6875 213.2183,287.8125 Q213.7058,286.9375 214.5433,286.475 Q215.3933,286 216.3433,286 Q216.9183,286 217.4183,286.2 Q217.9183,286.4 218.3433,286.8 Z " fill="#000000"/><text fill="#000000" font-family="sans-serif" font-size="9.6" lengthAdjust="spacing" textLength="50.4" x="227.9433" y="293.5281">NHSReport</text><!--MD5=[f9bf174dd5fcee0192f6251129b9c376]
class RegressionModel--><rect codeLine="23" fill="#FEFECE" filter="url(#fueneg9jr2r6x)" height="109.4813" id="RegressionModel" style="stroke:#A80036;stroke-width:1.2000000000000002;" width="104" x="256.3433" y="764"/><ellipse cx="268.3433" cy="776.8" fill="#ADD1B2" rx="8.8" ry="8.8" style="stroke:#A80036;stroke-width:0.8000000000000002;"/><path d="M269.9433,774 Q270.1058,773.6 270.2933,773.4 Q270.4808,773.2 270.6933,773.2 Q271.0683,773.2 271.3058,773.425 Q271.5433,773.65 271.5433,774.175 L271.5433,775.425 Q271.5433,775.95 271.3183,776.175 Q271.0933,776.4 270.7433,776.4 Q270.4308,776.4 270.2308,776.2625 Q270.0308,776.125 269.9433,775.7625 Q269.9058,775.5125 269.7683,775.375 Q269.5183,775.1125 269.0683,774.9625 Q268.6183,774.8 268.1683,774.8 Q267.6058,774.8 267.1308,775.025 Q266.6683,775.25 266.3058,775.75 Q265.9433,776.25 265.9433,776.9375 L265.9433,777.675 Q265.9433,778.5 266.6183,779.05 Q267.2933,779.6 268.4933,779.6 Q269.2058,779.6 269.7058,779.4375 Q269.9933,779.35 270.3183,779.0625 Q270.5308,778.9 270.6433,778.85 Q270.7558,778.8 270.8933,778.8 Q271.1558,778.8 271.3433,779.0125 Q271.5433,779.2125 271.5433,779.5 Q271.5433,779.775 271.2683,780.1 Q270.8683,780.575 270.2308,780.8375 Q269.3933,781.2 268.3683,781.2 Q267.1683,781.2 266.2058,780.725 Q265.4308,780.35 264.8808,779.5375 Q264.3433,778.725 264.3433,777.7625 L264.3433,776.8875 Q264.3433,775.8875 264.8183,775.0125 Q265.3058,774.1375 266.1433,773.675 Q266.9933,773.2 267.9433,773.2 Q268.5183,773.2 269.0183,773.4 Q269.5183,773.6 269.9433,774 Z " fill="#000000"/><text fill="#000000" font-family="sans-serif" font-size="9.6" lengthAdjust="spacing" textLength="78.4" x="279.5433" y="780.7281">RegressionModel</text><line style="stroke:#A80036;stroke-width:1.2000000000000002;" x1="257.1433" x2="359.5433" y1="789.6" y2="789.6"/><text fill="#000000" font-family="sans-serif" font-size="8.8" lengthAdjust="spacing" textLength="36.8" x="261.1433" y="801.9352">-intercept</text><text fill="#000000" font-family="sans-serif" font-size="8.8" lengthAdjust="spacing" textLength="24" x="261.1433" y="813.0039">-slope</text><text fill="#000000" font-family="sans-serif" font-size="8.8" lengthAdjust="spacing" textLength="75.2" x="261.1433" y="824.0727">-secondIndVariable</text><text fill="#000000" font-family="sans-serif" font-size="8.8" lengthAdjust="spacing" textLength="6.4" x="261.1433" y="835.1414">-r</text><text fill="#000000" font-family="sans-serif" font-size="8.8" lengthAdjust="spacing" textLength="11.2" x="261.1433" y="846.2102">-r2</text><text fill="#000000" font-family="sans-serif" font-size="8.8" lengthAdjust="spacing" textLength="45.6" x="261.1433" y="857.2789">-r2Adjusted</text><text fill="#000000" font-family="sans-serif" font-size="8.8" lengthAdjust="spacing" textLength="93.6" x="261.1433" y="868.3477">-numberOfObservations</text><!--MD5=[dfe7672a7c242e7ff03cfd775649b5cb]
class HypothesisTest--><rect codeLine="42" fill="#FEFECE" filter="url(#fueneg9jr2r6x)" height="131.6188" id="HypothesisTest" style="stroke:#A80036;stroke-width:1.2000000000000002;" width="136" x="157.9433" y="569.6"/><ellipse cx="188.6633" cy="582.4" fill="#ADD1B2" rx="8.8" ry="8.8" style="stroke:#A80036;stroke-width:0.8000000000000002;"/><path d="M190.2633,579.6 Q190.4258,579.2 190.6133,579 Q190.8008,578.8 191.0133,578.8 Q191.3883,578.8 191.6258,579.025 Q191.8633,579.25 191.8633,579.775 L191.8633,581.025 Q191.8633,581.55 191.6383,581.775 Q191.4133,582 191.0633,582 Q190.7508,582 190.5508,581.8625 Q190.3508,581.725 190.2633,581.3625 Q190.2258,581.1125 190.0883,580.975 Q189.8383,580.7125 189.3883,580.5625 Q188.9383,580.4 188.4883,580.4 Q187.9258,580.4 187.4508,580.625 Q186.9883,580.85 186.6258,581.35 Q186.2633,581.85 186.2633,582.5375 L186.2633,583.275 Q186.2633,584.1 186.9383,584.65 Q187.6133,585.2 188.8133,585.2 Q189.5258,585.2 190.0258,585.0375 Q190.3133,584.95 190.6383,584.6625 Q190.8508,584.5 190.9633,584.45 Q191.0758,584.4 191.2133,584.4 Q191.4758,584.4 191.6633,584.6125 Q191.8633,584.8125 191.8633,585.1 Q191.8633,585.375 191.5883,585.7 Q191.1883,586.175 190.5508,586.4375 Q189.7133,586.8 188.6883,586.8 Q187.4883,586.8 186.5258,586.325 Q185.7508,585.95 185.2008,585.1375 Q184.6633,584.325 184.6633,583.3625 L184.6633,582.4875 Q184.6633,581.4875 185.1383,580.6125 Q185.6258,579.7375 186.4633,579.275 Q187.3133,578.8 188.2633,578.8 Q188.8383,578.8 189.3383,579 Q189.8383,579.2 190.2633,579.6 Z " fill="#000000"/><text fill="#000000" font-family="sans-serif" font-size="9.6" lengthAdjust="spacing" textLength="68.8" x="204.0233" y="586.3281">HypothesisTest</text><line style="stroke:#A80036;stroke-width:1.2000000000000002;" x1="158.7433" x2="293.1433" y1="595.2" y2="595.2"/><text fill="#000000" font-family="sans-serif" font-size="8.8" lengthAdjust="spacing" textLength="28" x="162.7433" y="607.5352">-tObsA</text><text fill="#000000" font-family="sans-serif" font-size="8.8" lengthAdjust="spacing" textLength="27.2" x="162.7433" y="618.6039">-tObsB</text><text fill="#000000" font-family="sans-serif" font-size="8.8" lengthAdjust="spacing" textLength="27.2" x="162.7433" y="629.6727">-tObsC</text><text fill="#000000" font-family="sans-serif" font-size="8.8" lengthAdjust="spacing" textLength="70.4" x="162.7433" y="640.7414">-significanceLevel</text><text fill="#000000" font-family="sans-serif" font-size="8.8" lengthAdjust="spacing" textLength="25.6" x="162.7433" y="651.8102">-critTD</text><text fill="#000000" font-family="sans-serif" font-size="8.8" lengthAdjust="spacing" textLength="6.4" x="162.7433" y="662.8789">-f</text><text fill="#000000" font-family="sans-serif" font-size="8.8" lengthAdjust="spacing" textLength="25.6" x="162.7433" y="673.9477">-critFD</text><text fill="#000000" font-family="sans-serif" font-size="8.8" lengthAdjust="spacing" textLength="118.4" x="162.7433" y="685.0164">-numeratorDegreesOfFreedom</text><text fill="#000000" font-family="sans-serif" font-size="8.8" lengthAdjust="spacing" textLength="126.4" x="162.7433" y="696.0852">-denominatorDegreesOfFreedom</text><!--MD5=[39ee656b41ae4892150ca74368648c0e]
class SignificanceModelAnova--><rect codeLine="55" fill="#FEFECE" filter="url(#fueneg9jr2r6x)" height="142.6875" id="SignificanceModelAnova" style="stroke:#A80036;stroke-width:1.2000000000000002;" width="132" x="54.3433" y="364.8"/><ellipse cx="66.3433" cy="377.6" fill="#ADD1B2" rx="8.8" ry="8.8" style="stroke:#A80036;stroke-width:0.8000000000000002;"/><path d="M67.9433,374.8 Q68.1058,374.4 68.2933,374.2 Q68.4808,374 68.6933,374 Q69.0683,374 69.3058,374.225 Q69.5433,374.45 69.5433,374.975 L69.5433,376.225 Q69.5433,376.75 69.3183,376.975 Q69.0933,377.2 68.7433,377.2 Q68.4308,377.2 68.2308,377.0625 Q68.0308,376.925 67.9433,376.5625 Q67.9058,376.3125 67.7683,376.175 Q67.5183,375.9125 67.0683,375.7625 Q66.6183,375.6 66.1683,375.6 Q65.6058,375.6 65.1308,375.825 Q64.6683,376.05 64.3058,376.55 Q63.9433,377.05 63.9433,377.7375 L63.9433,378.475 Q63.9433,379.3 64.6183,379.85 Q65.2933,380.4 66.4933,380.4 Q67.2058,380.4 67.7058,380.2375 Q67.9933,380.15 68.3183,379.8625 Q68.5308,379.7 68.6433,379.65 Q68.7558,379.6 68.8933,379.6 Q69.1558,379.6 69.3433,379.8125 Q69.5433,380.0125 69.5433,380.3 Q69.5433,380.575 69.2683,380.9 Q68.8683,381.375 68.2308,381.6375 Q67.3933,382 66.3683,382 Q65.1683,382 64.2058,381.525 Q63.4308,381.15 62.8808,380.3375 Q62.3433,379.525 62.3433,378.5625 L62.3433,377.6875 Q62.3433,376.6875 62.8183,375.8125 Q63.3058,374.9375 64.1433,374.475 Q64.9933,374 65.9433,374 Q66.5183,374 67.0183,374.2 Q67.5183,374.4 67.9433,374.8 Z " fill="#000000"/><text fill="#000000" font-family="sans-serif" font-size="9.6" lengthAdjust="spacing" textLength="106.4" x="77.5433" y="381.5281">SignificanceModelAnova</text><line style="stroke:#A80036;stroke-width:1.2000000000000002;" x1="55.1433" x2="185.5433" y1="390.4" y2="390.4"/><text fill="#000000" font-family="sans-serif" font-size="8.8" lengthAdjust="spacing" textLength="70.4" x="59.1433" y="402.7352">-significanceLevel</text><text fill="#000000" font-family="sans-serif" font-size="8.8" lengthAdjust="spacing" textLength="11.2" x="59.1433" y="413.8039">-sr</text><text fill="#000000" font-family="sans-serif" font-size="8.8" lengthAdjust="spacing" textLength="12.8" x="59.1433" y="424.8727">-se</text><text fill="#000000" font-family="sans-serif" font-size="8.8" lengthAdjust="spacing" textLength="10.4" x="59.1433" y="435.9414">-st</text><text fill="#000000" font-family="sans-serif" font-size="8.8" lengthAdjust="spacing" textLength="12.8" x="59.1433" y="447.0102">-mr</text><text fill="#000000" font-family="sans-serif" font-size="8.8" lengthAdjust="spacing" textLength="14.4" x="59.1433" y="458.0789">-me</text><text fill="#000000" font-family="sans-serif" font-size="8.8" lengthAdjust="spacing" textLength="6.4" x="59.1433" y="469.1477">-f</text><text fill="#000000" font-family="sans-serif" font-size="8.8" lengthAdjust="spacing" textLength="60" x="59.1433" y="480.2164">-degFreedomSr</text><text fill="#000000" font-family="sans-serif" font-size="8.8" lengthAdjust="spacing" textLength="61.6" x="59.1433" y="491.2852">-degFreedomSe</text><text fill="#000000" font-family="sans-serif" font-size="8.8" lengthAdjust="spacing" textLength="59.2" x="59.1433" y="502.3539">-degFreedomSt</text><!--MD5=[2326f07dd74de3a812ad289cd3fa63bf]
class TableOfValues--><rect codeLine="68" fill="#FEFECE" filter="url(#fueneg9jr2r6x)" height="65.2063" id="TableOfValues" style="stroke:#A80036;stroke-width:1.2000000000000002;" width="90.4" x="379.1433" y="403.2"/><ellipse cx="391.1433" cy="416" fill="#ADD1B2" rx="8.8" ry="8.8" style="stroke:#A80036;stroke-width:0.8000000000000002;"/><path d="M392.7433,413.2 Q392.9058,412.8 393.0933,412.6 Q393.2808,412.4 393.4933,412.4 Q393.8683,412.4 394.1058,412.625 Q394.3433,412.85 394.3433,413.375 L394.3433,414.625 Q394.3433,415.15 394.1183,415.375 Q393.8933,415.6 393.5433,415.6 Q393.2308,415.6 393.0308,415.4625 Q392.8308,415.325 392.7433,414.9625 Q392.7058,414.7125 392.5683,414.575 Q392.3183,414.3125 391.8683,414.1625 Q391.4183,414 390.9683,414 Q390.4058,414 389.9308,414.225 Q389.4683,414.45 389.1058,414.95 Q388.7433,415.45 388.7433,416.1375 L388.7433,416.875 Q388.7433,417.7 389.4183,418.25 Q390.0933,418.8 391.2933,418.8 Q392.0058,418.8 392.5058,418.6375 Q392.7933,418.55 393.1183,418.2625 Q393.3308,418.1 393.4433,418.05 Q393.5558,418 393.6933,418 Q393.9558,418 394.1433,418.2125 Q394.3433,418.4125 394.3433,418.7 Q394.3433,418.975 394.0683,419.3 Q393.6683,419.775 393.0308,420.0375 Q392.1933,420.4 391.1683,420.4 Q389.9683,420.4 389.0058,419.925 Q388.2308,419.55 387.6808,418.7375 Q387.1433,417.925 387.1433,416.9625 L387.1433,416.0875 Q387.1433,415.0875 387.6183,414.2125 Q388.1058,413.3375 388.9433,412.875 Q389.7933,412.4 390.7433,412.4 Q391.3183,412.4 391.8183,412.6 Q392.3183,412.8 392.7433,413.2 Z " fill="#000000"/><text fill="#000000" font-family="sans-serif" font-size="9.6" lengthAdjust="spacing" textLength="64.8" x="402.3433" y="419.9281">TableOfValues</text><line style="stroke:#A80036;stroke-width:1.2000000000000002;" x1="379.9433" x2="468.7433" y1="428.8" y2="428.8"/><text fill="#000000" font-family="sans-serif" font-size="8.8" lengthAdjust="spacing" textLength="24.8" x="383.9433" y="441.1352">-dates</text><text fill="#000000" font-family="sans-serif" font-size="8.8" lengthAdjust="spacing" textLength="74.4" x="383.9433" y="452.2039">-observedPositives</text><text fill="#000000" font-family="sans-serif" font-size="8.8" lengthAdjust="spacing" textLength="74.4" x="383.9433" y="463.2727">-estimatedPositives</text><!--MD5=[fe0bb2d390fc5dca74774fa5d2975c11]
class ConfidenceInterval--><rect codeLine="74" fill="#FEFECE" filter="url(#fueneg9jr2r6x)" height="98.4125" id="ConfidenceInterval" style="stroke:#A80036;stroke-width:1.2000000000000002;" width="107.2" x="454.7433" y="586.4"/><ellipse cx="466.7433" cy="599.2" fill="#ADD1B2" rx="8.8" ry="8.8" style="stroke:#A80036;stroke-width:0.8000000000000002;"/><path d="M468.3433,596.4 Q468.5058,596 468.6933,595.8 Q468.8808,595.6 469.0933,595.6 Q469.4683,595.6 469.7058,595.825 Q469.9433,596.05 469.9433,596.575 L469.9433,597.825 Q469.9433,598.35 469.7183,598.575 Q469.4933,598.8 469.1433,598.8 Q468.8308,598.8 468.6308,598.6625 Q468.4308,598.525 468.3433,598.1625 Q468.3058,597.9125 468.1683,597.775 Q467.9183,597.5125 467.4683,597.3625 Q467.0183,597.2 466.5683,597.2 Q466.0058,597.2 465.5308,597.425 Q465.0683,597.65 464.7058,598.15 Q464.3433,598.65 464.3433,599.3375 L464.3433,600.075 Q464.3433,600.9 465.0183,601.45 Q465.6933,602 466.8933,602 Q467.6058,602 468.1058,601.8375 Q468.3933,601.75 468.7183,601.4625 Q468.9308,601.3 469.0433,601.25 Q469.1558,601.2 469.2933,601.2 Q469.5558,601.2 469.7433,601.4125 Q469.9433,601.6125 469.9433,601.9 Q469.9433,602.175 469.6683,602.5 Q469.2683,602.975 468.6308,603.2375 Q467.7933,603.6 466.7683,603.6 Q465.5683,603.6 464.6058,603.125 Q463.8308,602.75 463.2808,601.9375 Q462.7433,601.125 462.7433,600.1625 L462.7433,599.2875 Q462.7433,598.2875 463.2183,597.4125 Q463.7058,596.5375 464.5433,596.075 Q465.3933,595.6 466.3433,595.6 Q466.9183,595.6 467.4183,595.8 Q467.9183,596 468.3433,596.4 Z " fill="#000000"/><text fill="#000000" font-family="sans-serif" font-size="9.6" lengthAdjust="spacing" textLength="81.6" x="477.9433" y="603.1281">ConfidenceInterval</text><line style="stroke:#A80036;stroke-width:1.2000000000000002;" x1="455.5433" x2="561.1433" y1="612" y2="612"/><text fill="#000000" font-family="sans-serif" font-size="8.8" lengthAdjust="spacing" textLength="12.8" x="459.5433" y="624.3352">-y0</text><text fill="#000000" font-family="sans-serif" font-size="8.8" lengthAdjust="spacing" textLength="36.8" x="459.5433" y="635.4039">-auxDelta</text><text fill="#000000" font-family="sans-serif" font-size="8.8" lengthAdjust="spacing" textLength="67.2" x="459.5433" y="646.4727">-confidenceLevel</text><text fill="#000000" font-family="sans-serif" font-size="8.8" lengthAdjust="spacing" textLength="21.6" x="459.5433" y="657.5414">-delta</text><text fill="#000000" font-family="sans-serif" font-size="8.8" lengthAdjust="spacing" textLength="22.4" x="459.5433" y="668.6102">-limInf</text><text fill="#000000" font-family="sans-serif" font-size="8.8" lengthAdjust="spacing" textLength="28" x="459.5433" y="679.6789">-limSup</text><!--MD5=[58ba2803d73c4fba726c522ad9701418]
link Timer to NHSReport--><path codeLine="91" d="M168.6793,214.6 C166.8313,225.472 165.9513,241.4 173.1433,252.8 C180.3273,264.192 192.3593,272.16 204.4233,277.64 " fill="none" id="Timer-NHSReport" style="stroke:#A80036;stroke-width:0.8000000000000002;"/><polygon fill="#000000" points="179.1162,249.2202,177.5924,241.7659,173.5019,244.0852,179.1162,249.2202" style="stroke:#000000;stroke-width:0.8000000000000002;"/><text fill="#000000" font-family="sans-serif" font-size="10.4" lengthAdjust="spacing" textLength="47.2" x="184.3433" y="249.9961">schedules</text><text fill="#000000" font-family="sans-serif" font-size="10.4" lengthAdjust="spacing" textLength="5.6" x="161.2739" y="231.6247">1</text><text fill="#000000" font-family="sans-serif" font-size="10.4" lengthAdjust="spacing" textLength="4" x="194.2493" y="272.8463">*</text><!--MD5=[1a29efac474ed00332939ff55dd5f4e3]
link Company to NHSReport--><path codeLine="93" d="M232.6313,126.528 C233.7353,134.536 234.7513,142.656 235.5433,150.4 C240.2953,196.832 241.9753,252.376 242.5193,276.552 " fill="none" id="Company-NHSReport" style="stroke:#A80036;stroke-width:0.8000000000000002;"/><polygon fill="#000000" points="243.8064,205.732,245.6765,198.3569,240.9844,198.6662,243.8064,205.732" style="stroke:#000000;stroke-width:0.8000000000000002;"/><text fill="#000000" font-family="sans-serif" font-size="10.4" lengthAdjust="spacing" textLength="32" x="250.7433" y="205.9961">reports</text><text fill="#000000" font-family="sans-serif" font-size="10.4" lengthAdjust="spacing" textLength="5.6" x="227.6626" y="143.3085">1</text><text fill="#000000" font-family="sans-serif" font-size="10.4" lengthAdjust="spacing" textLength="16" x="223.7951" y="268.1525">1..*</text><!--MD5=[01558f40b86ad3407c4a50a817100da8]
link Company to Timer--><path codeLine="94" d="M199.8313,126.616 C196.7753,134.616 193.6793,142.704 190.7433,150.4 C185.7353,163.52 179.9993,178.568 176.1193,188.784 " fill="none" id="Company-Timer" style="stroke:#A80036;stroke-width:0.8000000000000002;"/><polygon fill="#000000" points="193.3178,161.478,198.0933,155.5549,193.6998,153.8791,193.3178,161.478" style="stroke:#000000;stroke-width:0.8000000000000002;"/><text fill="#000000" font-family="sans-serif" font-size="10.4" lengthAdjust="spacing" textLength="29.6" x="201.9433" y="161.9961">knows</text><text fill="#000000" font-family="sans-serif" font-size="10.4" lengthAdjust="spacing" textLength="5.6" x="191.9413" y="143.4044">1</text><text fill="#000000" font-family="sans-serif" font-size="10.4" lengthAdjust="spacing" textLength="5.6" x="171.1298" y="180.2229">1</text><!--MD5=[cdd11370488bf2667b85afc1097a0f02]
link Company to NhsAPI--><path codeLine="97" d="M266.2633,126.584 C303.8393,178.208 355.2073,248.768 375.5353,276.704 " fill="none" id="Company-NhsAPI" style="stroke:#A80036;stroke-width:0.8000000000000002;"/><polygon fill="#000000" points="336.2973,204.9746,333.9398,197.7406,330.138,200.5079,336.2973,204.9746" style="stroke:#000000;stroke-width:0.8000000000000002;"/><text fill="#000000" font-family="sans-serif" font-size="10.4" lengthAdjust="spacing" textLength="62.4" x="341.1433" y="205.9961">makes use of</text><text fill="#000000" font-family="sans-serif" font-size="10.4" lengthAdjust="spacing" textLength="4" x="265.9612" y="143.3695">*</text><text fill="#000000" font-family="sans-serif" font-size="10.4" lengthAdjust="spacing" textLength="5.6" x="365.9451" y="268.1154">1</text><!--MD5=[e0d1e07505e582841357f2ac6b32b3f0]
link NHSReport to NhsAPI--><path codeLine="99" d="M281.0633,289.6 C304.3273,289.6 333.5593,289.6 354.9833,289.6 " fill="none" id="NHSReport-NhsAPI" style="stroke:#A80036;stroke-width:0.8000000000000002;"/><polygon fill="#000000" points="302.7433,280.1406,295.5072,277.7895,295.5072,282.4918,302.7433,280.1406" style="stroke:#000000;stroke-width:0.8000000000000002;"/><text fill="#000000" font-family="sans-serif" font-size="10.4" lengthAdjust="spacing" textLength="34.4" x="305.9433" y="284.3961">sent by</text><text fill="#000000" font-family="sans-serif" font-size="10.4" lengthAdjust="spacing" textLength="4" x="287.2373" y="286.6376">*</text><text fill="#000000" font-family="sans-serif" font-size="10.4" lengthAdjust="spacing" textLength="5.6" x="343.0518" y="286.3638">1</text><!--MD5=[1e1bea86187fd5c0a36de60e63fbe61a]
link NHSReport to RegressionModel--><path codeLine="100" d="M254.9113,302.536 C267.8233,316.296 287.5513,340.048 296.3433,364.8 C344.9673,501.632 329.7353,676.632 317.4393,763.712 " fill="none" id="NHSReport-RegressionModel" style="stroke:#A80036;stroke-width:0.8000000000000002;"/><polygon fill="#000000" points="332.8807,542.5044,334.2383,535.018,329.5787,535.6498,332.8807,542.5044" style="stroke:#000000;stroke-width:0.8000000000000002;"/><text fill="#000000" font-family="sans-serif" font-size="10.4" lengthAdjust="spacing" textLength="16.8" x="339.5433" y="542.7961">has</text><text fill="#000000" font-family="sans-serif" font-size="10.4" lengthAdjust="spacing" textLength="4" x="254.1524" y="319.5403">*</text><text fill="#000000" font-family="sans-serif" font-size="10.4" lengthAdjust="spacing" textLength="5.6" x="312.4886" y="755.3878">1</text><!--MD5=[8b5211240efe264c13d5ef595a4d03bb]
link NHSReport to HypothesisTest--><path codeLine="101" d="M242.1513,302.456 C240.1193,344.24 233.2553,484.928 229.1433,569.28 " fill="none" id="NHSReport-HypothesisTest" style="stroke:#A80036;stroke-width:0.8000000000000002;"/><polygon fill="#000000" points="242.5485,440.1359,245.2492,433.0229,240.5525,432.7939,242.5485,440.1359" style="stroke:#000000;stroke-width:0.8000000000000002;"/><text fill="#000000" font-family="sans-serif" font-size="10.4" lengthAdjust="spacing" textLength="39.2" x="249.9433" y="440.3961">contains</text><text fill="#000000" font-family="sans-serif" font-size="10.4" lengthAdjust="spacing" textLength="5.6" x="235.4277" y="319.6772">1</text><text fill="#000000" font-family="sans-serif" font-size="10.4" lengthAdjust="spacing" textLength="5.6" x="223.5789" y="560.829">1</text><!--MD5=[547d65f66fccba149814dbcd0a782d42]
link NHSReport to SignificanceModelAnova--><path codeLine="102" d="M207.0713,302.536 C194.3833,308.224 180.7673,316.072 170.7433,326.4 C160.1593,337.304 151.5113,350.84 144.5593,364.616 " fill="none" id="NHSReport-SignificanceModelAnova" style="stroke:#A80036;stroke-width:0.8000000000000002;"/><polygon fill="#000000" points="171.9051,336.5592,178.6962,333.1286,175.3827,329.7921,171.9051,336.5592" style="stroke:#000000;stroke-width:0.8000000000000002;"/><text fill="#000000" font-family="sans-serif" font-size="10.4" lengthAdjust="spacing" textLength="39.2" x="181.9433" y="337.9961">contains</text><text fill="#000000" font-family="sans-serif" font-size="10.4" lengthAdjust="spacing" textLength="5.6" x="192.5747" y="317.8361">1</text><text fill="#000000" font-family="sans-serif" font-size="10.4" lengthAdjust="spacing" textLength="5.6" x="140.7328" y="356.1703">1</text><!--MD5=[306e6753dd5938314f2cd068130fe945]
link Company to RegressionModel--><path codeLine="103" d="M162.5033,78.184 C100.0793,93.88 11.5433,128.824 11.5433,200.8 C11.5433,200.8 11.5433,200.8 11.5433,636.4 C11.5433,749.816 171.1833,794.552 256.3033,810.344 " fill="none" id="Company-RegressionModel" style="stroke:#A80036;stroke-width:0.8000000000000002;"/><polygon fill="#000000" points="16.0516,337.7082,17.4642,330.232,12.8,330.8296,16.0516,337.7082" style="stroke:#000000;stroke-width:0.8000000000000002;"/><text fill="#000000" font-family="sans-serif" font-size="10.4" lengthAdjust="spacing" textLength="62.4" x="22.7433" y="337.9961">makes use of</text><text fill="#000000" font-family="sans-serif" font-size="10.4" lengthAdjust="spacing" textLength="4" x="152.3766" y="76.7756">*</text><text fill="#000000" font-family="sans-serif" font-size="10.4" lengthAdjust="spacing" textLength="5.6" x="244.3624" y="820.9255">1</text><!--MD5=[3613c24fd87214899814450dc04493e5]
link HypothesisTest to RegressionModel--><path codeLine="104" d="M255.5753,701.704 C264.7993,722.04 274.8713,744.24 283.7193,763.736 " fill="none" id="HypothesisTest-RegressionModel" style="stroke:#A80036;stroke-width:0.8000000000000002;"/><polygon fill="#000000" points="277.196,736.5832,276.3474,729.0223,272.0652,730.9651,277.196,736.5832" style="stroke:#000000;stroke-width:0.8000000000000002;"/><text fill="#000000" font-family="sans-serif" font-size="10.4" lengthAdjust="spacing" textLength="8" x="282.7433" y="737.1961">of</text><text fill="#000000" font-family="sans-serif" font-size="10.4" lengthAdjust="spacing" textLength="4" x="253.7772" y="718.3042">*</text><text fill="#000000" font-family="sans-serif" font-size="10.4" lengthAdjust="spacing" textLength="5.6" x="275.2912" y="755.4142">1</text><!--MD5=[2924ce52b3cd3a70f6e893e26caf63a8]
link SignificanceModelAnova to RegressionModel--><path codeLine="105" d="M103.7273,507.288 C94.3993,563.536 90.4153,642.432 123.5433,701.6 C151.8393,752.136 212.1593,783.808 256.2153,801.136 " fill="none" id="SignificanceModelAnova-RegressionModel" style="stroke:#A80036;stroke-width:0.8000000000000002;"/><polygon fill="#000000" points="129.3857,639.291,128.1396,631.7853,123.9659,633.9512,129.3857,639.291" style="stroke:#000000;stroke-width:0.8000000000000002;"/><text fill="#000000" font-family="sans-serif" font-size="10.4" lengthAdjust="spacing" textLength="8" x="134.7433" y="639.9961">of</text><text fill="#000000" font-family="sans-serif" font-size="10.4" lengthAdjust="spacing" textLength="5.6" x="96.4587" y="524.7601">1</text><text fill="#000000" font-family="sans-serif" font-size="10.4" lengthAdjust="spacing" textLength="5.6" x="244.2643" y="796.3728">1</text><!--MD5=[c6acbac970cf27bd6d16a5c7db39602e]
link SignificanceModelAnova to HypothesisTest--><path codeLine="106" d="M151.5193,507.352 C157.6233,520.216 164.1833,533.408 170.7433,545.6 C174.9753,553.456 179.6073,561.576 184.3353,569.56 " fill="none" id="SignificanceModelAnova-HypothesisTest" style="stroke:#A80036;stroke-width:0.8000000000000002;"/><polygon fill="#000000" points="176.6096,542.0785,175.313,534.5814,171.1539,536.7754,176.6096,542.0785" style="stroke:#000000;stroke-width:0.8000000000000002;"/><text fill="#000000" font-family="sans-serif" font-size="10.4" lengthAdjust="spacing" textLength="39.2" x="181.9433" y="542.7961">contains</text><text fill="#000000" font-family="sans-serif" font-size="10.4" lengthAdjust="spacing" textLength="5.6" x="148.2692" y="524.5867">1</text><text fill="#000000" font-family="sans-serif" font-size="10.4" lengthAdjust="spacing" textLength="5.6" x="174.6414" y="560.9086">1</text><!--MD5=[0dcaa8173aedfc40b07273db6fb5ce96]
link NHSReport to TableOfValues--><path codeLine="107" d="M280.9193,295.464 C304.8073,300.208 335.1193,309.264 357.1433,326.4 C382.6393,346.232 400.8633,378.672 411.8393,402.976 " fill="none" id="NHSReport-TableOfValues" style="stroke:#A80036;stroke-width:0.8000000000000002;"/><polygon fill="#000000" points="378.6346,336.2792,374.5346,329.8699,371.5503,333.5039,378.6346,336.2792" style="stroke:#000000;stroke-width:0.8000000000000002;"/><text fill="#000000" font-family="sans-serif" font-size="10.4" lengthAdjust="spacing" textLength="39.2" x="382.7433" y="337.9961">contains</text><text fill="#000000" font-family="sans-serif" font-size="10.4" lengthAdjust="spacing" textLength="5.6" x="287.1938" y="308.1596">1</text><text fill="#000000" font-family="sans-serif" font-size="10.4" lengthAdjust="spacing" textLength="5.6" x="403.7046" y="394.4984">1</text><!--MD5=[60801c19033a4adc54741325ca863d30]
link TableOfValues to RegressionModel--><path codeLine="108" d="M420.8793,468.856 C413.9833,525.376 395.7513,645.696 357.1433,740 C353.8713,747.984 349.8153,756.072 345.4393,763.856 " fill="none" id="TableOfValues-RegressionModel" style="stroke:#A80036;stroke-width:0.8000000000000002;"/><polygon fill="#000000" points="406.5523,639.6159,410.6229,633.188,406.0672,632.0229,406.5523,639.6159" style="stroke:#000000;stroke-width:0.8000000000000002;"/><text fill="#000000" font-family="sans-serif" font-size="10.4" lengthAdjust="spacing" textLength="8" x="414.7433" y="639.9961">of</text><text fill="#000000" font-family="sans-serif" font-size="10.4" lengthAdjust="spacing" textLength="5.6" x="414.3201" y="485.7148">1</text><text fill="#000000" font-family="sans-serif" font-size="10.4" lengthAdjust="spacing" textLength="5.6" x="343.5904" y="755.1645">1</text><!--MD5=[fbf6af04bdbd2e53a8939c56935774d0]
link TableOfValues to ConfidenceInterval--><path codeLine="109" d="M437.9353,468.832 C451.3993,500.576 472.1993,549.6 487.7033,586.152 " fill="none" id="TableOfValues-ConfidenceInterval" style="stroke:#A80036;stroke-width:0.8000000000000002;"/><polygon fill="#000000" points="473.9054,542.223,473.244,534.6433,468.9151,536.4797,473.9054,542.223" style="stroke:#000000;stroke-width:0.8000000000000002;"/><text fill="#000000" font-family="sans-serif" font-size="10.4" lengthAdjust="spacing" textLength="39.2" x="479.5433" y="542.7961">contains</text><text fill="#000000" font-family="sans-serif" font-size="10.4" lengthAdjust="spacing" textLength="5.6" x="433.9878" y="485.6872">1</text><text fill="#000000" font-family="sans-serif" font-size="10.4" lengthAdjust="spacing" textLength="4" x="481.0856" y="577.7062">*</text><!--MD5=[e9ea997fd01ddd5be83691ad6dfc4b93]
link ConfidenceInterval to RegressionModel--><path codeLine="110" d="M475.7593,684.824 C462.0873,703.248 445.2473,723.704 427.5433,740 C407.4313,758.504 382.4793,775.568 360.5993,788.984 " fill="none" id="ConfidenceInterval-RegressionModel" style="stroke:#A80036;stroke-width:0.8000000000000002;"/><polygon fill="#000000" points="440.5767,735.6238,447.5204,732.5136,444.3662,729.0262,440.5767,735.6238" style="stroke:#000000;stroke-width:0.8000000000000002;"/><text fill="#000000" font-family="sans-serif" font-size="10.4" lengthAdjust="spacing" textLength="8" x="450.7433" y="737.1961">of</text><text fill="#000000" font-family="sans-serif" font-size="10.4" lengthAdjust="spacing" textLength="4" x="467.7605" y="702.0672">*</text><text fill="#000000" font-family="sans-serif" font-size="10.4" lengthAdjust="spacing" textLength="5.6" x="366.6211" y="783.0408">1</text><!--MD5=[712485657d9914c6255abfbf3ad14f5d]
@startuml

skinparam classAttributeIconSize 0
hide empty methods
hide empty attributes

class Company {
-designation
-classNameForBarcodeApi
-classNameForSortAlgorithm
-regressionModelCLass
-dateInterval
-historicalPoints
-confidenceLevel
-significanceLevel
}

class Timer {}

class NhsAPI{}

class NHSReport {}

class RegressionModel {
-intercept
-slope
-secondIndVariable
-r
-r2
-r2Adjusted
-numberOfObservations
}

/'class ConfigFile {}'/

'The interval of dates to fit the regression model
/'class IntervalOfDates {}'/

'Number of days and number of weeks
/'class NumberOfHistoricalPoints {}'/

'hypothesis tests for regression coefficients
class HypothesisTest {
-tObsA
-tObsB
-tObsC
-significanceLevel
-critTD
-f
-critFD
-numeratorDegreesOfFreedom
-denominatorDegreesOfFreedom
}

'significance model with Anova.
class SignificanceModelAnova {
-significanceLevel
-sr
-se
-st
-mr
-me
-f
-degFreedomSr
-degFreedomSe
-degFreedomSt
}

class TableOfValues {
-dates
-observedPositives
-estimatedPositives
}

class ConfidenceInterval {
-y0
-auxDelta
-confidenceLevel
-delta
-limInf
-limSup
}

/'class NHSReportTask {
-regressionModelClass
-historicalPoints
-significanceLevel
-confidenceLevel
-dateInterval
}'/

Timer "1" - - "*" NHSReport : schedules >
/'NHSReportTask "1" - - "1..*" NHSReport : reports >'/
Company "1" - - "1..*" NHSReport : reports >
Company "1" - - "1" Timer : knows >
/'Company "1" - - "1" NHSReportTask : knows >'/
/'Company "*" - "1" NhsAPI : makes use of >'/
Company "*" - "1" NhsAPI : makes use of >
/'NHSReportTask "*" - "1" NhsAPI : makes use of >'/
NHSReport "*" - "1" NhsAPI : sent by >
NHSReport "*" - - "1" RegressionModel : has >
NHSReport "1" - - "1" HypothesisTest : contains >
NHSReport "1" - - "1" SignificanceModelAnova : contains >
Company "*" - - "1" RegressionModel : makes use of >
HypothesisTest "*" - - "1" RegressionModel : of >
SignificanceModelAnova "1" - - "1" RegressionModel : of >
SignificanceModelAnova "1" - - "1" HypothesisTest : contains >
NHSReport "1" - "1" TableOfValues : contains >
TableOfValues "1" - - "1" RegressionModel : of >
TableOfValues "1" - - "*" ConfidenceInterval : contains >
ConfidenceInterval "*" - - "1" RegressionModel : of >
/'Timer "1" - - "*" NHSReportTask : schedules >'/
/'NHSReportTask "1" - - "1" RegressionModel : makes use of >'/
/'NHSReportTask "*" - - "1" RegressionModel : makes use of >'/


'ANTIGO
/'NHSReportTask "1" - - "1..*" NHSReport : reports >
Company "1" - - "1" Timer : knows >
Company "*" - "1" NhsAPI : makes use of >'/
/'NHSReportTask "*" - - "1" NhsAPI : makes use of >'/
/'NHSReport "*" - - "1" NhsAPI : sent by >
NHSReport "*" - - "1" RegressionModel : has >
NHSReport "1" - - "1" HypothesisTest : contains >
NHSReport "1" - - "1" SignificanceModelAnova : contains >
Company "*" - - "1" RegressionModel : makes use of >
HypothesisTest "*" - - "1" RegressionModel : of >
SignificanceModelAnova "1" - - "1" RegressionModel : of >
SignificanceModelAnova "1" - - "1" HypothesisTest : contains >
NHSReport "1" - - "1" TableOfValues : contains >
TableOfValues "1" - - "1" RegressionModel : of >
TableOfValues "1" - - "*" ConfidenceInterval : contains >
ConfidenceInterval "*" - - "1" RegressionModel : of >
Timer "1" - "*" NHSReportTask : schedules >
NHSReportTask "1" - - "1" RegressionModel : makes use of >'/
/'NHSReportTask "*" - - "1" RegressionModel : makes use of >'/

'Apagar posteriormente
/'RegressionModel "1" - - "1" ConfigFile : defined by >
IntervalOfDates "1" - - "1" ConfigFile : defined by >
NumberOfHistoricalPoints "1" - - "1" ConfigFile : defined by >'/



@enduml

@startuml

skinparam classAttributeIconSize 0
hide empty methods
hide empty attributes

class Company {
-designation
-classNameForBarcodeApi
-classNameForSortAlgorithm
-regressionModelCLass
-dateInterval
-historicalPoints
-confidenceLevel
-significanceLevel
}

class Timer {}

class NhsAPI{}

class NHSReport {}

class RegressionModel {
-intercept
-slope
-secondIndVariable
-r
-r2
-r2Adjusted
-numberOfObservations
}




class HypothesisTest {
-tObsA
-tObsB
-tObsC
-significanceLevel
-critTD
-f
-critFD
-numeratorDegreesOfFreedom
-denominatorDegreesOfFreedom
}

class SignificanceModelAnova {
-significanceLevel
-sr
-se
-st
-mr
-me
-f
-degFreedomSr
-degFreedomSe
-degFreedomSt
}

class TableOfValues {
-dates
-observedPositives
-estimatedPositives
}

class ConfidenceInterval {
-y0
-auxDelta
-confidenceLevel
-delta
-limInf
-limSup
}


Timer "1" - - "*" NHSReport : schedules >
Company "1" - - "1..*" NHSReport : reports >
Company "1" - - "1" Timer : knows >
Company "*" - "1" NhsAPI : makes use of >
NHSReport "*" - "1" NhsAPI : sent by >
NHSReport "*" - - "1" RegressionModel : has >
NHSReport "1" - - "1" HypothesisTest : contains >
NHSReport "1" - - "1" SignificanceModelAnova : contains >
Company "*" - - "1" RegressionModel : makes use of >
HypothesisTest "*" - - "1" RegressionModel : of >
SignificanceModelAnova "1" - - "1" RegressionModel : of >
SignificanceModelAnova "1" - - "1" HypothesisTest : contains >
NHSReport "1" - "1" TableOfValues : contains >
TableOfValues "1" - - "1" RegressionModel : of >
TableOfValues "1" - - "*" ConfidenceInterval : contains >
ConfidenceInterval "*" - - "1" RegressionModel : of >






@enduml

PlantUML version 1.2021.4(Sun Apr 04 09:49:39 BST 2021)
(GPL source distribution)
Java Runtime: OpenJDK Runtime Environment
JVM: OpenJDK 64-Bit Server VM
Default Encoding: Cp1252
Language: pt
Country: PT
--></g></svg>