<?xml version="1.0" encoding="UTF-8" standalone="no"?><svg xmlns="http://www.w3.org/2000/svg" xmlns:xlink="http://www.w3.org/1999/xlink" contentScriptType="application/ecmascript" contentStyleType="text/css" height="1182px" preserveAspectRatio="none" style="width:828px;height:1182px;" version="1.1" viewBox="0 0 828 1182" width="828px" zoomAndPan="magnify"><defs><filter height="300%" id="f1jbml4zvidqsv" width="300%" x="-1" y="-1"><feGaussianBlur result="blurOut" stdDeviation="2.0"/><feColorMatrix in="blurOut" result="blurOut2" type="matrix" values="0 0 0 0 0 0 0 0 0 0 0 0 0 0 0 0 0 0 .4 0"/><feOffset dx="4.0" dy="4.0" in="blurOut2" result="blurOut3"/><feBlend in="SourceGraphic" in2="blurOut3" mode="normal"/></filter></defs><g><!--MD5=[02e4b9b7573f1156f41e60aa5b4e25a4]
class Company--><rect codeLine="6" fill="#FEFECE" filter="url(#f1jbml4zvidqsv)" height="150.6875" id="Company" style="stroke:#A80036;stroke-width:1.5;" width="150" x="55.8692" y="7"/><ellipse cx="100.1192" cy="23" fill="#ADD1B2" rx="11" ry="11" style="stroke:#A80036;stroke-width:1.0;"/><path d="M102.1192,19.5 Q102.3223,19 102.5567,18.75 Q102.791,18.5 103.0567,18.5 Q103.5254,18.5 103.8223,18.7813 Q104.1192,19.0625 104.1192,19.7188 L104.1192,21.2813 Q104.1192,21.9375 103.8379,22.2188 Q103.5567,22.5 103.1192,22.5 Q102.7285,22.5 102.4785,22.3281 Q102.2285,22.1563 102.1192,21.7031 Q102.0723,21.3906 101.9004,21.2188 Q101.5879,20.8906 101.0254,20.7031 Q100.4629,20.5 99.9004,20.5 Q99.1973,20.5 98.6035,20.7813 Q98.0254,21.0625 97.5723,21.6875 Q97.1192,22.3125 97.1192,23.1719 L97.1192,24.0938 Q97.1192,25.125 97.9629,25.8125 Q98.8067,26.5 100.3067,26.5 Q101.1973,26.5 101.8223,26.2969 Q102.1817,26.1875 102.5879,25.8281 Q102.8535,25.625 102.9942,25.5625 Q103.1348,25.5 103.3067,25.5 Q103.6348,25.5 103.8692,25.7656 Q104.1192,26.0156 104.1192,26.375 Q104.1192,26.7188 103.7754,27.125 Q103.2754,27.7188 102.4785,28.0469 Q101.4317,28.5 100.1504,28.5 Q98.6504,28.5 97.4473,27.9063 Q96.4785,27.4375 95.791,26.4219 Q95.1192,25.4063 95.1192,24.2031 L95.1192,23.1094 Q95.1192,21.8594 95.7129,20.7656 Q96.3223,19.6719 97.3692,19.0938 Q98.4317,18.5 99.6192,18.5 Q100.3379,18.5 100.9629,18.75 Q101.5879,19 102.1192,19.5 Z " fill="#000000"/><text fill="#000000" font-family="sans-serif" font-size="12" lengthAdjust="spacing" textLength="53" x="120.6192" y="27.9102">Company</text><line style="stroke:#A80036;stroke-width:1.5;" x1="56.8692" x2="204.8692" y1="39" y2="39"/><text fill="#000000" font-family="sans-serif" font-size="11" lengthAdjust="spacing" textLength="59" x="61.8692" y="54.4189">-designation</text><text fill="#000000" font-family="sans-serif" font-size="11" lengthAdjust="spacing" textLength="130" x="61.8692" y="68.2549">-classNameForBarcodeApi</text><text fill="#000000" font-family="sans-serif" font-size="11" lengthAdjust="spacing" textLength="138" x="61.8692" y="82.0908">-classNameForSortAlgorithm</text><text fill="#000000" font-family="sans-serif" font-size="11" lengthAdjust="spacing" textLength="115" x="61.8692" y="95.9268">-regressionModelCLass</text><text fill="#000000" font-family="sans-serif" font-size="11" lengthAdjust="spacing" textLength="60" x="61.8692" y="109.7627">-dateInterval</text><text fill="#000000" font-family="sans-serif" font-size="11" lengthAdjust="spacing" textLength="76" x="61.8692" y="123.5986">-historicalPoints</text><text fill="#000000" font-family="sans-serif" font-size="11" lengthAdjust="spacing" textLength="84" x="61.8692" y="137.4346">-confidenceLevel</text><text fill="#000000" font-family="sans-serif" font-size="11" lengthAdjust="spacing" textLength="88" x="61.8692" y="151.2705">-significanceLevel</text><!--MD5=[1b844c90688aafb95cd8c95626c3b83a]
class Timer--><rect codeLine="17" fill="#FEFECE" filter="url(#f1jbml4zvidqsv)" height="32" id="Timer" style="stroke:#A80036;stroke-width:1.5;" width="64" x="183.8692" y="274.5"/><ellipse cx="198.8692" cy="290.5" fill="#ADD1B2" rx="11" ry="11" style="stroke:#A80036;stroke-width:1.0;"/><path d="M200.8692,287 Q201.0723,286.5 201.3067,286.25 Q201.541,286 201.8067,286 Q202.2754,286 202.5723,286.2813 Q202.8692,286.5625 202.8692,287.2188 L202.8692,288.7813 Q202.8692,289.4375 202.5879,289.7188 Q202.3067,290 201.8692,290 Q201.4785,290 201.2285,289.8281 Q200.9785,289.6563 200.8692,289.2031 Q200.8223,288.8906 200.6504,288.7188 Q200.3379,288.3906 199.7754,288.2031 Q199.2129,288 198.6504,288 Q197.9473,288 197.3535,288.2813 Q196.7754,288.5625 196.3223,289.1875 Q195.8692,289.8125 195.8692,290.6719 L195.8692,291.5938 Q195.8692,292.625 196.7129,293.3125 Q197.5567,294 199.0567,294 Q199.9473,294 200.5723,293.7969 Q200.9317,293.6875 201.3379,293.3281 Q201.6035,293.125 201.7442,293.0625 Q201.8848,293 202.0567,293 Q202.3848,293 202.6192,293.2656 Q202.8692,293.5156 202.8692,293.875 Q202.8692,294.2188 202.5254,294.625 Q202.0254,295.2188 201.2285,295.5469 Q200.1817,296 198.9004,296 Q197.4004,296 196.1973,295.4063 Q195.2285,294.9375 194.541,293.9219 Q193.8692,292.9063 193.8692,291.7031 L193.8692,290.6094 Q193.8692,289.3594 194.4629,288.2656 Q195.0723,287.1719 196.1192,286.5938 Q197.1817,286 198.3692,286 Q199.0879,286 199.7129,286.25 Q200.3379,286.5 200.8692,287 Z " fill="#000000"/><text fill="#000000" font-family="sans-serif" font-size="12" lengthAdjust="spacing" textLength="32" x="212.8692" y="295.4102">Timer</text><!--MD5=[db86e106e83ea9efd94d1461be461932]
class NhsAPI--><rect codeLine="19" fill="#FEFECE" filter="url(#f1jbml4zvidqsv)" height="32" id="NhsAPI" style="stroke:#A80036;stroke-width:1.5;" width="73" x="96.3692" y="606"/><ellipse cx="111.3692" cy="622" fill="#ADD1B2" rx="11" ry="11" style="stroke:#A80036;stroke-width:1.0;"/><path d="M113.3692,618.5 Q113.5723,618 113.8067,617.75 Q114.041,617.5 114.3067,617.5 Q114.7754,617.5 115.0723,617.7813 Q115.3692,618.0625 115.3692,618.7188 L115.3692,620.2813 Q115.3692,620.9375 115.0879,621.2188 Q114.8067,621.5 114.3692,621.5 Q113.9785,621.5 113.7285,621.3281 Q113.4785,621.1563 113.3692,620.7031 Q113.3223,620.3906 113.1504,620.2188 Q112.8379,619.8906 112.2754,619.7031 Q111.7129,619.5 111.1504,619.5 Q110.4473,619.5 109.8535,619.7813 Q109.2754,620.0625 108.8223,620.6875 Q108.3692,621.3125 108.3692,622.1719 L108.3692,623.0938 Q108.3692,624.125 109.2129,624.8125 Q110.0567,625.5 111.5567,625.5 Q112.4473,625.5 113.0723,625.2969 Q113.4317,625.1875 113.8379,624.8281 Q114.1035,624.625 114.2442,624.5625 Q114.3848,624.5 114.5567,624.5 Q114.8848,624.5 115.1192,624.7656 Q115.3692,625.0156 115.3692,625.375 Q115.3692,625.7188 115.0254,626.125 Q114.5254,626.7188 113.7285,627.0469 Q112.6817,627.5 111.4004,627.5 Q109.9004,627.5 108.6973,626.9063 Q107.7285,626.4375 107.041,625.4219 Q106.3692,624.4063 106.3692,623.2031 L106.3692,622.1094 Q106.3692,620.8594 106.9629,619.7656 Q107.5723,618.6719 108.6192,618.0938 Q109.6817,617.5 110.8692,617.5 Q111.5879,617.5 112.2129,617.75 Q112.8379,618 113.3692,618.5 Z " fill="#000000"/><text fill="#000000" font-family="sans-serif" font-size="12" lengthAdjust="spacing" textLength="41" x="125.3692" y="626.9102">NhsAPI</text><!--MD5=[74783ec010d186752c4ffd5c6de5633a]
class NHSReport--><rect codeLine="21" fill="#FEFECE" filter="url(#f1jbml4zvidqsv)" height="32" id="NHSReport" style="stroke:#A80036;stroke-width:1.5;" width="95" x="337.3692" y="423"/><ellipse cx="352.3692" cy="439" fill="#ADD1B2" rx="11" ry="11" style="stroke:#A80036;stroke-width:1.0;"/><path d="M354.3692,435.5 Q354.5723,435 354.8067,434.75 Q355.041,434.5 355.3067,434.5 Q355.7754,434.5 356.0723,434.7813 Q356.3692,435.0625 356.3692,435.7188 L356.3692,437.2813 Q356.3692,437.9375 356.0879,438.2188 Q355.8067,438.5 355.3692,438.5 Q354.9785,438.5 354.7285,438.3281 Q354.4785,438.1563 354.3692,437.7031 Q354.3223,437.3906 354.1504,437.2188 Q353.8379,436.8906 353.2754,436.7031 Q352.7129,436.5 352.1504,436.5 Q351.4473,436.5 350.8535,436.7813 Q350.2754,437.0625 349.8223,437.6875 Q349.3692,438.3125 349.3692,439.1719 L349.3692,440.0938 Q349.3692,441.125 350.2129,441.8125 Q351.0567,442.5 352.5567,442.5 Q353.4473,442.5 354.0723,442.2969 Q354.4317,442.1875 354.8379,441.8281 Q355.1035,441.625 355.2442,441.5625 Q355.3848,441.5 355.5567,441.5 Q355.8848,441.5 356.1192,441.7656 Q356.3692,442.0156 356.3692,442.375 Q356.3692,442.7188 356.0254,443.125 Q355.5254,443.7188 354.7285,444.0469 Q353.6817,444.5 352.4004,444.5 Q350.9004,444.5 349.6973,443.9063 Q348.7285,443.4375 348.041,442.4219 Q347.3692,441.4063 347.3692,440.2031 L347.3692,439.1094 Q347.3692,437.8594 347.9629,436.7656 Q348.5723,435.6719 349.6192,435.0938 Q350.6817,434.5 351.8692,434.5 Q352.5879,434.5 353.2129,434.75 Q353.8379,435 354.3692,435.5 Z " fill="#000000"/><text fill="#000000" font-family="sans-serif" font-size="12" lengthAdjust="spacing" textLength="63" x="366.3692" y="443.9102">NHSReport</text><!--MD5=[f9bf174dd5fcee0192f6251129b9c376]
class RegressionModel--><rect codeLine="23" fill="#FEFECE" filter="url(#f1jbml4zvidqsv)" height="136.8516" id="RegressionModel" style="stroke:#A80036;stroke-width:1.5;" width="130" x="308.8692" y="1032"/><ellipse cx="323.8692" cy="1048" fill="#ADD1B2" rx="11" ry="11" style="stroke:#A80036;stroke-width:1.0;"/><path d="M325.8692,1044.5 Q326.0723,1044 326.3067,1043.75 Q326.541,1043.5 326.8067,1043.5 Q327.2754,1043.5 327.5723,1043.7813 Q327.8692,1044.0625 327.8692,1044.7188 L327.8692,1046.2813 Q327.8692,1046.9375 327.5879,1047.2188 Q327.3067,1047.5 326.8692,1047.5 Q326.4785,1047.5 326.2285,1047.3281 Q325.9785,1047.1563 325.8692,1046.7031 Q325.8223,1046.3906 325.6504,1046.2188 Q325.3379,1045.8906 324.7754,1045.7031 Q324.2129,1045.5 323.6504,1045.5 Q322.9473,1045.5 322.3535,1045.7813 Q321.7754,1046.0625 321.3223,1046.6875 Q320.8692,1047.3125 320.8692,1048.1719 L320.8692,1049.0938 Q320.8692,1050.125 321.7129,1050.8125 Q322.5567,1051.5 324.0567,1051.5 Q324.9473,1051.5 325.5723,1051.2969 Q325.9317,1051.1875 326.3379,1050.8281 Q326.6035,1050.625 326.7442,1050.5625 Q326.8848,1050.5 327.0567,1050.5 Q327.3848,1050.5 327.6192,1050.7656 Q327.8692,1051.0156 327.8692,1051.375 Q327.8692,1051.7188 327.5254,1052.125 Q327.0254,1052.7188 326.2285,1053.0469 Q325.1817,1053.5 323.9004,1053.5 Q322.4004,1053.5 321.1973,1052.9063 Q320.2285,1052.4375 319.541,1051.4219 Q318.8692,1050.4063 318.8692,1049.2031 L318.8692,1048.1094 Q318.8692,1046.8594 319.4629,1045.7656 Q320.0723,1044.6719 321.1192,1044.0938 Q322.1817,1043.5 323.3692,1043.5 Q324.0879,1043.5 324.7129,1043.75 Q325.3379,1044 325.8692,1044.5 Z " fill="#000000"/><text fill="#000000" font-family="sans-serif" font-size="12" lengthAdjust="spacing" textLength="98" x="337.8692" y="1052.9102">RegressionModel</text><line style="stroke:#A80036;stroke-width:1.5;" x1="309.8692" x2="437.8692" y1="1064" y2="1064"/><text fill="#000000" font-family="sans-serif" font-size="11" lengthAdjust="spacing" textLength="46" x="314.8692" y="1079.4189">-intercept</text><text fill="#000000" font-family="sans-serif" font-size="11" lengthAdjust="spacing" textLength="30" x="314.8692" y="1093.2549">-slope</text><text fill="#000000" font-family="sans-serif" font-size="11" lengthAdjust="spacing" textLength="94" x="314.8692" y="1107.0908">-secondIndVariable</text><text fill="#000000" font-family="sans-serif" font-size="11" lengthAdjust="spacing" textLength="8" x="314.8692" y="1120.9268">-r</text><text fill="#000000" font-family="sans-serif" font-size="11" lengthAdjust="spacing" textLength="14" x="314.8692" y="1134.7627">-r2</text><text fill="#000000" font-family="sans-serif" font-size="11" lengthAdjust="spacing" textLength="57" x="314.8692" y="1148.5986">-r2Adjusted</text><text fill="#000000" font-family="sans-serif" font-size="11" lengthAdjust="spacing" textLength="117" x="314.8692" y="1162.4346">-numberOfObservations</text><!--MD5=[dfe7672a7c242e7ff03cfd775649b5cb]
class HypothesisTest--><rect codeLine="42" fill="#FEFECE" filter="url(#f1jbml4zvidqsv)" height="164.5234" id="HypothesisTest" style="stroke:#A80036;stroke-width:1.5;" width="170" x="426.8692" y="789"/><ellipse cx="465.2692" cy="805" fill="#ADD1B2" rx="11" ry="11" style="stroke:#A80036;stroke-width:1.0;"/><path d="M467.2692,801.5 Q467.4723,801 467.7067,800.75 Q467.941,800.5 468.2067,800.5 Q468.6754,800.5 468.9723,800.7813 Q469.2692,801.0625 469.2692,801.7188 L469.2692,803.2813 Q469.2692,803.9375 468.9879,804.2188 Q468.7067,804.5 468.2692,804.5 Q467.8785,804.5 467.6285,804.3281 Q467.3785,804.1563 467.2692,803.7031 Q467.2223,803.3906 467.0504,803.2188 Q466.7379,802.8906 466.1754,802.7031 Q465.6129,802.5 465.0504,802.5 Q464.3473,802.5 463.7535,802.7813 Q463.1754,803.0625 462.7223,803.6875 Q462.2692,804.3125 462.2692,805.1719 L462.2692,806.0938 Q462.2692,807.125 463.1129,807.8125 Q463.9567,808.5 465.4567,808.5 Q466.3473,808.5 466.9723,808.2969 Q467.3317,808.1875 467.7379,807.8281 Q468.0035,807.625 468.1442,807.5625 Q468.2848,807.5 468.4567,807.5 Q468.7848,807.5 469.0192,807.7656 Q469.2692,808.0156 469.2692,808.375 Q469.2692,808.7188 468.9254,809.125 Q468.4254,809.7188 467.6285,810.0469 Q466.5817,810.5 465.3004,810.5 Q463.8004,810.5 462.5973,809.9063 Q461.6285,809.4375 460.941,808.4219 Q460.2692,807.4063 460.2692,806.2031 L460.2692,805.1094 Q460.2692,803.8594 460.8629,802.7656 Q461.4723,801.6719 462.5192,801.0938 Q463.5817,800.5 464.7692,800.5 Q465.4879,800.5 466.1129,800.75 Q466.7379,801 467.2692,801.5 Z " fill="#000000"/><text fill="#000000" font-family="sans-serif" font-size="12" lengthAdjust="spacing" textLength="86" x="484.4692" y="809.9102">HypothesisTest</text><line style="stroke:#A80036;stroke-width:1.5;" x1="427.8692" x2="595.8692" y1="821" y2="821"/><text fill="#000000" font-family="sans-serif" font-size="11" lengthAdjust="spacing" textLength="35" x="432.8692" y="836.4189">-tObsA</text><text fill="#000000" font-family="sans-serif" font-size="11" lengthAdjust="spacing" textLength="34" x="432.8692" y="850.2549">-tObsB</text><text fill="#000000" font-family="sans-serif" font-size="11" lengthAdjust="spacing" textLength="34" x="432.8692" y="864.0908">-tObsC</text><text fill="#000000" font-family="sans-serif" font-size="11" lengthAdjust="spacing" textLength="88" x="432.8692" y="877.9268">-significanceLevel</text><text fill="#000000" font-family="sans-serif" font-size="11" lengthAdjust="spacing" textLength="32" x="432.8692" y="891.7627">-critTD</text><text fill="#000000" font-family="sans-serif" font-size="11" lengthAdjust="spacing" textLength="8" x="432.8692" y="905.5986">-f</text><text fill="#000000" font-family="sans-serif" font-size="11" lengthAdjust="spacing" textLength="32" x="432.8692" y="919.4346">-critFD</text><text fill="#000000" font-family="sans-serif" font-size="11" lengthAdjust="spacing" textLength="148" x="432.8692" y="933.2705">-numeratorDegreesOfFreedom</text><text fill="#000000" font-family="sans-serif" font-size="11" lengthAdjust="spacing" textLength="158" x="432.8692" y="947.1064">-denominatorDegreesOfFreedom</text><!--MD5=[39ee656b41ae4892150ca74368648c0e]
class SignificanceModelAnova--><rect codeLine="55" fill="#FEFECE" filter="url(#f1jbml4zvidqsv)" height="178.3594" id="SignificanceModelAnova" style="stroke:#A80036;stroke-width:1.5;" width="165" x="561.3692" y="533"/><ellipse cx="576.3692" cy="549" fill="#ADD1B2" rx="11" ry="11" style="stroke:#A80036;stroke-width:1.0;"/><path d="M578.3692,545.5 Q578.5723,545 578.8067,544.75 Q579.041,544.5 579.3067,544.5 Q579.7754,544.5 580.0723,544.7813 Q580.3692,545.0625 580.3692,545.7188 L580.3692,547.2813 Q580.3692,547.9375 580.0879,548.2188 Q579.8067,548.5 579.3692,548.5 Q578.9785,548.5 578.7285,548.3281 Q578.4785,548.1563 578.3692,547.7031 Q578.3223,547.3906 578.1504,547.2188 Q577.8379,546.8906 577.2754,546.7031 Q576.7129,546.5 576.1504,546.5 Q575.4473,546.5 574.8535,546.7813 Q574.2754,547.0625 573.8223,547.6875 Q573.3692,548.3125 573.3692,549.1719 L573.3692,550.0938 Q573.3692,551.125 574.2129,551.8125 Q575.0567,552.5 576.5567,552.5 Q577.4473,552.5 578.0723,552.2969 Q578.4317,552.1875 578.8379,551.8281 Q579.1035,551.625 579.2442,551.5625 Q579.3848,551.5 579.5567,551.5 Q579.8848,551.5 580.1192,551.7656 Q580.3692,552.0156 580.3692,552.375 Q580.3692,552.7188 580.0254,553.125 Q579.5254,553.7188 578.7285,554.0469 Q577.6817,554.5 576.4004,554.5 Q574.9004,554.5 573.6973,553.9063 Q572.7285,553.4375 572.041,552.4219 Q571.3692,551.4063 571.3692,550.2031 L571.3692,549.1094 Q571.3692,547.8594 571.9629,546.7656 Q572.5723,545.6719 573.6192,545.0938 Q574.6817,544.5 575.8692,544.5 Q576.5879,544.5 577.2129,544.75 Q577.8379,545 578.3692,545.5 Z " fill="#000000"/><text fill="#000000" font-family="sans-serif" font-size="12" lengthAdjust="spacing" textLength="133" x="590.3692" y="553.9102">SignificanceModelAnova</text><line style="stroke:#A80036;stroke-width:1.5;" x1="562.3692" x2="725.3692" y1="565" y2="565"/><text fill="#000000" font-family="sans-serif" font-size="11" lengthAdjust="spacing" textLength="88" x="567.3692" y="580.4189">-significanceLevel</text><text fill="#000000" font-family="sans-serif" font-size="11" lengthAdjust="spacing" textLength="14" x="567.3692" y="594.2549">-sr</text><text fill="#000000" font-family="sans-serif" font-size="11" lengthAdjust="spacing" textLength="16" x="567.3692" y="608.0908">-se</text><text fill="#000000" font-family="sans-serif" font-size="11" lengthAdjust="spacing" textLength="13" x="567.3692" y="621.9268">-st</text><text fill="#000000" font-family="sans-serif" font-size="11" lengthAdjust="spacing" textLength="16" x="567.3692" y="635.7627">-mr</text><text fill="#000000" font-family="sans-serif" font-size="11" lengthAdjust="spacing" textLength="18" x="567.3692" y="649.5986">-me</text><text fill="#000000" font-family="sans-serif" font-size="11" lengthAdjust="spacing" textLength="8" x="567.3692" y="663.4346">-f</text><text fill="#000000" font-family="sans-serif" font-size="11" lengthAdjust="spacing" textLength="75" x="567.3692" y="677.2705">-degFreedomSr</text><text fill="#000000" font-family="sans-serif" font-size="11" lengthAdjust="spacing" textLength="77" x="567.3692" y="691.1064">-degFreedomSe</text><text fill="#000000" font-family="sans-serif" font-size="11" lengthAdjust="spacing" textLength="74" x="567.3692" y="704.9424">-degFreedomSt</text><!--MD5=[2326f07dd74de3a812ad289cd3fa63bf]
class TableOfValues--><rect codeLine="68" fill="#FEFECE" filter="url(#f1jbml4zvidqsv)" height="81.5078" id="TableOfValues" style="stroke:#A80036;stroke-width:1.5;" width="113" x="207.3692" y="581"/><ellipse cx="222.3692" cy="597" fill="#ADD1B2" rx="11" ry="11" style="stroke:#A80036;stroke-width:1.0;"/><path d="M224.3692,593.5 Q224.5723,593 224.8067,592.75 Q225.041,592.5 225.3067,592.5 Q225.7754,592.5 226.0723,592.7813 Q226.3692,593.0625 226.3692,593.7188 L226.3692,595.2813 Q226.3692,595.9375 226.0879,596.2188 Q225.8067,596.5 225.3692,596.5 Q224.9785,596.5 224.7285,596.3281 Q224.4785,596.1563 224.3692,595.7031 Q224.3223,595.3906 224.1504,595.2188 Q223.8379,594.8906 223.2754,594.7031 Q222.7129,594.5 222.1504,594.5 Q221.4473,594.5 220.8535,594.7813 Q220.2754,595.0625 219.8223,595.6875 Q219.3692,596.3125 219.3692,597.1719 L219.3692,598.0938 Q219.3692,599.125 220.2129,599.8125 Q221.0567,600.5 222.5567,600.5 Q223.4473,600.5 224.0723,600.2969 Q224.4317,600.1875 224.8379,599.8281 Q225.1035,599.625 225.2442,599.5625 Q225.3848,599.5 225.5567,599.5 Q225.8848,599.5 226.1192,599.7656 Q226.3692,600.0156 226.3692,600.375 Q226.3692,600.7188 226.0254,601.125 Q225.5254,601.7188 224.7285,602.0469 Q223.6817,602.5 222.4004,602.5 Q220.9004,602.5 219.6973,601.9063 Q218.7285,601.4375 218.041,600.4219 Q217.3692,599.4063 217.3692,598.2031 L217.3692,597.1094 Q217.3692,595.8594 217.9629,594.7656 Q218.5723,593.6719 219.6192,593.0938 Q220.6817,592.5 221.8692,592.5 Q222.5879,592.5 223.2129,592.75 Q223.8379,593 224.3692,593.5 Z " fill="#000000"/><text fill="#000000" font-family="sans-serif" font-size="12" lengthAdjust="spacing" textLength="81" x="236.3692" y="601.9102">TableOfValues</text><line style="stroke:#A80036;stroke-width:1.5;" x1="208.3692" x2="319.3692" y1="613" y2="613"/><text fill="#000000" font-family="sans-serif" font-size="11" lengthAdjust="spacing" textLength="31" x="213.3692" y="628.4189">-dates</text><text fill="#000000" font-family="sans-serif" font-size="11" lengthAdjust="spacing" textLength="93" x="213.3692" y="642.2549">-observedPositives</text><text fill="#000000" font-family="sans-serif" font-size="11" lengthAdjust="spacing" textLength="93" x="213.3692" y="656.0908">-estimatedPositives</text><!--MD5=[fe0bb2d390fc5dca74774fa5d2975c11]
class ConfidenceInterval--><rect codeLine="74" fill="#FEFECE" filter="url(#f1jbml4zvidqsv)" height="123.0156" id="ConfidenceInterval" style="stroke:#A80036;stroke-width:1.5;" width="134" x="91.8692" y="810"/><ellipse cx="106.8692" cy="826" fill="#ADD1B2" rx="11" ry="11" style="stroke:#A80036;stroke-width:1.0;"/><path d="M108.8692,822.5 Q109.0723,822 109.3067,821.75 Q109.541,821.5 109.8067,821.5 Q110.2754,821.5 110.5723,821.7813 Q110.8692,822.0625 110.8692,822.7188 L110.8692,824.2813 Q110.8692,824.9375 110.5879,825.2188 Q110.3067,825.5 109.8692,825.5 Q109.4785,825.5 109.2285,825.3281 Q108.9785,825.1563 108.8692,824.7031 Q108.8223,824.3906 108.6504,824.2188 Q108.3379,823.8906 107.7754,823.7031 Q107.2129,823.5 106.6504,823.5 Q105.9473,823.5 105.3535,823.7813 Q104.7754,824.0625 104.3223,824.6875 Q103.8692,825.3125 103.8692,826.1719 L103.8692,827.0938 Q103.8692,828.125 104.7129,828.8125 Q105.5567,829.5 107.0567,829.5 Q107.9473,829.5 108.5723,829.2969 Q108.9317,829.1875 109.3379,828.8281 Q109.6035,828.625 109.7442,828.5625 Q109.8848,828.5 110.0567,828.5 Q110.3848,828.5 110.6192,828.7656 Q110.8692,829.0156 110.8692,829.375 Q110.8692,829.7188 110.5254,830.125 Q110.0254,830.7188 109.2285,831.0469 Q108.1817,831.5 106.9004,831.5 Q105.4004,831.5 104.1973,830.9063 Q103.2285,830.4375 102.541,829.4219 Q101.8692,828.4063 101.8692,827.2031 L101.8692,826.1094 Q101.8692,824.8594 102.4629,823.7656 Q103.0723,822.6719 104.1192,822.0938 Q105.1817,821.5 106.3692,821.5 Q107.0879,821.5 107.7129,821.75 Q108.3379,822 108.8692,822.5 Z " fill="#000000"/><text fill="#000000" font-family="sans-serif" font-size="12" lengthAdjust="spacing" textLength="102" x="120.8692" y="830.9102">ConfidenceInterval</text><line style="stroke:#A80036;stroke-width:1.5;" x1="92.8692" x2="224.8692" y1="842" y2="842"/><text fill="#000000" font-family="sans-serif" font-size="11" lengthAdjust="spacing" textLength="16" x="97.8692" y="857.4189">-y0</text><text fill="#000000" font-family="sans-serif" font-size="11" lengthAdjust="spacing" textLength="46" x="97.8692" y="871.2549">-auxDelta</text><text fill="#000000" font-family="sans-serif" font-size="11" lengthAdjust="spacing" textLength="84" x="97.8692" y="885.0908">-confidenceLevel</text><text fill="#000000" font-family="sans-serif" font-size="11" lengthAdjust="spacing" textLength="27" x="97.8692" y="898.9268">-delta</text><text fill="#000000" font-family="sans-serif" font-size="11" lengthAdjust="spacing" textLength="28" x="97.8692" y="912.7627">-limInf</text><text fill="#000000" font-family="sans-serif" font-size="11" lengthAdjust="spacing" textLength="35" x="97.8692" y="926.5986">-limSup</text><!--MD5=[679f3b7d58d6042ffd323d827f6737cf]
class NHSReportTask--><rect codeLine="83" fill="#FEFECE" filter="url(#f1jbml4zvidqsv)" height="109.1797" id="NHSReportTask" style="stroke:#A80036;stroke-width:1.5;" width="123" x="356.3692" y="236"/><ellipse cx="371.8192" cy="252" fill="#ADD1B2" rx="11" ry="11" style="stroke:#A80036;stroke-width:1.0;"/><path d="M373.8192,248.5 Q374.0223,248 374.2567,247.75 Q374.491,247.5 374.7567,247.5 Q375.2254,247.5 375.5223,247.7813 Q375.8192,248.0625 375.8192,248.7188 L375.8192,250.2813 Q375.8192,250.9375 375.5379,251.2188 Q375.2567,251.5 374.8192,251.5 Q374.4285,251.5 374.1785,251.3281 Q373.9285,251.1563 373.8192,250.7031 Q373.7723,250.3906 373.6004,250.2188 Q373.2879,249.8906 372.7254,249.7031 Q372.1629,249.5 371.6004,249.5 Q370.8973,249.5 370.3035,249.7813 Q369.7254,250.0625 369.2723,250.6875 Q368.8192,251.3125 368.8192,252.1719 L368.8192,253.0938 Q368.8192,254.125 369.6629,254.8125 Q370.5067,255.5 372.0067,255.5 Q372.8973,255.5 373.5223,255.2969 Q373.8817,255.1875 374.2879,254.8281 Q374.5535,254.625 374.6942,254.5625 Q374.8348,254.5 375.0067,254.5 Q375.3348,254.5 375.5692,254.7656 Q375.8192,255.0156 375.8192,255.375 Q375.8192,255.7188 375.4754,256.125 Q374.9754,256.7188 374.1785,257.0469 Q373.1317,257.5 371.8504,257.5 Q370.3504,257.5 369.1473,256.9063 Q368.1785,256.4375 367.491,255.4219 Q366.8192,254.4063 366.8192,253.2031 L366.8192,252.1094 Q366.8192,250.8594 367.4129,249.7656 Q368.0223,248.6719 369.0692,248.0938 Q370.1317,247.5 371.3192,247.5 Q372.0379,247.5 372.6629,247.75 Q373.2879,248 373.8192,248.5 Z " fill="#000000"/><text fill="#000000" font-family="sans-serif" font-size="12" lengthAdjust="spacing" textLength="90" x="385.9192" y="256.9102">NHSReportTask</text><line style="stroke:#A80036;stroke-width:1.5;" x1="357.3692" x2="478.3692" y1="268" y2="268"/><text fill="#000000" font-family="sans-serif" font-size="11" lengthAdjust="spacing" textLength="111" x="362.3692" y="283.4189">-regressionModelClass</text><text fill="#000000" font-family="sans-serif" font-size="11" lengthAdjust="spacing" textLength="76" x="362.3692" y="297.2549">-historicalPoints</text><text fill="#000000" font-family="sans-serif" font-size="11" lengthAdjust="spacing" textLength="88" x="362.3692" y="311.0908">-significanceLevel</text><text fill="#000000" font-family="sans-serif" font-size="11" lengthAdjust="spacing" textLength="84" x="362.3692" y="324.9268">-confidenceLevel</text><text fill="#000000" font-family="sans-serif" font-size="11" lengthAdjust="spacing" textLength="60" x="362.3692" y="338.7627">-dateInterval</text><!--MD5=[4e966c963453e3c35798fd39e036e3d7]
link NHSReportTask to NHSReport--><path codeLine="91" d="M405.7692,345.22 C399.5492,372.82 392.4392,404.41 388.3192,422.7 " fill="none" id="NHSReportTask-NHSReport" style="stroke:#A80036;stroke-width:1.0;"/><polygon fill="#000000" points="401.7706,389.0536,406.625,380.8753,400.8908,379.5838,401.7706,389.0536" style="stroke:#000000;stroke-width:1.0;"/><text fill="#000000" font-family="sans-serif" font-size="13" lengthAdjust="spacing" textLength="40" x="411.8692" y="389.4951">reports</text><text fill="#000000" font-family="sans-serif" font-size="13" lengthAdjust="spacing" textLength="7" x="396.7704" y="366.7621">1</text><text fill="#000000" font-family="sans-serif" font-size="13" lengthAdjust="spacing" textLength="20" x="366.1495" y="412.204">1..*</text><!--MD5=[01558f40b86ad3407c4a50a817100da8]
link Company to Timer--><path codeLine="92" d="M161.6792,158.16 C179.1592,200.53 199.5092,249.85 209.5692,274.23 " fill="none" id="Company-Timer" style="stroke:#A80036;stroke-width:1.0;"/><polygon fill="#000000" points="187.7762,201.7978,187.0431,192.3155,181.6096,194.5574,187.7762,201.7978" style="stroke:#000000;stroke-width:1.0;"/><text fill="#000000" font-family="sans-serif" font-size="13" lengthAdjust="spacing" textLength="37" x="194.8692" y="202.4951">knows</text><text fill="#000000" font-family="sans-serif" font-size="13" lengthAdjust="spacing" textLength="7" x="157.1115" y="179.1357">1</text><text fill="#000000" font-family="sans-serif" font-size="13" lengthAdjust="spacing" textLength="7" x="199.3229" y="263.7439">1</text><!--MD5=[cdd11370488bf2667b85afc1097a0f02]
link Company to NhsAPI--><path codeLine="93" d="M131.1492,158.24 C131.6292,286.6 132.5692,541.41 132.8092,605.9 " fill="none" id="Company-NhsAPI" style="stroke:#A80036;stroke-width:1.0;"/><polygon fill="#000000" points="136.8877,389.1757,139.7931,380.1198,133.9153,380.1416,136.8877,389.1757" style="stroke:#000000;stroke-width:1.0;"/><text fill="#000000" font-family="sans-serif" font-size="13" lengthAdjust="spacing" textLength="78" x="145.8692" y="389.4951">makes use of</text><text fill="#000000" font-family="sans-serif" font-size="13" lengthAdjust="spacing" textLength="5" x="125.9514" y="179.2228">*</text><text fill="#000000" font-family="sans-serif" font-size="13" lengthAdjust="spacing" textLength="7" x="124.5854" y="595.1712">1</text><!--MD5=[e0d1e07505e582841357f2ac6b32b3f0]
link NHSReport to NhsAPI--><path codeLine="94" d="M337.1592,441.91 C298.7192,445.68 245.1292,456.21 207.8692,485 C166.9092,516.65 145.1992,577.33 136.9092,605.69 " fill="none" id="NHSReport-NhsAPI" style="stroke:#A80036;stroke-width:1.0;"/><polygon fill="#000000" points="208.9988,497.3413,217.861,493.8898,214.1397,489.3399,208.9988,497.3413" style="stroke:#000000;stroke-width:1.0;"/><text fill="#000000" font-family="sans-serif" font-size="13" lengthAdjust="spacing" textLength="43" x="221.8692" y="499.4951">sent by</text><text fill="#000000" font-family="sans-serif" font-size="13" lengthAdjust="spacing" textLength="5" x="324.4708" y="438.6526">*</text><text fill="#000000" font-family="sans-serif" font-size="13" lengthAdjust="spacing" textLength="7" x="139.4068" y="595.1907">1</text><!--MD5=[1e1bea86187fd5c0a36de60e63fbe61a]
link NHSReport to RegressionModel--><path codeLine="95" d="M384.6192,455.01 C383.3392,531.75 377.4892,882.37 374.9992,1031.76 " fill="none" id="NHSReport-RegressionModel" style="stroke:#A80036;stroke-width:1.0;"/><polygon fill="#000000" points="383.7858,755.1751,386.8751,746.1803,380.9981,746.0822,383.7858,755.1751" style="stroke:#000000;stroke-width:1.0;"/><text fill="#000000" font-family="sans-serif" font-size="13" lengthAdjust="spacing" textLength="21" x="392.8692" y="755.4951">has</text><text fill="#000000" font-family="sans-serif" font-size="13" lengthAdjust="spacing" textLength="5" x="378.7082" y="476.5167">*</text><text fill="#000000" font-family="sans-serif" font-size="13" lengthAdjust="spacing" textLength="7" x="367.7548" y="1021.3671">1</text><!--MD5=[8b5211240efe264c13d5ef595a4d03bb]
link NHSReport to HypothesisTest--><path codeLine="96" d="M390.1592,455.36 C393.0992,464.04 396.7792,475.09 399.8692,485 C432.3892,589.29 467.0792,710.4 489.0792,788.63 " fill="none" id="NHSReport-HypothesisTest" style="stroke:#A80036;stroke-width:1.0;"/><polygon fill="#000000" points="473.2919,626.9691,473.5356,617.4616,467.9007,619.1342,473.2919,626.9691" style="stroke:#000000;stroke-width:1.0;"/><text fill="#000000" font-family="sans-serif" font-size="13" lengthAdjust="spacing" textLength="49" x="480.8692" y="627.4951">contains</text><text fill="#000000" font-family="sans-serif" font-size="13" lengthAdjust="spacing" textLength="7" x="392.8511" y="476.3692">1</text><text fill="#000000" font-family="sans-serif" font-size="13" lengthAdjust="spacing" textLength="7" x="479.7377" y="778.0689">1</text><!--MD5=[547d65f66fccba149814dbcd0a782d42]
link NHSReport to SignificanceModelAnova--><path codeLine="97" d="M427.1892,455.09 C446.3992,462.78 468.9892,473.05 487.8692,485 C513.2192,501.05 538.6292,521.1 561.3592,540.83 " fill="none" id="NHSReport-SignificanceModelAnova" style="stroke:#A80036;stroke-width:1.0;"/><polygon fill="#000000" points="520.0824,496.8682,514.0432,489.5211,510.8781,494.474,520.0824,496.8682" style="stroke:#000000;stroke-width:1.0;"/><text fill="#000000" font-family="sans-serif" font-size="13" lengthAdjust="spacing" textLength="49" x="524.8692" y="499.4951">contains</text><text fill="#000000" font-family="sans-serif" font-size="13" lengthAdjust="spacing" textLength="7" x="433.0483" y="476.6232">1</text><text fill="#000000" font-family="sans-serif" font-size="13" lengthAdjust="spacing" textLength="7" x="546.4301" y="530.1044">1</text><!--MD5=[306e6753dd5938314f2cd068130fe945]
link Company to RegressionModel--><path codeLine="98" d="M64.7392,158.22 C38.6892,195.13 14.8692,241.89 14.8692,289.5 C14.8692,289.5 14.8692,289.5 14.8692,872.5 C14.8692,1010.03 205.3992,1067.65 308.8592,1088.8 " fill="none" id="Company-RegressionModel" style="stroke:#A80036;stroke-width:1.0;"/><polygon fill="#000000" points="21.1379,499.0121,21.6855,489.5173,16,491.0088,21.1379,499.0121" style="stroke:#000000;stroke-width:1.0;"/><text fill="#000000" font-family="sans-serif" font-size="13" lengthAdjust="spacing" textLength="78" x="28.8692" y="499.4951">makes use of</text><text fill="#000000" font-family="sans-serif" font-size="13" lengthAdjust="spacing" textLength="5" x="53.6268" y="179.201">*</text><text fill="#000000" font-family="sans-serif" font-size="13" lengthAdjust="spacing" textLength="7" x="293.9377" y="1084.0462">1</text><!--MD5=[3613c24fd87214899814450dc04493e5]
link HypothesisTest to RegressionModel--><path codeLine="99" d="M462.2392,954.13 C446.7892,979.55 429.9192,1007.3 415.1092,1031.67 " fill="none" id="HypothesisTest-RegressionModel" style="stroke:#A80036;stroke-width:1.0;"/><polygon fill="#000000" points="445.2722,997.4484,452.4816,991.2456,447.4588,988.1927,445.2722,997.4484" style="stroke:#000000;stroke-width:1.0;"/><text fill="#000000" font-family="sans-serif" font-size="13" lengthAdjust="spacing" textLength="10" x="456.8692" y="998.4951">of</text><text fill="#000000" font-family="sans-serif" font-size="13" lengthAdjust="spacing" textLength="5" x="453.085" y="974.8802">*</text><text fill="#000000" font-family="sans-serif" font-size="13" lengthAdjust="spacing" textLength="7" x="412.0011" y="1021.2678">1</text><!--MD5=[2924ce52b3cd3a70f6e893e26caf63a8]
link SignificanceModelAnova to RegressionModel--><path codeLine="100" d="M658.0092,711.07 C664.6692,782.51 662.6192,882.71 614.8692,954 C573.1892,1016.23 495.0492,1056.1 439.0292,1078.07 " fill="none" id="SignificanceModelAnova-RegressionModel" style="stroke:#A80036;stroke-width:1.0;"/><polygon fill="#000000" points="662.3072,875.9695,669.4656,869.708,664.418,866.6962,662.3072,875.9695" style="stroke:#000000;stroke-width:1.0;"/><text fill="#000000" font-family="sans-serif" font-size="13" lengthAdjust="spacing" textLength="10" x="673.8692" y="876.9951">of</text><text fill="#000000" font-family="sans-serif" font-size="13" lengthAdjust="spacing" textLength="7" x="651.9235" y="732.9067">1</text><text fill="#000000" font-family="sans-serif" font-size="13" lengthAdjust="spacing" textLength="7" x="446.968" y="1072.0756">1</text><!--MD5=[c6acbac970cf27bd6d16a5c7db39602e]
link SignificanceModelAnova to HypothesisTest--><path codeLine="101" d="M593.2492,711 C587.6492,721.08 582.0892,731.23 576.8692,741 C568.6892,756.31 560.1992,772.77 552.1492,788.66 " fill="none" id="SignificanceModelAnova-HypothesisTest" style="stroke:#A80036;stroke-width:1.0;"/><polygon fill="#000000" points="579.5303,754.5951,586.3589,747.9752,581.1637,745.2258,579.5303,754.5951" style="stroke:#000000;stroke-width:1.0;"/><text fill="#000000" font-family="sans-serif" font-size="13" lengthAdjust="spacing" textLength="49" x="590.8692" y="755.4951">contains</text><text fill="#000000" font-family="sans-serif" font-size="13" lengthAdjust="spacing" textLength="7" x="581.5982" y="732.8307">1</text><text fill="#000000" font-family="sans-serif" font-size="13" lengthAdjust="spacing" textLength="7" x="548.4249" y="778.1016">1</text><!--MD5=[0dcaa8173aedfc40b07273db6fb5ce96]
link NHSReport to TableOfValues--><path codeLine="102" d="M337.2792,450.44 C317.8192,457.11 296.8592,467.87 283.8692,485 C263.2492,512.19 259.4192,551.44 260.0692,580.79 " fill="none" id="NHSReport-TableOfValues" style="stroke:#A80036;stroke-width:1.0;"/><polygon fill="#000000" points="286.321,498.4777,293.4593,492.1932,288.402,489.1976,286.321,498.4777" style="stroke:#000000;stroke-width:1.0;"/><text fill="#000000" font-family="sans-serif" font-size="13" lengthAdjust="spacing" textLength="49" x="297.8692" y="499.4951">contains</text><text fill="#000000" font-family="sans-serif" font-size="13" lengthAdjust="spacing" textLength="7" x="322.456" y="466.9388">1</text><text fill="#000000" font-family="sans-serif" font-size="13" lengthAdjust="spacing" textLength="7" x="251.8601" y="570.2046">1</text><!--MD5=[60801c19033a4adc54741325ca863d30]
link TableOfValues to RegressionModel--><path codeLine="103" d="M268.9092,663.19 C277.2492,725.94 295.7392,850.68 322.8692,954 C329.6292,979.76 338.8392,1007.48 347.5792,1031.74 " fill="none" id="TableOfValues-RegressionModel" style="stroke:#A80036;stroke-width:1.0;"/><polygon fill="#000000" points="328.9129,876.5656,329.8989,867.1063,324.1506,868.3333,328.9129,876.5656" style="stroke:#000000;stroke-width:1.0;"/><text fill="#000000" font-family="sans-serif" font-size="13" lengthAdjust="spacing" textLength="10" x="336.8692" y="876.9951">of</text><text fill="#000000" font-family="sans-serif" font-size="13" lengthAdjust="spacing" textLength="7" x="262.1353" y="683.9719">1</text><text fill="#000000" font-family="sans-serif" font-size="13" lengthAdjust="spacing" textLength="7" x="337.5071" y="1021.345">1</text><!--MD5=[fbf6af04bdbd2e53a8939c56935774d0]
link TableOfValues to ConfidenceInterval--><path codeLine="104" d="M242.7692,663.18 C231.2492,685.77 217.0892,714.64 205.8692,741 C196.4492,763.12 187.1892,787.83 179.3992,809.68 " fill="none" id="TableOfValues-ConfidenceInterval" style="stroke:#A80036;stroke-width:1.0;"/><polygon fill="#000000" points="208.8841,754.7649,215.1725,747.6299,209.7777,745.2964,208.8841,754.7649" style="stroke:#000000;stroke-width:1.0;"/><text fill="#000000" font-family="sans-serif" font-size="13" lengthAdjust="spacing" textLength="49" x="219.8692" y="755.4951">contains</text><text fill="#000000" font-family="sans-serif" font-size="13" lengthAdjust="spacing" textLength="7" x="232.156" y="683.9604">1</text><text fill="#000000" font-family="sans-serif" font-size="13" lengthAdjust="spacing" textLength="5" x="176.4839" y="799.1216">*</text><!--MD5=[e9ea997fd01ddd5be83691ad6dfc4b93]
link ConfidenceInterval to RegressionModel--><path codeLine="105" d="M193.2692,933.3 C207.6692,956.11 225.5392,981.46 244.8692,1002 C263.7192,1022.04 287.0392,1041.02 308.6492,1056.82 " fill="none" id="ConfidenceInterval-RegressionModel" style="stroke:#A80036;stroke-width:1.0;"/><polygon fill="#000000" points="253.2822,996.8297,249.2556,988.2136,244.9602,992.2259,253.2822,996.8297" style="stroke:#000000;stroke-width:1.0;"/><text fill="#000000" font-family="sans-serif" font-size="13" lengthAdjust="spacing" textLength="10" x="258.8692" y="998.4951">of</text><text fill="#000000" font-family="sans-serif" font-size="13" lengthAdjust="spacing" textLength="5" x="191.7582" y="954.4479">*</text><text fill="#000000" font-family="sans-serif" font-size="13" lengthAdjust="spacing" textLength="7" x="293.7034" y="1048.3685">1</text><!--MD5=[2d6e9e001c0bf2f7f3a5c6201f06070c]
link Timer to NHSReportTask--><path codeLine="106" d="M247.8792,290.5 C276.9092,290.5 320.5192,290.5 356.2992,290.5 " fill="none" id="Timer-NHSReportTask" style="stroke:#A80036;stroke-width:1.0;"/><polygon fill="#000000" points="275.1192,278.6758,266.0741,275.7369,266.0741,281.6147,275.1192,278.6758" style="stroke:#000000;stroke-width:1.0;"/><text fill="#000000" font-family="sans-serif" font-size="13" lengthAdjust="spacing" textLength="59" x="279.1192" y="283.9951">schedules</text><text fill="#000000" font-family="sans-serif" font-size="13" lengthAdjust="spacing" textLength="7" x="256.0908" y="286.1858">1</text><text fill="#000000" font-family="sans-serif" font-size="13" lengthAdjust="spacing" textLength="5" x="343.4906" y="287.0306">*</text><!--MD5=[d0f5dc663090e5e289913afcb5ea6564]
link NHSReportTask to RegressionModel--><path codeLine="107" d="M479.6092,302.17 C586.9992,322.49 796.8692,370.81 796.8692,438 C796.8692,438 796.8692,438 796.8692,872.5 C796.8692,1032.94 557.6892,1080.45 439.0392,1094.14 " fill="none" id="NHSReportTask-RegressionModel" style="stroke:#A80036;stroke-width:1.0;"/><polygon fill="#000000" points="801.6134,627.1692,805.0112,618.2863,799.141,617.9856,801.6134,627.1692" style="stroke:#000000;stroke-width:1.0;"/><text fill="#000000" font-family="sans-serif" font-size="13" lengthAdjust="spacing" textLength="10" x="810.8692" y="627.4951">of</text><text fill="#000000" font-family="sans-serif" font-size="13" lengthAdjust="spacing" textLength="7" x="487.5603" y="300.1229">1</text><text fill="#000000" font-family="sans-serif" font-size="13" lengthAdjust="spacing" textLength="7" x="446.9791" y="1090.0036">1</text><!--MD5=[c295fd8a3de0986f47c016f38f4435f8]
@startuml

skinparam classAttributeIconSize 0
hide empty methods
hide empty attributes

class Company {
-designation
-classNameForBarcodeApi
-classNameForSortAlgorithm
-regressionModelCLass
-dateInterval
-historicalPoints
-confidenceLevel
-significanceLevel
}

class Timer {}

class NhsAPI{}

class NHSReport {}

class RegressionModel {
-intercept
-slope
-secondIndVariable
-r
-r2
-r2Adjusted
-numberOfObservations
}

/'class ConfigFile {}'/

'The interval of dates to fit the regression model
/'class IntervalOfDates {}'/

'Number of days and number of weeks
/'class NumberOfHistoricalPoints {}'/

'hypothesis tests for regression coefficients
class HypothesisTest {
-tObsA
-tObsB
-tObsC
-significanceLevel
-critTD
-f
-critFD
-numeratorDegreesOfFreedom
-denominatorDegreesOfFreedom
}

'significance model with Anova.
class SignificanceModelAnova {
-significanceLevel
-sr
-se
-st
-mr
-me
-f
-degFreedomSr
-degFreedomSe
-degFreedomSt
}

class TableOfValues {
-dates
-observedPositives
-estimatedPositives
}

class ConfidenceInterval {
-y0
-auxDelta
-confidenceLevel
-delta
-limInf
-limSup
}

class NHSReportTask {
-regressionModelClass
-historicalPoints
-significanceLevel
-confidenceLevel
-dateInterval
}

NHSReportTask "1" - - "1..*" NHSReport : reports >
Company "1" - - "1" Timer : knows >
Company "*" - "1" NhsAPI : makes use of >
NHSReport "*" - - "1" NhsAPI : sent by >
NHSReport "*" - - "1" RegressionModel : has >
NHSReport "1" - - "1" HypothesisTest : contains >
NHSReport "1" - - "1" SignificanceModelAnova : contains >
Company "*" - - "1" RegressionModel : makes use of >
HypothesisTest "*" - - "1" RegressionModel : of >
SignificanceModelAnova "1" - - "1" RegressionModel : of >
SignificanceModelAnova "1" - - "1" HypothesisTest : contains >
NHSReport "1" - - "1" TableOfValues : contains >
TableOfValues "1" - - "1" RegressionModel : of >
TableOfValues "1" - - "*" ConfidenceInterval : contains >
ConfidenceInterval "*" - - "1" RegressionModel : of >
Timer "1" - "*" NHSReportTask : schedules >
NHSReportTask "1" - - "1" RegressionModel : of >
/'NHSReportTask "*" - - "1" RegressionModel : makes use of >'/

'Apagar posteriormente
/'RegressionModel "1" - - "1" ConfigFile : defined by >
IntervalOfDates "1" - - "1" ConfigFile : defined by >
NumberOfHistoricalPoints "1" - - "1" ConfigFile : defined by >'/



@enduml

@startuml

skinparam classAttributeIconSize 0
hide empty methods
hide empty attributes

class Company {
-designation
-classNameForBarcodeApi
-classNameForSortAlgorithm
-regressionModelCLass
-dateInterval
-historicalPoints
-confidenceLevel
-significanceLevel
}

class Timer {}

class NhsAPI{}

class NHSReport {}

class RegressionModel {
-intercept
-slope
-secondIndVariable
-r
-r2
-r2Adjusted
-numberOfObservations
}




class HypothesisTest {
-tObsA
-tObsB
-tObsC
-significanceLevel
-critTD
-f
-critFD
-numeratorDegreesOfFreedom
-denominatorDegreesOfFreedom
}

class SignificanceModelAnova {
-significanceLevel
-sr
-se
-st
-mr
-me
-f
-degFreedomSr
-degFreedomSe
-degFreedomSt
}

class TableOfValues {
-dates
-observedPositives
-estimatedPositives
}

class ConfidenceInterval {
-y0
-auxDelta
-confidenceLevel
-delta
-limInf
-limSup
}

class NHSReportTask {
-regressionModelClass
-historicalPoints
-significanceLevel
-confidenceLevel
-dateInterval
}

NHSReportTask "1" - - "1..*" NHSReport : reports >
Company "1" - - "1" Timer : knows >
Company "*" - "1" NhsAPI : makes use of >
NHSReport "*" - - "1" NhsAPI : sent by >
NHSReport "*" - - "1" RegressionModel : has >
NHSReport "1" - - "1" HypothesisTest : contains >
NHSReport "1" - - "1" SignificanceModelAnova : contains >
Company "*" - - "1" RegressionModel : makes use of >
HypothesisTest "*" - - "1" RegressionModel : of >
SignificanceModelAnova "1" - - "1" RegressionModel : of >
SignificanceModelAnova "1" - - "1" HypothesisTest : contains >
NHSReport "1" - - "1" TableOfValues : contains >
TableOfValues "1" - - "1" RegressionModel : of >
TableOfValues "1" - - "*" ConfidenceInterval : contains >
ConfidenceInterval "*" - - "1" RegressionModel : of >
Timer "1" - "*" NHSReportTask : schedules >
NHSReportTask "1" - - "1" RegressionModel : of >




@enduml

PlantUML version 1.2021.4(Sun Apr 04 09:49:39 BST 2021)
(GPL source distribution)
Java Runtime: OpenJDK Runtime Environment
JVM: OpenJDK 64-Bit Server VM
Default Encoding: Cp1252
Language: pt
Country: PT
--></g></svg>