<?xml version="1.0" encoding="UTF-8" standalone="no"?><svg xmlns="http://www.w3.org/2000/svg" xmlns:xlink="http://www.w3.org/1999/xlink" contentScriptType="application/ecmascript" contentStyleType="text/css" height="1189.8px" preserveAspectRatio="none" style="width:672px;height:1189px;" version="1.1" viewBox="0 0 672 1189" width="672.6px" zoomAndPan="magnify"><defs><filter height="300%" id="f1qwyop1io2s15" width="300%" x="-1" y="-1"><feGaussianBlur result="blurOut" stdDeviation="1.2"/><feColorMatrix in="blurOut" result="blurOut2" type="matrix" values="0 0 0 0 0 0 0 0 0 0 0 0 0 0 0 0 0 0 .4 0"/><feOffset dx="2.4" dy="2.4" in="blurOut2" result="blurOut3"/><feBlend in="SourceGraphic" in2="blurOut3" mode="normal"/></filter></defs><g><!--MD5=[02e4b9b7573f1156f41e60aa5b4e25a4]
class Company--><rect codeLine="4" fill="#FEFECE" filter="url(#f1qwyop1io2s15)" height="95.2125" id="Company" style="stroke:#A80036;stroke-width:0.8999999999999999;" width="90" x="119.7514" y="79.8"/><ellipse cx="146.3014" cy="89.4" fill="#ADD1B2" rx="6.6" ry="6.6" style="stroke:#A80036;stroke-width:0.6;"/><path d="M147.5014,87.3 Q147.6233,87 147.7639,86.85 Q147.9046,86.7 148.0639,86.7 Q148.3452,86.7 148.5233,86.8687 Q148.7014,87.0375 148.7014,87.4312 L148.7014,88.3687 Q148.7014,88.7625 148.5327,88.9312 Q148.3639,89.1 148.1014,89.1 Q147.8671,89.1 147.7171,88.9969 Q147.5671,88.8938 147.5014,88.6219 Q147.4733,88.4344 147.3702,88.3313 Q147.1827,88.1344 146.8452,88.0219 Q146.5077,87.9 146.1702,87.9 Q145.7483,87.9 145.3921,88.0688 Q145.0452,88.2375 144.7733,88.6125 Q144.5014,88.9875 144.5014,89.5031 L144.5014,90.0562 Q144.5014,90.675 145.0077,91.0875 Q145.5139,91.5 146.4139,91.5 Q146.9483,91.5 147.3233,91.3781 Q147.5389,91.3125 147.7827,91.0969 Q147.9421,90.975 148.0264,90.9375 Q148.1108,90.9 148.2139,90.9 Q148.4108,90.9 148.5514,91.0594 Q148.7014,91.2094 148.7014,91.425 Q148.7014,91.6313 148.4952,91.875 Q148.1952,92.2313 147.7171,92.4281 Q147.0889,92.7 146.3202,92.7 Q145.4202,92.7 144.6983,92.3438 Q144.1171,92.0625 143.7046,91.4531 Q143.3014,90.8438 143.3014,90.1219 L143.3014,89.4656 Q143.3014,88.7156 143.6577,88.0594 Q144.0233,87.4031 144.6514,87.0562 Q145.2889,86.7 146.0014,86.7 Q146.4327,86.7 146.8077,86.85 Q147.1827,87 147.5014,87.3 Z " fill="#000000"/><text fill="#000000" font-family="sans-serif" font-size="7.2" lengthAdjust="spacing" textLength="31.8" x="158.6014" y="92.3461">Company</text><line style="stroke:#A80036;stroke-width:0.8999999999999999;" x1="120.3514" x2="209.1514" y1="99" y2="99"/><text fill="#000000" font-family="sans-serif" font-size="6.6" lengthAdjust="spacing" textLength="35.4" x="123.3514" y="108.2514">-designation</text><text fill="#000000" font-family="sans-serif" font-size="6.6" lengthAdjust="spacing" textLength="78" x="123.3514" y="116.5529">-classNameForBarcodeApi</text><text fill="#000000" font-family="sans-serif" font-size="6.6" lengthAdjust="spacing" textLength="82.8" x="123.3514" y="124.8545">-classNameForSortAlgorithm</text><text fill="#000000" font-family="sans-serif" font-size="6.6" lengthAdjust="spacing" textLength="69" x="123.3514" y="133.1561">-regressionModelCLass</text><text fill="#000000" font-family="sans-serif" font-size="6.6" lengthAdjust="spacing" textLength="36" x="123.3514" y="141.4576">-dateInterval</text><text fill="#000000" font-family="sans-serif" font-size="6.6" lengthAdjust="spacing" textLength="45.6" x="123.3514" y="149.7592">-historicalPoints</text><text fill="#000000" font-family="sans-serif" font-size="6.6" lengthAdjust="spacing" textLength="50.4" x="123.3514" y="158.0607">-confidenceLevel</text><text fill="#000000" font-family="sans-serif" font-size="6.6" lengthAdjust="spacing" textLength="52.8" x="123.3514" y="166.3623">-significanceLevel</text><line style="stroke:#A80036;stroke-width:0.8999999999999999;" x1="120.3514" x2="209.1514" y1="170.2125" y2="170.2125"/><!--MD5=[74783ec010d186752c4ffd5c6de5633a]
class NHSReport--><rect codeLine="15" fill="#FEFECE" filter="url(#f1qwyop1io2s15)" height="28.8" id="NHSReport" style="stroke:#A80036;stroke-width:0.8999999999999999;" width="57" x="233.4514" y="463.5"/><ellipse cx="242.4514" cy="473.1" fill="#ADD1B2" rx="6.6" ry="6.6" style="stroke:#A80036;stroke-width:0.6;"/><path d="M243.6514,471 Q243.7733,470.7 243.9139,470.55 Q244.0546,470.4 244.2139,470.4 Q244.4952,470.4 244.6733,470.5687 Q244.8514,470.7375 244.8514,471.1312 L244.8514,472.0687 Q244.8514,472.4625 244.6827,472.6312 Q244.5139,472.8 244.2514,472.8 Q244.0171,472.8 243.8671,472.6969 Q243.7171,472.5938 243.6514,472.3219 Q243.6233,472.1344 243.5202,472.0313 Q243.3327,471.8344 242.9952,471.7219 Q242.6577,471.6 242.3202,471.6 Q241.8983,471.6 241.5421,471.7687 Q241.1952,471.9375 240.9233,472.3125 Q240.6514,472.6875 240.6514,473.2031 L240.6514,473.7562 Q240.6514,474.375 241.1577,474.7875 Q241.6639,475.2 242.5639,475.2 Q243.0983,475.2 243.4733,475.0781 Q243.6889,475.0125 243.9327,474.7969 Q244.0921,474.675 244.1764,474.6375 Q244.2608,474.6 244.3639,474.6 Q244.5608,474.6 244.7014,474.7594 Q244.8514,474.9094 244.8514,475.125 Q244.8514,475.3312 244.6452,475.575 Q244.3452,475.9313 243.8671,476.1281 Q243.2389,476.4 242.4702,476.4 Q241.5702,476.4 240.8483,476.0438 Q240.2671,475.7625 239.8546,475.1531 Q239.4514,474.5438 239.4514,473.8219 L239.4514,473.1656 Q239.4514,472.4156 239.8077,471.7594 Q240.1733,471.1031 240.8014,470.7562 Q241.4389,470.4 242.1514,470.4 Q242.5827,470.4 242.9577,470.55 Q243.3327,470.7 243.6514,471 Z " fill="#000000"/><text fill="#000000" font-family="sans-serif" font-size="7.2" lengthAdjust="spacing" textLength="37.8" x="250.8514" y="476.0461">NHSReport</text><line style="stroke:#A80036;stroke-width:0.8999999999999999;" x1="234.0514" x2="289.8514" y1="482.7" y2="482.7"/><line style="stroke:#A80036;stroke-width:0.8999999999999999;" x1="234.0514" x2="289.8514" y1="487.5" y2="487.5"/><!--MD5=[f9bf174dd5fcee0192f6251129b9c376]
class RegressionModel--><rect codeLine="69" fill="#FEFECE" filter="url(#f1qwyop1io2s15)" height="28.8" id="RegressionModel" style="stroke:#A80036;stroke-width:0.8999999999999999;" width="78" x="271.5514" y="1006.8"/><ellipse cx="280.5514" cy="1016.4" fill="#ADD1B2" rx="6.6" ry="6.6" style="stroke:#A80036;stroke-width:0.6;"/><path d="M281.7514,1014.3 Q281.8733,1014 282.0139,1013.85 Q282.1546,1013.7 282.3139,1013.7 Q282.5952,1013.7 282.7733,1013.8688 Q282.9514,1014.0375 282.9514,1014.4313 L282.9514,1015.3688 Q282.9514,1015.7625 282.7827,1015.9313 Q282.6139,1016.1 282.3514,1016.1 Q282.1171,1016.1 281.9671,1015.9969 Q281.8171,1015.8938 281.7514,1015.6219 Q281.7233,1015.4344 281.6202,1015.3313 Q281.4327,1015.1344 281.0952,1015.0219 Q280.7577,1014.9 280.4202,1014.9 Q279.9983,1014.9 279.6421,1015.0687 Q279.2952,1015.2375 279.0233,1015.6125 Q278.7514,1015.9875 278.7514,1016.5031 L278.7514,1017.0563 Q278.7514,1017.675 279.2577,1018.0875 Q279.7639,1018.5 280.6639,1018.5 Q281.1983,1018.5 281.5733,1018.3781 Q281.7889,1018.3125 282.0327,1018.0969 Q282.1921,1017.975 282.2764,1017.9375 Q282.3608,1017.9 282.4639,1017.9 Q282.6608,1017.9 282.8014,1018.0594 Q282.9514,1018.2094 282.9514,1018.425 Q282.9514,1018.6312 282.7452,1018.875 Q282.4452,1019.2312 281.9671,1019.4281 Q281.3389,1019.7 280.5702,1019.7 Q279.6702,1019.7 278.9483,1019.3438 Q278.3671,1019.0625 277.9546,1018.4531 Q277.5514,1017.8438 277.5514,1017.1219 L277.5514,1016.4656 Q277.5514,1015.7156 277.9077,1015.0594 Q278.2733,1014.4031 278.9014,1014.0563 Q279.5389,1013.7 280.2514,1013.7 Q280.6827,1013.7 281.0577,1013.85 Q281.4327,1014 281.7514,1014.3 Z " fill="#000000"/><text fill="#000000" font-family="sans-serif" font-size="7.2" lengthAdjust="spacing" textLength="58.8" x="288.9514" y="1019.3461">RegressionModel</text><line style="stroke:#A80036;stroke-width:0.8999999999999999;" x1="272.1514" x2="348.9514" y1="1026" y2="1026"/><line style="stroke:#A80036;stroke-width:0.8999999999999999;" x1="272.1514" x2="348.9514" y1="1030.8" y2="1030.8"/><!--MD5=[dfe7672a7c242e7ff03cfd775649b5cb]
class HypothesisTest--><rect codeLine="19" fill="#FEFECE" filter="url(#f1qwyop1io2s15)" height="103.5141" id="HypothesisTest" style="stroke:#A80036;stroke-width:0.8999999999999999;" width="102" x="128.1514" y="722.4"/><ellipse cx="151.1914" cy="732" fill="#ADD1B2" rx="6.6" ry="6.6" style="stroke:#A80036;stroke-width:0.6;"/><path d="M152.3914,729.9 Q152.5133,729.6 152.6539,729.45 Q152.7946,729.3 152.9539,729.3 Q153.2352,729.3 153.4133,729.4688 Q153.5914,729.6375 153.5914,730.0313 L153.5914,730.9688 Q153.5914,731.3625 153.4227,731.5313 Q153.2539,731.7 152.9914,731.7 Q152.7571,731.7 152.6071,731.5969 Q152.4571,731.4938 152.3914,731.2219 Q152.3633,731.0344 152.2602,730.9313 Q152.0727,730.7344 151.7352,730.6219 Q151.3977,730.5 151.0602,730.5 Q150.6383,730.5 150.2821,730.6687 Q149.9352,730.8375 149.6633,731.2125 Q149.3914,731.5875 149.3914,732.1031 L149.3914,732.6563 Q149.3914,733.275 149.8977,733.6875 Q150.4039,734.1 151.3039,734.1 Q151.8383,734.1 152.2133,733.9781 Q152.4289,733.9125 152.6727,733.6969 Q152.8321,733.575 152.9164,733.5375 Q153.0008,733.5 153.1039,733.5 Q153.3008,733.5 153.4414,733.6594 Q153.5914,733.8094 153.5914,734.025 Q153.5914,734.2312 153.3852,734.475 Q153.0852,734.8313 152.6071,735.0281 Q151.9789,735.3 151.2102,735.3 Q150.3102,735.3 149.5883,734.9438 Q149.0071,734.6625 148.5946,734.0531 Q148.1914,733.4438 148.1914,732.7219 L148.1914,732.0656 Q148.1914,731.3156 148.5477,730.6594 Q148.9133,730.0031 149.5414,729.6563 Q150.1789,729.3 150.8914,729.3 Q151.3227,729.3 151.6977,729.45 Q152.0727,729.6 152.3914,729.9 Z " fill="#000000"/><text fill="#000000" font-family="sans-serif" font-size="7.2" lengthAdjust="spacing" textLength="51.6" x="162.7114" y="734.9461">HypothesisTest</text><line style="stroke:#A80036;stroke-width:0.8999999999999999;" x1="128.7514" x2="229.5514" y1="741.6" y2="741.6"/><text fill="#000000" font-family="sans-serif" font-size="6.6" lengthAdjust="spacing" textLength="21" x="131.7514" y="750.8514">-tObsA</text><text fill="#000000" font-family="sans-serif" font-size="6.6" lengthAdjust="spacing" textLength="20.4" x="131.7514" y="759.1529">-tObsB</text><text fill="#000000" font-family="sans-serif" font-size="6.6" lengthAdjust="spacing" textLength="20.4" x="131.7514" y="767.4545">-tObsC</text><text fill="#000000" font-family="sans-serif" font-size="6.6" lengthAdjust="spacing" textLength="52.8" x="131.7514" y="775.7561">-significanceLevel</text><text fill="#000000" font-family="sans-serif" font-size="6.6" lengthAdjust="spacing" textLength="19.2" x="131.7514" y="784.0576">-critTD</text><text fill="#000000" font-family="sans-serif" font-size="6.6" lengthAdjust="spacing" textLength="4.8" x="131.7514" y="792.3592">-f</text><text fill="#000000" font-family="sans-serif" font-size="6.6" lengthAdjust="spacing" textLength="19.2" x="131.7514" y="800.6607">-critFD</text><text fill="#000000" font-family="sans-serif" font-size="6.6" lengthAdjust="spacing" textLength="88.8" x="131.7514" y="808.9623">-numeratorDegreesOfFreedom</text><text fill="#000000" font-family="sans-serif" font-size="6.6" lengthAdjust="spacing" textLength="94.8" x="131.7514" y="817.2639">-denominatorDegreesOfFreedom</text><line style="stroke:#A80036;stroke-width:0.8999999999999999;" x1="128.7514" x2="229.5514" y1="821.1141" y2="821.1141"/><!--MD5=[39ee656b41ae4892150ca74368648c0e]
class SignificanceModelAnova--><rect codeLine="31" fill="#FEFECE" filter="url(#f1qwyop1io2s15)" height="111.8156" id="SignificanceModelAnova" style="stroke:#A80036;stroke-width:0.8999999999999999;" width="99" x="294.0514" y="564"/><ellipse cx="303.0514" cy="573.6" fill="#ADD1B2" rx="6.6" ry="6.6" style="stroke:#A80036;stroke-width:0.6;"/><path d="M304.2514,571.5 Q304.3733,571.2 304.5139,571.05 Q304.6546,570.9 304.8139,570.9 Q305.0952,570.9 305.2733,571.0688 Q305.4514,571.2375 305.4514,571.6313 L305.4514,572.5688 Q305.4514,572.9625 305.2827,573.1313 Q305.1139,573.3 304.8514,573.3 Q304.6171,573.3 304.4671,573.1969 Q304.3171,573.0938 304.2514,572.8219 Q304.2233,572.6344 304.1202,572.5313 Q303.9327,572.3344 303.5952,572.2219 Q303.2577,572.1 302.9202,572.1 Q302.4983,572.1 302.1421,572.2688 Q301.7952,572.4375 301.5233,572.8125 Q301.2514,573.1875 301.2514,573.7031 L301.2514,574.2563 Q301.2514,574.875 301.7577,575.2875 Q302.2639,575.7 303.1639,575.7 Q303.6983,575.7 304.0733,575.5781 Q304.2889,575.5125 304.5327,575.2969 Q304.6921,575.175 304.7764,575.1375 Q304.8608,575.1 304.9639,575.1 Q305.1608,575.1 305.3014,575.2594 Q305.4514,575.4094 305.4514,575.625 Q305.4514,575.8313 305.2452,576.075 Q304.9452,576.4313 304.4671,576.6281 Q303.8389,576.9 303.0702,576.9 Q302.1702,576.9 301.4483,576.5437 Q300.8671,576.2625 300.4546,575.6531 Q300.0514,575.0437 300.0514,574.3219 L300.0514,573.6656 Q300.0514,572.9156 300.4077,572.2594 Q300.7733,571.6031 301.4014,571.2563 Q302.0389,570.9 302.7514,570.9 Q303.1827,570.9 303.5577,571.05 Q303.9327,571.2 304.2514,571.5 Z " fill="#000000"/><text fill="#000000" font-family="sans-serif" font-size="7.2" lengthAdjust="spacing" textLength="79.8" x="311.4514" y="576.5461">SignificanceModelAnova</text><line style="stroke:#A80036;stroke-width:0.8999999999999999;" x1="294.6514" x2="392.4514" y1="583.2" y2="583.2"/><text fill="#000000" font-family="sans-serif" font-size="6.6" lengthAdjust="spacing" textLength="52.8" x="297.6514" y="592.4514">-significanceLevel</text><text fill="#000000" font-family="sans-serif" font-size="6.6" lengthAdjust="spacing" textLength="8.4" x="297.6514" y="600.7529">-sr</text><text fill="#000000" font-family="sans-serif" font-size="6.6" lengthAdjust="spacing" textLength="9.6" x="297.6514" y="609.0545">-se</text><text fill="#000000" font-family="sans-serif" font-size="6.6" lengthAdjust="spacing" textLength="7.8" x="297.6514" y="617.3561">-st</text><text fill="#000000" font-family="sans-serif" font-size="6.6" lengthAdjust="spacing" textLength="9.6" x="297.6514" y="625.6576">-mr</text><text fill="#000000" font-family="sans-serif" font-size="6.6" lengthAdjust="spacing" textLength="10.8" x="297.6514" y="633.9592">-me</text><text fill="#000000" font-family="sans-serif" font-size="6.6" lengthAdjust="spacing" textLength="4.8" x="297.6514" y="642.2607">-f</text><text fill="#000000" font-family="sans-serif" font-size="6.6" lengthAdjust="spacing" textLength="45" x="297.6514" y="650.5623">-degFreedomSr</text><text fill="#000000" font-family="sans-serif" font-size="6.6" lengthAdjust="spacing" textLength="46.2" x="297.6514" y="658.8639">-degFreedomSe</text><text fill="#000000" font-family="sans-serif" font-size="6.6" lengthAdjust="spacing" textLength="44.4" x="297.6514" y="667.1654">-degFreedomSt</text><line style="stroke:#A80036;stroke-width:0.8999999999999999;" x1="294.6514" x2="392.4514" y1="671.0156" y2="671.0156"/><!--MD5=[2326f07dd74de3a812ad289cd3fa63bf]
class TableOfValues--><rect codeLine="44" fill="#FEFECE" filter="url(#f1qwyop1io2s15)" height="53.7047" id="TableOfValues" style="stroke:#A80036;stroke-width:0.8999999999999999;" width="67.8" x="423.6514" y="450.9"/><ellipse cx="432.6514" cy="460.5" fill="#ADD1B2" rx="6.6" ry="6.6" style="stroke:#A80036;stroke-width:0.6;"/><path d="M433.8514,458.4 Q433.9733,458.1 434.1139,457.95 Q434.2546,457.8 434.4139,457.8 Q434.6952,457.8 434.8733,457.9688 Q435.0514,458.1375 435.0514,458.5313 L435.0514,459.4688 Q435.0514,459.8625 434.8827,460.0313 Q434.7139,460.2 434.4514,460.2 Q434.2171,460.2 434.0671,460.0969 Q433.9171,459.9938 433.8514,459.7219 Q433.8233,459.5344 433.7202,459.4313 Q433.5327,459.2344 433.1952,459.1219 Q432.8577,459 432.5202,459 Q432.0983,459 431.7421,459.1688 Q431.3952,459.3375 431.1233,459.7125 Q430.8514,460.0875 430.8514,460.6031 L430.8514,461.1563 Q430.8514,461.775 431.3577,462.1875 Q431.8639,462.6 432.7639,462.6 Q433.2983,462.6 433.6733,462.4781 Q433.8889,462.4125 434.1327,462.1969 Q434.2921,462.075 434.3764,462.0375 Q434.4608,462 434.5639,462 Q434.7608,462 434.9014,462.1594 Q435.0514,462.3094 435.0514,462.525 Q435.0514,462.7313 434.8452,462.975 Q434.5452,463.3312 434.0671,463.5281 Q433.4389,463.8 432.6702,463.8 Q431.7702,463.8 431.0483,463.4437 Q430.4671,463.1625 430.0546,462.5531 Q429.6514,461.9437 429.6514,461.2219 L429.6514,460.5656 Q429.6514,459.8156 430.0077,459.1594 Q430.3733,458.5031 431.0014,458.1563 Q431.6389,457.8 432.3514,457.8 Q432.7827,457.8 433.1577,457.95 Q433.5327,458.1 433.8514,458.4 Z " fill="#000000"/><text fill="#000000" font-family="sans-serif" font-size="7.2" lengthAdjust="spacing" textLength="48.6" x="441.0514" y="463.4461">TableOfValues</text><line style="stroke:#A80036;stroke-width:0.8999999999999999;" x1="424.2514" x2="490.8514" y1="470.1" y2="470.1"/><text fill="#000000" font-family="sans-serif" font-size="6.6" lengthAdjust="spacing" textLength="18.6" x="427.2514" y="479.3514">-dates</text><text fill="#000000" font-family="sans-serif" font-size="6.6" lengthAdjust="spacing" textLength="55.8" x="427.2514" y="487.6529">-observedPositives</text><text fill="#000000" font-family="sans-serif" font-size="6.6" lengthAdjust="spacing" textLength="55.8" x="427.2514" y="495.9545">-estimatedPositives</text><line style="stroke:#A80036;stroke-width:0.8999999999999999;" x1="424.2514" x2="490.8514" y1="499.8047" y2="499.8047"/><!--MD5=[fe0bb2d390fc5dca74774fa5d2975c11]
class ConfidenceInterval--><rect codeLine="50" fill="#FEFECE" filter="url(#f1qwyop1io2s15)" height="78.6094" id="ConfidenceInterval" style="stroke:#A80036;stroke-width:0.8999999999999999;" width="80.4" x="414.3514" y="580.5"/><ellipse cx="423.3514" cy="590.1" fill="#ADD1B2" rx="6.6" ry="6.6" style="stroke:#A80036;stroke-width:0.6;"/><path d="M424.5514,588 Q424.6733,587.7 424.8139,587.55 Q424.9546,587.4 425.1139,587.4 Q425.3952,587.4 425.5733,587.5688 Q425.7514,587.7375 425.7514,588.1313 L425.7514,589.0688 Q425.7514,589.4625 425.5827,589.6313 Q425.4139,589.8 425.1514,589.8 Q424.9171,589.8 424.7671,589.6969 Q424.6171,589.5938 424.5514,589.3219 Q424.5233,589.1344 424.4202,589.0313 Q424.2327,588.8344 423.8952,588.7219 Q423.5577,588.6 423.2202,588.6 Q422.7983,588.6 422.4421,588.7688 Q422.0952,588.9375 421.8233,589.3125 Q421.5514,589.6875 421.5514,590.2031 L421.5514,590.7563 Q421.5514,591.375 422.0577,591.7875 Q422.5639,592.2 423.4639,592.2 Q423.9983,592.2 424.3733,592.0781 Q424.5889,592.0125 424.8327,591.7969 Q424.9921,591.675 425.0764,591.6375 Q425.1608,591.6 425.2639,591.6 Q425.4608,591.6 425.6014,591.7594 Q425.7514,591.9094 425.7514,592.125 Q425.7514,592.3313 425.5452,592.575 Q425.2452,592.9313 424.7671,593.1281 Q424.1389,593.4 423.3702,593.4 Q422.4702,593.4 421.7483,593.0437 Q421.1671,592.7625 420.7546,592.1531 Q420.3514,591.5437 420.3514,590.8219 L420.3514,590.1656 Q420.3514,589.4156 420.7077,588.7594 Q421.0733,588.1031 421.7014,587.7563 Q422.3389,587.4 423.0514,587.4 Q423.4827,587.4 423.8577,587.55 Q424.2327,587.7 424.5514,588 Z " fill="#000000"/><text fill="#000000" font-family="sans-serif" font-size="7.2" lengthAdjust="spacing" textLength="61.2" x="431.7514" y="593.0461">ConfidenceInterval</text><line style="stroke:#A80036;stroke-width:0.8999999999999999;" x1="414.9514" x2="494.1514" y1="599.7" y2="599.7"/><text fill="#000000" font-family="sans-serif" font-size="6.6" lengthAdjust="spacing" textLength="9.6" x="417.9514" y="608.9514">-y0</text><text fill="#000000" font-family="sans-serif" font-size="6.6" lengthAdjust="spacing" textLength="27.6" x="417.9514" y="617.2529">-auxDelta</text><text fill="#000000" font-family="sans-serif" font-size="6.6" lengthAdjust="spacing" textLength="50.4" x="417.9514" y="625.5545">-confidenceLevel</text><text fill="#000000" font-family="sans-serif" font-size="6.6" lengthAdjust="spacing" textLength="16.2" x="417.9514" y="633.8561">-delta</text><text fill="#000000" font-family="sans-serif" font-size="6.6" lengthAdjust="spacing" textLength="16.8" x="417.9514" y="642.1576">-limInf</text><text fill="#000000" font-family="sans-serif" font-size="6.6" lengthAdjust="spacing" textLength="21" x="417.9514" y="650.4592">-limSup</text><line style="stroke:#A80036;stroke-width:0.8999999999999999;" x1="414.9514" x2="494.1514" y1="654.3094" y2="654.3094"/><!--MD5=[1b844c90688aafb95cd8c95626c3b83a]
class Timer--><rect codeLine="59" fill="#FEFECE" filter="url(#f1qwyop1io2s15)" height="28.8" id="Timer" style="stroke:#A80036;stroke-width:0.8999999999999999;" width="38.4" x="230.1514" y="222"/><ellipse cx="239.1514" cy="231.6" fill="#ADD1B2" rx="6.6" ry="6.6" style="stroke:#A80036;stroke-width:0.6;"/><path d="M240.3514,229.5 Q240.4733,229.2 240.6139,229.05 Q240.7546,228.9 240.9139,228.9 Q241.1952,228.9 241.3733,229.0688 Q241.5514,229.2375 241.5514,229.6313 L241.5514,230.5688 Q241.5514,230.9625 241.3827,231.1313 Q241.2139,231.3 240.9514,231.3 Q240.7171,231.3 240.5671,231.1969 Q240.4171,231.0938 240.3514,230.8219 Q240.3233,230.6344 240.2202,230.5313 Q240.0327,230.3344 239.6952,230.2219 Q239.3577,230.1 239.0202,230.1 Q238.5983,230.1 238.2421,230.2687 Q237.8952,230.4375 237.6233,230.8125 Q237.3514,231.1875 237.3514,231.7031 L237.3514,232.2563 Q237.3514,232.875 237.8577,233.2875 Q238.3639,233.7 239.2639,233.7 Q239.7983,233.7 240.1733,233.5781 Q240.3889,233.5125 240.6327,233.2969 Q240.7921,233.175 240.8764,233.1375 Q240.9608,233.1 241.0639,233.1 Q241.2608,233.1 241.4014,233.2594 Q241.5514,233.4094 241.5514,233.625 Q241.5514,233.8312 241.3452,234.075 Q241.0452,234.4312 240.5671,234.6281 Q239.9389,234.9 239.1702,234.9 Q238.2702,234.9 237.5483,234.5438 Q236.9671,234.2625 236.5546,233.6531 Q236.1514,233.0438 236.1514,232.3219 L236.1514,231.6656 Q236.1514,230.9156 236.5077,230.2594 Q236.8733,229.6031 237.5014,229.2563 Q238.1389,228.9 238.8514,228.9 Q239.2827,228.9 239.6577,229.05 Q240.0327,229.2 240.3514,229.5 Z " fill="#000000"/><text fill="#000000" font-family="sans-serif" font-size="7.2" lengthAdjust="spacing" textLength="19.2" x="247.5514" y="234.5461">Timer</text><line style="stroke:#A80036;stroke-width:0.8999999999999999;" x1="230.7514" x2="267.9514" y1="241.2" y2="241.2"/><line style="stroke:#A80036;stroke-width:0.8999999999999999;" x1="230.7514" x2="267.9514" y1="246" y2="246"/><!--MD5=[f6ed80812a9b4129b15a1e09868c6e4c]
class NHSReportStore--><rect codeLine="61" fill="#FEFECE" filter="url(#f1qwyop1io2s15)" height="28.8" id="NHSReportStore" style="stroke:#A80036;stroke-width:0.8999999999999999;" width="74.4" x="200.1514" y="363"/><ellipse cx="209.1514" cy="372.6" fill="#ADD1B2" rx="6.6" ry="6.6" style="stroke:#A80036;stroke-width:0.6;"/><path d="M210.3514,370.5 Q210.4733,370.2 210.6139,370.05 Q210.7546,369.9 210.9139,369.9 Q211.1952,369.9 211.3733,370.0687 Q211.5514,370.2375 211.5514,370.6312 L211.5514,371.5687 Q211.5514,371.9625 211.3827,372.1312 Q211.2139,372.3 210.9514,372.3 Q210.7171,372.3 210.5671,372.1969 Q210.4171,372.0938 210.3514,371.8219 Q210.3233,371.6344 210.2202,371.5313 Q210.0327,371.3344 209.6952,371.2219 Q209.3577,371.1 209.0202,371.1 Q208.5983,371.1 208.2421,371.2688 Q207.8952,371.4375 207.6233,371.8125 Q207.3514,372.1875 207.3514,372.7031 L207.3514,373.2562 Q207.3514,373.875 207.8577,374.2875 Q208.3639,374.7 209.2639,374.7 Q209.7983,374.7 210.1733,374.5781 Q210.3889,374.5125 210.6327,374.2969 Q210.7921,374.175 210.8764,374.1375 Q210.9608,374.1 211.0639,374.1 Q211.2608,374.1 211.4014,374.2594 Q211.5514,374.4094 211.5514,374.625 Q211.5514,374.8313 211.3452,375.075 Q211.0452,375.4313 210.5671,375.6281 Q209.9389,375.9 209.1702,375.9 Q208.2702,375.9 207.5483,375.5438 Q206.9671,375.2625 206.5546,374.6531 Q206.1514,374.0438 206.1514,373.3219 L206.1514,372.6656 Q206.1514,371.9156 206.5077,371.2594 Q206.8733,370.6031 207.5014,370.2562 Q208.1389,369.9 208.8514,369.9 Q209.2827,369.9 209.6577,370.05 Q210.0327,370.2 210.3514,370.5 Z " fill="#000000"/><text fill="#000000" font-family="sans-serif" font-size="7.2" lengthAdjust="spacing" textLength="55.2" x="217.5514" y="375.5461">NHSReportStore</text><line style="stroke:#A80036;stroke-width:0.8999999999999999;" x1="200.7514" x2="273.9514" y1="382.2" y2="382.2"/><line style="stroke:#A80036;stroke-width:0.8999999999999999;" x1="200.7514" x2="273.9514" y1="387" y2="387"/><!--MD5=[0f6f7964b844a64b0496af0dda7914bd]
class TestStore--><rect codeLine="63" fill="#FEFECE" filter="url(#f1qwyop1io2s15)" height="28.8" id="TestStore" style="stroke:#A80036;stroke-width:0.8999999999999999;" width="51" x="585.6514" y="363"/><ellipse cx="594.6514" cy="372.6" fill="#ADD1B2" rx="6.6" ry="6.6" style="stroke:#A80036;stroke-width:0.6;"/><path d="M595.8514,370.5 Q595.9733,370.2 596.1139,370.05 Q596.2546,369.9 596.4139,369.9 Q596.6952,369.9 596.8733,370.0687 Q597.0514,370.2375 597.0514,370.6312 L597.0514,371.5687 Q597.0514,371.9625 596.8827,372.1312 Q596.7139,372.3 596.4514,372.3 Q596.2171,372.3 596.0671,372.1969 Q595.9171,372.0938 595.8514,371.8219 Q595.8233,371.6344 595.7202,371.5313 Q595.5327,371.3344 595.1952,371.2219 Q594.8577,371.1 594.5202,371.1 Q594.0983,371.1 593.7421,371.2688 Q593.3952,371.4375 593.1233,371.8125 Q592.8514,372.1875 592.8514,372.7031 L592.8514,373.2562 Q592.8514,373.875 593.3577,374.2875 Q593.8639,374.7 594.7639,374.7 Q595.2983,374.7 595.6733,374.5781 Q595.8889,374.5125 596.1327,374.2969 Q596.2921,374.175 596.3764,374.1375 Q596.4608,374.1 596.5639,374.1 Q596.7608,374.1 596.9014,374.2594 Q597.0514,374.4094 597.0514,374.625 Q597.0514,374.8313 596.8452,375.075 Q596.5452,375.4313 596.0671,375.6281 Q595.4389,375.9 594.6702,375.9 Q593.7702,375.9 593.0483,375.5438 Q592.4671,375.2625 592.0546,374.6531 Q591.6514,374.0438 591.6514,373.3219 L591.6514,372.6656 Q591.6514,371.9156 592.0077,371.2594 Q592.3733,370.6031 593.0014,370.2562 Q593.6389,369.9 594.3514,369.9 Q594.7827,369.9 595.1577,370.05 Q595.5327,370.2 595.8514,370.5 Z " fill="#000000"/><text fill="#000000" font-family="sans-serif" font-size="7.2" lengthAdjust="spacing" textLength="31.8" x="603.0514" y="375.5461">TestStore</text><line style="stroke:#A80036;stroke-width:0.8999999999999999;" x1="586.2514" x2="636.0514" y1="382.2" y2="382.2"/><line style="stroke:#A80036;stroke-width:0.8999999999999999;" x1="586.2514" x2="636.0514" y1="387" y2="387"/><!--MD5=[0df2666d1ba5e90671395b36b534d7be]
class SimpleLinearRegressionAdapter--><rect codeLine="130" fill="#FEFECE" filter="url(#f1qwyop1io2s15)" height="28.8" id="SimpleLinearRegressionAdapter" style="stroke:#A80036;stroke-width:0.8999999999999999;" width="127.8" x="326.4514" y="1152.6"/><ellipse cx="335.4514" cy="1162.2" fill="#ADD1B2" rx="6.6" ry="6.6" style="stroke:#A80036;stroke-width:0.6;"/><path d="M336.6514,1160.1 Q336.7733,1159.8 336.9139,1159.65 Q337.0546,1159.5 337.2139,1159.5 Q337.4952,1159.5 337.6733,1159.6688 Q337.8514,1159.8375 337.8514,1160.2313 L337.8514,1161.1688 Q337.8514,1161.5625 337.6827,1161.7313 Q337.5139,1161.9 337.2514,1161.9 Q337.0171,1161.9 336.8671,1161.7969 Q336.7171,1161.6938 336.6514,1161.4219 Q336.6233,1161.2344 336.5202,1161.1313 Q336.3327,1160.9344 335.9952,1160.8219 Q335.6577,1160.7 335.3202,1160.7 Q334.8983,1160.7 334.5421,1160.8687 Q334.1952,1161.0375 333.9233,1161.4125 Q333.6514,1161.7875 333.6514,1162.3031 L333.6514,1162.8563 Q333.6514,1163.475 334.1577,1163.8875 Q334.6639,1164.3 335.5639,1164.3 Q336.0983,1164.3 336.4733,1164.1781 Q336.6889,1164.1125 336.9327,1163.8969 Q337.0921,1163.775 337.1764,1163.7375 Q337.2608,1163.7 337.3639,1163.7 Q337.5608,1163.7 337.7014,1163.8594 Q337.8514,1164.0094 337.8514,1164.225 Q337.8514,1164.4312 337.6452,1164.675 Q337.3452,1165.0313 336.8671,1165.2281 Q336.2389,1165.5 335.4702,1165.5 Q334.5702,1165.5 333.8483,1165.1438 Q333.2671,1164.8625 332.8546,1164.2531 Q332.4514,1163.6438 332.4514,1162.9219 L332.4514,1162.2656 Q332.4514,1161.5156 332.8077,1160.8594 Q333.1733,1160.2031 333.8014,1159.8563 Q334.4389,1159.5 335.1514,1159.5 Q335.5827,1159.5 335.9577,1159.65 Q336.3327,1159.8 336.6514,1160.1 Z " fill="#000000"/><text fill="#000000" font-family="sans-serif" font-size="7.2" lengthAdjust="spacing" textLength="108.6" x="343.8514" y="1165.1461">SimpleLinearRegressionAdapter</text><line style="stroke:#A80036;stroke-width:0.8999999999999999;" x1="327.0514" x2="453.6514" y1="1171.8" y2="1171.8"/><line style="stroke:#A80036;stroke-width:0.8999999999999999;" x1="327.0514" x2="453.6514" y1="1176.6" y2="1176.6"/><!--MD5=[c0eeeb4f7b6396a56a0500fd5d9f47d8]
class MultipleLinearRegressionAdapter--><rect codeLine="131" fill="#FEFECE" filter="url(#f1qwyop1io2s15)" height="28.8" id="MultipleLinearRegressionAdapter" style="stroke:#A80036;stroke-width:0.8999999999999999;" width="129.6" x="475.5514" y="1152.6"/><ellipse cx="484.5514" cy="1162.2" fill="#ADD1B2" rx="6.6" ry="6.6" style="stroke:#A80036;stroke-width:0.6;"/><path d="M485.7514,1160.1 Q485.8733,1159.8 486.0139,1159.65 Q486.1546,1159.5 486.3139,1159.5 Q486.5952,1159.5 486.7733,1159.6688 Q486.9514,1159.8375 486.9514,1160.2313 L486.9514,1161.1688 Q486.9514,1161.5625 486.7827,1161.7313 Q486.6139,1161.9 486.3514,1161.9 Q486.1171,1161.9 485.9671,1161.7969 Q485.8171,1161.6938 485.7514,1161.4219 Q485.7233,1161.2344 485.6202,1161.1313 Q485.4327,1160.9344 485.0952,1160.8219 Q484.7577,1160.7 484.4202,1160.7 Q483.9983,1160.7 483.6421,1160.8687 Q483.2952,1161.0375 483.0233,1161.4125 Q482.7514,1161.7875 482.7514,1162.3031 L482.7514,1162.8563 Q482.7514,1163.475 483.2577,1163.8875 Q483.7639,1164.3 484.6639,1164.3 Q485.1983,1164.3 485.5733,1164.1781 Q485.7889,1164.1125 486.0327,1163.8969 Q486.1921,1163.775 486.2764,1163.7375 Q486.3608,1163.7 486.4639,1163.7 Q486.6608,1163.7 486.8014,1163.8594 Q486.9514,1164.0094 486.9514,1164.225 Q486.9514,1164.4312 486.7452,1164.675 Q486.4452,1165.0313 485.9671,1165.2281 Q485.3389,1165.5 484.5702,1165.5 Q483.6702,1165.5 482.9483,1165.1438 Q482.3671,1164.8625 481.9546,1164.2531 Q481.5514,1163.6438 481.5514,1162.9219 L481.5514,1162.2656 Q481.5514,1161.5156 481.9077,1160.8594 Q482.2733,1160.2031 482.9014,1159.8563 Q483.5389,1159.5 484.2514,1159.5 Q484.6827,1159.5 485.0577,1159.65 Q485.4327,1159.8 485.7514,1160.1 Z " fill="#000000"/><text fill="#000000" font-family="sans-serif" font-size="7.2" lengthAdjust="spacing" textLength="110.4" x="492.9514" y="1165.1461">MultipleLinearRegressionAdapter</text><line style="stroke:#A80036;stroke-width:0.8999999999999999;" x1="476.1514" x2="604.5514" y1="1171.8" y2="1171.8"/><line style="stroke:#A80036;stroke-width:0.8999999999999999;" x1="476.1514" x2="604.5514" y1="1176.6" y2="1176.6"/><!--MD5=[679f3b7d58d6042ffd323d827f6737cf]
class NHSReportTask--><rect codeLine="71" fill="#FEFECE" filter="url(#f1qwyop1io2s15)" height="28.8" id="NHSReportTask" style="stroke:#A80036;stroke-width:0.8999999999999999;" width="73.2" x="333.3514" y="297.6"/><ellipse cx="342.3514" cy="307.2" fill="#ADD1B2" rx="6.6" ry="6.6" style="stroke:#A80036;stroke-width:0.6;"/><path d="M343.5514,305.1 Q343.6733,304.8 343.8139,304.65 Q343.9546,304.5 344.1139,304.5 Q344.3952,304.5 344.5733,304.6688 Q344.7514,304.8375 344.7514,305.2313 L344.7514,306.1688 Q344.7514,306.5625 344.5827,306.7313 Q344.4139,306.9 344.1514,306.9 Q343.9171,306.9 343.7671,306.7969 Q343.6171,306.6937 343.5514,306.4219 Q343.5233,306.2344 343.4202,306.1312 Q343.2327,305.9344 342.8952,305.8219 Q342.5577,305.7 342.2202,305.7 Q341.7983,305.7 341.4421,305.8688 Q341.0952,306.0375 340.8233,306.4125 Q340.5514,306.7875 340.5514,307.3031 L340.5514,307.8563 Q340.5514,308.475 341.0577,308.8875 Q341.5639,309.3 342.4639,309.3 Q342.9983,309.3 343.3733,309.1781 Q343.5889,309.1125 343.8327,308.8969 Q343.9921,308.775 344.0764,308.7375 Q344.1608,308.7 344.2639,308.7 Q344.4608,308.7 344.6014,308.8594 Q344.7514,309.0094 344.7514,309.225 Q344.7514,309.4313 344.5452,309.675 Q344.2452,310.0313 343.7671,310.2281 Q343.1389,310.5 342.3702,310.5 Q341.4702,310.5 340.7483,310.1438 Q340.1671,309.8625 339.7546,309.2531 Q339.3514,308.6438 339.3514,307.9219 L339.3514,307.2656 Q339.3514,306.5156 339.7077,305.8594 Q340.0733,305.2031 340.7014,304.8563 Q341.3389,304.5 342.0514,304.5 Q342.4827,304.5 342.8577,304.65 Q343.2327,304.8 343.5514,305.1 Z " fill="#000000"/><text fill="#000000" font-family="sans-serif" font-size="7.2" lengthAdjust="spacing" textLength="54" x="350.7514" y="310.1461">NHSReportTask</text><line style="stroke:#A80036;stroke-width:0.8999999999999999;" x1="333.9514" x2="405.9514" y1="316.8" y2="316.8"/><line style="stroke:#A80036;stroke-width:0.8999999999999999;" x1="333.9514" x2="405.9514" y1="321.6" y2="321.6"/><!--MD5=[e4560fe2b65614678775c90137f62e75]
class MyRegressionModel--><rect codeLine="73" fill="#FEFECE" filter="url(#f1qwyop1io2s15)" height="86.9109" id="MyRegressionModel" style="stroke:#A80036;stroke-width:0.8999999999999999;" width="86.4" x="267.3514" y="873"/><ellipse cx="276.3514" cy="882.6" fill="#ADD1B2" rx="6.6" ry="6.6" style="stroke:#A80036;stroke-width:0.6;"/><path d="M277.5514,880.5 Q277.6733,880.2 277.8139,880.05 Q277.9546,879.9 278.1139,879.9 Q278.3952,879.9 278.5733,880.0688 Q278.7514,880.2375 278.7514,880.6313 L278.7514,881.5688 Q278.7514,881.9625 278.5827,882.1313 Q278.4139,882.3 278.1514,882.3 Q277.9171,882.3 277.7671,882.1969 Q277.6171,882.0938 277.5514,881.8219 Q277.5233,881.6344 277.4202,881.5313 Q277.2327,881.3344 276.8952,881.2219 Q276.5577,881.1 276.2202,881.1 Q275.7983,881.1 275.4421,881.2688 Q275.0952,881.4375 274.8233,881.8125 Q274.5514,882.1875 274.5514,882.7031 L274.5514,883.2563 Q274.5514,883.875 275.0577,884.2875 Q275.5639,884.7 276.4639,884.7 Q276.9983,884.7 277.3733,884.5781 Q277.5889,884.5125 277.8327,884.2969 Q277.9921,884.175 278.0764,884.1375 Q278.1608,884.1 278.2639,884.1 Q278.4608,884.1 278.6014,884.2594 Q278.7514,884.4094 278.7514,884.625 Q278.7514,884.8313 278.5452,885.075 Q278.2452,885.4313 277.7671,885.6281 Q277.1389,885.9 276.3702,885.9 Q275.4702,885.9 274.7483,885.5437 Q274.1671,885.2625 273.7546,884.6531 Q273.3514,884.0437 273.3514,883.3219 L273.3514,882.6656 Q273.3514,881.9156 273.7077,881.2594 Q274.0733,880.6031 274.7014,880.2563 Q275.3389,879.9 276.0514,879.9 Q276.4827,879.9 276.8577,880.05 Q277.2327,880.2 277.5514,880.5 Z " fill="#000000"/><text fill="#000000" font-family="sans-serif" font-size="7.2" lengthAdjust="spacing" textLength="67.2" x="284.7514" y="885.5461">MyRegressionModel</text><line style="stroke:#A80036;stroke-width:0.8999999999999999;" x1="267.9514" x2="353.1514" y1="892.2" y2="892.2"/><text fill="#000000" font-family="sans-serif" font-size="6.6" lengthAdjust="spacing" textLength="27.6" x="270.9514" y="901.4514">-intercept</text><text fill="#000000" font-family="sans-serif" font-size="6.6" lengthAdjust="spacing" textLength="18" x="270.9514" y="909.7529">-slope</text><text fill="#000000" font-family="sans-serif" font-size="6.6" lengthAdjust="spacing" textLength="56.4" x="270.9514" y="918.0545">-secondIndVariable</text><text fill="#000000" font-family="sans-serif" font-size="6.6" lengthAdjust="spacing" textLength="4.8" x="270.9514" y="926.3561">-r</text><text fill="#000000" font-family="sans-serif" font-size="6.6" lengthAdjust="spacing" textLength="8.4" x="270.9514" y="934.6576">-r2</text><text fill="#000000" font-family="sans-serif" font-size="6.6" lengthAdjust="spacing" textLength="34.2" x="270.9514" y="942.9592">-r2Adjusted</text><text fill="#000000" font-family="sans-serif" font-size="6.6" lengthAdjust="spacing" textLength="70.2" x="270.9514" y="951.2607">-numberOfObservations</text><line style="stroke:#A80036;stroke-width:0.8999999999999999;" x1="267.9514" x2="353.1514" y1="955.1109" y2="955.1109"/><!--MD5=[ae5ae3d8ba74ff2b11824aab5560c281]
class MathCalculus--><rect codeLine="83" fill="#FEFECE" filter="url(#f1qwyop1io2s15)" height="33.7125" id="MathCalculus" style="stroke:#A80036;stroke-width:0.8999999999999999;" width="63.6" x="433.5514" y="1082.4"/><ellipse cx="442.5514" cy="1094.4563" fill="#B4A7E5" rx="6.6" ry="6.6" style="stroke:#A80036;stroke-width:0.6;"/><path d="M443.1514,1092.6563 L443.1514,1096.2563 L444.3514,1096.2563 L444.6421,1096.2563 L444.9514,1096.6313 L444.9514,1096.8563 L444.9514,1097.0813 L444.6421,1097.4563 L444.3514,1097.4563 L440.7514,1097.4563 L440.4608,1097.4563 L440.1514,1097.0813 L440.1514,1096.8563 L440.1514,1096.6313 L440.4608,1096.2563 L440.7514,1096.2563 L441.9514,1096.2563 L441.9514,1092.6563 L440.7514,1092.6563 L440.4608,1092.6563 L440.1514,1092.2813 L440.1514,1092.0562 L440.1514,1091.8313 L440.4608,1091.4563 L440.7514,1091.4563 L444.3514,1091.4563 L444.6421,1091.4563 L444.9514,1091.8313 L444.9514,1092.0562 L444.9514,1092.2813 L444.6421,1092.6563 L444.3514,1092.6563 L443.1514,1092.6563 Z " fill="#000000"/><text fill="#000000" font-family="sans-serif" font-size="7.2" font-style="italic" lengthAdjust="spacing" textLength="36.6" x="454.8514" y="1092.8742">«interface»</text><text fill="#000000" font-family="sans-serif" font-size="7.2" font-style="italic" lengthAdjust="spacing" textLength="44.4" x="450.9514" y="1101.9305">MathCalculus</text><line style="stroke:#A80036;stroke-width:0.8999999999999999;" x1="434.1514" x2="496.5514" y1="1106.5125" y2="1106.5125"/><line style="stroke:#A80036;stroke-width:0.8999999999999999;" x1="434.1514" x2="496.5514" y1="1111.3125" y2="1111.3125"/><!--MD5=[df38be88ccee13e832d6fafd6288a4ca]
class Test--><rect codeLine="85" fill="#FEFECE" filter="url(#f1qwyop1io2s15)" height="78.6094" id="Test" style="stroke:#A80036;stroke-width:0.8999999999999999;" width="81.6" x="555.3514" y="438.6"/><ellipse cx="586.4014" cy="448.2" fill="#ADD1B2" rx="6.6" ry="6.6" style="stroke:#A80036;stroke-width:0.6;"/><path d="M587.6014,446.1 Q587.7233,445.8 587.8639,445.65 Q588.0046,445.5 588.1639,445.5 Q588.4452,445.5 588.6233,445.6688 Q588.8014,445.8375 588.8014,446.2313 L588.8014,447.1688 Q588.8014,447.5625 588.6327,447.7313 Q588.4639,447.9 588.2014,447.9 Q587.9671,447.9 587.8171,447.7969 Q587.6671,447.6937 587.6014,447.4219 Q587.5733,447.2344 587.4702,447.1312 Q587.2827,446.9344 586.9452,446.8219 Q586.6077,446.7 586.2702,446.7 Q585.8483,446.7 585.4921,446.8688 Q585.1452,447.0375 584.8733,447.4125 Q584.6014,447.7875 584.6014,448.3031 L584.6014,448.8563 Q584.6014,449.475 585.1077,449.8875 Q585.6139,450.3 586.5139,450.3 Q587.0483,450.3 587.4233,450.1781 Q587.6389,450.1125 587.8827,449.8969 Q588.0421,449.775 588.1264,449.7375 Q588.2108,449.7 588.3139,449.7 Q588.5108,449.7 588.6514,449.8594 Q588.8014,450.0094 588.8014,450.225 Q588.8014,450.4313 588.5952,450.675 Q588.2952,451.0313 587.8171,451.2281 Q587.1889,451.5 586.4202,451.5 Q585.5202,451.5 584.7983,451.1438 Q584.2171,450.8625 583.8046,450.2531 Q583.4014,449.6438 583.4014,448.9219 L583.4014,448.2656 Q583.4014,447.5156 583.7577,446.8594 Q584.1233,446.2031 584.7514,445.8563 Q585.3889,445.5 586.1014,445.5 Q586.5327,445.5 586.9077,445.65 Q587.2827,445.8 587.6014,446.1 Z " fill="#000000"/><text fill="#000000" font-family="sans-serif" font-size="7.2" lengthAdjust="spacing" textLength="14.4" x="598.7014" y="451.1461">Test</text><line style="stroke:#A80036;stroke-width:0.8999999999999999;" x1="555.9514" x2="636.3514" y1="457.8" y2="457.8"/><text fill="#000000" font-family="sans-serif" font-size="6.6" lengthAdjust="spacing" textLength="16.8" x="558.9514" y="467.0514">-code</text><text fill="#000000" font-family="sans-serif" font-size="6.6" lengthAdjust="spacing" textLength="28.2" x="558.9514" y="475.3529">-nhsCode</text><text fill="#000000" font-family="sans-serif" font-size="6.6" lengthAdjust="spacing" textLength="69" x="558.9514" y="483.6545">-dateOfTestRegistration</text><text fill="#000000" font-family="sans-serif" font-size="6.6" lengthAdjust="spacing" textLength="74.4" x="558.9514" y="491.9561">-dateOfSamplesCollection</text><text fill="#000000" font-family="sans-serif" font-size="6.6" lengthAdjust="spacing" textLength="73.2" x="558.9514" y="500.2576">-dateOfChemicalAnalysis</text><text fill="#000000" font-family="sans-serif" font-size="6.6" lengthAdjust="spacing" textLength="50.4" x="558.9514" y="508.5592">-dateOfDiagnosis</text><line style="stroke:#A80036;stroke-width:0.8999999999999999;" x1="555.9514" x2="636.3514" y1="512.4094" y2="512.4094"/><!--MD5=[ed6624c6556d5e7b1bd23032162d20b7]
class Client--><rect codeLine="94" fill="#FEFECE" filter="url(#f1qwyop1io2s15)" height="95.2125" id="Client" style="stroke:#A80036;stroke-width:0.8999999999999999;" width="54.6" x="561.6514" y="572.1"/><ellipse cx="577.9414" cy="581.7" fill="#ADD1B2" rx="6.6" ry="6.6" style="stroke:#A80036;stroke-width:0.6;"/><path d="M579.1414,579.6 Q579.2633,579.3 579.4039,579.15 Q579.5446,579 579.7039,579 Q579.9852,579 580.1633,579.1687 Q580.3414,579.3375 580.3414,579.7312 L580.3414,580.6687 Q580.3414,581.0625 580.1727,581.2312 Q580.0039,581.4 579.7414,581.4 Q579.5071,581.4 579.3571,581.2969 Q579.2071,581.1938 579.1414,580.9219 Q579.1133,580.7344 579.0102,580.6313 Q578.8227,580.4344 578.4852,580.3219 Q578.1477,580.2 577.8102,580.2 Q577.3883,580.2 577.0321,580.3688 Q576.6852,580.5375 576.4133,580.9125 Q576.1414,581.2875 576.1414,581.8031 L576.1414,582.3562 Q576.1414,582.975 576.6477,583.3875 Q577.1539,583.8 578.0539,583.8 Q578.5883,583.8 578.9633,583.6781 Q579.1789,583.6125 579.4227,583.3969 Q579.5821,583.275 579.6664,583.2375 Q579.7508,583.2 579.8539,583.2 Q580.0508,583.2 580.1914,583.3594 Q580.3414,583.5094 580.3414,583.725 Q580.3414,583.9313 580.1352,584.175 Q579.8352,584.5313 579.3571,584.7281 Q578.7289,585 577.9602,585 Q577.0602,585 576.3383,584.6438 Q575.7571,584.3625 575.3446,583.7531 Q574.9414,583.1438 574.9414,582.4219 L574.9414,581.7656 Q574.9414,581.0156 575.2977,580.3594 Q575.6633,579.7031 576.2914,579.3562 Q576.9289,579 577.6414,579 Q578.0727,579 578.4477,579.15 Q578.8227,579.3 579.1414,579.6 Z " fill="#000000"/><text fill="#000000" font-family="sans-serif" font-size="7.2" lengthAdjust="spacing" textLength="19.2" x="587.9614" y="584.6461">Client</text><line style="stroke:#A80036;stroke-width:0.8999999999999999;" x1="562.2514" x2="615.6514" y1="591.3" y2="591.3"/><text fill="#000000" font-family="sans-serif" font-size="6.6" lengthAdjust="spacing" textLength="18" x="565.2514" y="600.5514">-name</text><text fill="#000000" font-family="sans-serif" font-size="6.6" lengthAdjust="spacing" textLength="47.4" x="565.2514" y="608.8529">-citizenCardNum</text><text fill="#000000" font-family="sans-serif" font-size="6.6" lengthAdjust="spacing" textLength="25.8" x="565.2514" y="617.1545">-nhsNum</text><text fill="#000000" font-family="sans-serif" font-size="6.6" lengthAdjust="spacing" textLength="28.2" x="565.2514" y="625.4561">-birthDate</text><text fill="#000000" font-family="sans-serif" font-size="6.6" lengthAdjust="spacing" textLength="13.2" x="565.2514" y="633.7576">-sex</text><text fill="#000000" font-family="sans-serif" font-size="6.6" lengthAdjust="spacing" textLength="28.8" x="565.2514" y="642.0592">-taxIdNum</text><text fill="#000000" font-family="sans-serif" font-size="6.6" lengthAdjust="spacing" textLength="33" x="565.2514" y="650.3607">-phoneNum</text><text fill="#000000" font-family="sans-serif" font-size="6.6" lengthAdjust="spacing" textLength="16.8" x="565.2514" y="658.6623">-email</text><line style="stroke:#A80036;stroke-width:0.8999999999999999;" x1="562.2514" x2="615.6514" y1="662.5125" y2="662.5125"/><!--MD5=[335f4d9be48430461c68bf6d6fdba145]
class App--><rect codeLine="107" fill="#FEFECE" filter="url(#f1qwyop1io2s15)" height="28.8" id="App" style="stroke:#A80036;stroke-width:0.8999999999999999;" width="31.8" x="148.8514" y="4.2"/><ellipse cx="157.8514" cy="13.8" fill="#ADD1B2" rx="6.6" ry="6.6" style="stroke:#A80036;stroke-width:0.6;"/><path d="M159.0514,11.7 Q159.1733,11.4 159.3139,11.25 Q159.4546,11.1 159.6139,11.1 Q159.8952,11.1 160.0733,11.2687 Q160.2514,11.4375 160.2514,11.8312 L160.2514,12.7687 Q160.2514,13.1625 160.0827,13.3312 Q159.9139,13.5 159.6514,13.5 Q159.4171,13.5 159.2671,13.3969 Q159.1171,13.2938 159.0514,13.0219 Q159.0233,12.8344 158.9202,12.7313 Q158.7327,12.5344 158.3952,12.4219 Q158.0577,12.3 157.7202,12.3 Q157.2983,12.3 156.9421,12.4688 Q156.5952,12.6375 156.3233,13.0125 Q156.0514,13.3875 156.0514,13.9031 L156.0514,14.4562 Q156.0514,15.075 156.5577,15.4875 Q157.0639,15.9 157.9639,15.9 Q158.4983,15.9 158.8733,15.7781 Q159.0889,15.7125 159.3327,15.4969 Q159.4921,15.375 159.5764,15.3375 Q159.6608,15.3 159.7639,15.3 Q159.9608,15.3 160.1014,15.4594 Q160.2514,15.6094 160.2514,15.825 Q160.2514,16.0313 160.0452,16.275 Q159.7452,16.6312 159.2671,16.8281 Q158.6389,17.1 157.8702,17.1 Q156.9702,17.1 156.2483,16.7438 Q155.6671,16.4625 155.2546,15.8531 Q154.8514,15.2437 154.8514,14.5219 L154.8514,13.8656 Q154.8514,13.1156 155.2077,12.4594 Q155.5733,11.8031 156.2014,11.4562 Q156.8389,11.1 157.5514,11.1 Q157.9827,11.1 158.3577,11.25 Q158.7327,11.4 159.0514,11.7 Z " fill="#000000"/><text fill="#000000" font-family="sans-serif" font-size="7.2" lengthAdjust="spacing" textLength="12.6" x="166.2514" y="16.7461">App</text><line style="stroke:#A80036;stroke-width:0.8999999999999999;" x1="149.4514" x2="180.0514" y1="23.4" y2="23.4"/><line style="stroke:#A80036;stroke-width:0.8999999999999999;" x1="149.4514" x2="180.0514" y1="28.2" y2="28.2"/><!--MD5=[5b0f1873c15ced29becf7ded48d12cb7]
link App to Company--><path codeLine="111" d="M164.7514,33.06 C164.7514,44.934 164.7514,62.748 164.7514,79.68 " fill="none" id="App-Company" style="stroke:#A80036;stroke-width:0.6;"/><polygon fill="#000000" points="167.7514,59.5055,169.5148,54.0784,165.9881,54.0784,167.7514,59.5055" style="stroke:#000000;stroke-width:0.6;"/><text fill="#000000" font-family="sans-serif" font-size="7.8" lengthAdjust="spacing" textLength="22.2" x="173.1514" y="59.6971">knows</text><text fill="#000000" font-family="sans-serif" font-size="7.8" lengthAdjust="spacing" textLength="4.2" x="160.0396" y="45.8774">1</text><text fill="#000000" font-family="sans-serif" font-size="7.8" lengthAdjust="spacing" textLength="4.2" x="160.3579" y="73.3445">1</text><!--MD5=[01558f40b86ad3407c4a50a817100da8]
link Company to Timer--><path codeLine="112" d="M201.8554,175.338 C215.0854,192.18 229.0054,209.898 238.3294,221.772 " fill="none" id="Company-Timer" style="stroke:#A80036;stroke-width:0.6;"/><polygon fill="#000000" points="229.6046,201.0647,227.6389,195.7076,224.8655,197.8861,229.6046,201.0647" style="stroke:#000000;stroke-width:0.6;"/><text fill="#000000" font-family="sans-serif" font-size="7.8" lengthAdjust="spacing" textLength="22.2" x="233.1514" y="201.8971">knows</text><text fill="#000000" font-family="sans-serif" font-size="7.8" lengthAdjust="spacing" textLength="4.2" x="200.6636" y="187.9758">1</text><text fill="#000000" font-family="sans-serif" font-size="7.8" lengthAdjust="spacing" textLength="4.2" x="230.931" y="215.5592">1</text><!--MD5=[9df82754a8329979491fdf31d2dbdd20]
link NHSReport to MyRegressionModel--><path codeLine="114" d="M260.3494,492.324 C256.5334,527.742 247.9414,624.588 257.7514,704.4 C265.0594,763.842 283.5094,830.616 296.5294,872.94 " fill="none" id="NHSReport-MyRegressionModel" style="stroke:#A80036;stroke-width:0.6;"/><polygon fill="#000000" points="261.0353,702.092,262.2772,696.5224,258.7663,696.8562,261.0353,702.092" style="stroke:#000000;stroke-width:0.6;"/><text fill="#000000" font-family="sans-serif" font-size="7.8" lengthAdjust="spacing" textLength="12.6" x="266.1514" y="702.2971">has</text><text fill="#000000" font-family="sans-serif" font-size="7.8" lengthAdjust="spacing" textLength="3" x="256.5933" y="505.1326">*</text><text fill="#000000" font-family="sans-serif" font-size="7.8" lengthAdjust="spacing" textLength="4.2" x="290.6669" y="866.4654">1</text><!--MD5=[8b5211240efe264c13d5ef595a4d03bb]
link NHSReport to HypothesisTest--><path codeLine="115" d="M250.5514,492.33 C237.9214,508.464 218.0014,536.46 207.9514,564 C189.0574,615.78 182.4154,678.876 180.1534,722.25 " fill="none" id="NHSReport-HypothesisTest" style="stroke:#A80036;stroke-width:0.6;"/><polygon fill="#000000" points="210.0731,622.774,213.3481,618.101,209.9759,617.0685,210.0731,622.774" style="stroke:#000000;stroke-width:0.6;"/><text fill="#000000" font-family="sans-serif" font-size="7.8" lengthAdjust="spacing" textLength="29.4" x="216.3514" y="623.0971">contains</text><text fill="#000000" font-family="sans-serif" font-size="7.8" lengthAdjust="spacing" textLength="4.2" x="243.0608" y="505.1401">1</text><text fill="#000000" font-family="sans-serif" font-size="7.8" lengthAdjust="spacing" textLength="4.2" x="175.8591" y="715.8829">1</text><!--MD5=[547d65f66fccba149814dbcd0a782d42]
link NHSReport to SignificanceModelAnova--><path codeLine="116" d="M268.1314,492.48 C274.4074,506.322 284.6374,528.006 294.9514,546 C298.3294,551.892 301.9954,557.946 305.7574,563.928 " fill="none" id="NHSReport-SignificanceModelAnova" style="stroke:#A80036;stroke-width:0.6;"/><polygon fill="#000000" points="299.3493,543.3599,298.3808,537.7363,295.2603,539.3796,299.3493,543.3599" style="stroke:#000000;stroke-width:0.6;"/><text fill="#000000" font-family="sans-serif" font-size="7.8" lengthAdjust="spacing" textLength="29.4" x="303.3514" y="543.8971">contains</text><text fill="#000000" font-family="sans-serif" font-size="7.8" lengthAdjust="spacing" textLength="4.2" x="264.8749" y="505.0831">1</text><text fill="#000000" font-family="sans-serif" font-size="7.8" lengthAdjust="spacing" textLength="4.2" x="298.2537" y="557.4005">1</text><!--MD5=[306e6753dd5938314f2cd068130fe945]
link Company to RegressionModel--><path codeLine="117" d="M119.6314,138.666 C73.5574,152.454 8.7514,181.5 8.7514,235.8 C8.7514,235.8 8.7514,235.8 8.7514,917.1 C8.7514,972.006 189.7474,1003.944 271.4074,1015.56 " fill="none" id="Company-RegressionModel" style="stroke:#A80036;stroke-width:0.6;"/><polygon fill="#000000" points="12.2631,480.9615,13.075,475.3132,9.6,475.9147,12.2631,480.9615" style="stroke:#000000;stroke-width:0.6;"/><text fill="#000000" font-family="sans-serif" font-size="7.8" lengthAdjust="spacing" textLength="46.8" x="17.1514" y="481.1971">makes use of</text><text fill="#000000" font-family="sans-serif" font-size="7.8" lengthAdjust="spacing" textLength="3" x="111.8238" y="137.8401">*</text><text fill="#000000" font-family="sans-serif" font-size="7.8" lengthAdjust="spacing" textLength="4.2" x="262.4386" y="1012.8621">1</text><!--MD5=[198e8dc471e5a6e91bdf29139210d87b]
link HypothesisTest to MyRegressionModel--><path codeLine="118" d="M208.9954,826.38 C215.7694,836.334 223.3474,846.348 231.3514,855 C241.9534,866.46 254.8894,877.392 267.2074,886.746 " fill="none" id="HypothesisTest-MyRegressionModel" style="stroke:#A80036;stroke-width:0.6;"/><polygon fill="#000000" points="236.4339,851.865,233.936,846.7344,231.3974,849.1824,236.4339,851.865" style="stroke:#000000;stroke-width:0.6;"/><text fill="#000000" font-family="sans-serif" font-size="7.8" lengthAdjust="spacing" textLength="6" x="239.7514" y="852.8971">of</text><text fill="#000000" font-family="sans-serif" font-size="7.8" lengthAdjust="spacing" textLength="3" x="208.1655" y="838.851">*</text><text fill="#000000" font-family="sans-serif" font-size="7.8" lengthAdjust="spacing" textLength="4.2" x="258.321" y="881.6952">1</text><!--MD5=[b5956a601dde9528ac02f2defc92ce64]
link SignificanceModelAnova to MyRegressionModel--><path codeLine="119" d="M339.5614,675.78 C338.7694,685.332 337.8934,695.16 336.9514,704.4 C331.0114,762.84 322.2874,830.136 316.5154,872.826 " fill="none" id="SignificanceModelAnova-MyRegressionModel" style="stroke:#A80036;stroke-width:0.6;"/><polygon fill="#000000" points="337.203,777.3852,339.5848,772.1997,336.082,771.79,337.203,777.3852" style="stroke:#000000;stroke-width:0.6;"/><text fill="#000000" font-family="sans-serif" font-size="7.8" lengthAdjust="spacing" textLength="6" x="342.9514" y="777.5971">of</text><text fill="#000000" font-family="sans-serif" font-size="7.8" lengthAdjust="spacing" textLength="4.2" x="334.8762" y="688.7203">1</text><text fill="#000000" font-family="sans-serif" font-size="7.8" lengthAdjust="spacing" textLength="4.2" x="312.7139" y="866.3397">1</text><!--MD5=[c6acbac970cf27bd6d16a5c7db39602e]
link SignificanceModelAnova to HypothesisTest--><path codeLine="120" d="M308.9434,675.66 C301.4014,685.77 293.0074,695.826 284.1514,704.4 C268.2274,719.82 248.4214,733.908 230.3194,745.296 " fill="none" id="SignificanceModelAnova-HypothesisTest" style="stroke:#A80036;stroke-width:0.6;"/><polygon fill="#000000" points="294.5057,701.0945,299.7375,698.8163,297.3992,696.1762,294.5057,701.0945" style="stroke:#000000;stroke-width:0.6;"/><text fill="#000000" font-family="sans-serif" font-size="7.8" lengthAdjust="spacing" textLength="29.4" x="302.1514" y="702.2971">contains</text><text fill="#000000" font-family="sans-serif" font-size="7.8" lengthAdjust="spacing" textLength="4.2" x="301.7036" y="688.7803">1</text><text fill="#000000" font-family="sans-serif" font-size="7.8" lengthAdjust="spacing" textLength="4.2" x="234.8972" y="740.9094">1</text><!--MD5=[0dcaa8173aedfc40b07273db6fb5ce96]
link NHSReport to TableOfValues--><path codeLine="121" d="M290.6014,477.9 C325.9354,477.9 385.9294,477.9 423.5614,477.9 " fill="none" id="NHSReport-TableOfValues" style="stroke:#A80036;stroke-width:0.6;"/><polygon fill="#000000" points="343.8514,470.8055,338.4244,469.0421,338.4244,472.5688,343.8514,470.8055" style="stroke:#000000;stroke-width:0.6;"/><text fill="#000000" font-family="sans-serif" font-size="7.8" lengthAdjust="spacing" textLength="29.4" x="346.2514" y="473.9971">contains</text><text fill="#000000" font-family="sans-serif" font-size="7.8" lengthAdjust="spacing" textLength="4.2" x="295.31" y="475.6782">1</text><text fill="#000000" font-family="sans-serif" font-size="7.8" lengthAdjust="spacing" textLength="4.2" x="414.7374" y="475.8145">1</text><!--MD5=[8aa8d5df8f26005bc40a87edd0d6e9ee]
link TableOfValues to MyRegressionModel--><path codeLine="122" d="M480.3754,505.068 C487.2034,514.14 494.1454,524.664 498.9514,535.2 C518.8774,578.886 505.7314,674.88 505.5514,675.6 C486.8434,749.394 472.9414,767.928 423.9514,826.2 C403.9234,850.026 376.6894,871.818 353.9314,887.952 " fill="none" id="TableOfValues-MyRegressionModel" style="stroke:#A80036;stroke-width:0.6;"/><polygon fill="#000000" points="502.2107,701.9542,505.5869,697.3538,502.2381,696.2479,502.2107,701.9542" style="stroke:#000000;stroke-width:0.6;"/><text fill="#000000" font-family="sans-serif" font-size="7.8" lengthAdjust="spacing" textLength="6" x="508.5514" y="702.2971">of</text><text fill="#000000" font-family="sans-serif" font-size="7.8" lengthAdjust="spacing" textLength="4.2" x="478.9602" y="517.4948">1</text><text fill="#000000" font-family="sans-serif" font-size="7.8" lengthAdjust="spacing" textLength="4.2" x="358.6216" y="883.0255">1</text><!--MD5=[fbf6af04bdbd2e53a8939c56935774d0]
link TableOfValues to ConfidenceInterval--><path codeLine="123" d="M456.9874,504.966 C456.5314,526.218 455.8894,556.374 455.3794,580.362 " fill="none" id="TableOfValues-ConfidenceInterval" style="stroke:#A80036;stroke-width:0.6;"/><polygon fill="#000000" points="458.6875,543.7048,460.5662,538.3166,457.0402,538.2414,458.6875,543.7048" style="stroke:#000000;stroke-width:0.6;"/><text fill="#000000" font-family="sans-serif" font-size="7.8" lengthAdjust="spacing" textLength="29.4" x="464.1514" y="543.8971">contains</text><text fill="#000000" font-family="sans-serif" font-size="7.8" lengthAdjust="spacing" textLength="4.2" x="452.4128" y="517.5798">1</text><text fill="#000000" font-family="sans-serif" font-size="7.8" lengthAdjust="spacing" textLength="3" x="452.3059" y="574.0316">*</text><!--MD5=[45df89014b944d506706342a514ceed2]
link ConfidenceInterval to MyRegressionModel--><path codeLine="124" d="M435.6334,659.286 C415.4974,700.674 382.6954,768.066 354.3514,826.2 C346.9474,841.386 338.8294,858.018 331.6174,872.79 " fill="none" id="ConfidenceInterval-MyRegressionModel" style="stroke:#A80036;stroke-width:0.6;"/><polygon fill="#000000" points="405.8375,777.1024,409.7997,772.9959,406.6292,771.4513,405.8375,777.1024" style="stroke:#000000;stroke-width:0.6;"/><text fill="#000000" font-family="sans-serif" font-size="7.8" lengthAdjust="spacing" textLength="6" x="412.5514" y="777.5971">of</text><text fill="#000000" font-family="sans-serif" font-size="7.8" lengthAdjust="spacing" textLength="3" x="430.5278" y="671.9605">*</text><text fill="#000000" font-family="sans-serif" font-size="7.8" lengthAdjust="spacing" textLength="4.2" x="329.2844" y="866.5266">1</text><!--MD5=[d216cdaead7ca886dbb0449b3ca05d73]
link RegressionModel to MathCalculus--><path codeLine="125" d="M338.4034,1035.618 C365.1274,1048.878 405.4474,1068.882 433.4494,1082.772 " fill="none" id="RegressionModel-MathCalculus" style="stroke:#A80036;stroke-width:0.6;"/><polygon fill="#000000" points="397.8389,1060.4388,393.761,1056.4472,392.1936,1059.6065,397.8389,1060.4388" style="stroke:#000000;stroke-width:0.6;"/><text fill="#000000" font-family="sans-serif" font-size="7.8" lengthAdjust="spacing" textLength="39" x="400.5514" y="1062.2971">provided by</text><text fill="#000000" font-family="sans-serif" font-size="7.8" lengthAdjust="spacing" textLength="3" x="341.8267" y="1048.4252">*</text><text fill="#000000" font-family="sans-serif" font-size="7.8" lengthAdjust="spacing" textLength="4.2" x="424.4679" y="1078.2908">1</text><!--MD5=[120638f2907a3f1450ca2929fb13b0a2]
link MyRegressionModel to RegressionModel--><path codeLine="126" d="M310.5514,960.096 C310.5514,976.758 310.5514,994.668 310.5514,1006.638 " fill="none" id="MyRegressionModel-RegressionModel" style="stroke:#A80036;stroke-width:0.6;"/><polygon fill="#000000" points="313.5514,986.5055,315.3148,981.0784,311.7881,981.0784,313.5514,986.5055" style="stroke:#000000;stroke-width:0.6;"/><text fill="#000000" font-family="sans-serif" font-size="7.8" lengthAdjust="spacing" textLength="12.6" x="318.9514" y="986.6971">has</text><text fill="#000000" font-family="sans-serif" font-size="7.8" lengthAdjust="spacing" textLength="4.2" x="306.1513" y="972.8201">1</text><text fill="#000000" font-family="sans-serif" font-size="7.8" lengthAdjust="spacing" textLength="4.2" x="305.8133" y="1000.2006">1</text><!--MD5=[3994f36c72829dbcddd1cf7021dddf61]
link Test to Client--><path codeLine="128" d="M594.1654,517.32 C593.3014,534.24 592.2754,554.226 591.3694,571.992 " fill="none" id="Test-Client" style="stroke:#A80036;stroke-width:0.6;"/><polygon fill="#000000" points="595.9982,543.7016,598.0365,538.3716,594.5144,538.1915,595.9982,543.7016" style="stroke:#000000;stroke-width:0.6;"/><text fill="#000000" font-family="sans-serif" font-size="7.8" lengthAdjust="spacing" textLength="45" x="601.5514" y="543.8971">requested by</text><text fill="#000000" font-family="sans-serif" font-size="7.8" lengthAdjust="spacing" textLength="3" x="590.806" y="529.9877">*</text><text fill="#000000" font-family="sans-serif" font-size="7.8" lengthAdjust="spacing" textLength="4.2" x="587.1988" y="565.6576">1</text><!--MD5=[7da1af0ce58df4a2bd2978ad618b6881]
reverse link MathCalculus to SimpleLinearRegressionAdapter--><path d="M437.9494,1124.13 C427.1854,1133.694 415.2154,1144.32 405.9754,1152.528 " fill="none" id="MathCalculus-backto-SimpleLinearRegressionAdapter" style="stroke:#A80036;stroke-width:0.6;stroke-dasharray:7.0,7.0;"/><polygon fill="none" points="435.2434,1120.92,447.0034,1116.09,440.8174,1127.202,435.2434,1120.92" style="stroke:#A80036;stroke-width:0.6;"/><!--MD5=[0fcf6e9ce64ceb82b92ede330e2cd68b]
reverse link MathCalculus to MultipleLinearRegressionAdapter--><path d="M492.7534,1124.13 C503.5174,1133.694 515.4874,1144.32 524.7274,1152.528 " fill="none" id="MathCalculus-backto-MultipleLinearRegressionAdapter" style="stroke:#A80036;stroke-width:0.6;stroke-dasharray:7.0,7.0;"/><polygon fill="none" points="489.8854,1127.202,483.6994,1116.09,495.4594,1120.92,489.8854,1127.202" style="stroke:#A80036;stroke-width:0.6;"/><!--MD5=[f72ce2526d983c36f546b29717afb88c]
link NHSReportTask to TestStore--><path codeLine="136" d="M406.7134,313.08 C447.8674,314.82 515.7814,321.348 569.1514,344.4 C578.3434,348.372 587.3014,354.81 594.5674,360.906 " fill="none" id="NHSReportTask-to-TestStore" style="stroke:#A80036;stroke-width:0.6;stroke-dasharray:7.0,7.0;"/><polygon fill="#A80036" points="596.9674,362.958,594.4178,357.627,594.6854,361.0106,591.3019,361.2782,596.9674,362.958" style="stroke:#A80036;stroke-width:0.6;"/><!--MD5=[51a2342502d0de7909ffffd83df3c28b]
link NHSReportTask to NHSReportStore--><path codeLine="137" d="M333.3274,325.866 C319.7374,331.158 304.3354,337.608 290.7514,344.4 C280.8214,349.368 270.2854,355.542 261.2254,361.17 " fill="none" id="NHSReportTask-to-NHSReportStore" style="stroke:#A80036;stroke-width:0.6;stroke-dasharray:7.0,7.0;"/><polygon fill="#A80036" points="258.4654,362.892,264.3179,362.0741,261.0119,361.3059,261.7801,357.9998,258.4654,362.892" style="stroke:#A80036;stroke-width:0.6;"/><!--MD5=[4e966c963453e3c35798fd39e036e3d7]
link NHSReportTask to NHSReport--><path codeLine="138" d="M351.4114,326.466 C345.2074,331.662 338.5534,337.89 333.3514,344.4 C303.2974,382.008 279.5914,434.124 268.6114,460.524 " fill="none" id="NHSReportTask-to-NHSReport" style="stroke:#A80036;stroke-width:0.6;stroke-dasharray:7.0,7.0;"/><polygon fill="#A80036" points="267.4654,463.308,271.7407,459.2285,268.6077,460.534,267.3023,457.4009,267.4654,463.308" style="stroke:#A80036;stroke-width:0.6;"/><!--MD5=[85e1e81012b03945bdfce091ee1ae81c]
link NHSReportTask to Test--><path codeLine="139" d="M406.6774,316.392 C446.8474,321.162 508.0054,330.462 526.5514,344.4 C556.3534,366.792 574.5874,405.69 584.8774,435.636 " fill="none" id="NHSReportTask-to-Test" style="stroke:#A80036;stroke-width:0.6;stroke-dasharray:7.0,7.0;"/><polygon fill="#A80036" points="585.8434,438.504,586.3914,432.6201,584.8845,435.6614,581.8433,434.1545,585.8434,438.504" style="stroke:#A80036;stroke-width:0.6;"/><!--MD5=[1d52afbf0c95164b2ca48d15ef1d5e3f]
link NHSReportTask to TableOfValues--><path codeLine="140" d="M389.8834,326.52 C396.0514,331.59 402.4594,337.728 407.1514,344.4 C429.5494,376.242 443.4814,419.304 450.8734,447.672 " fill="none" id="NHSReportTask-to-TableOfValues" style="stroke:#A80036;stroke-width:0.6;stroke-dasharray:7.0,7.0;"/><polygon fill="#A80036" points="451.6594,450.708,452.6418,444.8809,450.9137,447.8022,447.9924,446.0741,451.6594,450.708" style="stroke:#A80036;stroke-width:0.6;"/><!--MD5=[8ecdddeffaf4b7a276a4fcd82590ae88]
link NHSReportTask to SignificanceModelAnova--><path codeLine="141" d="M368.7514,326.568 C365.2414,367.332 354.8614,487.824 348.5734,560.868 " fill="none" id="NHSReportTask-to-SignificanceModelAnova" style="stroke:#A80036;stroke-width:0.6;stroke-dasharray:7.0,7.0;"/><polygon fill="#A80036" points="348.3154,563.874,351.1704,558.7001,348.5731,560.8851,346.3881,558.2878,348.3154,563.874" style="stroke:#A80036;stroke-width:0.6;"/><!--MD5=[f9f35a1babc5056eb5d6a3341fe8a79e]
link NHSReportTask to ConfidenceInterval--><path codeLine="142" d="M373.8094,326.484 C375.3034,332.04 376.9774,338.502 378.3514,344.4 C396.0994,420.708 390.5854,442.176 413.1514,517.2 C419.2354,537.438 427.7914,559.224 435.5434,577.446 " fill="none" id="NHSReportTask-to-ConfidenceInterval" style="stroke:#A80036;stroke-width:0.6;stroke-dasharray:7.0,7.0;"/><polygon fill="#A80036" points="436.7794,580.338,436.8738,574.4294,435.6049,577.5775,432.4569,576.3087,436.7794,580.338" style="stroke:#A80036;stroke-width:0.6;"/><!--MD5=[f0173f87a1183ea57d11be677d63c950]
link NHSReportTask to HypothesisTest--><path codeLine="143" d="M333.2974,317.73 C285.8734,325.182 207.2134,340.602 189.3514,363 C107.3854,465.78 138.1594,633.456 161.8234,719.304 " fill="none" id="NHSReportTask-to-HypothesisTest" style="stroke:#A80036;stroke-width:0.6;stroke-dasharray:7.0,7.0;"/><polygon fill="#A80036" points="162.6634,722.322,163.5244,716.4757,161.8574,719.4323,158.9008,717.7654,162.6634,722.322" style="stroke:#A80036;stroke-width:0.6;"/><!--MD5=[ae8bf0c6f616ea442b3a4f27471f8430]
link NHSReportTask to MyRegressionModel--><path codeLine="144" d="M333.3334,313.59 C258.7834,316.602 96.3514,328.68 96.3514,376.8 C96.3514,376.8 96.3514,376.8 96.3514,774.9 C96.3514,854.664 201.2554,891.84 264.2374,906.972 " fill="none" id="NHSReportTask-to-MyRegressionModel" style="stroke:#A80036;stroke-width:0.6;stroke-dasharray:7.0,7.0;"/><polygon fill="#A80036" points="267.2074,907.68,262.4984,904.1101,264.2867,906.9948,261.402,908.7832,267.2074,907.68" style="stroke:#A80036;stroke-width:0.6;"/><!--MD5=[8f1e4c3894990a654a1a14ae0aad22fc]
link NHSReportTask to MathCalculus--><path codeLine="145" d="M406.5874,312.858 C486.3754,314.4 668.7514,323.742 668.7514,376.8 C668.7514,376.8 668.7514,376.8 668.7514,1021.8 C668.7514,1057.35 558.6154,1082.166 500.4274,1092.798 " fill="none" id="NHSReportTask-to-MathCalculus" style="stroke:#A80036;stroke-width:0.6;stroke-dasharray:7.0,7.0;"/><polygon fill="#A80036" points="497.3554,1093.356,503.0948,1094.763,500.3081,1092.8254,502.2458,1090.0387,497.3554,1093.356" style="stroke:#A80036;stroke-width:0.6;"/><!--MD5=[9fad79c08afe27af33ab0bb62b390ca0]
link NHSReportTask to Client--><path codeLine="146" d="M396.0814,326.526 C404.8834,331.68 414.5434,337.872 422.7514,344.4 C431.7574,351.564 433.1254,354.39 440.7514,363 C469.4134,395.364 478.8154,402.084 501.9514,438.6 C528.5434,480.576 552.5374,531.906 568.5574,569.1 " fill="none" id="NHSReportTask-to-Client" style="stroke:#A80036;stroke-width:0.6;stroke-dasharray:7.0,7.0;"/><polygon fill="#A80036" points="569.7934,571.98,569.8656,566.0711,568.6086,569.2239,565.4558,567.9669,569.7934,571.98" style="stroke:#A80036;stroke-width:0.6;"/><!--MD5=[2d6e9e001c0bf2f7f3a5c6201f06070c]
link Timer to NHSReportTask--><path codeLine="147" d="M268.7254,248.952 C289.3954,261.702 322.2034,281.946 344.8354,295.908 " fill="none" id="Timer-to-NHSReportTask" style="stroke:#A80036;stroke-width:0.6;stroke-dasharray:7.0,7.0;"/><polygon fill="#A80036" points="347.5474,297.576,344.2136,292.6969,344.9948,295.9999,341.6918,296.7811,347.5474,297.576" style="stroke:#A80036;stroke-width:0.6;"/><!--MD5=[7f6cf7f175eae0af66201860de5de971]
link Company to TestStore--><path codeLine="151" d="M209.8234,143.976 C290.9974,174.066 464.5414,245.364 585.3514,344.4 C590.8474,348.906 595.9474,354.762 600.1354,360.252 " fill="none" id="Company-to-TestStore" style="stroke:#A80036;stroke-width:0.6;"/><polygon fill="#A80036" points="602.1154,362.91,600.8086,357.147,600.3209,360.5059,596.9621,360.0182,602.1154,362.91" style="stroke:#A80036;stroke-width:0.6;"/><polygon fill="#000000" points="497.3755,275.7595,493.4832,271.5867,491.7739,274.6715,497.3755,275.7595" style="stroke:#000000;stroke-width:0.6;"/><text fill="#000000" font-family="sans-serif" font-size="7.8" lengthAdjust="spacing" textLength="16.8" x="500.1514" y="277.4971">uses</text><text fill="#000000" font-family="sans-serif" font-size="7.8" lengthAdjust="spacing" textLength="4.2" x="214.6881" y="143.6977">1</text><text fill="#000000" font-family="sans-serif" font-size="7.8" lengthAdjust="spacing" textLength="4.2" x="595.0618" y="356.491">1</text><!--MD5=[eab2606be57f591e54f848b4df2db8c8]
link Company to NHSReportStore--><path codeLine="152" d="M178.5754,175.464 C194.9854,231.666 221.4874,322.464 232.4074,359.868 " fill="none" id="Company-to-NHSReportStore" style="stroke:#A80036;stroke-width:0.6;"/><polygon fill="#A80036" points="233.2894,362.892,234.0814,357.036,232.4494,360.012,229.4734,358.38,233.2894,362.892" style="stroke:#A80036;stroke-width:0.6;"/><polygon fill="#000000" points="212.9921,277.1853,213.164,271.4815,209.7786,272.4698,212.9921,277.1853" style="stroke:#000000;stroke-width:0.6;"/><text fill="#000000" font-family="sans-serif" font-size="7.8" lengthAdjust="spacing" textLength="16.8" x="217.5514" y="277.4971">uses</text><text fill="#000000" font-family="sans-serif" font-size="7.8" lengthAdjust="spacing" textLength="4.2" x="175.3463" y="187.9471">1</text><text fill="#000000" font-family="sans-serif" font-size="7.8" lengthAdjust="spacing" textLength="4.2" x="227.5104" y="356.4684">1</text><!--MD5=[b0f4f6db8206580012ef9cd998ed01c5]
link TestStore to Test--><path codeLine="153" d="M609.0634,391.806 C607.2394,403.902 604.4914,422.082 602.0014,438.564 " fill="none" id="TestStore-Test" style="stroke:#A80036;stroke-width:0.6;"/><polygon fill="#000000" points="608.3034,418.2718,610.8575,413.169,607.3703,412.6423,608.3034,418.2718" style="stroke:#000000;stroke-width:0.6;"/><text fill="#000000" font-family="sans-serif" font-size="7.8" lengthAdjust="spacing" textLength="31.8" x="614.1514" y="418.4971">conducts</text><text fill="#000000" font-family="sans-serif" font-size="7.8" lengthAdjust="spacing" textLength="4.2" x="603.8426" y="404.6102">1</text><text fill="#000000" font-family="sans-serif" font-size="7.8" lengthAdjust="spacing" textLength="3" x="599.5044" y="431.9695">*</text><!--MD5=[2f00781f7b171962932cccf494519213]
link NHSReportStore to NHSReport--><path codeLine="154" d="M240.7714,391.806 C245.4574,410.724 253.8274,444.51 258.5194,463.452 " fill="none" id="NHSReportStore-NHSReport" style="stroke:#A80036;stroke-width:0.6;"/><polygon fill="#000000" points="251.2728,418.2175,251.6795,412.5256,248.2562,413.3736,251.2728,418.2175" style="stroke:#000000;stroke-width:0.6;"/><text fill="#000000" font-family="sans-serif" font-size="7.8" lengthAdjust="spacing" textLength="24" x="255.9514" y="418.4971">reports</text><text fill="#000000" font-family="sans-serif" font-size="7.8" lengthAdjust="spacing" textLength="4.2" x="236.8932" y="404.6102">1</text><text fill="#000000" font-family="sans-serif" font-size="7.8" lengthAdjust="spacing" textLength="12" x="244.1025" y="457.0438">1..*</text><!--MD5=[06b7f8798580bbb76f5e0c313884772d]
@startuml

skinparam classAttributeIconSize 0

class Company {
-designation
-classNameForBarcodeApi
-classNameForSortAlgorithm
-regressionModelCLass
-dateInterval
-historicalPoints
-confidenceLevel
-significanceLevel
}

class NHSReport {}

class RegressionModel {}

class HypothesisTest {
-tObsA
-tObsB
-tObsC
-significanceLevel
-critTD
-f
-critFD
-numeratorDegreesOfFreedom
-denominatorDegreesOfFreedom
}

class SignificanceModelAnova {
-significanceLevel
-sr
-se
-st
-mr
-me
-f
-degFreedomSr
-degFreedomSe
-degFreedomSt
}

class TableOfValues {
-dates
-observedPositives
-estimatedPositives
}

class ConfidenceInterval {
-y0
-auxDelta
-confidenceLevel
-delta
-limInf
-limSup
}

class Timer {}

class NHSReportStore {}

class TestStore {}

class SimpleLinearRegressionAdapter {}

class MultipleLinearRegressionAdapter {}

class RegressionModel {}

class NHSReportTask {}

class MyRegressionModel {
-intercept
-slope
-secondIndVariable
-r
-r2
-r2Adjusted
-numberOfObservations
}

interface MathCalculus <<interface>> {}

class Test {
- code
- nhsCode
- dateOfTestRegistration
- dateOfSamplesCollection
- dateOfChemicalAnalysis
- dateOfDiagnosis
}

class Client {
- name
- citizenCardNum
- nhsNum
- birthDate
- sex
- taxIdNum
- phoneNum
- email
}
/'O CONTROLLER É A APP STARTUP'/
/'COLOCAR TIMER'/

class App {}

/'Timer "1" - - "*" NHSReport : schedules >'/
/'Company "1" - - "1..*" NHSReport : reports >'/
App "1" - - "1" Company : knows >
Company "1" - - "1" Timer : knows >
/'NHSReportTask "1" - - "1" NHSReport : sends >'/
NHSReport "*" - - "1" MyRegressionModel : has >
NHSReport "1" - - "1" HypothesisTest : contains >
NHSReport "1" - - "1" SignificanceModelAnova : contains >
Company "*" - - "1" RegressionModel : makes use of >
HypothesisTest "*" - - "1" MyRegressionModel : of >
SignificanceModelAnova "1" - - "1" MyRegressionModel : of >
SignificanceModelAnova "1" - - "1" HypothesisTest : contains >
NHSReport "1" - "1" TableOfValues : contains >
TableOfValues "1" - - "1" MyRegressionModel : of >
TableOfValues "1" - - "*" ConfidenceInterval : contains >
ConfidenceInterval "*" - - "1" MyRegressionModel : of >
RegressionModel "*" - - "1" MathCalculus : provided by >
MyRegressionModel "1" - - "1" RegressionModel : has >
/'Timer "1" - - "*" NHSReportTask : runs >'/
Test "*" - - "1" Client : requested by >

class SimpleLinearRegressionAdapter implements MathCalculus
class MultipleLinearRegressionAdapter implements MathCalculus



/'NHSReportTask ..> Company'/
NHSReportTask ..> TestStore
NHSReportTask ..> NHSReportStore
NHSReportTask ..> NHSReport
NHSReportTask ..> Test
NHSReportTask ..> TableOfValues
NHSReportTask ..> SignificanceModelAnova
NHSReportTask ..> ConfidenceInterval
NHSReportTask ..> HypothesisTest
NHSReportTask ..> MyRegressionModel
NHSReportTask ..> MathCalculus
NHSReportTask ..> Client
Timer ..> NHSReportTask



Company "1" - -> "1" TestStore : uses >
Company "1" - -> "1" NHSReportStore : uses >
TestStore "1" - - "*" Test : conducts >
NHSReportStore "1" - - "1..*" NHSReport : reports >


@enduml

@startuml

skinparam classAttributeIconSize 0

class Company {
-designation
-classNameForBarcodeApi
-classNameForSortAlgorithm
-regressionModelCLass
-dateInterval
-historicalPoints
-confidenceLevel
-significanceLevel
}

class NHSReport {}

class RegressionModel {}

class HypothesisTest {
-tObsA
-tObsB
-tObsC
-significanceLevel
-critTD
-f
-critFD
-numeratorDegreesOfFreedom
-denominatorDegreesOfFreedom
}

class SignificanceModelAnova {
-significanceLevel
-sr
-se
-st
-mr
-me
-f
-degFreedomSr
-degFreedomSe
-degFreedomSt
}

class TableOfValues {
-dates
-observedPositives
-estimatedPositives
}

class ConfidenceInterval {
-y0
-auxDelta
-confidenceLevel
-delta
-limInf
-limSup
}

class Timer {}

class NHSReportStore {}

class TestStore {}

class SimpleLinearRegressionAdapter {}

class MultipleLinearRegressionAdapter {}

class RegressionModel {}

class NHSReportTask {}

class MyRegressionModel {
-intercept
-slope
-secondIndVariable
-r
-r2
-r2Adjusted
-numberOfObservations
}

interface MathCalculus <<interface>> {}

class Test {
- code
- nhsCode
- dateOfTestRegistration
- dateOfSamplesCollection
- dateOfChemicalAnalysis
- dateOfDiagnosis
}

class Client {
- name
- citizenCardNum
- nhsNum
- birthDate
- sex
- taxIdNum
- phoneNum
- email
}

class App {}

App "1" - - "1" Company : knows >
Company "1" - - "1" Timer : knows >
NHSReport "*" - - "1" MyRegressionModel : has >
NHSReport "1" - - "1" HypothesisTest : contains >
NHSReport "1" - - "1" SignificanceModelAnova : contains >
Company "*" - - "1" RegressionModel : makes use of >
HypothesisTest "*" - - "1" MyRegressionModel : of >
SignificanceModelAnova "1" - - "1" MyRegressionModel : of >
SignificanceModelAnova "1" - - "1" HypothesisTest : contains >
NHSReport "1" - "1" TableOfValues : contains >
TableOfValues "1" - - "1" MyRegressionModel : of >
TableOfValues "1" - - "*" ConfidenceInterval : contains >
ConfidenceInterval "*" - - "1" MyRegressionModel : of >
RegressionModel "*" - - "1" MathCalculus : provided by >
MyRegressionModel "1" - - "1" RegressionModel : has >
Test "*" - - "1" Client : requested by >

class SimpleLinearRegressionAdapter implements MathCalculus
class MultipleLinearRegressionAdapter implements MathCalculus



NHSReportTask ..> TestStore
NHSReportTask ..> NHSReportStore
NHSReportTask ..> NHSReport
NHSReportTask ..> Test
NHSReportTask ..> TableOfValues
NHSReportTask ..> SignificanceModelAnova
NHSReportTask ..> ConfidenceInterval
NHSReportTask ..> HypothesisTest
NHSReportTask ..> MyRegressionModel
NHSReportTask ..> MathCalculus
NHSReportTask ..> Client
Timer ..> NHSReportTask



Company "1" - -> "1" TestStore : uses >
Company "1" - -> "1" NHSReportStore : uses >
TestStore "1" - - "*" Test : conducts >
NHSReportStore "1" - - "1..*" NHSReport : reports >


@enduml

PlantUML version 1.2021.4(Sun Apr 04 09:49:39 BST 2021)
(GPL source distribution)
Java Runtime: OpenJDK Runtime Environment
JVM: OpenJDK 64-Bit Server VM
Default Encoding: Cp1252
Language: pt
Country: PT
--></g></svg>