<?xml version="1.0" encoding="UTF-8" standalone="no"?><svg xmlns="http://www.w3.org/2000/svg" xmlns:xlink="http://www.w3.org/1999/xlink" contentScriptType="application/ecmascript" contentStyleType="text/css" height="536px" preserveAspectRatio="none" style="width:780px;height:536px;" version="1.1" viewBox="0 0 780 536" width="780px" zoomAndPan="magnify"><defs><filter height="300%" id="f1qlm4d4rpmzj8" width="300%" x="-1" y="-1"><feGaussianBlur result="blurOut" stdDeviation="1.6000000000000003"/><feColorMatrix in="blurOut" result="blurOut2" type="matrix" values="0 0 0 0 0 0 0 0 0 0 0 0 0 0 0 0 0 0 .4 0"/><feOffset dx="3.2000000000000006" dy="3.2000000000000006" in="blurOut2" result="blurOut3"/><feBlend in="SourceGraphic" in2="blurOut3" mode="normal"/></filter></defs><g><!--MD5=[1b844c90688aafb95cd8c95626c3b83a]
class Timer--><rect codeLine="4" fill="#FEFECE" filter="url(#f1qlm4d4rpmzj8)" height="38.4" id="Timer" style="stroke:#A80036;stroke-width:1.2000000000000002;" width="51.2" x="106.8" y="106.4"/><ellipse cx="118.8" cy="119.2" fill="#ADD1B2" rx="8.8" ry="8.8" style="stroke:#A80036;stroke-width:0.8000000000000002;"/><path d="M120.4,116.4 Q120.5625,116 120.75,115.8 Q120.9375,115.6 121.15,115.6 Q121.525,115.6 121.7625,115.825 Q122,116.05 122,116.575 L122,117.825 Q122,118.35 121.775,118.575 Q121.55,118.8 121.2,118.8 Q120.8875,118.8 120.6875,118.6625 Q120.4875,118.525 120.4,118.1625 Q120.3625,117.9125 120.225,117.775 Q119.975,117.5125 119.525,117.3625 Q119.075,117.2 118.625,117.2 Q118.0625,117.2 117.5875,117.425 Q117.125,117.65 116.7625,118.15 Q116.4,118.65 116.4,119.3375 L116.4,120.075 Q116.4,120.9 117.075,121.45 Q117.75,122 118.95,122 Q119.6625,122 120.1625,121.8375 Q120.45,121.75 120.775,121.4625 Q120.9875,121.3 121.1,121.25 Q121.2125,121.2 121.35,121.2 Q121.6125,121.2 121.8,121.4125 Q122,121.6125 122,121.9 Q122,122.175 121.725,122.5 Q121.325,122.975 120.6875,123.2375 Q119.85,123.6 118.825,123.6 Q117.625,123.6 116.6625,123.125 Q115.8875,122.75 115.3375,121.9375 Q114.8,121.125 114.8,120.1625 L114.8,119.2875 Q114.8,118.2875 115.275,117.4125 Q115.7625,116.5375 116.6,116.075 Q117.45,115.6 118.4,115.6 Q118.975,115.6 119.475,115.8 Q119.975,116 120.4,116.4 Z " fill="#000000"/><text fill="#000000" font-family="sans-serif" font-size="9.6" lengthAdjust="spacing" textLength="25.6" x="130" y="123.1281">Timer</text><line style="stroke:#A80036;stroke-width:1.2000000000000002;" x1="107.6" x2="157.2" y1="132" y2="132"/><line style="stroke:#A80036;stroke-width:1.2000000000000002;" x1="107.6" x2="157.2" y1="138.4" y2="138.4"/><!--MD5=[db86e106e83ea9efd94d1461be461932]
class NhsAPI--><rect codeLine="5" fill="#FEFECE" filter="url(#f1qlm4d4rpmzj8)" height="38.4" id="NhsAPI" style="stroke:#A80036;stroke-width:1.2000000000000002;" width="58.4" x="5.6" y="385.6"/><ellipse cx="17.6" cy="398.4" fill="#ADD1B2" rx="8.8" ry="8.8" style="stroke:#A80036;stroke-width:0.8000000000000002;"/><path d="M19.2,395.6 Q19.3625,395.2 19.55,395 Q19.7375,394.8 19.95,394.8 Q20.325,394.8 20.5625,395.025 Q20.8,395.25 20.8,395.775 L20.8,397.025 Q20.8,397.55 20.575,397.775 Q20.35,398 20,398 Q19.6875,398 19.4875,397.8625 Q19.2875,397.725 19.2,397.3625 Q19.1625,397.1125 19.025,396.975 Q18.775,396.7125 18.325,396.5625 Q17.875,396.4 17.425,396.4 Q16.8625,396.4 16.3875,396.625 Q15.925,396.85 15.5625,397.35 Q15.2,397.85 15.2,398.5375 L15.2,399.275 Q15.2,400.1 15.875,400.65 Q16.55,401.2 17.75,401.2 Q18.4625,401.2 18.9625,401.0375 Q19.25,400.95 19.575,400.6625 Q19.7875,400.5 19.9,400.45 Q20.0125,400.4 20.15,400.4 Q20.4125,400.4 20.6,400.6125 Q20.8,400.8125 20.8,401.1 Q20.8,401.375 20.525,401.7 Q20.125,402.175 19.4875,402.4375 Q18.65,402.8 17.625,402.8 Q16.425,402.8 15.4625,402.325 Q14.6875,401.95 14.1375,401.1375 Q13.6,400.325 13.6,399.3625 L13.6,398.4875 Q13.6,397.4875 14.075,396.6125 Q14.5625,395.7375 15.4,395.275 Q16.25,394.8 17.2,394.8 Q17.775,394.8 18.275,395 Q18.775,395.2 19.2,395.6 Z " fill="#000000"/><text fill="#000000" font-family="sans-serif" font-size="9.6" lengthAdjust="spacing" textLength="32.8" x="28.8" y="402.3281">NhsAPI</text><line style="stroke:#A80036;stroke-width:1.2000000000000002;" x1="6.4" x2="63.2" y1="411.2" y2="411.2"/><line style="stroke:#A80036;stroke-width:1.2000000000000002;" x1="6.4" x2="63.2" y1="417.6" y2="417.6"/><!--MD5=[1b3ee34b7fdd36cb3481f66d36579a9c]
class NHSReport--><rect codeLine="6" fill="#FEFECE" filter="url(#f1qlm4d4rpmzj8)" height="115.8813" id="NHSDailyReport" style="stroke:#A80036;stroke-width:1.2000000000000002;" width="100" x="112" y="207.2"/><ellipse cx="125.08" cy="220" fill="#ADD1B2" rx="8.8" ry="8.8" style="stroke:#A80036;stroke-width:0.8000000000000002;"/><path d="M126.68,217.2 Q126.8425,216.8 127.03,216.6 Q127.2175,216.4 127.43,216.4 Q127.805,216.4 128.0425,216.625 Q128.28,216.85 128.28,217.375 L128.28,218.625 Q128.28,219.15 128.055,219.375 Q127.83,219.6 127.48,219.6 Q127.1675,219.6 126.9675,219.4625 Q126.7675,219.325 126.68,218.9625 Q126.6425,218.7125 126.505,218.575 Q126.255,218.3125 125.805,218.1625 Q125.355,218 124.905,218 Q124.3425,218 123.8675,218.225 Q123.405,218.45 123.0425,218.95 Q122.68,219.45 122.68,220.1375 L122.68,220.875 Q122.68,221.7 123.355,222.25 Q124.03,222.8 125.23,222.8 Q125.9425,222.8 126.4425,222.6375 Q126.73,222.55 127.055,222.2625 Q127.2675,222.1 127.38,222.05 Q127.4925,222 127.63,222 Q127.8925,222 128.08,222.2125 Q128.28,222.4125 128.28,222.7 Q128.28,222.975 128.005,223.3 Q127.605,223.775 126.9675,224.0375 Q126.13,224.4 125.105,224.4 Q123.905,224.4 122.9425,223.925 Q122.1675,223.55 121.6175,222.7375 Q121.08,221.925 121.08,220.9625 L121.08,220.0875 Q121.08,219.0875 121.555,218.2125 Q122.0425,217.3375 122.88,216.875 Q123.73,216.4 124.68,216.4 Q125.255,216.4 125.755,216.6 Q126.255,216.8 126.68,217.2 Z " fill="#000000"/><text fill="#000000" font-family="sans-serif" font-size="9.6" lengthAdjust="spacing" textLength="72" x="136.52" y="223.9281">NHSDailyReport</text><line style="stroke:#A80036;stroke-width:1.2000000000000002;" x1="112.8" x2="211.2" y1="232.8" y2="232.8"/><text fill="#000000" font-family="sans-serif" font-size="8.8" lengthAdjust="spacing" textLength="83.2" x="116.8" y="245.1352">-dayObservedValues</text><text fill="#000000" font-family="sans-serif" font-size="8.8" lengthAdjust="spacing" textLength="81.6" x="116.8" y="256.2039">-dayEstimatedValues</text><text fill="#000000" font-family="sans-serif" font-size="8.8" lengthAdjust="spacing" textLength="90.4" x="116.8" y="267.2727">-weekObservedValues</text><text fill="#000000" font-family="sans-serif" font-size="8.8" lengthAdjust="spacing" textLength="88.8" x="116.8" y="278.3414">-weekEstimatedValues</text><text fill="#000000" font-family="sans-serif" font-size="8.8" lengthAdjust="spacing" textLength="6.4" x="116.8" y="289.4102">-r</text><text fill="#000000" font-family="sans-serif" font-size="8.8" lengthAdjust="spacing" textLength="11.2" x="116.8" y="300.4789">-r2</text><text fill="#000000" font-family="sans-serif" font-size="8.8" lengthAdjust="spacing" textLength="45.6" x="116.8" y="311.5477">-r2Adjusted</text><line style="stroke:#A80036;stroke-width:1.2000000000000002;" x1="112.8" x2="211.2" y1="316.6813" y2="316.6813"/><!--MD5=[f9bf174dd5fcee0192f6251129b9c376]
class RegressionModel--><rect codeLine="16" fill="#FEFECE" filter="url(#f1qlm4d4rpmzj8)" height="38.4" id="RegressionModel" style="stroke:#A80036;stroke-width:1.2000000000000002;" width="104" x="92.4" y="385.6"/><ellipse cx="104.4" cy="398.4" fill="#ADD1B2" rx="8.8" ry="8.8" style="stroke:#A80036;stroke-width:0.8000000000000002;"/><path d="M106,395.6 Q106.1625,395.2 106.35,395 Q106.5375,394.8 106.75,394.8 Q107.125,394.8 107.3625,395.025 Q107.6,395.25 107.6,395.775 L107.6,397.025 Q107.6,397.55 107.375,397.775 Q107.15,398 106.8,398 Q106.4875,398 106.2875,397.8625 Q106.0875,397.725 106,397.3625 Q105.9625,397.1125 105.825,396.975 Q105.575,396.7125 105.125,396.5625 Q104.675,396.4 104.225,396.4 Q103.6625,396.4 103.1875,396.625 Q102.725,396.85 102.3625,397.35 Q102,397.85 102,398.5375 L102,399.275 Q102,400.1 102.675,400.65 Q103.35,401.2 104.55,401.2 Q105.2625,401.2 105.7625,401.0375 Q106.05,400.95 106.375,400.6625 Q106.5875,400.5 106.7,400.45 Q106.8125,400.4 106.95,400.4 Q107.2125,400.4 107.4,400.6125 Q107.6,400.8125 107.6,401.1 Q107.6,401.375 107.325,401.7 Q106.925,402.175 106.2875,402.4375 Q105.45,402.8 104.425,402.8 Q103.225,402.8 102.2625,402.325 Q101.4875,401.95 100.9375,401.1375 Q100.4,400.325 100.4,399.3625 L100.4,398.4875 Q100.4,397.4875 100.875,396.6125 Q101.3625,395.7375 102.2,395.275 Q103.05,394.8 104,394.8 Q104.575,394.8 105.075,395 Q105.575,395.2 106,395.6 Z " fill="#000000"/><text fill="#000000" font-family="sans-serif" font-size="9.6" lengthAdjust="spacing" textLength="78.4" x="115.6" y="402.3281">RegressionModel</text><line style="stroke:#A80036;stroke-width:1.2000000000000002;" x1="93.2" x2="195.6" y1="411.2" y2="411.2"/><line style="stroke:#A80036;stroke-width:1.2000000000000002;" x1="93.2" x2="195.6" y1="417.6" y2="417.6"/><!--MD5=[687fc6830e1e92009f5d3cb7d6abc2cd]
class ConfigFile--><rect codeLine="18" fill="#FEFECE" filter="url(#f1qlm4d4rpmzj8)" height="38.4" id="ConfigFile" style="stroke:#A80036;stroke-width:1.2000000000000002;" width="70.4" x="518.8" y="486.4"/><ellipse cx="530.8" cy="499.2" fill="#ADD1B2" rx="8.8" ry="8.8" style="stroke:#A80036;stroke-width:0.8000000000000002;"/><path d="M532.4,496.4 Q532.5625,496 532.75,495.8 Q532.9375,495.6 533.15,495.6 Q533.525,495.6 533.7625,495.825 Q534,496.05 534,496.575 L534,497.825 Q534,498.35 533.775,498.575 Q533.55,498.8 533.2,498.8 Q532.8875,498.8 532.6875,498.6625 Q532.4875,498.525 532.4,498.1625 Q532.3625,497.9125 532.225,497.775 Q531.975,497.5125 531.525,497.3625 Q531.075,497.2 530.625,497.2 Q530.0625,497.2 529.5875,497.425 Q529.125,497.65 528.7625,498.15 Q528.4,498.65 528.4,499.3375 L528.4,500.075 Q528.4,500.9 529.075,501.45 Q529.75,502 530.95,502 Q531.6625,502 532.1625,501.8375 Q532.45,501.75 532.775,501.4625 Q532.9875,501.3 533.1,501.25 Q533.2125,501.2 533.35,501.2 Q533.6125,501.2 533.8,501.4125 Q534,501.6125 534,501.9 Q534,502.175 533.725,502.5 Q533.325,502.975 532.6875,503.2375 Q531.85,503.6 530.825,503.6 Q529.625,503.6 528.6625,503.125 Q527.8875,502.75 527.3375,501.9375 Q526.8,501.125 526.8,500.1625 L526.8,499.2875 Q526.8,498.2875 527.275,497.4125 Q527.7625,496.5375 528.6,496.075 Q529.45,495.6 530.4,495.6 Q530.975,495.6 531.475,495.8 Q531.975,496 532.4,496.4 Z " fill="#000000"/><text fill="#000000" font-family="sans-serif" font-size="9.6" lengthAdjust="spacing" textLength="44.8" x="542" y="503.1281">ConfigFile</text><line style="stroke:#A80036;stroke-width:1.2000000000000002;" x1="519.6" x2="588.4" y1="512" y2="512"/><line style="stroke:#A80036;stroke-width:1.2000000000000002;" x1="519.6" x2="588.4" y1="518.4" y2="518.4"/><!--MD5=[cc633aa4dda9de8b80d819a5667849eb]
class IntervalOfDates--><rect codeLine="21" fill="#FEFECE" filter="url(#f1qlm4d4rpmzj8)" height="38.4" id="IntervalOfDates" style="stroke:#A80036;stroke-width:1.2000000000000002;" width="92.8" x="507.6" y="385.6"/><ellipse cx="519.6" cy="398.4" fill="#ADD1B2" rx="8.8" ry="8.8" style="stroke:#A80036;stroke-width:0.8000000000000002;"/><path d="M521.2,395.6 Q521.3625,395.2 521.55,395 Q521.7375,394.8 521.95,394.8 Q522.325,394.8 522.5625,395.025 Q522.8,395.25 522.8,395.775 L522.8,397.025 Q522.8,397.55 522.575,397.775 Q522.35,398 522,398 Q521.6875,398 521.4875,397.8625 Q521.2875,397.725 521.2,397.3625 Q521.1625,397.1125 521.025,396.975 Q520.775,396.7125 520.325,396.5625 Q519.875,396.4 519.425,396.4 Q518.8625,396.4 518.3875,396.625 Q517.925,396.85 517.5625,397.35 Q517.2,397.85 517.2,398.5375 L517.2,399.275 Q517.2,400.1 517.875,400.65 Q518.55,401.2 519.75,401.2 Q520.4625,401.2 520.9625,401.0375 Q521.25,400.95 521.575,400.6625 Q521.7875,400.5 521.9,400.45 Q522.0125,400.4 522.15,400.4 Q522.4125,400.4 522.6,400.6125 Q522.8,400.8125 522.8,401.1 Q522.8,401.375 522.525,401.7 Q522.125,402.175 521.4875,402.4375 Q520.65,402.8 519.625,402.8 Q518.425,402.8 517.4625,402.325 Q516.6875,401.95 516.1375,401.1375 Q515.6,400.325 515.6,399.3625 L515.6,398.4875 Q515.6,397.4875 516.075,396.6125 Q516.5625,395.7375 517.4,395.275 Q518.25,394.8 519.2,394.8 Q519.775,394.8 520.275,395 Q520.775,395.2 521.2,395.6 Z " fill="#000000"/><text fill="#000000" font-family="sans-serif" font-size="9.6" lengthAdjust="spacing" textLength="67.2" x="530.8" y="402.3281">IntervalOfDates</text><line style="stroke:#A80036;stroke-width:1.2000000000000002;" x1="508.4" x2="599.6" y1="411.2" y2="411.2"/><line style="stroke:#A80036;stroke-width:1.2000000000000002;" x1="508.4" x2="599.6" y1="417.6" y2="417.6"/><!--MD5=[63dcc21f4e79dafdd5ab327d478eb915]
class NumberOfHistoricalPoints--><rect codeLine="24" fill="#FEFECE" filter="url(#f1qlm4d4rpmzj8)" height="38.4" id="NumberOfHistoricalPoints" style="stroke:#A80036;stroke-width:1.2000000000000002;" width="140.8" x="628.4" y="385.6"/><ellipse cx="640.4" cy="398.4" fill="#ADD1B2" rx="8.8" ry="8.8" style="stroke:#A80036;stroke-width:0.8000000000000002;"/><path d="M642,395.6 Q642.1625,395.2 642.35,395 Q642.5375,394.8 642.75,394.8 Q643.125,394.8 643.3625,395.025 Q643.6,395.25 643.6,395.775 L643.6,397.025 Q643.6,397.55 643.375,397.775 Q643.15,398 642.8,398 Q642.4875,398 642.2875,397.8625 Q642.0875,397.725 642,397.3625 Q641.9625,397.1125 641.825,396.975 Q641.575,396.7125 641.125,396.5625 Q640.675,396.4 640.225,396.4 Q639.6625,396.4 639.1875,396.625 Q638.725,396.85 638.3625,397.35 Q638,397.85 638,398.5375 L638,399.275 Q638,400.1 638.675,400.65 Q639.35,401.2 640.55,401.2 Q641.2625,401.2 641.7625,401.0375 Q642.05,400.95 642.375,400.6625 Q642.5875,400.5 642.7,400.45 Q642.8125,400.4 642.95,400.4 Q643.2125,400.4 643.4,400.6125 Q643.6,400.8125 643.6,401.1 Q643.6,401.375 643.325,401.7 Q642.925,402.175 642.2875,402.4375 Q641.45,402.8 640.425,402.8 Q639.225,402.8 638.2625,402.325 Q637.4875,401.95 636.9375,401.1375 Q636.4,400.325 636.4,399.3625 L636.4,398.4875 Q636.4,397.4875 636.875,396.6125 Q637.3625,395.7375 638.2,395.275 Q639.05,394.8 640,394.8 Q640.575,394.8 641.075,395 Q641.575,395.2 642,395.6 Z " fill="#000000"/><text fill="#000000" font-family="sans-serif" font-size="9.6" lengthAdjust="spacing" textLength="115.2" x="651.6" y="402.3281">NumberOfHistoricalPoints</text><line style="stroke:#A80036;stroke-width:1.2000000000000002;" x1="629.2" x2="768.4" y1="411.2" y2="411.2"/><line style="stroke:#A80036;stroke-width:1.2000000000000002;" x1="629.2" x2="768.4" y1="417.6" y2="417.6"/><!--MD5=[dfe7672a7c242e7ff03cfd775649b5cb]
class HypothesisTest--><rect codeLine="27" fill="#FEFECE" filter="url(#f1qlm4d4rpmzj8)" height="38.4" id="HypothesisTest" style="stroke:#A80036;stroke-width:1.2000000000000002;" width="94.4" x="224.4" y="385.6"/><ellipse cx="236.4" cy="398.4" fill="#ADD1B2" rx="8.8" ry="8.8" style="stroke:#A80036;stroke-width:0.8000000000000002;"/><path d="M238,395.6 Q238.1625,395.2 238.35,395 Q238.5375,394.8 238.75,394.8 Q239.125,394.8 239.3625,395.025 Q239.6,395.25 239.6,395.775 L239.6,397.025 Q239.6,397.55 239.375,397.775 Q239.15,398 238.8,398 Q238.4875,398 238.2875,397.8625 Q238.0875,397.725 238,397.3625 Q237.9625,397.1125 237.825,396.975 Q237.575,396.7125 237.125,396.5625 Q236.675,396.4 236.225,396.4 Q235.6625,396.4 235.1875,396.625 Q234.725,396.85 234.3625,397.35 Q234,397.85 234,398.5375 L234,399.275 Q234,400.1 234.675,400.65 Q235.35,401.2 236.55,401.2 Q237.2625,401.2 237.7625,401.0375 Q238.05,400.95 238.375,400.6625 Q238.5875,400.5 238.7,400.45 Q238.8125,400.4 238.95,400.4 Q239.2125,400.4 239.4,400.6125 Q239.6,400.8125 239.6,401.1 Q239.6,401.375 239.325,401.7 Q238.925,402.175 238.2875,402.4375 Q237.45,402.8 236.425,402.8 Q235.225,402.8 234.2625,402.325 Q233.4875,401.95 232.9375,401.1375 Q232.4,400.325 232.4,399.3625 L232.4,398.4875 Q232.4,397.4875 232.875,396.6125 Q233.3625,395.7375 234.2,395.275 Q235.05,394.8 236,394.8 Q236.575,394.8 237.075,395 Q237.575,395.2 238,395.6 Z " fill="#000000"/><text fill="#000000" font-family="sans-serif" font-size="9.6" lengthAdjust="spacing" textLength="68.8" x="247.6" y="402.3281">HypothesisTest</text><line style="stroke:#A80036;stroke-width:1.2000000000000002;" x1="225.2" x2="318" y1="411.2" y2="411.2"/><line style="stroke:#A80036;stroke-width:1.2000000000000002;" x1="225.2" x2="318" y1="417.6" y2="417.6"/><!--MD5=[39ee656b41ae4892150ca74368648c0e]
class SignificanceModelAnova--><rect codeLine="30" fill="#FEFECE" filter="url(#f1qlm4d4rpmzj8)" height="38.4" id="SignificanceModelAnova" style="stroke:#A80036;stroke-width:1.2000000000000002;" width="132" x="347.2" y="385.6"/><ellipse cx="359.2" cy="398.4" fill="#ADD1B2" rx="8.8" ry="8.8" style="stroke:#A80036;stroke-width:0.8000000000000002;"/><path d="M360.8,395.6 Q360.9625,395.2 361.15,395 Q361.3375,394.8 361.55,394.8 Q361.925,394.8 362.1625,395.025 Q362.4,395.25 362.4,395.775 L362.4,397.025 Q362.4,397.55 362.175,397.775 Q361.95,398 361.6,398 Q361.2875,398 361.0875,397.8625 Q360.8875,397.725 360.8,397.3625 Q360.7625,397.1125 360.625,396.975 Q360.375,396.7125 359.925,396.5625 Q359.475,396.4 359.025,396.4 Q358.4625,396.4 357.9875,396.625 Q357.525,396.85 357.1625,397.35 Q356.8,397.85 356.8,398.5375 L356.8,399.275 Q356.8,400.1 357.475,400.65 Q358.15,401.2 359.35,401.2 Q360.0625,401.2 360.5625,401.0375 Q360.85,400.95 361.175,400.6625 Q361.3875,400.5 361.5,400.45 Q361.6125,400.4 361.75,400.4 Q362.0125,400.4 362.2,400.6125 Q362.4,400.8125 362.4,401.1 Q362.4,401.375 362.125,401.7 Q361.725,402.175 361.0875,402.4375 Q360.25,402.8 359.225,402.8 Q358.025,402.8 357.0625,402.325 Q356.2875,401.95 355.7375,401.1375 Q355.2,400.325 355.2,399.3625 L355.2,398.4875 Q355.2,397.4875 355.675,396.6125 Q356.1625,395.7375 357,395.275 Q357.85,394.8 358.8,394.8 Q359.375,394.8 359.875,395 Q360.375,395.2 360.8,395.6 Z " fill="#000000"/><text fill="#000000" font-family="sans-serif" font-size="9.6" lengthAdjust="spacing" textLength="106.4" x="370.4" y="402.3281">SignificanceModelAnova</text><line style="stroke:#A80036;stroke-width:1.2000000000000002;" x1="348" x2="478.4" y1="411.2" y2="411.2"/><line style="stroke:#A80036;stroke-width:1.2000000000000002;" x1="348" x2="478.4" y1="417.6" y2="417.6"/><!--MD5=[02e4b9b7573f1156f41e60aa5b4e25a4]
class Company--><rect fill="#FEFECE" filter="url(#f1qlm4d4rpmzj8)" height="38.4" id="Company" style="stroke:#A80036;stroke-width:1.2000000000000002;" width="68" x="24" y="5.6"/><ellipse cx="36" cy="18.4" fill="#ADD1B2" rx="8.8" ry="8.8" style="stroke:#A80036;stroke-width:0.8000000000000002;"/><path d="M37.6,15.6 Q37.7625,15.2 37.95,15 Q38.1375,14.8 38.35,14.8 Q38.725,14.8 38.9625,15.025 Q39.2,15.25 39.2,15.775 L39.2,17.025 Q39.2,17.55 38.975,17.775 Q38.75,18 38.4,18 Q38.0875,18 37.8875,17.8625 Q37.6875,17.725 37.6,17.3625 Q37.5625,17.1125 37.425,16.975 Q37.175,16.7125 36.725,16.5625 Q36.275,16.4 35.825,16.4 Q35.2625,16.4 34.7875,16.625 Q34.325,16.85 33.9625,17.35 Q33.6,17.85 33.6,18.5375 L33.6,19.275 Q33.6,20.1 34.275,20.65 Q34.95,21.2 36.15,21.2 Q36.8625,21.2 37.3625,21.0375 Q37.65,20.95 37.975,20.6625 Q38.1875,20.5 38.3,20.45 Q38.4125,20.4 38.55,20.4 Q38.8125,20.4 39,20.6125 Q39.2,20.8125 39.2,21.1 Q39.2,21.375 38.925,21.7 Q38.525,22.175 37.8875,22.4375 Q37.05,22.8 36.025,22.8 Q34.825,22.8 33.8625,22.325 Q33.0875,21.95 32.5375,21.1375 Q32,20.325 32,19.3625 L32,18.4875 Q32,17.4875 32.475,16.6125 Q32.9625,15.7375 33.8,15.275 Q34.65,14.8 35.6,14.8 Q36.175,14.8 36.675,15 Q37.175,15.2 37.6,15.6 Z " fill="#000000"/><text fill="#000000" font-family="sans-serif" font-size="9.6" lengthAdjust="spacing" textLength="42.4" x="47.2" y="22.3281">Company</text><line style="stroke:#A80036;stroke-width:1.2000000000000002;" x1="24.8" x2="91.2" y1="31.2" y2="31.2"/><line style="stroke:#A80036;stroke-width:1.2000000000000002;" x1="24.8" x2="91.2" y1="37.6" y2="37.6"/><!--MD5=[7e9b06836a8ac6805f5bb8376353dfcc]
link Timer to NHSReport--><path codeLine="32" d="M136.392,145.008 C139.816,160.976 144.936,184.856 149.704,207.072 " fill="none" id="Timer-NHSDailyReport" style="stroke:#A80036;stroke-width:0.8000000000000002;"/><polygon fill="#000000" points="149.2389,180.0517,150.0202,172.4834,145.4225,173.4696,149.2389,180.0517" style="stroke:#000000;stroke-width:0.8000000000000002;"/><text fill="#000000" font-family="sans-serif" font-size="10.4" lengthAdjust="spacing" textLength="32" x="155.6" y="180.3961">reports</text><text fill="#000000" font-family="sans-serif" font-size="10.4" lengthAdjust="spacing" textLength="5.6" x="131.0826" y="162.1291">1</text><text fill="#000000" font-family="sans-serif" font-size="10.4" lengthAdjust="spacing" textLength="16" x="131.611" y="198.4343">1..*</text><!--MD5=[01558f40b86ad3407c4a50a817100da8]
link Company to Timer--><path codeLine="33" d="M71.816,44.024 C85.096,61.736 105.064,88.352 118.4,106.136 " fill="none" id="Company-Timer" style="stroke:#A80036;stroke-width:0.8000000000000002;"/><polygon fill="#000000" points="106.8,78.5406,104.3393,71.3411,100.5774,74.1625,106.8,78.5406" style="stroke:#000000;stroke-width:0.8000000000000002;"/><text fill="#000000" font-family="sans-serif" font-size="10.4" lengthAdjust="spacing" textLength="29.6" x="111.6" y="79.5961">knows</text><text fill="#000000" font-family="sans-serif" font-size="10.4" lengthAdjust="spacing" textLength="5.6" x="68.9012" y="61.1002">1</text><text fill="#000000" font-family="sans-serif" font-size="10.4" lengthAdjust="spacing" textLength="5.6" x="108.705" y="97.862">1</text><!--MD5=[cdd11370488bf2667b85afc1097a0f02]
link Company to NhsAPI--><path codeLine="34" d="M56.864,44.104 C52.928,108.36 39.872,321.336 35.936,385.528 " fill="none" id="Company-NhsAPI" style="stroke:#A80036;stroke-width:0.8000000000000002;"/><polygon fill="#000000" points="52.9553,180.1331,55.7447,173.0545,51.0513,172.7668,52.9553,180.1331" style="stroke:#000000;stroke-width:0.8000000000000002;"/><text fill="#000000" font-family="sans-serif" font-size="10.4" lengthAdjust="spacing" textLength="62.4" x="60.4" y="180.3961">makes use of</text><text fill="#000000" font-family="sans-serif" font-size="10.4" lengthAdjust="spacing" textLength="4" x="52.0996" y="61.1997">*</text><text fill="#000000" font-family="sans-serif" font-size="10.4" lengthAdjust="spacing" textLength="5.6" x="29.9096" y="376.9817">1</text><!--MD5=[80314c96c8deff5ab0bed54c021a6a82]
link NHSReport to NhsAPI--><path codeLine="35" d="M111.728,320.544 C90.48,343.592 67.152,368.904 51.816,385.536 " fill="none" id="NHSDailyReport-NhsAPI" style="stroke:#A80036;stroke-width:0.8000000000000002;"/><polygon fill="#000000" points="88.8888,357.4817,95.5221,353.7549,92.0647,350.5677,88.8888,357.4817" style="stroke:#000000;stroke-width:0.8000000000000002;"/><text fill="#000000" font-family="sans-serif" font-size="10.4" lengthAdjust="spacing" textLength="36.8" x="98.8" y="358.7961">send by</text><text fill="#000000" font-family="sans-serif" font-size="10.4" lengthAdjust="spacing" textLength="4" x="101.6841" y="324.2224">*</text><text fill="#000000" font-family="sans-serif" font-size="10.4" lengthAdjust="spacing" textLength="5.6" x="49.8589" y="376.9917">1</text><!--MD5=[7b5ed4286a6e264cfadf6d05c327ea37]
link NHSReport to RegressionModel--><path codeLine="36" d="M154.688,323.328 C151.856,345.544 148.808,369.424 146.776,385.384 " fill="none" id="NHSDailyReport-RegressionModel" style="stroke:#A80036;stroke-width:0.8000000000000002;"/><polygon fill="#000000" points="155.0941,358.5085,158.3415,351.6279,153.677,351.0332,155.0941,358.5085" style="stroke:#000000;stroke-width:0.8000000000000002;"/><text fill="#000000" font-family="sans-serif" font-size="10.4" lengthAdjust="spacing" textLength="56.8" x="162.8" y="358.7961">makes us of</text><text fill="#000000" font-family="sans-serif" font-size="10.4" lengthAdjust="spacing" textLength="4" x="149.8005" y="340.2935">*</text><text fill="#000000" font-family="sans-serif" font-size="10.4" lengthAdjust="spacing" textLength="5.6" x="141.0674" y="376.8008">1</text><!--MD5=[dd73e802d35aa48b90b3e3b9f8127500]
link NHSReport to HypothesisTest--><path codeLine="37" d="M207.888,323.416 C214.248,331.4 220.688,339.496 226.8,347.2 C236.944,359.992 248.344,374.44 257.096,385.56 " fill="none" id="NHSDailyReport-HypothesisTest" style="stroke:#A80036;stroke-width:0.8000000000000002;"/><polygon fill="#000000" points="243.6831,357.6765,241.0343,350.5441,237.3478,353.4632,243.6831,357.6765" style="stroke:#000000;stroke-width:0.8000000000000002;"/><text fill="#000000" font-family="sans-serif" font-size="10.4" lengthAdjust="spacing" textLength="39.2" x="248.4" y="358.7961">contains</text><text fill="#000000" font-family="sans-serif" font-size="10.4" lengthAdjust="spacing" textLength="5.6" x="206.2602" y="340.1873">1</text><text fill="#000000" font-family="sans-serif" font-size="10.4" lengthAdjust="spacing" textLength="4" x="248.8669" y="377.0219">*</text><!--MD5=[cff19e7c6fb9d4fe90b3e8a2b0da2093]
link NHSReport to SignificanceModelAnova--><path codeLine="38" d="M212.232,293.592 C261.912,320.888 336.56,361.896 379.52,385.496 " fill="none" id="NHSDailyReport-SignificanceModelAnova" style="stroke:#A80036;stroke-width:0.8000000000000002;"/><polygon fill="#000000" points="339.1058,356.4666,333.8958,350.9218,331.6317,355.0431,339.1058,356.4666" style="stroke:#000000;stroke-width:0.8000000000000002;"/><text fill="#000000" font-family="sans-serif" font-size="10.4" lengthAdjust="spacing" textLength="39.2" x="342.8" y="358.7961">contains</text><text fill="#000000" font-family="sans-serif" font-size="10.4" lengthAdjust="spacing" textLength="5.6" x="218.3638" y="294.154">1</text><text fill="#000000" font-family="sans-serif" font-size="10.4" lengthAdjust="spacing" textLength="5.6" x="364.572" y="376.9415">1</text><!--MD5=[33585439919756e0ac603647bf27634e]
link RegressionModel to ConfigFile--><path codeLine="41" d="M196.544,420.256 C201.36,421.544 206.168,422.816 210.8,424 C322.728,452.672 456.176,482.984 518.56,496.936 " fill="none" id="RegressionModel-ConfigFile" style="stroke:#A80036;stroke-width:0.8000000000000002;"/><polygon fill="#000000" points="368.2912,456.2672,361.7966,452.3038,360.7073,456.8782,368.2912,456.2672" style="stroke:#000000;stroke-width:0.8000000000000002;"/><text fill="#000000" font-family="sans-serif" font-size="10.4" lengthAdjust="spacing" textLength="47.2" x="371.6" y="459.5961">defined by</text><text fill="#000000" font-family="sans-serif" font-size="10.4" lengthAdjust="spacing" textLength="5.6" x="202.8969" y="419.3155">1</text><text fill="#000000" font-family="sans-serif" font-size="10.4" lengthAdjust="spacing" textLength="5.6" x="506.8655" y="492.5537">1</text><!--MD5=[7f41efdc11b4532ad456f5512424468f]
link IntervalOfDates to ConfigFile--><path codeLine="42" d="M554,424.024 C554,441.736 554,468.352 554,486.136 " fill="none" id="IntervalOfDates-ConfigFile" style="stroke:#A80036;stroke-width:0.8000000000000002;"/><polygon fill="#000000" points="558,459.3406,560.3511,452.1046,555.6489,452.1046,558,459.3406" style="stroke:#000000;stroke-width:0.8000000000000002;"/><text fill="#000000" font-family="sans-serif" font-size="10.4" lengthAdjust="spacing" textLength="47.2" x="565.2" y="459.5961">defined by</text><text fill="#000000" font-family="sans-serif" font-size="10.4" lengthAdjust="spacing" textLength="5.6" x="547.7175" y="441.1002">1</text><text fill="#000000" font-family="sans-serif" font-size="10.4" lengthAdjust="spacing" textLength="5.6" x="547.7175" y="477.862">1</text><!--MD5=[d1fc7da610121515e2a53c44739aa274]
link NumberOfHistoricalPoints to ConfigFile--><path codeLine="43" d="M673.696,424.08 C658.232,435.344 637.92,449.92 619.6,462.4 C607.832,470.416 594.68,478.992 583.264,486.312 " fill="none" id="NumberOfHistoricalPoints-ConfigFile" style="stroke:#A80036;stroke-width:0.8000000000000002;"/><polygon fill="#000000" points="639.5049,457.6082,646.7987,455.4429,644.133,451.5693,639.5049,457.6082" style="stroke:#000000;stroke-width:0.8000000000000002;"/><text fill="#000000" font-family="sans-serif" font-size="10.4" lengthAdjust="spacing" textLength="47.2" x="650" y="459.5961">defined by</text><text fill="#000000" font-family="sans-serif" font-size="10.4" lengthAdjust="spacing" textLength="5.6" x="661.2944" y="441.1699">1</text><text fill="#000000" font-family="sans-serif" font-size="10.4" lengthAdjust="spacing" textLength="5.6" x="584.4454" y="477.7616">1</text><!--MD5=[8622d86659264849ca46b2dfe95b451c]
@startuml

skinparam classAttributeIconSize 0

class Timer {}
class NhsAPI{}
class NHSReport {
- dayObservedValues
- dayEstimatedValues
- weekObservedValues
- weekEstimatedValues
- r
- r2
- r2Adjusted
}

class RegressionModel {}

class ConfigFile {}

'The interval of dates to fit the regression model
class IntervalOfDates {}

'Number of days and number of weeks
class NumberOfHistoricalPoints {}

'hypothesis tests for regression coefficients
class HypothesisTest {}

'significance model with Anova.
class SignificanceModelAnova {}

Timer "1" - - "1..*" NHSReport : reports >
Company "1" - - "1" Timer : knows >
Company "*" - "1" NhsAPI : makes use of >
NHSReport "*" - - "1" NhsAPI : send by >
NHSReport "*" - - "1" RegressionModel : makes us of >
NHSReport "1" - - "*" HypothesisTest : contains >
NHSReport "1" - - "1" SignificanceModelAnova : contains >

'Apagar posteriormente
RegressionModel "1" - - "1" ConfigFile : defined by >
IntervalOfDates "1" - - "1" ConfigFile : defined by >
NumberOfHistoricalPoints "1" - - "1" ConfigFile : defined by >



@enduml

@startuml

skinparam classAttributeIconSize 0

class Timer {}
class NhsAPI{}
class NHSReport {
- dayObservedValues
- dayEstimatedValues
- weekObservedValues
- weekEstimatedValues
- r
- r2
- r2Adjusted
}

class RegressionModel {}

class ConfigFile {}

class IntervalOfDates {}

class NumberOfHistoricalPoints {}

class HypothesisTest {}

class SignificanceModelAnova {}

Timer "1" - - "1..*" NHSReport : reports >
Company "1" - - "1" Timer : knows >
Company "*" - "1" NhsAPI : makes use of >
NHSReport "*" - - "1" NhsAPI : send by >
NHSReport "*" - - "1" RegressionModel : makes us of >
NHSReport "1" - - "*" HypothesisTest : contains >
NHSReport "1" - - "1" SignificanceModelAnova : contains >

RegressionModel "1" - - "1" ConfigFile : defined by >
IntervalOfDates "1" - - "1" ConfigFile : defined by >
NumberOfHistoricalPoints "1" - - "1" ConfigFile : defined by >



@enduml

PlantUML version 1.2021.4(Sun Apr 04 09:49:39 BST 2021)
(GPL source distribution)
Java Runtime: OpenJDK Runtime Environment
JVM: OpenJDK 64-Bit Server VM
Default Encoding: Cp1252
Language: pt
Country: PT
--></g></svg>