<?xml version="1.0" encoding="UTF-8" standalone="no"?><svg xmlns="http://www.w3.org/2000/svg" xmlns:xlink="http://www.w3.org/1999/xlink" contentScriptType="application/ecmascript" contentStyleType="text/css" height="662px" preserveAspectRatio="none" style="width:431px;height:662px;" version="1.1" viewBox="0 0 431 662" width="431px" zoomAndPan="magnify"><defs><filter height="300%" id="f1i676oxkywm4s" width="300%" x="-1" y="-1"><feGaussianBlur result="blurOut" stdDeviation="2.0"/><feColorMatrix in="blurOut" result="blurOut2" type="matrix" values="0 0 0 0 0 0 0 0 0 0 0 0 0 0 0 0 0 0 .4 0"/><feOffset dx="4.0" dy="4.0" in="blurOut2" result="blurOut3"/><feBlend in="SourceGraphic" in2="blurOut3" mode="normal"/></filter></defs><g><!--MD5=[0b4e4b4980470ea387cc45de9bd14b5b]
class Application--><rect codeLine="3" fill="#FEFECE" filter="url(#f1i676oxkywm4s)" height="117.1797" id="Application" style="stroke:#A80036;stroke-width:1.5;" width="307" x="7" y="267"/><ellipse cx="126.25" cy="283" fill="#ADD1B2" rx="11" ry="11" style="stroke:#A80036;stroke-width:1.0;"/><path d="M128.25,279.5 Q128.4531,279 128.6875,278.75 Q128.9219,278.5 129.1875,278.5 Q129.6563,278.5 129.9531,278.7813 Q130.25,279.0625 130.25,279.7188 L130.25,281.2813 Q130.25,281.9375 129.9688,282.2188 Q129.6875,282.5 129.25,282.5 Q128.8594,282.5 128.6094,282.3281 Q128.3594,282.1563 128.25,281.7031 Q128.2031,281.3906 128.0313,281.2188 Q127.7188,280.8906 127.1563,280.7031 Q126.5938,280.5 126.0313,280.5 Q125.3281,280.5 124.7344,280.7813 Q124.1563,281.0625 123.7031,281.6875 Q123.25,282.3125 123.25,283.1719 L123.25,284.0938 Q123.25,285.125 124.0938,285.8125 Q124.9375,286.5 126.4375,286.5 Q127.3281,286.5 127.9531,286.2969 Q128.3125,286.1875 128.7188,285.8281 Q128.9844,285.625 129.125,285.5625 Q129.2656,285.5 129.4375,285.5 Q129.7656,285.5 130,285.7656 Q130.25,286.0156 130.25,286.375 Q130.25,286.7188 129.9063,287.125 Q129.4063,287.7188 128.6094,288.0469 Q127.5625,288.5 126.2813,288.5 Q124.7813,288.5 123.5781,287.9063 Q122.6094,287.4375 121.9219,286.4219 Q121.25,285.4063 121.25,284.2031 L121.25,283.1094 Q121.25,281.8594 121.8438,280.7656 Q122.4531,279.6719 123.5,279.0938 Q124.5625,278.5 125.75,278.5 Q126.4688,278.5 127.0938,278.75 Q127.7188,279 128.25,279.5 Z " fill="#000000"/><text fill="#000000" font-family="sans-serif" font-size="12" lengthAdjust="spacing" textLength="60" x="146.75" y="287.9102">Application</text><line style="stroke:#A80036;stroke-width:1.5;" x1="8" x2="313" y1="299" y2="299"/><line style="stroke:#A80036;stroke-width:1.5;" x1="8" x2="313" y1="307" y2="307"/><text fill="#000000" font-family="sans-serif" font-size="11" lengthAdjust="spacing" textLength="292" x="13" y="322.4189">+createClient(clients citizen card number, NHS number,  birth</text><text fill="#000000" font-family="sans-serif" font-size="11" lengthAdjust="spacing" textLength="250" x="16" y="336.2549">date, sex, TIN number, e-mail, name, phone number)</text><text fill="#000000" font-family="sans-serif" font-size="11" lengthAdjust="spacing" textLength="85" x="13" y="350.0908">+validateClient(cl)</text><text fill="#000000" font-family="sans-serif" font-size="11" lengthAdjust="spacing" textLength="72" x="13" y="363.9268">+saveClient(cl)</text><text fill="#000000" font-family="sans-serif" font-size="11" lengthAdjust="spacing" textLength="64" x="13" y="377.7627">-addClient(cl)</text><!--MD5=[71152100d89f377ebd8dc97f1c2b0d02]
class RegisterClientUI--><rect codeLine="11" fill="#FEFECE" filter="url(#f1i676oxkywm4s)" height="48" id="RegisterClientUI" style="stroke:#A80036;stroke-width:1.5;" width="123" x="202" y="7"/><ellipse cx="217" cy="23" fill="#ADD1B2" rx="11" ry="11" style="stroke:#A80036;stroke-width:1.0;"/><path d="M219,19.5 Q219.2031,19 219.4375,18.75 Q219.6719,18.5 219.9375,18.5 Q220.4063,18.5 220.7031,18.7813 Q221,19.0625 221,19.7188 L221,21.2813 Q221,21.9375 220.7188,22.2188 Q220.4375,22.5 220,22.5 Q219.6094,22.5 219.3594,22.3281 Q219.1094,22.1563 219,21.7031 Q218.9531,21.3906 218.7813,21.2188 Q218.4688,20.8906 217.9063,20.7031 Q217.3438,20.5 216.7813,20.5 Q216.0781,20.5 215.4844,20.7813 Q214.9063,21.0625 214.4531,21.6875 Q214,22.3125 214,23.1719 L214,24.0938 Q214,25.125 214.8438,25.8125 Q215.6875,26.5 217.1875,26.5 Q218.0781,26.5 218.7031,26.2969 Q219.0625,26.1875 219.4688,25.8281 Q219.7344,25.625 219.875,25.5625 Q220.0156,25.5 220.1875,25.5 Q220.5156,25.5 220.75,25.7656 Q221,26.0156 221,26.375 Q221,26.7188 220.6563,27.125 Q220.1563,27.7188 219.3594,28.0469 Q218.3125,28.5 217.0313,28.5 Q215.5313,28.5 214.3281,27.9063 Q213.3594,27.4375 212.6719,26.4219 Q212,25.4063 212,24.2031 L212,23.1094 Q212,21.8594 212.5938,20.7656 Q213.2031,19.6719 214.25,19.0938 Q215.3125,18.5 216.5,18.5 Q217.2188,18.5 217.8438,18.75 Q218.4688,19 219,19.5 Z " fill="#000000"/><text fill="#000000" font-family="sans-serif" font-size="12" lengthAdjust="spacing" textLength="91" x="231" y="27.9102">RegisterClientUI</text><line style="stroke:#A80036;stroke-width:1.5;" x1="203" x2="324" y1="39" y2="39"/><line style="stroke:#A80036;stroke-width:1.5;" x1="203" x2="324" y1="47" y2="47"/><!--MD5=[ed6624c6556d5e7b1bd23032162d20b7]
class Client--><rect codeLine="15" fill="#FEFECE" filter="url(#f1i676oxkywm4s)" height="186.3594" id="Client" style="stroke:#A80036;stroke-width:1.5;" width="276" x="126.5" y="462"/><ellipse cx="244.25" cy="478" fill="#ADD1B2" rx="11" ry="11" style="stroke:#A80036;stroke-width:1.0;"/><path d="M246.25,474.5 Q246.4531,474 246.6875,473.75 Q246.9219,473.5 247.1875,473.5 Q247.6563,473.5 247.9531,473.7813 Q248.25,474.0625 248.25,474.7188 L248.25,476.2813 Q248.25,476.9375 247.9688,477.2188 Q247.6875,477.5 247.25,477.5 Q246.8594,477.5 246.6094,477.3281 Q246.3594,477.1563 246.25,476.7031 Q246.2031,476.3906 246.0313,476.2188 Q245.7188,475.8906 245.1563,475.7031 Q244.5938,475.5 244.0313,475.5 Q243.3281,475.5 242.7344,475.7813 Q242.1563,476.0625 241.7031,476.6875 Q241.25,477.3125 241.25,478.1719 L241.25,479.0938 Q241.25,480.125 242.0938,480.8125 Q242.9375,481.5 244.4375,481.5 Q245.3281,481.5 245.9531,481.2969 Q246.3125,481.1875 246.7188,480.8281 Q246.9844,480.625 247.125,480.5625 Q247.2656,480.5 247.4375,480.5 Q247.7656,480.5 248,480.7656 Q248.25,481.0156 248.25,481.375 Q248.25,481.7188 247.9063,482.125 Q247.4063,482.7188 246.6094,483.0469 Q245.5625,483.5 244.2813,483.5 Q242.7813,483.5 241.5781,482.9063 Q240.6094,482.4375 239.9219,481.4219 Q239.25,480.4063 239.25,479.2031 L239.25,478.1094 Q239.25,476.8594 239.8438,475.7656 Q240.4531,474.6719 241.5,474.0938 Q242.5625,473.5 243.75,473.5 Q244.4688,473.5 245.0938,473.75 Q245.7188,474 246.25,474.5 Z " fill="#000000"/><text fill="#000000" font-family="sans-serif" font-size="12" lengthAdjust="spacing" textLength="32" x="264.75" y="482.9102">Client</text><line style="stroke:#A80036;stroke-width:1.5;" x1="127.5" x2="401.5" y1="494" y2="494"/><text fill="#000000" font-family="sans-serif" font-size="11" lengthAdjust="spacing" textLength="127" x="132.5" y="509.4189">-clientsCitizenCardNumber</text><text fill="#000000" font-family="sans-serif" font-size="11" lengthAdjust="spacing" textLength="59" x="132.5" y="523.2549">-nhsNumber</text><text fill="#000000" font-family="sans-serif" font-size="11" lengthAdjust="spacing" textLength="47" x="132.5" y="537.0908">-birthDate</text><text fill="#000000" font-family="sans-serif" font-size="11" lengthAdjust="spacing" textLength="22" x="132.5" y="550.9268">-sex</text><text fill="#000000" font-family="sans-serif" font-size="11" lengthAdjust="spacing" textLength="52" x="132.5" y="564.7627">-tinNumber</text><text fill="#000000" font-family="sans-serif" font-size="11" lengthAdjust="spacing" textLength="28" x="132.5" y="578.5986">-email</text><text fill="#000000" font-family="sans-serif" font-size="11" lengthAdjust="spacing" textLength="30" x="132.5" y="592.4346">-name</text><text fill="#000000" font-family="sans-serif" font-size="11" lengthAdjust="spacing" textLength="71" x="132.5" y="606.2705">-phoneNumber</text><line style="stroke:#A80036;stroke-width:1.5;" x1="127.5" x2="401.5" y1="612.6875" y2="612.6875"/><text fill="#000000" font-family="sans-serif" font-size="11" lengthAdjust="spacing" textLength="261" x="132.5" y="628.1064">+Client(clients citizen card number, NHS number,  birth</text><text fill="#000000" font-family="sans-serif" font-size="11" lengthAdjust="spacing" textLength="250" x="135.5" y="641.9424">date, sex, TIN number, e-mail, name, phone number)</text><!--MD5=[1a7fda4a36185bcd740bdf14b2b3a45e]
class RegisterClientController--><rect codeLine="28" fill="#FEFECE" filter="url(#f1i676oxkywm4s)" height="89.5078" id="RegisterClientController" style="stroke:#A80036;stroke-width:1.5;" width="307" x="110" y="116"/><ellipse cx="192.75" cy="132" fill="#ADD1B2" rx="11" ry="11" style="stroke:#A80036;stroke-width:1.0;"/><path d="M194.75,128.5 Q194.9531,128 195.1875,127.75 Q195.4219,127.5 195.6875,127.5 Q196.1563,127.5 196.4531,127.7813 Q196.75,128.0625 196.75,128.7188 L196.75,130.2813 Q196.75,130.9375 196.4688,131.2188 Q196.1875,131.5 195.75,131.5 Q195.3594,131.5 195.1094,131.3281 Q194.8594,131.1563 194.75,130.7031 Q194.7031,130.3906 194.5313,130.2188 Q194.2188,129.8906 193.6563,129.7031 Q193.0938,129.5 192.5313,129.5 Q191.8281,129.5 191.2344,129.7813 Q190.6563,130.0625 190.2031,130.6875 Q189.75,131.3125 189.75,132.1719 L189.75,133.0938 Q189.75,134.125 190.5938,134.8125 Q191.4375,135.5 192.9375,135.5 Q193.8281,135.5 194.4531,135.2969 Q194.8125,135.1875 195.2188,134.8281 Q195.4844,134.625 195.625,134.5625 Q195.7656,134.5 195.9375,134.5 Q196.2656,134.5 196.5,134.7656 Q196.75,135.0156 196.75,135.375 Q196.75,135.7188 196.4063,136.125 Q195.9063,136.7188 195.1094,137.0469 Q194.0625,137.5 192.7813,137.5 Q191.2813,137.5 190.0781,136.9063 Q189.1094,136.4375 188.4219,135.4219 Q187.75,134.4063 187.75,133.2031 L187.75,132.1094 Q187.75,130.8594 188.3438,129.7656 Q188.9531,128.6719 190,128.0938 Q191.0625,127.5 192.25,127.5 Q192.9688,127.5 193.5938,127.75 Q194.2188,128 194.75,128.5 Z " fill="#000000"/><text fill="#000000" font-family="sans-serif" font-size="12" lengthAdjust="spacing" textLength="133" x="213.25" y="136.9102">RegisterClientController</text><line style="stroke:#A80036;stroke-width:1.5;" x1="111" x2="416" y1="148" y2="148"/><line style="stroke:#A80036;stroke-width:1.5;" x1="111" x2="416" y1="156" y2="156"/><text fill="#000000" font-family="sans-serif" font-size="11" lengthAdjust="spacing" textLength="292" x="116" y="171.4189">+createClient(clients citizen card number, NHS number,  birth</text><text fill="#000000" font-family="sans-serif" font-size="11" lengthAdjust="spacing" textLength="250" x="119" y="185.2549">date, sex, TIN number, e-mail, name, phone number)</text><text fill="#000000" font-family="sans-serif" font-size="11" lengthAdjust="spacing" textLength="64" x="116" y="199.0908">+saveClient()</text><!--MD5=[98d2d934d445daef8d5bcbeea20c1f70]
link RegisterClientUI to RegisterClientController--><path codeLine="33" d="M263.5,55.18 C263.5,70.59 263.5,91.42 263.5,110.45 " fill="none" id="RegisterClientUI-to-RegisterClientController" style="stroke:#A80036;stroke-width:1.0;stroke-dasharray:7.0,7.0;"/><polygon fill="#A80036" points="263.5,115.76,267.5,106.76,263.5,110.76,259.5,106.76,263.5,115.76" style="stroke:#A80036;stroke-width:1.0;"/><!--MD5=[ae8fe14d7e95b6387921349eaddfedb8]
link RegisterClientController to Application--><path codeLine="34" d="M235.35,206.4 C224.48,223.56 211.85,243.49 200.09,262.04 " fill="none" id="RegisterClientController-to-Application" style="stroke:#A80036;stroke-width:1.0;stroke-dasharray:7.0,7.0;"/><polygon fill="#A80036" points="197.12,266.72,205.3218,261.2674,199.8007,262.4993,198.5687,256.9783,197.12,266.72" style="stroke:#A80036;stroke-width:1.0;"/><!--MD5=[ed103a8ea2b4d350bb3452ad82ebe4da]
link RegisterClientController to Client--><path codeLine="35" d="M300.18,206.18 C312.68,223.95 325.1,245.34 331.5,267 C350.01,329.64 333.4,401.18 312.09,457.16 " fill="none" id="RegisterClientController-to-Client" style="stroke:#A80036;stroke-width:1.0;stroke-dasharray:7.0,7.0;"/><polygon fill="#A80036" points="310.28,461.84,317.2485,454.8801,312.0778,457.1744,309.7835,452.0037,310.28,461.84" style="stroke:#A80036;stroke-width:1.0;"/><!--MD5=[294ea62bf67de03e8ef172f826877f83]
link Application to Client--><path codeLine="36" d="M186.88,384.2 C197.02,406.38 208.89,432.36 220.26,457.23 " fill="none" id="Application-to-Client" style="stroke:#A80036;stroke-width:1.0;"/><polygon fill="#A80036" points="222.38,461.85,222.2856,452.0016,220.3056,457.3006,215.0066,455.3206,222.38,461.85" style="stroke:#A80036;stroke-width:1.0;"/><text fill="#000000" font-family="sans-serif" font-size="13" lengthAdjust="spacing" textLength="53" x="207.5" y="428.4951">conducts</text><text fill="#000000" font-family="sans-serif" font-size="13" lengthAdjust="spacing" textLength="7" x="182.6685" y="405.8347">1</text><text fill="#000000" font-family="sans-serif" font-size="13" lengthAdjust="spacing" textLength="5" x="213.8243" y="451.2844">*</text><!--MD5=[39aea711d1e37fce2ab3e3fc1fa0ee8b]
@startuml
skinparam classAttributeIconSize 0

class Application
{
  +createClient(clients citizen card number, NHS number,  birth \n date, sex, TIN number, e-mail, name, phone number)
  +validateClient(cl)
  +saveClient(cl)
  -addClient(cl)
}

class RegisterClientUI {

}

class Client {
-clientsCitizenCardNumber
-nhsNumber
-birthDate
-sex
-tinNumber
-email
-name
-phoneNumber
+Client(clients citizen card number, NHS number,  birth \n date, sex, TIN number, e-mail, name, phone number)

}

class RegisterClientController{
+createClient(clients citizen card number, NHS number,  birth \n date, sex, TIN number, e-mail, name, phone number)
+saveClient()
}

RegisterClientUI ..> RegisterClientController
RegisterClientController ..> Application
RegisterClientController ..> Client
Application "1" - -> "*" Client : conducts



@enduml

PlantUML version 1.2021.00(Sun Jan 10 10:25:05 GMT 2021)
(GPL source distribution)
Java Runtime: OpenJDK Runtime Environment
JVM: OpenJDK 64-Bit Server VM
Default Encoding: Cp1252
Language: pt
Country: PT
--></g></svg>