<?xml version="1.0" encoding="UTF-8" standalone="no"?><svg xmlns="http://www.w3.org/2000/svg" xmlns:xlink="http://www.w3.org/1999/xlink" contentScriptType="application/ecmascript" contentStyleType="text/css" height="785px" preserveAspectRatio="none" style="width:724px;height:785px;" version="1.1" viewBox="0 0 724 785" width="724px" zoomAndPan="magnify"><defs><filter height="300%" id="f1as89ix9juvfx" width="300%" x="-1" y="-1"><feGaussianBlur result="blurOut" stdDeviation="2.0"/><feColorMatrix in="blurOut" result="blurOut2" type="matrix" values="0 0 0 0 0 0 0 0 0 0 0 0 0 0 0 0 0 0 .4 0"/><feOffset dx="4.0" dy="4.0" in="blurOut2" result="blurOut3"/><feBlend in="SourceGraphic" in2="blurOut3" mode="normal"/></filter></defs><g><!--MD5=[ed6624c6556d5e7b1bd23032162d20b7]
class Client--><rect codeLine="3" fill="#FEFECE" filter="url(#f1as89ix9juvfx)" height="186.3594" id="Client" style="stroke:#A80036;stroke-width:1.5;" width="284" x="136.5" y="585"/><ellipse cx="258.25" cy="601" fill="#ADD1B2" rx="11" ry="11" style="stroke:#A80036;stroke-width:1.0;"/><path d="M260.25,597.5 Q260.4531,597 260.6875,596.75 Q260.9219,596.5 261.1875,596.5 Q261.6563,596.5 261.9531,596.7813 Q262.25,597.0625 262.25,597.7188 L262.25,599.2813 Q262.25,599.9375 261.9688,600.2188 Q261.6875,600.5 261.25,600.5 Q260.8594,600.5 260.6094,600.3281 Q260.3594,600.1563 260.25,599.7031 Q260.2031,599.3906 260.0313,599.2188 Q259.7188,598.8906 259.1563,598.7031 Q258.5938,598.5 258.0313,598.5 Q257.3281,598.5 256.7344,598.7813 Q256.1563,599.0625 255.7031,599.6875 Q255.25,600.3125 255.25,601.1719 L255.25,602.0938 Q255.25,603.125 256.0938,603.8125 Q256.9375,604.5 258.4375,604.5 Q259.3281,604.5 259.9531,604.2969 Q260.3125,604.1875 260.7188,603.8281 Q260.9844,603.625 261.125,603.5625 Q261.2656,603.5 261.4375,603.5 Q261.7656,603.5 262,603.7656 Q262.25,604.0156 262.25,604.375 Q262.25,604.7188 261.9063,605.125 Q261.4063,605.7188 260.6094,606.0469 Q259.5625,606.5 258.2813,606.5 Q256.7813,606.5 255.5781,605.9063 Q254.6094,605.4375 253.9219,604.4219 Q253.25,603.4063 253.25,602.2031 L253.25,601.1094 Q253.25,599.8594 253.8438,598.7656 Q254.4531,597.6719 255.5,597.0938 Q256.5625,596.5 257.75,596.5 Q258.4688,596.5 259.0938,596.75 Q259.7188,597 260.25,597.5 Z " fill="#000000"/><text fill="#000000" font-family="sans-serif" font-size="12" lengthAdjust="spacing" textLength="32" x="278.75" y="605.9102">Client</text><line style="stroke:#A80036;stroke-width:1.5;" x1="137.5" x2="419.5" y1="617" y2="617"/><text fill="#000000" font-family="sans-serif" font-size="11" lengthAdjust="spacing" textLength="127" x="142.5" y="632.4189">-clientsCitizenCardNumber</text><text fill="#000000" font-family="sans-serif" font-size="11" lengthAdjust="spacing" textLength="59" x="142.5" y="646.2549">-nhsNumber</text><text fill="#000000" font-family="sans-serif" font-size="11" lengthAdjust="spacing" textLength="47" x="142.5" y="660.0908">-birthDate</text><text fill="#000000" font-family="sans-serif" font-size="11" lengthAdjust="spacing" textLength="22" x="142.5" y="673.9268">-sex</text><text fill="#000000" font-family="sans-serif" font-size="11" lengthAdjust="spacing" textLength="52" x="142.5" y="687.7627">-tinNumber</text><text fill="#000000" font-family="sans-serif" font-size="11" lengthAdjust="spacing" textLength="28" x="142.5" y="701.5986">-email</text><text fill="#000000" font-family="sans-serif" font-size="11" lengthAdjust="spacing" textLength="30" x="142.5" y="715.4346">-name</text><text fill="#000000" font-family="sans-serif" font-size="11" lengthAdjust="spacing" textLength="71" x="142.5" y="729.2705">-phoneNumber</text><line style="stroke:#A80036;stroke-width:1.5;" x1="137.5" x2="419.5" y1="735.6875" y2="735.6875"/><text fill="#000000" font-family="sans-serif" font-size="11" lengthAdjust="spacing" textLength="269" x="142.5" y="751.1064">+Client(clientsCitizenCardNumber, nhsNumber, birthDate</text><text fill="#000000" font-family="sans-serif" font-size="11" lengthAdjust="spacing" textLength="220" x="142.5" y="764.9424">, sex, tinNumber, email, name, phoneNumber )</text><!--MD5=[55cb992be19579b505cea3c5691093cb]
class ClientStore--><rect codeLine="15" fill="#FEFECE" filter="url(#f1as89ix9juvfx)" height="103.3438" id="ClientStore" style="stroke:#A80036;stroke-width:1.5;" width="315" x="7" y="421"/><ellipse cx="129.75" cy="437" fill="#ADD1B2" rx="11" ry="11" style="stroke:#A80036;stroke-width:1.0;"/><path d="M131.75,433.5 Q131.9531,433 132.1875,432.75 Q132.4219,432.5 132.6875,432.5 Q133.1563,432.5 133.4531,432.7813 Q133.75,433.0625 133.75,433.7188 L133.75,435.2813 Q133.75,435.9375 133.4688,436.2188 Q133.1875,436.5 132.75,436.5 Q132.3594,436.5 132.1094,436.3281 Q131.8594,436.1563 131.75,435.7031 Q131.7031,435.3906 131.5313,435.2188 Q131.2188,434.8906 130.6563,434.7031 Q130.0938,434.5 129.5313,434.5 Q128.8281,434.5 128.2344,434.7813 Q127.6563,435.0625 127.2031,435.6875 Q126.75,436.3125 126.75,437.1719 L126.75,438.0938 Q126.75,439.125 127.5938,439.8125 Q128.4375,440.5 129.9375,440.5 Q130.8281,440.5 131.4531,440.2969 Q131.8125,440.1875 132.2188,439.8281 Q132.4844,439.625 132.625,439.5625 Q132.7656,439.5 132.9375,439.5 Q133.2656,439.5 133.5,439.7656 Q133.75,440.0156 133.75,440.375 Q133.75,440.7188 133.4063,441.125 Q132.9063,441.7188 132.1094,442.0469 Q131.0625,442.5 129.7813,442.5 Q128.2813,442.5 127.0781,441.9063 Q126.1094,441.4375 125.4219,440.4219 Q124.75,439.4063 124.75,438.2031 L124.75,437.1094 Q124.75,435.8594 125.3438,434.7656 Q125.9531,433.6719 127,433.0938 Q128.0625,432.5 129.25,432.5 Q129.9688,432.5 130.5938,432.75 Q131.2188,433 131.75,433.5 Z " fill="#000000"/><text fill="#000000" font-family="sans-serif" font-size="12" lengthAdjust="spacing" textLength="61" x="150.25" y="441.9102">ClientStore</text><line style="stroke:#A80036;stroke-width:1.5;" x1="8" x2="321" y1="453" y2="453"/><line style="stroke:#A80036;stroke-width:1.5;" x1="8" x2="321" y1="461" y2="461"/><text fill="#000000" font-family="sans-serif" font-size="11" lengthAdjust="spacing" textLength="300" x="13" y="476.4189">+createClient(clientsCitizenCardNumber, nhsNumber, birthDate</text><text fill="#000000" font-family="sans-serif" font-size="11" lengthAdjust="spacing" textLength="217" x="13" y="490.2549">, sex, tinNumber, email, name, phoneNumber)</text><text fill="#000000" font-family="sans-serif" font-size="11" lengthAdjust="spacing" textLength="85" x="13" y="504.0908">+validateClient(cl)</text><text fill="#000000" font-family="sans-serif" font-size="11" lengthAdjust="spacing" textLength="72" x="13" y="517.9268">+saveClient(cl)</text><!--MD5=[8ae808d068a8995f06b9b3ec51357f0b]
class AuthFacade--><rect codeLine="22" fill="#FEFECE" filter="url(#f1as89ix9juvfx)" height="75.6719" id="AuthFacade" style="stroke:#A80036;stroke-width:1.5;" width="244" x="466.5" y="434.5"/><ellipse cx="551.75" cy="450.5" fill="#ADD1B2" rx="11" ry="11" style="stroke:#A80036;stroke-width:1.0;"/><path d="M553.75,447 Q553.9531,446.5 554.1875,446.25 Q554.4219,446 554.6875,446 Q555.1563,446 555.4531,446.2813 Q555.75,446.5625 555.75,447.2188 L555.75,448.7813 Q555.75,449.4375 555.4688,449.7188 Q555.1875,450 554.75,450 Q554.3594,450 554.1094,449.8281 Q553.8594,449.6563 553.75,449.2031 Q553.7031,448.8906 553.5313,448.7188 Q553.2188,448.3906 552.6563,448.2031 Q552.0938,448 551.5313,448 Q550.8281,448 550.2344,448.2813 Q549.6563,448.5625 549.2031,449.1875 Q548.75,449.8125 548.75,450.6719 L548.75,451.5938 Q548.75,452.625 549.5938,453.3125 Q550.4375,454 551.9375,454 Q552.8281,454 553.4531,453.7969 Q553.8125,453.6875 554.2188,453.3281 Q554.4844,453.125 554.625,453.0625 Q554.7656,453 554.9375,453 Q555.2656,453 555.5,453.2656 Q555.75,453.5156 555.75,453.875 Q555.75,454.2188 555.4063,454.625 Q554.9063,455.2188 554.1094,455.5469 Q553.0625,456 551.7813,456 Q550.2813,456 549.0781,455.4063 Q548.1094,454.9375 547.4219,453.9219 Q546.75,452.9063 546.75,451.7031 L546.75,450.6094 Q546.75,449.3594 547.3438,448.2656 Q547.9531,447.1719 549,446.5938 Q550.0625,446 551.25,446 Q551.9688,446 552.5938,446.25 Q553.2188,446.5 553.75,447 Z " fill="#000000"/><text fill="#000000" font-family="sans-serif" font-size="12" lengthAdjust="spacing" textLength="65" x="572.25" y="455.4102">AuthFacade</text><line style="stroke:#A80036;stroke-width:1.5;" x1="467.5" x2="709.5" y1="466.5" y2="466.5"/><line style="stroke:#A80036;stroke-width:1.5;" x1="467.5" x2="709.5" y1="474.5" y2="474.5"/><text fill="#000000" font-family="sans-serif" font-size="11" lengthAdjust="spacing" textLength="232" x="472.5" y="489.9189">+addUser(String name, String email, String pwd)</text><text fill="#000000" font-family="sans-serif" font-size="11" lengthAdjust="spacing" textLength="121" x="472.5" y="503.7549">+existsUser(String email)</text><!--MD5=[02e4b9b7573f1156f41e60aa5b4e25a4]
class Company--><rect codeLine="29" fill="#FEFECE" filter="url(#f1as89ix9juvfx)" height="75.6719" id="Company" style="stroke:#A80036;stroke-width:1.5;" width="112" x="336.5" y="267"/><ellipse cx="363.65" cy="283" fill="#ADD1B2" rx="11" ry="11" style="stroke:#A80036;stroke-width:1.0;"/><path d="M365.65,279.5 Q365.8531,279 366.0875,278.75 Q366.3219,278.5 366.5875,278.5 Q367.0563,278.5 367.3531,278.7813 Q367.65,279.0625 367.65,279.7188 L367.65,281.2813 Q367.65,281.9375 367.3688,282.2188 Q367.0875,282.5 366.65,282.5 Q366.2594,282.5 366.0094,282.3281 Q365.7594,282.1563 365.65,281.7031 Q365.6031,281.3906 365.4313,281.2188 Q365.1188,280.8906 364.5563,280.7031 Q363.9938,280.5 363.4313,280.5 Q362.7281,280.5 362.1344,280.7813 Q361.5563,281.0625 361.1031,281.6875 Q360.65,282.3125 360.65,283.1719 L360.65,284.0938 Q360.65,285.125 361.4938,285.8125 Q362.3375,286.5 363.8375,286.5 Q364.7281,286.5 365.3531,286.2969 Q365.7125,286.1875 366.1188,285.8281 Q366.3844,285.625 366.525,285.5625 Q366.6656,285.5 366.8375,285.5 Q367.1656,285.5 367.4,285.7656 Q367.65,286.0156 367.65,286.375 Q367.65,286.7188 367.3063,287.125 Q366.8063,287.7188 366.0094,288.0469 Q364.9625,288.5 363.6813,288.5 Q362.1813,288.5 360.9781,287.9063 Q360.0094,287.4375 359.3219,286.4219 Q358.65,285.4063 358.65,284.2031 L358.65,283.1094 Q358.65,281.8594 359.2438,280.7656 Q359.8531,279.6719 360.9,279.0938 Q361.9625,278.5 363.15,278.5 Q363.8688,278.5 364.4938,278.75 Q365.1188,279 365.65,279.5 Z " fill="#000000"/><text fill="#000000" font-family="sans-serif" font-size="12" lengthAdjust="spacing" textLength="53" x="380.35" y="287.9102">Company</text><line style="stroke:#A80036;stroke-width:1.5;" x1="337.5" x2="447.5" y1="299" y2="299"/><text fill="#000000" font-family="sans-serif" font-size="11" lengthAdjust="spacing" textLength="59" x="342.5" y="314.4189">-designation</text><line style="stroke:#A80036;stroke-width:1.5;" x1="337.5" x2="447.5" y1="320.8359" y2="320.8359"/><text fill="#000000" font-family="sans-serif" font-size="11" lengthAdjust="spacing" textLength="100" x="342.5" y="336.2549">+getTestTypeStore()</text><!--MD5=[51de5e7b448e98e1f71289edad994864]
class CreateTaskController--><rect codeLine="38" fill="#FEFECE" filter="url(#f1as89ix9juvfx)" height="89.5078" id="CreateTaskController" style="stroke:#A80036;stroke-width:1.5;" width="315" x="235" y="116"/><ellipse cx="329.25" cy="132" fill="#ADD1B2" rx="11" ry="11" style="stroke:#A80036;stroke-width:1.0;"/><path d="M331.25,128.5 Q331.4531,128 331.6875,127.75 Q331.9219,127.5 332.1875,127.5 Q332.6563,127.5 332.9531,127.7813 Q333.25,128.0625 333.25,128.7188 L333.25,130.2813 Q333.25,130.9375 332.9688,131.2188 Q332.6875,131.5 332.25,131.5 Q331.8594,131.5 331.6094,131.3281 Q331.3594,131.1563 331.25,130.7031 Q331.2031,130.3906 331.0313,130.2188 Q330.7188,129.8906 330.1563,129.7031 Q329.5938,129.5 329.0313,129.5 Q328.3281,129.5 327.7344,129.7813 Q327.1563,130.0625 326.7031,130.6875 Q326.25,131.3125 326.25,132.1719 L326.25,133.0938 Q326.25,134.125 327.0938,134.8125 Q327.9375,135.5 329.4375,135.5 Q330.3281,135.5 330.9531,135.2969 Q331.3125,135.1875 331.7188,134.8281 Q331.9844,134.625 332.125,134.5625 Q332.2656,134.5 332.4375,134.5 Q332.7656,134.5 333,134.7656 Q333.25,135.0156 333.25,135.375 Q333.25,135.7188 332.9063,136.125 Q332.4063,136.7188 331.6094,137.0469 Q330.5625,137.5 329.2813,137.5 Q327.7813,137.5 326.5781,136.9063 Q325.6094,136.4375 324.9219,135.4219 Q324.25,134.4063 324.25,133.2031 L324.25,132.1094 Q324.25,130.8594 324.8438,129.7656 Q325.4531,128.6719 326.5,128.0938 Q327.5625,127.5 328.75,127.5 Q329.4688,127.5 330.0938,127.75 Q330.7188,128 331.25,128.5 Z " fill="#000000"/><text fill="#000000" font-family="sans-serif" font-size="12" lengthAdjust="spacing" textLength="118" x="349.75" y="136.9102">CreateTaskController</text><line style="stroke:#A80036;stroke-width:1.5;" x1="236" x2="549" y1="148" y2="148"/><line style="stroke:#A80036;stroke-width:1.5;" x1="236" x2="549" y1="156" y2="156"/><text fill="#000000" font-family="sans-serif" font-size="11" lengthAdjust="spacing" textLength="300" x="241" y="171.4189">+createClient(clientsCitizenCardNumber, nhsNumber, birthDate</text><text fill="#000000" font-family="sans-serif" font-size="11" lengthAdjust="spacing" textLength="217" x="241" y="185.2549">, sex, tinNumber, email, name, phoneNumber)</text><text fill="#000000" font-family="sans-serif" font-size="11" lengthAdjust="spacing" textLength="64" x="241" y="199.0908">+saveClient()</text><!--MD5=[788566af22260aef45bcb38e0a2dd266]
class CreateTaskUI--><rect codeLine="43" fill="#FEFECE" filter="url(#f1as89ix9juvfx)" height="48" id="CreateTaskUI" style="stroke:#A80036;stroke-width:1.5;" width="108" x="338.5" y="7"/><ellipse cx="353.5" cy="23" fill="#ADD1B2" rx="11" ry="11" style="stroke:#A80036;stroke-width:1.0;"/><path d="M355.5,19.5 Q355.7031,19 355.9375,18.75 Q356.1719,18.5 356.4375,18.5 Q356.9063,18.5 357.2031,18.7813 Q357.5,19.0625 357.5,19.7188 L357.5,21.2813 Q357.5,21.9375 357.2188,22.2188 Q356.9375,22.5 356.5,22.5 Q356.1094,22.5 355.8594,22.3281 Q355.6094,22.1563 355.5,21.7031 Q355.4531,21.3906 355.2813,21.2188 Q354.9688,20.8906 354.4063,20.7031 Q353.8438,20.5 353.2813,20.5 Q352.5781,20.5 351.9844,20.7813 Q351.4063,21.0625 350.9531,21.6875 Q350.5,22.3125 350.5,23.1719 L350.5,24.0938 Q350.5,25.125 351.3438,25.8125 Q352.1875,26.5 353.6875,26.5 Q354.5781,26.5 355.2031,26.2969 Q355.5625,26.1875 355.9688,25.8281 Q356.2344,25.625 356.375,25.5625 Q356.5156,25.5 356.6875,25.5 Q357.0156,25.5 357.25,25.7656 Q357.5,26.0156 357.5,26.375 Q357.5,26.7188 357.1563,27.125 Q356.6563,27.7188 355.8594,28.0469 Q354.8125,28.5 353.5313,28.5 Q352.0313,28.5 350.8281,27.9063 Q349.8594,27.4375 349.1719,26.4219 Q348.5,25.4063 348.5,24.2031 L348.5,23.1094 Q348.5,21.8594 349.0938,20.7656 Q349.7031,19.6719 350.75,19.0938 Q351.8125,18.5 353,18.5 Q353.7188,18.5 354.3438,18.75 Q354.9688,19 355.5,19.5 Z " fill="#000000"/><text fill="#000000" font-family="sans-serif" font-size="12" lengthAdjust="spacing" textLength="76" x="367.5" y="27.9102">CreateTaskUI</text><line style="stroke:#A80036;stroke-width:1.5;" x1="339.5" x2="445.5" y1="39" y2="39"/><line style="stroke:#A80036;stroke-width:1.5;" x1="339.5" x2="445.5" y1="47" y2="47"/><!--MD5=[3c2021faa4730756a46abeb810188647]
link CreateTaskUI to CreateTaskController--><path codeLine="47" d="M392.5,55.18 C392.5,70.59 392.5,91.42 392.5,110.45 " fill="none" id="CreateTaskUI-to-CreateTaskController" style="stroke:#A80036;stroke-width:1.0;stroke-dasharray:7.0,7.0;"/><polygon fill="#A80036" points="392.5,115.76,396.5,106.76,392.5,110.76,388.5,106.76,392.5,115.76" style="stroke:#A80036;stroke-width:1.0;"/><!--MD5=[7f979c8575d10bb1687e6dd5e09a77c6]
link CreateTaskController to Company--><path codeLine="48" d="M392.5,206.15 C392.5,223.71 392.5,243.84 392.5,261.26 " fill="none" id="CreateTaskController-to-Company" style="stroke:#A80036;stroke-width:1.0;stroke-dasharray:7.0,7.0;"/><polygon fill="#A80036" points="392.5,266.57,396.5,257.57,392.5,261.57,388.5,257.57,392.5,266.57" style="stroke:#A80036;stroke-width:1.0;"/><!--MD5=[f4eb6a96b895e16e44f8e68ee381c25b]
link CreateTaskController to AuthFacade--><path codeLine="49" d="M431.17,206.03 C465.8,247.09 516.26,311.14 550.5,373 C560.32,390.74 568.74,411.53 575.15,429.44 " fill="none" id="CreateTaskController-to-AuthFacade" style="stroke:#A80036;stroke-width:1.0;stroke-dasharray:7.0,7.0;"/><polygon fill="#A80036" points="576.9,434.4,577.689,424.5828,575.2419,429.6829,570.1417,427.2358,576.9,434.4" style="stroke:#A80036;stroke-width:1.0;"/><!--MD5=[ff0d091702d9b1d4a3d4b8e5ac544a41]
link CreateTaskController to ClientStore--><path codeLine="50" d="M360.08,206.02 C319.25,261.43 249.13,356.62 204.87,416.69 " fill="none" id="CreateTaskController-to-ClientStore" style="stroke:#A80036;stroke-width:1.0;stroke-dasharray:7.0,7.0;"/><polygon fill="#A80036" points="201.73,420.96,210.2914,416.0914,204.6979,416.9362,203.8532,411.3427,201.73,420.96" style="stroke:#A80036;stroke-width:1.0;"/><!--MD5=[6eee883fdf517d3604e8bd0f2058e9aa]
link Company to Client--><path codeLine="52" d="M385.15,343.08 C376.1,386.82 359.45,461.48 339.5,524 C333.65,542.33 326.66,561.6 319.53,580.04 " fill="none" id="Company-to-Client" style="stroke:#A80036;stroke-width:1.0;"/><polygon fill="#A80036" points="317.72,584.71,324.7141,577.7759,319.535,580.0511,317.2598,574.8719,317.72,584.71" style="stroke:#A80036;stroke-width:1.0;"/><text fill="#000000" font-family="sans-serif" font-size="13" lengthAdjust="spacing" textLength="37" x="368.5" y="477.9951">knows</text><text fill="#000000" font-family="sans-serif" font-size="13" lengthAdjust="spacing" textLength="7" x="376.353" y="364.2634">1</text><text fill="#000000" font-family="sans-serif" font-size="13" lengthAdjust="spacing" textLength="5" x="315.6461" y="574.1333">*</text><!--MD5=[a11230341c8e65219708844feaa40162]
link Company to ClientStore--><path codeLine="53" d="M341.33,343.14 C309.69,366.11 268.66,395.89 234.08,420.99 " fill="none" id="Company-ClientStore" style="stroke:#A80036;stroke-width:1.0;"/><polygon fill="#000000" points="300.4536,385.1129,309.5,382.178,306.0472,377.4212,300.4536,385.1129" style="stroke:#000000;stroke-width:1.0;"/><text fill="#000000" font-family="sans-serif" font-size="13" lengthAdjust="spacing" textLength="28" x="313.5" y="387.4951">uses</text><text fill="#000000" font-family="sans-serif" font-size="13" lengthAdjust="spacing" textLength="7" x="325.617" y="364.0428">1</text><text fill="#000000" font-family="sans-serif" font-size="13" lengthAdjust="spacing" textLength="7" x="236.3725" y="410.1171">1</text><!--MD5=[717d4b03d3c4372f4eafe5e342a0a7dd]
link Company to AuthFacade--><path codeLine="54" d="M436.49,343.14 C468.77,370.4 512.42,407.26 544.66,434.48 " fill="none" id="Company-AuthFacade" style="stroke:#A80036;stroke-width:1.0;"/><polygon fill="#000000" points="499.3202,385.4016,494.3055,377.3206,490.5133,381.8115,499.3202,385.4016" style="stroke:#000000;stroke-width:1.0;"/><text fill="#000000" font-family="sans-serif" font-size="13" lengthAdjust="spacing" textLength="37" x="504.5" y="387.4951">knows</text><!--MD5=[1d934105a045dbf126514c6917bd5072]
link ClientStore to Client--><path codeLine="55" d="M192.83,524.06 C202.39,541.14 213.41,560.81 224.29,580.24 " fill="none" id="ClientStore-to-Client" style="stroke:#A80036;stroke-width:1.0;stroke-dasharray:7.0,7.0;"/><polygon fill="#A80036" points="226.76,584.64,225.8477,574.8335,224.3148,580.2787,218.8696,578.7458,226.76,584.64" style="stroke:#A80036;stroke-width:1.0;"/><!--MD5=[226f75eb0f4c1773b9d5ac7133d2a44e]
@startuml
skinparam classAttributeIconSize 0

class Client {
-clientsCitizenCardNumber
-nhsNumber
-birthDate
-sex
-tinNumber
-email
-name
-phoneNumber
+Client(clientsCitizenCardNumber, nhsNumber, birthDate \n, sex, tinNumber, email, name, phoneNumber )
}

class ClientStore{
+createClient(clientsCitizenCardNumber, nhsNumber, birthDate \n, sex, tinNumber, email, name, phoneNumber)
+validateClient(cl)
+saveClient(cl)
}


class AuthFacade{
+addUser(String name, String email, String pwd)
+existsUser(String email)
}



class Company {
-designation
+getTestTypeStore()
}





class CreateTaskController {
  +createClient(clientsCitizenCardNumber, nhsNumber, birthDate \n, sex, tinNumber, email, name, phoneNumber)
  +saveClient()
}

class CreateTaskUI {

}

CreateTaskUI ..> CreateTaskController
CreateTaskController ..> Company
CreateTaskController ..> AuthFacade
CreateTaskController ..> ClientStore
'/Client ..> UserSession'/
Company "1" - -> "*" Client : knows
Company "1" - - "1" ClientStore : uses >
Company  - -  AuthFacade : knows >
ClientStore ..> Client

@enduml

@startuml
skinparam classAttributeIconSize 0

class Client {
-clientsCitizenCardNumber
-nhsNumber
-birthDate
-sex
-tinNumber
-email
-name
-phoneNumber
+Client(clientsCitizenCardNumber, nhsNumber, birthDate \n, sex, tinNumber, email, name, phoneNumber )
}

class ClientStore{
+createClient(clientsCitizenCardNumber, nhsNumber, birthDate \n, sex, tinNumber, email, name, phoneNumber)
+validateClient(cl)
+saveClient(cl)
}


class AuthFacade{
+addUser(String name, String email, String pwd)
+existsUser(String email)
}



class Company {
-designation
+getTestTypeStore()
}





class CreateTaskController {
  +createClient(clientsCitizenCardNumber, nhsNumber, birthDate \n, sex, tinNumber, email, name, phoneNumber)
  +saveClient()
}

class CreateTaskUI {

}

CreateTaskUI ..> CreateTaskController
CreateTaskController ..> Company
CreateTaskController ..> AuthFacade
CreateTaskController ..> ClientStore
Company "1" - -> "*" Client : knows
Company "1" - - "1" ClientStore : uses >
Company  - -  AuthFacade : knows >
ClientStore ..> Client

@enduml

PlantUML version 1.2021.00(Sun Jan 10 10:25:05 GMT 2021)
(GPL source distribution)
Java Runtime: OpenJDK Runtime Environment
JVM: OpenJDK 64-Bit Server VM
Default Encoding: Cp1252
Language: pt
Country: BR
--></g></svg>