<?xml version="1.0" encoding="UTF-8" standalone="no"?><svg xmlns="http://www.w3.org/2000/svg" xmlns:xlink="http://www.w3.org/1999/xlink" contentScriptType="application/ecmascript" contentStyleType="text/css" height="372.6px" preserveAspectRatio="none" style="width:330px;height:372px;" version="1.1" viewBox="0 0 330 372" width="330.6px" zoomAndPan="magnify"><defs><filter height="300%" id="ftcvt8ld4zogq" width="300%" x="-1" y="-1"><feGaussianBlur result="blurOut" stdDeviation="1.2"/><feColorMatrix in="blurOut" result="blurOut2" type="matrix" values="0 0 0 0 0 0 0 0 0 0 0 0 0 0 0 0 0 0 .4 0"/><feOffset dx="2.4" dy="2.4" in="blurOut2" result="blurOut3"/><feBlend in="SourceGraphic" in2="blurOut3" mode="normal"/></filter></defs><g><!--MD5=[ed6624c6556d5e7b1bd23032162d20b7]
class Client--><rect codeLine="3" fill="#FEFECE" filter="url(#ftcvt8ld4zogq)" height="111.8156" id="Client" style="stroke:#A80036;stroke-width:0.8999999999999999;" width="170.4" x="4.2" y="252.6"/><ellipse cx="77.25" cy="262.2" fill="#ADD1B2" rx="6.6" ry="6.6" style="stroke:#A80036;stroke-width:0.6;"/><path d="M78.45,260.1 Q78.5719,259.8 78.7125,259.65 Q78.8531,259.5 79.0125,259.5 Q79.2938,259.5 79.4719,259.6688 Q79.65,259.8375 79.65,260.2313 L79.65,261.1688 Q79.65,261.5625 79.4813,261.7313 Q79.3125,261.9 79.05,261.9 Q78.8156,261.9 78.6656,261.7969 Q78.5156,261.6937 78.45,261.4219 Q78.4219,261.2344 78.3188,261.1312 Q78.1313,260.9344 77.7938,260.8219 Q77.4563,260.7 77.1187,260.7 Q76.6969,260.7 76.3406,260.8688 Q75.9937,261.0375 75.7219,261.4125 Q75.45,261.7875 75.45,262.3031 L75.45,262.8563 Q75.45,263.475 75.9563,263.8875 Q76.4625,264.3 77.3625,264.3 Q77.8969,264.3 78.2719,264.1781 Q78.4875,264.1125 78.7313,263.8969 Q78.8906,263.775 78.975,263.7375 Q79.0594,263.7 79.1625,263.7 Q79.3594,263.7 79.5,263.8594 Q79.65,264.0094 79.65,264.225 Q79.65,264.4313 79.4438,264.675 Q79.1438,265.0313 78.6656,265.2281 Q78.0375,265.5 77.2688,265.5 Q76.3687,265.5 75.6469,265.1438 Q75.0656,264.8625 74.6531,264.2531 Q74.25,263.6438 74.25,262.9219 L74.25,262.2656 Q74.25,261.5156 74.6063,260.8594 Q74.9719,260.2031 75.6,259.8563 Q76.2375,259.5 76.95,259.5 Q77.3813,259.5 77.7563,259.65 Q78.1313,259.8 78.45,260.1 Z " fill="#000000"/><text fill="#000000" font-family="sans-serif" font-size="7.2" lengthAdjust="spacing" textLength="19.2" x="89.55" y="265.1461">Client</text><line style="stroke:#A80036;stroke-width:0.8999999999999999;" x1="4.8" x2="174" y1="271.8" y2="271.8"/><text fill="#000000" font-family="sans-serif" font-size="6.6" lengthAdjust="spacing" textLength="76.2" x="7.8" y="281.0514">-clientsCitizenCardNumber</text><text fill="#000000" font-family="sans-serif" font-size="6.6" lengthAdjust="spacing" textLength="35.4" x="7.8" y="289.3529">-nhsNumber</text><text fill="#000000" font-family="sans-serif" font-size="6.6" lengthAdjust="spacing" textLength="28.2" x="7.8" y="297.6545">-birthDate</text><text fill="#000000" font-family="sans-serif" font-size="6.6" lengthAdjust="spacing" textLength="13.2" x="7.8" y="305.9561">-sex</text><text fill="#000000" font-family="sans-serif" font-size="6.6" lengthAdjust="spacing" textLength="31.2" x="7.8" y="314.2576">-tinNumber</text><text fill="#000000" font-family="sans-serif" font-size="6.6" lengthAdjust="spacing" textLength="16.8" x="7.8" y="322.5592">-email</text><text fill="#000000" font-family="sans-serif" font-size="6.6" lengthAdjust="spacing" textLength="18" x="7.8" y="330.8607">-name</text><text fill="#000000" font-family="sans-serif" font-size="6.6" lengthAdjust="spacing" textLength="42.6" x="7.8" y="339.1623">-phoneNumber</text><line style="stroke:#A80036;stroke-width:0.8999999999999999;" x1="4.8" x2="174" y1="343.0125" y2="343.0125"/><text fill="#000000" font-family="sans-serif" font-size="6.6" lengthAdjust="spacing" textLength="161.4" x="7.8" y="352.2639">+Client(clientsCitizenCardNumber, nhsNumber, birthDate</text><text fill="#000000" font-family="sans-serif" font-size="6.6" lengthAdjust="spacing" textLength="132" x="7.8" y="360.5654">, sex, tinNumber, email, name, phoneNumber )</text><!--MD5=[c5b08e60048ef1bcd788d24cf324082e]
class UserSession--><rect codeLine="15" fill="#FEFECE" filter="url(#ftcvt8ld4zogq)" height="45.4031" id="UserSession" style="stroke:#A80036;stroke-width:0.8999999999999999;" width="146.4" x="103.8" y="160.2"/><ellipse cx="152.55" cy="169.8" fill="#ADD1B2" rx="6.6" ry="6.6" style="stroke:#A80036;stroke-width:0.6;"/><path d="M153.75,167.7 Q153.8719,167.4 154.0125,167.25 Q154.1531,167.1 154.3125,167.1 Q154.5938,167.1 154.7719,167.2687 Q154.95,167.4375 154.95,167.8312 L154.95,168.7687 Q154.95,169.1625 154.7813,169.3312 Q154.6125,169.5 154.35,169.5 Q154.1156,169.5 153.9656,169.3969 Q153.8156,169.2938 153.75,169.0219 Q153.7219,168.8344 153.6188,168.7313 Q153.4313,168.5344 153.0938,168.4219 Q152.7563,168.3 152.4188,168.3 Q151.9969,168.3 151.6406,168.4688 Q151.2938,168.6375 151.0219,169.0125 Q150.75,169.3875 150.75,169.9031 L150.75,170.4562 Q150.75,171.075 151.2563,171.4875 Q151.7625,171.9 152.6625,171.9 Q153.1969,171.9 153.5719,171.7781 Q153.7875,171.7125 154.0313,171.4969 Q154.1906,171.375 154.275,171.3375 Q154.3594,171.3 154.4625,171.3 Q154.6594,171.3 154.8,171.4594 Q154.95,171.6094 154.95,171.825 Q154.95,172.0313 154.7438,172.275 Q154.4438,172.6313 153.9656,172.8281 Q153.3375,173.1 152.5688,173.1 Q151.6688,173.1 150.9469,172.7438 Q150.3656,172.4625 149.9531,171.8531 Q149.55,171.2438 149.55,170.5219 L149.55,169.8656 Q149.55,169.1156 149.9063,168.4594 Q150.2719,167.8031 150.9,167.4562 Q151.5375,167.1 152.25,167.1 Q152.6813,167.1 153.0563,167.25 Q153.4313,167.4 153.75,167.7 Z " fill="#000000"/><text fill="#000000" font-family="sans-serif" font-size="7.2" lengthAdjust="spacing" textLength="43.8" x="164.85" y="172.7461">UserSession</text><line style="stroke:#A80036;stroke-width:0.8999999999999999;" x1="104.4" x2="249.6" y1="179.4" y2="179.4"/><line style="stroke:#A80036;stroke-width:0.8999999999999999;" x1="104.4" x2="249.6" y1="184.2" y2="184.2"/><text fill="#000000" font-family="sans-serif" font-size="6.6" lengthAdjust="spacing" textLength="139.2" x="107.4" y="193.4514">+addUser(String name, String email, String pwd)</text><text fill="#000000" font-family="sans-serif" font-size="6.6" lengthAdjust="spacing" textLength="72.6" x="107.4" y="201.7529">+existsUser(String email)</text><!--MD5=[02e4b9b7573f1156f41e60aa5b4e25a4]
class Company--><rect codeLine="22" fill="#FEFECE" filter="url(#ftcvt8ld4zogq)" height="37.1016" id="Company" style="stroke:#A80036;stroke-width:0.8999999999999999;" width="51" x="271.5" y="164.4"/><ellipse cx="280.5" cy="174" fill="#ADD1B2" rx="6.6" ry="6.6" style="stroke:#A80036;stroke-width:0.6;"/><path d="M281.7,171.9 Q281.8219,171.6 281.9625,171.45 Q282.1031,171.3 282.2625,171.3 Q282.5438,171.3 282.7219,171.4688 Q282.9,171.6375 282.9,172.0313 L282.9,172.9688 Q282.9,173.3625 282.7313,173.5313 Q282.5625,173.7 282.3,173.7 Q282.0656,173.7 281.9156,173.5969 Q281.7656,173.4938 281.7,173.2219 Q281.6719,173.0344 281.5687,172.9313 Q281.3812,172.7344 281.0438,172.6219 Q280.7063,172.5 280.3688,172.5 Q279.9469,172.5 279.5906,172.6688 Q279.2438,172.8375 278.9719,173.2125 Q278.7,173.5875 278.7,174.1031 L278.7,174.6563 Q278.7,175.275 279.2063,175.6875 Q279.7125,176.1 280.6125,176.1 Q281.1469,176.1 281.5219,175.9781 Q281.7375,175.9125 281.9813,175.6969 Q282.1406,175.575 282.225,175.5375 Q282.3094,175.5 282.4125,175.5 Q282.6094,175.5 282.75,175.6594 Q282.9,175.8094 282.9,176.025 Q282.9,176.2313 282.6937,176.475 Q282.3938,176.8312 281.9156,177.0281 Q281.2875,177.3 280.5188,177.3 Q279.6188,177.3 278.8969,176.9438 Q278.3156,176.6625 277.9031,176.0531 Q277.5,175.4438 277.5,174.7219 L277.5,174.0656 Q277.5,173.3156 277.8563,172.6594 Q278.2219,172.0031 278.85,171.6563 Q279.4875,171.3 280.2,171.3 Q280.6312,171.3 281.0062,171.45 Q281.3812,171.6 281.7,171.9 Z " fill="#000000"/><text fill="#000000" font-family="sans-serif" font-size="7.2" lengthAdjust="spacing" textLength="31.8" x="288.9" y="176.9461">Company</text><line style="stroke:#A80036;stroke-width:0.8999999999999999;" x1="272.1" x2="321.9" y1="183.6" y2="183.6"/><text fill="#000000" font-family="sans-serif" font-size="6.6" lengthAdjust="spacing" textLength="35.4" x="275.1" y="192.8514">-designation</text><line style="stroke:#A80036;stroke-width:0.8999999999999999;" x1="272.1" x2="321.9" y1="196.7016" y2="196.7016"/><!--MD5=[51de5e7b448e98e1f71289edad994864]
class CreateTaskController--><rect codeLine="30" fill="#FEFECE" filter="url(#ftcvt8ld4zogq)" height="53.7047" id="CreateTaskController" style="stroke:#A80036;stroke-width:0.8999999999999999;" width="189" x="82.5" y="69.6"/><ellipse cx="139.05" cy="79.2" fill="#ADD1B2" rx="6.6" ry="6.6" style="stroke:#A80036;stroke-width:0.6;"/><path d="M140.25,77.1 Q140.3719,76.8 140.5125,76.65 Q140.6531,76.5 140.8125,76.5 Q141.0938,76.5 141.2719,76.6688 Q141.45,76.8375 141.45,77.2313 L141.45,78.1688 Q141.45,78.5625 141.2813,78.7313 Q141.1125,78.9 140.85,78.9 Q140.6156,78.9 140.4656,78.7969 Q140.3156,78.6938 140.25,78.4219 Q140.2219,78.2344 140.1188,78.1313 Q139.9313,77.9344 139.5938,77.8219 Q139.2563,77.7 138.9188,77.7 Q138.4969,77.7 138.1406,77.8687 Q137.7938,78.0375 137.5219,78.4125 Q137.25,78.7875 137.25,79.3031 L137.25,79.8563 Q137.25,80.475 137.7563,80.8875 Q138.2625,81.3 139.1625,81.3 Q139.6969,81.3 140.0719,81.1781 Q140.2875,81.1125 140.5313,80.8969 Q140.6906,80.775 140.775,80.7375 Q140.8594,80.7 140.9625,80.7 Q141.1594,80.7 141.3,80.8594 Q141.45,81.0094 141.45,81.225 Q141.45,81.4312 141.2438,81.675 Q140.9438,82.0313 140.4656,82.2281 Q139.8375,82.5 139.0688,82.5 Q138.1688,82.5 137.4469,82.1438 Q136.8656,81.8625 136.4531,81.2531 Q136.05,80.6438 136.05,79.9219 L136.05,79.2656 Q136.05,78.5156 136.4063,77.8594 Q136.7719,77.2031 137.4,76.8563 Q138.0375,76.5 138.75,76.5 Q139.1813,76.5 139.5563,76.65 Q139.9313,76.8 140.25,77.1 Z " fill="#000000"/><text fill="#000000" font-family="sans-serif" font-size="7.2" lengthAdjust="spacing" textLength="70.8" x="151.35" y="82.1461">CreateTaskController</text><line style="stroke:#A80036;stroke-width:0.8999999999999999;" x1="83.1" x2="270.9" y1="88.8" y2="88.8"/><line style="stroke:#A80036;stroke-width:0.8999999999999999;" x1="83.1" x2="270.9" y1="93.6" y2="93.6"/><text fill="#000000" font-family="sans-serif" font-size="6.6" lengthAdjust="spacing" textLength="180" x="86.1" y="102.8514">+createClient(clientsCitizenCardNumber, nhsNumber, birthDate</text><text fill="#000000" font-family="sans-serif" font-size="6.6" lengthAdjust="spacing" textLength="130.2" x="86.1" y="111.1529">, sex, tinNumber, email, name, phoneNumber)</text><text fill="#000000" font-family="sans-serif" font-size="6.6" lengthAdjust="spacing" textLength="38.4" x="86.1" y="119.4545">+saveClient()</text><!--MD5=[788566af22260aef45bcb38e0a2dd266]
class CreateTaskUI--><rect codeLine="35" fill="#FEFECE" filter="url(#ftcvt8ld4zogq)" height="28.8" id="CreateTaskUI" style="stroke:#A80036;stroke-width:0.8999999999999999;" width="64.8" x="144.6" y="4.2"/><ellipse cx="153.6" cy="13.8" fill="#ADD1B2" rx="6.6" ry="6.6" style="stroke:#A80036;stroke-width:0.6;"/><path d="M154.8,11.7 Q154.9219,11.4 155.0625,11.25 Q155.2031,11.1 155.3625,11.1 Q155.6437,11.1 155.8219,11.2687 Q156,11.4375 156,11.8312 L156,12.7687 Q156,13.1625 155.8312,13.3312 Q155.6625,13.5 155.4,13.5 Q155.1656,13.5 155.0156,13.3969 Q154.8656,13.2938 154.8,13.0219 Q154.7719,12.8344 154.6688,12.7313 Q154.4813,12.5344 154.1437,12.4219 Q153.8063,12.3 153.4688,12.3 Q153.0469,12.3 152.6906,12.4688 Q152.3438,12.6375 152.0719,13.0125 Q151.8,13.3875 151.8,13.9031 L151.8,14.4562 Q151.8,15.075 152.3063,15.4875 Q152.8125,15.9 153.7125,15.9 Q154.2469,15.9 154.6219,15.7781 Q154.8375,15.7125 155.0812,15.4969 Q155.2406,15.375 155.325,15.3375 Q155.4094,15.3 155.5125,15.3 Q155.7094,15.3 155.85,15.4594 Q156,15.6094 156,15.825 Q156,16.0313 155.7938,16.275 Q155.4938,16.6312 155.0156,16.8281 Q154.3875,17.1 153.6188,17.1 Q152.7188,17.1 151.9969,16.7438 Q151.4156,16.4625 151.0031,15.8531 Q150.6,15.2437 150.6,14.5219 L150.6,13.8656 Q150.6,13.1156 150.9562,12.4594 Q151.3219,11.8031 151.95,11.4562 Q152.5875,11.1 153.3,11.1 Q153.7313,11.1 154.1063,11.25 Q154.4813,11.4 154.8,11.7 Z " fill="#000000"/><text fill="#000000" font-family="sans-serif" font-size="7.2" lengthAdjust="spacing" textLength="45.6" x="162" y="16.7461">CreateTaskUI</text><line style="stroke:#A80036;stroke-width:0.8999999999999999;" x1="145.2" x2="208.8" y1="23.4" y2="23.4"/><line style="stroke:#A80036;stroke-width:0.8999999999999999;" x1="145.2" x2="208.8" y1="28.2" y2="28.2"/><!--MD5=[3c2021faa4730756a46abeb810188647]
link CreateTaskUI to CreateTaskController--><path codeLine="39" d="M177,33.108 C177,42.354 177,54.852 177,66.27 " fill="none" id="CreateTaskUI-to-CreateTaskController" style="stroke:#A80036;stroke-width:0.6;stroke-dasharray:7.0,7.0;"/><polygon fill="#A80036" points="177,69.456,179.4,64.056,177,66.456,174.6,64.056,177,69.456" style="stroke:#A80036;stroke-width:0.6;"/><!--MD5=[7f979c8575d10bb1687e6dd5e09a77c6]
link CreateTaskController to Company--><path codeLine="40" d="M214.308,123.69 C231.942,136.212 252.642,150.906 268.92,162.462 " fill="none" id="CreateTaskController-to-Company" style="stroke:#A80036;stroke-width:0.6;stroke-dasharray:7.0,7.0;"/><polygon fill="#A80036" points="271.494,164.292,268.488,159.2043,269.0505,162.5515,265.7033,163.114,271.494,164.292" style="stroke:#A80036;stroke-width:0.6;"/><!--MD5=[a24844794ba40114bd2b2ed873e4d9ae]
link CreateTaskController to Client--><path codeLine="41" d="M126.768,123.6 C113.412,133.23 100.596,145.452 93,160.2 C79.038,187.296 77.268,221.064 79.38,249.468 " fill="none" id="CreateTaskController-to-Client" style="stroke:#A80036;stroke-width:0.6;stroke-dasharray:7.0,7.0;"/><polygon fill="#A80036" points="79.626,252.546,81.5865,246.9714,79.3861,249.5556,76.8018,247.3552,79.626,252.546" style="stroke:#A80036;stroke-width:0.6;"/><!--MD5=[d36bb5b89fee6244034c385565d7ff7b]
link CreateTaskController to UserSession--><path codeLine="42" d="M177,123.69 C177,134.226 177,146.304 177,156.756 " fill="none" id="CreateTaskController-to-UserSession" style="stroke:#A80036;stroke-width:0.6;stroke-dasharray:7.0,7.0;"/><polygon fill="#A80036" points="177,159.942,179.4,154.542,177,156.942,174.6,154.542,177,159.942" style="stroke:#A80036;stroke-width:0.6;"/><!--MD5=[6eee883fdf517d3604e8bd0f2058e9aa]
link Company to Client--><path codeLine="44" d="M271.464,199.416 C267.954,201.57 264.39,203.748 261,205.8 C233.862,222.234 204.186,239.958 177.264,255.948 " fill="none" id="Company-to-Client" style="stroke:#A80036;stroke-width:0.6;"/><polygon fill="#A80036" points="174.666,257.49,180.534,256.7927,177.2445,255.9566,178.0806,252.6671,174.666,257.49" style="stroke:#A80036;stroke-width:0.6;"/><text fill="#000000" font-family="sans-serif" font-size="7.8" lengthAdjust="spacing" textLength="22.2" x="228.6" y="232.4971">knows</text><text fill="#000000" font-family="sans-serif" font-size="7.8" lengthAdjust="spacing" textLength="4.2" x="262.5141" y="199.9362">1</text><text fill="#000000" font-family="sans-serif" font-size="7.8" lengthAdjust="spacing" textLength="3" x="179.411" y="252.9403">*</text><!--MD5=[5238319744b8699c5dab1caafd8229fb]
@startuml
skinparam classAttributeIconSize 0

class Client {
-clientsCitizenCardNumber
-nhsNumber
-birthDate
-sex
-tinNumber
-email
-name
-phoneNumber
+Client(clientsCitizenCardNumber, nhsNumber, birthDate \n, sex, tinNumber, email, name, phoneNumber )
}

class UserSession{
+addUser(String name, String email, String pwd)
+existsUser(String email)
}



class Company {
-designation
}





class CreateTaskController {
  +createClient(clientsCitizenCardNumber, nhsNumber, birthDate \n, sex, tinNumber, email, name, phoneNumber)
  +saveClient()
}

class CreateTaskUI {

}

CreateTaskUI ..> CreateTaskController
CreateTaskController ..> Company
CreateTaskController ..> Client
CreateTaskController ..> UserSession
'/Client ..> UserSession'/
Company "1" - -> "*" Client : knows


@enduml

@startuml
skinparam classAttributeIconSize 0

class Client {
-clientsCitizenCardNumber
-nhsNumber
-birthDate
-sex
-tinNumber
-email
-name
-phoneNumber
+Client(clientsCitizenCardNumber, nhsNumber, birthDate \n, sex, tinNumber, email, name, phoneNumber )
}

class UserSession{
+addUser(String name, String email, String pwd)
+existsUser(String email)
}



class Company {
-designation
}





class CreateTaskController {
  +createClient(clientsCitizenCardNumber, nhsNumber, birthDate \n, sex, tinNumber, email, name, phoneNumber)
  +saveClient()
}

class CreateTaskUI {

}

CreateTaskUI ..> CreateTaskController
CreateTaskController ..> Company
CreateTaskController ..> Client
CreateTaskController ..> UserSession
Company "1" - -> "*" Client : knows


@enduml

PlantUML version 1.2021.00(Sun Jan 10 10:25:05 GMT 2021)
(GPL source distribution)
Java Runtime: OpenJDK Runtime Environment
JVM: OpenJDK 64-Bit Server VM
Default Encoding: Cp1252
Language: pt
Country: PT
--></g></svg>